<?xml version="1.0" encoding="utf-8" standalone="no"?>
<!DOCTYPE svg PUBLIC "-//W3C//DTD SVG 1.1//EN"
  "http://www.w3.org/Graphics/SVG/1.1/DTD/svg11.dtd">
<svg xmlns:xlink="http://www.w3.org/1999/xlink" width="568.8pt" height="583.918125pt" viewBox="0 0 568.8 583.918125" xmlns="http://www.w3.org/2000/svg" version="1.1">
 <metadata>
  <rdf:RDF xmlns:dc="http://purl.org/dc/elements/1.1/" xmlns:cc="http://creativecommons.org/ns#" xmlns:rdf="http://www.w3.org/1999/02/22-rdf-syntax-ns#">
   <cc:Work>
    <dc:type rdf:resource="http://purl.org/dc/dcmitype/StillImage"/>
    <dc:date>2022-12-22T19:12:19.439614</dc:date>
    <dc:format>image/svg+xml</dc:format>
    <dc:creator>
     <cc:Agent>
      <dc:title>Matplotlib v3.5.2, https://matplotlib.org/</dc:title>
     </cc:Agent>
    </dc:creator>
   </cc:Work>
  </rdf:RDF>
 </metadata>
 <defs>
  <style type="text/css">*{stroke-linejoin: round; stroke-linecap: butt}</style>
 </defs>
 <g id="figure_1">
  <g id="patch_1">
   <path d="M 0 583.918125 
L 568.8 583.918125 
L 568.8 0 
L 0 0 
z
" style="fill: #ffffff"/>
  </g>
  <g id="axes_1">
   <g id="LineCollection_1">
    <path d="M 264.654081 94.556516 
L 181.237807 121.572647 
" clip-path="url(#pc0c4e4e142)" style="fill: none; stroke: #000000; stroke-opacity: 0.3; stroke-width: 10"/>
    <path d="M 116.057286 180.072065 
L 80.382795 259.939716 
" clip-path="url(#pc0c4e4e142)" style="fill: none; stroke: #000000; stroke-opacity: 0.3; stroke-width: 5"/>
   </g>
   <g id="PathCollection_1">
    <path d="M 497.630769 331.038833 
C 504.893655 331.038833 511.86005 328.153258 516.995686 323.017622 
C 522.131322 317.881986 525.016897 310.915591 525.016897 303.652705 
C 525.016897 296.389819 522.131322 289.423424 516.995686 284.287788 
C 511.86005 279.152152 504.893655 276.266577 497.630769 276.266577 
C 490.367883 276.266577 483.401488 279.152152 478.265852 284.287788 
C 473.130217 289.423424 470.244641 296.389819 470.244641 303.652705 
C 470.244641 310.915591 473.130217 317.881986 478.265852 323.017622 
C 483.401488 328.153258 490.367883 331.038833 497.630769 331.038833 
z
" clip-path="url(#pc0c4e4e142)" style="fill: #d62728; fill-opacity: 0.99; stroke: #d62728; stroke-opacity: 0.99"/>
    <path d="M 479.395025 243.128524 
C 486.022812 243.128524 492.380034 240.495277 497.066587 235.808724 
C 501.75314 231.122171 504.386387 224.764949 504.386387 218.137162 
C 504.386387 211.509375 501.75314 205.152153 497.066587 200.4656 
C 492.380034 195.779047 486.022812 193.145799 479.395025 193.145799 
C 472.767238 193.145799 466.410016 195.779047 461.723463 200.4656 
C 457.03691 205.152153 454.403662 211.509375 454.403662 218.137162 
C 454.403662 224.764949 457.03691 231.122171 461.723463 235.808724 
C 466.410016 240.495277 472.767238 243.128524 479.395025 243.128524 
z
" clip-path="url(#pc0c4e4e142)" style="fill: #d62728; fill-opacity: 0.99; stroke: #d62728; stroke-opacity: 0.99"/>
    <path d="M 427.840931 171.06823 
C 434.115692 171.06823 440.134299 168.575242 444.571224 164.138316 
C 449.00815 159.701391 451.501139 153.682783 451.501139 147.408023 
C 451.501139 141.133263 449.00815 135.114656 444.571224 130.67773 
C 440.134299 126.240805 434.115692 123.747816 427.840931 123.747816 
C 421.566171 123.747816 415.547564 126.240805 411.110638 130.67773 
C 406.673713 135.114656 404.180724 141.133263 404.180724 147.408023 
C 404.180724 153.682783 406.673713 159.701391 411.110638 164.138316 
C 415.547564 168.575242 421.566171 171.06823 427.840931 171.06823 
z
" clip-path="url(#pc0c4e4e142)" style="fill: #d62728; fill-opacity: 0.99; stroke: #d62728; stroke-opacity: 0.99"/>
    <path d="M 351.882664 127.06895 
C 358.081502 127.06895 364.027287 124.606126 368.410527 120.222885 
C 372.793768 115.839644 375.256592 109.89386 375.256592 103.695022 
C 375.256592 97.496183 372.793768 91.550399 368.410527 87.167158 
C 364.027287 82.783918 358.081502 80.321093 351.882664 80.321093 
C 345.683826 80.321093 339.738041 82.783918 335.354801 87.167158 
C 330.97156 91.550399 328.508736 97.496183 328.508736 103.695022 
C 328.508736 109.89386 330.97156 115.839644 335.354801 120.222885 
C 339.738041 124.606126 345.683826 127.06895 351.882664 127.06895 
z
" clip-path="url(#pc0c4e4e142)" style="fill: #d62728; fill-opacity: 0.99; stroke: #d62728; stroke-opacity: 0.99"/>
    <path d="M 264.654081 117.737733 
C 270.801812 117.737733 276.698575 115.295214 281.045677 110.948112 
C 285.392779 106.60101 287.835298 100.704246 287.835298 94.556516 
C 287.835298 88.408785 285.392779 82.512022 281.045677 78.16492 
C 276.698575 73.817818 270.801812 71.375299 264.654081 71.375299 
C 258.50635 71.375299 252.609587 73.817818 248.262485 78.16492 
C 243.915383 82.512022 241.472864 88.408785 241.472864 94.556516 
C 241.472864 100.704246 243.915383 106.60101 248.262485 110.948112 
C 252.609587 115.295214 258.50635 117.737733 264.654081 117.737733 
z
" clip-path="url(#pc0c4e4e142)" style="fill: #d62728; fill-opacity: 0.99; stroke: #d62728; stroke-opacity: 0.99"/>
    <path d="M 181.237807 144.516947 
C 187.322707 144.516947 193.159204 142.099391 197.461878 137.796717 
C 201.764552 133.494043 204.182108 127.657546 204.182108 121.572647 
C 204.182108 115.487747 201.764552 109.65125 197.461878 105.348576 
C 193.159204 101.045903 187.322707 98.628346 181.237807 98.628346 
C 175.152908 98.628346 169.316411 101.045903 165.013737 105.348576 
C 160.711063 109.65125 158.293507 115.487747 158.293507 121.572647 
C 158.293507 127.657546 160.711063 133.494043 165.013737 137.796717 
C 169.316411 142.099391 175.152908 144.516947 181.237807 144.516947 
z
" clip-path="url(#pc0c4e4e142)" style="fill: #d62728; fill-opacity: 0.99; stroke: #d62728; stroke-opacity: 0.99"/>
    <path d="M 116.057286 201.60442 
C 121.767733 201.60442 127.245064 199.335635 131.28296 195.297739 
C 135.320856 191.259843 137.589641 185.782512 137.589641 180.072065 
C 137.589641 174.361618 135.320856 168.884287 131.28296 164.846391 
C 127.245064 160.808495 121.767733 158.539711 116.057286 158.539711 
C 110.346839 158.539711 104.869508 160.808495 100.831612 164.846391 
C 96.793716 168.884287 94.524932 174.361618 94.524932 180.072065 
C 94.524932 185.782512 96.793716 191.259843 100.831612 195.297739 
C 104.869508 199.335635 110.346839 201.60442 116.057286 201.60442 
z
" clip-path="url(#pc0c4e4e142)" style="fill: #d62728; fill-opacity: 0.99; stroke: #d62728; stroke-opacity: 0.99"/>
    <path d="M 80.382795 280.627319 
C 85.869211 280.627319 91.131657 278.447542 95.011139 274.56806 
C 98.890621 270.688578 101.070398 265.426132 101.070398 259.939716 
C 101.070398 254.4533 98.890621 249.190854 95.011139 245.311372 
C 91.131657 241.43189 85.869211 239.252114 80.382795 239.252114 
C 74.896379 239.252114 69.633933 241.43189 65.754451 245.311372 
C 61.874969 249.190854 59.695192 254.4533 59.695192 259.939716 
C 59.695192 265.426132 61.874969 270.688578 65.754451 274.56806 
C 69.633933 278.447542 74.896379 280.627319 80.382795 280.627319 
z
" clip-path="url(#pc0c4e4e142)" style="fill: #d62728; fill-opacity: 0.99; stroke: #d62728; stroke-opacity: 0.99"/>
    <path d="M 80.382808 367.198809 
C 85.642601 367.198809 90.687676 365.109071 94.406912 361.389835 
C 98.126147 357.6706 100.215886 352.625525 100.215886 347.365732 
C 100.215886 342.105938 98.126147 337.060863 94.406912 333.341628 
C 90.687676 329.622392 85.642601 327.532654 80.382808 327.532654 
C 75.123014 327.532654 70.07794 329.622392 66.358704 333.341628 
C 62.639468 337.060863 60.54973 342.105938 60.54973 347.365732 
C 60.54973 352.625525 62.639468 357.6706 66.358704 361.389835 
C 70.07794 365.109071 75.123014 367.198809 80.382808 367.198809 
z
" clip-path="url(#pc0c4e4e142)" style="fill: #d62728; fill-opacity: 0.99; stroke: #d62728; stroke-opacity: 0.99"/>
    <path d="M 116.057299 447.041238 
C 121.31041 447.041238 126.349075 444.954154 130.063585 441.239644 
C 133.778096 437.525133 135.865179 432.486469 135.865179 427.233357 
C 135.865179 421.980246 133.778096 416.941581 130.063585 413.227071 
C 126.349075 409.51256 121.31041 407.425477 116.057299 407.425477 
C 110.804188 407.425477 105.765523 409.51256 102.051012 413.227071 
C 98.336502 416.941581 96.249419 421.980246 96.249419 427.233357 
C 96.249419 432.486469 98.336502 437.525133 102.051012 441.239644 
C 105.765523 444.954154 110.804188 447.041238 116.057299 447.041238 
z
" clip-path="url(#pc0c4e4e142)" style="fill: #d62728; fill-opacity: 0.99; stroke: #d62728; stroke-opacity: 0.99"/>
    <path d="M 181.237839 505.526079 
C 186.487084 505.526079 191.522041 503.440531 195.233818 499.728755 
C 198.945595 496.016978 201.031142 490.982021 201.031142 485.732776 
C 201.031142 480.483531 198.945595 475.448574 195.233818 471.736797 
C 191.522041 468.02502 186.487084 465.939473 181.237839 465.939473 
C 175.988594 465.939473 170.953637 468.02502 167.24186 471.736797 
C 163.530083 475.448574 161.444536 480.483531 161.444536 485.732776 
C 161.444536 490.982021 163.530083 496.016978 167.24186 499.728755 
C 170.953637 503.440531 175.988594 505.526079 181.237839 505.526079 
z
" clip-path="url(#pc0c4e4e142)" style="fill: #d62728; fill-opacity: 0.99; stroke: #d62728; stroke-opacity: 0.99"/>
    <path d="M 264.654119 532.354854 
C 269.85368 532.354854 274.840981 530.289046 278.517625 526.612401 
C 282.19427 522.935756 284.260078 517.948455 284.260078 512.748894 
C 284.260078 507.549333 282.19427 502.562032 278.517625 498.885387 
C 274.840981 495.208742 269.85368 493.142935 264.654119 493.142935 
C 259.454557 493.142935 254.467257 495.208742 250.790612 498.885387 
C 247.113967 502.562032 245.048159 507.549333 245.048159 512.748894 
C 245.048159 517.948455 247.113967 522.935756 250.790612 526.612401 
C 254.467257 530.289046 259.454557 532.354854 264.654119 532.354854 
z
" clip-path="url(#pc0c4e4e142)" style="fill: #d62728; fill-opacity: 0.99; stroke: #d62728; stroke-opacity: 0.99"/>
    <path d="M 351.882695 523.184234 
C 357.073743 523.184234 362.052878 521.121809 365.723504 517.451184 
C 369.394129 513.780559 371.456554 508.801424 371.456554 503.610376 
C 371.456554 498.419328 369.394129 493.440193 365.723504 489.769567 
C 362.052878 486.098942 357.073743 484.036517 351.882695 484.036517 
C 346.691647 484.036517 341.712512 486.098942 338.041887 489.769567 
C 334.371262 493.440193 332.308837 498.419328 332.308837 503.610376 
C 332.308837 508.801424 334.371262 513.780559 338.041887 517.451184 
C 341.712512 521.121809 346.691647 523.184234 351.882695 523.184234 
z
" clip-path="url(#pc0c4e4e142)" style="fill: #d62728; fill-opacity: 0.99; stroke: #d62728; stroke-opacity: 0.99"/>
    <path d="M 427.840969 479.302595 
C 432.9873 479.302595 437.923544 477.257936 441.56255 473.61893 
C 445.201556 469.979924 447.246215 465.043681 447.246215 459.897349 
C 447.246215 454.751018 445.201556 449.814774 441.56255 446.175768 
C 437.923544 442.536763 432.9873 440.492104 427.840969 440.492104 
C 422.694638 440.492104 417.758394 442.536763 414.119388 446.175768 
C 410.480383 449.814774 408.435723 454.751018 408.435723 459.897349 
C 408.435723 465.043681 410.480383 469.979924 414.119388 473.61893 
C 417.758394 477.257936 422.694638 479.302595 427.840969 479.302595 
z
" clip-path="url(#pc0c4e4e142)" style="fill: #d62728; fill-opacity: 0.99; stroke: #d62728; stroke-opacity: 0.99"/>
    <path d="M 479.39505 408.533134 
C 484.530686 408.533134 489.456671 406.492724 493.088114 402.861281 
C 496.719557 399.229838 498.759967 394.303853 498.759967 389.168217 
C 498.759967 384.032581 496.719557 379.106596 493.088114 375.475153 
C 489.456671 371.84371 484.530686 369.8033 479.39505 369.8033 
C 474.259414 369.8033 469.333429 371.84371 465.701986 375.475153 
C 462.070543 379.106596 460.030133 384.032581 460.030133 389.168217 
C 460.030133 394.303853 462.070543 399.229838 465.701986 402.861281 
C 469.333429 406.492724 474.259414 408.533134 479.39505 408.533134 
z
" clip-path="url(#pc0c4e4e142)" style="fill: #d62728; fill-opacity: 0.99; stroke: #d62728; stroke-opacity: 0.99"/>
   </g>
   <g id="text_1">
    <g id="patch_2">
     <path d="M 452.889519 311.967861 
L 542.372019 311.967861 
L 542.372019 295.337549 
L 452.889519 295.337549 
z
" clip-path="url(#pc0c4e4e142)" style="fill: #ffffff; opacity: 0.7; stroke: #000000; stroke-linejoin: miter"/>
    </g>
    <g clip-path="url(#pc0c4e4e142)">
     <!-- Samuel L. Jackson -->
     <g transform="translate(456.849519 306.136143)scale(0.09 -0.09)">
      <defs>
       <path id="DejaVuSans-53" d="M 3425 4513 
L 3425 3897 
Q 3066 4069 2747 4153 
Q 2428 4238 2131 4238 
Q 1616 4238 1336 4038 
Q 1056 3838 1056 3469 
Q 1056 3159 1242 3001 
Q 1428 2844 1947 2747 
L 2328 2669 
Q 3034 2534 3370 2195 
Q 3706 1856 3706 1288 
Q 3706 609 3251 259 
Q 2797 -91 1919 -91 
Q 1588 -91 1214 -16 
Q 841 59 441 206 
L 441 856 
Q 825 641 1194 531 
Q 1563 422 1919 422 
Q 2459 422 2753 634 
Q 3047 847 3047 1241 
Q 3047 1584 2836 1778 
Q 2625 1972 2144 2069 
L 1759 2144 
Q 1053 2284 737 2584 
Q 422 2884 422 3419 
Q 422 4038 858 4394 
Q 1294 4750 2059 4750 
Q 2388 4750 2728 4690 
Q 3069 4631 3425 4513 
z
" transform="scale(0.015625)"/>
       <path id="DejaVuSans-61" d="M 2194 1759 
Q 1497 1759 1228 1600 
Q 959 1441 959 1056 
Q 959 750 1161 570 
Q 1363 391 1709 391 
Q 2188 391 2477 730 
Q 2766 1069 2766 1631 
L 2766 1759 
L 2194 1759 
z
M 3341 1997 
L 3341 0 
L 2766 0 
L 2766 531 
Q 2569 213 2275 61 
Q 1981 -91 1556 -91 
Q 1019 -91 701 211 
Q 384 513 384 1019 
Q 384 1609 779 1909 
Q 1175 2209 1959 2209 
L 2766 2209 
L 2766 2266 
Q 2766 2663 2505 2880 
Q 2244 3097 1772 3097 
Q 1472 3097 1187 3025 
Q 903 2953 641 2809 
L 641 3341 
Q 956 3463 1253 3523 
Q 1550 3584 1831 3584 
Q 2591 3584 2966 3190 
Q 3341 2797 3341 1997 
z
" transform="scale(0.015625)"/>
       <path id="DejaVuSans-6d" d="M 3328 2828 
Q 3544 3216 3844 3400 
Q 4144 3584 4550 3584 
Q 5097 3584 5394 3201 
Q 5691 2819 5691 2113 
L 5691 0 
L 5113 0 
L 5113 2094 
Q 5113 2597 4934 2840 
Q 4756 3084 4391 3084 
Q 3944 3084 3684 2787 
Q 3425 2491 3425 1978 
L 3425 0 
L 2847 0 
L 2847 2094 
Q 2847 2600 2669 2842 
Q 2491 3084 2119 3084 
Q 1678 3084 1418 2786 
Q 1159 2488 1159 1978 
L 1159 0 
L 581 0 
L 581 3500 
L 1159 3500 
L 1159 2956 
Q 1356 3278 1631 3431 
Q 1906 3584 2284 3584 
Q 2666 3584 2933 3390 
Q 3200 3197 3328 2828 
z
" transform="scale(0.015625)"/>
       <path id="DejaVuSans-75" d="M 544 1381 
L 544 3500 
L 1119 3500 
L 1119 1403 
Q 1119 906 1312 657 
Q 1506 409 1894 409 
Q 2359 409 2629 706 
Q 2900 1003 2900 1516 
L 2900 3500 
L 3475 3500 
L 3475 0 
L 2900 0 
L 2900 538 
Q 2691 219 2414 64 
Q 2138 -91 1772 -91 
Q 1169 -91 856 284 
Q 544 659 544 1381 
z
M 1991 3584 
L 1991 3584 
z
" transform="scale(0.015625)"/>
       <path id="DejaVuSans-65" d="M 3597 1894 
L 3597 1613 
L 953 1613 
Q 991 1019 1311 708 
Q 1631 397 2203 397 
Q 2534 397 2845 478 
Q 3156 559 3463 722 
L 3463 178 
Q 3153 47 2828 -22 
Q 2503 -91 2169 -91 
Q 1331 -91 842 396 
Q 353 884 353 1716 
Q 353 2575 817 3079 
Q 1281 3584 2069 3584 
Q 2775 3584 3186 3129 
Q 3597 2675 3597 1894 
z
M 3022 2063 
Q 3016 2534 2758 2815 
Q 2500 3097 2075 3097 
Q 1594 3097 1305 2825 
Q 1016 2553 972 2059 
L 3022 2063 
z
" transform="scale(0.015625)"/>
       <path id="DejaVuSans-6c" d="M 603 4863 
L 1178 4863 
L 1178 0 
L 603 0 
L 603 4863 
z
" transform="scale(0.015625)"/>
       <path id="DejaVuSans-20" transform="scale(0.015625)"/>
       <path id="DejaVuSans-4c" d="M 628 4666 
L 1259 4666 
L 1259 531 
L 3531 531 
L 3531 0 
L 628 0 
L 628 4666 
z
" transform="scale(0.015625)"/>
       <path id="DejaVuSans-2e" d="M 684 794 
L 1344 794 
L 1344 0 
L 684 0 
L 684 794 
z
" transform="scale(0.015625)"/>
       <path id="DejaVuSans-4a" d="M 628 4666 
L 1259 4666 
L 1259 325 
Q 1259 -519 939 -900 
Q 619 -1281 -91 -1281 
L -331 -1281 
L -331 -750 
L -134 -750 
Q 284 -750 456 -515 
Q 628 -281 628 325 
L 628 4666 
z
" transform="scale(0.015625)"/>
       <path id="DejaVuSans-63" d="M 3122 3366 
L 3122 2828 
Q 2878 2963 2633 3030 
Q 2388 3097 2138 3097 
Q 1578 3097 1268 2742 
Q 959 2388 959 1747 
Q 959 1106 1268 751 
Q 1578 397 2138 397 
Q 2388 397 2633 464 
Q 2878 531 3122 666 
L 3122 134 
Q 2881 22 2623 -34 
Q 2366 -91 2075 -91 
Q 1284 -91 818 406 
Q 353 903 353 1747 
Q 353 2603 823 3093 
Q 1294 3584 2113 3584 
Q 2378 3584 2631 3529 
Q 2884 3475 3122 3366 
z
" transform="scale(0.015625)"/>
       <path id="DejaVuSans-6b" d="M 581 4863 
L 1159 4863 
L 1159 1991 
L 2875 3500 
L 3609 3500 
L 1753 1863 
L 3688 0 
L 2938 0 
L 1159 1709 
L 1159 0 
L 581 0 
L 581 4863 
z
" transform="scale(0.015625)"/>
       <path id="DejaVuSans-73" d="M 2834 3397 
L 2834 2853 
Q 2591 2978 2328 3040 
Q 2066 3103 1784 3103 
Q 1356 3103 1142 2972 
Q 928 2841 928 2578 
Q 928 2378 1081 2264 
Q 1234 2150 1697 2047 
L 1894 2003 
Q 2506 1872 2764 1633 
Q 3022 1394 3022 966 
Q 3022 478 2636 193 
Q 2250 -91 1575 -91 
Q 1294 -91 989 -36 
Q 684 19 347 128 
L 347 722 
Q 666 556 975 473 
Q 1284 391 1588 391 
Q 1994 391 2212 530 
Q 2431 669 2431 922 
Q 2431 1156 2273 1281 
Q 2116 1406 1581 1522 
L 1381 1569 
Q 847 1681 609 1914 
Q 372 2147 372 2553 
Q 372 3047 722 3315 
Q 1072 3584 1716 3584 
Q 2034 3584 2315 3537 
Q 2597 3491 2834 3397 
z
" transform="scale(0.015625)"/>
       <path id="DejaVuSans-6f" d="M 1959 3097 
Q 1497 3097 1228 2736 
Q 959 2375 959 1747 
Q 959 1119 1226 758 
Q 1494 397 1959 397 
Q 2419 397 2687 759 
Q 2956 1122 2956 1747 
Q 2956 2369 2687 2733 
Q 2419 3097 1959 3097 
z
M 1959 3584 
Q 2709 3584 3137 3096 
Q 3566 2609 3566 1747 
Q 3566 888 3137 398 
Q 2709 -91 1959 -91 
Q 1206 -91 779 398 
Q 353 888 353 1747 
Q 353 2609 779 3096 
Q 1206 3584 1959 3584 
z
" transform="scale(0.015625)"/>
       <path id="DejaVuSans-6e" d="M 3513 2113 
L 3513 0 
L 2938 0 
L 2938 2094 
Q 2938 2591 2744 2837 
Q 2550 3084 2163 3084 
Q 1697 3084 1428 2787 
Q 1159 2491 1159 1978 
L 1159 0 
L 581 0 
L 581 3500 
L 1159 3500 
L 1159 2956 
Q 1366 3272 1645 3428 
Q 1925 3584 2291 3584 
Q 2894 3584 3203 3211 
Q 3513 2838 3513 2113 
z
" transform="scale(0.015625)"/>
      </defs>
      <use xlink:href="#DejaVuSans-53"/>
      <use xlink:href="#DejaVuSans-61" x="63.476562"/>
      <use xlink:href="#DejaVuSans-6d" x="124.755859"/>
      <use xlink:href="#DejaVuSans-75" x="222.167969"/>
      <use xlink:href="#DejaVuSans-65" x="285.546875"/>
      <use xlink:href="#DejaVuSans-6c" x="347.070312"/>
      <use xlink:href="#DejaVuSans-20" x="374.853516"/>
      <use xlink:href="#DejaVuSans-4c" x="406.640625"/>
      <use xlink:href="#DejaVuSans-2e" x="462.353516"/>
      <use xlink:href="#DejaVuSans-20" x="494.140625"/>
      <use xlink:href="#DejaVuSans-4a" x="525.927734"/>
      <use xlink:href="#DejaVuSans-61" x="555.419922"/>
      <use xlink:href="#DejaVuSans-63" x="616.699219"/>
      <use xlink:href="#DejaVuSans-6b" x="671.679688"/>
      <use xlink:href="#DejaVuSans-73" x="729.589844"/>
      <use xlink:href="#DejaVuSans-6f" x="781.689453"/>
      <use xlink:href="#DejaVuSans-6e" x="842.871094"/>
     </g>
    </g>
   </g>
   <g id="text_2">
    <g id="patch_3">
     <path d="M 442.304478 226.452318 
L 516.485572 226.452318 
L 516.485572 209.822006 
L 442.304478 209.822006 
z
" clip-path="url(#pc0c4e4e142)" style="fill: #ffffff; opacity: 0.7; stroke: #000000; stroke-linejoin: miter"/>
    </g>
    <g clip-path="url(#pc0c4e4e142)">
     <!-- Robert De Niro -->
     <g transform="translate(446.264478 220.620599)scale(0.09 -0.09)">
      <defs>
       <path id="DejaVuSans-52" d="M 2841 2188 
Q 3044 2119 3236 1894 
Q 3428 1669 3622 1275 
L 4263 0 
L 3584 0 
L 2988 1197 
Q 2756 1666 2539 1819 
Q 2322 1972 1947 1972 
L 1259 1972 
L 1259 0 
L 628 0 
L 628 4666 
L 2053 4666 
Q 2853 4666 3247 4331 
Q 3641 3997 3641 3322 
Q 3641 2881 3436 2590 
Q 3231 2300 2841 2188 
z
M 1259 4147 
L 1259 2491 
L 2053 2491 
Q 2509 2491 2742 2702 
Q 2975 2913 2975 3322 
Q 2975 3731 2742 3939 
Q 2509 4147 2053 4147 
L 1259 4147 
z
" transform="scale(0.015625)"/>
       <path id="DejaVuSans-62" d="M 3116 1747 
Q 3116 2381 2855 2742 
Q 2594 3103 2138 3103 
Q 1681 3103 1420 2742 
Q 1159 2381 1159 1747 
Q 1159 1113 1420 752 
Q 1681 391 2138 391 
Q 2594 391 2855 752 
Q 3116 1113 3116 1747 
z
M 1159 2969 
Q 1341 3281 1617 3432 
Q 1894 3584 2278 3584 
Q 2916 3584 3314 3078 
Q 3713 2572 3713 1747 
Q 3713 922 3314 415 
Q 2916 -91 2278 -91 
Q 1894 -91 1617 61 
Q 1341 213 1159 525 
L 1159 0 
L 581 0 
L 581 4863 
L 1159 4863 
L 1159 2969 
z
" transform="scale(0.015625)"/>
       <path id="DejaVuSans-72" d="M 2631 2963 
Q 2534 3019 2420 3045 
Q 2306 3072 2169 3072 
Q 1681 3072 1420 2755 
Q 1159 2438 1159 1844 
L 1159 0 
L 581 0 
L 581 3500 
L 1159 3500 
L 1159 2956 
Q 1341 3275 1631 3429 
Q 1922 3584 2338 3584 
Q 2397 3584 2469 3576 
Q 2541 3569 2628 3553 
L 2631 2963 
z
" transform="scale(0.015625)"/>
       <path id="DejaVuSans-74" d="M 1172 4494 
L 1172 3500 
L 2356 3500 
L 2356 3053 
L 1172 3053 
L 1172 1153 
Q 1172 725 1289 603 
Q 1406 481 1766 481 
L 2356 481 
L 2356 0 
L 1766 0 
Q 1100 0 847 248 
Q 594 497 594 1153 
L 594 3053 
L 172 3053 
L 172 3500 
L 594 3500 
L 594 4494 
L 1172 4494 
z
" transform="scale(0.015625)"/>
       <path id="DejaVuSans-44" d="M 1259 4147 
L 1259 519 
L 2022 519 
Q 2988 519 3436 956 
Q 3884 1394 3884 2338 
Q 3884 3275 3436 3711 
Q 2988 4147 2022 4147 
L 1259 4147 
z
M 628 4666 
L 1925 4666 
Q 3281 4666 3915 4102 
Q 4550 3538 4550 2338 
Q 4550 1131 3912 565 
Q 3275 0 1925 0 
L 628 0 
L 628 4666 
z
" transform="scale(0.015625)"/>
       <path id="DejaVuSans-4e" d="M 628 4666 
L 1478 4666 
L 3547 763 
L 3547 4666 
L 4159 4666 
L 4159 0 
L 3309 0 
L 1241 3903 
L 1241 0 
L 628 0 
L 628 4666 
z
" transform="scale(0.015625)"/>
       <path id="DejaVuSans-69" d="M 603 3500 
L 1178 3500 
L 1178 0 
L 603 0 
L 603 3500 
z
M 603 4863 
L 1178 4863 
L 1178 4134 
L 603 4134 
L 603 4863 
z
" transform="scale(0.015625)"/>
      </defs>
      <use xlink:href="#DejaVuSans-52"/>
      <use xlink:href="#DejaVuSans-6f" x="64.982422"/>
      <use xlink:href="#DejaVuSans-62" x="126.164062"/>
      <use xlink:href="#DejaVuSans-65" x="189.640625"/>
      <use xlink:href="#DejaVuSans-72" x="251.164062"/>
      <use xlink:href="#DejaVuSans-74" x="292.277344"/>
      <use xlink:href="#DejaVuSans-20" x="331.486328"/>
      <use xlink:href="#DejaVuSans-44" x="363.273438"/>
      <use xlink:href="#DejaVuSans-65" x="440.275391"/>
      <use xlink:href="#DejaVuSans-20" x="501.798828"/>
      <use xlink:href="#DejaVuSans-4e" x="533.585938"/>
      <use xlink:href="#DejaVuSans-69" x="608.390625"/>
      <use xlink:href="#DejaVuSans-72" x="636.173828"/>
      <use xlink:href="#DejaVuSans-6f" x="675.037109"/>
     </g>
    </g>
   </g>
   <g id="text_3">
    <g id="patch_4">
     <path d="M 399.123197 155.723179 
L 456.558666 155.723179 
L 456.558666 139.092867 
L 399.123197 139.092867 
z
" clip-path="url(#pc0c4e4e142)" style="fill: #ffffff; opacity: 0.7; stroke: #000000; stroke-linejoin: miter"/>
    </g>
    <g clip-path="url(#pc0c4e4e142)">
     <!-- Tom Cruise -->
     <g transform="translate(403.083197 149.891461)scale(0.09 -0.09)">
      <defs>
       <path id="DejaVuSans-54" d="M -19 4666 
L 3928 4666 
L 3928 4134 
L 2272 4134 
L 2272 0 
L 1638 0 
L 1638 4134 
L -19 4134 
L -19 4666 
z
" transform="scale(0.015625)"/>
       <path id="DejaVuSans-43" d="M 4122 4306 
L 4122 3641 
Q 3803 3938 3442 4084 
Q 3081 4231 2675 4231 
Q 1875 4231 1450 3742 
Q 1025 3253 1025 2328 
Q 1025 1406 1450 917 
Q 1875 428 2675 428 
Q 3081 428 3442 575 
Q 3803 722 4122 1019 
L 4122 359 
Q 3791 134 3420 21 
Q 3050 -91 2638 -91 
Q 1578 -91 968 557 
Q 359 1206 359 2328 
Q 359 3453 968 4101 
Q 1578 4750 2638 4750 
Q 3056 4750 3426 4639 
Q 3797 4528 4122 4306 
z
" transform="scale(0.015625)"/>
      </defs>
      <use xlink:href="#DejaVuSans-54"/>
      <use xlink:href="#DejaVuSans-6f" x="44.083984"/>
      <use xlink:href="#DejaVuSans-6d" x="105.265625"/>
      <use xlink:href="#DejaVuSans-20" x="202.677734"/>
      <use xlink:href="#DejaVuSans-43" x="234.464844"/>
      <use xlink:href="#DejaVuSans-72" x="304.289062"/>
      <use xlink:href="#DejaVuSans-75" x="345.402344"/>
      <use xlink:href="#DejaVuSans-69" x="408.78125"/>
      <use xlink:href="#DejaVuSans-73" x="436.564453"/>
      <use xlink:href="#DejaVuSans-65" x="488.664062"/>
     </g>
    </g>
   </g>
   <g id="text_4">
    <g id="patch_5">
     <path d="M 321.767117 112.010178 
L 381.998211 112.010178 
L 381.998211 95.379866 
L 321.767117 95.379866 
z
" clip-path="url(#pc0c4e4e142)" style="fill: #ffffff; opacity: 0.7; stroke: #000000; stroke-linejoin: miter"/>
    </g>
    <g clip-path="url(#pc0c4e4e142)">
     <!-- Bruce Willis -->
     <g transform="translate(325.727117 106.178459)scale(0.09 -0.09)">
      <defs>
       <path id="DejaVuSans-42" d="M 1259 2228 
L 1259 519 
L 2272 519 
Q 2781 519 3026 730 
Q 3272 941 3272 1375 
Q 3272 1813 3026 2020 
Q 2781 2228 2272 2228 
L 1259 2228 
z
M 1259 4147 
L 1259 2741 
L 2194 2741 
Q 2656 2741 2882 2914 
Q 3109 3088 3109 3444 
Q 3109 3797 2882 3972 
Q 2656 4147 2194 4147 
L 1259 4147 
z
M 628 4666 
L 2241 4666 
Q 2963 4666 3353 4366 
Q 3744 4066 3744 3513 
Q 3744 3084 3544 2831 
Q 3344 2578 2956 2516 
Q 3422 2416 3680 2098 
Q 3938 1781 3938 1306 
Q 3938 681 3513 340 
Q 3088 0 2303 0 
L 628 0 
L 628 4666 
z
" transform="scale(0.015625)"/>
       <path id="DejaVuSans-57" d="M 213 4666 
L 850 4666 
L 1831 722 
L 2809 4666 
L 3519 4666 
L 4500 722 
L 5478 4666 
L 6119 4666 
L 4947 0 
L 4153 0 
L 3169 4050 
L 2175 0 
L 1381 0 
L 213 4666 
z
" transform="scale(0.015625)"/>
      </defs>
      <use xlink:href="#DejaVuSans-42"/>
      <use xlink:href="#DejaVuSans-72" x="68.603516"/>
      <use xlink:href="#DejaVuSans-75" x="109.716797"/>
      <use xlink:href="#DejaVuSans-63" x="173.095703"/>
      <use xlink:href="#DejaVuSans-65" x="228.076172"/>
      <use xlink:href="#DejaVuSans-20" x="289.599609"/>
      <use xlink:href="#DejaVuSans-57" x="321.386719"/>
      <use xlink:href="#DejaVuSans-69" x="418.013672"/>
      <use xlink:href="#DejaVuSans-6c" x="445.796875"/>
      <use xlink:href="#DejaVuSans-6c" x="473.580078"/>
      <use xlink:href="#DejaVuSans-69" x="501.363281"/>
      <use xlink:href="#DejaVuSans-73" x="529.146484"/>
     </g>
    </g>
   </g>
   <g id="text_5">
    <g id="patch_6">
     <path d="M 224.674393 102.871672 
L 304.633768 102.871672 
L 304.633768 86.24136 
L 224.674393 86.24136 
z
" clip-path="url(#pc0c4e4e142)" style="fill: #ffffff; opacity: 0.7; stroke: #000000; stroke-linejoin: miter"/>
    </g>
    <g clip-path="url(#pc0c4e4e142)">
     <!-- George Clooney -->
     <g transform="translate(228.634393 97.039953)scale(0.09 -0.09)">
      <defs>
       <path id="DejaVuSans-47" d="M 3809 666 
L 3809 1919 
L 2778 1919 
L 2778 2438 
L 4434 2438 
L 4434 434 
Q 4069 175 3628 42 
Q 3188 -91 2688 -91 
Q 1594 -91 976 548 
Q 359 1188 359 2328 
Q 359 3472 976 4111 
Q 1594 4750 2688 4750 
Q 3144 4750 3555 4637 
Q 3966 4525 4313 4306 
L 4313 3634 
Q 3963 3931 3569 4081 
Q 3175 4231 2741 4231 
Q 1884 4231 1454 3753 
Q 1025 3275 1025 2328 
Q 1025 1384 1454 906 
Q 1884 428 2741 428 
Q 3075 428 3337 486 
Q 3600 544 3809 666 
z
" transform="scale(0.015625)"/>
       <path id="DejaVuSans-67" d="M 2906 1791 
Q 2906 2416 2648 2759 
Q 2391 3103 1925 3103 
Q 1463 3103 1205 2759 
Q 947 2416 947 1791 
Q 947 1169 1205 825 
Q 1463 481 1925 481 
Q 2391 481 2648 825 
Q 2906 1169 2906 1791 
z
M 3481 434 
Q 3481 -459 3084 -895 
Q 2688 -1331 1869 -1331 
Q 1566 -1331 1297 -1286 
Q 1028 -1241 775 -1147 
L 775 -588 
Q 1028 -725 1275 -790 
Q 1522 -856 1778 -856 
Q 2344 -856 2625 -561 
Q 2906 -266 2906 331 
L 2906 616 
Q 2728 306 2450 153 
Q 2172 0 1784 0 
Q 1141 0 747 490 
Q 353 981 353 1791 
Q 353 2603 747 3093 
Q 1141 3584 1784 3584 
Q 2172 3584 2450 3431 
Q 2728 3278 2906 2969 
L 2906 3500 
L 3481 3500 
L 3481 434 
z
" transform="scale(0.015625)"/>
       <path id="DejaVuSans-79" d="M 2059 -325 
Q 1816 -950 1584 -1140 
Q 1353 -1331 966 -1331 
L 506 -1331 
L 506 -850 
L 844 -850 
Q 1081 -850 1212 -737 
Q 1344 -625 1503 -206 
L 1606 56 
L 191 3500 
L 800 3500 
L 1894 763 
L 2988 3500 
L 3597 3500 
L 2059 -325 
z
" transform="scale(0.015625)"/>
      </defs>
      <use xlink:href="#DejaVuSans-47"/>
      <use xlink:href="#DejaVuSans-65" x="77.490234"/>
      <use xlink:href="#DejaVuSans-6f" x="139.013672"/>
      <use xlink:href="#DejaVuSans-72" x="200.195312"/>
      <use xlink:href="#DejaVuSans-67" x="239.558594"/>
      <use xlink:href="#DejaVuSans-65" x="303.035156"/>
      <use xlink:href="#DejaVuSans-20" x="364.558594"/>
      <use xlink:href="#DejaVuSans-43" x="396.345703"/>
      <use xlink:href="#DejaVuSans-6c" x="466.169922"/>
      <use xlink:href="#DejaVuSans-6f" x="493.953125"/>
      <use xlink:href="#DejaVuSans-6f" x="555.134766"/>
      <use xlink:href="#DejaVuSans-6e" x="616.316406"/>
      <use xlink:href="#DejaVuSans-65" x="679.695312"/>
      <use xlink:href="#DejaVuSans-79" x="741.21875"/>
     </g>
    </g>
   </g>
   <g id="text_6">
    <g id="patch_7">
     <path d="M 157.905307 129.887803 
L 204.570307 129.887803 
L 204.570307 113.25749 
L 157.905307 113.25749 
z
" clip-path="url(#pc0c4e4e142)" style="fill: #ffffff; opacity: 0.7; stroke: #000000; stroke-linejoin: miter"/>
    </g>
    <g clip-path="url(#pc0c4e4e142)">
     <!-- Brad Pitt -->
     <g transform="translate(161.865307 124.056084)scale(0.09 -0.09)">
      <defs>
       <path id="DejaVuSans-64" d="M 2906 2969 
L 2906 4863 
L 3481 4863 
L 3481 0 
L 2906 0 
L 2906 525 
Q 2725 213 2448 61 
Q 2172 -91 1784 -91 
Q 1150 -91 751 415 
Q 353 922 353 1747 
Q 353 2572 751 3078 
Q 1150 3584 1784 3584 
Q 2172 3584 2448 3432 
Q 2725 3281 2906 2969 
z
M 947 1747 
Q 947 1113 1208 752 
Q 1469 391 1925 391 
Q 2381 391 2643 752 
Q 2906 1113 2906 1747 
Q 2906 2381 2643 2742 
Q 2381 3103 1925 3103 
Q 1469 3103 1208 2742 
Q 947 2381 947 1747 
z
" transform="scale(0.015625)"/>
       <path id="DejaVuSans-50" d="M 1259 4147 
L 1259 2394 
L 2053 2394 
Q 2494 2394 2734 2622 
Q 2975 2850 2975 3272 
Q 2975 3691 2734 3919 
Q 2494 4147 2053 4147 
L 1259 4147 
z
M 628 4666 
L 2053 4666 
Q 2838 4666 3239 4311 
Q 3641 3956 3641 3272 
Q 3641 2581 3239 2228 
Q 2838 1875 2053 1875 
L 1259 1875 
L 1259 0 
L 628 0 
L 628 4666 
z
" transform="scale(0.015625)"/>
      </defs>
      <use xlink:href="#DejaVuSans-42"/>
      <use xlink:href="#DejaVuSans-72" x="68.603516"/>
      <use xlink:href="#DejaVuSans-61" x="109.716797"/>
      <use xlink:href="#DejaVuSans-64" x="170.996094"/>
      <use xlink:href="#DejaVuSans-20" x="234.472656"/>
      <use xlink:href="#DejaVuSans-50" x="266.259766"/>
      <use xlink:href="#DejaVuSans-69" x="324.3125"/>
      <use xlink:href="#DejaVuSans-74" x="352.095703"/>
      <use xlink:href="#DejaVuSans-74" x="391.304688"/>
     </g>
    </g>
   </g>
   <g id="text_7">
    <g id="patch_8">
     <path d="M 78.684786 188.387222 
L 153.429786 188.387222 
L 153.429786 171.756909 
L 78.684786 171.756909 
z
" clip-path="url(#pc0c4e4e142)" style="fill: #ffffff; opacity: 0.7; stroke: #000000; stroke-linejoin: miter"/>
    </g>
    <g clip-path="url(#pc0c4e4e142)">
     <!-- Steve Buscemi -->
     <g transform="translate(82.644786 182.555503)scale(0.09 -0.09)">
      <defs>
       <path id="DejaVuSans-76" d="M 191 3500 
L 800 3500 
L 1894 563 
L 2988 3500 
L 3597 3500 
L 2284 0 
L 1503 0 
L 191 3500 
z
" transform="scale(0.015625)"/>
      </defs>
      <use xlink:href="#DejaVuSans-53"/>
      <use xlink:href="#DejaVuSans-74" x="63.476562"/>
      <use xlink:href="#DejaVuSans-65" x="102.685547"/>
      <use xlink:href="#DejaVuSans-76" x="164.208984"/>
      <use xlink:href="#DejaVuSans-65" x="223.388672"/>
      <use xlink:href="#DejaVuSans-20" x="284.912109"/>
      <use xlink:href="#DejaVuSans-42" x="316.699219"/>
      <use xlink:href="#DejaVuSans-75" x="385.302734"/>
      <use xlink:href="#DejaVuSans-73" x="448.681641"/>
      <use xlink:href="#DejaVuSans-63" x="500.78125"/>
      <use xlink:href="#DejaVuSans-65" x="555.761719"/>
      <use xlink:href="#DejaVuSans-6d" x="617.285156"/>
      <use xlink:href="#DejaVuSans-69" x="714.697266"/>
     </g>
    </g>
   </g>
   <g id="text_8">
    <g id="patch_9">
     <path d="M 44.803264 268.254872 
L 115.962326 268.254872 
L 115.962326 251.62456 
L 44.803264 251.62456 
z
" clip-path="url(#pc0c4e4e142)" style="fill: #ffffff; opacity: 0.7; stroke: #000000; stroke-linejoin: miter"/>
    </g>
    <g clip-path="url(#pc0c4e4e142)">
     <!-- Adam Sandler -->
     <g transform="translate(48.763264 262.423154)scale(0.09 -0.09)">
      <defs>
       <path id="DejaVuSans-41" d="M 2188 4044 
L 1331 1722 
L 3047 1722 
L 2188 4044 
z
M 1831 4666 
L 2547 4666 
L 4325 0 
L 3669 0 
L 3244 1197 
L 1141 1197 
L 716 0 
L 50 0 
L 1831 4666 
z
" transform="scale(0.015625)"/>
      </defs>
      <use xlink:href="#DejaVuSans-41"/>
      <use xlink:href="#DejaVuSans-64" x="66.658203"/>
      <use xlink:href="#DejaVuSans-61" x="130.134766"/>
      <use xlink:href="#DejaVuSans-6d" x="191.414062"/>
      <use xlink:href="#DejaVuSans-20" x="288.826172"/>
      <use xlink:href="#DejaVuSans-53" x="320.613281"/>
      <use xlink:href="#DejaVuSans-61" x="384.089844"/>
      <use xlink:href="#DejaVuSans-6e" x="445.369141"/>
      <use xlink:href="#DejaVuSans-64" x="508.748047"/>
      <use xlink:href="#DejaVuSans-6c" x="572.224609"/>
      <use xlink:href="#DejaVuSans-65" x="600.007812"/>
      <use xlink:href="#DejaVuSans-72" x="661.53125"/>
     </g>
    </g>
   </g>
   <g id="text_9">
    <g id="patch_10">
     <path d="M 45.459995 355.680888 
L 115.30562 355.680888 
L 115.30562 339.050575 
L 45.459995 339.050575 
z
" clip-path="url(#pc0c4e4e142)" style="fill: #ffffff; opacity: 0.7; stroke: #000000; stroke-linejoin: miter"/>
    </g>
    <g clip-path="url(#pc0c4e4e142)">
     <!-- Eddie Murphy -->
     <g transform="translate(49.419995 349.849169)scale(0.09 -0.09)">
      <defs>
       <path id="DejaVuSans-45" d="M 628 4666 
L 3578 4666 
L 3578 4134 
L 1259 4134 
L 1259 2753 
L 3481 2753 
L 3481 2222 
L 1259 2222 
L 1259 531 
L 3634 531 
L 3634 0 
L 628 0 
L 628 4666 
z
" transform="scale(0.015625)"/>
       <path id="DejaVuSans-4d" d="M 628 4666 
L 1569 4666 
L 2759 1491 
L 3956 4666 
L 4897 4666 
L 4897 0 
L 4281 0 
L 4281 4097 
L 3078 897 
L 2444 897 
L 1241 4097 
L 1241 0 
L 628 0 
L 628 4666 
z
" transform="scale(0.015625)"/>
       <path id="DejaVuSans-70" d="M 1159 525 
L 1159 -1331 
L 581 -1331 
L 581 3500 
L 1159 3500 
L 1159 2969 
Q 1341 3281 1617 3432 
Q 1894 3584 2278 3584 
Q 2916 3584 3314 3078 
Q 3713 2572 3713 1747 
Q 3713 922 3314 415 
Q 2916 -91 2278 -91 
Q 1894 -91 1617 61 
Q 1341 213 1159 525 
z
M 3116 1747 
Q 3116 2381 2855 2742 
Q 2594 3103 2138 3103 
Q 1681 3103 1420 2742 
Q 1159 2381 1159 1747 
Q 1159 1113 1420 752 
Q 1681 391 2138 391 
Q 2594 391 2855 752 
Q 3116 1113 3116 1747 
z
" transform="scale(0.015625)"/>
       <path id="DejaVuSans-68" d="M 3513 2113 
L 3513 0 
L 2938 0 
L 2938 2094 
Q 2938 2591 2744 2837 
Q 2550 3084 2163 3084 
Q 1697 3084 1428 2787 
Q 1159 2491 1159 1978 
L 1159 0 
L 581 0 
L 581 4863 
L 1159 4863 
L 1159 2956 
Q 1366 3272 1645 3428 
Q 1925 3584 2291 3584 
Q 2894 3584 3203 3211 
Q 3513 2838 3513 2113 
z
" transform="scale(0.015625)"/>
      </defs>
      <use xlink:href="#DejaVuSans-45"/>
      <use xlink:href="#DejaVuSans-64" x="63.183594"/>
      <use xlink:href="#DejaVuSans-64" x="126.660156"/>
      <use xlink:href="#DejaVuSans-69" x="190.136719"/>
      <use xlink:href="#DejaVuSans-65" x="217.919922"/>
      <use xlink:href="#DejaVuSans-20" x="279.443359"/>
      <use xlink:href="#DejaVuSans-4d" x="311.230469"/>
      <use xlink:href="#DejaVuSans-75" x="397.509766"/>
      <use xlink:href="#DejaVuSans-72" x="460.888672"/>
      <use xlink:href="#DejaVuSans-70" x="502.001953"/>
      <use xlink:href="#DejaVuSans-68" x="565.478516"/>
      <use xlink:href="#DejaVuSans-79" x="628.857422"/>
     </g>
    </g>
   </g>
   <g id="text_10">
    <g id="patch_11">
     <path d="M 79.196674 435.548514 
L 152.917924 435.548514 
L 152.917924 418.918201 
L 79.196674 418.918201 
z
" clip-path="url(#pc0c4e4e142)" style="fill: #ffffff; opacity: 0.7; stroke: #000000; stroke-linejoin: miter"/>
    </g>
    <g clip-path="url(#pc0c4e4e142)">
     <!-- Robin Williams -->
     <g transform="translate(83.156674 429.716795)scale(0.09 -0.09)">
      <use xlink:href="#DejaVuSans-52"/>
      <use xlink:href="#DejaVuSans-6f" x="64.982422"/>
      <use xlink:href="#DejaVuSans-62" x="126.164062"/>
      <use xlink:href="#DejaVuSans-69" x="189.640625"/>
      <use xlink:href="#DejaVuSans-6e" x="217.423828"/>
      <use xlink:href="#DejaVuSans-20" x="280.802734"/>
      <use xlink:href="#DejaVuSans-57" x="312.589844"/>
      <use xlink:href="#DejaVuSans-69" x="409.216797"/>
      <use xlink:href="#DejaVuSans-6c" x="437"/>
      <use xlink:href="#DejaVuSans-6c" x="464.783203"/>
      <use xlink:href="#DejaVuSans-69" x="492.566406"/>
      <use xlink:href="#DejaVuSans-61" x="520.349609"/>
      <use xlink:href="#DejaVuSans-6d" x="581.628906"/>
      <use xlink:href="#DejaVuSans-73" x="679.041016"/>
     </g>
    </g>
   </g>
   <g id="text_11">
    <g id="patch_12">
     <path d="M 144.51362 494.047932 
L 217.962058 494.047932 
L 217.962058 477.41762 
L 144.51362 477.41762 
z
" clip-path="url(#pc0c4e4e142)" style="fill: #ffffff; opacity: 0.7; stroke: #000000; stroke-linejoin: miter"/>
    </g>
    <g clip-path="url(#pc0c4e4e142)">
     <!-- Michael Sheen -->
     <g transform="translate(148.47362 488.216213)scale(0.09 -0.09)">
      <use xlink:href="#DejaVuSans-4d"/>
      <use xlink:href="#DejaVuSans-69" x="86.279297"/>
      <use xlink:href="#DejaVuSans-63" x="114.0625"/>
      <use xlink:href="#DejaVuSans-68" x="169.042969"/>
      <use xlink:href="#DejaVuSans-61" x="232.421875"/>
      <use xlink:href="#DejaVuSans-65" x="293.701172"/>
      <use xlink:href="#DejaVuSans-6c" x="355.224609"/>
      <use xlink:href="#DejaVuSans-20" x="383.007812"/>
      <use xlink:href="#DejaVuSans-53" x="414.794922"/>
      <use xlink:href="#DejaVuSans-68" x="478.271484"/>
      <use xlink:href="#DejaVuSans-65" x="541.650391"/>
      <use xlink:href="#DejaVuSans-65" x="603.173828"/>
      <use xlink:href="#DejaVuSans-6e" x="664.697266"/>
     </g>
    </g>
   </g>
   <g id="text_12">
    <g id="patch_13">
     <path d="M 227.936228 521.06405 
L 301.372009 521.06405 
L 301.372009 504.433738 
L 227.936228 504.433738 
z
" clip-path="url(#pc0c4e4e142)" style="fill: #ffffff; opacity: 0.7; stroke: #000000; stroke-linejoin: miter"/>
    </g>
    <g clip-path="url(#pc0c4e4e142)">
     <!-- Frank Langella -->
     <g transform="translate(231.896228 515.232332)scale(0.09 -0.09)">
      <defs>
       <path id="DejaVuSans-46" d="M 628 4666 
L 3309 4666 
L 3309 4134 
L 1259 4134 
L 1259 2759 
L 3109 2759 
L 3109 2228 
L 1259 2228 
L 1259 0 
L 628 0 
L 628 4666 
z
" transform="scale(0.015625)"/>
      </defs>
      <use xlink:href="#DejaVuSans-46"/>
      <use xlink:href="#DejaVuSans-72" x="50.269531"/>
      <use xlink:href="#DejaVuSans-61" x="91.382812"/>
      <use xlink:href="#DejaVuSans-6e" x="152.662109"/>
      <use xlink:href="#DejaVuSans-6b" x="216.041016"/>
      <use xlink:href="#DejaVuSans-20" x="273.951172"/>
      <use xlink:href="#DejaVuSans-4c" x="305.738281"/>
      <use xlink:href="#DejaVuSans-61" x="361.451172"/>
      <use xlink:href="#DejaVuSans-6e" x="422.730469"/>
      <use xlink:href="#DejaVuSans-67" x="486.109375"/>
      <use xlink:href="#DejaVuSans-65" x="549.585938"/>
      <use xlink:href="#DejaVuSans-6c" x="611.109375"/>
      <use xlink:href="#DejaVuSans-6c" x="638.892578"/>
      <use xlink:href="#DejaVuSans-61" x="666.675781"/>
     </g>
    </g>
   </g>
   <g id="text_13">
    <g id="patch_14">
     <path d="M 318.77043 511.925532 
L 384.994961 511.925532 
L 384.994961 495.295219 
L 318.77043 495.295219 
z
" clip-path="url(#pc0c4e4e142)" style="fill: #ffffff; opacity: 0.7; stroke: #000000; stroke-linejoin: miter"/>
    </g>
    <g clip-path="url(#pc0c4e4e142)">
     <!-- Nicolas Cage -->
     <g transform="translate(322.73043 506.093813)scale(0.09 -0.09)">
      <use xlink:href="#DejaVuSans-4e"/>
      <use xlink:href="#DejaVuSans-69" x="74.804688"/>
      <use xlink:href="#DejaVuSans-63" x="102.587891"/>
      <use xlink:href="#DejaVuSans-6f" x="157.568359"/>
      <use xlink:href="#DejaVuSans-6c" x="218.75"/>
      <use xlink:href="#DejaVuSans-61" x="246.533203"/>
      <use xlink:href="#DejaVuSans-73" x="307.8125"/>
      <use xlink:href="#DejaVuSans-20" x="359.912109"/>
      <use xlink:href="#DejaVuSans-43" x="391.699219"/>
      <use xlink:href="#DejaVuSans-61" x="461.523438"/>
      <use xlink:href="#DejaVuSans-67" x="522.802734"/>
      <use xlink:href="#DejaVuSans-65" x="586.279297"/>
     </g>
    </g>
   </g>
   <g id="text_14">
    <g id="patch_15">
     <path d="M 382.67011 468.212505 
L 473.011829 468.212505 
L 473.011829 451.582193 
L 382.67011 451.582193 
z
" clip-path="url(#pc0c4e4e142)" style="fill: #ffffff; opacity: 0.7; stroke: #000000; stroke-linejoin: miter"/>
    </g>
    <g clip-path="url(#pc0c4e4e142)">
     <!-- James Ward Byrkit -->
     <g transform="translate(386.63011 462.380787)scale(0.09 -0.09)">
      <use xlink:href="#DejaVuSans-4a"/>
      <use xlink:href="#DejaVuSans-61" x="29.492188"/>
      <use xlink:href="#DejaVuSans-6d" x="90.771484"/>
      <use xlink:href="#DejaVuSans-65" x="188.183594"/>
      <use xlink:href="#DejaVuSans-73" x="249.707031"/>
      <use xlink:href="#DejaVuSans-20" x="301.806641"/>
      <use xlink:href="#DejaVuSans-57" x="333.59375"/>
      <use xlink:href="#DejaVuSans-61" x="426.095703"/>
      <use xlink:href="#DejaVuSans-72" x="487.375"/>
      <use xlink:href="#DejaVuSans-64" x="526.738281"/>
      <use xlink:href="#DejaVuSans-20" x="590.214844"/>
      <use xlink:href="#DejaVuSans-42" x="622.001953"/>
      <use xlink:href="#DejaVuSans-79" x="690.605469"/>
      <use xlink:href="#DejaVuSans-72" x="749.785156"/>
      <use xlink:href="#DejaVuSans-6b" x="790.898438"/>
      <use xlink:href="#DejaVuSans-69" x="848.808594"/>
      <use xlink:href="#DejaVuSans-74" x="876.591797"/>
     </g>
    </g>
   </g>
   <g id="text_15">
    <g id="patch_16">
     <path d="M 450.559894 397.483373 
L 508.230206 397.483373 
L 508.230206 380.853061 
L 450.559894 380.853061 
z
" clip-path="url(#pc0c4e4e142)" style="fill: #ffffff; opacity: 0.7; stroke: #000000; stroke-linejoin: miter"/>
    </g>
    <g clip-path="url(#pc0c4e4e142)">
     <!-- Mel Gibson -->
     <g transform="translate(454.519894 391.651654)scale(0.09 -0.09)">
      <use xlink:href="#DejaVuSans-4d"/>
      <use xlink:href="#DejaVuSans-65" x="86.279297"/>
      <use xlink:href="#DejaVuSans-6c" x="147.802734"/>
      <use xlink:href="#DejaVuSans-20" x="175.585938"/>
      <use xlink:href="#DejaVuSans-47" x="207.373047"/>
      <use xlink:href="#DejaVuSans-69" x="284.863281"/>
      <use xlink:href="#DejaVuSans-62" x="312.646484"/>
      <use xlink:href="#DejaVuSans-73" x="376.123047"/>
      <use xlink:href="#DejaVuSans-6f" x="428.222656"/>
      <use xlink:href="#DejaVuSans-6e" x="489.404297"/>
     </g>
    </g>
   </g>
   <g id="text_16">
    <!-- Impactful actors for Action genre -->
    <g transform="translate(185.479687 16.318125)scale(0.12 -0.12)">
     <defs>
      <path id="DejaVuSans-49" d="M 628 4666 
L 1259 4666 
L 1259 0 
L 628 0 
L 628 4666 
z
" transform="scale(0.015625)"/>
      <path id="DejaVuSans-66" d="M 2375 4863 
L 2375 4384 
L 1825 4384 
Q 1516 4384 1395 4259 
Q 1275 4134 1275 3809 
L 1275 3500 
L 2222 3500 
L 2222 3053 
L 1275 3053 
L 1275 0 
L 697 0 
L 697 3053 
L 147 3053 
L 147 3500 
L 697 3500 
L 697 3744 
Q 697 4328 969 4595 
Q 1241 4863 1831 4863 
L 2375 4863 
z
" transform="scale(0.015625)"/>
     </defs>
     <use xlink:href="#DejaVuSans-49"/>
     <use xlink:href="#DejaVuSans-6d" x="29.492188"/>
     <use xlink:href="#DejaVuSans-70" x="126.904297"/>
     <use xlink:href="#DejaVuSans-61" x="190.380859"/>
     <use xlink:href="#DejaVuSans-63" x="251.660156"/>
     <use xlink:href="#DejaVuSans-74" x="306.640625"/>
     <use xlink:href="#DejaVuSans-66" x="345.849609"/>
     <use xlink:href="#DejaVuSans-75" x="381.054688"/>
     <use xlink:href="#DejaVuSans-6c" x="444.433594"/>
     <use xlink:href="#DejaVuSans-20" x="472.216797"/>
     <use xlink:href="#DejaVuSans-61" x="504.003906"/>
     <use xlink:href="#DejaVuSans-63" x="565.283203"/>
     <use xlink:href="#DejaVuSans-74" x="620.263672"/>
     <use xlink:href="#DejaVuSans-6f" x="659.472656"/>
     <use xlink:href="#DejaVuSans-72" x="720.654297"/>
     <use xlink:href="#DejaVuSans-73" x="761.767578"/>
     <use xlink:href="#DejaVuSans-20" x="813.867188"/>
     <use xlink:href="#DejaVuSans-66" x="845.654297"/>
     <use xlink:href="#DejaVuSans-6f" x="880.859375"/>
     <use xlink:href="#DejaVuSans-72" x="942.041016"/>
     <use xlink:href="#DejaVuSans-20" x="983.154297"/>
     <use xlink:href="#DejaVuSans-41" x="1014.941406"/>
     <use xlink:href="#DejaVuSans-63" x="1081.599609"/>
     <use xlink:href="#DejaVuSans-74" x="1136.580078"/>
     <use xlink:href="#DejaVuSans-69" x="1175.789062"/>
     <use xlink:href="#DejaVuSans-6f" x="1203.572266"/>
     <use xlink:href="#DejaVuSans-6e" x="1264.753906"/>
     <use xlink:href="#DejaVuSans-20" x="1328.132812"/>
     <use xlink:href="#DejaVuSans-67" x="1359.919922"/>
     <use xlink:href="#DejaVuSans-65" x="1423.396484"/>
     <use xlink:href="#DejaVuSans-6e" x="1484.919922"/>
     <use xlink:href="#DejaVuSans-72" x="1548.298828"/>
     <use xlink:href="#DejaVuSans-65" x="1587.162109"/>
    </g>
   </g>
  </g>
 </g>
 <defs>
  <clipPath id="pc0c4e4e142">
   <rect x="7.2" y="22.318125" width="554.4" height="554.4"/>
  </clipPath>
 </defs>
</svg>
