<?xml version="1.0" encoding="utf-8" standalone="no"?>
<!DOCTYPE svg PUBLIC "-//W3C//DTD SVG 1.1//EN"
  "http://www.w3.org/Graphics/SVG/1.1/DTD/svg11.dtd">
<svg xmlns:xlink="http://www.w3.org/1999/xlink" width="568.8pt" height="583.918125pt" viewBox="0 0 568.8 583.918125" xmlns="http://www.w3.org/2000/svg" version="1.1">
 <metadata>
  <rdf:RDF xmlns:dc="http://purl.org/dc/elements/1.1/" xmlns:cc="http://creativecommons.org/ns#" xmlns:rdf="http://www.w3.org/1999/02/22-rdf-syntax-ns#">
   <cc:Work>
    <dc:type rdf:resource="http://purl.org/dc/dcmitype/StillImage"/>
    <dc:date>2022-12-23T20:56:40.546075</dc:date>
    <dc:format>image/svg+xml</dc:format>
    <dc:creator>
     <cc:Agent>
      <dc:title>Matplotlib v3.5.3, https://matplotlib.org/</dc:title>
     </cc:Agent>
    </dc:creator>
   </cc:Work>
  </rdf:RDF>
 </metadata>
 <defs>
  <style type="text/css">*{stroke-linejoin: round; stroke-linecap: butt}</style>
 </defs>
 <g id="figure_1">
  <g id="patch_1">
   <path d="M 0 583.918125 
L 568.8 583.918125 
L 568.8 0 
L 0 0 
z
" style="fill: #ffffff"/>
  </g>
  <g id="axes_1">
   <g id="PathCollection_1">
    <path d="M 497.630769 326.904253 
C 504.893655 326.904253 511.86005 324.018678 516.995686 318.883042 
C 522.131322 313.747406 525.016897 306.781011 525.016897 299.518125 
C 525.016897 292.255239 522.131322 285.288844 516.995686 280.153208 
C 511.86005 275.017572 504.893655 272.131997 497.630769 272.131997 
C 490.367883 272.131997 483.401488 275.017572 478.265852 280.153208 
C 473.130217 285.288844 470.244641 292.255239 470.244641 299.518125 
C 470.244641 306.781011 473.130217 313.747406 478.265852 318.883042 
C 483.401488 324.018678 490.367883 326.904253 497.630769 326.904253 
z
" clip-path="url(#p12a5d6b0b1)" style="fill: #c70039; fill-opacity: 0.99; stroke: #c70039; stroke-opacity: 0.99"/>
    <path d="M 478.992348 236.629661 
C 485.441564 236.629661 491.627505 234.06736 496.18779 229.507075 
C 500.748074 224.946791 503.310375 218.76085 503.310375 212.311633 
C 503.310375 205.862417 500.748074 199.676476 496.18779 195.116191 
C 491.627505 190.555907 485.441564 187.993606 478.992348 187.993606 
C 472.543132 187.993606 466.35719 190.555907 461.796906 195.116191 
C 457.236621 199.676476 454.67432 205.862417 454.67432 212.311633 
C 454.67432 218.76085 457.236621 224.946791 461.796906 229.507075 
C 466.35719 234.06736 472.543132 236.629661 478.992348 236.629661 
z
" clip-path="url(#p12a5d6b0b1)" style="fill: #c70039; fill-opacity: 0.99; stroke: #c70039; stroke-opacity: 0.99"/>
    <path d="M 426.29985 163.784792 
C 432.558873 163.784792 438.562384 161.298056 442.988182 156.872259 
C 447.413979 152.446461 449.900715 146.442949 449.900715 140.183927 
C 449.900715 133.924904 447.413979 127.921392 442.988182 123.495595 
C 438.562384 119.069797 432.558873 116.583061 426.29985 116.583061 
C 420.040827 116.583061 414.037315 119.069797 409.611518 123.495595 
C 405.185721 127.921392 402.698984 133.924904 402.698984 140.183927 
C 402.698984 146.442949 405.185721 152.446461 409.611518 156.872259 
C 414.037315 161.298056 420.040827 163.784792 426.29985 163.784792 
z
" clip-path="url(#p12a5d6b0b1)" style="fill: #c70039; fill-opacity: 0.99; stroke: #c70039; stroke-opacity: 0.99"/>
    <path d="M 348.664291 118.835563 
C 354.824694 118.835563 360.733612 116.388009 365.089675 112.031946 
C 369.445738 107.675884 371.893292 101.766966 371.893292 95.606563 
C 371.893292 89.44616 369.445738 83.537242 365.089675 79.181179 
C 360.733612 74.825116 354.824694 72.377562 348.664291 72.377562 
C 342.503888 72.377562 336.59497 74.825116 332.238907 79.181179 
C 327.882845 83.537242 325.435291 89.44616 325.435291 95.606563 
C 325.435291 101.766966 327.882845 107.675884 332.238907 112.031946 
C 336.59497 116.388009 342.503888 118.835563 348.664291 118.835563 
z
" clip-path="url(#p12a5d6b0b1)" style="fill: #c70039; fill-opacity: 0.99; stroke: #c70039; stroke-opacity: 0.99"/>
    <path d="M 259.509549 108.949402 
C 265.519594 108.949402 271.284292 106.561586 275.534036 102.311843 
C 279.783779 98.062099 282.171595 92.297401 282.171595 86.287356 
C 282.171595 80.277311 279.783779 74.512612 275.534036 70.262869 
C 271.284292 66.013125 265.519594 63.625309 259.509549 63.625309 
C 253.499504 63.625309 247.734805 66.013125 243.485062 70.262869 
C 239.235318 74.512612 236.847502 80.277311 236.847502 86.287356 
C 236.847502 92.297401 239.235318 98.062099 243.485062 102.311843 
C 247.734805 106.561586 253.499504 108.949402 259.509549 108.949402 
z
" clip-path="url(#p12a5d6b0b1)" style="fill: #c70039; fill-opacity: 0.99; stroke: #c70039; stroke-opacity: 0.99"/>
    <path d="M 174.251298 135.808647 
C 180.078063 135.808647 185.666964 133.493648 189.787109 129.373503 
C 193.907254 125.253358 196.222252 119.664457 196.222252 113.837692 
C 196.222252 108.010927 193.907254 102.422027 189.787109 98.301881 
C 185.666964 94.181736 180.078063 91.866738 174.251298 91.866738 
C 168.424533 91.866738 162.835632 94.181736 158.715487 98.301881 
C 154.595342 102.422027 152.280344 108.010927 152.280344 113.837692 
C 152.280344 119.664457 154.595342 125.253358 158.715487 129.373503 
C 162.835632 133.493648 168.424533 135.808647 174.251298 135.808647 
z
" clip-path="url(#p12a5d6b0b1)" style="fill: #c70039; fill-opacity: 0.99; stroke: #c70039; stroke-opacity: 0.99"/>
    <path d="M 107.631477 194.973072 
C 113.327832 194.973072 118.791647 192.709886 122.819578 188.681955 
C 126.84751 184.654023 129.110696 179.190209 129.110696 173.493854 
C 129.110696 167.797498 126.84751 162.333684 122.819578 158.305753 
C 118.791647 154.277821 113.327832 152.014635 107.631477 152.014635 
C 101.935122 152.014635 96.471307 154.277821 92.443376 158.305753 
C 88.415444 162.333684 86.152258 167.797498 86.152258 173.493854 
C 86.152258 179.190209 88.415444 184.654023 92.443376 188.681955 
C 96.471307 192.709886 101.935122 194.973072 107.631477 194.973072 
z
" clip-path="url(#p12a5d6b0b1)" style="fill: #c70039; fill-opacity: 0.99; stroke: #c70039; stroke-opacity: 0.99"/>
    <path d="M 71.169231 276.409945 
C 76.862922 276.409945 82.32418 274.147818 86.350227 270.12177 
C 90.376275 266.095723 92.638402 260.634465 92.638402 254.940774 
C 92.638402 249.247083 90.376275 243.785825 86.350227 239.759777 
C 82.32418 235.73373 76.862922 233.471603 71.169231 233.471603 
C 65.47554 233.471603 60.014282 235.73373 55.988234 239.759777 
C 51.962187 243.785825 49.70006 249.247083 49.70006 254.940774 
C 49.70006 260.634465 51.962187 266.095723 55.988234 270.12177 
C 60.014282 274.147818 65.47554 276.409945 71.169231 276.409945 
z
" clip-path="url(#p12a5d6b0b1)" style="fill: #c70039; fill-opacity: 0.99; stroke: #c70039; stroke-opacity: 0.99"/>
    <path d="M 71.169244 365.132841 
C 76.748408 365.132841 82.099815 362.916215 86.04488 358.971151 
C 89.989944 355.026086 92.20657 349.674679 92.20657 344.095514 
C 92.20657 338.51635 89.989944 333.164943 86.04488 329.219878 
C 82.099815 325.274814 76.748408 323.058188 71.169244 323.058188 
C 65.590079 323.058188 60.238672 325.274814 56.293608 329.219878 
C 52.348543 333.164943 50.131917 338.51635 50.131917 344.095514 
C 50.131917 349.674679 52.348543 355.026086 56.293608 358.971151 
C 60.238672 362.916215 65.590079 365.132841 71.169244 365.132841 
z
" clip-path="url(#p12a5d6b0b1)" style="fill: #c70039; fill-opacity: 0.99; stroke: #c70039; stroke-opacity: 0.99"/>
    <path d="M 107.63149 446.390626 
C 113.160502 446.390626 118.463804 444.193927 122.373406 440.284325 
C 126.283008 436.374723 128.479707 431.071421 128.479707 425.542409 
C 128.479707 420.013397 126.283008 414.710095 122.373406 410.800493 
C 118.463804 406.890891 113.160502 404.694192 107.63149 404.694192 
C 102.102478 404.694192 96.799176 406.890891 92.889574 410.800493 
C 88.979972 414.710095 86.783272 420.013397 86.783272 425.542409 
C 86.783272 431.071421 88.979972 436.374723 92.889574 440.284325 
C 96.799176 444.193927 102.102478 446.390626 107.63149 446.390626 
z
" clip-path="url(#p12a5d6b0b1)" style="fill: #c70039; fill-opacity: 0.99; stroke: #c70039; stroke-opacity: 0.99"/>
    <path d="M 174.25133 505.932285 
C 179.749976 505.932285 185.024151 503.74765 188.912281 499.859521 
C 192.80041 495.971391 194.985045 490.697216 194.985045 485.198571 
C 194.985045 479.699925 192.80041 474.42575 188.912281 470.53762 
C 185.024151 466.649491 179.749976 464.464856 174.25133 464.464856 
C 168.752685 464.464856 163.478509 466.649491 159.59038 470.53762 
C 155.70225 474.42575 153.517615 479.699925 153.517615 485.198571 
C 153.517615 490.697216 155.70225 495.971391 159.59038 499.859521 
C 163.478509 503.74765 168.752685 505.932285 174.25133 505.932285 
z
" clip-path="url(#p12a5d6b0b1)" style="fill: #c70039; fill-opacity: 0.99; stroke: #c70039; stroke-opacity: 0.99"/>
    <path d="M 259.509587 533.438559 
C 264.99655 533.438559 270.25952 531.258565 274.139389 527.378696 
C 278.019258 523.498827 280.199252 518.235857 280.199252 512.748894 
C 280.199252 507.261931 278.019258 501.998961 274.139389 498.119092 
C 270.25952 494.239223 264.99655 492.05923 259.509587 492.05923 
C 254.022624 492.05923 248.759654 494.239223 244.879785 498.119092 
C 240.999916 501.998961 238.819923 507.261931 238.819923 512.748894 
C 238.819923 518.235857 240.999916 523.498827 244.879785 527.378696 
C 248.759654 531.258565 254.022624 533.438559 259.509587 533.438559 
z
" clip-path="url(#p12a5d6b0b1)" style="fill: #c70039; fill-opacity: 0.99; stroke: #c70039; stroke-opacity: 0.99"/>
    <path d="M 348.664323 523.635419 
C 354.022949 523.635419 359.162821 521.506414 362.951942 517.717293 
C 366.741063 513.928173 368.870068 508.788301 368.870068 503.429675 
C 368.870068 498.071048 366.741063 492.931176 362.951942 489.142056 
C 359.162821 485.352935 354.022949 483.22393 348.664323 483.22393 
C 343.305697 483.22393 338.165825 485.352935 334.376705 489.142056 
C 330.587584 492.931176 328.458579 498.071048 328.458579 503.429675 
C 328.458579 508.788301 330.587584 513.928173 334.376705 517.717293 
C 338.165825 521.506414 343.305697 523.635419 348.664323 523.635419 
z
" clip-path="url(#p12a5d6b0b1)" style="fill: #c70039; fill-opacity: 0.99; stroke: #c70039; stroke-opacity: 0.99"/>
    <path d="M 426.299888 478.856096 
C 431.604961 478.856096 436.693466 476.748369 440.444719 472.997116 
C 444.195972 469.245863 446.3037 464.157358 446.3037 458.852285 
C 446.3037 453.547212 444.195972 448.458707 440.444719 444.707454 
C 436.693466 440.956202 431.604961 438.848474 426.299888 438.848474 
C 420.994816 438.848474 415.906311 440.956202 412.155058 444.707454 
C 408.403805 448.458707 406.296077 453.547212 406.296077 458.852285 
C 406.296077 464.157358 408.403805 469.245863 412.155058 472.997116 
C 415.906311 476.748369 420.994816 478.856096 426.299888 478.856096 
z
" clip-path="url(#p12a5d6b0b1)" style="fill: #c70039; fill-opacity: 0.99; stroke: #c70039; stroke-opacity: 0.99"/>
    <path d="M 478.992374 406.089501 
C 484.128009 406.089501 489.053994 404.049092 492.685437 400.417649 
C 496.31688 396.786206 498.35729 391.860221 498.35729 386.724585 
C 498.35729 381.588949 496.31688 376.662964 492.685437 373.031521 
C 489.053994 369.400078 484.128009 367.359668 478.992374 367.359668 
C 473.856738 367.359668 468.930753 369.400078 465.29931 373.031521 
C 461.667867 376.662964 459.627457 381.588949 459.627457 386.724585 
C 459.627457 391.860221 461.667867 396.786206 465.29931 400.417649 
C 468.930753 404.049092 473.856738 406.089501 478.992374 406.089501 
z
" clip-path="url(#p12a5d6b0b1)" style="fill: #c70039; fill-opacity: 0.99; stroke: #c70039; stroke-opacity: 0.99"/>
   </g>
   <g id="text_1">
    <g id="patch_2">
     <path d="M 462.707957 307.833281 
L 532.553582 307.833281 
L 532.553582 291.202969 
L 462.707957 291.202969 
z
" clip-path="url(#p12a5d6b0b1)" style="fill: #ffffff; opacity: 0.7; stroke: #000000; stroke-linejoin: miter"/>
    </g>
    <g clip-path="url(#p12a5d6b0b1)">
     <!-- Eddie Murphy -->
     <g transform="translate(466.667957 302.001562)scale(0.09 -0.09)">
      <defs>
       <path id="DejaVuSans-45" d="M 628 4666 
L 3578 4666 
L 3578 4134 
L 1259 4134 
L 1259 2753 
L 3481 2753 
L 3481 2222 
L 1259 2222 
L 1259 531 
L 3634 531 
L 3634 0 
L 628 0 
L 628 4666 
z
" transform="scale(0.015625)"/>
       <path id="DejaVuSans-64" d="M 2906 2969 
L 2906 4863 
L 3481 4863 
L 3481 0 
L 2906 0 
L 2906 525 
Q 2725 213 2448 61 
Q 2172 -91 1784 -91 
Q 1150 -91 751 415 
Q 353 922 353 1747 
Q 353 2572 751 3078 
Q 1150 3584 1784 3584 
Q 2172 3584 2448 3432 
Q 2725 3281 2906 2969 
z
M 947 1747 
Q 947 1113 1208 752 
Q 1469 391 1925 391 
Q 2381 391 2643 752 
Q 2906 1113 2906 1747 
Q 2906 2381 2643 2742 
Q 2381 3103 1925 3103 
Q 1469 3103 1208 2742 
Q 947 2381 947 1747 
z
" transform="scale(0.015625)"/>
       <path id="DejaVuSans-69" d="M 603 3500 
L 1178 3500 
L 1178 0 
L 603 0 
L 603 3500 
z
M 603 4863 
L 1178 4863 
L 1178 4134 
L 603 4134 
L 603 4863 
z
" transform="scale(0.015625)"/>
       <path id="DejaVuSans-65" d="M 3597 1894 
L 3597 1613 
L 953 1613 
Q 991 1019 1311 708 
Q 1631 397 2203 397 
Q 2534 397 2845 478 
Q 3156 559 3463 722 
L 3463 178 
Q 3153 47 2828 -22 
Q 2503 -91 2169 -91 
Q 1331 -91 842 396 
Q 353 884 353 1716 
Q 353 2575 817 3079 
Q 1281 3584 2069 3584 
Q 2775 3584 3186 3129 
Q 3597 2675 3597 1894 
z
M 3022 2063 
Q 3016 2534 2758 2815 
Q 2500 3097 2075 3097 
Q 1594 3097 1305 2825 
Q 1016 2553 972 2059 
L 3022 2063 
z
" transform="scale(0.015625)"/>
       <path id="DejaVuSans-20" transform="scale(0.015625)"/>
       <path id="DejaVuSans-4d" d="M 628 4666 
L 1569 4666 
L 2759 1491 
L 3956 4666 
L 4897 4666 
L 4897 0 
L 4281 0 
L 4281 4097 
L 3078 897 
L 2444 897 
L 1241 4097 
L 1241 0 
L 628 0 
L 628 4666 
z
" transform="scale(0.015625)"/>
       <path id="DejaVuSans-75" d="M 544 1381 
L 544 3500 
L 1119 3500 
L 1119 1403 
Q 1119 906 1312 657 
Q 1506 409 1894 409 
Q 2359 409 2629 706 
Q 2900 1003 2900 1516 
L 2900 3500 
L 3475 3500 
L 3475 0 
L 2900 0 
L 2900 538 
Q 2691 219 2414 64 
Q 2138 -91 1772 -91 
Q 1169 -91 856 284 
Q 544 659 544 1381 
z
M 1991 3584 
L 1991 3584 
z
" transform="scale(0.015625)"/>
       <path id="DejaVuSans-72" d="M 2631 2963 
Q 2534 3019 2420 3045 
Q 2306 3072 2169 3072 
Q 1681 3072 1420 2755 
Q 1159 2438 1159 1844 
L 1159 0 
L 581 0 
L 581 3500 
L 1159 3500 
L 1159 2956 
Q 1341 3275 1631 3429 
Q 1922 3584 2338 3584 
Q 2397 3584 2469 3576 
Q 2541 3569 2628 3553 
L 2631 2963 
z
" transform="scale(0.015625)"/>
       <path id="DejaVuSans-70" d="M 1159 525 
L 1159 -1331 
L 581 -1331 
L 581 3500 
L 1159 3500 
L 1159 2969 
Q 1341 3281 1617 3432 
Q 1894 3584 2278 3584 
Q 2916 3584 3314 3078 
Q 3713 2572 3713 1747 
Q 3713 922 3314 415 
Q 2916 -91 2278 -91 
Q 1894 -91 1617 61 
Q 1341 213 1159 525 
z
M 3116 1747 
Q 3116 2381 2855 2742 
Q 2594 3103 2138 3103 
Q 1681 3103 1420 2742 
Q 1159 2381 1159 1747 
Q 1159 1113 1420 752 
Q 1681 391 2138 391 
Q 2594 391 2855 752 
Q 3116 1113 3116 1747 
z
" transform="scale(0.015625)"/>
       <path id="DejaVuSans-68" d="M 3513 2113 
L 3513 0 
L 2938 0 
L 2938 2094 
Q 2938 2591 2744 2837 
Q 2550 3084 2163 3084 
Q 1697 3084 1428 2787 
Q 1159 2491 1159 1978 
L 1159 0 
L 581 0 
L 581 4863 
L 1159 4863 
L 1159 2956 
Q 1366 3272 1645 3428 
Q 1925 3584 2291 3584 
Q 2894 3584 3203 3211 
Q 3513 2838 3513 2113 
z
" transform="scale(0.015625)"/>
       <path id="DejaVuSans-79" d="M 2059 -325 
Q 1816 -950 1584 -1140 
Q 1353 -1331 966 -1331 
L 506 -1331 
L 506 -850 
L 844 -850 
Q 1081 -850 1212 -737 
Q 1344 -625 1503 -206 
L 1606 56 
L 191 3500 
L 800 3500 
L 1894 763 
L 2988 3500 
L 3597 3500 
L 2059 -325 
z
" transform="scale(0.015625)"/>
      </defs>
      <use xlink:href="#DejaVuSans-45"/>
      <use xlink:href="#DejaVuSans-64" x="63.183594"/>
      <use xlink:href="#DejaVuSans-64" x="126.660156"/>
      <use xlink:href="#DejaVuSans-69" x="190.136719"/>
      <use xlink:href="#DejaVuSans-65" x="217.919922"/>
      <use xlink:href="#DejaVuSans-20" x="279.443359"/>
      <use xlink:href="#DejaVuSans-4d" x="311.230469"/>
      <use xlink:href="#DejaVuSans-75" x="397.509766"/>
      <use xlink:href="#DejaVuSans-72" x="460.888672"/>
      <use xlink:href="#DejaVuSans-70" x="502.001953"/>
      <use xlink:href="#DejaVuSans-68" x="565.478516"/>
      <use xlink:href="#DejaVuSans-79" x="628.857422"/>
     </g>
    </g>
   </g>
   <g id="text_2">
    <g id="patch_3">
     <path d="M 454.675473 220.62679 
L 503.309223 220.62679 
L 503.309223 203.996477 
L 454.675473 203.996477 
z
" clip-path="url(#p12a5d6b0b1)" style="fill: #ffffff; opacity: 0.7; stroke: #000000; stroke-linejoin: miter"/>
    </g>
    <g clip-path="url(#p12a5d6b0b1)">
     <!-- Al Pacino -->
     <g transform="translate(458.635473 214.795071)scale(0.09 -0.09)">
      <defs>
       <path id="DejaVuSans-41" d="M 2188 4044 
L 1331 1722 
L 3047 1722 
L 2188 4044 
z
M 1831 4666 
L 2547 4666 
L 4325 0 
L 3669 0 
L 3244 1197 
L 1141 1197 
L 716 0 
L 50 0 
L 1831 4666 
z
" transform="scale(0.015625)"/>
       <path id="DejaVuSans-6c" d="M 603 4863 
L 1178 4863 
L 1178 0 
L 603 0 
L 603 4863 
z
" transform="scale(0.015625)"/>
       <path id="DejaVuSans-50" d="M 1259 4147 
L 1259 2394 
L 2053 2394 
Q 2494 2394 2734 2622 
Q 2975 2850 2975 3272 
Q 2975 3691 2734 3919 
Q 2494 4147 2053 4147 
L 1259 4147 
z
M 628 4666 
L 2053 4666 
Q 2838 4666 3239 4311 
Q 3641 3956 3641 3272 
Q 3641 2581 3239 2228 
Q 2838 1875 2053 1875 
L 1259 1875 
L 1259 0 
L 628 0 
L 628 4666 
z
" transform="scale(0.015625)"/>
       <path id="DejaVuSans-61" d="M 2194 1759 
Q 1497 1759 1228 1600 
Q 959 1441 959 1056 
Q 959 750 1161 570 
Q 1363 391 1709 391 
Q 2188 391 2477 730 
Q 2766 1069 2766 1631 
L 2766 1759 
L 2194 1759 
z
M 3341 1997 
L 3341 0 
L 2766 0 
L 2766 531 
Q 2569 213 2275 61 
Q 1981 -91 1556 -91 
Q 1019 -91 701 211 
Q 384 513 384 1019 
Q 384 1609 779 1909 
Q 1175 2209 1959 2209 
L 2766 2209 
L 2766 2266 
Q 2766 2663 2505 2880 
Q 2244 3097 1772 3097 
Q 1472 3097 1187 3025 
Q 903 2953 641 2809 
L 641 3341 
Q 956 3463 1253 3523 
Q 1550 3584 1831 3584 
Q 2591 3584 2966 3190 
Q 3341 2797 3341 1997 
z
" transform="scale(0.015625)"/>
       <path id="DejaVuSans-63" d="M 3122 3366 
L 3122 2828 
Q 2878 2963 2633 3030 
Q 2388 3097 2138 3097 
Q 1578 3097 1268 2742 
Q 959 2388 959 1747 
Q 959 1106 1268 751 
Q 1578 397 2138 397 
Q 2388 397 2633 464 
Q 2878 531 3122 666 
L 3122 134 
Q 2881 22 2623 -34 
Q 2366 -91 2075 -91 
Q 1284 -91 818 406 
Q 353 903 353 1747 
Q 353 2603 823 3093 
Q 1294 3584 2113 3584 
Q 2378 3584 2631 3529 
Q 2884 3475 3122 3366 
z
" transform="scale(0.015625)"/>
       <path id="DejaVuSans-6e" d="M 3513 2113 
L 3513 0 
L 2938 0 
L 2938 2094 
Q 2938 2591 2744 2837 
Q 2550 3084 2163 3084 
Q 1697 3084 1428 2787 
Q 1159 2491 1159 1978 
L 1159 0 
L 581 0 
L 581 3500 
L 1159 3500 
L 1159 2956 
Q 1366 3272 1645 3428 
Q 1925 3584 2291 3584 
Q 2894 3584 3203 3211 
Q 3513 2838 3513 2113 
z
" transform="scale(0.015625)"/>
       <path id="DejaVuSans-6f" d="M 1959 3097 
Q 1497 3097 1228 2736 
Q 959 2375 959 1747 
Q 959 1119 1226 758 
Q 1494 397 1959 397 
Q 2419 397 2687 759 
Q 2956 1122 2956 1747 
Q 2956 2369 2687 2733 
Q 2419 3097 1959 3097 
z
M 1959 3584 
Q 2709 3584 3137 3096 
Q 3566 2609 3566 1747 
Q 3566 888 3137 398 
Q 2709 -91 1959 -91 
Q 1206 -91 779 398 
Q 353 888 353 1747 
Q 353 2609 779 3096 
Q 1206 3584 1959 3584 
z
" transform="scale(0.015625)"/>
      </defs>
      <use xlink:href="#DejaVuSans-41"/>
      <use xlink:href="#DejaVuSans-6c" x="68.408203"/>
      <use xlink:href="#DejaVuSans-20" x="96.191406"/>
      <use xlink:href="#DejaVuSans-50" x="127.978516"/>
      <use xlink:href="#DejaVuSans-61" x="183.78125"/>
      <use xlink:href="#DejaVuSans-63" x="245.060547"/>
      <use xlink:href="#DejaVuSans-69" x="300.041016"/>
      <use xlink:href="#DejaVuSans-6e" x="327.824219"/>
      <use xlink:href="#DejaVuSans-6f" x="391.203125"/>
     </g>
    </g>
   </g>
   <g id="text_3">
    <g id="patch_4">
     <path d="M 400.586569 148.499083 
L 452.013131 148.499083 
L 452.013131 131.86877 
L 400.586569 131.86877 
z
" clip-path="url(#p12a5d6b0b1)" style="fill: #ffffff; opacity: 0.7; stroke: #000000; stroke-linejoin: miter"/>
    </g>
    <g clip-path="url(#p12a5d6b0b1)">
     <!-- Mel Blanc -->
     <g transform="translate(404.546569 142.667364)scale(0.09 -0.09)">
      <defs>
       <path id="DejaVuSans-42" d="M 1259 2228 
L 1259 519 
L 2272 519 
Q 2781 519 3026 730 
Q 3272 941 3272 1375 
Q 3272 1813 3026 2020 
Q 2781 2228 2272 2228 
L 1259 2228 
z
M 1259 4147 
L 1259 2741 
L 2194 2741 
Q 2656 2741 2882 2914 
Q 3109 3088 3109 3444 
Q 3109 3797 2882 3972 
Q 2656 4147 2194 4147 
L 1259 4147 
z
M 628 4666 
L 2241 4666 
Q 2963 4666 3353 4366 
Q 3744 4066 3744 3513 
Q 3744 3084 3544 2831 
Q 3344 2578 2956 2516 
Q 3422 2416 3680 2098 
Q 3938 1781 3938 1306 
Q 3938 681 3513 340 
Q 3088 0 2303 0 
L 628 0 
L 628 4666 
z
" transform="scale(0.015625)"/>
      </defs>
      <use xlink:href="#DejaVuSans-4d"/>
      <use xlink:href="#DejaVuSans-65" x="86.279297"/>
      <use xlink:href="#DejaVuSans-6c" x="147.802734"/>
      <use xlink:href="#DejaVuSans-20" x="175.585938"/>
      <use xlink:href="#DejaVuSans-42" x="207.373047"/>
      <use xlink:href="#DejaVuSans-6c" x="275.976562"/>
      <use xlink:href="#DejaVuSans-61" x="303.759766"/>
      <use xlink:href="#DejaVuSans-6e" x="365.039062"/>
      <use xlink:href="#DejaVuSans-63" x="428.417969"/>
     </g>
    </g>
   </g>
   <g id="text_4">
    <g id="patch_5">
     <path d="M 311.291791 103.921719 
L 386.036791 103.921719 
L 386.036791 87.291406 
L 311.291791 87.291406 
z
" clip-path="url(#p12a5d6b0b1)" style="fill: #ffffff; opacity: 0.7; stroke: #000000; stroke-linejoin: miter"/>
    </g>
    <g clip-path="url(#p12a5d6b0b1)">
     <!-- Steve Buscemi -->
     <g transform="translate(315.251791 98.09)scale(0.09 -0.09)">
      <defs>
       <path id="DejaVuSans-53" d="M 3425 4513 
L 3425 3897 
Q 3066 4069 2747 4153 
Q 2428 4238 2131 4238 
Q 1616 4238 1336 4038 
Q 1056 3838 1056 3469 
Q 1056 3159 1242 3001 
Q 1428 2844 1947 2747 
L 2328 2669 
Q 3034 2534 3370 2195 
Q 3706 1856 3706 1288 
Q 3706 609 3251 259 
Q 2797 -91 1919 -91 
Q 1588 -91 1214 -16 
Q 841 59 441 206 
L 441 856 
Q 825 641 1194 531 
Q 1563 422 1919 422 
Q 2459 422 2753 634 
Q 3047 847 3047 1241 
Q 3047 1584 2836 1778 
Q 2625 1972 2144 2069 
L 1759 2144 
Q 1053 2284 737 2584 
Q 422 2884 422 3419 
Q 422 4038 858 4394 
Q 1294 4750 2059 4750 
Q 2388 4750 2728 4690 
Q 3069 4631 3425 4513 
z
" transform="scale(0.015625)"/>
       <path id="DejaVuSans-74" d="M 1172 4494 
L 1172 3500 
L 2356 3500 
L 2356 3053 
L 1172 3053 
L 1172 1153 
Q 1172 725 1289 603 
Q 1406 481 1766 481 
L 2356 481 
L 2356 0 
L 1766 0 
Q 1100 0 847 248 
Q 594 497 594 1153 
L 594 3053 
L 172 3053 
L 172 3500 
L 594 3500 
L 594 4494 
L 1172 4494 
z
" transform="scale(0.015625)"/>
       <path id="DejaVuSans-76" d="M 191 3500 
L 800 3500 
L 1894 563 
L 2988 3500 
L 3597 3500 
L 2284 0 
L 1503 0 
L 191 3500 
z
" transform="scale(0.015625)"/>
       <path id="DejaVuSans-73" d="M 2834 3397 
L 2834 2853 
Q 2591 2978 2328 3040 
Q 2066 3103 1784 3103 
Q 1356 3103 1142 2972 
Q 928 2841 928 2578 
Q 928 2378 1081 2264 
Q 1234 2150 1697 2047 
L 1894 2003 
Q 2506 1872 2764 1633 
Q 3022 1394 3022 966 
Q 3022 478 2636 193 
Q 2250 -91 1575 -91 
Q 1294 -91 989 -36 
Q 684 19 347 128 
L 347 722 
Q 666 556 975 473 
Q 1284 391 1588 391 
Q 1994 391 2212 530 
Q 2431 669 2431 922 
Q 2431 1156 2273 1281 
Q 2116 1406 1581 1522 
L 1381 1569 
Q 847 1681 609 1914 
Q 372 2147 372 2553 
Q 372 3047 722 3315 
Q 1072 3584 1716 3584 
Q 2034 3584 2315 3537 
Q 2597 3491 2834 3397 
z
" transform="scale(0.015625)"/>
       <path id="DejaVuSans-6d" d="M 3328 2828 
Q 3544 3216 3844 3400 
Q 4144 3584 4550 3584 
Q 5097 3584 5394 3201 
Q 5691 2819 5691 2113 
L 5691 0 
L 5113 0 
L 5113 2094 
Q 5113 2597 4934 2840 
Q 4756 3084 4391 3084 
Q 3944 3084 3684 2787 
Q 3425 2491 3425 1978 
L 3425 0 
L 2847 0 
L 2847 2094 
Q 2847 2600 2669 2842 
Q 2491 3084 2119 3084 
Q 1678 3084 1418 2786 
Q 1159 2488 1159 1978 
L 1159 0 
L 581 0 
L 581 3500 
L 1159 3500 
L 1159 2956 
Q 1356 3278 1631 3431 
Q 1906 3584 2284 3584 
Q 2666 3584 2933 3390 
Q 3200 3197 3328 2828 
z
" transform="scale(0.015625)"/>
      </defs>
      <use xlink:href="#DejaVuSans-53"/>
      <use xlink:href="#DejaVuSans-74" x="63.476562"/>
      <use xlink:href="#DejaVuSans-65" x="102.685547"/>
      <use xlink:href="#DejaVuSans-76" x="164.208984"/>
      <use xlink:href="#DejaVuSans-65" x="223.388672"/>
      <use xlink:href="#DejaVuSans-20" x="284.912109"/>
      <use xlink:href="#DejaVuSans-42" x="316.699219"/>
      <use xlink:href="#DejaVuSans-75" x="385.302734"/>
      <use xlink:href="#DejaVuSans-73" x="448.681641"/>
      <use xlink:href="#DejaVuSans-63" x="500.78125"/>
      <use xlink:href="#DejaVuSans-65" x="555.761719"/>
      <use xlink:href="#DejaVuSans-6d" x="617.285156"/>
      <use xlink:href="#DejaVuSans-69" x="714.697266"/>
     </g>
    </g>
   </g>
   <g id="text_5">
    <g id="patch_6">
     <path d="M 227.739549 94.602512 
L 291.279549 94.602512 
L 291.279549 77.9722 
L 227.739549 77.9722 
z
" clip-path="url(#p12a5d6b0b1)" style="fill: #ffffff; opacity: 0.7; stroke: #000000; stroke-linejoin: miter"/>
    </g>
    <g clip-path="url(#p12a5d6b0b1)">
     <!-- Matt Damon -->
     <g transform="translate(231.699549 88.770793)scale(0.09 -0.09)">
      <defs>
       <path id="DejaVuSans-44" d="M 1259 4147 
L 1259 519 
L 2022 519 
Q 2988 519 3436 956 
Q 3884 1394 3884 2338 
Q 3884 3275 3436 3711 
Q 2988 4147 2022 4147 
L 1259 4147 
z
M 628 4666 
L 1925 4666 
Q 3281 4666 3915 4102 
Q 4550 3538 4550 2338 
Q 4550 1131 3912 565 
Q 3275 0 1925 0 
L 628 0 
L 628 4666 
z
" transform="scale(0.015625)"/>
      </defs>
      <use xlink:href="#DejaVuSans-4d"/>
      <use xlink:href="#DejaVuSans-61" x="86.279297"/>
      <use xlink:href="#DejaVuSans-74" x="147.558594"/>
      <use xlink:href="#DejaVuSans-74" x="186.767578"/>
      <use xlink:href="#DejaVuSans-20" x="225.976562"/>
      <use xlink:href="#DejaVuSans-44" x="257.763672"/>
      <use xlink:href="#DejaVuSans-61" x="334.765625"/>
      <use xlink:href="#DejaVuSans-6d" x="396.044922"/>
      <use xlink:href="#DejaVuSans-6f" x="493.457031"/>
      <use xlink:href="#DejaVuSans-6e" x="554.638672"/>
     </g>
    </g>
   </g>
   <g id="text_6">
    <g id="patch_7">
     <path d="M 126.94997 122.152849 
L 221.552626 122.152849 
L 221.552626 105.522536 
L 126.94997 105.522536 
z
" clip-path="url(#p12a5d6b0b1)" style="fill: #ffffff; opacity: 0.7; stroke: #000000; stroke-linejoin: miter"/>
    </g>
    <g clip-path="url(#p12a5d6b0b1)">
     <!-- Denzel Washington -->
     <g transform="translate(130.90997 116.32113)scale(0.09 -0.09)">
      <defs>
       <path id="DejaVuSans-7a" d="M 353 3500 
L 3084 3500 
L 3084 2975 
L 922 459 
L 3084 459 
L 3084 0 
L 275 0 
L 275 525 
L 2438 3041 
L 353 3041 
L 353 3500 
z
" transform="scale(0.015625)"/>
       <path id="DejaVuSans-57" d="M 213 4666 
L 850 4666 
L 1831 722 
L 2809 4666 
L 3519 4666 
L 4500 722 
L 5478 4666 
L 6119 4666 
L 4947 0 
L 4153 0 
L 3169 4050 
L 2175 0 
L 1381 0 
L 213 4666 
z
" transform="scale(0.015625)"/>
       <path id="DejaVuSans-67" d="M 2906 1791 
Q 2906 2416 2648 2759 
Q 2391 3103 1925 3103 
Q 1463 3103 1205 2759 
Q 947 2416 947 1791 
Q 947 1169 1205 825 
Q 1463 481 1925 481 
Q 2391 481 2648 825 
Q 2906 1169 2906 1791 
z
M 3481 434 
Q 3481 -459 3084 -895 
Q 2688 -1331 1869 -1331 
Q 1566 -1331 1297 -1286 
Q 1028 -1241 775 -1147 
L 775 -588 
Q 1028 -725 1275 -790 
Q 1522 -856 1778 -856 
Q 2344 -856 2625 -561 
Q 2906 -266 2906 331 
L 2906 616 
Q 2728 306 2450 153 
Q 2172 0 1784 0 
Q 1141 0 747 490 
Q 353 981 353 1791 
Q 353 2603 747 3093 
Q 1141 3584 1784 3584 
Q 2172 3584 2450 3431 
Q 2728 3278 2906 2969 
L 2906 3500 
L 3481 3500 
L 3481 434 
z
" transform="scale(0.015625)"/>
      </defs>
      <use xlink:href="#DejaVuSans-44"/>
      <use xlink:href="#DejaVuSans-65" x="77.001953"/>
      <use xlink:href="#DejaVuSans-6e" x="138.525391"/>
      <use xlink:href="#DejaVuSans-7a" x="201.904297"/>
      <use xlink:href="#DejaVuSans-65" x="254.394531"/>
      <use xlink:href="#DejaVuSans-6c" x="315.917969"/>
      <use xlink:href="#DejaVuSans-20" x="343.701172"/>
      <use xlink:href="#DejaVuSans-57" x="375.488281"/>
      <use xlink:href="#DejaVuSans-61" x="467.990234"/>
      <use xlink:href="#DejaVuSans-73" x="529.269531"/>
      <use xlink:href="#DejaVuSans-68" x="581.369141"/>
      <use xlink:href="#DejaVuSans-69" x="644.748047"/>
      <use xlink:href="#DejaVuSans-6e" x="672.53125"/>
      <use xlink:href="#DejaVuSans-67" x="735.910156"/>
      <use xlink:href="#DejaVuSans-74" x="799.386719"/>
      <use xlink:href="#DejaVuSans-6f" x="838.595703"/>
      <use xlink:href="#DejaVuSans-6e" x="899.777344"/>
     </g>
    </g>
   </g>
   <g id="text_7">
    <g id="patch_8">
     <path d="M 74.346946 181.80901 
L 140.916008 181.80901 
L 140.916008 165.178697 
L 74.346946 165.178697 
z
" clip-path="url(#p12a5d6b0b1)" style="fill: #ffffff; opacity: 0.7; stroke: #000000; stroke-linejoin: miter"/>
    </g>
    <g clip-path="url(#p12a5d6b0b1)">
     <!-- John C. Reilly -->
     <g transform="translate(78.306946 175.977291)scale(0.09 -0.09)">
      <defs>
       <path id="DejaVuSans-4a" d="M 628 4666 
L 1259 4666 
L 1259 325 
Q 1259 -519 939 -900 
Q 619 -1281 -91 -1281 
L -331 -1281 
L -331 -750 
L -134 -750 
Q 284 -750 456 -515 
Q 628 -281 628 325 
L 628 4666 
z
" transform="scale(0.015625)"/>
       <path id="DejaVuSans-43" d="M 4122 4306 
L 4122 3641 
Q 3803 3938 3442 4084 
Q 3081 4231 2675 4231 
Q 1875 4231 1450 3742 
Q 1025 3253 1025 2328 
Q 1025 1406 1450 917 
Q 1875 428 2675 428 
Q 3081 428 3442 575 
Q 3803 722 4122 1019 
L 4122 359 
Q 3791 134 3420 21 
Q 3050 -91 2638 -91 
Q 1578 -91 968 557 
Q 359 1206 359 2328 
Q 359 3453 968 4101 
Q 1578 4750 2638 4750 
Q 3056 4750 3426 4639 
Q 3797 4528 4122 4306 
z
" transform="scale(0.015625)"/>
       <path id="DejaVuSans-2e" d="M 684 794 
L 1344 794 
L 1344 0 
L 684 0 
L 684 794 
z
" transform="scale(0.015625)"/>
       <path id="DejaVuSans-52" d="M 2841 2188 
Q 3044 2119 3236 1894 
Q 3428 1669 3622 1275 
L 4263 0 
L 3584 0 
L 2988 1197 
Q 2756 1666 2539 1819 
Q 2322 1972 1947 1972 
L 1259 1972 
L 1259 0 
L 628 0 
L 628 4666 
L 2053 4666 
Q 2853 4666 3247 4331 
Q 3641 3997 3641 3322 
Q 3641 2881 3436 2590 
Q 3231 2300 2841 2188 
z
M 1259 4147 
L 1259 2491 
L 2053 2491 
Q 2509 2491 2742 2702 
Q 2975 2913 2975 3322 
Q 2975 3731 2742 3939 
Q 2509 4147 2053 4147 
L 1259 4147 
z
" transform="scale(0.015625)"/>
      </defs>
      <use xlink:href="#DejaVuSans-4a"/>
      <use xlink:href="#DejaVuSans-6f" x="29.492188"/>
      <use xlink:href="#DejaVuSans-68" x="90.673828"/>
      <use xlink:href="#DejaVuSans-6e" x="154.052734"/>
      <use xlink:href="#DejaVuSans-20" x="217.431641"/>
      <use xlink:href="#DejaVuSans-43" x="249.21875"/>
      <use xlink:href="#DejaVuSans-2e" x="319.042969"/>
      <use xlink:href="#DejaVuSans-20" x="350.830078"/>
      <use xlink:href="#DejaVuSans-52" x="382.617188"/>
      <use xlink:href="#DejaVuSans-65" x="447.599609"/>
      <use xlink:href="#DejaVuSans-69" x="509.123047"/>
      <use xlink:href="#DejaVuSans-6c" x="536.90625"/>
      <use xlink:href="#DejaVuSans-6c" x="564.689453"/>
      <use xlink:href="#DejaVuSans-79" x="592.472656"/>
     </g>
    </g>
   </g>
   <g id="text_8">
    <g id="patch_9">
     <path d="M 47.541418 263.25593 
L 94.797043 263.25593 
L 94.797043 246.625618 
L 47.541418 246.625618 
z
" clip-path="url(#p12a5d6b0b1)" style="fill: #ffffff; opacity: 0.7; stroke: #000000; stroke-linejoin: miter"/>
    </g>
    <g clip-path="url(#p12a5d6b0b1)">
     <!-- Joe Pesci -->
     <g transform="translate(51.501418 257.424211)scale(0.09 -0.09)">
      <use xlink:href="#DejaVuSans-4a"/>
      <use xlink:href="#DejaVuSans-6f" x="29.492188"/>
      <use xlink:href="#DejaVuSans-65" x="90.673828"/>
      <use xlink:href="#DejaVuSans-20" x="152.197266"/>
      <use xlink:href="#DejaVuSans-50" x="183.984375"/>
      <use xlink:href="#DejaVuSans-65" x="240.662109"/>
      <use xlink:href="#DejaVuSans-73" x="302.185547"/>
      <use xlink:href="#DejaVuSans-63" x="354.285156"/>
      <use xlink:href="#DejaVuSans-69" x="409.265625"/>
     </g>
    </g>
   </g>
   <g id="text_9">
    <g id="patch_10">
     <path d="M 34.717837 352.410671 
L 107.62065 352.410671 
L 107.62065 335.780358 
L 34.717837 335.780358 
z
" clip-path="url(#p12a5d6b0b1)" style="fill: #ffffff; opacity: 0.7; stroke: #000000; stroke-linejoin: miter"/>
    </g>
    <g clip-path="url(#p12a5d6b0b1)">
     <!-- Jack Nicholson -->
     <g transform="translate(38.677837 346.578952)scale(0.09 -0.09)">
      <defs>
       <path id="DejaVuSans-6b" d="M 581 4863 
L 1159 4863 
L 1159 1991 
L 2875 3500 
L 3609 3500 
L 1753 1863 
L 3688 0 
L 2938 0 
L 1159 1709 
L 1159 0 
L 581 0 
L 581 4863 
z
" transform="scale(0.015625)"/>
       <path id="DejaVuSans-4e" d="M 628 4666 
L 1478 4666 
L 3547 763 
L 3547 4666 
L 4159 4666 
L 4159 0 
L 3309 0 
L 1241 3903 
L 1241 0 
L 628 0 
L 628 4666 
z
" transform="scale(0.015625)"/>
      </defs>
      <use xlink:href="#DejaVuSans-4a"/>
      <use xlink:href="#DejaVuSans-61" x="29.492188"/>
      <use xlink:href="#DejaVuSans-63" x="90.771484"/>
      <use xlink:href="#DejaVuSans-6b" x="145.751953"/>
      <use xlink:href="#DejaVuSans-20" x="203.662109"/>
      <use xlink:href="#DejaVuSans-4e" x="235.449219"/>
      <use xlink:href="#DejaVuSans-69" x="310.253906"/>
      <use xlink:href="#DejaVuSans-63" x="338.037109"/>
      <use xlink:href="#DejaVuSans-68" x="393.017578"/>
      <use xlink:href="#DejaVuSans-6f" x="456.396484"/>
      <use xlink:href="#DejaVuSans-6c" x="517.578125"/>
      <use xlink:href="#DejaVuSans-73" x="545.361328"/>
      <use xlink:href="#DejaVuSans-6f" x="597.460938"/>
      <use xlink:href="#DejaVuSans-6e" x="658.642578"/>
     </g>
    </g>
   </g>
   <g id="text_10">
    <g id="patch_11">
     <path d="M 71.603365 433.857565 
L 143.659615 433.857565 
L 143.659615 417.227253 
L 71.603365 417.227253 
z
" clip-path="url(#p12a5d6b0b1)" style="fill: #ffffff; opacity: 0.7; stroke: #000000; stroke-linejoin: miter"/>
    </g>
    <g clip-path="url(#p12a5d6b0b1)">
     <!-- Christina Ricci -->
     <g transform="translate(75.563365 428.025847)scale(0.09 -0.09)">
      <use xlink:href="#DejaVuSans-43"/>
      <use xlink:href="#DejaVuSans-68" x="69.824219"/>
      <use xlink:href="#DejaVuSans-72" x="133.203125"/>
      <use xlink:href="#DejaVuSans-69" x="174.316406"/>
      <use xlink:href="#DejaVuSans-73" x="202.099609"/>
      <use xlink:href="#DejaVuSans-74" x="254.199219"/>
      <use xlink:href="#DejaVuSans-69" x="293.408203"/>
      <use xlink:href="#DejaVuSans-6e" x="321.191406"/>
      <use xlink:href="#DejaVuSans-61" x="384.570312"/>
      <use xlink:href="#DejaVuSans-20" x="445.849609"/>
      <use xlink:href="#DejaVuSans-52" x="477.636719"/>
      <use xlink:href="#DejaVuSans-69" x="547.119141"/>
      <use xlink:href="#DejaVuSans-63" x="574.902344"/>
      <use xlink:href="#DejaVuSans-63" x="629.882812"/>
      <use xlink:href="#DejaVuSans-69" x="684.863281"/>
     </g>
    </g>
   </g>
   <g id="text_11">
    <g id="patch_12">
     <path d="M 139.68219 493.513727 
L 208.820471 493.513727 
L 208.820471 476.883414 
L 139.68219 476.883414 
z
" clip-path="url(#p12a5d6b0b1)" style="fill: #ffffff; opacity: 0.7; stroke: #000000; stroke-linejoin: miter"/>
    </g>
    <g clip-path="url(#p12a5d6b0b1)">
     <!-- Paul Newman -->
     <g transform="translate(143.64219 487.682008)scale(0.09 -0.09)">
      <defs>
       <path id="DejaVuSans-77" d="M 269 3500 
L 844 3500 
L 1563 769 
L 2278 3500 
L 2956 3500 
L 3675 769 
L 4391 3500 
L 4966 3500 
L 4050 0 
L 3372 0 
L 2619 2869 
L 1863 0 
L 1184 0 
L 269 3500 
z
" transform="scale(0.015625)"/>
      </defs>
      <use xlink:href="#DejaVuSans-50"/>
      <use xlink:href="#DejaVuSans-61" x="55.802734"/>
      <use xlink:href="#DejaVuSans-75" x="117.082031"/>
      <use xlink:href="#DejaVuSans-6c" x="180.460938"/>
      <use xlink:href="#DejaVuSans-20" x="208.244141"/>
      <use xlink:href="#DejaVuSans-4e" x="240.03125"/>
      <use xlink:href="#DejaVuSans-65" x="314.835938"/>
      <use xlink:href="#DejaVuSans-77" x="376.359375"/>
      <use xlink:href="#DejaVuSans-6d" x="458.146484"/>
      <use xlink:href="#DejaVuSans-61" x="555.558594"/>
      <use xlink:href="#DejaVuSans-6e" x="616.837891"/>
     </g>
    </g>
   </g>
   <g id="text_12">
    <g id="patch_13">
     <path d="M 226.940134 521.06405 
L 292.07904 521.06405 
L 292.07904 504.433738 
L 226.940134 504.433738 
z
" clip-path="url(#p12a5d6b0b1)" style="fill: #ffffff; opacity: 0.7; stroke: #000000; stroke-linejoin: miter"/>
    </g>
    <g clip-path="url(#p12a5d6b0b1)">
     <!-- Meryl Streep -->
     <g transform="translate(230.900134 515.232332)scale(0.09 -0.09)">
      <use xlink:href="#DejaVuSans-4d"/>
      <use xlink:href="#DejaVuSans-65" x="86.279297"/>
      <use xlink:href="#DejaVuSans-72" x="147.802734"/>
      <use xlink:href="#DejaVuSans-79" x="188.916016"/>
      <use xlink:href="#DejaVuSans-6c" x="248.095703"/>
      <use xlink:href="#DejaVuSans-20" x="275.878906"/>
      <use xlink:href="#DejaVuSans-53" x="307.666016"/>
      <use xlink:href="#DejaVuSans-74" x="371.142578"/>
      <use xlink:href="#DejaVuSans-72" x="410.351562"/>
      <use xlink:href="#DejaVuSans-65" x="449.214844"/>
      <use xlink:href="#DejaVuSans-65" x="510.738281"/>
      <use xlink:href="#DejaVuSans-70" x="572.261719"/>
     </g>
    </g>
   </g>
   <g id="text_13">
    <g id="patch_14">
     <path d="M 320.210261 511.744831 
L 377.118386 511.744831 
L 377.118386 495.114518 
L 320.210261 495.114518 
z
" clip-path="url(#p12a5d6b0b1)" style="fill: #ffffff; opacity: 0.7; stroke: #000000; stroke-linejoin: miter"/>
    </g>
    <g clip-path="url(#p12a5d6b0b1)">
     <!-- Tom Hanks -->
     <g transform="translate(324.170261 505.913112)scale(0.09 -0.09)">
      <defs>
       <path id="DejaVuSans-54" d="M -19 4666 
L 3928 4666 
L 3928 4134 
L 2272 4134 
L 2272 0 
L 1638 0 
L 1638 4134 
L -19 4134 
L -19 4666 
z
" transform="scale(0.015625)"/>
       <path id="DejaVuSans-48" d="M 628 4666 
L 1259 4666 
L 1259 2753 
L 3553 2753 
L 3553 4666 
L 4184 4666 
L 4184 0 
L 3553 0 
L 3553 2222 
L 1259 2222 
L 1259 0 
L 628 0 
L 628 4666 
z
" transform="scale(0.015625)"/>
      </defs>
      <use xlink:href="#DejaVuSans-54"/>
      <use xlink:href="#DejaVuSans-6f" x="44.083984"/>
      <use xlink:href="#DejaVuSans-6d" x="105.265625"/>
      <use xlink:href="#DejaVuSans-20" x="202.677734"/>
      <use xlink:href="#DejaVuSans-48" x="234.464844"/>
      <use xlink:href="#DejaVuSans-61" x="309.660156"/>
      <use xlink:href="#DejaVuSans-6e" x="370.939453"/>
      <use xlink:href="#DejaVuSans-6b" x="434.318359"/>
      <use xlink:href="#DejaVuSans-73" x="492.228516"/>
     </g>
    </g>
   </g>
   <g id="text_14">
    <g id="patch_15">
     <path d="M 391.341217 467.167441 
L 461.25856 467.167441 
L 461.25856 450.537129 
L 391.341217 450.537129 
z
" clip-path="url(#p12a5d6b0b1)" style="fill: #ffffff; opacity: 0.7; stroke: #000000; stroke-linejoin: miter"/>
    </g>
    <g clip-path="url(#p12a5d6b0b1)">
     <!-- Danny DeVito -->
     <g transform="translate(395.301217 461.335723)scale(0.09 -0.09)">
      <defs>
       <path id="DejaVuSans-56" d="M 1831 0 
L 50 4666 
L 709 4666 
L 2188 738 
L 3669 4666 
L 4325 4666 
L 2547 0 
L 1831 0 
z
" transform="scale(0.015625)"/>
      </defs>
      <use xlink:href="#DejaVuSans-44"/>
      <use xlink:href="#DejaVuSans-61" x="77.001953"/>
      <use xlink:href="#DejaVuSans-6e" x="138.28125"/>
      <use xlink:href="#DejaVuSans-6e" x="201.660156"/>
      <use xlink:href="#DejaVuSans-79" x="265.039062"/>
      <use xlink:href="#DejaVuSans-20" x="324.21875"/>
      <use xlink:href="#DejaVuSans-44" x="356.005859"/>
      <use xlink:href="#DejaVuSans-65" x="433.007812"/>
      <use xlink:href="#DejaVuSans-56" x="494.53125"/>
      <use xlink:href="#DejaVuSans-69" x="560.689453"/>
      <use xlink:href="#DejaVuSans-74" x="588.472656"/>
      <use xlink:href="#DejaVuSans-6f" x="627.681641"/>
     </g>
    </g>
   </g>
   <g id="text_15">
    <g id="patch_16">
     <path d="M 454.03917 395.039741 
L 503.945577 395.039741 
L 503.945577 378.409428 
L 454.03917 378.409428 
z
" clip-path="url(#p12a5d6b0b1)" style="fill: #ffffff; opacity: 0.7; stroke: #000000; stroke-linejoin: miter"/>
    </g>
    <g clip-path="url(#p12a5d6b0b1)">
     <!-- Téa Leoni -->
     <g transform="translate(457.99917 389.208022)scale(0.09 -0.09)">
      <defs>
       <path id="DejaVuSans-e9" d="M 3597 1894 
L 3597 1613 
L 953 1613 
Q 991 1019 1311 708 
Q 1631 397 2203 397 
Q 2534 397 2845 478 
Q 3156 559 3463 722 
L 3463 178 
Q 3153 47 2828 -22 
Q 2503 -91 2169 -91 
Q 1331 -91 842 396 
Q 353 884 353 1716 
Q 353 2575 817 3079 
Q 1281 3584 2069 3584 
Q 2775 3584 3186 3129 
Q 3597 2675 3597 1894 
z
M 3022 2063 
Q 3016 2534 2758 2815 
Q 2500 3097 2075 3097 
Q 1594 3097 1305 2825 
Q 1016 2553 972 2059 
L 3022 2063 
z
M 2469 5119 
L 3091 5119 
L 2072 3944 
L 1594 3944 
L 2469 5119 
z
" transform="scale(0.015625)"/>
       <path id="DejaVuSans-4c" d="M 628 4666 
L 1259 4666 
L 1259 531 
L 3531 531 
L 3531 0 
L 628 0 
L 628 4666 
z
" transform="scale(0.015625)"/>
      </defs>
      <use xlink:href="#DejaVuSans-54"/>
      <use xlink:href="#DejaVuSans-e9" x="44.083984"/>
      <use xlink:href="#DejaVuSans-61" x="105.607422"/>
      <use xlink:href="#DejaVuSans-20" x="166.886719"/>
      <use xlink:href="#DejaVuSans-4c" x="198.673828"/>
      <use xlink:href="#DejaVuSans-65" x="252.636719"/>
      <use xlink:href="#DejaVuSans-6f" x="314.160156"/>
      <use xlink:href="#DejaVuSans-6e" x="375.341797"/>
      <use xlink:href="#DejaVuSans-69" x="438.720703"/>
     </g>
    </g>
   </g>
   <g id="text_16">
    <!-- Impactful actors for Action genre - Importance rank: 3 -->
    <g transform="translate(122.044687 16.318125)scale(0.12 -0.12)">
     <defs>
      <path id="DejaVuSans-49" d="M 628 4666 
L 1259 4666 
L 1259 0 
L 628 0 
L 628 4666 
z
" transform="scale(0.015625)"/>
      <path id="DejaVuSans-66" d="M 2375 4863 
L 2375 4384 
L 1825 4384 
Q 1516 4384 1395 4259 
Q 1275 4134 1275 3809 
L 1275 3500 
L 2222 3500 
L 2222 3053 
L 1275 3053 
L 1275 0 
L 697 0 
L 697 3053 
L 147 3053 
L 147 3500 
L 697 3500 
L 697 3744 
Q 697 4328 969 4595 
Q 1241 4863 1831 4863 
L 2375 4863 
z
" transform="scale(0.015625)"/>
      <path id="DejaVuSans-2d" d="M 313 2009 
L 1997 2009 
L 1997 1497 
L 313 1497 
L 313 2009 
z
" transform="scale(0.015625)"/>
      <path id="DejaVuSans-3a" d="M 750 794 
L 1409 794 
L 1409 0 
L 750 0 
L 750 794 
z
M 750 3309 
L 1409 3309 
L 1409 2516 
L 750 2516 
L 750 3309 
z
" transform="scale(0.015625)"/>
      <path id="DejaVuSans-33" d="M 2597 2516 
Q 3050 2419 3304 2112 
Q 3559 1806 3559 1356 
Q 3559 666 3084 287 
Q 2609 -91 1734 -91 
Q 1441 -91 1130 -33 
Q 819 25 488 141 
L 488 750 
Q 750 597 1062 519 
Q 1375 441 1716 441 
Q 2309 441 2620 675 
Q 2931 909 2931 1356 
Q 2931 1769 2642 2001 
Q 2353 2234 1838 2234 
L 1294 2234 
L 1294 2753 
L 1863 2753 
Q 2328 2753 2575 2939 
Q 2822 3125 2822 3475 
Q 2822 3834 2567 4026 
Q 2313 4219 1838 4219 
Q 1578 4219 1281 4162 
Q 984 4106 628 3988 
L 628 4550 
Q 988 4650 1302 4700 
Q 1616 4750 1894 4750 
Q 2613 4750 3031 4423 
Q 3450 4097 3450 3541 
Q 3450 3153 3228 2886 
Q 3006 2619 2597 2516 
z
" transform="scale(0.015625)"/>
     </defs>
     <use xlink:href="#DejaVuSans-49"/>
     <use xlink:href="#DejaVuSans-6d" x="29.492188"/>
     <use xlink:href="#DejaVuSans-70" x="126.904297"/>
     <use xlink:href="#DejaVuSans-61" x="190.380859"/>
     <use xlink:href="#DejaVuSans-63" x="251.660156"/>
     <use xlink:href="#DejaVuSans-74" x="306.640625"/>
     <use xlink:href="#DejaVuSans-66" x="345.849609"/>
     <use xlink:href="#DejaVuSans-75" x="381.054688"/>
     <use xlink:href="#DejaVuSans-6c" x="444.433594"/>
     <use xlink:href="#DejaVuSans-20" x="472.216797"/>
     <use xlink:href="#DejaVuSans-61" x="504.003906"/>
     <use xlink:href="#DejaVuSans-63" x="565.283203"/>
     <use xlink:href="#DejaVuSans-74" x="620.263672"/>
     <use xlink:href="#DejaVuSans-6f" x="659.472656"/>
     <use xlink:href="#DejaVuSans-72" x="720.654297"/>
     <use xlink:href="#DejaVuSans-73" x="761.767578"/>
     <use xlink:href="#DejaVuSans-20" x="813.867188"/>
     <use xlink:href="#DejaVuSans-66" x="845.654297"/>
     <use xlink:href="#DejaVuSans-6f" x="880.859375"/>
     <use xlink:href="#DejaVuSans-72" x="942.041016"/>
     <use xlink:href="#DejaVuSans-20" x="983.154297"/>
     <use xlink:href="#DejaVuSans-41" x="1014.941406"/>
     <use xlink:href="#DejaVuSans-63" x="1081.599609"/>
     <use xlink:href="#DejaVuSans-74" x="1136.580078"/>
     <use xlink:href="#DejaVuSans-69" x="1175.789062"/>
     <use xlink:href="#DejaVuSans-6f" x="1203.572266"/>
     <use xlink:href="#DejaVuSans-6e" x="1264.753906"/>
     <use xlink:href="#DejaVuSans-20" x="1328.132812"/>
     <use xlink:href="#DejaVuSans-67" x="1359.919922"/>
     <use xlink:href="#DejaVuSans-65" x="1423.396484"/>
     <use xlink:href="#DejaVuSans-6e" x="1484.919922"/>
     <use xlink:href="#DejaVuSans-72" x="1548.298828"/>
     <use xlink:href="#DejaVuSans-65" x="1587.162109"/>
     <use xlink:href="#DejaVuSans-20" x="1648.685547"/>
     <use xlink:href="#DejaVuSans-2d" x="1680.472656"/>
     <use xlink:href="#DejaVuSans-20" x="1716.556641"/>
     <use xlink:href="#DejaVuSans-49" x="1748.34375"/>
     <use xlink:href="#DejaVuSans-6d" x="1777.835938"/>
     <use xlink:href="#DejaVuSans-70" x="1875.248047"/>
     <use xlink:href="#DejaVuSans-6f" x="1938.724609"/>
     <use xlink:href="#DejaVuSans-72" x="1999.90625"/>
     <use xlink:href="#DejaVuSans-74" x="2041.019531"/>
     <use xlink:href="#DejaVuSans-61" x="2080.228516"/>
     <use xlink:href="#DejaVuSans-6e" x="2141.507812"/>
     <use xlink:href="#DejaVuSans-63" x="2204.886719"/>
     <use xlink:href="#DejaVuSans-65" x="2259.867188"/>
     <use xlink:href="#DejaVuSans-20" x="2321.390625"/>
     <use xlink:href="#DejaVuSans-72" x="2353.177734"/>
     <use xlink:href="#DejaVuSans-61" x="2394.291016"/>
     <use xlink:href="#DejaVuSans-6e" x="2455.570312"/>
     <use xlink:href="#DejaVuSans-6b" x="2518.949219"/>
     <use xlink:href="#DejaVuSans-3a" x="2576.859375"/>
     <use xlink:href="#DejaVuSans-20" x="2610.550781"/>
     <use xlink:href="#DejaVuSans-33" x="2642.337891"/>
    </g>
   </g>
  </g>
 </g>
 <defs>
  <clipPath id="p12a5d6b0b1">
   <rect x="7.2" y="22.318125" width="554.4" height="554.4"/>
  </clipPath>
 </defs>
</svg>
