<?xml version="1.0" encoding="utf-8" standalone="no"?>
<!DOCTYPE svg PUBLIC "-//W3C//DTD SVG 1.1//EN"
  "http://www.w3.org/Graphics/SVG/1.1/DTD/svg11.dtd">
<svg xmlns:xlink="http://www.w3.org/1999/xlink" width="568.8pt" height="583.918125pt" viewBox="0 0 568.8 583.918125" xmlns="http://www.w3.org/2000/svg" version="1.1">
 <metadata>
  <rdf:RDF xmlns:dc="http://purl.org/dc/elements/1.1/" xmlns:cc="http://creativecommons.org/ns#" xmlns:rdf="http://www.w3.org/1999/02/22-rdf-syntax-ns#">
   <cc:Work>
    <dc:type rdf:resource="http://purl.org/dc/dcmitype/StillImage"/>
    <dc:date>2022-12-22T19:12:55.558536</dc:date>
    <dc:format>image/svg+xml</dc:format>
    <dc:creator>
     <cc:Agent>
      <dc:title>Matplotlib v3.5.2, https://matplotlib.org/</dc:title>
     </cc:Agent>
    </dc:creator>
   </cc:Work>
  </rdf:RDF>
 </metadata>
 <defs>
  <style type="text/css">*{stroke-linejoin: round; stroke-linecap: butt}</style>
 </defs>
 <g id="figure_1">
  <g id="patch_1">
   <path d="M 0 583.918125 
L 568.8 583.918125 
L 568.8 0 
L 0 0 
z
" style="fill: #ffffff"/>
  </g>
  <g id="axes_1">
   <g id="LineCollection_1">
    <path d="M 354.618862 104.080681 
L 429.151166 459.947178 
" clip-path="url(#pd9b10c8489)" style="fill: none; stroke: #000000; stroke-opacity: 0.3; stroke-width: 10"/>
    <path d="M 123.220747 180.385715 
L 88.21599 260.178066 
" clip-path="url(#pd9b10c8489)" style="fill: none; stroke: #000000; stroke-opacity: 0.3; stroke-width: 5"/>
    <path d="M 123.220747 180.385715 
L 88.216002 347.521656 
" clip-path="url(#pd9b10c8489)" style="fill: none; stroke: #000000; stroke-opacity: 0.3; stroke-width: 5"/>
    <path d="M 88.21599 260.178066 
L 88.216002 347.521656 
" clip-path="url(#pd9b10c8489)" style="fill: none; stroke: #000000; stroke-opacity: 0.3; stroke-width: 5"/>
   </g>
   <g id="PathCollection_1">
    <path d="M 497.630769 331.23597 
C 504.893655 331.23597 511.86005 328.350395 516.995686 323.214759 
C 522.131322 318.079123 525.016897 311.112728 525.016897 303.849842 
C 525.016897 296.586956 522.131322 289.620562 516.995686 284.484926 
C 511.86005 279.34929 504.893655 276.463714 497.630769 276.463714 
C 490.367883 276.463714 483.401488 279.34929 478.265852 284.484926 
C 473.130217 289.620562 470.244641 296.586956 470.244641 303.849842 
C 470.244641 311.112728 473.130217 318.079123 478.265852 323.214759 
C 483.401488 328.350395 490.367883 331.23597 497.630769 331.23597 
z
" clip-path="url(#pd9b10c8489)" style="fill: #d62728; fill-opacity: 0.99; stroke: #d62728; stroke-opacity: 0.99"/>
    <path d="M 479.737373 242.454488 
C 486.11274 242.454488 492.227847 239.921528 496.735912 235.413463 
C 501.243978 230.905398 503.776938 224.790291 503.776938 218.414924 
C 503.776938 212.039557 501.243978 205.92445 496.735912 201.416385 
C 492.227847 196.908319 486.11274 194.375359 479.737373 194.375359 
C 473.362006 194.375359 467.246899 196.908319 462.738834 201.416385 
C 458.230769 205.92445 455.697809 212.039557 455.697809 218.414924 
C 455.697809 224.790291 458.230769 230.905398 462.738834 235.413463 
C 467.246899 239.921528 473.362006 242.454488 479.737373 242.454488 
z
" clip-path="url(#pd9b10c8489)" style="fill: #d62728; fill-opacity: 0.99; stroke: #d62728; stroke-opacity: 0.99"/>
    <path d="M 429.151129 171.683717 
C 435.49777 171.683717 441.585324 169.16217 446.073077 164.674417 
C 450.56083 160.186664 453.082377 154.09911 453.082377 147.752469 
C 453.082377 141.405828 450.56083 135.318274 446.073077 130.830521 
C 441.585324 126.342768 435.49777 123.821221 429.151129 123.821221 
C 422.804488 123.821221 416.716934 126.342768 412.229181 130.830521 
C 407.741428 135.318274 405.219881 141.405828 405.219881 147.752469 
C 405.219881 154.09911 407.741428 160.186664 412.229181 164.674417 
C 416.716934 169.16217 422.804488 171.683717 429.151129 171.683717 
z
" clip-path="url(#pd9b10c8489)" style="fill: #d62728; fill-opacity: 0.99; stroke: #d62728; stroke-opacity: 0.99"/>
    <path d="M 354.618862 127.976325 
C 360.956061 127.976325 367.034558 125.458529 371.515634 120.977453 
C 375.996711 116.496376 378.514507 110.41788 378.514507 104.080681 
C 378.514507 97.743482 375.996711 91.664985 371.515634 87.183909 
C 367.034558 82.702832 360.956061 80.185037 354.618862 80.185037 
C 348.281664 80.185037 342.203167 82.702832 337.722091 87.183909 
C 333.241014 91.664985 330.723218 97.743482 330.723218 104.080681 
C 330.723218 110.41788 333.241014 116.496376 337.722091 120.977453 
C 342.203167 125.458529 348.281664 127.976325 354.618862 127.976325 
z
" clip-path="url(#pd9b10c8489)" style="fill: #d62728; fill-opacity: 0.99; stroke: #d62728; stroke-opacity: 0.99"/>
    <path d="M 269.027863 118.251267 
C 275.207222 118.251267 281.134321 115.796182 285.503788 111.426715 
C 289.873254 107.057249 292.328339 101.130149 292.328339 94.950791 
C 292.328339 88.771432 289.873254 82.844332 285.503788 78.474866 
C 281.134321 74.1054 275.207222 71.650314 269.027863 71.650314 
C 262.848505 71.650314 256.921405 74.1054 252.551938 78.474866 
C 248.182472 82.844332 245.727387 88.771432 245.727387 94.950791 
C 245.727387 101.130149 248.182472 107.057249 252.551938 111.426715 
C 256.921405 115.796182 262.848505 118.251267 269.027863 118.251267 
z
" clip-path="url(#pd9b10c8489)" style="fill: #d62728; fill-opacity: 0.99; stroke: #d62728; stroke-opacity: 0.99"/>
    <path d="M 187.177603 144.685754 
C 193.209463 144.685754 198.995085 142.289271 203.260254 138.024102 
C 207.525423 133.758933 209.921906 127.97331 209.921906 121.94145 
C 209.921906 115.909591 207.525423 110.123968 203.260254 105.858799 
C 198.995085 101.59363 193.209463 99.197147 187.177603 99.197147 
C 181.145743 99.197147 175.360121 101.59363 171.094952 105.858799 
C 166.829783 110.123968 164.433299 115.909591 164.433299 121.94145 
C 164.433299 127.97331 166.829783 133.758933 171.094952 138.024102 
C 175.360121 142.289271 181.145743 144.685754 187.177603 144.685754 
z
" clip-path="url(#pd9b10c8489)" style="fill: #d62728; fill-opacity: 0.99; stroke: #d62728; stroke-opacity: 0.99"/>
    <path d="M 123.220747 202.324655 
C 129.039021 202.324655 134.619778 200.01303 138.73392 195.898889 
C 142.848061 191.784747 145.159686 186.20399 145.159686 180.385715 
C 145.159686 174.56744 142.848061 168.986684 138.73392 164.872542 
C 134.619778 160.758401 129.039021 158.446775 123.220747 158.446775 
C 117.402472 158.446775 111.821715 160.758401 107.707573 164.872542 
C 103.593432 168.986684 101.281807 174.56744 101.281807 180.385715 
C 101.281807 186.20399 103.593432 191.784747 107.707573 195.898889 
C 111.821715 200.01303 117.402472 202.324655 123.220747 202.324655 
z
" clip-path="url(#pd9b10c8489)" style="fill: #d62728; fill-opacity: 0.99; stroke: #d62728; stroke-opacity: 0.99"/>
    <path d="M 88.21599 281.888229 
C 93.973592 281.888229 99.496153 279.600709 103.567393 275.529469 
C 107.638632 271.45823 109.926152 265.935669 109.926152 260.178066 
C 109.926152 254.420464 107.638632 248.897903 103.567393 244.826663 
C 99.496153 240.755424 93.973592 238.467904 88.21599 238.467904 
C 82.458387 238.467904 76.935826 240.755424 72.864587 244.826663 
C 68.793347 248.897903 66.505827 254.420464 66.505827 260.178066 
C 66.505827 265.935669 68.793347 271.45823 72.864587 275.529469 
C 76.935826 279.600709 82.458387 281.888229 88.21599 281.888229 
z
" clip-path="url(#pd9b10c8489)" style="fill: #d62728; fill-opacity: 0.99; stroke: #d62728; stroke-opacity: 0.99"/>
    <path d="M 88.216002 368.663192 
C 93.822803 368.663192 99.200718 366.435586 103.165325 362.470979 
C 107.129932 358.506372 109.357538 353.128457 109.357538 347.521656 
C 109.357538 341.914855 107.129932 336.536939 103.165325 332.572333 
C 99.200718 328.607726 93.822803 326.38012 88.216002 326.38012 
C 82.609201 326.38012 77.231285 328.607726 73.266679 332.572333 
C 69.302072 336.536939 67.074466 341.914855 67.074466 347.521656 
C 67.074466 353.128457 69.302072 358.506372 73.266679 362.470979 
C 77.231285 366.435586 82.609201 368.663192 88.216002 368.663192 
z
" clip-path="url(#pd9b10c8489)" style="fill: #d62728; fill-opacity: 0.99; stroke: #d62728; stroke-opacity: 0.99"/>
    <path d="M 123.220759 448.448523 
C 128.825705 448.448523 134.201841 446.221655 138.165136 442.258359 
C 142.128432 438.295064 144.3553 432.918928 144.3553 427.313982 
C 144.3553 421.709036 142.128432 416.3329 138.165136 412.369605 
C 134.201841 408.406309 128.825705 406.179441 123.220759 406.179441 
C 117.615813 406.179441 112.239677 408.406309 108.276381 412.369605 
C 104.313086 416.3329 102.086218 421.709036 102.086218 427.313982 
C 102.086218 432.918928 104.313086 438.295064 108.276381 442.258359 
C 112.239677 446.221655 117.615813 448.448523 123.220759 448.448523 
z
" clip-path="url(#pd9b10c8489)" style="fill: #d62728; fill-opacity: 0.99; stroke: #d62728; stroke-opacity: 0.99"/>
    <path d="M 187.177634 506.826962 
C 192.765122 506.826962 198.124514 504.60703 202.075465 500.656079 
C 206.026417 496.705127 208.246349 491.345736 208.246349 485.758247 
C 208.246349 480.170758 206.026417 474.811366 202.075465 470.860415 
C 198.124514 466.909464 192.765122 464.689531 187.177634 464.689531 
C 181.590145 464.689531 176.230753 466.909464 172.279802 470.860415 
C 168.328851 474.811366 166.108918 480.170758 166.108918 485.758247 
C 166.108918 491.345736 168.328851 496.705127 172.279802 500.656079 
C 176.230753 504.60703 181.590145 506.826962 187.177634 506.826962 
z
" clip-path="url(#pd9b10c8489)" style="fill: #d62728; fill-opacity: 0.99; stroke: #d62728; stroke-opacity: 0.99"/>
    <path d="M 269.0279 532.983703 
C 274.394234 532.983703 279.541499 530.851636 283.336071 527.057065 
C 287.130642 523.262494 289.262709 518.115228 289.262709 512.748894 
C 289.262709 507.38256 287.130642 502.235295 283.336071 498.440724 
C 279.541499 494.646152 274.394234 492.514085 269.0279 492.514085 
C 263.661566 492.514085 258.514301 494.646152 254.719729 498.440724 
C 250.925158 502.235295 248.793091 507.38256 248.793091 512.748894 
C 248.793091 518.115228 250.925158 523.262494 254.719729 527.057065 
C 258.514301 530.851636 263.661566 532.983703 269.0279 532.983703 
z
" clip-path="url(#pd9b10c8489)" style="fill: #d62728; fill-opacity: 0.99; stroke: #d62728; stroke-opacity: 0.99"/>
    <path d="M 354.618893 523.698843 
C 359.944132 523.698843 365.05198 521.583103 368.817492 517.81759 
C 372.583005 514.052078 374.698744 508.94423 374.698744 503.618992 
C 374.698744 498.293753 372.583005 493.185905 368.817492 489.420393 
C 365.05198 485.65488 359.944132 483.53914 354.618893 483.53914 
C 349.293655 483.53914 344.185807 485.65488 340.420294 489.420393 
C 336.654782 493.185905 334.539042 498.293753 334.539042 503.618992 
C 334.539042 508.94423 336.654782 514.052078 340.420294 517.81759 
C 344.185807 521.583103 349.293655 523.698843 354.618893 523.698843 
z
" clip-path="url(#pd9b10c8489)" style="fill: #d62728; fill-opacity: 0.99; stroke: #d62728; stroke-opacity: 0.99"/>
    <path d="M 429.151166 479.764222 
C 434.406708 479.764222 439.447703 477.676173 443.163932 473.959944 
C 446.880161 470.243715 448.96821 465.202719 448.96821 459.947178 
C 448.96821 454.691637 446.880161 449.650641 443.163932 445.934412 
C 439.447703 442.218183 434.406708 440.130134 429.151166 440.130134 
C 423.895625 440.130134 418.854629 442.218183 415.1384 445.934412 
C 411.422171 449.650641 409.334122 454.691637 409.334122 459.947178 
C 409.334122 465.202719 411.422171 470.243715 415.1384 473.959944 
C 418.854629 477.676173 423.895625 479.764222 429.151166 479.764222 
z
" clip-path="url(#pd9b10c8489)" style="fill: #d62728; fill-opacity: 0.99; stroke: #d62728; stroke-opacity: 0.99"/>
    <path d="M 479.737398 408.649646 
C 484.873034 408.649646 489.799019 406.609237 493.430462 402.977794 
C 497.061905 399.346351 499.102315 394.420366 499.102315 389.28473 
C 499.102315 384.149094 497.061905 379.223109 493.430462 375.591666 
C 489.799019 371.960223 484.873034 369.919813 479.737398 369.919813 
C 474.601762 369.919813 469.675777 371.960223 466.044334 375.591666 
C 462.412891 379.223109 460.372481 384.149094 460.372481 389.28473 
C 460.372481 394.420366 462.412891 399.346351 466.044334 402.977794 
C 469.675777 406.609237 474.601762 408.649646 479.737398 408.649646 
z
" clip-path="url(#pd9b10c8489)" style="fill: #d62728; fill-opacity: 0.99; stroke: #d62728; stroke-opacity: 0.99"/>
   </g>
   <g id="text_1">
    <g id="patch_2">
     <path d="M 462.672097 312.164999 
L 532.589441 312.164999 
L 532.589441 295.534686 
L 462.672097 295.534686 
z
" clip-path="url(#pd9b10c8489)" style="fill: #ffffff; opacity: 0.7; stroke: #000000; stroke-linejoin: miter"/>
    </g>
    <g clip-path="url(#pd9b10c8489)">
     <!-- Danny DeVito -->
     <g transform="translate(466.632097 306.33328)scale(0.09 -0.09)">
      <defs>
       <path id="DejaVuSans-44" d="M 1259 4147 
L 1259 519 
L 2022 519 
Q 2988 519 3436 956 
Q 3884 1394 3884 2338 
Q 3884 3275 3436 3711 
Q 2988 4147 2022 4147 
L 1259 4147 
z
M 628 4666 
L 1925 4666 
Q 3281 4666 3915 4102 
Q 4550 3538 4550 2338 
Q 4550 1131 3912 565 
Q 3275 0 1925 0 
L 628 0 
L 628 4666 
z
" transform="scale(0.015625)"/>
       <path id="DejaVuSans-61" d="M 2194 1759 
Q 1497 1759 1228 1600 
Q 959 1441 959 1056 
Q 959 750 1161 570 
Q 1363 391 1709 391 
Q 2188 391 2477 730 
Q 2766 1069 2766 1631 
L 2766 1759 
L 2194 1759 
z
M 3341 1997 
L 3341 0 
L 2766 0 
L 2766 531 
Q 2569 213 2275 61 
Q 1981 -91 1556 -91 
Q 1019 -91 701 211 
Q 384 513 384 1019 
Q 384 1609 779 1909 
Q 1175 2209 1959 2209 
L 2766 2209 
L 2766 2266 
Q 2766 2663 2505 2880 
Q 2244 3097 1772 3097 
Q 1472 3097 1187 3025 
Q 903 2953 641 2809 
L 641 3341 
Q 956 3463 1253 3523 
Q 1550 3584 1831 3584 
Q 2591 3584 2966 3190 
Q 3341 2797 3341 1997 
z
" transform="scale(0.015625)"/>
       <path id="DejaVuSans-6e" d="M 3513 2113 
L 3513 0 
L 2938 0 
L 2938 2094 
Q 2938 2591 2744 2837 
Q 2550 3084 2163 3084 
Q 1697 3084 1428 2787 
Q 1159 2491 1159 1978 
L 1159 0 
L 581 0 
L 581 3500 
L 1159 3500 
L 1159 2956 
Q 1366 3272 1645 3428 
Q 1925 3584 2291 3584 
Q 2894 3584 3203 3211 
Q 3513 2838 3513 2113 
z
" transform="scale(0.015625)"/>
       <path id="DejaVuSans-79" d="M 2059 -325 
Q 1816 -950 1584 -1140 
Q 1353 -1331 966 -1331 
L 506 -1331 
L 506 -850 
L 844 -850 
Q 1081 -850 1212 -737 
Q 1344 -625 1503 -206 
L 1606 56 
L 191 3500 
L 800 3500 
L 1894 763 
L 2988 3500 
L 3597 3500 
L 2059 -325 
z
" transform="scale(0.015625)"/>
       <path id="DejaVuSans-20" transform="scale(0.015625)"/>
       <path id="DejaVuSans-65" d="M 3597 1894 
L 3597 1613 
L 953 1613 
Q 991 1019 1311 708 
Q 1631 397 2203 397 
Q 2534 397 2845 478 
Q 3156 559 3463 722 
L 3463 178 
Q 3153 47 2828 -22 
Q 2503 -91 2169 -91 
Q 1331 -91 842 396 
Q 353 884 353 1716 
Q 353 2575 817 3079 
Q 1281 3584 2069 3584 
Q 2775 3584 3186 3129 
Q 3597 2675 3597 1894 
z
M 3022 2063 
Q 3016 2534 2758 2815 
Q 2500 3097 2075 3097 
Q 1594 3097 1305 2825 
Q 1016 2553 972 2059 
L 3022 2063 
z
" transform="scale(0.015625)"/>
       <path id="DejaVuSans-56" d="M 1831 0 
L 50 4666 
L 709 4666 
L 2188 738 
L 3669 4666 
L 4325 4666 
L 2547 0 
L 1831 0 
z
" transform="scale(0.015625)"/>
       <path id="DejaVuSans-69" d="M 603 3500 
L 1178 3500 
L 1178 0 
L 603 0 
L 603 3500 
z
M 603 4863 
L 1178 4863 
L 1178 4134 
L 603 4134 
L 603 4863 
z
" transform="scale(0.015625)"/>
       <path id="DejaVuSans-74" d="M 1172 4494 
L 1172 3500 
L 2356 3500 
L 2356 3053 
L 1172 3053 
L 1172 1153 
Q 1172 725 1289 603 
Q 1406 481 1766 481 
L 2356 481 
L 2356 0 
L 1766 0 
Q 1100 0 847 248 
Q 594 497 594 1153 
L 594 3053 
L 172 3053 
L 172 3500 
L 594 3500 
L 594 4494 
L 1172 4494 
z
" transform="scale(0.015625)"/>
       <path id="DejaVuSans-6f" d="M 1959 3097 
Q 1497 3097 1228 2736 
Q 959 2375 959 1747 
Q 959 1119 1226 758 
Q 1494 397 1959 397 
Q 2419 397 2687 759 
Q 2956 1122 2956 1747 
Q 2956 2369 2687 2733 
Q 2419 3097 1959 3097 
z
M 1959 3584 
Q 2709 3584 3137 3096 
Q 3566 2609 3566 1747 
Q 3566 888 3137 398 
Q 2709 -91 1959 -91 
Q 1206 -91 779 398 
Q 353 888 353 1747 
Q 353 2609 779 3096 
Q 1206 3584 1959 3584 
z
" transform="scale(0.015625)"/>
      </defs>
      <use xlink:href="#DejaVuSans-44"/>
      <use xlink:href="#DejaVuSans-61" x="77.001953"/>
      <use xlink:href="#DejaVuSans-6e" x="138.28125"/>
      <use xlink:href="#DejaVuSans-6e" x="201.660156"/>
      <use xlink:href="#DejaVuSans-79" x="265.039062"/>
      <use xlink:href="#DejaVuSans-20" x="324.21875"/>
      <use xlink:href="#DejaVuSans-44" x="356.005859"/>
      <use xlink:href="#DejaVuSans-65" x="433.007812"/>
      <use xlink:href="#DejaVuSans-56" x="494.53125"/>
      <use xlink:href="#DejaVuSans-69" x="560.689453"/>
      <use xlink:href="#DejaVuSans-74" x="588.472656"/>
      <use xlink:href="#DejaVuSans-6f" x="627.681641"/>
     </g>
    </g>
   </g>
   <g id="text_2">
    <g id="patch_3">
     <path d="M 435.16417 226.73008 
L 524.310576 226.73008 
L 524.310576 210.099768 
L 435.16417 210.099768 
z
" clip-path="url(#pd9b10c8489)" style="fill: #ffffff; opacity: 0.7; stroke: #000000; stroke-linejoin: miter"/>
    </g>
    <g clip-path="url(#pd9b10c8489)">
     <!-- Sylvester Stallone -->
     <g transform="translate(439.12417 220.898361)scale(0.09 -0.09)">
      <defs>
       <path id="DejaVuSans-53" d="M 3425 4513 
L 3425 3897 
Q 3066 4069 2747 4153 
Q 2428 4238 2131 4238 
Q 1616 4238 1336 4038 
Q 1056 3838 1056 3469 
Q 1056 3159 1242 3001 
Q 1428 2844 1947 2747 
L 2328 2669 
Q 3034 2534 3370 2195 
Q 3706 1856 3706 1288 
Q 3706 609 3251 259 
Q 2797 -91 1919 -91 
Q 1588 -91 1214 -16 
Q 841 59 441 206 
L 441 856 
Q 825 641 1194 531 
Q 1563 422 1919 422 
Q 2459 422 2753 634 
Q 3047 847 3047 1241 
Q 3047 1584 2836 1778 
Q 2625 1972 2144 2069 
L 1759 2144 
Q 1053 2284 737 2584 
Q 422 2884 422 3419 
Q 422 4038 858 4394 
Q 1294 4750 2059 4750 
Q 2388 4750 2728 4690 
Q 3069 4631 3425 4513 
z
" transform="scale(0.015625)"/>
       <path id="DejaVuSans-6c" d="M 603 4863 
L 1178 4863 
L 1178 0 
L 603 0 
L 603 4863 
z
" transform="scale(0.015625)"/>
       <path id="DejaVuSans-76" d="M 191 3500 
L 800 3500 
L 1894 563 
L 2988 3500 
L 3597 3500 
L 2284 0 
L 1503 0 
L 191 3500 
z
" transform="scale(0.015625)"/>
       <path id="DejaVuSans-73" d="M 2834 3397 
L 2834 2853 
Q 2591 2978 2328 3040 
Q 2066 3103 1784 3103 
Q 1356 3103 1142 2972 
Q 928 2841 928 2578 
Q 928 2378 1081 2264 
Q 1234 2150 1697 2047 
L 1894 2003 
Q 2506 1872 2764 1633 
Q 3022 1394 3022 966 
Q 3022 478 2636 193 
Q 2250 -91 1575 -91 
Q 1294 -91 989 -36 
Q 684 19 347 128 
L 347 722 
Q 666 556 975 473 
Q 1284 391 1588 391 
Q 1994 391 2212 530 
Q 2431 669 2431 922 
Q 2431 1156 2273 1281 
Q 2116 1406 1581 1522 
L 1381 1569 
Q 847 1681 609 1914 
Q 372 2147 372 2553 
Q 372 3047 722 3315 
Q 1072 3584 1716 3584 
Q 2034 3584 2315 3537 
Q 2597 3491 2834 3397 
z
" transform="scale(0.015625)"/>
       <path id="DejaVuSans-72" d="M 2631 2963 
Q 2534 3019 2420 3045 
Q 2306 3072 2169 3072 
Q 1681 3072 1420 2755 
Q 1159 2438 1159 1844 
L 1159 0 
L 581 0 
L 581 3500 
L 1159 3500 
L 1159 2956 
Q 1341 3275 1631 3429 
Q 1922 3584 2338 3584 
Q 2397 3584 2469 3576 
Q 2541 3569 2628 3553 
L 2631 2963 
z
" transform="scale(0.015625)"/>
      </defs>
      <use xlink:href="#DejaVuSans-53"/>
      <use xlink:href="#DejaVuSans-79" x="63.476562"/>
      <use xlink:href="#DejaVuSans-6c" x="122.65625"/>
      <use xlink:href="#DejaVuSans-76" x="150.439453"/>
      <use xlink:href="#DejaVuSans-65" x="209.619141"/>
      <use xlink:href="#DejaVuSans-73" x="271.142578"/>
      <use xlink:href="#DejaVuSans-74" x="323.242188"/>
      <use xlink:href="#DejaVuSans-65" x="362.451172"/>
      <use xlink:href="#DejaVuSans-72" x="423.974609"/>
      <use xlink:href="#DejaVuSans-20" x="465.087891"/>
      <use xlink:href="#DejaVuSans-53" x="496.875"/>
      <use xlink:href="#DejaVuSans-74" x="560.351562"/>
      <use xlink:href="#DejaVuSans-61" x="599.560547"/>
      <use xlink:href="#DejaVuSans-6c" x="660.839844"/>
      <use xlink:href="#DejaVuSans-6c" x="688.623047"/>
      <use xlink:href="#DejaVuSans-6f" x="716.40625"/>
      <use xlink:href="#DejaVuSans-6e" x="777.587891"/>
      <use xlink:href="#DejaVuSans-65" x="840.966797"/>
     </g>
    </g>
   </g>
   <g id="text_3">
    <g id="patch_4">
     <path d="M 392.060582 156.067625 
L 466.241676 156.067625 
L 466.241676 139.437313 
L 392.060582 139.437313 
z
" clip-path="url(#pd9b10c8489)" style="fill: #ffffff; opacity: 0.7; stroke: #000000; stroke-linejoin: miter"/>
    </g>
    <g clip-path="url(#pd9b10c8489)">
     <!-- Robert De Niro -->
     <g transform="translate(396.020582 150.235907)scale(0.09 -0.09)">
      <defs>
       <path id="DejaVuSans-52" d="M 2841 2188 
Q 3044 2119 3236 1894 
Q 3428 1669 3622 1275 
L 4263 0 
L 3584 0 
L 2988 1197 
Q 2756 1666 2539 1819 
Q 2322 1972 1947 1972 
L 1259 1972 
L 1259 0 
L 628 0 
L 628 4666 
L 2053 4666 
Q 2853 4666 3247 4331 
Q 3641 3997 3641 3322 
Q 3641 2881 3436 2590 
Q 3231 2300 2841 2188 
z
M 1259 4147 
L 1259 2491 
L 2053 2491 
Q 2509 2491 2742 2702 
Q 2975 2913 2975 3322 
Q 2975 3731 2742 3939 
Q 2509 4147 2053 4147 
L 1259 4147 
z
" transform="scale(0.015625)"/>
       <path id="DejaVuSans-62" d="M 3116 1747 
Q 3116 2381 2855 2742 
Q 2594 3103 2138 3103 
Q 1681 3103 1420 2742 
Q 1159 2381 1159 1747 
Q 1159 1113 1420 752 
Q 1681 391 2138 391 
Q 2594 391 2855 752 
Q 3116 1113 3116 1747 
z
M 1159 2969 
Q 1341 3281 1617 3432 
Q 1894 3584 2278 3584 
Q 2916 3584 3314 3078 
Q 3713 2572 3713 1747 
Q 3713 922 3314 415 
Q 2916 -91 2278 -91 
Q 1894 -91 1617 61 
Q 1341 213 1159 525 
L 1159 0 
L 581 0 
L 581 4863 
L 1159 4863 
L 1159 2969 
z
" transform="scale(0.015625)"/>
       <path id="DejaVuSans-4e" d="M 628 4666 
L 1478 4666 
L 3547 763 
L 3547 4666 
L 4159 4666 
L 4159 0 
L 3309 0 
L 1241 3903 
L 1241 0 
L 628 0 
L 628 4666 
z
" transform="scale(0.015625)"/>
      </defs>
      <use xlink:href="#DejaVuSans-52"/>
      <use xlink:href="#DejaVuSans-6f" x="64.982422"/>
      <use xlink:href="#DejaVuSans-62" x="126.164062"/>
      <use xlink:href="#DejaVuSans-65" x="189.640625"/>
      <use xlink:href="#DejaVuSans-72" x="251.164062"/>
      <use xlink:href="#DejaVuSans-74" x="292.277344"/>
      <use xlink:href="#DejaVuSans-20" x="331.486328"/>
      <use xlink:href="#DejaVuSans-44" x="363.273438"/>
      <use xlink:href="#DejaVuSans-65" x="440.275391"/>
      <use xlink:href="#DejaVuSans-20" x="501.798828"/>
      <use xlink:href="#DejaVuSans-4e" x="533.585938"/>
      <use xlink:href="#DejaVuSans-69" x="608.390625"/>
      <use xlink:href="#DejaVuSans-72" x="636.173828"/>
      <use xlink:href="#DejaVuSans-6f" x="675.037109"/>
     </g>
    </g>
   </g>
   <g id="text_4">
    <g id="patch_5">
     <path d="M 317.967769 112.395837 
L 391.269956 112.395837 
L 391.269956 95.765524 
L 317.967769 95.765524 
z
" clip-path="url(#pd9b10c8489)" style="fill: #ffffff; opacity: 0.7; stroke: #000000; stroke-linejoin: miter"/>
    </g>
    <g clip-path="url(#pd9b10c8489)">
     <!-- Warwick Davis -->
     <g transform="translate(321.927769 106.564118)scale(0.09 -0.09)">
      <defs>
       <path id="DejaVuSans-57" d="M 213 4666 
L 850 4666 
L 1831 722 
L 2809 4666 
L 3519 4666 
L 4500 722 
L 5478 4666 
L 6119 4666 
L 4947 0 
L 4153 0 
L 3169 4050 
L 2175 0 
L 1381 0 
L 213 4666 
z
" transform="scale(0.015625)"/>
       <path id="DejaVuSans-77" d="M 269 3500 
L 844 3500 
L 1563 769 
L 2278 3500 
L 2956 3500 
L 3675 769 
L 4391 3500 
L 4966 3500 
L 4050 0 
L 3372 0 
L 2619 2869 
L 1863 0 
L 1184 0 
L 269 3500 
z
" transform="scale(0.015625)"/>
       <path id="DejaVuSans-63" d="M 3122 3366 
L 3122 2828 
Q 2878 2963 2633 3030 
Q 2388 3097 2138 3097 
Q 1578 3097 1268 2742 
Q 959 2388 959 1747 
Q 959 1106 1268 751 
Q 1578 397 2138 397 
Q 2388 397 2633 464 
Q 2878 531 3122 666 
L 3122 134 
Q 2881 22 2623 -34 
Q 2366 -91 2075 -91 
Q 1284 -91 818 406 
Q 353 903 353 1747 
Q 353 2603 823 3093 
Q 1294 3584 2113 3584 
Q 2378 3584 2631 3529 
Q 2884 3475 3122 3366 
z
" transform="scale(0.015625)"/>
       <path id="DejaVuSans-6b" d="M 581 4863 
L 1159 4863 
L 1159 1991 
L 2875 3500 
L 3609 3500 
L 1753 1863 
L 3688 0 
L 2938 0 
L 1159 1709 
L 1159 0 
L 581 0 
L 581 4863 
z
" transform="scale(0.015625)"/>
      </defs>
      <use xlink:href="#DejaVuSans-57"/>
      <use xlink:href="#DejaVuSans-61" x="92.501953"/>
      <use xlink:href="#DejaVuSans-72" x="153.78125"/>
      <use xlink:href="#DejaVuSans-77" x="194.894531"/>
      <use xlink:href="#DejaVuSans-69" x="276.681641"/>
      <use xlink:href="#DejaVuSans-63" x="304.464844"/>
      <use xlink:href="#DejaVuSans-6b" x="359.445312"/>
      <use xlink:href="#DejaVuSans-20" x="417.355469"/>
      <use xlink:href="#DejaVuSans-44" x="449.142578"/>
      <use xlink:href="#DejaVuSans-61" x="526.144531"/>
      <use xlink:href="#DejaVuSans-76" x="587.423828"/>
      <use xlink:href="#DejaVuSans-69" x="646.603516"/>
      <use xlink:href="#DejaVuSans-73" x="674.386719"/>
     </g>
    </g>
   </g>
   <g id="text_5">
    <g id="patch_6">
     <path d="M 235.606222 103.265947 
L 302.449504 103.265947 
L 302.449504 86.635634 
L 235.606222 86.635634 
z
" clip-path="url(#pd9b10c8489)" style="fill: #ffffff; opacity: 0.7; stroke: #000000; stroke-linejoin: miter"/>
    </g>
    <g clip-path="url(#pd9b10c8489)">
     <!-- Stanley Tucci -->
     <g transform="translate(239.566222 97.434228)scale(0.09 -0.09)">
      <defs>
       <path id="DejaVuSans-54" d="M -19 4666 
L 3928 4666 
L 3928 4134 
L 2272 4134 
L 2272 0 
L 1638 0 
L 1638 4134 
L -19 4134 
L -19 4666 
z
" transform="scale(0.015625)"/>
       <path id="DejaVuSans-75" d="M 544 1381 
L 544 3500 
L 1119 3500 
L 1119 1403 
Q 1119 906 1312 657 
Q 1506 409 1894 409 
Q 2359 409 2629 706 
Q 2900 1003 2900 1516 
L 2900 3500 
L 3475 3500 
L 3475 0 
L 2900 0 
L 2900 538 
Q 2691 219 2414 64 
Q 2138 -91 1772 -91 
Q 1169 -91 856 284 
Q 544 659 544 1381 
z
M 1991 3584 
L 1991 3584 
z
" transform="scale(0.015625)"/>
      </defs>
      <use xlink:href="#DejaVuSans-53"/>
      <use xlink:href="#DejaVuSans-74" x="63.476562"/>
      <use xlink:href="#DejaVuSans-61" x="102.685547"/>
      <use xlink:href="#DejaVuSans-6e" x="163.964844"/>
      <use xlink:href="#DejaVuSans-6c" x="227.34375"/>
      <use xlink:href="#DejaVuSans-65" x="255.126953"/>
      <use xlink:href="#DejaVuSans-79" x="316.650391"/>
      <use xlink:href="#DejaVuSans-20" x="375.830078"/>
      <use xlink:href="#DejaVuSans-54" x="407.617188"/>
      <use xlink:href="#DejaVuSans-75" x="453.576172"/>
      <use xlink:href="#DejaVuSans-63" x="516.955078"/>
      <use xlink:href="#DejaVuSans-63" x="571.935547"/>
      <use xlink:href="#DejaVuSans-69" x="626.916016"/>
     </g>
    </g>
   </g>
   <g id="text_6">
    <g id="patch_7">
     <path d="M 144.945103 130.256607 
L 229.410103 130.256607 
L 229.410103 113.626294 
L 144.945103 113.626294 
z
" clip-path="url(#pd9b10c8489)" style="fill: #ffffff; opacity: 0.7; stroke: #000000; stroke-linejoin: miter"/>
    </g>
    <g clip-path="url(#pd9b10c8489)">
     <!-- Woody Harrelson -->
     <g transform="translate(148.905103 124.424888)scale(0.09 -0.09)">
      <defs>
       <path id="DejaVuSans-64" d="M 2906 2969 
L 2906 4863 
L 3481 4863 
L 3481 0 
L 2906 0 
L 2906 525 
Q 2725 213 2448 61 
Q 2172 -91 1784 -91 
Q 1150 -91 751 415 
Q 353 922 353 1747 
Q 353 2572 751 3078 
Q 1150 3584 1784 3584 
Q 2172 3584 2448 3432 
Q 2725 3281 2906 2969 
z
M 947 1747 
Q 947 1113 1208 752 
Q 1469 391 1925 391 
Q 2381 391 2643 752 
Q 2906 1113 2906 1747 
Q 2906 2381 2643 2742 
Q 2381 3103 1925 3103 
Q 1469 3103 1208 2742 
Q 947 2381 947 1747 
z
" transform="scale(0.015625)"/>
       <path id="DejaVuSans-48" d="M 628 4666 
L 1259 4666 
L 1259 2753 
L 3553 2753 
L 3553 4666 
L 4184 4666 
L 4184 0 
L 3553 0 
L 3553 2222 
L 1259 2222 
L 1259 0 
L 628 0 
L 628 4666 
z
" transform="scale(0.015625)"/>
      </defs>
      <use xlink:href="#DejaVuSans-57"/>
      <use xlink:href="#DejaVuSans-6f" x="93.001953"/>
      <use xlink:href="#DejaVuSans-6f" x="154.183594"/>
      <use xlink:href="#DejaVuSans-64" x="215.365234"/>
      <use xlink:href="#DejaVuSans-79" x="278.841797"/>
      <use xlink:href="#DejaVuSans-20" x="338.021484"/>
      <use xlink:href="#DejaVuSans-48" x="369.808594"/>
      <use xlink:href="#DejaVuSans-61" x="445.003906"/>
      <use xlink:href="#DejaVuSans-72" x="506.283203"/>
      <use xlink:href="#DejaVuSans-72" x="545.646484"/>
      <use xlink:href="#DejaVuSans-65" x="584.509766"/>
      <use xlink:href="#DejaVuSans-6c" x="646.033203"/>
      <use xlink:href="#DejaVuSans-73" x="673.816406"/>
      <use xlink:href="#DejaVuSans-6f" x="725.916016"/>
      <use xlink:href="#DejaVuSans-6e" x="787.097656"/>
     </g>
    </g>
   </g>
   <g id="text_7">
    <g id="patch_8">
     <path d="M 89.299887 188.700872 
L 157.141606 188.700872 
L 157.141606 172.070559 
L 89.299887 172.070559 
z
" clip-path="url(#pd9b10c8489)" style="fill: #ffffff; opacity: 0.7; stroke: #000000; stroke-linejoin: miter"/>
    </g>
    <g clip-path="url(#pd9b10c8489)">
     <!-- James Franco -->
     <g transform="translate(93.259887 182.869153)scale(0.09 -0.09)">
      <defs>
       <path id="DejaVuSans-4a" d="M 628 4666 
L 1259 4666 
L 1259 325 
Q 1259 -519 939 -900 
Q 619 -1281 -91 -1281 
L -331 -1281 
L -331 -750 
L -134 -750 
Q 284 -750 456 -515 
Q 628 -281 628 325 
L 628 4666 
z
" transform="scale(0.015625)"/>
       <path id="DejaVuSans-6d" d="M 3328 2828 
Q 3544 3216 3844 3400 
Q 4144 3584 4550 3584 
Q 5097 3584 5394 3201 
Q 5691 2819 5691 2113 
L 5691 0 
L 5113 0 
L 5113 2094 
Q 5113 2597 4934 2840 
Q 4756 3084 4391 3084 
Q 3944 3084 3684 2787 
Q 3425 2491 3425 1978 
L 3425 0 
L 2847 0 
L 2847 2094 
Q 2847 2600 2669 2842 
Q 2491 3084 2119 3084 
Q 1678 3084 1418 2786 
Q 1159 2488 1159 1978 
L 1159 0 
L 581 0 
L 581 3500 
L 1159 3500 
L 1159 2956 
Q 1356 3278 1631 3431 
Q 1906 3584 2284 3584 
Q 2666 3584 2933 3390 
Q 3200 3197 3328 2828 
z
" transform="scale(0.015625)"/>
       <path id="DejaVuSans-46" d="M 628 4666 
L 3309 4666 
L 3309 4134 
L 1259 4134 
L 1259 2759 
L 3109 2759 
L 3109 2228 
L 1259 2228 
L 1259 0 
L 628 0 
L 628 4666 
z
" transform="scale(0.015625)"/>
      </defs>
      <use xlink:href="#DejaVuSans-4a"/>
      <use xlink:href="#DejaVuSans-61" x="29.492188"/>
      <use xlink:href="#DejaVuSans-6d" x="90.771484"/>
      <use xlink:href="#DejaVuSans-65" x="188.183594"/>
      <use xlink:href="#DejaVuSans-73" x="249.707031"/>
      <use xlink:href="#DejaVuSans-20" x="301.806641"/>
      <use xlink:href="#DejaVuSans-46" x="333.59375"/>
      <use xlink:href="#DejaVuSans-72" x="383.863281"/>
      <use xlink:href="#DejaVuSans-61" x="424.976562"/>
      <use xlink:href="#DejaVuSans-6e" x="486.255859"/>
      <use xlink:href="#DejaVuSans-63" x="549.634766"/>
      <use xlink:href="#DejaVuSans-6f" x="604.615234"/>
     </g>
    </g>
   </g>
   <g id="text_8">
    <g id="patch_9">
     <path d="M 64.628958 268.493223 
L 111.803021 268.493223 
L 111.803021 251.86291 
L 64.628958 251.86291 
z
" clip-path="url(#pd9b10c8489)" style="fill: #ffffff; opacity: 0.7; stroke: #000000; stroke-linejoin: miter"/>
    </g>
    <g clip-path="url(#pd9b10c8489)">
     <!-- Stan Lee -->
     <g transform="translate(68.588958 262.661504)scale(0.09 -0.09)">
      <defs>
       <path id="DejaVuSans-4c" d="M 628 4666 
L 1259 4666 
L 1259 531 
L 3531 531 
L 3531 0 
L 628 0 
L 628 4666 
z
" transform="scale(0.015625)"/>
      </defs>
      <use xlink:href="#DejaVuSans-53"/>
      <use xlink:href="#DejaVuSans-74" x="63.476562"/>
      <use xlink:href="#DejaVuSans-61" x="102.685547"/>
      <use xlink:href="#DejaVuSans-6e" x="163.964844"/>
      <use xlink:href="#DejaVuSans-20" x="227.34375"/>
      <use xlink:href="#DejaVuSans-4c" x="259.130859"/>
      <use xlink:href="#DejaVuSans-65" x="313.09375"/>
      <use xlink:href="#DejaVuSans-65" x="374.617188"/>
     </g>
    </g>
   </g>
   <g id="text_9">
    <g id="patch_10">
     <path d="M 51.683033 355.836812 
L 124.748971 355.836812 
L 124.748971 339.2065 
L 51.683033 339.2065 
z
" clip-path="url(#pd9b10c8489)" style="fill: #ffffff; opacity: 0.7; stroke: #000000; stroke-linejoin: miter"/>
    </g>
    <g clip-path="url(#pd9b10c8489)">
     <!-- Tobey Maguire -->
     <g transform="translate(55.643033 350.005093)scale(0.09 -0.09)">
      <defs>
       <path id="DejaVuSans-4d" d="M 628 4666 
L 1569 4666 
L 2759 1491 
L 3956 4666 
L 4897 4666 
L 4897 0 
L 4281 0 
L 4281 4097 
L 3078 897 
L 2444 897 
L 1241 4097 
L 1241 0 
L 628 0 
L 628 4666 
z
" transform="scale(0.015625)"/>
       <path id="DejaVuSans-67" d="M 2906 1791 
Q 2906 2416 2648 2759 
Q 2391 3103 1925 3103 
Q 1463 3103 1205 2759 
Q 947 2416 947 1791 
Q 947 1169 1205 825 
Q 1463 481 1925 481 
Q 2391 481 2648 825 
Q 2906 1169 2906 1791 
z
M 3481 434 
Q 3481 -459 3084 -895 
Q 2688 -1331 1869 -1331 
Q 1566 -1331 1297 -1286 
Q 1028 -1241 775 -1147 
L 775 -588 
Q 1028 -725 1275 -790 
Q 1522 -856 1778 -856 
Q 2344 -856 2625 -561 
Q 2906 -266 2906 331 
L 2906 616 
Q 2728 306 2450 153 
Q 2172 0 1784 0 
Q 1141 0 747 490 
Q 353 981 353 1791 
Q 353 2603 747 3093 
Q 1141 3584 1784 3584 
Q 2172 3584 2450 3431 
Q 2728 3278 2906 2969 
L 2906 3500 
L 3481 3500 
L 3481 434 
z
" transform="scale(0.015625)"/>
      </defs>
      <use xlink:href="#DejaVuSans-54"/>
      <use xlink:href="#DejaVuSans-6f" x="44.083984"/>
      <use xlink:href="#DejaVuSans-62" x="105.265625"/>
      <use xlink:href="#DejaVuSans-65" x="168.742188"/>
      <use xlink:href="#DejaVuSans-79" x="230.265625"/>
      <use xlink:href="#DejaVuSans-20" x="289.445312"/>
      <use xlink:href="#DejaVuSans-4d" x="321.232422"/>
      <use xlink:href="#DejaVuSans-61" x="407.511719"/>
      <use xlink:href="#DejaVuSans-67" x="468.791016"/>
      <use xlink:href="#DejaVuSans-75" x="532.267578"/>
      <use xlink:href="#DejaVuSans-69" x="595.646484"/>
      <use xlink:href="#DejaVuSans-72" x="623.429688"/>
      <use xlink:href="#DejaVuSans-65" x="662.292969"/>
     </g>
    </g>
   </g>
   <g id="text_10">
    <g id="patch_11">
     <path d="M 85.848259 435.629138 
L 160.593259 435.629138 
L 160.593259 418.998826 
L 85.848259 418.998826 
z
" clip-path="url(#pd9b10c8489)" style="fill: #ffffff; opacity: 0.7; stroke: #000000; stroke-linejoin: miter"/>
    </g>
    <g clip-path="url(#pd9b10c8489)">
     <!-- Steve Buscemi -->
     <g transform="translate(89.808259 429.797419)scale(0.09 -0.09)">
      <defs>
       <path id="DejaVuSans-42" d="M 1259 2228 
L 1259 519 
L 2272 519 
Q 2781 519 3026 730 
Q 3272 941 3272 1375 
Q 3272 1813 3026 2020 
Q 2781 2228 2272 2228 
L 1259 2228 
z
M 1259 4147 
L 1259 2741 
L 2194 2741 
Q 2656 2741 2882 2914 
Q 3109 3088 3109 3444 
Q 3109 3797 2882 3972 
Q 2656 4147 2194 4147 
L 1259 4147 
z
M 628 4666 
L 2241 4666 
Q 2963 4666 3353 4366 
Q 3744 4066 3744 3513 
Q 3744 3084 3544 2831 
Q 3344 2578 2956 2516 
Q 3422 2416 3680 2098 
Q 3938 1781 3938 1306 
Q 3938 681 3513 340 
Q 3088 0 2303 0 
L 628 0 
L 628 4666 
z
" transform="scale(0.015625)"/>
      </defs>
      <use xlink:href="#DejaVuSans-53"/>
      <use xlink:href="#DejaVuSans-74" x="63.476562"/>
      <use xlink:href="#DejaVuSans-65" x="102.685547"/>
      <use xlink:href="#DejaVuSans-76" x="164.208984"/>
      <use xlink:href="#DejaVuSans-65" x="223.388672"/>
      <use xlink:href="#DejaVuSans-20" x="284.912109"/>
      <use xlink:href="#DejaVuSans-42" x="316.699219"/>
      <use xlink:href="#DejaVuSans-75" x="385.302734"/>
      <use xlink:href="#DejaVuSans-73" x="448.681641"/>
      <use xlink:href="#DejaVuSans-63" x="500.78125"/>
      <use xlink:href="#DejaVuSans-65" x="555.761719"/>
      <use xlink:href="#DejaVuSans-6d" x="617.285156"/>
      <use xlink:href="#DejaVuSans-69" x="714.697266"/>
     </g>
    </g>
   </g>
   <g id="text_11">
    <g id="patch_12">
     <path d="M 141.192556 494.073403 
L 233.162712 494.073403 
L 233.162712 477.443091 
L 141.192556 477.443091 
z
" clip-path="url(#pd9b10c8489)" style="fill: #ffffff; opacity: 0.7; stroke: #000000; stroke-linejoin: miter"/>
    </g>
    <g clip-path="url(#pd9b10c8489)">
     <!-- Donald Sutherland -->
     <g transform="translate(145.152556 488.241684)scale(0.09 -0.09)">
      <defs>
       <path id="DejaVuSans-68" d="M 3513 2113 
L 3513 0 
L 2938 0 
L 2938 2094 
Q 2938 2591 2744 2837 
Q 2550 3084 2163 3084 
Q 1697 3084 1428 2787 
Q 1159 2491 1159 1978 
L 1159 0 
L 581 0 
L 581 4863 
L 1159 4863 
L 1159 2956 
Q 1366 3272 1645 3428 
Q 1925 3584 2291 3584 
Q 2894 3584 3203 3211 
Q 3513 2838 3513 2113 
z
" transform="scale(0.015625)"/>
      </defs>
      <use xlink:href="#DejaVuSans-44"/>
      <use xlink:href="#DejaVuSans-6f" x="77.001953"/>
      <use xlink:href="#DejaVuSans-6e" x="138.183594"/>
      <use xlink:href="#DejaVuSans-61" x="201.5625"/>
      <use xlink:href="#DejaVuSans-6c" x="262.841797"/>
      <use xlink:href="#DejaVuSans-64" x="290.625"/>
      <use xlink:href="#DejaVuSans-20" x="354.101562"/>
      <use xlink:href="#DejaVuSans-53" x="385.888672"/>
      <use xlink:href="#DejaVuSans-75" x="449.365234"/>
      <use xlink:href="#DejaVuSans-74" x="512.744141"/>
      <use xlink:href="#DejaVuSans-68" x="551.953125"/>
      <use xlink:href="#DejaVuSans-65" x="615.332031"/>
      <use xlink:href="#DejaVuSans-72" x="676.855469"/>
      <use xlink:href="#DejaVuSans-6c" x="717.96875"/>
      <use xlink:href="#DejaVuSans-61" x="745.751953"/>
      <use xlink:href="#DejaVuSans-6e" x="807.03125"/>
      <use xlink:href="#DejaVuSans-64" x="870.410156"/>
     </g>
    </g>
   </g>
   <g id="text_12">
    <g id="patch_13">
     <path d="M 237.2579 521.06405 
L 300.7979 521.06405 
L 300.7979 504.433738 
L 237.2579 504.433738 
z
" clip-path="url(#pd9b10c8489)" style="fill: #ffffff; opacity: 0.7; stroke: #000000; stroke-linejoin: miter"/>
    </g>
    <g clip-path="url(#pd9b10c8489)">
     <!-- Matt Damon -->
     <g transform="translate(241.2179 515.232332)scale(0.09 -0.09)">
      <use xlink:href="#DejaVuSans-4d"/>
      <use xlink:href="#DejaVuSans-61" x="86.279297"/>
      <use xlink:href="#DejaVuSans-74" x="147.558594"/>
      <use xlink:href="#DejaVuSans-74" x="186.767578"/>
      <use xlink:href="#DejaVuSans-20" x="225.976562"/>
      <use xlink:href="#DejaVuSans-44" x="257.763672"/>
      <use xlink:href="#DejaVuSans-61" x="334.765625"/>
      <use xlink:href="#DejaVuSans-6d" x="396.044922"/>
      <use xlink:href="#DejaVuSans-6f" x="493.457031"/>
      <use xlink:href="#DejaVuSans-6e" x="554.638672"/>
     </g>
    </g>
   </g>
   <g id="text_13">
    <g id="patch_14">
     <path d="M 325.901159 511.934148 
L 383.336628 511.934148 
L 383.336628 495.303835 
L 325.901159 495.303835 
z
" clip-path="url(#pd9b10c8489)" style="fill: #ffffff; opacity: 0.7; stroke: #000000; stroke-linejoin: miter"/>
    </g>
    <g clip-path="url(#pd9b10c8489)">
     <!-- Tom Cruise -->
     <g transform="translate(329.861159 506.102429)scale(0.09 -0.09)">
      <defs>
       <path id="DejaVuSans-43" d="M 4122 4306 
L 4122 3641 
Q 3803 3938 3442 4084 
Q 3081 4231 2675 4231 
Q 1875 4231 1450 3742 
Q 1025 3253 1025 2328 
Q 1025 1406 1450 917 
Q 1875 428 2675 428 
Q 3081 428 3442 575 
Q 3803 722 4122 1019 
L 4122 359 
Q 3791 134 3420 21 
Q 3050 -91 2638 -91 
Q 1578 -91 968 557 
Q 359 1206 359 2328 
Q 359 3453 968 4101 
Q 1578 4750 2638 4750 
Q 3056 4750 3426 4639 
Q 3797 4528 4122 4306 
z
" transform="scale(0.015625)"/>
      </defs>
      <use xlink:href="#DejaVuSans-54"/>
      <use xlink:href="#DejaVuSans-6f" x="44.083984"/>
      <use xlink:href="#DejaVuSans-6d" x="105.265625"/>
      <use xlink:href="#DejaVuSans-20" x="202.677734"/>
      <use xlink:href="#DejaVuSans-43" x="234.464844"/>
      <use xlink:href="#DejaVuSans-72" x="304.289062"/>
      <use xlink:href="#DejaVuSans-75" x="345.402344"/>
      <use xlink:href="#DejaVuSans-69" x="408.78125"/>
      <use xlink:href="#DejaVuSans-73" x="436.564453"/>
      <use xlink:href="#DejaVuSans-65" x="488.664062"/>
     </g>
    </g>
   </g>
   <g id="text_14">
    <g id="patch_15">
     <path d="M 393.873979 468.262334 
L 464.428354 468.262334 
L 464.428354 451.632022 
L 393.873979 451.632022 
z
" clip-path="url(#pd9b10c8489)" style="fill: #ffffff; opacity: 0.7; stroke: #000000; stroke-linejoin: miter"/>
    </g>
    <g clip-path="url(#pd9b10c8489)">
     <!-- David Thewlis -->
     <g transform="translate(397.833979 462.430616)scale(0.09 -0.09)">
      <use xlink:href="#DejaVuSans-44"/>
      <use xlink:href="#DejaVuSans-61" x="77.001953"/>
      <use xlink:href="#DejaVuSans-76" x="138.28125"/>
      <use xlink:href="#DejaVuSans-69" x="197.460938"/>
      <use xlink:href="#DejaVuSans-64" x="225.244141"/>
      <use xlink:href="#DejaVuSans-20" x="288.720703"/>
      <use xlink:href="#DejaVuSans-54" x="320.507812"/>
      <use xlink:href="#DejaVuSans-68" x="381.591797"/>
      <use xlink:href="#DejaVuSans-65" x="444.970703"/>
      <use xlink:href="#DejaVuSans-77" x="506.494141"/>
      <use xlink:href="#DejaVuSans-6c" x="588.28125"/>
      <use xlink:href="#DejaVuSans-69" x="616.064453"/>
      <use xlink:href="#DejaVuSans-73" x="643.847656"/>
     </g>
    </g>
   </g>
   <g id="text_15">
    <g id="patch_16">
     <path d="M 443.285992 397.599886 
L 516.188804 397.599886 
L 516.188804 380.969573 
L 443.285992 380.969573 
z
" clip-path="url(#pd9b10c8489)" style="fill: #ffffff; opacity: 0.7; stroke: #000000; stroke-linejoin: miter"/>
    </g>
    <g clip-path="url(#pd9b10c8489)">
     <!-- Jack Nicholson -->
     <g transform="translate(447.245992 391.768167)scale(0.09 -0.09)">
      <use xlink:href="#DejaVuSans-4a"/>
      <use xlink:href="#DejaVuSans-61" x="29.492188"/>
      <use xlink:href="#DejaVuSans-63" x="90.771484"/>
      <use xlink:href="#DejaVuSans-6b" x="145.751953"/>
      <use xlink:href="#DejaVuSans-20" x="203.662109"/>
      <use xlink:href="#DejaVuSans-4e" x="235.449219"/>
      <use xlink:href="#DejaVuSans-69" x="310.253906"/>
      <use xlink:href="#DejaVuSans-63" x="338.037109"/>
      <use xlink:href="#DejaVuSans-68" x="393.017578"/>
      <use xlink:href="#DejaVuSans-6f" x="456.396484"/>
      <use xlink:href="#DejaVuSans-6c" x="517.578125"/>
      <use xlink:href="#DejaVuSans-73" x="545.361328"/>
      <use xlink:href="#DejaVuSans-6f" x="597.460938"/>
      <use xlink:href="#DejaVuSans-6e" x="658.642578"/>
     </g>
    </g>
   </g>
   <g id="text_16">
    <!-- Impactful actors for Adventure genre -->
    <g transform="translate(173.23875 16.318125)scale(0.12 -0.12)">
     <defs>
      <path id="DejaVuSans-49" d="M 628 4666 
L 1259 4666 
L 1259 0 
L 628 0 
L 628 4666 
z
" transform="scale(0.015625)"/>
      <path id="DejaVuSans-70" d="M 1159 525 
L 1159 -1331 
L 581 -1331 
L 581 3500 
L 1159 3500 
L 1159 2969 
Q 1341 3281 1617 3432 
Q 1894 3584 2278 3584 
Q 2916 3584 3314 3078 
Q 3713 2572 3713 1747 
Q 3713 922 3314 415 
Q 2916 -91 2278 -91 
Q 1894 -91 1617 61 
Q 1341 213 1159 525 
z
M 3116 1747 
Q 3116 2381 2855 2742 
Q 2594 3103 2138 3103 
Q 1681 3103 1420 2742 
Q 1159 2381 1159 1747 
Q 1159 1113 1420 752 
Q 1681 391 2138 391 
Q 2594 391 2855 752 
Q 3116 1113 3116 1747 
z
" transform="scale(0.015625)"/>
      <path id="DejaVuSans-66" d="M 2375 4863 
L 2375 4384 
L 1825 4384 
Q 1516 4384 1395 4259 
Q 1275 4134 1275 3809 
L 1275 3500 
L 2222 3500 
L 2222 3053 
L 1275 3053 
L 1275 0 
L 697 0 
L 697 3053 
L 147 3053 
L 147 3500 
L 697 3500 
L 697 3744 
Q 697 4328 969 4595 
Q 1241 4863 1831 4863 
L 2375 4863 
z
" transform="scale(0.015625)"/>
      <path id="DejaVuSans-41" d="M 2188 4044 
L 1331 1722 
L 3047 1722 
L 2188 4044 
z
M 1831 4666 
L 2547 4666 
L 4325 0 
L 3669 0 
L 3244 1197 
L 1141 1197 
L 716 0 
L 50 0 
L 1831 4666 
z
" transform="scale(0.015625)"/>
     </defs>
     <use xlink:href="#DejaVuSans-49"/>
     <use xlink:href="#DejaVuSans-6d" x="29.492188"/>
     <use xlink:href="#DejaVuSans-70" x="126.904297"/>
     <use xlink:href="#DejaVuSans-61" x="190.380859"/>
     <use xlink:href="#DejaVuSans-63" x="251.660156"/>
     <use xlink:href="#DejaVuSans-74" x="306.640625"/>
     <use xlink:href="#DejaVuSans-66" x="345.849609"/>
     <use xlink:href="#DejaVuSans-75" x="381.054688"/>
     <use xlink:href="#DejaVuSans-6c" x="444.433594"/>
     <use xlink:href="#DejaVuSans-20" x="472.216797"/>
     <use xlink:href="#DejaVuSans-61" x="504.003906"/>
     <use xlink:href="#DejaVuSans-63" x="565.283203"/>
     <use xlink:href="#DejaVuSans-74" x="620.263672"/>
     <use xlink:href="#DejaVuSans-6f" x="659.472656"/>
     <use xlink:href="#DejaVuSans-72" x="720.654297"/>
     <use xlink:href="#DejaVuSans-73" x="761.767578"/>
     <use xlink:href="#DejaVuSans-20" x="813.867188"/>
     <use xlink:href="#DejaVuSans-66" x="845.654297"/>
     <use xlink:href="#DejaVuSans-6f" x="880.859375"/>
     <use xlink:href="#DejaVuSans-72" x="942.041016"/>
     <use xlink:href="#DejaVuSans-20" x="983.154297"/>
     <use xlink:href="#DejaVuSans-41" x="1014.941406"/>
     <use xlink:href="#DejaVuSans-64" x="1081.599609"/>
     <use xlink:href="#DejaVuSans-76" x="1145.076172"/>
     <use xlink:href="#DejaVuSans-65" x="1204.255859"/>
     <use xlink:href="#DejaVuSans-6e" x="1265.779297"/>
     <use xlink:href="#DejaVuSans-74" x="1329.158203"/>
     <use xlink:href="#DejaVuSans-75" x="1368.367188"/>
     <use xlink:href="#DejaVuSans-72" x="1431.746094"/>
     <use xlink:href="#DejaVuSans-65" x="1470.609375"/>
     <use xlink:href="#DejaVuSans-20" x="1532.132812"/>
     <use xlink:href="#DejaVuSans-67" x="1563.919922"/>
     <use xlink:href="#DejaVuSans-65" x="1627.396484"/>
     <use xlink:href="#DejaVuSans-6e" x="1688.919922"/>
     <use xlink:href="#DejaVuSans-72" x="1752.298828"/>
     <use xlink:href="#DejaVuSans-65" x="1791.162109"/>
    </g>
   </g>
  </g>
 </g>
 <defs>
  <clipPath id="pd9b10c8489">
   <rect x="7.2" y="22.318125" width="554.4" height="554.4"/>
  </clipPath>
 </defs>
</svg>
