<?xml version="1.0" encoding="utf-8" standalone="no"?>
<!DOCTYPE svg PUBLIC "-//W3C//DTD SVG 1.1//EN"
  "http://www.w3.org/Graphics/SVG/1.1/DTD/svg11.dtd">
<svg xmlns:xlink="http://www.w3.org/1999/xlink" width="568.8pt" height="583.918125pt" viewBox="0 0 568.8 583.918125" xmlns="http://www.w3.org/2000/svg" version="1.1">
 <metadata>
  <rdf:RDF xmlns:dc="http://purl.org/dc/elements/1.1/" xmlns:cc="http://creativecommons.org/ns#" xmlns:rdf="http://www.w3.org/1999/02/22-rdf-syntax-ns#">
   <cc:Work>
    <dc:type rdf:resource="http://purl.org/dc/dcmitype/StillImage"/>
    <dc:date>2022-12-23T19:50:05.959186</dc:date>
    <dc:format>image/svg+xml</dc:format>
    <dc:creator>
     <cc:Agent>
      <dc:title>Matplotlib v3.5.3, https://matplotlib.org/</dc:title>
     </cc:Agent>
    </dc:creator>
   </cc:Work>
  </rdf:RDF>
 </metadata>
 <defs>
  <style type="text/css">*{stroke-linejoin: round; stroke-linecap: butt}</style>
 </defs>
 <g id="figure_1">
  <g id="patch_1">
   <path d="M 0 583.918125 
L 568.8 583.918125 
L 568.8 0 
L 0 0 
z
" style="fill: #ffffff"/>
  </g>
  <g id="axes_1">
   <g id="PathCollection_1">
    <path d="M 497.630769 326.904253 
C 504.893655 326.904253 511.86005 324.018678 516.995686 318.883042 
C 522.131322 313.747406 525.016897 306.781011 525.016897 299.518125 
C 525.016897 292.255239 522.131322 285.288844 516.995686 280.153208 
C 511.86005 275.017572 504.893655 272.131997 497.630769 272.131997 
C 490.367883 272.131997 483.401488 275.017572 478.265852 280.153208 
C 473.130217 285.288844 470.244641 292.255239 470.244641 299.518125 
C 470.244641 306.781011 473.130217 313.747406 478.265852 318.883042 
C 483.401488 324.018678 490.367883 326.904253 497.630769 326.904253 
z
" clip-path="url(#p3c15ef3fee)" style="fill: #c70039; fill-opacity: 0.99; stroke: #c70039; stroke-opacity: 0.99"/>
    <path d="M 478.992348 236.729095 
C 485.467934 236.729095 491.679169 234.156317 496.2581 229.577386 
C 500.837031 224.998455 503.409809 218.78722 503.409809 212.311633 
C 503.409809 205.836047 500.837031 199.624812 496.2581 195.045881 
C 491.679169 190.46695 485.467934 187.894172 478.992348 187.894172 
C 472.516761 187.894172 466.305526 190.46695 461.726595 195.045881 
C 457.147664 199.624812 454.574887 205.836047 454.574887 212.311633 
C 454.574887 218.78722 457.147664 224.998455 461.726595 229.577386 
C 466.305526 234.156317 472.516761 236.729095 478.992348 236.729095 
z
" clip-path="url(#p3c15ef3fee)" style="fill: #c70039; fill-opacity: 0.99; stroke: #c70039; stroke-opacity: 0.99"/>
    <path d="M 426.29985 164.435107 
C 432.731338 164.435107 438.900275 161.879849 443.448024 157.3321 
C 447.995773 152.784352 450.55103 146.615415 450.55103 140.183927 
C 450.55103 133.752439 447.995773 127.583502 443.448024 123.035753 
C 438.900275 118.488004 432.731338 115.932747 426.29985 115.932747 
C 419.868362 115.932747 413.699425 118.488004 409.151676 123.035753 
C 404.603927 127.583502 402.04867 133.752439 402.04867 140.183927 
C 402.04867 146.615415 404.603927 152.784352 409.151676 157.3321 
C 413.699425 161.879849 419.868362 164.435107 426.29985 164.435107 
z
" clip-path="url(#p3c15ef3fee)" style="fill: #c70039; fill-opacity: 0.99; stroke: #c70039; stroke-opacity: 0.99"/>
    <path d="M 348.664291 119.426498 
C 354.981412 119.426498 361.04065 116.916679 365.507529 112.4498 
C 369.974408 107.982921 372.484226 101.923683 372.484226 95.606563 
C 372.484226 89.289442 369.974408 83.230204 365.507529 78.763325 
C 361.04065 74.296446 354.981412 71.786628 348.664291 71.786628 
C 342.347171 71.786628 336.287932 74.296446 331.821054 78.763325 
C 327.354175 83.230204 324.844356 89.289442 324.844356 95.606563 
C 324.844356 101.923683 327.354175 107.982921 331.821054 112.4498 
C 336.287932 116.916679 342.347171 119.426498 348.664291 119.426498 
z
" clip-path="url(#p3c15ef3fee)" style="fill: #c70039; fill-opacity: 0.99; stroke: #c70039; stroke-opacity: 0.99"/>
    <path d="M 259.509549 109.959348 
C 265.787434 109.959348 271.809039 107.465117 276.248175 103.025982 
C 280.68731 98.586846 283.181541 92.565241 283.181541 86.287356 
C 283.181541 80.00947 280.68731 73.987865 276.248175 69.54873 
C 271.809039 65.109594 265.787434 62.615364 259.509549 62.615364 
C 253.231663 62.615364 247.210058 65.109594 242.770923 69.54873 
C 238.331787 73.987865 235.837557 80.00947 235.837557 86.287356 
C 235.837557 92.565241 238.331787 98.586846 242.770923 103.025982 
C 247.210058 107.465117 253.231663 109.959348 259.509549 109.959348 
z
" clip-path="url(#p3c15ef3fee)" style="fill: #c70039; fill-opacity: 0.99; stroke: #c70039; stroke-opacity: 0.99"/>
    <path d="M 174.251298 136.423102 
C 180.241019 136.423102 185.986222 134.043361 190.221595 129.807989 
C 194.456967 125.572617 196.836708 119.827413 196.836708 113.837692 
C 196.836708 107.847972 194.456967 102.102768 190.221595 97.867396 
C 185.986222 93.632024 180.241019 91.252282 174.251298 91.252282 
C 168.261577 91.252282 162.516374 93.632024 158.281002 97.867396 
C 154.045629 102.102768 151.665888 107.847972 151.665888 113.837692 
C 151.665888 119.827413 154.045629 125.572617 158.281002 129.807989 
C 162.516374 134.043361 168.261577 136.423102 174.251298 136.423102 
z
" clip-path="url(#p3c15ef3fee)" style="fill: #c70039; fill-opacity: 0.99; stroke: #c70039; stroke-opacity: 0.99"/>
    <path d="M 107.631477 195.654778 
C 113.508623 195.654778 119.145847 193.319763 123.301617 189.163994 
C 127.457387 185.008224 129.792401 179.371 129.792401 173.493854 
C 129.792401 167.616708 127.457387 161.979484 123.301617 157.823714 
C 119.145847 153.667944 113.508623 151.332929 107.631477 151.332929 
C 101.754331 151.332929 96.117107 153.667944 91.961337 157.823714 
C 87.805568 161.979484 85.470553 167.616708 85.470553 173.493854 
C 85.470553 179.371 87.805568 185.008224 91.961337 189.163994 
C 96.117107 193.319763 101.754331 195.654778 107.631477 195.654778 
z
" clip-path="url(#p3c15ef3fee)" style="fill: #c70039; fill-opacity: 0.99; stroke: #c70039; stroke-opacity: 0.99"/>
    <path d="M 71.169231 276.897978 
C 76.992349 276.897978 82.577752 274.584429 86.695319 270.466862 
C 90.812886 266.349295 93.126435 260.763893 93.126435 254.940774 
C 93.126435 249.117655 90.812886 243.532252 86.695319 239.414686 
C 82.577752 235.297119 76.992349 232.983569 71.169231 232.983569 
C 65.346112 232.983569 59.760709 235.297119 55.643143 239.414686 
C 51.525576 243.532252 49.212026 249.117655 49.212026 254.940774 
C 49.212026 260.763893 51.525576 266.349295 55.643143 270.466862 
C 59.760709 274.584429 65.346112 276.897978 71.169231 276.897978 
z
" clip-path="url(#p3c15ef3fee)" style="fill: #c70039; fill-opacity: 0.99; stroke: #c70039; stroke-opacity: 0.99"/>
    <path d="M 71.169244 364.549807 
C 76.593785 364.549807 81.796882 362.394614 85.632613 358.558883 
C 89.468343 354.723153 91.623536 349.520056 91.623536 344.095514 
C 91.623536 338.670973 89.468343 333.467876 85.632613 329.632146 
C 81.796882 325.796415 76.593785 323.641222 71.169244 323.641222 
C 65.744702 323.641222 60.541605 325.796415 56.705875 329.632146 
C 52.870144 333.467876 50.714951 338.670973 50.714951 344.095514 
C 50.714951 349.520056 52.870144 354.723153 56.705875 358.558883 
C 60.541605 362.394614 65.744702 364.549807 71.169244 364.549807 
z
" clip-path="url(#p3c15ef3fee)" style="fill: #c70039; fill-opacity: 0.99; stroke: #c70039; stroke-opacity: 0.99"/>
    <path d="M 107.63149 445.830052 
C 113.011836 445.830052 118.172541 443.692418 121.97702 439.887939 
C 125.781499 436.08346 127.919133 430.922755 127.919133 425.542409 
C 127.919133 420.162063 125.781499 415.001358 121.97702 411.196879 
C 118.172541 407.3924 113.011836 405.254766 107.63149 405.254766 
C 102.251144 405.254766 97.090439 407.3924 93.28596 411.196879 
C 89.481481 415.001358 87.343847 420.162063 87.343847 425.542409 
C 87.343847 430.922755 89.481481 436.08346 93.28596 439.887939 
C 97.090439 443.692418 102.251144 445.830052 107.63149 445.830052 
z
" clip-path="url(#p3c15ef3fee)" style="fill: #c70039; fill-opacity: 0.99; stroke: #c70039; stroke-opacity: 0.99"/>
    <path d="M 174.25133 505.004326 
C 179.503878 505.004326 184.542002 502.917467 188.256115 499.203355 
C 191.970227 495.489243 194.057086 490.451118 194.057086 485.198571 
C 194.057086 479.946023 191.970227 474.907898 188.256115 471.193786 
C 184.542002 467.479674 179.503878 465.392815 174.25133 465.392815 
C 168.998782 465.392815 163.960658 467.479674 160.246546 471.193786 
C 156.532434 474.907898 154.445574 479.946023 154.445574 485.198571 
C 154.445574 490.451118 156.532434 495.489243 160.246546 499.203355 
C 163.960658 502.917467 168.998782 505.004326 174.25133 505.004326 
z
" clip-path="url(#p3c15ef3fee)" style="fill: #c70039; fill-opacity: 0.99; stroke: #c70039; stroke-opacity: 0.99"/>
    <path d="M 259.509587 532.550326 
C 264.760988 532.550326 269.798013 530.463922 273.511314 526.750621 
C 277.224615 523.03732 279.311019 518.000295 279.311019 512.748894 
C 279.311019 507.497493 277.224615 502.460469 273.511314 498.747168 
C 269.798013 495.033866 264.760988 492.947462 259.509587 492.947462 
C 254.258186 492.947462 249.221162 495.033866 245.50786 498.747168 
C 241.794559 502.460469 239.708155 507.497493 239.708155 512.748894 
C 239.708155 518.000295 241.794559 523.03732 245.50786 526.750621 
C 249.221162 530.463922 254.258186 532.550326 259.509587 532.550326 
z
" clip-path="url(#p3c15ef3fee)" style="fill: #c70039; fill-opacity: 0.99; stroke: #c70039; stroke-opacity: 0.99"/>
    <path d="M 348.664323 522.988045 
C 353.851264 522.988045 358.826459 520.927252 362.49418 517.259531 
C 366.161901 513.59181 368.222694 508.616615 368.222694 503.429675 
C 368.222694 498.242734 366.161901 493.267539 362.49418 489.599818 
C 358.826459 485.932097 353.851264 483.871304 348.664323 483.871304 
C 343.477383 483.871304 338.502188 485.932097 334.834467 489.599818 
C 331.166746 493.267539 329.105953 498.242734 329.105953 503.429675 
C 329.105953 508.616615 331.166746 513.59181 334.834467 517.259531 
C 338.502188 520.927252 343.477383 522.988045 348.664323 522.988045 
z
" clip-path="url(#p3c15ef3fee)" style="fill: #c70039; fill-opacity: 0.99; stroke: #c70039; stroke-opacity: 0.99"/>
    <path d="M 426.299888 478.287667 
C 431.454212 478.287667 436.398122 476.239833 440.042779 472.595176 
C 443.687436 468.950518 445.735271 464.006609 445.735271 458.852285 
C 445.735271 453.697961 443.687436 448.754052 440.042779 445.109394 
C 436.398122 441.464737 431.454212 439.416903 426.299888 439.416903 
C 421.145565 439.416903 416.201655 441.464737 412.556998 445.109394 
C 408.912341 448.754052 406.864506 453.697961 406.864506 458.852285 
C 406.864506 464.006609 408.912341 468.950518 412.556998 472.595176 
C 416.201655 476.239833 421.145565 478.287667 426.299888 478.287667 
z
" clip-path="url(#p3c15ef3fee)" style="fill: #c70039; fill-opacity: 0.99; stroke: #c70039; stroke-opacity: 0.99"/>
    <path d="M 478.992374 406.089501 
C 484.128009 406.089501 489.053994 404.049092 492.685437 400.417649 
C 496.31688 396.786206 498.35729 391.860221 498.35729 386.724585 
C 498.35729 381.588949 496.31688 376.662964 492.685437 373.031521 
C 489.053994 369.400078 484.128009 367.359668 478.992374 367.359668 
C 473.856738 367.359668 468.930753 369.400078 465.29931 373.031521 
C 461.667867 376.662964 459.627457 381.588949 459.627457 386.724585 
C 459.627457 391.860221 461.667867 396.786206 465.29931 400.417649 
C 468.930753 404.049092 473.856738 406.089501 478.992374 406.089501 
z
" clip-path="url(#p3c15ef3fee)" style="fill: #c70039; fill-opacity: 0.99; stroke: #c70039; stroke-opacity: 0.99"/>
   </g>
   <g id="text_1">
    <g id="patch_2">
     <path d="M 464.647879 307.833281 
L 530.61366 307.833281 
L 530.61366 291.202969 
L 464.647879 291.202969 
z
" clip-path="url(#p3c15ef3fee)" style="fill: #ffffff; opacity: 0.7; stroke: #000000; stroke-linejoin: miter"/>
    </g>
    <g clip-path="url(#p3c15ef3fee)">
     <!-- Frank Welker -->
     <g transform="translate(468.607879 302.001562)scale(0.09 -0.09)">
      <defs>
       <path id="DejaVuSans-46" d="M 628 4666 
L 3309 4666 
L 3309 4134 
L 1259 4134 
L 1259 2759 
L 3109 2759 
L 3109 2228 
L 1259 2228 
L 1259 0 
L 628 0 
L 628 4666 
z
" transform="scale(0.015625)"/>
       <path id="DejaVuSans-72" d="M 2631 2963 
Q 2534 3019 2420 3045 
Q 2306 3072 2169 3072 
Q 1681 3072 1420 2755 
Q 1159 2438 1159 1844 
L 1159 0 
L 581 0 
L 581 3500 
L 1159 3500 
L 1159 2956 
Q 1341 3275 1631 3429 
Q 1922 3584 2338 3584 
Q 2397 3584 2469 3576 
Q 2541 3569 2628 3553 
L 2631 2963 
z
" transform="scale(0.015625)"/>
       <path id="DejaVuSans-61" d="M 2194 1759 
Q 1497 1759 1228 1600 
Q 959 1441 959 1056 
Q 959 750 1161 570 
Q 1363 391 1709 391 
Q 2188 391 2477 730 
Q 2766 1069 2766 1631 
L 2766 1759 
L 2194 1759 
z
M 3341 1997 
L 3341 0 
L 2766 0 
L 2766 531 
Q 2569 213 2275 61 
Q 1981 -91 1556 -91 
Q 1019 -91 701 211 
Q 384 513 384 1019 
Q 384 1609 779 1909 
Q 1175 2209 1959 2209 
L 2766 2209 
L 2766 2266 
Q 2766 2663 2505 2880 
Q 2244 3097 1772 3097 
Q 1472 3097 1187 3025 
Q 903 2953 641 2809 
L 641 3341 
Q 956 3463 1253 3523 
Q 1550 3584 1831 3584 
Q 2591 3584 2966 3190 
Q 3341 2797 3341 1997 
z
" transform="scale(0.015625)"/>
       <path id="DejaVuSans-6e" d="M 3513 2113 
L 3513 0 
L 2938 0 
L 2938 2094 
Q 2938 2591 2744 2837 
Q 2550 3084 2163 3084 
Q 1697 3084 1428 2787 
Q 1159 2491 1159 1978 
L 1159 0 
L 581 0 
L 581 3500 
L 1159 3500 
L 1159 2956 
Q 1366 3272 1645 3428 
Q 1925 3584 2291 3584 
Q 2894 3584 3203 3211 
Q 3513 2838 3513 2113 
z
" transform="scale(0.015625)"/>
       <path id="DejaVuSans-6b" d="M 581 4863 
L 1159 4863 
L 1159 1991 
L 2875 3500 
L 3609 3500 
L 1753 1863 
L 3688 0 
L 2938 0 
L 1159 1709 
L 1159 0 
L 581 0 
L 581 4863 
z
" transform="scale(0.015625)"/>
       <path id="DejaVuSans-20" transform="scale(0.015625)"/>
       <path id="DejaVuSans-57" d="M 213 4666 
L 850 4666 
L 1831 722 
L 2809 4666 
L 3519 4666 
L 4500 722 
L 5478 4666 
L 6119 4666 
L 4947 0 
L 4153 0 
L 3169 4050 
L 2175 0 
L 1381 0 
L 213 4666 
z
" transform="scale(0.015625)"/>
       <path id="DejaVuSans-65" d="M 3597 1894 
L 3597 1613 
L 953 1613 
Q 991 1019 1311 708 
Q 1631 397 2203 397 
Q 2534 397 2845 478 
Q 3156 559 3463 722 
L 3463 178 
Q 3153 47 2828 -22 
Q 2503 -91 2169 -91 
Q 1331 -91 842 396 
Q 353 884 353 1716 
Q 353 2575 817 3079 
Q 1281 3584 2069 3584 
Q 2775 3584 3186 3129 
Q 3597 2675 3597 1894 
z
M 3022 2063 
Q 3016 2534 2758 2815 
Q 2500 3097 2075 3097 
Q 1594 3097 1305 2825 
Q 1016 2553 972 2059 
L 3022 2063 
z
" transform="scale(0.015625)"/>
       <path id="DejaVuSans-6c" d="M 603 4863 
L 1178 4863 
L 1178 0 
L 603 0 
L 603 4863 
z
" transform="scale(0.015625)"/>
      </defs>
      <use xlink:href="#DejaVuSans-46"/>
      <use xlink:href="#DejaVuSans-72" x="50.269531"/>
      <use xlink:href="#DejaVuSans-61" x="91.382812"/>
      <use xlink:href="#DejaVuSans-6e" x="152.662109"/>
      <use xlink:href="#DejaVuSans-6b" x="216.041016"/>
      <use xlink:href="#DejaVuSans-20" x="273.951172"/>
      <use xlink:href="#DejaVuSans-57" x="305.738281"/>
      <use xlink:href="#DejaVuSans-65" x="398.740234"/>
      <use xlink:href="#DejaVuSans-6c" x="460.263672"/>
      <use xlink:href="#DejaVuSans-6b" x="488.046875"/>
      <use xlink:href="#DejaVuSans-65" x="542.332031"/>
      <use xlink:href="#DejaVuSans-72" x="603.855469"/>
     </g>
    </g>
   </g>
   <g id="text_2">
    <g id="patch_3">
     <path d="M 441.619848 220.62679 
L 516.364848 220.62679 
L 516.364848 203.996477 
L 441.619848 203.996477 
z
" clip-path="url(#p3c15ef3fee)" style="fill: #ffffff; opacity: 0.7; stroke: #000000; stroke-linejoin: miter"/>
    </g>
    <g clip-path="url(#p3c15ef3fee)">
     <!-- Steve Buscemi -->
     <g transform="translate(445.579848 214.795071)scale(0.09 -0.09)">
      <defs>
       <path id="DejaVuSans-53" d="M 3425 4513 
L 3425 3897 
Q 3066 4069 2747 4153 
Q 2428 4238 2131 4238 
Q 1616 4238 1336 4038 
Q 1056 3838 1056 3469 
Q 1056 3159 1242 3001 
Q 1428 2844 1947 2747 
L 2328 2669 
Q 3034 2534 3370 2195 
Q 3706 1856 3706 1288 
Q 3706 609 3251 259 
Q 2797 -91 1919 -91 
Q 1588 -91 1214 -16 
Q 841 59 441 206 
L 441 856 
Q 825 641 1194 531 
Q 1563 422 1919 422 
Q 2459 422 2753 634 
Q 3047 847 3047 1241 
Q 3047 1584 2836 1778 
Q 2625 1972 2144 2069 
L 1759 2144 
Q 1053 2284 737 2584 
Q 422 2884 422 3419 
Q 422 4038 858 4394 
Q 1294 4750 2059 4750 
Q 2388 4750 2728 4690 
Q 3069 4631 3425 4513 
z
" transform="scale(0.015625)"/>
       <path id="DejaVuSans-74" d="M 1172 4494 
L 1172 3500 
L 2356 3500 
L 2356 3053 
L 1172 3053 
L 1172 1153 
Q 1172 725 1289 603 
Q 1406 481 1766 481 
L 2356 481 
L 2356 0 
L 1766 0 
Q 1100 0 847 248 
Q 594 497 594 1153 
L 594 3053 
L 172 3053 
L 172 3500 
L 594 3500 
L 594 4494 
L 1172 4494 
z
" transform="scale(0.015625)"/>
       <path id="DejaVuSans-76" d="M 191 3500 
L 800 3500 
L 1894 563 
L 2988 3500 
L 3597 3500 
L 2284 0 
L 1503 0 
L 191 3500 
z
" transform="scale(0.015625)"/>
       <path id="DejaVuSans-42" d="M 1259 2228 
L 1259 519 
L 2272 519 
Q 2781 519 3026 730 
Q 3272 941 3272 1375 
Q 3272 1813 3026 2020 
Q 2781 2228 2272 2228 
L 1259 2228 
z
M 1259 4147 
L 1259 2741 
L 2194 2741 
Q 2656 2741 2882 2914 
Q 3109 3088 3109 3444 
Q 3109 3797 2882 3972 
Q 2656 4147 2194 4147 
L 1259 4147 
z
M 628 4666 
L 2241 4666 
Q 2963 4666 3353 4366 
Q 3744 4066 3744 3513 
Q 3744 3084 3544 2831 
Q 3344 2578 2956 2516 
Q 3422 2416 3680 2098 
Q 3938 1781 3938 1306 
Q 3938 681 3513 340 
Q 3088 0 2303 0 
L 628 0 
L 628 4666 
z
" transform="scale(0.015625)"/>
       <path id="DejaVuSans-75" d="M 544 1381 
L 544 3500 
L 1119 3500 
L 1119 1403 
Q 1119 906 1312 657 
Q 1506 409 1894 409 
Q 2359 409 2629 706 
Q 2900 1003 2900 1516 
L 2900 3500 
L 3475 3500 
L 3475 0 
L 2900 0 
L 2900 538 
Q 2691 219 2414 64 
Q 2138 -91 1772 -91 
Q 1169 -91 856 284 
Q 544 659 544 1381 
z
M 1991 3584 
L 1991 3584 
z
" transform="scale(0.015625)"/>
       <path id="DejaVuSans-73" d="M 2834 3397 
L 2834 2853 
Q 2591 2978 2328 3040 
Q 2066 3103 1784 3103 
Q 1356 3103 1142 2972 
Q 928 2841 928 2578 
Q 928 2378 1081 2264 
Q 1234 2150 1697 2047 
L 1894 2003 
Q 2506 1872 2764 1633 
Q 3022 1394 3022 966 
Q 3022 478 2636 193 
Q 2250 -91 1575 -91 
Q 1294 -91 989 -36 
Q 684 19 347 128 
L 347 722 
Q 666 556 975 473 
Q 1284 391 1588 391 
Q 1994 391 2212 530 
Q 2431 669 2431 922 
Q 2431 1156 2273 1281 
Q 2116 1406 1581 1522 
L 1381 1569 
Q 847 1681 609 1914 
Q 372 2147 372 2553 
Q 372 3047 722 3315 
Q 1072 3584 1716 3584 
Q 2034 3584 2315 3537 
Q 2597 3491 2834 3397 
z
" transform="scale(0.015625)"/>
       <path id="DejaVuSans-63" d="M 3122 3366 
L 3122 2828 
Q 2878 2963 2633 3030 
Q 2388 3097 2138 3097 
Q 1578 3097 1268 2742 
Q 959 2388 959 1747 
Q 959 1106 1268 751 
Q 1578 397 2138 397 
Q 2388 397 2633 464 
Q 2878 531 3122 666 
L 3122 134 
Q 2881 22 2623 -34 
Q 2366 -91 2075 -91 
Q 1284 -91 818 406 
Q 353 903 353 1747 
Q 353 2603 823 3093 
Q 1294 3584 2113 3584 
Q 2378 3584 2631 3529 
Q 2884 3475 3122 3366 
z
" transform="scale(0.015625)"/>
       <path id="DejaVuSans-6d" d="M 3328 2828 
Q 3544 3216 3844 3400 
Q 4144 3584 4550 3584 
Q 5097 3584 5394 3201 
Q 5691 2819 5691 2113 
L 5691 0 
L 5113 0 
L 5113 2094 
Q 5113 2597 4934 2840 
Q 4756 3084 4391 3084 
Q 3944 3084 3684 2787 
Q 3425 2491 3425 1978 
L 3425 0 
L 2847 0 
L 2847 2094 
Q 2847 2600 2669 2842 
Q 2491 3084 2119 3084 
Q 1678 3084 1418 2786 
Q 1159 2488 1159 1978 
L 1159 0 
L 581 0 
L 581 3500 
L 1159 3500 
L 1159 2956 
Q 1356 3278 1631 3431 
Q 1906 3584 2284 3584 
Q 2666 3584 2933 3390 
Q 3200 3197 3328 2828 
z
" transform="scale(0.015625)"/>
       <path id="DejaVuSans-69" d="M 603 3500 
L 1178 3500 
L 1178 0 
L 603 0 
L 603 3500 
z
M 603 4863 
L 1178 4863 
L 1178 4134 
L 603 4134 
L 603 4863 
z
" transform="scale(0.015625)"/>
      </defs>
      <use xlink:href="#DejaVuSans-53"/>
      <use xlink:href="#DejaVuSans-74" x="63.476562"/>
      <use xlink:href="#DejaVuSans-65" x="102.685547"/>
      <use xlink:href="#DejaVuSans-76" x="164.208984"/>
      <use xlink:href="#DejaVuSans-65" x="223.388672"/>
      <use xlink:href="#DejaVuSans-20" x="284.912109"/>
      <use xlink:href="#DejaVuSans-42" x="316.699219"/>
      <use xlink:href="#DejaVuSans-75" x="385.302734"/>
      <use xlink:href="#DejaVuSans-73" x="448.681641"/>
      <use xlink:href="#DejaVuSans-63" x="500.78125"/>
      <use xlink:href="#DejaVuSans-65" x="555.761719"/>
      <use xlink:href="#DejaVuSans-6d" x="617.285156"/>
      <use xlink:href="#DejaVuSans-69" x="714.697266"/>
     </g>
    </g>
   </g>
   <g id="text_3">
    <g id="patch_4">
     <path d="M 394.107975 148.499083 
L 458.491725 148.499083 
L 458.491725 131.86877 
L 394.107975 131.86877 
z
" clip-path="url(#p3c15ef3fee)" style="fill: #ffffff; opacity: 0.7; stroke: #000000; stroke-linejoin: miter"/>
    </g>
    <g clip-path="url(#p3c15ef3fee)">
     <!-- Mark Ruffalo -->
     <g transform="translate(398.067975 142.667364)scale(0.09 -0.09)">
      <defs>
       <path id="DejaVuSans-4d" d="M 628 4666 
L 1569 4666 
L 2759 1491 
L 3956 4666 
L 4897 4666 
L 4897 0 
L 4281 0 
L 4281 4097 
L 3078 897 
L 2444 897 
L 1241 4097 
L 1241 0 
L 628 0 
L 628 4666 
z
" transform="scale(0.015625)"/>
       <path id="DejaVuSans-52" d="M 2841 2188 
Q 3044 2119 3236 1894 
Q 3428 1669 3622 1275 
L 4263 0 
L 3584 0 
L 2988 1197 
Q 2756 1666 2539 1819 
Q 2322 1972 1947 1972 
L 1259 1972 
L 1259 0 
L 628 0 
L 628 4666 
L 2053 4666 
Q 2853 4666 3247 4331 
Q 3641 3997 3641 3322 
Q 3641 2881 3436 2590 
Q 3231 2300 2841 2188 
z
M 1259 4147 
L 1259 2491 
L 2053 2491 
Q 2509 2491 2742 2702 
Q 2975 2913 2975 3322 
Q 2975 3731 2742 3939 
Q 2509 4147 2053 4147 
L 1259 4147 
z
" transform="scale(0.015625)"/>
       <path id="DejaVuSans-66" d="M 2375 4863 
L 2375 4384 
L 1825 4384 
Q 1516 4384 1395 4259 
Q 1275 4134 1275 3809 
L 1275 3500 
L 2222 3500 
L 2222 3053 
L 1275 3053 
L 1275 0 
L 697 0 
L 697 3053 
L 147 3053 
L 147 3500 
L 697 3500 
L 697 3744 
Q 697 4328 969 4595 
Q 1241 4863 1831 4863 
L 2375 4863 
z
" transform="scale(0.015625)"/>
       <path id="DejaVuSans-6f" d="M 1959 3097 
Q 1497 3097 1228 2736 
Q 959 2375 959 1747 
Q 959 1119 1226 758 
Q 1494 397 1959 397 
Q 2419 397 2687 759 
Q 2956 1122 2956 1747 
Q 2956 2369 2687 2733 
Q 2419 3097 1959 3097 
z
M 1959 3584 
Q 2709 3584 3137 3096 
Q 3566 2609 3566 1747 
Q 3566 888 3137 398 
Q 2709 -91 1959 -91 
Q 1206 -91 779 398 
Q 353 888 353 1747 
Q 353 2609 779 3096 
Q 1206 3584 1959 3584 
z
" transform="scale(0.015625)"/>
      </defs>
      <use xlink:href="#DejaVuSans-4d"/>
      <use xlink:href="#DejaVuSans-61" x="86.279297"/>
      <use xlink:href="#DejaVuSans-72" x="147.558594"/>
      <use xlink:href="#DejaVuSans-6b" x="188.671875"/>
      <use xlink:href="#DejaVuSans-20" x="246.582031"/>
      <use xlink:href="#DejaVuSans-52" x="278.369141"/>
      <use xlink:href="#DejaVuSans-75" x="343.351562"/>
      <use xlink:href="#DejaVuSans-66" x="406.730469"/>
      <use xlink:href="#DejaVuSans-66" x="441.935547"/>
      <use xlink:href="#DejaVuSans-61" x="477.140625"/>
      <use xlink:href="#DejaVuSans-6c" x="538.419922"/>
      <use xlink:href="#DejaVuSans-6f" x="566.203125"/>
     </g>
    </g>
   </g>
   <g id="text_4">
    <g id="patch_5">
     <path d="M 324.347416 103.921719 
L 372.981166 103.921719 
L 372.981166 87.291406 
L 324.347416 87.291406 
z
" clip-path="url(#p3c15ef3fee)" style="fill: #ffffff; opacity: 0.7; stroke: #000000; stroke-linejoin: miter"/>
    </g>
    <g clip-path="url(#p3c15ef3fee)">
     <!-- Al Pacino -->
     <g transform="translate(328.307416 98.09)scale(0.09 -0.09)">
      <defs>
       <path id="DejaVuSans-41" d="M 2188 4044 
L 1331 1722 
L 3047 1722 
L 2188 4044 
z
M 1831 4666 
L 2547 4666 
L 4325 0 
L 3669 0 
L 3244 1197 
L 1141 1197 
L 716 0 
L 50 0 
L 1831 4666 
z
" transform="scale(0.015625)"/>
       <path id="DejaVuSans-50" d="M 1259 4147 
L 1259 2394 
L 2053 2394 
Q 2494 2394 2734 2622 
Q 2975 2850 2975 3272 
Q 2975 3691 2734 3919 
Q 2494 4147 2053 4147 
L 1259 4147 
z
M 628 4666 
L 2053 4666 
Q 2838 4666 3239 4311 
Q 3641 3956 3641 3272 
Q 3641 2581 3239 2228 
Q 2838 1875 2053 1875 
L 1259 1875 
L 1259 0 
L 628 0 
L 628 4666 
z
" transform="scale(0.015625)"/>
      </defs>
      <use xlink:href="#DejaVuSans-41"/>
      <use xlink:href="#DejaVuSans-6c" x="68.408203"/>
      <use xlink:href="#DejaVuSans-20" x="96.191406"/>
      <use xlink:href="#DejaVuSans-50" x="127.978516"/>
      <use xlink:href="#DejaVuSans-61" x="183.78125"/>
      <use xlink:href="#DejaVuSans-63" x="245.060547"/>
      <use xlink:href="#DejaVuSans-69" x="300.041016"/>
      <use xlink:href="#DejaVuSans-6e" x="327.824219"/>
      <use xlink:href="#DejaVuSans-6f" x="391.203125"/>
     </g>
    </g>
   </g>
   <g id="text_5">
    <g id="patch_6">
     <path d="M 223.058142 94.602512 
L 295.960955 94.602512 
L 295.960955 77.9722 
L 223.058142 77.9722 
z
" clip-path="url(#p3c15ef3fee)" style="fill: #ffffff; opacity: 0.7; stroke: #000000; stroke-linejoin: miter"/>
    </g>
    <g clip-path="url(#p3c15ef3fee)">
     <!-- Jack Nicholson -->
     <g transform="translate(227.018142 88.770793)scale(0.09 -0.09)">
      <defs>
       <path id="DejaVuSans-4a" d="M 628 4666 
L 1259 4666 
L 1259 325 
Q 1259 -519 939 -900 
Q 619 -1281 -91 -1281 
L -331 -1281 
L -331 -750 
L -134 -750 
Q 284 -750 456 -515 
Q 628 -281 628 325 
L 628 4666 
z
" transform="scale(0.015625)"/>
       <path id="DejaVuSans-4e" d="M 628 4666 
L 1478 4666 
L 3547 763 
L 3547 4666 
L 4159 4666 
L 4159 0 
L 3309 0 
L 1241 3903 
L 1241 0 
L 628 0 
L 628 4666 
z
" transform="scale(0.015625)"/>
       <path id="DejaVuSans-68" d="M 3513 2113 
L 3513 0 
L 2938 0 
L 2938 2094 
Q 2938 2591 2744 2837 
Q 2550 3084 2163 3084 
Q 1697 3084 1428 2787 
Q 1159 2491 1159 1978 
L 1159 0 
L 581 0 
L 581 4863 
L 1159 4863 
L 1159 2956 
Q 1366 3272 1645 3428 
Q 1925 3584 2291 3584 
Q 2894 3584 3203 3211 
Q 3513 2838 3513 2113 
z
" transform="scale(0.015625)"/>
      </defs>
      <use xlink:href="#DejaVuSans-4a"/>
      <use xlink:href="#DejaVuSans-61" x="29.492188"/>
      <use xlink:href="#DejaVuSans-63" x="90.771484"/>
      <use xlink:href="#DejaVuSans-6b" x="145.751953"/>
      <use xlink:href="#DejaVuSans-20" x="203.662109"/>
      <use xlink:href="#DejaVuSans-4e" x="235.449219"/>
      <use xlink:href="#DejaVuSans-69" x="310.253906"/>
      <use xlink:href="#DejaVuSans-63" x="338.037109"/>
      <use xlink:href="#DejaVuSans-68" x="393.017578"/>
      <use xlink:href="#DejaVuSans-6f" x="456.396484"/>
      <use xlink:href="#DejaVuSans-6c" x="517.578125"/>
      <use xlink:href="#DejaVuSans-73" x="545.361328"/>
      <use xlink:href="#DejaVuSans-6f" x="597.460938"/>
      <use xlink:href="#DejaVuSans-6e" x="658.642578"/>
     </g>
    </g>
   </g>
   <g id="text_6">
    <g id="patch_7">
     <path d="M 137.160751 122.152849 
L 211.341845 122.152849 
L 211.341845 105.522536 
L 137.160751 105.522536 
z
" clip-path="url(#p3c15ef3fee)" style="fill: #ffffff; opacity: 0.7; stroke: #000000; stroke-linejoin: miter"/>
    </g>
    <g clip-path="url(#p3c15ef3fee)">
     <!-- Robert De Niro -->
     <g transform="translate(141.120751 116.32113)scale(0.09 -0.09)">
      <defs>
       <path id="DejaVuSans-62" d="M 3116 1747 
Q 3116 2381 2855 2742 
Q 2594 3103 2138 3103 
Q 1681 3103 1420 2742 
Q 1159 2381 1159 1747 
Q 1159 1113 1420 752 
Q 1681 391 2138 391 
Q 2594 391 2855 752 
Q 3116 1113 3116 1747 
z
M 1159 2969 
Q 1341 3281 1617 3432 
Q 1894 3584 2278 3584 
Q 2916 3584 3314 3078 
Q 3713 2572 3713 1747 
Q 3713 922 3314 415 
Q 2916 -91 2278 -91 
Q 1894 -91 1617 61 
Q 1341 213 1159 525 
L 1159 0 
L 581 0 
L 581 4863 
L 1159 4863 
L 1159 2969 
z
" transform="scale(0.015625)"/>
       <path id="DejaVuSans-44" d="M 1259 4147 
L 1259 519 
L 2022 519 
Q 2988 519 3436 956 
Q 3884 1394 3884 2338 
Q 3884 3275 3436 3711 
Q 2988 4147 2022 4147 
L 1259 4147 
z
M 628 4666 
L 1925 4666 
Q 3281 4666 3915 4102 
Q 4550 3538 4550 2338 
Q 4550 1131 3912 565 
Q 3275 0 1925 0 
L 628 0 
L 628 4666 
z
" transform="scale(0.015625)"/>
      </defs>
      <use xlink:href="#DejaVuSans-52"/>
      <use xlink:href="#DejaVuSans-6f" x="64.982422"/>
      <use xlink:href="#DejaVuSans-62" x="126.164062"/>
      <use xlink:href="#DejaVuSans-65" x="189.640625"/>
      <use xlink:href="#DejaVuSans-72" x="251.164062"/>
      <use xlink:href="#DejaVuSans-74" x="292.277344"/>
      <use xlink:href="#DejaVuSans-20" x="331.486328"/>
      <use xlink:href="#DejaVuSans-44" x="363.273438"/>
      <use xlink:href="#DejaVuSans-65" x="440.275391"/>
      <use xlink:href="#DejaVuSans-20" x="501.798828"/>
      <use xlink:href="#DejaVuSans-4e" x="533.585938"/>
      <use xlink:href="#DejaVuSans-69" x="608.390625"/>
      <use xlink:href="#DejaVuSans-72" x="636.173828"/>
      <use xlink:href="#DejaVuSans-6f" x="675.037109"/>
     </g>
    </g>
   </g>
   <g id="text_7">
    <g id="patch_8">
     <path d="M 71.615305 181.80901 
L 143.647649 181.80901 
L 143.647649 165.178697 
L 71.615305 165.178697 
z
" clip-path="url(#p3c15ef3fee)" style="fill: #ffffff; opacity: 0.7; stroke: #000000; stroke-linejoin: miter"/>
    </g>
    <g clip-path="url(#p3c15ef3fee)">
     <!-- Tom Wilkinson -->
     <g transform="translate(75.575305 175.977291)scale(0.09 -0.09)">
      <defs>
       <path id="DejaVuSans-54" d="M -19 4666 
L 3928 4666 
L 3928 4134 
L 2272 4134 
L 2272 0 
L 1638 0 
L 1638 4134 
L -19 4134 
L -19 4666 
z
" transform="scale(0.015625)"/>
      </defs>
      <use xlink:href="#DejaVuSans-54"/>
      <use xlink:href="#DejaVuSans-6f" x="44.083984"/>
      <use xlink:href="#DejaVuSans-6d" x="105.265625"/>
      <use xlink:href="#DejaVuSans-20" x="202.677734"/>
      <use xlink:href="#DejaVuSans-57" x="234.464844"/>
      <use xlink:href="#DejaVuSans-69" x="331.091797"/>
      <use xlink:href="#DejaVuSans-6c" x="358.875"/>
      <use xlink:href="#DejaVuSans-6b" x="386.658203"/>
      <use xlink:href="#DejaVuSans-69" x="444.568359"/>
      <use xlink:href="#DejaVuSans-6e" x="472.351562"/>
      <use xlink:href="#DejaVuSans-73" x="535.730469"/>
      <use xlink:href="#DejaVuSans-6f" x="587.830078"/>
      <use xlink:href="#DejaVuSans-6e" x="649.011719"/>
     </g>
    </g>
   </g>
   <g id="text_8">
    <g id="patch_9">
     <path d="M 45.45595 263.25593 
L 96.882512 263.25593 
L 96.882512 246.625618 
L 45.45595 246.625618 
z
" clip-path="url(#p3c15ef3fee)" style="fill: #ffffff; opacity: 0.7; stroke: #000000; stroke-linejoin: miter"/>
    </g>
    <g clip-path="url(#p3c15ef3fee)">
     <!-- Mel Blanc -->
     <g transform="translate(49.41595 257.424211)scale(0.09 -0.09)">
      <use xlink:href="#DejaVuSans-4d"/>
      <use xlink:href="#DejaVuSans-65" x="86.279297"/>
      <use xlink:href="#DejaVuSans-6c" x="147.802734"/>
      <use xlink:href="#DejaVuSans-20" x="175.585938"/>
      <use xlink:href="#DejaVuSans-42" x="207.373047"/>
      <use xlink:href="#DejaVuSans-6c" x="275.976562"/>
      <use xlink:href="#DejaVuSans-61" x="303.759766"/>
      <use xlink:href="#DejaVuSans-6e" x="365.039062"/>
      <use xlink:href="#DejaVuSans-63" x="428.417969"/>
     </g>
    </g>
   </g>
   <g id="text_9">
    <g id="patch_10">
     <path d="M 26.427994 352.410671 
L 115.910494 352.410671 
L 115.910494 335.780358 
L 26.427994 335.780358 
z
" clip-path="url(#p3c15ef3fee)" style="fill: #ffffff; opacity: 0.7; stroke: #000000; stroke-linejoin: miter"/>
    </g>
    <g clip-path="url(#p3c15ef3fee)">
     <!-- Samuel L. Jackson -->
     <g transform="translate(30.387994 346.578952)scale(0.09 -0.09)">
      <defs>
       <path id="DejaVuSans-4c" d="M 628 4666 
L 1259 4666 
L 1259 531 
L 3531 531 
L 3531 0 
L 628 0 
L 628 4666 
z
" transform="scale(0.015625)"/>
       <path id="DejaVuSans-2e" d="M 684 794 
L 1344 794 
L 1344 0 
L 684 0 
L 684 794 
z
" transform="scale(0.015625)"/>
      </defs>
      <use xlink:href="#DejaVuSans-53"/>
      <use xlink:href="#DejaVuSans-61" x="63.476562"/>
      <use xlink:href="#DejaVuSans-6d" x="124.755859"/>
      <use xlink:href="#DejaVuSans-75" x="222.167969"/>
      <use xlink:href="#DejaVuSans-65" x="285.546875"/>
      <use xlink:href="#DejaVuSans-6c" x="347.070312"/>
      <use xlink:href="#DejaVuSans-20" x="374.853516"/>
      <use xlink:href="#DejaVuSans-4c" x="406.640625"/>
      <use xlink:href="#DejaVuSans-2e" x="462.353516"/>
      <use xlink:href="#DejaVuSans-20" x="494.140625"/>
      <use xlink:href="#DejaVuSans-4a" x="525.927734"/>
      <use xlink:href="#DejaVuSans-61" x="555.419922"/>
      <use xlink:href="#DejaVuSans-63" x="616.699219"/>
      <use xlink:href="#DejaVuSans-6b" x="671.679688"/>
      <use xlink:href="#DejaVuSans-73" x="729.589844"/>
      <use xlink:href="#DejaVuSans-6f" x="781.689453"/>
      <use xlink:href="#DejaVuSans-6e" x="842.871094"/>
     </g>
    </g>
   </g>
   <g id="text_10">
    <g id="patch_11">
     <path d="M 74.259771 433.857565 
L 141.003209 433.857565 
L 141.003209 417.227253 
L 74.259771 417.227253 
z
" clip-path="url(#p3c15ef3fee)" style="fill: #ffffff; opacity: 0.7; stroke: #000000; stroke-linejoin: miter"/>
    </g>
    <g clip-path="url(#p3c15ef3fee)">
     <!-- Marisa Tomei -->
     <g transform="translate(78.219771 428.025847)scale(0.09 -0.09)">
      <use xlink:href="#DejaVuSans-4d"/>
      <use xlink:href="#DejaVuSans-61" x="86.279297"/>
      <use xlink:href="#DejaVuSans-72" x="147.558594"/>
      <use xlink:href="#DejaVuSans-69" x="188.671875"/>
      <use xlink:href="#DejaVuSans-73" x="216.455078"/>
      <use xlink:href="#DejaVuSans-61" x="268.554688"/>
      <use xlink:href="#DejaVuSans-20" x="329.833984"/>
      <use xlink:href="#DejaVuSans-54" x="361.621094"/>
      <use xlink:href="#DejaVuSans-6f" x="405.705078"/>
      <use xlink:href="#DejaVuSans-6d" x="466.886719"/>
      <use xlink:href="#DejaVuSans-65" x="564.298828"/>
      <use xlink:href="#DejaVuSans-69" x="625.822266"/>
     </g>
    </g>
   </g>
   <g id="text_11">
    <g id="patch_12">
     <path d="M 137.837893 493.513727 
L 210.664768 493.513727 
L 210.664768 476.883414 
L 137.837893 476.883414 
z
" clip-path="url(#p3c15ef3fee)" style="fill: #ffffff; opacity: 0.7; stroke: #000000; stroke-linejoin: miter"/>
    </g>
    <g clip-path="url(#p3c15ef3fee)">
     <!-- James Stewart -->
     <g transform="translate(141.797893 487.682008)scale(0.09 -0.09)">
      <defs>
       <path id="DejaVuSans-77" d="M 269 3500 
L 844 3500 
L 1563 769 
L 2278 3500 
L 2956 3500 
L 3675 769 
L 4391 3500 
L 4966 3500 
L 4050 0 
L 3372 0 
L 2619 2869 
L 1863 0 
L 1184 0 
L 269 3500 
z
" transform="scale(0.015625)"/>
      </defs>
      <use xlink:href="#DejaVuSans-4a"/>
      <use xlink:href="#DejaVuSans-61" x="29.492188"/>
      <use xlink:href="#DejaVuSans-6d" x="90.771484"/>
      <use xlink:href="#DejaVuSans-65" x="188.183594"/>
      <use xlink:href="#DejaVuSans-73" x="249.707031"/>
      <use xlink:href="#DejaVuSans-20" x="301.806641"/>
      <use xlink:href="#DejaVuSans-53" x="333.59375"/>
      <use xlink:href="#DejaVuSans-74" x="397.070312"/>
      <use xlink:href="#DejaVuSans-65" x="436.279297"/>
      <use xlink:href="#DejaVuSans-77" x="497.802734"/>
      <use xlink:href="#DejaVuSans-61" x="579.589844"/>
      <use xlink:href="#DejaVuSans-72" x="640.869141"/>
      <use xlink:href="#DejaVuSans-74" x="681.982422"/>
     </g>
    </g>
   </g>
   <g id="text_12">
    <g id="patch_13">
     <path d="M 225.70404 521.06405 
L 293.315134 521.06405 
L 293.315134 504.433738 
L 225.70404 504.433738 
z
" clip-path="url(#p3c15ef3fee)" style="fill: #ffffff; opacity: 0.7; stroke: #000000; stroke-linejoin: miter"/>
    </g>
    <g clip-path="url(#p3c15ef3fee)">
     <!-- Frank Sinatra -->
     <g transform="translate(229.66404 515.232332)scale(0.09 -0.09)">
      <use xlink:href="#DejaVuSans-46"/>
      <use xlink:href="#DejaVuSans-72" x="50.269531"/>
      <use xlink:href="#DejaVuSans-61" x="91.382812"/>
      <use xlink:href="#DejaVuSans-6e" x="152.662109"/>
      <use xlink:href="#DejaVuSans-6b" x="216.041016"/>
      <use xlink:href="#DejaVuSans-20" x="273.951172"/>
      <use xlink:href="#DejaVuSans-53" x="305.738281"/>
      <use xlink:href="#DejaVuSans-69" x="369.214844"/>
      <use xlink:href="#DejaVuSans-6e" x="396.998047"/>
      <use xlink:href="#DejaVuSans-61" x="460.376953"/>
      <use xlink:href="#DejaVuSans-74" x="521.65625"/>
      <use xlink:href="#DejaVuSans-72" x="560.865234"/>
      <use xlink:href="#DejaVuSans-61" x="601.978516"/>
     </g>
    </g>
   </g>
   <g id="text_13">
    <g id="patch_14">
     <path d="M 313.45323 511.744831 
L 383.875417 511.744831 
L 383.875417 495.114518 
L 313.45323 495.114518 
z
" clip-path="url(#p3c15ef3fee)" style="fill: #ffffff; opacity: 0.7; stroke: #000000; stroke-linejoin: miter"/>
    </g>
    <g clip-path="url(#p3c15ef3fee)">
     <!-- Robert Loggia -->
     <g transform="translate(317.41323 505.913112)scale(0.09 -0.09)">
      <defs>
       <path id="DejaVuSans-67" d="M 2906 1791 
Q 2906 2416 2648 2759 
Q 2391 3103 1925 3103 
Q 1463 3103 1205 2759 
Q 947 2416 947 1791 
Q 947 1169 1205 825 
Q 1463 481 1925 481 
Q 2391 481 2648 825 
Q 2906 1169 2906 1791 
z
M 3481 434 
Q 3481 -459 3084 -895 
Q 2688 -1331 1869 -1331 
Q 1566 -1331 1297 -1286 
Q 1028 -1241 775 -1147 
L 775 -588 
Q 1028 -725 1275 -790 
Q 1522 -856 1778 -856 
Q 2344 -856 2625 -561 
Q 2906 -266 2906 331 
L 2906 616 
Q 2728 306 2450 153 
Q 2172 0 1784 0 
Q 1141 0 747 490 
Q 353 981 353 1791 
Q 353 2603 747 3093 
Q 1141 3584 1784 3584 
Q 2172 3584 2450 3431 
Q 2728 3278 2906 2969 
L 2906 3500 
L 3481 3500 
L 3481 434 
z
" transform="scale(0.015625)"/>
      </defs>
      <use xlink:href="#DejaVuSans-52"/>
      <use xlink:href="#DejaVuSans-6f" x="64.982422"/>
      <use xlink:href="#DejaVuSans-62" x="126.164062"/>
      <use xlink:href="#DejaVuSans-65" x="189.640625"/>
      <use xlink:href="#DejaVuSans-72" x="251.164062"/>
      <use xlink:href="#DejaVuSans-74" x="292.277344"/>
      <use xlink:href="#DejaVuSans-20" x="331.486328"/>
      <use xlink:href="#DejaVuSans-4c" x="363.273438"/>
      <use xlink:href="#DejaVuSans-6f" x="417.236328"/>
      <use xlink:href="#DejaVuSans-67" x="478.417969"/>
      <use xlink:href="#DejaVuSans-67" x="541.894531"/>
      <use xlink:href="#DejaVuSans-69" x="605.371094"/>
      <use xlink:href="#DejaVuSans-61" x="633.154297"/>
     </g>
    </g>
   </g>
   <g id="text_14">
    <g id="patch_15">
     <path d="M 399.666217 467.167441 
L 452.93356 467.167441 
L 452.93356 450.537129 
L 399.666217 450.537129 
z
" clip-path="url(#p3c15ef3fee)" style="fill: #ffffff; opacity: 0.7; stroke: #000000; stroke-linejoin: miter"/>
    </g>
    <g clip-path="url(#p3c15ef3fee)">
     <!-- Ray Liotta -->
     <g transform="translate(403.626217 461.335723)scale(0.09 -0.09)">
      <defs>
       <path id="DejaVuSans-79" d="M 2059 -325 
Q 1816 -950 1584 -1140 
Q 1353 -1331 966 -1331 
L 506 -1331 
L 506 -850 
L 844 -850 
Q 1081 -850 1212 -737 
Q 1344 -625 1503 -206 
L 1606 56 
L 191 3500 
L 800 3500 
L 1894 763 
L 2988 3500 
L 3597 3500 
L 2059 -325 
z
" transform="scale(0.015625)"/>
      </defs>
      <use xlink:href="#DejaVuSans-52"/>
      <use xlink:href="#DejaVuSans-61" x="67.232422"/>
      <use xlink:href="#DejaVuSans-79" x="128.511719"/>
      <use xlink:href="#DejaVuSans-20" x="187.691406"/>
      <use xlink:href="#DejaVuSans-4c" x="219.478516"/>
      <use xlink:href="#DejaVuSans-69" x="275.191406"/>
      <use xlink:href="#DejaVuSans-6f" x="302.974609"/>
      <use xlink:href="#DejaVuSans-74" x="364.15625"/>
      <use xlink:href="#DejaVuSans-74" x="403.365234"/>
      <use xlink:href="#DejaVuSans-61" x="442.574219"/>
     </g>
    </g>
   </g>
   <g id="text_15">
    <g id="patch_16">
     <path d="M 443.694092 395.039741 
L 514.290655 395.039741 
L 514.290655 378.409428 
L 443.694092 378.409428 
z
" clip-path="url(#p3c15ef3fee)" style="fill: #ffffff; opacity: 0.7; stroke: #000000; stroke-linejoin: miter"/>
    </g>
    <g clip-path="url(#p3c15ef3fee)">
     <!-- Orlando Jones -->
     <g transform="translate(447.654092 389.208022)scale(0.09 -0.09)">
      <defs>
       <path id="DejaVuSans-4f" d="M 2522 4238 
Q 1834 4238 1429 3725 
Q 1025 3213 1025 2328 
Q 1025 1447 1429 934 
Q 1834 422 2522 422 
Q 3209 422 3611 934 
Q 4013 1447 4013 2328 
Q 4013 3213 3611 3725 
Q 3209 4238 2522 4238 
z
M 2522 4750 
Q 3503 4750 4090 4092 
Q 4678 3434 4678 2328 
Q 4678 1225 4090 567 
Q 3503 -91 2522 -91 
Q 1538 -91 948 565 
Q 359 1222 359 2328 
Q 359 3434 948 4092 
Q 1538 4750 2522 4750 
z
" transform="scale(0.015625)"/>
       <path id="DejaVuSans-64" d="M 2906 2969 
L 2906 4863 
L 3481 4863 
L 3481 0 
L 2906 0 
L 2906 525 
Q 2725 213 2448 61 
Q 2172 -91 1784 -91 
Q 1150 -91 751 415 
Q 353 922 353 1747 
Q 353 2572 751 3078 
Q 1150 3584 1784 3584 
Q 2172 3584 2448 3432 
Q 2725 3281 2906 2969 
z
M 947 1747 
Q 947 1113 1208 752 
Q 1469 391 1925 391 
Q 2381 391 2643 752 
Q 2906 1113 2906 1747 
Q 2906 2381 2643 2742 
Q 2381 3103 1925 3103 
Q 1469 3103 1208 2742 
Q 947 2381 947 1747 
z
" transform="scale(0.015625)"/>
      </defs>
      <use xlink:href="#DejaVuSans-4f"/>
      <use xlink:href="#DejaVuSans-72" x="78.710938"/>
      <use xlink:href="#DejaVuSans-6c" x="119.824219"/>
      <use xlink:href="#DejaVuSans-61" x="147.607422"/>
      <use xlink:href="#DejaVuSans-6e" x="208.886719"/>
      <use xlink:href="#DejaVuSans-64" x="272.265625"/>
      <use xlink:href="#DejaVuSans-6f" x="335.742188"/>
      <use xlink:href="#DejaVuSans-20" x="396.923828"/>
      <use xlink:href="#DejaVuSans-4a" x="428.710938"/>
      <use xlink:href="#DejaVuSans-6f" x="458.203125"/>
      <use xlink:href="#DejaVuSans-6e" x="519.384766"/>
      <use xlink:href="#DejaVuSans-65" x="582.763672"/>
      <use xlink:href="#DejaVuSans-73" x="644.287109"/>
     </g>
    </g>
   </g>
   <g id="text_16">
    <!-- Impactful actors for Black-and-white genre - Importance rank: 1 -->
    <g transform="translate(92.564062 16.318125)scale(0.12 -0.12)">
     <defs>
      <path id="DejaVuSans-49" d="M 628 4666 
L 1259 4666 
L 1259 0 
L 628 0 
L 628 4666 
z
" transform="scale(0.015625)"/>
      <path id="DejaVuSans-70" d="M 1159 525 
L 1159 -1331 
L 581 -1331 
L 581 3500 
L 1159 3500 
L 1159 2969 
Q 1341 3281 1617 3432 
Q 1894 3584 2278 3584 
Q 2916 3584 3314 3078 
Q 3713 2572 3713 1747 
Q 3713 922 3314 415 
Q 2916 -91 2278 -91 
Q 1894 -91 1617 61 
Q 1341 213 1159 525 
z
M 3116 1747 
Q 3116 2381 2855 2742 
Q 2594 3103 2138 3103 
Q 1681 3103 1420 2742 
Q 1159 2381 1159 1747 
Q 1159 1113 1420 752 
Q 1681 391 2138 391 
Q 2594 391 2855 752 
Q 3116 1113 3116 1747 
z
" transform="scale(0.015625)"/>
      <path id="DejaVuSans-2d" d="M 313 2009 
L 1997 2009 
L 1997 1497 
L 313 1497 
L 313 2009 
z
" transform="scale(0.015625)"/>
      <path id="DejaVuSans-3a" d="M 750 794 
L 1409 794 
L 1409 0 
L 750 0 
L 750 794 
z
M 750 3309 
L 1409 3309 
L 1409 2516 
L 750 2516 
L 750 3309 
z
" transform="scale(0.015625)"/>
      <path id="DejaVuSans-31" d="M 794 531 
L 1825 531 
L 1825 4091 
L 703 3866 
L 703 4441 
L 1819 4666 
L 2450 4666 
L 2450 531 
L 3481 531 
L 3481 0 
L 794 0 
L 794 531 
z
" transform="scale(0.015625)"/>
     </defs>
     <use xlink:href="#DejaVuSans-49"/>
     <use xlink:href="#DejaVuSans-6d" x="29.492188"/>
     <use xlink:href="#DejaVuSans-70" x="126.904297"/>
     <use xlink:href="#DejaVuSans-61" x="190.380859"/>
     <use xlink:href="#DejaVuSans-63" x="251.660156"/>
     <use xlink:href="#DejaVuSans-74" x="306.640625"/>
     <use xlink:href="#DejaVuSans-66" x="345.849609"/>
     <use xlink:href="#DejaVuSans-75" x="381.054688"/>
     <use xlink:href="#DejaVuSans-6c" x="444.433594"/>
     <use xlink:href="#DejaVuSans-20" x="472.216797"/>
     <use xlink:href="#DejaVuSans-61" x="504.003906"/>
     <use xlink:href="#DejaVuSans-63" x="565.283203"/>
     <use xlink:href="#DejaVuSans-74" x="620.263672"/>
     <use xlink:href="#DejaVuSans-6f" x="659.472656"/>
     <use xlink:href="#DejaVuSans-72" x="720.654297"/>
     <use xlink:href="#DejaVuSans-73" x="761.767578"/>
     <use xlink:href="#DejaVuSans-20" x="813.867188"/>
     <use xlink:href="#DejaVuSans-66" x="845.654297"/>
     <use xlink:href="#DejaVuSans-6f" x="880.859375"/>
     <use xlink:href="#DejaVuSans-72" x="942.041016"/>
     <use xlink:href="#DejaVuSans-20" x="983.154297"/>
     <use xlink:href="#DejaVuSans-42" x="1014.941406"/>
     <use xlink:href="#DejaVuSans-6c" x="1083.544922"/>
     <use xlink:href="#DejaVuSans-61" x="1111.328125"/>
     <use xlink:href="#DejaVuSans-63" x="1172.607422"/>
     <use xlink:href="#DejaVuSans-6b" x="1227.587891"/>
     <use xlink:href="#DejaVuSans-2d" x="1285.498047"/>
     <use xlink:href="#DejaVuSans-61" x="1321.582031"/>
     <use xlink:href="#DejaVuSans-6e" x="1382.861328"/>
     <use xlink:href="#DejaVuSans-64" x="1446.240234"/>
     <use xlink:href="#DejaVuSans-2d" x="1509.716797"/>
     <use xlink:href="#DejaVuSans-77" x="1545.800781"/>
     <use xlink:href="#DejaVuSans-68" x="1627.587891"/>
     <use xlink:href="#DejaVuSans-69" x="1690.966797"/>
     <use xlink:href="#DejaVuSans-74" x="1718.75"/>
     <use xlink:href="#DejaVuSans-65" x="1757.958984"/>
     <use xlink:href="#DejaVuSans-20" x="1819.482422"/>
     <use xlink:href="#DejaVuSans-67" x="1851.269531"/>
     <use xlink:href="#DejaVuSans-65" x="1914.746094"/>
     <use xlink:href="#DejaVuSans-6e" x="1976.269531"/>
     <use xlink:href="#DejaVuSans-72" x="2039.648438"/>
     <use xlink:href="#DejaVuSans-65" x="2078.511719"/>
     <use xlink:href="#DejaVuSans-20" x="2140.035156"/>
     <use xlink:href="#DejaVuSans-2d" x="2171.822266"/>
     <use xlink:href="#DejaVuSans-20" x="2207.90625"/>
     <use xlink:href="#DejaVuSans-49" x="2239.693359"/>
     <use xlink:href="#DejaVuSans-6d" x="2269.185547"/>
     <use xlink:href="#DejaVuSans-70" x="2366.597656"/>
     <use xlink:href="#DejaVuSans-6f" x="2430.074219"/>
     <use xlink:href="#DejaVuSans-72" x="2491.255859"/>
     <use xlink:href="#DejaVuSans-74" x="2532.369141"/>
     <use xlink:href="#DejaVuSans-61" x="2571.578125"/>
     <use xlink:href="#DejaVuSans-6e" x="2632.857422"/>
     <use xlink:href="#DejaVuSans-63" x="2696.236328"/>
     <use xlink:href="#DejaVuSans-65" x="2751.216797"/>
     <use xlink:href="#DejaVuSans-20" x="2812.740234"/>
     <use xlink:href="#DejaVuSans-72" x="2844.527344"/>
     <use xlink:href="#DejaVuSans-61" x="2885.640625"/>
     <use xlink:href="#DejaVuSans-6e" x="2946.919922"/>
     <use xlink:href="#DejaVuSans-6b" x="3010.298828"/>
     <use xlink:href="#DejaVuSans-3a" x="3068.208984"/>
     <use xlink:href="#DejaVuSans-20" x="3101.900391"/>
     <use xlink:href="#DejaVuSans-31" x="3133.6875"/>
    </g>
   </g>
  </g>
 </g>
 <defs>
  <clipPath id="p3c15ef3fee">
   <rect x="7.2" y="22.318125" width="554.4" height="554.4"/>
  </clipPath>
 </defs>
</svg>
