<?xml version="1.0" encoding="utf-8" standalone="no"?>
<!DOCTYPE svg PUBLIC "-//W3C//DTD SVG 1.1//EN"
  "http://www.w3.org/Graphics/SVG/1.1/DTD/svg11.dtd">
<svg xmlns:xlink="http://www.w3.org/1999/xlink" width="568.8pt" height="583.918125pt" viewBox="0 0 568.8 583.918125" xmlns="http://www.w3.org/2000/svg" version="1.1">
 <metadata>
  <rdf:RDF xmlns:dc="http://purl.org/dc/elements/1.1/" xmlns:cc="http://creativecommons.org/ns#" xmlns:rdf="http://www.w3.org/1999/02/22-rdf-syntax-ns#">
   <cc:Work>
    <dc:type rdf:resource="http://purl.org/dc/dcmitype/StillImage"/>
    <dc:date>2022-12-22T19:12:22.806711</dc:date>
    <dc:format>image/svg+xml</dc:format>
    <dc:creator>
     <cc:Agent>
      <dc:title>Matplotlib v3.5.2, https://matplotlib.org/</dc:title>
     </cc:Agent>
    </dc:creator>
   </cc:Work>
  </rdf:RDF>
 </metadata>
 <defs>
  <style type="text/css">*{stroke-linejoin: round; stroke-linecap: butt}</style>
 </defs>
 <g id="figure_1">
  <g id="patch_1">
   <path d="M 0 583.918125 
L 568.8 583.918125 
L 568.8 0 
L 0 0 
z
" style="fill: #ffffff"/>
  </g>
  <g id="axes_1">
   <g id="PathCollection_1">
    <path d="M 497.630769 326.904253 
C 504.893655 326.904253 511.86005 324.018678 516.995686 318.883042 
C 522.131322 313.747406 525.016897 306.781011 525.016897 299.518125 
C 525.016897 292.255239 522.131322 285.288844 516.995686 280.153208 
C 511.86005 275.017572 504.893655 272.131997 497.630769 272.131997 
C 490.367883 272.131997 483.401488 275.017572 478.265852 280.153208 
C 473.130217 285.288844 470.244641 292.255239 470.244641 299.518125 
C 470.244641 306.781011 473.130217 313.747406 478.265852 318.883042 
C 483.401488 324.018678 490.367883 326.904253 497.630769 326.904253 
z
" clip-path="url(#p74ef4234a6)" style="fill: #d62728; fill-opacity: 0.99; stroke: #d62728; stroke-opacity: 0.99"/>
    <path d="M 478.992348 239.321487 
C 486.155445 239.321487 493.026124 236.475559 498.091199 231.410484 
C 503.156273 226.34541 506.002202 219.47473 506.002202 212.311633 
C 506.002202 205.148536 503.156273 198.277857 498.091199 193.212783 
C 493.026124 188.147708 486.155445 185.30178 478.992348 185.30178 
C 471.829251 185.30178 464.958571 188.147708 459.893497 193.212783 
C 454.828423 198.277857 451.982494 205.148536 451.982494 212.311633 
C 451.982494 219.47473 454.828423 226.34541 459.893497 231.410484 
C 464.958571 236.475559 471.829251 239.321487 478.992348 239.321487 
z
" clip-path="url(#p74ef4234a6)" style="fill: #d62728; fill-opacity: 0.99; stroke: #d62728; stroke-opacity: 0.99"/>
    <path d="M 426.29985 166.907382 
C 433.386993 166.907382 440.184819 164.09163 445.196187 159.080263 
C 450.207554 154.068896 453.023305 147.27107 453.023305 140.183927 
C 453.023305 133.096783 450.207554 126.298957 445.196187 121.28759 
C 440.184819 116.276223 433.386993 113.460471 426.29985 113.460471 
C 419.212707 113.460471 412.41488 116.276223 407.403513 121.28759 
C 402.392146 126.298957 399.576394 133.096783 399.576394 140.183927 
C 399.576394 147.27107 402.392146 154.068896 407.403513 159.080263 
C 412.41488 164.09163 419.212707 166.907382 426.29985 166.907382 
z
" clip-path="url(#p74ef4234a6)" style="fill: #d62728; fill-opacity: 0.99; stroke: #d62728; stroke-opacity: 0.99"/>
    <path d="M 348.664291 118.518869 
C 354.740706 118.518869 360.569064 116.104683 364.865738 111.80801 
C 369.162412 107.511336 371.576597 101.682977 371.576597 95.606563 
C 371.576597 89.530148 369.162412 83.70179 364.865738 79.405116 
C 360.569064 75.108442 354.740706 72.694257 348.664291 72.694257 
C 342.587877 72.694257 336.759518 75.108442 332.462844 79.405116 
C 328.16617 83.70179 325.751985 89.530148 325.751985 95.606563 
C 325.751985 101.682977 328.16617 107.511336 332.462844 111.80801 
C 336.759518 116.104683 342.587877 118.518869 348.664291 118.518869 
z
" clip-path="url(#p74ef4234a6)" style="fill: #d62728; fill-opacity: 0.99; stroke: #d62728; stroke-opacity: 0.99"/>
    <path d="M 259.509549 108.648399 
C 265.439767 108.648399 271.127896 106.292298 275.321194 102.099001 
C 279.514491 97.905704 281.870592 92.217574 281.870592 86.287356 
C 281.870592 80.357138 279.514491 74.669008 275.321194 70.475711 
C 271.127896 66.282413 265.439767 63.926313 259.509549 63.926313 
C 253.579331 63.926313 247.891201 66.282413 243.697903 70.475711 
C 239.504606 74.669008 237.148506 80.357138 237.148506 86.287356 
C 237.148506 92.217574 239.504606 97.905704 243.697903 102.099001 
C 247.891201 106.292298 253.579331 108.648399 259.509549 108.648399 
z
" clip-path="url(#p74ef4234a6)" style="fill: #d62728; fill-opacity: 0.99; stroke: #d62728; stroke-opacity: 0.99"/>
    <path d="M 174.251298 135.58841 
C 180.019656 135.58841 185.552533 133.296617 189.631378 129.217772 
C 193.710223 125.138927 196.002016 119.60605 196.002016 113.837692 
C 196.002016 108.069335 193.710223 102.536457 189.631378 98.457612 
C 185.552533 94.378768 180.019656 92.086975 174.251298 92.086975 
C 168.48294 92.086975 162.950063 94.378768 158.871218 98.457612 
C 154.792373 102.536457 152.500581 108.069335 152.500581 113.837692 
C 152.500581 119.60605 154.792373 125.138927 158.871218 129.217772 
C 162.950063 133.296617 168.48294 135.58841 174.251298 135.58841 
z
" clip-path="url(#p74ef4234a6)" style="fill: #d62728; fill-opacity: 0.99; stroke: #d62728; stroke-opacity: 0.99"/>
    <path d="M 107.631477 194.972876 
C 113.32778 194.972876 118.791545 192.709711 122.81944 188.681816 
C 126.847334 184.653922 129.1105 179.190157 129.1105 173.493854 
C 129.1105 167.79755 126.847334 162.333786 122.81944 158.305891 
C 118.791545 154.277996 113.32778 152.014831 107.631477 152.014831 
C 101.935174 152.014831 96.471409 154.277996 92.443514 158.305891 
C 88.41562 162.333786 86.152454 167.79755 86.152454 173.493854 
C 86.152454 179.190157 88.41562 184.653922 92.443514 188.681816 
C 96.471409 192.709711 101.935174 194.972876 107.631477 194.972876 
z
" clip-path="url(#p74ef4234a6)" style="fill: #d62728; fill-opacity: 0.99; stroke: #d62728; stroke-opacity: 0.99"/>
    <path d="M 71.169231 275.731487 
C 76.682992 275.731487 81.971667 273.540846 85.870485 269.642028 
C 89.769303 265.74321 91.959944 260.454535 91.959944 254.940774 
C 91.959944 249.427012 89.769303 244.138338 85.870485 240.23952 
C 81.971667 236.340701 76.682992 234.150061 71.169231 234.150061 
C 65.655469 234.150061 60.366795 236.340701 56.467977 240.23952 
C 52.569158 244.138338 50.378518 249.427012 50.378518 254.940774 
C 50.378518 260.454535 52.569158 265.74321 56.467977 269.642028 
C 60.366795 273.540846 65.655469 275.731487 71.169231 275.731487 
z
" clip-path="url(#p74ef4234a6)" style="fill: #d62728; fill-opacity: 0.99; stroke: #d62728; stroke-opacity: 0.99"/>
    <path d="M 71.169244 364.70727 
C 76.635545 364.70727 81.878697 362.535486 85.743956 358.670227 
C 89.609215 354.804968 91.780999 349.561816 91.780999 344.095514 
C 91.780999 338.629213 89.609215 333.386061 85.743956 329.520802 
C 81.878697 325.655543 76.635545 323.483759 71.169244 323.483759 
C 65.702942 323.483759 60.45979 325.655543 56.594531 329.520802 
C 52.729273 333.386061 50.557488 338.629213 50.557488 344.095514 
C 50.557488 349.561816 52.729273 354.804968 56.594531 358.670227 
C 60.45979 362.535486 65.702942 364.70727 71.169244 364.70727 
z
" clip-path="url(#p74ef4234a6)" style="fill: #d62728; fill-opacity: 0.99; stroke: #d62728; stroke-opacity: 0.99"/>
    <path d="M 107.63149 445.844825 
C 113.015754 445.844825 118.180217 443.705635 121.987466 439.898385 
C 125.794715 436.091136 127.933906 430.926673 127.933906 425.542409 
C 127.933906 420.158145 125.794715 414.993682 121.987466 411.186433 
C 118.180217 407.379183 113.015754 405.239993 107.63149 405.239993 
C 102.247226 405.239993 97.082763 407.379183 93.275514 411.186433 
C 89.468264 414.993682 87.329074 420.158145 87.329074 425.542409 
C 87.329074 430.926673 89.468264 436.091136 93.275514 439.898385 
C 97.082763 443.705635 102.247226 445.844825 107.63149 445.844825 
z
" clip-path="url(#p74ef4234a6)" style="fill: #d62728; fill-opacity: 0.99; stroke: #d62728; stroke-opacity: 0.99"/>
    <path d="M 174.25133 504.716379 
C 179.427513 504.716379 184.39239 502.659859 188.052505 498.999745 
C 191.712619 495.339631 193.769138 490.374754 193.769138 485.198571 
C 193.769138 480.022387 191.712619 475.05751 188.052505 471.397396 
C 184.39239 467.737282 179.427513 465.680762 174.25133 465.680762 
C 169.075147 465.680762 164.11027 467.737282 160.450156 471.397396 
C 156.790041 475.05751 154.733522 480.022387 154.733522 485.198571 
C 154.733522 490.374754 156.790041 495.339631 160.450156 498.999745 
C 164.11027 502.659859 169.075147 504.716379 174.25133 504.716379 
z
" clip-path="url(#p74ef4234a6)" style="fill: #d62728; fill-opacity: 0.99; stroke: #d62728; stroke-opacity: 0.99"/>
    <path d="M 259.509587 532.225264 
C 264.674781 532.225264 269.629117 530.173111 273.28146 526.520767 
C 276.933804 522.868424 278.985957 517.914088 278.985957 512.748894 
C 278.985957 507.583701 276.933804 502.629364 273.28146 498.977021 
C 269.629117 495.324677 264.674781 493.272524 259.509587 493.272524 
C 254.344393 493.272524 249.390057 495.324677 245.737714 498.977021 
C 242.08537 502.629364 240.033217 507.583701 240.033217 512.748894 
C 240.033217 517.914088 242.08537 522.868424 245.737714 526.520767 
C 249.390057 530.173111 254.344393 532.225264 259.509587 532.225264 
z
" clip-path="url(#p74ef4234a6)" style="fill: #d62728; fill-opacity: 0.99; stroke: #d62728; stroke-opacity: 0.99"/>
    <path d="M 348.664323 522.826506 
C 353.808423 522.826506 358.742527 520.782734 362.379954 517.145306 
C 366.017382 513.507878 368.061155 508.573774 368.061155 503.429675 
C 368.061155 498.285575 366.017382 493.351471 362.379954 489.714043 
C 358.742527 486.076616 353.808423 484.032843 348.664323 484.032843 
C 343.520223 484.032843 338.58612 486.076616 334.948692 489.714043 
C 331.311264 493.351471 329.267492 498.285575 329.267492 503.429675 
C 329.267492 508.573774 331.311264 513.507878 334.948692 517.145306 
C 338.58612 520.782734 343.520223 522.826506 348.664323 522.826506 
z
" clip-path="url(#p74ef4234a6)" style="fill: #d62728; fill-opacity: 0.99; stroke: #d62728; stroke-opacity: 0.99"/>
    <path d="M 426.299888 478.23362 
C 431.439878 478.23362 436.37004 476.19148 440.004562 472.556958 
C 443.639083 468.922436 445.681223 463.992275 445.681223 458.852285 
C 445.681223 453.712295 443.639083 448.782134 440.004562 445.147612 
C 436.37004 441.51309 431.439878 439.47095 426.299888 439.47095 
C 421.159898 439.47095 416.229737 441.51309 412.595215 445.147612 
C 408.960693 448.782134 406.918554 453.712295 406.918554 458.852285 
C 406.918554 463.992275 408.960693 468.922436 412.595215 472.556958 
C 416.229737 476.19148 421.159898 478.23362 426.299888 478.23362 
z
" clip-path="url(#p74ef4234a6)" style="fill: #d62728; fill-opacity: 0.99; stroke: #d62728; stroke-opacity: 0.99"/>
    <path d="M 478.992374 406.089501 
C 484.128009 406.089501 489.053994 404.049092 492.685437 400.417649 
C 496.31688 396.786206 498.35729 391.860221 498.35729 386.724585 
C 498.35729 381.588949 496.31688 376.662964 492.685437 373.031521 
C 489.053994 369.400078 484.128009 367.359668 478.992374 367.359668 
C 473.856738 367.359668 468.930753 369.400078 465.29931 373.031521 
C 461.667867 376.662964 459.627457 381.588949 459.627457 386.724585 
C 459.627457 391.860221 461.667867 396.786206 465.29931 400.417649 
C 468.930753 404.049092 473.856738 406.089501 478.992374 406.089501 
z
" clip-path="url(#p74ef4234a6)" style="fill: #d62728; fill-opacity: 0.99; stroke: #d62728; stroke-opacity: 0.99"/>
   </g>
   <g id="text_1">
    <g id="patch_2">
     <path d="M 464.209129 307.833281 
L 531.05241 307.833281 
L 531.05241 291.202969 
L 464.209129 291.202969 
z
" clip-path="url(#p74ef4234a6)" style="fill: #ffffff; opacity: 0.7; stroke: #000000; stroke-linejoin: miter"/>
    </g>
    <g clip-path="url(#p74ef4234a6)">
     <!-- Stanley Tucci -->
     <g transform="translate(468.169129 302.001562)scale(0.09 -0.09)">
      <defs>
       <path id="DejaVuSans-53" d="M 3425 4513 
L 3425 3897 
Q 3066 4069 2747 4153 
Q 2428 4238 2131 4238 
Q 1616 4238 1336 4038 
Q 1056 3838 1056 3469 
Q 1056 3159 1242 3001 
Q 1428 2844 1947 2747 
L 2328 2669 
Q 3034 2534 3370 2195 
Q 3706 1856 3706 1288 
Q 3706 609 3251 259 
Q 2797 -91 1919 -91 
Q 1588 -91 1214 -16 
Q 841 59 441 206 
L 441 856 
Q 825 641 1194 531 
Q 1563 422 1919 422 
Q 2459 422 2753 634 
Q 3047 847 3047 1241 
Q 3047 1584 2836 1778 
Q 2625 1972 2144 2069 
L 1759 2144 
Q 1053 2284 737 2584 
Q 422 2884 422 3419 
Q 422 4038 858 4394 
Q 1294 4750 2059 4750 
Q 2388 4750 2728 4690 
Q 3069 4631 3425 4513 
z
" transform="scale(0.015625)"/>
       <path id="DejaVuSans-74" d="M 1172 4494 
L 1172 3500 
L 2356 3500 
L 2356 3053 
L 1172 3053 
L 1172 1153 
Q 1172 725 1289 603 
Q 1406 481 1766 481 
L 2356 481 
L 2356 0 
L 1766 0 
Q 1100 0 847 248 
Q 594 497 594 1153 
L 594 3053 
L 172 3053 
L 172 3500 
L 594 3500 
L 594 4494 
L 1172 4494 
z
" transform="scale(0.015625)"/>
       <path id="DejaVuSans-61" d="M 2194 1759 
Q 1497 1759 1228 1600 
Q 959 1441 959 1056 
Q 959 750 1161 570 
Q 1363 391 1709 391 
Q 2188 391 2477 730 
Q 2766 1069 2766 1631 
L 2766 1759 
L 2194 1759 
z
M 3341 1997 
L 3341 0 
L 2766 0 
L 2766 531 
Q 2569 213 2275 61 
Q 1981 -91 1556 -91 
Q 1019 -91 701 211 
Q 384 513 384 1019 
Q 384 1609 779 1909 
Q 1175 2209 1959 2209 
L 2766 2209 
L 2766 2266 
Q 2766 2663 2505 2880 
Q 2244 3097 1772 3097 
Q 1472 3097 1187 3025 
Q 903 2953 641 2809 
L 641 3341 
Q 956 3463 1253 3523 
Q 1550 3584 1831 3584 
Q 2591 3584 2966 3190 
Q 3341 2797 3341 1997 
z
" transform="scale(0.015625)"/>
       <path id="DejaVuSans-6e" d="M 3513 2113 
L 3513 0 
L 2938 0 
L 2938 2094 
Q 2938 2591 2744 2837 
Q 2550 3084 2163 3084 
Q 1697 3084 1428 2787 
Q 1159 2491 1159 1978 
L 1159 0 
L 581 0 
L 581 3500 
L 1159 3500 
L 1159 2956 
Q 1366 3272 1645 3428 
Q 1925 3584 2291 3584 
Q 2894 3584 3203 3211 
Q 3513 2838 3513 2113 
z
" transform="scale(0.015625)"/>
       <path id="DejaVuSans-6c" d="M 603 4863 
L 1178 4863 
L 1178 0 
L 603 0 
L 603 4863 
z
" transform="scale(0.015625)"/>
       <path id="DejaVuSans-65" d="M 3597 1894 
L 3597 1613 
L 953 1613 
Q 991 1019 1311 708 
Q 1631 397 2203 397 
Q 2534 397 2845 478 
Q 3156 559 3463 722 
L 3463 178 
Q 3153 47 2828 -22 
Q 2503 -91 2169 -91 
Q 1331 -91 842 396 
Q 353 884 353 1716 
Q 353 2575 817 3079 
Q 1281 3584 2069 3584 
Q 2775 3584 3186 3129 
Q 3597 2675 3597 1894 
z
M 3022 2063 
Q 3016 2534 2758 2815 
Q 2500 3097 2075 3097 
Q 1594 3097 1305 2825 
Q 1016 2553 972 2059 
L 3022 2063 
z
" transform="scale(0.015625)"/>
       <path id="DejaVuSans-79" d="M 2059 -325 
Q 1816 -950 1584 -1140 
Q 1353 -1331 966 -1331 
L 506 -1331 
L 506 -850 
L 844 -850 
Q 1081 -850 1212 -737 
Q 1344 -625 1503 -206 
L 1606 56 
L 191 3500 
L 800 3500 
L 1894 763 
L 2988 3500 
L 3597 3500 
L 2059 -325 
z
" transform="scale(0.015625)"/>
       <path id="DejaVuSans-20" transform="scale(0.015625)"/>
       <path id="DejaVuSans-54" d="M -19 4666 
L 3928 4666 
L 3928 4134 
L 2272 4134 
L 2272 0 
L 1638 0 
L 1638 4134 
L -19 4134 
L -19 4666 
z
" transform="scale(0.015625)"/>
       <path id="DejaVuSans-75" d="M 544 1381 
L 544 3500 
L 1119 3500 
L 1119 1403 
Q 1119 906 1312 657 
Q 1506 409 1894 409 
Q 2359 409 2629 706 
Q 2900 1003 2900 1516 
L 2900 3500 
L 3475 3500 
L 3475 0 
L 2900 0 
L 2900 538 
Q 2691 219 2414 64 
Q 2138 -91 1772 -91 
Q 1169 -91 856 284 
Q 544 659 544 1381 
z
M 1991 3584 
L 1991 3584 
z
" transform="scale(0.015625)"/>
       <path id="DejaVuSans-63" d="M 3122 3366 
L 3122 2828 
Q 2878 2963 2633 3030 
Q 2388 3097 2138 3097 
Q 1578 3097 1268 2742 
Q 959 2388 959 1747 
Q 959 1106 1268 751 
Q 1578 397 2138 397 
Q 2388 397 2633 464 
Q 2878 531 3122 666 
L 3122 134 
Q 2881 22 2623 -34 
Q 2366 -91 2075 -91 
Q 1284 -91 818 406 
Q 353 903 353 1747 
Q 353 2603 823 3093 
Q 1294 3584 2113 3584 
Q 2378 3584 2631 3529 
Q 2884 3475 3122 3366 
z
" transform="scale(0.015625)"/>
       <path id="DejaVuSans-69" d="M 603 3500 
L 1178 3500 
L 1178 0 
L 603 0 
L 603 3500 
z
M 603 4863 
L 1178 4863 
L 1178 4134 
L 603 4134 
L 603 4863 
z
" transform="scale(0.015625)"/>
      </defs>
      <use xlink:href="#DejaVuSans-53"/>
      <use xlink:href="#DejaVuSans-74" x="63.476562"/>
      <use xlink:href="#DejaVuSans-61" x="102.685547"/>
      <use xlink:href="#DejaVuSans-6e" x="163.964844"/>
      <use xlink:href="#DejaVuSans-6c" x="227.34375"/>
      <use xlink:href="#DejaVuSans-65" x="255.126953"/>
      <use xlink:href="#DejaVuSans-79" x="316.650391"/>
      <use xlink:href="#DejaVuSans-20" x="375.830078"/>
      <use xlink:href="#DejaVuSans-54" x="407.617188"/>
      <use xlink:href="#DejaVuSans-75" x="453.576172"/>
      <use xlink:href="#DejaVuSans-63" x="516.955078"/>
      <use xlink:href="#DejaVuSans-63" x="571.935547"/>
      <use xlink:href="#DejaVuSans-69" x="626.916016"/>
     </g>
    </g>
   </g>
   <g id="text_2">
    <g id="patch_3">
     <path d="M 444.96391 220.62679 
L 513.020785 220.62679 
L 513.020785 203.996477 
L 444.96391 203.996477 
z
" clip-path="url(#p74ef4234a6)" style="fill: #ffffff; opacity: 0.7; stroke: #000000; stroke-linejoin: miter"/>
    </g>
    <g clip-path="url(#p74ef4234a6)">
     <!-- Kevin Spacey -->
     <g transform="translate(448.92391 214.795071)scale(0.09 -0.09)">
      <defs>
       <path id="DejaVuSans-4b" d="M 628 4666 
L 1259 4666 
L 1259 2694 
L 3353 4666 
L 4166 4666 
L 1850 2491 
L 4331 0 
L 3500 0 
L 1259 2247 
L 1259 0 
L 628 0 
L 628 4666 
z
" transform="scale(0.015625)"/>
       <path id="DejaVuSans-76" d="M 191 3500 
L 800 3500 
L 1894 563 
L 2988 3500 
L 3597 3500 
L 2284 0 
L 1503 0 
L 191 3500 
z
" transform="scale(0.015625)"/>
       <path id="DejaVuSans-70" d="M 1159 525 
L 1159 -1331 
L 581 -1331 
L 581 3500 
L 1159 3500 
L 1159 2969 
Q 1341 3281 1617 3432 
Q 1894 3584 2278 3584 
Q 2916 3584 3314 3078 
Q 3713 2572 3713 1747 
Q 3713 922 3314 415 
Q 2916 -91 2278 -91 
Q 1894 -91 1617 61 
Q 1341 213 1159 525 
z
M 3116 1747 
Q 3116 2381 2855 2742 
Q 2594 3103 2138 3103 
Q 1681 3103 1420 2742 
Q 1159 2381 1159 1747 
Q 1159 1113 1420 752 
Q 1681 391 2138 391 
Q 2594 391 2855 752 
Q 3116 1113 3116 1747 
z
" transform="scale(0.015625)"/>
      </defs>
      <use xlink:href="#DejaVuSans-4b"/>
      <use xlink:href="#DejaVuSans-65" x="60.576172"/>
      <use xlink:href="#DejaVuSans-76" x="122.099609"/>
      <use xlink:href="#DejaVuSans-69" x="181.279297"/>
      <use xlink:href="#DejaVuSans-6e" x="209.0625"/>
      <use xlink:href="#DejaVuSans-20" x="272.441406"/>
      <use xlink:href="#DejaVuSans-53" x="304.228516"/>
      <use xlink:href="#DejaVuSans-70" x="367.705078"/>
      <use xlink:href="#DejaVuSans-61" x="431.181641"/>
      <use xlink:href="#DejaVuSans-63" x="492.460938"/>
      <use xlink:href="#DejaVuSans-65" x="547.441406"/>
      <use xlink:href="#DejaVuSans-79" x="608.964844"/>
     </g>
    </g>
   </g>
   <g id="text_3">
    <g id="patch_4">
     <path d="M 380.672662 148.499083 
L 471.927037 148.499083 
L 471.927037 131.86877 
L 380.672662 131.86877 
z
" clip-path="url(#p74ef4234a6)" style="fill: #ffffff; opacity: 0.7; stroke: #000000; stroke-linejoin: miter"/>
    </g>
    <g clip-path="url(#p74ef4234a6)">
     <!-- Hayden Panettiere -->
     <g transform="translate(384.632662 142.667364)scale(0.09 -0.09)">
      <defs>
       <path id="DejaVuSans-48" d="M 628 4666 
L 1259 4666 
L 1259 2753 
L 3553 2753 
L 3553 4666 
L 4184 4666 
L 4184 0 
L 3553 0 
L 3553 2222 
L 1259 2222 
L 1259 0 
L 628 0 
L 628 4666 
z
" transform="scale(0.015625)"/>
       <path id="DejaVuSans-64" d="M 2906 2969 
L 2906 4863 
L 3481 4863 
L 3481 0 
L 2906 0 
L 2906 525 
Q 2725 213 2448 61 
Q 2172 -91 1784 -91 
Q 1150 -91 751 415 
Q 353 922 353 1747 
Q 353 2572 751 3078 
Q 1150 3584 1784 3584 
Q 2172 3584 2448 3432 
Q 2725 3281 2906 2969 
z
M 947 1747 
Q 947 1113 1208 752 
Q 1469 391 1925 391 
Q 2381 391 2643 752 
Q 2906 1113 2906 1747 
Q 2906 2381 2643 2742 
Q 2381 3103 1925 3103 
Q 1469 3103 1208 2742 
Q 947 2381 947 1747 
z
" transform="scale(0.015625)"/>
       <path id="DejaVuSans-50" d="M 1259 4147 
L 1259 2394 
L 2053 2394 
Q 2494 2394 2734 2622 
Q 2975 2850 2975 3272 
Q 2975 3691 2734 3919 
Q 2494 4147 2053 4147 
L 1259 4147 
z
M 628 4666 
L 2053 4666 
Q 2838 4666 3239 4311 
Q 3641 3956 3641 3272 
Q 3641 2581 3239 2228 
Q 2838 1875 2053 1875 
L 1259 1875 
L 1259 0 
L 628 0 
L 628 4666 
z
" transform="scale(0.015625)"/>
       <path id="DejaVuSans-72" d="M 2631 2963 
Q 2534 3019 2420 3045 
Q 2306 3072 2169 3072 
Q 1681 3072 1420 2755 
Q 1159 2438 1159 1844 
L 1159 0 
L 581 0 
L 581 3500 
L 1159 3500 
L 1159 2956 
Q 1341 3275 1631 3429 
Q 1922 3584 2338 3584 
Q 2397 3584 2469 3576 
Q 2541 3569 2628 3553 
L 2631 2963 
z
" transform="scale(0.015625)"/>
      </defs>
      <use xlink:href="#DejaVuSans-48"/>
      <use xlink:href="#DejaVuSans-61" x="75.195312"/>
      <use xlink:href="#DejaVuSans-79" x="136.474609"/>
      <use xlink:href="#DejaVuSans-64" x="195.654297"/>
      <use xlink:href="#DejaVuSans-65" x="259.130859"/>
      <use xlink:href="#DejaVuSans-6e" x="320.654297"/>
      <use xlink:href="#DejaVuSans-20" x="384.033203"/>
      <use xlink:href="#DejaVuSans-50" x="415.820312"/>
      <use xlink:href="#DejaVuSans-61" x="471.623047"/>
      <use xlink:href="#DejaVuSans-6e" x="532.902344"/>
      <use xlink:href="#DejaVuSans-65" x="596.28125"/>
      <use xlink:href="#DejaVuSans-74" x="657.804688"/>
      <use xlink:href="#DejaVuSans-74" x="697.013672"/>
      <use xlink:href="#DejaVuSans-69" x="736.222656"/>
      <use xlink:href="#DejaVuSans-65" x="764.005859"/>
      <use xlink:href="#DejaVuSans-72" x="825.529297"/>
      <use xlink:href="#DejaVuSans-65" x="864.392578"/>
     </g>
    </g>
   </g>
   <g id="text_4">
    <g id="patch_5">
     <path d="M 310.90226 103.921719 
L 386.426322 103.921719 
L 386.426322 87.291406 
L 310.90226 87.291406 
z
" clip-path="url(#p74ef4234a6)" style="fill: #ffffff; opacity: 0.7; stroke: #000000; stroke-linejoin: miter"/>
    </g>
    <g clip-path="url(#p74ef4234a6)">
     <!-- Mark Wahlberg -->
     <g transform="translate(314.86226 98.09)scale(0.09 -0.09)">
      <defs>
       <path id="DejaVuSans-4d" d="M 628 4666 
L 1569 4666 
L 2759 1491 
L 3956 4666 
L 4897 4666 
L 4897 0 
L 4281 0 
L 4281 4097 
L 3078 897 
L 2444 897 
L 1241 4097 
L 1241 0 
L 628 0 
L 628 4666 
z
" transform="scale(0.015625)"/>
       <path id="DejaVuSans-6b" d="M 581 4863 
L 1159 4863 
L 1159 1991 
L 2875 3500 
L 3609 3500 
L 1753 1863 
L 3688 0 
L 2938 0 
L 1159 1709 
L 1159 0 
L 581 0 
L 581 4863 
z
" transform="scale(0.015625)"/>
       <path id="DejaVuSans-57" d="M 213 4666 
L 850 4666 
L 1831 722 
L 2809 4666 
L 3519 4666 
L 4500 722 
L 5478 4666 
L 6119 4666 
L 4947 0 
L 4153 0 
L 3169 4050 
L 2175 0 
L 1381 0 
L 213 4666 
z
" transform="scale(0.015625)"/>
       <path id="DejaVuSans-68" d="M 3513 2113 
L 3513 0 
L 2938 0 
L 2938 2094 
Q 2938 2591 2744 2837 
Q 2550 3084 2163 3084 
Q 1697 3084 1428 2787 
Q 1159 2491 1159 1978 
L 1159 0 
L 581 0 
L 581 4863 
L 1159 4863 
L 1159 2956 
Q 1366 3272 1645 3428 
Q 1925 3584 2291 3584 
Q 2894 3584 3203 3211 
Q 3513 2838 3513 2113 
z
" transform="scale(0.015625)"/>
       <path id="DejaVuSans-62" d="M 3116 1747 
Q 3116 2381 2855 2742 
Q 2594 3103 2138 3103 
Q 1681 3103 1420 2742 
Q 1159 2381 1159 1747 
Q 1159 1113 1420 752 
Q 1681 391 2138 391 
Q 2594 391 2855 752 
Q 3116 1113 3116 1747 
z
M 1159 2969 
Q 1341 3281 1617 3432 
Q 1894 3584 2278 3584 
Q 2916 3584 3314 3078 
Q 3713 2572 3713 1747 
Q 3713 922 3314 415 
Q 2916 -91 2278 -91 
Q 1894 -91 1617 61 
Q 1341 213 1159 525 
L 1159 0 
L 581 0 
L 581 4863 
L 1159 4863 
L 1159 2969 
z
" transform="scale(0.015625)"/>
       <path id="DejaVuSans-67" d="M 2906 1791 
Q 2906 2416 2648 2759 
Q 2391 3103 1925 3103 
Q 1463 3103 1205 2759 
Q 947 2416 947 1791 
Q 947 1169 1205 825 
Q 1463 481 1925 481 
Q 2391 481 2648 825 
Q 2906 1169 2906 1791 
z
M 3481 434 
Q 3481 -459 3084 -895 
Q 2688 -1331 1869 -1331 
Q 1566 -1331 1297 -1286 
Q 1028 -1241 775 -1147 
L 775 -588 
Q 1028 -725 1275 -790 
Q 1522 -856 1778 -856 
Q 2344 -856 2625 -561 
Q 2906 -266 2906 331 
L 2906 616 
Q 2728 306 2450 153 
Q 2172 0 1784 0 
Q 1141 0 747 490 
Q 353 981 353 1791 
Q 353 2603 747 3093 
Q 1141 3584 1784 3584 
Q 2172 3584 2450 3431 
Q 2728 3278 2906 2969 
L 2906 3500 
L 3481 3500 
L 3481 434 
z
" transform="scale(0.015625)"/>
      </defs>
      <use xlink:href="#DejaVuSans-4d"/>
      <use xlink:href="#DejaVuSans-61" x="86.279297"/>
      <use xlink:href="#DejaVuSans-72" x="147.558594"/>
      <use xlink:href="#DejaVuSans-6b" x="188.671875"/>
      <use xlink:href="#DejaVuSans-20" x="246.582031"/>
      <use xlink:href="#DejaVuSans-57" x="278.369141"/>
      <use xlink:href="#DejaVuSans-61" x="370.871094"/>
      <use xlink:href="#DejaVuSans-68" x="432.150391"/>
      <use xlink:href="#DejaVuSans-6c" x="495.529297"/>
      <use xlink:href="#DejaVuSans-62" x="523.3125"/>
      <use xlink:href="#DejaVuSans-65" x="586.789062"/>
      <use xlink:href="#DejaVuSans-72" x="648.3125"/>
      <use xlink:href="#DejaVuSans-67" x="687.675781"/>
     </g>
    </g>
   </g>
   <g id="text_5">
    <g id="patch_6">
     <path d="M 235.364939 94.602512 
L 283.654158 94.602512 
L 283.654158 77.9722 
L 235.364939 77.9722 
z
" clip-path="url(#p74ef4234a6)" style="fill: #ffffff; opacity: 0.7; stroke: #000000; stroke-linejoin: miter"/>
    </g>
    <g clip-path="url(#p74ef4234a6)">
     <!-- Joe Ranft -->
     <g transform="translate(239.324939 88.770793)scale(0.09 -0.09)">
      <defs>
       <path id="DejaVuSans-4a" d="M 628 4666 
L 1259 4666 
L 1259 325 
Q 1259 -519 939 -900 
Q 619 -1281 -91 -1281 
L -331 -1281 
L -331 -750 
L -134 -750 
Q 284 -750 456 -515 
Q 628 -281 628 325 
L 628 4666 
z
" transform="scale(0.015625)"/>
       <path id="DejaVuSans-6f" d="M 1959 3097 
Q 1497 3097 1228 2736 
Q 959 2375 959 1747 
Q 959 1119 1226 758 
Q 1494 397 1959 397 
Q 2419 397 2687 759 
Q 2956 1122 2956 1747 
Q 2956 2369 2687 2733 
Q 2419 3097 1959 3097 
z
M 1959 3584 
Q 2709 3584 3137 3096 
Q 3566 2609 3566 1747 
Q 3566 888 3137 398 
Q 2709 -91 1959 -91 
Q 1206 -91 779 398 
Q 353 888 353 1747 
Q 353 2609 779 3096 
Q 1206 3584 1959 3584 
z
" transform="scale(0.015625)"/>
       <path id="DejaVuSans-52" d="M 2841 2188 
Q 3044 2119 3236 1894 
Q 3428 1669 3622 1275 
L 4263 0 
L 3584 0 
L 2988 1197 
Q 2756 1666 2539 1819 
Q 2322 1972 1947 1972 
L 1259 1972 
L 1259 0 
L 628 0 
L 628 4666 
L 2053 4666 
Q 2853 4666 3247 4331 
Q 3641 3997 3641 3322 
Q 3641 2881 3436 2590 
Q 3231 2300 2841 2188 
z
M 1259 4147 
L 1259 2491 
L 2053 2491 
Q 2509 2491 2742 2702 
Q 2975 2913 2975 3322 
Q 2975 3731 2742 3939 
Q 2509 4147 2053 4147 
L 1259 4147 
z
" transform="scale(0.015625)"/>
       <path id="DejaVuSans-66" d="M 2375 4863 
L 2375 4384 
L 1825 4384 
Q 1516 4384 1395 4259 
Q 1275 4134 1275 3809 
L 1275 3500 
L 2222 3500 
L 2222 3053 
L 1275 3053 
L 1275 0 
L 697 0 
L 697 3053 
L 147 3053 
L 147 3500 
L 697 3500 
L 697 3744 
Q 697 4328 969 4595 
Q 1241 4863 1831 4863 
L 2375 4863 
z
" transform="scale(0.015625)"/>
      </defs>
      <use xlink:href="#DejaVuSans-4a"/>
      <use xlink:href="#DejaVuSans-6f" x="29.492188"/>
      <use xlink:href="#DejaVuSans-65" x="90.673828"/>
      <use xlink:href="#DejaVuSans-20" x="152.197266"/>
      <use xlink:href="#DejaVuSans-52" x="183.984375"/>
      <use xlink:href="#DejaVuSans-61" x="251.216797"/>
      <use xlink:href="#DejaVuSans-6e" x="312.496094"/>
      <use xlink:href="#DejaVuSans-66" x="375.875"/>
      <use xlink:href="#DejaVuSans-74" x="409.330078"/>
     </g>
    </g>
   </g>
   <g id="text_6">
    <g id="patch_7">
     <path d="M 142.285126 122.152849 
L 206.21747 122.152849 
L 206.21747 105.522536 
L 142.285126 105.522536 
z
" clip-path="url(#p74ef4234a6)" style="fill: #ffffff; opacity: 0.7; stroke: #000000; stroke-linejoin: miter"/>
    </g>
    <g clip-path="url(#p74ef4234a6)">
     <!-- Lance Guest -->
     <g transform="translate(146.245126 116.32113)scale(0.09 -0.09)">
      <defs>
       <path id="DejaVuSans-4c" d="M 628 4666 
L 1259 4666 
L 1259 531 
L 3531 531 
L 3531 0 
L 628 0 
L 628 4666 
z
" transform="scale(0.015625)"/>
       <path id="DejaVuSans-47" d="M 3809 666 
L 3809 1919 
L 2778 1919 
L 2778 2438 
L 4434 2438 
L 4434 434 
Q 4069 175 3628 42 
Q 3188 -91 2688 -91 
Q 1594 -91 976 548 
Q 359 1188 359 2328 
Q 359 3472 976 4111 
Q 1594 4750 2688 4750 
Q 3144 4750 3555 4637 
Q 3966 4525 4313 4306 
L 4313 3634 
Q 3963 3931 3569 4081 
Q 3175 4231 2741 4231 
Q 1884 4231 1454 3753 
Q 1025 3275 1025 2328 
Q 1025 1384 1454 906 
Q 1884 428 2741 428 
Q 3075 428 3337 486 
Q 3600 544 3809 666 
z
" transform="scale(0.015625)"/>
       <path id="DejaVuSans-73" d="M 2834 3397 
L 2834 2853 
Q 2591 2978 2328 3040 
Q 2066 3103 1784 3103 
Q 1356 3103 1142 2972 
Q 928 2841 928 2578 
Q 928 2378 1081 2264 
Q 1234 2150 1697 2047 
L 1894 2003 
Q 2506 1872 2764 1633 
Q 3022 1394 3022 966 
Q 3022 478 2636 193 
Q 2250 -91 1575 -91 
Q 1294 -91 989 -36 
Q 684 19 347 128 
L 347 722 
Q 666 556 975 473 
Q 1284 391 1588 391 
Q 1994 391 2212 530 
Q 2431 669 2431 922 
Q 2431 1156 2273 1281 
Q 2116 1406 1581 1522 
L 1381 1569 
Q 847 1681 609 1914 
Q 372 2147 372 2553 
Q 372 3047 722 3315 
Q 1072 3584 1716 3584 
Q 2034 3584 2315 3537 
Q 2597 3491 2834 3397 
z
" transform="scale(0.015625)"/>
      </defs>
      <use xlink:href="#DejaVuSans-4c"/>
      <use xlink:href="#DejaVuSans-61" x="55.712891"/>
      <use xlink:href="#DejaVuSans-6e" x="116.992188"/>
      <use xlink:href="#DejaVuSans-63" x="180.371094"/>
      <use xlink:href="#DejaVuSans-65" x="235.351562"/>
      <use xlink:href="#DejaVuSans-20" x="296.875"/>
      <use xlink:href="#DejaVuSans-47" x="328.662109"/>
      <use xlink:href="#DejaVuSans-75" x="406.152344"/>
      <use xlink:href="#DejaVuSans-65" x="469.53125"/>
      <use xlink:href="#DejaVuSans-73" x="531.054688"/>
      <use xlink:href="#DejaVuSans-74" x="583.154297"/>
     </g>
    </g>
   </g>
   <g id="text_7">
    <g id="patch_8">
     <path d="M 71.394524 181.80901 
L 143.86843 181.80901 
L 143.86843 165.178697 
L 71.394524 165.178697 
z
" clip-path="url(#p74ef4234a6)" style="fill: #ffffff; opacity: 0.7; stroke: #000000; stroke-linejoin: miter"/>
    </g>
    <g clip-path="url(#p74ef4234a6)">
     <!-- Sandra McCoy -->
     <g transform="translate(75.354524 175.977291)scale(0.09 -0.09)">
      <defs>
       <path id="DejaVuSans-43" d="M 4122 4306 
L 4122 3641 
Q 3803 3938 3442 4084 
Q 3081 4231 2675 4231 
Q 1875 4231 1450 3742 
Q 1025 3253 1025 2328 
Q 1025 1406 1450 917 
Q 1875 428 2675 428 
Q 3081 428 3442 575 
Q 3803 722 4122 1019 
L 4122 359 
Q 3791 134 3420 21 
Q 3050 -91 2638 -91 
Q 1578 -91 968 557 
Q 359 1206 359 2328 
Q 359 3453 968 4101 
Q 1578 4750 2638 4750 
Q 3056 4750 3426 4639 
Q 3797 4528 4122 4306 
z
" transform="scale(0.015625)"/>
      </defs>
      <use xlink:href="#DejaVuSans-53"/>
      <use xlink:href="#DejaVuSans-61" x="63.476562"/>
      <use xlink:href="#DejaVuSans-6e" x="124.755859"/>
      <use xlink:href="#DejaVuSans-64" x="188.134766"/>
      <use xlink:href="#DejaVuSans-72" x="251.611328"/>
      <use xlink:href="#DejaVuSans-61" x="292.724609"/>
      <use xlink:href="#DejaVuSans-20" x="354.003906"/>
      <use xlink:href="#DejaVuSans-4d" x="385.791016"/>
      <use xlink:href="#DejaVuSans-63" x="472.070312"/>
      <use xlink:href="#DejaVuSans-43" x="527.050781"/>
      <use xlink:href="#DejaVuSans-6f" x="596.875"/>
      <use xlink:href="#DejaVuSans-79" x="658.056641"/>
     </g>
    </g>
   </g>
   <g id="text_8">
    <g id="patch_9">
     <path d="M 32.505793 263.25593 
L 109.832668 263.25593 
L 109.832668 246.625618 
L 32.505793 246.625618 
z
" clip-path="url(#p74ef4234a6)" style="fill: #ffffff; opacity: 0.7; stroke: #000000; stroke-linejoin: miter"/>
    </g>
    <g clip-path="url(#p74ef4234a6)">
     <!-- Jonathan Harris -->
     <g transform="translate(36.465793 257.424211)scale(0.09 -0.09)">
      <use xlink:href="#DejaVuSans-4a"/>
      <use xlink:href="#DejaVuSans-6f" x="29.492188"/>
      <use xlink:href="#DejaVuSans-6e" x="90.673828"/>
      <use xlink:href="#DejaVuSans-61" x="154.052734"/>
      <use xlink:href="#DejaVuSans-74" x="215.332031"/>
      <use xlink:href="#DejaVuSans-68" x="254.541016"/>
      <use xlink:href="#DejaVuSans-61" x="317.919922"/>
      <use xlink:href="#DejaVuSans-6e" x="379.199219"/>
      <use xlink:href="#DejaVuSans-20" x="442.578125"/>
      <use xlink:href="#DejaVuSans-48" x="474.365234"/>
      <use xlink:href="#DejaVuSans-61" x="549.560547"/>
      <use xlink:href="#DejaVuSans-72" x="610.839844"/>
      <use xlink:href="#DejaVuSans-72" x="650.203125"/>
      <use xlink:href="#DejaVuSans-69" x="691.316406"/>
      <use xlink:href="#DejaVuSans-73" x="719.099609"/>
     </g>
    </g>
   </g>
   <g id="text_9">
    <g id="patch_10">
     <path d="M 32.327915 352.410671 
L 110.010572 352.410671 
L 110.010572 335.780358 
L 32.327915 335.780358 
z
" clip-path="url(#p74ef4234a6)" style="fill: #ffffff; opacity: 0.7; stroke: #000000; stroke-linejoin: miter"/>
    </g>
    <g clip-path="url(#p74ef4234a6)">
     <!-- Zachary Quinto -->
     <g transform="translate(36.287915 346.578952)scale(0.09 -0.09)">
      <defs>
       <path id="DejaVuSans-5a" d="M 359 4666 
L 4025 4666 
L 4025 4184 
L 1075 531 
L 4097 531 
L 4097 0 
L 288 0 
L 288 481 
L 3238 4134 
L 359 4134 
L 359 4666 
z
" transform="scale(0.015625)"/>
       <path id="DejaVuSans-51" d="M 2522 4238 
Q 1834 4238 1429 3725 
Q 1025 3213 1025 2328 
Q 1025 1447 1429 934 
Q 1834 422 2522 422 
Q 3209 422 3611 934 
Q 4013 1447 4013 2328 
Q 4013 3213 3611 3725 
Q 3209 4238 2522 4238 
z
M 3406 84 
L 4238 -825 
L 3475 -825 
L 2784 -78 
Q 2681 -84 2626 -87 
Q 2572 -91 2522 -91 
Q 1538 -91 948 567 
Q 359 1225 359 2328 
Q 359 3434 948 4092 
Q 1538 4750 2522 4750 
Q 3503 4750 4090 4092 
Q 4678 3434 4678 2328 
Q 4678 1516 4351 937 
Q 4025 359 3406 84 
z
" transform="scale(0.015625)"/>
      </defs>
      <use xlink:href="#DejaVuSans-5a"/>
      <use xlink:href="#DejaVuSans-61" x="68.505859"/>
      <use xlink:href="#DejaVuSans-63" x="129.785156"/>
      <use xlink:href="#DejaVuSans-68" x="184.765625"/>
      <use xlink:href="#DejaVuSans-61" x="248.144531"/>
      <use xlink:href="#DejaVuSans-72" x="309.423828"/>
      <use xlink:href="#DejaVuSans-79" x="350.537109"/>
      <use xlink:href="#DejaVuSans-20" x="409.716797"/>
      <use xlink:href="#DejaVuSans-51" x="441.503906"/>
      <use xlink:href="#DejaVuSans-75" x="520.214844"/>
      <use xlink:href="#DejaVuSans-69" x="583.59375"/>
      <use xlink:href="#DejaVuSans-6e" x="611.376953"/>
      <use xlink:href="#DejaVuSans-74" x="674.755859"/>
      <use xlink:href="#DejaVuSans-6f" x="713.964844"/>
     </g>
    </g>
   </g>
   <g id="text_10">
    <g id="patch_11">
     <path d="M 50.125005 433.857565 
L 165.137974 433.857565 
L 165.137974 417.227253 
L 50.125005 417.227253 
z
" clip-path="url(#p74ef4234a6)" style="fill: #ffffff; opacity: 0.7; stroke: #000000; stroke-linejoin: miter"/>
    </g>
    <g clip-path="url(#p74ef4234a6)">
     <!-- Arnold Schwarzenegger -->
     <g transform="translate(54.085005 428.025847)scale(0.09 -0.09)">
      <defs>
       <path id="DejaVuSans-41" d="M 2188 4044 
L 1331 1722 
L 3047 1722 
L 2188 4044 
z
M 1831 4666 
L 2547 4666 
L 4325 0 
L 3669 0 
L 3244 1197 
L 1141 1197 
L 716 0 
L 50 0 
L 1831 4666 
z
" transform="scale(0.015625)"/>
       <path id="DejaVuSans-77" d="M 269 3500 
L 844 3500 
L 1563 769 
L 2278 3500 
L 2956 3500 
L 3675 769 
L 4391 3500 
L 4966 3500 
L 4050 0 
L 3372 0 
L 2619 2869 
L 1863 0 
L 1184 0 
L 269 3500 
z
" transform="scale(0.015625)"/>
       <path id="DejaVuSans-7a" d="M 353 3500 
L 3084 3500 
L 3084 2975 
L 922 459 
L 3084 459 
L 3084 0 
L 275 0 
L 275 525 
L 2438 3041 
L 353 3041 
L 353 3500 
z
" transform="scale(0.015625)"/>
      </defs>
      <use xlink:href="#DejaVuSans-41"/>
      <use xlink:href="#DejaVuSans-72" x="68.408203"/>
      <use xlink:href="#DejaVuSans-6e" x="107.771484"/>
      <use xlink:href="#DejaVuSans-6f" x="171.150391"/>
      <use xlink:href="#DejaVuSans-6c" x="232.332031"/>
      <use xlink:href="#DejaVuSans-64" x="260.115234"/>
      <use xlink:href="#DejaVuSans-20" x="323.591797"/>
      <use xlink:href="#DejaVuSans-53" x="355.378906"/>
      <use xlink:href="#DejaVuSans-63" x="418.855469"/>
      <use xlink:href="#DejaVuSans-68" x="473.835938"/>
      <use xlink:href="#DejaVuSans-77" x="537.214844"/>
      <use xlink:href="#DejaVuSans-61" x="619.001953"/>
      <use xlink:href="#DejaVuSans-72" x="680.28125"/>
      <use xlink:href="#DejaVuSans-7a" x="721.394531"/>
      <use xlink:href="#DejaVuSans-65" x="773.884766"/>
      <use xlink:href="#DejaVuSans-6e" x="835.408203"/>
      <use xlink:href="#DejaVuSans-65" x="898.787109"/>
      <use xlink:href="#DejaVuSans-67" x="960.310547"/>
      <use xlink:href="#DejaVuSans-67" x="1023.787109"/>
      <use xlink:href="#DejaVuSans-65" x="1087.263672"/>
      <use xlink:href="#DejaVuSans-72" x="1148.787109"/>
     </g>
    </g>
   </g>
   <g id="text_11">
    <g id="patch_12">
     <path d="M 138.402502 493.513727 
L 210.100158 493.513727 
L 210.100158 476.883414 
L 138.402502 476.883414 
z
" clip-path="url(#p74ef4234a6)" style="fill: #ffffff; opacity: 0.7; stroke: #000000; stroke-linejoin: miter"/>
    </g>
    <g clip-path="url(#p74ef4234a6)">
     <!-- Lara Robinson -->
     <g transform="translate(142.362502 487.682008)scale(0.09 -0.09)">
      <use xlink:href="#DejaVuSans-4c"/>
      <use xlink:href="#DejaVuSans-61" x="55.712891"/>
      <use xlink:href="#DejaVuSans-72" x="116.992188"/>
      <use xlink:href="#DejaVuSans-61" x="158.105469"/>
      <use xlink:href="#DejaVuSans-20" x="219.384766"/>
      <use xlink:href="#DejaVuSans-52" x="251.171875"/>
      <use xlink:href="#DejaVuSans-6f" x="316.154297"/>
      <use xlink:href="#DejaVuSans-62" x="377.335938"/>
      <use xlink:href="#DejaVuSans-69" x="440.8125"/>
      <use xlink:href="#DejaVuSans-6e" x="468.595703"/>
      <use xlink:href="#DejaVuSans-73" x="531.974609"/>
      <use xlink:href="#DejaVuSans-6f" x="584.074219"/>
      <use xlink:href="#DejaVuSans-6e" x="645.255859"/>
     </g>
    </g>
   </g>
   <g id="text_12">
    <g id="patch_13">
     <path d="M 204.310056 521.06405 
L 314.709118 521.06405 
L 314.709118 504.433738 
L 204.310056 504.433738 
z
" clip-path="url(#p74ef4234a6)" style="fill: #ffffff; opacity: 0.7; stroke: #000000; stroke-linejoin: miter"/>
    </g>
    <g clip-path="url(#p74ef4234a6)">
     <!-- Thomas Haden Church -->
     <g transform="translate(208.270056 515.232332)scale(0.09 -0.09)">
      <defs>
       <path id="DejaVuSans-6d" d="M 3328 2828 
Q 3544 3216 3844 3400 
Q 4144 3584 4550 3584 
Q 5097 3584 5394 3201 
Q 5691 2819 5691 2113 
L 5691 0 
L 5113 0 
L 5113 2094 
Q 5113 2597 4934 2840 
Q 4756 3084 4391 3084 
Q 3944 3084 3684 2787 
Q 3425 2491 3425 1978 
L 3425 0 
L 2847 0 
L 2847 2094 
Q 2847 2600 2669 2842 
Q 2491 3084 2119 3084 
Q 1678 3084 1418 2786 
Q 1159 2488 1159 1978 
L 1159 0 
L 581 0 
L 581 3500 
L 1159 3500 
L 1159 2956 
Q 1356 3278 1631 3431 
Q 1906 3584 2284 3584 
Q 2666 3584 2933 3390 
Q 3200 3197 3328 2828 
z
" transform="scale(0.015625)"/>
      </defs>
      <use xlink:href="#DejaVuSans-54"/>
      <use xlink:href="#DejaVuSans-68" x="61.083984"/>
      <use xlink:href="#DejaVuSans-6f" x="124.462891"/>
      <use xlink:href="#DejaVuSans-6d" x="185.644531"/>
      <use xlink:href="#DejaVuSans-61" x="283.056641"/>
      <use xlink:href="#DejaVuSans-73" x="344.335938"/>
      <use xlink:href="#DejaVuSans-20" x="396.435547"/>
      <use xlink:href="#DejaVuSans-48" x="428.222656"/>
      <use xlink:href="#DejaVuSans-61" x="503.417969"/>
      <use xlink:href="#DejaVuSans-64" x="564.697266"/>
      <use xlink:href="#DejaVuSans-65" x="628.173828"/>
      <use xlink:href="#DejaVuSans-6e" x="689.697266"/>
      <use xlink:href="#DejaVuSans-20" x="753.076172"/>
      <use xlink:href="#DejaVuSans-43" x="784.863281"/>
      <use xlink:href="#DejaVuSans-68" x="854.6875"/>
      <use xlink:href="#DejaVuSans-75" x="918.066406"/>
      <use xlink:href="#DejaVuSans-72" x="981.445312"/>
      <use xlink:href="#DejaVuSans-63" x="1020.308594"/>
      <use xlink:href="#DejaVuSans-68" x="1075.289062"/>
     </g>
    </g>
   </g>
   <g id="text_13">
    <g id="patch_14">
     <path d="M 312.657995 511.744831 
L 384.670651 511.744831 
L 384.670651 495.114518 
L 312.657995 495.114518 
z
" clip-path="url(#p74ef4234a6)" style="fill: #ffffff; opacity: 0.7; stroke: #000000; stroke-linejoin: miter"/>
    </g>
    <g clip-path="url(#p74ef4234a6)">
     <!-- Liev Schreiber -->
     <g transform="translate(316.617995 505.913112)scale(0.09 -0.09)">
      <use xlink:href="#DejaVuSans-4c"/>
      <use xlink:href="#DejaVuSans-69" x="55.712891"/>
      <use xlink:href="#DejaVuSans-65" x="83.496094"/>
      <use xlink:href="#DejaVuSans-76" x="145.019531"/>
      <use xlink:href="#DejaVuSans-20" x="204.199219"/>
      <use xlink:href="#DejaVuSans-53" x="235.986328"/>
      <use xlink:href="#DejaVuSans-63" x="299.462891"/>
      <use xlink:href="#DejaVuSans-68" x="354.443359"/>
      <use xlink:href="#DejaVuSans-72" x="417.822266"/>
      <use xlink:href="#DejaVuSans-65" x="456.685547"/>
      <use xlink:href="#DejaVuSans-69" x="518.208984"/>
      <use xlink:href="#DejaVuSans-62" x="545.992188"/>
      <use xlink:href="#DejaVuSans-65" x="609.46875"/>
      <use xlink:href="#DejaVuSans-72" x="670.992188"/>
     </g>
    </g>
   </g>
   <g id="text_14">
    <g id="patch_15">
     <path d="M 391.852388 467.167441 
L 460.747388 467.167441 
L 460.747388 450.537129 
L 391.852388 450.537129 
z
" clip-path="url(#p74ef4234a6)" style="fill: #ffffff; opacity: 0.7; stroke: #000000; stroke-linejoin: miter"/>
    </g>
    <g clip-path="url(#p74ef4234a6)">
     <!-- Kirsten Dunst -->
     <g transform="translate(395.812388 461.335723)scale(0.09 -0.09)">
      <defs>
       <path id="DejaVuSans-44" d="M 1259 4147 
L 1259 519 
L 2022 519 
Q 2988 519 3436 956 
Q 3884 1394 3884 2338 
Q 3884 3275 3436 3711 
Q 2988 4147 2022 4147 
L 1259 4147 
z
M 628 4666 
L 1925 4666 
Q 3281 4666 3915 4102 
Q 4550 3538 4550 2338 
Q 4550 1131 3912 565 
Q 3275 0 1925 0 
L 628 0 
L 628 4666 
z
" transform="scale(0.015625)"/>
      </defs>
      <use xlink:href="#DejaVuSans-4b"/>
      <use xlink:href="#DejaVuSans-69" x="65.576172"/>
      <use xlink:href="#DejaVuSans-72" x="93.359375"/>
      <use xlink:href="#DejaVuSans-73" x="134.472656"/>
      <use xlink:href="#DejaVuSans-74" x="186.572266"/>
      <use xlink:href="#DejaVuSans-65" x="225.78125"/>
      <use xlink:href="#DejaVuSans-6e" x="287.304688"/>
      <use xlink:href="#DejaVuSans-20" x="350.683594"/>
      <use xlink:href="#DejaVuSans-44" x="382.470703"/>
      <use xlink:href="#DejaVuSans-75" x="459.472656"/>
      <use xlink:href="#DejaVuSans-6e" x="522.851562"/>
      <use xlink:href="#DejaVuSans-73" x="586.230469"/>
      <use xlink:href="#DejaVuSans-74" x="638.330078"/>
     </g>
    </g>
   </g>
   <g id="text_15">
    <g id="patch_16">
     <path d="M 442.540967 395.039741 
L 515.44378 395.039741 
L 515.44378 378.409428 
L 442.540967 378.409428 
z
" clip-path="url(#p74ef4234a6)" style="fill: #ffffff; opacity: 0.7; stroke: #000000; stroke-linejoin: miter"/>
    </g>
    <g clip-path="url(#p74ef4234a6)">
     <!-- Jack Nicholson -->
     <g transform="translate(446.500967 389.208022)scale(0.09 -0.09)">
      <defs>
       <path id="DejaVuSans-4e" d="M 628 4666 
L 1478 4666 
L 3547 763 
L 3547 4666 
L 4159 4666 
L 4159 0 
L 3309 0 
L 1241 3903 
L 1241 0 
L 628 0 
L 628 4666 
z
" transform="scale(0.015625)"/>
      </defs>
      <use xlink:href="#DejaVuSans-4a"/>
      <use xlink:href="#DejaVuSans-61" x="29.492188"/>
      <use xlink:href="#DejaVuSans-63" x="90.771484"/>
      <use xlink:href="#DejaVuSans-6b" x="145.751953"/>
      <use xlink:href="#DejaVuSans-20" x="203.662109"/>
      <use xlink:href="#DejaVuSans-4e" x="235.449219"/>
      <use xlink:href="#DejaVuSans-69" x="310.253906"/>
      <use xlink:href="#DejaVuSans-63" x="338.037109"/>
      <use xlink:href="#DejaVuSans-68" x="393.017578"/>
      <use xlink:href="#DejaVuSans-6f" x="456.396484"/>
      <use xlink:href="#DejaVuSans-6c" x="517.578125"/>
      <use xlink:href="#DejaVuSans-73" x="545.361328"/>
      <use xlink:href="#DejaVuSans-6f" x="597.460938"/>
      <use xlink:href="#DejaVuSans-6e" x="658.642578"/>
     </g>
    </g>
   </g>
   <g id="text_16">
    <!-- Impactful actors for Black-and-white genre -->
    <g transform="translate(155.999062 16.318125)scale(0.12 -0.12)">
     <defs>
      <path id="DejaVuSans-49" d="M 628 4666 
L 1259 4666 
L 1259 0 
L 628 0 
L 628 4666 
z
" transform="scale(0.015625)"/>
      <path id="DejaVuSans-42" d="M 1259 2228 
L 1259 519 
L 2272 519 
Q 2781 519 3026 730 
Q 3272 941 3272 1375 
Q 3272 1813 3026 2020 
Q 2781 2228 2272 2228 
L 1259 2228 
z
M 1259 4147 
L 1259 2741 
L 2194 2741 
Q 2656 2741 2882 2914 
Q 3109 3088 3109 3444 
Q 3109 3797 2882 3972 
Q 2656 4147 2194 4147 
L 1259 4147 
z
M 628 4666 
L 2241 4666 
Q 2963 4666 3353 4366 
Q 3744 4066 3744 3513 
Q 3744 3084 3544 2831 
Q 3344 2578 2956 2516 
Q 3422 2416 3680 2098 
Q 3938 1781 3938 1306 
Q 3938 681 3513 340 
Q 3088 0 2303 0 
L 628 0 
L 628 4666 
z
" transform="scale(0.015625)"/>
      <path id="DejaVuSans-2d" d="M 313 2009 
L 1997 2009 
L 1997 1497 
L 313 1497 
L 313 2009 
z
" transform="scale(0.015625)"/>
     </defs>
     <use xlink:href="#DejaVuSans-49"/>
     <use xlink:href="#DejaVuSans-6d" x="29.492188"/>
     <use xlink:href="#DejaVuSans-70" x="126.904297"/>
     <use xlink:href="#DejaVuSans-61" x="190.380859"/>
     <use xlink:href="#DejaVuSans-63" x="251.660156"/>
     <use xlink:href="#DejaVuSans-74" x="306.640625"/>
     <use xlink:href="#DejaVuSans-66" x="345.849609"/>
     <use xlink:href="#DejaVuSans-75" x="381.054688"/>
     <use xlink:href="#DejaVuSans-6c" x="444.433594"/>
     <use xlink:href="#DejaVuSans-20" x="472.216797"/>
     <use xlink:href="#DejaVuSans-61" x="504.003906"/>
     <use xlink:href="#DejaVuSans-63" x="565.283203"/>
     <use xlink:href="#DejaVuSans-74" x="620.263672"/>
     <use xlink:href="#DejaVuSans-6f" x="659.472656"/>
     <use xlink:href="#DejaVuSans-72" x="720.654297"/>
     <use xlink:href="#DejaVuSans-73" x="761.767578"/>
     <use xlink:href="#DejaVuSans-20" x="813.867188"/>
     <use xlink:href="#DejaVuSans-66" x="845.654297"/>
     <use xlink:href="#DejaVuSans-6f" x="880.859375"/>
     <use xlink:href="#DejaVuSans-72" x="942.041016"/>
     <use xlink:href="#DejaVuSans-20" x="983.154297"/>
     <use xlink:href="#DejaVuSans-42" x="1014.941406"/>
     <use xlink:href="#DejaVuSans-6c" x="1083.544922"/>
     <use xlink:href="#DejaVuSans-61" x="1111.328125"/>
     <use xlink:href="#DejaVuSans-63" x="1172.607422"/>
     <use xlink:href="#DejaVuSans-6b" x="1227.587891"/>
     <use xlink:href="#DejaVuSans-2d" x="1285.498047"/>
     <use xlink:href="#DejaVuSans-61" x="1321.582031"/>
     <use xlink:href="#DejaVuSans-6e" x="1382.861328"/>
     <use xlink:href="#DejaVuSans-64" x="1446.240234"/>
     <use xlink:href="#DejaVuSans-2d" x="1509.716797"/>
     <use xlink:href="#DejaVuSans-77" x="1545.800781"/>
     <use xlink:href="#DejaVuSans-68" x="1627.587891"/>
     <use xlink:href="#DejaVuSans-69" x="1690.966797"/>
     <use xlink:href="#DejaVuSans-74" x="1718.75"/>
     <use xlink:href="#DejaVuSans-65" x="1757.958984"/>
     <use xlink:href="#DejaVuSans-20" x="1819.482422"/>
     <use xlink:href="#DejaVuSans-67" x="1851.269531"/>
     <use xlink:href="#DejaVuSans-65" x="1914.746094"/>
     <use xlink:href="#DejaVuSans-6e" x="1976.269531"/>
     <use xlink:href="#DejaVuSans-72" x="2039.648438"/>
     <use xlink:href="#DejaVuSans-65" x="2078.511719"/>
    </g>
   </g>
  </g>
 </g>
 <defs>
  <clipPath id="p74ef4234a6">
   <rect x="7.2" y="22.318125" width="554.4" height="554.4"/>
  </clipPath>
 </defs>
</svg>
