<?xml version="1.0" encoding="utf-8" standalone="no"?>
<!DOCTYPE svg PUBLIC "-//W3C//DTD SVG 1.1//EN"
  "http://www.w3.org/Graphics/SVG/1.1/DTD/svg11.dtd">
<svg xmlns:xlink="http://www.w3.org/1999/xlink" width="568.8pt" height="583.918125pt" viewBox="0 0 568.8 583.918125" xmlns="http://www.w3.org/2000/svg" version="1.1">
 <metadata>
  <rdf:RDF xmlns:dc="http://purl.org/dc/elements/1.1/" xmlns:cc="http://creativecommons.org/ns#" xmlns:rdf="http://www.w3.org/1999/02/22-rdf-syntax-ns#">
   <cc:Work>
    <dc:type rdf:resource="http://purl.org/dc/dcmitype/StillImage"/>
    <dc:date>2022-12-22T19:12:11.621226</dc:date>
    <dc:format>image/svg+xml</dc:format>
    <dc:creator>
     <cc:Agent>
      <dc:title>Matplotlib v3.5.2, https://matplotlib.org/</dc:title>
     </cc:Agent>
    </dc:creator>
   </cc:Work>
  </rdf:RDF>
 </metadata>
 <defs>
  <style type="text/css">*{stroke-linejoin: round; stroke-linecap: butt}</style>
 </defs>
 <g id="figure_1">
  <g id="patch_1">
   <path d="M 0 583.918125 
L 568.8 583.918125 
L 568.8 0 
L 0 0 
z
" style="fill: #ffffff"/>
  </g>
  <g id="axes_1">
   <g id="LineCollection_1">
    <path d="M 259.509549 87.660437 
L 174.251298 115.12207 
" clip-path="url(#pc410977469)" style="fill: none; stroke: #000000; stroke-opacity: 0.3; stroke-width: 5"/>
   </g>
   <g id="PathCollection_1">
    <path d="M 497.630769 327.590794 
C 504.893655 327.590794 511.86005 324.705218 516.995686 319.569583 
C 522.131322 314.433947 525.016897 307.467552 525.016897 300.204666 
C 525.016897 292.94178 522.131322 285.975385 516.995686 280.839749 
C 511.86005 275.704113 504.893655 272.818538 497.630769 272.818538 
C 490.367883 272.818538 483.401488 275.704113 478.265852 280.839749 
C 473.130217 285.975385 470.244641 292.94178 470.244641 300.204666 
C 470.244641 307.467552 473.130217 314.433947 478.265852 319.569583 
C 483.401488 324.705218 490.367883 327.590794 497.630769 327.590794 
z
" clip-path="url(#pc410977469)" style="fill: #d62728; fill-opacity: 0.99; stroke: #d62728; stroke-opacity: 0.99"/>
    <path d="M 478.992348 239.367559 
C 485.911127 239.367559 492.547462 236.618699 497.439778 231.726384 
C 502.332093 226.834068 505.080953 220.197733 505.080953 213.278954 
C 505.080953 206.360175 502.332093 199.723839 497.439778 194.831524 
C 492.547462 189.939208 485.911127 187.190348 478.992348 187.190348 
C 472.073569 187.190348 465.437234 189.939208 460.544918 194.831524 
C 455.652602 199.723839 452.903742 206.360175 452.903742 213.278954 
C 452.903742 220.197733 455.652602 226.834068 460.544918 231.726384 
C 465.437234 236.618699 472.073569 239.367559 478.992348 239.367559 
z
" clip-path="url(#pc410977469)" style="fill: #d62728; fill-opacity: 0.99; stroke: #d62728; stroke-opacity: 0.99"/>
    <path d="M 426.29985 164.61098 
C 432.459856 164.61098 438.368393 162.163583 442.724174 157.807802 
C 447.079956 153.45202 449.527352 147.543483 449.527352 141.383477 
C 449.527352 135.223471 447.079956 129.314934 442.724174 124.959153 
C 438.368393 120.603371 432.459856 118.155975 426.29985 118.155975 
C 420.139844 118.155975 414.231307 120.603371 409.875525 124.959153 
C 405.519744 129.314934 403.072347 135.223471 403.072347 141.383477 
C 403.072347 147.543483 405.519744 153.45202 409.875525 157.807802 
C 414.231307 162.163583 420.139844 164.61098 426.29985 164.61098 
z
" clip-path="url(#pc410977469)" style="fill: #d62728; fill-opacity: 0.99; stroke: #d62728; stroke-opacity: 0.99"/>
    <path d="M 348.664291 119.159579 
C 354.554436 119.159579 360.204129 116.8194 364.36909 112.654438 
C 368.534052 108.489477 370.874231 102.839784 370.874231 96.949639 
C 370.874231 91.059494 368.534052 85.409801 364.36909 81.24484 
C 360.204129 77.079879 354.554436 74.739699 348.664291 74.739699 
C 342.774146 74.739699 337.124453 77.079879 332.959492 81.24484 
C 328.794531 85.409801 326.454351 91.059494 326.454351 96.949639 
C 326.454351 102.839784 328.794531 108.489477 332.959492 112.654438 
C 337.124453 116.8194 342.774146 119.159579 348.664291 119.159579 
z
" clip-path="url(#pc410977469)" style="fill: #d62728; fill-opacity: 0.99; stroke: #d62728; stroke-opacity: 0.99"/>
    <path d="M 259.509549 109.615503 
C 265.3321 109.615503 270.916959 107.302179 275.034124 103.185013 
C 279.15129 99.067848 281.464614 93.482989 281.464614 87.660437 
C 281.464614 81.837886 279.15129 76.253027 275.034124 72.135862 
C 270.916959 68.018696 265.3321 65.705372 259.509549 65.705372 
C 253.686997 65.705372 248.102138 68.018696 243.984973 72.135862 
C 239.867807 76.253027 237.554483 81.837886 237.554483 87.660437 
C 237.554483 93.482989 239.867807 99.067848 243.984973 103.185013 
C 248.102138 107.302179 253.686997 109.615503 259.509549 109.615503 
z
" clip-path="url(#pc410977469)" style="fill: #d62728; fill-opacity: 0.99; stroke: #d62728; stroke-opacity: 0.99"/>
    <path d="M 174.251298 136.449535 
C 179.907408 136.449535 185.33262 134.202338 189.332093 130.202865 
C 193.331567 126.203391 195.578763 120.77818 195.578763 115.12207 
C 195.578763 109.46596 193.331567 104.040748 189.332093 100.041275 
C 185.33262 96.041801 179.907408 93.794605 174.251298 93.794605 
C 168.595188 93.794605 163.169977 96.041801 159.170503 100.041275 
C 155.171029 104.040748 152.923833 109.46596 152.923833 115.12207 
C 152.923833 120.77818 155.171029 126.203391 159.170503 130.202865 
C 163.169977 134.202338 168.595188 136.449535 174.251298 136.449535 
z
" clip-path="url(#pc410977469)" style="fill: #d62728; fill-opacity: 0.99; stroke: #d62728; stroke-opacity: 0.99"/>
    <path d="M 107.631477 195.864654 
C 113.274601 195.864654 118.687356 193.622617 122.677647 189.632326 
C 126.667939 185.642035 128.909975 180.22928 128.909975 174.586156 
C 128.909975 168.943032 126.667939 163.530276 122.677647 159.539985 
C 118.687356 155.549694 113.274601 153.307658 107.631477 153.307658 
C 101.988353 153.307658 96.575598 155.549694 92.585307 159.539985 
C 88.595016 163.530276 86.352979 168.943032 86.352979 174.586156 
C 86.352979 180.22928 88.595016 185.642035 92.585307 189.632326 
C 96.575598 193.622617 101.988353 195.864654 107.631477 195.864654 
z
" clip-path="url(#pc410977469)" style="fill: #d62728; fill-opacity: 0.99; stroke: #d62728; stroke-opacity: 0.99"/>
    <path d="M 71.169231 276.780171 
C 76.74097 276.780171 82.085256 274.566495 86.02507 270.62668 
C 89.964885 266.686866 92.178561 261.34258 92.178561 255.770841 
C 92.178561 250.199101 89.964885 244.854816 86.02507 240.915001 
C 82.085256 236.975186 76.74097 234.761511 71.169231 234.761511 
C 65.597491 234.761511 60.253206 236.975186 56.313391 240.915001 
C 52.373576 244.854816 50.159901 250.199101 50.159901 255.770841 
C 50.159901 261.34258 52.373576 266.686866 56.313391 270.62668 
C 60.253206 274.566495 65.597491 276.780171 71.169231 276.780171 
z
" clip-path="url(#pc410977469)" style="fill: #d62728; fill-opacity: 0.99; stroke: #d62728; stroke-opacity: 0.99"/>
    <path d="M 71.169244 365.512301 
C 76.705033 365.512301 82.014835 363.312909 85.929229 359.398515 
C 89.843623 355.484121 92.043016 350.174318 92.043016 344.638529 
C 92.043016 339.10274 89.843623 333.792937 85.929229 329.878543 
C 82.014835 325.964149 76.705033 323.764757 71.169244 323.764757 
C 65.633455 323.764757 60.323652 325.964149 56.409258 329.878543 
C 52.494864 333.792937 50.295472 339.10274 50.295472 344.638529 
C 50.295472 350.174318 52.494864 355.484121 56.409258 359.398515 
C 60.323652 363.312909 65.633455 365.512301 71.169244 365.512301 
z
" clip-path="url(#pc410977469)" style="fill: #d62728; fill-opacity: 0.99; stroke: #d62728; stroke-opacity: 0.99"/>
    <path d="M 107.63149 446.649364 
C 113.154656 446.649364 118.452352 444.454987 122.35782 440.549519 
C 126.263288 436.64405 128.457666 431.346355 128.457666 425.823188 
C 128.457666 420.300022 126.263288 415.002327 122.35782 411.096858 
C 118.452352 407.19139 113.154656 404.997013 107.63149 404.997013 
C 102.108323 404.997013 96.810628 407.19139 92.90516 411.096858 
C 88.999691 415.002327 86.805314 420.300022 86.805314 425.823188 
C 86.805314 431.346355 88.999691 436.64405 92.90516 440.549519 
C 96.810628 444.454987 102.108323 446.649364 107.63149 446.649364 
z
" clip-path="url(#pc410977469)" style="fill: #d62728; fill-opacity: 0.99; stroke: #d62728; stroke-opacity: 0.99"/>
    <path d="M 174.25133 506.077644 
C 179.765001 506.077644 185.053588 503.88704 188.952341 499.988286 
C 192.851095 496.089532 195.0417 490.800945 195.0417 485.287275 
C 195.0417 479.773604 192.851095 474.485017 188.952341 470.586263 
C 185.053588 466.687509 179.765001 464.496905 174.25133 464.496905 
C 168.73766 464.496905 163.449073 466.687509 159.550319 470.586263 
C 155.651565 474.485017 153.460961 479.773604 153.460961 485.287275 
C 153.460961 490.800945 155.651565 496.089532 159.550319 499.988286 
C 163.449073 503.88704 168.73766 506.077644 174.25133 506.077644 
z
" clip-path="url(#pc410977469)" style="fill: #d62728; fill-opacity: 0.99; stroke: #d62728; stroke-opacity: 0.99"/>
    <path d="M 259.509587 532.907935 
C 264.855827 532.907935 269.983819 530.783851 273.764181 527.003488 
C 277.544544 523.223126 279.668628 518.095134 279.668628 512.748894 
C 279.668628 507.402654 277.544544 502.274663 273.764181 498.4943 
C 269.983819 494.713937 264.855827 492.589854 259.509587 492.589854 
C 254.163347 492.589854 249.035355 494.713937 245.254993 498.4943 
C 241.47463 502.274663 239.350547 507.402654 239.350547 512.748894 
C 239.350547 518.095134 241.47463 523.223126 245.254993 527.003488 
C 249.035355 530.783851 254.163347 532.907935 259.509587 532.907935 
z
" clip-path="url(#pc410977469)" style="fill: #d62728; fill-opacity: 0.99; stroke: #d62728; stroke-opacity: 0.99"/>
    <path d="M 348.664323 523.164198 
C 353.890023 523.164198 358.902394 521.088006 362.597522 517.392878 
C 366.292649 513.697751 368.368842 508.685379 368.368842 503.45968 
C 368.368842 498.23398 366.292649 493.221609 362.597522 489.526481 
C 358.902394 485.831354 353.890023 483.755162 348.664323 483.755162 
C 343.438624 483.755162 338.426252 485.831354 334.731125 489.526481 
C 331.035997 493.221609 328.959805 498.23398 328.959805 503.45968 
C 328.959805 508.685379 331.035997 513.697751 334.731125 517.392878 
C 338.426252 521.088006 343.438624 523.164198 348.664323 523.164198 
z
" clip-path="url(#pc410977469)" style="fill: #d62728; fill-opacity: 0.99; stroke: #d62728; stroke-opacity: 0.99"/>
    <path d="M 426.299888 478.622991 
C 431.49712 478.622991 436.482186 476.558109 440.157184 472.883112 
C 443.832181 469.208114 445.897063 464.223048 445.897063 459.025816 
C 445.897063 453.828585 443.832181 448.843519 440.157184 445.168521 
C 436.482186 441.493523 431.49712 439.428641 426.299888 439.428641 
C 421.102657 439.428641 416.117591 441.493523 412.442593 445.168521 
C 408.767595 448.843519 406.702713 453.828585 406.702713 459.025816 
C 406.702713 464.223048 408.767595 469.208114 412.442593 472.883112 
C 416.117591 476.558109 421.102657 478.622991 426.299888 478.622991 
z
" clip-path="url(#pc410977469)" style="fill: #d62728; fill-opacity: 0.99; stroke: #d62728; stroke-opacity: 0.99"/>
    <path d="M 478.992374 406.495263 
C 484.128009 406.495263 489.053994 404.454853 492.685437 400.82341 
C 496.31688 397.191967 498.35729 392.265982 498.35729 387.130346 
C 498.35729 381.99471 496.31688 377.068725 492.685437 373.437282 
C 489.053994 369.805839 484.128009 367.765429 478.992374 367.765429 
C 473.856738 367.765429 468.930753 369.805839 465.29931 373.437282 
C 461.667867 377.068725 459.627457 381.99471 459.627457 387.130346 
C 459.627457 392.265982 461.667867 397.191967 465.29931 400.82341 
C 468.930753 404.454853 473.856738 406.495263 478.992374 406.495263 
z
" clip-path="url(#pc410977469)" style="fill: #d62728; fill-opacity: 0.99; stroke: #d62728; stroke-opacity: 0.99"/>
   </g>
   <g id="text_1">
    <g id="patch_2">
     <path d="M 474.298269 308.519822 
L 520.963269 308.519822 
L 520.963269 291.88951 
L 474.298269 291.88951 
z
" clip-path="url(#pc410977469)" style="fill: #ffffff; opacity: 0.7; stroke: #000000; stroke-linejoin: miter"/>
    </g>
    <g clip-path="url(#pc410977469)">
     <!-- Brad Pitt -->
     <g transform="translate(478.258269 302.688103)scale(0.09 -0.09)">
      <defs>
       <path id="DejaVuSans-42" d="M 1259 2228 
L 1259 519 
L 2272 519 
Q 2781 519 3026 730 
Q 3272 941 3272 1375 
Q 3272 1813 3026 2020 
Q 2781 2228 2272 2228 
L 1259 2228 
z
M 1259 4147 
L 1259 2741 
L 2194 2741 
Q 2656 2741 2882 2914 
Q 3109 3088 3109 3444 
Q 3109 3797 2882 3972 
Q 2656 4147 2194 4147 
L 1259 4147 
z
M 628 4666 
L 2241 4666 
Q 2963 4666 3353 4366 
Q 3744 4066 3744 3513 
Q 3744 3084 3544 2831 
Q 3344 2578 2956 2516 
Q 3422 2416 3680 2098 
Q 3938 1781 3938 1306 
Q 3938 681 3513 340 
Q 3088 0 2303 0 
L 628 0 
L 628 4666 
z
" transform="scale(0.015625)"/>
       <path id="DejaVuSans-72" d="M 2631 2963 
Q 2534 3019 2420 3045 
Q 2306 3072 2169 3072 
Q 1681 3072 1420 2755 
Q 1159 2438 1159 1844 
L 1159 0 
L 581 0 
L 581 3500 
L 1159 3500 
L 1159 2956 
Q 1341 3275 1631 3429 
Q 1922 3584 2338 3584 
Q 2397 3584 2469 3576 
Q 2541 3569 2628 3553 
L 2631 2963 
z
" transform="scale(0.015625)"/>
       <path id="DejaVuSans-61" d="M 2194 1759 
Q 1497 1759 1228 1600 
Q 959 1441 959 1056 
Q 959 750 1161 570 
Q 1363 391 1709 391 
Q 2188 391 2477 730 
Q 2766 1069 2766 1631 
L 2766 1759 
L 2194 1759 
z
M 3341 1997 
L 3341 0 
L 2766 0 
L 2766 531 
Q 2569 213 2275 61 
Q 1981 -91 1556 -91 
Q 1019 -91 701 211 
Q 384 513 384 1019 
Q 384 1609 779 1909 
Q 1175 2209 1959 2209 
L 2766 2209 
L 2766 2266 
Q 2766 2663 2505 2880 
Q 2244 3097 1772 3097 
Q 1472 3097 1187 3025 
Q 903 2953 641 2809 
L 641 3341 
Q 956 3463 1253 3523 
Q 1550 3584 1831 3584 
Q 2591 3584 2966 3190 
Q 3341 2797 3341 1997 
z
" transform="scale(0.015625)"/>
       <path id="DejaVuSans-64" d="M 2906 2969 
L 2906 4863 
L 3481 4863 
L 3481 0 
L 2906 0 
L 2906 525 
Q 2725 213 2448 61 
Q 2172 -91 1784 -91 
Q 1150 -91 751 415 
Q 353 922 353 1747 
Q 353 2572 751 3078 
Q 1150 3584 1784 3584 
Q 2172 3584 2448 3432 
Q 2725 3281 2906 2969 
z
M 947 1747 
Q 947 1113 1208 752 
Q 1469 391 1925 391 
Q 2381 391 2643 752 
Q 2906 1113 2906 1747 
Q 2906 2381 2643 2742 
Q 2381 3103 1925 3103 
Q 1469 3103 1208 2742 
Q 947 2381 947 1747 
z
" transform="scale(0.015625)"/>
       <path id="DejaVuSans-20" transform="scale(0.015625)"/>
       <path id="DejaVuSans-50" d="M 1259 4147 
L 1259 2394 
L 2053 2394 
Q 2494 2394 2734 2622 
Q 2975 2850 2975 3272 
Q 2975 3691 2734 3919 
Q 2494 4147 2053 4147 
L 1259 4147 
z
M 628 4666 
L 2053 4666 
Q 2838 4666 3239 4311 
Q 3641 3956 3641 3272 
Q 3641 2581 3239 2228 
Q 2838 1875 2053 1875 
L 1259 1875 
L 1259 0 
L 628 0 
L 628 4666 
z
" transform="scale(0.015625)"/>
       <path id="DejaVuSans-69" d="M 603 3500 
L 1178 3500 
L 1178 0 
L 603 0 
L 603 3500 
z
M 603 4863 
L 1178 4863 
L 1178 4134 
L 603 4134 
L 603 4863 
z
" transform="scale(0.015625)"/>
       <path id="DejaVuSans-74" d="M 1172 4494 
L 1172 3500 
L 2356 3500 
L 2356 3053 
L 1172 3053 
L 1172 1153 
Q 1172 725 1289 603 
Q 1406 481 1766 481 
L 2356 481 
L 2356 0 
L 1766 0 
Q 1100 0 847 248 
Q 594 497 594 1153 
L 594 3053 
L 172 3053 
L 172 3500 
L 594 3500 
L 594 4494 
L 1172 4494 
z
" transform="scale(0.015625)"/>
      </defs>
      <use xlink:href="#DejaVuSans-42"/>
      <use xlink:href="#DejaVuSans-72" x="68.603516"/>
      <use xlink:href="#DejaVuSans-61" x="109.716797"/>
      <use xlink:href="#DejaVuSans-64" x="170.996094"/>
      <use xlink:href="#DejaVuSans-20" x="234.472656"/>
      <use xlink:href="#DejaVuSans-50" x="266.259766"/>
      <use xlink:href="#DejaVuSans-69" x="324.3125"/>
      <use xlink:href="#DejaVuSans-74" x="352.095703"/>
      <use xlink:href="#DejaVuSans-74" x="391.304688"/>
     </g>
    </g>
   </g>
   <g id="text_2">
    <g id="patch_3">
     <path d="M 441.619848 221.59411 
L 516.364848 221.59411 
L 516.364848 204.963797 
L 441.619848 204.963797 
z
" clip-path="url(#pc410977469)" style="fill: #ffffff; opacity: 0.7; stroke: #000000; stroke-linejoin: miter"/>
    </g>
    <g clip-path="url(#pc410977469)">
     <!-- Steve Buscemi -->
     <g transform="translate(445.579848 215.762391)scale(0.09 -0.09)">
      <defs>
       <path id="DejaVuSans-53" d="M 3425 4513 
L 3425 3897 
Q 3066 4069 2747 4153 
Q 2428 4238 2131 4238 
Q 1616 4238 1336 4038 
Q 1056 3838 1056 3469 
Q 1056 3159 1242 3001 
Q 1428 2844 1947 2747 
L 2328 2669 
Q 3034 2534 3370 2195 
Q 3706 1856 3706 1288 
Q 3706 609 3251 259 
Q 2797 -91 1919 -91 
Q 1588 -91 1214 -16 
Q 841 59 441 206 
L 441 856 
Q 825 641 1194 531 
Q 1563 422 1919 422 
Q 2459 422 2753 634 
Q 3047 847 3047 1241 
Q 3047 1584 2836 1778 
Q 2625 1972 2144 2069 
L 1759 2144 
Q 1053 2284 737 2584 
Q 422 2884 422 3419 
Q 422 4038 858 4394 
Q 1294 4750 2059 4750 
Q 2388 4750 2728 4690 
Q 3069 4631 3425 4513 
z
" transform="scale(0.015625)"/>
       <path id="DejaVuSans-65" d="M 3597 1894 
L 3597 1613 
L 953 1613 
Q 991 1019 1311 708 
Q 1631 397 2203 397 
Q 2534 397 2845 478 
Q 3156 559 3463 722 
L 3463 178 
Q 3153 47 2828 -22 
Q 2503 -91 2169 -91 
Q 1331 -91 842 396 
Q 353 884 353 1716 
Q 353 2575 817 3079 
Q 1281 3584 2069 3584 
Q 2775 3584 3186 3129 
Q 3597 2675 3597 1894 
z
M 3022 2063 
Q 3016 2534 2758 2815 
Q 2500 3097 2075 3097 
Q 1594 3097 1305 2825 
Q 1016 2553 972 2059 
L 3022 2063 
z
" transform="scale(0.015625)"/>
       <path id="DejaVuSans-76" d="M 191 3500 
L 800 3500 
L 1894 563 
L 2988 3500 
L 3597 3500 
L 2284 0 
L 1503 0 
L 191 3500 
z
" transform="scale(0.015625)"/>
       <path id="DejaVuSans-75" d="M 544 1381 
L 544 3500 
L 1119 3500 
L 1119 1403 
Q 1119 906 1312 657 
Q 1506 409 1894 409 
Q 2359 409 2629 706 
Q 2900 1003 2900 1516 
L 2900 3500 
L 3475 3500 
L 3475 0 
L 2900 0 
L 2900 538 
Q 2691 219 2414 64 
Q 2138 -91 1772 -91 
Q 1169 -91 856 284 
Q 544 659 544 1381 
z
M 1991 3584 
L 1991 3584 
z
" transform="scale(0.015625)"/>
       <path id="DejaVuSans-73" d="M 2834 3397 
L 2834 2853 
Q 2591 2978 2328 3040 
Q 2066 3103 1784 3103 
Q 1356 3103 1142 2972 
Q 928 2841 928 2578 
Q 928 2378 1081 2264 
Q 1234 2150 1697 2047 
L 1894 2003 
Q 2506 1872 2764 1633 
Q 3022 1394 3022 966 
Q 3022 478 2636 193 
Q 2250 -91 1575 -91 
Q 1294 -91 989 -36 
Q 684 19 347 128 
L 347 722 
Q 666 556 975 473 
Q 1284 391 1588 391 
Q 1994 391 2212 530 
Q 2431 669 2431 922 
Q 2431 1156 2273 1281 
Q 2116 1406 1581 1522 
L 1381 1569 
Q 847 1681 609 1914 
Q 372 2147 372 2553 
Q 372 3047 722 3315 
Q 1072 3584 1716 3584 
Q 2034 3584 2315 3537 
Q 2597 3491 2834 3397 
z
" transform="scale(0.015625)"/>
       <path id="DejaVuSans-63" d="M 3122 3366 
L 3122 2828 
Q 2878 2963 2633 3030 
Q 2388 3097 2138 3097 
Q 1578 3097 1268 2742 
Q 959 2388 959 1747 
Q 959 1106 1268 751 
Q 1578 397 2138 397 
Q 2388 397 2633 464 
Q 2878 531 3122 666 
L 3122 134 
Q 2881 22 2623 -34 
Q 2366 -91 2075 -91 
Q 1284 -91 818 406 
Q 353 903 353 1747 
Q 353 2603 823 3093 
Q 1294 3584 2113 3584 
Q 2378 3584 2631 3529 
Q 2884 3475 3122 3366 
z
" transform="scale(0.015625)"/>
       <path id="DejaVuSans-6d" d="M 3328 2828 
Q 3544 3216 3844 3400 
Q 4144 3584 4550 3584 
Q 5097 3584 5394 3201 
Q 5691 2819 5691 2113 
L 5691 0 
L 5113 0 
L 5113 2094 
Q 5113 2597 4934 2840 
Q 4756 3084 4391 3084 
Q 3944 3084 3684 2787 
Q 3425 2491 3425 1978 
L 3425 0 
L 2847 0 
L 2847 2094 
Q 2847 2600 2669 2842 
Q 2491 3084 2119 3084 
Q 1678 3084 1418 2786 
Q 1159 2488 1159 1978 
L 1159 0 
L 581 0 
L 581 3500 
L 1159 3500 
L 1159 2956 
Q 1356 3278 1631 3431 
Q 1906 3584 2284 3584 
Q 2666 3584 2933 3390 
Q 3200 3197 3328 2828 
z
" transform="scale(0.015625)"/>
      </defs>
      <use xlink:href="#DejaVuSans-53"/>
      <use xlink:href="#DejaVuSans-74" x="63.476562"/>
      <use xlink:href="#DejaVuSans-65" x="102.685547"/>
      <use xlink:href="#DejaVuSans-76" x="164.208984"/>
      <use xlink:href="#DejaVuSans-65" x="223.388672"/>
      <use xlink:href="#DejaVuSans-20" x="284.912109"/>
      <use xlink:href="#DejaVuSans-42" x="316.699219"/>
      <use xlink:href="#DejaVuSans-75" x="385.302734"/>
      <use xlink:href="#DejaVuSans-73" x="448.681641"/>
      <use xlink:href="#DejaVuSans-63" x="500.78125"/>
      <use xlink:href="#DejaVuSans-65" x="555.761719"/>
      <use xlink:href="#DejaVuSans-6d" x="617.285156"/>
      <use xlink:href="#DejaVuSans-69" x="714.697266"/>
     </g>
    </g>
   </g>
   <g id="text_3">
    <g id="patch_4">
     <path d="M 390.720319 149.698633 
L 461.879381 149.698633 
L 461.879381 133.068321 
L 390.720319 133.068321 
z
" clip-path="url(#pc410977469)" style="fill: #ffffff; opacity: 0.7; stroke: #000000; stroke-linejoin: miter"/>
    </g>
    <g clip-path="url(#pc410977469)">
     <!-- Adam Sandler -->
     <g transform="translate(394.680319 143.866915)scale(0.09 -0.09)">
      <defs>
       <path id="DejaVuSans-41" d="M 2188 4044 
L 1331 1722 
L 3047 1722 
L 2188 4044 
z
M 1831 4666 
L 2547 4666 
L 4325 0 
L 3669 0 
L 3244 1197 
L 1141 1197 
L 716 0 
L 50 0 
L 1831 4666 
z
" transform="scale(0.015625)"/>
       <path id="DejaVuSans-6e" d="M 3513 2113 
L 3513 0 
L 2938 0 
L 2938 2094 
Q 2938 2591 2744 2837 
Q 2550 3084 2163 3084 
Q 1697 3084 1428 2787 
Q 1159 2491 1159 1978 
L 1159 0 
L 581 0 
L 581 3500 
L 1159 3500 
L 1159 2956 
Q 1366 3272 1645 3428 
Q 1925 3584 2291 3584 
Q 2894 3584 3203 3211 
Q 3513 2838 3513 2113 
z
" transform="scale(0.015625)"/>
       <path id="DejaVuSans-6c" d="M 603 4863 
L 1178 4863 
L 1178 0 
L 603 0 
L 603 4863 
z
" transform="scale(0.015625)"/>
      </defs>
      <use xlink:href="#DejaVuSans-41"/>
      <use xlink:href="#DejaVuSans-64" x="66.658203"/>
      <use xlink:href="#DejaVuSans-61" x="130.134766"/>
      <use xlink:href="#DejaVuSans-6d" x="191.414062"/>
      <use xlink:href="#DejaVuSans-20" x="288.826172"/>
      <use xlink:href="#DejaVuSans-53" x="320.613281"/>
      <use xlink:href="#DejaVuSans-61" x="384.089844"/>
      <use xlink:href="#DejaVuSans-6e" x="445.369141"/>
      <use xlink:href="#DejaVuSans-64" x="508.748047"/>
      <use xlink:href="#DejaVuSans-6c" x="572.224609"/>
      <use xlink:href="#DejaVuSans-65" x="600.007812"/>
      <use xlink:href="#DejaVuSans-72" x="661.53125"/>
     </g>
    </g>
   </g>
   <g id="text_4">
    <g id="patch_5">
     <path d="M 312.867494 105.264795 
L 384.461088 105.264795 
L 384.461088 88.634483 
L 312.867494 88.634483 
z
" clip-path="url(#pc410977469)" style="fill: #ffffff; opacity: 0.7; stroke: #000000; stroke-linejoin: miter"/>
    </g>
    <g clip-path="url(#pc410977469)">
     <!-- Jim Broadbent -->
     <g transform="translate(316.827494 99.433077)scale(0.09 -0.09)">
      <defs>
       <path id="DejaVuSans-4a" d="M 628 4666 
L 1259 4666 
L 1259 325 
Q 1259 -519 939 -900 
Q 619 -1281 -91 -1281 
L -331 -1281 
L -331 -750 
L -134 -750 
Q 284 -750 456 -515 
Q 628 -281 628 325 
L 628 4666 
z
" transform="scale(0.015625)"/>
       <path id="DejaVuSans-6f" d="M 1959 3097 
Q 1497 3097 1228 2736 
Q 959 2375 959 1747 
Q 959 1119 1226 758 
Q 1494 397 1959 397 
Q 2419 397 2687 759 
Q 2956 1122 2956 1747 
Q 2956 2369 2687 2733 
Q 2419 3097 1959 3097 
z
M 1959 3584 
Q 2709 3584 3137 3096 
Q 3566 2609 3566 1747 
Q 3566 888 3137 398 
Q 2709 -91 1959 -91 
Q 1206 -91 779 398 
Q 353 888 353 1747 
Q 353 2609 779 3096 
Q 1206 3584 1959 3584 
z
" transform="scale(0.015625)"/>
       <path id="DejaVuSans-62" d="M 3116 1747 
Q 3116 2381 2855 2742 
Q 2594 3103 2138 3103 
Q 1681 3103 1420 2742 
Q 1159 2381 1159 1747 
Q 1159 1113 1420 752 
Q 1681 391 2138 391 
Q 2594 391 2855 752 
Q 3116 1113 3116 1747 
z
M 1159 2969 
Q 1341 3281 1617 3432 
Q 1894 3584 2278 3584 
Q 2916 3584 3314 3078 
Q 3713 2572 3713 1747 
Q 3713 922 3314 415 
Q 2916 -91 2278 -91 
Q 1894 -91 1617 61 
Q 1341 213 1159 525 
L 1159 0 
L 581 0 
L 581 4863 
L 1159 4863 
L 1159 2969 
z
" transform="scale(0.015625)"/>
      </defs>
      <use xlink:href="#DejaVuSans-4a"/>
      <use xlink:href="#DejaVuSans-69" x="29.492188"/>
      <use xlink:href="#DejaVuSans-6d" x="57.275391"/>
      <use xlink:href="#DejaVuSans-20" x="154.6875"/>
      <use xlink:href="#DejaVuSans-42" x="186.474609"/>
      <use xlink:href="#DejaVuSans-72" x="255.078125"/>
      <use xlink:href="#DejaVuSans-6f" x="293.941406"/>
      <use xlink:href="#DejaVuSans-61" x="355.123047"/>
      <use xlink:href="#DejaVuSans-64" x="416.402344"/>
      <use xlink:href="#DejaVuSans-62" x="479.878906"/>
      <use xlink:href="#DejaVuSans-65" x="543.355469"/>
      <use xlink:href="#DejaVuSans-6e" x="604.878906"/>
      <use xlink:href="#DejaVuSans-74" x="668.257812"/>
     </g>
    </g>
   </g>
   <g id="text_5">
    <g id="patch_6">
     <path d="M 232.420955 95.975594 
L 286.598142 95.975594 
L 286.598142 79.345281 
L 232.420955 79.345281 
z
" clip-path="url(#pc410977469)" style="fill: #ffffff; opacity: 0.7; stroke: #000000; stroke-linejoin: miter"/>
    </g>
    <g clip-path="url(#pc410977469)">
     <!-- Ben Stiller -->
     <g transform="translate(236.380955 90.143875)scale(0.09 -0.09)">
      <use xlink:href="#DejaVuSans-42"/>
      <use xlink:href="#DejaVuSans-65" x="68.603516"/>
      <use xlink:href="#DejaVuSans-6e" x="130.126953"/>
      <use xlink:href="#DejaVuSans-20" x="193.505859"/>
      <use xlink:href="#DejaVuSans-53" x="225.292969"/>
      <use xlink:href="#DejaVuSans-74" x="288.769531"/>
      <use xlink:href="#DejaVuSans-69" x="327.978516"/>
      <use xlink:href="#DejaVuSans-6c" x="355.761719"/>
      <use xlink:href="#DejaVuSans-6c" x="383.544922"/>
      <use xlink:href="#DejaVuSans-65" x="411.328125"/>
      <use xlink:href="#DejaVuSans-72" x="472.851562"/>
     </g>
    </g>
   </g>
   <g id="text_6">
    <g id="patch_7">
     <path d="M 146.664892 123.437226 
L 201.837704 123.437226 
L 201.837704 106.806914 
L 146.664892 106.806914 
z
" clip-path="url(#pc410977469)" style="fill: #ffffff; opacity: 0.7; stroke: #000000; stroke-linejoin: miter"/>
    </g>
    <g clip-path="url(#pc410977469)">
     <!-- Chris Rock -->
     <g transform="translate(150.624892 117.605507)scale(0.09 -0.09)">
      <defs>
       <path id="DejaVuSans-43" d="M 4122 4306 
L 4122 3641 
Q 3803 3938 3442 4084 
Q 3081 4231 2675 4231 
Q 1875 4231 1450 3742 
Q 1025 3253 1025 2328 
Q 1025 1406 1450 917 
Q 1875 428 2675 428 
Q 3081 428 3442 575 
Q 3803 722 4122 1019 
L 4122 359 
Q 3791 134 3420 21 
Q 3050 -91 2638 -91 
Q 1578 -91 968 557 
Q 359 1206 359 2328 
Q 359 3453 968 4101 
Q 1578 4750 2638 4750 
Q 3056 4750 3426 4639 
Q 3797 4528 4122 4306 
z
" transform="scale(0.015625)"/>
       <path id="DejaVuSans-68" d="M 3513 2113 
L 3513 0 
L 2938 0 
L 2938 2094 
Q 2938 2591 2744 2837 
Q 2550 3084 2163 3084 
Q 1697 3084 1428 2787 
Q 1159 2491 1159 1978 
L 1159 0 
L 581 0 
L 581 4863 
L 1159 4863 
L 1159 2956 
Q 1366 3272 1645 3428 
Q 1925 3584 2291 3584 
Q 2894 3584 3203 3211 
Q 3513 2838 3513 2113 
z
" transform="scale(0.015625)"/>
       <path id="DejaVuSans-52" d="M 2841 2188 
Q 3044 2119 3236 1894 
Q 3428 1669 3622 1275 
L 4263 0 
L 3584 0 
L 2988 1197 
Q 2756 1666 2539 1819 
Q 2322 1972 1947 1972 
L 1259 1972 
L 1259 0 
L 628 0 
L 628 4666 
L 2053 4666 
Q 2853 4666 3247 4331 
Q 3641 3997 3641 3322 
Q 3641 2881 3436 2590 
Q 3231 2300 2841 2188 
z
M 1259 4147 
L 1259 2491 
L 2053 2491 
Q 2509 2491 2742 2702 
Q 2975 2913 2975 3322 
Q 2975 3731 2742 3939 
Q 2509 4147 2053 4147 
L 1259 4147 
z
" transform="scale(0.015625)"/>
       <path id="DejaVuSans-6b" d="M 581 4863 
L 1159 4863 
L 1159 1991 
L 2875 3500 
L 3609 3500 
L 1753 1863 
L 3688 0 
L 2938 0 
L 1159 1709 
L 1159 0 
L 581 0 
L 581 4863 
z
" transform="scale(0.015625)"/>
      </defs>
      <use xlink:href="#DejaVuSans-43"/>
      <use xlink:href="#DejaVuSans-68" x="69.824219"/>
      <use xlink:href="#DejaVuSans-72" x="133.203125"/>
      <use xlink:href="#DejaVuSans-69" x="174.316406"/>
      <use xlink:href="#DejaVuSans-73" x="202.099609"/>
      <use xlink:href="#DejaVuSans-20" x="254.199219"/>
      <use xlink:href="#DejaVuSans-52" x="285.986328"/>
      <use xlink:href="#DejaVuSans-6f" x="350.96875"/>
      <use xlink:href="#DejaVuSans-63" x="412.150391"/>
      <use xlink:href="#DejaVuSans-6b" x="467.130859"/>
     </g>
    </g>
   </g>
   <g id="text_7">
    <g id="patch_8">
     <path d="M 79.177415 182.901312 
L 136.08554 182.901312 
L 136.08554 166.271 
L 79.177415 166.271 
z
" clip-path="url(#pc410977469)" style="fill: #ffffff; opacity: 0.7; stroke: #000000; stroke-linejoin: miter"/>
    </g>
    <g clip-path="url(#pc410977469)">
     <!-- Tom Hanks -->
     <g transform="translate(83.137415 177.069593)scale(0.09 -0.09)">
      <defs>
       <path id="DejaVuSans-54" d="M -19 4666 
L 3928 4666 
L 3928 4134 
L 2272 4134 
L 2272 0 
L 1638 0 
L 1638 4134 
L -19 4134 
L -19 4666 
z
" transform="scale(0.015625)"/>
       <path id="DejaVuSans-48" d="M 628 4666 
L 1259 4666 
L 1259 2753 
L 3553 2753 
L 3553 4666 
L 4184 4666 
L 4184 0 
L 3553 0 
L 3553 2222 
L 1259 2222 
L 1259 0 
L 628 0 
L 628 4666 
z
" transform="scale(0.015625)"/>
      </defs>
      <use xlink:href="#DejaVuSans-54"/>
      <use xlink:href="#DejaVuSans-6f" x="44.083984"/>
      <use xlink:href="#DejaVuSans-6d" x="105.265625"/>
      <use xlink:href="#DejaVuSans-20" x="202.677734"/>
      <use xlink:href="#DejaVuSans-48" x="234.464844"/>
      <use xlink:href="#DejaVuSans-61" x="309.660156"/>
      <use xlink:href="#DejaVuSans-6e" x="370.939453"/>
      <use xlink:href="#DejaVuSans-6b" x="434.318359"/>
      <use xlink:href="#DejaVuSans-73" x="492.228516"/>
     </g>
    </g>
   </g>
   <g id="text_8">
    <g id="patch_9">
     <path d="M 41.247043 264.085997 
L 101.091418 264.085997 
L 101.091418 247.455684 
L 41.247043 247.455684 
z
" clip-path="url(#pc410977469)" style="fill: #ffffff; opacity: 0.7; stroke: #000000; stroke-linejoin: miter"/>
    </g>
    <g clip-path="url(#pc410977469)">
     <!-- Rene Russo -->
     <g transform="translate(45.207043 258.254278)scale(0.09 -0.09)">
      <use xlink:href="#DejaVuSans-52"/>
      <use xlink:href="#DejaVuSans-65" x="64.982422"/>
      <use xlink:href="#DejaVuSans-6e" x="126.505859"/>
      <use xlink:href="#DejaVuSans-65" x="189.884766"/>
      <use xlink:href="#DejaVuSans-20" x="251.408203"/>
      <use xlink:href="#DejaVuSans-52" x="283.195312"/>
      <use xlink:href="#DejaVuSans-75" x="348.177734"/>
      <use xlink:href="#DejaVuSans-73" x="411.556641"/>
      <use xlink:href="#DejaVuSans-73" x="463.65625"/>
      <use xlink:href="#DejaVuSans-6f" x="515.755859"/>
     </g>
    </g>
   </g>
   <g id="text_9">
    <g id="patch_10">
     <path d="M 44.43854 352.953685 
L 97.899947 352.953685 
L 97.899947 336.323373 
L 44.43854 336.323373 
z
" clip-path="url(#pc410977469)" style="fill: #ffffff; opacity: 0.7; stroke: #000000; stroke-linejoin: miter"/>
    </g>
    <g clip-path="url(#pc410977469)">
     <!-- Jack Black -->
     <g transform="translate(48.39854 347.121967)scale(0.09 -0.09)">
      <use xlink:href="#DejaVuSans-4a"/>
      <use xlink:href="#DejaVuSans-61" x="29.492188"/>
      <use xlink:href="#DejaVuSans-63" x="90.771484"/>
      <use xlink:href="#DejaVuSans-6b" x="145.751953"/>
      <use xlink:href="#DejaVuSans-20" x="203.662109"/>
      <use xlink:href="#DejaVuSans-42" x="235.449219"/>
      <use xlink:href="#DejaVuSans-6c" x="304.052734"/>
      <use xlink:href="#DejaVuSans-61" x="331.835938"/>
      <use xlink:href="#DejaVuSans-63" x="393.115234"/>
      <use xlink:href="#DejaVuSans-6b" x="448.095703"/>
     </g>
    </g>
   </g>
   <g id="text_10">
    <g id="patch_11">
     <path d="M 74.519224 434.138345 
L 140.743755 434.138345 
L 140.743755 417.508032 
L 74.519224 417.508032 
z
" clip-path="url(#pc410977469)" style="fill: #ffffff; opacity: 0.7; stroke: #000000; stroke-linejoin: miter"/>
    </g>
    <g clip-path="url(#pc410977469)">
     <!-- Nicolas Cage -->
     <g transform="translate(78.479224 428.306626)scale(0.09 -0.09)">
      <defs>
       <path id="DejaVuSans-4e" d="M 628 4666 
L 1478 4666 
L 3547 763 
L 3547 4666 
L 4159 4666 
L 4159 0 
L 3309 0 
L 1241 3903 
L 1241 0 
L 628 0 
L 628 4666 
z
" transform="scale(0.015625)"/>
       <path id="DejaVuSans-67" d="M 2906 1791 
Q 2906 2416 2648 2759 
Q 2391 3103 1925 3103 
Q 1463 3103 1205 2759 
Q 947 2416 947 1791 
Q 947 1169 1205 825 
Q 1463 481 1925 481 
Q 2391 481 2648 825 
Q 2906 1169 2906 1791 
z
M 3481 434 
Q 3481 -459 3084 -895 
Q 2688 -1331 1869 -1331 
Q 1566 -1331 1297 -1286 
Q 1028 -1241 775 -1147 
L 775 -588 
Q 1028 -725 1275 -790 
Q 1522 -856 1778 -856 
Q 2344 -856 2625 -561 
Q 2906 -266 2906 331 
L 2906 616 
Q 2728 306 2450 153 
Q 2172 0 1784 0 
Q 1141 0 747 490 
Q 353 981 353 1791 
Q 353 2603 747 3093 
Q 1141 3584 1784 3584 
Q 2172 3584 2450 3431 
Q 2728 3278 2906 2969 
L 2906 3500 
L 3481 3500 
L 3481 434 
z
" transform="scale(0.015625)"/>
      </defs>
      <use xlink:href="#DejaVuSans-4e"/>
      <use xlink:href="#DejaVuSans-69" x="74.804688"/>
      <use xlink:href="#DejaVuSans-63" x="102.587891"/>
      <use xlink:href="#DejaVuSans-6f" x="157.568359"/>
      <use xlink:href="#DejaVuSans-6c" x="218.75"/>
      <use xlink:href="#DejaVuSans-61" x="246.533203"/>
      <use xlink:href="#DejaVuSans-73" x="307.8125"/>
      <use xlink:href="#DejaVuSans-20" x="359.912109"/>
      <use xlink:href="#DejaVuSans-43" x="391.699219"/>
      <use xlink:href="#DejaVuSans-61" x="461.523438"/>
      <use xlink:href="#DejaVuSans-67" x="522.802734"/>
      <use xlink:href="#DejaVuSans-65" x="586.279297"/>
     </g>
    </g>
   </g>
   <g id="text_11">
    <g id="patch_12">
     <path d="M 126.237033 493.602431 
L 222.265627 493.602431 
L 222.265627 476.972118 
L 126.237033 476.972118 
z
" clip-path="url(#pc410977469)" style="fill: #ffffff; opacity: 0.7; stroke: #000000; stroke-linejoin: miter"/>
    </g>
    <g clip-path="url(#pc410977469)">
     <!-- Jason Schwartzman -->
     <g transform="translate(130.197033 487.770712)scale(0.09 -0.09)">
      <defs>
       <path id="DejaVuSans-77" d="M 269 3500 
L 844 3500 
L 1563 769 
L 2278 3500 
L 2956 3500 
L 3675 769 
L 4391 3500 
L 4966 3500 
L 4050 0 
L 3372 0 
L 2619 2869 
L 1863 0 
L 1184 0 
L 269 3500 
z
" transform="scale(0.015625)"/>
       <path id="DejaVuSans-7a" d="M 353 3500 
L 3084 3500 
L 3084 2975 
L 922 459 
L 3084 459 
L 3084 0 
L 275 0 
L 275 525 
L 2438 3041 
L 353 3041 
L 353 3500 
z
" transform="scale(0.015625)"/>
      </defs>
      <use xlink:href="#DejaVuSans-4a"/>
      <use xlink:href="#DejaVuSans-61" x="29.492188"/>
      <use xlink:href="#DejaVuSans-73" x="90.771484"/>
      <use xlink:href="#DejaVuSans-6f" x="142.871094"/>
      <use xlink:href="#DejaVuSans-6e" x="204.052734"/>
      <use xlink:href="#DejaVuSans-20" x="267.431641"/>
      <use xlink:href="#DejaVuSans-53" x="299.21875"/>
      <use xlink:href="#DejaVuSans-63" x="362.695312"/>
      <use xlink:href="#DejaVuSans-68" x="417.675781"/>
      <use xlink:href="#DejaVuSans-77" x="481.054688"/>
      <use xlink:href="#DejaVuSans-61" x="562.841797"/>
      <use xlink:href="#DejaVuSans-72" x="624.121094"/>
      <use xlink:href="#DejaVuSans-74" x="665.234375"/>
      <use xlink:href="#DejaVuSans-7a" x="704.443359"/>
      <use xlink:href="#DejaVuSans-6d" x="756.933594"/>
      <use xlink:href="#DejaVuSans-61" x="854.345703"/>
      <use xlink:href="#DejaVuSans-6e" x="915.625"/>
     </g>
    </g>
   </g>
   <g id="text_12">
    <g id="patch_13">
     <path d="M 212.151306 521.06405 
L 306.867868 521.06405 
L 306.867868 504.433738 
L 212.151306 504.433738 
z
" clip-path="url(#pc410977469)" style="fill: #ffffff; opacity: 0.7; stroke: #000000; stroke-linejoin: miter"/>
    </g>
    <g clip-path="url(#pc410977469)">
     <!-- Reese Witherspoon -->
     <g transform="translate(216.111306 515.232332)scale(0.09 -0.09)">
      <defs>
       <path id="DejaVuSans-57" d="M 213 4666 
L 850 4666 
L 1831 722 
L 2809 4666 
L 3519 4666 
L 4500 722 
L 5478 4666 
L 6119 4666 
L 4947 0 
L 4153 0 
L 3169 4050 
L 2175 0 
L 1381 0 
L 213 4666 
z
" transform="scale(0.015625)"/>
       <path id="DejaVuSans-70" d="M 1159 525 
L 1159 -1331 
L 581 -1331 
L 581 3500 
L 1159 3500 
L 1159 2969 
Q 1341 3281 1617 3432 
Q 1894 3584 2278 3584 
Q 2916 3584 3314 3078 
Q 3713 2572 3713 1747 
Q 3713 922 3314 415 
Q 2916 -91 2278 -91 
Q 1894 -91 1617 61 
Q 1341 213 1159 525 
z
M 3116 1747 
Q 3116 2381 2855 2742 
Q 2594 3103 2138 3103 
Q 1681 3103 1420 2742 
Q 1159 2381 1159 1747 
Q 1159 1113 1420 752 
Q 1681 391 2138 391 
Q 2594 391 2855 752 
Q 3116 1113 3116 1747 
z
" transform="scale(0.015625)"/>
      </defs>
      <use xlink:href="#DejaVuSans-52"/>
      <use xlink:href="#DejaVuSans-65" x="64.982422"/>
      <use xlink:href="#DejaVuSans-65" x="126.505859"/>
      <use xlink:href="#DejaVuSans-73" x="188.029297"/>
      <use xlink:href="#DejaVuSans-65" x="240.128906"/>
      <use xlink:href="#DejaVuSans-20" x="301.652344"/>
      <use xlink:href="#DejaVuSans-57" x="333.439453"/>
      <use xlink:href="#DejaVuSans-69" x="430.066406"/>
      <use xlink:href="#DejaVuSans-74" x="457.849609"/>
      <use xlink:href="#DejaVuSans-68" x="497.058594"/>
      <use xlink:href="#DejaVuSans-65" x="560.4375"/>
      <use xlink:href="#DejaVuSans-72" x="621.960938"/>
      <use xlink:href="#DejaVuSans-73" x="663.074219"/>
      <use xlink:href="#DejaVuSans-70" x="715.173828"/>
      <use xlink:href="#DejaVuSans-6f" x="778.650391"/>
      <use xlink:href="#DejaVuSans-6f" x="839.832031"/>
      <use xlink:href="#DejaVuSans-6e" x="901.013672"/>
     </g>
    </g>
   </g>
   <g id="text_13">
    <g id="patch_14">
     <path d="M 319.946589 511.774836 
L 377.382058 511.774836 
L 377.382058 495.144523 
L 319.946589 495.144523 
z
" clip-path="url(#pc410977469)" style="fill: #ffffff; opacity: 0.7; stroke: #000000; stroke-linejoin: miter"/>
    </g>
    <g clip-path="url(#pc410977469)">
     <!-- Tom Cruise -->
     <g transform="translate(323.906589 505.943117)scale(0.09 -0.09)">
      <use xlink:href="#DejaVuSans-54"/>
      <use xlink:href="#DejaVuSans-6f" x="44.083984"/>
      <use xlink:href="#DejaVuSans-6d" x="105.265625"/>
      <use xlink:href="#DejaVuSans-20" x="202.677734"/>
      <use xlink:href="#DejaVuSans-43" x="234.464844"/>
      <use xlink:href="#DejaVuSans-72" x="304.289062"/>
      <use xlink:href="#DejaVuSans-75" x="345.402344"/>
      <use xlink:href="#DejaVuSans-69" x="408.78125"/>
      <use xlink:href="#DejaVuSans-73" x="436.564453"/>
      <use xlink:href="#DejaVuSans-65" x="488.664062"/>
     </g>
    </g>
   </g>
   <g id="text_14">
    <g id="patch_15">
     <path d="M 381.726685 467.340973 
L 470.873092 467.340973 
L 470.873092 450.71066 
L 381.726685 450.71066 
z
" clip-path="url(#pc410977469)" style="fill: #ffffff; opacity: 0.7; stroke: #000000; stroke-linejoin: miter"/>
    </g>
    <g clip-path="url(#pc410977469)">
     <!-- Sylvester Stallone -->
     <g transform="translate(385.686685 461.509254)scale(0.09 -0.09)">
      <defs>
       <path id="DejaVuSans-79" d="M 2059 -325 
Q 1816 -950 1584 -1140 
Q 1353 -1331 966 -1331 
L 506 -1331 
L 506 -850 
L 844 -850 
Q 1081 -850 1212 -737 
Q 1344 -625 1503 -206 
L 1606 56 
L 191 3500 
L 800 3500 
L 1894 763 
L 2988 3500 
L 3597 3500 
L 2059 -325 
z
" transform="scale(0.015625)"/>
      </defs>
      <use xlink:href="#DejaVuSans-53"/>
      <use xlink:href="#DejaVuSans-79" x="63.476562"/>
      <use xlink:href="#DejaVuSans-6c" x="122.65625"/>
      <use xlink:href="#DejaVuSans-76" x="150.439453"/>
      <use xlink:href="#DejaVuSans-65" x="209.619141"/>
      <use xlink:href="#DejaVuSans-73" x="271.142578"/>
      <use xlink:href="#DejaVuSans-74" x="323.242188"/>
      <use xlink:href="#DejaVuSans-65" x="362.451172"/>
      <use xlink:href="#DejaVuSans-72" x="423.974609"/>
      <use xlink:href="#DejaVuSans-20" x="465.087891"/>
      <use xlink:href="#DejaVuSans-53" x="496.875"/>
      <use xlink:href="#DejaVuSans-74" x="560.351562"/>
      <use xlink:href="#DejaVuSans-61" x="599.560547"/>
      <use xlink:href="#DejaVuSans-6c" x="660.839844"/>
      <use xlink:href="#DejaVuSans-6c" x="688.623047"/>
      <use xlink:href="#DejaVuSans-6f" x="716.40625"/>
      <use xlink:href="#DejaVuSans-6e" x="777.587891"/>
      <use xlink:href="#DejaVuSans-65" x="840.966797"/>
     </g>
    </g>
   </g>
   <g id="text_15">
    <g id="patch_16">
     <path d="M 445.570733 395.445502 
L 512.414014 395.445502 
L 512.414014 378.81519 
L 445.570733 378.81519 
z
" clip-path="url(#pc410977469)" style="fill: #ffffff; opacity: 0.7; stroke: #000000; stroke-linejoin: miter"/>
    </g>
    <g clip-path="url(#pc410977469)">
     <!-- Stanley Tucci -->
     <g transform="translate(449.530733 389.613784)scale(0.09 -0.09)">
      <use xlink:href="#DejaVuSans-53"/>
      <use xlink:href="#DejaVuSans-74" x="63.476562"/>
      <use xlink:href="#DejaVuSans-61" x="102.685547"/>
      <use xlink:href="#DejaVuSans-6e" x="163.964844"/>
      <use xlink:href="#DejaVuSans-6c" x="227.34375"/>
      <use xlink:href="#DejaVuSans-65" x="255.126953"/>
      <use xlink:href="#DejaVuSans-79" x="316.650391"/>
      <use xlink:href="#DejaVuSans-20" x="375.830078"/>
      <use xlink:href="#DejaVuSans-54" x="407.617188"/>
      <use xlink:href="#DejaVuSans-75" x="453.576172"/>
      <use xlink:href="#DejaVuSans-63" x="516.955078"/>
      <use xlink:href="#DejaVuSans-63" x="571.935547"/>
      <use xlink:href="#DejaVuSans-69" x="626.916016"/>
     </g>
    </g>
   </g>
   <g id="text_16">
    <!-- Impactful actors for Comedy genre -->
    <g transform="translate(179.513437 16.318125)scale(0.12 -0.12)">
     <defs>
      <path id="DejaVuSans-49" d="M 628 4666 
L 1259 4666 
L 1259 0 
L 628 0 
L 628 4666 
z
" transform="scale(0.015625)"/>
      <path id="DejaVuSans-66" d="M 2375 4863 
L 2375 4384 
L 1825 4384 
Q 1516 4384 1395 4259 
Q 1275 4134 1275 3809 
L 1275 3500 
L 2222 3500 
L 2222 3053 
L 1275 3053 
L 1275 0 
L 697 0 
L 697 3053 
L 147 3053 
L 147 3500 
L 697 3500 
L 697 3744 
Q 697 4328 969 4595 
Q 1241 4863 1831 4863 
L 2375 4863 
z
" transform="scale(0.015625)"/>
     </defs>
     <use xlink:href="#DejaVuSans-49"/>
     <use xlink:href="#DejaVuSans-6d" x="29.492188"/>
     <use xlink:href="#DejaVuSans-70" x="126.904297"/>
     <use xlink:href="#DejaVuSans-61" x="190.380859"/>
     <use xlink:href="#DejaVuSans-63" x="251.660156"/>
     <use xlink:href="#DejaVuSans-74" x="306.640625"/>
     <use xlink:href="#DejaVuSans-66" x="345.849609"/>
     <use xlink:href="#DejaVuSans-75" x="381.054688"/>
     <use xlink:href="#DejaVuSans-6c" x="444.433594"/>
     <use xlink:href="#DejaVuSans-20" x="472.216797"/>
     <use xlink:href="#DejaVuSans-61" x="504.003906"/>
     <use xlink:href="#DejaVuSans-63" x="565.283203"/>
     <use xlink:href="#DejaVuSans-74" x="620.263672"/>
     <use xlink:href="#DejaVuSans-6f" x="659.472656"/>
     <use xlink:href="#DejaVuSans-72" x="720.654297"/>
     <use xlink:href="#DejaVuSans-73" x="761.767578"/>
     <use xlink:href="#DejaVuSans-20" x="813.867188"/>
     <use xlink:href="#DejaVuSans-66" x="845.654297"/>
     <use xlink:href="#DejaVuSans-6f" x="880.859375"/>
     <use xlink:href="#DejaVuSans-72" x="942.041016"/>
     <use xlink:href="#DejaVuSans-20" x="983.154297"/>
     <use xlink:href="#DejaVuSans-43" x="1014.941406"/>
     <use xlink:href="#DejaVuSans-6f" x="1084.765625"/>
     <use xlink:href="#DejaVuSans-6d" x="1145.947266"/>
     <use xlink:href="#DejaVuSans-65" x="1243.359375"/>
     <use xlink:href="#DejaVuSans-64" x="1304.882812"/>
     <use xlink:href="#DejaVuSans-79" x="1368.359375"/>
     <use xlink:href="#DejaVuSans-20" x="1427.539062"/>
     <use xlink:href="#DejaVuSans-67" x="1459.326172"/>
     <use xlink:href="#DejaVuSans-65" x="1522.802734"/>
     <use xlink:href="#DejaVuSans-6e" x="1584.326172"/>
     <use xlink:href="#DejaVuSans-72" x="1647.705078"/>
     <use xlink:href="#DejaVuSans-65" x="1686.568359"/>
    </g>
   </g>
  </g>
 </g>
 <defs>
  <clipPath id="pc410977469">
   <rect x="7.2" y="22.318125" width="554.4" height="554.4"/>
  </clipPath>
 </defs>
</svg>
