<?xml version="1.0" encoding="utf-8" standalone="no"?>
<!DOCTYPE svg PUBLIC "-//W3C//DTD SVG 1.1//EN"
  "http://www.w3.org/Graphics/SVG/1.1/DTD/svg11.dtd">
<svg xmlns:xlink="http://www.w3.org/1999/xlink" width="568.8pt" height="583.918125pt" viewBox="0 0 568.8 583.918125" xmlns="http://www.w3.org/2000/svg" version="1.1">
 <metadata>
  <rdf:RDF xmlns:dc="http://purl.org/dc/elements/1.1/" xmlns:cc="http://creativecommons.org/ns#" xmlns:rdf="http://www.w3.org/1999/02/22-rdf-syntax-ns#">
   <cc:Work>
    <dc:type rdf:resource="http://purl.org/dc/dcmitype/StillImage"/>
    <dc:date>2022-12-23T19:05:52.298133</dc:date>
    <dc:format>image/svg+xml</dc:format>
    <dc:creator>
     <cc:Agent>
      <dc:title>Matplotlib v3.5.2, https://matplotlib.org/</dc:title>
     </cc:Agent>
    </dc:creator>
   </cc:Work>
  </rdf:RDF>
 </metadata>
 <defs>
  <style type="text/css">*{stroke-linejoin: round; stroke-linecap: butt}</style>
 </defs>
 <g id="figure_1">
  <g id="patch_1">
   <path d="M 0 583.918125 
L 568.8 583.918125 
L 568.8 0 
L 0 0 
z
" style="fill: #ffffff"/>
  </g>
  <g id="axes_1">
   <g id="LineCollection_1">
    <path d="M 348.664291 96.061843 
L 259.509549 86.752808 
" clip-path="url(#p877f43aacb)" style="fill: none; stroke: #000000; stroke-opacity: 0.3; stroke-width: 10"/>
   </g>
   <g id="PathCollection_1">
    <path d="M 497.630769 327.136979 
C 504.893655 327.136979 511.86005 324.251404 516.995686 319.115768 
C 522.131322 313.980132 525.016897 307.013737 525.016897 299.750851 
C 525.016897 292.487965 522.131322 285.52157 516.995686 280.385934 
C 511.86005 275.250298 504.893655 272.364723 497.630769 272.364723 
C 490.367883 272.364723 483.401488 275.250298 478.265852 280.385934 
C 473.130217 285.52157 470.244641 292.487965 470.244641 299.750851 
C 470.244641 307.013737 473.130217 313.980132 478.265852 319.115768 
C 483.401488 324.251404 490.367883 327.136979 497.630769 327.136979 
z
" clip-path="url(#p877f43aacb)" style="fill: #c70039; fill-opacity: 0.99; stroke: #c70039; stroke-opacity: 0.99"/>
    <path d="M 478.992348 240.009542 
C 486.250958 240.009542 493.213251 237.125666 498.345863 231.993054 
C 503.478475 226.860442 506.362351 219.898149 506.362351 212.639539 
C 506.362351 205.380929 503.478475 198.418636 498.345863 193.286024 
C 493.213251 188.153412 486.250958 185.269535 478.992348 185.269535 
C 471.733738 185.269535 464.771445 188.153412 459.638833 193.286024 
C 454.506221 198.418636 451.622344 205.380929 451.622344 212.639539 
C 451.622344 219.898149 454.506221 226.860442 459.638833 231.993054 
C 464.771445 237.125666 471.733738 240.009542 478.992348 240.009542 
z
" clip-path="url(#p877f43aacb)" style="fill: #c70039; fill-opacity: 0.99; stroke: #c70039; stroke-opacity: 0.99"/>
    <path d="M 426.29985 167.624315 
C 433.469287 167.624315 440.346048 164.775868 445.415606 159.70631 
C 450.485163 154.636752 453.333611 147.759991 453.333611 140.590554 
C 453.333611 133.421117 450.485163 126.544356 445.415606 121.474798 
C 440.346048 116.405241 433.469287 113.556793 426.29985 113.556793 
C 419.130413 113.556793 412.253652 116.405241 407.184094 121.474798 
C 402.114536 126.544356 399.266089 133.421117 399.266089 140.590554 
C 399.266089 147.759991 402.114536 154.636752 407.184094 159.70631 
C 412.253652 164.775868 419.130413 167.624315 426.29985 167.624315 
z
" clip-path="url(#p877f43aacb)" style="fill: #c70039; fill-opacity: 0.99; stroke: #c70039; stroke-opacity: 0.99"/>
    <path d="M 348.664291 122.265251 
C 355.613516 122.265251 362.279054 119.504295 367.192898 114.590451 
C 372.106743 109.676606 374.867699 103.011068 374.867699 96.061843 
C 374.867699 89.112618 372.106743 82.44708 367.192898 77.533236 
C 362.279054 72.619392 355.613516 69.858436 348.664291 69.858436 
C 341.715066 69.858436 335.049528 72.619392 330.135684 77.533236 
C 325.22184 82.44708 322.460883 89.112618 322.460883 96.061843 
C 322.460883 103.011068 325.22184 109.676606 330.135684 114.590451 
C 335.049528 119.504295 341.715066 122.265251 348.664291 122.265251 
z
" clip-path="url(#p877f43aacb)" style="fill: #c70039; fill-opacity: 0.99; stroke: #c70039; stroke-opacity: 0.99"/>
    <path d="M 259.509549 111.956067 
C 266.193531 111.956067 272.604655 109.300493 277.330945 104.574204 
C 282.057234 99.847914 284.712809 93.43679 284.712809 86.752808 
C 284.712809 80.068825 282.057234 73.657701 277.330945 68.931412 
C 272.604655 64.205122 266.193531 61.549548 259.509549 61.549548 
C 252.825566 61.549548 246.414442 64.205122 241.688153 68.931412 
C 236.961863 73.657701 234.306289 80.068825 234.306289 86.752808 
C 234.306289 93.43679 236.961863 99.847914 241.688153 104.574204 
C 246.414442 109.300493 252.825566 111.956067 259.509549 111.956067 
z
" clip-path="url(#p877f43aacb)" style="fill: #c70039; fill-opacity: 0.99; stroke: #c70039; stroke-opacity: 0.99"/>
    <path d="M 174.251298 137.719447 
C 180.469349 137.719447 186.433561 135.24899 190.830387 130.852164 
C 195.227213 126.455338 197.69767 120.491126 197.69767 114.273075 
C 197.69767 108.055024 195.227213 102.090812 190.830387 97.693986 
C 186.433561 93.29716 180.469349 90.826702 174.251298 90.826702 
C 168.033247 90.826702 162.069035 93.29716 157.672209 97.693986 
C 153.275383 102.090812 150.804926 108.055024 150.804926 114.273075 
C 150.804926 120.491126 153.275383 126.455338 157.672209 130.852164 
C 162.069035 135.24899 168.033247 137.719447 174.251298 137.719447 
z
" clip-path="url(#p877f43aacb)" style="fill: #c70039; fill-opacity: 0.99; stroke: #c70039; stroke-opacity: 0.99"/>
    <path d="M 107.631477 196.525488 
C 113.641341 196.525488 119.405865 194.137744 123.65548 189.888129 
C 127.905095 185.638514 130.292839 179.873989 130.292839 173.864126 
C 130.292839 167.854262 127.905095 162.089738 123.65548 157.840123 
C 119.405865 153.590508 113.641341 151.202764 107.631477 151.202764 
C 101.621613 151.202764 95.857089 153.590508 91.607474 157.840123 
C 87.357859 162.089738 84.970115 167.854262 84.970115 173.864126 
C 84.970115 179.873989 87.357859 185.638514 91.607474 189.888129 
C 95.857089 194.137744 101.621613 196.525488 107.631477 196.525488 
z
" clip-path="url(#p877f43aacb)" style="fill: #c70039; fill-opacity: 0.99; stroke: #c70039; stroke-opacity: 0.99"/>
    <path d="M 71.169231 277.475161 
C 77.070798 277.475161 82.731446 275.130444 86.904484 270.957406 
C 91.077522 266.784368 93.42224 261.12372 93.42224 255.222153 
C 93.42224 249.320586 91.077522 243.659937 86.904484 239.486899 
C 82.731446 235.313861 77.070798 232.969144 71.169231 232.969144 
C 65.267664 232.969144 59.607015 235.313861 55.433977 239.486899 
C 51.260939 243.659937 48.916222 249.320586 48.916222 255.222153 
C 48.916222 261.12372 51.260939 266.784368 55.433977 270.957406 
C 59.607015 275.130444 65.267664 277.475161 71.169231 277.475161 
z
" clip-path="url(#p877f43aacb)" style="fill: #c70039; fill-opacity: 0.99; stroke: #c70039; stroke-opacity: 0.99"/>
    <path d="M 71.169244 365.150811 
C 76.704357 365.150811 82.013511 362.951687 85.927427 359.037771 
C 89.841343 355.123855 92.040467 349.8147 92.040467 344.279587 
C 92.040467 338.744474 89.841343 333.43532 85.927427 329.521404 
C 82.013511 325.607488 76.704357 323.408364 71.169244 323.408364 
C 65.634131 323.408364 60.324976 325.607488 56.41106 329.521404 
C 52.497144 333.43532 50.29802 338.744474 50.29802 344.279587 
C 50.29802 349.8147 52.497144 355.123855 56.41106 359.037771 
C 60.324976 362.951687 65.634131 365.150811 71.169244 365.150811 
z
" clip-path="url(#p877f43aacb)" style="fill: #c70039; fill-opacity: 0.99; stroke: #c70039; stroke-opacity: 0.99"/>
    <path d="M 107.63149 445.521035 
C 112.904641 445.521035 117.962528 443.42599 121.69121 439.697308 
C 125.419891 435.968627 127.514936 430.91074 127.514936 425.637589 
C 127.514936 420.364437 125.419891 415.30655 121.69121 411.577869 
C 117.962528 407.849188 112.904641 405.754142 107.63149 405.754142 
C 102.358338 405.754142 97.300451 407.849188 93.57177 411.577869 
C 89.843089 415.30655 87.748043 420.364437 87.748043 425.637589 
C 87.748043 430.91074 89.843089 435.968627 93.57177 439.697308 
C 97.300451 443.42599 102.358338 445.521035 107.63149 445.521035 
z
" clip-path="url(#p877f43aacb)" style="fill: #c70039; fill-opacity: 0.99; stroke: #c70039; stroke-opacity: 0.99"/>
    <path d="M 174.25133 505.103682 
C 179.522253 505.103682 184.578002 503.009522 188.305107 499.282417 
C 192.032213 495.555312 194.126373 490.499563 194.126373 485.22864 
C 194.126373 479.957717 192.032213 474.901968 188.305107 471.174862 
C 184.578002 467.447757 179.522253 465.353597 174.25133 465.353597 
C 168.980407 465.353597 163.924658 467.447757 160.197553 471.174862 
C 156.470448 474.901968 154.376288 479.957717 154.376288 485.22864 
C 154.376288 490.499563 156.470448 495.555312 160.197553 499.282417 
C 163.924658 503.009522 168.980407 505.103682 174.25133 505.103682 
z
" clip-path="url(#p877f43aacb)" style="fill: #c70039; fill-opacity: 0.99; stroke: #c70039; stroke-opacity: 0.99"/>
    <path d="M 259.509587 532.593334 
C 264.772394 532.593334 269.820358 530.502398 273.541725 526.781032 
C 277.263091 523.059666 279.354027 518.011701 279.354027 512.748894 
C 279.354027 507.486087 277.263091 502.438123 273.541725 498.716757 
C 269.820358 494.99539 264.772394 492.904455 259.509587 492.904455 
C 254.24678 492.904455 249.198816 494.99539 245.477449 498.716757 
C 241.756083 502.438123 239.665148 507.486087 239.665148 512.748894 
C 239.665148 518.011701 241.756083 523.059666 245.477449 526.781032 
C 249.198816 530.502398 254.24678 532.593334 259.509587 532.593334 
z
" clip-path="url(#p877f43aacb)" style="fill: #c70039; fill-opacity: 0.99; stroke: #c70039; stroke-opacity: 0.99"/>
    <path d="M 348.664323 523.108374 
C 353.880478 523.108374 358.883695 521.035974 362.572073 517.347596 
C 366.260452 513.659217 368.332852 508.656001 368.332852 503.439846 
C 368.332852 498.223691 366.260452 493.220474 362.572073 489.532096 
C 358.883695 485.843717 353.880478 483.771317 348.664323 483.771317 
C 343.448169 483.771317 338.444952 485.843717 334.756573 489.532096 
C 331.068195 493.220474 328.995795 498.223691 328.995795 503.439846 
C 328.995795 508.656001 331.068195 513.659217 334.756573 517.347596 
C 338.444952 521.035974 343.448169 523.108374 348.664323 523.108374 
z
" clip-path="url(#p877f43aacb)" style="fill: #c70039; fill-opacity: 0.99; stroke: #c70039; stroke-opacity: 0.99"/>
    <path d="M 426.299888 478.3108 
C 431.444747 478.3108 436.379577 476.266726 440.017541 472.628762 
C 443.655506 468.990798 445.699579 464.055967 445.699579 458.911109 
C 445.699579 453.766251 443.655506 448.83142 440.017541 445.193456 
C 436.379577 441.555492 431.444747 439.511418 426.299888 439.511418 
C 421.15503 439.511418 416.220199 441.555492 412.582235 445.193456 
C 408.944271 448.83142 406.900197 453.766251 406.900197 458.911109 
C 406.900197 464.055967 408.944271 468.990798 412.582235 472.628762 
C 416.220199 476.266726 421.15503 478.3108 426.299888 478.3108 
z
" clip-path="url(#p877f43aacb)" style="fill: #c70039; fill-opacity: 0.99; stroke: #c70039; stroke-opacity: 0.99"/>
    <path d="M 478.992374 406.227048 
C 484.128009 406.227048 489.053994 404.186638 492.685437 400.555195 
C 496.31688 396.923752 498.35729 391.997767 498.35729 386.862131 
C 498.35729 381.726495 496.31688 376.80051 492.685437 373.169067 
C 489.053994 369.537624 484.128009 367.497214 478.992374 367.497214 
C 473.856738 367.497214 468.930753 369.537624 465.29931 373.169067 
C 461.667867 376.80051 459.627457 381.726495 459.627457 386.862131 
C 459.627457 391.997767 461.667867 396.923752 465.29931 400.555195 
C 468.930753 404.186638 473.856738 406.227048 478.992374 406.227048 
z
" clip-path="url(#p877f43aacb)" style="fill: #c70039; fill-opacity: 0.99; stroke: #c70039; stroke-opacity: 0.99"/>
   </g>
   <g id="text_1">
    <g id="patch_2">
     <path d="M 462.672097 308.066007 
L 532.589441 308.066007 
L 532.589441 291.435695 
L 462.672097 291.435695 
z
" clip-path="url(#p877f43aacb)" style="fill: #ffffff; opacity: 0.7; stroke: #000000; stroke-linejoin: miter"/>
    </g>
    <g clip-path="url(#p877f43aacb)">
     <!-- Danny DeVito -->
     <g transform="translate(466.632097 302.234288)scale(0.09 -0.09)">
      <defs>
       <path id="DejaVuSans-44" d="M 1259 4147 
L 1259 519 
L 2022 519 
Q 2988 519 3436 956 
Q 3884 1394 3884 2338 
Q 3884 3275 3436 3711 
Q 2988 4147 2022 4147 
L 1259 4147 
z
M 628 4666 
L 1925 4666 
Q 3281 4666 3915 4102 
Q 4550 3538 4550 2338 
Q 4550 1131 3912 565 
Q 3275 0 1925 0 
L 628 0 
L 628 4666 
z
" transform="scale(0.015625)"/>
       <path id="DejaVuSans-61" d="M 2194 1759 
Q 1497 1759 1228 1600 
Q 959 1441 959 1056 
Q 959 750 1161 570 
Q 1363 391 1709 391 
Q 2188 391 2477 730 
Q 2766 1069 2766 1631 
L 2766 1759 
L 2194 1759 
z
M 3341 1997 
L 3341 0 
L 2766 0 
L 2766 531 
Q 2569 213 2275 61 
Q 1981 -91 1556 -91 
Q 1019 -91 701 211 
Q 384 513 384 1019 
Q 384 1609 779 1909 
Q 1175 2209 1959 2209 
L 2766 2209 
L 2766 2266 
Q 2766 2663 2505 2880 
Q 2244 3097 1772 3097 
Q 1472 3097 1187 3025 
Q 903 2953 641 2809 
L 641 3341 
Q 956 3463 1253 3523 
Q 1550 3584 1831 3584 
Q 2591 3584 2966 3190 
Q 3341 2797 3341 1997 
z
" transform="scale(0.015625)"/>
       <path id="DejaVuSans-6e" d="M 3513 2113 
L 3513 0 
L 2938 0 
L 2938 2094 
Q 2938 2591 2744 2837 
Q 2550 3084 2163 3084 
Q 1697 3084 1428 2787 
Q 1159 2491 1159 1978 
L 1159 0 
L 581 0 
L 581 3500 
L 1159 3500 
L 1159 2956 
Q 1366 3272 1645 3428 
Q 1925 3584 2291 3584 
Q 2894 3584 3203 3211 
Q 3513 2838 3513 2113 
z
" transform="scale(0.015625)"/>
       <path id="DejaVuSans-79" d="M 2059 -325 
Q 1816 -950 1584 -1140 
Q 1353 -1331 966 -1331 
L 506 -1331 
L 506 -850 
L 844 -850 
Q 1081 -850 1212 -737 
Q 1344 -625 1503 -206 
L 1606 56 
L 191 3500 
L 800 3500 
L 1894 763 
L 2988 3500 
L 3597 3500 
L 2059 -325 
z
" transform="scale(0.015625)"/>
       <path id="DejaVuSans-20" transform="scale(0.015625)"/>
       <path id="DejaVuSans-65" d="M 3597 1894 
L 3597 1613 
L 953 1613 
Q 991 1019 1311 708 
Q 1631 397 2203 397 
Q 2534 397 2845 478 
Q 3156 559 3463 722 
L 3463 178 
Q 3153 47 2828 -22 
Q 2503 -91 2169 -91 
Q 1331 -91 842 396 
Q 353 884 353 1716 
Q 353 2575 817 3079 
Q 1281 3584 2069 3584 
Q 2775 3584 3186 3129 
Q 3597 2675 3597 1894 
z
M 3022 2063 
Q 3016 2534 2758 2815 
Q 2500 3097 2075 3097 
Q 1594 3097 1305 2825 
Q 1016 2553 972 2059 
L 3022 2063 
z
" transform="scale(0.015625)"/>
       <path id="DejaVuSans-56" d="M 1831 0 
L 50 4666 
L 709 4666 
L 2188 738 
L 3669 4666 
L 4325 4666 
L 2547 0 
L 1831 0 
z
" transform="scale(0.015625)"/>
       <path id="DejaVuSans-69" d="M 603 3500 
L 1178 3500 
L 1178 0 
L 603 0 
L 603 3500 
z
M 603 4863 
L 1178 4863 
L 1178 4134 
L 603 4134 
L 603 4863 
z
" transform="scale(0.015625)"/>
       <path id="DejaVuSans-74" d="M 1172 4494 
L 1172 3500 
L 2356 3500 
L 2356 3053 
L 1172 3053 
L 1172 1153 
Q 1172 725 1289 603 
Q 1406 481 1766 481 
L 2356 481 
L 2356 0 
L 1766 0 
Q 1100 0 847 248 
Q 594 497 594 1153 
L 594 3053 
L 172 3053 
L 172 3500 
L 594 3500 
L 594 4494 
L 1172 4494 
z
" transform="scale(0.015625)"/>
       <path id="DejaVuSans-6f" d="M 1959 3097 
Q 1497 3097 1228 2736 
Q 959 2375 959 1747 
Q 959 1119 1226 758 
Q 1494 397 1959 397 
Q 2419 397 2687 759 
Q 2956 1122 2956 1747 
Q 2956 2369 2687 2733 
Q 2419 3097 1959 3097 
z
M 1959 3584 
Q 2709 3584 3137 3096 
Q 3566 2609 3566 1747 
Q 3566 888 3137 398 
Q 2709 -91 1959 -91 
Q 1206 -91 779 398 
Q 353 888 353 1747 
Q 353 2609 779 3096 
Q 1206 3584 1959 3584 
z
" transform="scale(0.015625)"/>
      </defs>
      <use xlink:href="#DejaVuSans-44"/>
      <use xlink:href="#DejaVuSans-61" x="77.001953"/>
      <use xlink:href="#DejaVuSans-6e" x="138.28125"/>
      <use xlink:href="#DejaVuSans-6e" x="201.660156"/>
      <use xlink:href="#DejaVuSans-79" x="265.039062"/>
      <use xlink:href="#DejaVuSans-20" x="324.21875"/>
      <use xlink:href="#DejaVuSans-44" x="356.005859"/>
      <use xlink:href="#DejaVuSans-65" x="433.007812"/>
      <use xlink:href="#DejaVuSans-56" x="494.53125"/>
      <use xlink:href="#DejaVuSans-69" x="560.689453"/>
      <use xlink:href="#DejaVuSans-74" x="588.472656"/>
      <use xlink:href="#DejaVuSans-6f" x="627.681641"/>
     </g>
    </g>
   </g>
   <g id="text_2">
    <g id="patch_3">
     <path d="M 441.619848 220.954695 
L 516.364848 220.954695 
L 516.364848 204.324383 
L 441.619848 204.324383 
z
" clip-path="url(#p877f43aacb)" style="fill: #ffffff; opacity: 0.7; stroke: #000000; stroke-linejoin: miter"/>
    </g>
    <g clip-path="url(#p877f43aacb)">
     <!-- Steve Buscemi -->
     <g transform="translate(445.579848 215.122976)scale(0.09 -0.09)">
      <defs>
       <path id="DejaVuSans-53" d="M 3425 4513 
L 3425 3897 
Q 3066 4069 2747 4153 
Q 2428 4238 2131 4238 
Q 1616 4238 1336 4038 
Q 1056 3838 1056 3469 
Q 1056 3159 1242 3001 
Q 1428 2844 1947 2747 
L 2328 2669 
Q 3034 2534 3370 2195 
Q 3706 1856 3706 1288 
Q 3706 609 3251 259 
Q 2797 -91 1919 -91 
Q 1588 -91 1214 -16 
Q 841 59 441 206 
L 441 856 
Q 825 641 1194 531 
Q 1563 422 1919 422 
Q 2459 422 2753 634 
Q 3047 847 3047 1241 
Q 3047 1584 2836 1778 
Q 2625 1972 2144 2069 
L 1759 2144 
Q 1053 2284 737 2584 
Q 422 2884 422 3419 
Q 422 4038 858 4394 
Q 1294 4750 2059 4750 
Q 2388 4750 2728 4690 
Q 3069 4631 3425 4513 
z
" transform="scale(0.015625)"/>
       <path id="DejaVuSans-76" d="M 191 3500 
L 800 3500 
L 1894 563 
L 2988 3500 
L 3597 3500 
L 2284 0 
L 1503 0 
L 191 3500 
z
" transform="scale(0.015625)"/>
       <path id="DejaVuSans-42" d="M 1259 2228 
L 1259 519 
L 2272 519 
Q 2781 519 3026 730 
Q 3272 941 3272 1375 
Q 3272 1813 3026 2020 
Q 2781 2228 2272 2228 
L 1259 2228 
z
M 1259 4147 
L 1259 2741 
L 2194 2741 
Q 2656 2741 2882 2914 
Q 3109 3088 3109 3444 
Q 3109 3797 2882 3972 
Q 2656 4147 2194 4147 
L 1259 4147 
z
M 628 4666 
L 2241 4666 
Q 2963 4666 3353 4366 
Q 3744 4066 3744 3513 
Q 3744 3084 3544 2831 
Q 3344 2578 2956 2516 
Q 3422 2416 3680 2098 
Q 3938 1781 3938 1306 
Q 3938 681 3513 340 
Q 3088 0 2303 0 
L 628 0 
L 628 4666 
z
" transform="scale(0.015625)"/>
       <path id="DejaVuSans-75" d="M 544 1381 
L 544 3500 
L 1119 3500 
L 1119 1403 
Q 1119 906 1312 657 
Q 1506 409 1894 409 
Q 2359 409 2629 706 
Q 2900 1003 2900 1516 
L 2900 3500 
L 3475 3500 
L 3475 0 
L 2900 0 
L 2900 538 
Q 2691 219 2414 64 
Q 2138 -91 1772 -91 
Q 1169 -91 856 284 
Q 544 659 544 1381 
z
M 1991 3584 
L 1991 3584 
z
" transform="scale(0.015625)"/>
       <path id="DejaVuSans-73" d="M 2834 3397 
L 2834 2853 
Q 2591 2978 2328 3040 
Q 2066 3103 1784 3103 
Q 1356 3103 1142 2972 
Q 928 2841 928 2578 
Q 928 2378 1081 2264 
Q 1234 2150 1697 2047 
L 1894 2003 
Q 2506 1872 2764 1633 
Q 3022 1394 3022 966 
Q 3022 478 2636 193 
Q 2250 -91 1575 -91 
Q 1294 -91 989 -36 
Q 684 19 347 128 
L 347 722 
Q 666 556 975 473 
Q 1284 391 1588 391 
Q 1994 391 2212 530 
Q 2431 669 2431 922 
Q 2431 1156 2273 1281 
Q 2116 1406 1581 1522 
L 1381 1569 
Q 847 1681 609 1914 
Q 372 2147 372 2553 
Q 372 3047 722 3315 
Q 1072 3584 1716 3584 
Q 2034 3584 2315 3537 
Q 2597 3491 2834 3397 
z
" transform="scale(0.015625)"/>
       <path id="DejaVuSans-63" d="M 3122 3366 
L 3122 2828 
Q 2878 2963 2633 3030 
Q 2388 3097 2138 3097 
Q 1578 3097 1268 2742 
Q 959 2388 959 1747 
Q 959 1106 1268 751 
Q 1578 397 2138 397 
Q 2388 397 2633 464 
Q 2878 531 3122 666 
L 3122 134 
Q 2881 22 2623 -34 
Q 2366 -91 2075 -91 
Q 1284 -91 818 406 
Q 353 903 353 1747 
Q 353 2603 823 3093 
Q 1294 3584 2113 3584 
Q 2378 3584 2631 3529 
Q 2884 3475 3122 3366 
z
" transform="scale(0.015625)"/>
       <path id="DejaVuSans-6d" d="M 3328 2828 
Q 3544 3216 3844 3400 
Q 4144 3584 4550 3584 
Q 5097 3584 5394 3201 
Q 5691 2819 5691 2113 
L 5691 0 
L 5113 0 
L 5113 2094 
Q 5113 2597 4934 2840 
Q 4756 3084 4391 3084 
Q 3944 3084 3684 2787 
Q 3425 2491 3425 1978 
L 3425 0 
L 2847 0 
L 2847 2094 
Q 2847 2600 2669 2842 
Q 2491 3084 2119 3084 
Q 1678 3084 1418 2786 
Q 1159 2488 1159 1978 
L 1159 0 
L 581 0 
L 581 3500 
L 1159 3500 
L 1159 2956 
Q 1356 3278 1631 3431 
Q 1906 3584 2284 3584 
Q 2666 3584 2933 3390 
Q 3200 3197 3328 2828 
z
" transform="scale(0.015625)"/>
      </defs>
      <use xlink:href="#DejaVuSans-53"/>
      <use xlink:href="#DejaVuSans-74" x="63.476562"/>
      <use xlink:href="#DejaVuSans-65" x="102.685547"/>
      <use xlink:href="#DejaVuSans-76" x="164.208984"/>
      <use xlink:href="#DejaVuSans-65" x="223.388672"/>
      <use xlink:href="#DejaVuSans-20" x="284.912109"/>
      <use xlink:href="#DejaVuSans-42" x="316.699219"/>
      <use xlink:href="#DejaVuSans-75" x="385.302734"/>
      <use xlink:href="#DejaVuSans-73" x="448.681641"/>
      <use xlink:href="#DejaVuSans-63" x="500.78125"/>
      <use xlink:href="#DejaVuSans-65" x="555.761719"/>
      <use xlink:href="#DejaVuSans-6d" x="617.285156"/>
      <use xlink:href="#DejaVuSans-69" x="714.697266"/>
     </g>
    </g>
   </g>
   <g id="text_3">
    <g id="patch_4">
     <path d="M 389.209303 148.90571 
L 463.390397 148.90571 
L 463.390397 132.275398 
L 389.209303 132.275398 
z
" clip-path="url(#p877f43aacb)" style="fill: #ffffff; opacity: 0.7; stroke: #000000; stroke-linejoin: miter"/>
    </g>
    <g clip-path="url(#p877f43aacb)">
     <!-- Robert De Niro -->
     <g transform="translate(393.169303 143.073992)scale(0.09 -0.09)">
      <defs>
       <path id="DejaVuSans-52" d="M 2841 2188 
Q 3044 2119 3236 1894 
Q 3428 1669 3622 1275 
L 4263 0 
L 3584 0 
L 2988 1197 
Q 2756 1666 2539 1819 
Q 2322 1972 1947 1972 
L 1259 1972 
L 1259 0 
L 628 0 
L 628 4666 
L 2053 4666 
Q 2853 4666 3247 4331 
Q 3641 3997 3641 3322 
Q 3641 2881 3436 2590 
Q 3231 2300 2841 2188 
z
M 1259 4147 
L 1259 2491 
L 2053 2491 
Q 2509 2491 2742 2702 
Q 2975 2913 2975 3322 
Q 2975 3731 2742 3939 
Q 2509 4147 2053 4147 
L 1259 4147 
z
" transform="scale(0.015625)"/>
       <path id="DejaVuSans-62" d="M 3116 1747 
Q 3116 2381 2855 2742 
Q 2594 3103 2138 3103 
Q 1681 3103 1420 2742 
Q 1159 2381 1159 1747 
Q 1159 1113 1420 752 
Q 1681 391 2138 391 
Q 2594 391 2855 752 
Q 3116 1113 3116 1747 
z
M 1159 2969 
Q 1341 3281 1617 3432 
Q 1894 3584 2278 3584 
Q 2916 3584 3314 3078 
Q 3713 2572 3713 1747 
Q 3713 922 3314 415 
Q 2916 -91 2278 -91 
Q 1894 -91 1617 61 
Q 1341 213 1159 525 
L 1159 0 
L 581 0 
L 581 4863 
L 1159 4863 
L 1159 2969 
z
" transform="scale(0.015625)"/>
       <path id="DejaVuSans-72" d="M 2631 2963 
Q 2534 3019 2420 3045 
Q 2306 3072 2169 3072 
Q 1681 3072 1420 2755 
Q 1159 2438 1159 1844 
L 1159 0 
L 581 0 
L 581 3500 
L 1159 3500 
L 1159 2956 
Q 1341 3275 1631 3429 
Q 1922 3584 2338 3584 
Q 2397 3584 2469 3576 
Q 2541 3569 2628 3553 
L 2631 2963 
z
" transform="scale(0.015625)"/>
       <path id="DejaVuSans-4e" d="M 628 4666 
L 1478 4666 
L 3547 763 
L 3547 4666 
L 4159 4666 
L 4159 0 
L 3309 0 
L 1241 3903 
L 1241 0 
L 628 0 
L 628 4666 
z
" transform="scale(0.015625)"/>
      </defs>
      <use xlink:href="#DejaVuSans-52"/>
      <use xlink:href="#DejaVuSans-6f" x="64.982422"/>
      <use xlink:href="#DejaVuSans-62" x="126.164062"/>
      <use xlink:href="#DejaVuSans-65" x="189.640625"/>
      <use xlink:href="#DejaVuSans-72" x="251.164062"/>
      <use xlink:href="#DejaVuSans-74" x="292.277344"/>
      <use xlink:href="#DejaVuSans-20" x="331.486328"/>
      <use xlink:href="#DejaVuSans-44" x="363.273438"/>
      <use xlink:href="#DejaVuSans-65" x="440.275391"/>
      <use xlink:href="#DejaVuSans-20" x="501.798828"/>
      <use xlink:href="#DejaVuSans-4e" x="533.585938"/>
      <use xlink:href="#DejaVuSans-69" x="608.390625"/>
      <use xlink:href="#DejaVuSans-72" x="636.173828"/>
      <use xlink:href="#DejaVuSans-6f" x="675.037109"/>
     </g>
    </g>
   </g>
   <g id="text_4">
    <g id="patch_5">
     <path d="M 315.681401 104.377 
L 381.647182 104.377 
L 381.647182 87.746687 
L 315.681401 87.746687 
z
" clip-path="url(#p877f43aacb)" style="fill: #ffffff; opacity: 0.7; stroke: #000000; stroke-linejoin: miter"/>
    </g>
    <g clip-path="url(#p877f43aacb)">
     <!-- Frank Welker -->
     <g transform="translate(319.641401 98.545281)scale(0.09 -0.09)">
      <defs>
       <path id="DejaVuSans-46" d="M 628 4666 
L 3309 4666 
L 3309 4134 
L 1259 4134 
L 1259 2759 
L 3109 2759 
L 3109 2228 
L 1259 2228 
L 1259 0 
L 628 0 
L 628 4666 
z
" transform="scale(0.015625)"/>
       <path id="DejaVuSans-6b" d="M 581 4863 
L 1159 4863 
L 1159 1991 
L 2875 3500 
L 3609 3500 
L 1753 1863 
L 3688 0 
L 2938 0 
L 1159 1709 
L 1159 0 
L 581 0 
L 581 4863 
z
" transform="scale(0.015625)"/>
       <path id="DejaVuSans-57" d="M 213 4666 
L 850 4666 
L 1831 722 
L 2809 4666 
L 3519 4666 
L 4500 722 
L 5478 4666 
L 6119 4666 
L 4947 0 
L 4153 0 
L 3169 4050 
L 2175 0 
L 1381 0 
L 213 4666 
z
" transform="scale(0.015625)"/>
       <path id="DejaVuSans-6c" d="M 603 4863 
L 1178 4863 
L 1178 0 
L 603 0 
L 603 4863 
z
" transform="scale(0.015625)"/>
      </defs>
      <use xlink:href="#DejaVuSans-46"/>
      <use xlink:href="#DejaVuSans-72" x="50.269531"/>
      <use xlink:href="#DejaVuSans-61" x="91.382812"/>
      <use xlink:href="#DejaVuSans-6e" x="152.662109"/>
      <use xlink:href="#DejaVuSans-6b" x="216.041016"/>
      <use xlink:href="#DejaVuSans-20" x="273.951172"/>
      <use xlink:href="#DejaVuSans-57" x="305.738281"/>
      <use xlink:href="#DejaVuSans-65" x="398.740234"/>
      <use xlink:href="#DejaVuSans-6c" x="460.263672"/>
      <use xlink:href="#DejaVuSans-6b" x="488.046875"/>
      <use xlink:href="#DejaVuSans-65" x="542.332031"/>
      <use xlink:href="#DejaVuSans-72" x="603.855469"/>
     </g>
    </g>
   </g>
   <g id="text_5">
    <g id="patch_6">
     <path d="M 223.094705 95.067964 
L 295.924392 95.067964 
L 295.924392 78.437651 
L 223.094705 78.437651 
z
" clip-path="url(#p877f43aacb)" style="fill: #ffffff; opacity: 0.7; stroke: #000000; stroke-linejoin: miter"/>
    </g>
    <g clip-path="url(#p877f43aacb)">
     <!-- Jim Cummings -->
     <g transform="translate(227.054705 89.236245)scale(0.09 -0.09)">
      <defs>
       <path id="DejaVuSans-4a" d="M 628 4666 
L 1259 4666 
L 1259 325 
Q 1259 -519 939 -900 
Q 619 -1281 -91 -1281 
L -331 -1281 
L -331 -750 
L -134 -750 
Q 284 -750 456 -515 
Q 628 -281 628 325 
L 628 4666 
z
" transform="scale(0.015625)"/>
       <path id="DejaVuSans-43" d="M 4122 4306 
L 4122 3641 
Q 3803 3938 3442 4084 
Q 3081 4231 2675 4231 
Q 1875 4231 1450 3742 
Q 1025 3253 1025 2328 
Q 1025 1406 1450 917 
Q 1875 428 2675 428 
Q 3081 428 3442 575 
Q 3803 722 4122 1019 
L 4122 359 
Q 3791 134 3420 21 
Q 3050 -91 2638 -91 
Q 1578 -91 968 557 
Q 359 1206 359 2328 
Q 359 3453 968 4101 
Q 1578 4750 2638 4750 
Q 3056 4750 3426 4639 
Q 3797 4528 4122 4306 
z
" transform="scale(0.015625)"/>
       <path id="DejaVuSans-67" d="M 2906 1791 
Q 2906 2416 2648 2759 
Q 2391 3103 1925 3103 
Q 1463 3103 1205 2759 
Q 947 2416 947 1791 
Q 947 1169 1205 825 
Q 1463 481 1925 481 
Q 2391 481 2648 825 
Q 2906 1169 2906 1791 
z
M 3481 434 
Q 3481 -459 3084 -895 
Q 2688 -1331 1869 -1331 
Q 1566 -1331 1297 -1286 
Q 1028 -1241 775 -1147 
L 775 -588 
Q 1028 -725 1275 -790 
Q 1522 -856 1778 -856 
Q 2344 -856 2625 -561 
Q 2906 -266 2906 331 
L 2906 616 
Q 2728 306 2450 153 
Q 2172 0 1784 0 
Q 1141 0 747 490 
Q 353 981 353 1791 
Q 353 2603 747 3093 
Q 1141 3584 1784 3584 
Q 2172 3584 2450 3431 
Q 2728 3278 2906 2969 
L 2906 3500 
L 3481 3500 
L 3481 434 
z
" transform="scale(0.015625)"/>
      </defs>
      <use xlink:href="#DejaVuSans-4a"/>
      <use xlink:href="#DejaVuSans-69" x="29.492188"/>
      <use xlink:href="#DejaVuSans-6d" x="57.275391"/>
      <use xlink:href="#DejaVuSans-20" x="154.6875"/>
      <use xlink:href="#DejaVuSans-43" x="186.474609"/>
      <use xlink:href="#DejaVuSans-75" x="256.298828"/>
      <use xlink:href="#DejaVuSans-6d" x="319.677734"/>
      <use xlink:href="#DejaVuSans-6d" x="417.089844"/>
      <use xlink:href="#DejaVuSans-69" x="514.501953"/>
      <use xlink:href="#DejaVuSans-6e" x="542.285156"/>
      <use xlink:href="#DejaVuSans-67" x="605.664062"/>
      <use xlink:href="#DejaVuSans-73" x="669.140625"/>
     </g>
    </g>
   </g>
   <g id="text_6">
    <g id="patch_7">
     <path d="M 137.799892 122.588231 
L 210.702704 122.588231 
L 210.702704 105.957919 
L 137.799892 105.957919 
z
" clip-path="url(#p877f43aacb)" style="fill: #ffffff; opacity: 0.7; stroke: #000000; stroke-linejoin: miter"/>
    </g>
    <g clip-path="url(#p877f43aacb)">
     <!-- Jack Nicholson -->
     <g transform="translate(141.759892 116.756512)scale(0.09 -0.09)">
      <defs>
       <path id="DejaVuSans-68" d="M 3513 2113 
L 3513 0 
L 2938 0 
L 2938 2094 
Q 2938 2591 2744 2837 
Q 2550 3084 2163 3084 
Q 1697 3084 1428 2787 
Q 1159 2491 1159 1978 
L 1159 0 
L 581 0 
L 581 4863 
L 1159 4863 
L 1159 2956 
Q 1366 3272 1645 3428 
Q 1925 3584 2291 3584 
Q 2894 3584 3203 3211 
Q 3513 2838 3513 2113 
z
" transform="scale(0.015625)"/>
      </defs>
      <use xlink:href="#DejaVuSans-4a"/>
      <use xlink:href="#DejaVuSans-61" x="29.492188"/>
      <use xlink:href="#DejaVuSans-63" x="90.771484"/>
      <use xlink:href="#DejaVuSans-6b" x="145.751953"/>
      <use xlink:href="#DejaVuSans-20" x="203.662109"/>
      <use xlink:href="#DejaVuSans-4e" x="235.449219"/>
      <use xlink:href="#DejaVuSans-69" x="310.253906"/>
      <use xlink:href="#DejaVuSans-63" x="338.037109"/>
      <use xlink:href="#DejaVuSans-68" x="393.017578"/>
      <use xlink:href="#DejaVuSans-6f" x="456.396484"/>
      <use xlink:href="#DejaVuSans-6c" x="517.578125"/>
      <use xlink:href="#DejaVuSans-73" x="545.361328"/>
      <use xlink:href="#DejaVuSans-6f" x="597.460938"/>
      <use xlink:href="#DejaVuSans-6e" x="658.642578"/>
     </g>
    </g>
   </g>
   <g id="text_7">
    <g id="patch_8">
     <path d="M 74.209836 182.179282 
L 141.053118 182.179282 
L 141.053118 165.54897 
L 74.209836 165.54897 
z
" clip-path="url(#p877f43aacb)" style="fill: #ffffff; opacity: 0.7; stroke: #000000; stroke-linejoin: miter"/>
    </g>
    <g clip-path="url(#p877f43aacb)">
     <!-- Stanley Tucci -->
     <g transform="translate(78.169836 176.347563)scale(0.09 -0.09)">
      <defs>
       <path id="DejaVuSans-54" d="M -19 4666 
L 3928 4666 
L 3928 4134 
L 2272 4134 
L 2272 0 
L 1638 0 
L 1638 4134 
L -19 4134 
L -19 4666 
z
" transform="scale(0.015625)"/>
      </defs>
      <use xlink:href="#DejaVuSans-53"/>
      <use xlink:href="#DejaVuSans-74" x="63.476562"/>
      <use xlink:href="#DejaVuSans-61" x="102.685547"/>
      <use xlink:href="#DejaVuSans-6e" x="163.964844"/>
      <use xlink:href="#DejaVuSans-6c" x="227.34375"/>
      <use xlink:href="#DejaVuSans-65" x="255.126953"/>
      <use xlink:href="#DejaVuSans-79" x="316.650391"/>
      <use xlink:href="#DejaVuSans-20" x="375.830078"/>
      <use xlink:href="#DejaVuSans-54" x="407.617188"/>
      <use xlink:href="#DejaVuSans-75" x="453.576172"/>
      <use xlink:href="#DejaVuSans-63" x="516.955078"/>
      <use xlink:href="#DejaVuSans-63" x="571.935547"/>
      <use xlink:href="#DejaVuSans-69" x="626.916016"/>
     </g>
    </g>
   </g>
   <g id="text_8">
    <g id="patch_9">
     <path d="M 45.45595 263.537309 
L 96.882512 263.537309 
L 96.882512 246.906996 
L 45.45595 246.906996 
z
" clip-path="url(#p877f43aacb)" style="fill: #ffffff; opacity: 0.7; stroke: #000000; stroke-linejoin: miter"/>
    </g>
    <g clip-path="url(#p877f43aacb)">
     <!-- Mel Blanc -->
     <g transform="translate(49.41595 257.70559)scale(0.09 -0.09)">
      <defs>
       <path id="DejaVuSans-4d" d="M 628 4666 
L 1569 4666 
L 2759 1491 
L 3956 4666 
L 4897 4666 
L 4897 0 
L 4281 0 
L 4281 4097 
L 3078 897 
L 2444 897 
L 1241 4097 
L 1241 0 
L 628 0 
L 628 4666 
z
" transform="scale(0.015625)"/>
      </defs>
      <use xlink:href="#DejaVuSans-4d"/>
      <use xlink:href="#DejaVuSans-65" x="86.279297"/>
      <use xlink:href="#DejaVuSans-6c" x="147.802734"/>
      <use xlink:href="#DejaVuSans-20" x="175.585938"/>
      <use xlink:href="#DejaVuSans-42" x="207.373047"/>
      <use xlink:href="#DejaVuSans-6c" x="275.976562"/>
      <use xlink:href="#DejaVuSans-61" x="303.759766"/>
      <use xlink:href="#DejaVuSans-6e" x="365.039062"/>
      <use xlink:href="#DejaVuSans-63" x="428.417969"/>
     </g>
    </g>
   </g>
   <g id="text_9">
    <g id="patch_10">
     <path d="M 31.631822 352.594744 
L 110.706665 352.594744 
L 110.706665 335.964431 
L 31.631822 335.964431 
z
" clip-path="url(#p877f43aacb)" style="fill: #ffffff; opacity: 0.7; stroke: #000000; stroke-linejoin: miter"/>
    </g>
    <g clip-path="url(#p877f43aacb)">
     <!-- Jennifer Aniston -->
     <g transform="translate(35.591822 346.763025)scale(0.09 -0.09)">
      <defs>
       <path id="DejaVuSans-66" d="M 2375 4863 
L 2375 4384 
L 1825 4384 
Q 1516 4384 1395 4259 
Q 1275 4134 1275 3809 
L 1275 3500 
L 2222 3500 
L 2222 3053 
L 1275 3053 
L 1275 0 
L 697 0 
L 697 3053 
L 147 3053 
L 147 3500 
L 697 3500 
L 697 3744 
Q 697 4328 969 4595 
Q 1241 4863 1831 4863 
L 2375 4863 
z
" transform="scale(0.015625)"/>
       <path id="DejaVuSans-41" d="M 2188 4044 
L 1331 1722 
L 3047 1722 
L 2188 4044 
z
M 1831 4666 
L 2547 4666 
L 4325 0 
L 3669 0 
L 3244 1197 
L 1141 1197 
L 716 0 
L 50 0 
L 1831 4666 
z
" transform="scale(0.015625)"/>
      </defs>
      <use xlink:href="#DejaVuSans-4a"/>
      <use xlink:href="#DejaVuSans-65" x="29.492188"/>
      <use xlink:href="#DejaVuSans-6e" x="91.015625"/>
      <use xlink:href="#DejaVuSans-6e" x="154.394531"/>
      <use xlink:href="#DejaVuSans-69" x="217.773438"/>
      <use xlink:href="#DejaVuSans-66" x="245.556641"/>
      <use xlink:href="#DejaVuSans-65" x="280.761719"/>
      <use xlink:href="#DejaVuSans-72" x="342.285156"/>
      <use xlink:href="#DejaVuSans-20" x="383.398438"/>
      <use xlink:href="#DejaVuSans-41" x="415.185547"/>
      <use xlink:href="#DejaVuSans-6e" x="483.59375"/>
      <use xlink:href="#DejaVuSans-69" x="546.972656"/>
      <use xlink:href="#DejaVuSans-73" x="574.755859"/>
      <use xlink:href="#DejaVuSans-74" x="626.855469"/>
      <use xlink:href="#DejaVuSans-6f" x="666.064453"/>
      <use xlink:href="#DejaVuSans-6e" x="727.246094"/>
     </g>
    </g>
   </g>
   <g id="text_10">
    <g id="patch_11">
     <path d="M 83.314615 433.952745 
L 131.948365 433.952745 
L 131.948365 417.322432 
L 83.314615 417.322432 
z
" clip-path="url(#p877f43aacb)" style="fill: #ffffff; opacity: 0.7; stroke: #000000; stroke-linejoin: miter"/>
    </g>
    <g clip-path="url(#p877f43aacb)">
     <!-- Al Pacino -->
     <g transform="translate(87.274615 428.121026)scale(0.09 -0.09)">
      <defs>
       <path id="DejaVuSans-50" d="M 1259 4147 
L 1259 2394 
L 2053 2394 
Q 2494 2394 2734 2622 
Q 2975 2850 2975 3272 
Q 2975 3691 2734 3919 
Q 2494 4147 2053 4147 
L 1259 4147 
z
M 628 4666 
L 2053 4666 
Q 2838 4666 3239 4311 
Q 3641 3956 3641 3272 
Q 3641 2581 3239 2228 
Q 2838 1875 2053 1875 
L 1259 1875 
L 1259 0 
L 628 0 
L 628 4666 
z
" transform="scale(0.015625)"/>
      </defs>
      <use xlink:href="#DejaVuSans-41"/>
      <use xlink:href="#DejaVuSans-6c" x="68.408203"/>
      <use xlink:href="#DejaVuSans-20" x="96.191406"/>
      <use xlink:href="#DejaVuSans-50" x="127.978516"/>
      <use xlink:href="#DejaVuSans-61" x="183.78125"/>
      <use xlink:href="#DejaVuSans-63" x="245.060547"/>
      <use xlink:href="#DejaVuSans-69" x="300.041016"/>
      <use xlink:href="#DejaVuSans-6e" x="327.824219"/>
      <use xlink:href="#DejaVuSans-6f" x="391.203125"/>
     </g>
    </g>
   </g>
   <g id="text_11">
    <g id="patch_12">
     <path d="M 129.51008 493.543796 
L 218.99258 493.543796 
L 218.99258 476.913483 
L 129.51008 476.913483 
z
" clip-path="url(#p877f43aacb)" style="fill: #ffffff; opacity: 0.7; stroke: #000000; stroke-linejoin: miter"/>
    </g>
    <g clip-path="url(#p877f43aacb)">
     <!-- Samuel L. Jackson -->
     <g transform="translate(133.47008 487.712077)scale(0.09 -0.09)">
      <defs>
       <path id="DejaVuSans-4c" d="M 628 4666 
L 1259 4666 
L 1259 531 
L 3531 531 
L 3531 0 
L 628 0 
L 628 4666 
z
" transform="scale(0.015625)"/>
       <path id="DejaVuSans-2e" d="M 684 794 
L 1344 794 
L 1344 0 
L 684 0 
L 684 794 
z
" transform="scale(0.015625)"/>
      </defs>
      <use xlink:href="#DejaVuSans-53"/>
      <use xlink:href="#DejaVuSans-61" x="63.476562"/>
      <use xlink:href="#DejaVuSans-6d" x="124.755859"/>
      <use xlink:href="#DejaVuSans-75" x="222.167969"/>
      <use xlink:href="#DejaVuSans-65" x="285.546875"/>
      <use xlink:href="#DejaVuSans-6c" x="347.070312"/>
      <use xlink:href="#DejaVuSans-20" x="374.853516"/>
      <use xlink:href="#DejaVuSans-4c" x="406.640625"/>
      <use xlink:href="#DejaVuSans-2e" x="462.353516"/>
      <use xlink:href="#DejaVuSans-20" x="494.140625"/>
      <use xlink:href="#DejaVuSans-4a" x="525.927734"/>
      <use xlink:href="#DejaVuSans-61" x="555.419922"/>
      <use xlink:href="#DejaVuSans-63" x="616.699219"/>
      <use xlink:href="#DejaVuSans-6b" x="671.679688"/>
      <use xlink:href="#DejaVuSans-73" x="729.589844"/>
      <use xlink:href="#DejaVuSans-6f" x="781.689453"/>
      <use xlink:href="#DejaVuSans-6e" x="842.871094"/>
     </g>
    </g>
   </g>
   <g id="text_12">
    <g id="patch_13">
     <path d="M 226.397322 521.06405 
L 292.621853 521.06405 
L 292.621853 504.433738 
L 226.397322 504.433738 
z
" clip-path="url(#p877f43aacb)" style="fill: #ffffff; opacity: 0.7; stroke: #000000; stroke-linejoin: miter"/>
    </g>
    <g clip-path="url(#p877f43aacb)">
     <!-- Nicolas Cage -->
     <g transform="translate(230.357322 515.232332)scale(0.09 -0.09)">
      <use xlink:href="#DejaVuSans-4e"/>
      <use xlink:href="#DejaVuSans-69" x="74.804688"/>
      <use xlink:href="#DejaVuSans-63" x="102.587891"/>
      <use xlink:href="#DejaVuSans-6f" x="157.568359"/>
      <use xlink:href="#DejaVuSans-6c" x="218.75"/>
      <use xlink:href="#DejaVuSans-61" x="246.533203"/>
      <use xlink:href="#DejaVuSans-73" x="307.8125"/>
      <use xlink:href="#DejaVuSans-20" x="359.912109"/>
      <use xlink:href="#DejaVuSans-43" x="391.699219"/>
      <use xlink:href="#DejaVuSans-61" x="461.523438"/>
      <use xlink:href="#DejaVuSans-67" x="522.802734"/>
      <use xlink:href="#DejaVuSans-65" x="586.279297"/>
     </g>
    </g>
   </g>
   <g id="text_13">
    <g id="patch_14">
     <path d="M 311.803698 511.755002 
L 385.524948 511.755002 
L 385.524948 495.12469 
L 311.803698 495.12469 
z
" clip-path="url(#p877f43aacb)" style="fill: #ffffff; opacity: 0.7; stroke: #000000; stroke-linejoin: miter"/>
    </g>
    <g clip-path="url(#p877f43aacb)">
     <!-- Robin Williams -->
     <g transform="translate(315.763698 505.923283)scale(0.09 -0.09)">
      <use xlink:href="#DejaVuSans-52"/>
      <use xlink:href="#DejaVuSans-6f" x="64.982422"/>
      <use xlink:href="#DejaVuSans-62" x="126.164062"/>
      <use xlink:href="#DejaVuSans-69" x="189.640625"/>
      <use xlink:href="#DejaVuSans-6e" x="217.423828"/>
      <use xlink:href="#DejaVuSans-20" x="280.802734"/>
      <use xlink:href="#DejaVuSans-57" x="312.589844"/>
      <use xlink:href="#DejaVuSans-69" x="409.216797"/>
      <use xlink:href="#DejaVuSans-6c" x="437"/>
      <use xlink:href="#DejaVuSans-6c" x="464.783203"/>
      <use xlink:href="#DejaVuSans-69" x="492.566406"/>
      <use xlink:href="#DejaVuSans-61" x="520.349609"/>
      <use xlink:href="#DejaVuSans-6d" x="581.628906"/>
      <use xlink:href="#DejaVuSans-73" x="679.041016"/>
     </g>
    </g>
   </g>
   <g id="text_14">
    <g id="patch_15">
     <path d="M 389.281763 467.226266 
L 463.318013 467.226266 
L 463.318013 450.595953 
L 389.281763 450.595953 
z
" clip-path="url(#p877f43aacb)" style="fill: #ffffff; opacity: 0.7; stroke: #000000; stroke-linejoin: miter"/>
    </g>
    <g clip-path="url(#p877f43aacb)">
     <!-- John Goodman -->
     <g transform="translate(393.241763 461.394547)scale(0.09 -0.09)">
      <defs>
       <path id="DejaVuSans-47" d="M 3809 666 
L 3809 1919 
L 2778 1919 
L 2778 2438 
L 4434 2438 
L 4434 434 
Q 4069 175 3628 42 
Q 3188 -91 2688 -91 
Q 1594 -91 976 548 
Q 359 1188 359 2328 
Q 359 3472 976 4111 
Q 1594 4750 2688 4750 
Q 3144 4750 3555 4637 
Q 3966 4525 4313 4306 
L 4313 3634 
Q 3963 3931 3569 4081 
Q 3175 4231 2741 4231 
Q 1884 4231 1454 3753 
Q 1025 3275 1025 2328 
Q 1025 1384 1454 906 
Q 1884 428 2741 428 
Q 3075 428 3337 486 
Q 3600 544 3809 666 
z
" transform="scale(0.015625)"/>
       <path id="DejaVuSans-64" d="M 2906 2969 
L 2906 4863 
L 3481 4863 
L 3481 0 
L 2906 0 
L 2906 525 
Q 2725 213 2448 61 
Q 2172 -91 1784 -91 
Q 1150 -91 751 415 
Q 353 922 353 1747 
Q 353 2572 751 3078 
Q 1150 3584 1784 3584 
Q 2172 3584 2448 3432 
Q 2725 3281 2906 2969 
z
M 947 1747 
Q 947 1113 1208 752 
Q 1469 391 1925 391 
Q 2381 391 2643 752 
Q 2906 1113 2906 1747 
Q 2906 2381 2643 2742 
Q 2381 3103 1925 3103 
Q 1469 3103 1208 2742 
Q 947 2381 947 1747 
z
" transform="scale(0.015625)"/>
      </defs>
      <use xlink:href="#DejaVuSans-4a"/>
      <use xlink:href="#DejaVuSans-6f" x="29.492188"/>
      <use xlink:href="#DejaVuSans-68" x="90.673828"/>
      <use xlink:href="#DejaVuSans-6e" x="154.052734"/>
      <use xlink:href="#DejaVuSans-20" x="217.431641"/>
      <use xlink:href="#DejaVuSans-47" x="249.21875"/>
      <use xlink:href="#DejaVuSans-6f" x="326.708984"/>
      <use xlink:href="#DejaVuSans-6f" x="387.890625"/>
      <use xlink:href="#DejaVuSans-64" x="449.072266"/>
      <use xlink:href="#DejaVuSans-6d" x="512.548828"/>
      <use xlink:href="#DejaVuSans-61" x="609.960938"/>
      <use xlink:href="#DejaVuSans-6e" x="671.240234"/>
     </g>
    </g>
   </g>
   <g id="text_15">
    <g id="patch_16">
     <path d="M 452.358702 395.177287 
L 505.626045 395.177287 
L 505.626045 378.546975 
L 452.358702 378.546975 
z
" clip-path="url(#p877f43aacb)" style="fill: #ffffff; opacity: 0.7; stroke: #000000; stroke-linejoin: miter"/>
    </g>
    <g clip-path="url(#p877f43aacb)">
     <!-- Ray Liotta -->
     <g transform="translate(456.318702 389.345568)scale(0.09 -0.09)">
      <use xlink:href="#DejaVuSans-52"/>
      <use xlink:href="#DejaVuSans-61" x="67.232422"/>
      <use xlink:href="#DejaVuSans-79" x="128.511719"/>
      <use xlink:href="#DejaVuSans-20" x="187.691406"/>
      <use xlink:href="#DejaVuSans-4c" x="219.478516"/>
      <use xlink:href="#DejaVuSans-69" x="275.191406"/>
      <use xlink:href="#DejaVuSans-6f" x="302.974609"/>
      <use xlink:href="#DejaVuSans-74" x="364.15625"/>
      <use xlink:href="#DejaVuSans-74" x="403.365234"/>
      <use xlink:href="#DejaVuSans-61" x="442.574219"/>
     </g>
    </g>
   </g>
   <g id="text_16">
    <!-- Impactful actors for Comedy genre - Importance rank: 5 -->
    <g transform="translate(116.078437 16.318125)scale(0.12 -0.12)">
     <defs>
      <path id="DejaVuSans-49" d="M 628 4666 
L 1259 4666 
L 1259 0 
L 628 0 
L 628 4666 
z
" transform="scale(0.015625)"/>
      <path id="DejaVuSans-70" d="M 1159 525 
L 1159 -1331 
L 581 -1331 
L 581 3500 
L 1159 3500 
L 1159 2969 
Q 1341 3281 1617 3432 
Q 1894 3584 2278 3584 
Q 2916 3584 3314 3078 
Q 3713 2572 3713 1747 
Q 3713 922 3314 415 
Q 2916 -91 2278 -91 
Q 1894 -91 1617 61 
Q 1341 213 1159 525 
z
M 3116 1747 
Q 3116 2381 2855 2742 
Q 2594 3103 2138 3103 
Q 1681 3103 1420 2742 
Q 1159 2381 1159 1747 
Q 1159 1113 1420 752 
Q 1681 391 2138 391 
Q 2594 391 2855 752 
Q 3116 1113 3116 1747 
z
" transform="scale(0.015625)"/>
      <path id="DejaVuSans-2d" d="M 313 2009 
L 1997 2009 
L 1997 1497 
L 313 1497 
L 313 2009 
z
" transform="scale(0.015625)"/>
      <path id="DejaVuSans-3a" d="M 750 794 
L 1409 794 
L 1409 0 
L 750 0 
L 750 794 
z
M 750 3309 
L 1409 3309 
L 1409 2516 
L 750 2516 
L 750 3309 
z
" transform="scale(0.015625)"/>
      <path id="DejaVuSans-35" d="M 691 4666 
L 3169 4666 
L 3169 4134 
L 1269 4134 
L 1269 2991 
Q 1406 3038 1543 3061 
Q 1681 3084 1819 3084 
Q 2600 3084 3056 2656 
Q 3513 2228 3513 1497 
Q 3513 744 3044 326 
Q 2575 -91 1722 -91 
Q 1428 -91 1123 -41 
Q 819 9 494 109 
L 494 744 
Q 775 591 1075 516 
Q 1375 441 1709 441 
Q 2250 441 2565 725 
Q 2881 1009 2881 1497 
Q 2881 1984 2565 2268 
Q 2250 2553 1709 2553 
Q 1456 2553 1204 2497 
Q 953 2441 691 2322 
L 691 4666 
z
" transform="scale(0.015625)"/>
     </defs>
     <use xlink:href="#DejaVuSans-49"/>
     <use xlink:href="#DejaVuSans-6d" x="29.492188"/>
     <use xlink:href="#DejaVuSans-70" x="126.904297"/>
     <use xlink:href="#DejaVuSans-61" x="190.380859"/>
     <use xlink:href="#DejaVuSans-63" x="251.660156"/>
     <use xlink:href="#DejaVuSans-74" x="306.640625"/>
     <use xlink:href="#DejaVuSans-66" x="345.849609"/>
     <use xlink:href="#DejaVuSans-75" x="381.054688"/>
     <use xlink:href="#DejaVuSans-6c" x="444.433594"/>
     <use xlink:href="#DejaVuSans-20" x="472.216797"/>
     <use xlink:href="#DejaVuSans-61" x="504.003906"/>
     <use xlink:href="#DejaVuSans-63" x="565.283203"/>
     <use xlink:href="#DejaVuSans-74" x="620.263672"/>
     <use xlink:href="#DejaVuSans-6f" x="659.472656"/>
     <use xlink:href="#DejaVuSans-72" x="720.654297"/>
     <use xlink:href="#DejaVuSans-73" x="761.767578"/>
     <use xlink:href="#DejaVuSans-20" x="813.867188"/>
     <use xlink:href="#DejaVuSans-66" x="845.654297"/>
     <use xlink:href="#DejaVuSans-6f" x="880.859375"/>
     <use xlink:href="#DejaVuSans-72" x="942.041016"/>
     <use xlink:href="#DejaVuSans-20" x="983.154297"/>
     <use xlink:href="#DejaVuSans-43" x="1014.941406"/>
     <use xlink:href="#DejaVuSans-6f" x="1084.765625"/>
     <use xlink:href="#DejaVuSans-6d" x="1145.947266"/>
     <use xlink:href="#DejaVuSans-65" x="1243.359375"/>
     <use xlink:href="#DejaVuSans-64" x="1304.882812"/>
     <use xlink:href="#DejaVuSans-79" x="1368.359375"/>
     <use xlink:href="#DejaVuSans-20" x="1427.539062"/>
     <use xlink:href="#DejaVuSans-67" x="1459.326172"/>
     <use xlink:href="#DejaVuSans-65" x="1522.802734"/>
     <use xlink:href="#DejaVuSans-6e" x="1584.326172"/>
     <use xlink:href="#DejaVuSans-72" x="1647.705078"/>
     <use xlink:href="#DejaVuSans-65" x="1686.568359"/>
     <use xlink:href="#DejaVuSans-20" x="1748.091797"/>
     <use xlink:href="#DejaVuSans-2d" x="1779.878906"/>
     <use xlink:href="#DejaVuSans-20" x="1815.962891"/>
     <use xlink:href="#DejaVuSans-49" x="1847.75"/>
     <use xlink:href="#DejaVuSans-6d" x="1877.242188"/>
     <use xlink:href="#DejaVuSans-70" x="1974.654297"/>
     <use xlink:href="#DejaVuSans-6f" x="2038.130859"/>
     <use xlink:href="#DejaVuSans-72" x="2099.3125"/>
     <use xlink:href="#DejaVuSans-74" x="2140.425781"/>
     <use xlink:href="#DejaVuSans-61" x="2179.634766"/>
     <use xlink:href="#DejaVuSans-6e" x="2240.914062"/>
     <use xlink:href="#DejaVuSans-63" x="2304.292969"/>
     <use xlink:href="#DejaVuSans-65" x="2359.273438"/>
     <use xlink:href="#DejaVuSans-20" x="2420.796875"/>
     <use xlink:href="#DejaVuSans-72" x="2452.583984"/>
     <use xlink:href="#DejaVuSans-61" x="2493.697266"/>
     <use xlink:href="#DejaVuSans-6e" x="2554.976562"/>
     <use xlink:href="#DejaVuSans-6b" x="2618.355469"/>
     <use xlink:href="#DejaVuSans-3a" x="2676.265625"/>
     <use xlink:href="#DejaVuSans-20" x="2709.957031"/>
     <use xlink:href="#DejaVuSans-35" x="2741.744141"/>
    </g>
   </g>
  </g>
 </g>
 <defs>
  <clipPath id="p877f43aacb">
   <rect x="7.2" y="22.318125" width="554.4" height="554.4"/>
  </clipPath>
 </defs>
</svg>
