<?xml version="1.0" encoding="utf-8" standalone="no"?>
<!DOCTYPE svg PUBLIC "-//W3C//DTD SVG 1.1//EN"
  "http://www.w3.org/Graphics/SVG/1.1/DTD/svg11.dtd">
<svg xmlns:xlink="http://www.w3.org/1999/xlink" width="568.8pt" height="583.918125pt" viewBox="0 0 568.8 583.918125" xmlns="http://www.w3.org/2000/svg" version="1.1">
 <metadata>
  <rdf:RDF xmlns:dc="http://purl.org/dc/elements/1.1/" xmlns:cc="http://creativecommons.org/ns#" xmlns:rdf="http://www.w3.org/1999/02/22-rdf-syntax-ns#">
   <cc:Work>
    <dc:type rdf:resource="http://purl.org/dc/dcmitype/StillImage"/>
    <dc:date>2022-12-23T19:49:56.168825</dc:date>
    <dc:format>image/svg+xml</dc:format>
    <dc:creator>
     <cc:Agent>
      <dc:title>Matplotlib v3.5.3, https://matplotlib.org/</dc:title>
     </cc:Agent>
    </dc:creator>
   </cc:Work>
  </rdf:RDF>
 </metadata>
 <defs>
  <style type="text/css">*{stroke-linejoin: round; stroke-linecap: butt}</style>
 </defs>
 <g id="figure_1">
  <g id="patch_1">
   <path d="M 0 583.918125 
L 568.8 583.918125 
L 568.8 0 
L 0 0 
z
" style="fill: #ffffff"/>
  </g>
  <g id="axes_1">
   <g id="PathCollection_1">
    <path d="M 497.630769 326.904253 
C 504.893655 326.904253 511.86005 324.018678 516.995686 318.883042 
C 522.131322 313.747406 525.016897 306.781011 525.016897 299.518125 
C 525.016897 292.255239 522.131322 285.288844 516.995686 280.153208 
C 511.86005 275.017572 504.893655 272.131997 497.630769 272.131997 
C 490.367883 272.131997 483.401488 275.017572 478.265852 280.153208 
C 473.130217 285.288844 470.244641 292.255239 470.244641 299.518125 
C 470.244641 306.781011 473.130217 313.747406 478.265852 318.883042 
C 483.401488 324.018678 490.367883 326.904253 497.630769 326.904253 
z
" clip-path="url(#p1f5839990c)" style="fill: #c70039; fill-opacity: 0.99; stroke: #c70039; stroke-opacity: 0.99"/>
    <path d="M 478.992348 237.794705 
C 485.750537 237.794705 492.232839 235.109648 497.011601 230.330886 
C 501.790362 225.552125 504.47542 219.069823 504.47542 212.311633 
C 504.47542 205.553444 501.790362 199.071142 497.011601 194.292381 
C 492.232839 189.513619 485.750537 186.828562 478.992348 186.828562 
C 472.234158 186.828562 465.751857 189.513619 460.973095 194.292381 
C 456.194333 199.071142 453.509276 205.553444 453.509276 212.311633 
C 453.509276 219.069823 456.194333 225.552125 460.973095 230.330886 
C 465.751857 235.109648 472.234158 237.794705 478.992348 237.794705 
z
" clip-path="url(#p1f5839990c)" style="fill: #c70039; fill-opacity: 0.99; stroke: #c70039; stroke-opacity: 0.99"/>
    <path d="M 426.29985 164.298782 
C 432.695184 164.298782 438.829443 161.757889 443.351628 157.235704 
C 447.873812 152.71352 450.414705 146.579261 450.414705 140.183927 
C 450.414705 133.788592 447.873812 127.654333 443.351628 123.132149 
C 438.829443 118.609965 432.695184 116.069071 426.29985 116.069071 
C 419.904515 116.069071 413.770256 118.609965 409.248072 123.132149 
C 404.725888 127.654333 402.184995 133.788592 402.184995 140.183927 
C 402.184995 146.579261 404.725888 152.71352 409.248072 157.235704 
C 413.770256 161.757889 419.904515 164.298782 426.29985 164.298782 
z
" clip-path="url(#p1f5839990c)" style="fill: #c70039; fill-opacity: 0.99; stroke: #c70039; stroke-opacity: 0.99"/>
    <path d="M 348.664291 119.535259 
C 355.010256 119.535259 361.09716 117.013981 365.584435 112.526706 
C 370.071709 108.039432 372.592988 101.952527 372.592988 95.606563 
C 372.592988 89.260598 370.071709 83.173694 365.584435 78.686419 
C 361.09716 74.199145 355.010256 71.677866 348.664291 71.677866 
C 342.318327 71.677866 336.231422 74.199145 331.744148 78.686419 
C 327.256873 83.173694 324.735595 89.260598 324.735595 95.606563 
C 324.735595 101.952527 327.256873 108.039432 331.744148 112.526706 
C 336.231422 117.013981 342.318327 119.535259 348.664291 119.535259 
z
" clip-path="url(#p1f5839990c)" style="fill: #c70039; fill-opacity: 0.99; stroke: #c70039; stroke-opacity: 0.99"/>
    <path d="M 259.509549 109.347421 
C 265.625149 109.347421 271.491094 106.917667 275.815477 102.593284 
C 280.13986 98.268902 282.569614 92.402957 282.569614 86.287356 
C 282.569614 80.171755 280.13986 74.30581 275.815477 69.981427 
C 271.491094 65.657044 265.625149 63.22729 259.509549 63.22729 
C 253.393948 63.22729 247.528003 65.657044 243.20362 69.981427 
C 238.879237 74.30581 236.449483 80.171755 236.449483 86.287356 
C 236.449483 92.402957 238.879237 98.268902 243.20362 102.593284 
C 247.528003 106.917667 253.393948 109.347421 259.509549 109.347421 
z
" clip-path="url(#p1f5839990c)" style="fill: #c70039; fill-opacity: 0.99; stroke: #c70039; stroke-opacity: 0.99"/>
    <path d="M 174.251298 136.531561 
C 180.269782 136.531561 186.042575 134.140392 190.298287 129.884681 
C 194.553998 125.62897 196.945167 119.856177 196.945167 113.837692 
C 196.945167 107.819208 194.553998 102.046415 190.298287 97.790704 
C 186.042575 93.534993 180.269782 91.143824 174.251298 91.143824 
C 168.232814 91.143824 162.460021 93.534993 158.20431 97.790704 
C 153.948599 102.046415 151.557429 107.819208 151.557429 113.837692 
C 151.557429 119.856177 153.948599 125.62897 158.20431 129.884681 
C 162.460021 134.140392 168.232814 136.531561 174.251298 136.531561 
z
" clip-path="url(#p1f5839990c)" style="fill: #c70039; fill-opacity: 0.99; stroke: #c70039; stroke-opacity: 0.99"/>
    <path d="M 107.631477 195.677265 
C 113.514587 195.677265 119.157531 193.339881 123.317518 189.179895 
C 127.477504 185.019908 129.814889 179.376963 129.814889 173.493854 
C 129.814889 167.610744 127.477504 161.9678 123.317518 157.807813 
C 119.157531 153.647826 113.514587 151.310442 107.631477 151.310442 
C 101.748367 151.310442 96.105423 153.647826 91.945436 157.807813 
C 87.78545 161.9678 85.448065 167.610744 85.448065 173.493854 
C 85.448065 179.376963 87.78545 185.019908 91.945436 189.179895 
C 96.105423 193.339881 101.748367 195.677265 107.631477 195.677265 
z
" clip-path="url(#p1f5839990c)" style="fill: #c70039; fill-opacity: 0.99; stroke: #c70039; stroke-opacity: 0.99"/>
    <path d="M 71.169231 276.70802 
C 76.941972 276.70802 82.479054 274.414485 86.560998 270.332541 
C 90.642942 266.250597 92.936477 260.713515 92.936477 254.940774 
C 92.936477 249.168033 90.642942 243.630951 86.560998 239.549007 
C 82.479054 235.467062 76.941972 233.173528 71.169231 233.173528 
C 65.39649 233.173528 59.859408 235.467062 55.777464 239.549007 
C 51.695519 243.630951 49.401985 249.168033 49.401985 254.940774 
C 49.401985 260.713515 51.695519 266.250597 55.777464 270.332541 
C 59.859408 274.414485 65.39649 276.70802 71.169231 276.70802 
z
" clip-path="url(#p1f5839990c)" style="fill: #c70039; fill-opacity: 0.99; stroke: #c70039; stroke-opacity: 0.99"/>
    <path d="M 71.169244 365.685263 
C 76.894912 365.685263 82.386842 363.410431 86.435501 359.361772 
C 90.48416 355.313113 92.758992 349.821183 92.758992 344.095514 
C 92.758992 338.369846 90.48416 332.877916 86.435501 328.829257 
C 82.386842 324.780598 76.894912 322.505766 71.169244 322.505766 
C 65.443575 322.505766 59.951645 324.780598 55.902986 328.829257 
C 51.854327 332.877916 49.579495 338.369846 49.579495 344.095514 
C 49.579495 349.821183 51.854327 355.313113 55.902986 359.361772 
C 59.951645 363.410431 65.443575 365.685263 71.169244 365.685263 
z
" clip-path="url(#p1f5839990c)" style="fill: #c70039; fill-opacity: 0.99; stroke: #c70039; stroke-opacity: 0.99"/>
    <path d="M 107.63149 446.947952 
C 113.308306 446.947952 118.753379 444.692529 122.767494 440.678414 
C 126.78161 436.664298 129.037033 431.219225 129.037033 425.542409 
C 129.037033 419.865593 126.78161 414.42052 122.767494 410.406405 
C 118.753379 406.392289 113.308306 404.136866 107.63149 404.136866 
C 101.954674 404.136866 96.509601 406.392289 92.495485 410.406405 
C 88.48137 414.42052 86.225947 419.865593 86.225947 425.542409 
C 86.225947 431.219225 88.48137 436.664298 92.495485 440.678414 
C 96.509601 444.692529 101.954674 446.947952 107.63149 446.947952 
z
" clip-path="url(#p1f5839990c)" style="fill: #c70039; fill-opacity: 0.99; stroke: #c70039; stroke-opacity: 0.99"/>
    <path d="M 174.25133 506.239804 
C 179.831531 506.239804 185.183931 504.022767 189.129729 500.076969 
C 193.075526 496.131172 195.292564 490.778771 195.292564 485.198571 
C 195.292564 479.61837 193.075526 474.265969 189.129729 470.320172 
C 185.183931 466.374374 179.831531 464.157337 174.25133 464.157337 
C 168.67113 464.157337 163.318729 466.374374 159.372931 470.320172 
C 155.427134 474.265969 153.210097 479.61837 153.210097 485.198571 
C 153.210097 490.778771 155.427134 496.131172 159.372931 500.076969 
C 163.318729 504.022767 168.67113 506.239804 174.25133 506.239804 
z
" clip-path="url(#p1f5839990c)" style="fill: #c70039; fill-opacity: 0.99; stroke: #c70039; stroke-opacity: 0.99"/>
    <path d="M 259.509587 533.398518 
C 264.985931 533.398518 270.238716 531.222743 274.111076 527.350383 
C 277.983436 523.478023 280.159211 518.225238 280.159211 512.748894 
C 280.159211 507.27255 277.983436 502.019765 274.111076 498.147405 
C 270.238716 494.275045 264.985931 492.09927 259.509587 492.09927 
C 254.033243 492.09927 248.780458 494.275045 244.908098 498.147405 
C 241.035738 502.019765 238.859963 507.27255 238.859963 512.748894 
C 238.859963 518.225238 241.035738 523.478023 244.908098 527.350383 
C 248.780458 531.222743 254.033243 533.398518 259.509587 533.398518 
z
" clip-path="url(#p1f5839990c)" style="fill: #c70039; fill-opacity: 0.99; stroke: #c70039; stroke-opacity: 0.99"/>
    <path d="M 348.664323 523.313693 
C 353.937627 523.313693 358.995659 521.218587 362.724448 517.489799 
C 366.453236 513.76101 368.548342 508.702978 368.548342 503.429675 
C 368.548342 498.156371 366.453236 493.098339 362.724448 489.36955 
C 358.995659 485.640762 353.937627 483.545656 348.664323 483.545656 
C 343.39102 483.545656 338.332988 485.640762 334.604199 489.36955 
C 330.87541 493.098339 328.780305 498.156371 328.780305 503.429675 
C 328.780305 508.702978 330.87541 513.76101 334.604199 517.489799 
C 338.332988 521.218587 343.39102 523.313693 348.664323 523.313693 
z
" clip-path="url(#p1f5839990c)" style="fill: #c70039; fill-opacity: 0.99; stroke: #c70039; stroke-opacity: 0.99"/>
    <path d="M 426.299888 478.324828 
C 431.464067 478.324828 436.41743 476.273078 440.069055 472.621452 
C 443.720681 468.969826 445.772431 464.016464 445.772431 458.852285 
C 445.772431 453.688106 443.720681 448.734744 440.069055 445.083118 
C 436.41743 441.431492 431.464067 439.379742 426.299888 439.379742 
C 421.13571 439.379742 416.182347 441.431492 412.530721 445.083118 
C 408.879096 448.734744 406.827346 453.688106 406.827346 458.852285 
C 406.827346 464.016464 408.879096 468.969826 412.530721 472.621452 
C 416.182347 476.273078 421.13571 478.324828 426.299888 478.324828 
z
" clip-path="url(#p1f5839990c)" style="fill: #c70039; fill-opacity: 0.99; stroke: #c70039; stroke-opacity: 0.99"/>
    <path d="M 478.992374 406.089501 
C 484.128009 406.089501 489.053994 404.049092 492.685437 400.417649 
C 496.31688 396.786206 498.35729 391.860221 498.35729 386.724585 
C 498.35729 381.588949 496.31688 376.662964 492.685437 373.031521 
C 489.053994 369.400078 484.128009 367.359668 478.992374 367.359668 
C 473.856738 367.359668 468.930753 369.400078 465.29931 373.031521 
C 461.667867 376.662964 459.627457 381.588949 459.627457 386.724585 
C 459.627457 391.860221 461.667867 396.786206 465.29931 400.417649 
C 468.930753 404.049092 473.856738 406.089501 478.992374 406.089501 
z
" clip-path="url(#p1f5839990c)" style="fill: #c70039; fill-opacity: 0.99; stroke: #c70039; stroke-opacity: 0.99"/>
   </g>
   <g id="text_1">
    <g id="patch_2">
     <path d="M 462.672097 307.833281 
L 532.589441 307.833281 
L 532.589441 291.202969 
L 462.672097 291.202969 
z
" clip-path="url(#p1f5839990c)" style="fill: #ffffff; opacity: 0.7; stroke: #000000; stroke-linejoin: miter"/>
    </g>
    <g clip-path="url(#p1f5839990c)">
     <!-- Danny DeVito -->
     <g transform="translate(466.632097 302.001562)scale(0.09 -0.09)">
      <defs>
       <path id="DejaVuSans-44" d="M 1259 4147 
L 1259 519 
L 2022 519 
Q 2988 519 3436 956 
Q 3884 1394 3884 2338 
Q 3884 3275 3436 3711 
Q 2988 4147 2022 4147 
L 1259 4147 
z
M 628 4666 
L 1925 4666 
Q 3281 4666 3915 4102 
Q 4550 3538 4550 2338 
Q 4550 1131 3912 565 
Q 3275 0 1925 0 
L 628 0 
L 628 4666 
z
" transform="scale(0.015625)"/>
       <path id="DejaVuSans-61" d="M 2194 1759 
Q 1497 1759 1228 1600 
Q 959 1441 959 1056 
Q 959 750 1161 570 
Q 1363 391 1709 391 
Q 2188 391 2477 730 
Q 2766 1069 2766 1631 
L 2766 1759 
L 2194 1759 
z
M 3341 1997 
L 3341 0 
L 2766 0 
L 2766 531 
Q 2569 213 2275 61 
Q 1981 -91 1556 -91 
Q 1019 -91 701 211 
Q 384 513 384 1019 
Q 384 1609 779 1909 
Q 1175 2209 1959 2209 
L 2766 2209 
L 2766 2266 
Q 2766 2663 2505 2880 
Q 2244 3097 1772 3097 
Q 1472 3097 1187 3025 
Q 903 2953 641 2809 
L 641 3341 
Q 956 3463 1253 3523 
Q 1550 3584 1831 3584 
Q 2591 3584 2966 3190 
Q 3341 2797 3341 1997 
z
" transform="scale(0.015625)"/>
       <path id="DejaVuSans-6e" d="M 3513 2113 
L 3513 0 
L 2938 0 
L 2938 2094 
Q 2938 2591 2744 2837 
Q 2550 3084 2163 3084 
Q 1697 3084 1428 2787 
Q 1159 2491 1159 1978 
L 1159 0 
L 581 0 
L 581 3500 
L 1159 3500 
L 1159 2956 
Q 1366 3272 1645 3428 
Q 1925 3584 2291 3584 
Q 2894 3584 3203 3211 
Q 3513 2838 3513 2113 
z
" transform="scale(0.015625)"/>
       <path id="DejaVuSans-79" d="M 2059 -325 
Q 1816 -950 1584 -1140 
Q 1353 -1331 966 -1331 
L 506 -1331 
L 506 -850 
L 844 -850 
Q 1081 -850 1212 -737 
Q 1344 -625 1503 -206 
L 1606 56 
L 191 3500 
L 800 3500 
L 1894 763 
L 2988 3500 
L 3597 3500 
L 2059 -325 
z
" transform="scale(0.015625)"/>
       <path id="DejaVuSans-20" transform="scale(0.015625)"/>
       <path id="DejaVuSans-65" d="M 3597 1894 
L 3597 1613 
L 953 1613 
Q 991 1019 1311 708 
Q 1631 397 2203 397 
Q 2534 397 2845 478 
Q 3156 559 3463 722 
L 3463 178 
Q 3153 47 2828 -22 
Q 2503 -91 2169 -91 
Q 1331 -91 842 396 
Q 353 884 353 1716 
Q 353 2575 817 3079 
Q 1281 3584 2069 3584 
Q 2775 3584 3186 3129 
Q 3597 2675 3597 1894 
z
M 3022 2063 
Q 3016 2534 2758 2815 
Q 2500 3097 2075 3097 
Q 1594 3097 1305 2825 
Q 1016 2553 972 2059 
L 3022 2063 
z
" transform="scale(0.015625)"/>
       <path id="DejaVuSans-56" d="M 1831 0 
L 50 4666 
L 709 4666 
L 2188 738 
L 3669 4666 
L 4325 4666 
L 2547 0 
L 1831 0 
z
" transform="scale(0.015625)"/>
       <path id="DejaVuSans-69" d="M 603 3500 
L 1178 3500 
L 1178 0 
L 603 0 
L 603 3500 
z
M 603 4863 
L 1178 4863 
L 1178 4134 
L 603 4134 
L 603 4863 
z
" transform="scale(0.015625)"/>
       <path id="DejaVuSans-74" d="M 1172 4494 
L 1172 3500 
L 2356 3500 
L 2356 3053 
L 1172 3053 
L 1172 1153 
Q 1172 725 1289 603 
Q 1406 481 1766 481 
L 2356 481 
L 2356 0 
L 1766 0 
Q 1100 0 847 248 
Q 594 497 594 1153 
L 594 3053 
L 172 3053 
L 172 3500 
L 594 3500 
L 594 4494 
L 1172 4494 
z
" transform="scale(0.015625)"/>
       <path id="DejaVuSans-6f" d="M 1959 3097 
Q 1497 3097 1228 2736 
Q 959 2375 959 1747 
Q 959 1119 1226 758 
Q 1494 397 1959 397 
Q 2419 397 2687 759 
Q 2956 1122 2956 1747 
Q 2956 2369 2687 2733 
Q 2419 3097 1959 3097 
z
M 1959 3584 
Q 2709 3584 3137 3096 
Q 3566 2609 3566 1747 
Q 3566 888 3137 398 
Q 2709 -91 1959 -91 
Q 1206 -91 779 398 
Q 353 888 353 1747 
Q 353 2609 779 3096 
Q 1206 3584 1959 3584 
z
" transform="scale(0.015625)"/>
      </defs>
      <use xlink:href="#DejaVuSans-44"/>
      <use xlink:href="#DejaVuSans-61" x="77.001953"/>
      <use xlink:href="#DejaVuSans-6e" x="138.28125"/>
      <use xlink:href="#DejaVuSans-6e" x="201.660156"/>
      <use xlink:href="#DejaVuSans-79" x="265.039062"/>
      <use xlink:href="#DejaVuSans-20" x="324.21875"/>
      <use xlink:href="#DejaVuSans-44" x="356.005859"/>
      <use xlink:href="#DejaVuSans-65" x="433.007812"/>
      <use xlink:href="#DejaVuSans-56" x="494.53125"/>
      <use xlink:href="#DejaVuSans-69" x="560.689453"/>
      <use xlink:href="#DejaVuSans-74" x="588.472656"/>
      <use xlink:href="#DejaVuSans-6f" x="627.681641"/>
     </g>
    </g>
   </g>
   <g id="text_2">
    <g id="patch_3">
     <path d="M 441.901801 220.62679 
L 516.082895 220.62679 
L 516.082895 203.996477 
L 441.901801 203.996477 
z
" clip-path="url(#p1f5839990c)" style="fill: #ffffff; opacity: 0.7; stroke: #000000; stroke-linejoin: miter"/>
    </g>
    <g clip-path="url(#p1f5839990c)">
     <!-- Robert De Niro -->
     <g transform="translate(445.861801 214.795071)scale(0.09 -0.09)">
      <defs>
       <path id="DejaVuSans-52" d="M 2841 2188 
Q 3044 2119 3236 1894 
Q 3428 1669 3622 1275 
L 4263 0 
L 3584 0 
L 2988 1197 
Q 2756 1666 2539 1819 
Q 2322 1972 1947 1972 
L 1259 1972 
L 1259 0 
L 628 0 
L 628 4666 
L 2053 4666 
Q 2853 4666 3247 4331 
Q 3641 3997 3641 3322 
Q 3641 2881 3436 2590 
Q 3231 2300 2841 2188 
z
M 1259 4147 
L 1259 2491 
L 2053 2491 
Q 2509 2491 2742 2702 
Q 2975 2913 2975 3322 
Q 2975 3731 2742 3939 
Q 2509 4147 2053 4147 
L 1259 4147 
z
" transform="scale(0.015625)"/>
       <path id="DejaVuSans-62" d="M 3116 1747 
Q 3116 2381 2855 2742 
Q 2594 3103 2138 3103 
Q 1681 3103 1420 2742 
Q 1159 2381 1159 1747 
Q 1159 1113 1420 752 
Q 1681 391 2138 391 
Q 2594 391 2855 752 
Q 3116 1113 3116 1747 
z
M 1159 2969 
Q 1341 3281 1617 3432 
Q 1894 3584 2278 3584 
Q 2916 3584 3314 3078 
Q 3713 2572 3713 1747 
Q 3713 922 3314 415 
Q 2916 -91 2278 -91 
Q 1894 -91 1617 61 
Q 1341 213 1159 525 
L 1159 0 
L 581 0 
L 581 4863 
L 1159 4863 
L 1159 2969 
z
" transform="scale(0.015625)"/>
       <path id="DejaVuSans-72" d="M 2631 2963 
Q 2534 3019 2420 3045 
Q 2306 3072 2169 3072 
Q 1681 3072 1420 2755 
Q 1159 2438 1159 1844 
L 1159 0 
L 581 0 
L 581 3500 
L 1159 3500 
L 1159 2956 
Q 1341 3275 1631 3429 
Q 1922 3584 2338 3584 
Q 2397 3584 2469 3576 
Q 2541 3569 2628 3553 
L 2631 2963 
z
" transform="scale(0.015625)"/>
       <path id="DejaVuSans-4e" d="M 628 4666 
L 1478 4666 
L 3547 763 
L 3547 4666 
L 4159 4666 
L 4159 0 
L 3309 0 
L 1241 3903 
L 1241 0 
L 628 0 
L 628 4666 
z
" transform="scale(0.015625)"/>
      </defs>
      <use xlink:href="#DejaVuSans-52"/>
      <use xlink:href="#DejaVuSans-6f" x="64.982422"/>
      <use xlink:href="#DejaVuSans-62" x="126.164062"/>
      <use xlink:href="#DejaVuSans-65" x="189.640625"/>
      <use xlink:href="#DejaVuSans-72" x="251.164062"/>
      <use xlink:href="#DejaVuSans-74" x="292.277344"/>
      <use xlink:href="#DejaVuSans-20" x="331.486328"/>
      <use xlink:href="#DejaVuSans-44" x="363.273438"/>
      <use xlink:href="#DejaVuSans-65" x="440.275391"/>
      <use xlink:href="#DejaVuSans-20" x="501.798828"/>
      <use xlink:href="#DejaVuSans-4e" x="533.585938"/>
      <use xlink:href="#DejaVuSans-69" x="608.390625"/>
      <use xlink:href="#DejaVuSans-72" x="636.173828"/>
      <use xlink:href="#DejaVuSans-6f" x="675.037109"/>
     </g>
    </g>
   </g>
   <g id="text_3">
    <g id="patch_4">
     <path d="M 388.92735 148.499083 
L 463.67235 148.499083 
L 463.67235 131.86877 
L 388.92735 131.86877 
z
" clip-path="url(#p1f5839990c)" style="fill: #ffffff; opacity: 0.7; stroke: #000000; stroke-linejoin: miter"/>
    </g>
    <g clip-path="url(#p1f5839990c)">
     <!-- Steve Buscemi -->
     <g transform="translate(392.88735 142.667364)scale(0.09 -0.09)">
      <defs>
       <path id="DejaVuSans-53" d="M 3425 4513 
L 3425 3897 
Q 3066 4069 2747 4153 
Q 2428 4238 2131 4238 
Q 1616 4238 1336 4038 
Q 1056 3838 1056 3469 
Q 1056 3159 1242 3001 
Q 1428 2844 1947 2747 
L 2328 2669 
Q 3034 2534 3370 2195 
Q 3706 1856 3706 1288 
Q 3706 609 3251 259 
Q 2797 -91 1919 -91 
Q 1588 -91 1214 -16 
Q 841 59 441 206 
L 441 856 
Q 825 641 1194 531 
Q 1563 422 1919 422 
Q 2459 422 2753 634 
Q 3047 847 3047 1241 
Q 3047 1584 2836 1778 
Q 2625 1972 2144 2069 
L 1759 2144 
Q 1053 2284 737 2584 
Q 422 2884 422 3419 
Q 422 4038 858 4394 
Q 1294 4750 2059 4750 
Q 2388 4750 2728 4690 
Q 3069 4631 3425 4513 
z
" transform="scale(0.015625)"/>
       <path id="DejaVuSans-76" d="M 191 3500 
L 800 3500 
L 1894 563 
L 2988 3500 
L 3597 3500 
L 2284 0 
L 1503 0 
L 191 3500 
z
" transform="scale(0.015625)"/>
       <path id="DejaVuSans-42" d="M 1259 2228 
L 1259 519 
L 2272 519 
Q 2781 519 3026 730 
Q 3272 941 3272 1375 
Q 3272 1813 3026 2020 
Q 2781 2228 2272 2228 
L 1259 2228 
z
M 1259 4147 
L 1259 2741 
L 2194 2741 
Q 2656 2741 2882 2914 
Q 3109 3088 3109 3444 
Q 3109 3797 2882 3972 
Q 2656 4147 2194 4147 
L 1259 4147 
z
M 628 4666 
L 2241 4666 
Q 2963 4666 3353 4366 
Q 3744 4066 3744 3513 
Q 3744 3084 3544 2831 
Q 3344 2578 2956 2516 
Q 3422 2416 3680 2098 
Q 3938 1781 3938 1306 
Q 3938 681 3513 340 
Q 3088 0 2303 0 
L 628 0 
L 628 4666 
z
" transform="scale(0.015625)"/>
       <path id="DejaVuSans-75" d="M 544 1381 
L 544 3500 
L 1119 3500 
L 1119 1403 
Q 1119 906 1312 657 
Q 1506 409 1894 409 
Q 2359 409 2629 706 
Q 2900 1003 2900 1516 
L 2900 3500 
L 3475 3500 
L 3475 0 
L 2900 0 
L 2900 538 
Q 2691 219 2414 64 
Q 2138 -91 1772 -91 
Q 1169 -91 856 284 
Q 544 659 544 1381 
z
M 1991 3584 
L 1991 3584 
z
" transform="scale(0.015625)"/>
       <path id="DejaVuSans-73" d="M 2834 3397 
L 2834 2853 
Q 2591 2978 2328 3040 
Q 2066 3103 1784 3103 
Q 1356 3103 1142 2972 
Q 928 2841 928 2578 
Q 928 2378 1081 2264 
Q 1234 2150 1697 2047 
L 1894 2003 
Q 2506 1872 2764 1633 
Q 3022 1394 3022 966 
Q 3022 478 2636 193 
Q 2250 -91 1575 -91 
Q 1294 -91 989 -36 
Q 684 19 347 128 
L 347 722 
Q 666 556 975 473 
Q 1284 391 1588 391 
Q 1994 391 2212 530 
Q 2431 669 2431 922 
Q 2431 1156 2273 1281 
Q 2116 1406 1581 1522 
L 1381 1569 
Q 847 1681 609 1914 
Q 372 2147 372 2553 
Q 372 3047 722 3315 
Q 1072 3584 1716 3584 
Q 2034 3584 2315 3537 
Q 2597 3491 2834 3397 
z
" transform="scale(0.015625)"/>
       <path id="DejaVuSans-63" d="M 3122 3366 
L 3122 2828 
Q 2878 2963 2633 3030 
Q 2388 3097 2138 3097 
Q 1578 3097 1268 2742 
Q 959 2388 959 1747 
Q 959 1106 1268 751 
Q 1578 397 2138 397 
Q 2388 397 2633 464 
Q 2878 531 3122 666 
L 3122 134 
Q 2881 22 2623 -34 
Q 2366 -91 2075 -91 
Q 1284 -91 818 406 
Q 353 903 353 1747 
Q 353 2603 823 3093 
Q 1294 3584 2113 3584 
Q 2378 3584 2631 3529 
Q 2884 3475 3122 3366 
z
" transform="scale(0.015625)"/>
       <path id="DejaVuSans-6d" d="M 3328 2828 
Q 3544 3216 3844 3400 
Q 4144 3584 4550 3584 
Q 5097 3584 5394 3201 
Q 5691 2819 5691 2113 
L 5691 0 
L 5113 0 
L 5113 2094 
Q 5113 2597 4934 2840 
Q 4756 3084 4391 3084 
Q 3944 3084 3684 2787 
Q 3425 2491 3425 1978 
L 3425 0 
L 2847 0 
L 2847 2094 
Q 2847 2600 2669 2842 
Q 2491 3084 2119 3084 
Q 1678 3084 1418 2786 
Q 1159 2488 1159 1978 
L 1159 0 
L 581 0 
L 581 3500 
L 1159 3500 
L 1159 2956 
Q 1356 3278 1631 3431 
Q 1906 3584 2284 3584 
Q 2666 3584 2933 3390 
Q 3200 3197 3328 2828 
z
" transform="scale(0.015625)"/>
      </defs>
      <use xlink:href="#DejaVuSans-53"/>
      <use xlink:href="#DejaVuSans-74" x="63.476562"/>
      <use xlink:href="#DejaVuSans-65" x="102.685547"/>
      <use xlink:href="#DejaVuSans-76" x="164.208984"/>
      <use xlink:href="#DejaVuSans-65" x="223.388672"/>
      <use xlink:href="#DejaVuSans-20" x="284.912109"/>
      <use xlink:href="#DejaVuSans-42" x="316.699219"/>
      <use xlink:href="#DejaVuSans-75" x="385.302734"/>
      <use xlink:href="#DejaVuSans-73" x="448.681641"/>
      <use xlink:href="#DejaVuSans-63" x="500.78125"/>
      <use xlink:href="#DejaVuSans-65" x="555.761719"/>
      <use xlink:href="#DejaVuSans-6d" x="617.285156"/>
      <use xlink:href="#DejaVuSans-69" x="714.697266"/>
     </g>
    </g>
   </g>
   <g id="text_4">
    <g id="patch_5">
     <path d="M 306.799526 103.921719 
L 390.529057 103.921719 
L 390.529057 87.291406 
L 306.799526 87.291406 
z
" clip-path="url(#p1f5839990c)" style="fill: #ffffff; opacity: 0.7; stroke: #000000; stroke-linejoin: miter"/>
    </g>
    <g clip-path="url(#p1f5839990c)">
     <!-- James Gandolfini -->
     <g transform="translate(310.759526 98.09)scale(0.09 -0.09)">
      <defs>
       <path id="DejaVuSans-4a" d="M 628 4666 
L 1259 4666 
L 1259 325 
Q 1259 -519 939 -900 
Q 619 -1281 -91 -1281 
L -331 -1281 
L -331 -750 
L -134 -750 
Q 284 -750 456 -515 
Q 628 -281 628 325 
L 628 4666 
z
" transform="scale(0.015625)"/>
       <path id="DejaVuSans-47" d="M 3809 666 
L 3809 1919 
L 2778 1919 
L 2778 2438 
L 4434 2438 
L 4434 434 
Q 4069 175 3628 42 
Q 3188 -91 2688 -91 
Q 1594 -91 976 548 
Q 359 1188 359 2328 
Q 359 3472 976 4111 
Q 1594 4750 2688 4750 
Q 3144 4750 3555 4637 
Q 3966 4525 4313 4306 
L 4313 3634 
Q 3963 3931 3569 4081 
Q 3175 4231 2741 4231 
Q 1884 4231 1454 3753 
Q 1025 3275 1025 2328 
Q 1025 1384 1454 906 
Q 1884 428 2741 428 
Q 3075 428 3337 486 
Q 3600 544 3809 666 
z
" transform="scale(0.015625)"/>
       <path id="DejaVuSans-64" d="M 2906 2969 
L 2906 4863 
L 3481 4863 
L 3481 0 
L 2906 0 
L 2906 525 
Q 2725 213 2448 61 
Q 2172 -91 1784 -91 
Q 1150 -91 751 415 
Q 353 922 353 1747 
Q 353 2572 751 3078 
Q 1150 3584 1784 3584 
Q 2172 3584 2448 3432 
Q 2725 3281 2906 2969 
z
M 947 1747 
Q 947 1113 1208 752 
Q 1469 391 1925 391 
Q 2381 391 2643 752 
Q 2906 1113 2906 1747 
Q 2906 2381 2643 2742 
Q 2381 3103 1925 3103 
Q 1469 3103 1208 2742 
Q 947 2381 947 1747 
z
" transform="scale(0.015625)"/>
       <path id="DejaVuSans-6c" d="M 603 4863 
L 1178 4863 
L 1178 0 
L 603 0 
L 603 4863 
z
" transform="scale(0.015625)"/>
       <path id="DejaVuSans-66" d="M 2375 4863 
L 2375 4384 
L 1825 4384 
Q 1516 4384 1395 4259 
Q 1275 4134 1275 3809 
L 1275 3500 
L 2222 3500 
L 2222 3053 
L 1275 3053 
L 1275 0 
L 697 0 
L 697 3053 
L 147 3053 
L 147 3500 
L 697 3500 
L 697 3744 
Q 697 4328 969 4595 
Q 1241 4863 1831 4863 
L 2375 4863 
z
" transform="scale(0.015625)"/>
      </defs>
      <use xlink:href="#DejaVuSans-4a"/>
      <use xlink:href="#DejaVuSans-61" x="29.492188"/>
      <use xlink:href="#DejaVuSans-6d" x="90.771484"/>
      <use xlink:href="#DejaVuSans-65" x="188.183594"/>
      <use xlink:href="#DejaVuSans-73" x="249.707031"/>
      <use xlink:href="#DejaVuSans-20" x="301.806641"/>
      <use xlink:href="#DejaVuSans-47" x="333.59375"/>
      <use xlink:href="#DejaVuSans-61" x="411.083984"/>
      <use xlink:href="#DejaVuSans-6e" x="472.363281"/>
      <use xlink:href="#DejaVuSans-64" x="535.742188"/>
      <use xlink:href="#DejaVuSans-6f" x="599.21875"/>
      <use xlink:href="#DejaVuSans-6c" x="660.400391"/>
      <use xlink:href="#DejaVuSans-66" x="688.183594"/>
      <use xlink:href="#DejaVuSans-69" x="723.388672"/>
      <use xlink:href="#DejaVuSans-6e" x="751.171875"/>
      <use xlink:href="#DejaVuSans-69" x="814.550781"/>
     </g>
    </g>
   </g>
   <g id="text_5">
    <g id="patch_6">
     <path d="M 226.813533 94.602512 
L 292.205564 94.602512 
L 292.205564 77.9722 
L 226.813533 77.9722 
z
" clip-path="url(#p1f5839990c)" style="fill: #ffffff; opacity: 0.7; stroke: #000000; stroke-linejoin: miter"/>
    </g>
    <g clip-path="url(#p1f5839990c)">
     <!-- Alec Baldwin -->
     <g transform="translate(230.773533 88.770793)scale(0.09 -0.09)">
      <defs>
       <path id="DejaVuSans-41" d="M 2188 4044 
L 1331 1722 
L 3047 1722 
L 2188 4044 
z
M 1831 4666 
L 2547 4666 
L 4325 0 
L 3669 0 
L 3244 1197 
L 1141 1197 
L 716 0 
L 50 0 
L 1831 4666 
z
" transform="scale(0.015625)"/>
       <path id="DejaVuSans-77" d="M 269 3500 
L 844 3500 
L 1563 769 
L 2278 3500 
L 2956 3500 
L 3675 769 
L 4391 3500 
L 4966 3500 
L 4050 0 
L 3372 0 
L 2619 2869 
L 1863 0 
L 1184 0 
L 269 3500 
z
" transform="scale(0.015625)"/>
      </defs>
      <use xlink:href="#DejaVuSans-41"/>
      <use xlink:href="#DejaVuSans-6c" x="68.408203"/>
      <use xlink:href="#DejaVuSans-65" x="96.191406"/>
      <use xlink:href="#DejaVuSans-63" x="157.714844"/>
      <use xlink:href="#DejaVuSans-20" x="212.695312"/>
      <use xlink:href="#DejaVuSans-42" x="244.482422"/>
      <use xlink:href="#DejaVuSans-61" x="313.085938"/>
      <use xlink:href="#DejaVuSans-6c" x="374.365234"/>
      <use xlink:href="#DejaVuSans-64" x="402.148438"/>
      <use xlink:href="#DejaVuSans-77" x="465.625"/>
      <use xlink:href="#DejaVuSans-69" x="547.412109"/>
      <use xlink:href="#DejaVuSans-6e" x="575.195312"/>
     </g>
    </g>
   </g>
   <g id="text_6">
    <g id="patch_7">
     <path d="M 135.76997 122.152849 
L 212.732626 122.152849 
L 212.732626 105.522536 
L 135.76997 105.522536 
z
" clip-path="url(#p1f5839990c)" style="fill: #ffffff; opacity: 0.7; stroke: #000000; stroke-linejoin: miter"/>
    </g>
    <g clip-path="url(#p1f5839990c)">
     <!-- Gene Hackman -->
     <g transform="translate(139.72997 116.32113)scale(0.09 -0.09)">
      <defs>
       <path id="DejaVuSans-48" d="M 628 4666 
L 1259 4666 
L 1259 2753 
L 3553 2753 
L 3553 4666 
L 4184 4666 
L 4184 0 
L 3553 0 
L 3553 2222 
L 1259 2222 
L 1259 0 
L 628 0 
L 628 4666 
z
" transform="scale(0.015625)"/>
       <path id="DejaVuSans-6b" d="M 581 4863 
L 1159 4863 
L 1159 1991 
L 2875 3500 
L 3609 3500 
L 1753 1863 
L 3688 0 
L 2938 0 
L 1159 1709 
L 1159 0 
L 581 0 
L 581 4863 
z
" transform="scale(0.015625)"/>
      </defs>
      <use xlink:href="#DejaVuSans-47"/>
      <use xlink:href="#DejaVuSans-65" x="77.490234"/>
      <use xlink:href="#DejaVuSans-6e" x="139.013672"/>
      <use xlink:href="#DejaVuSans-65" x="202.392578"/>
      <use xlink:href="#DejaVuSans-20" x="263.916016"/>
      <use xlink:href="#DejaVuSans-48" x="295.703125"/>
      <use xlink:href="#DejaVuSans-61" x="370.898438"/>
      <use xlink:href="#DejaVuSans-63" x="432.177734"/>
      <use xlink:href="#DejaVuSans-6b" x="487.158203"/>
      <use xlink:href="#DejaVuSans-6d" x="545.068359"/>
      <use xlink:href="#DejaVuSans-61" x="642.480469"/>
      <use xlink:href="#DejaVuSans-6e" x="703.759766"/>
     </g>
    </g>
   </g>
   <g id="text_7">
    <g id="patch_8">
     <path d="M 72.234758 181.80901 
L 143.028196 181.80901 
L 143.028196 165.178697 
L 72.234758 165.178697 
z
" clip-path="url(#p1f5839990c)" style="fill: #ffffff; opacity: 0.7; stroke: #000000; stroke-linejoin: miter"/>
    </g>
    <g clip-path="url(#p1f5839990c)">
     <!-- Michael Caine -->
     <g transform="translate(76.194758 175.977291)scale(0.09 -0.09)">
      <defs>
       <path id="DejaVuSans-4d" d="M 628 4666 
L 1569 4666 
L 2759 1491 
L 3956 4666 
L 4897 4666 
L 4897 0 
L 4281 0 
L 4281 4097 
L 3078 897 
L 2444 897 
L 1241 4097 
L 1241 0 
L 628 0 
L 628 4666 
z
" transform="scale(0.015625)"/>
       <path id="DejaVuSans-68" d="M 3513 2113 
L 3513 0 
L 2938 0 
L 2938 2094 
Q 2938 2591 2744 2837 
Q 2550 3084 2163 3084 
Q 1697 3084 1428 2787 
Q 1159 2491 1159 1978 
L 1159 0 
L 581 0 
L 581 4863 
L 1159 4863 
L 1159 2956 
Q 1366 3272 1645 3428 
Q 1925 3584 2291 3584 
Q 2894 3584 3203 3211 
Q 3513 2838 3513 2113 
z
" transform="scale(0.015625)"/>
       <path id="DejaVuSans-43" d="M 4122 4306 
L 4122 3641 
Q 3803 3938 3442 4084 
Q 3081 4231 2675 4231 
Q 1875 4231 1450 3742 
Q 1025 3253 1025 2328 
Q 1025 1406 1450 917 
Q 1875 428 2675 428 
Q 3081 428 3442 575 
Q 3803 722 4122 1019 
L 4122 359 
Q 3791 134 3420 21 
Q 3050 -91 2638 -91 
Q 1578 -91 968 557 
Q 359 1206 359 2328 
Q 359 3453 968 4101 
Q 1578 4750 2638 4750 
Q 3056 4750 3426 4639 
Q 3797 4528 4122 4306 
z
" transform="scale(0.015625)"/>
      </defs>
      <use xlink:href="#DejaVuSans-4d"/>
      <use xlink:href="#DejaVuSans-69" x="86.279297"/>
      <use xlink:href="#DejaVuSans-63" x="114.0625"/>
      <use xlink:href="#DejaVuSans-68" x="169.042969"/>
      <use xlink:href="#DejaVuSans-61" x="232.421875"/>
      <use xlink:href="#DejaVuSans-65" x="293.701172"/>
      <use xlink:href="#DejaVuSans-6c" x="355.224609"/>
      <use xlink:href="#DejaVuSans-20" x="383.007812"/>
      <use xlink:href="#DejaVuSans-43" x="414.794922"/>
      <use xlink:href="#DejaVuSans-61" x="484.619141"/>
      <use xlink:href="#DejaVuSans-69" x="545.898438"/>
      <use xlink:href="#DejaVuSans-6e" x="573.681641"/>
      <use xlink:href="#DejaVuSans-65" x="637.060547"/>
     </g>
    </g>
   </g>
   <g id="text_8">
    <g id="patch_9">
     <path d="M 25.184153 263.25593 
L 117.154309 263.25593 
L 117.154309 246.625618 
L 25.184153 246.625618 
z
" clip-path="url(#p1f5839990c)" style="fill: #ffffff; opacity: 0.7; stroke: #000000; stroke-linejoin: miter"/>
    </g>
    <g clip-path="url(#p1f5839990c)">
     <!-- Donald Sutherland -->
     <g transform="translate(29.144153 257.424211)scale(0.09 -0.09)">
      <use xlink:href="#DejaVuSans-44"/>
      <use xlink:href="#DejaVuSans-6f" x="77.001953"/>
      <use xlink:href="#DejaVuSans-6e" x="138.183594"/>
      <use xlink:href="#DejaVuSans-61" x="201.5625"/>
      <use xlink:href="#DejaVuSans-6c" x="262.841797"/>
      <use xlink:href="#DejaVuSans-64" x="290.625"/>
      <use xlink:href="#DejaVuSans-20" x="354.101562"/>
      <use xlink:href="#DejaVuSans-53" x="385.888672"/>
      <use xlink:href="#DejaVuSans-75" x="449.365234"/>
      <use xlink:href="#DejaVuSans-74" x="512.744141"/>
      <use xlink:href="#DejaVuSans-68" x="551.953125"/>
      <use xlink:href="#DejaVuSans-65" x="615.332031"/>
      <use xlink:href="#DejaVuSans-72" x="676.855469"/>
      <use xlink:href="#DejaVuSans-6c" x="717.96875"/>
      <use xlink:href="#DejaVuSans-61" x="745.751953"/>
      <use xlink:href="#DejaVuSans-6e" x="807.03125"/>
      <use xlink:href="#DejaVuSans-64" x="870.410156"/>
     </g>
    </g>
   </g>
   <g id="text_9">
    <g id="patch_10">
     <path d="M 26.59604 352.410671 
L 115.742447 352.410671 
L 115.742447 335.780358 
L 26.59604 335.780358 
z
" clip-path="url(#p1f5839990c)" style="fill: #ffffff; opacity: 0.7; stroke: #000000; stroke-linejoin: miter"/>
    </g>
    <g clip-path="url(#p1f5839990c)">
     <!-- Sylvester Stallone -->
     <g transform="translate(30.55604 346.578952)scale(0.09 -0.09)">
      <use xlink:href="#DejaVuSans-53"/>
      <use xlink:href="#DejaVuSans-79" x="63.476562"/>
      <use xlink:href="#DejaVuSans-6c" x="122.65625"/>
      <use xlink:href="#DejaVuSans-76" x="150.439453"/>
      <use xlink:href="#DejaVuSans-65" x="209.619141"/>
      <use xlink:href="#DejaVuSans-73" x="271.142578"/>
      <use xlink:href="#DejaVuSans-74" x="323.242188"/>
      <use xlink:href="#DejaVuSans-65" x="362.451172"/>
      <use xlink:href="#DejaVuSans-72" x="423.974609"/>
      <use xlink:href="#DejaVuSans-20" x="465.087891"/>
      <use xlink:href="#DejaVuSans-53" x="496.875"/>
      <use xlink:href="#DejaVuSans-74" x="560.351562"/>
      <use xlink:href="#DejaVuSans-61" x="599.560547"/>
      <use xlink:href="#DejaVuSans-6c" x="660.839844"/>
      <use xlink:href="#DejaVuSans-6c" x="688.623047"/>
      <use xlink:href="#DejaVuSans-6f" x="716.40625"/>
      <use xlink:href="#DejaVuSans-6e" x="777.587891"/>
      <use xlink:href="#DejaVuSans-65" x="840.966797"/>
     </g>
    </g>
   </g>
   <g id="text_10">
    <g id="patch_11">
     <path d="M 71.180084 433.857565 
L 144.082896 433.857565 
L 144.082896 417.227253 
L 71.180084 417.227253 
z
" clip-path="url(#p1f5839990c)" style="fill: #ffffff; opacity: 0.7; stroke: #000000; stroke-linejoin: miter"/>
    </g>
    <g clip-path="url(#p1f5839990c)">
     <!-- Jack Nicholson -->
     <g transform="translate(75.140084 428.025847)scale(0.09 -0.09)">
      <use xlink:href="#DejaVuSans-4a"/>
      <use xlink:href="#DejaVuSans-61" x="29.492188"/>
      <use xlink:href="#DejaVuSans-63" x="90.771484"/>
      <use xlink:href="#DejaVuSans-6b" x="145.751953"/>
      <use xlink:href="#DejaVuSans-20" x="203.662109"/>
      <use xlink:href="#DejaVuSans-4e" x="235.449219"/>
      <use xlink:href="#DejaVuSans-69" x="310.253906"/>
      <use xlink:href="#DejaVuSans-63" x="338.037109"/>
      <use xlink:href="#DejaVuSans-68" x="393.017578"/>
      <use xlink:href="#DejaVuSans-6f" x="456.396484"/>
      <use xlink:href="#DejaVuSans-6c" x="517.578125"/>
      <use xlink:href="#DejaVuSans-73" x="545.361328"/>
      <use xlink:href="#DejaVuSans-6f" x="597.460938"/>
      <use xlink:href="#DejaVuSans-6e" x="658.642578"/>
     </g>
    </g>
   </g>
   <g id="text_11">
    <g id="patch_12">
     <path d="M 148.538049 493.513727 
L 199.964611 493.513727 
L 199.964611 476.883414 
L 148.538049 476.883414 
z
" clip-path="url(#p1f5839990c)" style="fill: #ffffff; opacity: 0.7; stroke: #000000; stroke-linejoin: miter"/>
    </g>
    <g clip-path="url(#p1f5839990c)">
     <!-- Mel Blanc -->
     <g transform="translate(152.498049 487.682008)scale(0.09 -0.09)">
      <use xlink:href="#DejaVuSans-4d"/>
      <use xlink:href="#DejaVuSans-65" x="86.279297"/>
      <use xlink:href="#DejaVuSans-6c" x="147.802734"/>
      <use xlink:href="#DejaVuSans-20" x="175.585938"/>
      <use xlink:href="#DejaVuSans-42" x="207.373047"/>
      <use xlink:href="#DejaVuSans-6c" x="275.976562"/>
      <use xlink:href="#DejaVuSans-61" x="303.759766"/>
      <use xlink:href="#DejaVuSans-6e" x="365.039062"/>
      <use xlink:href="#DejaVuSans-63" x="428.417969"/>
     </g>
    </g>
   </g>
   <g id="text_12">
    <g id="patch_13">
     <path d="M 226.137868 521.06405 
L 292.881306 521.06405 
L 292.881306 504.433738 
L 226.137868 504.433738 
z
" clip-path="url(#p1f5839990c)" style="fill: #ffffff; opacity: 0.7; stroke: #000000; stroke-linejoin: miter"/>
    </g>
    <g clip-path="url(#p1f5839990c)">
     <!-- Marisa Tomei -->
     <g transform="translate(230.097868 515.232332)scale(0.09 -0.09)">
      <defs>
       <path id="DejaVuSans-54" d="M -19 4666 
L 3928 4666 
L 3928 4134 
L 2272 4134 
L 2272 0 
L 1638 0 
L 1638 4134 
L -19 4134 
L -19 4666 
z
" transform="scale(0.015625)"/>
      </defs>
      <use xlink:href="#DejaVuSans-4d"/>
      <use xlink:href="#DejaVuSans-61" x="86.279297"/>
      <use xlink:href="#DejaVuSans-72" x="147.558594"/>
      <use xlink:href="#DejaVuSans-69" x="188.671875"/>
      <use xlink:href="#DejaVuSans-73" x="216.455078"/>
      <use xlink:href="#DejaVuSans-61" x="268.554688"/>
      <use xlink:href="#DejaVuSans-20" x="329.833984"/>
      <use xlink:href="#DejaVuSans-54" x="361.621094"/>
      <use xlink:href="#DejaVuSans-6f" x="405.705078"/>
      <use xlink:href="#DejaVuSans-6d" x="466.886719"/>
      <use xlink:href="#DejaVuSans-65" x="564.298828"/>
      <use xlink:href="#DejaVuSans-69" x="625.822266"/>
     </g>
    </g>
   </g>
   <g id="text_13">
    <g id="patch_14">
     <path d="M 324.347448 511.744831 
L 372.981198 511.744831 
L 372.981198 495.114518 
L 324.347448 495.114518 
z
" clip-path="url(#p1f5839990c)" style="fill: #ffffff; opacity: 0.7; stroke: #000000; stroke-linejoin: miter"/>
    </g>
    <g clip-path="url(#p1f5839990c)">
     <!-- Al Pacino -->
     <g transform="translate(328.307448 505.913112)scale(0.09 -0.09)">
      <defs>
       <path id="DejaVuSans-50" d="M 1259 4147 
L 1259 2394 
L 2053 2394 
Q 2494 2394 2734 2622 
Q 2975 2850 2975 3272 
Q 2975 3691 2734 3919 
Q 2494 4147 2053 4147 
L 1259 4147 
z
M 628 4666 
L 2053 4666 
Q 2838 4666 3239 4311 
Q 3641 3956 3641 3272 
Q 3641 2581 3239 2228 
Q 2838 1875 2053 1875 
L 1259 1875 
L 1259 0 
L 628 0 
L 628 4666 
z
" transform="scale(0.015625)"/>
      </defs>
      <use xlink:href="#DejaVuSans-41"/>
      <use xlink:href="#DejaVuSans-6c" x="68.408203"/>
      <use xlink:href="#DejaVuSans-20" x="96.191406"/>
      <use xlink:href="#DejaVuSans-50" x="127.978516"/>
      <use xlink:href="#DejaVuSans-61" x="183.78125"/>
      <use xlink:href="#DejaVuSans-63" x="245.060547"/>
      <use xlink:href="#DejaVuSans-69" x="300.041016"/>
      <use xlink:href="#DejaVuSans-6e" x="327.824219"/>
      <use xlink:href="#DejaVuSans-6f" x="391.203125"/>
     </g>
    </g>
   </g>
   <g id="text_14">
    <g id="patch_15">
     <path d="M 389.439263 467.167441 
L 463.160513 467.167441 
L 463.160513 450.537129 
L 389.439263 450.537129 
z
" clip-path="url(#p1f5839990c)" style="fill: #ffffff; opacity: 0.7; stroke: #000000; stroke-linejoin: miter"/>
    </g>
    <g clip-path="url(#p1f5839990c)">
     <!-- Robin Williams -->
     <g transform="translate(393.399263 461.335723)scale(0.09 -0.09)">
      <defs>
       <path id="DejaVuSans-57" d="M 213 4666 
L 850 4666 
L 1831 722 
L 2809 4666 
L 3519 4666 
L 4500 722 
L 5478 4666 
L 6119 4666 
L 4947 0 
L 4153 0 
L 3169 4050 
L 2175 0 
L 1381 0 
L 213 4666 
z
" transform="scale(0.015625)"/>
      </defs>
      <use xlink:href="#DejaVuSans-52"/>
      <use xlink:href="#DejaVuSans-6f" x="64.982422"/>
      <use xlink:href="#DejaVuSans-62" x="126.164062"/>
      <use xlink:href="#DejaVuSans-69" x="189.640625"/>
      <use xlink:href="#DejaVuSans-6e" x="217.423828"/>
      <use xlink:href="#DejaVuSans-20" x="280.802734"/>
      <use xlink:href="#DejaVuSans-57" x="312.589844"/>
      <use xlink:href="#DejaVuSans-69" x="409.216797"/>
      <use xlink:href="#DejaVuSans-6c" x="437"/>
      <use xlink:href="#DejaVuSans-6c" x="464.783203"/>
      <use xlink:href="#DejaVuSans-69" x="492.566406"/>
      <use xlink:href="#DejaVuSans-61" x="520.349609"/>
      <use xlink:href="#DejaVuSans-6d" x="581.628906"/>
      <use xlink:href="#DejaVuSans-73" x="679.041016"/>
     </g>
    </g>
   </g>
   <g id="text_15">
    <g id="patch_16">
     <path d="M 437.349795 395.039741 
L 520.634952 395.039741 
L 520.634952 378.409428 
L 437.349795 378.409428 
z
" clip-path="url(#p1f5839990c)" style="fill: #ffffff; opacity: 0.7; stroke: #000000; stroke-linejoin: miter"/>
    </g>
    <g clip-path="url(#p1f5839990c)">
     <!-- M. Emmet Walsh -->
     <g transform="translate(441.309795 389.208022)scale(0.09 -0.09)">
      <defs>
       <path id="DejaVuSans-2e" d="M 684 794 
L 1344 794 
L 1344 0 
L 684 0 
L 684 794 
z
" transform="scale(0.015625)"/>
       <path id="DejaVuSans-45" d="M 628 4666 
L 3578 4666 
L 3578 4134 
L 1259 4134 
L 1259 2753 
L 3481 2753 
L 3481 2222 
L 1259 2222 
L 1259 531 
L 3634 531 
L 3634 0 
L 628 0 
L 628 4666 
z
" transform="scale(0.015625)"/>
      </defs>
      <use xlink:href="#DejaVuSans-4d"/>
      <use xlink:href="#DejaVuSans-2e" x="86.279297"/>
      <use xlink:href="#DejaVuSans-20" x="118.066406"/>
      <use xlink:href="#DejaVuSans-45" x="149.853516"/>
      <use xlink:href="#DejaVuSans-6d" x="213.037109"/>
      <use xlink:href="#DejaVuSans-6d" x="310.449219"/>
      <use xlink:href="#DejaVuSans-65" x="407.861328"/>
      <use xlink:href="#DejaVuSans-74" x="469.384766"/>
      <use xlink:href="#DejaVuSans-20" x="508.59375"/>
      <use xlink:href="#DejaVuSans-57" x="540.380859"/>
      <use xlink:href="#DejaVuSans-61" x="632.882812"/>
      <use xlink:href="#DejaVuSans-6c" x="694.162109"/>
      <use xlink:href="#DejaVuSans-73" x="721.945312"/>
      <use xlink:href="#DejaVuSans-68" x="774.044922"/>
     </g>
    </g>
   </g>
   <g id="text_16">
    <!-- Impactful actors for Comedy genre - Importance rank: 4 -->
    <g transform="translate(116.078437 16.318125)scale(0.12 -0.12)">
     <defs>
      <path id="DejaVuSans-49" d="M 628 4666 
L 1259 4666 
L 1259 0 
L 628 0 
L 628 4666 
z
" transform="scale(0.015625)"/>
      <path id="DejaVuSans-70" d="M 1159 525 
L 1159 -1331 
L 581 -1331 
L 581 3500 
L 1159 3500 
L 1159 2969 
Q 1341 3281 1617 3432 
Q 1894 3584 2278 3584 
Q 2916 3584 3314 3078 
Q 3713 2572 3713 1747 
Q 3713 922 3314 415 
Q 2916 -91 2278 -91 
Q 1894 -91 1617 61 
Q 1341 213 1159 525 
z
M 3116 1747 
Q 3116 2381 2855 2742 
Q 2594 3103 2138 3103 
Q 1681 3103 1420 2742 
Q 1159 2381 1159 1747 
Q 1159 1113 1420 752 
Q 1681 391 2138 391 
Q 2594 391 2855 752 
Q 3116 1113 3116 1747 
z
" transform="scale(0.015625)"/>
      <path id="DejaVuSans-67" d="M 2906 1791 
Q 2906 2416 2648 2759 
Q 2391 3103 1925 3103 
Q 1463 3103 1205 2759 
Q 947 2416 947 1791 
Q 947 1169 1205 825 
Q 1463 481 1925 481 
Q 2391 481 2648 825 
Q 2906 1169 2906 1791 
z
M 3481 434 
Q 3481 -459 3084 -895 
Q 2688 -1331 1869 -1331 
Q 1566 -1331 1297 -1286 
Q 1028 -1241 775 -1147 
L 775 -588 
Q 1028 -725 1275 -790 
Q 1522 -856 1778 -856 
Q 2344 -856 2625 -561 
Q 2906 -266 2906 331 
L 2906 616 
Q 2728 306 2450 153 
Q 2172 0 1784 0 
Q 1141 0 747 490 
Q 353 981 353 1791 
Q 353 2603 747 3093 
Q 1141 3584 1784 3584 
Q 2172 3584 2450 3431 
Q 2728 3278 2906 2969 
L 2906 3500 
L 3481 3500 
L 3481 434 
z
" transform="scale(0.015625)"/>
      <path id="DejaVuSans-2d" d="M 313 2009 
L 1997 2009 
L 1997 1497 
L 313 1497 
L 313 2009 
z
" transform="scale(0.015625)"/>
      <path id="DejaVuSans-3a" d="M 750 794 
L 1409 794 
L 1409 0 
L 750 0 
L 750 794 
z
M 750 3309 
L 1409 3309 
L 1409 2516 
L 750 2516 
L 750 3309 
z
" transform="scale(0.015625)"/>
      <path id="DejaVuSans-34" d="M 2419 4116 
L 825 1625 
L 2419 1625 
L 2419 4116 
z
M 2253 4666 
L 3047 4666 
L 3047 1625 
L 3713 1625 
L 3713 1100 
L 3047 1100 
L 3047 0 
L 2419 0 
L 2419 1100 
L 313 1100 
L 313 1709 
L 2253 4666 
z
" transform="scale(0.015625)"/>
     </defs>
     <use xlink:href="#DejaVuSans-49"/>
     <use xlink:href="#DejaVuSans-6d" x="29.492188"/>
     <use xlink:href="#DejaVuSans-70" x="126.904297"/>
     <use xlink:href="#DejaVuSans-61" x="190.380859"/>
     <use xlink:href="#DejaVuSans-63" x="251.660156"/>
     <use xlink:href="#DejaVuSans-74" x="306.640625"/>
     <use xlink:href="#DejaVuSans-66" x="345.849609"/>
     <use xlink:href="#DejaVuSans-75" x="381.054688"/>
     <use xlink:href="#DejaVuSans-6c" x="444.433594"/>
     <use xlink:href="#DejaVuSans-20" x="472.216797"/>
     <use xlink:href="#DejaVuSans-61" x="504.003906"/>
     <use xlink:href="#DejaVuSans-63" x="565.283203"/>
     <use xlink:href="#DejaVuSans-74" x="620.263672"/>
     <use xlink:href="#DejaVuSans-6f" x="659.472656"/>
     <use xlink:href="#DejaVuSans-72" x="720.654297"/>
     <use xlink:href="#DejaVuSans-73" x="761.767578"/>
     <use xlink:href="#DejaVuSans-20" x="813.867188"/>
     <use xlink:href="#DejaVuSans-66" x="845.654297"/>
     <use xlink:href="#DejaVuSans-6f" x="880.859375"/>
     <use xlink:href="#DejaVuSans-72" x="942.041016"/>
     <use xlink:href="#DejaVuSans-20" x="983.154297"/>
     <use xlink:href="#DejaVuSans-43" x="1014.941406"/>
     <use xlink:href="#DejaVuSans-6f" x="1084.765625"/>
     <use xlink:href="#DejaVuSans-6d" x="1145.947266"/>
     <use xlink:href="#DejaVuSans-65" x="1243.359375"/>
     <use xlink:href="#DejaVuSans-64" x="1304.882812"/>
     <use xlink:href="#DejaVuSans-79" x="1368.359375"/>
     <use xlink:href="#DejaVuSans-20" x="1427.539062"/>
     <use xlink:href="#DejaVuSans-67" x="1459.326172"/>
     <use xlink:href="#DejaVuSans-65" x="1522.802734"/>
     <use xlink:href="#DejaVuSans-6e" x="1584.326172"/>
     <use xlink:href="#DejaVuSans-72" x="1647.705078"/>
     <use xlink:href="#DejaVuSans-65" x="1686.568359"/>
     <use xlink:href="#DejaVuSans-20" x="1748.091797"/>
     <use xlink:href="#DejaVuSans-2d" x="1779.878906"/>
     <use xlink:href="#DejaVuSans-20" x="1815.962891"/>
     <use xlink:href="#DejaVuSans-49" x="1847.75"/>
     <use xlink:href="#DejaVuSans-6d" x="1877.242188"/>
     <use xlink:href="#DejaVuSans-70" x="1974.654297"/>
     <use xlink:href="#DejaVuSans-6f" x="2038.130859"/>
     <use xlink:href="#DejaVuSans-72" x="2099.3125"/>
     <use xlink:href="#DejaVuSans-74" x="2140.425781"/>
     <use xlink:href="#DejaVuSans-61" x="2179.634766"/>
     <use xlink:href="#DejaVuSans-6e" x="2240.914062"/>
     <use xlink:href="#DejaVuSans-63" x="2304.292969"/>
     <use xlink:href="#DejaVuSans-65" x="2359.273438"/>
     <use xlink:href="#DejaVuSans-20" x="2420.796875"/>
     <use xlink:href="#DejaVuSans-72" x="2452.583984"/>
     <use xlink:href="#DejaVuSans-61" x="2493.697266"/>
     <use xlink:href="#DejaVuSans-6e" x="2554.976562"/>
     <use xlink:href="#DejaVuSans-6b" x="2618.355469"/>
     <use xlink:href="#DejaVuSans-3a" x="2676.265625"/>
     <use xlink:href="#DejaVuSans-20" x="2709.957031"/>
     <use xlink:href="#DejaVuSans-34" x="2741.744141"/>
    </g>
   </g>
  </g>
 </g>
 <defs>
  <clipPath id="p1f5839990c">
   <rect x="7.2" y="22.318125" width="554.4" height="554.4"/>
  </clipPath>
 </defs>
</svg>
