<?xml version="1.0" encoding="utf-8" standalone="no"?>
<!DOCTYPE svg PUBLIC "-//W3C//DTD SVG 1.1//EN"
  "http://www.w3.org/Graphics/SVG/1.1/DTD/svg11.dtd">
<svg xmlns:xlink="http://www.w3.org/1999/xlink" width="568.8pt" height="583.918125pt" viewBox="0 0 568.8 583.918125" xmlns="http://www.w3.org/2000/svg" version="1.1">
 <metadata>
  <rdf:RDF xmlns:dc="http://purl.org/dc/elements/1.1/" xmlns:cc="http://creativecommons.org/ns#" xmlns:rdf="http://www.w3.org/1999/02/22-rdf-syntax-ns#">
   <cc:Work>
    <dc:type rdf:resource="http://purl.org/dc/dcmitype/StillImage"/>
    <dc:date>2022-12-23T19:50:18.453298</dc:date>
    <dc:format>image/svg+xml</dc:format>
    <dc:creator>
     <cc:Agent>
      <dc:title>Matplotlib v3.5.3, https://matplotlib.org/</dc:title>
     </cc:Agent>
    </dc:creator>
   </cc:Work>
  </rdf:RDF>
 </metadata>
 <defs>
  <style type="text/css">*{stroke-linejoin: round; stroke-linecap: butt}</style>
 </defs>
 <g id="figure_1">
  <g id="patch_1">
   <path d="M 0 583.918125 
L 568.8 583.918125 
L 568.8 0 
L 0 0 
z
" style="fill: #ffffff"/>
  </g>
  <g id="axes_1">
   <g id="PathCollection_1">
    <path d="M 497.630769 326.904253 
C 504.893655 326.904253 511.86005 324.018678 516.995686 318.883042 
C 522.131322 313.747406 525.016897 306.781011 525.016897 299.518125 
C 525.016897 292.255239 522.131322 285.288844 516.995686 280.153208 
C 511.86005 275.017572 504.893655 272.131997 497.630769 272.131997 
C 490.367883 272.131997 483.401488 275.017572 478.265852 280.153208 
C 473.130217 285.288844 470.244641 292.255239 470.244641 299.518125 
C 470.244641 306.781011 473.130217 313.747406 478.265852 318.883042 
C 483.401488 324.018678 490.367883 326.904253 497.630769 326.904253 
z
" clip-path="url(#p8fe84f5e19)" style="fill: #c70039; fill-opacity: 0.99; stroke: #c70039; stroke-opacity: 0.99"/>
    <path d="M 478.992348 236.4585 
C 485.396172 236.4585 491.538573 233.914233 496.066761 229.386046 
C 500.594948 224.857859 503.139214 218.715457 503.139214 212.311633 
C 503.139214 205.90781 500.594948 199.765408 496.066761 195.237221 
C 491.538573 190.709033 485.396172 188.164767 478.992348 188.164767 
C 472.588524 188.164767 466.446122 190.709033 461.917935 195.237221 
C 457.389748 199.765408 454.845482 205.90781 454.845482 212.311633 
C 454.845482 218.715457 457.389748 224.857859 461.917935 229.386046 
C 466.446122 233.914233 472.588524 236.4585 478.992348 236.4585 
z
" clip-path="url(#p8fe84f5e19)" style="fill: #c70039; fill-opacity: 0.99; stroke: #c70039; stroke-opacity: 0.99"/>
    <path d="M 426.29985 163.880805 
C 432.584335 163.880805 438.612271 161.383952 443.056073 156.94015 
C 447.499875 152.496347 449.996728 146.468412 449.996728 140.183927 
C 449.996728 133.899441 447.499875 127.871506 443.056073 123.427703 
C 438.612271 118.983901 432.584335 116.487049 426.29985 116.487049 
C 420.015364 116.487049 413.987429 118.983901 409.543627 123.427703 
C 405.099824 127.871506 402.602972 133.899441 402.602972 140.183927 
C 402.602972 146.468412 405.099824 152.496347 409.543627 156.94015 
C 413.987429 161.383952 420.015364 163.880805 426.29985 163.880805 
z
" clip-path="url(#p8fe84f5e19)" style="fill: #c70039; fill-opacity: 0.99; stroke: #c70039; stroke-opacity: 0.99"/>
    <path d="M 348.664291 118.360743 
C 354.69877 118.360743 360.486905 115.963219 364.753926 111.696198 
C 369.020947 107.429177 371.418471 101.641042 371.418471 95.606563 
C 371.418471 89.572084 369.020947 83.783949 364.753926 79.516928 
C 360.486905 75.249906 354.69877 72.852383 348.664291 72.852383 
C 342.629812 72.852383 336.841677 75.249906 332.574656 79.516928 
C 328.307635 83.783949 325.910111 89.572084 325.910111 95.606563 
C 325.910111 101.641042 328.307635 107.429177 332.574656 111.696198 
C 336.841677 115.963219 342.629812 118.360743 348.664291 118.360743 
z
" clip-path="url(#p8fe84f5e19)" style="fill: #c70039; fill-opacity: 0.99; stroke: #c70039; stroke-opacity: 0.99"/>
    <path d="M 259.509549 108.294133 
C 265.345814 108.294133 270.943827 105.97536 275.07069 101.848497 
C 279.197553 97.721634 281.516326 92.123621 281.516326 86.287356 
C 281.516326 80.45109 279.197553 74.853077 275.07069 70.726214 
C 270.943827 66.599351 265.345814 64.280578 259.509549 64.280578 
C 253.673283 64.280578 248.07527 66.599351 243.948407 70.726214 
C 239.821544 74.853077 237.502771 80.45109 237.502771 86.287356 
C 237.502771 92.123621 239.821544 97.721634 243.948407 101.848497 
C 248.07527 105.97536 253.673283 108.294133 259.509549 108.294133 
z
" clip-path="url(#p8fe84f5e19)" style="fill: #c70039; fill-opacity: 0.99; stroke: #c70039; stroke-opacity: 0.99"/>
    <path d="M 174.251298 135.608576 
C 180.025004 135.608576 185.563011 133.314659 189.645638 129.232032 
C 193.728265 125.149405 196.022182 119.611398 196.022182 113.837692 
C 196.022182 108.063986 193.728265 102.525979 189.645638 98.443352 
C 185.563011 94.360726 180.025004 92.066808 174.251298 92.066808 
C 168.477592 92.066808 162.939585 94.360726 158.856958 98.443352 
C 154.774332 102.525979 152.480414 108.063986 152.480414 113.837692 
C 152.480414 119.611398 154.774332 125.149405 158.856958 129.232032 
C 162.939585 133.314659 168.477592 135.608576 174.251298 135.608576 
z
" clip-path="url(#p8fe84f5e19)" style="fill: #c70039; fill-opacity: 0.99; stroke: #c70039; stroke-opacity: 0.99"/>
    <path d="M 107.631477 194.81764 
C 113.286611 194.81764 118.710887 192.570831 122.709671 188.572048 
C 126.708455 184.573264 128.955263 179.148988 128.955263 173.493854 
C 128.955263 167.838719 126.708455 162.414444 122.709671 158.41566 
C 118.710887 154.416876 113.286611 152.170067 107.631477 152.170067 
C 101.976343 152.170067 96.552067 154.416876 92.553283 158.41566 
C 88.554499 162.414444 86.307691 167.838719 86.307691 173.493854 
C 86.307691 179.148988 88.554499 184.573264 92.553283 188.572048 
C 96.552067 192.570831 101.976343 194.81764 107.631477 194.81764 
z
" clip-path="url(#p8fe84f5e19)" style="fill: #c70039; fill-opacity: 0.99; stroke: #c70039; stroke-opacity: 0.99"/>
    <path d="M 71.169231 276.143925 
C 76.792372 276.143925 82.185961 273.909827 86.162122 269.933666 
C 90.138284 265.957504 92.372382 260.563915 92.372382 254.940774 
C 92.372382 249.317633 90.138284 243.924044 86.162122 239.947882 
C 82.185961 235.971721 76.792372 233.737623 71.169231 233.737623 
C 65.546089 233.737623 60.1525 235.971721 56.176339 239.947882 
C 52.200178 243.924044 49.96608 249.317633 49.96608 254.940774 
C 49.96608 260.563915 52.200178 265.957504 56.176339 269.933666 
C 60.1525 273.909827 65.546089 276.143925 71.169231 276.143925 
z
" clip-path="url(#p8fe84f5e19)" style="fill: #c70039; fill-opacity: 0.99; stroke: #c70039; stroke-opacity: 0.99"/>
    <path d="M 71.169244 365.092234 
C 76.737639 365.092234 82.078716 362.879887 86.016166 358.942437 
C 89.953616 355.004987 92.165963 349.663909 92.165963 344.095514 
C 92.165963 338.527119 89.953616 333.186042 86.016166 329.248592 
C 82.078716 325.311142 76.737639 323.098795 71.169244 323.098795 
C 65.600849 323.098795 60.259771 325.311142 56.322321 329.248592 
C 52.384871 333.186042 50.172525 338.527119 50.172525 344.095514 
C 50.172525 349.663909 52.384871 355.004987 56.322321 358.942437 
C 60.259771 362.879887 65.600849 365.092234 71.169244 365.092234 
z
" clip-path="url(#p8fe84f5e19)" style="fill: #c70039; fill-opacity: 0.99; stroke: #c70039; stroke-opacity: 0.99"/>
    <path d="M 107.63149 446.192617 
C 113.107989 446.192617 118.360922 444.016781 122.233392 440.144311 
C 126.105861 436.271841 128.281698 431.018908 128.281698 425.542409 
C 128.281698 420.06591 126.105861 414.812977 122.233392 410.940507 
C 118.360922 407.068037 113.107989 404.892201 107.63149 404.892201 
C 102.154991 404.892201 96.902058 407.068037 93.029588 410.940507 
C 89.157118 414.812977 86.981282 420.06591 86.981282 425.542409 
C 86.981282 431.018908 89.157118 436.271841 93.029588 440.144311 
C 96.902058 444.016781 102.154991 446.192617 107.63149 446.192617 
z
" clip-path="url(#p8fe84f5e19)" style="fill: #c70039; fill-opacity: 0.99; stroke: #c70039; stroke-opacity: 0.99"/>
    <path d="M 174.25133 505.713083 
C 179.691843 505.713083 184.910258 503.551545 188.757281 499.704521 
C 192.604304 495.857498 194.765843 490.639083 194.765843 485.198571 
C 194.765843 479.758058 192.604304 474.539643 188.757281 470.69262 
C 184.910258 466.845596 179.691843 464.684058 174.25133 464.684058 
C 168.810818 464.684058 163.592402 466.845596 159.745379 470.69262 
C 155.898356 474.539643 153.736818 479.758058 153.736818 485.198571 
C 153.736818 490.639083 155.898356 495.857498 159.745379 499.704521 
C 163.592402 503.551545 168.810818 505.713083 174.25133 505.713083 
z
" clip-path="url(#p8fe84f5e19)" style="fill: #c70039; fill-opacity: 0.99; stroke: #c70039; stroke-opacity: 0.99"/>
    <path d="M 259.509587 532.859714 
C 264.843039 532.859714 269.958765 530.740712 273.730085 526.969392 
C 277.501405 523.198072 279.620407 518.082346 279.620407 512.748894 
C 279.620407 507.415442 277.501405 502.299717 273.730085 498.528397 
C 269.958765 494.757077 264.843039 492.638074 259.509587 492.638074 
C 254.176135 492.638074 249.06041 494.757077 245.28909 498.528397 
C 241.51777 502.299717 239.398767 507.415442 239.398767 512.748894 
C 239.398767 518.082346 241.51777 523.198072 245.28909 526.969392 
C 249.06041 530.740712 254.176135 532.859714 259.509587 532.859714 
z
" clip-path="url(#p8fe84f5e19)" style="fill: #c70039; fill-opacity: 0.99; stroke: #c70039; stroke-opacity: 0.99"/>
    <path d="M 348.664323 523.325007 
C 353.940627 523.325007 359.001538 521.228709 362.732448 517.497799 
C 366.463358 513.766889 368.559656 508.705978 368.559656 503.429675 
C 368.559656 498.153371 366.463358 493.09246 362.732448 489.36155 
C 359.001538 485.63064 353.940627 483.534342 348.664323 483.534342 
C 343.38802 483.534342 338.327109 485.63064 334.596199 489.36155 
C 330.865289 493.09246 328.768991 498.153371 328.768991 503.429675 
C 328.768991 508.705978 330.865289 513.766889 334.596199 517.497799 
C 338.327109 521.228709 343.38802 523.325007 348.664323 523.325007 
z
" clip-path="url(#p8fe84f5e19)" style="fill: #c70039; fill-opacity: 0.99; stroke: #c70039; stroke-opacity: 0.99"/>
    <path d="M 426.299888 478.602112 
C 431.537604 478.602112 436.561501 476.521146 440.265125 472.817522 
C 443.968749 469.113898 446.049715 464.09 446.049715 458.852285 
C 446.049715 453.61457 443.968749 448.590672 440.265125 444.887048 
C 436.561501 441.183424 431.537604 439.102458 426.299888 439.102458 
C 421.062173 439.102458 416.038276 441.183424 412.334652 444.887048 
C 408.631028 448.590672 406.550061 453.61457 406.550061 458.852285 
C 406.550061 464.09 408.631028 469.113898 412.334652 472.817522 
C 416.038276 476.521146 421.062173 478.602112 426.299888 478.602112 
z
" clip-path="url(#p8fe84f5e19)" style="fill: #c70039; fill-opacity: 0.99; stroke: #c70039; stroke-opacity: 0.99"/>
    <path d="M 478.992374 406.089501 
C 484.128009 406.089501 489.053994 404.049092 492.685437 400.417649 
C 496.31688 396.786206 498.35729 391.860221 498.35729 386.724585 
C 498.35729 381.588949 496.31688 376.662964 492.685437 373.031521 
C 489.053994 369.400078 484.128009 367.359668 478.992374 367.359668 
C 473.856738 367.359668 468.930753 369.400078 465.29931 373.031521 
C 461.667867 376.662964 459.627457 381.588949 459.627457 386.724585 
C 459.627457 391.860221 461.667867 396.786206 465.29931 400.417649 
C 468.930753 404.049092 473.856738 406.089501 478.992374 406.089501 
z
" clip-path="url(#p8fe84f5e19)" style="fill: #c70039; fill-opacity: 0.99; stroke: #c70039; stroke-opacity: 0.99"/>
   </g>
   <g id="text_1">
    <g id="patch_2">
     <path d="M 460.258269 307.833281 
L 535.003269 307.833281 
L 535.003269 291.202969 
L 460.258269 291.202969 
z
" clip-path="url(#p8fe84f5e19)" style="fill: #ffffff; opacity: 0.7; stroke: #000000; stroke-linejoin: miter"/>
    </g>
    <g clip-path="url(#p8fe84f5e19)">
     <!-- Steve Buscemi -->
     <g transform="translate(464.218269 302.001562)scale(0.09 -0.09)">
      <defs>
       <path id="DejaVuSans-53" d="M 3425 4513 
L 3425 3897 
Q 3066 4069 2747 4153 
Q 2428 4238 2131 4238 
Q 1616 4238 1336 4038 
Q 1056 3838 1056 3469 
Q 1056 3159 1242 3001 
Q 1428 2844 1947 2747 
L 2328 2669 
Q 3034 2534 3370 2195 
Q 3706 1856 3706 1288 
Q 3706 609 3251 259 
Q 2797 -91 1919 -91 
Q 1588 -91 1214 -16 
Q 841 59 441 206 
L 441 856 
Q 825 641 1194 531 
Q 1563 422 1919 422 
Q 2459 422 2753 634 
Q 3047 847 3047 1241 
Q 3047 1584 2836 1778 
Q 2625 1972 2144 2069 
L 1759 2144 
Q 1053 2284 737 2584 
Q 422 2884 422 3419 
Q 422 4038 858 4394 
Q 1294 4750 2059 4750 
Q 2388 4750 2728 4690 
Q 3069 4631 3425 4513 
z
" transform="scale(0.015625)"/>
       <path id="DejaVuSans-74" d="M 1172 4494 
L 1172 3500 
L 2356 3500 
L 2356 3053 
L 1172 3053 
L 1172 1153 
Q 1172 725 1289 603 
Q 1406 481 1766 481 
L 2356 481 
L 2356 0 
L 1766 0 
Q 1100 0 847 248 
Q 594 497 594 1153 
L 594 3053 
L 172 3053 
L 172 3500 
L 594 3500 
L 594 4494 
L 1172 4494 
z
" transform="scale(0.015625)"/>
       <path id="DejaVuSans-65" d="M 3597 1894 
L 3597 1613 
L 953 1613 
Q 991 1019 1311 708 
Q 1631 397 2203 397 
Q 2534 397 2845 478 
Q 3156 559 3463 722 
L 3463 178 
Q 3153 47 2828 -22 
Q 2503 -91 2169 -91 
Q 1331 -91 842 396 
Q 353 884 353 1716 
Q 353 2575 817 3079 
Q 1281 3584 2069 3584 
Q 2775 3584 3186 3129 
Q 3597 2675 3597 1894 
z
M 3022 2063 
Q 3016 2534 2758 2815 
Q 2500 3097 2075 3097 
Q 1594 3097 1305 2825 
Q 1016 2553 972 2059 
L 3022 2063 
z
" transform="scale(0.015625)"/>
       <path id="DejaVuSans-76" d="M 191 3500 
L 800 3500 
L 1894 563 
L 2988 3500 
L 3597 3500 
L 2284 0 
L 1503 0 
L 191 3500 
z
" transform="scale(0.015625)"/>
       <path id="DejaVuSans-20" transform="scale(0.015625)"/>
       <path id="DejaVuSans-42" d="M 1259 2228 
L 1259 519 
L 2272 519 
Q 2781 519 3026 730 
Q 3272 941 3272 1375 
Q 3272 1813 3026 2020 
Q 2781 2228 2272 2228 
L 1259 2228 
z
M 1259 4147 
L 1259 2741 
L 2194 2741 
Q 2656 2741 2882 2914 
Q 3109 3088 3109 3444 
Q 3109 3797 2882 3972 
Q 2656 4147 2194 4147 
L 1259 4147 
z
M 628 4666 
L 2241 4666 
Q 2963 4666 3353 4366 
Q 3744 4066 3744 3513 
Q 3744 3084 3544 2831 
Q 3344 2578 2956 2516 
Q 3422 2416 3680 2098 
Q 3938 1781 3938 1306 
Q 3938 681 3513 340 
Q 3088 0 2303 0 
L 628 0 
L 628 4666 
z
" transform="scale(0.015625)"/>
       <path id="DejaVuSans-75" d="M 544 1381 
L 544 3500 
L 1119 3500 
L 1119 1403 
Q 1119 906 1312 657 
Q 1506 409 1894 409 
Q 2359 409 2629 706 
Q 2900 1003 2900 1516 
L 2900 3500 
L 3475 3500 
L 3475 0 
L 2900 0 
L 2900 538 
Q 2691 219 2414 64 
Q 2138 -91 1772 -91 
Q 1169 -91 856 284 
Q 544 659 544 1381 
z
M 1991 3584 
L 1991 3584 
z
" transform="scale(0.015625)"/>
       <path id="DejaVuSans-73" d="M 2834 3397 
L 2834 2853 
Q 2591 2978 2328 3040 
Q 2066 3103 1784 3103 
Q 1356 3103 1142 2972 
Q 928 2841 928 2578 
Q 928 2378 1081 2264 
Q 1234 2150 1697 2047 
L 1894 2003 
Q 2506 1872 2764 1633 
Q 3022 1394 3022 966 
Q 3022 478 2636 193 
Q 2250 -91 1575 -91 
Q 1294 -91 989 -36 
Q 684 19 347 128 
L 347 722 
Q 666 556 975 473 
Q 1284 391 1588 391 
Q 1994 391 2212 530 
Q 2431 669 2431 922 
Q 2431 1156 2273 1281 
Q 2116 1406 1581 1522 
L 1381 1569 
Q 847 1681 609 1914 
Q 372 2147 372 2553 
Q 372 3047 722 3315 
Q 1072 3584 1716 3584 
Q 2034 3584 2315 3537 
Q 2597 3491 2834 3397 
z
" transform="scale(0.015625)"/>
       <path id="DejaVuSans-63" d="M 3122 3366 
L 3122 2828 
Q 2878 2963 2633 3030 
Q 2388 3097 2138 3097 
Q 1578 3097 1268 2742 
Q 959 2388 959 1747 
Q 959 1106 1268 751 
Q 1578 397 2138 397 
Q 2388 397 2633 464 
Q 2878 531 3122 666 
L 3122 134 
Q 2881 22 2623 -34 
Q 2366 -91 2075 -91 
Q 1284 -91 818 406 
Q 353 903 353 1747 
Q 353 2603 823 3093 
Q 1294 3584 2113 3584 
Q 2378 3584 2631 3529 
Q 2884 3475 3122 3366 
z
" transform="scale(0.015625)"/>
       <path id="DejaVuSans-6d" d="M 3328 2828 
Q 3544 3216 3844 3400 
Q 4144 3584 4550 3584 
Q 5097 3584 5394 3201 
Q 5691 2819 5691 2113 
L 5691 0 
L 5113 0 
L 5113 2094 
Q 5113 2597 4934 2840 
Q 4756 3084 4391 3084 
Q 3944 3084 3684 2787 
Q 3425 2491 3425 1978 
L 3425 0 
L 2847 0 
L 2847 2094 
Q 2847 2600 2669 2842 
Q 2491 3084 2119 3084 
Q 1678 3084 1418 2786 
Q 1159 2488 1159 1978 
L 1159 0 
L 581 0 
L 581 3500 
L 1159 3500 
L 1159 2956 
Q 1356 3278 1631 3431 
Q 1906 3584 2284 3584 
Q 2666 3584 2933 3390 
Q 3200 3197 3328 2828 
z
" transform="scale(0.015625)"/>
       <path id="DejaVuSans-69" d="M 603 3500 
L 1178 3500 
L 1178 0 
L 603 0 
L 603 3500 
z
M 603 4863 
L 1178 4863 
L 1178 4134 
L 603 4134 
L 603 4863 
z
" transform="scale(0.015625)"/>
      </defs>
      <use xlink:href="#DejaVuSans-53"/>
      <use xlink:href="#DejaVuSans-74" x="63.476562"/>
      <use xlink:href="#DejaVuSans-65" x="102.685547"/>
      <use xlink:href="#DejaVuSans-76" x="164.208984"/>
      <use xlink:href="#DejaVuSans-65" x="223.388672"/>
      <use xlink:href="#DejaVuSans-20" x="284.912109"/>
      <use xlink:href="#DejaVuSans-42" x="316.699219"/>
      <use xlink:href="#DejaVuSans-75" x="385.302734"/>
      <use xlink:href="#DejaVuSans-73" x="448.681641"/>
      <use xlink:href="#DejaVuSans-63" x="500.78125"/>
      <use xlink:href="#DejaVuSans-65" x="555.761719"/>
      <use xlink:href="#DejaVuSans-6d" x="617.285156"/>
      <use xlink:href="#DejaVuSans-69" x="714.697266"/>
     </g>
    </g>
   </g>
   <g id="text_2">
    <g id="patch_3">
     <path d="M 444.033676 220.62679 
L 513.95102 220.62679 
L 513.95102 203.996477 
L 444.033676 203.996477 
z
" clip-path="url(#p8fe84f5e19)" style="fill: #ffffff; opacity: 0.7; stroke: #000000; stroke-linejoin: miter"/>
    </g>
    <g clip-path="url(#p8fe84f5e19)">
     <!-- Danny DeVito -->
     <g transform="translate(447.993676 214.795071)scale(0.09 -0.09)">
      <defs>
       <path id="DejaVuSans-44" d="M 1259 4147 
L 1259 519 
L 2022 519 
Q 2988 519 3436 956 
Q 3884 1394 3884 2338 
Q 3884 3275 3436 3711 
Q 2988 4147 2022 4147 
L 1259 4147 
z
M 628 4666 
L 1925 4666 
Q 3281 4666 3915 4102 
Q 4550 3538 4550 2338 
Q 4550 1131 3912 565 
Q 3275 0 1925 0 
L 628 0 
L 628 4666 
z
" transform="scale(0.015625)"/>
       <path id="DejaVuSans-61" d="M 2194 1759 
Q 1497 1759 1228 1600 
Q 959 1441 959 1056 
Q 959 750 1161 570 
Q 1363 391 1709 391 
Q 2188 391 2477 730 
Q 2766 1069 2766 1631 
L 2766 1759 
L 2194 1759 
z
M 3341 1997 
L 3341 0 
L 2766 0 
L 2766 531 
Q 2569 213 2275 61 
Q 1981 -91 1556 -91 
Q 1019 -91 701 211 
Q 384 513 384 1019 
Q 384 1609 779 1909 
Q 1175 2209 1959 2209 
L 2766 2209 
L 2766 2266 
Q 2766 2663 2505 2880 
Q 2244 3097 1772 3097 
Q 1472 3097 1187 3025 
Q 903 2953 641 2809 
L 641 3341 
Q 956 3463 1253 3523 
Q 1550 3584 1831 3584 
Q 2591 3584 2966 3190 
Q 3341 2797 3341 1997 
z
" transform="scale(0.015625)"/>
       <path id="DejaVuSans-6e" d="M 3513 2113 
L 3513 0 
L 2938 0 
L 2938 2094 
Q 2938 2591 2744 2837 
Q 2550 3084 2163 3084 
Q 1697 3084 1428 2787 
Q 1159 2491 1159 1978 
L 1159 0 
L 581 0 
L 581 3500 
L 1159 3500 
L 1159 2956 
Q 1366 3272 1645 3428 
Q 1925 3584 2291 3584 
Q 2894 3584 3203 3211 
Q 3513 2838 3513 2113 
z
" transform="scale(0.015625)"/>
       <path id="DejaVuSans-79" d="M 2059 -325 
Q 1816 -950 1584 -1140 
Q 1353 -1331 966 -1331 
L 506 -1331 
L 506 -850 
L 844 -850 
Q 1081 -850 1212 -737 
Q 1344 -625 1503 -206 
L 1606 56 
L 191 3500 
L 800 3500 
L 1894 763 
L 2988 3500 
L 3597 3500 
L 2059 -325 
z
" transform="scale(0.015625)"/>
       <path id="DejaVuSans-56" d="M 1831 0 
L 50 4666 
L 709 4666 
L 2188 738 
L 3669 4666 
L 4325 4666 
L 2547 0 
L 1831 0 
z
" transform="scale(0.015625)"/>
       <path id="DejaVuSans-6f" d="M 1959 3097 
Q 1497 3097 1228 2736 
Q 959 2375 959 1747 
Q 959 1119 1226 758 
Q 1494 397 1959 397 
Q 2419 397 2687 759 
Q 2956 1122 2956 1747 
Q 2956 2369 2687 2733 
Q 2419 3097 1959 3097 
z
M 1959 3584 
Q 2709 3584 3137 3096 
Q 3566 2609 3566 1747 
Q 3566 888 3137 398 
Q 2709 -91 1959 -91 
Q 1206 -91 779 398 
Q 353 888 353 1747 
Q 353 2609 779 3096 
Q 1206 3584 1959 3584 
z
" transform="scale(0.015625)"/>
      </defs>
      <use xlink:href="#DejaVuSans-44"/>
      <use xlink:href="#DejaVuSans-61" x="77.001953"/>
      <use xlink:href="#DejaVuSans-6e" x="138.28125"/>
      <use xlink:href="#DejaVuSans-6e" x="201.660156"/>
      <use xlink:href="#DejaVuSans-79" x="265.039062"/>
      <use xlink:href="#DejaVuSans-20" x="324.21875"/>
      <use xlink:href="#DejaVuSans-44" x="356.005859"/>
      <use xlink:href="#DejaVuSans-65" x="433.007812"/>
      <use xlink:href="#DejaVuSans-56" x="494.53125"/>
      <use xlink:href="#DejaVuSans-69" x="560.689453"/>
      <use xlink:href="#DejaVuSans-74" x="588.472656"/>
      <use xlink:href="#DejaVuSans-6f" x="627.681641"/>
     </g>
    </g>
   </g>
   <g id="text_3">
    <g id="patch_4">
     <path d="M 391.377037 148.499083 
L 461.222662 148.499083 
L 461.222662 131.86877 
L 391.377037 131.86877 
z
" clip-path="url(#p8fe84f5e19)" style="fill: #ffffff; opacity: 0.7; stroke: #000000; stroke-linejoin: miter"/>
    </g>
    <g clip-path="url(#p8fe84f5e19)">
     <!-- Eddie Murphy -->
     <g transform="translate(395.337037 142.667364)scale(0.09 -0.09)">
      <defs>
       <path id="DejaVuSans-45" d="M 628 4666 
L 3578 4666 
L 3578 4134 
L 1259 4134 
L 1259 2753 
L 3481 2753 
L 3481 2222 
L 1259 2222 
L 1259 531 
L 3634 531 
L 3634 0 
L 628 0 
L 628 4666 
z
" transform="scale(0.015625)"/>
       <path id="DejaVuSans-64" d="M 2906 2969 
L 2906 4863 
L 3481 4863 
L 3481 0 
L 2906 0 
L 2906 525 
Q 2725 213 2448 61 
Q 2172 -91 1784 -91 
Q 1150 -91 751 415 
Q 353 922 353 1747 
Q 353 2572 751 3078 
Q 1150 3584 1784 3584 
Q 2172 3584 2448 3432 
Q 2725 3281 2906 2969 
z
M 947 1747 
Q 947 1113 1208 752 
Q 1469 391 1925 391 
Q 2381 391 2643 752 
Q 2906 1113 2906 1747 
Q 2906 2381 2643 2742 
Q 2381 3103 1925 3103 
Q 1469 3103 1208 2742 
Q 947 2381 947 1747 
z
" transform="scale(0.015625)"/>
       <path id="DejaVuSans-4d" d="M 628 4666 
L 1569 4666 
L 2759 1491 
L 3956 4666 
L 4897 4666 
L 4897 0 
L 4281 0 
L 4281 4097 
L 3078 897 
L 2444 897 
L 1241 4097 
L 1241 0 
L 628 0 
L 628 4666 
z
" transform="scale(0.015625)"/>
       <path id="DejaVuSans-72" d="M 2631 2963 
Q 2534 3019 2420 3045 
Q 2306 3072 2169 3072 
Q 1681 3072 1420 2755 
Q 1159 2438 1159 1844 
L 1159 0 
L 581 0 
L 581 3500 
L 1159 3500 
L 1159 2956 
Q 1341 3275 1631 3429 
Q 1922 3584 2338 3584 
Q 2397 3584 2469 3576 
Q 2541 3569 2628 3553 
L 2631 2963 
z
" transform="scale(0.015625)"/>
       <path id="DejaVuSans-70" d="M 1159 525 
L 1159 -1331 
L 581 -1331 
L 581 3500 
L 1159 3500 
L 1159 2969 
Q 1341 3281 1617 3432 
Q 1894 3584 2278 3584 
Q 2916 3584 3314 3078 
Q 3713 2572 3713 1747 
Q 3713 922 3314 415 
Q 2916 -91 2278 -91 
Q 1894 -91 1617 61 
Q 1341 213 1159 525 
z
M 3116 1747 
Q 3116 2381 2855 2742 
Q 2594 3103 2138 3103 
Q 1681 3103 1420 2742 
Q 1159 2381 1159 1747 
Q 1159 1113 1420 752 
Q 1681 391 2138 391 
Q 2594 391 2855 752 
Q 3116 1113 3116 1747 
z
" transform="scale(0.015625)"/>
       <path id="DejaVuSans-68" d="M 3513 2113 
L 3513 0 
L 2938 0 
L 2938 2094 
Q 2938 2591 2744 2837 
Q 2550 3084 2163 3084 
Q 1697 3084 1428 2787 
Q 1159 2491 1159 1978 
L 1159 0 
L 581 0 
L 581 4863 
L 1159 4863 
L 1159 2956 
Q 1366 3272 1645 3428 
Q 1925 3584 2291 3584 
Q 2894 3584 3203 3211 
Q 3513 2838 3513 2113 
z
" transform="scale(0.015625)"/>
      </defs>
      <use xlink:href="#DejaVuSans-45"/>
      <use xlink:href="#DejaVuSans-64" x="63.183594"/>
      <use xlink:href="#DejaVuSans-64" x="126.660156"/>
      <use xlink:href="#DejaVuSans-69" x="190.136719"/>
      <use xlink:href="#DejaVuSans-65" x="217.919922"/>
      <use xlink:href="#DejaVuSans-20" x="279.443359"/>
      <use xlink:href="#DejaVuSans-4d" x="311.230469"/>
      <use xlink:href="#DejaVuSans-75" x="397.509766"/>
      <use xlink:href="#DejaVuSans-72" x="460.888672"/>
      <use xlink:href="#DejaVuSans-70" x="502.001953"/>
      <use xlink:href="#DejaVuSans-68" x="565.478516"/>
      <use xlink:href="#DejaVuSans-79" x="628.857422"/>
     </g>
    </g>
   </g>
   <g id="text_4">
    <g id="patch_5">
     <path d="M 322.95101 103.921719 
L 374.377572 103.921719 
L 374.377572 87.291406 
L 322.95101 87.291406 
z
" clip-path="url(#p8fe84f5e19)" style="fill: #ffffff; opacity: 0.7; stroke: #000000; stroke-linejoin: miter"/>
    </g>
    <g clip-path="url(#p8fe84f5e19)">
     <!-- Mel Blanc -->
     <g transform="translate(326.91101 98.09)scale(0.09 -0.09)">
      <defs>
       <path id="DejaVuSans-6c" d="M 603 4863 
L 1178 4863 
L 1178 0 
L 603 0 
L 603 4863 
z
" transform="scale(0.015625)"/>
      </defs>
      <use xlink:href="#DejaVuSans-4d"/>
      <use xlink:href="#DejaVuSans-65" x="86.279297"/>
      <use xlink:href="#DejaVuSans-6c" x="147.802734"/>
      <use xlink:href="#DejaVuSans-20" x="175.585938"/>
      <use xlink:href="#DejaVuSans-42" x="207.373047"/>
      <use xlink:href="#DejaVuSans-6c" x="275.976562"/>
      <use xlink:href="#DejaVuSans-61" x="303.759766"/>
      <use xlink:href="#DejaVuSans-6e" x="365.039062"/>
      <use xlink:href="#DejaVuSans-63" x="428.417969"/>
     </g>
    </g>
   </g>
   <g id="text_5">
    <g id="patch_6">
     <path d="M 214.936345 94.602512 
L 304.082752 94.602512 
L 304.082752 77.9722 
L 214.936345 77.9722 
z
" clip-path="url(#p8fe84f5e19)" style="fill: #ffffff; opacity: 0.7; stroke: #000000; stroke-linejoin: miter"/>
    </g>
    <g clip-path="url(#p8fe84f5e19)">
     <!-- Sylvester Stallone -->
     <g transform="translate(218.896345 88.770793)scale(0.09 -0.09)">
      <use xlink:href="#DejaVuSans-53"/>
      <use xlink:href="#DejaVuSans-79" x="63.476562"/>
      <use xlink:href="#DejaVuSans-6c" x="122.65625"/>
      <use xlink:href="#DejaVuSans-76" x="150.439453"/>
      <use xlink:href="#DejaVuSans-65" x="209.619141"/>
      <use xlink:href="#DejaVuSans-73" x="271.142578"/>
      <use xlink:href="#DejaVuSans-74" x="323.242188"/>
      <use xlink:href="#DejaVuSans-65" x="362.451172"/>
      <use xlink:href="#DejaVuSans-72" x="423.974609"/>
      <use xlink:href="#DejaVuSans-20" x="465.087891"/>
      <use xlink:href="#DejaVuSans-53" x="496.875"/>
      <use xlink:href="#DejaVuSans-74" x="560.351562"/>
      <use xlink:href="#DejaVuSans-61" x="599.560547"/>
      <use xlink:href="#DejaVuSans-6c" x="660.839844"/>
      <use xlink:href="#DejaVuSans-6c" x="688.623047"/>
      <use xlink:href="#DejaVuSans-6f" x="716.40625"/>
      <use xlink:href="#DejaVuSans-6e" x="777.587891"/>
      <use xlink:href="#DejaVuSans-65" x="840.966797"/>
     </g>
    </g>
   </g>
   <g id="text_6">
    <g id="patch_7">
     <path d="M 138.367314 122.152849 
L 210.135282 122.152849 
L 210.135282 105.522536 
L 138.367314 105.522536 
z
" clip-path="url(#p8fe84f5e19)" style="fill: #ffffff; opacity: 0.7; stroke: #000000; stroke-linejoin: miter"/>
    </g>
    <g clip-path="url(#p8fe84f5e19)">
     <!-- Steven Wright -->
     <g transform="translate(142.327314 116.32113)scale(0.09 -0.09)">
      <defs>
       <path id="DejaVuSans-57" d="M 213 4666 
L 850 4666 
L 1831 722 
L 2809 4666 
L 3519 4666 
L 4500 722 
L 5478 4666 
L 6119 4666 
L 4947 0 
L 4153 0 
L 3169 4050 
L 2175 0 
L 1381 0 
L 213 4666 
z
" transform="scale(0.015625)"/>
       <path id="DejaVuSans-67" d="M 2906 1791 
Q 2906 2416 2648 2759 
Q 2391 3103 1925 3103 
Q 1463 3103 1205 2759 
Q 947 2416 947 1791 
Q 947 1169 1205 825 
Q 1463 481 1925 481 
Q 2391 481 2648 825 
Q 2906 1169 2906 1791 
z
M 3481 434 
Q 3481 -459 3084 -895 
Q 2688 -1331 1869 -1331 
Q 1566 -1331 1297 -1286 
Q 1028 -1241 775 -1147 
L 775 -588 
Q 1028 -725 1275 -790 
Q 1522 -856 1778 -856 
Q 2344 -856 2625 -561 
Q 2906 -266 2906 331 
L 2906 616 
Q 2728 306 2450 153 
Q 2172 0 1784 0 
Q 1141 0 747 490 
Q 353 981 353 1791 
Q 353 2603 747 3093 
Q 1141 3584 1784 3584 
Q 2172 3584 2450 3431 
Q 2728 3278 2906 2969 
L 2906 3500 
L 3481 3500 
L 3481 434 
z
" transform="scale(0.015625)"/>
      </defs>
      <use xlink:href="#DejaVuSans-53"/>
      <use xlink:href="#DejaVuSans-74" x="63.476562"/>
      <use xlink:href="#DejaVuSans-65" x="102.685547"/>
      <use xlink:href="#DejaVuSans-76" x="164.208984"/>
      <use xlink:href="#DejaVuSans-65" x="223.388672"/>
      <use xlink:href="#DejaVuSans-6e" x="284.912109"/>
      <use xlink:href="#DejaVuSans-20" x="348.291016"/>
      <use xlink:href="#DejaVuSans-57" x="380.078125"/>
      <use xlink:href="#DejaVuSans-72" x="474.455078"/>
      <use xlink:href="#DejaVuSans-69" x="515.568359"/>
      <use xlink:href="#DejaVuSans-67" x="543.351562"/>
      <use xlink:href="#DejaVuSans-68" x="606.828125"/>
      <use xlink:href="#DejaVuSans-74" x="670.207031"/>
     </g>
    </g>
   </g>
   <g id="text_7">
    <g id="patch_8">
     <path d="M 74.648586 181.80901 
L 140.614368 181.80901 
L 140.614368 165.178697 
L 74.648586 165.178697 
z
" clip-path="url(#p8fe84f5e19)" style="fill: #ffffff; opacity: 0.7; stroke: #000000; stroke-linejoin: miter"/>
    </g>
    <g clip-path="url(#p8fe84f5e19)">
     <!-- Frank Welker -->
     <g transform="translate(78.608586 175.977291)scale(0.09 -0.09)">
      <defs>
       <path id="DejaVuSans-46" d="M 628 4666 
L 3309 4666 
L 3309 4134 
L 1259 4134 
L 1259 2759 
L 3109 2759 
L 3109 2228 
L 1259 2228 
L 1259 0 
L 628 0 
L 628 4666 
z
" transform="scale(0.015625)"/>
       <path id="DejaVuSans-6b" d="M 581 4863 
L 1159 4863 
L 1159 1991 
L 2875 3500 
L 3609 3500 
L 1753 1863 
L 3688 0 
L 2938 0 
L 1159 1709 
L 1159 0 
L 581 0 
L 581 4863 
z
" transform="scale(0.015625)"/>
      </defs>
      <use xlink:href="#DejaVuSans-46"/>
      <use xlink:href="#DejaVuSans-72" x="50.269531"/>
      <use xlink:href="#DejaVuSans-61" x="91.382812"/>
      <use xlink:href="#DejaVuSans-6e" x="152.662109"/>
      <use xlink:href="#DejaVuSans-6b" x="216.041016"/>
      <use xlink:href="#DejaVuSans-20" x="273.951172"/>
      <use xlink:href="#DejaVuSans-57" x="305.738281"/>
      <use xlink:href="#DejaVuSans-65" x="398.740234"/>
      <use xlink:href="#DejaVuSans-6c" x="460.263672"/>
      <use xlink:href="#DejaVuSans-6b" x="488.046875"/>
      <use xlink:href="#DejaVuSans-65" x="542.332031"/>
      <use xlink:href="#DejaVuSans-72" x="603.855469"/>
     </g>
    </g>
   </g>
   <g id="text_8">
    <g id="patch_9">
     <path d="M 37.74759 263.25593 
L 104.590871 263.25593 
L 104.590871 246.625618 
L 37.74759 246.625618 
z
" clip-path="url(#p8fe84f5e19)" style="fill: #ffffff; opacity: 0.7; stroke: #000000; stroke-linejoin: miter"/>
    </g>
    <g clip-path="url(#p8fe84f5e19)">
     <!-- Stanley Tucci -->
     <g transform="translate(41.70759 257.424211)scale(0.09 -0.09)">
      <defs>
       <path id="DejaVuSans-54" d="M -19 4666 
L 3928 4666 
L 3928 4134 
L 2272 4134 
L 2272 0 
L 1638 0 
L 1638 4134 
L -19 4134 
L -19 4666 
z
" transform="scale(0.015625)"/>
      </defs>
      <use xlink:href="#DejaVuSans-53"/>
      <use xlink:href="#DejaVuSans-74" x="63.476562"/>
      <use xlink:href="#DejaVuSans-61" x="102.685547"/>
      <use xlink:href="#DejaVuSans-6e" x="163.964844"/>
      <use xlink:href="#DejaVuSans-6c" x="227.34375"/>
      <use xlink:href="#DejaVuSans-65" x="255.126953"/>
      <use xlink:href="#DejaVuSans-79" x="316.650391"/>
      <use xlink:href="#DejaVuSans-20" x="375.830078"/>
      <use xlink:href="#DejaVuSans-54" x="407.617188"/>
      <use xlink:href="#DejaVuSans-75" x="453.576172"/>
      <use xlink:href="#DejaVuSans-63" x="516.955078"/>
      <use xlink:href="#DejaVuSans-63" x="571.935547"/>
      <use xlink:href="#DejaVuSans-69" x="626.916016"/>
     </g>
    </g>
   </g>
   <g id="text_9">
    <g id="patch_10">
     <path d="M 40.790025 352.410671 
L 101.548462 352.410671 
L 101.548462 335.780358 
L 40.790025 335.780358 
z
" clip-path="url(#p8fe84f5e19)" style="fill: #ffffff; opacity: 0.7; stroke: #000000; stroke-linejoin: miter"/>
    </g>
    <g clip-path="url(#p8fe84f5e19)">
     <!-- John Wayne -->
     <g transform="translate(44.750025 346.578952)scale(0.09 -0.09)">
      <defs>
       <path id="DejaVuSans-4a" d="M 628 4666 
L 1259 4666 
L 1259 325 
Q 1259 -519 939 -900 
Q 619 -1281 -91 -1281 
L -331 -1281 
L -331 -750 
L -134 -750 
Q 284 -750 456 -515 
Q 628 -281 628 325 
L 628 4666 
z
" transform="scale(0.015625)"/>
      </defs>
      <use xlink:href="#DejaVuSans-4a"/>
      <use xlink:href="#DejaVuSans-6f" x="29.492188"/>
      <use xlink:href="#DejaVuSans-68" x="90.673828"/>
      <use xlink:href="#DejaVuSans-6e" x="154.052734"/>
      <use xlink:href="#DejaVuSans-20" x="217.431641"/>
      <use xlink:href="#DejaVuSans-57" x="249.21875"/>
      <use xlink:href="#DejaVuSans-61" x="341.720703"/>
      <use xlink:href="#DejaVuSans-79" x="403"/>
      <use xlink:href="#DejaVuSans-6e" x="462.179688"/>
      <use xlink:href="#DejaVuSans-65" x="525.558594"/>
     </g>
    </g>
   </g>
   <g id="text_10">
    <g id="patch_11">
     <path d="M 75.062037 433.857565 
L 140.200943 433.857565 
L 140.200943 417.227253 
L 75.062037 417.227253 
z
" clip-path="url(#p8fe84f5e19)" style="fill: #ffffff; opacity: 0.7; stroke: #000000; stroke-linejoin: miter"/>
    </g>
    <g clip-path="url(#p8fe84f5e19)">
     <!-- Meryl Streep -->
     <g transform="translate(79.022037 428.025847)scale(0.09 -0.09)">
      <use xlink:href="#DejaVuSans-4d"/>
      <use xlink:href="#DejaVuSans-65" x="86.279297"/>
      <use xlink:href="#DejaVuSans-72" x="147.802734"/>
      <use xlink:href="#DejaVuSans-79" x="188.916016"/>
      <use xlink:href="#DejaVuSans-6c" x="248.095703"/>
      <use xlink:href="#DejaVuSans-20" x="275.878906"/>
      <use xlink:href="#DejaVuSans-53" x="307.666016"/>
      <use xlink:href="#DejaVuSans-74" x="371.142578"/>
      <use xlink:href="#DejaVuSans-72" x="410.351562"/>
      <use xlink:href="#DejaVuSans-65" x="449.214844"/>
      <use xlink:href="#DejaVuSans-65" x="510.738281"/>
      <use xlink:href="#DejaVuSans-70" x="572.261719"/>
     </g>
    </g>
   </g>
   <g id="text_11">
    <g id="patch_12">
     <path d="M 145.416174 493.513727 
L 203.086486 493.513727 
L 203.086486 476.883414 
L 145.416174 476.883414 
z
" clip-path="url(#p8fe84f5e19)" style="fill: #ffffff; opacity: 0.7; stroke: #000000; stroke-linejoin: miter"/>
    </g>
    <g clip-path="url(#p8fe84f5e19)">
     <!-- Mel Gibson -->
     <g transform="translate(149.376174 487.682008)scale(0.09 -0.09)">
      <defs>
       <path id="DejaVuSans-47" d="M 3809 666 
L 3809 1919 
L 2778 1919 
L 2778 2438 
L 4434 2438 
L 4434 434 
Q 4069 175 3628 42 
Q 3188 -91 2688 -91 
Q 1594 -91 976 548 
Q 359 1188 359 2328 
Q 359 3472 976 4111 
Q 1594 4750 2688 4750 
Q 3144 4750 3555 4637 
Q 3966 4525 4313 4306 
L 4313 3634 
Q 3963 3931 3569 4081 
Q 3175 4231 2741 4231 
Q 1884 4231 1454 3753 
Q 1025 3275 1025 2328 
Q 1025 1384 1454 906 
Q 1884 428 2741 428 
Q 3075 428 3337 486 
Q 3600 544 3809 666 
z
" transform="scale(0.015625)"/>
       <path id="DejaVuSans-62" d="M 3116 1747 
Q 3116 2381 2855 2742 
Q 2594 3103 2138 3103 
Q 1681 3103 1420 2742 
Q 1159 2381 1159 1747 
Q 1159 1113 1420 752 
Q 1681 391 2138 391 
Q 2594 391 2855 752 
Q 3116 1113 3116 1747 
z
M 1159 2969 
Q 1341 3281 1617 3432 
Q 1894 3584 2278 3584 
Q 2916 3584 3314 3078 
Q 3713 2572 3713 1747 
Q 3713 922 3314 415 
Q 2916 -91 2278 -91 
Q 1894 -91 1617 61 
Q 1341 213 1159 525 
L 1159 0 
L 581 0 
L 581 4863 
L 1159 4863 
L 1159 2969 
z
" transform="scale(0.015625)"/>
      </defs>
      <use xlink:href="#DejaVuSans-4d"/>
      <use xlink:href="#DejaVuSans-65" x="86.279297"/>
      <use xlink:href="#DejaVuSans-6c" x="147.802734"/>
      <use xlink:href="#DejaVuSans-20" x="175.585938"/>
      <use xlink:href="#DejaVuSans-47" x="207.373047"/>
      <use xlink:href="#DejaVuSans-69" x="284.863281"/>
      <use xlink:href="#DejaVuSans-62" x="312.646484"/>
      <use xlink:href="#DejaVuSans-73" x="376.123047"/>
      <use xlink:href="#DejaVuSans-6f" x="428.222656"/>
      <use xlink:href="#DejaVuSans-6e" x="489.404297"/>
     </g>
    </g>
   </g>
   <g id="text_12">
    <g id="patch_13">
     <path d="M 216.806697 521.06405 
L 302.212478 521.06405 
L 302.212478 504.433738 
L 216.806697 504.433738 
z
" clip-path="url(#p8fe84f5e19)" style="fill: #ffffff; opacity: 0.7; stroke: #000000; stroke-linejoin: miter"/>
    </g>
    <g clip-path="url(#p8fe84f5e19)">
     <!-- Zach Galifianakis -->
     <g transform="translate(220.766697 515.232332)scale(0.09 -0.09)">
      <defs>
       <path id="DejaVuSans-5a" d="M 359 4666 
L 4025 4666 
L 4025 4184 
L 1075 531 
L 4097 531 
L 4097 0 
L 288 0 
L 288 481 
L 3238 4134 
L 359 4134 
L 359 4666 
z
" transform="scale(0.015625)"/>
       <path id="DejaVuSans-66" d="M 2375 4863 
L 2375 4384 
L 1825 4384 
Q 1516 4384 1395 4259 
Q 1275 4134 1275 3809 
L 1275 3500 
L 2222 3500 
L 2222 3053 
L 1275 3053 
L 1275 0 
L 697 0 
L 697 3053 
L 147 3053 
L 147 3500 
L 697 3500 
L 697 3744 
Q 697 4328 969 4595 
Q 1241 4863 1831 4863 
L 2375 4863 
z
" transform="scale(0.015625)"/>
      </defs>
      <use xlink:href="#DejaVuSans-5a"/>
      <use xlink:href="#DejaVuSans-61" x="68.505859"/>
      <use xlink:href="#DejaVuSans-63" x="129.785156"/>
      <use xlink:href="#DejaVuSans-68" x="184.765625"/>
      <use xlink:href="#DejaVuSans-20" x="248.144531"/>
      <use xlink:href="#DejaVuSans-47" x="279.931641"/>
      <use xlink:href="#DejaVuSans-61" x="357.421875"/>
      <use xlink:href="#DejaVuSans-6c" x="418.701172"/>
      <use xlink:href="#DejaVuSans-69" x="446.484375"/>
      <use xlink:href="#DejaVuSans-66" x="474.267578"/>
      <use xlink:href="#DejaVuSans-69" x="509.472656"/>
      <use xlink:href="#DejaVuSans-61" x="537.255859"/>
      <use xlink:href="#DejaVuSans-6e" x="598.535156"/>
      <use xlink:href="#DejaVuSans-61" x="661.914062"/>
      <use xlink:href="#DejaVuSans-6b" x="723.193359"/>
      <use xlink:href="#DejaVuSans-69" x="781.103516"/>
      <use xlink:href="#DejaVuSans-73" x="808.886719"/>
     </g>
    </g>
   </g>
   <g id="text_13">
    <g id="patch_14">
     <path d="M 303.923073 511.744831 
L 393.405573 511.744831 
L 393.405573 495.114518 
L 303.923073 495.114518 
z
" clip-path="url(#p8fe84f5e19)" style="fill: #ffffff; opacity: 0.7; stroke: #000000; stroke-linejoin: miter"/>
    </g>
    <g clip-path="url(#p8fe84f5e19)">
     <!-- Samuel L. Jackson -->
     <g transform="translate(307.883073 505.913112)scale(0.09 -0.09)">
      <defs>
       <path id="DejaVuSans-4c" d="M 628 4666 
L 1259 4666 
L 1259 531 
L 3531 531 
L 3531 0 
L 628 0 
L 628 4666 
z
" transform="scale(0.015625)"/>
       <path id="DejaVuSans-2e" d="M 684 794 
L 1344 794 
L 1344 0 
L 684 0 
L 684 794 
z
" transform="scale(0.015625)"/>
      </defs>
      <use xlink:href="#DejaVuSans-53"/>
      <use xlink:href="#DejaVuSans-61" x="63.476562"/>
      <use xlink:href="#DejaVuSans-6d" x="124.755859"/>
      <use xlink:href="#DejaVuSans-75" x="222.167969"/>
      <use xlink:href="#DejaVuSans-65" x="285.546875"/>
      <use xlink:href="#DejaVuSans-6c" x="347.070312"/>
      <use xlink:href="#DejaVuSans-20" x="374.853516"/>
      <use xlink:href="#DejaVuSans-4c" x="406.640625"/>
      <use xlink:href="#DejaVuSans-2e" x="462.353516"/>
      <use xlink:href="#DejaVuSans-20" x="494.140625"/>
      <use xlink:href="#DejaVuSans-4a" x="525.927734"/>
      <use xlink:href="#DejaVuSans-61" x="555.419922"/>
      <use xlink:href="#DejaVuSans-63" x="616.699219"/>
      <use xlink:href="#DejaVuSans-6b" x="671.679688"/>
      <use xlink:href="#DejaVuSans-73" x="729.589844"/>
      <use xlink:href="#DejaVuSans-6f" x="781.689453"/>
      <use xlink:href="#DejaVuSans-6e" x="842.871094"/>
     </g>
    </g>
   </g>
   <g id="text_14">
    <g id="patch_15">
     <path d="M 402.672076 467.167441 
L 449.927701 467.167441 
L 449.927701 450.537129 
L 402.672076 450.537129 
z
" clip-path="url(#p8fe84f5e19)" style="fill: #ffffff; opacity: 0.7; stroke: #000000; stroke-linejoin: miter"/>
    </g>
    <g clip-path="url(#p8fe84f5e19)">
     <!-- Joe Pesci -->
     <g transform="translate(406.632076 461.335723)scale(0.09 -0.09)">
      <defs>
       <path id="DejaVuSans-50" d="M 1259 4147 
L 1259 2394 
L 2053 2394 
Q 2494 2394 2734 2622 
Q 2975 2850 2975 3272 
Q 2975 3691 2734 3919 
Q 2494 4147 2053 4147 
L 1259 4147 
z
M 628 4666 
L 2053 4666 
Q 2838 4666 3239 4311 
Q 3641 3956 3641 3272 
Q 3641 2581 3239 2228 
Q 2838 1875 2053 1875 
L 1259 1875 
L 1259 0 
L 628 0 
L 628 4666 
z
" transform="scale(0.015625)"/>
      </defs>
      <use xlink:href="#DejaVuSans-4a"/>
      <use xlink:href="#DejaVuSans-6f" x="29.492188"/>
      <use xlink:href="#DejaVuSans-65" x="90.673828"/>
      <use xlink:href="#DejaVuSans-20" x="152.197266"/>
      <use xlink:href="#DejaVuSans-50" x="183.984375"/>
      <use xlink:href="#DejaVuSans-65" x="240.662109"/>
      <use xlink:href="#DejaVuSans-73" x="302.185547"/>
      <use xlink:href="#DejaVuSans-63" x="354.285156"/>
      <use xlink:href="#DejaVuSans-69" x="409.265625"/>
     </g>
    </g>
   </g>
   <g id="text_15">
    <g id="patch_16">
     <path d="M 454.03917 395.039741 
L 503.945577 395.039741 
L 503.945577 378.409428 
L 454.03917 378.409428 
z
" clip-path="url(#p8fe84f5e19)" style="fill: #ffffff; opacity: 0.7; stroke: #000000; stroke-linejoin: miter"/>
    </g>
    <g clip-path="url(#p8fe84f5e19)">
     <!-- Téa Leoni -->
     <g transform="translate(457.99917 389.208022)scale(0.09 -0.09)">
      <defs>
       <path id="DejaVuSans-e9" d="M 3597 1894 
L 3597 1613 
L 953 1613 
Q 991 1019 1311 708 
Q 1631 397 2203 397 
Q 2534 397 2845 478 
Q 3156 559 3463 722 
L 3463 178 
Q 3153 47 2828 -22 
Q 2503 -91 2169 -91 
Q 1331 -91 842 396 
Q 353 884 353 1716 
Q 353 2575 817 3079 
Q 1281 3584 2069 3584 
Q 2775 3584 3186 3129 
Q 3597 2675 3597 1894 
z
M 3022 2063 
Q 3016 2534 2758 2815 
Q 2500 3097 2075 3097 
Q 1594 3097 1305 2825 
Q 1016 2553 972 2059 
L 3022 2063 
z
M 2469 5119 
L 3091 5119 
L 2072 3944 
L 1594 3944 
L 2469 5119 
z
" transform="scale(0.015625)"/>
      </defs>
      <use xlink:href="#DejaVuSans-54"/>
      <use xlink:href="#DejaVuSans-e9" x="44.083984"/>
      <use xlink:href="#DejaVuSans-61" x="105.607422"/>
      <use xlink:href="#DejaVuSans-20" x="166.886719"/>
      <use xlink:href="#DejaVuSans-4c" x="198.673828"/>
      <use xlink:href="#DejaVuSans-65" x="252.636719"/>
      <use xlink:href="#DejaVuSans-6f" x="314.160156"/>
      <use xlink:href="#DejaVuSans-6e" x="375.341797"/>
      <use xlink:href="#DejaVuSans-69" x="438.720703"/>
     </g>
    </g>
   </g>
   <g id="text_16">
    <!-- Impactful actors for Crime Fiction genre - Importance rank: 7 -->
    <g transform="translate(101.595 16.318125)scale(0.12 -0.12)">
     <defs>
      <path id="DejaVuSans-49" d="M 628 4666 
L 1259 4666 
L 1259 0 
L 628 0 
L 628 4666 
z
" transform="scale(0.015625)"/>
      <path id="DejaVuSans-43" d="M 4122 4306 
L 4122 3641 
Q 3803 3938 3442 4084 
Q 3081 4231 2675 4231 
Q 1875 4231 1450 3742 
Q 1025 3253 1025 2328 
Q 1025 1406 1450 917 
Q 1875 428 2675 428 
Q 3081 428 3442 575 
Q 3803 722 4122 1019 
L 4122 359 
Q 3791 134 3420 21 
Q 3050 -91 2638 -91 
Q 1578 -91 968 557 
Q 359 1206 359 2328 
Q 359 3453 968 4101 
Q 1578 4750 2638 4750 
Q 3056 4750 3426 4639 
Q 3797 4528 4122 4306 
z
" transform="scale(0.015625)"/>
      <path id="DejaVuSans-2d" d="M 313 2009 
L 1997 2009 
L 1997 1497 
L 313 1497 
L 313 2009 
z
" transform="scale(0.015625)"/>
      <path id="DejaVuSans-3a" d="M 750 794 
L 1409 794 
L 1409 0 
L 750 0 
L 750 794 
z
M 750 3309 
L 1409 3309 
L 1409 2516 
L 750 2516 
L 750 3309 
z
" transform="scale(0.015625)"/>
      <path id="DejaVuSans-37" d="M 525 4666 
L 3525 4666 
L 3525 4397 
L 1831 0 
L 1172 0 
L 2766 4134 
L 525 4134 
L 525 4666 
z
" transform="scale(0.015625)"/>
     </defs>
     <use xlink:href="#DejaVuSans-49"/>
     <use xlink:href="#DejaVuSans-6d" x="29.492188"/>
     <use xlink:href="#DejaVuSans-70" x="126.904297"/>
     <use xlink:href="#DejaVuSans-61" x="190.380859"/>
     <use xlink:href="#DejaVuSans-63" x="251.660156"/>
     <use xlink:href="#DejaVuSans-74" x="306.640625"/>
     <use xlink:href="#DejaVuSans-66" x="345.849609"/>
     <use xlink:href="#DejaVuSans-75" x="381.054688"/>
     <use xlink:href="#DejaVuSans-6c" x="444.433594"/>
     <use xlink:href="#DejaVuSans-20" x="472.216797"/>
     <use xlink:href="#DejaVuSans-61" x="504.003906"/>
     <use xlink:href="#DejaVuSans-63" x="565.283203"/>
     <use xlink:href="#DejaVuSans-74" x="620.263672"/>
     <use xlink:href="#DejaVuSans-6f" x="659.472656"/>
     <use xlink:href="#DejaVuSans-72" x="720.654297"/>
     <use xlink:href="#DejaVuSans-73" x="761.767578"/>
     <use xlink:href="#DejaVuSans-20" x="813.867188"/>
     <use xlink:href="#DejaVuSans-66" x="845.654297"/>
     <use xlink:href="#DejaVuSans-6f" x="880.859375"/>
     <use xlink:href="#DejaVuSans-72" x="942.041016"/>
     <use xlink:href="#DejaVuSans-20" x="983.154297"/>
     <use xlink:href="#DejaVuSans-43" x="1014.941406"/>
     <use xlink:href="#DejaVuSans-72" x="1084.765625"/>
     <use xlink:href="#DejaVuSans-69" x="1125.878906"/>
     <use xlink:href="#DejaVuSans-6d" x="1153.662109"/>
     <use xlink:href="#DejaVuSans-65" x="1251.074219"/>
     <use xlink:href="#DejaVuSans-20" x="1312.597656"/>
     <use xlink:href="#DejaVuSans-46" x="1344.384766"/>
     <use xlink:href="#DejaVuSans-69" x="1394.654297"/>
     <use xlink:href="#DejaVuSans-63" x="1422.4375"/>
     <use xlink:href="#DejaVuSans-74" x="1477.417969"/>
     <use xlink:href="#DejaVuSans-69" x="1516.626953"/>
     <use xlink:href="#DejaVuSans-6f" x="1544.410156"/>
     <use xlink:href="#DejaVuSans-6e" x="1605.591797"/>
     <use xlink:href="#DejaVuSans-20" x="1668.970703"/>
     <use xlink:href="#DejaVuSans-67" x="1700.757812"/>
     <use xlink:href="#DejaVuSans-65" x="1764.234375"/>
     <use xlink:href="#DejaVuSans-6e" x="1825.757812"/>
     <use xlink:href="#DejaVuSans-72" x="1889.136719"/>
     <use xlink:href="#DejaVuSans-65" x="1928"/>
     <use xlink:href="#DejaVuSans-20" x="1989.523438"/>
     <use xlink:href="#DejaVuSans-2d" x="2021.310547"/>
     <use xlink:href="#DejaVuSans-20" x="2057.394531"/>
     <use xlink:href="#DejaVuSans-49" x="2089.181641"/>
     <use xlink:href="#DejaVuSans-6d" x="2118.673828"/>
     <use xlink:href="#DejaVuSans-70" x="2216.085938"/>
     <use xlink:href="#DejaVuSans-6f" x="2279.5625"/>
     <use xlink:href="#DejaVuSans-72" x="2340.744141"/>
     <use xlink:href="#DejaVuSans-74" x="2381.857422"/>
     <use xlink:href="#DejaVuSans-61" x="2421.066406"/>
     <use xlink:href="#DejaVuSans-6e" x="2482.345703"/>
     <use xlink:href="#DejaVuSans-63" x="2545.724609"/>
     <use xlink:href="#DejaVuSans-65" x="2600.705078"/>
     <use xlink:href="#DejaVuSans-20" x="2662.228516"/>
     <use xlink:href="#DejaVuSans-72" x="2694.015625"/>
     <use xlink:href="#DejaVuSans-61" x="2735.128906"/>
     <use xlink:href="#DejaVuSans-6e" x="2796.408203"/>
     <use xlink:href="#DejaVuSans-6b" x="2859.787109"/>
     <use xlink:href="#DejaVuSans-3a" x="2917.697266"/>
     <use xlink:href="#DejaVuSans-20" x="2951.388672"/>
     <use xlink:href="#DejaVuSans-37" x="2983.175781"/>
    </g>
   </g>
  </g>
 </g>
 <defs>
  <clipPath id="p8fe84f5e19">
   <rect x="7.2" y="22.318125" width="554.4" height="554.4"/>
  </clipPath>
 </defs>
</svg>
