<?xml version="1.0" encoding="utf-8" standalone="no"?>
<!DOCTYPE svg PUBLIC "-//W3C//DTD SVG 1.1//EN"
  "http://www.w3.org/Graphics/SVG/1.1/DTD/svg11.dtd">
<svg xmlns:xlink="http://www.w3.org/1999/xlink" width="568.8pt" height="583.918125pt" viewBox="0 0 568.8 583.918125" xmlns="http://www.w3.org/2000/svg" version="1.1">
 <metadata>
  <rdf:RDF xmlns:dc="http://purl.org/dc/elements/1.1/" xmlns:cc="http://creativecommons.org/ns#" xmlns:rdf="http://www.w3.org/1999/02/22-rdf-syntax-ns#">
   <cc:Work>
    <dc:type rdf:resource="http://purl.org/dc/dcmitype/StillImage"/>
    <dc:date>2022-12-23T20:57:01.282634</dc:date>
    <dc:format>image/svg+xml</dc:format>
    <dc:creator>
     <cc:Agent>
      <dc:title>Matplotlib v3.5.3, https://matplotlib.org/</dc:title>
     </cc:Agent>
    </dc:creator>
   </cc:Work>
  </rdf:RDF>
 </metadata>
 <defs>
  <style type="text/css">*{stroke-linejoin: round; stroke-linecap: butt}</style>
 </defs>
 <g id="figure_1">
  <g id="patch_1">
   <path d="M 0 583.918125 
L 568.8 583.918125 
L 568.8 0 
L 0 0 
z
" style="fill: #ffffff"/>
  </g>
  <g id="axes_1">
   <g id="LineCollection_1">
    <path d="M 429.151127 142.877114 
L 354.618858 98.62199 
" clip-path="url(#p80e70bf50b)" style="fill: none; stroke: #000000; stroke-opacity: 0.3; stroke-width: 5"/>
    <path d="M 429.151127 142.877114 
L 88.215988 345.314671 
" clip-path="url(#p80e70bf50b)" style="fill: none; stroke: #000000; stroke-opacity: 0.3; stroke-width: 5"/>
    <path d="M 354.618858 98.62199 
L 88.215988 345.314671 
" clip-path="url(#p80e70bf50b)" style="fill: none; stroke: #000000; stroke-opacity: 0.3; stroke-width: 5"/>
   </g>
   <g id="PathCollection_1">
    <path d="M 497.630769 328.44565 
C 504.893655 328.44565 511.86005 325.560074 516.995686 320.424439 
C 522.131322 315.288803 525.016897 308.322408 525.016897 301.059522 
C 525.016897 293.796636 522.131322 286.830241 516.995686 281.694605 
C 511.86005 276.558969 504.893655 273.673394 497.630769 273.673394 
C 490.367883 273.673394 483.401488 276.558969 478.265852 281.694605 
C 473.130217 286.830241 470.244641 293.796636 470.244641 301.059522 
C 470.244641 308.322408 473.130217 315.288803 478.265852 320.424439 
C 483.401488 325.560074 490.367883 328.44565 497.630769 328.44565 
z
" clip-path="url(#p80e70bf50b)" style="fill: #c70039; fill-opacity: 0.99; stroke: #c70039; stroke-opacity: 0.99"/>
    <path d="M 479.737373 241.693915 
C 486.953679 241.693915 493.875395 238.826846 498.978094 233.724147 
C 504.080793 228.621448 506.947861 221.699732 506.947861 214.483426 
C 506.947861 207.26712 504.080793 200.345404 498.978094 195.242705 
C 493.875395 190.140006 486.953679 187.272937 479.737373 187.272937 
C 472.521067 187.272937 465.59935 190.140006 460.496651 195.242705 
C 455.393952 200.345404 452.526884 207.26712 452.526884 214.483426 
C 452.526884 221.699732 455.393952 228.621448 460.496651 233.724147 
C 465.59935 238.826846 472.521067 241.693915 479.737373 241.693915 
z
" clip-path="url(#p80e70bf50b)" style="fill: #c70039; fill-opacity: 0.99; stroke: #c70039; stroke-opacity: 0.99"/>
    <path d="M 429.151127 170.045451 
C 436.356254 170.045451 443.267248 167.182823 448.362042 162.088029 
C 453.456836 156.993235 456.319463 150.082241 456.319463 142.877114 
C 456.319463 135.671987 453.456836 128.760993 448.362042 123.666199 
C 443.267248 118.571405 436.356254 115.708778 429.151127 115.708778 
C 421.946 115.708778 415.035006 118.571405 409.940212 123.666199 
C 404.845418 128.760993 401.98279 135.671987 401.98279 142.877114 
C 401.98279 150.082241 404.845418 156.993235 409.940212 162.088029 
C 415.035006 167.182823 421.946 170.045451 429.151127 170.045451 
z
" clip-path="url(#p80e70bf50b)" style="fill: #c70039; fill-opacity: 0.99; stroke: #c70039; stroke-opacity: 0.99"/>
    <path d="M 354.618858 123.644955 
C 361.255025 123.644955 367.620287 121.008378 372.312766 116.315898 
C 377.005245 111.623419 379.641823 105.258158 379.641823 98.62199 
C 379.641823 91.985822 377.005245 85.620561 372.312766 80.928081 
C 367.620287 76.235602 361.255025 73.599025 354.618858 73.599025 
C 347.98269 73.599025 341.617428 76.235602 336.924949 80.928081 
C 332.23247 85.620561 329.595892 91.985822 329.595892 98.62199 
C 329.595892 105.258158 332.23247 111.623419 336.924949 116.315898 
C 341.617428 121.008378 347.98269 123.644955 354.618858 123.644955 
z
" clip-path="url(#p80e70bf50b)" style="fill: #c70039; fill-opacity: 0.99; stroke: #c70039; stroke-opacity: 0.99"/>
    <path d="M 269.027855 113.732508 
C 275.488828 113.732508 281.686046 111.165536 286.254644 106.596939 
C 290.823242 102.028341 293.390214 95.831122 293.390214 89.370149 
C 293.390214 82.909176 290.823242 76.711958 286.254644 72.14336 
C 281.686046 67.574762 275.488828 65.00779 269.027855 65.00779 
C 262.566882 65.00779 256.369664 67.574762 251.801066 72.14336 
C 247.232468 76.711958 244.665496 82.909176 244.665496 89.370149 
C 244.665496 95.831122 247.232468 102.028341 251.801066 106.596939 
C 256.369664 111.165536 262.566882 113.732508 269.027855 113.732508 
z
" clip-path="url(#p80e70bf50b)" style="fill: #c70039; fill-opacity: 0.99; stroke: #c70039; stroke-opacity: 0.99"/>
    <path d="M 187.177592 140.082747 
C 193.373112 140.082747 199.315714 137.621241 203.696608 133.240347 
C 208.077502 128.859453 210.539009 122.916851 210.539009 116.721331 
C 210.539009 110.525811 208.077502 104.583209 203.696608 100.202315 
C 199.315714 95.82142 193.373112 93.359914 187.177592 93.359914 
C 180.982072 93.359914 175.03947 95.82142 170.658576 100.202315 
C 166.277682 104.583209 163.816176 110.525811 163.816176 116.721331 
C 163.816176 122.916851 166.277682 128.859453 170.658576 133.240347 
C 175.03947 137.621241 180.982072 140.082747 187.177592 140.082747 
z
" clip-path="url(#p80e70bf50b)" style="fill: #c70039; fill-opacity: 0.99; stroke: #c70039; stroke-opacity: 0.99"/>
    <path d="M 123.220734 198.612565 
C 129.23191 198.612565 134.997694 196.224299 139.248238 191.973755 
C 143.498781 187.723212 145.887047 181.957428 145.887047 175.946251 
C 145.887047 169.935075 143.498781 164.169291 139.248238 159.918747 
C 134.997694 155.668204 129.23191 153.279938 123.220734 153.279938 
C 117.209557 153.279938 111.443773 155.668204 107.19323 159.918747 
C 102.942686 164.169291 100.55442 169.935075 100.55442 175.946251 
C 100.55442 181.957428 102.942686 187.723212 107.19323 191.973755 
C 111.443773 196.224299 117.209557 198.612565 123.220734 198.612565 
z
" clip-path="url(#p80e70bf50b)" style="fill: #c70039; fill-opacity: 0.99; stroke: #c70039; stroke-opacity: 0.99"/>
    <path d="M 88.215975 278.968012 
C 94.093831 278.968012 99.731737 276.632716 103.888009 272.476444 
C 108.044281 268.320172 110.379578 262.682266 110.379578 256.80441 
C 110.379578 250.926554 108.044281 245.288649 103.888009 241.132377 
C 99.731737 236.976105 94.093831 234.640808 88.215975 234.640808 
C 82.338119 234.640808 76.700214 236.976105 72.543942 241.132377 
C 68.38767 245.288649 66.052373 250.926554 66.052373 256.80441 
C 66.052373 262.682266 68.38767 268.320172 72.543942 272.476444 
C 76.700214 276.632716 82.338119 278.968012 88.215975 278.968012 
z
" clip-path="url(#p80e70bf50b)" style="fill: #c70039; fill-opacity: 0.99; stroke: #c70039; stroke-opacity: 0.99"/>
    <path d="M 88.215988 367.422788 
C 94.079129 367.422788 99.70292 365.093338 103.848787 360.947471 
C 107.994654 356.801604 110.324105 351.177813 110.324105 345.314671 
C 110.324105 339.45153 107.994654 333.827739 103.848787 329.681872 
C 99.70292 325.536005 94.079129 323.206555 88.215988 323.206555 
C 82.352847 323.206555 76.729055 325.536005 72.583188 329.681872 
C 68.437322 333.827739 66.107871 339.45153 66.107871 345.314671 
C 66.107871 351.177813 68.437322 356.801604 72.583188 360.947471 
C 76.729055 365.093338 82.352847 367.422788 88.215988 367.422788 
z
" clip-path="url(#p80e70bf50b)" style="fill: #c70039; fill-opacity: 0.99; stroke: #c70039; stroke-opacity: 0.99"/>
    <path d="M 123.220746 447.580598 
C 128.898159 447.580598 134.343804 445.324938 138.358342 441.310401 
C 142.372879 437.295864 144.628539 431.850218 144.628539 426.172805 
C 144.628539 420.495392 142.372879 415.049746 138.358342 411.035209 
C 134.343804 407.020672 128.898159 404.765011 123.220746 404.765011 
C 117.543333 404.765011 112.097687 407.020672 108.08315 411.035209 
C 104.068613 415.049746 101.812952 420.495392 101.812952 426.172805 
C 101.812952 431.850218 104.068613 437.295864 108.08315 441.310401 
C 112.097687 445.324938 117.543333 447.580598 123.220746 447.580598 
z
" clip-path="url(#p80e70bf50b)" style="fill: #c70039; fill-opacity: 0.99; stroke: #c70039; stroke-opacity: 0.99"/>
    <path d="M 187.177623 506.014662 
C 192.645298 506.014662 197.889768 503.842331 201.755998 499.976101 
C 205.622229 496.109871 207.794559 490.865401 207.794559 485.397726 
C 207.794559 479.93005 205.622229 474.68558 201.755998 470.81935 
C 197.889768 466.95312 192.645298 464.780789 187.177623 464.780789 
C 181.709948 464.780789 176.465478 466.95312 172.599248 470.81935 
C 168.733017 474.68558 166.560687 479.93005 166.560687 485.397726 
C 166.560687 490.865401 168.733017 496.109871 172.599248 499.976101 
C 176.465478 503.842331 181.709948 506.014662 187.177623 506.014662 
z
" clip-path="url(#p80e70bf50b)" style="fill: #c70039; fill-opacity: 0.99; stroke: #c70039; stroke-opacity: 0.99"/>
    <path d="M 269.027892 533.174916 
C 274.444936 533.174916 279.640842 531.022702 283.471271 527.192273 
C 287.3017 523.361844 289.453914 518.165939 289.453914 512.748894 
C 289.453914 507.33185 287.3017 502.135944 283.471271 498.305516 
C 279.640842 494.475087 274.444936 492.322872 269.027892 492.322872 
C 263.610848 492.322872 258.414942 494.475087 254.584513 498.305516 
C 250.754085 502.135944 248.60187 507.33185 248.60187 512.748894 
C 248.60187 518.165939 250.754085 523.361844 254.584513 527.192273 
C 258.414942 531.022702 263.610848 533.174916 269.027892 533.174916 
z
" clip-path="url(#p80e70bf50b)" style="fill: #c70039; fill-opacity: 0.99; stroke: #c70039; stroke-opacity: 0.99"/>
    <path d="M 354.618888 523.662458 
C 359.966819 523.662458 365.096433 521.537702 368.877991 517.756144 
C 372.659549 513.974586 374.784305 508.844972 374.784305 503.497041 
C 374.784305 498.14911 372.659549 493.019497 368.877991 489.237938 
C 365.096433 485.45638 359.966819 483.331625 354.618888 483.331625 
C 349.270957 483.331625 344.141344 485.45638 340.359786 489.237938 
C 336.578227 493.019497 334.453472 498.14911 334.453472 503.497041 
C 334.453472 508.844972 336.578227 513.974586 340.359786 517.756144 
C 344.141344 521.537702 349.270957 523.662458 354.618888 523.662458 
z
" clip-path="url(#p80e70bf50b)" style="fill: #c70039; fill-opacity: 0.99; stroke: #c70039; stroke-opacity: 0.99"/>
    <path d="M 429.151164 478.700992 
C 434.311778 478.700992 439.261721 476.650658 442.910825 473.001553 
C 446.55993 469.352448 448.610264 464.402505 448.610264 459.241891 
C 448.610264 454.081278 446.55993 449.131335 442.910825 445.48223 
C 439.261721 441.833125 434.311778 439.782791 429.151164 439.782791 
C 423.99055 439.782791 419.040607 441.833125 415.391502 445.48223 
C 411.742397 449.131335 409.692064 454.081278 409.692064 459.241891 
C 409.692064 464.402505 411.742397 469.352448 415.391502 473.001553 
C 419.040607 476.650658 423.99055 478.700992 429.151164 478.700992 
z
" clip-path="url(#p80e70bf50b)" style="fill: #c70039; fill-opacity: 0.99; stroke: #c70039; stroke-opacity: 0.99"/>
    <path d="M 479.737397 407.000502 
C 484.873033 407.000502 489.799018 404.960093 493.430461 401.32865 
C 497.061904 397.697207 499.102314 392.771222 499.102314 387.635586 
C 499.102314 382.49995 497.061904 377.573965 493.430461 373.942522 
C 489.799018 370.311079 484.873033 368.270669 479.737397 368.270669 
C 474.601761 368.270669 469.675776 370.311079 466.044333 373.942522 
C 462.41289 377.573965 460.372481 382.49995 460.372481 387.635586 
C 460.372481 392.771222 462.41289 397.697207 466.044333 401.32865 
C 469.675776 404.960093 474.601761 407.000502 479.737397 407.000502 
z
" clip-path="url(#p80e70bf50b)" style="fill: #c70039; fill-opacity: 0.99; stroke: #c70039; stroke-opacity: 0.99"/>
   </g>
   <g id="text_1">
    <g id="patch_2">
     <path d="M 464.647879 309.374678 
L 530.61366 309.374678 
L 530.61366 292.744366 
L 464.647879 292.744366 
z
" clip-path="url(#p80e70bf50b)" style="fill: #ffffff; opacity: 0.7; stroke: #000000; stroke-linejoin: miter"/>
    </g>
    <g clip-path="url(#p80e70bf50b)">
     <!-- Frank Welker -->
     <g transform="translate(468.607879 303.542959)scale(0.09 -0.09)">
      <defs>
       <path id="DejaVuSans-46" d="M 628 4666 
L 3309 4666 
L 3309 4134 
L 1259 4134 
L 1259 2759 
L 3109 2759 
L 3109 2228 
L 1259 2228 
L 1259 0 
L 628 0 
L 628 4666 
z
" transform="scale(0.015625)"/>
       <path id="DejaVuSans-72" d="M 2631 2963 
Q 2534 3019 2420 3045 
Q 2306 3072 2169 3072 
Q 1681 3072 1420 2755 
Q 1159 2438 1159 1844 
L 1159 0 
L 581 0 
L 581 3500 
L 1159 3500 
L 1159 2956 
Q 1341 3275 1631 3429 
Q 1922 3584 2338 3584 
Q 2397 3584 2469 3576 
Q 2541 3569 2628 3553 
L 2631 2963 
z
" transform="scale(0.015625)"/>
       <path id="DejaVuSans-61" d="M 2194 1759 
Q 1497 1759 1228 1600 
Q 959 1441 959 1056 
Q 959 750 1161 570 
Q 1363 391 1709 391 
Q 2188 391 2477 730 
Q 2766 1069 2766 1631 
L 2766 1759 
L 2194 1759 
z
M 3341 1997 
L 3341 0 
L 2766 0 
L 2766 531 
Q 2569 213 2275 61 
Q 1981 -91 1556 -91 
Q 1019 -91 701 211 
Q 384 513 384 1019 
Q 384 1609 779 1909 
Q 1175 2209 1959 2209 
L 2766 2209 
L 2766 2266 
Q 2766 2663 2505 2880 
Q 2244 3097 1772 3097 
Q 1472 3097 1187 3025 
Q 903 2953 641 2809 
L 641 3341 
Q 956 3463 1253 3523 
Q 1550 3584 1831 3584 
Q 2591 3584 2966 3190 
Q 3341 2797 3341 1997 
z
" transform="scale(0.015625)"/>
       <path id="DejaVuSans-6e" d="M 3513 2113 
L 3513 0 
L 2938 0 
L 2938 2094 
Q 2938 2591 2744 2837 
Q 2550 3084 2163 3084 
Q 1697 3084 1428 2787 
Q 1159 2491 1159 1978 
L 1159 0 
L 581 0 
L 581 3500 
L 1159 3500 
L 1159 2956 
Q 1366 3272 1645 3428 
Q 1925 3584 2291 3584 
Q 2894 3584 3203 3211 
Q 3513 2838 3513 2113 
z
" transform="scale(0.015625)"/>
       <path id="DejaVuSans-6b" d="M 581 4863 
L 1159 4863 
L 1159 1991 
L 2875 3500 
L 3609 3500 
L 1753 1863 
L 3688 0 
L 2938 0 
L 1159 1709 
L 1159 0 
L 581 0 
L 581 4863 
z
" transform="scale(0.015625)"/>
       <path id="DejaVuSans-20" transform="scale(0.015625)"/>
       <path id="DejaVuSans-57" d="M 213 4666 
L 850 4666 
L 1831 722 
L 2809 4666 
L 3519 4666 
L 4500 722 
L 5478 4666 
L 6119 4666 
L 4947 0 
L 4153 0 
L 3169 4050 
L 2175 0 
L 1381 0 
L 213 4666 
z
" transform="scale(0.015625)"/>
       <path id="DejaVuSans-65" d="M 3597 1894 
L 3597 1613 
L 953 1613 
Q 991 1019 1311 708 
Q 1631 397 2203 397 
Q 2534 397 2845 478 
Q 3156 559 3463 722 
L 3463 178 
Q 3153 47 2828 -22 
Q 2503 -91 2169 -91 
Q 1331 -91 842 396 
Q 353 884 353 1716 
Q 353 2575 817 3079 
Q 1281 3584 2069 3584 
Q 2775 3584 3186 3129 
Q 3597 2675 3597 1894 
z
M 3022 2063 
Q 3016 2534 2758 2815 
Q 2500 3097 2075 3097 
Q 1594 3097 1305 2825 
Q 1016 2553 972 2059 
L 3022 2063 
z
" transform="scale(0.015625)"/>
       <path id="DejaVuSans-6c" d="M 603 4863 
L 1178 4863 
L 1178 0 
L 603 0 
L 603 4863 
z
" transform="scale(0.015625)"/>
      </defs>
      <use xlink:href="#DejaVuSans-46"/>
      <use xlink:href="#DejaVuSans-72" x="50.269531"/>
      <use xlink:href="#DejaVuSans-61" x="91.382812"/>
      <use xlink:href="#DejaVuSans-6e" x="152.662109"/>
      <use xlink:href="#DejaVuSans-6b" x="216.041016"/>
      <use xlink:href="#DejaVuSans-20" x="273.951172"/>
      <use xlink:href="#DejaVuSans-57" x="305.738281"/>
      <use xlink:href="#DejaVuSans-65" x="398.740234"/>
      <use xlink:href="#DejaVuSans-6c" x="460.263672"/>
      <use xlink:href="#DejaVuSans-6b" x="488.046875"/>
      <use xlink:href="#DejaVuSans-65" x="542.332031"/>
      <use xlink:href="#DejaVuSans-72" x="603.855469"/>
     </g>
    </g>
   </g>
   <g id="text_2">
    <g id="patch_3">
     <path d="M 443.996123 222.798582 
L 515.478623 222.798582 
L 515.478623 206.16827 
L 443.996123 206.16827 
z
" clip-path="url(#p80e70bf50b)" style="fill: #ffffff; opacity: 0.7; stroke: #000000; stroke-linejoin: miter"/>
    </g>
    <g clip-path="url(#p80e70bf50b)">
     <!-- Joe Pantoliano -->
     <g transform="translate(447.956123 216.966864)scale(0.09 -0.09)">
      <defs>
       <path id="DejaVuSans-4a" d="M 628 4666 
L 1259 4666 
L 1259 325 
Q 1259 -519 939 -900 
Q 619 -1281 -91 -1281 
L -331 -1281 
L -331 -750 
L -134 -750 
Q 284 -750 456 -515 
Q 628 -281 628 325 
L 628 4666 
z
" transform="scale(0.015625)"/>
       <path id="DejaVuSans-6f" d="M 1959 3097 
Q 1497 3097 1228 2736 
Q 959 2375 959 1747 
Q 959 1119 1226 758 
Q 1494 397 1959 397 
Q 2419 397 2687 759 
Q 2956 1122 2956 1747 
Q 2956 2369 2687 2733 
Q 2419 3097 1959 3097 
z
M 1959 3584 
Q 2709 3584 3137 3096 
Q 3566 2609 3566 1747 
Q 3566 888 3137 398 
Q 2709 -91 1959 -91 
Q 1206 -91 779 398 
Q 353 888 353 1747 
Q 353 2609 779 3096 
Q 1206 3584 1959 3584 
z
" transform="scale(0.015625)"/>
       <path id="DejaVuSans-50" d="M 1259 4147 
L 1259 2394 
L 2053 2394 
Q 2494 2394 2734 2622 
Q 2975 2850 2975 3272 
Q 2975 3691 2734 3919 
Q 2494 4147 2053 4147 
L 1259 4147 
z
M 628 4666 
L 2053 4666 
Q 2838 4666 3239 4311 
Q 3641 3956 3641 3272 
Q 3641 2581 3239 2228 
Q 2838 1875 2053 1875 
L 1259 1875 
L 1259 0 
L 628 0 
L 628 4666 
z
" transform="scale(0.015625)"/>
       <path id="DejaVuSans-74" d="M 1172 4494 
L 1172 3500 
L 2356 3500 
L 2356 3053 
L 1172 3053 
L 1172 1153 
Q 1172 725 1289 603 
Q 1406 481 1766 481 
L 2356 481 
L 2356 0 
L 1766 0 
Q 1100 0 847 248 
Q 594 497 594 1153 
L 594 3053 
L 172 3053 
L 172 3500 
L 594 3500 
L 594 4494 
L 1172 4494 
z
" transform="scale(0.015625)"/>
       <path id="DejaVuSans-69" d="M 603 3500 
L 1178 3500 
L 1178 0 
L 603 0 
L 603 3500 
z
M 603 4863 
L 1178 4863 
L 1178 4134 
L 603 4134 
L 603 4863 
z
" transform="scale(0.015625)"/>
      </defs>
      <use xlink:href="#DejaVuSans-4a"/>
      <use xlink:href="#DejaVuSans-6f" x="29.492188"/>
      <use xlink:href="#DejaVuSans-65" x="90.673828"/>
      <use xlink:href="#DejaVuSans-20" x="152.197266"/>
      <use xlink:href="#DejaVuSans-50" x="183.984375"/>
      <use xlink:href="#DejaVuSans-61" x="239.787109"/>
      <use xlink:href="#DejaVuSans-6e" x="301.066406"/>
      <use xlink:href="#DejaVuSans-74" x="364.445312"/>
      <use xlink:href="#DejaVuSans-6f" x="403.654297"/>
      <use xlink:href="#DejaVuSans-6c" x="464.835938"/>
      <use xlink:href="#DejaVuSans-69" x="492.619141"/>
      <use xlink:href="#DejaVuSans-61" x="520.402344"/>
      <use xlink:href="#DejaVuSans-6e" x="581.681641"/>
      <use xlink:href="#DejaVuSans-6f" x="645.060547"/>
     </g>
    </g>
   </g>
   <g id="text_3">
    <g id="patch_4">
     <path d="M 400.741361 151.19227 
L 457.560892 151.19227 
L 457.560892 134.561958 
L 400.741361 134.561958 
z
" clip-path="url(#p80e70bf50b)" style="fill: #ffffff; opacity: 0.7; stroke: #000000; stroke-linejoin: miter"/>
    </g>
    <g clip-path="url(#p80e70bf50b)">
     <!-- Burt Young -->
     <g transform="translate(404.701361 145.360552)scale(0.09 -0.09)">
      <defs>
       <path id="DejaVuSans-42" d="M 1259 2228 
L 1259 519 
L 2272 519 
Q 2781 519 3026 730 
Q 3272 941 3272 1375 
Q 3272 1813 3026 2020 
Q 2781 2228 2272 2228 
L 1259 2228 
z
M 1259 4147 
L 1259 2741 
L 2194 2741 
Q 2656 2741 2882 2914 
Q 3109 3088 3109 3444 
Q 3109 3797 2882 3972 
Q 2656 4147 2194 4147 
L 1259 4147 
z
M 628 4666 
L 2241 4666 
Q 2963 4666 3353 4366 
Q 3744 4066 3744 3513 
Q 3744 3084 3544 2831 
Q 3344 2578 2956 2516 
Q 3422 2416 3680 2098 
Q 3938 1781 3938 1306 
Q 3938 681 3513 340 
Q 3088 0 2303 0 
L 628 0 
L 628 4666 
z
" transform="scale(0.015625)"/>
       <path id="DejaVuSans-75" d="M 544 1381 
L 544 3500 
L 1119 3500 
L 1119 1403 
Q 1119 906 1312 657 
Q 1506 409 1894 409 
Q 2359 409 2629 706 
Q 2900 1003 2900 1516 
L 2900 3500 
L 3475 3500 
L 3475 0 
L 2900 0 
L 2900 538 
Q 2691 219 2414 64 
Q 2138 -91 1772 -91 
Q 1169 -91 856 284 
Q 544 659 544 1381 
z
M 1991 3584 
L 1991 3584 
z
" transform="scale(0.015625)"/>
       <path id="DejaVuSans-59" d="M -13 4666 
L 666 4666 
L 1959 2747 
L 3244 4666 
L 3922 4666 
L 2272 2222 
L 2272 0 
L 1638 0 
L 1638 2222 
L -13 4666 
z
" transform="scale(0.015625)"/>
       <path id="DejaVuSans-67" d="M 2906 1791 
Q 2906 2416 2648 2759 
Q 2391 3103 1925 3103 
Q 1463 3103 1205 2759 
Q 947 2416 947 1791 
Q 947 1169 1205 825 
Q 1463 481 1925 481 
Q 2391 481 2648 825 
Q 2906 1169 2906 1791 
z
M 3481 434 
Q 3481 -459 3084 -895 
Q 2688 -1331 1869 -1331 
Q 1566 -1331 1297 -1286 
Q 1028 -1241 775 -1147 
L 775 -588 
Q 1028 -725 1275 -790 
Q 1522 -856 1778 -856 
Q 2344 -856 2625 -561 
Q 2906 -266 2906 331 
L 2906 616 
Q 2728 306 2450 153 
Q 2172 0 1784 0 
Q 1141 0 747 490 
Q 353 981 353 1791 
Q 353 2603 747 3093 
Q 1141 3584 1784 3584 
Q 2172 3584 2450 3431 
Q 2728 3278 2906 2969 
L 2906 3500 
L 3481 3500 
L 3481 434 
z
" transform="scale(0.015625)"/>
      </defs>
      <use xlink:href="#DejaVuSans-42"/>
      <use xlink:href="#DejaVuSans-75" x="68.603516"/>
      <use xlink:href="#DejaVuSans-72" x="131.982422"/>
      <use xlink:href="#DejaVuSans-74" x="173.095703"/>
      <use xlink:href="#DejaVuSans-20" x="212.304688"/>
      <use xlink:href="#DejaVuSans-59" x="244.091797"/>
      <use xlink:href="#DejaVuSans-6f" x="291.925781"/>
      <use xlink:href="#DejaVuSans-75" x="353.107422"/>
      <use xlink:href="#DejaVuSans-6e" x="416.486328"/>
      <use xlink:href="#DejaVuSans-67" x="479.865234"/>
     </g>
    </g>
   </g>
   <g id="text_4">
    <g id="patch_5">
     <path d="M 327.730654 106.937146 
L 381.507061 106.937146 
L 381.507061 90.306834 
L 327.730654 90.306834 
z
" clip-path="url(#p80e70bf50b)" style="fill: #ffffff; opacity: 0.7; stroke: #000000; stroke-linejoin: miter"/>
    </g>
    <g clip-path="url(#p80e70bf50b)">
     <!-- Talia Shire -->
     <g transform="translate(331.690654 101.105427)scale(0.09 -0.09)">
      <defs>
       <path id="DejaVuSans-54" d="M -19 4666 
L 3928 4666 
L 3928 4134 
L 2272 4134 
L 2272 0 
L 1638 0 
L 1638 4134 
L -19 4134 
L -19 4666 
z
" transform="scale(0.015625)"/>
       <path id="DejaVuSans-53" d="M 3425 4513 
L 3425 3897 
Q 3066 4069 2747 4153 
Q 2428 4238 2131 4238 
Q 1616 4238 1336 4038 
Q 1056 3838 1056 3469 
Q 1056 3159 1242 3001 
Q 1428 2844 1947 2747 
L 2328 2669 
Q 3034 2534 3370 2195 
Q 3706 1856 3706 1288 
Q 3706 609 3251 259 
Q 2797 -91 1919 -91 
Q 1588 -91 1214 -16 
Q 841 59 441 206 
L 441 856 
Q 825 641 1194 531 
Q 1563 422 1919 422 
Q 2459 422 2753 634 
Q 3047 847 3047 1241 
Q 3047 1584 2836 1778 
Q 2625 1972 2144 2069 
L 1759 2144 
Q 1053 2284 737 2584 
Q 422 2884 422 3419 
Q 422 4038 858 4394 
Q 1294 4750 2059 4750 
Q 2388 4750 2728 4690 
Q 3069 4631 3425 4513 
z
" transform="scale(0.015625)"/>
       <path id="DejaVuSans-68" d="M 3513 2113 
L 3513 0 
L 2938 0 
L 2938 2094 
Q 2938 2591 2744 2837 
Q 2550 3084 2163 3084 
Q 1697 3084 1428 2787 
Q 1159 2491 1159 1978 
L 1159 0 
L 581 0 
L 581 4863 
L 1159 4863 
L 1159 2956 
Q 1366 3272 1645 3428 
Q 1925 3584 2291 3584 
Q 2894 3584 3203 3211 
Q 3513 2838 3513 2113 
z
" transform="scale(0.015625)"/>
      </defs>
      <use xlink:href="#DejaVuSans-54"/>
      <use xlink:href="#DejaVuSans-61" x="44.583984"/>
      <use xlink:href="#DejaVuSans-6c" x="105.863281"/>
      <use xlink:href="#DejaVuSans-69" x="133.646484"/>
      <use xlink:href="#DejaVuSans-61" x="161.429688"/>
      <use xlink:href="#DejaVuSans-20" x="222.708984"/>
      <use xlink:href="#DejaVuSans-53" x="254.496094"/>
      <use xlink:href="#DejaVuSans-68" x="317.972656"/>
      <use xlink:href="#DejaVuSans-69" x="381.351562"/>
      <use xlink:href="#DejaVuSans-72" x="409.134766"/>
      <use xlink:href="#DejaVuSans-65" x="447.998047"/>
     </g>
    </g>
   </g>
   <g id="text_5">
    <g id="patch_6">
     <path d="M 240.029574 97.685306 
L 298.026136 97.685306 
L 298.026136 81.054993 
L 240.029574 81.054993 
z
" clip-path="url(#p80e70bf50b)" style="fill: #ffffff; opacity: 0.7; stroke: #000000; stroke-linejoin: miter"/>
    </g>
    <g clip-path="url(#p80e70bf50b)">
     <!-- Maria Bello -->
     <g transform="translate(243.989574 91.853587)scale(0.09 -0.09)">
      <defs>
       <path id="DejaVuSans-4d" d="M 628 4666 
L 1569 4666 
L 2759 1491 
L 3956 4666 
L 4897 4666 
L 4897 0 
L 4281 0 
L 4281 4097 
L 3078 897 
L 2444 897 
L 1241 4097 
L 1241 0 
L 628 0 
L 628 4666 
z
" transform="scale(0.015625)"/>
      </defs>
      <use xlink:href="#DejaVuSans-4d"/>
      <use xlink:href="#DejaVuSans-61" x="86.279297"/>
      <use xlink:href="#DejaVuSans-72" x="147.558594"/>
      <use xlink:href="#DejaVuSans-69" x="188.671875"/>
      <use xlink:href="#DejaVuSans-61" x="216.455078"/>
      <use xlink:href="#DejaVuSans-20" x="277.734375"/>
      <use xlink:href="#DejaVuSans-42" x="309.521484"/>
      <use xlink:href="#DejaVuSans-65" x="378.125"/>
      <use xlink:href="#DejaVuSans-6c" x="439.648438"/>
      <use xlink:href="#DejaVuSans-6c" x="467.431641"/>
      <use xlink:href="#DejaVuSans-6f" x="495.214844"/>
     </g>
    </g>
   </g>
   <g id="text_6">
    <g id="patch_7">
     <path d="M 152.21892 125.036487 
L 222.136264 125.036487 
L 222.136264 108.406174 
L 152.21892 108.406174 
z
" clip-path="url(#p80e70bf50b)" style="fill: #ffffff; opacity: 0.7; stroke: #000000; stroke-linejoin: miter"/>
    </g>
    <g clip-path="url(#p80e70bf50b)">
     <!-- Danny DeVito -->
     <g transform="translate(156.17892 119.204768)scale(0.09 -0.09)">
      <defs>
       <path id="DejaVuSans-44" d="M 1259 4147 
L 1259 519 
L 2022 519 
Q 2988 519 3436 956 
Q 3884 1394 3884 2338 
Q 3884 3275 3436 3711 
Q 2988 4147 2022 4147 
L 1259 4147 
z
M 628 4666 
L 1925 4666 
Q 3281 4666 3915 4102 
Q 4550 3538 4550 2338 
Q 4550 1131 3912 565 
Q 3275 0 1925 0 
L 628 0 
L 628 4666 
z
" transform="scale(0.015625)"/>
       <path id="DejaVuSans-79" d="M 2059 -325 
Q 1816 -950 1584 -1140 
Q 1353 -1331 966 -1331 
L 506 -1331 
L 506 -850 
L 844 -850 
Q 1081 -850 1212 -737 
Q 1344 -625 1503 -206 
L 1606 56 
L 191 3500 
L 800 3500 
L 1894 763 
L 2988 3500 
L 3597 3500 
L 2059 -325 
z
" transform="scale(0.015625)"/>
       <path id="DejaVuSans-56" d="M 1831 0 
L 50 4666 
L 709 4666 
L 2188 738 
L 3669 4666 
L 4325 4666 
L 2547 0 
L 1831 0 
z
" transform="scale(0.015625)"/>
      </defs>
      <use xlink:href="#DejaVuSans-44"/>
      <use xlink:href="#DejaVuSans-61" x="77.001953"/>
      <use xlink:href="#DejaVuSans-6e" x="138.28125"/>
      <use xlink:href="#DejaVuSans-6e" x="201.660156"/>
      <use xlink:href="#DejaVuSans-79" x="265.039062"/>
      <use xlink:href="#DejaVuSans-20" x="324.21875"/>
      <use xlink:href="#DejaVuSans-44" x="356.005859"/>
      <use xlink:href="#DejaVuSans-65" x="433.007812"/>
      <use xlink:href="#DejaVuSans-56" x="494.53125"/>
      <use xlink:href="#DejaVuSans-69" x="560.689453"/>
      <use xlink:href="#DejaVuSans-74" x="588.472656"/>
      <use xlink:href="#DejaVuSans-6f" x="627.681641"/>
     </g>
    </g>
   </g>
   <g id="text_7">
    <g id="patch_8">
     <path d="M 90.789093 184.261408 
L 155.652374 184.261408 
L 155.652374 167.631095 
L 90.789093 167.631095 
z
" clip-path="url(#p80e70bf50b)" style="fill: #ffffff; opacity: 0.7; stroke: #000000; stroke-linejoin: miter"/>
    </g>
    <g clip-path="url(#p80e70bf50b)">
     <!-- Ben Gazzara -->
     <g transform="translate(94.749093 178.429689)scale(0.09 -0.09)">
      <defs>
       <path id="DejaVuSans-47" d="M 3809 666 
L 3809 1919 
L 2778 1919 
L 2778 2438 
L 4434 2438 
L 4434 434 
Q 4069 175 3628 42 
Q 3188 -91 2688 -91 
Q 1594 -91 976 548 
Q 359 1188 359 2328 
Q 359 3472 976 4111 
Q 1594 4750 2688 4750 
Q 3144 4750 3555 4637 
Q 3966 4525 4313 4306 
L 4313 3634 
Q 3963 3931 3569 4081 
Q 3175 4231 2741 4231 
Q 1884 4231 1454 3753 
Q 1025 3275 1025 2328 
Q 1025 1384 1454 906 
Q 1884 428 2741 428 
Q 3075 428 3337 486 
Q 3600 544 3809 666 
z
" transform="scale(0.015625)"/>
       <path id="DejaVuSans-7a" d="M 353 3500 
L 3084 3500 
L 3084 2975 
L 922 459 
L 3084 459 
L 3084 0 
L 275 0 
L 275 525 
L 2438 3041 
L 353 3041 
L 353 3500 
z
" transform="scale(0.015625)"/>
      </defs>
      <use xlink:href="#DejaVuSans-42"/>
      <use xlink:href="#DejaVuSans-65" x="68.603516"/>
      <use xlink:href="#DejaVuSans-6e" x="130.126953"/>
      <use xlink:href="#DejaVuSans-20" x="193.505859"/>
      <use xlink:href="#DejaVuSans-47" x="225.292969"/>
      <use xlink:href="#DejaVuSans-61" x="302.783203"/>
      <use xlink:href="#DejaVuSans-7a" x="364.0625"/>
      <use xlink:href="#DejaVuSans-7a" x="416.552734"/>
      <use xlink:href="#DejaVuSans-61" x="469.042969"/>
      <use xlink:href="#DejaVuSans-72" x="530.322266"/>
      <use xlink:href="#DejaVuSans-61" x="571.435547"/>
     </g>
    </g>
   </g>
   <g id="text_8">
    <g id="patch_9">
     <path d="M 63.262772 265.119566 
L 113.169179 265.119566 
L 113.169179 248.489254 
L 63.262772 248.489254 
z
" clip-path="url(#p80e70bf50b)" style="fill: #ffffff; opacity: 0.7; stroke: #000000; stroke-linejoin: miter"/>
    </g>
    <g clip-path="url(#p80e70bf50b)">
     <!-- Téa Leoni -->
     <g transform="translate(67.222772 259.287848)scale(0.09 -0.09)">
      <defs>
       <path id="DejaVuSans-e9" d="M 3597 1894 
L 3597 1613 
L 953 1613 
Q 991 1019 1311 708 
Q 1631 397 2203 397 
Q 2534 397 2845 478 
Q 3156 559 3463 722 
L 3463 178 
Q 3153 47 2828 -22 
Q 2503 -91 2169 -91 
Q 1331 -91 842 396 
Q 353 884 353 1716 
Q 353 2575 817 3079 
Q 1281 3584 2069 3584 
Q 2775 3584 3186 3129 
Q 3597 2675 3597 1894 
z
M 3022 2063 
Q 3016 2534 2758 2815 
Q 2500 3097 2075 3097 
Q 1594 3097 1305 2825 
Q 1016 2553 972 2059 
L 3022 2063 
z
M 2469 5119 
L 3091 5119 
L 2072 3944 
L 1594 3944 
L 2469 5119 
z
" transform="scale(0.015625)"/>
       <path id="DejaVuSans-4c" d="M 628 4666 
L 1259 4666 
L 1259 531 
L 3531 531 
L 3531 0 
L 628 0 
L 628 4666 
z
" transform="scale(0.015625)"/>
      </defs>
      <use xlink:href="#DejaVuSans-54"/>
      <use xlink:href="#DejaVuSans-e9" x="44.083984"/>
      <use xlink:href="#DejaVuSans-61" x="105.607422"/>
      <use xlink:href="#DejaVuSans-20" x="166.886719"/>
      <use xlink:href="#DejaVuSans-4c" x="198.673828"/>
      <use xlink:href="#DejaVuSans-65" x="252.636719"/>
      <use xlink:href="#DejaVuSans-6f" x="314.160156"/>
      <use xlink:href="#DejaVuSans-6e" x="375.341797"/>
      <use xlink:href="#DejaVuSans-69" x="438.720703"/>
     </g>
    </g>
   </g>
   <g id="text_9">
    <g id="patch_10">
     <path d="M 43.642785 353.629828 
L 132.789191 353.629828 
L 132.789191 336.999515 
L 43.642785 336.999515 
z
" clip-path="url(#p80e70bf50b)" style="fill: #ffffff; opacity: 0.7; stroke: #000000; stroke-linejoin: miter"/>
    </g>
    <g clip-path="url(#p80e70bf50b)">
     <!-- Sylvester Stallone -->
     <g transform="translate(47.602785 347.798109)scale(0.09 -0.09)">
      <defs>
       <path id="DejaVuSans-76" d="M 191 3500 
L 800 3500 
L 1894 563 
L 2988 3500 
L 3597 3500 
L 2284 0 
L 1503 0 
L 191 3500 
z
" transform="scale(0.015625)"/>
       <path id="DejaVuSans-73" d="M 2834 3397 
L 2834 2853 
Q 2591 2978 2328 3040 
Q 2066 3103 1784 3103 
Q 1356 3103 1142 2972 
Q 928 2841 928 2578 
Q 928 2378 1081 2264 
Q 1234 2150 1697 2047 
L 1894 2003 
Q 2506 1872 2764 1633 
Q 3022 1394 3022 966 
Q 3022 478 2636 193 
Q 2250 -91 1575 -91 
Q 1294 -91 989 -36 
Q 684 19 347 128 
L 347 722 
Q 666 556 975 473 
Q 1284 391 1588 391 
Q 1994 391 2212 530 
Q 2431 669 2431 922 
Q 2431 1156 2273 1281 
Q 2116 1406 1581 1522 
L 1381 1569 
Q 847 1681 609 1914 
Q 372 2147 372 2553 
Q 372 3047 722 3315 
Q 1072 3584 1716 3584 
Q 2034 3584 2315 3537 
Q 2597 3491 2834 3397 
z
" transform="scale(0.015625)"/>
      </defs>
      <use xlink:href="#DejaVuSans-53"/>
      <use xlink:href="#DejaVuSans-79" x="63.476562"/>
      <use xlink:href="#DejaVuSans-6c" x="122.65625"/>
      <use xlink:href="#DejaVuSans-76" x="150.439453"/>
      <use xlink:href="#DejaVuSans-65" x="209.619141"/>
      <use xlink:href="#DejaVuSans-73" x="271.142578"/>
      <use xlink:href="#DejaVuSans-74" x="323.242188"/>
      <use xlink:href="#DejaVuSans-65" x="362.451172"/>
      <use xlink:href="#DejaVuSans-72" x="423.974609"/>
      <use xlink:href="#DejaVuSans-20" x="465.087891"/>
      <use xlink:href="#DejaVuSans-53" x="496.875"/>
      <use xlink:href="#DejaVuSans-74" x="560.351562"/>
      <use xlink:href="#DejaVuSans-61" x="599.560547"/>
      <use xlink:href="#DejaVuSans-6c" x="660.839844"/>
      <use xlink:href="#DejaVuSans-6c" x="688.623047"/>
      <use xlink:href="#DejaVuSans-6f" x="716.40625"/>
      <use xlink:href="#DejaVuSans-6e" x="777.587891"/>
      <use xlink:href="#DejaVuSans-65" x="840.966797"/>
     </g>
    </g>
   </g>
   <g id="text_10">
    <g id="patch_11">
     <path d="M 82.679262 434.487961 
L 163.76223 434.487961 
L 163.76223 417.857649 
L 82.679262 417.857649 
z
" clip-path="url(#p80e70bf50b)" style="fill: #ffffff; opacity: 0.7; stroke: #000000; stroke-linejoin: miter"/>
    </g>
    <g clip-path="url(#p80e70bf50b)">
     <!-- Philip Baker Hall -->
     <g transform="translate(86.639262 428.656242)scale(0.09 -0.09)">
      <defs>
       <path id="DejaVuSans-70" d="M 1159 525 
L 1159 -1331 
L 581 -1331 
L 581 3500 
L 1159 3500 
L 1159 2969 
Q 1341 3281 1617 3432 
Q 1894 3584 2278 3584 
Q 2916 3584 3314 3078 
Q 3713 2572 3713 1747 
Q 3713 922 3314 415 
Q 2916 -91 2278 -91 
Q 1894 -91 1617 61 
Q 1341 213 1159 525 
z
M 3116 1747 
Q 3116 2381 2855 2742 
Q 2594 3103 2138 3103 
Q 1681 3103 1420 2742 
Q 1159 2381 1159 1747 
Q 1159 1113 1420 752 
Q 1681 391 2138 391 
Q 2594 391 2855 752 
Q 3116 1113 3116 1747 
z
" transform="scale(0.015625)"/>
       <path id="DejaVuSans-48" d="M 628 4666 
L 1259 4666 
L 1259 2753 
L 3553 2753 
L 3553 4666 
L 4184 4666 
L 4184 0 
L 3553 0 
L 3553 2222 
L 1259 2222 
L 1259 0 
L 628 0 
L 628 4666 
z
" transform="scale(0.015625)"/>
      </defs>
      <use xlink:href="#DejaVuSans-50"/>
      <use xlink:href="#DejaVuSans-68" x="60.302734"/>
      <use xlink:href="#DejaVuSans-69" x="123.681641"/>
      <use xlink:href="#DejaVuSans-6c" x="151.464844"/>
      <use xlink:href="#DejaVuSans-69" x="179.248047"/>
      <use xlink:href="#DejaVuSans-70" x="207.03125"/>
      <use xlink:href="#DejaVuSans-20" x="270.507812"/>
      <use xlink:href="#DejaVuSans-42" x="302.294922"/>
      <use xlink:href="#DejaVuSans-61" x="370.898438"/>
      <use xlink:href="#DejaVuSans-6b" x="432.177734"/>
      <use xlink:href="#DejaVuSans-65" x="486.462891"/>
      <use xlink:href="#DejaVuSans-72" x="547.986328"/>
      <use xlink:href="#DejaVuSans-20" x="589.099609"/>
      <use xlink:href="#DejaVuSans-48" x="620.886719"/>
      <use xlink:href="#DejaVuSans-61" x="696.082031"/>
      <use xlink:href="#DejaVuSans-6c" x="757.361328"/>
      <use xlink:href="#DejaVuSans-6c" x="785.144531"/>
     </g>
    </g>
   </g>
   <g id="text_11">
    <g id="patch_12">
     <path d="M 150.087076 493.712882 
L 224.26817 493.712882 
L 224.26817 477.082569 
L 150.087076 477.082569 
z
" clip-path="url(#p80e70bf50b)" style="fill: #ffffff; opacity: 0.7; stroke: #000000; stroke-linejoin: miter"/>
    </g>
    <g clip-path="url(#p80e70bf50b)">
     <!-- Robert De Niro -->
     <g transform="translate(154.047076 487.881163)scale(0.09 -0.09)">
      <defs>
       <path id="DejaVuSans-52" d="M 2841 2188 
Q 3044 2119 3236 1894 
Q 3428 1669 3622 1275 
L 4263 0 
L 3584 0 
L 2988 1197 
Q 2756 1666 2539 1819 
Q 2322 1972 1947 1972 
L 1259 1972 
L 1259 0 
L 628 0 
L 628 4666 
L 2053 4666 
Q 2853 4666 3247 4331 
Q 3641 3997 3641 3322 
Q 3641 2881 3436 2590 
Q 3231 2300 2841 2188 
z
M 1259 4147 
L 1259 2491 
L 2053 2491 
Q 2509 2491 2742 2702 
Q 2975 2913 2975 3322 
Q 2975 3731 2742 3939 
Q 2509 4147 2053 4147 
L 1259 4147 
z
" transform="scale(0.015625)"/>
       <path id="DejaVuSans-62" d="M 3116 1747 
Q 3116 2381 2855 2742 
Q 2594 3103 2138 3103 
Q 1681 3103 1420 2742 
Q 1159 2381 1159 1747 
Q 1159 1113 1420 752 
Q 1681 391 2138 391 
Q 2594 391 2855 752 
Q 3116 1113 3116 1747 
z
M 1159 2969 
Q 1341 3281 1617 3432 
Q 1894 3584 2278 3584 
Q 2916 3584 3314 3078 
Q 3713 2572 3713 1747 
Q 3713 922 3314 415 
Q 2916 -91 2278 -91 
Q 1894 -91 1617 61 
Q 1341 213 1159 525 
L 1159 0 
L 581 0 
L 581 4863 
L 1159 4863 
L 1159 2969 
z
" transform="scale(0.015625)"/>
       <path id="DejaVuSans-4e" d="M 628 4666 
L 1478 4666 
L 3547 763 
L 3547 4666 
L 4159 4666 
L 4159 0 
L 3309 0 
L 1241 3903 
L 1241 0 
L 628 0 
L 628 4666 
z
" transform="scale(0.015625)"/>
      </defs>
      <use xlink:href="#DejaVuSans-52"/>
      <use xlink:href="#DejaVuSans-6f" x="64.982422"/>
      <use xlink:href="#DejaVuSans-62" x="126.164062"/>
      <use xlink:href="#DejaVuSans-65" x="189.640625"/>
      <use xlink:href="#DejaVuSans-72" x="251.164062"/>
      <use xlink:href="#DejaVuSans-74" x="292.277344"/>
      <use xlink:href="#DejaVuSans-20" x="331.486328"/>
      <use xlink:href="#DejaVuSans-44" x="363.273438"/>
      <use xlink:href="#DejaVuSans-65" x="440.275391"/>
      <use xlink:href="#DejaVuSans-20" x="501.798828"/>
      <use xlink:href="#DejaVuSans-4e" x="533.585938"/>
      <use xlink:href="#DejaVuSans-69" x="608.390625"/>
      <use xlink:href="#DejaVuSans-72" x="636.173828"/>
      <use xlink:href="#DejaVuSans-6f" x="675.037109"/>
     </g>
    </g>
   </g>
   <g id="text_12">
    <g id="patch_13">
     <path d="M 230.548673 521.06405 
L 307.507111 521.06405 
L 307.507111 504.433738 
L 230.548673 504.433738 
z
" clip-path="url(#p80e70bf50b)" style="fill: #ffffff; opacity: 0.7; stroke: #000000; stroke-linejoin: miter"/>
    </g>
    <g clip-path="url(#p80e70bf50b)">
     <!-- Richard Jenkins -->
     <g transform="translate(234.508673 515.232332)scale(0.09 -0.09)">
      <defs>
       <path id="DejaVuSans-63" d="M 3122 3366 
L 3122 2828 
Q 2878 2963 2633 3030 
Q 2388 3097 2138 3097 
Q 1578 3097 1268 2742 
Q 959 2388 959 1747 
Q 959 1106 1268 751 
Q 1578 397 2138 397 
Q 2388 397 2633 464 
Q 2878 531 3122 666 
L 3122 134 
Q 2881 22 2623 -34 
Q 2366 -91 2075 -91 
Q 1284 -91 818 406 
Q 353 903 353 1747 
Q 353 2603 823 3093 
Q 1294 3584 2113 3584 
Q 2378 3584 2631 3529 
Q 2884 3475 3122 3366 
z
" transform="scale(0.015625)"/>
       <path id="DejaVuSans-64" d="M 2906 2969 
L 2906 4863 
L 3481 4863 
L 3481 0 
L 2906 0 
L 2906 525 
Q 2725 213 2448 61 
Q 2172 -91 1784 -91 
Q 1150 -91 751 415 
Q 353 922 353 1747 
Q 353 2572 751 3078 
Q 1150 3584 1784 3584 
Q 2172 3584 2448 3432 
Q 2725 3281 2906 2969 
z
M 947 1747 
Q 947 1113 1208 752 
Q 1469 391 1925 391 
Q 2381 391 2643 752 
Q 2906 1113 2906 1747 
Q 2906 2381 2643 2742 
Q 2381 3103 1925 3103 
Q 1469 3103 1208 2742 
Q 947 2381 947 1747 
z
" transform="scale(0.015625)"/>
      </defs>
      <use xlink:href="#DejaVuSans-52"/>
      <use xlink:href="#DejaVuSans-69" x="69.482422"/>
      <use xlink:href="#DejaVuSans-63" x="97.265625"/>
      <use xlink:href="#DejaVuSans-68" x="152.246094"/>
      <use xlink:href="#DejaVuSans-61" x="215.625"/>
      <use xlink:href="#DejaVuSans-72" x="276.904297"/>
      <use xlink:href="#DejaVuSans-64" x="316.267578"/>
      <use xlink:href="#DejaVuSans-20" x="379.744141"/>
      <use xlink:href="#DejaVuSans-4a" x="411.53125"/>
      <use xlink:href="#DejaVuSans-65" x="441.023438"/>
      <use xlink:href="#DejaVuSans-6e" x="502.546875"/>
      <use xlink:href="#DejaVuSans-6b" x="565.925781"/>
      <use xlink:href="#DejaVuSans-69" x="623.835938"/>
      <use xlink:href="#DejaVuSans-6e" x="651.619141"/>
      <use xlink:href="#DejaVuSans-73" x="714.998047"/>
     </g>
    </g>
   </g>
   <g id="text_13">
    <g id="patch_14">
     <path d="M 309.877638 511.812197 
L 399.360138 511.812197 
L 399.360138 495.181885 
L 309.877638 495.181885 
z
" clip-path="url(#p80e70bf50b)" style="fill: #ffffff; opacity: 0.7; stroke: #000000; stroke-linejoin: miter"/>
    </g>
    <g clip-path="url(#p80e70bf50b)">
     <!-- Samuel L. Jackson -->
     <g transform="translate(313.837638 505.980479)scale(0.09 -0.09)">
      <defs>
       <path id="DejaVuSans-6d" d="M 3328 2828 
Q 3544 3216 3844 3400 
Q 4144 3584 4550 3584 
Q 5097 3584 5394 3201 
Q 5691 2819 5691 2113 
L 5691 0 
L 5113 0 
L 5113 2094 
Q 5113 2597 4934 2840 
Q 4756 3084 4391 3084 
Q 3944 3084 3684 2787 
Q 3425 2491 3425 1978 
L 3425 0 
L 2847 0 
L 2847 2094 
Q 2847 2600 2669 2842 
Q 2491 3084 2119 3084 
Q 1678 3084 1418 2786 
Q 1159 2488 1159 1978 
L 1159 0 
L 581 0 
L 581 3500 
L 1159 3500 
L 1159 2956 
Q 1356 3278 1631 3431 
Q 1906 3584 2284 3584 
Q 2666 3584 2933 3390 
Q 3200 3197 3328 2828 
z
" transform="scale(0.015625)"/>
       <path id="DejaVuSans-2e" d="M 684 794 
L 1344 794 
L 1344 0 
L 684 0 
L 684 794 
z
" transform="scale(0.015625)"/>
      </defs>
      <use xlink:href="#DejaVuSans-53"/>
      <use xlink:href="#DejaVuSans-61" x="63.476562"/>
      <use xlink:href="#DejaVuSans-6d" x="124.755859"/>
      <use xlink:href="#DejaVuSans-75" x="222.167969"/>
      <use xlink:href="#DejaVuSans-65" x="285.546875"/>
      <use xlink:href="#DejaVuSans-6c" x="347.070312"/>
      <use xlink:href="#DejaVuSans-20" x="374.853516"/>
      <use xlink:href="#DejaVuSans-4c" x="406.640625"/>
      <use xlink:href="#DejaVuSans-2e" x="462.353516"/>
      <use xlink:href="#DejaVuSans-20" x="494.140625"/>
      <use xlink:href="#DejaVuSans-4a" x="525.927734"/>
      <use xlink:href="#DejaVuSans-61" x="555.419922"/>
      <use xlink:href="#DejaVuSans-63" x="616.699219"/>
      <use xlink:href="#DejaVuSans-6b" x="671.679688"/>
      <use xlink:href="#DejaVuSans-73" x="729.589844"/>
      <use xlink:href="#DejaVuSans-6f" x="781.689453"/>
      <use xlink:href="#DejaVuSans-6e" x="842.871094"/>
     </g>
    </g>
   </g>
   <g id="text_14">
    <g id="patch_15">
     <path d="M 392.699758 467.557048 
L 465.60257 467.557048 
L 465.60257 450.926735 
L 392.699758 450.926735 
z
" clip-path="url(#p80e70bf50b)" style="fill: #ffffff; opacity: 0.7; stroke: #000000; stroke-linejoin: miter"/>
    </g>
    <g clip-path="url(#p80e70bf50b)">
     <!-- Jack Nicholson -->
     <g transform="translate(396.659758 461.725329)scale(0.09 -0.09)">
      <use xlink:href="#DejaVuSans-4a"/>
      <use xlink:href="#DejaVuSans-61" x="29.492188"/>
      <use xlink:href="#DejaVuSans-63" x="90.771484"/>
      <use xlink:href="#DejaVuSans-6b" x="145.751953"/>
      <use xlink:href="#DejaVuSans-20" x="203.662109"/>
      <use xlink:href="#DejaVuSans-4e" x="235.449219"/>
      <use xlink:href="#DejaVuSans-69" x="310.253906"/>
      <use xlink:href="#DejaVuSans-63" x="338.037109"/>
      <use xlink:href="#DejaVuSans-68" x="393.017578"/>
      <use xlink:href="#DejaVuSans-6f" x="456.396484"/>
      <use xlink:href="#DejaVuSans-6c" x="517.578125"/>
      <use xlink:href="#DejaVuSans-73" x="545.361328"/>
      <use xlink:href="#DejaVuSans-6f" x="597.460938"/>
      <use xlink:href="#DejaVuSans-6e" x="658.642578"/>
     </g>
    </g>
   </g>
   <g id="text_15">
    <g id="patch_16">
     <path d="M 443.965913 395.950742 
L 515.508882 395.950742 
L 515.508882 379.320429 
L 443.965913 379.320429 
z
" clip-path="url(#p80e70bf50b)" style="fill: #ffffff; opacity: 0.7; stroke: #000000; stroke-linejoin: miter"/>
    </g>
    <g clip-path="url(#p80e70bf50b)">
     <!-- Bill Thompson -->
     <g transform="translate(447.925913 390.119023)scale(0.09 -0.09)">
      <use xlink:href="#DejaVuSans-42"/>
      <use xlink:href="#DejaVuSans-69" x="68.603516"/>
      <use xlink:href="#DejaVuSans-6c" x="96.386719"/>
      <use xlink:href="#DejaVuSans-6c" x="124.169922"/>
      <use xlink:href="#DejaVuSans-20" x="151.953125"/>
      <use xlink:href="#DejaVuSans-54" x="183.740234"/>
      <use xlink:href="#DejaVuSans-68" x="244.824219"/>
      <use xlink:href="#DejaVuSans-6f" x="308.203125"/>
      <use xlink:href="#DejaVuSans-6d" x="369.384766"/>
      <use xlink:href="#DejaVuSans-70" x="466.796875"/>
      <use xlink:href="#DejaVuSans-73" x="530.273438"/>
      <use xlink:href="#DejaVuSans-6f" x="582.373047"/>
      <use xlink:href="#DejaVuSans-6e" x="643.554688"/>
     </g>
    </g>
   </g>
   <g id="text_16">
    <!-- Impactful actors for Documentary genre - Importance rank: 4 -->
    <g transform="translate(100.0575 16.318125)scale(0.12 -0.12)">
     <defs>
      <path id="DejaVuSans-49" d="M 628 4666 
L 1259 4666 
L 1259 0 
L 628 0 
L 628 4666 
z
" transform="scale(0.015625)"/>
      <path id="DejaVuSans-66" d="M 2375 4863 
L 2375 4384 
L 1825 4384 
Q 1516 4384 1395 4259 
Q 1275 4134 1275 3809 
L 1275 3500 
L 2222 3500 
L 2222 3053 
L 1275 3053 
L 1275 0 
L 697 0 
L 697 3053 
L 147 3053 
L 147 3500 
L 697 3500 
L 697 3744 
Q 697 4328 969 4595 
Q 1241 4863 1831 4863 
L 2375 4863 
z
" transform="scale(0.015625)"/>
      <path id="DejaVuSans-2d" d="M 313 2009 
L 1997 2009 
L 1997 1497 
L 313 1497 
L 313 2009 
z
" transform="scale(0.015625)"/>
      <path id="DejaVuSans-3a" d="M 750 794 
L 1409 794 
L 1409 0 
L 750 0 
L 750 794 
z
M 750 3309 
L 1409 3309 
L 1409 2516 
L 750 2516 
L 750 3309 
z
" transform="scale(0.015625)"/>
      <path id="DejaVuSans-34" d="M 2419 4116 
L 825 1625 
L 2419 1625 
L 2419 4116 
z
M 2253 4666 
L 3047 4666 
L 3047 1625 
L 3713 1625 
L 3713 1100 
L 3047 1100 
L 3047 0 
L 2419 0 
L 2419 1100 
L 313 1100 
L 313 1709 
L 2253 4666 
z
" transform="scale(0.015625)"/>
     </defs>
     <use xlink:href="#DejaVuSans-49"/>
     <use xlink:href="#DejaVuSans-6d" x="29.492188"/>
     <use xlink:href="#DejaVuSans-70" x="126.904297"/>
     <use xlink:href="#DejaVuSans-61" x="190.380859"/>
     <use xlink:href="#DejaVuSans-63" x="251.660156"/>
     <use xlink:href="#DejaVuSans-74" x="306.640625"/>
     <use xlink:href="#DejaVuSans-66" x="345.849609"/>
     <use xlink:href="#DejaVuSans-75" x="381.054688"/>
     <use xlink:href="#DejaVuSans-6c" x="444.433594"/>
     <use xlink:href="#DejaVuSans-20" x="472.216797"/>
     <use xlink:href="#DejaVuSans-61" x="504.003906"/>
     <use xlink:href="#DejaVuSans-63" x="565.283203"/>
     <use xlink:href="#DejaVuSans-74" x="620.263672"/>
     <use xlink:href="#DejaVuSans-6f" x="659.472656"/>
     <use xlink:href="#DejaVuSans-72" x="720.654297"/>
     <use xlink:href="#DejaVuSans-73" x="761.767578"/>
     <use xlink:href="#DejaVuSans-20" x="813.867188"/>
     <use xlink:href="#DejaVuSans-66" x="845.654297"/>
     <use xlink:href="#DejaVuSans-6f" x="880.859375"/>
     <use xlink:href="#DejaVuSans-72" x="942.041016"/>
     <use xlink:href="#DejaVuSans-20" x="983.154297"/>
     <use xlink:href="#DejaVuSans-44" x="1014.941406"/>
     <use xlink:href="#DejaVuSans-6f" x="1091.943359"/>
     <use xlink:href="#DejaVuSans-63" x="1153.125"/>
     <use xlink:href="#DejaVuSans-75" x="1208.105469"/>
     <use xlink:href="#DejaVuSans-6d" x="1271.484375"/>
     <use xlink:href="#DejaVuSans-65" x="1368.896484"/>
     <use xlink:href="#DejaVuSans-6e" x="1430.419922"/>
     <use xlink:href="#DejaVuSans-74" x="1493.798828"/>
     <use xlink:href="#DejaVuSans-61" x="1533.007812"/>
     <use xlink:href="#DejaVuSans-72" x="1594.287109"/>
     <use xlink:href="#DejaVuSans-79" x="1635.400391"/>
     <use xlink:href="#DejaVuSans-20" x="1694.580078"/>
     <use xlink:href="#DejaVuSans-67" x="1726.367188"/>
     <use xlink:href="#DejaVuSans-65" x="1789.84375"/>
     <use xlink:href="#DejaVuSans-6e" x="1851.367188"/>
     <use xlink:href="#DejaVuSans-72" x="1914.746094"/>
     <use xlink:href="#DejaVuSans-65" x="1953.609375"/>
     <use xlink:href="#DejaVuSans-20" x="2015.132812"/>
     <use xlink:href="#DejaVuSans-2d" x="2046.919922"/>
     <use xlink:href="#DejaVuSans-20" x="2083.003906"/>
     <use xlink:href="#DejaVuSans-49" x="2114.791016"/>
     <use xlink:href="#DejaVuSans-6d" x="2144.283203"/>
     <use xlink:href="#DejaVuSans-70" x="2241.695312"/>
     <use xlink:href="#DejaVuSans-6f" x="2305.171875"/>
     <use xlink:href="#DejaVuSans-72" x="2366.353516"/>
     <use xlink:href="#DejaVuSans-74" x="2407.466797"/>
     <use xlink:href="#DejaVuSans-61" x="2446.675781"/>
     <use xlink:href="#DejaVuSans-6e" x="2507.955078"/>
     <use xlink:href="#DejaVuSans-63" x="2571.333984"/>
     <use xlink:href="#DejaVuSans-65" x="2626.314453"/>
     <use xlink:href="#DejaVuSans-20" x="2687.837891"/>
     <use xlink:href="#DejaVuSans-72" x="2719.625"/>
     <use xlink:href="#DejaVuSans-61" x="2760.738281"/>
     <use xlink:href="#DejaVuSans-6e" x="2822.017578"/>
     <use xlink:href="#DejaVuSans-6b" x="2885.396484"/>
     <use xlink:href="#DejaVuSans-3a" x="2943.306641"/>
     <use xlink:href="#DejaVuSans-20" x="2976.998047"/>
     <use xlink:href="#DejaVuSans-34" x="3008.785156"/>
    </g>
   </g>
  </g>
 </g>
 <defs>
  <clipPath id="p80e70bf50b">
   <rect x="7.2" y="22.318125" width="554.4" height="554.4"/>
  </clipPath>
 </defs>
</svg>
