<?xml version="1.0" encoding="utf-8" standalone="no"?>
<!DOCTYPE svg PUBLIC "-//W3C//DTD SVG 1.1//EN"
  "http://www.w3.org/Graphics/SVG/1.1/DTD/svg11.dtd">
<svg xmlns:xlink="http://www.w3.org/1999/xlink" width="568.8pt" height="583.918125pt" viewBox="0 0 568.8 583.918125" xmlns="http://www.w3.org/2000/svg" version="1.1">
 <metadata>
  <rdf:RDF xmlns:dc="http://purl.org/dc/elements/1.1/" xmlns:cc="http://creativecommons.org/ns#" xmlns:rdf="http://www.w3.org/1999/02/22-rdf-syntax-ns#">
   <cc:Work>
    <dc:type rdf:resource="http://purl.org/dc/dcmitype/StillImage"/>
    <dc:date>2022-12-22T19:12:46.243704</dc:date>
    <dc:format>image/svg+xml</dc:format>
    <dc:creator>
     <cc:Agent>
      <dc:title>Matplotlib v3.5.2, https://matplotlib.org/</dc:title>
     </cc:Agent>
    </dc:creator>
   </cc:Work>
  </rdf:RDF>
 </metadata>
 <defs>
  <style type="text/css">*{stroke-linejoin: round; stroke-linecap: butt}</style>
 </defs>
 <g id="figure_1">
  <g id="patch_1">
   <path d="M 0 583.918125 
L 568.8 583.918125 
L 568.8 0 
L 0 0 
z
" style="fill: #ffffff"/>
  </g>
  <g id="axes_1">
   <g id="PathCollection_1">
    <path d="M 497.630769 326.904253 
C 504.893655 326.904253 511.86005 324.018678 516.995686 318.883042 
C 522.131322 313.747406 525.016897 306.781011 525.016897 299.518125 
C 525.016897 292.255239 522.131322 285.288844 516.995686 280.153208 
C 511.86005 275.017572 504.893655 272.131997 497.630769 272.131997 
C 490.367883 272.131997 483.401488 275.017572 478.265852 280.153208 
C 473.130217 285.288844 470.244641 292.255239 470.244641 299.518125 
C 470.244641 306.781011 473.130217 313.747406 478.265852 318.883042 
C 483.401488 324.018678 490.367883 326.904253 497.630769 326.904253 
z
" clip-path="url(#pa58589fa04)" style="fill: #d62728; fill-opacity: 0.99; stroke: #d62728; stroke-opacity: 0.99"/>
    <path d="M 478.992348 239.253826 
C 486.137501 239.253826 492.990969 236.415026 498.043355 231.36264 
C 503.095741 226.310254 505.93454 219.456786 505.93454 212.311633 
C 505.93454 205.166481 503.095741 198.313013 498.043355 193.260627 
C 492.990969 188.20824 486.137501 185.369441 478.992348 185.369441 
C 471.847195 185.369441 464.993727 188.20824 459.941341 193.260627 
C 454.888955 198.313013 452.050155 205.166481 452.050155 212.311633 
C 452.050155 219.456786 454.888955 226.310254 459.941341 231.36264 
C 464.993727 236.415026 471.847195 239.253826 478.992348 239.253826 
z
" clip-path="url(#pa58589fa04)" style="fill: #d62728; fill-opacity: 0.99; stroke: #d62728; stroke-opacity: 0.99"/>
    <path d="M 426.29985 165.780569 
C 433.088159 165.780569 439.59935 163.083545 444.399409 158.283486 
C 449.199469 153.483427 451.896492 146.972236 451.896492 140.183927 
C 451.896492 133.395618 449.199469 126.884426 444.399409 122.084367 
C 439.59935 117.284308 433.088159 114.587284 426.29985 114.587284 
C 419.511541 114.587284 413.00035 117.284308 408.20029 122.084367 
C 403.400231 126.884426 400.703207 133.395618 400.703207 140.183927 
C 400.703207 146.972236 403.400231 153.483427 408.20029 158.283486 
C 413.00035 163.083545 419.511541 165.780569 426.29985 165.780569 
z
" clip-path="url(#pa58589fa04)" style="fill: #d62728; fill-opacity: 0.99; stroke: #d62728; stroke-opacity: 0.99"/>
    <path d="M 348.664291 120.805107 
C 355.347023 120.805107 361.756947 118.150029 366.482353 113.424624 
C 371.207758 108.699219 373.862835 102.289295 373.862835 95.606563 
C 373.862835 88.923831 371.207758 82.513907 366.482353 77.788501 
C 361.756947 73.063096 355.347023 70.408019 348.664291 70.408019 
C 341.981559 70.408019 335.571635 73.063096 330.84623 77.788501 
C 326.120825 82.513907 323.465747 88.923831 323.465747 95.606563 
C 323.465747 102.289295 326.120825 108.699219 330.84623 113.424624 
C 335.571635 118.150029 341.981559 120.805107 348.664291 120.805107 
z
" clip-path="url(#pa58589fa04)" style="fill: #d62728; fill-opacity: 0.99; stroke: #d62728; stroke-opacity: 0.99"/>
    <path d="M 259.509549 111.138758 
C 266.100218 111.138758 272.421837 108.520258 277.082144 103.859951 
C 281.74245 99.199644 284.360951 92.878025 284.360951 86.287356 
C 284.360951 79.696687 281.74245 73.375067 277.082144 68.714761 
C 272.421837 64.054454 266.100218 61.435953 259.509549 61.435953 
C 252.91888 61.435953 246.59726 64.054454 241.936954 68.714761 
C 237.276647 73.375067 234.658146 79.696687 234.658146 86.287356 
C 234.658146 92.878025 237.276647 99.199644 241.936954 103.859951 
C 246.59726 108.520258 252.91888 111.138758 259.509549 111.138758 
z
" clip-path="url(#pa58589fa04)" style="fill: #d62728; fill-opacity: 0.99; stroke: #d62728; stroke-opacity: 0.99"/>
    <path d="M 174.251298 136.755727 
C 180.329232 136.755727 186.159048 134.340938 190.456796 130.04319 
C 194.754544 125.745442 197.169333 119.915626 197.169333 113.837692 
C 197.169333 107.759758 194.754544 101.929943 190.456796 97.632195 
C 186.159048 93.334446 180.329232 90.919658 174.251298 90.919658 
C 168.173364 90.919658 162.343549 93.334446 158.0458 97.632195 
C 153.748052 101.929943 151.333263 107.759758 151.333263 113.837692 
C 151.333263 119.915626 153.748052 125.745442 158.0458 130.04319 
C 162.343549 134.340938 168.173364 136.755727 174.251298 136.755727 
z
" clip-path="url(#pa58589fa04)" style="fill: #d62728; fill-opacity: 0.99; stroke: #d62728; stroke-opacity: 0.99"/>
    <path d="M 107.631477 195.794114 
C 113.545575 195.794114 119.218243 193.444418 123.400142 189.262519 
C 127.582041 185.08062 129.931738 179.407952 129.931738 173.493854 
C 129.931738 167.579756 127.582041 161.907087 123.400142 157.725188 
C 119.218243 153.543289 113.545575 151.193593 107.631477 151.193593 
C 101.717379 151.193593 96.044711 153.543289 91.862812 157.725188 
C 87.680913 161.907087 85.331217 167.579756 85.331217 173.493854 
C 85.331217 179.407952 87.680913 185.08062 91.862812 189.262519 
C 96.044711 193.444418 101.717379 195.794114 107.631477 195.794114 
z
" clip-path="url(#pa58589fa04)" style="fill: #d62728; fill-opacity: 0.99; stroke: #d62728; stroke-opacity: 0.99"/>
    <path d="M 71.169231 277.101461 
C 77.046314 277.101461 82.683478 274.766471 86.839203 270.610746 
C 90.994928 266.455021 93.329918 260.817857 93.329918 254.940774 
C 93.329918 249.063691 90.994928 243.426527 86.839203 239.270802 
C 82.683478 235.115076 77.046314 232.780087 71.169231 232.780087 
C 65.292148 232.780087 59.654984 235.115076 55.499259 239.270802 
C 51.343533 243.426527 49.008543 249.063691 49.008543 254.940774 
C 49.008543 260.817857 51.343533 266.455021 55.499259 270.610746 
C 59.654984 274.766471 65.292148 277.101461 71.169231 277.101461 
z
" clip-path="url(#pa58589fa04)" style="fill: #d62728; fill-opacity: 0.99; stroke: #d62728; stroke-opacity: 0.99"/>
    <path d="M 71.169244 365.527939 
C 76.853189 365.527939 82.3051 363.269684 86.324256 359.250527 
C 90.343413 355.231371 92.601668 349.77946 92.601668 344.095514 
C 92.601668 338.411569 90.343413 332.959658 86.324256 328.940502 
C 82.3051 324.921345 76.853189 322.66309 71.169244 322.66309 
C 65.485298 322.66309 60.033387 324.921345 56.014231 328.940502 
C 51.995074 332.959658 49.736819 338.411569 49.736819 344.095514 
C 49.736819 349.77946 51.995074 355.231371 56.014231 359.250527 
C 60.033387 363.269684 65.485298 365.527939 71.169244 365.527939 
z
" clip-path="url(#pa58589fa04)" style="fill: #d62728; fill-opacity: 0.99; stroke: #d62728; stroke-opacity: 0.99"/>
    <path d="M 107.63149 446.311806 
C 113.139598 446.311806 118.42285 444.123411 122.317671 440.22859 
C 126.212492 436.33377 128.400887 431.050517 128.400887 425.542409 
C 128.400887 420.034301 126.212492 414.751049 122.317671 410.856228 
C 118.42285 406.961407 113.139598 404.773012 107.63149 404.773012 
C 102.123381 404.773012 96.840129 406.961407 92.945309 410.856228 
C 89.050488 414.751049 86.862093 420.034301 86.862093 425.542409 
C 86.862093 431.050517 89.050488 436.33377 92.945309 440.22859 
C 96.840129 444.123411 102.123381 446.311806 107.63149 446.311806 
z
" clip-path="url(#pa58589fa04)" style="fill: #d62728; fill-opacity: 0.99; stroke: #d62728; stroke-opacity: 0.99"/>
    <path d="M 174.25133 505.616078 
C 179.666116 505.616078 184.859856 503.46476 188.688688 499.635928 
C 192.51752 495.807096 194.668838 490.613357 194.668838 485.198571 
C 194.668838 479.783784 192.51752 474.590045 188.688688 470.761213 
C 184.859856 466.932381 179.666116 464.781063 174.25133 464.781063 
C 168.836544 464.781063 163.642804 466.932381 159.813972 470.761213 
C 155.98514 474.590045 153.833823 479.783784 153.833823 485.198571 
C 153.833823 490.613357 155.98514 495.807096 159.813972 499.635928 
C 163.642804 503.46476 168.836544 505.616078 174.25133 505.616078 
z
" clip-path="url(#pa58589fa04)" style="fill: #d62728; fill-opacity: 0.99; stroke: #d62728; stroke-opacity: 0.99"/>
    <path d="M 259.509587 532.540192 
C 264.758301 532.540192 269.792747 530.454856 273.504148 526.743455 
C 277.215549 523.032054 279.300885 517.997608 279.300885 512.748894 
C 279.300885 507.500181 277.215549 502.465734 273.504148 498.754333 
C 269.792747 495.042933 264.758301 492.957597 259.509587 492.957597 
C 254.260874 492.957597 249.226427 495.042933 245.515026 498.754333 
C 241.803625 502.465734 239.71829 507.500181 239.71829 512.748894 
C 239.71829 517.997608 241.803625 523.032054 245.515026 526.743455 
C 249.226427 530.454856 254.260874 532.540192 259.509587 532.540192 
z
" clip-path="url(#pa58589fa04)" style="fill: #d62728; fill-opacity: 0.99; stroke: #d62728; stroke-opacity: 0.99"/>
    <path d="M 348.664323 523.054236 
C 353.868818 523.054236 358.860851 520.986469 362.540984 517.306335 
C 366.221118 513.626202 368.288885 508.634169 368.288885 503.429675 
C 368.288885 498.22518 366.221118 493.233147 362.540984 489.553014 
C 358.860851 485.87288 353.868818 483.805113 348.664323 483.805113 
C 343.459829 483.805113 338.467796 485.87288 334.787663 489.553014 
C 331.107529 493.233147 329.039761 498.22518 329.039761 503.429675 
C 329.039761 508.634169 331.107529 513.626202 334.787663 517.306335 
C 338.467796 520.986469 343.459829 523.054236 348.664323 523.054236 
z
" clip-path="url(#pa58589fa04)" style="fill: #d62728; fill-opacity: 0.99; stroke: #d62728; stroke-opacity: 0.99"/>
    <path d="M 426.299888 478.389021 
C 431.481091 478.389021 436.450783 476.330507 440.114447 472.666843 
C 443.77811 469.00318 445.836624 464.033488 445.836624 458.852285 
C 445.836624 453.671082 443.77811 448.701391 440.114447 445.037727 
C 436.450783 441.374063 431.481091 439.31555 426.299888 439.31555 
C 421.118686 439.31555 416.148994 441.374063 412.48533 445.037727 
C 408.821667 448.701391 406.763153 453.671082 406.763153 458.852285 
C 406.763153 464.033488 408.821667 469.00318 412.48533 472.666843 
C 416.148994 476.330507 421.118686 478.389021 426.299888 478.389021 
z
" clip-path="url(#pa58589fa04)" style="fill: #d62728; fill-opacity: 0.99; stroke: #d62728; stroke-opacity: 0.99"/>
    <path d="M 478.992374 406.089501 
C 484.128009 406.089501 489.053994 404.049092 492.685437 400.417649 
C 496.31688 396.786206 498.35729 391.860221 498.35729 386.724585 
C 498.35729 381.588949 496.31688 376.662964 492.685437 373.031521 
C 489.053994 369.400078 484.128009 367.359668 478.992374 367.359668 
C 473.856738 367.359668 468.930753 369.400078 465.29931 373.031521 
C 461.667867 376.662964 459.627457 381.588949 459.627457 386.724585 
C 459.627457 391.860221 461.667867 396.786206 465.29931 400.417649 
C 468.930753 404.049092 473.856738 406.089501 478.992374 406.089501 
z
" clip-path="url(#pa58589fa04)" style="fill: #d62728; fill-opacity: 0.99; stroke: #d62728; stroke-opacity: 0.99"/>
   </g>
   <g id="text_1">
    <g id="patch_2">
     <path d="M 464.599363 307.833281 
L 530.662175 307.833281 
L 530.662175 291.202969 
L 464.599363 291.202969 
z
" clip-path="url(#pa58589fa04)" style="fill: #ffffff; opacity: 0.7; stroke: #000000; stroke-linejoin: miter"/>
    </g>
    <g clip-path="url(#pa58589fa04)">
     <!-- Owen Wilson -->
     <g transform="translate(468.559363 302.001562)scale(0.09 -0.09)">
      <defs>
       <path id="DejaVuSans-4f" d="M 2522 4238 
Q 1834 4238 1429 3725 
Q 1025 3213 1025 2328 
Q 1025 1447 1429 934 
Q 1834 422 2522 422 
Q 3209 422 3611 934 
Q 4013 1447 4013 2328 
Q 4013 3213 3611 3725 
Q 3209 4238 2522 4238 
z
M 2522 4750 
Q 3503 4750 4090 4092 
Q 4678 3434 4678 2328 
Q 4678 1225 4090 567 
Q 3503 -91 2522 -91 
Q 1538 -91 948 565 
Q 359 1222 359 2328 
Q 359 3434 948 4092 
Q 1538 4750 2522 4750 
z
" transform="scale(0.015625)"/>
       <path id="DejaVuSans-77" d="M 269 3500 
L 844 3500 
L 1563 769 
L 2278 3500 
L 2956 3500 
L 3675 769 
L 4391 3500 
L 4966 3500 
L 4050 0 
L 3372 0 
L 2619 2869 
L 1863 0 
L 1184 0 
L 269 3500 
z
" transform="scale(0.015625)"/>
       <path id="DejaVuSans-65" d="M 3597 1894 
L 3597 1613 
L 953 1613 
Q 991 1019 1311 708 
Q 1631 397 2203 397 
Q 2534 397 2845 478 
Q 3156 559 3463 722 
L 3463 178 
Q 3153 47 2828 -22 
Q 2503 -91 2169 -91 
Q 1331 -91 842 396 
Q 353 884 353 1716 
Q 353 2575 817 3079 
Q 1281 3584 2069 3584 
Q 2775 3584 3186 3129 
Q 3597 2675 3597 1894 
z
M 3022 2063 
Q 3016 2534 2758 2815 
Q 2500 3097 2075 3097 
Q 1594 3097 1305 2825 
Q 1016 2553 972 2059 
L 3022 2063 
z
" transform="scale(0.015625)"/>
       <path id="DejaVuSans-6e" d="M 3513 2113 
L 3513 0 
L 2938 0 
L 2938 2094 
Q 2938 2591 2744 2837 
Q 2550 3084 2163 3084 
Q 1697 3084 1428 2787 
Q 1159 2491 1159 1978 
L 1159 0 
L 581 0 
L 581 3500 
L 1159 3500 
L 1159 2956 
Q 1366 3272 1645 3428 
Q 1925 3584 2291 3584 
Q 2894 3584 3203 3211 
Q 3513 2838 3513 2113 
z
" transform="scale(0.015625)"/>
       <path id="DejaVuSans-20" transform="scale(0.015625)"/>
       <path id="DejaVuSans-57" d="M 213 4666 
L 850 4666 
L 1831 722 
L 2809 4666 
L 3519 4666 
L 4500 722 
L 5478 4666 
L 6119 4666 
L 4947 0 
L 4153 0 
L 3169 4050 
L 2175 0 
L 1381 0 
L 213 4666 
z
" transform="scale(0.015625)"/>
       <path id="DejaVuSans-69" d="M 603 3500 
L 1178 3500 
L 1178 0 
L 603 0 
L 603 3500 
z
M 603 4863 
L 1178 4863 
L 1178 4134 
L 603 4134 
L 603 4863 
z
" transform="scale(0.015625)"/>
       <path id="DejaVuSans-6c" d="M 603 4863 
L 1178 4863 
L 1178 0 
L 603 0 
L 603 4863 
z
" transform="scale(0.015625)"/>
       <path id="DejaVuSans-73" d="M 2834 3397 
L 2834 2853 
Q 2591 2978 2328 3040 
Q 2066 3103 1784 3103 
Q 1356 3103 1142 2972 
Q 928 2841 928 2578 
Q 928 2378 1081 2264 
Q 1234 2150 1697 2047 
L 1894 2003 
Q 2506 1872 2764 1633 
Q 3022 1394 3022 966 
Q 3022 478 2636 193 
Q 2250 -91 1575 -91 
Q 1294 -91 989 -36 
Q 684 19 347 128 
L 347 722 
Q 666 556 975 473 
Q 1284 391 1588 391 
Q 1994 391 2212 530 
Q 2431 669 2431 922 
Q 2431 1156 2273 1281 
Q 2116 1406 1581 1522 
L 1381 1569 
Q 847 1681 609 1914 
Q 372 2147 372 2553 
Q 372 3047 722 3315 
Q 1072 3584 1716 3584 
Q 2034 3584 2315 3537 
Q 2597 3491 2834 3397 
z
" transform="scale(0.015625)"/>
       <path id="DejaVuSans-6f" d="M 1959 3097 
Q 1497 3097 1228 2736 
Q 959 2375 959 1747 
Q 959 1119 1226 758 
Q 1494 397 1959 397 
Q 2419 397 2687 759 
Q 2956 1122 2956 1747 
Q 2956 2369 2687 2733 
Q 2419 3097 1959 3097 
z
M 1959 3584 
Q 2709 3584 3137 3096 
Q 3566 2609 3566 1747 
Q 3566 888 3137 398 
Q 2709 -91 1959 -91 
Q 1206 -91 779 398 
Q 353 888 353 1747 
Q 353 2609 779 3096 
Q 1206 3584 1959 3584 
z
" transform="scale(0.015625)"/>
      </defs>
      <use xlink:href="#DejaVuSans-4f"/>
      <use xlink:href="#DejaVuSans-77" x="78.710938"/>
      <use xlink:href="#DejaVuSans-65" x="160.498047"/>
      <use xlink:href="#DejaVuSans-6e" x="222.021484"/>
      <use xlink:href="#DejaVuSans-20" x="285.400391"/>
      <use xlink:href="#DejaVuSans-57" x="317.1875"/>
      <use xlink:href="#DejaVuSans-69" x="413.814453"/>
      <use xlink:href="#DejaVuSans-6c" x="441.597656"/>
      <use xlink:href="#DejaVuSans-73" x="469.380859"/>
      <use xlink:href="#DejaVuSans-6f" x="521.480469"/>
      <use xlink:href="#DejaVuSans-6e" x="582.662109"/>
     </g>
    </g>
   </g>
   <g id="text_2">
    <g id="patch_3">
     <path d="M 436.349926 220.62679 
L 521.63477 220.62679 
L 521.63477 203.996477 
L 436.349926 203.996477 
z
" clip-path="url(#pa58589fa04)" style="fill: #ffffff; opacity: 0.7; stroke: #000000; stroke-linejoin: miter"/>
    </g>
    <g clip-path="url(#pa58589fa04)">
     <!-- Dan Castellaneta -->
     <g transform="translate(440.309926 214.795071)scale(0.09 -0.09)">
      <defs>
       <path id="DejaVuSans-44" d="M 1259 4147 
L 1259 519 
L 2022 519 
Q 2988 519 3436 956 
Q 3884 1394 3884 2338 
Q 3884 3275 3436 3711 
Q 2988 4147 2022 4147 
L 1259 4147 
z
M 628 4666 
L 1925 4666 
Q 3281 4666 3915 4102 
Q 4550 3538 4550 2338 
Q 4550 1131 3912 565 
Q 3275 0 1925 0 
L 628 0 
L 628 4666 
z
" transform="scale(0.015625)"/>
       <path id="DejaVuSans-61" d="M 2194 1759 
Q 1497 1759 1228 1600 
Q 959 1441 959 1056 
Q 959 750 1161 570 
Q 1363 391 1709 391 
Q 2188 391 2477 730 
Q 2766 1069 2766 1631 
L 2766 1759 
L 2194 1759 
z
M 3341 1997 
L 3341 0 
L 2766 0 
L 2766 531 
Q 2569 213 2275 61 
Q 1981 -91 1556 -91 
Q 1019 -91 701 211 
Q 384 513 384 1019 
Q 384 1609 779 1909 
Q 1175 2209 1959 2209 
L 2766 2209 
L 2766 2266 
Q 2766 2663 2505 2880 
Q 2244 3097 1772 3097 
Q 1472 3097 1187 3025 
Q 903 2953 641 2809 
L 641 3341 
Q 956 3463 1253 3523 
Q 1550 3584 1831 3584 
Q 2591 3584 2966 3190 
Q 3341 2797 3341 1997 
z
" transform="scale(0.015625)"/>
       <path id="DejaVuSans-43" d="M 4122 4306 
L 4122 3641 
Q 3803 3938 3442 4084 
Q 3081 4231 2675 4231 
Q 1875 4231 1450 3742 
Q 1025 3253 1025 2328 
Q 1025 1406 1450 917 
Q 1875 428 2675 428 
Q 3081 428 3442 575 
Q 3803 722 4122 1019 
L 4122 359 
Q 3791 134 3420 21 
Q 3050 -91 2638 -91 
Q 1578 -91 968 557 
Q 359 1206 359 2328 
Q 359 3453 968 4101 
Q 1578 4750 2638 4750 
Q 3056 4750 3426 4639 
Q 3797 4528 4122 4306 
z
" transform="scale(0.015625)"/>
       <path id="DejaVuSans-74" d="M 1172 4494 
L 1172 3500 
L 2356 3500 
L 2356 3053 
L 1172 3053 
L 1172 1153 
Q 1172 725 1289 603 
Q 1406 481 1766 481 
L 2356 481 
L 2356 0 
L 1766 0 
Q 1100 0 847 248 
Q 594 497 594 1153 
L 594 3053 
L 172 3053 
L 172 3500 
L 594 3500 
L 594 4494 
L 1172 4494 
z
" transform="scale(0.015625)"/>
      </defs>
      <use xlink:href="#DejaVuSans-44"/>
      <use xlink:href="#DejaVuSans-61" x="77.001953"/>
      <use xlink:href="#DejaVuSans-6e" x="138.28125"/>
      <use xlink:href="#DejaVuSans-20" x="201.660156"/>
      <use xlink:href="#DejaVuSans-43" x="233.447266"/>
      <use xlink:href="#DejaVuSans-61" x="303.271484"/>
      <use xlink:href="#DejaVuSans-73" x="364.550781"/>
      <use xlink:href="#DejaVuSans-74" x="416.650391"/>
      <use xlink:href="#DejaVuSans-65" x="455.859375"/>
      <use xlink:href="#DejaVuSans-6c" x="517.382812"/>
      <use xlink:href="#DejaVuSans-6c" x="545.166016"/>
      <use xlink:href="#DejaVuSans-61" x="572.949219"/>
      <use xlink:href="#DejaVuSans-6e" x="634.228516"/>
      <use xlink:href="#DejaVuSans-65" x="697.607422"/>
      <use xlink:href="#DejaVuSans-74" x="759.130859"/>
      <use xlink:href="#DejaVuSans-61" x="798.339844"/>
     </g>
    </g>
   </g>
   <g id="text_3">
    <g id="patch_4">
     <path d="M 388.92735 148.499083 
L 463.67235 148.499083 
L 463.67235 131.86877 
L 388.92735 131.86877 
z
" clip-path="url(#pa58589fa04)" style="fill: #ffffff; opacity: 0.7; stroke: #000000; stroke-linejoin: miter"/>
    </g>
    <g clip-path="url(#pa58589fa04)">
     <!-- Steve Buscemi -->
     <g transform="translate(392.88735 142.667364)scale(0.09 -0.09)">
      <defs>
       <path id="DejaVuSans-53" d="M 3425 4513 
L 3425 3897 
Q 3066 4069 2747 4153 
Q 2428 4238 2131 4238 
Q 1616 4238 1336 4038 
Q 1056 3838 1056 3469 
Q 1056 3159 1242 3001 
Q 1428 2844 1947 2747 
L 2328 2669 
Q 3034 2534 3370 2195 
Q 3706 1856 3706 1288 
Q 3706 609 3251 259 
Q 2797 -91 1919 -91 
Q 1588 -91 1214 -16 
Q 841 59 441 206 
L 441 856 
Q 825 641 1194 531 
Q 1563 422 1919 422 
Q 2459 422 2753 634 
Q 3047 847 3047 1241 
Q 3047 1584 2836 1778 
Q 2625 1972 2144 2069 
L 1759 2144 
Q 1053 2284 737 2584 
Q 422 2884 422 3419 
Q 422 4038 858 4394 
Q 1294 4750 2059 4750 
Q 2388 4750 2728 4690 
Q 3069 4631 3425 4513 
z
" transform="scale(0.015625)"/>
       <path id="DejaVuSans-76" d="M 191 3500 
L 800 3500 
L 1894 563 
L 2988 3500 
L 3597 3500 
L 2284 0 
L 1503 0 
L 191 3500 
z
" transform="scale(0.015625)"/>
       <path id="DejaVuSans-42" d="M 1259 2228 
L 1259 519 
L 2272 519 
Q 2781 519 3026 730 
Q 3272 941 3272 1375 
Q 3272 1813 3026 2020 
Q 2781 2228 2272 2228 
L 1259 2228 
z
M 1259 4147 
L 1259 2741 
L 2194 2741 
Q 2656 2741 2882 2914 
Q 3109 3088 3109 3444 
Q 3109 3797 2882 3972 
Q 2656 4147 2194 4147 
L 1259 4147 
z
M 628 4666 
L 2241 4666 
Q 2963 4666 3353 4366 
Q 3744 4066 3744 3513 
Q 3744 3084 3544 2831 
Q 3344 2578 2956 2516 
Q 3422 2416 3680 2098 
Q 3938 1781 3938 1306 
Q 3938 681 3513 340 
Q 3088 0 2303 0 
L 628 0 
L 628 4666 
z
" transform="scale(0.015625)"/>
       <path id="DejaVuSans-75" d="M 544 1381 
L 544 3500 
L 1119 3500 
L 1119 1403 
Q 1119 906 1312 657 
Q 1506 409 1894 409 
Q 2359 409 2629 706 
Q 2900 1003 2900 1516 
L 2900 3500 
L 3475 3500 
L 3475 0 
L 2900 0 
L 2900 538 
Q 2691 219 2414 64 
Q 2138 -91 1772 -91 
Q 1169 -91 856 284 
Q 544 659 544 1381 
z
M 1991 3584 
L 1991 3584 
z
" transform="scale(0.015625)"/>
       <path id="DejaVuSans-63" d="M 3122 3366 
L 3122 2828 
Q 2878 2963 2633 3030 
Q 2388 3097 2138 3097 
Q 1578 3097 1268 2742 
Q 959 2388 959 1747 
Q 959 1106 1268 751 
Q 1578 397 2138 397 
Q 2388 397 2633 464 
Q 2878 531 3122 666 
L 3122 134 
Q 2881 22 2623 -34 
Q 2366 -91 2075 -91 
Q 1284 -91 818 406 
Q 353 903 353 1747 
Q 353 2603 823 3093 
Q 1294 3584 2113 3584 
Q 2378 3584 2631 3529 
Q 2884 3475 3122 3366 
z
" transform="scale(0.015625)"/>
       <path id="DejaVuSans-6d" d="M 3328 2828 
Q 3544 3216 3844 3400 
Q 4144 3584 4550 3584 
Q 5097 3584 5394 3201 
Q 5691 2819 5691 2113 
L 5691 0 
L 5113 0 
L 5113 2094 
Q 5113 2597 4934 2840 
Q 4756 3084 4391 3084 
Q 3944 3084 3684 2787 
Q 3425 2491 3425 1978 
L 3425 0 
L 2847 0 
L 2847 2094 
Q 2847 2600 2669 2842 
Q 2491 3084 2119 3084 
Q 1678 3084 1418 2786 
Q 1159 2488 1159 1978 
L 1159 0 
L 581 0 
L 581 3500 
L 1159 3500 
L 1159 2956 
Q 1356 3278 1631 3431 
Q 1906 3584 2284 3584 
Q 2666 3584 2933 3390 
Q 3200 3197 3328 2828 
z
" transform="scale(0.015625)"/>
      </defs>
      <use xlink:href="#DejaVuSans-53"/>
      <use xlink:href="#DejaVuSans-74" x="63.476562"/>
      <use xlink:href="#DejaVuSans-65" x="102.685547"/>
      <use xlink:href="#DejaVuSans-76" x="164.208984"/>
      <use xlink:href="#DejaVuSans-65" x="223.388672"/>
      <use xlink:href="#DejaVuSans-20" x="284.912109"/>
      <use xlink:href="#DejaVuSans-42" x="316.699219"/>
      <use xlink:href="#DejaVuSans-75" x="385.302734"/>
      <use xlink:href="#DejaVuSans-73" x="448.681641"/>
      <use xlink:href="#DejaVuSans-63" x="500.78125"/>
      <use xlink:href="#DejaVuSans-65" x="555.761719"/>
      <use xlink:href="#DejaVuSans-6d" x="617.285156"/>
      <use xlink:href="#DejaVuSans-69" x="714.697266"/>
     </g>
    </g>
   </g>
   <g id="text_4">
    <g id="patch_5">
     <path d="M 305.393276 103.921719 
L 391.935307 103.921719 
L 391.935307 87.291406 
L 305.393276 87.291406 
z
" clip-path="url(#pa58589fa04)" style="fill: #ffffff; opacity: 0.7; stroke: #000000; stroke-linejoin: miter"/>
    </g>
    <g clip-path="url(#pa58589fa04)">
     <!-- Nancy Cartwright -->
     <g transform="translate(309.353276 98.09)scale(0.09 -0.09)">
      <defs>
       <path id="DejaVuSans-4e" d="M 628 4666 
L 1478 4666 
L 3547 763 
L 3547 4666 
L 4159 4666 
L 4159 0 
L 3309 0 
L 1241 3903 
L 1241 0 
L 628 0 
L 628 4666 
z
" transform="scale(0.015625)"/>
       <path id="DejaVuSans-79" d="M 2059 -325 
Q 1816 -950 1584 -1140 
Q 1353 -1331 966 -1331 
L 506 -1331 
L 506 -850 
L 844 -850 
Q 1081 -850 1212 -737 
Q 1344 -625 1503 -206 
L 1606 56 
L 191 3500 
L 800 3500 
L 1894 763 
L 2988 3500 
L 3597 3500 
L 2059 -325 
z
" transform="scale(0.015625)"/>
       <path id="DejaVuSans-72" d="M 2631 2963 
Q 2534 3019 2420 3045 
Q 2306 3072 2169 3072 
Q 1681 3072 1420 2755 
Q 1159 2438 1159 1844 
L 1159 0 
L 581 0 
L 581 3500 
L 1159 3500 
L 1159 2956 
Q 1341 3275 1631 3429 
Q 1922 3584 2338 3584 
Q 2397 3584 2469 3576 
Q 2541 3569 2628 3553 
L 2631 2963 
z
" transform="scale(0.015625)"/>
       <path id="DejaVuSans-67" d="M 2906 1791 
Q 2906 2416 2648 2759 
Q 2391 3103 1925 3103 
Q 1463 3103 1205 2759 
Q 947 2416 947 1791 
Q 947 1169 1205 825 
Q 1463 481 1925 481 
Q 2391 481 2648 825 
Q 2906 1169 2906 1791 
z
M 3481 434 
Q 3481 -459 3084 -895 
Q 2688 -1331 1869 -1331 
Q 1566 -1331 1297 -1286 
Q 1028 -1241 775 -1147 
L 775 -588 
Q 1028 -725 1275 -790 
Q 1522 -856 1778 -856 
Q 2344 -856 2625 -561 
Q 2906 -266 2906 331 
L 2906 616 
Q 2728 306 2450 153 
Q 2172 0 1784 0 
Q 1141 0 747 490 
Q 353 981 353 1791 
Q 353 2603 747 3093 
Q 1141 3584 1784 3584 
Q 2172 3584 2450 3431 
Q 2728 3278 2906 2969 
L 2906 3500 
L 3481 3500 
L 3481 434 
z
" transform="scale(0.015625)"/>
       <path id="DejaVuSans-68" d="M 3513 2113 
L 3513 0 
L 2938 0 
L 2938 2094 
Q 2938 2591 2744 2837 
Q 2550 3084 2163 3084 
Q 1697 3084 1428 2787 
Q 1159 2491 1159 1978 
L 1159 0 
L 581 0 
L 581 4863 
L 1159 4863 
L 1159 2956 
Q 1366 3272 1645 3428 
Q 1925 3584 2291 3584 
Q 2894 3584 3203 3211 
Q 3513 2838 3513 2113 
z
" transform="scale(0.015625)"/>
      </defs>
      <use xlink:href="#DejaVuSans-4e"/>
      <use xlink:href="#DejaVuSans-61" x="74.804688"/>
      <use xlink:href="#DejaVuSans-6e" x="136.083984"/>
      <use xlink:href="#DejaVuSans-63" x="199.462891"/>
      <use xlink:href="#DejaVuSans-79" x="254.443359"/>
      <use xlink:href="#DejaVuSans-20" x="313.623047"/>
      <use xlink:href="#DejaVuSans-43" x="345.410156"/>
      <use xlink:href="#DejaVuSans-61" x="415.234375"/>
      <use xlink:href="#DejaVuSans-72" x="476.513672"/>
      <use xlink:href="#DejaVuSans-74" x="517.626953"/>
      <use xlink:href="#DejaVuSans-77" x="556.835938"/>
      <use xlink:href="#DejaVuSans-72" x="638.623047"/>
      <use xlink:href="#DejaVuSans-69" x="679.736328"/>
      <use xlink:href="#DejaVuSans-67" x="707.519531"/>
      <use xlink:href="#DejaVuSans-68" x="770.996094"/>
      <use xlink:href="#DejaVuSans-74" x="834.375"/>
     </g>
    </g>
   </g>
   <g id="text_5">
    <g id="patch_6">
     <path d="M 226.310799 94.602512 
L 292.708299 94.602512 
L 292.708299 77.9722 
L 226.310799 77.9722 
z
" clip-path="url(#pa58589fa04)" style="fill: #ffffff; opacity: 0.7; stroke: #000000; stroke-linejoin: miter"/>
    </g>
    <g clip-path="url(#pa58589fa04)">
     <!-- Carla Gugino -->
     <g transform="translate(230.270799 88.770793)scale(0.09 -0.09)">
      <defs>
       <path id="DejaVuSans-47" d="M 3809 666 
L 3809 1919 
L 2778 1919 
L 2778 2438 
L 4434 2438 
L 4434 434 
Q 4069 175 3628 42 
Q 3188 -91 2688 -91 
Q 1594 -91 976 548 
Q 359 1188 359 2328 
Q 359 3472 976 4111 
Q 1594 4750 2688 4750 
Q 3144 4750 3555 4637 
Q 3966 4525 4313 4306 
L 4313 3634 
Q 3963 3931 3569 4081 
Q 3175 4231 2741 4231 
Q 1884 4231 1454 3753 
Q 1025 3275 1025 2328 
Q 1025 1384 1454 906 
Q 1884 428 2741 428 
Q 3075 428 3337 486 
Q 3600 544 3809 666 
z
" transform="scale(0.015625)"/>
      </defs>
      <use xlink:href="#DejaVuSans-43"/>
      <use xlink:href="#DejaVuSans-61" x="69.824219"/>
      <use xlink:href="#DejaVuSans-72" x="131.103516"/>
      <use xlink:href="#DejaVuSans-6c" x="172.216797"/>
      <use xlink:href="#DejaVuSans-61" x="200"/>
      <use xlink:href="#DejaVuSans-20" x="261.279297"/>
      <use xlink:href="#DejaVuSans-47" x="293.066406"/>
      <use xlink:href="#DejaVuSans-75" x="370.556641"/>
      <use xlink:href="#DejaVuSans-67" x="433.935547"/>
      <use xlink:href="#DejaVuSans-69" x="497.412109"/>
      <use xlink:href="#DejaVuSans-6e" x="525.195312"/>
      <use xlink:href="#DejaVuSans-6f" x="588.574219"/>
     </g>
    </g>
   </g>
   <g id="text_6">
    <g id="patch_7">
     <path d="M 151.309736 122.152849 
L 197.192861 122.152849 
L 197.192861 105.522536 
L 151.309736 105.522536 
z
" clip-path="url(#pa58589fa04)" style="fill: #ffffff; opacity: 0.7; stroke: #000000; stroke-linejoin: miter"/>
    </g>
    <g clip-path="url(#pa58589fa04)">
     <!-- Jay Leno -->
     <g transform="translate(155.269736 116.32113)scale(0.09 -0.09)">
      <defs>
       <path id="DejaVuSans-4a" d="M 628 4666 
L 1259 4666 
L 1259 325 
Q 1259 -519 939 -900 
Q 619 -1281 -91 -1281 
L -331 -1281 
L -331 -750 
L -134 -750 
Q 284 -750 456 -515 
Q 628 -281 628 325 
L 628 4666 
z
" transform="scale(0.015625)"/>
       <path id="DejaVuSans-4c" d="M 628 4666 
L 1259 4666 
L 1259 531 
L 3531 531 
L 3531 0 
L 628 0 
L 628 4666 
z
" transform="scale(0.015625)"/>
      </defs>
      <use xlink:href="#DejaVuSans-4a"/>
      <use xlink:href="#DejaVuSans-61" x="29.492188"/>
      <use xlink:href="#DejaVuSans-79" x="90.771484"/>
      <use xlink:href="#DejaVuSans-20" x="149.951172"/>
      <use xlink:href="#DejaVuSans-4c" x="181.738281"/>
      <use xlink:href="#DejaVuSans-65" x="235.701172"/>
      <use xlink:href="#DejaVuSans-6e" x="297.224609"/>
      <use xlink:href="#DejaVuSans-6f" x="360.603516"/>
     </g>
    </g>
   </g>
   <g id="text_7">
    <g id="patch_8">
     <path d="M 74.575461 181.80901 
L 140.687493 181.80901 
L 140.687493 165.178697 
L 74.575461 165.178697 
z
" clip-path="url(#pa58589fa04)" style="fill: #ffffff; opacity: 0.7; stroke: #000000; stroke-linejoin: miter"/>
    </g>
    <g clip-path="url(#pa58589fa04)">
     <!-- John Travolta -->
     <g transform="translate(78.535461 175.977291)scale(0.09 -0.09)">
      <defs>
       <path id="DejaVuSans-54" d="M -19 4666 
L 3928 4666 
L 3928 4134 
L 2272 4134 
L 2272 0 
L 1638 0 
L 1638 4134 
L -19 4134 
L -19 4666 
z
" transform="scale(0.015625)"/>
      </defs>
      <use xlink:href="#DejaVuSans-4a"/>
      <use xlink:href="#DejaVuSans-6f" x="29.492188"/>
      <use xlink:href="#DejaVuSans-68" x="90.673828"/>
      <use xlink:href="#DejaVuSans-6e" x="154.052734"/>
      <use xlink:href="#DejaVuSans-20" x="217.431641"/>
      <use xlink:href="#DejaVuSans-54" x="249.21875"/>
      <use xlink:href="#DejaVuSans-72" x="295.552734"/>
      <use xlink:href="#DejaVuSans-61" x="336.666016"/>
      <use xlink:href="#DejaVuSans-76" x="397.945312"/>
      <use xlink:href="#DejaVuSans-6f" x="457.125"/>
      <use xlink:href="#DejaVuSans-6c" x="518.306641"/>
      <use xlink:href="#DejaVuSans-74" x="546.089844"/>
      <use xlink:href="#DejaVuSans-61" x="585.298828"/>
     </g>
    </g>
   </g>
   <g id="text_8">
    <g id="patch_9">
     <path d="M 42.759465 263.25593 
L 99.578996 263.25593 
L 99.578996 246.625618 
L 42.759465 246.625618 
z
" clip-path="url(#pa58589fa04)" style="fill: #ffffff; opacity: 0.7; stroke: #000000; stroke-linejoin: miter"/>
    </g>
    <g clip-path="url(#pa58589fa04)">
     <!-- Burt Young -->
     <g transform="translate(46.719465 257.424211)scale(0.09 -0.09)">
      <defs>
       <path id="DejaVuSans-59" d="M -13 4666 
L 666 4666 
L 1959 2747 
L 3244 4666 
L 3922 4666 
L 2272 2222 
L 2272 0 
L 1638 0 
L 1638 2222 
L -13 4666 
z
" transform="scale(0.015625)"/>
      </defs>
      <use xlink:href="#DejaVuSans-42"/>
      <use xlink:href="#DejaVuSans-75" x="68.603516"/>
      <use xlink:href="#DejaVuSans-72" x="131.982422"/>
      <use xlink:href="#DejaVuSans-74" x="173.095703"/>
      <use xlink:href="#DejaVuSans-20" x="212.304688"/>
      <use xlink:href="#DejaVuSans-59" x="244.091797"/>
      <use xlink:href="#DejaVuSans-6f" x="291.925781"/>
      <use xlink:href="#DejaVuSans-75" x="353.107422"/>
      <use xlink:href="#DejaVuSans-6e" x="416.486328"/>
      <use xlink:href="#DejaVuSans-67" x="479.865234"/>
     </g>
    </g>
   </g>
   <g id="text_9">
    <g id="patch_10">
     <path d="M 40.124165 352.410671 
L 102.214322 352.410671 
L 102.214322 335.780358 
L 40.124165 335.780358 
z
" clip-path="url(#pa58589fa04)" style="fill: #ffffff; opacity: 0.7; stroke: #000000; stroke-linejoin: miter"/>
    </g>
    <g clip-path="url(#pa58589fa04)">
     <!-- Hank Azaria -->
     <g transform="translate(44.084165 346.578952)scale(0.09 -0.09)">
      <defs>
       <path id="DejaVuSans-48" d="M 628 4666 
L 1259 4666 
L 1259 2753 
L 3553 2753 
L 3553 4666 
L 4184 4666 
L 4184 0 
L 3553 0 
L 3553 2222 
L 1259 2222 
L 1259 0 
L 628 0 
L 628 4666 
z
" transform="scale(0.015625)"/>
       <path id="DejaVuSans-6b" d="M 581 4863 
L 1159 4863 
L 1159 1991 
L 2875 3500 
L 3609 3500 
L 1753 1863 
L 3688 0 
L 2938 0 
L 1159 1709 
L 1159 0 
L 581 0 
L 581 4863 
z
" transform="scale(0.015625)"/>
       <path id="DejaVuSans-41" d="M 2188 4044 
L 1331 1722 
L 3047 1722 
L 2188 4044 
z
M 1831 4666 
L 2547 4666 
L 4325 0 
L 3669 0 
L 3244 1197 
L 1141 1197 
L 716 0 
L 50 0 
L 1831 4666 
z
" transform="scale(0.015625)"/>
       <path id="DejaVuSans-7a" d="M 353 3500 
L 3084 3500 
L 3084 2975 
L 922 459 
L 3084 459 
L 3084 0 
L 275 0 
L 275 525 
L 2438 3041 
L 353 3041 
L 353 3500 
z
" transform="scale(0.015625)"/>
      </defs>
      <use xlink:href="#DejaVuSans-48"/>
      <use xlink:href="#DejaVuSans-61" x="75.195312"/>
      <use xlink:href="#DejaVuSans-6e" x="136.474609"/>
      <use xlink:href="#DejaVuSans-6b" x="199.853516"/>
      <use xlink:href="#DejaVuSans-20" x="257.763672"/>
      <use xlink:href="#DejaVuSans-41" x="289.550781"/>
      <use xlink:href="#DejaVuSans-7a" x="357.958984"/>
      <use xlink:href="#DejaVuSans-61" x="410.449219"/>
      <use xlink:href="#DejaVuSans-72" x="471.728516"/>
      <use xlink:href="#DejaVuSans-69" x="512.841797"/>
      <use xlink:href="#DejaVuSans-61" x="540.625"/>
     </g>
    </g>
   </g>
   <g id="text_10">
    <g id="patch_11">
     <path d="M 75.542271 433.857565 
L 139.720709 433.857565 
L 139.720709 417.227253 
L 75.542271 417.227253 
z
" clip-path="url(#pa58589fa04)" style="fill: #ffffff; opacity: 0.7; stroke: #000000; stroke-linejoin: miter"/>
    </g>
    <g clip-path="url(#pa58589fa04)">
     <!-- Julia Roberts -->
     <g transform="translate(79.502271 428.025847)scale(0.09 -0.09)">
      <defs>
       <path id="DejaVuSans-52" d="M 2841 2188 
Q 3044 2119 3236 1894 
Q 3428 1669 3622 1275 
L 4263 0 
L 3584 0 
L 2988 1197 
Q 2756 1666 2539 1819 
Q 2322 1972 1947 1972 
L 1259 1972 
L 1259 0 
L 628 0 
L 628 4666 
L 2053 4666 
Q 2853 4666 3247 4331 
Q 3641 3997 3641 3322 
Q 3641 2881 3436 2590 
Q 3231 2300 2841 2188 
z
M 1259 4147 
L 1259 2491 
L 2053 2491 
Q 2509 2491 2742 2702 
Q 2975 2913 2975 3322 
Q 2975 3731 2742 3939 
Q 2509 4147 2053 4147 
L 1259 4147 
z
" transform="scale(0.015625)"/>
       <path id="DejaVuSans-62" d="M 3116 1747 
Q 3116 2381 2855 2742 
Q 2594 3103 2138 3103 
Q 1681 3103 1420 2742 
Q 1159 2381 1159 1747 
Q 1159 1113 1420 752 
Q 1681 391 2138 391 
Q 2594 391 2855 752 
Q 3116 1113 3116 1747 
z
M 1159 2969 
Q 1341 3281 1617 3432 
Q 1894 3584 2278 3584 
Q 2916 3584 3314 3078 
Q 3713 2572 3713 1747 
Q 3713 922 3314 415 
Q 2916 -91 2278 -91 
Q 1894 -91 1617 61 
Q 1341 213 1159 525 
L 1159 0 
L 581 0 
L 581 4863 
L 1159 4863 
L 1159 2969 
z
" transform="scale(0.015625)"/>
      </defs>
      <use xlink:href="#DejaVuSans-4a"/>
      <use xlink:href="#DejaVuSans-75" x="29.492188"/>
      <use xlink:href="#DejaVuSans-6c" x="92.871094"/>
      <use xlink:href="#DejaVuSans-69" x="120.654297"/>
      <use xlink:href="#DejaVuSans-61" x="148.4375"/>
      <use xlink:href="#DejaVuSans-20" x="209.716797"/>
      <use xlink:href="#DejaVuSans-52" x="241.503906"/>
      <use xlink:href="#DejaVuSans-6f" x="306.486328"/>
      <use xlink:href="#DejaVuSans-62" x="367.667969"/>
      <use xlink:href="#DejaVuSans-65" x="431.144531"/>
      <use xlink:href="#DejaVuSans-72" x="492.667969"/>
      <use xlink:href="#DejaVuSans-74" x="533.78125"/>
      <use xlink:href="#DejaVuSans-73" x="572.990234"/>
     </g>
    </g>
   </g>
   <g id="text_11">
    <g id="patch_12">
     <path d="M 150.623518 493.513727 
L 197.879143 493.513727 
L 197.879143 476.883414 
L 150.623518 476.883414 
z
" clip-path="url(#pa58589fa04)" style="fill: #ffffff; opacity: 0.7; stroke: #000000; stroke-linejoin: miter"/>
    </g>
    <g clip-path="url(#pa58589fa04)">
     <!-- Joe Pesci -->
     <g transform="translate(154.583518 487.682008)scale(0.09 -0.09)">
      <defs>
       <path id="DejaVuSans-50" d="M 1259 4147 
L 1259 2394 
L 2053 2394 
Q 2494 2394 2734 2622 
Q 2975 2850 2975 3272 
Q 2975 3691 2734 3919 
Q 2494 4147 2053 4147 
L 1259 4147 
z
M 628 4666 
L 2053 4666 
Q 2838 4666 3239 4311 
Q 3641 3956 3641 3272 
Q 3641 2581 3239 2228 
Q 2838 1875 2053 1875 
L 1259 1875 
L 1259 0 
L 628 0 
L 628 4666 
z
" transform="scale(0.015625)"/>
      </defs>
      <use xlink:href="#DejaVuSans-4a"/>
      <use xlink:href="#DejaVuSans-6f" x="29.492188"/>
      <use xlink:href="#DejaVuSans-65" x="90.673828"/>
      <use xlink:href="#DejaVuSans-20" x="152.197266"/>
      <use xlink:href="#DejaVuSans-50" x="183.984375"/>
      <use xlink:href="#DejaVuSans-65" x="240.662109"/>
      <use xlink:href="#DejaVuSans-73" x="302.185547"/>
      <use xlink:href="#DejaVuSans-63" x="354.285156"/>
      <use xlink:href="#DejaVuSans-69" x="409.265625"/>
     </g>
    </g>
   </g>
   <g id="text_12">
    <g id="patch_13">
     <path d="M 231.504822 521.06405 
L 287.514353 521.06405 
L 287.514353 504.433738 
L 231.504822 504.433738 
z
" clip-path="url(#pa58589fa04)" style="fill: #ffffff; opacity: 0.7; stroke: #000000; stroke-linejoin: miter"/>
    </g>
    <g clip-path="url(#pa58589fa04)">
     <!-- Bill Murray -->
     <g transform="translate(235.464822 515.232332)scale(0.09 -0.09)">
      <defs>
       <path id="DejaVuSans-4d" d="M 628 4666 
L 1569 4666 
L 2759 1491 
L 3956 4666 
L 4897 4666 
L 4897 0 
L 4281 0 
L 4281 4097 
L 3078 897 
L 2444 897 
L 1241 4097 
L 1241 0 
L 628 0 
L 628 4666 
z
" transform="scale(0.015625)"/>
      </defs>
      <use xlink:href="#DejaVuSans-42"/>
      <use xlink:href="#DejaVuSans-69" x="68.603516"/>
      <use xlink:href="#DejaVuSans-6c" x="96.386719"/>
      <use xlink:href="#DejaVuSans-6c" x="124.169922"/>
      <use xlink:href="#DejaVuSans-20" x="151.953125"/>
      <use xlink:href="#DejaVuSans-4d" x="183.740234"/>
      <use xlink:href="#DejaVuSans-75" x="270.019531"/>
      <use xlink:href="#DejaVuSans-72" x="333.398438"/>
      <use xlink:href="#DejaVuSans-72" x="372.761719"/>
      <use xlink:href="#DejaVuSans-61" x="413.875"/>
      <use xlink:href="#DejaVuSans-79" x="475.154297"/>
     </g>
    </g>
   </g>
   <g id="text_13">
    <g id="patch_14">
     <path d="M 304.09112 511.744831 
L 393.237526 511.744831 
L 393.237526 495.114518 
L 304.09112 495.114518 
z
" clip-path="url(#pa58589fa04)" style="fill: #ffffff; opacity: 0.7; stroke: #000000; stroke-linejoin: miter"/>
    </g>
    <g clip-path="url(#pa58589fa04)">
     <!-- Sylvester Stallone -->
     <g transform="translate(308.05112 505.913112)scale(0.09 -0.09)">
      <use xlink:href="#DejaVuSans-53"/>
      <use xlink:href="#DejaVuSans-79" x="63.476562"/>
      <use xlink:href="#DejaVuSans-6c" x="122.65625"/>
      <use xlink:href="#DejaVuSans-76" x="150.439453"/>
      <use xlink:href="#DejaVuSans-65" x="209.619141"/>
      <use xlink:href="#DejaVuSans-73" x="271.142578"/>
      <use xlink:href="#DejaVuSans-74" x="323.242188"/>
      <use xlink:href="#DejaVuSans-65" x="362.451172"/>
      <use xlink:href="#DejaVuSans-72" x="423.974609"/>
      <use xlink:href="#DejaVuSans-20" x="465.087891"/>
      <use xlink:href="#DejaVuSans-53" x="496.875"/>
      <use xlink:href="#DejaVuSans-74" x="560.351562"/>
      <use xlink:href="#DejaVuSans-61" x="599.560547"/>
      <use xlink:href="#DejaVuSans-6c" x="660.839844"/>
      <use xlink:href="#DejaVuSans-6c" x="688.623047"/>
      <use xlink:href="#DejaVuSans-6f" x="716.40625"/>
      <use xlink:href="#DejaVuSans-6e" x="777.587891"/>
      <use xlink:href="#DejaVuSans-65" x="840.966797"/>
     </g>
    </g>
   </g>
   <g id="text_14">
    <g id="patch_15">
     <path d="M 391.517701 467.167441 
L 461.082076 467.167441 
L 461.082076 450.537129 
L 391.517701 450.537129 
z
" clip-path="url(#pa58589fa04)" style="fill: #ffffff; opacity: 0.7; stroke: #000000; stroke-linejoin: miter"/>
    </g>
    <g clip-path="url(#pa58589fa04)">
     <!-- J. K. Simmons -->
     <g transform="translate(395.477701 461.335723)scale(0.09 -0.09)">
      <defs>
       <path id="DejaVuSans-2e" d="M 684 794 
L 1344 794 
L 1344 0 
L 684 0 
L 684 794 
z
" transform="scale(0.015625)"/>
       <path id="DejaVuSans-4b" d="M 628 4666 
L 1259 4666 
L 1259 2694 
L 3353 4666 
L 4166 4666 
L 1850 2491 
L 4331 0 
L 3500 0 
L 1259 2247 
L 1259 0 
L 628 0 
L 628 4666 
z
" transform="scale(0.015625)"/>
      </defs>
      <use xlink:href="#DejaVuSans-4a"/>
      <use xlink:href="#DejaVuSans-2e" x="29.492188"/>
      <use xlink:href="#DejaVuSans-20" x="61.279297"/>
      <use xlink:href="#DejaVuSans-4b" x="93.066406"/>
      <use xlink:href="#DejaVuSans-2e" x="158.642578"/>
      <use xlink:href="#DejaVuSans-20" x="190.429688"/>
      <use xlink:href="#DejaVuSans-53" x="222.216797"/>
      <use xlink:href="#DejaVuSans-69" x="285.693359"/>
      <use xlink:href="#DejaVuSans-6d" x="313.476562"/>
      <use xlink:href="#DejaVuSans-6d" x="410.888672"/>
      <use xlink:href="#DejaVuSans-6f" x="508.300781"/>
      <use xlink:href="#DejaVuSans-6e" x="569.482422"/>
      <use xlink:href="#DejaVuSans-73" x="632.861328"/>
     </g>
    </g>
   </g>
   <g id="text_15">
    <g id="patch_16">
     <path d="M 453.925264 395.039741 
L 504.059483 395.039741 
L 504.059483 378.409428 
L 453.925264 378.409428 
z
" clip-path="url(#pa58589fa04)" style="fill: #ffffff; opacity: 0.7; stroke: #000000; stroke-linejoin: miter"/>
    </g>
    <g clip-path="url(#pa58589fa04)">
     <!-- Jonah Hill -->
     <g transform="translate(457.885264 389.208022)scale(0.09 -0.09)">
      <use xlink:href="#DejaVuSans-4a"/>
      <use xlink:href="#DejaVuSans-6f" x="29.492188"/>
      <use xlink:href="#DejaVuSans-6e" x="90.673828"/>
      <use xlink:href="#DejaVuSans-61" x="154.052734"/>
      <use xlink:href="#DejaVuSans-68" x="215.332031"/>
      <use xlink:href="#DejaVuSans-20" x="278.710938"/>
      <use xlink:href="#DejaVuSans-48" x="310.498047"/>
      <use xlink:href="#DejaVuSans-69" x="385.693359"/>
      <use xlink:href="#DejaVuSans-6c" x="413.476562"/>
      <use xlink:href="#DejaVuSans-6c" x="441.259766"/>
     </g>
    </g>
   </g>
   <g id="text_16">
    <!-- Impactful actors for Documentary genre -->
    <g transform="translate(163.4925 16.318125)scale(0.12 -0.12)">
     <defs>
      <path id="DejaVuSans-49" d="M 628 4666 
L 1259 4666 
L 1259 0 
L 628 0 
L 628 4666 
z
" transform="scale(0.015625)"/>
      <path id="DejaVuSans-70" d="M 1159 525 
L 1159 -1331 
L 581 -1331 
L 581 3500 
L 1159 3500 
L 1159 2969 
Q 1341 3281 1617 3432 
Q 1894 3584 2278 3584 
Q 2916 3584 3314 3078 
Q 3713 2572 3713 1747 
Q 3713 922 3314 415 
Q 2916 -91 2278 -91 
Q 1894 -91 1617 61 
Q 1341 213 1159 525 
z
M 3116 1747 
Q 3116 2381 2855 2742 
Q 2594 3103 2138 3103 
Q 1681 3103 1420 2742 
Q 1159 2381 1159 1747 
Q 1159 1113 1420 752 
Q 1681 391 2138 391 
Q 2594 391 2855 752 
Q 3116 1113 3116 1747 
z
" transform="scale(0.015625)"/>
      <path id="DejaVuSans-66" d="M 2375 4863 
L 2375 4384 
L 1825 4384 
Q 1516 4384 1395 4259 
Q 1275 4134 1275 3809 
L 1275 3500 
L 2222 3500 
L 2222 3053 
L 1275 3053 
L 1275 0 
L 697 0 
L 697 3053 
L 147 3053 
L 147 3500 
L 697 3500 
L 697 3744 
Q 697 4328 969 4595 
Q 1241 4863 1831 4863 
L 2375 4863 
z
" transform="scale(0.015625)"/>
     </defs>
     <use xlink:href="#DejaVuSans-49"/>
     <use xlink:href="#DejaVuSans-6d" x="29.492188"/>
     <use xlink:href="#DejaVuSans-70" x="126.904297"/>
     <use xlink:href="#DejaVuSans-61" x="190.380859"/>
     <use xlink:href="#DejaVuSans-63" x="251.660156"/>
     <use xlink:href="#DejaVuSans-74" x="306.640625"/>
     <use xlink:href="#DejaVuSans-66" x="345.849609"/>
     <use xlink:href="#DejaVuSans-75" x="381.054688"/>
     <use xlink:href="#DejaVuSans-6c" x="444.433594"/>
     <use xlink:href="#DejaVuSans-20" x="472.216797"/>
     <use xlink:href="#DejaVuSans-61" x="504.003906"/>
     <use xlink:href="#DejaVuSans-63" x="565.283203"/>
     <use xlink:href="#DejaVuSans-74" x="620.263672"/>
     <use xlink:href="#DejaVuSans-6f" x="659.472656"/>
     <use xlink:href="#DejaVuSans-72" x="720.654297"/>
     <use xlink:href="#DejaVuSans-73" x="761.767578"/>
     <use xlink:href="#DejaVuSans-20" x="813.867188"/>
     <use xlink:href="#DejaVuSans-66" x="845.654297"/>
     <use xlink:href="#DejaVuSans-6f" x="880.859375"/>
     <use xlink:href="#DejaVuSans-72" x="942.041016"/>
     <use xlink:href="#DejaVuSans-20" x="983.154297"/>
     <use xlink:href="#DejaVuSans-44" x="1014.941406"/>
     <use xlink:href="#DejaVuSans-6f" x="1091.943359"/>
     <use xlink:href="#DejaVuSans-63" x="1153.125"/>
     <use xlink:href="#DejaVuSans-75" x="1208.105469"/>
     <use xlink:href="#DejaVuSans-6d" x="1271.484375"/>
     <use xlink:href="#DejaVuSans-65" x="1368.896484"/>
     <use xlink:href="#DejaVuSans-6e" x="1430.419922"/>
     <use xlink:href="#DejaVuSans-74" x="1493.798828"/>
     <use xlink:href="#DejaVuSans-61" x="1533.007812"/>
     <use xlink:href="#DejaVuSans-72" x="1594.287109"/>
     <use xlink:href="#DejaVuSans-79" x="1635.400391"/>
     <use xlink:href="#DejaVuSans-20" x="1694.580078"/>
     <use xlink:href="#DejaVuSans-67" x="1726.367188"/>
     <use xlink:href="#DejaVuSans-65" x="1789.84375"/>
     <use xlink:href="#DejaVuSans-6e" x="1851.367188"/>
     <use xlink:href="#DejaVuSans-72" x="1914.746094"/>
     <use xlink:href="#DejaVuSans-65" x="1953.609375"/>
    </g>
   </g>
  </g>
 </g>
 <defs>
  <clipPath id="pa58589fa04">
   <rect x="7.2" y="22.318125" width="554.4" height="554.4"/>
  </clipPath>
 </defs>
</svg>
