<?xml version="1.0" encoding="utf-8" standalone="no"?>
<!DOCTYPE svg PUBLIC "-//W3C//DTD SVG 1.1//EN"
  "http://www.w3.org/Graphics/SVG/1.1/DTD/svg11.dtd">
<svg xmlns:xlink="http://www.w3.org/1999/xlink" width="568.8pt" height="583.918125pt" viewBox="0 0 568.8 583.918125" xmlns="http://www.w3.org/2000/svg" version="1.1">
 <metadata>
  <rdf:RDF xmlns:dc="http://purl.org/dc/elements/1.1/" xmlns:cc="http://creativecommons.org/ns#" xmlns:rdf="http://www.w3.org/1999/02/22-rdf-syntax-ns#">
   <cc:Work>
    <dc:type rdf:resource="http://purl.org/dc/dcmitype/StillImage"/>
    <dc:date>2022-12-23T19:49:51.640542</dc:date>
    <dc:format>image/svg+xml</dc:format>
    <dc:creator>
     <cc:Agent>
      <dc:title>Matplotlib v3.5.3, https://matplotlib.org/</dc:title>
     </cc:Agent>
    </dc:creator>
   </cc:Work>
  </rdf:RDF>
 </metadata>
 <defs>
  <style type="text/css">*{stroke-linejoin: round; stroke-linecap: butt}</style>
 </defs>
 <g id="figure_1">
  <g id="patch_1">
   <path d="M 0 583.918125 
L 568.8 583.918125 
L 568.8 0 
L 0 0 
z
" style="fill: #ffffff"/>
  </g>
  <g id="axes_1">
   <g id="LineCollection_1">
    <path d="M 259.509587 512.283442 
L 348.664323 502.974393 
" clip-path="url(#pcbf67743fb)" style="fill: none; stroke: #000000; stroke-opacity: 0.3; stroke-width: 5"/>
   </g>
   <g id="PathCollection_1">
    <path d="M 497.630769 326.671527 
C 504.893655 326.671527 511.86005 323.785951 516.995686 318.650316 
C 522.131322 313.51468 525.016897 306.548285 525.016897 299.285399 
C 525.016897 292.022513 522.131322 285.056118 516.995686 279.920482 
C 511.86005 274.784846 504.893655 271.899271 497.630769 271.899271 
C 490.367883 271.899271 483.401488 274.784846 478.265852 279.920482 
C 473.130217 285.056118 470.244641 292.022513 470.244641 299.285399 
C 470.244641 306.548285 473.130217 313.51468 478.265852 318.650316 
C 483.401488 323.785951 490.367883 326.671527 497.630769 326.671527 
z
" clip-path="url(#pcbf67743fb)" style="fill: #c70039; fill-opacity: 0.99; stroke: #c70039; stroke-opacity: 0.99"/>
    <path d="M 478.992348 238.804992 
C 486.054946 238.804992 492.82923 235.998992 497.823241 231.004981 
C 502.817253 226.010969 505.623253 219.236686 505.623253 212.174087 
C 505.623253 205.111488 502.817253 198.337205 497.823241 193.343193 
C 492.82923 188.349182 486.054946 185.543182 478.992348 185.543182 
C 471.929749 185.543182 465.155466 188.349182 460.161454 193.343193 
C 455.167443 198.337205 452.361443 205.111488 452.361443 212.174087 
C 452.361443 219.236686 455.167443 226.010969 460.161454 231.004981 
C 465.155466 235.998992 471.929749 238.804992 478.992348 238.804992 
z
" clip-path="url(#pcbf67743fb)" style="fill: #c70039; fill-opacity: 0.99; stroke: #c70039; stroke-opacity: 0.99"/>
    <path d="M 426.29985 164.695635 
C 432.816031 164.695635 439.066204 162.106729 443.67384 157.499093 
C 448.281476 152.891456 450.870382 146.641284 450.870382 140.125102 
C 450.870382 133.608921 448.281476 127.358748 443.67384 122.751112 
C 439.066204 118.143476 432.816031 115.55457 426.29985 115.55457 
C 419.783668 115.55457 413.533496 118.143476 408.92586 122.751112 
C 404.318224 127.358748 401.729317 133.608921 401.729317 140.125102 
C 401.729317 146.641284 404.318224 152.891456 408.92586 157.499093 
C 413.533496 162.106729 419.783668 164.695635 426.29985 164.695635 
z
" clip-path="url(#pcbf67743fb)" style="fill: #c70039; fill-opacity: 0.99; stroke: #c70039; stroke-opacity: 0.99"/>
    <path d="M 348.664291 119.963778 
C 355.126598 119.963778 361.325095 117.396276 365.894635 112.826735 
C 370.464176 108.257195 373.031677 102.058698 373.031677 95.596391 
C 373.031677 89.134085 370.464176 82.935588 365.894635 78.366047 
C 361.325095 73.796507 355.126598 71.229005 348.664291 71.229005 
C 342.201985 71.229005 336.003488 73.796507 331.433947 78.366047 
C 326.864407 82.935588 324.296905 89.134085 324.296905 95.596391 
C 324.296905 102.058698 326.864407 108.257195 331.433947 112.826735 
C 336.003488 117.396276 342.201985 119.963778 348.664291 119.963778 
z
" clip-path="url(#pcbf67743fb)" style="fill: #c70039; fill-opacity: 0.99; stroke: #c70039; stroke-opacity: 0.99"/>
    <path d="M 259.509549 110.123267 
C 265.830906 110.123267 271.894208 107.611765 276.364083 103.14189 
C 280.833958 98.672015 283.34546 92.608713 283.34546 86.287356 
C 283.34546 79.965998 280.833958 73.902696 276.364083 69.432821 
C 271.894208 64.962947 265.830906 62.451445 259.509549 62.451445 
C 253.188191 62.451445 247.124889 64.962947 242.655014 69.432821 
C 238.18514 73.902696 235.673638 79.965998 235.673638 86.287356 
C 235.673638 92.608713 238.18514 98.672015 242.655014 103.14189 
C 247.124889 107.611765 253.188191 110.123267 259.509549 110.123267 
z
" clip-path="url(#pcbf67743fb)" style="fill: #c70039; fill-opacity: 0.99; stroke: #c70039; stroke-opacity: 0.99"/>
    <path d="M 174.251298 136.928772 
C 180.383099 136.928772 186.264582 134.492582 190.60042 130.156744 
C 194.936257 125.820907 197.372447 119.939424 197.372447 113.807623 
C 197.372447 107.675823 194.936257 101.794339 190.60042 97.458502 
C 186.264582 93.122664 180.383099 90.686474 174.251298 90.686474 
C 168.119498 90.686474 162.238014 93.122664 157.902177 97.458502 
C 153.566339 101.794339 151.130149 107.675823 151.130149 113.807623 
C 151.130149 119.939424 153.566339 125.820907 157.902177 130.156744 
C 162.238014 134.492582 168.119498 136.928772 174.251298 136.928772 
z
" clip-path="url(#pcbf67743fb)" style="fill: #c70039; fill-opacity: 0.99; stroke: #c70039; stroke-opacity: 0.99"/>
    <path d="M 107.631477 196.223448 
C 113.684678 196.223448 119.49077 193.818486 123.77103 189.538227 
C 128.051289 185.257967 130.456251 179.451875 130.456251 173.398674 
C 130.456251 167.345473 128.051289 161.539381 123.77103 157.259121 
C 119.49077 152.978862 113.684678 150.5739 107.631477 150.5739 
C 101.578276 150.5739 95.772184 152.978862 91.491924 157.259121 
C 87.211665 161.539381 84.806703 167.345473 84.806703 173.398674 
C 84.806703 179.451875 87.211665 185.257967 91.491924 189.538227 
C 95.772184 193.818486 101.578276 196.223448 107.631477 196.223448 
z
" clip-path="url(#pcbf67743fb)" style="fill: #c70039; fill-opacity: 0.99; stroke: #c70039; stroke-opacity: 0.99"/>
    <path d="M 71.169231 277.370002 
C 77.166348 277.370002 82.918647 274.987322 87.15925 270.74672 
C 91.399852 266.506117 93.782533 260.753818 93.782533 254.756701 
C 93.782533 248.759583 91.399852 243.007284 87.15925 238.766682 
C 82.918647 234.526079 77.166348 232.143399 71.169231 232.143399 
C 65.172113 232.143399 59.419814 234.526079 55.179212 238.766682 
C 50.938609 243.007284 48.555929 248.759583 48.555929 254.756701 
C 48.555929 260.753818 50.938609 266.506117 55.179212 270.74672 
C 59.419814 274.987322 65.172113 277.370002 71.169231 277.370002 
z
" clip-path="url(#pcbf67743fb)" style="fill: #c70039; fill-opacity: 0.99; stroke: #c70039; stroke-opacity: 0.99"/>
    <path d="M 71.169244 365.710739 
C 76.976291 365.710739 82.546278 363.403574 86.65248 359.297372 
C 90.758683 355.19117 93.065847 349.621182 93.065847 343.814135 
C 93.065847 338.007088 90.758683 332.437101 86.65248 328.330898 
C 82.546278 324.224696 76.976291 321.917532 71.169244 321.917532 
C 65.362196 321.917532 59.792209 324.224696 55.686007 328.330898 
C 51.579804 332.437101 49.27264 338.007088 49.27264 343.814135 
C 49.27264 349.621182 51.579804 355.19117 55.686007 359.297372 
C 59.792209 363.403574 65.362196 365.710739 71.169244 365.710739 
z
" clip-path="url(#pcbf67743fb)" style="fill: #c70039; fill-opacity: 0.99; stroke: #c70039; stroke-opacity: 0.99"/>
    <path d="M 107.63149 446.095968 
C 113.180555 446.095968 118.503092 443.891301 122.426873 439.96752 
C 126.350655 436.043738 128.555321 430.721201 128.555321 425.172136 
C 128.555321 419.623071 126.350655 414.300535 122.426873 410.376753 
C 118.503092 406.452972 113.180555 404.248305 107.63149 404.248305 
C 102.082425 404.248305 96.759888 406.452972 92.836107 410.376753 
C 88.912325 414.300535 86.707658 419.623071 86.707658 425.172136 
C 86.707658 430.721201 88.912325 436.043738 92.836107 439.96752 
C 96.759888 443.891301 102.082425 446.095968 107.63149 446.095968 
z
" clip-path="url(#pcbf67743fb)" style="fill: #c70039; fill-opacity: 0.99; stroke: #c70039; stroke-opacity: 0.99"/>
    <path d="M 174.25133 504.635445 
C 179.521515 504.635445 184.576556 502.541579 188.303139 498.814996 
C 192.029722 495.088413 194.123588 490.033372 194.123588 484.763187 
C 194.123588 479.493003 192.029722 474.437962 188.303139 470.711379 
C 184.576556 466.984796 179.521515 464.890929 174.25133 464.890929 
C 168.981146 464.890929 163.926105 466.984796 160.199522 470.711379 
C 156.472939 474.437962 154.379072 479.493003 154.379072 484.763187 
C 154.379072 490.033372 156.472939 495.088413 160.199522 498.814996 
C 163.926105 502.541579 168.981146 504.635445 174.25133 504.635445 
z
" clip-path="url(#pcbf67743fb)" style="fill: #c70039; fill-opacity: 0.99; stroke: #c70039; stroke-opacity: 0.99"/>
    <path d="M 259.509587 532.122928 
C 264.77108 532.122928 269.817785 530.032514 273.538222 526.312077 
C 277.25866 522.591639 279.349073 517.544935 279.349073 512.283442 
C 279.349073 507.021949 277.25866 501.975244 273.538222 498.254807 
C 269.817785 494.534369 264.77108 492.443956 259.509587 492.443956 
C 254.248094 492.443956 249.20139 494.534369 245.480952 498.254807 
C 241.760515 501.975244 239.670101 507.021949 239.670101 512.283442 
C 239.670101 517.544935 241.760515 522.591639 245.480952 526.312077 
C 249.20139 530.032514 254.248094 532.122928 259.509587 532.122928 
z
" clip-path="url(#pcbf67743fb)" style="fill: #c70039; fill-opacity: 0.99; stroke: #c70039; stroke-opacity: 0.99"/>
    <path d="M 348.664323 522.583875 
C 353.864819 522.583875 358.853015 520.517697 362.530321 516.840391 
C 366.207627 513.163085 368.273805 508.174889 368.273805 502.974393 
C 368.273805 497.773898 366.207627 492.785701 362.530321 489.108396 
C 358.853015 485.43109 353.864819 483.364911 348.664323 483.364911 
C 343.463828 483.364911 338.475631 485.43109 334.798326 489.108396 
C 331.12102 492.785701 329.054841 497.773898 329.054841 502.974393 
C 329.054841 508.174889 331.12102 513.163085 334.798326 516.840391 
C 338.475631 520.517697 343.463828 522.583875 348.664323 522.583875 
z
" clip-path="url(#pcbf67743fb)" style="fill: #c70039; fill-opacity: 0.99; stroke: #c70039; stroke-opacity: 0.99"/>
    <path d="M 426.299888 477.964401 
C 431.47632 477.964401 436.441435 475.907783 440.101725 472.247494 
C 443.762015 468.587204 445.818633 463.622088 445.818633 458.445657 
C 445.818633 453.269225 443.762015 448.30411 440.101725 444.64382 
C 436.441435 440.98353 431.47632 438.926912 426.299888 438.926912 
C 421.123457 438.926912 416.158342 440.98353 412.498052 444.64382 
C 408.837762 448.30411 406.781144 453.269225 406.781144 458.445657 
C 406.781144 463.622088 408.837762 468.587204 412.498052 472.247494 
C 416.158342 475.907783 421.123457 477.964401 426.299888 477.964401 
z
" clip-path="url(#pcbf67743fb)" style="fill: #c70039; fill-opacity: 0.99; stroke: #c70039; stroke-opacity: 0.99"/>
    <path d="M 478.992374 405.761595 
C 484.128009 405.761595 489.053994 403.721186 492.685437 400.089743 
C 496.31688 396.4583 498.35729 391.532315 498.35729 386.396679 
C 498.35729 381.261043 496.31688 376.335058 492.685437 372.703615 
C 489.053994 369.072172 484.128009 367.031762 478.992374 367.031762 
C 473.856738 367.031762 468.930753 369.072172 465.29931 372.703615 
C 461.667867 376.335058 459.627457 381.261043 459.627457 386.396679 
C 459.627457 391.532315 461.667867 396.4583 465.29931 400.089743 
C 468.930753 403.721186 473.856738 405.761595 478.992374 405.761595 
z
" clip-path="url(#pcbf67743fb)" style="fill: #c70039; fill-opacity: 0.99; stroke: #c70039; stroke-opacity: 0.99"/>
   </g>
   <g id="text_1">
    <g id="patch_2">
     <path d="M 460.540222 307.600555 
L 534.721316 307.600555 
L 534.721316 290.970243 
L 460.540222 290.970243 
z
" clip-path="url(#pcbf67743fb)" style="fill: #ffffff; opacity: 0.7; stroke: #000000; stroke-linejoin: miter"/>
    </g>
    <g clip-path="url(#pcbf67743fb)">
     <!-- Robert De Niro -->
     <g transform="translate(464.500222 301.768836)scale(0.09 -0.09)">
      <defs>
       <path id="DejaVuSans-52" d="M 2841 2188 
Q 3044 2119 3236 1894 
Q 3428 1669 3622 1275 
L 4263 0 
L 3584 0 
L 2988 1197 
Q 2756 1666 2539 1819 
Q 2322 1972 1947 1972 
L 1259 1972 
L 1259 0 
L 628 0 
L 628 4666 
L 2053 4666 
Q 2853 4666 3247 4331 
Q 3641 3997 3641 3322 
Q 3641 2881 3436 2590 
Q 3231 2300 2841 2188 
z
M 1259 4147 
L 1259 2491 
L 2053 2491 
Q 2509 2491 2742 2702 
Q 2975 2913 2975 3322 
Q 2975 3731 2742 3939 
Q 2509 4147 2053 4147 
L 1259 4147 
z
" transform="scale(0.015625)"/>
       <path id="DejaVuSans-6f" d="M 1959 3097 
Q 1497 3097 1228 2736 
Q 959 2375 959 1747 
Q 959 1119 1226 758 
Q 1494 397 1959 397 
Q 2419 397 2687 759 
Q 2956 1122 2956 1747 
Q 2956 2369 2687 2733 
Q 2419 3097 1959 3097 
z
M 1959 3584 
Q 2709 3584 3137 3096 
Q 3566 2609 3566 1747 
Q 3566 888 3137 398 
Q 2709 -91 1959 -91 
Q 1206 -91 779 398 
Q 353 888 353 1747 
Q 353 2609 779 3096 
Q 1206 3584 1959 3584 
z
" transform="scale(0.015625)"/>
       <path id="DejaVuSans-62" d="M 3116 1747 
Q 3116 2381 2855 2742 
Q 2594 3103 2138 3103 
Q 1681 3103 1420 2742 
Q 1159 2381 1159 1747 
Q 1159 1113 1420 752 
Q 1681 391 2138 391 
Q 2594 391 2855 752 
Q 3116 1113 3116 1747 
z
M 1159 2969 
Q 1341 3281 1617 3432 
Q 1894 3584 2278 3584 
Q 2916 3584 3314 3078 
Q 3713 2572 3713 1747 
Q 3713 922 3314 415 
Q 2916 -91 2278 -91 
Q 1894 -91 1617 61 
Q 1341 213 1159 525 
L 1159 0 
L 581 0 
L 581 4863 
L 1159 4863 
L 1159 2969 
z
" transform="scale(0.015625)"/>
       <path id="DejaVuSans-65" d="M 3597 1894 
L 3597 1613 
L 953 1613 
Q 991 1019 1311 708 
Q 1631 397 2203 397 
Q 2534 397 2845 478 
Q 3156 559 3463 722 
L 3463 178 
Q 3153 47 2828 -22 
Q 2503 -91 2169 -91 
Q 1331 -91 842 396 
Q 353 884 353 1716 
Q 353 2575 817 3079 
Q 1281 3584 2069 3584 
Q 2775 3584 3186 3129 
Q 3597 2675 3597 1894 
z
M 3022 2063 
Q 3016 2534 2758 2815 
Q 2500 3097 2075 3097 
Q 1594 3097 1305 2825 
Q 1016 2553 972 2059 
L 3022 2063 
z
" transform="scale(0.015625)"/>
       <path id="DejaVuSans-72" d="M 2631 2963 
Q 2534 3019 2420 3045 
Q 2306 3072 2169 3072 
Q 1681 3072 1420 2755 
Q 1159 2438 1159 1844 
L 1159 0 
L 581 0 
L 581 3500 
L 1159 3500 
L 1159 2956 
Q 1341 3275 1631 3429 
Q 1922 3584 2338 3584 
Q 2397 3584 2469 3576 
Q 2541 3569 2628 3553 
L 2631 2963 
z
" transform="scale(0.015625)"/>
       <path id="DejaVuSans-74" d="M 1172 4494 
L 1172 3500 
L 2356 3500 
L 2356 3053 
L 1172 3053 
L 1172 1153 
Q 1172 725 1289 603 
Q 1406 481 1766 481 
L 2356 481 
L 2356 0 
L 1766 0 
Q 1100 0 847 248 
Q 594 497 594 1153 
L 594 3053 
L 172 3053 
L 172 3500 
L 594 3500 
L 594 4494 
L 1172 4494 
z
" transform="scale(0.015625)"/>
       <path id="DejaVuSans-20" transform="scale(0.015625)"/>
       <path id="DejaVuSans-44" d="M 1259 4147 
L 1259 519 
L 2022 519 
Q 2988 519 3436 956 
Q 3884 1394 3884 2338 
Q 3884 3275 3436 3711 
Q 2988 4147 2022 4147 
L 1259 4147 
z
M 628 4666 
L 1925 4666 
Q 3281 4666 3915 4102 
Q 4550 3538 4550 2338 
Q 4550 1131 3912 565 
Q 3275 0 1925 0 
L 628 0 
L 628 4666 
z
" transform="scale(0.015625)"/>
       <path id="DejaVuSans-4e" d="M 628 4666 
L 1478 4666 
L 3547 763 
L 3547 4666 
L 4159 4666 
L 4159 0 
L 3309 0 
L 1241 3903 
L 1241 0 
L 628 0 
L 628 4666 
z
" transform="scale(0.015625)"/>
       <path id="DejaVuSans-69" d="M 603 3500 
L 1178 3500 
L 1178 0 
L 603 0 
L 603 3500 
z
M 603 4863 
L 1178 4863 
L 1178 4134 
L 603 4134 
L 603 4863 
z
" transform="scale(0.015625)"/>
      </defs>
      <use xlink:href="#DejaVuSans-52"/>
      <use xlink:href="#DejaVuSans-6f" x="64.982422"/>
      <use xlink:href="#DejaVuSans-62" x="126.164062"/>
      <use xlink:href="#DejaVuSans-65" x="189.640625"/>
      <use xlink:href="#DejaVuSans-72" x="251.164062"/>
      <use xlink:href="#DejaVuSans-74" x="292.277344"/>
      <use xlink:href="#DejaVuSans-20" x="331.486328"/>
      <use xlink:href="#DejaVuSans-44" x="363.273438"/>
      <use xlink:href="#DejaVuSans-65" x="440.275391"/>
      <use xlink:href="#DejaVuSans-20" x="501.798828"/>
      <use xlink:href="#DejaVuSans-4e" x="533.585938"/>
      <use xlink:href="#DejaVuSans-69" x="608.390625"/>
      <use xlink:href="#DejaVuSans-72" x="636.173828"/>
      <use xlink:href="#DejaVuSans-6f" x="675.037109"/>
     </g>
    </g>
   </g>
   <g id="text_2">
    <g id="patch_3">
     <path d="M 441.619848 220.489243 
L 516.364848 220.489243 
L 516.364848 203.858931 
L 441.619848 203.858931 
z
" clip-path="url(#pcbf67743fb)" style="fill: #ffffff; opacity: 0.7; stroke: #000000; stroke-linejoin: miter"/>
    </g>
    <g clip-path="url(#pcbf67743fb)">
     <!-- Steve Buscemi -->
     <g transform="translate(445.579848 214.657524)scale(0.09 -0.09)">
      <defs>
       <path id="DejaVuSans-53" d="M 3425 4513 
L 3425 3897 
Q 3066 4069 2747 4153 
Q 2428 4238 2131 4238 
Q 1616 4238 1336 4038 
Q 1056 3838 1056 3469 
Q 1056 3159 1242 3001 
Q 1428 2844 1947 2747 
L 2328 2669 
Q 3034 2534 3370 2195 
Q 3706 1856 3706 1288 
Q 3706 609 3251 259 
Q 2797 -91 1919 -91 
Q 1588 -91 1214 -16 
Q 841 59 441 206 
L 441 856 
Q 825 641 1194 531 
Q 1563 422 1919 422 
Q 2459 422 2753 634 
Q 3047 847 3047 1241 
Q 3047 1584 2836 1778 
Q 2625 1972 2144 2069 
L 1759 2144 
Q 1053 2284 737 2584 
Q 422 2884 422 3419 
Q 422 4038 858 4394 
Q 1294 4750 2059 4750 
Q 2388 4750 2728 4690 
Q 3069 4631 3425 4513 
z
" transform="scale(0.015625)"/>
       <path id="DejaVuSans-76" d="M 191 3500 
L 800 3500 
L 1894 563 
L 2988 3500 
L 3597 3500 
L 2284 0 
L 1503 0 
L 191 3500 
z
" transform="scale(0.015625)"/>
       <path id="DejaVuSans-42" d="M 1259 2228 
L 1259 519 
L 2272 519 
Q 2781 519 3026 730 
Q 3272 941 3272 1375 
Q 3272 1813 3026 2020 
Q 2781 2228 2272 2228 
L 1259 2228 
z
M 1259 4147 
L 1259 2741 
L 2194 2741 
Q 2656 2741 2882 2914 
Q 3109 3088 3109 3444 
Q 3109 3797 2882 3972 
Q 2656 4147 2194 4147 
L 1259 4147 
z
M 628 4666 
L 2241 4666 
Q 2963 4666 3353 4366 
Q 3744 4066 3744 3513 
Q 3744 3084 3544 2831 
Q 3344 2578 2956 2516 
Q 3422 2416 3680 2098 
Q 3938 1781 3938 1306 
Q 3938 681 3513 340 
Q 3088 0 2303 0 
L 628 0 
L 628 4666 
z
" transform="scale(0.015625)"/>
       <path id="DejaVuSans-75" d="M 544 1381 
L 544 3500 
L 1119 3500 
L 1119 1403 
Q 1119 906 1312 657 
Q 1506 409 1894 409 
Q 2359 409 2629 706 
Q 2900 1003 2900 1516 
L 2900 3500 
L 3475 3500 
L 3475 0 
L 2900 0 
L 2900 538 
Q 2691 219 2414 64 
Q 2138 -91 1772 -91 
Q 1169 -91 856 284 
Q 544 659 544 1381 
z
M 1991 3584 
L 1991 3584 
z
" transform="scale(0.015625)"/>
       <path id="DejaVuSans-73" d="M 2834 3397 
L 2834 2853 
Q 2591 2978 2328 3040 
Q 2066 3103 1784 3103 
Q 1356 3103 1142 2972 
Q 928 2841 928 2578 
Q 928 2378 1081 2264 
Q 1234 2150 1697 2047 
L 1894 2003 
Q 2506 1872 2764 1633 
Q 3022 1394 3022 966 
Q 3022 478 2636 193 
Q 2250 -91 1575 -91 
Q 1294 -91 989 -36 
Q 684 19 347 128 
L 347 722 
Q 666 556 975 473 
Q 1284 391 1588 391 
Q 1994 391 2212 530 
Q 2431 669 2431 922 
Q 2431 1156 2273 1281 
Q 2116 1406 1581 1522 
L 1381 1569 
Q 847 1681 609 1914 
Q 372 2147 372 2553 
Q 372 3047 722 3315 
Q 1072 3584 1716 3584 
Q 2034 3584 2315 3537 
Q 2597 3491 2834 3397 
z
" transform="scale(0.015625)"/>
       <path id="DejaVuSans-63" d="M 3122 3366 
L 3122 2828 
Q 2878 2963 2633 3030 
Q 2388 3097 2138 3097 
Q 1578 3097 1268 2742 
Q 959 2388 959 1747 
Q 959 1106 1268 751 
Q 1578 397 2138 397 
Q 2388 397 2633 464 
Q 2878 531 3122 666 
L 3122 134 
Q 2881 22 2623 -34 
Q 2366 -91 2075 -91 
Q 1284 -91 818 406 
Q 353 903 353 1747 
Q 353 2603 823 3093 
Q 1294 3584 2113 3584 
Q 2378 3584 2631 3529 
Q 2884 3475 3122 3366 
z
" transform="scale(0.015625)"/>
       <path id="DejaVuSans-6d" d="M 3328 2828 
Q 3544 3216 3844 3400 
Q 4144 3584 4550 3584 
Q 5097 3584 5394 3201 
Q 5691 2819 5691 2113 
L 5691 0 
L 5113 0 
L 5113 2094 
Q 5113 2597 4934 2840 
Q 4756 3084 4391 3084 
Q 3944 3084 3684 2787 
Q 3425 2491 3425 1978 
L 3425 0 
L 2847 0 
L 2847 2094 
Q 2847 2600 2669 2842 
Q 2491 3084 2119 3084 
Q 1678 3084 1418 2786 
Q 1159 2488 1159 1978 
L 1159 0 
L 581 0 
L 581 3500 
L 1159 3500 
L 1159 2956 
Q 1356 3278 1631 3431 
Q 1906 3584 2284 3584 
Q 2666 3584 2933 3390 
Q 3200 3197 3328 2828 
z
" transform="scale(0.015625)"/>
      </defs>
      <use xlink:href="#DejaVuSans-53"/>
      <use xlink:href="#DejaVuSans-74" x="63.476562"/>
      <use xlink:href="#DejaVuSans-65" x="102.685547"/>
      <use xlink:href="#DejaVuSans-76" x="164.208984"/>
      <use xlink:href="#DejaVuSans-65" x="223.388672"/>
      <use xlink:href="#DejaVuSans-20" x="284.912109"/>
      <use xlink:href="#DejaVuSans-42" x="316.699219"/>
      <use xlink:href="#DejaVuSans-75" x="385.302734"/>
      <use xlink:href="#DejaVuSans-73" x="448.681641"/>
      <use xlink:href="#DejaVuSans-63" x="500.78125"/>
      <use xlink:href="#DejaVuSans-65" x="555.761719"/>
      <use xlink:href="#DejaVuSans-6d" x="617.285156"/>
      <use xlink:href="#DejaVuSans-69" x="714.697266"/>
     </g>
    </g>
   </g>
   <g id="text_3">
    <g id="patch_4">
     <path d="M 400.586569 148.440259 
L 452.013131 148.440259 
L 452.013131 131.809946 
L 400.586569 131.809946 
z
" clip-path="url(#pcbf67743fb)" style="fill: #ffffff; opacity: 0.7; stroke: #000000; stroke-linejoin: miter"/>
    </g>
    <g clip-path="url(#pcbf67743fb)">
     <!-- Mel Blanc -->
     <g transform="translate(404.546569 142.60854)scale(0.09 -0.09)">
      <defs>
       <path id="DejaVuSans-4d" d="M 628 4666 
L 1569 4666 
L 2759 1491 
L 3956 4666 
L 4897 4666 
L 4897 0 
L 4281 0 
L 4281 4097 
L 3078 897 
L 2444 897 
L 1241 4097 
L 1241 0 
L 628 0 
L 628 4666 
z
" transform="scale(0.015625)"/>
       <path id="DejaVuSans-6c" d="M 603 4863 
L 1178 4863 
L 1178 0 
L 603 0 
L 603 4863 
z
" transform="scale(0.015625)"/>
       <path id="DejaVuSans-61" d="M 2194 1759 
Q 1497 1759 1228 1600 
Q 959 1441 959 1056 
Q 959 750 1161 570 
Q 1363 391 1709 391 
Q 2188 391 2477 730 
Q 2766 1069 2766 1631 
L 2766 1759 
L 2194 1759 
z
M 3341 1997 
L 3341 0 
L 2766 0 
L 2766 531 
Q 2569 213 2275 61 
Q 1981 -91 1556 -91 
Q 1019 -91 701 211 
Q 384 513 384 1019 
Q 384 1609 779 1909 
Q 1175 2209 1959 2209 
L 2766 2209 
L 2766 2266 
Q 2766 2663 2505 2880 
Q 2244 3097 1772 3097 
Q 1472 3097 1187 3025 
Q 903 2953 641 2809 
L 641 3341 
Q 956 3463 1253 3523 
Q 1550 3584 1831 3584 
Q 2591 3584 2966 3190 
Q 3341 2797 3341 1997 
z
" transform="scale(0.015625)"/>
       <path id="DejaVuSans-6e" d="M 3513 2113 
L 3513 0 
L 2938 0 
L 2938 2094 
Q 2938 2591 2744 2837 
Q 2550 3084 2163 3084 
Q 1697 3084 1428 2787 
Q 1159 2491 1159 1978 
L 1159 0 
L 581 0 
L 581 3500 
L 1159 3500 
L 1159 2956 
Q 1366 3272 1645 3428 
Q 1925 3584 2291 3584 
Q 2894 3584 3203 3211 
Q 3513 2838 3513 2113 
z
" transform="scale(0.015625)"/>
      </defs>
      <use xlink:href="#DejaVuSans-4d"/>
      <use xlink:href="#DejaVuSans-65" x="86.279297"/>
      <use xlink:href="#DejaVuSans-6c" x="147.802734"/>
      <use xlink:href="#DejaVuSans-20" x="175.585938"/>
      <use xlink:href="#DejaVuSans-42" x="207.373047"/>
      <use xlink:href="#DejaVuSans-6c" x="275.976562"/>
      <use xlink:href="#DejaVuSans-61" x="303.759766"/>
      <use xlink:href="#DejaVuSans-6e" x="365.039062"/>
      <use xlink:href="#DejaVuSans-63" x="428.417969"/>
     </g>
    </g>
   </g>
   <g id="text_4">
    <g id="patch_5">
     <path d="M 315.608276 103.911548 
L 381.720307 103.911548 
L 381.720307 87.281235 
L 315.608276 87.281235 
z
" clip-path="url(#pcbf67743fb)" style="fill: #ffffff; opacity: 0.7; stroke: #000000; stroke-linejoin: miter"/>
    </g>
    <g clip-path="url(#pcbf67743fb)">
     <!-- John Travolta -->
     <g transform="translate(319.568276 98.079829)scale(0.09 -0.09)">
      <defs>
       <path id="DejaVuSans-4a" d="M 628 4666 
L 1259 4666 
L 1259 325 
Q 1259 -519 939 -900 
Q 619 -1281 -91 -1281 
L -331 -1281 
L -331 -750 
L -134 -750 
Q 284 -750 456 -515 
Q 628 -281 628 325 
L 628 4666 
z
" transform="scale(0.015625)"/>
       <path id="DejaVuSans-68" d="M 3513 2113 
L 3513 0 
L 2938 0 
L 2938 2094 
Q 2938 2591 2744 2837 
Q 2550 3084 2163 3084 
Q 1697 3084 1428 2787 
Q 1159 2491 1159 1978 
L 1159 0 
L 581 0 
L 581 4863 
L 1159 4863 
L 1159 2956 
Q 1366 3272 1645 3428 
Q 1925 3584 2291 3584 
Q 2894 3584 3203 3211 
Q 3513 2838 3513 2113 
z
" transform="scale(0.015625)"/>
       <path id="DejaVuSans-54" d="M -19 4666 
L 3928 4666 
L 3928 4134 
L 2272 4134 
L 2272 0 
L 1638 0 
L 1638 4134 
L -19 4134 
L -19 4666 
z
" transform="scale(0.015625)"/>
      </defs>
      <use xlink:href="#DejaVuSans-4a"/>
      <use xlink:href="#DejaVuSans-6f" x="29.492188"/>
      <use xlink:href="#DejaVuSans-68" x="90.673828"/>
      <use xlink:href="#DejaVuSans-6e" x="154.052734"/>
      <use xlink:href="#DejaVuSans-20" x="217.431641"/>
      <use xlink:href="#DejaVuSans-54" x="249.21875"/>
      <use xlink:href="#DejaVuSans-72" x="295.552734"/>
      <use xlink:href="#DejaVuSans-61" x="336.666016"/>
      <use xlink:href="#DejaVuSans-76" x="397.945312"/>
      <use xlink:href="#DejaVuSans-6f" x="457.125"/>
      <use xlink:href="#DejaVuSans-6c" x="518.306641"/>
      <use xlink:href="#DejaVuSans-74" x="546.089844"/>
      <use xlink:href="#DejaVuSans-61" x="585.298828"/>
     </g>
    </g>
   </g>
   <g id="text_5">
    <g id="patch_6">
     <path d="M 214.936345 94.602512 
L 304.082752 94.602512 
L 304.082752 77.9722 
L 214.936345 77.9722 
z
" clip-path="url(#pcbf67743fb)" style="fill: #ffffff; opacity: 0.7; stroke: #000000; stroke-linejoin: miter"/>
    </g>
    <g clip-path="url(#pcbf67743fb)">
     <!-- Sylvester Stallone -->
     <g transform="translate(218.896345 88.770793)scale(0.09 -0.09)">
      <defs>
       <path id="DejaVuSans-79" d="M 2059 -325 
Q 1816 -950 1584 -1140 
Q 1353 -1331 966 -1331 
L 506 -1331 
L 506 -850 
L 844 -850 
Q 1081 -850 1212 -737 
Q 1344 -625 1503 -206 
L 1606 56 
L 191 3500 
L 800 3500 
L 1894 763 
L 2988 3500 
L 3597 3500 
L 2059 -325 
z
" transform="scale(0.015625)"/>
      </defs>
      <use xlink:href="#DejaVuSans-53"/>
      <use xlink:href="#DejaVuSans-79" x="63.476562"/>
      <use xlink:href="#DejaVuSans-6c" x="122.65625"/>
      <use xlink:href="#DejaVuSans-76" x="150.439453"/>
      <use xlink:href="#DejaVuSans-65" x="209.619141"/>
      <use xlink:href="#DejaVuSans-73" x="271.142578"/>
      <use xlink:href="#DejaVuSans-74" x="323.242188"/>
      <use xlink:href="#DejaVuSans-65" x="362.451172"/>
      <use xlink:href="#DejaVuSans-72" x="423.974609"/>
      <use xlink:href="#DejaVuSans-20" x="465.087891"/>
      <use xlink:href="#DejaVuSans-53" x="496.875"/>
      <use xlink:href="#DejaVuSans-74" x="560.351562"/>
      <use xlink:href="#DejaVuSans-61" x="599.560547"/>
      <use xlink:href="#DejaVuSans-6c" x="660.839844"/>
      <use xlink:href="#DejaVuSans-6c" x="688.623047"/>
      <use xlink:href="#DejaVuSans-6f" x="716.40625"/>
      <use xlink:href="#DejaVuSans-6e" x="777.587891"/>
      <use xlink:href="#DejaVuSans-65" x="840.966797"/>
     </g>
    </g>
   </g>
   <g id="text_6">
    <g id="patch_7">
     <path d="M 138.367314 122.122779 
L 210.135282 122.122779 
L 210.135282 105.492467 
L 138.367314 105.492467 
z
" clip-path="url(#pcbf67743fb)" style="fill: #ffffff; opacity: 0.7; stroke: #000000; stroke-linejoin: miter"/>
    </g>
    <g clip-path="url(#pcbf67743fb)">
     <!-- Anne Bancroft -->
     <g transform="translate(142.327314 116.291061)scale(0.09 -0.09)">
      <defs>
       <path id="DejaVuSans-41" d="M 2188 4044 
L 1331 1722 
L 3047 1722 
L 2188 4044 
z
M 1831 4666 
L 2547 4666 
L 4325 0 
L 3669 0 
L 3244 1197 
L 1141 1197 
L 716 0 
L 50 0 
L 1831 4666 
z
" transform="scale(0.015625)"/>
       <path id="DejaVuSans-66" d="M 2375 4863 
L 2375 4384 
L 1825 4384 
Q 1516 4384 1395 4259 
Q 1275 4134 1275 3809 
L 1275 3500 
L 2222 3500 
L 2222 3053 
L 1275 3053 
L 1275 0 
L 697 0 
L 697 3053 
L 147 3053 
L 147 3500 
L 697 3500 
L 697 3744 
Q 697 4328 969 4595 
Q 1241 4863 1831 4863 
L 2375 4863 
z
" transform="scale(0.015625)"/>
      </defs>
      <use xlink:href="#DejaVuSans-41"/>
      <use xlink:href="#DejaVuSans-6e" x="68.408203"/>
      <use xlink:href="#DejaVuSans-6e" x="131.787109"/>
      <use xlink:href="#DejaVuSans-65" x="195.166016"/>
      <use xlink:href="#DejaVuSans-20" x="256.689453"/>
      <use xlink:href="#DejaVuSans-42" x="288.476562"/>
      <use xlink:href="#DejaVuSans-61" x="357.080078"/>
      <use xlink:href="#DejaVuSans-6e" x="418.359375"/>
      <use xlink:href="#DejaVuSans-63" x="481.738281"/>
      <use xlink:href="#DejaVuSans-72" x="536.71875"/>
      <use xlink:href="#DejaVuSans-6f" x="575.582031"/>
      <use xlink:href="#DejaVuSans-66" x="636.763672"/>
      <use xlink:href="#DejaVuSans-74" x="670.21875"/>
     </g>
    </g>
   </g>
   <g id="text_7">
    <g id="patch_8">
     <path d="M 74.209836 181.71383 
L 141.053118 181.71383 
L 141.053118 165.083518 
L 74.209836 165.083518 
z
" clip-path="url(#pcbf67743fb)" style="fill: #ffffff; opacity: 0.7; stroke: #000000; stroke-linejoin: miter"/>
    </g>
    <g clip-path="url(#pcbf67743fb)">
     <!-- Stanley Tucci -->
     <g transform="translate(78.169836 175.882112)scale(0.09 -0.09)">
      <use xlink:href="#DejaVuSans-53"/>
      <use xlink:href="#DejaVuSans-74" x="63.476562"/>
      <use xlink:href="#DejaVuSans-61" x="102.685547"/>
      <use xlink:href="#DejaVuSans-6e" x="163.964844"/>
      <use xlink:href="#DejaVuSans-6c" x="227.34375"/>
      <use xlink:href="#DejaVuSans-65" x="255.126953"/>
      <use xlink:href="#DejaVuSans-79" x="316.650391"/>
      <use xlink:href="#DejaVuSans-20" x="375.830078"/>
      <use xlink:href="#DejaVuSans-54" x="407.617188"/>
      <use xlink:href="#DejaVuSans-75" x="453.576172"/>
      <use xlink:href="#DejaVuSans-63" x="516.955078"/>
      <use xlink:href="#DejaVuSans-63" x="571.935547"/>
      <use xlink:href="#DejaVuSans-69" x="626.916016"/>
     </g>
    </g>
   </g>
   <g id="text_8">
    <g id="patch_9">
     <path d="M 44.535559 263.071857 
L 97.802903 263.071857 
L 97.802903 246.441544 
L 44.535559 246.441544 
z
" clip-path="url(#pcbf67743fb)" style="fill: #ffffff; opacity: 0.7; stroke: #000000; stroke-linejoin: miter"/>
    </g>
    <g clip-path="url(#pcbf67743fb)">
     <!-- Ray Liotta -->
     <g transform="translate(48.495559 257.240138)scale(0.09 -0.09)">
      <defs>
       <path id="DejaVuSans-4c" d="M 628 4666 
L 1259 4666 
L 1259 531 
L 3531 531 
L 3531 0 
L 628 0 
L 628 4666 
z
" transform="scale(0.015625)"/>
      </defs>
      <use xlink:href="#DejaVuSans-52"/>
      <use xlink:href="#DejaVuSans-61" x="67.232422"/>
      <use xlink:href="#DejaVuSans-79" x="128.511719"/>
      <use xlink:href="#DejaVuSans-20" x="187.691406"/>
      <use xlink:href="#DejaVuSans-4c" x="219.478516"/>
      <use xlink:href="#DejaVuSans-69" x="275.191406"/>
      <use xlink:href="#DejaVuSans-6f" x="302.974609"/>
      <use xlink:href="#DejaVuSans-74" x="364.15625"/>
      <use xlink:href="#DejaVuSans-74" x="403.365234"/>
      <use xlink:href="#DejaVuSans-61" x="442.574219"/>
     </g>
    </g>
   </g>
   <g id="text_9">
    <g id="patch_10">
     <path d="M 34.717837 352.129291 
L 107.62065 352.129291 
L 107.62065 335.498979 
L 34.717837 335.498979 
z
" clip-path="url(#pcbf67743fb)" style="fill: #ffffff; opacity: 0.7; stroke: #000000; stroke-linejoin: miter"/>
    </g>
    <g clip-path="url(#pcbf67743fb)">
     <!-- Jack Nicholson -->
     <g transform="translate(38.677837 346.297573)scale(0.09 -0.09)">
      <defs>
       <path id="DejaVuSans-6b" d="M 581 4863 
L 1159 4863 
L 1159 1991 
L 2875 3500 
L 3609 3500 
L 1753 1863 
L 3688 0 
L 2938 0 
L 1159 1709 
L 1159 0 
L 581 0 
L 581 4863 
z
" transform="scale(0.015625)"/>
      </defs>
      <use xlink:href="#DejaVuSans-4a"/>
      <use xlink:href="#DejaVuSans-61" x="29.492188"/>
      <use xlink:href="#DejaVuSans-63" x="90.771484"/>
      <use xlink:href="#DejaVuSans-6b" x="145.751953"/>
      <use xlink:href="#DejaVuSans-20" x="203.662109"/>
      <use xlink:href="#DejaVuSans-4e" x="235.449219"/>
      <use xlink:href="#DejaVuSans-69" x="310.253906"/>
      <use xlink:href="#DejaVuSans-63" x="338.037109"/>
      <use xlink:href="#DejaVuSans-68" x="393.017578"/>
      <use xlink:href="#DejaVuSans-6f" x="456.396484"/>
      <use xlink:href="#DejaVuSans-6c" x="517.578125"/>
      <use xlink:href="#DejaVuSans-73" x="545.361328"/>
      <use xlink:href="#DejaVuSans-6f" x="597.460938"/>
      <use xlink:href="#DejaVuSans-6e" x="658.642578"/>
     </g>
    </g>
   </g>
   <g id="text_10">
    <g id="patch_11">
     <path d="M 72.899927 433.487293 
L 142.363052 433.487293 
L 142.363052 416.85698 
L 72.899927 416.85698 
z
" clip-path="url(#pcbf67743fb)" style="fill: #ffffff; opacity: 0.7; stroke: #000000; stroke-linejoin: miter"/>
    </g>
    <g clip-path="url(#pcbf67743fb)">
     <!-- Joe Mantegna -->
     <g transform="translate(76.859927 427.655574)scale(0.09 -0.09)">
      <defs>
       <path id="DejaVuSans-67" d="M 2906 1791 
Q 2906 2416 2648 2759 
Q 2391 3103 1925 3103 
Q 1463 3103 1205 2759 
Q 947 2416 947 1791 
Q 947 1169 1205 825 
Q 1463 481 1925 481 
Q 2391 481 2648 825 
Q 2906 1169 2906 1791 
z
M 3481 434 
Q 3481 -459 3084 -895 
Q 2688 -1331 1869 -1331 
Q 1566 -1331 1297 -1286 
Q 1028 -1241 775 -1147 
L 775 -588 
Q 1028 -725 1275 -790 
Q 1522 -856 1778 -856 
Q 2344 -856 2625 -561 
Q 2906 -266 2906 331 
L 2906 616 
Q 2728 306 2450 153 
Q 2172 0 1784 0 
Q 1141 0 747 490 
Q 353 981 353 1791 
Q 353 2603 747 3093 
Q 1141 3584 1784 3584 
Q 2172 3584 2450 3431 
Q 2728 3278 2906 2969 
L 2906 3500 
L 3481 3500 
L 3481 434 
z
" transform="scale(0.015625)"/>
      </defs>
      <use xlink:href="#DejaVuSans-4a"/>
      <use xlink:href="#DejaVuSans-6f" x="29.492188"/>
      <use xlink:href="#DejaVuSans-65" x="90.673828"/>
      <use xlink:href="#DejaVuSans-20" x="152.197266"/>
      <use xlink:href="#DejaVuSans-4d" x="183.984375"/>
      <use xlink:href="#DejaVuSans-61" x="270.263672"/>
      <use xlink:href="#DejaVuSans-6e" x="331.542969"/>
      <use xlink:href="#DejaVuSans-74" x="394.921875"/>
      <use xlink:href="#DejaVuSans-65" x="434.130859"/>
      <use xlink:href="#DejaVuSans-67" x="495.654297"/>
      <use xlink:href="#DejaVuSans-6e" x="559.130859"/>
      <use xlink:href="#DejaVuSans-61" x="622.509766"/>
     </g>
    </g>
   </g>
   <g id="text_11">
    <g id="patch_12">
     <path d="M 137.390705 493.078344 
L 211.111955 493.078344 
L 211.111955 476.448031 
L 137.390705 476.448031 
z
" clip-path="url(#pcbf67743fb)" style="fill: #ffffff; opacity: 0.7; stroke: #000000; stroke-linejoin: miter"/>
    </g>
    <g clip-path="url(#pcbf67743fb)">
     <!-- Robin Williams -->
     <g transform="translate(141.350705 487.246625)scale(0.09 -0.09)">
      <defs>
       <path id="DejaVuSans-57" d="M 213 4666 
L 850 4666 
L 1831 722 
L 2809 4666 
L 3519 4666 
L 4500 722 
L 5478 4666 
L 6119 4666 
L 4947 0 
L 4153 0 
L 3169 4050 
L 2175 0 
L 1381 0 
L 213 4666 
z
" transform="scale(0.015625)"/>
      </defs>
      <use xlink:href="#DejaVuSans-52"/>
      <use xlink:href="#DejaVuSans-6f" x="64.982422"/>
      <use xlink:href="#DejaVuSans-62" x="126.164062"/>
      <use xlink:href="#DejaVuSans-69" x="189.640625"/>
      <use xlink:href="#DejaVuSans-6e" x="217.423828"/>
      <use xlink:href="#DejaVuSans-20" x="280.802734"/>
      <use xlink:href="#DejaVuSans-57" x="312.589844"/>
      <use xlink:href="#DejaVuSans-69" x="409.216797"/>
      <use xlink:href="#DejaVuSans-6c" x="437"/>
      <use xlink:href="#DejaVuSans-6c" x="464.783203"/>
      <use xlink:href="#DejaVuSans-69" x="492.566406"/>
      <use xlink:href="#DejaVuSans-61" x="520.349609"/>
      <use xlink:href="#DejaVuSans-6d" x="581.628906"/>
      <use xlink:href="#DejaVuSans-73" x="679.041016"/>
     </g>
    </g>
   </g>
   <g id="text_12">
    <g id="patch_13">
     <path d="M 229.39404 520.598598 
L 289.625134 520.598598 
L 289.625134 503.968286 
L 229.39404 503.968286 
z
" clip-path="url(#pcbf67743fb)" style="fill: #ffffff; opacity: 0.7; stroke: #000000; stroke-linejoin: miter"/>
    </g>
    <g clip-path="url(#pcbf67743fb)">
     <!-- Bruce Willis -->
     <g transform="translate(233.35404 514.766879)scale(0.09 -0.09)">
      <use xlink:href="#DejaVuSans-42"/>
      <use xlink:href="#DejaVuSans-72" x="68.603516"/>
      <use xlink:href="#DejaVuSans-75" x="109.716797"/>
      <use xlink:href="#DejaVuSans-63" x="173.095703"/>
      <use xlink:href="#DejaVuSans-65" x="228.076172"/>
      <use xlink:href="#DejaVuSans-20" x="289.599609"/>
      <use xlink:href="#DejaVuSans-57" x="321.386719"/>
      <use xlink:href="#DejaVuSans-69" x="418.013672"/>
      <use xlink:href="#DejaVuSans-6c" x="445.796875"/>
      <use xlink:href="#DejaVuSans-6c" x="473.580078"/>
      <use xlink:href="#DejaVuSans-69" x="501.363281"/>
      <use xlink:href="#DejaVuSans-73" x="529.146484"/>
     </g>
    </g>
   </g>
   <g id="text_13">
    <g id="patch_14">
     <path d="M 303.923073 511.28955 
L 393.405573 511.28955 
L 393.405573 494.659237 
L 303.923073 494.659237 
z
" clip-path="url(#pcbf67743fb)" style="fill: #ffffff; opacity: 0.7; stroke: #000000; stroke-linejoin: miter"/>
    </g>
    <g clip-path="url(#pcbf67743fb)">
     <!-- Samuel L. Jackson -->
     <g transform="translate(307.883073 505.457831)scale(0.09 -0.09)">
      <defs>
       <path id="DejaVuSans-2e" d="M 684 794 
L 1344 794 
L 1344 0 
L 684 0 
L 684 794 
z
" transform="scale(0.015625)"/>
      </defs>
      <use xlink:href="#DejaVuSans-53"/>
      <use xlink:href="#DejaVuSans-61" x="63.476562"/>
      <use xlink:href="#DejaVuSans-6d" x="124.755859"/>
      <use xlink:href="#DejaVuSans-75" x="222.167969"/>
      <use xlink:href="#DejaVuSans-65" x="285.546875"/>
      <use xlink:href="#DejaVuSans-6c" x="347.070312"/>
      <use xlink:href="#DejaVuSans-20" x="374.853516"/>
      <use xlink:href="#DejaVuSans-4c" x="406.640625"/>
      <use xlink:href="#DejaVuSans-2e" x="462.353516"/>
      <use xlink:href="#DejaVuSans-20" x="494.140625"/>
      <use xlink:href="#DejaVuSans-4a" x="525.927734"/>
      <use xlink:href="#DejaVuSans-61" x="555.419922"/>
      <use xlink:href="#DejaVuSans-63" x="616.699219"/>
      <use xlink:href="#DejaVuSans-6b" x="671.679688"/>
      <use xlink:href="#DejaVuSans-73" x="729.589844"/>
      <use xlink:href="#DejaVuSans-6f" x="781.689453"/>
      <use xlink:href="#DejaVuSans-6e" x="842.871094"/>
     </g>
    </g>
   </g>
   <g id="text_14">
    <g id="patch_15">
     <path d="M 393.101138 466.760813 
L 459.498638 466.760813 
L 459.498638 450.130501 
L 393.101138 450.130501 
z
" clip-path="url(#pcbf67743fb)" style="fill: #ffffff; opacity: 0.7; stroke: #000000; stroke-linejoin: miter"/>
    </g>
    <g clip-path="url(#pcbf67743fb)">
     <!-- Carla Gugino -->
     <g transform="translate(397.061138 460.929094)scale(0.09 -0.09)">
      <defs>
       <path id="DejaVuSans-43" d="M 4122 4306 
L 4122 3641 
Q 3803 3938 3442 4084 
Q 3081 4231 2675 4231 
Q 1875 4231 1450 3742 
Q 1025 3253 1025 2328 
Q 1025 1406 1450 917 
Q 1875 428 2675 428 
Q 3081 428 3442 575 
Q 3803 722 4122 1019 
L 4122 359 
Q 3791 134 3420 21 
Q 3050 -91 2638 -91 
Q 1578 -91 968 557 
Q 359 1206 359 2328 
Q 359 3453 968 4101 
Q 1578 4750 2638 4750 
Q 3056 4750 3426 4639 
Q 3797 4528 4122 4306 
z
" transform="scale(0.015625)"/>
       <path id="DejaVuSans-47" d="M 3809 666 
L 3809 1919 
L 2778 1919 
L 2778 2438 
L 4434 2438 
L 4434 434 
Q 4069 175 3628 42 
Q 3188 -91 2688 -91 
Q 1594 -91 976 548 
Q 359 1188 359 2328 
Q 359 3472 976 4111 
Q 1594 4750 2688 4750 
Q 3144 4750 3555 4637 
Q 3966 4525 4313 4306 
L 4313 3634 
Q 3963 3931 3569 4081 
Q 3175 4231 2741 4231 
Q 1884 4231 1454 3753 
Q 1025 3275 1025 2328 
Q 1025 1384 1454 906 
Q 1884 428 2741 428 
Q 3075 428 3337 486 
Q 3600 544 3809 666 
z
" transform="scale(0.015625)"/>
      </defs>
      <use xlink:href="#DejaVuSans-43"/>
      <use xlink:href="#DejaVuSans-61" x="69.824219"/>
      <use xlink:href="#DejaVuSans-72" x="131.103516"/>
      <use xlink:href="#DejaVuSans-6c" x="172.216797"/>
      <use xlink:href="#DejaVuSans-61" x="200"/>
      <use xlink:href="#DejaVuSans-20" x="261.279297"/>
      <use xlink:href="#DejaVuSans-47" x="293.066406"/>
      <use xlink:href="#DejaVuSans-75" x="370.556641"/>
      <use xlink:href="#DejaVuSans-67" x="433.935547"/>
      <use xlink:href="#DejaVuSans-69" x="497.412109"/>
      <use xlink:href="#DejaVuSans-6e" x="525.195312"/>
      <use xlink:href="#DejaVuSans-6f" x="588.574219"/>
     </g>
    </g>
   </g>
   <g id="text_15">
    <g id="patch_16">
     <path d="M 445.880108 394.711835 
L 512.104639 394.711835 
L 512.104639 378.081523 
L 445.880108 378.081523 
z
" clip-path="url(#pcbf67743fb)" style="fill: #ffffff; opacity: 0.7; stroke: #000000; stroke-linejoin: miter"/>
    </g>
    <g clip-path="url(#pcbf67743fb)">
     <!-- Nicolas Cage -->
     <g transform="translate(449.840108 388.880116)scale(0.09 -0.09)">
      <use xlink:href="#DejaVuSans-4e"/>
      <use xlink:href="#DejaVuSans-69" x="74.804688"/>
      <use xlink:href="#DejaVuSans-63" x="102.587891"/>
      <use xlink:href="#DejaVuSans-6f" x="157.568359"/>
      <use xlink:href="#DejaVuSans-6c" x="218.75"/>
      <use xlink:href="#DejaVuSans-61" x="246.533203"/>
      <use xlink:href="#DejaVuSans-73" x="307.8125"/>
      <use xlink:href="#DejaVuSans-20" x="359.912109"/>
      <use xlink:href="#DejaVuSans-43" x="391.699219"/>
      <use xlink:href="#DejaVuSans-61" x="461.523438"/>
      <use xlink:href="#DejaVuSans-67" x="522.802734"/>
      <use xlink:href="#DejaVuSans-65" x="586.279297"/>
     </g>
    </g>
   </g>
   <g id="text_16">
    <!-- Impactful actors for Drama genre - Importance rank: 3 -->
    <g transform="translate(120.55125 16.318125)scale(0.12 -0.12)">
     <defs>
      <path id="DejaVuSans-49" d="M 628 4666 
L 1259 4666 
L 1259 0 
L 628 0 
L 628 4666 
z
" transform="scale(0.015625)"/>
      <path id="DejaVuSans-70" d="M 1159 525 
L 1159 -1331 
L 581 -1331 
L 581 3500 
L 1159 3500 
L 1159 2969 
Q 1341 3281 1617 3432 
Q 1894 3584 2278 3584 
Q 2916 3584 3314 3078 
Q 3713 2572 3713 1747 
Q 3713 922 3314 415 
Q 2916 -91 2278 -91 
Q 1894 -91 1617 61 
Q 1341 213 1159 525 
z
M 3116 1747 
Q 3116 2381 2855 2742 
Q 2594 3103 2138 3103 
Q 1681 3103 1420 2742 
Q 1159 2381 1159 1747 
Q 1159 1113 1420 752 
Q 1681 391 2138 391 
Q 2594 391 2855 752 
Q 3116 1113 3116 1747 
z
" transform="scale(0.015625)"/>
      <path id="DejaVuSans-2d" d="M 313 2009 
L 1997 2009 
L 1997 1497 
L 313 1497 
L 313 2009 
z
" transform="scale(0.015625)"/>
      <path id="DejaVuSans-3a" d="M 750 794 
L 1409 794 
L 1409 0 
L 750 0 
L 750 794 
z
M 750 3309 
L 1409 3309 
L 1409 2516 
L 750 2516 
L 750 3309 
z
" transform="scale(0.015625)"/>
      <path id="DejaVuSans-33" d="M 2597 2516 
Q 3050 2419 3304 2112 
Q 3559 1806 3559 1356 
Q 3559 666 3084 287 
Q 2609 -91 1734 -91 
Q 1441 -91 1130 -33 
Q 819 25 488 141 
L 488 750 
Q 750 597 1062 519 
Q 1375 441 1716 441 
Q 2309 441 2620 675 
Q 2931 909 2931 1356 
Q 2931 1769 2642 2001 
Q 2353 2234 1838 2234 
L 1294 2234 
L 1294 2753 
L 1863 2753 
Q 2328 2753 2575 2939 
Q 2822 3125 2822 3475 
Q 2822 3834 2567 4026 
Q 2313 4219 1838 4219 
Q 1578 4219 1281 4162 
Q 984 4106 628 3988 
L 628 4550 
Q 988 4650 1302 4700 
Q 1616 4750 1894 4750 
Q 2613 4750 3031 4423 
Q 3450 4097 3450 3541 
Q 3450 3153 3228 2886 
Q 3006 2619 2597 2516 
z
" transform="scale(0.015625)"/>
     </defs>
     <use xlink:href="#DejaVuSans-49"/>
     <use xlink:href="#DejaVuSans-6d" x="29.492188"/>
     <use xlink:href="#DejaVuSans-70" x="126.904297"/>
     <use xlink:href="#DejaVuSans-61" x="190.380859"/>
     <use xlink:href="#DejaVuSans-63" x="251.660156"/>
     <use xlink:href="#DejaVuSans-74" x="306.640625"/>
     <use xlink:href="#DejaVuSans-66" x="345.849609"/>
     <use xlink:href="#DejaVuSans-75" x="381.054688"/>
     <use xlink:href="#DejaVuSans-6c" x="444.433594"/>
     <use xlink:href="#DejaVuSans-20" x="472.216797"/>
     <use xlink:href="#DejaVuSans-61" x="504.003906"/>
     <use xlink:href="#DejaVuSans-63" x="565.283203"/>
     <use xlink:href="#DejaVuSans-74" x="620.263672"/>
     <use xlink:href="#DejaVuSans-6f" x="659.472656"/>
     <use xlink:href="#DejaVuSans-72" x="720.654297"/>
     <use xlink:href="#DejaVuSans-73" x="761.767578"/>
     <use xlink:href="#DejaVuSans-20" x="813.867188"/>
     <use xlink:href="#DejaVuSans-66" x="845.654297"/>
     <use xlink:href="#DejaVuSans-6f" x="880.859375"/>
     <use xlink:href="#DejaVuSans-72" x="942.041016"/>
     <use xlink:href="#DejaVuSans-20" x="983.154297"/>
     <use xlink:href="#DejaVuSans-44" x="1014.941406"/>
     <use xlink:href="#DejaVuSans-72" x="1091.943359"/>
     <use xlink:href="#DejaVuSans-61" x="1133.056641"/>
     <use xlink:href="#DejaVuSans-6d" x="1194.335938"/>
     <use xlink:href="#DejaVuSans-61" x="1291.748047"/>
     <use xlink:href="#DejaVuSans-20" x="1353.027344"/>
     <use xlink:href="#DejaVuSans-67" x="1384.814453"/>
     <use xlink:href="#DejaVuSans-65" x="1448.291016"/>
     <use xlink:href="#DejaVuSans-6e" x="1509.814453"/>
     <use xlink:href="#DejaVuSans-72" x="1573.193359"/>
     <use xlink:href="#DejaVuSans-65" x="1612.056641"/>
     <use xlink:href="#DejaVuSans-20" x="1673.580078"/>
     <use xlink:href="#DejaVuSans-2d" x="1705.367188"/>
     <use xlink:href="#DejaVuSans-20" x="1741.451172"/>
     <use xlink:href="#DejaVuSans-49" x="1773.238281"/>
     <use xlink:href="#DejaVuSans-6d" x="1802.730469"/>
     <use xlink:href="#DejaVuSans-70" x="1900.142578"/>
     <use xlink:href="#DejaVuSans-6f" x="1963.619141"/>
     <use xlink:href="#DejaVuSans-72" x="2024.800781"/>
     <use xlink:href="#DejaVuSans-74" x="2065.914062"/>
     <use xlink:href="#DejaVuSans-61" x="2105.123047"/>
     <use xlink:href="#DejaVuSans-6e" x="2166.402344"/>
     <use xlink:href="#DejaVuSans-63" x="2229.78125"/>
     <use xlink:href="#DejaVuSans-65" x="2284.761719"/>
     <use xlink:href="#DejaVuSans-20" x="2346.285156"/>
     <use xlink:href="#DejaVuSans-72" x="2378.072266"/>
     <use xlink:href="#DejaVuSans-61" x="2419.185547"/>
     <use xlink:href="#DejaVuSans-6e" x="2480.464844"/>
     <use xlink:href="#DejaVuSans-6b" x="2543.84375"/>
     <use xlink:href="#DejaVuSans-3a" x="2601.753906"/>
     <use xlink:href="#DejaVuSans-20" x="2635.445312"/>
     <use xlink:href="#DejaVuSans-33" x="2667.232422"/>
    </g>
   </g>
  </g>
 </g>
 <defs>
  <clipPath id="pcbf67743fb">
   <rect x="7.2" y="22.318125" width="554.4" height="554.4"/>
  </clipPath>
 </defs>
</svg>
