<?xml version="1.0" encoding="utf-8" standalone="no"?>
<!DOCTYPE svg PUBLIC "-//W3C//DTD SVG 1.1//EN"
  "http://www.w3.org/Graphics/SVG/1.1/DTD/svg11.dtd">
<svg xmlns:xlink="http://www.w3.org/1999/xlink" width="568.8pt" height="583.918125pt" viewBox="0 0 568.8 583.918125" xmlns="http://www.w3.org/2000/svg" version="1.1">
 <metadata>
  <rdf:RDF xmlns:dc="http://purl.org/dc/elements/1.1/" xmlns:cc="http://creativecommons.org/ns#" xmlns:rdf="http://www.w3.org/1999/02/22-rdf-syntax-ns#">
   <cc:Work>
    <dc:type rdf:resource="http://purl.org/dc/dcmitype/StillImage"/>
    <dc:date>2022-12-22T19:12:58.395739</dc:date>
    <dc:format>image/svg+xml</dc:format>
    <dc:creator>
     <cc:Agent>
      <dc:title>Matplotlib v3.5.2, https://matplotlib.org/</dc:title>
     </cc:Agent>
    </dc:creator>
   </cc:Work>
  </rdf:RDF>
 </metadata>
 <defs>
  <style type="text/css">*{stroke-linejoin: round; stroke-linecap: butt}</style>
 </defs>
 <g id="figure_1">
  <g id="patch_1">
   <path d="M 0 583.918125 
L 568.8 583.918125 
L 568.8 0 
L 0 0 
z
" style="fill: #ffffff"/>
  </g>
  <g id="axes_1">
   <g id="LineCollection_1">
    <path d="M 426.29985 140.183927 
L 348.664291 95.606563 
" clip-path="url(#p7c8d6f8a03)" style="fill: none; stroke: #000000; stroke-opacity: 0.3; stroke-width: 5"/>
   </g>
   <g id="PathCollection_1">
    <path d="M 497.630769 326.904253 
C 504.893655 326.904253 511.86005 324.018678 516.995686 318.883042 
C 522.131322 313.747406 525.016897 306.781011 525.016897 299.518125 
C 525.016897 292.255239 522.131322 285.288844 516.995686 280.153208 
C 511.86005 275.017572 504.893655 272.131997 497.630769 272.131997 
C 490.367883 272.131997 483.401488 275.017572 478.265852 280.153208 
C 473.130217 285.288844 470.244641 292.255239 470.244641 299.518125 
C 470.244641 306.781011 473.130217 313.747406 478.265852 318.883042 
C 483.401488 324.018678 490.367883 326.904253 497.630769 326.904253 
z
" clip-path="url(#p7c8d6f8a03)" style="fill: #d62728; fill-opacity: 0.99; stroke: #d62728; stroke-opacity: 0.99"/>
    <path d="M 478.992348 239.13892 
C 486.107027 239.13892 492.931266 236.312228 497.962104 231.28139 
C 502.992943 226.250552 505.819635 219.426313 505.819635 212.311633 
C 505.819635 205.196954 502.992943 198.372715 497.962104 193.341877 
C 492.931266 188.311039 486.107027 185.484346 478.992348 185.484346 
C 471.877668 185.484346 465.05343 188.311039 460.022591 193.341877 
C 454.991753 198.372715 452.165061 205.196954 452.165061 212.311633 
C 452.165061 219.426313 454.991753 226.250552 460.022591 231.28139 
C 465.05343 236.312228 471.877668 239.13892 478.992348 239.13892 
z
" clip-path="url(#p7c8d6f8a03)" style="fill: #d62728; fill-opacity: 0.99; stroke: #d62728; stroke-opacity: 0.99"/>
    <path d="M 426.29985 165.830012 
C 433.101271 165.830012 439.625039 163.127778 444.43437 158.318447 
C 449.243702 153.509116 451.945935 146.985348 451.945935 140.183927 
C 451.945935 133.382505 449.243702 126.858737 444.43437 122.049406 
C 439.625039 117.240075 433.101271 114.537842 426.29985 114.537842 
C 419.498429 114.537842 412.97466 117.240075 408.165329 122.049406 
C 403.355998 126.858737 400.653765 133.382505 400.653765 140.183927 
C 400.653765 146.985348 403.355998 153.509116 408.165329 158.318447 
C 412.97466 163.127778 419.498429 165.830012 426.29985 165.830012 
z
" clip-path="url(#p7c8d6f8a03)" style="fill: #d62728; fill-opacity: 0.99; stroke: #d62728; stroke-opacity: 0.99"/>
    <path d="M 348.664291 120.106619 
C 355.161782 120.106619 361.394027 117.525139 365.988447 112.930719 
C 370.582867 108.336299 373.164348 102.104054 373.164348 95.606563 
C 373.164348 89.109072 370.582867 82.876827 365.988447 78.282407 
C 361.394027 73.687987 355.161782 71.106506 348.664291 71.106506 
C 342.1668 71.106506 335.934555 73.687987 331.340135 78.282407 
C 326.745715 82.876827 324.164235 89.109072 324.164235 95.606563 
C 324.164235 102.104054 326.745715 108.336299 331.340135 112.930719 
C 335.934555 117.525139 342.1668 120.106619 348.664291 120.106619 
z
" clip-path="url(#p7c8d6f8a03)" style="fill: #d62728; fill-opacity: 0.99; stroke: #d62728; stroke-opacity: 0.99"/>
    <path d="M 259.509549 109.964252 
C 265.788735 109.964252 271.811587 107.469505 276.251643 103.02945 
C 280.691698 98.589395 283.186445 92.566542 283.186445 86.287356 
C 283.186445 80.008169 280.691698 73.985317 276.251643 69.545262 
C 271.811587 65.105206 265.788735 62.610459 259.509549 62.610459 
C 253.230362 62.610459 247.20751 65.105206 242.767455 69.545262 
C 238.327399 73.985317 235.832652 80.008169 235.832652 86.287356 
C 235.832652 92.566542 238.327399 98.589395 242.767455 103.02945 
C 247.20751 107.469505 253.230362 109.964252 259.509549 109.964252 
z
" clip-path="url(#p7c8d6f8a03)" style="fill: #d62728; fill-opacity: 0.99; stroke: #d62728; stroke-opacity: 0.99"/>
    <path d="M 174.251298 137.51104 
C 180.529543 137.51104 186.551493 135.016667 190.990883 130.577277 
C 195.430273 126.137887 197.924646 120.115938 197.924646 113.837692 
C 197.924646 107.559447 195.430273 101.537497 190.990883 97.098107 
C 186.551493 92.658718 180.529543 90.164344 174.251298 90.164344 
C 167.973053 90.164344 161.951103 92.658718 157.511713 97.098107 
C 153.072323 101.537497 150.57795 107.559447 150.57795 113.837692 
C 150.57795 120.115938 153.072323 126.137887 157.511713 130.577277 
C 161.951103 135.016667 167.973053 137.51104 174.251298 137.51104 
z
" clip-path="url(#p7c8d6f8a03)" style="fill: #d62728; fill-opacity: 0.99; stroke: #d62728; stroke-opacity: 0.99"/>
    <path d="M 107.631477 196.851777 
C 113.826071 196.851777 119.767784 194.390639 124.148023 190.0104 
C 128.528262 185.630161 130.989401 179.688447 130.989401 173.493854 
C 130.989401 167.29926 128.528262 161.357547 124.148023 156.977308 
C 119.767784 152.597068 113.826071 150.13593 107.631477 150.13593 
C 101.436883 150.13593 95.49517 152.597068 91.114931 156.977308 
C 86.734692 161.357547 84.273553 167.29926 84.273553 173.493854 
C 84.273553 179.688447 86.734692 185.630161 91.114931 190.0104 
C 95.49517 194.390639 101.436883 196.851777 107.631477 196.851777 
z
" clip-path="url(#p7c8d6f8a03)" style="fill: #d62728; fill-opacity: 0.99; stroke: #d62728; stroke-opacity: 0.99"/>
    <path d="M 71.169231 277.145816 
C 77.058077 277.145816 82.706524 274.806152 86.870566 270.642109 
C 91.034609 266.478067 93.374273 260.82962 93.374273 254.940774 
C 93.374273 249.051928 91.034609 243.403481 86.870566 239.239438 
C 82.706524 235.075395 77.058077 232.735732 71.169231 232.735732 
C 65.280385 232.735732 59.631938 235.075395 55.467895 239.239438 
C 51.303852 243.403481 48.964189 249.051928 48.964189 254.940774 
C 48.964189 260.82962 51.303852 266.478067 55.467895 270.642109 
C 59.631938 274.806152 65.280385 277.145816 71.169231 277.145816 
z
" clip-path="url(#p7c8d6f8a03)" style="fill: #d62728; fill-opacity: 0.99; stroke: #d62728; stroke-opacity: 0.99"/>
    <path d="M 71.169244 366.275925 
C 77.051557 366.275925 82.693739 363.938857 86.853163 359.779433 
C 91.012586 355.620009 93.349654 349.977828 93.349654 344.095514 
C 93.349654 338.213201 91.012586 332.571019 86.853163 328.411596 
C 82.693739 324.252172 77.051557 321.915104 71.169244 321.915104 
C 65.28693 321.915104 59.644749 324.252172 55.485325 328.411596 
C 51.325901 332.571019 48.988833 338.213201 48.988833 344.095514 
C 48.988833 349.977828 51.325901 355.620009 55.485325 359.779433 
C 59.644749 363.938857 65.28693 366.275925 71.169244 366.275925 
z
" clip-path="url(#p7c8d6f8a03)" style="fill: #d62728; fill-opacity: 0.99; stroke: #d62728; stroke-opacity: 0.99"/>
    <path d="M 107.63149 447.445248 
C 113.440191 447.445248 119.011764 445.137427 123.119136 441.030055 
C 127.226507 436.922683 129.534329 431.35111 129.534329 425.542409 
C 129.534329 419.733708 127.226507 414.162135 123.119136 410.054763 
C 119.011764 405.947391 113.440191 403.63957 107.63149 403.63957 
C 101.822789 403.63957 96.251216 405.947391 92.143844 410.054763 
C 88.036472 414.162135 85.728651 419.733708 85.728651 425.542409 
C 85.728651 431.35111 88.036472 436.922683 92.143844 441.030055 
C 96.251216 445.137427 101.822789 447.445248 107.63149 447.445248 
z
" clip-path="url(#p7c8d6f8a03)" style="fill: #d62728; fill-opacity: 0.99; stroke: #d62728; stroke-opacity: 0.99"/>
    <path d="M 174.25133 506.455615 
C 179.888764 506.455615 185.296063 504.215839 189.28233 500.229571 
C 193.268598 496.243303 195.508375 490.836005 195.508375 485.198571 
C 195.508375 479.561136 193.268598 474.153838 189.28233 470.16757 
C 185.296063 466.181303 179.888764 463.941526 174.25133 463.941526 
C 168.613896 463.941526 163.206598 466.181303 159.22033 470.16757 
C 155.234062 474.153838 152.994286 479.561136 152.994286 485.198571 
C 152.994286 490.836005 155.234062 496.243303 159.22033 500.229571 
C 163.206598 504.215839 168.613896 506.455615 174.25133 506.455615 
z
" clip-path="url(#p7c8d6f8a03)" style="fill: #d62728; fill-opacity: 0.99; stroke: #d62728; stroke-opacity: 0.99"/>
    <path d="M 259.509587 533.468917 
C 265.004601 533.468917 270.275294 531.285725 274.160856 527.400163 
C 278.046418 523.514601 280.22961 518.243909 280.22961 512.748894 
C 280.22961 507.25388 278.046418 501.983187 274.160856 498.097626 
C 270.275294 494.212064 265.004601 492.028871 259.509587 492.028871 
C 254.014573 492.028871 248.74388 494.212064 244.858318 498.097626 
C 240.972757 501.983187 238.789564 507.25388 238.789564 512.748894 
C 238.789564 518.243909 240.972757 523.514601 244.858318 527.400163 
C 248.74388 531.285725 254.014573 533.468917 259.509587 533.468917 
z
" clip-path="url(#p7c8d6f8a03)" style="fill: #d62728; fill-opacity: 0.99; stroke: #d62728; stroke-opacity: 0.99"/>
    <path d="M 348.664323 524.070634 
C 354.13837 524.070634 359.38895 521.895772 363.259686 518.025037 
C 367.130421 514.154302 369.305283 508.903721 369.305283 503.429675 
C 369.305283 497.955628 367.130421 492.705048 363.259686 488.834312 
C 359.38895 484.963577 354.13837 482.788715 348.664323 482.788715 
C 343.190277 482.788715 337.939696 484.963577 334.068961 488.834312 
C 330.198226 492.705048 328.023364 497.955628 328.023364 503.429675 
C 328.023364 508.903721 330.198226 514.154302 334.068961 518.025037 
C 337.939696 521.895772 343.190277 524.070634 348.664323 524.070634 
z
" clip-path="url(#p7c8d6f8a03)" style="fill: #d62728; fill-opacity: 0.99; stroke: #d62728; stroke-opacity: 0.99"/>
    <path d="M 426.299888 478.951206 
C 431.630184 478.951206 436.742883 476.833457 440.511972 473.064368 
C 444.28106 469.29528 446.398809 464.182581 446.398809 458.852285 
C 446.398809 453.521989 444.28106 448.40929 440.511972 444.640202 
C 436.742883 440.871113 431.630184 438.753364 426.299888 438.753364 
C 420.969592 438.753364 415.856894 440.871113 412.087805 444.640202 
C 408.318717 448.40929 406.200968 453.521989 406.200968 458.852285 
C 406.200968 464.182581 408.318717 469.29528 412.087805 473.064368 
C 415.856894 476.833457 420.969592 478.951206 426.299888 478.951206 
z
" clip-path="url(#p7c8d6f8a03)" style="fill: #d62728; fill-opacity: 0.99; stroke: #d62728; stroke-opacity: 0.99"/>
    <path d="M 478.992374 406.089501 
C 484.128009 406.089501 489.053994 404.049092 492.685437 400.417649 
C 496.31688 396.786206 498.35729 391.860221 498.35729 386.724585 
C 498.35729 381.588949 496.31688 376.662964 492.685437 373.031521 
C 489.053994 369.400078 484.128009 367.359668 478.992374 367.359668 
C 473.856738 367.359668 468.930753 369.400078 465.29931 373.031521 
C 461.667867 376.662964 459.627457 381.588949 459.627457 386.724585 
C 459.627457 391.860221 461.667867 396.786206 465.29931 400.417649 
C 468.930753 404.049092 473.856738 406.089501 478.992374 406.089501 
z
" clip-path="url(#p7c8d6f8a03)" style="fill: #d62728; fill-opacity: 0.99; stroke: #d62728; stroke-opacity: 0.99"/>
   </g>
   <g id="text_1">
    <g id="patch_2">
     <path d="M 460.540222 307.833281 
L 534.721316 307.833281 
L 534.721316 291.202969 
L 460.540222 291.202969 
z
" clip-path="url(#p7c8d6f8a03)" style="fill: #ffffff; opacity: 0.7; stroke: #000000; stroke-linejoin: miter"/>
    </g>
    <g clip-path="url(#p7c8d6f8a03)">
     <!-- Robert De Niro -->
     <g transform="translate(464.500222 302.001562)scale(0.09 -0.09)">
      <defs>
       <path id="DejaVuSans-52" d="M 2841 2188 
Q 3044 2119 3236 1894 
Q 3428 1669 3622 1275 
L 4263 0 
L 3584 0 
L 2988 1197 
Q 2756 1666 2539 1819 
Q 2322 1972 1947 1972 
L 1259 1972 
L 1259 0 
L 628 0 
L 628 4666 
L 2053 4666 
Q 2853 4666 3247 4331 
Q 3641 3997 3641 3322 
Q 3641 2881 3436 2590 
Q 3231 2300 2841 2188 
z
M 1259 4147 
L 1259 2491 
L 2053 2491 
Q 2509 2491 2742 2702 
Q 2975 2913 2975 3322 
Q 2975 3731 2742 3939 
Q 2509 4147 2053 4147 
L 1259 4147 
z
" transform="scale(0.015625)"/>
       <path id="DejaVuSans-6f" d="M 1959 3097 
Q 1497 3097 1228 2736 
Q 959 2375 959 1747 
Q 959 1119 1226 758 
Q 1494 397 1959 397 
Q 2419 397 2687 759 
Q 2956 1122 2956 1747 
Q 2956 2369 2687 2733 
Q 2419 3097 1959 3097 
z
M 1959 3584 
Q 2709 3584 3137 3096 
Q 3566 2609 3566 1747 
Q 3566 888 3137 398 
Q 2709 -91 1959 -91 
Q 1206 -91 779 398 
Q 353 888 353 1747 
Q 353 2609 779 3096 
Q 1206 3584 1959 3584 
z
" transform="scale(0.015625)"/>
       <path id="DejaVuSans-62" d="M 3116 1747 
Q 3116 2381 2855 2742 
Q 2594 3103 2138 3103 
Q 1681 3103 1420 2742 
Q 1159 2381 1159 1747 
Q 1159 1113 1420 752 
Q 1681 391 2138 391 
Q 2594 391 2855 752 
Q 3116 1113 3116 1747 
z
M 1159 2969 
Q 1341 3281 1617 3432 
Q 1894 3584 2278 3584 
Q 2916 3584 3314 3078 
Q 3713 2572 3713 1747 
Q 3713 922 3314 415 
Q 2916 -91 2278 -91 
Q 1894 -91 1617 61 
Q 1341 213 1159 525 
L 1159 0 
L 581 0 
L 581 4863 
L 1159 4863 
L 1159 2969 
z
" transform="scale(0.015625)"/>
       <path id="DejaVuSans-65" d="M 3597 1894 
L 3597 1613 
L 953 1613 
Q 991 1019 1311 708 
Q 1631 397 2203 397 
Q 2534 397 2845 478 
Q 3156 559 3463 722 
L 3463 178 
Q 3153 47 2828 -22 
Q 2503 -91 2169 -91 
Q 1331 -91 842 396 
Q 353 884 353 1716 
Q 353 2575 817 3079 
Q 1281 3584 2069 3584 
Q 2775 3584 3186 3129 
Q 3597 2675 3597 1894 
z
M 3022 2063 
Q 3016 2534 2758 2815 
Q 2500 3097 2075 3097 
Q 1594 3097 1305 2825 
Q 1016 2553 972 2059 
L 3022 2063 
z
" transform="scale(0.015625)"/>
       <path id="DejaVuSans-72" d="M 2631 2963 
Q 2534 3019 2420 3045 
Q 2306 3072 2169 3072 
Q 1681 3072 1420 2755 
Q 1159 2438 1159 1844 
L 1159 0 
L 581 0 
L 581 3500 
L 1159 3500 
L 1159 2956 
Q 1341 3275 1631 3429 
Q 1922 3584 2338 3584 
Q 2397 3584 2469 3576 
Q 2541 3569 2628 3553 
L 2631 2963 
z
" transform="scale(0.015625)"/>
       <path id="DejaVuSans-74" d="M 1172 4494 
L 1172 3500 
L 2356 3500 
L 2356 3053 
L 1172 3053 
L 1172 1153 
Q 1172 725 1289 603 
Q 1406 481 1766 481 
L 2356 481 
L 2356 0 
L 1766 0 
Q 1100 0 847 248 
Q 594 497 594 1153 
L 594 3053 
L 172 3053 
L 172 3500 
L 594 3500 
L 594 4494 
L 1172 4494 
z
" transform="scale(0.015625)"/>
       <path id="DejaVuSans-20" transform="scale(0.015625)"/>
       <path id="DejaVuSans-44" d="M 1259 4147 
L 1259 519 
L 2022 519 
Q 2988 519 3436 956 
Q 3884 1394 3884 2338 
Q 3884 3275 3436 3711 
Q 2988 4147 2022 4147 
L 1259 4147 
z
M 628 4666 
L 1925 4666 
Q 3281 4666 3915 4102 
Q 4550 3538 4550 2338 
Q 4550 1131 3912 565 
Q 3275 0 1925 0 
L 628 0 
L 628 4666 
z
" transform="scale(0.015625)"/>
       <path id="DejaVuSans-4e" d="M 628 4666 
L 1478 4666 
L 3547 763 
L 3547 4666 
L 4159 4666 
L 4159 0 
L 3309 0 
L 1241 3903 
L 1241 0 
L 628 0 
L 628 4666 
z
" transform="scale(0.015625)"/>
       <path id="DejaVuSans-69" d="M 603 3500 
L 1178 3500 
L 1178 0 
L 603 0 
L 603 3500 
z
M 603 4863 
L 1178 4863 
L 1178 4134 
L 603 4134 
L 603 4863 
z
" transform="scale(0.015625)"/>
      </defs>
      <use xlink:href="#DejaVuSans-52"/>
      <use xlink:href="#DejaVuSans-6f" x="64.982422"/>
      <use xlink:href="#DejaVuSans-62" x="126.164062"/>
      <use xlink:href="#DejaVuSans-65" x="189.640625"/>
      <use xlink:href="#DejaVuSans-72" x="251.164062"/>
      <use xlink:href="#DejaVuSans-74" x="292.277344"/>
      <use xlink:href="#DejaVuSans-20" x="331.486328"/>
      <use xlink:href="#DejaVuSans-44" x="363.273438"/>
      <use xlink:href="#DejaVuSans-65" x="440.275391"/>
      <use xlink:href="#DejaVuSans-20" x="501.798828"/>
      <use xlink:href="#DejaVuSans-4e" x="533.585938"/>
      <use xlink:href="#DejaVuSans-69" x="608.390625"/>
      <use xlink:href="#DejaVuSans-72" x="636.173828"/>
      <use xlink:href="#DejaVuSans-6f" x="675.037109"/>
     </g>
    </g>
   </g>
   <g id="text_2">
    <g id="patch_3">
     <path d="M 442.540942 220.62679 
L 515.443754 220.62679 
L 515.443754 203.996477 
L 442.540942 203.996477 
z
" clip-path="url(#p7c8d6f8a03)" style="fill: #ffffff; opacity: 0.7; stroke: #000000; stroke-linejoin: miter"/>
    </g>
    <g clip-path="url(#p7c8d6f8a03)">
     <!-- Jack Nicholson -->
     <g transform="translate(446.500942 214.795071)scale(0.09 -0.09)">
      <defs>
       <path id="DejaVuSans-4a" d="M 628 4666 
L 1259 4666 
L 1259 325 
Q 1259 -519 939 -900 
Q 619 -1281 -91 -1281 
L -331 -1281 
L -331 -750 
L -134 -750 
Q 284 -750 456 -515 
Q 628 -281 628 325 
L 628 4666 
z
" transform="scale(0.015625)"/>
       <path id="DejaVuSans-61" d="M 2194 1759 
Q 1497 1759 1228 1600 
Q 959 1441 959 1056 
Q 959 750 1161 570 
Q 1363 391 1709 391 
Q 2188 391 2477 730 
Q 2766 1069 2766 1631 
L 2766 1759 
L 2194 1759 
z
M 3341 1997 
L 3341 0 
L 2766 0 
L 2766 531 
Q 2569 213 2275 61 
Q 1981 -91 1556 -91 
Q 1019 -91 701 211 
Q 384 513 384 1019 
Q 384 1609 779 1909 
Q 1175 2209 1959 2209 
L 2766 2209 
L 2766 2266 
Q 2766 2663 2505 2880 
Q 2244 3097 1772 3097 
Q 1472 3097 1187 3025 
Q 903 2953 641 2809 
L 641 3341 
Q 956 3463 1253 3523 
Q 1550 3584 1831 3584 
Q 2591 3584 2966 3190 
Q 3341 2797 3341 1997 
z
" transform="scale(0.015625)"/>
       <path id="DejaVuSans-63" d="M 3122 3366 
L 3122 2828 
Q 2878 2963 2633 3030 
Q 2388 3097 2138 3097 
Q 1578 3097 1268 2742 
Q 959 2388 959 1747 
Q 959 1106 1268 751 
Q 1578 397 2138 397 
Q 2388 397 2633 464 
Q 2878 531 3122 666 
L 3122 134 
Q 2881 22 2623 -34 
Q 2366 -91 2075 -91 
Q 1284 -91 818 406 
Q 353 903 353 1747 
Q 353 2603 823 3093 
Q 1294 3584 2113 3584 
Q 2378 3584 2631 3529 
Q 2884 3475 3122 3366 
z
" transform="scale(0.015625)"/>
       <path id="DejaVuSans-6b" d="M 581 4863 
L 1159 4863 
L 1159 1991 
L 2875 3500 
L 3609 3500 
L 1753 1863 
L 3688 0 
L 2938 0 
L 1159 1709 
L 1159 0 
L 581 0 
L 581 4863 
z
" transform="scale(0.015625)"/>
       <path id="DejaVuSans-68" d="M 3513 2113 
L 3513 0 
L 2938 0 
L 2938 2094 
Q 2938 2591 2744 2837 
Q 2550 3084 2163 3084 
Q 1697 3084 1428 2787 
Q 1159 2491 1159 1978 
L 1159 0 
L 581 0 
L 581 4863 
L 1159 4863 
L 1159 2956 
Q 1366 3272 1645 3428 
Q 1925 3584 2291 3584 
Q 2894 3584 3203 3211 
Q 3513 2838 3513 2113 
z
" transform="scale(0.015625)"/>
       <path id="DejaVuSans-6c" d="M 603 4863 
L 1178 4863 
L 1178 0 
L 603 0 
L 603 4863 
z
" transform="scale(0.015625)"/>
       <path id="DejaVuSans-73" d="M 2834 3397 
L 2834 2853 
Q 2591 2978 2328 3040 
Q 2066 3103 1784 3103 
Q 1356 3103 1142 2972 
Q 928 2841 928 2578 
Q 928 2378 1081 2264 
Q 1234 2150 1697 2047 
L 1894 2003 
Q 2506 1872 2764 1633 
Q 3022 1394 3022 966 
Q 3022 478 2636 193 
Q 2250 -91 1575 -91 
Q 1294 -91 989 -36 
Q 684 19 347 128 
L 347 722 
Q 666 556 975 473 
Q 1284 391 1588 391 
Q 1994 391 2212 530 
Q 2431 669 2431 922 
Q 2431 1156 2273 1281 
Q 2116 1406 1581 1522 
L 1381 1569 
Q 847 1681 609 1914 
Q 372 2147 372 2553 
Q 372 3047 722 3315 
Q 1072 3584 1716 3584 
Q 2034 3584 2315 3537 
Q 2597 3491 2834 3397 
z
" transform="scale(0.015625)"/>
       <path id="DejaVuSans-6e" d="M 3513 2113 
L 3513 0 
L 2938 0 
L 2938 2094 
Q 2938 2591 2744 2837 
Q 2550 3084 2163 3084 
Q 1697 3084 1428 2787 
Q 1159 2491 1159 1978 
L 1159 0 
L 581 0 
L 581 3500 
L 1159 3500 
L 1159 2956 
Q 1366 3272 1645 3428 
Q 1925 3584 2291 3584 
Q 2894 3584 3203 3211 
Q 3513 2838 3513 2113 
z
" transform="scale(0.015625)"/>
      </defs>
      <use xlink:href="#DejaVuSans-4a"/>
      <use xlink:href="#DejaVuSans-61" x="29.492188"/>
      <use xlink:href="#DejaVuSans-63" x="90.771484"/>
      <use xlink:href="#DejaVuSans-6b" x="145.751953"/>
      <use xlink:href="#DejaVuSans-20" x="203.662109"/>
      <use xlink:href="#DejaVuSans-4e" x="235.449219"/>
      <use xlink:href="#DejaVuSans-69" x="310.253906"/>
      <use xlink:href="#DejaVuSans-63" x="338.037109"/>
      <use xlink:href="#DejaVuSans-68" x="393.017578"/>
      <use xlink:href="#DejaVuSans-6f" x="456.396484"/>
      <use xlink:href="#DejaVuSans-6c" x="517.578125"/>
      <use xlink:href="#DejaVuSans-73" x="545.361328"/>
      <use xlink:href="#DejaVuSans-6f" x="597.460938"/>
      <use xlink:href="#DejaVuSans-6e" x="658.642578"/>
     </g>
    </g>
   </g>
   <g id="text_3">
    <g id="patch_4">
     <path d="M 389.648756 148.499083 
L 462.950944 148.499083 
L 462.950944 131.86877 
L 389.648756 131.86877 
z
" clip-path="url(#p7c8d6f8a03)" style="fill: #ffffff; opacity: 0.7; stroke: #000000; stroke-linejoin: miter"/>
    </g>
    <g clip-path="url(#p7c8d6f8a03)">
     <!-- Warwick Davis -->
     <g transform="translate(393.608756 142.667364)scale(0.09 -0.09)">
      <defs>
       <path id="DejaVuSans-57" d="M 213 4666 
L 850 4666 
L 1831 722 
L 2809 4666 
L 3519 4666 
L 4500 722 
L 5478 4666 
L 6119 4666 
L 4947 0 
L 4153 0 
L 3169 4050 
L 2175 0 
L 1381 0 
L 213 4666 
z
" transform="scale(0.015625)"/>
       <path id="DejaVuSans-77" d="M 269 3500 
L 844 3500 
L 1563 769 
L 2278 3500 
L 2956 3500 
L 3675 769 
L 4391 3500 
L 4966 3500 
L 4050 0 
L 3372 0 
L 2619 2869 
L 1863 0 
L 1184 0 
L 269 3500 
z
" transform="scale(0.015625)"/>
       <path id="DejaVuSans-76" d="M 191 3500 
L 800 3500 
L 1894 563 
L 2988 3500 
L 3597 3500 
L 2284 0 
L 1503 0 
L 191 3500 
z
" transform="scale(0.015625)"/>
      </defs>
      <use xlink:href="#DejaVuSans-57"/>
      <use xlink:href="#DejaVuSans-61" x="92.501953"/>
      <use xlink:href="#DejaVuSans-72" x="153.78125"/>
      <use xlink:href="#DejaVuSans-77" x="194.894531"/>
      <use xlink:href="#DejaVuSans-69" x="276.681641"/>
      <use xlink:href="#DejaVuSans-63" x="304.464844"/>
      <use xlink:href="#DejaVuSans-6b" x="359.445312"/>
      <use xlink:href="#DejaVuSans-20" x="417.355469"/>
      <use xlink:href="#DejaVuSans-44" x="449.142578"/>
      <use xlink:href="#DejaVuSans-61" x="526.144531"/>
      <use xlink:href="#DejaVuSans-76" x="587.423828"/>
      <use xlink:href="#DejaVuSans-69" x="646.603516"/>
      <use xlink:href="#DejaVuSans-73" x="674.386719"/>
     </g>
    </g>
   </g>
   <g id="text_4">
    <g id="patch_5">
     <path d="M 309.378588 103.921719 
L 387.949994 103.921719 
L 387.949994 87.291406 
L 309.378588 87.291406 
z
" clip-path="url(#p7c8d6f8a03)" style="fill: #ffffff; opacity: 0.7; stroke: #000000; stroke-linejoin: miter"/>
    </g>
    <g clip-path="url(#p7c8d6f8a03)">
     <!-- Daniel Radcliffe -->
     <g transform="translate(313.338588 98.09)scale(0.09 -0.09)">
      <defs>
       <path id="DejaVuSans-64" d="M 2906 2969 
L 2906 4863 
L 3481 4863 
L 3481 0 
L 2906 0 
L 2906 525 
Q 2725 213 2448 61 
Q 2172 -91 1784 -91 
Q 1150 -91 751 415 
Q 353 922 353 1747 
Q 353 2572 751 3078 
Q 1150 3584 1784 3584 
Q 2172 3584 2448 3432 
Q 2725 3281 2906 2969 
z
M 947 1747 
Q 947 1113 1208 752 
Q 1469 391 1925 391 
Q 2381 391 2643 752 
Q 2906 1113 2906 1747 
Q 2906 2381 2643 2742 
Q 2381 3103 1925 3103 
Q 1469 3103 1208 2742 
Q 947 2381 947 1747 
z
" transform="scale(0.015625)"/>
       <path id="DejaVuSans-66" d="M 2375 4863 
L 2375 4384 
L 1825 4384 
Q 1516 4384 1395 4259 
Q 1275 4134 1275 3809 
L 1275 3500 
L 2222 3500 
L 2222 3053 
L 1275 3053 
L 1275 0 
L 697 0 
L 697 3053 
L 147 3053 
L 147 3500 
L 697 3500 
L 697 3744 
Q 697 4328 969 4595 
Q 1241 4863 1831 4863 
L 2375 4863 
z
" transform="scale(0.015625)"/>
      </defs>
      <use xlink:href="#DejaVuSans-44"/>
      <use xlink:href="#DejaVuSans-61" x="77.001953"/>
      <use xlink:href="#DejaVuSans-6e" x="138.28125"/>
      <use xlink:href="#DejaVuSans-69" x="201.660156"/>
      <use xlink:href="#DejaVuSans-65" x="229.443359"/>
      <use xlink:href="#DejaVuSans-6c" x="290.966797"/>
      <use xlink:href="#DejaVuSans-20" x="318.75"/>
      <use xlink:href="#DejaVuSans-52" x="350.537109"/>
      <use xlink:href="#DejaVuSans-61" x="417.769531"/>
      <use xlink:href="#DejaVuSans-64" x="479.048828"/>
      <use xlink:href="#DejaVuSans-63" x="542.525391"/>
      <use xlink:href="#DejaVuSans-6c" x="597.505859"/>
      <use xlink:href="#DejaVuSans-69" x="625.289062"/>
      <use xlink:href="#DejaVuSans-66" x="653.072266"/>
      <use xlink:href="#DejaVuSans-66" x="688.277344"/>
      <use xlink:href="#DejaVuSans-65" x="723.482422"/>
     </g>
    </g>
   </g>
   <g id="text_5">
    <g id="patch_6">
     <path d="M 235.192674 94.602512 
L 283.826424 94.602512 
L 283.826424 77.9722 
L 235.192674 77.9722 
z
" clip-path="url(#p7c8d6f8a03)" style="fill: #ffffff; opacity: 0.7; stroke: #000000; stroke-linejoin: miter"/>
    </g>
    <g clip-path="url(#p7c8d6f8a03)">
     <!-- Al Pacino -->
     <g transform="translate(239.152674 88.770793)scale(0.09 -0.09)">
      <defs>
       <path id="DejaVuSans-41" d="M 2188 4044 
L 1331 1722 
L 3047 1722 
L 2188 4044 
z
M 1831 4666 
L 2547 4666 
L 4325 0 
L 3669 0 
L 3244 1197 
L 1141 1197 
L 716 0 
L 50 0 
L 1831 4666 
z
" transform="scale(0.015625)"/>
       <path id="DejaVuSans-50" d="M 1259 4147 
L 1259 2394 
L 2053 2394 
Q 2494 2394 2734 2622 
Q 2975 2850 2975 3272 
Q 2975 3691 2734 3919 
Q 2494 4147 2053 4147 
L 1259 4147 
z
M 628 4666 
L 2053 4666 
Q 2838 4666 3239 4311 
Q 3641 3956 3641 3272 
Q 3641 2581 3239 2228 
Q 2838 1875 2053 1875 
L 1259 1875 
L 1259 0 
L 628 0 
L 628 4666 
z
" transform="scale(0.015625)"/>
      </defs>
      <use xlink:href="#DejaVuSans-41"/>
      <use xlink:href="#DejaVuSans-6c" x="68.408203"/>
      <use xlink:href="#DejaVuSans-20" x="96.191406"/>
      <use xlink:href="#DejaVuSans-50" x="127.978516"/>
      <use xlink:href="#DejaVuSans-61" x="183.78125"/>
      <use xlink:href="#DejaVuSans-63" x="245.060547"/>
      <use xlink:href="#DejaVuSans-69" x="300.041016"/>
      <use xlink:href="#DejaVuSans-6e" x="327.824219"/>
      <use xlink:href="#DejaVuSans-6f" x="391.203125"/>
     </g>
    </g>
   </g>
   <g id="text_6">
    <g id="patch_7">
     <path d="M 147.048095 122.152849 
L 201.454501 122.152849 
L 201.454501 105.522536 
L 147.048095 105.522536 
z
" clip-path="url(#p7c8d6f8a03)" style="fill: #ffffff; opacity: 0.7; stroke: #000000; stroke-linejoin: miter"/>
    </g>
    <g clip-path="url(#p7c8d6f8a03)">
     <!-- Jim Carrey -->
     <g transform="translate(151.008095 116.32113)scale(0.09 -0.09)">
      <defs>
       <path id="DejaVuSans-6d" d="M 3328 2828 
Q 3544 3216 3844 3400 
Q 4144 3584 4550 3584 
Q 5097 3584 5394 3201 
Q 5691 2819 5691 2113 
L 5691 0 
L 5113 0 
L 5113 2094 
Q 5113 2597 4934 2840 
Q 4756 3084 4391 3084 
Q 3944 3084 3684 2787 
Q 3425 2491 3425 1978 
L 3425 0 
L 2847 0 
L 2847 2094 
Q 2847 2600 2669 2842 
Q 2491 3084 2119 3084 
Q 1678 3084 1418 2786 
Q 1159 2488 1159 1978 
L 1159 0 
L 581 0 
L 581 3500 
L 1159 3500 
L 1159 2956 
Q 1356 3278 1631 3431 
Q 1906 3584 2284 3584 
Q 2666 3584 2933 3390 
Q 3200 3197 3328 2828 
z
" transform="scale(0.015625)"/>
       <path id="DejaVuSans-43" d="M 4122 4306 
L 4122 3641 
Q 3803 3938 3442 4084 
Q 3081 4231 2675 4231 
Q 1875 4231 1450 3742 
Q 1025 3253 1025 2328 
Q 1025 1406 1450 917 
Q 1875 428 2675 428 
Q 3081 428 3442 575 
Q 3803 722 4122 1019 
L 4122 359 
Q 3791 134 3420 21 
Q 3050 -91 2638 -91 
Q 1578 -91 968 557 
Q 359 1206 359 2328 
Q 359 3453 968 4101 
Q 1578 4750 2638 4750 
Q 3056 4750 3426 4639 
Q 3797 4528 4122 4306 
z
" transform="scale(0.015625)"/>
       <path id="DejaVuSans-79" d="M 2059 -325 
Q 1816 -950 1584 -1140 
Q 1353 -1331 966 -1331 
L 506 -1331 
L 506 -850 
L 844 -850 
Q 1081 -850 1212 -737 
Q 1344 -625 1503 -206 
L 1606 56 
L 191 3500 
L 800 3500 
L 1894 763 
L 2988 3500 
L 3597 3500 
L 2059 -325 
z
" transform="scale(0.015625)"/>
      </defs>
      <use xlink:href="#DejaVuSans-4a"/>
      <use xlink:href="#DejaVuSans-69" x="29.492188"/>
      <use xlink:href="#DejaVuSans-6d" x="57.275391"/>
      <use xlink:href="#DejaVuSans-20" x="154.6875"/>
      <use xlink:href="#DejaVuSans-43" x="186.474609"/>
      <use xlink:href="#DejaVuSans-61" x="256.298828"/>
      <use xlink:href="#DejaVuSans-72" x="317.578125"/>
      <use xlink:href="#DejaVuSans-72" x="356.941406"/>
      <use xlink:href="#DejaVuSans-65" x="395.804688"/>
      <use xlink:href="#DejaVuSans-79" x="457.328125"/>
     </g>
    </g>
   </g>
   <g id="text_7">
    <g id="patch_8">
     <path d="M 78.913743 181.80901 
L 136.349211 181.80901 
L 136.349211 165.178697 
L 78.913743 165.178697 
z
" clip-path="url(#p7c8d6f8a03)" style="fill: #ffffff; opacity: 0.7; stroke: #000000; stroke-linejoin: miter"/>
    </g>
    <g clip-path="url(#p7c8d6f8a03)">
     <!-- Tom Cruise -->
     <g transform="translate(82.873743 175.977291)scale(0.09 -0.09)">
      <defs>
       <path id="DejaVuSans-54" d="M -19 4666 
L 3928 4666 
L 3928 4134 
L 2272 4134 
L 2272 0 
L 1638 0 
L 1638 4134 
L -19 4134 
L -19 4666 
z
" transform="scale(0.015625)"/>
       <path id="DejaVuSans-75" d="M 544 1381 
L 544 3500 
L 1119 3500 
L 1119 1403 
Q 1119 906 1312 657 
Q 1506 409 1894 409 
Q 2359 409 2629 706 
Q 2900 1003 2900 1516 
L 2900 3500 
L 3475 3500 
L 3475 0 
L 2900 0 
L 2900 538 
Q 2691 219 2414 64 
Q 2138 -91 1772 -91 
Q 1169 -91 856 284 
Q 544 659 544 1381 
z
M 1991 3584 
L 1991 3584 
z
" transform="scale(0.015625)"/>
      </defs>
      <use xlink:href="#DejaVuSans-54"/>
      <use xlink:href="#DejaVuSans-6f" x="44.083984"/>
      <use xlink:href="#DejaVuSans-6d" x="105.265625"/>
      <use xlink:href="#DejaVuSans-20" x="202.677734"/>
      <use xlink:href="#DejaVuSans-43" x="234.464844"/>
      <use xlink:href="#DejaVuSans-72" x="304.289062"/>
      <use xlink:href="#DejaVuSans-75" x="345.402344"/>
      <use xlink:href="#DejaVuSans-69" x="408.78125"/>
      <use xlink:href="#DejaVuSans-73" x="436.564453"/>
      <use xlink:href="#DejaVuSans-65" x="488.664062"/>
     </g>
    </g>
   </g>
   <g id="text_8">
    <g id="patch_9">
     <path d="M 36.210559 263.25593 
L 106.127903 263.25593 
L 106.127903 246.625618 
L 36.210559 246.625618 
z
" clip-path="url(#p7c8d6f8a03)" style="fill: #ffffff; opacity: 0.7; stroke: #000000; stroke-linejoin: miter"/>
    </g>
    <g clip-path="url(#p7c8d6f8a03)">
     <!-- Danny DeVito -->
     <g transform="translate(40.170559 257.424211)scale(0.09 -0.09)">
      <defs>
       <path id="DejaVuSans-56" d="M 1831 0 
L 50 4666 
L 709 4666 
L 2188 738 
L 3669 4666 
L 4325 4666 
L 2547 0 
L 1831 0 
z
" transform="scale(0.015625)"/>
      </defs>
      <use xlink:href="#DejaVuSans-44"/>
      <use xlink:href="#DejaVuSans-61" x="77.001953"/>
      <use xlink:href="#DejaVuSans-6e" x="138.28125"/>
      <use xlink:href="#DejaVuSans-6e" x="201.660156"/>
      <use xlink:href="#DejaVuSans-79" x="265.039062"/>
      <use xlink:href="#DejaVuSans-20" x="324.21875"/>
      <use xlink:href="#DejaVuSans-44" x="356.005859"/>
      <use xlink:href="#DejaVuSans-65" x="433.007812"/>
      <use xlink:href="#DejaVuSans-56" x="494.53125"/>
      <use xlink:href="#DejaVuSans-69" x="560.689453"/>
      <use xlink:href="#DejaVuSans-74" x="588.472656"/>
      <use xlink:href="#DejaVuSans-6f" x="627.681641"/>
     </g>
    </g>
   </g>
   <g id="text_9">
    <g id="patch_10">
     <path d="M 38.531587 352.410671 
L 103.8069 352.410671 
L 103.8069 335.780358 
L 38.531587 335.780358 
z
" clip-path="url(#p7c8d6f8a03)" style="fill: #ffffff; opacity: 0.7; stroke: #000000; stroke-linejoin: miter"/>
    </g>
    <g clip-path="url(#p7c8d6f8a03)">
     <!-- Johnny Depp -->
     <g transform="translate(42.491587 346.578952)scale(0.09 -0.09)">
      <defs>
       <path id="DejaVuSans-70" d="M 1159 525 
L 1159 -1331 
L 581 -1331 
L 581 3500 
L 1159 3500 
L 1159 2969 
Q 1341 3281 1617 3432 
Q 1894 3584 2278 3584 
Q 2916 3584 3314 3078 
Q 3713 2572 3713 1747 
Q 3713 922 3314 415 
Q 2916 -91 2278 -91 
Q 1894 -91 1617 61 
Q 1341 213 1159 525 
z
M 3116 1747 
Q 3116 2381 2855 2742 
Q 2594 3103 2138 3103 
Q 1681 3103 1420 2742 
Q 1159 2381 1159 1747 
Q 1159 1113 1420 752 
Q 1681 391 2138 391 
Q 2594 391 2855 752 
Q 3116 1113 3116 1747 
z
" transform="scale(0.015625)"/>
      </defs>
      <use xlink:href="#DejaVuSans-4a"/>
      <use xlink:href="#DejaVuSans-6f" x="29.492188"/>
      <use xlink:href="#DejaVuSans-68" x="90.673828"/>
      <use xlink:href="#DejaVuSans-6e" x="154.052734"/>
      <use xlink:href="#DejaVuSans-6e" x="217.431641"/>
      <use xlink:href="#DejaVuSans-79" x="280.810547"/>
      <use xlink:href="#DejaVuSans-20" x="339.990234"/>
      <use xlink:href="#DejaVuSans-44" x="371.777344"/>
      <use xlink:href="#DejaVuSans-65" x="448.779297"/>
      <use xlink:href="#DejaVuSans-70" x="510.302734"/>
      <use xlink:href="#DejaVuSans-70" x="573.779297"/>
     </g>
    </g>
   </g>
   <g id="text_10">
    <g id="patch_11">
     <path d="M 70.25899 433.857565 
L 145.00399 433.857565 
L 145.00399 417.227253 
L 70.25899 417.227253 
z
" clip-path="url(#p7c8d6f8a03)" style="fill: #ffffff; opacity: 0.7; stroke: #000000; stroke-linejoin: miter"/>
    </g>
    <g clip-path="url(#p7c8d6f8a03)">
     <!-- Steve Buscemi -->
     <g transform="translate(74.21899 428.025847)scale(0.09 -0.09)">
      <defs>
       <path id="DejaVuSans-53" d="M 3425 4513 
L 3425 3897 
Q 3066 4069 2747 4153 
Q 2428 4238 2131 4238 
Q 1616 4238 1336 4038 
Q 1056 3838 1056 3469 
Q 1056 3159 1242 3001 
Q 1428 2844 1947 2747 
L 2328 2669 
Q 3034 2534 3370 2195 
Q 3706 1856 3706 1288 
Q 3706 609 3251 259 
Q 2797 -91 1919 -91 
Q 1588 -91 1214 -16 
Q 841 59 441 206 
L 441 856 
Q 825 641 1194 531 
Q 1563 422 1919 422 
Q 2459 422 2753 634 
Q 3047 847 3047 1241 
Q 3047 1584 2836 1778 
Q 2625 1972 2144 2069 
L 1759 2144 
Q 1053 2284 737 2584 
Q 422 2884 422 3419 
Q 422 4038 858 4394 
Q 1294 4750 2059 4750 
Q 2388 4750 2728 4690 
Q 3069 4631 3425 4513 
z
" transform="scale(0.015625)"/>
       <path id="DejaVuSans-42" d="M 1259 2228 
L 1259 519 
L 2272 519 
Q 2781 519 3026 730 
Q 3272 941 3272 1375 
Q 3272 1813 3026 2020 
Q 2781 2228 2272 2228 
L 1259 2228 
z
M 1259 4147 
L 1259 2741 
L 2194 2741 
Q 2656 2741 2882 2914 
Q 3109 3088 3109 3444 
Q 3109 3797 2882 3972 
Q 2656 4147 2194 4147 
L 1259 4147 
z
M 628 4666 
L 2241 4666 
Q 2963 4666 3353 4366 
Q 3744 4066 3744 3513 
Q 3744 3084 3544 2831 
Q 3344 2578 2956 2516 
Q 3422 2416 3680 2098 
Q 3938 1781 3938 1306 
Q 3938 681 3513 340 
Q 3088 0 2303 0 
L 628 0 
L 628 4666 
z
" transform="scale(0.015625)"/>
      </defs>
      <use xlink:href="#DejaVuSans-53"/>
      <use xlink:href="#DejaVuSans-74" x="63.476562"/>
      <use xlink:href="#DejaVuSans-65" x="102.685547"/>
      <use xlink:href="#DejaVuSans-76" x="164.208984"/>
      <use xlink:href="#DejaVuSans-65" x="223.388672"/>
      <use xlink:href="#DejaVuSans-20" x="284.912109"/>
      <use xlink:href="#DejaVuSans-42" x="316.699219"/>
      <use xlink:href="#DejaVuSans-75" x="385.302734"/>
      <use xlink:href="#DejaVuSans-73" x="448.681641"/>
      <use xlink:href="#DejaVuSans-63" x="500.78125"/>
      <use xlink:href="#DejaVuSans-65" x="555.761719"/>
      <use xlink:href="#DejaVuSans-6d" x="617.285156"/>
      <use xlink:href="#DejaVuSans-69" x="714.697266"/>
     </g>
    </g>
   </g>
   <g id="text_11">
    <g id="patch_12">
     <path d="M 141.139065 493.513727 
L 207.363596 493.513727 
L 207.363596 476.883414 
L 141.139065 476.883414 
z
" clip-path="url(#p7c8d6f8a03)" style="fill: #ffffff; opacity: 0.7; stroke: #000000; stroke-linejoin: miter"/>
    </g>
    <g clip-path="url(#p7c8d6f8a03)">
     <!-- Nicolas Cage -->
     <g transform="translate(145.099065 487.682008)scale(0.09 -0.09)">
      <defs>
       <path id="DejaVuSans-67" d="M 2906 1791 
Q 2906 2416 2648 2759 
Q 2391 3103 1925 3103 
Q 1463 3103 1205 2759 
Q 947 2416 947 1791 
Q 947 1169 1205 825 
Q 1463 481 1925 481 
Q 2391 481 2648 825 
Q 2906 1169 2906 1791 
z
M 3481 434 
Q 3481 -459 3084 -895 
Q 2688 -1331 1869 -1331 
Q 1566 -1331 1297 -1286 
Q 1028 -1241 775 -1147 
L 775 -588 
Q 1028 -725 1275 -790 
Q 1522 -856 1778 -856 
Q 2344 -856 2625 -561 
Q 2906 -266 2906 331 
L 2906 616 
Q 2728 306 2450 153 
Q 2172 0 1784 0 
Q 1141 0 747 490 
Q 353 981 353 1791 
Q 353 2603 747 3093 
Q 1141 3584 1784 3584 
Q 2172 3584 2450 3431 
Q 2728 3278 2906 2969 
L 2906 3500 
L 3481 3500 
L 3481 434 
z
" transform="scale(0.015625)"/>
      </defs>
      <use xlink:href="#DejaVuSans-4e"/>
      <use xlink:href="#DejaVuSans-69" x="74.804688"/>
      <use xlink:href="#DejaVuSans-63" x="102.587891"/>
      <use xlink:href="#DejaVuSans-6f" x="157.568359"/>
      <use xlink:href="#DejaVuSans-6c" x="218.75"/>
      <use xlink:href="#DejaVuSans-61" x="246.533203"/>
      <use xlink:href="#DejaVuSans-73" x="307.8125"/>
      <use xlink:href="#DejaVuSans-20" x="359.912109"/>
      <use xlink:href="#DejaVuSans-43" x="391.699219"/>
      <use xlink:href="#DejaVuSans-61" x="461.523438"/>
      <use xlink:href="#DejaVuSans-67" x="522.802734"/>
      <use xlink:href="#DejaVuSans-65" x="586.279297"/>
     </g>
    </g>
   </g>
   <g id="text_12">
    <g id="patch_13">
     <path d="M 226.225056 521.06405 
L 292.794118 521.06405 
L 292.794118 504.433738 
L 226.225056 504.433738 
z
" clip-path="url(#p7c8d6f8a03)" style="fill: #ffffff; opacity: 0.7; stroke: #000000; stroke-linejoin: miter"/>
    </g>
    <g clip-path="url(#p7c8d6f8a03)">
     <!-- John C. Reilly -->
     <g transform="translate(230.185056 515.232332)scale(0.09 -0.09)">
      <defs>
       <path id="DejaVuSans-2e" d="M 684 794 
L 1344 794 
L 1344 0 
L 684 0 
L 684 794 
z
" transform="scale(0.015625)"/>
      </defs>
      <use xlink:href="#DejaVuSans-4a"/>
      <use xlink:href="#DejaVuSans-6f" x="29.492188"/>
      <use xlink:href="#DejaVuSans-68" x="90.673828"/>
      <use xlink:href="#DejaVuSans-6e" x="154.052734"/>
      <use xlink:href="#DejaVuSans-20" x="217.431641"/>
      <use xlink:href="#DejaVuSans-43" x="249.21875"/>
      <use xlink:href="#DejaVuSans-2e" x="319.042969"/>
      <use xlink:href="#DejaVuSans-20" x="350.830078"/>
      <use xlink:href="#DejaVuSans-52" x="382.617188"/>
      <use xlink:href="#DejaVuSans-65" x="447.599609"/>
      <use xlink:href="#DejaVuSans-69" x="509.123047"/>
      <use xlink:href="#DejaVuSans-6c" x="536.90625"/>
      <use xlink:href="#DejaVuSans-6c" x="564.689453"/>
      <use xlink:href="#DejaVuSans-79" x="592.472656"/>
     </g>
    </g>
   </g>
   <g id="text_13">
    <g id="patch_14">
     <path d="M 312.24948 511.744831 
L 385.079167 511.744831 
L 385.079167 495.114518 
L 312.24948 495.114518 
z
" clip-path="url(#p7c8d6f8a03)" style="fill: #ffffff; opacity: 0.7; stroke: #000000; stroke-linejoin: miter"/>
    </g>
    <g clip-path="url(#p7c8d6f8a03)">
     <!-- Jim Cummings -->
     <g transform="translate(316.20948 505.913112)scale(0.09 -0.09)">
      <use xlink:href="#DejaVuSans-4a"/>
      <use xlink:href="#DejaVuSans-69" x="29.492188"/>
      <use xlink:href="#DejaVuSans-6d" x="57.275391"/>
      <use xlink:href="#DejaVuSans-20" x="154.6875"/>
      <use xlink:href="#DejaVuSans-43" x="186.474609"/>
      <use xlink:href="#DejaVuSans-75" x="256.298828"/>
      <use xlink:href="#DejaVuSans-6d" x="319.677734"/>
      <use xlink:href="#DejaVuSans-6d" x="417.089844"/>
      <use xlink:href="#DejaVuSans-69" x="514.501953"/>
      <use xlink:href="#DejaVuSans-6e" x="542.285156"/>
      <use xlink:href="#DejaVuSans-67" x="605.664062"/>
      <use xlink:href="#DejaVuSans-73" x="669.140625"/>
     </g>
    </g>
   </g>
   <g id="text_14">
    <g id="patch_15">
     <path d="M 383.762232 467.167441 
L 468.837545 467.167441 
L 468.837545 450.537129 
L 383.762232 450.537129 
z
" clip-path="url(#p7c8d6f8a03)" style="fill: #ffffff; opacity: 0.7; stroke: #000000; stroke-linejoin: miter"/>
    </g>
    <g clip-path="url(#p7c8d6f8a03)">
     <!-- Brendan Gleeson -->
     <g transform="translate(387.722232 461.335723)scale(0.09 -0.09)">
      <defs>
       <path id="DejaVuSans-47" d="M 3809 666 
L 3809 1919 
L 2778 1919 
L 2778 2438 
L 4434 2438 
L 4434 434 
Q 4069 175 3628 42 
Q 3188 -91 2688 -91 
Q 1594 -91 976 548 
Q 359 1188 359 2328 
Q 359 3472 976 4111 
Q 1594 4750 2688 4750 
Q 3144 4750 3555 4637 
Q 3966 4525 4313 4306 
L 4313 3634 
Q 3963 3931 3569 4081 
Q 3175 4231 2741 4231 
Q 1884 4231 1454 3753 
Q 1025 3275 1025 2328 
Q 1025 1384 1454 906 
Q 1884 428 2741 428 
Q 3075 428 3337 486 
Q 3600 544 3809 666 
z
" transform="scale(0.015625)"/>
      </defs>
      <use xlink:href="#DejaVuSans-42"/>
      <use xlink:href="#DejaVuSans-72" x="68.603516"/>
      <use xlink:href="#DejaVuSans-65" x="107.466797"/>
      <use xlink:href="#DejaVuSans-6e" x="168.990234"/>
      <use xlink:href="#DejaVuSans-64" x="232.369141"/>
      <use xlink:href="#DejaVuSans-61" x="295.845703"/>
      <use xlink:href="#DejaVuSans-6e" x="357.125"/>
      <use xlink:href="#DejaVuSans-20" x="420.503906"/>
      <use xlink:href="#DejaVuSans-47" x="452.291016"/>
      <use xlink:href="#DejaVuSans-6c" x="529.78125"/>
      <use xlink:href="#DejaVuSans-65" x="557.564453"/>
      <use xlink:href="#DejaVuSans-65" x="619.087891"/>
      <use xlink:href="#DejaVuSans-73" x="680.611328"/>
      <use xlink:href="#DejaVuSans-6f" x="732.710938"/>
      <use xlink:href="#DejaVuSans-6e" x="793.892578"/>
     </g>
    </g>
   </g>
   <g id="text_15">
    <g id="patch_16">
     <path d="M 444.963936 395.039741 
L 513.020811 395.039741 
L 513.020811 378.409428 
L 444.963936 378.409428 
z
" clip-path="url(#p7c8d6f8a03)" style="fill: #ffffff; opacity: 0.7; stroke: #000000; stroke-linejoin: miter"/>
    </g>
    <g clip-path="url(#p7c8d6f8a03)">
     <!-- Kevin Spacey -->
     <g transform="translate(448.923936 389.208022)scale(0.09 -0.09)">
      <defs>
       <path id="DejaVuSans-4b" d="M 628 4666 
L 1259 4666 
L 1259 2694 
L 3353 4666 
L 4166 4666 
L 1850 2491 
L 4331 0 
L 3500 0 
L 1259 2247 
L 1259 0 
L 628 0 
L 628 4666 
z
" transform="scale(0.015625)"/>
      </defs>
      <use xlink:href="#DejaVuSans-4b"/>
      <use xlink:href="#DejaVuSans-65" x="60.576172"/>
      <use xlink:href="#DejaVuSans-76" x="122.099609"/>
      <use xlink:href="#DejaVuSans-69" x="181.279297"/>
      <use xlink:href="#DejaVuSans-6e" x="209.0625"/>
      <use xlink:href="#DejaVuSans-20" x="272.441406"/>
      <use xlink:href="#DejaVuSans-53" x="304.228516"/>
      <use xlink:href="#DejaVuSans-70" x="367.705078"/>
      <use xlink:href="#DejaVuSans-61" x="431.181641"/>
      <use xlink:href="#DejaVuSans-63" x="492.460938"/>
      <use xlink:href="#DejaVuSans-65" x="547.441406"/>
      <use xlink:href="#DejaVuSans-79" x="608.964844"/>
     </g>
    </g>
   </g>
   <g id="text_16">
    <!-- Impactful actors for Family Film genre -->
    <g transform="translate(170.860312 16.318125)scale(0.12 -0.12)">
     <defs>
      <path id="DejaVuSans-49" d="M 628 4666 
L 1259 4666 
L 1259 0 
L 628 0 
L 628 4666 
z
" transform="scale(0.015625)"/>
      <path id="DejaVuSans-46" d="M 628 4666 
L 3309 4666 
L 3309 4134 
L 1259 4134 
L 1259 2759 
L 3109 2759 
L 3109 2228 
L 1259 2228 
L 1259 0 
L 628 0 
L 628 4666 
z
" transform="scale(0.015625)"/>
     </defs>
     <use xlink:href="#DejaVuSans-49"/>
     <use xlink:href="#DejaVuSans-6d" x="29.492188"/>
     <use xlink:href="#DejaVuSans-70" x="126.904297"/>
     <use xlink:href="#DejaVuSans-61" x="190.380859"/>
     <use xlink:href="#DejaVuSans-63" x="251.660156"/>
     <use xlink:href="#DejaVuSans-74" x="306.640625"/>
     <use xlink:href="#DejaVuSans-66" x="345.849609"/>
     <use xlink:href="#DejaVuSans-75" x="381.054688"/>
     <use xlink:href="#DejaVuSans-6c" x="444.433594"/>
     <use xlink:href="#DejaVuSans-20" x="472.216797"/>
     <use xlink:href="#DejaVuSans-61" x="504.003906"/>
     <use xlink:href="#DejaVuSans-63" x="565.283203"/>
     <use xlink:href="#DejaVuSans-74" x="620.263672"/>
     <use xlink:href="#DejaVuSans-6f" x="659.472656"/>
     <use xlink:href="#DejaVuSans-72" x="720.654297"/>
     <use xlink:href="#DejaVuSans-73" x="761.767578"/>
     <use xlink:href="#DejaVuSans-20" x="813.867188"/>
     <use xlink:href="#DejaVuSans-66" x="845.654297"/>
     <use xlink:href="#DejaVuSans-6f" x="880.859375"/>
     <use xlink:href="#DejaVuSans-72" x="942.041016"/>
     <use xlink:href="#DejaVuSans-20" x="983.154297"/>
     <use xlink:href="#DejaVuSans-46" x="1014.941406"/>
     <use xlink:href="#DejaVuSans-61" x="1063.335938"/>
     <use xlink:href="#DejaVuSans-6d" x="1124.615234"/>
     <use xlink:href="#DejaVuSans-69" x="1222.027344"/>
     <use xlink:href="#DejaVuSans-6c" x="1249.810547"/>
     <use xlink:href="#DejaVuSans-79" x="1277.59375"/>
     <use xlink:href="#DejaVuSans-20" x="1336.773438"/>
     <use xlink:href="#DejaVuSans-46" x="1368.560547"/>
     <use xlink:href="#DejaVuSans-69" x="1418.830078"/>
     <use xlink:href="#DejaVuSans-6c" x="1446.613281"/>
     <use xlink:href="#DejaVuSans-6d" x="1474.396484"/>
     <use xlink:href="#DejaVuSans-20" x="1571.808594"/>
     <use xlink:href="#DejaVuSans-67" x="1603.595703"/>
     <use xlink:href="#DejaVuSans-65" x="1667.072266"/>
     <use xlink:href="#DejaVuSans-6e" x="1728.595703"/>
     <use xlink:href="#DejaVuSans-72" x="1791.974609"/>
     <use xlink:href="#DejaVuSans-65" x="1830.837891"/>
    </g>
   </g>
  </g>
 </g>
 <defs>
  <clipPath id="p7c8d6f8a03">
   <rect x="7.2" y="22.318125" width="554.4" height="554.4"/>
  </clipPath>
 </defs>
</svg>
