<?xml version="1.0" encoding="utf-8" standalone="no"?>
<!DOCTYPE svg PUBLIC "-//W3C//DTD SVG 1.1//EN"
  "http://www.w3.org/Graphics/SVG/1.1/DTD/svg11.dtd">
<svg xmlns:xlink="http://www.w3.org/1999/xlink" width="568.8pt" height="583.918125pt" viewBox="0 0 568.8 583.918125" xmlns="http://www.w3.org/2000/svg" version="1.1">
 <metadata>
  <rdf:RDF xmlns:dc="http://purl.org/dc/elements/1.1/" xmlns:cc="http://creativecommons.org/ns#" xmlns:rdf="http://www.w3.org/1999/02/22-rdf-syntax-ns#">
   <cc:Work>
    <dc:type rdf:resource="http://purl.org/dc/dcmitype/StillImage"/>
    <dc:date>2022-12-23T19:50:27.022095</dc:date>
    <dc:format>image/svg+xml</dc:format>
    <dc:creator>
     <cc:Agent>
      <dc:title>Matplotlib v3.5.3, https://matplotlib.org/</dc:title>
     </cc:Agent>
    </dc:creator>
   </cc:Work>
  </rdf:RDF>
 </metadata>
 <defs>
  <style type="text/css">*{stroke-linejoin: round; stroke-linecap: butt}</style>
 </defs>
 <g id="figure_1">
  <g id="patch_1">
   <path d="M 0 583.918125 
L 568.8 583.918125 
L 568.8 0 
L 0 0 
z
" style="fill: #ffffff"/>
  </g>
  <g id="axes_1">
   <g id="PathCollection_1">
    <path d="M 497.630769 326.904253 
C 504.893655 326.904253 511.86005 324.018678 516.995686 318.883042 
C 522.131322 313.747406 525.016897 306.781011 525.016897 299.518125 
C 525.016897 292.255239 522.131322 285.288844 516.995686 280.153208 
C 511.86005 275.017572 504.893655 272.131997 497.630769 272.131997 
C 490.367883 272.131997 483.401488 275.017572 478.265852 280.153208 
C 473.130217 285.288844 470.244641 292.255239 470.244641 299.518125 
C 470.244641 306.781011 473.130217 313.747406 478.265852 318.883042 
C 483.401488 324.018678 490.367883 326.904253 497.630769 326.904253 
z
" clip-path="url(#p9fab68c768)" style="fill: #c70039; fill-opacity: 0.99; stroke: #c70039; stroke-opacity: 0.99"/>
    <path d="M 478.992348 236.839483 
C 485.49721 236.839483 491.736525 234.255074 496.336157 229.655443 
C 500.935789 225.055811 503.520198 218.816495 503.520198 212.311633 
C 503.520198 205.806772 500.935789 199.567456 496.336157 194.967824 
C 491.736525 190.368192 485.49721 187.783783 478.992348 187.783783 
C 472.487486 187.783783 466.248171 190.368192 461.648539 194.967824 
C 457.048907 199.567456 454.464498 205.806772 454.464498 212.311633 
C 454.464498 218.816495 457.048907 225.055811 461.648539 229.655443 
C 466.248171 234.255074 472.487486 236.839483 478.992348 236.839483 
z
" clip-path="url(#p9fab68c768)" style="fill: #c70039; fill-opacity: 0.99; stroke: #c70039; stroke-opacity: 0.99"/>
    <path d="M 426.29985 162.070563 
C 432.104254 162.070563 437.671705 159.764449 441.776039 155.660115 
C 445.880372 151.555782 448.186486 145.98833 448.186486 140.183927 
C 448.186486 134.379523 445.880372 128.812071 441.776039 124.707738 
C 437.671705 120.603405 432.104254 118.297291 426.29985 118.297291 
C 420.495446 118.297291 414.927994 120.603405 410.823661 124.707738 
C 406.719328 128.812071 404.413214 134.379523 404.413214 140.183927 
C 404.413214 145.98833 406.719328 151.555782 410.823661 155.660115 
C 414.927994 159.764449 420.495446 162.070563 426.29985 162.070563 
z
" clip-path="url(#p9fab68c768)" style="fill: #c70039; fill-opacity: 0.99; stroke: #c70039; stroke-opacity: 0.99"/>
    <path d="M 348.664291 116.831831 
C 354.293298 116.831831 359.692513 114.595403 363.672822 110.615094 
C 367.653131 106.634785 369.889559 101.23557 369.889559 95.606563 
C 369.889559 89.977556 367.653131 84.578341 363.672822 80.598032 
C 359.692513 76.617723 354.293298 74.381295 348.664291 74.381295 
C 343.035284 74.381295 337.636069 76.617723 333.65576 80.598032 
C 329.675451 84.578341 327.439023 89.977556 327.439023 95.606563 
C 327.439023 101.23557 329.675451 106.634785 333.65576 110.615094 
C 337.636069 114.595403 343.035284 116.831831 348.664291 116.831831 
z
" clip-path="url(#p9fab68c768)" style="fill: #c70039; fill-opacity: 0.99; stroke: #c70039; stroke-opacity: 0.99"/>
    <path d="M 259.509549 107.247669 
C 265.068289 107.247669 270.400105 105.039158 274.330728 101.108535 
C 278.261351 97.177913 280.469862 91.846096 280.469862 86.287356 
C 280.469862 80.728616 278.261351 75.396799 274.330728 71.466176 
C 270.400105 67.535553 265.068289 65.327043 259.509549 65.327043 
C 253.950809 65.327043 248.618992 67.535553 244.688369 71.466176 
C 240.757746 75.396799 238.549235 80.728616 238.549235 86.287356 
C 238.549235 91.846096 240.757746 97.177913 244.688369 101.108535 
C 248.618992 105.039158 253.950809 107.247669 259.509549 107.247669 
z
" clip-path="url(#p9fab68c768)" style="fill: #c70039; fill-opacity: 0.99; stroke: #c70039; stroke-opacity: 0.99"/>
    <path d="M 174.251298 134.682787 
C 179.779482 134.682787 185.08199 132.486416 188.991006 128.5774 
C 192.900022 124.668384 195.096393 119.365876 195.096393 113.837692 
C 195.096393 108.309509 192.900022 103.007001 188.991006 99.097984 
C 185.08199 95.188968 179.779482 92.992597 174.251298 92.992597 
C 168.723114 92.992597 163.420606 95.188968 159.51159 99.097984 
C 155.602574 103.007001 153.406203 108.309509 153.406203 113.837692 
C 153.406203 119.365876 155.602574 124.668384 159.51159 128.5774 
C 163.420606 132.486416 168.723114 134.682787 174.251298 134.682787 
z
" clip-path="url(#p9fab68c768)" style="fill: #c70039; fill-opacity: 0.99; stroke: #c70039; stroke-opacity: 0.99"/>
    <path d="M 107.631477 194.127352 
C 113.103545 194.127352 118.352227 191.953276 122.221563 188.08394 
C 126.0909 184.214604 128.264975 178.965921 128.264975 173.493854 
C 128.264975 168.021786 126.0909 162.773103 122.221563 158.903767 
C 118.352227 155.034431 113.103545 152.860356 107.631477 152.860356 
C 102.159409 152.860356 96.910727 155.034431 93.041391 158.903767 
C 89.172054 162.773103 86.997979 168.021786 86.997979 173.493854 
C 86.997979 178.965921 89.172054 184.214604 93.041391 188.08394 
C 96.910727 191.953276 102.159409 194.127352 107.631477 194.127352 
z
" clip-path="url(#p9fab68c768)" style="fill: #c70039; fill-opacity: 0.99; stroke: #c70039; stroke-opacity: 0.99"/>
    <path d="M 71.169231 275.018424 
C 76.493886 275.018424 81.601174 272.902916 85.366273 269.137816 
C 89.131373 265.372717 91.246881 260.265429 91.246881 254.940774 
C 91.246881 249.616119 89.131373 244.508831 85.366273 240.743731 
C 81.601174 236.978632 76.493886 234.863124 71.169231 234.863124 
C 65.844576 234.863124 60.737288 236.978632 56.972188 240.743731 
C 53.207089 244.508831 51.091581 249.616119 51.091581 254.940774 
C 51.091581 260.265429 53.207089 265.372717 56.972188 269.137816 
C 60.737288 272.902916 65.844576 275.018424 71.169231 275.018424 
z
" clip-path="url(#p9fab68c768)" style="fill: #c70039; fill-opacity: 0.99; stroke: #c70039; stroke-opacity: 0.99"/>
    <path d="M 71.169244 364.136675 
C 76.484222 364.136675 81.582227 362.025012 85.340484 358.266755 
C 89.098741 354.508498 91.210404 349.410492 91.210404 344.095514 
C 91.210404 338.780536 89.098741 333.682531 85.340484 329.924274 
C 81.582227 326.166017 76.484222 324.054354 71.169244 324.054354 
C 65.854266 324.054354 60.75626 326.166017 56.998003 329.924274 
C 53.239746 333.682531 51.128083 338.780536 51.128083 344.095514 
C 51.128083 349.410492 53.239746 354.508498 56.998003 358.266755 
C 60.75626 362.025012 65.854266 364.136675 71.169244 364.136675 
z
" clip-path="url(#p9fab68c768)" style="fill: #c70039; fill-opacity: 0.99; stroke: #c70039; stroke-opacity: 0.99"/>
    <path d="M 107.63149 445.403475 
C 112.898706 445.403475 117.9509 443.310788 121.675385 439.586304 
C 125.399869 435.861819 127.492556 430.809625 127.492556 425.542409 
C 127.492556 420.275193 125.399869 415.222999 121.675385 411.498514 
C 117.9509 407.77403 112.898706 405.681343 107.63149 405.681343 
C 102.364273 405.681343 97.31208 407.77403 93.587595 411.498514 
C 89.863111 415.222999 87.770423 420.275193 87.770423 425.542409 
C 87.770423 430.809625 89.863111 435.861819 93.587595 439.586304 
C 97.31208 443.310788 102.364273 445.403475 107.63149 445.403475 
z
" clip-path="url(#p9fab68c768)" style="fill: #c70039; fill-opacity: 0.99; stroke: #c70039; stroke-opacity: 0.99"/>
    <path d="M 174.25133 505.007844 
C 179.504811 505.007844 184.54383 502.920614 188.258602 499.205842 
C 191.973374 495.49107 194.060604 490.452051 194.060604 485.198571 
C 194.060604 479.94509 191.973374 474.906071 188.258602 471.191299 
C 184.54383 467.476527 179.504811 465.389297 174.25133 465.389297 
C 168.997849 465.389297 163.95883 467.476527 160.244059 471.191299 
C 156.529287 474.906071 154.442057 479.94509 154.442057 485.198571 
C 154.442057 490.452051 156.529287 495.49107 160.244059 499.205842 
C 163.95883 502.920614 168.997849 505.007844 174.25133 505.007844 
z
" clip-path="url(#p9fab68c768)" style="fill: #c70039; fill-opacity: 0.99; stroke: #c70039; stroke-opacity: 0.99"/>
    <path d="M 259.509587 532.454935 
C 264.73569 532.454935 269.748449 530.378582 273.443862 526.683169 
C 277.139275 522.987756 279.215628 517.974997 279.215628 512.748894 
C 279.215628 507.522791 277.139275 502.510032 273.443862 498.814619 
C 269.748449 495.119206 264.73569 493.042854 259.509587 493.042854 
C 254.283484 493.042854 249.270725 495.119206 245.575312 498.814619 
C 241.879899 502.510032 239.803547 507.522791 239.803547 512.748894 
C 239.803547 517.974997 241.879899 522.987756 245.575312 526.683169 
C 249.270725 530.378582 254.283484 532.454935 259.509587 532.454935 
z
" clip-path="url(#p9fab68c768)" style="fill: #c70039; fill-opacity: 0.99; stroke: #c70039; stroke-opacity: 0.99"/>
    <path d="M 348.664323 523.001007 
C 353.854701 523.001007 358.833194 520.938848 362.503345 517.268696 
C 366.173497 513.598545 368.235656 508.620053 368.235656 503.429675 
C 368.235656 498.239296 366.173497 493.260804 362.503345 489.590653 
C 358.833194 485.920501 353.854701 483.858342 348.664323 483.858342 
C 343.473945 483.858342 338.495453 485.920501 334.825301 489.590653 
C 331.15515 493.260804 329.092991 498.239296 329.092991 503.429675 
C 329.092991 508.620053 331.15515 513.598545 334.825301 517.268696 
C 338.495453 520.938848 343.473945 523.001007 348.664323 523.001007 
z
" clip-path="url(#p9fab68c768)" style="fill: #c70039; fill-opacity: 0.99; stroke: #c70039; stroke-opacity: 0.99"/>
    <path d="M 426.299888 478.256434 
C 431.445929 478.256434 436.381894 476.211891 440.020694 472.573091 
C 443.659494 468.93429 445.704038 463.998326 445.704038 458.852285 
C 445.704038 453.706244 443.659494 448.77028 440.020694 445.131479 
C 436.381894 441.492679 431.445929 439.448136 426.299888 439.448136 
C 421.153848 439.448136 416.217883 441.492679 412.579083 445.131479 
C 408.940283 448.77028 406.895739 453.706244 406.895739 458.852285 
C 406.895739 463.998326 408.940283 468.93429 412.579083 472.573091 
C 416.217883 476.211891 421.153848 478.256434 426.299888 478.256434 
z
" clip-path="url(#p9fab68c768)" style="fill: #c70039; fill-opacity: 0.99; stroke: #c70039; stroke-opacity: 0.99"/>
    <path d="M 478.992374 406.089501 
C 484.128009 406.089501 489.053994 404.049092 492.685437 400.417649 
C 496.31688 396.786206 498.35729 391.860221 498.35729 386.724585 
C 498.35729 381.588949 496.31688 376.662964 492.685437 373.031521 
C 489.053994 369.400078 484.128009 367.359668 478.992374 367.359668 
C 473.856738 367.359668 468.930753 369.400078 465.29931 373.031521 
C 461.667867 376.662964 459.627457 381.588949 459.627457 386.724585 
C 459.627457 391.860221 461.667867 396.786206 465.29931 400.417649 
C 468.930753 404.049092 473.856738 406.089501 478.992374 406.089501 
z
" clip-path="url(#p9fab68c768)" style="fill: #c70039; fill-opacity: 0.99; stroke: #c70039; stroke-opacity: 0.99"/>
   </g>
   <g id="text_1">
    <g id="patch_2">
     <path d="M 471.917488 307.833281 
L 523.34405 307.833281 
L 523.34405 291.202969 
L 471.917488 291.202969 
z
" clip-path="url(#p9fab68c768)" style="fill: #ffffff; opacity: 0.7; stroke: #000000; stroke-linejoin: miter"/>
    </g>
    <g clip-path="url(#p9fab68c768)">
     <!-- Mel Blanc -->
     <g transform="translate(475.877488 302.001562)scale(0.09 -0.09)">
      <defs>
       <path id="DejaVuSans-4d" d="M 628 4666 
L 1569 4666 
L 2759 1491 
L 3956 4666 
L 4897 4666 
L 4897 0 
L 4281 0 
L 4281 4097 
L 3078 897 
L 2444 897 
L 1241 4097 
L 1241 0 
L 628 0 
L 628 4666 
z
" transform="scale(0.015625)"/>
       <path id="DejaVuSans-65" d="M 3597 1894 
L 3597 1613 
L 953 1613 
Q 991 1019 1311 708 
Q 1631 397 2203 397 
Q 2534 397 2845 478 
Q 3156 559 3463 722 
L 3463 178 
Q 3153 47 2828 -22 
Q 2503 -91 2169 -91 
Q 1331 -91 842 396 
Q 353 884 353 1716 
Q 353 2575 817 3079 
Q 1281 3584 2069 3584 
Q 2775 3584 3186 3129 
Q 3597 2675 3597 1894 
z
M 3022 2063 
Q 3016 2534 2758 2815 
Q 2500 3097 2075 3097 
Q 1594 3097 1305 2825 
Q 1016 2553 972 2059 
L 3022 2063 
z
" transform="scale(0.015625)"/>
       <path id="DejaVuSans-6c" d="M 603 4863 
L 1178 4863 
L 1178 0 
L 603 0 
L 603 4863 
z
" transform="scale(0.015625)"/>
       <path id="DejaVuSans-20" transform="scale(0.015625)"/>
       <path id="DejaVuSans-42" d="M 1259 2228 
L 1259 519 
L 2272 519 
Q 2781 519 3026 730 
Q 3272 941 3272 1375 
Q 3272 1813 3026 2020 
Q 2781 2228 2272 2228 
L 1259 2228 
z
M 1259 4147 
L 1259 2741 
L 2194 2741 
Q 2656 2741 2882 2914 
Q 3109 3088 3109 3444 
Q 3109 3797 2882 3972 
Q 2656 4147 2194 4147 
L 1259 4147 
z
M 628 4666 
L 2241 4666 
Q 2963 4666 3353 4366 
Q 3744 4066 3744 3513 
Q 3744 3084 3544 2831 
Q 3344 2578 2956 2516 
Q 3422 2416 3680 2098 
Q 3938 1781 3938 1306 
Q 3938 681 3513 340 
Q 3088 0 2303 0 
L 628 0 
L 628 4666 
z
" transform="scale(0.015625)"/>
       <path id="DejaVuSans-61" d="M 2194 1759 
Q 1497 1759 1228 1600 
Q 959 1441 959 1056 
Q 959 750 1161 570 
Q 1363 391 1709 391 
Q 2188 391 2477 730 
Q 2766 1069 2766 1631 
L 2766 1759 
L 2194 1759 
z
M 3341 1997 
L 3341 0 
L 2766 0 
L 2766 531 
Q 2569 213 2275 61 
Q 1981 -91 1556 -91 
Q 1019 -91 701 211 
Q 384 513 384 1019 
Q 384 1609 779 1909 
Q 1175 2209 1959 2209 
L 2766 2209 
L 2766 2266 
Q 2766 2663 2505 2880 
Q 2244 3097 1772 3097 
Q 1472 3097 1187 3025 
Q 903 2953 641 2809 
L 641 3341 
Q 956 3463 1253 3523 
Q 1550 3584 1831 3584 
Q 2591 3584 2966 3190 
Q 3341 2797 3341 1997 
z
" transform="scale(0.015625)"/>
       <path id="DejaVuSans-6e" d="M 3513 2113 
L 3513 0 
L 2938 0 
L 2938 2094 
Q 2938 2591 2744 2837 
Q 2550 3084 2163 3084 
Q 1697 3084 1428 2787 
Q 1159 2491 1159 1978 
L 1159 0 
L 581 0 
L 581 3500 
L 1159 3500 
L 1159 2956 
Q 1366 3272 1645 3428 
Q 1925 3584 2291 3584 
Q 2894 3584 3203 3211 
Q 3513 2838 3513 2113 
z
" transform="scale(0.015625)"/>
       <path id="DejaVuSans-63" d="M 3122 3366 
L 3122 2828 
Q 2878 2963 2633 3030 
Q 2388 3097 2138 3097 
Q 1578 3097 1268 2742 
Q 959 2388 959 1747 
Q 959 1106 1268 751 
Q 1578 397 2138 397 
Q 2388 397 2633 464 
Q 2878 531 3122 666 
L 3122 134 
Q 2881 22 2623 -34 
Q 2366 -91 2075 -91 
Q 1284 -91 818 406 
Q 353 903 353 1747 
Q 353 2603 823 3093 
Q 1294 3584 2113 3584 
Q 2378 3584 2631 3529 
Q 2884 3475 3122 3366 
z
" transform="scale(0.015625)"/>
      </defs>
      <use xlink:href="#DejaVuSans-4d"/>
      <use xlink:href="#DejaVuSans-65" x="86.279297"/>
      <use xlink:href="#DejaVuSans-6c" x="147.802734"/>
      <use xlink:href="#DejaVuSans-20" x="175.585938"/>
      <use xlink:href="#DejaVuSans-42" x="207.373047"/>
      <use xlink:href="#DejaVuSans-6c" x="275.976562"/>
      <use xlink:href="#DejaVuSans-61" x="303.759766"/>
      <use xlink:href="#DejaVuSans-6e" x="365.039062"/>
      <use xlink:href="#DejaVuSans-63" x="428.417969"/>
     </g>
    </g>
   </g>
   <g id="text_2">
    <g id="patch_3">
     <path d="M 444.033676 220.62679 
L 513.95102 220.62679 
L 513.95102 203.996477 
L 444.033676 203.996477 
z
" clip-path="url(#p9fab68c768)" style="fill: #ffffff; opacity: 0.7; stroke: #000000; stroke-linejoin: miter"/>
    </g>
    <g clip-path="url(#p9fab68c768)">
     <!-- Danny DeVito -->
     <g transform="translate(447.993676 214.795071)scale(0.09 -0.09)">
      <defs>
       <path id="DejaVuSans-44" d="M 1259 4147 
L 1259 519 
L 2022 519 
Q 2988 519 3436 956 
Q 3884 1394 3884 2338 
Q 3884 3275 3436 3711 
Q 2988 4147 2022 4147 
L 1259 4147 
z
M 628 4666 
L 1925 4666 
Q 3281 4666 3915 4102 
Q 4550 3538 4550 2338 
Q 4550 1131 3912 565 
Q 3275 0 1925 0 
L 628 0 
L 628 4666 
z
" transform="scale(0.015625)"/>
       <path id="DejaVuSans-79" d="M 2059 -325 
Q 1816 -950 1584 -1140 
Q 1353 -1331 966 -1331 
L 506 -1331 
L 506 -850 
L 844 -850 
Q 1081 -850 1212 -737 
Q 1344 -625 1503 -206 
L 1606 56 
L 191 3500 
L 800 3500 
L 1894 763 
L 2988 3500 
L 3597 3500 
L 2059 -325 
z
" transform="scale(0.015625)"/>
       <path id="DejaVuSans-56" d="M 1831 0 
L 50 4666 
L 709 4666 
L 2188 738 
L 3669 4666 
L 4325 4666 
L 2547 0 
L 1831 0 
z
" transform="scale(0.015625)"/>
       <path id="DejaVuSans-69" d="M 603 3500 
L 1178 3500 
L 1178 0 
L 603 0 
L 603 3500 
z
M 603 4863 
L 1178 4863 
L 1178 4134 
L 603 4134 
L 603 4863 
z
" transform="scale(0.015625)"/>
       <path id="DejaVuSans-74" d="M 1172 4494 
L 1172 3500 
L 2356 3500 
L 2356 3053 
L 1172 3053 
L 1172 1153 
Q 1172 725 1289 603 
Q 1406 481 1766 481 
L 2356 481 
L 2356 0 
L 1766 0 
Q 1100 0 847 248 
Q 594 497 594 1153 
L 594 3053 
L 172 3053 
L 172 3500 
L 594 3500 
L 594 4494 
L 1172 4494 
z
" transform="scale(0.015625)"/>
       <path id="DejaVuSans-6f" d="M 1959 3097 
Q 1497 3097 1228 2736 
Q 959 2375 959 1747 
Q 959 1119 1226 758 
Q 1494 397 1959 397 
Q 2419 397 2687 759 
Q 2956 1122 2956 1747 
Q 2956 2369 2687 2733 
Q 2419 3097 1959 3097 
z
M 1959 3584 
Q 2709 3584 3137 3096 
Q 3566 2609 3566 1747 
Q 3566 888 3137 398 
Q 2709 -91 1959 -91 
Q 1206 -91 779 398 
Q 353 888 353 1747 
Q 353 2609 779 3096 
Q 1206 3584 1959 3584 
z
" transform="scale(0.015625)"/>
      </defs>
      <use xlink:href="#DejaVuSans-44"/>
      <use xlink:href="#DejaVuSans-61" x="77.001953"/>
      <use xlink:href="#DejaVuSans-6e" x="138.28125"/>
      <use xlink:href="#DejaVuSans-6e" x="201.660156"/>
      <use xlink:href="#DejaVuSans-79" x="265.039062"/>
      <use xlink:href="#DejaVuSans-20" x="324.21875"/>
      <use xlink:href="#DejaVuSans-44" x="356.005859"/>
      <use xlink:href="#DejaVuSans-65" x="433.007812"/>
      <use xlink:href="#DejaVuSans-56" x="494.53125"/>
      <use xlink:href="#DejaVuSans-69" x="560.689453"/>
      <use xlink:href="#DejaVuSans-74" x="588.472656"/>
      <use xlink:href="#DejaVuSans-6f" x="627.681641"/>
     </g>
    </g>
   </g>
   <g id="text_3">
    <g id="patch_4">
     <path d="M 399.666178 148.499083 
L 452.933522 148.499083 
L 452.933522 131.86877 
L 399.666178 131.86877 
z
" clip-path="url(#p9fab68c768)" style="fill: #ffffff; opacity: 0.7; stroke: #000000; stroke-linejoin: miter"/>
    </g>
    <g clip-path="url(#p9fab68c768)">
     <!-- Ray Liotta -->
     <g transform="translate(403.626178 142.667364)scale(0.09 -0.09)">
      <defs>
       <path id="DejaVuSans-52" d="M 2841 2188 
Q 3044 2119 3236 1894 
Q 3428 1669 3622 1275 
L 4263 0 
L 3584 0 
L 2988 1197 
Q 2756 1666 2539 1819 
Q 2322 1972 1947 1972 
L 1259 1972 
L 1259 0 
L 628 0 
L 628 4666 
L 2053 4666 
Q 2853 4666 3247 4331 
Q 3641 3997 3641 3322 
Q 3641 2881 3436 2590 
Q 3231 2300 2841 2188 
z
M 1259 4147 
L 1259 2491 
L 2053 2491 
Q 2509 2491 2742 2702 
Q 2975 2913 2975 3322 
Q 2975 3731 2742 3939 
Q 2509 4147 2053 4147 
L 1259 4147 
z
" transform="scale(0.015625)"/>
       <path id="DejaVuSans-4c" d="M 628 4666 
L 1259 4666 
L 1259 531 
L 3531 531 
L 3531 0 
L 628 0 
L 628 4666 
z
" transform="scale(0.015625)"/>
      </defs>
      <use xlink:href="#DejaVuSans-52"/>
      <use xlink:href="#DejaVuSans-61" x="67.232422"/>
      <use xlink:href="#DejaVuSans-79" x="128.511719"/>
      <use xlink:href="#DejaVuSans-20" x="187.691406"/>
      <use xlink:href="#DejaVuSans-4c" x="219.478516"/>
      <use xlink:href="#DejaVuSans-69" x="275.191406"/>
      <use xlink:href="#DejaVuSans-6f" x="302.974609"/>
      <use xlink:href="#DejaVuSans-74" x="364.15625"/>
      <use xlink:href="#DejaVuSans-74" x="403.365234"/>
      <use xlink:href="#DejaVuSans-61" x="442.574219"/>
     </g>
    </g>
   </g>
   <g id="text_4">
    <g id="patch_5">
     <path d="M 306.097807 103.921719 
L 391.230776 103.921719 
L 391.230776 87.291406 
L 306.097807 87.291406 
z
" clip-path="url(#p9fab68c768)" style="fill: #ffffff; opacity: 0.7; stroke: #000000; stroke-linejoin: miter"/>
    </g>
    <g clip-path="url(#p9fab68c768)">
     <!-- Janeane Garofalo -->
     <g transform="translate(310.057807 98.09)scale(0.09 -0.09)">
      <defs>
       <path id="DejaVuSans-4a" d="M 628 4666 
L 1259 4666 
L 1259 325 
Q 1259 -519 939 -900 
Q 619 -1281 -91 -1281 
L -331 -1281 
L -331 -750 
L -134 -750 
Q 284 -750 456 -515 
Q 628 -281 628 325 
L 628 4666 
z
" transform="scale(0.015625)"/>
       <path id="DejaVuSans-47" d="M 3809 666 
L 3809 1919 
L 2778 1919 
L 2778 2438 
L 4434 2438 
L 4434 434 
Q 4069 175 3628 42 
Q 3188 -91 2688 -91 
Q 1594 -91 976 548 
Q 359 1188 359 2328 
Q 359 3472 976 4111 
Q 1594 4750 2688 4750 
Q 3144 4750 3555 4637 
Q 3966 4525 4313 4306 
L 4313 3634 
Q 3963 3931 3569 4081 
Q 3175 4231 2741 4231 
Q 1884 4231 1454 3753 
Q 1025 3275 1025 2328 
Q 1025 1384 1454 906 
Q 1884 428 2741 428 
Q 3075 428 3337 486 
Q 3600 544 3809 666 
z
" transform="scale(0.015625)"/>
       <path id="DejaVuSans-72" d="M 2631 2963 
Q 2534 3019 2420 3045 
Q 2306 3072 2169 3072 
Q 1681 3072 1420 2755 
Q 1159 2438 1159 1844 
L 1159 0 
L 581 0 
L 581 3500 
L 1159 3500 
L 1159 2956 
Q 1341 3275 1631 3429 
Q 1922 3584 2338 3584 
Q 2397 3584 2469 3576 
Q 2541 3569 2628 3553 
L 2631 2963 
z
" transform="scale(0.015625)"/>
       <path id="DejaVuSans-66" d="M 2375 4863 
L 2375 4384 
L 1825 4384 
Q 1516 4384 1395 4259 
Q 1275 4134 1275 3809 
L 1275 3500 
L 2222 3500 
L 2222 3053 
L 1275 3053 
L 1275 0 
L 697 0 
L 697 3053 
L 147 3053 
L 147 3500 
L 697 3500 
L 697 3744 
Q 697 4328 969 4595 
Q 1241 4863 1831 4863 
L 2375 4863 
z
" transform="scale(0.015625)"/>
      </defs>
      <use xlink:href="#DejaVuSans-4a"/>
      <use xlink:href="#DejaVuSans-61" x="29.492188"/>
      <use xlink:href="#DejaVuSans-6e" x="90.771484"/>
      <use xlink:href="#DejaVuSans-65" x="154.150391"/>
      <use xlink:href="#DejaVuSans-61" x="215.673828"/>
      <use xlink:href="#DejaVuSans-6e" x="276.953125"/>
      <use xlink:href="#DejaVuSans-65" x="340.332031"/>
      <use xlink:href="#DejaVuSans-20" x="401.855469"/>
      <use xlink:href="#DejaVuSans-47" x="433.642578"/>
      <use xlink:href="#DejaVuSans-61" x="511.132812"/>
      <use xlink:href="#DejaVuSans-72" x="572.412109"/>
      <use xlink:href="#DejaVuSans-6f" x="611.275391"/>
      <use xlink:href="#DejaVuSans-66" x="672.457031"/>
      <use xlink:href="#DejaVuSans-61" x="707.662109"/>
      <use xlink:href="#DejaVuSans-6c" x="768.941406"/>
      <use xlink:href="#DejaVuSans-6f" x="796.724609"/>
     </g>
    </g>
   </g>
   <g id="text_5">
    <g id="patch_6">
     <path d="M 229.394002 94.602512 
L 289.625095 94.602512 
L 289.625095 77.9722 
L 229.394002 77.9722 
z
" clip-path="url(#p9fab68c768)" style="fill: #ffffff; opacity: 0.7; stroke: #000000; stroke-linejoin: miter"/>
    </g>
    <g clip-path="url(#p9fab68c768)">
     <!-- Bruce Willis -->
     <g transform="translate(233.354002 88.770793)scale(0.09 -0.09)">
      <defs>
       <path id="DejaVuSans-75" d="M 544 1381 
L 544 3500 
L 1119 3500 
L 1119 1403 
Q 1119 906 1312 657 
Q 1506 409 1894 409 
Q 2359 409 2629 706 
Q 2900 1003 2900 1516 
L 2900 3500 
L 3475 3500 
L 3475 0 
L 2900 0 
L 2900 538 
Q 2691 219 2414 64 
Q 2138 -91 1772 -91 
Q 1169 -91 856 284 
Q 544 659 544 1381 
z
M 1991 3584 
L 1991 3584 
z
" transform="scale(0.015625)"/>
       <path id="DejaVuSans-57" d="M 213 4666 
L 850 4666 
L 1831 722 
L 2809 4666 
L 3519 4666 
L 4500 722 
L 5478 4666 
L 6119 4666 
L 4947 0 
L 4153 0 
L 3169 4050 
L 2175 0 
L 1381 0 
L 213 4666 
z
" transform="scale(0.015625)"/>
       <path id="DejaVuSans-73" d="M 2834 3397 
L 2834 2853 
Q 2591 2978 2328 3040 
Q 2066 3103 1784 3103 
Q 1356 3103 1142 2972 
Q 928 2841 928 2578 
Q 928 2378 1081 2264 
Q 1234 2150 1697 2047 
L 1894 2003 
Q 2506 1872 2764 1633 
Q 3022 1394 3022 966 
Q 3022 478 2636 193 
Q 2250 -91 1575 -91 
Q 1294 -91 989 -36 
Q 684 19 347 128 
L 347 722 
Q 666 556 975 473 
Q 1284 391 1588 391 
Q 1994 391 2212 530 
Q 2431 669 2431 922 
Q 2431 1156 2273 1281 
Q 2116 1406 1581 1522 
L 1381 1569 
Q 847 1681 609 1914 
Q 372 2147 372 2553 
Q 372 3047 722 3315 
Q 1072 3584 1716 3584 
Q 2034 3584 2315 3537 
Q 2597 3491 2834 3397 
z
" transform="scale(0.015625)"/>
      </defs>
      <use xlink:href="#DejaVuSans-42"/>
      <use xlink:href="#DejaVuSans-72" x="68.603516"/>
      <use xlink:href="#DejaVuSans-75" x="109.716797"/>
      <use xlink:href="#DejaVuSans-63" x="173.095703"/>
      <use xlink:href="#DejaVuSans-65" x="228.076172"/>
      <use xlink:href="#DejaVuSans-20" x="289.599609"/>
      <use xlink:href="#DejaVuSans-57" x="321.386719"/>
      <use xlink:href="#DejaVuSans-69" x="418.013672"/>
      <use xlink:href="#DejaVuSans-6c" x="445.796875"/>
      <use xlink:href="#DejaVuSans-6c" x="473.580078"/>
      <use xlink:href="#DejaVuSans-69" x="501.363281"/>
      <use xlink:href="#DejaVuSans-73" x="529.146484"/>
     </g>
    </g>
   </g>
   <g id="text_6">
    <g id="patch_7">
     <path d="M 142.06997 122.152849 
L 206.432626 122.152849 
L 206.432626 105.522536 
L 142.06997 105.522536 
z
" clip-path="url(#p9fab68c768)" style="fill: #ffffff; opacity: 0.7; stroke: #000000; stroke-linejoin: miter"/>
    </g>
    <g clip-path="url(#p9fab68c768)">
     <!-- Peter Sellers -->
     <g transform="translate(146.02997 116.32113)scale(0.09 -0.09)">
      <defs>
       <path id="DejaVuSans-50" d="M 1259 4147 
L 1259 2394 
L 2053 2394 
Q 2494 2394 2734 2622 
Q 2975 2850 2975 3272 
Q 2975 3691 2734 3919 
Q 2494 4147 2053 4147 
L 1259 4147 
z
M 628 4666 
L 2053 4666 
Q 2838 4666 3239 4311 
Q 3641 3956 3641 3272 
Q 3641 2581 3239 2228 
Q 2838 1875 2053 1875 
L 1259 1875 
L 1259 0 
L 628 0 
L 628 4666 
z
" transform="scale(0.015625)"/>
       <path id="DejaVuSans-53" d="M 3425 4513 
L 3425 3897 
Q 3066 4069 2747 4153 
Q 2428 4238 2131 4238 
Q 1616 4238 1336 4038 
Q 1056 3838 1056 3469 
Q 1056 3159 1242 3001 
Q 1428 2844 1947 2747 
L 2328 2669 
Q 3034 2534 3370 2195 
Q 3706 1856 3706 1288 
Q 3706 609 3251 259 
Q 2797 -91 1919 -91 
Q 1588 -91 1214 -16 
Q 841 59 441 206 
L 441 856 
Q 825 641 1194 531 
Q 1563 422 1919 422 
Q 2459 422 2753 634 
Q 3047 847 3047 1241 
Q 3047 1584 2836 1778 
Q 2625 1972 2144 2069 
L 1759 2144 
Q 1053 2284 737 2584 
Q 422 2884 422 3419 
Q 422 4038 858 4394 
Q 1294 4750 2059 4750 
Q 2388 4750 2728 4690 
Q 3069 4631 3425 4513 
z
" transform="scale(0.015625)"/>
      </defs>
      <use xlink:href="#DejaVuSans-50"/>
      <use xlink:href="#DejaVuSans-65" x="56.677734"/>
      <use xlink:href="#DejaVuSans-74" x="118.201172"/>
      <use xlink:href="#DejaVuSans-65" x="157.410156"/>
      <use xlink:href="#DejaVuSans-72" x="218.933594"/>
      <use xlink:href="#DejaVuSans-20" x="260.046875"/>
      <use xlink:href="#DejaVuSans-53" x="291.833984"/>
      <use xlink:href="#DejaVuSans-65" x="355.310547"/>
      <use xlink:href="#DejaVuSans-6c" x="416.833984"/>
      <use xlink:href="#DejaVuSans-6c" x="444.617188"/>
      <use xlink:href="#DejaVuSans-65" x="472.400391"/>
      <use xlink:href="#DejaVuSans-72" x="533.923828"/>
      <use xlink:href="#DejaVuSans-73" x="575.037109"/>
     </g>
    </g>
   </g>
   <g id="text_7">
    <g id="patch_8">
     <path d="M 84.689915 181.80901 
L 130.57304 181.80901 
L 130.57304 165.178697 
L 84.689915 165.178697 
z
" clip-path="url(#p9fab68c768)" style="fill: #ffffff; opacity: 0.7; stroke: #000000; stroke-linejoin: miter"/>
    </g>
    <g clip-path="url(#p9fab68c768)">
     <!-- Jay Leno -->
     <g transform="translate(88.649915 175.977291)scale(0.09 -0.09)">
      <use xlink:href="#DejaVuSans-4a"/>
      <use xlink:href="#DejaVuSans-61" x="29.492188"/>
      <use xlink:href="#DejaVuSans-79" x="90.771484"/>
      <use xlink:href="#DejaVuSans-20" x="149.951172"/>
      <use xlink:href="#DejaVuSans-4c" x="181.738281"/>
      <use xlink:href="#DejaVuSans-65" x="235.701172"/>
      <use xlink:href="#DejaVuSans-6e" x="297.224609"/>
      <use xlink:href="#DejaVuSans-6f" x="360.603516"/>
     </g>
    </g>
   </g>
   <g id="text_8">
    <g id="patch_9">
     <path d="M 33.796731 263.25593 
L 108.541731 263.25593 
L 108.541731 246.625618 
L 33.796731 246.625618 
z
" clip-path="url(#p9fab68c768)" style="fill: #ffffff; opacity: 0.7; stroke: #000000; stroke-linejoin: miter"/>
    </g>
    <g clip-path="url(#p9fab68c768)">
     <!-- Steve Buscemi -->
     <g transform="translate(37.756731 257.424211)scale(0.09 -0.09)">
      <defs>
       <path id="DejaVuSans-76" d="M 191 3500 
L 800 3500 
L 1894 563 
L 2988 3500 
L 3597 3500 
L 2284 0 
L 1503 0 
L 191 3500 
z
" transform="scale(0.015625)"/>
       <path id="DejaVuSans-6d" d="M 3328 2828 
Q 3544 3216 3844 3400 
Q 4144 3584 4550 3584 
Q 5097 3584 5394 3201 
Q 5691 2819 5691 2113 
L 5691 0 
L 5113 0 
L 5113 2094 
Q 5113 2597 4934 2840 
Q 4756 3084 4391 3084 
Q 3944 3084 3684 2787 
Q 3425 2491 3425 1978 
L 3425 0 
L 2847 0 
L 2847 2094 
Q 2847 2600 2669 2842 
Q 2491 3084 2119 3084 
Q 1678 3084 1418 2786 
Q 1159 2488 1159 1978 
L 1159 0 
L 581 0 
L 581 3500 
L 1159 3500 
L 1159 2956 
Q 1356 3278 1631 3431 
Q 1906 3584 2284 3584 
Q 2666 3584 2933 3390 
Q 3200 3197 3328 2828 
z
" transform="scale(0.015625)"/>
      </defs>
      <use xlink:href="#DejaVuSans-53"/>
      <use xlink:href="#DejaVuSans-74" x="63.476562"/>
      <use xlink:href="#DejaVuSans-65" x="102.685547"/>
      <use xlink:href="#DejaVuSans-76" x="164.208984"/>
      <use xlink:href="#DejaVuSans-65" x="223.388672"/>
      <use xlink:href="#DejaVuSans-20" x="284.912109"/>
      <use xlink:href="#DejaVuSans-42" x="316.699219"/>
      <use xlink:href="#DejaVuSans-75" x="385.302734"/>
      <use xlink:href="#DejaVuSans-73" x="448.681641"/>
      <use xlink:href="#DejaVuSans-63" x="500.78125"/>
      <use xlink:href="#DejaVuSans-65" x="555.761719"/>
      <use xlink:href="#DejaVuSans-6d" x="617.285156"/>
      <use xlink:href="#DejaVuSans-69" x="714.697266"/>
     </g>
    </g>
   </g>
   <g id="text_9">
    <g id="patch_10">
     <path d="M 46.144322 352.410671 
L 96.194165 352.410671 
L 96.194165 335.780358 
L 46.144322 335.780358 
z
" clip-path="url(#p9fab68c768)" style="fill: #ffffff; opacity: 0.7; stroke: #000000; stroke-linejoin: miter"/>
    </g>
    <g clip-path="url(#p9fab68c768)">
     <!-- John Hurt -->
     <g transform="translate(50.104322 346.578952)scale(0.09 -0.09)">
      <defs>
       <path id="DejaVuSans-68" d="M 3513 2113 
L 3513 0 
L 2938 0 
L 2938 2094 
Q 2938 2591 2744 2837 
Q 2550 3084 2163 3084 
Q 1697 3084 1428 2787 
Q 1159 2491 1159 1978 
L 1159 0 
L 581 0 
L 581 4863 
L 1159 4863 
L 1159 2956 
Q 1366 3272 1645 3428 
Q 1925 3584 2291 3584 
Q 2894 3584 3203 3211 
Q 3513 2838 3513 2113 
z
" transform="scale(0.015625)"/>
       <path id="DejaVuSans-48" d="M 628 4666 
L 1259 4666 
L 1259 2753 
L 3553 2753 
L 3553 4666 
L 4184 4666 
L 4184 0 
L 3553 0 
L 3553 2222 
L 1259 2222 
L 1259 0 
L 628 0 
L 628 4666 
z
" transform="scale(0.015625)"/>
      </defs>
      <use xlink:href="#DejaVuSans-4a"/>
      <use xlink:href="#DejaVuSans-6f" x="29.492188"/>
      <use xlink:href="#DejaVuSans-68" x="90.673828"/>
      <use xlink:href="#DejaVuSans-6e" x="154.052734"/>
      <use xlink:href="#DejaVuSans-20" x="217.431641"/>
      <use xlink:href="#DejaVuSans-48" x="249.21875"/>
      <use xlink:href="#DejaVuSans-75" x="324.414062"/>
      <use xlink:href="#DejaVuSans-72" x="387.792969"/>
      <use xlink:href="#DejaVuSans-74" x="428.90625"/>
     </g>
    </g>
   </g>
   <g id="text_10">
    <g id="patch_11">
     <path d="M 70.913599 433.857565 
L 144.34938 433.857565 
L 144.34938 417.227253 
L 70.913599 417.227253 
z
" clip-path="url(#p9fab68c768)" style="fill: #ffffff; opacity: 0.7; stroke: #000000; stroke-linejoin: miter"/>
    </g>
    <g clip-path="url(#p9fab68c768)">
     <!-- Frank Langella -->
     <g transform="translate(74.873599 428.025847)scale(0.09 -0.09)">
      <defs>
       <path id="DejaVuSans-46" d="M 628 4666 
L 3309 4666 
L 3309 4134 
L 1259 4134 
L 1259 2759 
L 3109 2759 
L 3109 2228 
L 1259 2228 
L 1259 0 
L 628 0 
L 628 4666 
z
" transform="scale(0.015625)"/>
       <path id="DejaVuSans-6b" d="M 581 4863 
L 1159 4863 
L 1159 1991 
L 2875 3500 
L 3609 3500 
L 1753 1863 
L 3688 0 
L 2938 0 
L 1159 1709 
L 1159 0 
L 581 0 
L 581 4863 
z
" transform="scale(0.015625)"/>
       <path id="DejaVuSans-67" d="M 2906 1791 
Q 2906 2416 2648 2759 
Q 2391 3103 1925 3103 
Q 1463 3103 1205 2759 
Q 947 2416 947 1791 
Q 947 1169 1205 825 
Q 1463 481 1925 481 
Q 2391 481 2648 825 
Q 2906 1169 2906 1791 
z
M 3481 434 
Q 3481 -459 3084 -895 
Q 2688 -1331 1869 -1331 
Q 1566 -1331 1297 -1286 
Q 1028 -1241 775 -1147 
L 775 -588 
Q 1028 -725 1275 -790 
Q 1522 -856 1778 -856 
Q 2344 -856 2625 -561 
Q 2906 -266 2906 331 
L 2906 616 
Q 2728 306 2450 153 
Q 2172 0 1784 0 
Q 1141 0 747 490 
Q 353 981 353 1791 
Q 353 2603 747 3093 
Q 1141 3584 1784 3584 
Q 2172 3584 2450 3431 
Q 2728 3278 2906 2969 
L 2906 3500 
L 3481 3500 
L 3481 434 
z
" transform="scale(0.015625)"/>
      </defs>
      <use xlink:href="#DejaVuSans-46"/>
      <use xlink:href="#DejaVuSans-72" x="50.269531"/>
      <use xlink:href="#DejaVuSans-61" x="91.382812"/>
      <use xlink:href="#DejaVuSans-6e" x="152.662109"/>
      <use xlink:href="#DejaVuSans-6b" x="216.041016"/>
      <use xlink:href="#DejaVuSans-20" x="273.951172"/>
      <use xlink:href="#DejaVuSans-4c" x="305.738281"/>
      <use xlink:href="#DejaVuSans-61" x="361.451172"/>
      <use xlink:href="#DejaVuSans-6e" x="422.730469"/>
      <use xlink:href="#DejaVuSans-67" x="486.109375"/>
      <use xlink:href="#DejaVuSans-65" x="549.585938"/>
      <use xlink:href="#DejaVuSans-6c" x="611.109375"/>
      <use xlink:href="#DejaVuSans-6c" x="638.892578"/>
      <use xlink:href="#DejaVuSans-61" x="666.675781"/>
     </g>
    </g>
   </g>
   <g id="text_11">
    <g id="patch_12">
     <path d="M 131.345236 493.513727 
L 217.157424 493.513727 
L 217.157424 476.883414 
L 131.345236 476.883414 
z
" clip-path="url(#p9fab68c768)" style="fill: #ffffff; opacity: 0.7; stroke: #000000; stroke-linejoin: miter"/>
    </g>
    <g clip-path="url(#p9fab68c768)">
     <!-- Whoopi Goldberg -->
     <g transform="translate(135.305236 487.682008)scale(0.09 -0.09)">
      <defs>
       <path id="DejaVuSans-70" d="M 1159 525 
L 1159 -1331 
L 581 -1331 
L 581 3500 
L 1159 3500 
L 1159 2969 
Q 1341 3281 1617 3432 
Q 1894 3584 2278 3584 
Q 2916 3584 3314 3078 
Q 3713 2572 3713 1747 
Q 3713 922 3314 415 
Q 2916 -91 2278 -91 
Q 1894 -91 1617 61 
Q 1341 213 1159 525 
z
M 3116 1747 
Q 3116 2381 2855 2742 
Q 2594 3103 2138 3103 
Q 1681 3103 1420 2742 
Q 1159 2381 1159 1747 
Q 1159 1113 1420 752 
Q 1681 391 2138 391 
Q 2594 391 2855 752 
Q 3116 1113 3116 1747 
z
" transform="scale(0.015625)"/>
       <path id="DejaVuSans-64" d="M 2906 2969 
L 2906 4863 
L 3481 4863 
L 3481 0 
L 2906 0 
L 2906 525 
Q 2725 213 2448 61 
Q 2172 -91 1784 -91 
Q 1150 -91 751 415 
Q 353 922 353 1747 
Q 353 2572 751 3078 
Q 1150 3584 1784 3584 
Q 2172 3584 2448 3432 
Q 2725 3281 2906 2969 
z
M 947 1747 
Q 947 1113 1208 752 
Q 1469 391 1925 391 
Q 2381 391 2643 752 
Q 2906 1113 2906 1747 
Q 2906 2381 2643 2742 
Q 2381 3103 1925 3103 
Q 1469 3103 1208 2742 
Q 947 2381 947 1747 
z
" transform="scale(0.015625)"/>
       <path id="DejaVuSans-62" d="M 3116 1747 
Q 3116 2381 2855 2742 
Q 2594 3103 2138 3103 
Q 1681 3103 1420 2742 
Q 1159 2381 1159 1747 
Q 1159 1113 1420 752 
Q 1681 391 2138 391 
Q 2594 391 2855 752 
Q 3116 1113 3116 1747 
z
M 1159 2969 
Q 1341 3281 1617 3432 
Q 1894 3584 2278 3584 
Q 2916 3584 3314 3078 
Q 3713 2572 3713 1747 
Q 3713 922 3314 415 
Q 2916 -91 2278 -91 
Q 1894 -91 1617 61 
Q 1341 213 1159 525 
L 1159 0 
L 581 0 
L 581 4863 
L 1159 4863 
L 1159 2969 
z
" transform="scale(0.015625)"/>
      </defs>
      <use xlink:href="#DejaVuSans-57"/>
      <use xlink:href="#DejaVuSans-68" x="98.876953"/>
      <use xlink:href="#DejaVuSans-6f" x="162.255859"/>
      <use xlink:href="#DejaVuSans-6f" x="223.4375"/>
      <use xlink:href="#DejaVuSans-70" x="284.619141"/>
      <use xlink:href="#DejaVuSans-69" x="348.095703"/>
      <use xlink:href="#DejaVuSans-20" x="375.878906"/>
      <use xlink:href="#DejaVuSans-47" x="407.666016"/>
      <use xlink:href="#DejaVuSans-6f" x="485.15625"/>
      <use xlink:href="#DejaVuSans-6c" x="546.337891"/>
      <use xlink:href="#DejaVuSans-64" x="574.121094"/>
      <use xlink:href="#DejaVuSans-62" x="637.597656"/>
      <use xlink:href="#DejaVuSans-65" x="701.074219"/>
      <use xlink:href="#DejaVuSans-72" x="762.597656"/>
      <use xlink:href="#DejaVuSans-67" x="801.960938"/>
     </g>
    </g>
   </g>
   <g id="text_12">
    <g id="patch_13">
     <path d="M 222.180681 521.06405 
L 296.838493 521.06405 
L 296.838493 504.433738 
L 222.180681 504.433738 
z
" clip-path="url(#p9fab68c768)" style="fill: #ffffff; opacity: 0.7; stroke: #000000; stroke-linejoin: miter"/>
    </g>
    <g clip-path="url(#p9fab68c768)">
     <!-- Conrad Vernon -->
     <g transform="translate(226.140681 515.232332)scale(0.09 -0.09)">
      <defs>
       <path id="DejaVuSans-43" d="M 4122 4306 
L 4122 3641 
Q 3803 3938 3442 4084 
Q 3081 4231 2675 4231 
Q 1875 4231 1450 3742 
Q 1025 3253 1025 2328 
Q 1025 1406 1450 917 
Q 1875 428 2675 428 
Q 3081 428 3442 575 
Q 3803 722 4122 1019 
L 4122 359 
Q 3791 134 3420 21 
Q 3050 -91 2638 -91 
Q 1578 -91 968 557 
Q 359 1206 359 2328 
Q 359 3453 968 4101 
Q 1578 4750 2638 4750 
Q 3056 4750 3426 4639 
Q 3797 4528 4122 4306 
z
" transform="scale(0.015625)"/>
      </defs>
      <use xlink:href="#DejaVuSans-43"/>
      <use xlink:href="#DejaVuSans-6f" x="69.824219"/>
      <use xlink:href="#DejaVuSans-6e" x="131.005859"/>
      <use xlink:href="#DejaVuSans-72" x="194.384766"/>
      <use xlink:href="#DejaVuSans-61" x="235.498047"/>
      <use xlink:href="#DejaVuSans-64" x="296.777344"/>
      <use xlink:href="#DejaVuSans-20" x="360.253906"/>
      <use xlink:href="#DejaVuSans-56" x="392.041016"/>
      <use xlink:href="#DejaVuSans-65" x="452.699219"/>
      <use xlink:href="#DejaVuSans-72" x="514.222656"/>
      <use xlink:href="#DejaVuSans-6e" x="553.585938"/>
      <use xlink:href="#DejaVuSans-6f" x="616.964844"/>
      <use xlink:href="#DejaVuSans-6e" x="678.146484"/>
     </g>
    </g>
   </g>
   <g id="text_13">
    <g id="patch_14">
     <path d="M 315.825573 511.744831 
L 381.503073 511.744831 
L 381.503073 495.114518 
L 315.825573 495.114518 
z
" clip-path="url(#p9fab68c768)" style="fill: #ffffff; opacity: 0.7; stroke: #000000; stroke-linejoin: miter"/>
    </g>
    <g clip-path="url(#p9fab68c768)">
     <!-- John Lithgow -->
     <g transform="translate(319.785573 505.913112)scale(0.09 -0.09)">
      <defs>
       <path id="DejaVuSans-77" d="M 269 3500 
L 844 3500 
L 1563 769 
L 2278 3500 
L 2956 3500 
L 3675 769 
L 4391 3500 
L 4966 3500 
L 4050 0 
L 3372 0 
L 2619 2869 
L 1863 0 
L 1184 0 
L 269 3500 
z
" transform="scale(0.015625)"/>
      </defs>
      <use xlink:href="#DejaVuSans-4a"/>
      <use xlink:href="#DejaVuSans-6f" x="29.492188"/>
      <use xlink:href="#DejaVuSans-68" x="90.673828"/>
      <use xlink:href="#DejaVuSans-6e" x="154.052734"/>
      <use xlink:href="#DejaVuSans-20" x="217.431641"/>
      <use xlink:href="#DejaVuSans-4c" x="249.21875"/>
      <use xlink:href="#DejaVuSans-69" x="304.931641"/>
      <use xlink:href="#DejaVuSans-74" x="332.714844"/>
      <use xlink:href="#DejaVuSans-68" x="371.923828"/>
      <use xlink:href="#DejaVuSans-67" x="435.302734"/>
      <use xlink:href="#DejaVuSans-6f" x="498.779297"/>
      <use xlink:href="#DejaVuSans-77" x="559.960938"/>
     </g>
    </g>
   </g>
   <g id="text_14">
    <g id="patch_15">
     <path d="M 393.187623 467.167441 
L 459.412154 467.167441 
L 459.412154 450.537129 
L 393.187623 450.537129 
z
" clip-path="url(#p9fab68c768)" style="fill: #ffffff; opacity: 0.7; stroke: #000000; stroke-linejoin: miter"/>
    </g>
    <g clip-path="url(#p9fab68c768)">
     <!-- Nicolas Cage -->
     <g transform="translate(397.147623 461.335723)scale(0.09 -0.09)">
      <defs>
       <path id="DejaVuSans-4e" d="M 628 4666 
L 1478 4666 
L 3547 763 
L 3547 4666 
L 4159 4666 
L 4159 0 
L 3309 0 
L 1241 3903 
L 1241 0 
L 628 0 
L 628 4666 
z
" transform="scale(0.015625)"/>
      </defs>
      <use xlink:href="#DejaVuSans-4e"/>
      <use xlink:href="#DejaVuSans-69" x="74.804688"/>
      <use xlink:href="#DejaVuSans-63" x="102.587891"/>
      <use xlink:href="#DejaVuSans-6f" x="157.568359"/>
      <use xlink:href="#DejaVuSans-6c" x="218.75"/>
      <use xlink:href="#DejaVuSans-61" x="246.533203"/>
      <use xlink:href="#DejaVuSans-73" x="307.8125"/>
      <use xlink:href="#DejaVuSans-20" x="359.912109"/>
      <use xlink:href="#DejaVuSans-43" x="391.699219"/>
      <use xlink:href="#DejaVuSans-61" x="461.523438"/>
      <use xlink:href="#DejaVuSans-67" x="522.802734"/>
      <use xlink:href="#DejaVuSans-65" x="586.279297"/>
     </g>
    </g>
   </g>
   <g id="text_15">
    <g id="patch_16">
     <path d="M 439.971045 395.039741 
L 518.013702 395.039741 
L 518.013702 378.409428 
L 439.971045 378.409428 
z
" clip-path="url(#p9fab68c768)" style="fill: #ffffff; opacity: 0.7; stroke: #000000; stroke-linejoin: miter"/>
    </g>
    <g clip-path="url(#p9fab68c768)">
     <!-- Anjelica Huston -->
     <g transform="translate(443.931045 389.208022)scale(0.09 -0.09)">
      <defs>
       <path id="DejaVuSans-41" d="M 2188 4044 
L 1331 1722 
L 3047 1722 
L 2188 4044 
z
M 1831 4666 
L 2547 4666 
L 4325 0 
L 3669 0 
L 3244 1197 
L 1141 1197 
L 716 0 
L 50 0 
L 1831 4666 
z
" transform="scale(0.015625)"/>
       <path id="DejaVuSans-6a" d="M 603 3500 
L 1178 3500 
L 1178 -63 
Q 1178 -731 923 -1031 
Q 669 -1331 103 -1331 
L -116 -1331 
L -116 -844 
L 38 -844 
Q 366 -844 484 -692 
Q 603 -541 603 -63 
L 603 3500 
z
M 603 4863 
L 1178 4863 
L 1178 4134 
L 603 4134 
L 603 4863 
z
" transform="scale(0.015625)"/>
      </defs>
      <use xlink:href="#DejaVuSans-41"/>
      <use xlink:href="#DejaVuSans-6e" x="68.408203"/>
      <use xlink:href="#DejaVuSans-6a" x="131.787109"/>
      <use xlink:href="#DejaVuSans-65" x="159.570312"/>
      <use xlink:href="#DejaVuSans-6c" x="221.09375"/>
      <use xlink:href="#DejaVuSans-69" x="248.876953"/>
      <use xlink:href="#DejaVuSans-63" x="276.660156"/>
      <use xlink:href="#DejaVuSans-61" x="331.640625"/>
      <use xlink:href="#DejaVuSans-20" x="392.919922"/>
      <use xlink:href="#DejaVuSans-48" x="424.707031"/>
      <use xlink:href="#DejaVuSans-75" x="499.902344"/>
      <use xlink:href="#DejaVuSans-73" x="563.28125"/>
      <use xlink:href="#DejaVuSans-74" x="615.380859"/>
      <use xlink:href="#DejaVuSans-6f" x="654.589844"/>
      <use xlink:href="#DejaVuSans-6e" x="715.771484"/>
     </g>
    </g>
   </g>
   <g id="text_16">
    <!-- Impactful actors for Horror genre - Importance rank: 3 -->
    <g transform="translate(121.821562 16.318125)scale(0.12 -0.12)">
     <defs>
      <path id="DejaVuSans-49" d="M 628 4666 
L 1259 4666 
L 1259 0 
L 628 0 
L 628 4666 
z
" transform="scale(0.015625)"/>
      <path id="DejaVuSans-2d" d="M 313 2009 
L 1997 2009 
L 1997 1497 
L 313 1497 
L 313 2009 
z
" transform="scale(0.015625)"/>
      <path id="DejaVuSans-3a" d="M 750 794 
L 1409 794 
L 1409 0 
L 750 0 
L 750 794 
z
M 750 3309 
L 1409 3309 
L 1409 2516 
L 750 2516 
L 750 3309 
z
" transform="scale(0.015625)"/>
      <path id="DejaVuSans-33" d="M 2597 2516 
Q 3050 2419 3304 2112 
Q 3559 1806 3559 1356 
Q 3559 666 3084 287 
Q 2609 -91 1734 -91 
Q 1441 -91 1130 -33 
Q 819 25 488 141 
L 488 750 
Q 750 597 1062 519 
Q 1375 441 1716 441 
Q 2309 441 2620 675 
Q 2931 909 2931 1356 
Q 2931 1769 2642 2001 
Q 2353 2234 1838 2234 
L 1294 2234 
L 1294 2753 
L 1863 2753 
Q 2328 2753 2575 2939 
Q 2822 3125 2822 3475 
Q 2822 3834 2567 4026 
Q 2313 4219 1838 4219 
Q 1578 4219 1281 4162 
Q 984 4106 628 3988 
L 628 4550 
Q 988 4650 1302 4700 
Q 1616 4750 1894 4750 
Q 2613 4750 3031 4423 
Q 3450 4097 3450 3541 
Q 3450 3153 3228 2886 
Q 3006 2619 2597 2516 
z
" transform="scale(0.015625)"/>
     </defs>
     <use xlink:href="#DejaVuSans-49"/>
     <use xlink:href="#DejaVuSans-6d" x="29.492188"/>
     <use xlink:href="#DejaVuSans-70" x="126.904297"/>
     <use xlink:href="#DejaVuSans-61" x="190.380859"/>
     <use xlink:href="#DejaVuSans-63" x="251.660156"/>
     <use xlink:href="#DejaVuSans-74" x="306.640625"/>
     <use xlink:href="#DejaVuSans-66" x="345.849609"/>
     <use xlink:href="#DejaVuSans-75" x="381.054688"/>
     <use xlink:href="#DejaVuSans-6c" x="444.433594"/>
     <use xlink:href="#DejaVuSans-20" x="472.216797"/>
     <use xlink:href="#DejaVuSans-61" x="504.003906"/>
     <use xlink:href="#DejaVuSans-63" x="565.283203"/>
     <use xlink:href="#DejaVuSans-74" x="620.263672"/>
     <use xlink:href="#DejaVuSans-6f" x="659.472656"/>
     <use xlink:href="#DejaVuSans-72" x="720.654297"/>
     <use xlink:href="#DejaVuSans-73" x="761.767578"/>
     <use xlink:href="#DejaVuSans-20" x="813.867188"/>
     <use xlink:href="#DejaVuSans-66" x="845.654297"/>
     <use xlink:href="#DejaVuSans-6f" x="880.859375"/>
     <use xlink:href="#DejaVuSans-72" x="942.041016"/>
     <use xlink:href="#DejaVuSans-20" x="983.154297"/>
     <use xlink:href="#DejaVuSans-48" x="1014.941406"/>
     <use xlink:href="#DejaVuSans-6f" x="1090.136719"/>
     <use xlink:href="#DejaVuSans-72" x="1151.318359"/>
     <use xlink:href="#DejaVuSans-72" x="1190.681641"/>
     <use xlink:href="#DejaVuSans-6f" x="1229.544922"/>
     <use xlink:href="#DejaVuSans-72" x="1290.726562"/>
     <use xlink:href="#DejaVuSans-20" x="1331.839844"/>
     <use xlink:href="#DejaVuSans-67" x="1363.626953"/>
     <use xlink:href="#DejaVuSans-65" x="1427.103516"/>
     <use xlink:href="#DejaVuSans-6e" x="1488.626953"/>
     <use xlink:href="#DejaVuSans-72" x="1552.005859"/>
     <use xlink:href="#DejaVuSans-65" x="1590.869141"/>
     <use xlink:href="#DejaVuSans-20" x="1652.392578"/>
     <use xlink:href="#DejaVuSans-2d" x="1684.179688"/>
     <use xlink:href="#DejaVuSans-20" x="1720.263672"/>
     <use xlink:href="#DejaVuSans-49" x="1752.050781"/>
     <use xlink:href="#DejaVuSans-6d" x="1781.542969"/>
     <use xlink:href="#DejaVuSans-70" x="1878.955078"/>
     <use xlink:href="#DejaVuSans-6f" x="1942.431641"/>
     <use xlink:href="#DejaVuSans-72" x="2003.613281"/>
     <use xlink:href="#DejaVuSans-74" x="2044.726562"/>
     <use xlink:href="#DejaVuSans-61" x="2083.935547"/>
     <use xlink:href="#DejaVuSans-6e" x="2145.214844"/>
     <use xlink:href="#DejaVuSans-63" x="2208.59375"/>
     <use xlink:href="#DejaVuSans-65" x="2263.574219"/>
     <use xlink:href="#DejaVuSans-20" x="2325.097656"/>
     <use xlink:href="#DejaVuSans-72" x="2356.884766"/>
     <use xlink:href="#DejaVuSans-61" x="2397.998047"/>
     <use xlink:href="#DejaVuSans-6e" x="2459.277344"/>
     <use xlink:href="#DejaVuSans-6b" x="2522.65625"/>
     <use xlink:href="#DejaVuSans-3a" x="2580.566406"/>
     <use xlink:href="#DejaVuSans-20" x="2614.257812"/>
     <use xlink:href="#DejaVuSans-33" x="2646.044922"/>
    </g>
   </g>
  </g>
 </g>
 <defs>
  <clipPath id="p9fab68c768">
   <rect x="7.2" y="22.318125" width="554.4" height="554.4"/>
  </clipPath>
 </defs>
</svg>
