<?xml version="1.0" encoding="utf-8" standalone="no"?>
<!DOCTYPE svg PUBLIC "-//W3C//DTD SVG 1.1//EN"
  "http://www.w3.org/Graphics/SVG/1.1/DTD/svg11.dtd">
<svg xmlns:xlink="http://www.w3.org/1999/xlink" width="568.8pt" height="583.918125pt" viewBox="0 0 568.8 583.918125" xmlns="http://www.w3.org/2000/svg" version="1.1">
 <metadata>
  <rdf:RDF xmlns:dc="http://purl.org/dc/elements/1.1/" xmlns:cc="http://creativecommons.org/ns#" xmlns:rdf="http://www.w3.org/1999/02/22-rdf-syntax-ns#">
   <cc:Work>
    <dc:type rdf:resource="http://purl.org/dc/dcmitype/StillImage"/>
    <dc:date>2022-12-22T19:12:49.449196</dc:date>
    <dc:format>image/svg+xml</dc:format>
    <dc:creator>
     <cc:Agent>
      <dc:title>Matplotlib v3.5.2, https://matplotlib.org/</dc:title>
     </cc:Agent>
    </dc:creator>
   </cc:Work>
  </rdf:RDF>
 </metadata>
 <defs>
  <style type="text/css">*{stroke-linejoin: round; stroke-linecap: butt}</style>
 </defs>
 <g id="figure_1">
  <g id="patch_1">
   <path d="M 0 583.918125 
L 568.8 583.918125 
L 568.8 0 
L 0 0 
z
" style="fill: #ffffff"/>
  </g>
  <g id="axes_1">
   <g id="PathCollection_1">
    <path d="M 497.630769 326.904253 
C 504.893655 326.904253 511.86005 324.018678 516.995686 318.883042 
C 522.131322 313.747406 525.016897 306.781011 525.016897 299.518125 
C 525.016897 292.255239 522.131322 285.288844 516.995686 280.153208 
C 511.86005 275.017572 504.893655 272.131997 497.630769 272.131997 
C 490.367883 272.131997 483.401488 275.017572 478.265852 280.153208 
C 473.130217 285.288844 470.244641 292.255239 470.244641 299.518125 
C 470.244641 306.781011 473.130217 313.747406 478.265852 318.883042 
C 483.401488 324.018678 490.367883 326.904253 497.630769 326.904253 
z
" clip-path="url(#pc64b0a4223)" style="fill: #d62728; fill-opacity: 0.99; stroke: #d62728; stroke-opacity: 0.99"/>
    <path d="M 478.992348 238.914237 
C 486.047441 238.914237 492.814525 236.111218 497.803229 231.122514 
C 502.791933 226.133811 505.594951 219.366726 505.594951 212.311633 
C 505.594951 205.256541 502.791933 198.489456 497.803229 193.500752 
C 492.814525 188.512048 486.047441 185.70903 478.992348 185.70903 
C 471.937255 185.70903 465.170171 188.512048 460.181467 193.500752 
C 455.192763 198.489456 452.389745 205.256541 452.389745 212.311633 
C 452.389745 219.366726 455.192763 226.133811 460.181467 231.122514 
C 465.170171 236.111218 471.937255 238.914237 478.992348 238.914237 
z
" clip-path="url(#pc64b0a4223)" style="fill: #d62728; fill-opacity: 0.99; stroke: #d62728; stroke-opacity: 0.99"/>
    <path d="M 426.29985 164.083818 
C 432.638175 164.083818 438.717752 161.565574 443.199625 157.083702 
C 447.681498 152.601829 450.199741 146.522252 450.199741 140.183927 
C 450.199741 133.845601 447.681498 127.766024 443.199625 123.284152 
C 438.717752 118.802279 432.638175 116.284036 426.29985 116.284036 
C 419.961525 116.284036 413.881948 118.802279 409.400075 123.284152 
C 404.918202 127.766024 402.399959 133.845601 402.399959 140.183927 
C 402.399959 146.522252 404.918202 152.601829 409.400075 157.083702 
C 413.881948 161.565574 419.961525 164.083818 426.29985 164.083818 
z
" clip-path="url(#pc64b0a4223)" style="fill: #d62728; fill-opacity: 0.99; stroke: #d62728; stroke-opacity: 0.99"/>
    <path d="M 348.664291 118.608313 
C 354.764427 118.608313 360.615538 116.184703 364.928985 111.871256 
C 369.242432 107.557809 371.666042 101.706698 371.666042 95.606563 
C 371.666042 89.506427 369.242432 83.655316 364.928985 79.341869 
C 360.615538 75.028422 354.764427 72.604812 348.664291 72.604812 
C 342.564156 72.604812 336.713045 75.028422 332.399598 79.341869 
C 328.08615 83.655316 325.662541 89.506427 325.662541 95.606563 
C 325.662541 101.706698 328.08615 107.557809 332.399598 111.871256 
C 336.713045 116.184703 342.564156 118.608313 348.664291 118.608313 
z
" clip-path="url(#pc64b0a4223)" style="fill: #d62728; fill-opacity: 0.99; stroke: #d62728; stroke-opacity: 0.99"/>
    <path d="M 259.509549 108.884815 
C 265.502465 108.884815 271.250733 106.503804 275.488365 102.266172 
C 279.725997 98.028541 282.107008 92.280272 282.107008 86.287356 
C 282.107008 80.29444 279.725997 74.546171 275.488365 70.308539 
C 271.250733 66.070908 265.502465 63.689897 259.509549 63.689897 
C 253.516632 63.689897 247.768364 66.070908 243.530732 70.308539 
C 239.2931 74.546171 236.91209 80.29444 236.91209 86.287356 
C 236.91209 92.280272 239.2931 98.028541 243.530732 102.266172 
C 247.768364 106.503804 253.516632 108.884815 259.509549 108.884815 
z
" clip-path="url(#pc64b0a4223)" style="fill: #d62728; fill-opacity: 0.99; stroke: #d62728; stroke-opacity: 0.99"/>
    <path d="M 174.251298 136.136984 
C 180.165139 136.136984 185.837561 133.78739 190.019279 129.605673 
C 194.200996 125.423956 196.55059 119.751534 196.55059 113.837692 
C 196.55059 107.923851 194.200996 102.251429 190.019279 98.069712 
C 185.837561 93.887994 180.165139 91.5384 174.251298 91.5384 
C 168.337457 91.5384 162.665035 93.887994 158.483317 98.069712 
C 154.3016 102.251429 151.952006 107.923851 151.952006 113.837692 
C 151.952006 119.751534 154.3016 125.423956 158.483317 129.605673 
C 162.665035 133.78739 168.337457 136.136984 174.251298 136.136984 
z
" clip-path="url(#pc64b0a4223)" style="fill: #d62728; fill-opacity: 0.99; stroke: #d62728; stroke-opacity: 0.99"/>
    <path d="M 107.631477 195.238897 
C 113.39833 195.238897 118.929764 192.947702 123.007545 188.869921 
C 127.085325 184.79214 129.37652 179.260707 129.37652 173.493854 
C 129.37652 167.727001 127.085325 162.195567 123.007545 158.117786 
C 118.929764 154.040005 113.39833 151.748811 107.631477 151.748811 
C 101.864624 151.748811 96.33319 154.040005 92.255409 158.117786 
C 88.177629 162.195567 85.886434 167.727001 85.886434 173.493854 
C 85.886434 179.260707 88.177629 184.79214 92.255409 188.869921 
C 96.33319 192.947702 101.864624 195.238897 107.631477 195.238897 
z
" clip-path="url(#pc64b0a4223)" style="fill: #d62728; fill-opacity: 0.99; stroke: #d62728; stroke-opacity: 0.99"/>
    <path d="M 71.169231 276.507491 
C 76.888791 276.507491 82.374863 274.235085 86.419203 270.190746 
C 90.463542 266.146406 92.735948 260.660334 92.735948 254.940774 
C 92.735948 249.221214 90.463542 243.735142 86.419203 239.690802 
C 82.374863 235.646462 76.888791 233.374057 71.169231 233.374057 
C 65.449671 233.374057 59.963599 235.646462 55.919259 239.690802 
C 51.874919 243.735142 49.602514 249.221214 49.602514 254.940774 
C 49.602514 260.660334 51.874919 266.146406 55.919259 270.190746 
C 59.963599 274.235085 65.449671 276.507491 71.169231 276.507491 
z
" clip-path="url(#pc64b0a4223)" style="fill: #d62728; fill-opacity: 0.99; stroke: #d62728; stroke-opacity: 0.99"/>
    <path d="M 71.169244 364.930663 
C 76.69479 364.930663 81.994767 362.73534 85.901918 358.828189 
C 89.80907 354.921038 92.004392 349.62106 92.004392 344.095514 
C 92.004392 338.569968 89.80907 333.269991 85.901918 329.36284 
C 81.994767 325.455689 76.69479 323.260366 71.169244 323.260366 
C 65.643698 323.260366 60.34372 325.455689 56.436569 329.36284 
C 52.529418 333.269991 50.334095 338.569968 50.334095 344.095514 
C 50.334095 349.62106 52.529418 354.921038 56.436569 358.828189 
C 60.34372 362.73534 65.643698 364.930663 71.169244 364.930663 
z
" clip-path="url(#pc64b0a4223)" style="fill: #d62728; fill-opacity: 0.99; stroke: #d62728; stroke-opacity: 0.99"/>
    <path d="M 107.63149 445.884607 
C 113.026304 445.884607 118.200886 443.741224 122.015596 439.926515 
C 125.830305 436.111805 127.973687 430.937223 127.973687 425.542409 
C 127.973687 420.147595 125.830305 414.973013 122.015596 411.158303 
C 118.200886 407.343594 113.026304 405.200211 107.63149 405.200211 
C 102.236676 405.200211 97.062093 407.343594 93.247384 411.158303 
C 89.432675 414.973013 87.289292 420.147595 87.289292 425.542409 
C 87.289292 430.937223 89.432675 436.111805 93.247384 439.926515 
C 97.062093 443.741224 102.236676 445.884607 107.63149 445.884607 
z
" clip-path="url(#pc64b0a4223)" style="fill: #d62728; fill-opacity: 0.99; stroke: #d62728; stroke-opacity: 0.99"/>
    <path d="M 174.25133 505.286094 
C 179.578604 505.286094 184.688403 503.169546 188.455354 499.402595 
C 192.222306 495.635643 194.338854 490.525844 194.338854 485.198571 
C 194.338854 479.871297 192.222306 474.761498 188.455354 470.994546 
C 184.688403 467.227595 179.578604 465.111047 174.25133 465.111047 
C 168.924057 465.111047 163.814257 467.227595 160.047306 470.994546 
C 156.280355 474.761498 154.163807 479.871297 154.163807 485.198571 
C 154.163807 490.525844 156.280355 495.635643 160.047306 499.402595 
C 163.814257 503.169546 168.924057 505.286094 174.25133 505.286094 
z
" clip-path="url(#pc64b0a4223)" style="fill: #d62728; fill-opacity: 0.99; stroke: #d62728; stroke-opacity: 0.99"/>
    <path d="M 259.509587 532.8329 
C 264.835928 532.8329 269.944832 530.716722 273.711124 526.950431 
C 277.477415 523.184139 279.593593 518.075235 279.593593 512.748894 
C 279.593593 507.422554 277.477415 502.313649 273.711124 498.547358 
C 269.944832 494.781066 264.835928 492.664889 259.509587 492.664889 
C 254.183247 492.664889 249.074342 494.781066 245.308051 498.547358 
C 241.541759 502.313649 239.425581 507.422554 239.425581 512.748894 
C 239.425581 518.075235 241.541759 523.184139 245.308051 526.950431 
C 249.074342 530.716722 254.183247 532.8329 259.509587 532.8329 
z
" clip-path="url(#pc64b0a4223)" style="fill: #d62728; fill-opacity: 0.99; stroke: #d62728; stroke-opacity: 0.99"/>
    <path d="M 348.664323 523.504356 
C 353.988191 523.504356 359.094724 521.389161 362.859267 517.624618 
C 366.62381 513.860075 368.739005 508.753542 368.739005 503.429675 
C 368.739005 498.105807 366.62381 492.999274 362.859267 489.234731 
C 359.094724 485.470188 353.988191 483.354993 348.664323 483.354993 
C 343.340456 483.354993 338.233923 485.470188 334.46938 489.234731 
C 330.704837 492.999274 328.589642 498.105807 328.589642 503.429675 
C 328.589642 508.753542 330.704837 513.860075 334.46938 517.624618 
C 338.233923 521.389161 343.340456 523.504356 348.664323 523.504356 
z
" clip-path="url(#pc64b0a4223)" style="fill: #d62728; fill-opacity: 0.99; stroke: #d62728; stroke-opacity: 0.99"/>
    <path d="M 426.299888 478.67769 
C 431.557647 478.67769 436.60077 476.58876 440.318567 472.870963 
C 444.036364 469.153166 446.125293 464.110044 446.125293 458.852285 
C 446.125293 453.594526 444.036364 448.551404 440.318567 444.833607 
C 436.60077 441.11581 431.557647 439.02688 426.299888 439.02688 
C 421.04213 439.02688 415.999007 441.11581 412.28121 444.833607 
C 408.563413 448.551404 406.474483 453.594526 406.474483 458.852285 
C 406.474483 464.110044 408.563413 469.153166 412.28121 472.870963 
C 415.999007 476.58876 421.04213 478.67769 426.299888 478.67769 
z
" clip-path="url(#pc64b0a4223)" style="fill: #d62728; fill-opacity: 0.99; stroke: #d62728; stroke-opacity: 0.99"/>
    <path d="M 478.992374 406.089501 
C 484.128009 406.089501 489.053994 404.049092 492.685437 400.417649 
C 496.31688 396.786206 498.35729 391.860221 498.35729 386.724585 
C 498.35729 381.588949 496.31688 376.662964 492.685437 373.031521 
C 489.053994 369.400078 484.128009 367.359668 478.992374 367.359668 
C 473.856738 367.359668 468.930753 369.400078 465.29931 373.031521 
C 461.667867 376.662964 459.627457 381.588949 459.627457 386.724585 
C 459.627457 391.860221 461.667867 396.786206 465.29931 400.417649 
C 468.930753 404.049092 473.856738 406.089501 478.992374 406.089501 
z
" clip-path="url(#pc64b0a4223)" style="fill: #d62728; fill-opacity: 0.99; stroke: #d62728; stroke-opacity: 0.99"/>
   </g>
   <g id="text_1">
    <g id="patch_2">
     <path d="M 467.708582 307.833281 
L 527.552957 307.833281 
L 527.552957 291.202969 
L 467.708582 291.202969 
z
" clip-path="url(#pc64b0a4223)" style="fill: #ffffff; opacity: 0.7; stroke: #000000; stroke-linejoin: miter"/>
    </g>
    <g clip-path="url(#pc64b0a4223)">
     <!-- Rene Russo -->
     <g transform="translate(471.668582 302.001562)scale(0.09 -0.09)">
      <defs>
       <path id="DejaVuSans-52" d="M 2841 2188 
Q 3044 2119 3236 1894 
Q 3428 1669 3622 1275 
L 4263 0 
L 3584 0 
L 2988 1197 
Q 2756 1666 2539 1819 
Q 2322 1972 1947 1972 
L 1259 1972 
L 1259 0 
L 628 0 
L 628 4666 
L 2053 4666 
Q 2853 4666 3247 4331 
Q 3641 3997 3641 3322 
Q 3641 2881 3436 2590 
Q 3231 2300 2841 2188 
z
M 1259 4147 
L 1259 2491 
L 2053 2491 
Q 2509 2491 2742 2702 
Q 2975 2913 2975 3322 
Q 2975 3731 2742 3939 
Q 2509 4147 2053 4147 
L 1259 4147 
z
" transform="scale(0.015625)"/>
       <path id="DejaVuSans-65" d="M 3597 1894 
L 3597 1613 
L 953 1613 
Q 991 1019 1311 708 
Q 1631 397 2203 397 
Q 2534 397 2845 478 
Q 3156 559 3463 722 
L 3463 178 
Q 3153 47 2828 -22 
Q 2503 -91 2169 -91 
Q 1331 -91 842 396 
Q 353 884 353 1716 
Q 353 2575 817 3079 
Q 1281 3584 2069 3584 
Q 2775 3584 3186 3129 
Q 3597 2675 3597 1894 
z
M 3022 2063 
Q 3016 2534 2758 2815 
Q 2500 3097 2075 3097 
Q 1594 3097 1305 2825 
Q 1016 2553 972 2059 
L 3022 2063 
z
" transform="scale(0.015625)"/>
       <path id="DejaVuSans-6e" d="M 3513 2113 
L 3513 0 
L 2938 0 
L 2938 2094 
Q 2938 2591 2744 2837 
Q 2550 3084 2163 3084 
Q 1697 3084 1428 2787 
Q 1159 2491 1159 1978 
L 1159 0 
L 581 0 
L 581 3500 
L 1159 3500 
L 1159 2956 
Q 1366 3272 1645 3428 
Q 1925 3584 2291 3584 
Q 2894 3584 3203 3211 
Q 3513 2838 3513 2113 
z
" transform="scale(0.015625)"/>
       <path id="DejaVuSans-20" transform="scale(0.015625)"/>
       <path id="DejaVuSans-75" d="M 544 1381 
L 544 3500 
L 1119 3500 
L 1119 1403 
Q 1119 906 1312 657 
Q 1506 409 1894 409 
Q 2359 409 2629 706 
Q 2900 1003 2900 1516 
L 2900 3500 
L 3475 3500 
L 3475 0 
L 2900 0 
L 2900 538 
Q 2691 219 2414 64 
Q 2138 -91 1772 -91 
Q 1169 -91 856 284 
Q 544 659 544 1381 
z
M 1991 3584 
L 1991 3584 
z
" transform="scale(0.015625)"/>
       <path id="DejaVuSans-73" d="M 2834 3397 
L 2834 2853 
Q 2591 2978 2328 3040 
Q 2066 3103 1784 3103 
Q 1356 3103 1142 2972 
Q 928 2841 928 2578 
Q 928 2378 1081 2264 
Q 1234 2150 1697 2047 
L 1894 2003 
Q 2506 1872 2764 1633 
Q 3022 1394 3022 966 
Q 3022 478 2636 193 
Q 2250 -91 1575 -91 
Q 1294 -91 989 -36 
Q 684 19 347 128 
L 347 722 
Q 666 556 975 473 
Q 1284 391 1588 391 
Q 1994 391 2212 530 
Q 2431 669 2431 922 
Q 2431 1156 2273 1281 
Q 2116 1406 1581 1522 
L 1381 1569 
Q 847 1681 609 1914 
Q 372 2147 372 2553 
Q 372 3047 722 3315 
Q 1072 3584 1716 3584 
Q 2034 3584 2315 3537 
Q 2597 3491 2834 3397 
z
" transform="scale(0.015625)"/>
       <path id="DejaVuSans-6f" d="M 1959 3097 
Q 1497 3097 1228 2736 
Q 959 2375 959 1747 
Q 959 1119 1226 758 
Q 1494 397 1959 397 
Q 2419 397 2687 759 
Q 2956 1122 2956 1747 
Q 2956 2369 2687 2733 
Q 2419 3097 1959 3097 
z
M 1959 3584 
Q 2709 3584 3137 3096 
Q 3566 2609 3566 1747 
Q 3566 888 3137 398 
Q 2709 -91 1959 -91 
Q 1206 -91 779 398 
Q 353 888 353 1747 
Q 353 2609 779 3096 
Q 1206 3584 1959 3584 
z
" transform="scale(0.015625)"/>
      </defs>
      <use xlink:href="#DejaVuSans-52"/>
      <use xlink:href="#DejaVuSans-65" x="64.982422"/>
      <use xlink:href="#DejaVuSans-6e" x="126.505859"/>
      <use xlink:href="#DejaVuSans-65" x="189.884766"/>
      <use xlink:href="#DejaVuSans-20" x="251.408203"/>
      <use xlink:href="#DejaVuSans-52" x="283.195312"/>
      <use xlink:href="#DejaVuSans-75" x="348.177734"/>
      <use xlink:href="#DejaVuSans-73" x="411.556641"/>
      <use xlink:href="#DejaVuSans-73" x="463.65625"/>
      <use xlink:href="#DejaVuSans-6f" x="515.755859"/>
     </g>
    </g>
   </g>
   <g id="text_2">
    <g id="patch_3">
     <path d="M 437.187348 220.62679 
L 520.797348 220.62679 
L 520.797348 203.996477 
L 437.187348 203.996477 
z
" clip-path="url(#pc64b0a4223)" style="fill: #ffffff; opacity: 0.7; stroke: #000000; stroke-linejoin: miter"/>
    </g>
    <g clip-path="url(#pc64b0a4223)">
     <!-- Morgan Freeman -->
     <g transform="translate(441.147348 214.795071)scale(0.09 -0.09)">
      <defs>
       <path id="DejaVuSans-4d" d="M 628 4666 
L 1569 4666 
L 2759 1491 
L 3956 4666 
L 4897 4666 
L 4897 0 
L 4281 0 
L 4281 4097 
L 3078 897 
L 2444 897 
L 1241 4097 
L 1241 0 
L 628 0 
L 628 4666 
z
" transform="scale(0.015625)"/>
       <path id="DejaVuSans-72" d="M 2631 2963 
Q 2534 3019 2420 3045 
Q 2306 3072 2169 3072 
Q 1681 3072 1420 2755 
Q 1159 2438 1159 1844 
L 1159 0 
L 581 0 
L 581 3500 
L 1159 3500 
L 1159 2956 
Q 1341 3275 1631 3429 
Q 1922 3584 2338 3584 
Q 2397 3584 2469 3576 
Q 2541 3569 2628 3553 
L 2631 2963 
z
" transform="scale(0.015625)"/>
       <path id="DejaVuSans-67" d="M 2906 1791 
Q 2906 2416 2648 2759 
Q 2391 3103 1925 3103 
Q 1463 3103 1205 2759 
Q 947 2416 947 1791 
Q 947 1169 1205 825 
Q 1463 481 1925 481 
Q 2391 481 2648 825 
Q 2906 1169 2906 1791 
z
M 3481 434 
Q 3481 -459 3084 -895 
Q 2688 -1331 1869 -1331 
Q 1566 -1331 1297 -1286 
Q 1028 -1241 775 -1147 
L 775 -588 
Q 1028 -725 1275 -790 
Q 1522 -856 1778 -856 
Q 2344 -856 2625 -561 
Q 2906 -266 2906 331 
L 2906 616 
Q 2728 306 2450 153 
Q 2172 0 1784 0 
Q 1141 0 747 490 
Q 353 981 353 1791 
Q 353 2603 747 3093 
Q 1141 3584 1784 3584 
Q 2172 3584 2450 3431 
Q 2728 3278 2906 2969 
L 2906 3500 
L 3481 3500 
L 3481 434 
z
" transform="scale(0.015625)"/>
       <path id="DejaVuSans-61" d="M 2194 1759 
Q 1497 1759 1228 1600 
Q 959 1441 959 1056 
Q 959 750 1161 570 
Q 1363 391 1709 391 
Q 2188 391 2477 730 
Q 2766 1069 2766 1631 
L 2766 1759 
L 2194 1759 
z
M 3341 1997 
L 3341 0 
L 2766 0 
L 2766 531 
Q 2569 213 2275 61 
Q 1981 -91 1556 -91 
Q 1019 -91 701 211 
Q 384 513 384 1019 
Q 384 1609 779 1909 
Q 1175 2209 1959 2209 
L 2766 2209 
L 2766 2266 
Q 2766 2663 2505 2880 
Q 2244 3097 1772 3097 
Q 1472 3097 1187 3025 
Q 903 2953 641 2809 
L 641 3341 
Q 956 3463 1253 3523 
Q 1550 3584 1831 3584 
Q 2591 3584 2966 3190 
Q 3341 2797 3341 1997 
z
" transform="scale(0.015625)"/>
       <path id="DejaVuSans-46" d="M 628 4666 
L 3309 4666 
L 3309 4134 
L 1259 4134 
L 1259 2759 
L 3109 2759 
L 3109 2228 
L 1259 2228 
L 1259 0 
L 628 0 
L 628 4666 
z
" transform="scale(0.015625)"/>
       <path id="DejaVuSans-6d" d="M 3328 2828 
Q 3544 3216 3844 3400 
Q 4144 3584 4550 3584 
Q 5097 3584 5394 3201 
Q 5691 2819 5691 2113 
L 5691 0 
L 5113 0 
L 5113 2094 
Q 5113 2597 4934 2840 
Q 4756 3084 4391 3084 
Q 3944 3084 3684 2787 
Q 3425 2491 3425 1978 
L 3425 0 
L 2847 0 
L 2847 2094 
Q 2847 2600 2669 2842 
Q 2491 3084 2119 3084 
Q 1678 3084 1418 2786 
Q 1159 2488 1159 1978 
L 1159 0 
L 581 0 
L 581 3500 
L 1159 3500 
L 1159 2956 
Q 1356 3278 1631 3431 
Q 1906 3584 2284 3584 
Q 2666 3584 2933 3390 
Q 3200 3197 3328 2828 
z
" transform="scale(0.015625)"/>
      </defs>
      <use xlink:href="#DejaVuSans-4d"/>
      <use xlink:href="#DejaVuSans-6f" x="86.279297"/>
      <use xlink:href="#DejaVuSans-72" x="147.460938"/>
      <use xlink:href="#DejaVuSans-67" x="186.824219"/>
      <use xlink:href="#DejaVuSans-61" x="250.300781"/>
      <use xlink:href="#DejaVuSans-6e" x="311.580078"/>
      <use xlink:href="#DejaVuSans-20" x="374.958984"/>
      <use xlink:href="#DejaVuSans-46" x="406.746094"/>
      <use xlink:href="#DejaVuSans-72" x="457.015625"/>
      <use xlink:href="#DejaVuSans-65" x="495.878906"/>
      <use xlink:href="#DejaVuSans-65" x="557.402344"/>
      <use xlink:href="#DejaVuSans-6d" x="618.925781"/>
      <use xlink:href="#DejaVuSans-61" x="716.337891"/>
      <use xlink:href="#DejaVuSans-6e" x="777.617188"/>
     </g>
    </g>
   </g>
   <g id="text_3">
    <g id="patch_4">
     <path d="M 394.239459 148.499083 
L 458.36024 148.499083 
L 458.36024 131.86877 
L 394.239459 131.86877 
z
" clip-path="url(#pc64b0a4223)" style="fill: #ffffff; opacity: 0.7; stroke: #000000; stroke-linejoin: miter"/>
    </g>
    <g clip-path="url(#pc64b0a4223)">
     <!-- Julie Christie -->
     <g transform="translate(398.199459 142.667364)scale(0.09 -0.09)">
      <defs>
       <path id="DejaVuSans-4a" d="M 628 4666 
L 1259 4666 
L 1259 325 
Q 1259 -519 939 -900 
Q 619 -1281 -91 -1281 
L -331 -1281 
L -331 -750 
L -134 -750 
Q 284 -750 456 -515 
Q 628 -281 628 325 
L 628 4666 
z
" transform="scale(0.015625)"/>
       <path id="DejaVuSans-6c" d="M 603 4863 
L 1178 4863 
L 1178 0 
L 603 0 
L 603 4863 
z
" transform="scale(0.015625)"/>
       <path id="DejaVuSans-69" d="M 603 3500 
L 1178 3500 
L 1178 0 
L 603 0 
L 603 3500 
z
M 603 4863 
L 1178 4863 
L 1178 4134 
L 603 4134 
L 603 4863 
z
" transform="scale(0.015625)"/>
       <path id="DejaVuSans-43" d="M 4122 4306 
L 4122 3641 
Q 3803 3938 3442 4084 
Q 3081 4231 2675 4231 
Q 1875 4231 1450 3742 
Q 1025 3253 1025 2328 
Q 1025 1406 1450 917 
Q 1875 428 2675 428 
Q 3081 428 3442 575 
Q 3803 722 4122 1019 
L 4122 359 
Q 3791 134 3420 21 
Q 3050 -91 2638 -91 
Q 1578 -91 968 557 
Q 359 1206 359 2328 
Q 359 3453 968 4101 
Q 1578 4750 2638 4750 
Q 3056 4750 3426 4639 
Q 3797 4528 4122 4306 
z
" transform="scale(0.015625)"/>
       <path id="DejaVuSans-68" d="M 3513 2113 
L 3513 0 
L 2938 0 
L 2938 2094 
Q 2938 2591 2744 2837 
Q 2550 3084 2163 3084 
Q 1697 3084 1428 2787 
Q 1159 2491 1159 1978 
L 1159 0 
L 581 0 
L 581 4863 
L 1159 4863 
L 1159 2956 
Q 1366 3272 1645 3428 
Q 1925 3584 2291 3584 
Q 2894 3584 3203 3211 
Q 3513 2838 3513 2113 
z
" transform="scale(0.015625)"/>
       <path id="DejaVuSans-74" d="M 1172 4494 
L 1172 3500 
L 2356 3500 
L 2356 3053 
L 1172 3053 
L 1172 1153 
Q 1172 725 1289 603 
Q 1406 481 1766 481 
L 2356 481 
L 2356 0 
L 1766 0 
Q 1100 0 847 248 
Q 594 497 594 1153 
L 594 3053 
L 172 3053 
L 172 3500 
L 594 3500 
L 594 4494 
L 1172 4494 
z
" transform="scale(0.015625)"/>
      </defs>
      <use xlink:href="#DejaVuSans-4a"/>
      <use xlink:href="#DejaVuSans-75" x="29.492188"/>
      <use xlink:href="#DejaVuSans-6c" x="92.871094"/>
      <use xlink:href="#DejaVuSans-69" x="120.654297"/>
      <use xlink:href="#DejaVuSans-65" x="148.4375"/>
      <use xlink:href="#DejaVuSans-20" x="209.960938"/>
      <use xlink:href="#DejaVuSans-43" x="241.748047"/>
      <use xlink:href="#DejaVuSans-68" x="311.572266"/>
      <use xlink:href="#DejaVuSans-72" x="374.951172"/>
      <use xlink:href="#DejaVuSans-69" x="416.064453"/>
      <use xlink:href="#DejaVuSans-73" x="443.847656"/>
      <use xlink:href="#DejaVuSans-74" x="495.947266"/>
      <use xlink:href="#DejaVuSans-69" x="535.15625"/>
      <use xlink:href="#DejaVuSans-65" x="562.939453"/>
     </g>
    </g>
   </g>
   <g id="text_4">
    <g id="patch_5">
     <path d="M 315.521791 103.921719 
L 381.806791 103.921719 
L 381.806791 87.291406 
L 315.521791 87.291406 
z
" clip-path="url(#pc64b0a4223)" style="fill: #ffffff; opacity: 0.7; stroke: #000000; stroke-linejoin: miter"/>
    </g>
    <g clip-path="url(#pc64b0a4223)">
     <!-- Liam Neeson -->
     <g transform="translate(319.481791 98.09)scale(0.09 -0.09)">
      <defs>
       <path id="DejaVuSans-4c" d="M 628 4666 
L 1259 4666 
L 1259 531 
L 3531 531 
L 3531 0 
L 628 0 
L 628 4666 
z
" transform="scale(0.015625)"/>
       <path id="DejaVuSans-4e" d="M 628 4666 
L 1478 4666 
L 3547 763 
L 3547 4666 
L 4159 4666 
L 4159 0 
L 3309 0 
L 1241 3903 
L 1241 0 
L 628 0 
L 628 4666 
z
" transform="scale(0.015625)"/>
      </defs>
      <use xlink:href="#DejaVuSans-4c"/>
      <use xlink:href="#DejaVuSans-69" x="55.712891"/>
      <use xlink:href="#DejaVuSans-61" x="83.496094"/>
      <use xlink:href="#DejaVuSans-6d" x="144.775391"/>
      <use xlink:href="#DejaVuSans-20" x="242.1875"/>
      <use xlink:href="#DejaVuSans-4e" x="273.974609"/>
      <use xlink:href="#DejaVuSans-65" x="348.779297"/>
      <use xlink:href="#DejaVuSans-65" x="410.302734"/>
      <use xlink:href="#DejaVuSans-73" x="471.826172"/>
      <use xlink:href="#DejaVuSans-6f" x="523.925781"/>
      <use xlink:href="#DejaVuSans-6e" x="585.107422"/>
     </g>
    </g>
   </g>
   <g id="text_5">
    <g id="patch_6">
     <path d="M 205.508845 94.602512 
L 313.510252 94.602512 
L 313.510252 77.9722 
L 205.508845 77.9722 
z
" clip-path="url(#pc64b0a4223)" style="fill: #ffffff; opacity: 0.7; stroke: #000000; stroke-linejoin: miter"/>
    </g>
    <g clip-path="url(#pc64b0a4223)">
     <!-- Jonathan Rhys Meyers -->
     <g transform="translate(209.468845 88.770793)scale(0.09 -0.09)">
      <defs>
       <path id="DejaVuSans-79" d="M 2059 -325 
Q 1816 -950 1584 -1140 
Q 1353 -1331 966 -1331 
L 506 -1331 
L 506 -850 
L 844 -850 
Q 1081 -850 1212 -737 
Q 1344 -625 1503 -206 
L 1606 56 
L 191 3500 
L 800 3500 
L 1894 763 
L 2988 3500 
L 3597 3500 
L 2059 -325 
z
" transform="scale(0.015625)"/>
      </defs>
      <use xlink:href="#DejaVuSans-4a"/>
      <use xlink:href="#DejaVuSans-6f" x="29.492188"/>
      <use xlink:href="#DejaVuSans-6e" x="90.673828"/>
      <use xlink:href="#DejaVuSans-61" x="154.052734"/>
      <use xlink:href="#DejaVuSans-74" x="215.332031"/>
      <use xlink:href="#DejaVuSans-68" x="254.541016"/>
      <use xlink:href="#DejaVuSans-61" x="317.919922"/>
      <use xlink:href="#DejaVuSans-6e" x="379.199219"/>
      <use xlink:href="#DejaVuSans-20" x="442.578125"/>
      <use xlink:href="#DejaVuSans-52" x="474.365234"/>
      <use xlink:href="#DejaVuSans-68" x="543.847656"/>
      <use xlink:href="#DejaVuSans-79" x="607.226562"/>
      <use xlink:href="#DejaVuSans-73" x="666.40625"/>
      <use xlink:href="#DejaVuSans-20" x="718.505859"/>
      <use xlink:href="#DejaVuSans-4d" x="750.292969"/>
      <use xlink:href="#DejaVuSans-65" x="836.572266"/>
      <use xlink:href="#DejaVuSans-79" x="898.095703"/>
      <use xlink:href="#DejaVuSans-65" x="957.275391"/>
      <use xlink:href="#DejaVuSans-72" x="1018.798828"/>
      <use xlink:href="#DejaVuSans-73" x="1059.912109"/>
     </g>
    </g>
   </g>
   <g id="text_6">
    <g id="patch_7">
     <path d="M 145.416142 122.152849 
L 203.086454 122.152849 
L 203.086454 105.522536 
L 145.416142 105.522536 
z
" clip-path="url(#pc64b0a4223)" style="fill: #ffffff; opacity: 0.7; stroke: #000000; stroke-linejoin: miter"/>
    </g>
    <g clip-path="url(#pc64b0a4223)">
     <!-- Mel Gibson -->
     <g transform="translate(149.376142 116.32113)scale(0.09 -0.09)">
      <defs>
       <path id="DejaVuSans-47" d="M 3809 666 
L 3809 1919 
L 2778 1919 
L 2778 2438 
L 4434 2438 
L 4434 434 
Q 4069 175 3628 42 
Q 3188 -91 2688 -91 
Q 1594 -91 976 548 
Q 359 1188 359 2328 
Q 359 3472 976 4111 
Q 1594 4750 2688 4750 
Q 3144 4750 3555 4637 
Q 3966 4525 4313 4306 
L 4313 3634 
Q 3963 3931 3569 4081 
Q 3175 4231 2741 4231 
Q 1884 4231 1454 3753 
Q 1025 3275 1025 2328 
Q 1025 1384 1454 906 
Q 1884 428 2741 428 
Q 3075 428 3337 486 
Q 3600 544 3809 666 
z
" transform="scale(0.015625)"/>
       <path id="DejaVuSans-62" d="M 3116 1747 
Q 3116 2381 2855 2742 
Q 2594 3103 2138 3103 
Q 1681 3103 1420 2742 
Q 1159 2381 1159 1747 
Q 1159 1113 1420 752 
Q 1681 391 2138 391 
Q 2594 391 2855 752 
Q 3116 1113 3116 1747 
z
M 1159 2969 
Q 1341 3281 1617 3432 
Q 1894 3584 2278 3584 
Q 2916 3584 3314 3078 
Q 3713 2572 3713 1747 
Q 3713 922 3314 415 
Q 2916 -91 2278 -91 
Q 1894 -91 1617 61 
Q 1341 213 1159 525 
L 1159 0 
L 581 0 
L 581 4863 
L 1159 4863 
L 1159 2969 
z
" transform="scale(0.015625)"/>
      </defs>
      <use xlink:href="#DejaVuSans-4d"/>
      <use xlink:href="#DejaVuSans-65" x="86.279297"/>
      <use xlink:href="#DejaVuSans-6c" x="147.802734"/>
      <use xlink:href="#DejaVuSans-20" x="175.585938"/>
      <use xlink:href="#DejaVuSans-47" x="207.373047"/>
      <use xlink:href="#DejaVuSans-69" x="284.863281"/>
      <use xlink:href="#DejaVuSans-62" x="312.646484"/>
      <use xlink:href="#DejaVuSans-73" x="376.123047"/>
      <use xlink:href="#DejaVuSans-6f" x="428.222656"/>
      <use xlink:href="#DejaVuSans-6e" x="489.404297"/>
     </g>
    </g>
   </g>
   <g id="text_7">
    <g id="patch_8">
     <path d="M 73.424446 181.80901 
L 141.838508 181.80901 
L 141.838508 165.178697 
L 73.424446 165.178697 
z
" clip-path="url(#pc64b0a4223)" style="fill: #ffffff; opacity: 0.7; stroke: #000000; stroke-linejoin: miter"/>
    </g>
    <g clip-path="url(#pc64b0a4223)">
     <!-- Tina Majorino -->
     <g transform="translate(77.384446 175.977291)scale(0.09 -0.09)">
      <defs>
       <path id="DejaVuSans-54" d="M -19 4666 
L 3928 4666 
L 3928 4134 
L 2272 4134 
L 2272 0 
L 1638 0 
L 1638 4134 
L -19 4134 
L -19 4666 
z
" transform="scale(0.015625)"/>
       <path id="DejaVuSans-6a" d="M 603 3500 
L 1178 3500 
L 1178 -63 
Q 1178 -731 923 -1031 
Q 669 -1331 103 -1331 
L -116 -1331 
L -116 -844 
L 38 -844 
Q 366 -844 484 -692 
Q 603 -541 603 -63 
L 603 3500 
z
M 603 4863 
L 1178 4863 
L 1178 4134 
L 603 4134 
L 603 4863 
z
" transform="scale(0.015625)"/>
      </defs>
      <use xlink:href="#DejaVuSans-54"/>
      <use xlink:href="#DejaVuSans-69" x="57.958984"/>
      <use xlink:href="#DejaVuSans-6e" x="85.742188"/>
      <use xlink:href="#DejaVuSans-61" x="149.121094"/>
      <use xlink:href="#DejaVuSans-20" x="210.400391"/>
      <use xlink:href="#DejaVuSans-4d" x="242.1875"/>
      <use xlink:href="#DejaVuSans-61" x="328.466797"/>
      <use xlink:href="#DejaVuSans-6a" x="389.746094"/>
      <use xlink:href="#DejaVuSans-6f" x="417.529297"/>
      <use xlink:href="#DejaVuSans-72" x="478.710938"/>
      <use xlink:href="#DejaVuSans-69" x="519.824219"/>
      <use xlink:href="#DejaVuSans-6e" x="547.607422"/>
      <use xlink:href="#DejaVuSans-6f" x="610.986328"/>
     </g>
    </g>
   </g>
   <g id="text_8">
    <g id="patch_9">
     <path d="M 42.2047 263.25593 
L 100.133762 263.25593 
L 100.133762 246.625618 
L 42.2047 246.625618 
z
" clip-path="url(#pc64b0a4223)" style="fill: #ffffff; opacity: 0.7; stroke: #000000; stroke-linejoin: miter"/>
    </g>
    <g clip-path="url(#pc64b0a4223)">
     <!-- Oliver Platt -->
     <g transform="translate(46.1647 257.424211)scale(0.09 -0.09)">
      <defs>
       <path id="DejaVuSans-4f" d="M 2522 4238 
Q 1834 4238 1429 3725 
Q 1025 3213 1025 2328 
Q 1025 1447 1429 934 
Q 1834 422 2522 422 
Q 3209 422 3611 934 
Q 4013 1447 4013 2328 
Q 4013 3213 3611 3725 
Q 3209 4238 2522 4238 
z
M 2522 4750 
Q 3503 4750 4090 4092 
Q 4678 3434 4678 2328 
Q 4678 1225 4090 567 
Q 3503 -91 2522 -91 
Q 1538 -91 948 565 
Q 359 1222 359 2328 
Q 359 3434 948 4092 
Q 1538 4750 2522 4750 
z
" transform="scale(0.015625)"/>
       <path id="DejaVuSans-76" d="M 191 3500 
L 800 3500 
L 1894 563 
L 2988 3500 
L 3597 3500 
L 2284 0 
L 1503 0 
L 191 3500 
z
" transform="scale(0.015625)"/>
       <path id="DejaVuSans-50" d="M 1259 4147 
L 1259 2394 
L 2053 2394 
Q 2494 2394 2734 2622 
Q 2975 2850 2975 3272 
Q 2975 3691 2734 3919 
Q 2494 4147 2053 4147 
L 1259 4147 
z
M 628 4666 
L 2053 4666 
Q 2838 4666 3239 4311 
Q 3641 3956 3641 3272 
Q 3641 2581 3239 2228 
Q 2838 1875 2053 1875 
L 1259 1875 
L 1259 0 
L 628 0 
L 628 4666 
z
" transform="scale(0.015625)"/>
      </defs>
      <use xlink:href="#DejaVuSans-4f"/>
      <use xlink:href="#DejaVuSans-6c" x="78.710938"/>
      <use xlink:href="#DejaVuSans-69" x="106.494141"/>
      <use xlink:href="#DejaVuSans-76" x="134.277344"/>
      <use xlink:href="#DejaVuSans-65" x="193.457031"/>
      <use xlink:href="#DejaVuSans-72" x="254.980469"/>
      <use xlink:href="#DejaVuSans-20" x="296.09375"/>
      <use xlink:href="#DejaVuSans-50" x="327.880859"/>
      <use xlink:href="#DejaVuSans-6c" x="388.183594"/>
      <use xlink:href="#DejaVuSans-61" x="415.966797"/>
      <use xlink:href="#DejaVuSans-74" x="477.246094"/>
      <use xlink:href="#DejaVuSans-74" x="516.455078"/>
     </g>
    </g>
   </g>
   <g id="text_9">
    <g id="patch_10">
     <path d="M 31.95315 352.410671 
L 110.385337 352.410671 
L 110.385337 335.780358 
L 31.95315 335.780358 
z
" clip-path="url(#pc64b0a4223)" style="fill: #ffffff; opacity: 0.7; stroke: #000000; stroke-linejoin: miter"/>
    </g>
    <g clip-path="url(#pc64b0a4223)">
     <!-- Dustin Hoffman -->
     <g transform="translate(35.91315 346.578952)scale(0.09 -0.09)">
      <defs>
       <path id="DejaVuSans-44" d="M 1259 4147 
L 1259 519 
L 2022 519 
Q 2988 519 3436 956 
Q 3884 1394 3884 2338 
Q 3884 3275 3436 3711 
Q 2988 4147 2022 4147 
L 1259 4147 
z
M 628 4666 
L 1925 4666 
Q 3281 4666 3915 4102 
Q 4550 3538 4550 2338 
Q 4550 1131 3912 565 
Q 3275 0 1925 0 
L 628 0 
L 628 4666 
z
" transform="scale(0.015625)"/>
       <path id="DejaVuSans-48" d="M 628 4666 
L 1259 4666 
L 1259 2753 
L 3553 2753 
L 3553 4666 
L 4184 4666 
L 4184 0 
L 3553 0 
L 3553 2222 
L 1259 2222 
L 1259 0 
L 628 0 
L 628 4666 
z
" transform="scale(0.015625)"/>
       <path id="DejaVuSans-66" d="M 2375 4863 
L 2375 4384 
L 1825 4384 
Q 1516 4384 1395 4259 
Q 1275 4134 1275 3809 
L 1275 3500 
L 2222 3500 
L 2222 3053 
L 1275 3053 
L 1275 0 
L 697 0 
L 697 3053 
L 147 3053 
L 147 3500 
L 697 3500 
L 697 3744 
Q 697 4328 969 4595 
Q 1241 4863 1831 4863 
L 2375 4863 
z
" transform="scale(0.015625)"/>
      </defs>
      <use xlink:href="#DejaVuSans-44"/>
      <use xlink:href="#DejaVuSans-75" x="77.001953"/>
      <use xlink:href="#DejaVuSans-73" x="140.380859"/>
      <use xlink:href="#DejaVuSans-74" x="192.480469"/>
      <use xlink:href="#DejaVuSans-69" x="231.689453"/>
      <use xlink:href="#DejaVuSans-6e" x="259.472656"/>
      <use xlink:href="#DejaVuSans-20" x="322.851562"/>
      <use xlink:href="#DejaVuSans-48" x="354.638672"/>
      <use xlink:href="#DejaVuSans-6f" x="429.833984"/>
      <use xlink:href="#DejaVuSans-66" x="491.015625"/>
      <use xlink:href="#DejaVuSans-66" x="526.220703"/>
      <use xlink:href="#DejaVuSans-6d" x="561.425781"/>
      <use xlink:href="#DejaVuSans-61" x="658.837891"/>
      <use xlink:href="#DejaVuSans-6e" x="720.117188"/>
     </g>
    </g>
   </g>
   <g id="text_10">
    <g id="patch_11">
     <path d="M 74.575474 433.857565 
L 140.687505 433.857565 
L 140.687505 417.227253 
L 74.575474 417.227253 
z
" clip-path="url(#pc64b0a4223)" style="fill: #ffffff; opacity: 0.7; stroke: #000000; stroke-linejoin: miter"/>
    </g>
    <g clip-path="url(#pc64b0a4223)">
     <!-- John Travolta -->
     <g transform="translate(78.535474 428.025847)scale(0.09 -0.09)">
      <use xlink:href="#DejaVuSans-4a"/>
      <use xlink:href="#DejaVuSans-6f" x="29.492188"/>
      <use xlink:href="#DejaVuSans-68" x="90.673828"/>
      <use xlink:href="#DejaVuSans-6e" x="154.052734"/>
      <use xlink:href="#DejaVuSans-20" x="217.431641"/>
      <use xlink:href="#DejaVuSans-54" x="249.21875"/>
      <use xlink:href="#DejaVuSans-72" x="295.552734"/>
      <use xlink:href="#DejaVuSans-61" x="336.666016"/>
      <use xlink:href="#DejaVuSans-76" x="397.945312"/>
      <use xlink:href="#DejaVuSans-6f" x="457.125"/>
      <use xlink:href="#DejaVuSans-6c" x="518.306641"/>
      <use xlink:href="#DejaVuSans-74" x="546.089844"/>
      <use xlink:href="#DejaVuSans-61" x="585.298828"/>
     </g>
    </g>
   </g>
   <g id="text_11">
    <g id="patch_12">
     <path d="M 137.292268 493.513727 
L 211.210393 493.513727 
L 211.210393 476.883414 
L 137.292268 476.883414 
z
" clip-path="url(#pc64b0a4223)" style="fill: #ffffff; opacity: 0.7; stroke: #000000; stroke-linejoin: miter"/>
    </g>
    <g clip-path="url(#pc64b0a4223)">
     <!-- Nick Swardson -->
     <g transform="translate(141.252268 487.682008)scale(0.09 -0.09)">
      <defs>
       <path id="DejaVuSans-63" d="M 3122 3366 
L 3122 2828 
Q 2878 2963 2633 3030 
Q 2388 3097 2138 3097 
Q 1578 3097 1268 2742 
Q 959 2388 959 1747 
Q 959 1106 1268 751 
Q 1578 397 2138 397 
Q 2388 397 2633 464 
Q 2878 531 3122 666 
L 3122 134 
Q 2881 22 2623 -34 
Q 2366 -91 2075 -91 
Q 1284 -91 818 406 
Q 353 903 353 1747 
Q 353 2603 823 3093 
Q 1294 3584 2113 3584 
Q 2378 3584 2631 3529 
Q 2884 3475 3122 3366 
z
" transform="scale(0.015625)"/>
       <path id="DejaVuSans-6b" d="M 581 4863 
L 1159 4863 
L 1159 1991 
L 2875 3500 
L 3609 3500 
L 1753 1863 
L 3688 0 
L 2938 0 
L 1159 1709 
L 1159 0 
L 581 0 
L 581 4863 
z
" transform="scale(0.015625)"/>
       <path id="DejaVuSans-53" d="M 3425 4513 
L 3425 3897 
Q 3066 4069 2747 4153 
Q 2428 4238 2131 4238 
Q 1616 4238 1336 4038 
Q 1056 3838 1056 3469 
Q 1056 3159 1242 3001 
Q 1428 2844 1947 2747 
L 2328 2669 
Q 3034 2534 3370 2195 
Q 3706 1856 3706 1288 
Q 3706 609 3251 259 
Q 2797 -91 1919 -91 
Q 1588 -91 1214 -16 
Q 841 59 441 206 
L 441 856 
Q 825 641 1194 531 
Q 1563 422 1919 422 
Q 2459 422 2753 634 
Q 3047 847 3047 1241 
Q 3047 1584 2836 1778 
Q 2625 1972 2144 2069 
L 1759 2144 
Q 1053 2284 737 2584 
Q 422 2884 422 3419 
Q 422 4038 858 4394 
Q 1294 4750 2059 4750 
Q 2388 4750 2728 4690 
Q 3069 4631 3425 4513 
z
" transform="scale(0.015625)"/>
       <path id="DejaVuSans-77" d="M 269 3500 
L 844 3500 
L 1563 769 
L 2278 3500 
L 2956 3500 
L 3675 769 
L 4391 3500 
L 4966 3500 
L 4050 0 
L 3372 0 
L 2619 2869 
L 1863 0 
L 1184 0 
L 269 3500 
z
" transform="scale(0.015625)"/>
       <path id="DejaVuSans-64" d="M 2906 2969 
L 2906 4863 
L 3481 4863 
L 3481 0 
L 2906 0 
L 2906 525 
Q 2725 213 2448 61 
Q 2172 -91 1784 -91 
Q 1150 -91 751 415 
Q 353 922 353 1747 
Q 353 2572 751 3078 
Q 1150 3584 1784 3584 
Q 2172 3584 2448 3432 
Q 2725 3281 2906 2969 
z
M 947 1747 
Q 947 1113 1208 752 
Q 1469 391 1925 391 
Q 2381 391 2643 752 
Q 2906 1113 2906 1747 
Q 2906 2381 2643 2742 
Q 2381 3103 1925 3103 
Q 1469 3103 1208 2742 
Q 947 2381 947 1747 
z
" transform="scale(0.015625)"/>
      </defs>
      <use xlink:href="#DejaVuSans-4e"/>
      <use xlink:href="#DejaVuSans-69" x="74.804688"/>
      <use xlink:href="#DejaVuSans-63" x="102.587891"/>
      <use xlink:href="#DejaVuSans-6b" x="157.568359"/>
      <use xlink:href="#DejaVuSans-20" x="215.478516"/>
      <use xlink:href="#DejaVuSans-53" x="247.265625"/>
      <use xlink:href="#DejaVuSans-77" x="310.742188"/>
      <use xlink:href="#DejaVuSans-61" x="392.529297"/>
      <use xlink:href="#DejaVuSans-72" x="453.808594"/>
      <use xlink:href="#DejaVuSans-64" x="493.171875"/>
      <use xlink:href="#DejaVuSans-73" x="556.648438"/>
      <use xlink:href="#DejaVuSans-6f" x="608.748047"/>
      <use xlink:href="#DejaVuSans-6e" x="669.929688"/>
     </g>
    </g>
   </g>
   <g id="text_12">
    <g id="patch_13">
     <path d="M 213.797322 521.06405 
L 305.221853 521.06405 
L 305.221853 504.433738 
L 213.797322 504.433738 
z
" clip-path="url(#pc64b0a4223)" style="fill: #ffffff; opacity: 0.7; stroke: #000000; stroke-linejoin: miter"/>
    </g>
    <g clip-path="url(#pc64b0a4223)">
     <!-- Scarlett Johansson -->
     <g transform="translate(217.757322 515.232332)scale(0.09 -0.09)">
      <use xlink:href="#DejaVuSans-53"/>
      <use xlink:href="#DejaVuSans-63" x="63.476562"/>
      <use xlink:href="#DejaVuSans-61" x="118.457031"/>
      <use xlink:href="#DejaVuSans-72" x="179.736328"/>
      <use xlink:href="#DejaVuSans-6c" x="220.849609"/>
      <use xlink:href="#DejaVuSans-65" x="248.632812"/>
      <use xlink:href="#DejaVuSans-74" x="310.15625"/>
      <use xlink:href="#DejaVuSans-74" x="349.365234"/>
      <use xlink:href="#DejaVuSans-20" x="388.574219"/>
      <use xlink:href="#DejaVuSans-4a" x="420.361328"/>
      <use xlink:href="#DejaVuSans-6f" x="449.853516"/>
      <use xlink:href="#DejaVuSans-68" x="511.035156"/>
      <use xlink:href="#DejaVuSans-61" x="574.414062"/>
      <use xlink:href="#DejaVuSans-6e" x="635.693359"/>
      <use xlink:href="#DejaVuSans-73" x="699.072266"/>
      <use xlink:href="#DejaVuSans-73" x="751.171875"/>
      <use xlink:href="#DejaVuSans-6f" x="803.271484"/>
      <use xlink:href="#DejaVuSans-6e" x="864.453125"/>
     </g>
    </g>
   </g>
   <g id="text_13">
    <g id="patch_14">
     <path d="M 316.575105 511.744831 
L 380.753542 511.744831 
L 380.753542 495.114518 
L 316.575105 495.114518 
z
" clip-path="url(#pc64b0a4223)" style="fill: #ffffff; opacity: 0.7; stroke: #000000; stroke-linejoin: miter"/>
    </g>
    <g clip-path="url(#pc64b0a4223)">
     <!-- Julia Roberts -->
     <g transform="translate(320.535105 505.913112)scale(0.09 -0.09)">
      <use xlink:href="#DejaVuSans-4a"/>
      <use xlink:href="#DejaVuSans-75" x="29.492188"/>
      <use xlink:href="#DejaVuSans-6c" x="92.871094"/>
      <use xlink:href="#DejaVuSans-69" x="120.654297"/>
      <use xlink:href="#DejaVuSans-61" x="148.4375"/>
      <use xlink:href="#DejaVuSans-20" x="209.716797"/>
      <use xlink:href="#DejaVuSans-52" x="241.503906"/>
      <use xlink:href="#DejaVuSans-6f" x="306.486328"/>
      <use xlink:href="#DejaVuSans-62" x="367.667969"/>
      <use xlink:href="#DejaVuSans-65" x="431.144531"/>
      <use xlink:href="#DejaVuSans-72" x="492.667969"/>
      <use xlink:href="#DejaVuSans-74" x="533.78125"/>
      <use xlink:href="#DejaVuSans-73" x="572.990234"/>
     </g>
    </g>
   </g>
   <g id="text_14">
    <g id="patch_15">
     <path d="M 397.582154 467.167441 
L 455.017623 467.167441 
L 455.017623 450.537129 
L 397.582154 450.537129 
z
" clip-path="url(#pc64b0a4223)" style="fill: #ffffff; opacity: 0.7; stroke: #000000; stroke-linejoin: miter"/>
    </g>
    <g clip-path="url(#pc64b0a4223)">
     <!-- Tom Cruise -->
     <g transform="translate(401.542154 461.335723)scale(0.09 -0.09)">
      <use xlink:href="#DejaVuSans-54"/>
      <use xlink:href="#DejaVuSans-6f" x="44.083984"/>
      <use xlink:href="#DejaVuSans-6d" x="105.265625"/>
      <use xlink:href="#DejaVuSans-20" x="202.677734"/>
      <use xlink:href="#DejaVuSans-43" x="234.464844"/>
      <use xlink:href="#DejaVuSans-72" x="304.289062"/>
      <use xlink:href="#DejaVuSans-75" x="345.402344"/>
      <use xlink:href="#DejaVuSans-69" x="408.78125"/>
      <use xlink:href="#DejaVuSans-73" x="436.564453"/>
      <use xlink:href="#DejaVuSans-65" x="488.664062"/>
     </g>
    </g>
   </g>
   <g id="text_15">
    <g id="patch_16">
     <path d="M 445.021592 395.039741 
L 512.963155 395.039741 
L 512.963155 378.409428 
L 445.021592 378.409428 
z
" clip-path="url(#pc64b0a4223)" style="fill: #ffffff; opacity: 0.7; stroke: #000000; stroke-linejoin: miter"/>
    </g>
    <g clip-path="url(#pc64b0a4223)">
     <!-- Kathy Najimy -->
     <g transform="translate(448.981592 389.208022)scale(0.09 -0.09)">
      <defs>
       <path id="DejaVuSans-4b" d="M 628 4666 
L 1259 4666 
L 1259 2694 
L 3353 4666 
L 4166 4666 
L 1850 2491 
L 4331 0 
L 3500 0 
L 1259 2247 
L 1259 0 
L 628 0 
L 628 4666 
z
" transform="scale(0.015625)"/>
      </defs>
      <use xlink:href="#DejaVuSans-4b"/>
      <use xlink:href="#DejaVuSans-61" x="63.826172"/>
      <use xlink:href="#DejaVuSans-74" x="125.105469"/>
      <use xlink:href="#DejaVuSans-68" x="164.314453"/>
      <use xlink:href="#DejaVuSans-79" x="227.693359"/>
      <use xlink:href="#DejaVuSans-20" x="286.873047"/>
      <use xlink:href="#DejaVuSans-4e" x="318.660156"/>
      <use xlink:href="#DejaVuSans-61" x="393.464844"/>
      <use xlink:href="#DejaVuSans-6a" x="454.744141"/>
      <use xlink:href="#DejaVuSans-69" x="482.527344"/>
      <use xlink:href="#DejaVuSans-6d" x="510.310547"/>
      <use xlink:href="#DejaVuSans-79" x="607.722656"/>
     </g>
    </g>
   </g>
   <g id="text_16">
    <!-- Impactful actors for Horror genre -->
    <g transform="translate(185.256562 16.318125)scale(0.12 -0.12)">
     <defs>
      <path id="DejaVuSans-49" d="M 628 4666 
L 1259 4666 
L 1259 0 
L 628 0 
L 628 4666 
z
" transform="scale(0.015625)"/>
      <path id="DejaVuSans-70" d="M 1159 525 
L 1159 -1331 
L 581 -1331 
L 581 3500 
L 1159 3500 
L 1159 2969 
Q 1341 3281 1617 3432 
Q 1894 3584 2278 3584 
Q 2916 3584 3314 3078 
Q 3713 2572 3713 1747 
Q 3713 922 3314 415 
Q 2916 -91 2278 -91 
Q 1894 -91 1617 61 
Q 1341 213 1159 525 
z
M 3116 1747 
Q 3116 2381 2855 2742 
Q 2594 3103 2138 3103 
Q 1681 3103 1420 2742 
Q 1159 2381 1159 1747 
Q 1159 1113 1420 752 
Q 1681 391 2138 391 
Q 2594 391 2855 752 
Q 3116 1113 3116 1747 
z
" transform="scale(0.015625)"/>
     </defs>
     <use xlink:href="#DejaVuSans-49"/>
     <use xlink:href="#DejaVuSans-6d" x="29.492188"/>
     <use xlink:href="#DejaVuSans-70" x="126.904297"/>
     <use xlink:href="#DejaVuSans-61" x="190.380859"/>
     <use xlink:href="#DejaVuSans-63" x="251.660156"/>
     <use xlink:href="#DejaVuSans-74" x="306.640625"/>
     <use xlink:href="#DejaVuSans-66" x="345.849609"/>
     <use xlink:href="#DejaVuSans-75" x="381.054688"/>
     <use xlink:href="#DejaVuSans-6c" x="444.433594"/>
     <use xlink:href="#DejaVuSans-20" x="472.216797"/>
     <use xlink:href="#DejaVuSans-61" x="504.003906"/>
     <use xlink:href="#DejaVuSans-63" x="565.283203"/>
     <use xlink:href="#DejaVuSans-74" x="620.263672"/>
     <use xlink:href="#DejaVuSans-6f" x="659.472656"/>
     <use xlink:href="#DejaVuSans-72" x="720.654297"/>
     <use xlink:href="#DejaVuSans-73" x="761.767578"/>
     <use xlink:href="#DejaVuSans-20" x="813.867188"/>
     <use xlink:href="#DejaVuSans-66" x="845.654297"/>
     <use xlink:href="#DejaVuSans-6f" x="880.859375"/>
     <use xlink:href="#DejaVuSans-72" x="942.041016"/>
     <use xlink:href="#DejaVuSans-20" x="983.154297"/>
     <use xlink:href="#DejaVuSans-48" x="1014.941406"/>
     <use xlink:href="#DejaVuSans-6f" x="1090.136719"/>
     <use xlink:href="#DejaVuSans-72" x="1151.318359"/>
     <use xlink:href="#DejaVuSans-72" x="1190.681641"/>
     <use xlink:href="#DejaVuSans-6f" x="1229.544922"/>
     <use xlink:href="#DejaVuSans-72" x="1290.726562"/>
     <use xlink:href="#DejaVuSans-20" x="1331.839844"/>
     <use xlink:href="#DejaVuSans-67" x="1363.626953"/>
     <use xlink:href="#DejaVuSans-65" x="1427.103516"/>
     <use xlink:href="#DejaVuSans-6e" x="1488.626953"/>
     <use xlink:href="#DejaVuSans-72" x="1552.005859"/>
     <use xlink:href="#DejaVuSans-65" x="1590.869141"/>
    </g>
   </g>
  </g>
 </g>
 <defs>
  <clipPath id="pc64b0a4223">
   <rect x="7.2" y="22.318125" width="554.4" height="554.4"/>
  </clipPath>
 </defs>
</svg>
