<?xml version="1.0" encoding="utf-8" standalone="no"?>
<!DOCTYPE svg PUBLIC "-//W3C//DTD SVG 1.1//EN"
  "http://www.w3.org/Graphics/SVG/1.1/DTD/svg11.dtd">
<svg xmlns:xlink="http://www.w3.org/1999/xlink" width="568.8pt" height="583.918125pt" viewBox="0 0 568.8 583.918125" xmlns="http://www.w3.org/2000/svg" version="1.1">
 <metadata>
  <rdf:RDF xmlns:dc="http://purl.org/dc/elements/1.1/" xmlns:cc="http://creativecommons.org/ns#" xmlns:rdf="http://www.w3.org/1999/02/22-rdf-syntax-ns#">
   <cc:Work>
    <dc:type rdf:resource="http://purl.org/dc/dcmitype/StillImage"/>
    <dc:date>2022-12-22T19:12:42.882139</dc:date>
    <dc:format>image/svg+xml</dc:format>
    <dc:creator>
     <cc:Agent>
      <dc:title>Matplotlib v3.5.2, https://matplotlib.org/</dc:title>
     </cc:Agent>
    </dc:creator>
   </cc:Work>
  </rdf:RDF>
 </metadata>
 <defs>
  <style type="text/css">*{stroke-linejoin: round; stroke-linecap: butt}</style>
 </defs>
 <g id="figure_1">
  <g id="patch_1">
   <path d="M 0 583.918125 
L 568.8 583.918125 
L 568.8 0 
L 0 0 
z
" style="fill: #ffffff"/>
  </g>
  <g id="axes_1">
   <g id="PathCollection_1">
    <path d="M 497.630769 326.904253 
C 504.893655 326.904253 511.86005 324.018678 516.995686 318.883042 
C 522.131322 313.747406 525.016897 306.781011 525.016897 299.518125 
C 525.016897 292.255239 522.131322 285.288844 516.995686 280.153208 
C 511.86005 275.017572 504.893655 272.131997 497.630769 272.131997 
C 490.367883 272.131997 483.401488 275.017572 478.265852 280.153208 
C 473.130217 285.288844 470.244641 292.255239 470.244641 299.518125 
C 470.244641 306.781011 473.130217 313.747406 478.265852 318.883042 
C 483.401488 324.018678 490.367883 326.904253 497.630769 326.904253 
z
" clip-path="url(#p91b1d7f804)" style="fill: #d62728; fill-opacity: 0.99; stroke: #d62728; stroke-opacity: 0.99"/>
    <path d="M 478.992348 238.168925 
C 485.849782 238.168925 492.427276 235.444437 497.276214 230.595499 
C 502.125152 225.746562 504.849639 219.169067 504.849639 212.311633 
C 504.849639 205.4542 502.125152 198.876705 497.276214 194.027767 
C 492.427276 189.178829 485.849782 186.454342 478.992348 186.454342 
C 472.134914 186.454342 465.55742 189.178829 460.708482 194.027767 
C 455.859544 198.876705 453.135057 205.4542 453.135057 212.311633 
C 453.135057 219.169067 455.859544 225.746562 460.708482 230.595499 
C 465.55742 235.444437 472.134914 238.168925 478.992348 238.168925 
z
" clip-path="url(#p91b1d7f804)" style="fill: #d62728; fill-opacity: 0.99; stroke: #d62728; stroke-opacity: 0.99"/>
    <path d="M 426.29985 165.982923 
C 433.141824 165.982923 439.704489 163.264578 444.542495 158.426572 
C 449.380501 153.588566 452.098846 147.0259 452.098846 140.183927 
C 452.098846 133.341953 449.380501 126.779287 444.542495 121.941281 
C 439.704489 117.103275 433.141824 114.38493 426.29985 114.38493 
C 419.457876 114.38493 412.895211 117.103275 408.057204 121.941281 
C 403.219198 126.779287 400.500853 133.341953 400.500853 140.183927 
C 400.500853 147.0259 403.219198 153.588566 408.057204 158.426572 
C 412.895211 163.264578 419.457876 165.982923 426.29985 165.982923 
z
" clip-path="url(#p91b1d7f804)" style="fill: #d62728; fill-opacity: 0.99; stroke: #d62728; stroke-opacity: 0.99"/>
    <path d="M 348.664291 121.022783 
C 355.404752 121.022783 361.870048 118.34477 366.636273 113.578545 
C 371.402499 108.812319 374.080512 102.347023 374.080512 95.606563 
C 374.080512 88.866102 371.402499 82.400806 366.636273 77.634581 
C 361.870048 72.868355 355.404752 70.190342 348.664291 70.190342 
C 341.923831 70.190342 335.458535 72.868355 330.692309 77.634581 
C 325.926084 82.400806 323.24807 88.866102 323.24807 95.606563 
C 323.24807 102.347023 325.926084 108.812319 330.692309 113.578545 
C 335.458535 118.34477 341.923831 121.022783 348.664291 121.022783 
z
" clip-path="url(#p91b1d7f804)" style="fill: #d62728; fill-opacity: 0.99; stroke: #d62728; stroke-opacity: 0.99"/>
    <path d="M 259.509549 111.295874 
C 266.141885 111.295874 272.503471 108.660819 277.193242 103.971049 
C 281.883012 99.281279 284.518067 92.919692 284.518067 86.287356 
C 284.518067 79.655019 281.883012 73.293433 277.193242 68.603663 
C 272.503471 63.913893 266.141885 61.278837 259.509549 61.278837 
C 252.877212 61.278837 246.515626 63.913893 241.825856 68.603663 
C 237.136085 73.293433 234.50103 79.655019 234.50103 86.287356 
C 234.50103 92.919692 237.136085 99.281279 241.825856 103.971049 
C 246.515626 108.660819 252.877212 111.295874 259.509549 111.295874 
z
" clip-path="url(#p91b1d7f804)" style="fill: #d62728; fill-opacity: 0.99; stroke: #d62728; stroke-opacity: 0.99"/>
    <path d="M 174.251298 138.585751 
C 180.81456 138.585751 187.109891 135.97814 191.750818 131.337212 
C 196.391745 126.696285 198.999357 120.400954 198.999357 113.837692 
C 198.999357 107.27443 196.391745 100.979099 191.750818 96.338172 
C 187.109891 91.697245 180.81456 89.089633 174.251298 89.089633 
C 167.688036 89.089633 161.392705 91.697245 156.751778 96.338172 
C 152.110851 100.979099 149.503239 107.27443 149.503239 113.837692 
C 149.503239 120.400954 152.110851 126.696285 156.751778 131.337212 
C 161.392705 135.97814 167.688036 138.585751 174.251298 138.585751 
z
" clip-path="url(#p91b1d7f804)" style="fill: #d62728; fill-opacity: 0.99; stroke: #d62728; stroke-opacity: 0.99"/>
    <path d="M 107.631477 197.813519 
C 114.081128 197.813519 120.267486 195.251046 124.828077 190.690454 
C 129.388669 186.129862 131.951143 179.943504 131.951143 173.493854 
C 131.951143 167.044203 129.388669 160.857845 124.828077 156.297253 
C 120.267486 151.736662 114.081128 149.174188 107.631477 149.174188 
C 101.181826 149.174188 94.995468 151.736662 90.434877 156.297253 
C 85.874285 160.857845 83.311811 167.044203 83.311811 173.493854 
C 83.311811 179.943504 85.874285 186.129862 90.434877 190.690454 
C 94.995468 195.251046 101.181826 197.813519 107.631477 197.813519 
z
" clip-path="url(#p91b1d7f804)" style="fill: #d62728; fill-opacity: 0.99; stroke: #d62728; stroke-opacity: 0.99"/>
    <path d="M 71.169231 278.681095 
C 77.465238 278.681095 83.504224 276.179665 87.956173 271.727716 
C 92.408122 267.275767 94.909552 261.236781 94.909552 254.940774 
C 94.909552 248.644767 92.408122 242.605781 87.956173 238.153832 
C 83.504224 233.701883 77.465238 231.200453 71.169231 231.200453 
C 64.873224 231.200453 58.834238 233.701883 54.382289 238.153832 
C 49.93034 242.605781 47.42891 248.644767 47.42891 254.940774 
C 47.42891 261.236781 49.93034 267.275767 54.382289 271.727716 
C 58.834238 276.179665 64.873224 278.681095 71.169231 278.681095 
z
" clip-path="url(#p91b1d7f804)" style="fill: #d62728; fill-opacity: 0.99; stroke: #d62728; stroke-opacity: 0.99"/>
    <path d="M 71.169244 367.758465 
C 77.444731 367.758465 83.464036 365.265187 87.901476 360.827747 
C 92.338916 356.390307 94.832194 350.371002 94.832194 344.095514 
C 94.832194 337.820027 92.338916 331.800722 87.901476 327.363282 
C 83.464036 322.925842 77.444731 320.432564 71.169244 320.432564 
C 64.893756 320.432564 58.874451 322.925842 54.437011 327.363282 
C 49.999571 331.800722 47.506293 337.820027 47.506293 344.095514 
C 47.506293 350.371002 49.999571 356.390307 54.437011 360.827747 
C 58.874451 365.265187 64.893756 367.758465 71.169244 367.758465 
z
" clip-path="url(#p91b1d7f804)" style="fill: #d62728; fill-opacity: 0.99; stroke: #d62728; stroke-opacity: 0.99"/>
    <path d="M 107.63149 448.816237 
C 113.803781 448.816237 119.724102 446.36396 124.088571 441.999491 
C 128.45304 437.635022 130.905318 431.7147 130.905318 425.542409 
C 130.905318 419.370118 128.45304 413.449797 124.088571 409.085328 
C 119.724102 404.720858 113.803781 402.268581 107.63149 402.268581 
C 101.459199 402.268581 95.538877 404.720858 91.174408 409.085328 
C 86.809939 413.449797 84.357662 419.370118 84.357662 425.542409 
C 84.357662 431.7147 86.809939 437.635022 91.174408 441.999491 
C 95.538877 446.36396 101.459199 448.816237 107.63149 448.816237 
z
" clip-path="url(#p91b1d7f804)" style="fill: #d62728; fill-opacity: 0.99; stroke: #d62728; stroke-opacity: 0.99"/>
    <path d="M 174.25133 507.831259 
C 180.253589 507.831259 186.010819 505.446536 190.255058 501.202298 
C 194.499296 496.95806 196.884018 491.20083 196.884018 485.198571 
C 196.884018 479.196311 194.499296 473.439081 190.255058 469.194843 
C 186.010819 464.950605 180.253589 462.565882 174.25133 462.565882 
C 168.249071 462.565882 162.491841 464.950605 158.247603 469.194843 
C 154.003365 473.439081 151.618642 479.196311 151.618642 485.198571 
C 151.618642 491.20083 154.003365 496.95806 158.247603 501.202298 
C 162.491841 505.446536 168.249071 507.831259 174.25133 507.831259 
z
" clip-path="url(#p91b1d7f804)" style="fill: #d62728; fill-opacity: 0.99; stroke: #d62728; stroke-opacity: 0.99"/>
    <path d="M 259.509587 534.083868 
C 265.167688 534.083868 270.59481 531.83588 274.595692 527.834999 
C 278.596573 523.834117 280.844561 518.406995 280.844561 512.748894 
C 280.844561 507.090793 278.596573 501.663671 274.595692 497.66279 
C 270.59481 493.661908 265.167688 491.413921 259.509587 491.413921 
C 253.851486 491.413921 248.424364 493.661908 244.423483 497.66279 
C 240.422601 501.663671 238.174614 507.090793 238.174614 512.748894 
C 238.174614 518.406995 240.422601 523.834117 244.423483 527.834999 
C 248.424364 531.83588 253.851486 534.083868 259.509587 534.083868 
z
" clip-path="url(#p91b1d7f804)" style="fill: #d62728; fill-opacity: 0.99; stroke: #d62728; stroke-opacity: 0.99"/>
    <path d="M 348.664323 523.540161 
C 353.997687 523.540161 359.113327 521.421193 362.884585 517.649936 
C 366.655842 513.878678 368.77481 508.763038 368.77481 503.429675 
C 368.77481 498.096311 366.655842 492.980671 362.884585 489.209413 
C 359.113327 485.438156 353.997687 483.319188 348.664323 483.319188 
C 343.33096 483.319188 338.215319 485.438156 334.444062 489.209413 
C 330.672805 492.980671 328.553837 498.096311 328.553837 503.429675 
C 328.553837 508.763038 330.672805 513.878678 334.444062 517.649936 
C 338.215319 521.421193 343.33096 523.540161 348.664323 523.540161 
z
" clip-path="url(#p91b1d7f804)" style="fill: #d62728; fill-opacity: 0.99; stroke: #d62728; stroke-opacity: 0.99"/>
    <path d="M 426.299888 478.300142 
C 431.45752 478.300142 436.404603 476.250993 440.0516 472.603997 
C 443.698597 468.957 445.747746 464.009917 445.747746 458.852285 
C 445.747746 453.694653 443.698597 448.74757 440.0516 445.100573 
C 436.404603 441.453577 431.45752 439.404428 426.299888 439.404428 
C 421.142256 439.404428 416.195173 441.453577 412.548177 445.100573 
C 408.90118 448.74757 406.852031 453.694653 406.852031 458.852285 
C 406.852031 464.009917 408.90118 468.957 412.548177 472.603997 
C 416.195173 476.250993 421.142256 478.300142 426.299888 478.300142 
z
" clip-path="url(#p91b1d7f804)" style="fill: #d62728; fill-opacity: 0.99; stroke: #d62728; stroke-opacity: 0.99"/>
    <path d="M 478.992374 406.089501 
C 484.128009 406.089501 489.053994 404.049092 492.685437 400.417649 
C 496.31688 396.786206 498.35729 391.860221 498.35729 386.724585 
C 498.35729 381.588949 496.31688 376.662964 492.685437 373.031521 
C 489.053994 369.400078 484.128009 367.359668 478.992374 367.359668 
C 473.856738 367.359668 468.930753 369.400078 465.29931 373.031521 
C 461.667867 376.662964 459.627457 381.588949 459.627457 386.724585 
C 459.627457 391.860221 461.667867 396.786206 465.29931 400.417649 
C 468.930753 404.049092 473.856738 406.089501 478.992374 406.089501 
z
" clip-path="url(#p91b1d7f804)" style="fill: #d62728; fill-opacity: 0.99; stroke: #d62728; stroke-opacity: 0.99"/>
   </g>
   <g id="text_1">
    <g id="patch_2">
     <path d="M 457.738269 307.833281 
L 537.523269 307.833281 
L 537.523269 291.202969 
L 457.738269 291.202969 
z
" clip-path="url(#p91b1d7f804)" style="fill: #ffffff; opacity: 0.7; stroke: #000000; stroke-linejoin: miter"/>
    </g>
    <g clip-path="url(#p91b1d7f804)">
     <!-- Joaquin Phoenix -->
     <g transform="translate(461.698269 302.001562)scale(0.09 -0.09)">
      <defs>
       <path id="DejaVuSans-4a" d="M 628 4666 
L 1259 4666 
L 1259 325 
Q 1259 -519 939 -900 
Q 619 -1281 -91 -1281 
L -331 -1281 
L -331 -750 
L -134 -750 
Q 284 -750 456 -515 
Q 628 -281 628 325 
L 628 4666 
z
" transform="scale(0.015625)"/>
       <path id="DejaVuSans-6f" d="M 1959 3097 
Q 1497 3097 1228 2736 
Q 959 2375 959 1747 
Q 959 1119 1226 758 
Q 1494 397 1959 397 
Q 2419 397 2687 759 
Q 2956 1122 2956 1747 
Q 2956 2369 2687 2733 
Q 2419 3097 1959 3097 
z
M 1959 3584 
Q 2709 3584 3137 3096 
Q 3566 2609 3566 1747 
Q 3566 888 3137 398 
Q 2709 -91 1959 -91 
Q 1206 -91 779 398 
Q 353 888 353 1747 
Q 353 2609 779 3096 
Q 1206 3584 1959 3584 
z
" transform="scale(0.015625)"/>
       <path id="DejaVuSans-61" d="M 2194 1759 
Q 1497 1759 1228 1600 
Q 959 1441 959 1056 
Q 959 750 1161 570 
Q 1363 391 1709 391 
Q 2188 391 2477 730 
Q 2766 1069 2766 1631 
L 2766 1759 
L 2194 1759 
z
M 3341 1997 
L 3341 0 
L 2766 0 
L 2766 531 
Q 2569 213 2275 61 
Q 1981 -91 1556 -91 
Q 1019 -91 701 211 
Q 384 513 384 1019 
Q 384 1609 779 1909 
Q 1175 2209 1959 2209 
L 2766 2209 
L 2766 2266 
Q 2766 2663 2505 2880 
Q 2244 3097 1772 3097 
Q 1472 3097 1187 3025 
Q 903 2953 641 2809 
L 641 3341 
Q 956 3463 1253 3523 
Q 1550 3584 1831 3584 
Q 2591 3584 2966 3190 
Q 3341 2797 3341 1997 
z
" transform="scale(0.015625)"/>
       <path id="DejaVuSans-71" d="M 947 1747 
Q 947 1113 1208 752 
Q 1469 391 1925 391 
Q 2381 391 2643 752 
Q 2906 1113 2906 1747 
Q 2906 2381 2643 2742 
Q 2381 3103 1925 3103 
Q 1469 3103 1208 2742 
Q 947 2381 947 1747 
z
M 2906 525 
Q 2725 213 2448 61 
Q 2172 -91 1784 -91 
Q 1150 -91 751 415 
Q 353 922 353 1747 
Q 353 2572 751 3078 
Q 1150 3584 1784 3584 
Q 2172 3584 2448 3432 
Q 2725 3281 2906 2969 
L 2906 3500 
L 3481 3500 
L 3481 -1331 
L 2906 -1331 
L 2906 525 
z
" transform="scale(0.015625)"/>
       <path id="DejaVuSans-75" d="M 544 1381 
L 544 3500 
L 1119 3500 
L 1119 1403 
Q 1119 906 1312 657 
Q 1506 409 1894 409 
Q 2359 409 2629 706 
Q 2900 1003 2900 1516 
L 2900 3500 
L 3475 3500 
L 3475 0 
L 2900 0 
L 2900 538 
Q 2691 219 2414 64 
Q 2138 -91 1772 -91 
Q 1169 -91 856 284 
Q 544 659 544 1381 
z
M 1991 3584 
L 1991 3584 
z
" transform="scale(0.015625)"/>
       <path id="DejaVuSans-69" d="M 603 3500 
L 1178 3500 
L 1178 0 
L 603 0 
L 603 3500 
z
M 603 4863 
L 1178 4863 
L 1178 4134 
L 603 4134 
L 603 4863 
z
" transform="scale(0.015625)"/>
       <path id="DejaVuSans-6e" d="M 3513 2113 
L 3513 0 
L 2938 0 
L 2938 2094 
Q 2938 2591 2744 2837 
Q 2550 3084 2163 3084 
Q 1697 3084 1428 2787 
Q 1159 2491 1159 1978 
L 1159 0 
L 581 0 
L 581 3500 
L 1159 3500 
L 1159 2956 
Q 1366 3272 1645 3428 
Q 1925 3584 2291 3584 
Q 2894 3584 3203 3211 
Q 3513 2838 3513 2113 
z
" transform="scale(0.015625)"/>
       <path id="DejaVuSans-20" transform="scale(0.015625)"/>
       <path id="DejaVuSans-50" d="M 1259 4147 
L 1259 2394 
L 2053 2394 
Q 2494 2394 2734 2622 
Q 2975 2850 2975 3272 
Q 2975 3691 2734 3919 
Q 2494 4147 2053 4147 
L 1259 4147 
z
M 628 4666 
L 2053 4666 
Q 2838 4666 3239 4311 
Q 3641 3956 3641 3272 
Q 3641 2581 3239 2228 
Q 2838 1875 2053 1875 
L 1259 1875 
L 1259 0 
L 628 0 
L 628 4666 
z
" transform="scale(0.015625)"/>
       <path id="DejaVuSans-68" d="M 3513 2113 
L 3513 0 
L 2938 0 
L 2938 2094 
Q 2938 2591 2744 2837 
Q 2550 3084 2163 3084 
Q 1697 3084 1428 2787 
Q 1159 2491 1159 1978 
L 1159 0 
L 581 0 
L 581 4863 
L 1159 4863 
L 1159 2956 
Q 1366 3272 1645 3428 
Q 1925 3584 2291 3584 
Q 2894 3584 3203 3211 
Q 3513 2838 3513 2113 
z
" transform="scale(0.015625)"/>
       <path id="DejaVuSans-65" d="M 3597 1894 
L 3597 1613 
L 953 1613 
Q 991 1019 1311 708 
Q 1631 397 2203 397 
Q 2534 397 2845 478 
Q 3156 559 3463 722 
L 3463 178 
Q 3153 47 2828 -22 
Q 2503 -91 2169 -91 
Q 1331 -91 842 396 
Q 353 884 353 1716 
Q 353 2575 817 3079 
Q 1281 3584 2069 3584 
Q 2775 3584 3186 3129 
Q 3597 2675 3597 1894 
z
M 3022 2063 
Q 3016 2534 2758 2815 
Q 2500 3097 2075 3097 
Q 1594 3097 1305 2825 
Q 1016 2553 972 2059 
L 3022 2063 
z
" transform="scale(0.015625)"/>
       <path id="DejaVuSans-78" d="M 3513 3500 
L 2247 1797 
L 3578 0 
L 2900 0 
L 1881 1375 
L 863 0 
L 184 0 
L 1544 1831 
L 300 3500 
L 978 3500 
L 1906 2253 
L 2834 3500 
L 3513 3500 
z
" transform="scale(0.015625)"/>
      </defs>
      <use xlink:href="#DejaVuSans-4a"/>
      <use xlink:href="#DejaVuSans-6f" x="29.492188"/>
      <use xlink:href="#DejaVuSans-61" x="90.673828"/>
      <use xlink:href="#DejaVuSans-71" x="151.953125"/>
      <use xlink:href="#DejaVuSans-75" x="215.429688"/>
      <use xlink:href="#DejaVuSans-69" x="278.808594"/>
      <use xlink:href="#DejaVuSans-6e" x="306.591797"/>
      <use xlink:href="#DejaVuSans-20" x="369.970703"/>
      <use xlink:href="#DejaVuSans-50" x="401.757812"/>
      <use xlink:href="#DejaVuSans-68" x="462.060547"/>
      <use xlink:href="#DejaVuSans-6f" x="525.439453"/>
      <use xlink:href="#DejaVuSans-65" x="586.621094"/>
      <use xlink:href="#DejaVuSans-6e" x="648.144531"/>
      <use xlink:href="#DejaVuSans-69" x="711.523438"/>
      <use xlink:href="#DejaVuSans-78" x="739.306641"/>
     </g>
    </g>
   </g>
   <g id="text_2">
    <g id="patch_3">
     <path d="M 436.425863 220.62679 
L 521.558832 220.62679 
L 521.558832 203.996477 
L 436.425863 203.996477 
z
" clip-path="url(#p91b1d7f804)" style="fill: #ffffff; opacity: 0.7; stroke: #000000; stroke-linejoin: miter"/>
    </g>
    <g clip-path="url(#p91b1d7f804)">
     <!-- Janeane Garofalo -->
     <g transform="translate(440.385863 214.795071)scale(0.09 -0.09)">
      <defs>
       <path id="DejaVuSans-47" d="M 3809 666 
L 3809 1919 
L 2778 1919 
L 2778 2438 
L 4434 2438 
L 4434 434 
Q 4069 175 3628 42 
Q 3188 -91 2688 -91 
Q 1594 -91 976 548 
Q 359 1188 359 2328 
Q 359 3472 976 4111 
Q 1594 4750 2688 4750 
Q 3144 4750 3555 4637 
Q 3966 4525 4313 4306 
L 4313 3634 
Q 3963 3931 3569 4081 
Q 3175 4231 2741 4231 
Q 1884 4231 1454 3753 
Q 1025 3275 1025 2328 
Q 1025 1384 1454 906 
Q 1884 428 2741 428 
Q 3075 428 3337 486 
Q 3600 544 3809 666 
z
" transform="scale(0.015625)"/>
       <path id="DejaVuSans-72" d="M 2631 2963 
Q 2534 3019 2420 3045 
Q 2306 3072 2169 3072 
Q 1681 3072 1420 2755 
Q 1159 2438 1159 1844 
L 1159 0 
L 581 0 
L 581 3500 
L 1159 3500 
L 1159 2956 
Q 1341 3275 1631 3429 
Q 1922 3584 2338 3584 
Q 2397 3584 2469 3576 
Q 2541 3569 2628 3553 
L 2631 2963 
z
" transform="scale(0.015625)"/>
       <path id="DejaVuSans-66" d="M 2375 4863 
L 2375 4384 
L 1825 4384 
Q 1516 4384 1395 4259 
Q 1275 4134 1275 3809 
L 1275 3500 
L 2222 3500 
L 2222 3053 
L 1275 3053 
L 1275 0 
L 697 0 
L 697 3053 
L 147 3053 
L 147 3500 
L 697 3500 
L 697 3744 
Q 697 4328 969 4595 
Q 1241 4863 1831 4863 
L 2375 4863 
z
" transform="scale(0.015625)"/>
       <path id="DejaVuSans-6c" d="M 603 4863 
L 1178 4863 
L 1178 0 
L 603 0 
L 603 4863 
z
" transform="scale(0.015625)"/>
      </defs>
      <use xlink:href="#DejaVuSans-4a"/>
      <use xlink:href="#DejaVuSans-61" x="29.492188"/>
      <use xlink:href="#DejaVuSans-6e" x="90.771484"/>
      <use xlink:href="#DejaVuSans-65" x="154.150391"/>
      <use xlink:href="#DejaVuSans-61" x="215.673828"/>
      <use xlink:href="#DejaVuSans-6e" x="276.953125"/>
      <use xlink:href="#DejaVuSans-65" x="340.332031"/>
      <use xlink:href="#DejaVuSans-20" x="401.855469"/>
      <use xlink:href="#DejaVuSans-47" x="433.642578"/>
      <use xlink:href="#DejaVuSans-61" x="511.132812"/>
      <use xlink:href="#DejaVuSans-72" x="572.412109"/>
      <use xlink:href="#DejaVuSans-6f" x="611.275391"/>
      <use xlink:href="#DejaVuSans-66" x="672.457031"/>
      <use xlink:href="#DejaVuSans-61" x="707.662109"/>
      <use xlink:href="#DejaVuSans-6c" x="768.941406"/>
      <use xlink:href="#DejaVuSans-6f" x="796.724609"/>
     </g>
    </g>
   </g>
   <g id="text_3">
    <g id="patch_4">
     <path d="M 390.610631 148.499083 
L 461.989069 148.499083 
L 461.989069 131.86877 
L 390.610631 131.86877 
z
" clip-path="url(#p91b1d7f804)" style="fill: #ffffff; opacity: 0.7; stroke: #000000; stroke-linejoin: miter"/>
    </g>
    <g clip-path="url(#p91b1d7f804)">
     <!-- Jason Robards -->
     <g transform="translate(394.570631 142.667364)scale(0.09 -0.09)">
      <defs>
       <path id="DejaVuSans-73" d="M 2834 3397 
L 2834 2853 
Q 2591 2978 2328 3040 
Q 2066 3103 1784 3103 
Q 1356 3103 1142 2972 
Q 928 2841 928 2578 
Q 928 2378 1081 2264 
Q 1234 2150 1697 2047 
L 1894 2003 
Q 2506 1872 2764 1633 
Q 3022 1394 3022 966 
Q 3022 478 2636 193 
Q 2250 -91 1575 -91 
Q 1294 -91 989 -36 
Q 684 19 347 128 
L 347 722 
Q 666 556 975 473 
Q 1284 391 1588 391 
Q 1994 391 2212 530 
Q 2431 669 2431 922 
Q 2431 1156 2273 1281 
Q 2116 1406 1581 1522 
L 1381 1569 
Q 847 1681 609 1914 
Q 372 2147 372 2553 
Q 372 3047 722 3315 
Q 1072 3584 1716 3584 
Q 2034 3584 2315 3537 
Q 2597 3491 2834 3397 
z
" transform="scale(0.015625)"/>
       <path id="DejaVuSans-52" d="M 2841 2188 
Q 3044 2119 3236 1894 
Q 3428 1669 3622 1275 
L 4263 0 
L 3584 0 
L 2988 1197 
Q 2756 1666 2539 1819 
Q 2322 1972 1947 1972 
L 1259 1972 
L 1259 0 
L 628 0 
L 628 4666 
L 2053 4666 
Q 2853 4666 3247 4331 
Q 3641 3997 3641 3322 
Q 3641 2881 3436 2590 
Q 3231 2300 2841 2188 
z
M 1259 4147 
L 1259 2491 
L 2053 2491 
Q 2509 2491 2742 2702 
Q 2975 2913 2975 3322 
Q 2975 3731 2742 3939 
Q 2509 4147 2053 4147 
L 1259 4147 
z
" transform="scale(0.015625)"/>
       <path id="DejaVuSans-62" d="M 3116 1747 
Q 3116 2381 2855 2742 
Q 2594 3103 2138 3103 
Q 1681 3103 1420 2742 
Q 1159 2381 1159 1747 
Q 1159 1113 1420 752 
Q 1681 391 2138 391 
Q 2594 391 2855 752 
Q 3116 1113 3116 1747 
z
M 1159 2969 
Q 1341 3281 1617 3432 
Q 1894 3584 2278 3584 
Q 2916 3584 3314 3078 
Q 3713 2572 3713 1747 
Q 3713 922 3314 415 
Q 2916 -91 2278 -91 
Q 1894 -91 1617 61 
Q 1341 213 1159 525 
L 1159 0 
L 581 0 
L 581 4863 
L 1159 4863 
L 1159 2969 
z
" transform="scale(0.015625)"/>
       <path id="DejaVuSans-64" d="M 2906 2969 
L 2906 4863 
L 3481 4863 
L 3481 0 
L 2906 0 
L 2906 525 
Q 2725 213 2448 61 
Q 2172 -91 1784 -91 
Q 1150 -91 751 415 
Q 353 922 353 1747 
Q 353 2572 751 3078 
Q 1150 3584 1784 3584 
Q 2172 3584 2448 3432 
Q 2725 3281 2906 2969 
z
M 947 1747 
Q 947 1113 1208 752 
Q 1469 391 1925 391 
Q 2381 391 2643 752 
Q 2906 1113 2906 1747 
Q 2906 2381 2643 2742 
Q 2381 3103 1925 3103 
Q 1469 3103 1208 2742 
Q 947 2381 947 1747 
z
" transform="scale(0.015625)"/>
      </defs>
      <use xlink:href="#DejaVuSans-4a"/>
      <use xlink:href="#DejaVuSans-61" x="29.492188"/>
      <use xlink:href="#DejaVuSans-73" x="90.771484"/>
      <use xlink:href="#DejaVuSans-6f" x="142.871094"/>
      <use xlink:href="#DejaVuSans-6e" x="204.052734"/>
      <use xlink:href="#DejaVuSans-20" x="267.431641"/>
      <use xlink:href="#DejaVuSans-52" x="299.21875"/>
      <use xlink:href="#DejaVuSans-6f" x="364.201172"/>
      <use xlink:href="#DejaVuSans-62" x="425.382812"/>
      <use xlink:href="#DejaVuSans-61" x="488.859375"/>
      <use xlink:href="#DejaVuSans-72" x="550.138672"/>
      <use xlink:href="#DejaVuSans-64" x="589.501953"/>
      <use xlink:href="#DejaVuSans-73" x="652.978516"/>
     </g>
    </g>
   </g>
   <g id="text_4">
    <g id="patch_5">
     <path d="M 316.894291 103.921719 
L 380.434291 103.921719 
L 380.434291 87.291406 
L 316.894291 87.291406 
z
" clip-path="url(#p91b1d7f804)" style="fill: #ffffff; opacity: 0.7; stroke: #000000; stroke-linejoin: miter"/>
    </g>
    <g clip-path="url(#p91b1d7f804)">
     <!-- Matt Damon -->
     <g transform="translate(320.854291 98.09)scale(0.09 -0.09)">
      <defs>
       <path id="DejaVuSans-4d" d="M 628 4666 
L 1569 4666 
L 2759 1491 
L 3956 4666 
L 4897 4666 
L 4897 0 
L 4281 0 
L 4281 4097 
L 3078 897 
L 2444 897 
L 1241 4097 
L 1241 0 
L 628 0 
L 628 4666 
z
" transform="scale(0.015625)"/>
       <path id="DejaVuSans-74" d="M 1172 4494 
L 1172 3500 
L 2356 3500 
L 2356 3053 
L 1172 3053 
L 1172 1153 
Q 1172 725 1289 603 
Q 1406 481 1766 481 
L 2356 481 
L 2356 0 
L 1766 0 
Q 1100 0 847 248 
Q 594 497 594 1153 
L 594 3053 
L 172 3053 
L 172 3500 
L 594 3500 
L 594 4494 
L 1172 4494 
z
" transform="scale(0.015625)"/>
       <path id="DejaVuSans-44" d="M 1259 4147 
L 1259 519 
L 2022 519 
Q 2988 519 3436 956 
Q 3884 1394 3884 2338 
Q 3884 3275 3436 3711 
Q 2988 4147 2022 4147 
L 1259 4147 
z
M 628 4666 
L 1925 4666 
Q 3281 4666 3915 4102 
Q 4550 3538 4550 2338 
Q 4550 1131 3912 565 
Q 3275 0 1925 0 
L 628 0 
L 628 4666 
z
" transform="scale(0.015625)"/>
       <path id="DejaVuSans-6d" d="M 3328 2828 
Q 3544 3216 3844 3400 
Q 4144 3584 4550 3584 
Q 5097 3584 5394 3201 
Q 5691 2819 5691 2113 
L 5691 0 
L 5113 0 
L 5113 2094 
Q 5113 2597 4934 2840 
Q 4756 3084 4391 3084 
Q 3944 3084 3684 2787 
Q 3425 2491 3425 1978 
L 3425 0 
L 2847 0 
L 2847 2094 
Q 2847 2600 2669 2842 
Q 2491 3084 2119 3084 
Q 1678 3084 1418 2786 
Q 1159 2488 1159 1978 
L 1159 0 
L 581 0 
L 581 3500 
L 1159 3500 
L 1159 2956 
Q 1356 3278 1631 3431 
Q 1906 3584 2284 3584 
Q 2666 3584 2933 3390 
Q 3200 3197 3328 2828 
z
" transform="scale(0.015625)"/>
      </defs>
      <use xlink:href="#DejaVuSans-4d"/>
      <use xlink:href="#DejaVuSans-61" x="86.279297"/>
      <use xlink:href="#DejaVuSans-74" x="147.558594"/>
      <use xlink:href="#DejaVuSans-74" x="186.767578"/>
      <use xlink:href="#DejaVuSans-20" x="225.976562"/>
      <use xlink:href="#DejaVuSans-44" x="257.763672"/>
      <use xlink:href="#DejaVuSans-61" x="334.765625"/>
      <use xlink:href="#DejaVuSans-6d" x="396.044922"/>
      <use xlink:href="#DejaVuSans-6f" x="493.457031"/>
      <use xlink:href="#DejaVuSans-6e" x="554.638672"/>
     </g>
    </g>
   </g>
   <g id="text_5">
    <g id="patch_6">
     <path d="M 222.667205 94.602512 
L 296.351892 94.602512 
L 296.351892 77.9722 
L 222.667205 77.9722 
z
" clip-path="url(#p91b1d7f804)" style="fill: #ffffff; opacity: 0.7; stroke: #000000; stroke-linejoin: miter"/>
    </g>
    <g clip-path="url(#p91b1d7f804)">
     <!-- John Hillerman -->
     <g transform="translate(226.627205 88.770793)scale(0.09 -0.09)">
      <defs>
       <path id="DejaVuSans-48" d="M 628 4666 
L 1259 4666 
L 1259 2753 
L 3553 2753 
L 3553 4666 
L 4184 4666 
L 4184 0 
L 3553 0 
L 3553 2222 
L 1259 2222 
L 1259 0 
L 628 0 
L 628 4666 
z
" transform="scale(0.015625)"/>
      </defs>
      <use xlink:href="#DejaVuSans-4a"/>
      <use xlink:href="#DejaVuSans-6f" x="29.492188"/>
      <use xlink:href="#DejaVuSans-68" x="90.673828"/>
      <use xlink:href="#DejaVuSans-6e" x="154.052734"/>
      <use xlink:href="#DejaVuSans-20" x="217.431641"/>
      <use xlink:href="#DejaVuSans-48" x="249.21875"/>
      <use xlink:href="#DejaVuSans-69" x="324.414062"/>
      <use xlink:href="#DejaVuSans-6c" x="352.197266"/>
      <use xlink:href="#DejaVuSans-6c" x="379.980469"/>
      <use xlink:href="#DejaVuSans-65" x="407.763672"/>
      <use xlink:href="#DejaVuSans-72" x="469.287109"/>
      <use xlink:href="#DejaVuSans-6d" x="508.650391"/>
      <use xlink:href="#DejaVuSans-61" x="606.0625"/>
      <use xlink:href="#DejaVuSans-6e" x="667.341797"/>
     </g>
    </g>
   </g>
   <g id="text_6">
    <g id="patch_7">
     <path d="M 145.797236 122.152849 
L 202.705361 122.152849 
L 202.705361 105.522536 
L 145.797236 105.522536 
z
" clip-path="url(#p91b1d7f804)" style="fill: #ffffff; opacity: 0.7; stroke: #000000; stroke-linejoin: miter"/>
    </g>
    <g clip-path="url(#p91b1d7f804)">
     <!-- Tom Hanks -->
     <g transform="translate(149.757236 116.32113)scale(0.09 -0.09)">
      <defs>
       <path id="DejaVuSans-54" d="M -19 4666 
L 3928 4666 
L 3928 4134 
L 2272 4134 
L 2272 0 
L 1638 0 
L 1638 4134 
L -19 4134 
L -19 4666 
z
" transform="scale(0.015625)"/>
       <path id="DejaVuSans-6b" d="M 581 4863 
L 1159 4863 
L 1159 1991 
L 2875 3500 
L 3609 3500 
L 1753 1863 
L 3688 0 
L 2938 0 
L 1159 1709 
L 1159 0 
L 581 0 
L 581 4863 
z
" transform="scale(0.015625)"/>
      </defs>
      <use xlink:href="#DejaVuSans-54"/>
      <use xlink:href="#DejaVuSans-6f" x="44.083984"/>
      <use xlink:href="#DejaVuSans-6d" x="105.265625"/>
      <use xlink:href="#DejaVuSans-20" x="202.677734"/>
      <use xlink:href="#DejaVuSans-48" x="234.464844"/>
      <use xlink:href="#DejaVuSans-61" x="309.660156"/>
      <use xlink:href="#DejaVuSans-6e" x="370.939453"/>
      <use xlink:href="#DejaVuSans-6b" x="434.318359"/>
      <use xlink:href="#DejaVuSans-73" x="492.228516"/>
     </g>
    </g>
   </g>
   <g id="text_7">
    <g id="patch_8">
     <path d="M 60.330149 181.80901 
L 154.932805 181.80901 
L 154.932805 165.178697 
L 60.330149 165.178697 
z
" clip-path="url(#p91b1d7f804)" style="fill: #ffffff; opacity: 0.7; stroke: #000000; stroke-linejoin: miter"/>
    </g>
    <g clip-path="url(#p91b1d7f804)">
     <!-- Denzel Washington -->
     <g transform="translate(64.290149 175.977291)scale(0.09 -0.09)">
      <defs>
       <path id="DejaVuSans-7a" d="M 353 3500 
L 3084 3500 
L 3084 2975 
L 922 459 
L 3084 459 
L 3084 0 
L 275 0 
L 275 525 
L 2438 3041 
L 353 3041 
L 353 3500 
z
" transform="scale(0.015625)"/>
       <path id="DejaVuSans-57" d="M 213 4666 
L 850 4666 
L 1831 722 
L 2809 4666 
L 3519 4666 
L 4500 722 
L 5478 4666 
L 6119 4666 
L 4947 0 
L 4153 0 
L 3169 4050 
L 2175 0 
L 1381 0 
L 213 4666 
z
" transform="scale(0.015625)"/>
       <path id="DejaVuSans-67" d="M 2906 1791 
Q 2906 2416 2648 2759 
Q 2391 3103 1925 3103 
Q 1463 3103 1205 2759 
Q 947 2416 947 1791 
Q 947 1169 1205 825 
Q 1463 481 1925 481 
Q 2391 481 2648 825 
Q 2906 1169 2906 1791 
z
M 3481 434 
Q 3481 -459 3084 -895 
Q 2688 -1331 1869 -1331 
Q 1566 -1331 1297 -1286 
Q 1028 -1241 775 -1147 
L 775 -588 
Q 1028 -725 1275 -790 
Q 1522 -856 1778 -856 
Q 2344 -856 2625 -561 
Q 2906 -266 2906 331 
L 2906 616 
Q 2728 306 2450 153 
Q 2172 0 1784 0 
Q 1141 0 747 490 
Q 353 981 353 1791 
Q 353 2603 747 3093 
Q 1141 3584 1784 3584 
Q 2172 3584 2450 3431 
Q 2728 3278 2906 2969 
L 2906 3500 
L 3481 3500 
L 3481 434 
z
" transform="scale(0.015625)"/>
      </defs>
      <use xlink:href="#DejaVuSans-44"/>
      <use xlink:href="#DejaVuSans-65" x="77.001953"/>
      <use xlink:href="#DejaVuSans-6e" x="138.525391"/>
      <use xlink:href="#DejaVuSans-7a" x="201.904297"/>
      <use xlink:href="#DejaVuSans-65" x="254.394531"/>
      <use xlink:href="#DejaVuSans-6c" x="315.917969"/>
      <use xlink:href="#DejaVuSans-20" x="343.701172"/>
      <use xlink:href="#DejaVuSans-57" x="375.488281"/>
      <use xlink:href="#DejaVuSans-61" x="467.990234"/>
      <use xlink:href="#DejaVuSans-73" x="529.269531"/>
      <use xlink:href="#DejaVuSans-68" x="581.369141"/>
      <use xlink:href="#DejaVuSans-69" x="644.748047"/>
      <use xlink:href="#DejaVuSans-6e" x="672.53125"/>
      <use xlink:href="#DejaVuSans-67" x="735.910156"/>
      <use xlink:href="#DejaVuSans-74" x="799.386719"/>
      <use xlink:href="#DejaVuSans-6f" x="838.595703"/>
      <use xlink:href="#DejaVuSans-6e" x="899.777344"/>
     </g>
    </g>
   </g>
   <g id="text_8">
    <g id="patch_9">
     <path d="M 34.078684 263.25593 
L 108.259778 263.25593 
L 108.259778 246.625618 
L 34.078684 246.625618 
z
" clip-path="url(#p91b1d7f804)" style="fill: #ffffff; opacity: 0.7; stroke: #000000; stroke-linejoin: miter"/>
    </g>
    <g clip-path="url(#p91b1d7f804)">
     <!-- Robert De Niro -->
     <g transform="translate(38.038684 257.424211)scale(0.09 -0.09)">
      <defs>
       <path id="DejaVuSans-4e" d="M 628 4666 
L 1478 4666 
L 3547 763 
L 3547 4666 
L 4159 4666 
L 4159 0 
L 3309 0 
L 1241 3903 
L 1241 0 
L 628 0 
L 628 4666 
z
" transform="scale(0.015625)"/>
      </defs>
      <use xlink:href="#DejaVuSans-52"/>
      <use xlink:href="#DejaVuSans-6f" x="64.982422"/>
      <use xlink:href="#DejaVuSans-62" x="126.164062"/>
      <use xlink:href="#DejaVuSans-65" x="189.640625"/>
      <use xlink:href="#DejaVuSans-72" x="251.164062"/>
      <use xlink:href="#DejaVuSans-74" x="292.277344"/>
      <use xlink:href="#DejaVuSans-20" x="331.486328"/>
      <use xlink:href="#DejaVuSans-44" x="363.273438"/>
      <use xlink:href="#DejaVuSans-65" x="440.275391"/>
      <use xlink:href="#DejaVuSans-20" x="501.798828"/>
      <use xlink:href="#DejaVuSans-4e" x="533.585938"/>
      <use xlink:href="#DejaVuSans-69" x="608.390625"/>
      <use xlink:href="#DejaVuSans-72" x="636.173828"/>
      <use xlink:href="#DejaVuSans-6f" x="675.037109"/>
     </g>
    </g>
   </g>
   <g id="text_9">
    <g id="patch_10">
     <path d="M 38.113228 352.410671 
L 104.225259 352.410671 
L 104.225259 335.780358 
L 38.113228 335.780358 
z
" clip-path="url(#p91b1d7f804)" style="fill: #ffffff; opacity: 0.7; stroke: #000000; stroke-linejoin: miter"/>
    </g>
    <g clip-path="url(#p91b1d7f804)">
     <!-- John Travolta -->
     <g transform="translate(42.073228 346.578952)scale(0.09 -0.09)">
      <defs>
       <path id="DejaVuSans-76" d="M 191 3500 
L 800 3500 
L 1894 563 
L 2988 3500 
L 3597 3500 
L 2284 0 
L 1503 0 
L 191 3500 
z
" transform="scale(0.015625)"/>
      </defs>
      <use xlink:href="#DejaVuSans-4a"/>
      <use xlink:href="#DejaVuSans-6f" x="29.492188"/>
      <use xlink:href="#DejaVuSans-68" x="90.673828"/>
      <use xlink:href="#DejaVuSans-6e" x="154.052734"/>
      <use xlink:href="#DejaVuSans-20" x="217.431641"/>
      <use xlink:href="#DejaVuSans-54" x="249.21875"/>
      <use xlink:href="#DejaVuSans-72" x="295.552734"/>
      <use xlink:href="#DejaVuSans-61" x="336.666016"/>
      <use xlink:href="#DejaVuSans-76" x="397.945312"/>
      <use xlink:href="#DejaVuSans-6f" x="457.125"/>
      <use xlink:href="#DejaVuSans-6c" x="518.306641"/>
      <use xlink:href="#DejaVuSans-74" x="546.089844"/>
      <use xlink:href="#DejaVuSans-61" x="585.298828"/>
     </g>
    </g>
   </g>
   <g id="text_10">
    <g id="patch_11">
     <path d="M 80.059849 433.857565 
L 135.20313 433.857565 
L 135.20313 417.227253 
L 80.059849 417.227253 
z
" clip-path="url(#p91b1d7f804)" style="fill: #ffffff; opacity: 0.7; stroke: #000000; stroke-linejoin: miter"/>
    </g>
    <g clip-path="url(#p91b1d7f804)">
     <!-- Tyler Perry -->
     <g transform="translate(84.019849 428.025847)scale(0.09 -0.09)">
      <defs>
       <path id="DejaVuSans-79" d="M 2059 -325 
Q 1816 -950 1584 -1140 
Q 1353 -1331 966 -1331 
L 506 -1331 
L 506 -850 
L 844 -850 
Q 1081 -850 1212 -737 
Q 1344 -625 1503 -206 
L 1606 56 
L 191 3500 
L 800 3500 
L 1894 763 
L 2988 3500 
L 3597 3500 
L 2059 -325 
z
" transform="scale(0.015625)"/>
      </defs>
      <use xlink:href="#DejaVuSans-54"/>
      <use xlink:href="#DejaVuSans-79" x="45.458984"/>
      <use xlink:href="#DejaVuSans-6c" x="104.638672"/>
      <use xlink:href="#DejaVuSans-65" x="132.421875"/>
      <use xlink:href="#DejaVuSans-72" x="193.945312"/>
      <use xlink:href="#DejaVuSans-20" x="235.058594"/>
      <use xlink:href="#DejaVuSans-50" x="266.845703"/>
      <use xlink:href="#DejaVuSans-65" x="323.523438"/>
      <use xlink:href="#DejaVuSans-72" x="385.046875"/>
      <use xlink:href="#DejaVuSans-72" x="424.410156"/>
      <use xlink:href="#DejaVuSans-79" x="465.523438"/>
     </g>
    </g>
   </g>
   <g id="text_11">
    <g id="patch_12">
     <path d="M 144.329143 493.513727 
L 204.173518 493.513727 
L 204.173518 476.883414 
L 144.329143 476.883414 
z
" clip-path="url(#p91b1d7f804)" style="fill: #ffffff; opacity: 0.7; stroke: #000000; stroke-linejoin: miter"/>
    </g>
    <g clip-path="url(#p91b1d7f804)">
     <!-- Rene Russo -->
     <g transform="translate(148.289143 487.682008)scale(0.09 -0.09)">
      <use xlink:href="#DejaVuSans-52"/>
      <use xlink:href="#DejaVuSans-65" x="64.982422"/>
      <use xlink:href="#DejaVuSans-6e" x="126.505859"/>
      <use xlink:href="#DejaVuSans-65" x="189.884766"/>
      <use xlink:href="#DejaVuSans-20" x="251.408203"/>
      <use xlink:href="#DejaVuSans-52" x="283.195312"/>
      <use xlink:href="#DejaVuSans-75" x="348.177734"/>
      <use xlink:href="#DejaVuSans-73" x="411.556641"/>
      <use xlink:href="#DejaVuSans-73" x="463.65625"/>
      <use xlink:href="#DejaVuSans-6f" x="515.755859"/>
     </g>
    </g>
   </g>
   <g id="text_12">
    <g id="patch_13">
     <path d="M 223.924431 521.06405 
L 295.094743 521.06405 
L 295.094743 504.433738 
L 223.924431 504.433738 
z
" clip-path="url(#p91b1d7f804)" style="fill: #ffffff; opacity: 0.7; stroke: #000000; stroke-linejoin: miter"/>
    </g>
    <g clip-path="url(#p91b1d7f804)">
     <!-- Keanu Reeves -->
     <g transform="translate(227.884431 515.232332)scale(0.09 -0.09)">
      <defs>
       <path id="DejaVuSans-4b" d="M 628 4666 
L 1259 4666 
L 1259 2694 
L 3353 4666 
L 4166 4666 
L 1850 2491 
L 4331 0 
L 3500 0 
L 1259 2247 
L 1259 0 
L 628 0 
L 628 4666 
z
" transform="scale(0.015625)"/>
      </defs>
      <use xlink:href="#DejaVuSans-4b"/>
      <use xlink:href="#DejaVuSans-65" x="60.576172"/>
      <use xlink:href="#DejaVuSans-61" x="122.099609"/>
      <use xlink:href="#DejaVuSans-6e" x="183.378906"/>
      <use xlink:href="#DejaVuSans-75" x="246.757812"/>
      <use xlink:href="#DejaVuSans-20" x="310.136719"/>
      <use xlink:href="#DejaVuSans-52" x="341.923828"/>
      <use xlink:href="#DejaVuSans-65" x="406.90625"/>
      <use xlink:href="#DejaVuSans-65" x="468.429688"/>
      <use xlink:href="#DejaVuSans-76" x="529.953125"/>
      <use xlink:href="#DejaVuSans-65" x="589.132812"/>
      <use xlink:href="#DejaVuSans-73" x="650.65625"/>
     </g>
    </g>
   </g>
   <g id="text_13">
    <g id="patch_14">
     <path d="M 306.447292 511.744831 
L 390.881355 511.744831 
L 390.881355 495.114518 
L 306.447292 495.114518 
z
" clip-path="url(#p91b1d7f804)" style="fill: #ffffff; opacity: 0.7; stroke: #000000; stroke-linejoin: miter"/>
    </g>
    <g clip-path="url(#p91b1d7f804)">
     <!-- Rachel McAdams -->
     <g transform="translate(310.407292 505.913112)scale(0.09 -0.09)">
      <defs>
       <path id="DejaVuSans-63" d="M 3122 3366 
L 3122 2828 
Q 2878 2963 2633 3030 
Q 2388 3097 2138 3097 
Q 1578 3097 1268 2742 
Q 959 2388 959 1747 
Q 959 1106 1268 751 
Q 1578 397 2138 397 
Q 2388 397 2633 464 
Q 2878 531 3122 666 
L 3122 134 
Q 2881 22 2623 -34 
Q 2366 -91 2075 -91 
Q 1284 -91 818 406 
Q 353 903 353 1747 
Q 353 2603 823 3093 
Q 1294 3584 2113 3584 
Q 2378 3584 2631 3529 
Q 2884 3475 3122 3366 
z
" transform="scale(0.015625)"/>
       <path id="DejaVuSans-41" d="M 2188 4044 
L 1331 1722 
L 3047 1722 
L 2188 4044 
z
M 1831 4666 
L 2547 4666 
L 4325 0 
L 3669 0 
L 3244 1197 
L 1141 1197 
L 716 0 
L 50 0 
L 1831 4666 
z
" transform="scale(0.015625)"/>
      </defs>
      <use xlink:href="#DejaVuSans-52"/>
      <use xlink:href="#DejaVuSans-61" x="67.232422"/>
      <use xlink:href="#DejaVuSans-63" x="128.511719"/>
      <use xlink:href="#DejaVuSans-68" x="183.492188"/>
      <use xlink:href="#DejaVuSans-65" x="246.871094"/>
      <use xlink:href="#DejaVuSans-6c" x="308.394531"/>
      <use xlink:href="#DejaVuSans-20" x="336.177734"/>
      <use xlink:href="#DejaVuSans-4d" x="367.964844"/>
      <use xlink:href="#DejaVuSans-63" x="454.244141"/>
      <use xlink:href="#DejaVuSans-41" x="509.224609"/>
      <use xlink:href="#DejaVuSans-64" x="575.882812"/>
      <use xlink:href="#DejaVuSans-61" x="639.359375"/>
      <use xlink:href="#DejaVuSans-6d" x="700.638672"/>
      <use xlink:href="#DejaVuSans-73" x="798.050781"/>
     </g>
    </g>
   </g>
   <g id="text_14">
    <g id="patch_15">
     <path d="M 386.083951 467.167441 
L 466.515826 467.167441 
L 466.515826 450.537129 
L 386.083951 450.537129 
z
" clip-path="url(#p91b1d7f804)" style="fill: #ffffff; opacity: 0.7; stroke: #000000; stroke-linejoin: miter"/>
    </g>
    <g clip-path="url(#p91b1d7f804)">
     <!-- Natalie Portman -->
     <g transform="translate(390.043951 461.335723)scale(0.09 -0.09)">
      <use xlink:href="#DejaVuSans-4e"/>
      <use xlink:href="#DejaVuSans-61" x="74.804688"/>
      <use xlink:href="#DejaVuSans-74" x="136.083984"/>
      <use xlink:href="#DejaVuSans-61" x="175.292969"/>
      <use xlink:href="#DejaVuSans-6c" x="236.572266"/>
      <use xlink:href="#DejaVuSans-69" x="264.355469"/>
      <use xlink:href="#DejaVuSans-65" x="292.138672"/>
      <use xlink:href="#DejaVuSans-20" x="353.662109"/>
      <use xlink:href="#DejaVuSans-50" x="385.449219"/>
      <use xlink:href="#DejaVuSans-6f" x="442.126953"/>
      <use xlink:href="#DejaVuSans-72" x="503.308594"/>
      <use xlink:href="#DejaVuSans-74" x="544.421875"/>
      <use xlink:href="#DejaVuSans-6d" x="583.630859"/>
      <use xlink:href="#DejaVuSans-61" x="681.042969"/>
      <use xlink:href="#DejaVuSans-6e" x="742.322266"/>
     </g>
    </g>
   </g>
   <g id="text_15">
    <g id="patch_16">
     <path d="M 446.158545 395.039741 
L 511.826202 395.039741 
L 511.826202 378.409428 
L 446.158545 378.409428 
z
" clip-path="url(#p91b1d7f804)" style="fill: #ffffff; opacity: 0.7; stroke: #000000; stroke-linejoin: miter"/>
    </g>
    <g clip-path="url(#p91b1d7f804)">
     <!-- John Turturro -->
     <g transform="translate(450.118545 389.208022)scale(0.09 -0.09)">
      <use xlink:href="#DejaVuSans-4a"/>
      <use xlink:href="#DejaVuSans-6f" x="29.492188"/>
      <use xlink:href="#DejaVuSans-68" x="90.673828"/>
      <use xlink:href="#DejaVuSans-6e" x="154.052734"/>
      <use xlink:href="#DejaVuSans-20" x="217.431641"/>
      <use xlink:href="#DejaVuSans-54" x="249.21875"/>
      <use xlink:href="#DejaVuSans-75" x="295.177734"/>
      <use xlink:href="#DejaVuSans-72" x="358.556641"/>
      <use xlink:href="#DejaVuSans-74" x="399.669922"/>
      <use xlink:href="#DejaVuSans-75" x="438.878906"/>
      <use xlink:href="#DejaVuSans-72" x="502.257812"/>
      <use xlink:href="#DejaVuSans-72" x="541.621094"/>
      <use xlink:href="#DejaVuSans-6f" x="580.484375"/>
     </g>
    </g>
   </g>
   <g id="text_16">
    <!-- Impactful actors for Indie genre -->
    <g transform="translate(189.530625 16.318125)scale(0.12 -0.12)">
     <defs>
      <path id="DejaVuSans-49" d="M 628 4666 
L 1259 4666 
L 1259 0 
L 628 0 
L 628 4666 
z
" transform="scale(0.015625)"/>
      <path id="DejaVuSans-70" d="M 1159 525 
L 1159 -1331 
L 581 -1331 
L 581 3500 
L 1159 3500 
L 1159 2969 
Q 1341 3281 1617 3432 
Q 1894 3584 2278 3584 
Q 2916 3584 3314 3078 
Q 3713 2572 3713 1747 
Q 3713 922 3314 415 
Q 2916 -91 2278 -91 
Q 1894 -91 1617 61 
Q 1341 213 1159 525 
z
M 3116 1747 
Q 3116 2381 2855 2742 
Q 2594 3103 2138 3103 
Q 1681 3103 1420 2742 
Q 1159 2381 1159 1747 
Q 1159 1113 1420 752 
Q 1681 391 2138 391 
Q 2594 391 2855 752 
Q 3116 1113 3116 1747 
z
" transform="scale(0.015625)"/>
     </defs>
     <use xlink:href="#DejaVuSans-49"/>
     <use xlink:href="#DejaVuSans-6d" x="29.492188"/>
     <use xlink:href="#DejaVuSans-70" x="126.904297"/>
     <use xlink:href="#DejaVuSans-61" x="190.380859"/>
     <use xlink:href="#DejaVuSans-63" x="251.660156"/>
     <use xlink:href="#DejaVuSans-74" x="306.640625"/>
     <use xlink:href="#DejaVuSans-66" x="345.849609"/>
     <use xlink:href="#DejaVuSans-75" x="381.054688"/>
     <use xlink:href="#DejaVuSans-6c" x="444.433594"/>
     <use xlink:href="#DejaVuSans-20" x="472.216797"/>
     <use xlink:href="#DejaVuSans-61" x="504.003906"/>
     <use xlink:href="#DejaVuSans-63" x="565.283203"/>
     <use xlink:href="#DejaVuSans-74" x="620.263672"/>
     <use xlink:href="#DejaVuSans-6f" x="659.472656"/>
     <use xlink:href="#DejaVuSans-72" x="720.654297"/>
     <use xlink:href="#DejaVuSans-73" x="761.767578"/>
     <use xlink:href="#DejaVuSans-20" x="813.867188"/>
     <use xlink:href="#DejaVuSans-66" x="845.654297"/>
     <use xlink:href="#DejaVuSans-6f" x="880.859375"/>
     <use xlink:href="#DejaVuSans-72" x="942.041016"/>
     <use xlink:href="#DejaVuSans-20" x="983.154297"/>
     <use xlink:href="#DejaVuSans-49" x="1014.941406"/>
     <use xlink:href="#DejaVuSans-6e" x="1044.433594"/>
     <use xlink:href="#DejaVuSans-64" x="1107.8125"/>
     <use xlink:href="#DejaVuSans-69" x="1171.289062"/>
     <use xlink:href="#DejaVuSans-65" x="1199.072266"/>
     <use xlink:href="#DejaVuSans-20" x="1260.595703"/>
     <use xlink:href="#DejaVuSans-67" x="1292.382812"/>
     <use xlink:href="#DejaVuSans-65" x="1355.859375"/>
     <use xlink:href="#DejaVuSans-6e" x="1417.382812"/>
     <use xlink:href="#DejaVuSans-72" x="1480.761719"/>
     <use xlink:href="#DejaVuSans-65" x="1519.625"/>
    </g>
   </g>
  </g>
 </g>
 <defs>
  <clipPath id="p91b1d7f804">
   <rect x="7.2" y="22.318125" width="554.4" height="554.4"/>
  </clipPath>
 </defs>
</svg>
