<?xml version="1.0" encoding="utf-8" standalone="no"?>
<!DOCTYPE svg PUBLIC "-//W3C//DTD SVG 1.1//EN"
  "http://www.w3.org/Graphics/SVG/1.1/DTD/svg11.dtd">
<svg xmlns:xlink="http://www.w3.org/1999/xlink" width="568.8pt" height="583.918125pt" viewBox="0 0 568.8 583.918125" xmlns="http://www.w3.org/2000/svg" version="1.1">
 <metadata>
  <rdf:RDF xmlns:dc="http://purl.org/dc/elements/1.1/" xmlns:cc="http://creativecommons.org/ns#" xmlns:rdf="http://www.w3.org/1999/02/22-rdf-syntax-ns#">
   <cc:Work>
    <dc:type rdf:resource="http://purl.org/dc/dcmitype/StillImage"/>
    <dc:date>2022-12-23T20:56:58.782747</dc:date>
    <dc:format>image/svg+xml</dc:format>
    <dc:creator>
     <cc:Agent>
      <dc:title>Matplotlib v3.5.3, https://matplotlib.org/</dc:title>
     </cc:Agent>
    </dc:creator>
   </cc:Work>
  </rdf:RDF>
 </metadata>
 <defs>
  <style type="text/css">*{stroke-linejoin: round; stroke-linecap: butt}</style>
 </defs>
 <g id="figure_1">
  <g id="patch_1">
   <path d="M 0 583.918125 
L 568.8 583.918125 
L 568.8 0 
L 0 0 
z
" style="fill: #ffffff"/>
  </g>
  <g id="axes_1">
   <g id="PathCollection_1">
    <path d="M 497.630769 326.904253 
C 504.893655 326.904253 511.86005 324.018678 516.995686 318.883042 
C 522.131322 313.747406 525.016897 306.781011 525.016897 299.518125 
C 525.016897 292.255239 522.131322 285.288844 516.995686 280.153208 
C 511.86005 275.017572 504.893655 272.131997 497.630769 272.131997 
C 490.367883 272.131997 483.401488 275.017572 478.265852 280.153208 
C 473.130217 285.288844 470.244641 292.255239 470.244641 299.518125 
C 470.244641 306.781011 473.130217 313.747406 478.265852 318.883042 
C 483.401488 324.018678 490.367883 326.904253 497.630769 326.904253 
z
" clip-path="url(#pc16dabb382)" style="fill: #c70039; fill-opacity: 0.99; stroke: #c70039; stroke-opacity: 0.99"/>
    <path d="M 478.992348 238.519123 
C 485.942655 238.519123 492.609232 235.757737 497.523842 230.843127 
C 502.438451 225.928518 505.199838 219.261941 505.199838 212.311633 
C 505.199838 205.361326 502.438451 198.694749 497.523842 193.78014 
C 492.609232 188.86553 485.942655 186.104144 478.992348 186.104144 
C 472.04204 186.104144 465.375464 188.86553 460.460854 193.78014 
C 455.546245 198.694749 452.784858 205.361326 452.784858 212.311633 
C 452.784858 219.261941 455.546245 225.928518 460.460854 230.843127 
C 465.375464 235.757737 472.04204 238.519123 478.992348 238.519123 
z
" clip-path="url(#pc16dabb382)" style="fill: #c70039; fill-opacity: 0.99; stroke: #c70039; stroke-opacity: 0.99"/>
    <path d="M 426.29985 165.296153 
C 432.95969 165.296153 439.347657 162.65017 444.056875 157.940952 
C 448.766093 153.231734 451.412076 146.843767 451.412076 140.183927 
C 451.412076 133.524086 448.766093 127.13612 444.056875 122.426901 
C 439.347657 117.717683 432.95969 115.071701 426.29985 115.071701 
C 419.64001 115.071701 413.252043 117.717683 408.542825 122.426901 
C 403.833606 127.13612 401.187624 133.524086 401.187624 140.183927 
C 401.187624 146.843767 403.833606 153.231734 408.542825 157.940952 
C 413.252043 162.65017 419.64001 165.296153 426.29985 165.296153 
z
" clip-path="url(#pc16dabb382)" style="fill: #c70039; fill-opacity: 0.99; stroke: #c70039; stroke-opacity: 0.99"/>
    <path d="M 348.664291 119.399745 
C 354.974317 119.399745 361.02675 116.892746 365.488612 112.430884 
C 369.950474 107.969021 372.457474 101.916589 372.457474 95.606563 
C 372.457474 89.296537 369.950474 83.244104 365.488612 78.782242 
C 361.02675 74.32038 354.974317 71.81338 348.664291 71.81338 
C 342.354265 71.81338 336.301832 74.32038 331.83997 78.782242 
C 327.378108 83.244104 324.871109 89.296537 324.871109 95.606563 
C 324.871109 101.916589 327.378108 107.969021 331.83997 112.430884 
C 336.301832 116.892746 342.354265 119.399745 348.664291 119.399745 
z
" clip-path="url(#pc16dabb382)" style="fill: #c70039; fill-opacity: 0.99; stroke: #c70039; stroke-opacity: 0.99"/>
    <path d="M 259.509549 109.394323 
C 265.637588 109.394323 271.515464 106.959627 275.848642 102.626449 
C 280.18182 98.293271 282.616516 92.415395 282.616516 86.287356 
C 282.616516 80.159316 280.18182 74.281441 275.848642 69.948262 
C 271.515464 65.615084 265.637588 63.180388 259.509549 63.180388 
C 253.381509 63.180388 247.503633 65.615084 243.170455 69.948262 
C 238.837277 74.281441 236.402581 80.159316 236.402581 86.287356 
C 236.402581 92.415395 238.837277 98.293271 243.170455 102.626449 
C 247.503633 106.959627 253.381509 109.394323 259.509549 109.394323 
z
" clip-path="url(#pc16dabb382)" style="fill: #c70039; fill-opacity: 0.99; stroke: #c70039; stroke-opacity: 0.99"/>
    <path d="M 174.251298 136.282917 
C 180.203841 136.282917 185.913385 133.917946 190.122468 129.708863 
C 194.331552 125.499779 196.696523 119.790235 196.696523 113.837692 
C 196.696523 107.885149 194.331552 102.175605 190.122468 97.966522 
C 185.913385 93.757438 180.203841 91.392468 174.251298 91.392468 
C 168.298755 91.392468 162.589211 93.757438 158.380128 97.966522 
C 154.171044 102.175605 151.806074 107.885149 151.806074 113.837692 
C 151.806074 119.790235 154.171044 125.499779 158.380128 129.708863 
C 162.589211 133.917946 168.298755 136.282917 174.251298 136.282917 
z
" clip-path="url(#pc16dabb382)" style="fill: #c70039; fill-opacity: 0.99; stroke: #c70039; stroke-opacity: 0.99"/>
    <path d="M 107.631477 195.43639 
C 113.450706 195.43639 119.032377 193.124386 123.147193 189.00957 
C 127.26201 184.894754 129.574014 179.313082 129.574014 173.493854 
C 129.574014 167.674625 127.26201 162.092953 123.147193 157.978137 
C 119.032377 153.863321 113.450706 151.551317 107.631477 151.551317 
C 101.812248 151.551317 96.230577 153.863321 92.115761 157.978137 
C 88.000944 162.092953 85.68894 167.674625 85.68894 173.493854 
C 85.68894 179.313082 88.000944 184.894754 92.115761 189.00957 
C 96.230577 193.124386 101.812248 195.43639 107.631477 195.43639 
z
" clip-path="url(#pc16dabb382)" style="fill: #c70039; fill-opacity: 0.99; stroke: #c70039; stroke-opacity: 0.99"/>
    <path d="M 71.169231 276.136617 
C 76.790434 276.136617 82.182164 273.903289 86.156955 269.928498 
C 90.131746 265.953707 92.365074 260.561977 92.365074 254.940774 
C 92.365074 249.319571 90.131746 243.92784 86.156955 239.953049 
C 82.182164 235.978258 76.790434 233.744931 71.169231 233.744931 
C 65.548027 233.744931 60.156297 235.978258 56.181506 239.953049 
C 52.206715 243.92784 49.973388 249.319571 49.973388 254.940774 
C 49.973388 260.561977 52.206715 265.953707 56.181506 269.928498 
C 60.156297 273.903289 65.548027 276.136617 71.169231 276.136617 
z
" clip-path="url(#pc16dabb382)" style="fill: #c70039; fill-opacity: 0.99; stroke: #c70039; stroke-opacity: 0.99"/>
    <path d="M 71.169244 364.818636 
C 76.66508 364.818636 81.93656 362.635117 85.822703 358.748974 
C 89.708846 354.862831 91.892365 349.591351 91.892365 344.095514 
C 91.892365 338.599678 89.708846 333.328198 85.822703 329.442055 
C 81.93656 325.555912 76.66508 323.372393 71.169244 323.372393 
C 65.673408 323.372393 60.401927 325.555912 56.515784 329.442055 
C 52.629641 333.328198 50.446122 338.599678 50.446122 344.095514 
C 50.446122 349.591351 52.629641 354.862831 56.515784 358.748974 
C 60.401927 362.635117 65.673408 364.818636 71.169244 364.818636 
z
" clip-path="url(#pc16dabb382)" style="fill: #c70039; fill-opacity: 0.99; stroke: #c70039; stroke-opacity: 0.99"/>
    <path d="M 107.63149 445.904362 
C 113.031543 445.904362 118.211151 443.758898 122.029565 439.940484 
C 125.847979 436.12207 127.993443 430.942462 127.993443 425.542409 
C 127.993443 420.142356 125.847979 414.962748 122.029565 411.144334 
C 118.211151 407.32592 113.031543 405.180456 107.63149 405.180456 
C 102.231437 405.180456 97.051829 407.32592 93.233415 411.144334 
C 89.415 414.962748 87.269537 420.142356 87.269537 425.542409 
C 87.269537 430.942462 89.415 436.12207 93.233415 439.940484 
C 97.051829 443.758898 102.231437 445.904362 107.63149 445.904362 
z
" clip-path="url(#pc16dabb382)" style="fill: #c70039; fill-opacity: 0.99; stroke: #c70039; stroke-opacity: 0.99"/>
    <path d="M 174.25133 505.183857 
C 179.55149 505.183857 184.635283 503.078081 188.383062 499.330302 
C 192.130841 495.582523 194.236616 490.49873 194.236616 485.198571 
C 194.236616 479.898411 192.130841 474.814618 188.383062 471.066839 
C 184.635283 467.31906 179.55149 465.213284 174.25133 465.213284 
C 168.95117 465.213284 163.867378 467.31906 160.119599 471.066839 
C 156.37182 474.814618 154.266044 479.898411 154.266044 485.198571 
C 154.266044 490.49873 156.37182 495.582523 160.119599 499.330302 
C 163.867378 503.078081 168.95117 505.183857 174.25133 505.183857 
z
" clip-path="url(#pc16dabb382)" style="fill: #c70039; fill-opacity: 0.99; stroke: #c70039; stroke-opacity: 0.99"/>
    <path d="M 259.509587 532.653911 
C 264.788459 532.653911 269.851833 530.556593 273.58456 526.823867 
C 277.317286 523.09114 279.414604 518.027766 279.414604 512.748894 
C 279.414604 507.470022 277.317286 502.406648 273.58456 498.673922 
C 269.851833 494.941195 264.788459 492.843877 259.509587 492.843877 
C 254.230715 492.843877 249.167341 494.941195 245.434615 498.673922 
C 241.701888 502.406648 239.60457 507.470022 239.60457 512.748894 
C 239.60457 518.027766 241.701888 523.09114 245.434615 526.823867 
C 249.167341 530.556593 254.230715 532.653911 259.509587 532.653911 
z
" clip-path="url(#pc16dabb382)" style="fill: #c70039; fill-opacity: 0.99; stroke: #c70039; stroke-opacity: 0.99"/>
    <path d="M 348.664323 522.939246 
C 353.838322 522.939246 358.801104 520.883595 362.459674 517.225025 
C 366.118244 513.566455 368.173895 508.603673 368.173895 503.429675 
C 368.173895 498.255676 366.118244 493.292894 362.459674 489.634324 
C 358.801104 485.975754 353.838322 483.920103 348.664323 483.920103 
C 343.490324 483.920103 338.527543 485.975754 334.868973 489.634324 
C 331.210403 493.292894 329.154752 498.255676 329.154752 503.429675 
C 329.154752 508.603673 331.210403 513.566455 334.868973 517.225025 
C 338.527543 520.883595 343.490324 522.939246 348.664323 522.939246 
z
" clip-path="url(#pc16dabb382)" style="fill: #c70039; fill-opacity: 0.99; stroke: #c70039; stroke-opacity: 0.99"/>
    <path d="M 426.299888 478.357205 
C 431.472654 478.357205 436.434252 476.302044 440.09195 472.644346 
C 443.749647 468.986649 445.804809 464.02505 445.804809 458.852285 
C 445.804809 453.67952 443.749647 448.717921 440.09195 445.060224 
C 436.434252 441.402526 431.472654 439.347365 426.299888 439.347365 
C 421.127123 439.347365 416.165524 441.402526 412.507827 445.060224 
C 408.850129 448.717921 406.794968 453.67952 406.794968 458.852285 
C 406.794968 464.02505 408.850129 468.986649 412.507827 472.644346 
C 416.165524 476.302044 421.127123 478.357205 426.299888 478.357205 
z
" clip-path="url(#pc16dabb382)" style="fill: #c70039; fill-opacity: 0.99; stroke: #c70039; stroke-opacity: 0.99"/>
    <path d="M 478.992374 406.089501 
C 484.128009 406.089501 489.053994 404.049092 492.685437 400.417649 
C 496.31688 396.786206 498.35729 391.860221 498.35729 386.724585 
C 498.35729 381.588949 496.31688 376.662964 492.685437 373.031521 
C 489.053994 369.400078 484.128009 367.359668 478.992374 367.359668 
C 473.856738 367.359668 468.930753 369.400078 465.29931 373.031521 
C 461.667867 376.662964 459.627457 381.588949 459.627457 386.724585 
C 459.627457 391.860221 461.667867 396.786206 465.29931 400.417649 
C 468.930753 404.049092 473.856738 406.089501 478.992374 406.089501 
z
" clip-path="url(#pc16dabb382)" style="fill: #c70039; fill-opacity: 0.99; stroke: #c70039; stroke-opacity: 0.99"/>
   </g>
   <g id="text_1">
    <g id="patch_2">
     <path d="M 468.79491 307.833281 
L 526.466629 307.833281 
L 526.466629 291.202969 
L 468.79491 291.202969 
z
" clip-path="url(#pc16dabb382)" style="fill: #ffffff; opacity: 0.7; stroke: #000000; stroke-linejoin: miter"/>
    </g>
    <g clip-path="url(#pc16dabb382)">
     <!-- Trey Parker -->
     <g transform="translate(472.75491 302.001562)scale(0.09 -0.09)">
      <defs>
       <path id="DejaVuSans-54" d="M -19 4666 
L 3928 4666 
L 3928 4134 
L 2272 4134 
L 2272 0 
L 1638 0 
L 1638 4134 
L -19 4134 
L -19 4666 
z
" transform="scale(0.015625)"/>
       <path id="DejaVuSans-72" d="M 2631 2963 
Q 2534 3019 2420 3045 
Q 2306 3072 2169 3072 
Q 1681 3072 1420 2755 
Q 1159 2438 1159 1844 
L 1159 0 
L 581 0 
L 581 3500 
L 1159 3500 
L 1159 2956 
Q 1341 3275 1631 3429 
Q 1922 3584 2338 3584 
Q 2397 3584 2469 3576 
Q 2541 3569 2628 3553 
L 2631 2963 
z
" transform="scale(0.015625)"/>
       <path id="DejaVuSans-65" d="M 3597 1894 
L 3597 1613 
L 953 1613 
Q 991 1019 1311 708 
Q 1631 397 2203 397 
Q 2534 397 2845 478 
Q 3156 559 3463 722 
L 3463 178 
Q 3153 47 2828 -22 
Q 2503 -91 2169 -91 
Q 1331 -91 842 396 
Q 353 884 353 1716 
Q 353 2575 817 3079 
Q 1281 3584 2069 3584 
Q 2775 3584 3186 3129 
Q 3597 2675 3597 1894 
z
M 3022 2063 
Q 3016 2534 2758 2815 
Q 2500 3097 2075 3097 
Q 1594 3097 1305 2825 
Q 1016 2553 972 2059 
L 3022 2063 
z
" transform="scale(0.015625)"/>
       <path id="DejaVuSans-79" d="M 2059 -325 
Q 1816 -950 1584 -1140 
Q 1353 -1331 966 -1331 
L 506 -1331 
L 506 -850 
L 844 -850 
Q 1081 -850 1212 -737 
Q 1344 -625 1503 -206 
L 1606 56 
L 191 3500 
L 800 3500 
L 1894 763 
L 2988 3500 
L 3597 3500 
L 2059 -325 
z
" transform="scale(0.015625)"/>
       <path id="DejaVuSans-20" transform="scale(0.015625)"/>
       <path id="DejaVuSans-50" d="M 1259 4147 
L 1259 2394 
L 2053 2394 
Q 2494 2394 2734 2622 
Q 2975 2850 2975 3272 
Q 2975 3691 2734 3919 
Q 2494 4147 2053 4147 
L 1259 4147 
z
M 628 4666 
L 2053 4666 
Q 2838 4666 3239 4311 
Q 3641 3956 3641 3272 
Q 3641 2581 3239 2228 
Q 2838 1875 2053 1875 
L 1259 1875 
L 1259 0 
L 628 0 
L 628 4666 
z
" transform="scale(0.015625)"/>
       <path id="DejaVuSans-61" d="M 2194 1759 
Q 1497 1759 1228 1600 
Q 959 1441 959 1056 
Q 959 750 1161 570 
Q 1363 391 1709 391 
Q 2188 391 2477 730 
Q 2766 1069 2766 1631 
L 2766 1759 
L 2194 1759 
z
M 3341 1997 
L 3341 0 
L 2766 0 
L 2766 531 
Q 2569 213 2275 61 
Q 1981 -91 1556 -91 
Q 1019 -91 701 211 
Q 384 513 384 1019 
Q 384 1609 779 1909 
Q 1175 2209 1959 2209 
L 2766 2209 
L 2766 2266 
Q 2766 2663 2505 2880 
Q 2244 3097 1772 3097 
Q 1472 3097 1187 3025 
Q 903 2953 641 2809 
L 641 3341 
Q 956 3463 1253 3523 
Q 1550 3584 1831 3584 
Q 2591 3584 2966 3190 
Q 3341 2797 3341 1997 
z
" transform="scale(0.015625)"/>
       <path id="DejaVuSans-6b" d="M 581 4863 
L 1159 4863 
L 1159 1991 
L 2875 3500 
L 3609 3500 
L 1753 1863 
L 3688 0 
L 2938 0 
L 1159 1709 
L 1159 0 
L 581 0 
L 581 4863 
z
" transform="scale(0.015625)"/>
      </defs>
      <use xlink:href="#DejaVuSans-54"/>
      <use xlink:href="#DejaVuSans-72" x="46.333984"/>
      <use xlink:href="#DejaVuSans-65" x="85.197266"/>
      <use xlink:href="#DejaVuSans-79" x="146.720703"/>
      <use xlink:href="#DejaVuSans-20" x="205.900391"/>
      <use xlink:href="#DejaVuSans-50" x="237.6875"/>
      <use xlink:href="#DejaVuSans-61" x="293.490234"/>
      <use xlink:href="#DejaVuSans-72" x="354.769531"/>
      <use xlink:href="#DejaVuSans-6b" x="395.882812"/>
      <use xlink:href="#DejaVuSans-65" x="450.167969"/>
      <use xlink:href="#DejaVuSans-72" x="511.691406"/>
     </g>
    </g>
   </g>
   <g id="text_2">
    <g id="patch_3">
     <path d="M 453.279067 220.62679 
L 504.705629 220.62679 
L 504.705629 203.996477 
L 453.279067 203.996477 
z
" clip-path="url(#pc16dabb382)" style="fill: #ffffff; opacity: 0.7; stroke: #000000; stroke-linejoin: miter"/>
    </g>
    <g clip-path="url(#pc16dabb382)">
     <!-- Mel Blanc -->
     <g transform="translate(457.239067 214.795071)scale(0.09 -0.09)">
      <defs>
       <path id="DejaVuSans-4d" d="M 628 4666 
L 1569 4666 
L 2759 1491 
L 3956 4666 
L 4897 4666 
L 4897 0 
L 4281 0 
L 4281 4097 
L 3078 897 
L 2444 897 
L 1241 4097 
L 1241 0 
L 628 0 
L 628 4666 
z
" transform="scale(0.015625)"/>
       <path id="DejaVuSans-6c" d="M 603 4863 
L 1178 4863 
L 1178 0 
L 603 0 
L 603 4863 
z
" transform="scale(0.015625)"/>
       <path id="DejaVuSans-42" d="M 1259 2228 
L 1259 519 
L 2272 519 
Q 2781 519 3026 730 
Q 3272 941 3272 1375 
Q 3272 1813 3026 2020 
Q 2781 2228 2272 2228 
L 1259 2228 
z
M 1259 4147 
L 1259 2741 
L 2194 2741 
Q 2656 2741 2882 2914 
Q 3109 3088 3109 3444 
Q 3109 3797 2882 3972 
Q 2656 4147 2194 4147 
L 1259 4147 
z
M 628 4666 
L 2241 4666 
Q 2963 4666 3353 4366 
Q 3744 4066 3744 3513 
Q 3744 3084 3544 2831 
Q 3344 2578 2956 2516 
Q 3422 2416 3680 2098 
Q 3938 1781 3938 1306 
Q 3938 681 3513 340 
Q 3088 0 2303 0 
L 628 0 
L 628 4666 
z
" transform="scale(0.015625)"/>
       <path id="DejaVuSans-6e" d="M 3513 2113 
L 3513 0 
L 2938 0 
L 2938 2094 
Q 2938 2591 2744 2837 
Q 2550 3084 2163 3084 
Q 1697 3084 1428 2787 
Q 1159 2491 1159 1978 
L 1159 0 
L 581 0 
L 581 3500 
L 1159 3500 
L 1159 2956 
Q 1366 3272 1645 3428 
Q 1925 3584 2291 3584 
Q 2894 3584 3203 3211 
Q 3513 2838 3513 2113 
z
" transform="scale(0.015625)"/>
       <path id="DejaVuSans-63" d="M 3122 3366 
L 3122 2828 
Q 2878 2963 2633 3030 
Q 2388 3097 2138 3097 
Q 1578 3097 1268 2742 
Q 959 2388 959 1747 
Q 959 1106 1268 751 
Q 1578 397 2138 397 
Q 2388 397 2633 464 
Q 2878 531 3122 666 
L 3122 134 
Q 2881 22 2623 -34 
Q 2366 -91 2075 -91 
Q 1284 -91 818 406 
Q 353 903 353 1747 
Q 353 2603 823 3093 
Q 1294 3584 2113 3584 
Q 2378 3584 2631 3529 
Q 2884 3475 3122 3366 
z
" transform="scale(0.015625)"/>
      </defs>
      <use xlink:href="#DejaVuSans-4d"/>
      <use xlink:href="#DejaVuSans-65" x="86.279297"/>
      <use xlink:href="#DejaVuSans-6c" x="147.802734"/>
      <use xlink:href="#DejaVuSans-20" x="175.585938"/>
      <use xlink:href="#DejaVuSans-42" x="207.373047"/>
      <use xlink:href="#DejaVuSans-6c" x="275.976562"/>
      <use xlink:href="#DejaVuSans-61" x="303.759766"/>
      <use xlink:href="#DejaVuSans-6e" x="365.039062"/>
      <use xlink:href="#DejaVuSans-63" x="428.417969"/>
     </g>
    </g>
   </g>
   <g id="text_3">
    <g id="patch_4">
     <path d="M 388.92735 148.499083 
L 463.67235 148.499083 
L 463.67235 131.86877 
L 388.92735 131.86877 
z
" clip-path="url(#pc16dabb382)" style="fill: #ffffff; opacity: 0.7; stroke: #000000; stroke-linejoin: miter"/>
    </g>
    <g clip-path="url(#pc16dabb382)">
     <!-- Steve Buscemi -->
     <g transform="translate(392.88735 142.667364)scale(0.09 -0.09)">
      <defs>
       <path id="DejaVuSans-53" d="M 3425 4513 
L 3425 3897 
Q 3066 4069 2747 4153 
Q 2428 4238 2131 4238 
Q 1616 4238 1336 4038 
Q 1056 3838 1056 3469 
Q 1056 3159 1242 3001 
Q 1428 2844 1947 2747 
L 2328 2669 
Q 3034 2534 3370 2195 
Q 3706 1856 3706 1288 
Q 3706 609 3251 259 
Q 2797 -91 1919 -91 
Q 1588 -91 1214 -16 
Q 841 59 441 206 
L 441 856 
Q 825 641 1194 531 
Q 1563 422 1919 422 
Q 2459 422 2753 634 
Q 3047 847 3047 1241 
Q 3047 1584 2836 1778 
Q 2625 1972 2144 2069 
L 1759 2144 
Q 1053 2284 737 2584 
Q 422 2884 422 3419 
Q 422 4038 858 4394 
Q 1294 4750 2059 4750 
Q 2388 4750 2728 4690 
Q 3069 4631 3425 4513 
z
" transform="scale(0.015625)"/>
       <path id="DejaVuSans-74" d="M 1172 4494 
L 1172 3500 
L 2356 3500 
L 2356 3053 
L 1172 3053 
L 1172 1153 
Q 1172 725 1289 603 
Q 1406 481 1766 481 
L 2356 481 
L 2356 0 
L 1766 0 
Q 1100 0 847 248 
Q 594 497 594 1153 
L 594 3053 
L 172 3053 
L 172 3500 
L 594 3500 
L 594 4494 
L 1172 4494 
z
" transform="scale(0.015625)"/>
       <path id="DejaVuSans-76" d="M 191 3500 
L 800 3500 
L 1894 563 
L 2988 3500 
L 3597 3500 
L 2284 0 
L 1503 0 
L 191 3500 
z
" transform="scale(0.015625)"/>
       <path id="DejaVuSans-75" d="M 544 1381 
L 544 3500 
L 1119 3500 
L 1119 1403 
Q 1119 906 1312 657 
Q 1506 409 1894 409 
Q 2359 409 2629 706 
Q 2900 1003 2900 1516 
L 2900 3500 
L 3475 3500 
L 3475 0 
L 2900 0 
L 2900 538 
Q 2691 219 2414 64 
Q 2138 -91 1772 -91 
Q 1169 -91 856 284 
Q 544 659 544 1381 
z
M 1991 3584 
L 1991 3584 
z
" transform="scale(0.015625)"/>
       <path id="DejaVuSans-73" d="M 2834 3397 
L 2834 2853 
Q 2591 2978 2328 3040 
Q 2066 3103 1784 3103 
Q 1356 3103 1142 2972 
Q 928 2841 928 2578 
Q 928 2378 1081 2264 
Q 1234 2150 1697 2047 
L 1894 2003 
Q 2506 1872 2764 1633 
Q 3022 1394 3022 966 
Q 3022 478 2636 193 
Q 2250 -91 1575 -91 
Q 1294 -91 989 -36 
Q 684 19 347 128 
L 347 722 
Q 666 556 975 473 
Q 1284 391 1588 391 
Q 1994 391 2212 530 
Q 2431 669 2431 922 
Q 2431 1156 2273 1281 
Q 2116 1406 1581 1522 
L 1381 1569 
Q 847 1681 609 1914 
Q 372 2147 372 2553 
Q 372 3047 722 3315 
Q 1072 3584 1716 3584 
Q 2034 3584 2315 3537 
Q 2597 3491 2834 3397 
z
" transform="scale(0.015625)"/>
       <path id="DejaVuSans-6d" d="M 3328 2828 
Q 3544 3216 3844 3400 
Q 4144 3584 4550 3584 
Q 5097 3584 5394 3201 
Q 5691 2819 5691 2113 
L 5691 0 
L 5113 0 
L 5113 2094 
Q 5113 2597 4934 2840 
Q 4756 3084 4391 3084 
Q 3944 3084 3684 2787 
Q 3425 2491 3425 1978 
L 3425 0 
L 2847 0 
L 2847 2094 
Q 2847 2600 2669 2842 
Q 2491 3084 2119 3084 
Q 1678 3084 1418 2786 
Q 1159 2488 1159 1978 
L 1159 0 
L 581 0 
L 581 3500 
L 1159 3500 
L 1159 2956 
Q 1356 3278 1631 3431 
Q 1906 3584 2284 3584 
Q 2666 3584 2933 3390 
Q 3200 3197 3328 2828 
z
" transform="scale(0.015625)"/>
       <path id="DejaVuSans-69" d="M 603 3500 
L 1178 3500 
L 1178 0 
L 603 0 
L 603 3500 
z
M 603 4863 
L 1178 4863 
L 1178 4134 
L 603 4134 
L 603 4863 
z
" transform="scale(0.015625)"/>
      </defs>
      <use xlink:href="#DejaVuSans-53"/>
      <use xlink:href="#DejaVuSans-74" x="63.476562"/>
      <use xlink:href="#DejaVuSans-65" x="102.685547"/>
      <use xlink:href="#DejaVuSans-76" x="164.208984"/>
      <use xlink:href="#DejaVuSans-65" x="223.388672"/>
      <use xlink:href="#DejaVuSans-20" x="284.912109"/>
      <use xlink:href="#DejaVuSans-42" x="316.699219"/>
      <use xlink:href="#DejaVuSans-75" x="385.302734"/>
      <use xlink:href="#DejaVuSans-73" x="448.681641"/>
      <use xlink:href="#DejaVuSans-63" x="500.78125"/>
      <use xlink:href="#DejaVuSans-65" x="555.761719"/>
      <use xlink:href="#DejaVuSans-6d" x="617.285156"/>
      <use xlink:href="#DejaVuSans-69" x="714.697266"/>
     </g>
    </g>
   </g>
   <g id="text_4">
    <g id="patch_5">
     <path d="M 312.212885 103.921719 
L 385.115697 103.921719 
L 385.115697 87.291406 
L 312.212885 87.291406 
z
" clip-path="url(#pc16dabb382)" style="fill: #ffffff; opacity: 0.7; stroke: #000000; stroke-linejoin: miter"/>
    </g>
    <g clip-path="url(#pc16dabb382)">
     <!-- Jack Nicholson -->
     <g transform="translate(316.172885 98.09)scale(0.09 -0.09)">
      <defs>
       <path id="DejaVuSans-4a" d="M 628 4666 
L 1259 4666 
L 1259 325 
Q 1259 -519 939 -900 
Q 619 -1281 -91 -1281 
L -331 -1281 
L -331 -750 
L -134 -750 
Q 284 -750 456 -515 
Q 628 -281 628 325 
L 628 4666 
z
" transform="scale(0.015625)"/>
       <path id="DejaVuSans-4e" d="M 628 4666 
L 1478 4666 
L 3547 763 
L 3547 4666 
L 4159 4666 
L 4159 0 
L 3309 0 
L 1241 3903 
L 1241 0 
L 628 0 
L 628 4666 
z
" transform="scale(0.015625)"/>
       <path id="DejaVuSans-68" d="M 3513 2113 
L 3513 0 
L 2938 0 
L 2938 2094 
Q 2938 2591 2744 2837 
Q 2550 3084 2163 3084 
Q 1697 3084 1428 2787 
Q 1159 2491 1159 1978 
L 1159 0 
L 581 0 
L 581 4863 
L 1159 4863 
L 1159 2956 
Q 1366 3272 1645 3428 
Q 1925 3584 2291 3584 
Q 2894 3584 3203 3211 
Q 3513 2838 3513 2113 
z
" transform="scale(0.015625)"/>
       <path id="DejaVuSans-6f" d="M 1959 3097 
Q 1497 3097 1228 2736 
Q 959 2375 959 1747 
Q 959 1119 1226 758 
Q 1494 397 1959 397 
Q 2419 397 2687 759 
Q 2956 1122 2956 1747 
Q 2956 2369 2687 2733 
Q 2419 3097 1959 3097 
z
M 1959 3584 
Q 2709 3584 3137 3096 
Q 3566 2609 3566 1747 
Q 3566 888 3137 398 
Q 2709 -91 1959 -91 
Q 1206 -91 779 398 
Q 353 888 353 1747 
Q 353 2609 779 3096 
Q 1206 3584 1959 3584 
z
" transform="scale(0.015625)"/>
      </defs>
      <use xlink:href="#DejaVuSans-4a"/>
      <use xlink:href="#DejaVuSans-61" x="29.492188"/>
      <use xlink:href="#DejaVuSans-63" x="90.771484"/>
      <use xlink:href="#DejaVuSans-6b" x="145.751953"/>
      <use xlink:href="#DejaVuSans-20" x="203.662109"/>
      <use xlink:href="#DejaVuSans-4e" x="235.449219"/>
      <use xlink:href="#DejaVuSans-69" x="310.253906"/>
      <use xlink:href="#DejaVuSans-63" x="338.037109"/>
      <use xlink:href="#DejaVuSans-68" x="393.017578"/>
      <use xlink:href="#DejaVuSans-6f" x="456.396484"/>
      <use xlink:href="#DejaVuSans-6c" x="517.578125"/>
      <use xlink:href="#DejaVuSans-73" x="545.361328"/>
      <use xlink:href="#DejaVuSans-6f" x="597.460938"/>
      <use xlink:href="#DejaVuSans-6e" x="658.642578"/>
     </g>
    </g>
   </g>
   <g id="text_5">
    <g id="patch_6">
     <path d="M 226.813533 94.602512 
L 292.205564 94.602512 
L 292.205564 77.9722 
L 226.813533 77.9722 
z
" clip-path="url(#pc16dabb382)" style="fill: #ffffff; opacity: 0.7; stroke: #000000; stroke-linejoin: miter"/>
    </g>
    <g clip-path="url(#pc16dabb382)">
     <!-- Alec Baldwin -->
     <g transform="translate(230.773533 88.770793)scale(0.09 -0.09)">
      <defs>
       <path id="DejaVuSans-41" d="M 2188 4044 
L 1331 1722 
L 3047 1722 
L 2188 4044 
z
M 1831 4666 
L 2547 4666 
L 4325 0 
L 3669 0 
L 3244 1197 
L 1141 1197 
L 716 0 
L 50 0 
L 1831 4666 
z
" transform="scale(0.015625)"/>
       <path id="DejaVuSans-64" d="M 2906 2969 
L 2906 4863 
L 3481 4863 
L 3481 0 
L 2906 0 
L 2906 525 
Q 2725 213 2448 61 
Q 2172 -91 1784 -91 
Q 1150 -91 751 415 
Q 353 922 353 1747 
Q 353 2572 751 3078 
Q 1150 3584 1784 3584 
Q 2172 3584 2448 3432 
Q 2725 3281 2906 2969 
z
M 947 1747 
Q 947 1113 1208 752 
Q 1469 391 1925 391 
Q 2381 391 2643 752 
Q 2906 1113 2906 1747 
Q 2906 2381 2643 2742 
Q 2381 3103 1925 3103 
Q 1469 3103 1208 2742 
Q 947 2381 947 1747 
z
" transform="scale(0.015625)"/>
       <path id="DejaVuSans-77" d="M 269 3500 
L 844 3500 
L 1563 769 
L 2278 3500 
L 2956 3500 
L 3675 769 
L 4391 3500 
L 4966 3500 
L 4050 0 
L 3372 0 
L 2619 2869 
L 1863 0 
L 1184 0 
L 269 3500 
z
" transform="scale(0.015625)"/>
      </defs>
      <use xlink:href="#DejaVuSans-41"/>
      <use xlink:href="#DejaVuSans-6c" x="68.408203"/>
      <use xlink:href="#DejaVuSans-65" x="96.191406"/>
      <use xlink:href="#DejaVuSans-63" x="157.714844"/>
      <use xlink:href="#DejaVuSans-20" x="212.695312"/>
      <use xlink:href="#DejaVuSans-42" x="244.482422"/>
      <use xlink:href="#DejaVuSans-61" x="313.085938"/>
      <use xlink:href="#DejaVuSans-6c" x="374.365234"/>
      <use xlink:href="#DejaVuSans-64" x="402.148438"/>
      <use xlink:href="#DejaVuSans-77" x="465.625"/>
      <use xlink:href="#DejaVuSans-69" x="547.412109"/>
      <use xlink:href="#DejaVuSans-6e" x="575.195312"/>
     </g>
    </g>
   </g>
   <g id="text_6">
    <g id="patch_7">
     <path d="M 138.367314 122.152849 
L 210.135282 122.152849 
L 210.135282 105.522536 
L 138.367314 105.522536 
z
" clip-path="url(#pc16dabb382)" style="fill: #ffffff; opacity: 0.7; stroke: #000000; stroke-linejoin: miter"/>
    </g>
    <g clip-path="url(#pc16dabb382)">
     <!-- Anne Bancroft -->
     <g transform="translate(142.327314 116.32113)scale(0.09 -0.09)">
      <defs>
       <path id="DejaVuSans-66" d="M 2375 4863 
L 2375 4384 
L 1825 4384 
Q 1516 4384 1395 4259 
Q 1275 4134 1275 3809 
L 1275 3500 
L 2222 3500 
L 2222 3053 
L 1275 3053 
L 1275 0 
L 697 0 
L 697 3053 
L 147 3053 
L 147 3500 
L 697 3500 
L 697 3744 
Q 697 4328 969 4595 
Q 1241 4863 1831 4863 
L 2375 4863 
z
" transform="scale(0.015625)"/>
      </defs>
      <use xlink:href="#DejaVuSans-41"/>
      <use xlink:href="#DejaVuSans-6e" x="68.408203"/>
      <use xlink:href="#DejaVuSans-6e" x="131.787109"/>
      <use xlink:href="#DejaVuSans-65" x="195.166016"/>
      <use xlink:href="#DejaVuSans-20" x="256.689453"/>
      <use xlink:href="#DejaVuSans-42" x="288.476562"/>
      <use xlink:href="#DejaVuSans-61" x="357.080078"/>
      <use xlink:href="#DejaVuSans-6e" x="418.359375"/>
      <use xlink:href="#DejaVuSans-63" x="481.738281"/>
      <use xlink:href="#DejaVuSans-72" x="536.71875"/>
      <use xlink:href="#DejaVuSans-6f" x="575.582031"/>
      <use xlink:href="#DejaVuSans-66" x="636.763672"/>
      <use xlink:href="#DejaVuSans-74" x="670.21875"/>
     </g>
    </g>
   </g>
   <g id="text_7">
    <g id="patch_8">
     <path d="M 73.039836 181.80901 
L 142.223118 181.80901 
L 142.223118 165.178697 
L 73.039836 165.178697 
z
" clip-path="url(#pc16dabb382)" style="fill: #ffffff; opacity: 0.7; stroke: #000000; stroke-linejoin: miter"/>
    </g>
    <g clip-path="url(#pc16dabb382)">
     <!-- Anupam Kher -->
     <g transform="translate(76.999836 175.977291)scale(0.09 -0.09)">
      <defs>
       <path id="DejaVuSans-70" d="M 1159 525 
L 1159 -1331 
L 581 -1331 
L 581 3500 
L 1159 3500 
L 1159 2969 
Q 1341 3281 1617 3432 
Q 1894 3584 2278 3584 
Q 2916 3584 3314 3078 
Q 3713 2572 3713 1747 
Q 3713 922 3314 415 
Q 2916 -91 2278 -91 
Q 1894 -91 1617 61 
Q 1341 213 1159 525 
z
M 3116 1747 
Q 3116 2381 2855 2742 
Q 2594 3103 2138 3103 
Q 1681 3103 1420 2742 
Q 1159 2381 1159 1747 
Q 1159 1113 1420 752 
Q 1681 391 2138 391 
Q 2594 391 2855 752 
Q 3116 1113 3116 1747 
z
" transform="scale(0.015625)"/>
       <path id="DejaVuSans-4b" d="M 628 4666 
L 1259 4666 
L 1259 2694 
L 3353 4666 
L 4166 4666 
L 1850 2491 
L 4331 0 
L 3500 0 
L 1259 2247 
L 1259 0 
L 628 0 
L 628 4666 
z
" transform="scale(0.015625)"/>
      </defs>
      <use xlink:href="#DejaVuSans-41"/>
      <use xlink:href="#DejaVuSans-6e" x="68.408203"/>
      <use xlink:href="#DejaVuSans-75" x="131.787109"/>
      <use xlink:href="#DejaVuSans-70" x="195.166016"/>
      <use xlink:href="#DejaVuSans-61" x="258.642578"/>
      <use xlink:href="#DejaVuSans-6d" x="319.921875"/>
      <use xlink:href="#DejaVuSans-20" x="417.333984"/>
      <use xlink:href="#DejaVuSans-4b" x="449.121094"/>
      <use xlink:href="#DejaVuSans-68" x="514.697266"/>
      <use xlink:href="#DejaVuSans-65" x="578.076172"/>
      <use xlink:href="#DejaVuSans-72" x="639.599609"/>
     </g>
    </g>
   </g>
   <g id="text_8">
    <g id="patch_9">
     <path d="M 34.078684 263.25593 
L 108.259778 263.25593 
L 108.259778 246.625618 
L 34.078684 246.625618 
z
" clip-path="url(#pc16dabb382)" style="fill: #ffffff; opacity: 0.7; stroke: #000000; stroke-linejoin: miter"/>
    </g>
    <g clip-path="url(#pc16dabb382)">
     <!-- Robert De Niro -->
     <g transform="translate(38.038684 257.424211)scale(0.09 -0.09)">
      <defs>
       <path id="DejaVuSans-52" d="M 2841 2188 
Q 3044 2119 3236 1894 
Q 3428 1669 3622 1275 
L 4263 0 
L 3584 0 
L 2988 1197 
Q 2756 1666 2539 1819 
Q 2322 1972 1947 1972 
L 1259 1972 
L 1259 0 
L 628 0 
L 628 4666 
L 2053 4666 
Q 2853 4666 3247 4331 
Q 3641 3997 3641 3322 
Q 3641 2881 3436 2590 
Q 3231 2300 2841 2188 
z
M 1259 4147 
L 1259 2491 
L 2053 2491 
Q 2509 2491 2742 2702 
Q 2975 2913 2975 3322 
Q 2975 3731 2742 3939 
Q 2509 4147 2053 4147 
L 1259 4147 
z
" transform="scale(0.015625)"/>
       <path id="DejaVuSans-62" d="M 3116 1747 
Q 3116 2381 2855 2742 
Q 2594 3103 2138 3103 
Q 1681 3103 1420 2742 
Q 1159 2381 1159 1747 
Q 1159 1113 1420 752 
Q 1681 391 2138 391 
Q 2594 391 2855 752 
Q 3116 1113 3116 1747 
z
M 1159 2969 
Q 1341 3281 1617 3432 
Q 1894 3584 2278 3584 
Q 2916 3584 3314 3078 
Q 3713 2572 3713 1747 
Q 3713 922 3314 415 
Q 2916 -91 2278 -91 
Q 1894 -91 1617 61 
Q 1341 213 1159 525 
L 1159 0 
L 581 0 
L 581 4863 
L 1159 4863 
L 1159 2969 
z
" transform="scale(0.015625)"/>
       <path id="DejaVuSans-44" d="M 1259 4147 
L 1259 519 
L 2022 519 
Q 2988 519 3436 956 
Q 3884 1394 3884 2338 
Q 3884 3275 3436 3711 
Q 2988 4147 2022 4147 
L 1259 4147 
z
M 628 4666 
L 1925 4666 
Q 3281 4666 3915 4102 
Q 4550 3538 4550 2338 
Q 4550 1131 3912 565 
Q 3275 0 1925 0 
L 628 0 
L 628 4666 
z
" transform="scale(0.015625)"/>
      </defs>
      <use xlink:href="#DejaVuSans-52"/>
      <use xlink:href="#DejaVuSans-6f" x="64.982422"/>
      <use xlink:href="#DejaVuSans-62" x="126.164062"/>
      <use xlink:href="#DejaVuSans-65" x="189.640625"/>
      <use xlink:href="#DejaVuSans-72" x="251.164062"/>
      <use xlink:href="#DejaVuSans-74" x="292.277344"/>
      <use xlink:href="#DejaVuSans-20" x="331.486328"/>
      <use xlink:href="#DejaVuSans-44" x="363.273438"/>
      <use xlink:href="#DejaVuSans-65" x="440.275391"/>
      <use xlink:href="#DejaVuSans-20" x="501.798828"/>
      <use xlink:href="#DejaVuSans-4e" x="533.585938"/>
      <use xlink:href="#DejaVuSans-69" x="608.390625"/>
      <use xlink:href="#DejaVuSans-72" x="636.173828"/>
      <use xlink:href="#DejaVuSans-6f" x="675.037109"/>
     </g>
    </g>
   </g>
   <g id="text_9">
    <g id="patch_10">
     <path d="M 35.870962 352.410671 
L 106.467525 352.410671 
L 106.467525 335.780358 
L 35.870962 335.780358 
z
" clip-path="url(#pc16dabb382)" style="fill: #ffffff; opacity: 0.7; stroke: #000000; stroke-linejoin: miter"/>
    </g>
    <g clip-path="url(#pc16dabb382)">
     <!-- Orlando Jones -->
     <g transform="translate(39.830962 346.578952)scale(0.09 -0.09)">
      <defs>
       <path id="DejaVuSans-4f" d="M 2522 4238 
Q 1834 4238 1429 3725 
Q 1025 3213 1025 2328 
Q 1025 1447 1429 934 
Q 1834 422 2522 422 
Q 3209 422 3611 934 
Q 4013 1447 4013 2328 
Q 4013 3213 3611 3725 
Q 3209 4238 2522 4238 
z
M 2522 4750 
Q 3503 4750 4090 4092 
Q 4678 3434 4678 2328 
Q 4678 1225 4090 567 
Q 3503 -91 2522 -91 
Q 1538 -91 948 565 
Q 359 1222 359 2328 
Q 359 3434 948 4092 
Q 1538 4750 2522 4750 
z
" transform="scale(0.015625)"/>
      </defs>
      <use xlink:href="#DejaVuSans-4f"/>
      <use xlink:href="#DejaVuSans-72" x="78.710938"/>
      <use xlink:href="#DejaVuSans-6c" x="119.824219"/>
      <use xlink:href="#DejaVuSans-61" x="147.607422"/>
      <use xlink:href="#DejaVuSans-6e" x="208.886719"/>
      <use xlink:href="#DejaVuSans-64" x="272.265625"/>
      <use xlink:href="#DejaVuSans-6f" x="335.742188"/>
      <use xlink:href="#DejaVuSans-20" x="396.923828"/>
      <use xlink:href="#DejaVuSans-4a" x="428.710938"/>
      <use xlink:href="#DejaVuSans-6f" x="458.203125"/>
      <use xlink:href="#DejaVuSans-6e" x="519.384766"/>
      <use xlink:href="#DejaVuSans-65" x="582.763672"/>
      <use xlink:href="#DejaVuSans-73" x="644.287109"/>
     </g>
    </g>
   </g>
   <g id="text_10">
    <g id="patch_11">
     <path d="M 62.46063 433.857565 
L 152.802349 433.857565 
L 152.802349 417.227253 
L 62.46063 417.227253 
z
" clip-path="url(#pc16dabb382)" style="fill: #ffffff; opacity: 0.7; stroke: #000000; stroke-linejoin: miter"/>
    </g>
    <g clip-path="url(#pc16dabb382)">
     <!-- James Ward Byrkit -->
     <g transform="translate(66.42063 428.025847)scale(0.09 -0.09)">
      <defs>
       <path id="DejaVuSans-57" d="M 213 4666 
L 850 4666 
L 1831 722 
L 2809 4666 
L 3519 4666 
L 4500 722 
L 5478 4666 
L 6119 4666 
L 4947 0 
L 4153 0 
L 3169 4050 
L 2175 0 
L 1381 0 
L 213 4666 
z
" transform="scale(0.015625)"/>
      </defs>
      <use xlink:href="#DejaVuSans-4a"/>
      <use xlink:href="#DejaVuSans-61" x="29.492188"/>
      <use xlink:href="#DejaVuSans-6d" x="90.771484"/>
      <use xlink:href="#DejaVuSans-65" x="188.183594"/>
      <use xlink:href="#DejaVuSans-73" x="249.707031"/>
      <use xlink:href="#DejaVuSans-20" x="301.806641"/>
      <use xlink:href="#DejaVuSans-57" x="333.59375"/>
      <use xlink:href="#DejaVuSans-61" x="426.095703"/>
      <use xlink:href="#DejaVuSans-72" x="487.375"/>
      <use xlink:href="#DejaVuSans-64" x="526.738281"/>
      <use xlink:href="#DejaVuSans-20" x="590.214844"/>
      <use xlink:href="#DejaVuSans-42" x="622.001953"/>
      <use xlink:href="#DejaVuSans-79" x="690.605469"/>
      <use xlink:href="#DejaVuSans-72" x="749.785156"/>
      <use xlink:href="#DejaVuSans-6b" x="790.898438"/>
      <use xlink:href="#DejaVuSans-69" x="848.808594"/>
      <use xlink:href="#DejaVuSans-74" x="876.591797"/>
     </g>
    </g>
   </g>
   <g id="text_11">
    <g id="patch_12">
     <path d="M 149.298127 493.513727 
L 199.204533 493.513727 
L 199.204533 476.883414 
L 149.298127 476.883414 
z
" clip-path="url(#pc16dabb382)" style="fill: #ffffff; opacity: 0.7; stroke: #000000; stroke-linejoin: miter"/>
    </g>
    <g clip-path="url(#pc16dabb382)">
     <!-- Téa Leoni -->
     <g transform="translate(153.258127 487.682008)scale(0.09 -0.09)">
      <defs>
       <path id="DejaVuSans-e9" d="M 3597 1894 
L 3597 1613 
L 953 1613 
Q 991 1019 1311 708 
Q 1631 397 2203 397 
Q 2534 397 2845 478 
Q 3156 559 3463 722 
L 3463 178 
Q 3153 47 2828 -22 
Q 2503 -91 2169 -91 
Q 1331 -91 842 396 
Q 353 884 353 1716 
Q 353 2575 817 3079 
Q 1281 3584 2069 3584 
Q 2775 3584 3186 3129 
Q 3597 2675 3597 1894 
z
M 3022 2063 
Q 3016 2534 2758 2815 
Q 2500 3097 2075 3097 
Q 1594 3097 1305 2825 
Q 1016 2553 972 2059 
L 3022 2063 
z
M 2469 5119 
L 3091 5119 
L 2072 3944 
L 1594 3944 
L 2469 5119 
z
" transform="scale(0.015625)"/>
       <path id="DejaVuSans-4c" d="M 628 4666 
L 1259 4666 
L 1259 531 
L 3531 531 
L 3531 0 
L 628 0 
L 628 4666 
z
" transform="scale(0.015625)"/>
      </defs>
      <use xlink:href="#DejaVuSans-54"/>
      <use xlink:href="#DejaVuSans-e9" x="44.083984"/>
      <use xlink:href="#DejaVuSans-61" x="105.607422"/>
      <use xlink:href="#DejaVuSans-20" x="166.886719"/>
      <use xlink:href="#DejaVuSans-4c" x="198.673828"/>
      <use xlink:href="#DejaVuSans-65" x="252.636719"/>
      <use xlink:href="#DejaVuSans-6f" x="314.160156"/>
      <use xlink:href="#DejaVuSans-6e" x="375.341797"/>
      <use xlink:href="#DejaVuSans-69" x="438.720703"/>
     </g>
    </g>
   </g>
   <g id="text_12">
    <g id="patch_13">
     <path d="M 225.966306 521.06405 
L 293.052868 521.06405 
L 293.052868 504.433738 
L 225.966306 504.433738 
z
" clip-path="url(#pc16dabb382)" style="fill: #ffffff; opacity: 0.7; stroke: #000000; stroke-linejoin: miter"/>
    </g>
    <g clip-path="url(#pc16dabb382)">
     <!-- Ed Begley, Jr. -->
     <g transform="translate(229.926306 515.232332)scale(0.09 -0.09)">
      <defs>
       <path id="DejaVuSans-45" d="M 628 4666 
L 3578 4666 
L 3578 4134 
L 1259 4134 
L 1259 2753 
L 3481 2753 
L 3481 2222 
L 1259 2222 
L 1259 531 
L 3634 531 
L 3634 0 
L 628 0 
L 628 4666 
z
" transform="scale(0.015625)"/>
       <path id="DejaVuSans-67" d="M 2906 1791 
Q 2906 2416 2648 2759 
Q 2391 3103 1925 3103 
Q 1463 3103 1205 2759 
Q 947 2416 947 1791 
Q 947 1169 1205 825 
Q 1463 481 1925 481 
Q 2391 481 2648 825 
Q 2906 1169 2906 1791 
z
M 3481 434 
Q 3481 -459 3084 -895 
Q 2688 -1331 1869 -1331 
Q 1566 -1331 1297 -1286 
Q 1028 -1241 775 -1147 
L 775 -588 
Q 1028 -725 1275 -790 
Q 1522 -856 1778 -856 
Q 2344 -856 2625 -561 
Q 2906 -266 2906 331 
L 2906 616 
Q 2728 306 2450 153 
Q 2172 0 1784 0 
Q 1141 0 747 490 
Q 353 981 353 1791 
Q 353 2603 747 3093 
Q 1141 3584 1784 3584 
Q 2172 3584 2450 3431 
Q 2728 3278 2906 2969 
L 2906 3500 
L 3481 3500 
L 3481 434 
z
" transform="scale(0.015625)"/>
       <path id="DejaVuSans-2c" d="M 750 794 
L 1409 794 
L 1409 256 
L 897 -744 
L 494 -744 
L 750 256 
L 750 794 
z
" transform="scale(0.015625)"/>
       <path id="DejaVuSans-2e" d="M 684 794 
L 1344 794 
L 1344 0 
L 684 0 
L 684 794 
z
" transform="scale(0.015625)"/>
      </defs>
      <use xlink:href="#DejaVuSans-45"/>
      <use xlink:href="#DejaVuSans-64" x="63.183594"/>
      <use xlink:href="#DejaVuSans-20" x="126.660156"/>
      <use xlink:href="#DejaVuSans-42" x="158.447266"/>
      <use xlink:href="#DejaVuSans-65" x="227.050781"/>
      <use xlink:href="#DejaVuSans-67" x="288.574219"/>
      <use xlink:href="#DejaVuSans-6c" x="352.050781"/>
      <use xlink:href="#DejaVuSans-65" x="379.833984"/>
      <use xlink:href="#DejaVuSans-79" x="441.357422"/>
      <use xlink:href="#DejaVuSans-2c" x="500.537109"/>
      <use xlink:href="#DejaVuSans-20" x="532.324219"/>
      <use xlink:href="#DejaVuSans-4a" x="564.111328"/>
      <use xlink:href="#DejaVuSans-72" x="593.603516"/>
      <use xlink:href="#DejaVuSans-2e" x="625.591797"/>
     </g>
    </g>
   </g>
   <g id="text_13">
    <g id="patch_14">
     <path d="M 309.07698 511.744831 
L 388.251667 511.744831 
L 388.251667 495.114518 
L 309.07698 495.114518 
z
" clip-path="url(#pc16dabb382)" style="fill: #ffffff; opacity: 0.7; stroke: #000000; stroke-linejoin: miter"/>
    </g>
    <g clip-path="url(#pc16dabb382)">
     <!-- John Leguizamo -->
     <g transform="translate(313.03698 505.913112)scale(0.09 -0.09)">
      <defs>
       <path id="DejaVuSans-7a" d="M 353 3500 
L 3084 3500 
L 3084 2975 
L 922 459 
L 3084 459 
L 3084 0 
L 275 0 
L 275 525 
L 2438 3041 
L 353 3041 
L 353 3500 
z
" transform="scale(0.015625)"/>
      </defs>
      <use xlink:href="#DejaVuSans-4a"/>
      <use xlink:href="#DejaVuSans-6f" x="29.492188"/>
      <use xlink:href="#DejaVuSans-68" x="90.673828"/>
      <use xlink:href="#DejaVuSans-6e" x="154.052734"/>
      <use xlink:href="#DejaVuSans-20" x="217.431641"/>
      <use xlink:href="#DejaVuSans-4c" x="249.21875"/>
      <use xlink:href="#DejaVuSans-65" x="303.181641"/>
      <use xlink:href="#DejaVuSans-67" x="364.705078"/>
      <use xlink:href="#DejaVuSans-75" x="428.181641"/>
      <use xlink:href="#DejaVuSans-69" x="491.560547"/>
      <use xlink:href="#DejaVuSans-7a" x="519.34375"/>
      <use xlink:href="#DejaVuSans-61" x="571.833984"/>
      <use xlink:href="#DejaVuSans-6d" x="633.113281"/>
      <use xlink:href="#DejaVuSans-6f" x="730.525391"/>
     </g>
    </g>
   </g>
   <g id="text_14">
    <g id="patch_15">
     <path d="M 391.341217 467.167441 
L 461.25856 467.167441 
L 461.25856 450.537129 
L 391.341217 450.537129 
z
" clip-path="url(#pc16dabb382)" style="fill: #ffffff; opacity: 0.7; stroke: #000000; stroke-linejoin: miter"/>
    </g>
    <g clip-path="url(#pc16dabb382)">
     <!-- Danny DeVito -->
     <g transform="translate(395.301217 461.335723)scale(0.09 -0.09)">
      <defs>
       <path id="DejaVuSans-56" d="M 1831 0 
L 50 4666 
L 709 4666 
L 2188 738 
L 3669 4666 
L 4325 4666 
L 2547 0 
L 1831 0 
z
" transform="scale(0.015625)"/>
      </defs>
      <use xlink:href="#DejaVuSans-44"/>
      <use xlink:href="#DejaVuSans-61" x="77.001953"/>
      <use xlink:href="#DejaVuSans-6e" x="138.28125"/>
      <use xlink:href="#DejaVuSans-6e" x="201.660156"/>
      <use xlink:href="#DejaVuSans-79" x="265.039062"/>
      <use xlink:href="#DejaVuSans-20" x="324.21875"/>
      <use xlink:href="#DejaVuSans-44" x="356.005859"/>
      <use xlink:href="#DejaVuSans-65" x="433.007812"/>
      <use xlink:href="#DejaVuSans-56" x="494.53125"/>
      <use xlink:href="#DejaVuSans-69" x="560.689453"/>
      <use xlink:href="#DejaVuSans-74" x="588.472656"/>
      <use xlink:href="#DejaVuSans-6f" x="627.681641"/>
     </g>
    </g>
   </g>
   <g id="text_15">
    <g id="patch_16">
     <path d="M 449.994092 395.039741 
L 507.990655 395.039741 
L 507.990655 378.409428 
L 449.994092 378.409428 
z
" clip-path="url(#pc16dabb382)" style="fill: #ffffff; opacity: 0.7; stroke: #000000; stroke-linejoin: miter"/>
    </g>
    <g clip-path="url(#pc16dabb382)">
     <!-- Maria Bello -->
     <g transform="translate(453.954092 389.208022)scale(0.09 -0.09)">
      <use xlink:href="#DejaVuSans-4d"/>
      <use xlink:href="#DejaVuSans-61" x="86.279297"/>
      <use xlink:href="#DejaVuSans-72" x="147.558594"/>
      <use xlink:href="#DejaVuSans-69" x="188.671875"/>
      <use xlink:href="#DejaVuSans-61" x="216.455078"/>
      <use xlink:href="#DejaVuSans-20" x="277.734375"/>
      <use xlink:href="#DejaVuSans-42" x="309.521484"/>
      <use xlink:href="#DejaVuSans-65" x="378.125"/>
      <use xlink:href="#DejaVuSans-6c" x="439.648438"/>
      <use xlink:href="#DejaVuSans-6c" x="467.431641"/>
      <use xlink:href="#DejaVuSans-6f" x="495.214844"/>
     </g>
    </g>
   </g>
   <g id="text_16">
    <!-- Impactful actors for Indie genre - Importance rank: 3 -->
    <g transform="translate(126.095625 16.318125)scale(0.12 -0.12)">
     <defs>
      <path id="DejaVuSans-49" d="M 628 4666 
L 1259 4666 
L 1259 0 
L 628 0 
L 628 4666 
z
" transform="scale(0.015625)"/>
      <path id="DejaVuSans-2d" d="M 313 2009 
L 1997 2009 
L 1997 1497 
L 313 1497 
L 313 2009 
z
" transform="scale(0.015625)"/>
      <path id="DejaVuSans-3a" d="M 750 794 
L 1409 794 
L 1409 0 
L 750 0 
L 750 794 
z
M 750 3309 
L 1409 3309 
L 1409 2516 
L 750 2516 
L 750 3309 
z
" transform="scale(0.015625)"/>
      <path id="DejaVuSans-33" d="M 2597 2516 
Q 3050 2419 3304 2112 
Q 3559 1806 3559 1356 
Q 3559 666 3084 287 
Q 2609 -91 1734 -91 
Q 1441 -91 1130 -33 
Q 819 25 488 141 
L 488 750 
Q 750 597 1062 519 
Q 1375 441 1716 441 
Q 2309 441 2620 675 
Q 2931 909 2931 1356 
Q 2931 1769 2642 2001 
Q 2353 2234 1838 2234 
L 1294 2234 
L 1294 2753 
L 1863 2753 
Q 2328 2753 2575 2939 
Q 2822 3125 2822 3475 
Q 2822 3834 2567 4026 
Q 2313 4219 1838 4219 
Q 1578 4219 1281 4162 
Q 984 4106 628 3988 
L 628 4550 
Q 988 4650 1302 4700 
Q 1616 4750 1894 4750 
Q 2613 4750 3031 4423 
Q 3450 4097 3450 3541 
Q 3450 3153 3228 2886 
Q 3006 2619 2597 2516 
z
" transform="scale(0.015625)"/>
     </defs>
     <use xlink:href="#DejaVuSans-49"/>
     <use xlink:href="#DejaVuSans-6d" x="29.492188"/>
     <use xlink:href="#DejaVuSans-70" x="126.904297"/>
     <use xlink:href="#DejaVuSans-61" x="190.380859"/>
     <use xlink:href="#DejaVuSans-63" x="251.660156"/>
     <use xlink:href="#DejaVuSans-74" x="306.640625"/>
     <use xlink:href="#DejaVuSans-66" x="345.849609"/>
     <use xlink:href="#DejaVuSans-75" x="381.054688"/>
     <use xlink:href="#DejaVuSans-6c" x="444.433594"/>
     <use xlink:href="#DejaVuSans-20" x="472.216797"/>
     <use xlink:href="#DejaVuSans-61" x="504.003906"/>
     <use xlink:href="#DejaVuSans-63" x="565.283203"/>
     <use xlink:href="#DejaVuSans-74" x="620.263672"/>
     <use xlink:href="#DejaVuSans-6f" x="659.472656"/>
     <use xlink:href="#DejaVuSans-72" x="720.654297"/>
     <use xlink:href="#DejaVuSans-73" x="761.767578"/>
     <use xlink:href="#DejaVuSans-20" x="813.867188"/>
     <use xlink:href="#DejaVuSans-66" x="845.654297"/>
     <use xlink:href="#DejaVuSans-6f" x="880.859375"/>
     <use xlink:href="#DejaVuSans-72" x="942.041016"/>
     <use xlink:href="#DejaVuSans-20" x="983.154297"/>
     <use xlink:href="#DejaVuSans-49" x="1014.941406"/>
     <use xlink:href="#DejaVuSans-6e" x="1044.433594"/>
     <use xlink:href="#DejaVuSans-64" x="1107.8125"/>
     <use xlink:href="#DejaVuSans-69" x="1171.289062"/>
     <use xlink:href="#DejaVuSans-65" x="1199.072266"/>
     <use xlink:href="#DejaVuSans-20" x="1260.595703"/>
     <use xlink:href="#DejaVuSans-67" x="1292.382812"/>
     <use xlink:href="#DejaVuSans-65" x="1355.859375"/>
     <use xlink:href="#DejaVuSans-6e" x="1417.382812"/>
     <use xlink:href="#DejaVuSans-72" x="1480.761719"/>
     <use xlink:href="#DejaVuSans-65" x="1519.625"/>
     <use xlink:href="#DejaVuSans-20" x="1581.148438"/>
     <use xlink:href="#DejaVuSans-2d" x="1612.935547"/>
     <use xlink:href="#DejaVuSans-20" x="1649.019531"/>
     <use xlink:href="#DejaVuSans-49" x="1680.806641"/>
     <use xlink:href="#DejaVuSans-6d" x="1710.298828"/>
     <use xlink:href="#DejaVuSans-70" x="1807.710938"/>
     <use xlink:href="#DejaVuSans-6f" x="1871.1875"/>
     <use xlink:href="#DejaVuSans-72" x="1932.369141"/>
     <use xlink:href="#DejaVuSans-74" x="1973.482422"/>
     <use xlink:href="#DejaVuSans-61" x="2012.691406"/>
     <use xlink:href="#DejaVuSans-6e" x="2073.970703"/>
     <use xlink:href="#DejaVuSans-63" x="2137.349609"/>
     <use xlink:href="#DejaVuSans-65" x="2192.330078"/>
     <use xlink:href="#DejaVuSans-20" x="2253.853516"/>
     <use xlink:href="#DejaVuSans-72" x="2285.640625"/>
     <use xlink:href="#DejaVuSans-61" x="2326.753906"/>
     <use xlink:href="#DejaVuSans-6e" x="2388.033203"/>
     <use xlink:href="#DejaVuSans-6b" x="2451.412109"/>
     <use xlink:href="#DejaVuSans-3a" x="2509.322266"/>
     <use xlink:href="#DejaVuSans-20" x="2543.013672"/>
     <use xlink:href="#DejaVuSans-33" x="2574.800781"/>
    </g>
   </g>
  </g>
 </g>
 <defs>
  <clipPath id="pc16dabb382">
   <rect x="7.2" y="22.318125" width="554.4" height="554.4"/>
  </clipPath>
 </defs>
</svg>
