<?xml version="1.0" encoding="utf-8" standalone="no"?>
<!DOCTYPE svg PUBLIC "-//W3C//DTD SVG 1.1//EN"
  "http://www.w3.org/Graphics/SVG/1.1/DTD/svg11.dtd">
<svg xmlns:xlink="http://www.w3.org/1999/xlink" width="568.8pt" height="583.918125pt" viewBox="0 0 568.8 583.918125" xmlns="http://www.w3.org/2000/svg" version="1.1">
 <metadata>
  <rdf:RDF xmlns:dc="http://purl.org/dc/elements/1.1/" xmlns:cc="http://creativecommons.org/ns#" xmlns:rdf="http://www.w3.org/1999/02/22-rdf-syntax-ns#">
   <cc:Work>
    <dc:type rdf:resource="http://purl.org/dc/dcmitype/StillImage"/>
    <dc:date>2022-12-23T20:56:37.487717</dc:date>
    <dc:format>image/svg+xml</dc:format>
    <dc:creator>
     <cc:Agent>
      <dc:title>Matplotlib v3.5.3, https://matplotlib.org/</dc:title>
     </cc:Agent>
    </dc:creator>
   </cc:Work>
  </rdf:RDF>
 </metadata>
 <defs>
  <style type="text/css">*{stroke-linejoin: round; stroke-linecap: butt}</style>
 </defs>
 <g id="figure_1">
  <g id="patch_1">
   <path d="M 0 583.918125 
L 568.8 583.918125 
L 568.8 0 
L 0 0 
z
" style="fill: #ffffff"/>
  </g>
  <g id="axes_1">
   <g id="LineCollection_1">
    <path d="M 426.29985 140.183927 
L 426.299888 458.852285 
" clip-path="url(#p4373d7f775)" style="fill: none; stroke: #000000; stroke-opacity: 0.3; stroke-width: 5"/>
   </g>
   <g id="PathCollection_1">
    <path d="M 497.630769 326.904253 
C 504.893655 326.904253 511.86005 324.018678 516.995686 318.883042 
C 522.131322 313.747406 525.016897 306.781011 525.016897 299.518125 
C 525.016897 292.255239 522.131322 285.288844 516.995686 280.153208 
C 511.86005 275.017572 504.893655 272.131997 497.630769 272.131997 
C 490.367883 272.131997 483.401488 275.017572 478.265852 280.153208 
C 473.130217 285.288844 470.244641 292.255239 470.244641 299.518125 
C 470.244641 306.781011 473.130217 313.747406 478.265852 318.883042 
C 483.401488 324.018678 490.367883 326.904253 497.630769 326.904253 
z
" clip-path="url(#p4373d7f775)" style="fill: #c70039; fill-opacity: 0.99; stroke: #c70039; stroke-opacity: 0.99"/>
    <path d="M 478.992348 238.179828 
C 485.852673 238.179828 492.432941 235.454192 497.283924 230.603209 
C 502.134906 225.752227 504.860542 219.171959 504.860542 212.311633 
C 504.860542 205.451308 502.134906 198.87104 497.283924 194.020058 
C 492.432941 189.169075 485.852673 186.443439 478.992348 186.443439 
C 472.132022 186.443439 465.551755 189.169075 460.700772 194.020058 
C 455.84979 198.87104 453.124153 205.451308 453.124153 212.311633 
C 453.124153 219.171959 455.84979 225.752227 460.700772 230.603209 
C 465.551755 235.454192 472.132022 238.179828 478.992348 238.179828 
z
" clip-path="url(#p4373d7f775)" style="fill: #c70039; fill-opacity: 0.99; stroke: #c70039; stroke-opacity: 0.99"/>
    <path d="M 426.29985 165.821142 
C 433.098919 165.821142 439.620431 163.119844 444.428099 158.312176 
C 449.235767 153.504508 451.937066 146.982996 451.937066 140.183927 
C 451.937066 133.384858 449.235767 126.863345 444.428099 122.055677 
C 439.620431 117.24801 433.098919 114.546711 426.29985 114.546711 
C 419.500781 114.546711 412.979269 117.24801 408.171601 122.055677 
C 403.363933 126.863345 400.662634 133.384858 400.662634 140.183927 
C 400.662634 146.982996 403.363933 153.504508 408.171601 158.312176 
C 412.979269 163.119844 419.500781 165.821142 426.29985 165.821142 
z
" clip-path="url(#p4373d7f775)" style="fill: #c70039; fill-opacity: 0.99; stroke: #c70039; stroke-opacity: 0.99"/>
    <path d="M 348.664291 120.920527 
C 355.377633 120.920527 361.816918 118.253288 366.563967 113.506239 
C 371.311017 108.759189 373.978256 102.319905 373.978256 95.606563 
C 373.978256 88.893221 371.311017 82.453936 366.563967 77.706887 
C 361.816918 72.959837 355.377633 70.292598 348.664291 70.292598 
C 341.950949 70.292598 335.511665 72.959837 330.764615 77.706887 
C 326.017566 82.453936 323.350327 88.893221 323.350327 95.606563 
C 323.350327 102.319905 326.017566 108.759189 330.764615 113.506239 
C 335.511665 118.253288 341.950949 120.920527 348.664291 120.920527 
z
" clip-path="url(#p4373d7f775)" style="fill: #c70039; fill-opacity: 0.99; stroke: #c70039; stroke-opacity: 0.99"/>
    <path d="M 259.509549 110.294372 
C 265.876284 110.294372 271.983111 107.764841 276.485072 103.26288 
C 280.987034 98.760918 283.516565 92.654091 283.516565 86.287356 
C 283.516565 79.920621 280.987034 73.813793 276.485072 69.311832 
C 271.983111 64.80987 265.876284 62.28034 259.509549 62.28034 
C 253.142814 62.28034 247.035986 64.80987 242.534025 69.311832 
C 238.032063 73.813793 235.502533 79.920621 235.502533 86.287356 
C 235.502533 92.654091 238.032063 98.760918 242.534025 103.26288 
C 247.035986 107.764841 253.142814 110.294372 259.509549 110.294372 
z
" clip-path="url(#p4373d7f775)" style="fill: #c70039; fill-opacity: 0.99; stroke: #c70039; stroke-opacity: 0.99"/>
    <path d="M 174.251298 137.266735 
C 180.464753 137.266735 186.424557 134.798103 190.818133 130.404527 
C 195.211709 126.010951 197.680341 120.051147 197.680341 113.837692 
C 197.680341 107.624238 195.211709 101.664433 190.818133 97.270857 
C 186.424557 92.877281 180.464753 90.40865 174.251298 90.40865 
C 168.037843 90.40865 162.078039 92.877281 157.684463 97.270857 
C 153.290887 101.664433 150.822255 107.624238 150.822255 113.837692 
C 150.822255 120.051147 153.290887 126.010951 157.684463 130.404527 
C 162.078039 134.798103 168.037843 137.266735 174.251298 137.266735 
z
" clip-path="url(#p4373d7f775)" style="fill: #c70039; fill-opacity: 0.99; stroke: #c70039; stroke-opacity: 0.99"/>
    <path d="M 107.631477 195.100776 
C 113.3617 195.100776 118.857999 192.824134 122.909878 188.772255 
C 126.961757 184.720375 129.238399 179.224076 129.238399 173.493854 
C 129.238399 167.763631 126.961757 162.267332 122.909878 158.215453 
C 118.857999 154.163573 113.3617 151.886932 107.631477 151.886932 
C 101.901254 151.886932 96.404955 154.163573 92.353076 158.215453 
C 88.301197 162.267332 86.024555 167.763631 86.024555 173.493854 
C 86.024555 179.224076 88.301197 184.720375 92.353076 188.772255 
C 96.404955 192.824134 101.901254 195.100776 107.631477 195.100776 
z
" clip-path="url(#p4373d7f775)" style="fill: #c70039; fill-opacity: 0.99; stroke: #c70039; stroke-opacity: 0.99"/>
    <path d="M 71.169231 275.880736 
C 76.722574 275.880736 82.049214 273.67437 85.97602 269.747563 
C 89.902826 265.820757 92.109193 260.494117 92.109193 254.940774 
C 92.109193 249.387431 89.902826 244.060791 85.97602 240.133985 
C 82.049214 236.207178 76.722574 234.000812 71.169231 234.000812 
C 65.615888 234.000812 60.289248 236.207178 56.362441 240.133985 
C 52.435635 244.060791 50.229269 249.387431 50.229269 254.940774 
C 50.229269 260.494117 52.435635 265.820757 56.362441 269.747563 
C 60.289248 273.67437 65.615888 275.880736 71.169231 275.880736 
z
" clip-path="url(#p4373d7f775)" style="fill: #c70039; fill-opacity: 0.99; stroke: #c70039; stroke-opacity: 0.99"/>
    <path d="M 71.169244 364.753034 
C 76.647682 364.753034 81.902475 362.576427 85.776316 358.702586 
C 89.650156 354.828746 91.826763 349.573953 91.826763 344.095514 
C 91.826763 338.617076 89.650156 333.362283 85.776316 329.488442 
C 81.902475 325.614602 76.647682 323.437995 71.169244 323.437995 
C 65.690805 323.437995 60.436012 325.614602 56.562172 329.488442 
C 52.688331 333.362283 50.511724 338.617076 50.511724 344.095514 
C 50.511724 349.573953 52.688331 354.828746 56.562172 358.702586 
C 60.436012 362.576427 65.690805 364.753034 71.169244 364.753034 
z
" clip-path="url(#p4373d7f775)" style="fill: #c70039; fill-opacity: 0.99; stroke: #c70039; stroke-opacity: 0.99"/>
    <path d="M 107.63149 445.818761 
C 113.008841 445.818761 118.166674 443.682317 121.969036 439.879955 
C 125.771397 436.077593 127.907842 430.91976 127.907842 425.542409 
C 127.907842 420.165058 125.771397 415.007225 121.969036 411.204863 
C 118.166674 407.402502 113.008841 405.266057 107.63149 405.266057 
C 102.254138 405.266057 97.096306 407.402502 93.293944 411.204863 
C 89.491582 415.007225 87.355138 420.165058 87.355138 425.542409 
C 87.355138 430.91976 89.491582 436.077593 93.293944 439.879955 
C 97.096306 443.682317 102.254138 445.818761 107.63149 445.818761 
z
" clip-path="url(#p4373d7f775)" style="fill: #c70039; fill-opacity: 0.99; stroke: #c70039; stroke-opacity: 0.99"/>
    <path d="M 174.25133 504.996483 
C 179.501798 504.996483 184.537927 502.91045 188.250568 499.197809 
C 191.96321 495.485167 194.049242 490.449038 194.049242 485.198571 
C 194.049242 479.948103 191.96321 474.911974 188.250568 471.199332 
C 184.537927 467.486691 179.501798 465.400658 174.25133 465.400658 
C 169.000863 465.400658 163.964734 467.486691 160.252092 471.199332 
C 156.539451 474.911974 154.453418 479.948103 154.453418 485.198571 
C 154.453418 490.449038 156.539451 495.485167 160.252092 499.197809 
C 163.964734 502.91045 169.000863 504.996483 174.25133 504.996483 
z
" clip-path="url(#p4373d7f775)" style="fill: #c70039; fill-opacity: 0.99; stroke: #c70039; stroke-opacity: 0.99"/>
    <path d="M 259.509587 532.503606 
C 264.748598 532.503606 269.773738 530.422125 273.478278 526.717585 
C 277.182818 523.013045 279.264299 517.987905 279.264299 512.748894 
C 279.264299 507.509883 277.182818 502.484744 273.478278 498.780204 
C 269.773738 495.075664 264.748598 492.994183 259.509587 492.994183 
C 254.270576 492.994183 249.245437 495.075664 245.540897 498.780204 
C 241.836356 502.484744 239.754875 507.509883 239.754875 512.748894 
C 239.754875 517.987905 241.836356 523.013045 245.540897 526.717585 
C 249.245437 530.422125 254.270576 532.503606 259.509587 532.503606 
z
" clip-path="url(#p4373d7f775)" style="fill: #c70039; fill-opacity: 0.99; stroke: #c70039; stroke-opacity: 0.99"/>
    <path d="M 348.664323 522.917732 
C 353.832617 522.917732 358.789926 520.864347 362.444461 517.209812 
C 366.098996 513.555277 368.152381 508.597968 368.152381 503.429675 
C 368.152381 498.261381 366.098996 493.304072 362.444461 489.649537 
C 358.789926 485.995002 353.832617 483.941617 348.664323 483.941617 
C 343.49603 483.941617 338.538721 485.995002 334.884186 489.649537 
C 331.229651 493.304072 329.176266 498.261381 329.176266 503.429675 
C 329.176266 508.597968 331.229651 513.555277 334.884186 517.209812 
C 338.538721 520.864347 343.49603 522.917732 348.664323 522.917732 
z
" clip-path="url(#p4373d7f775)" style="fill: #c70039; fill-opacity: 0.99; stroke: #c70039; stroke-opacity: 0.99"/>
    <path d="M 426.299888 478.331069 
C 431.465722 478.331069 436.420672 476.278661 440.073469 472.625865 
C 443.726265 468.973069 445.778672 464.018119 445.778672 458.852285 
C 445.778672 453.686451 443.726265 448.731501 440.073469 445.078705 
C 436.420672 441.425909 431.465722 439.373501 426.299888 439.373501 
C 421.134055 439.373501 416.179104 441.425909 412.526308 445.078705 
C 408.873512 448.731501 406.821104 453.686451 406.821104 458.852285 
C 406.821104 464.018119 408.873512 468.973069 412.526308 472.625865 
C 416.179104 476.278661 421.134055 478.331069 426.299888 478.331069 
z
" clip-path="url(#p4373d7f775)" style="fill: #c70039; fill-opacity: 0.99; stroke: #c70039; stroke-opacity: 0.99"/>
    <path d="M 478.992374 406.089501 
C 484.128009 406.089501 489.053994 404.049092 492.685437 400.417649 
C 496.31688 396.786206 498.35729 391.860221 498.35729 386.724585 
C 498.35729 381.588949 496.31688 376.662964 492.685437 373.031521 
C 489.053994 369.400078 484.128009 367.359668 478.992374 367.359668 
C 473.856738 367.359668 468.930753 369.400078 465.29931 373.031521 
C 461.667867 376.662964 459.627457 381.588949 459.627457 386.724585 
C 459.627457 391.860221 461.667867 396.786206 465.29931 400.417649 
C 468.930753 404.049092 473.856738 406.089501 478.992374 406.089501 
z
" clip-path="url(#p4373d7f775)" style="fill: #c70039; fill-opacity: 0.99; stroke: #c70039; stroke-opacity: 0.99"/>
   </g>
   <g id="text_1">
    <g id="patch_2">
     <path d="M 471.917488 307.833281 
L 523.34405 307.833281 
L 523.34405 291.202969 
L 471.917488 291.202969 
z
" clip-path="url(#p4373d7f775)" style="fill: #ffffff; opacity: 0.7; stroke: #000000; stroke-linejoin: miter"/>
    </g>
    <g clip-path="url(#p4373d7f775)">
     <!-- Mel Blanc -->
     <g transform="translate(475.877488 302.001562)scale(0.09 -0.09)">
      <defs>
       <path id="DejaVuSans-4d" d="M 628 4666 
L 1569 4666 
L 2759 1491 
L 3956 4666 
L 4897 4666 
L 4897 0 
L 4281 0 
L 4281 4097 
L 3078 897 
L 2444 897 
L 1241 4097 
L 1241 0 
L 628 0 
L 628 4666 
z
" transform="scale(0.015625)"/>
       <path id="DejaVuSans-65" d="M 3597 1894 
L 3597 1613 
L 953 1613 
Q 991 1019 1311 708 
Q 1631 397 2203 397 
Q 2534 397 2845 478 
Q 3156 559 3463 722 
L 3463 178 
Q 3153 47 2828 -22 
Q 2503 -91 2169 -91 
Q 1331 -91 842 396 
Q 353 884 353 1716 
Q 353 2575 817 3079 
Q 1281 3584 2069 3584 
Q 2775 3584 3186 3129 
Q 3597 2675 3597 1894 
z
M 3022 2063 
Q 3016 2534 2758 2815 
Q 2500 3097 2075 3097 
Q 1594 3097 1305 2825 
Q 1016 2553 972 2059 
L 3022 2063 
z
" transform="scale(0.015625)"/>
       <path id="DejaVuSans-6c" d="M 603 4863 
L 1178 4863 
L 1178 0 
L 603 0 
L 603 4863 
z
" transform="scale(0.015625)"/>
       <path id="DejaVuSans-20" transform="scale(0.015625)"/>
       <path id="DejaVuSans-42" d="M 1259 2228 
L 1259 519 
L 2272 519 
Q 2781 519 3026 730 
Q 3272 941 3272 1375 
Q 3272 1813 3026 2020 
Q 2781 2228 2272 2228 
L 1259 2228 
z
M 1259 4147 
L 1259 2741 
L 2194 2741 
Q 2656 2741 2882 2914 
Q 3109 3088 3109 3444 
Q 3109 3797 2882 3972 
Q 2656 4147 2194 4147 
L 1259 4147 
z
M 628 4666 
L 2241 4666 
Q 2963 4666 3353 4366 
Q 3744 4066 3744 3513 
Q 3744 3084 3544 2831 
Q 3344 2578 2956 2516 
Q 3422 2416 3680 2098 
Q 3938 1781 3938 1306 
Q 3938 681 3513 340 
Q 3088 0 2303 0 
L 628 0 
L 628 4666 
z
" transform="scale(0.015625)"/>
       <path id="DejaVuSans-61" d="M 2194 1759 
Q 1497 1759 1228 1600 
Q 959 1441 959 1056 
Q 959 750 1161 570 
Q 1363 391 1709 391 
Q 2188 391 2477 730 
Q 2766 1069 2766 1631 
L 2766 1759 
L 2194 1759 
z
M 3341 1997 
L 3341 0 
L 2766 0 
L 2766 531 
Q 2569 213 2275 61 
Q 1981 -91 1556 -91 
Q 1019 -91 701 211 
Q 384 513 384 1019 
Q 384 1609 779 1909 
Q 1175 2209 1959 2209 
L 2766 2209 
L 2766 2266 
Q 2766 2663 2505 2880 
Q 2244 3097 1772 3097 
Q 1472 3097 1187 3025 
Q 903 2953 641 2809 
L 641 3341 
Q 956 3463 1253 3523 
Q 1550 3584 1831 3584 
Q 2591 3584 2966 3190 
Q 3341 2797 3341 1997 
z
" transform="scale(0.015625)"/>
       <path id="DejaVuSans-6e" d="M 3513 2113 
L 3513 0 
L 2938 0 
L 2938 2094 
Q 2938 2591 2744 2837 
Q 2550 3084 2163 3084 
Q 1697 3084 1428 2787 
Q 1159 2491 1159 1978 
L 1159 0 
L 581 0 
L 581 3500 
L 1159 3500 
L 1159 2956 
Q 1366 3272 1645 3428 
Q 1925 3584 2291 3584 
Q 2894 3584 3203 3211 
Q 3513 2838 3513 2113 
z
" transform="scale(0.015625)"/>
       <path id="DejaVuSans-63" d="M 3122 3366 
L 3122 2828 
Q 2878 2963 2633 3030 
Q 2388 3097 2138 3097 
Q 1578 3097 1268 2742 
Q 959 2388 959 1747 
Q 959 1106 1268 751 
Q 1578 397 2138 397 
Q 2388 397 2633 464 
Q 2878 531 3122 666 
L 3122 134 
Q 2881 22 2623 -34 
Q 2366 -91 2075 -91 
Q 1284 -91 818 406 
Q 353 903 353 1747 
Q 353 2603 823 3093 
Q 1294 3584 2113 3584 
Q 2378 3584 2631 3529 
Q 2884 3475 3122 3366 
z
" transform="scale(0.015625)"/>
      </defs>
      <use xlink:href="#DejaVuSans-4d"/>
      <use xlink:href="#DejaVuSans-65" x="86.279297"/>
      <use xlink:href="#DejaVuSans-6c" x="147.802734"/>
      <use xlink:href="#DejaVuSans-20" x="175.585938"/>
      <use xlink:href="#DejaVuSans-42" x="207.373047"/>
      <use xlink:href="#DejaVuSans-6c" x="275.976562"/>
      <use xlink:href="#DejaVuSans-61" x="303.759766"/>
      <use xlink:href="#DejaVuSans-6e" x="365.039062"/>
      <use xlink:href="#DejaVuSans-63" x="428.417969"/>
     </g>
    </g>
   </g>
   <g id="text_2">
    <g id="patch_3">
     <path d="M 445.793598 220.62679 
L 512.191098 220.62679 
L 512.191098 203.996477 
L 445.793598 203.996477 
z
" clip-path="url(#p4373d7f775)" style="fill: #ffffff; opacity: 0.7; stroke: #000000; stroke-linejoin: miter"/>
    </g>
    <g clip-path="url(#p4373d7f775)">
     <!-- Carla Gugino -->
     <g transform="translate(449.753598 214.795071)scale(0.09 -0.09)">
      <defs>
       <path id="DejaVuSans-43" d="M 4122 4306 
L 4122 3641 
Q 3803 3938 3442 4084 
Q 3081 4231 2675 4231 
Q 1875 4231 1450 3742 
Q 1025 3253 1025 2328 
Q 1025 1406 1450 917 
Q 1875 428 2675 428 
Q 3081 428 3442 575 
Q 3803 722 4122 1019 
L 4122 359 
Q 3791 134 3420 21 
Q 3050 -91 2638 -91 
Q 1578 -91 968 557 
Q 359 1206 359 2328 
Q 359 3453 968 4101 
Q 1578 4750 2638 4750 
Q 3056 4750 3426 4639 
Q 3797 4528 4122 4306 
z
" transform="scale(0.015625)"/>
       <path id="DejaVuSans-72" d="M 2631 2963 
Q 2534 3019 2420 3045 
Q 2306 3072 2169 3072 
Q 1681 3072 1420 2755 
Q 1159 2438 1159 1844 
L 1159 0 
L 581 0 
L 581 3500 
L 1159 3500 
L 1159 2956 
Q 1341 3275 1631 3429 
Q 1922 3584 2338 3584 
Q 2397 3584 2469 3576 
Q 2541 3569 2628 3553 
L 2631 2963 
z
" transform="scale(0.015625)"/>
       <path id="DejaVuSans-47" d="M 3809 666 
L 3809 1919 
L 2778 1919 
L 2778 2438 
L 4434 2438 
L 4434 434 
Q 4069 175 3628 42 
Q 3188 -91 2688 -91 
Q 1594 -91 976 548 
Q 359 1188 359 2328 
Q 359 3472 976 4111 
Q 1594 4750 2688 4750 
Q 3144 4750 3555 4637 
Q 3966 4525 4313 4306 
L 4313 3634 
Q 3963 3931 3569 4081 
Q 3175 4231 2741 4231 
Q 1884 4231 1454 3753 
Q 1025 3275 1025 2328 
Q 1025 1384 1454 906 
Q 1884 428 2741 428 
Q 3075 428 3337 486 
Q 3600 544 3809 666 
z
" transform="scale(0.015625)"/>
       <path id="DejaVuSans-75" d="M 544 1381 
L 544 3500 
L 1119 3500 
L 1119 1403 
Q 1119 906 1312 657 
Q 1506 409 1894 409 
Q 2359 409 2629 706 
Q 2900 1003 2900 1516 
L 2900 3500 
L 3475 3500 
L 3475 0 
L 2900 0 
L 2900 538 
Q 2691 219 2414 64 
Q 2138 -91 1772 -91 
Q 1169 -91 856 284 
Q 544 659 544 1381 
z
M 1991 3584 
L 1991 3584 
z
" transform="scale(0.015625)"/>
       <path id="DejaVuSans-67" d="M 2906 1791 
Q 2906 2416 2648 2759 
Q 2391 3103 1925 3103 
Q 1463 3103 1205 2759 
Q 947 2416 947 1791 
Q 947 1169 1205 825 
Q 1463 481 1925 481 
Q 2391 481 2648 825 
Q 2906 1169 2906 1791 
z
M 3481 434 
Q 3481 -459 3084 -895 
Q 2688 -1331 1869 -1331 
Q 1566 -1331 1297 -1286 
Q 1028 -1241 775 -1147 
L 775 -588 
Q 1028 -725 1275 -790 
Q 1522 -856 1778 -856 
Q 2344 -856 2625 -561 
Q 2906 -266 2906 331 
L 2906 616 
Q 2728 306 2450 153 
Q 2172 0 1784 0 
Q 1141 0 747 490 
Q 353 981 353 1791 
Q 353 2603 747 3093 
Q 1141 3584 1784 3584 
Q 2172 3584 2450 3431 
Q 2728 3278 2906 2969 
L 2906 3500 
L 3481 3500 
L 3481 434 
z
" transform="scale(0.015625)"/>
       <path id="DejaVuSans-69" d="M 603 3500 
L 1178 3500 
L 1178 0 
L 603 0 
L 603 3500 
z
M 603 4863 
L 1178 4863 
L 1178 4134 
L 603 4134 
L 603 4863 
z
" transform="scale(0.015625)"/>
       <path id="DejaVuSans-6f" d="M 1959 3097 
Q 1497 3097 1228 2736 
Q 959 2375 959 1747 
Q 959 1119 1226 758 
Q 1494 397 1959 397 
Q 2419 397 2687 759 
Q 2956 1122 2956 1747 
Q 2956 2369 2687 2733 
Q 2419 3097 1959 3097 
z
M 1959 3584 
Q 2709 3584 3137 3096 
Q 3566 2609 3566 1747 
Q 3566 888 3137 398 
Q 2709 -91 1959 -91 
Q 1206 -91 779 398 
Q 353 888 353 1747 
Q 353 2609 779 3096 
Q 1206 3584 1959 3584 
z
" transform="scale(0.015625)"/>
      </defs>
      <use xlink:href="#DejaVuSans-43"/>
      <use xlink:href="#DejaVuSans-61" x="69.824219"/>
      <use xlink:href="#DejaVuSans-72" x="131.103516"/>
      <use xlink:href="#DejaVuSans-6c" x="172.216797"/>
      <use xlink:href="#DejaVuSans-61" x="200"/>
      <use xlink:href="#DejaVuSans-20" x="261.279297"/>
      <use xlink:href="#DejaVuSans-47" x="293.066406"/>
      <use xlink:href="#DejaVuSans-75" x="370.556641"/>
      <use xlink:href="#DejaVuSans-67" x="433.935547"/>
      <use xlink:href="#DejaVuSans-69" x="497.412109"/>
      <use xlink:href="#DejaVuSans-6e" x="525.195312"/>
      <use xlink:href="#DejaVuSans-6f" x="588.574219"/>
     </g>
    </g>
   </g>
   <g id="text_3">
    <g id="patch_4">
     <path d="M 388.92735 148.499083 
L 463.67235 148.499083 
L 463.67235 131.86877 
L 388.92735 131.86877 
z
" clip-path="url(#p4373d7f775)" style="fill: #ffffff; opacity: 0.7; stroke: #000000; stroke-linejoin: miter"/>
    </g>
    <g clip-path="url(#p4373d7f775)">
     <!-- Steve Buscemi -->
     <g transform="translate(392.88735 142.667364)scale(0.09 -0.09)">
      <defs>
       <path id="DejaVuSans-53" d="M 3425 4513 
L 3425 3897 
Q 3066 4069 2747 4153 
Q 2428 4238 2131 4238 
Q 1616 4238 1336 4038 
Q 1056 3838 1056 3469 
Q 1056 3159 1242 3001 
Q 1428 2844 1947 2747 
L 2328 2669 
Q 3034 2534 3370 2195 
Q 3706 1856 3706 1288 
Q 3706 609 3251 259 
Q 2797 -91 1919 -91 
Q 1588 -91 1214 -16 
Q 841 59 441 206 
L 441 856 
Q 825 641 1194 531 
Q 1563 422 1919 422 
Q 2459 422 2753 634 
Q 3047 847 3047 1241 
Q 3047 1584 2836 1778 
Q 2625 1972 2144 2069 
L 1759 2144 
Q 1053 2284 737 2584 
Q 422 2884 422 3419 
Q 422 4038 858 4394 
Q 1294 4750 2059 4750 
Q 2388 4750 2728 4690 
Q 3069 4631 3425 4513 
z
" transform="scale(0.015625)"/>
       <path id="DejaVuSans-74" d="M 1172 4494 
L 1172 3500 
L 2356 3500 
L 2356 3053 
L 1172 3053 
L 1172 1153 
Q 1172 725 1289 603 
Q 1406 481 1766 481 
L 2356 481 
L 2356 0 
L 1766 0 
Q 1100 0 847 248 
Q 594 497 594 1153 
L 594 3053 
L 172 3053 
L 172 3500 
L 594 3500 
L 594 4494 
L 1172 4494 
z
" transform="scale(0.015625)"/>
       <path id="DejaVuSans-76" d="M 191 3500 
L 800 3500 
L 1894 563 
L 2988 3500 
L 3597 3500 
L 2284 0 
L 1503 0 
L 191 3500 
z
" transform="scale(0.015625)"/>
       <path id="DejaVuSans-73" d="M 2834 3397 
L 2834 2853 
Q 2591 2978 2328 3040 
Q 2066 3103 1784 3103 
Q 1356 3103 1142 2972 
Q 928 2841 928 2578 
Q 928 2378 1081 2264 
Q 1234 2150 1697 2047 
L 1894 2003 
Q 2506 1872 2764 1633 
Q 3022 1394 3022 966 
Q 3022 478 2636 193 
Q 2250 -91 1575 -91 
Q 1294 -91 989 -36 
Q 684 19 347 128 
L 347 722 
Q 666 556 975 473 
Q 1284 391 1588 391 
Q 1994 391 2212 530 
Q 2431 669 2431 922 
Q 2431 1156 2273 1281 
Q 2116 1406 1581 1522 
L 1381 1569 
Q 847 1681 609 1914 
Q 372 2147 372 2553 
Q 372 3047 722 3315 
Q 1072 3584 1716 3584 
Q 2034 3584 2315 3537 
Q 2597 3491 2834 3397 
z
" transform="scale(0.015625)"/>
       <path id="DejaVuSans-6d" d="M 3328 2828 
Q 3544 3216 3844 3400 
Q 4144 3584 4550 3584 
Q 5097 3584 5394 3201 
Q 5691 2819 5691 2113 
L 5691 0 
L 5113 0 
L 5113 2094 
Q 5113 2597 4934 2840 
Q 4756 3084 4391 3084 
Q 3944 3084 3684 2787 
Q 3425 2491 3425 1978 
L 3425 0 
L 2847 0 
L 2847 2094 
Q 2847 2600 2669 2842 
Q 2491 3084 2119 3084 
Q 1678 3084 1418 2786 
Q 1159 2488 1159 1978 
L 1159 0 
L 581 0 
L 581 3500 
L 1159 3500 
L 1159 2956 
Q 1356 3278 1631 3431 
Q 1906 3584 2284 3584 
Q 2666 3584 2933 3390 
Q 3200 3197 3328 2828 
z
" transform="scale(0.015625)"/>
      </defs>
      <use xlink:href="#DejaVuSans-53"/>
      <use xlink:href="#DejaVuSans-74" x="63.476562"/>
      <use xlink:href="#DejaVuSans-65" x="102.685547"/>
      <use xlink:href="#DejaVuSans-76" x="164.208984"/>
      <use xlink:href="#DejaVuSans-65" x="223.388672"/>
      <use xlink:href="#DejaVuSans-20" x="284.912109"/>
      <use xlink:href="#DejaVuSans-42" x="316.699219"/>
      <use xlink:href="#DejaVuSans-75" x="385.302734"/>
      <use xlink:href="#DejaVuSans-73" x="448.681641"/>
      <use xlink:href="#DejaVuSans-63" x="500.78125"/>
      <use xlink:href="#DejaVuSans-65" x="555.761719"/>
      <use xlink:href="#DejaVuSans-6d" x="617.285156"/>
      <use xlink:href="#DejaVuSans-69" x="714.697266"/>
     </g>
    </g>
   </g>
   <g id="text_4">
    <g id="patch_5">
     <path d="M 304.091088 103.921719 
L 393.237494 103.921719 
L 393.237494 87.291406 
L 304.091088 87.291406 
z
" clip-path="url(#p4373d7f775)" style="fill: #ffffff; opacity: 0.7; stroke: #000000; stroke-linejoin: miter"/>
    </g>
    <g clip-path="url(#p4373d7f775)">
     <!-- Sylvester Stallone -->
     <g transform="translate(308.051088 98.09)scale(0.09 -0.09)">
      <defs>
       <path id="DejaVuSans-79" d="M 2059 -325 
Q 1816 -950 1584 -1140 
Q 1353 -1331 966 -1331 
L 506 -1331 
L 506 -850 
L 844 -850 
Q 1081 -850 1212 -737 
Q 1344 -625 1503 -206 
L 1606 56 
L 191 3500 
L 800 3500 
L 1894 763 
L 2988 3500 
L 3597 3500 
L 2059 -325 
z
" transform="scale(0.015625)"/>
      </defs>
      <use xlink:href="#DejaVuSans-53"/>
      <use xlink:href="#DejaVuSans-79" x="63.476562"/>
      <use xlink:href="#DejaVuSans-6c" x="122.65625"/>
      <use xlink:href="#DejaVuSans-76" x="150.439453"/>
      <use xlink:href="#DejaVuSans-65" x="209.619141"/>
      <use xlink:href="#DejaVuSans-73" x="271.142578"/>
      <use xlink:href="#DejaVuSans-74" x="323.242188"/>
      <use xlink:href="#DejaVuSans-65" x="362.451172"/>
      <use xlink:href="#DejaVuSans-72" x="423.974609"/>
      <use xlink:href="#DejaVuSans-20" x="465.087891"/>
      <use xlink:href="#DejaVuSans-53" x="496.875"/>
      <use xlink:href="#DejaVuSans-74" x="560.351562"/>
      <use xlink:href="#DejaVuSans-61" x="599.560547"/>
      <use xlink:href="#DejaVuSans-6c" x="660.839844"/>
      <use xlink:href="#DejaVuSans-6c" x="688.623047"/>
      <use xlink:href="#DejaVuSans-6f" x="716.40625"/>
      <use xlink:href="#DejaVuSans-6e" x="777.587891"/>
      <use xlink:href="#DejaVuSans-65" x="840.966797"/>
     </g>
    </g>
   </g>
   <g id="text_5">
    <g id="patch_6">
     <path d="M 222.419002 94.602512 
L 296.600095 94.602512 
L 296.600095 77.9722 
L 222.419002 77.9722 
z
" clip-path="url(#p4373d7f775)" style="fill: #ffffff; opacity: 0.7; stroke: #000000; stroke-linejoin: miter"/>
    </g>
    <g clip-path="url(#p4373d7f775)">
     <!-- Robert De Niro -->
     <g transform="translate(226.379002 88.770793)scale(0.09 -0.09)">
      <defs>
       <path id="DejaVuSans-52" d="M 2841 2188 
Q 3044 2119 3236 1894 
Q 3428 1669 3622 1275 
L 4263 0 
L 3584 0 
L 2988 1197 
Q 2756 1666 2539 1819 
Q 2322 1972 1947 1972 
L 1259 1972 
L 1259 0 
L 628 0 
L 628 4666 
L 2053 4666 
Q 2853 4666 3247 4331 
Q 3641 3997 3641 3322 
Q 3641 2881 3436 2590 
Q 3231 2300 2841 2188 
z
M 1259 4147 
L 1259 2491 
L 2053 2491 
Q 2509 2491 2742 2702 
Q 2975 2913 2975 3322 
Q 2975 3731 2742 3939 
Q 2509 4147 2053 4147 
L 1259 4147 
z
" transform="scale(0.015625)"/>
       <path id="DejaVuSans-62" d="M 3116 1747 
Q 3116 2381 2855 2742 
Q 2594 3103 2138 3103 
Q 1681 3103 1420 2742 
Q 1159 2381 1159 1747 
Q 1159 1113 1420 752 
Q 1681 391 2138 391 
Q 2594 391 2855 752 
Q 3116 1113 3116 1747 
z
M 1159 2969 
Q 1341 3281 1617 3432 
Q 1894 3584 2278 3584 
Q 2916 3584 3314 3078 
Q 3713 2572 3713 1747 
Q 3713 922 3314 415 
Q 2916 -91 2278 -91 
Q 1894 -91 1617 61 
Q 1341 213 1159 525 
L 1159 0 
L 581 0 
L 581 4863 
L 1159 4863 
L 1159 2969 
z
" transform="scale(0.015625)"/>
       <path id="DejaVuSans-44" d="M 1259 4147 
L 1259 519 
L 2022 519 
Q 2988 519 3436 956 
Q 3884 1394 3884 2338 
Q 3884 3275 3436 3711 
Q 2988 4147 2022 4147 
L 1259 4147 
z
M 628 4666 
L 1925 4666 
Q 3281 4666 3915 4102 
Q 4550 3538 4550 2338 
Q 4550 1131 3912 565 
Q 3275 0 1925 0 
L 628 0 
L 628 4666 
z
" transform="scale(0.015625)"/>
       <path id="DejaVuSans-4e" d="M 628 4666 
L 1478 4666 
L 3547 763 
L 3547 4666 
L 4159 4666 
L 4159 0 
L 3309 0 
L 1241 3903 
L 1241 0 
L 628 0 
L 628 4666 
z
" transform="scale(0.015625)"/>
      </defs>
      <use xlink:href="#DejaVuSans-52"/>
      <use xlink:href="#DejaVuSans-6f" x="64.982422"/>
      <use xlink:href="#DejaVuSans-62" x="126.164062"/>
      <use xlink:href="#DejaVuSans-65" x="189.640625"/>
      <use xlink:href="#DejaVuSans-72" x="251.164062"/>
      <use xlink:href="#DejaVuSans-74" x="292.277344"/>
      <use xlink:href="#DejaVuSans-20" x="331.486328"/>
      <use xlink:href="#DejaVuSans-44" x="363.273438"/>
      <use xlink:href="#DejaVuSans-65" x="440.275391"/>
      <use xlink:href="#DejaVuSans-20" x="501.798828"/>
      <use xlink:href="#DejaVuSans-4e" x="533.585938"/>
      <use xlink:href="#DejaVuSans-69" x="608.390625"/>
      <use xlink:href="#DejaVuSans-72" x="636.173828"/>
      <use xlink:href="#DejaVuSans-6f" x="675.037109"/>
     </g>
    </g>
   </g>
   <g id="text_6">
    <g id="patch_7">
     <path d="M 149.934423 122.152849 
L 198.568173 122.152849 
L 198.568173 105.522536 
L 149.934423 105.522536 
z
" clip-path="url(#p4373d7f775)" style="fill: #ffffff; opacity: 0.7; stroke: #000000; stroke-linejoin: miter"/>
    </g>
    <g clip-path="url(#p4373d7f775)">
     <!-- Al Pacino -->
     <g transform="translate(153.894423 116.32113)scale(0.09 -0.09)">
      <defs>
       <path id="DejaVuSans-41" d="M 2188 4044 
L 1331 1722 
L 3047 1722 
L 2188 4044 
z
M 1831 4666 
L 2547 4666 
L 4325 0 
L 3669 0 
L 3244 1197 
L 1141 1197 
L 716 0 
L 50 0 
L 1831 4666 
z
" transform="scale(0.015625)"/>
       <path id="DejaVuSans-50" d="M 1259 4147 
L 1259 2394 
L 2053 2394 
Q 2494 2394 2734 2622 
Q 2975 2850 2975 3272 
Q 2975 3691 2734 3919 
Q 2494 4147 2053 4147 
L 1259 4147 
z
M 628 4666 
L 2053 4666 
Q 2838 4666 3239 4311 
Q 3641 3956 3641 3272 
Q 3641 2581 3239 2228 
Q 2838 1875 2053 1875 
L 1259 1875 
L 1259 0 
L 628 0 
L 628 4666 
z
" transform="scale(0.015625)"/>
      </defs>
      <use xlink:href="#DejaVuSans-41"/>
      <use xlink:href="#DejaVuSans-6c" x="68.408203"/>
      <use xlink:href="#DejaVuSans-20" x="96.191406"/>
      <use xlink:href="#DejaVuSans-50" x="127.978516"/>
      <use xlink:href="#DejaVuSans-61" x="183.78125"/>
      <use xlink:href="#DejaVuSans-63" x="245.060547"/>
      <use xlink:href="#DejaVuSans-69" x="300.041016"/>
      <use xlink:href="#DejaVuSans-6e" x="327.824219"/>
      <use xlink:href="#DejaVuSans-6f" x="391.203125"/>
     </g>
    </g>
   </g>
   <g id="text_7">
    <g id="patch_8">
     <path d="M 80.997805 181.80901 
L 134.265149 181.80901 
L 134.265149 165.178697 
L 80.997805 165.178697 
z
" clip-path="url(#p4373d7f775)" style="fill: #ffffff; opacity: 0.7; stroke: #000000; stroke-linejoin: miter"/>
    </g>
    <g clip-path="url(#p4373d7f775)">
     <!-- Ray Liotta -->
     <g transform="translate(84.957805 175.977291)scale(0.09 -0.09)">
      <defs>
       <path id="DejaVuSans-4c" d="M 628 4666 
L 1259 4666 
L 1259 531 
L 3531 531 
L 3531 0 
L 628 0 
L 628 4666 
z
" transform="scale(0.015625)"/>
      </defs>
      <use xlink:href="#DejaVuSans-52"/>
      <use xlink:href="#DejaVuSans-61" x="67.232422"/>
      <use xlink:href="#DejaVuSans-79" x="128.511719"/>
      <use xlink:href="#DejaVuSans-20" x="187.691406"/>
      <use xlink:href="#DejaVuSans-4c" x="219.478516"/>
      <use xlink:href="#DejaVuSans-69" x="275.191406"/>
      <use xlink:href="#DejaVuSans-6f" x="302.974609"/>
      <use xlink:href="#DejaVuSans-74" x="364.15625"/>
      <use xlink:href="#DejaVuSans-74" x="403.365234"/>
      <use xlink:href="#DejaVuSans-61" x="442.574219"/>
     </g>
    </g>
   </g>
   <g id="text_8">
    <g id="patch_9">
     <path d="M 27.201418 263.25593 
L 115.137043 263.25593 
L 115.137043 246.625618 
L 27.201418 246.625618 
z
" clip-path="url(#p4373d7f775)" style="fill: #ffffff; opacity: 0.7; stroke: #000000; stroke-linejoin: miter"/>
    </g>
    <g clip-path="url(#p4373d7f775)">
     <!-- Antonio Banderas -->
     <g transform="translate(31.161418 257.424211)scale(0.09 -0.09)">
      <defs>
       <path id="DejaVuSans-64" d="M 2906 2969 
L 2906 4863 
L 3481 4863 
L 3481 0 
L 2906 0 
L 2906 525 
Q 2725 213 2448 61 
Q 2172 -91 1784 -91 
Q 1150 -91 751 415 
Q 353 922 353 1747 
Q 353 2572 751 3078 
Q 1150 3584 1784 3584 
Q 2172 3584 2448 3432 
Q 2725 3281 2906 2969 
z
M 947 1747 
Q 947 1113 1208 752 
Q 1469 391 1925 391 
Q 2381 391 2643 752 
Q 2906 1113 2906 1747 
Q 2906 2381 2643 2742 
Q 2381 3103 1925 3103 
Q 1469 3103 1208 2742 
Q 947 2381 947 1747 
z
" transform="scale(0.015625)"/>
      </defs>
      <use xlink:href="#DejaVuSans-41"/>
      <use xlink:href="#DejaVuSans-6e" x="68.408203"/>
      <use xlink:href="#DejaVuSans-74" x="131.787109"/>
      <use xlink:href="#DejaVuSans-6f" x="170.996094"/>
      <use xlink:href="#DejaVuSans-6e" x="232.177734"/>
      <use xlink:href="#DejaVuSans-69" x="295.556641"/>
      <use xlink:href="#DejaVuSans-6f" x="323.339844"/>
      <use xlink:href="#DejaVuSans-20" x="384.521484"/>
      <use xlink:href="#DejaVuSans-42" x="416.308594"/>
      <use xlink:href="#DejaVuSans-61" x="484.912109"/>
      <use xlink:href="#DejaVuSans-6e" x="546.191406"/>
      <use xlink:href="#DejaVuSans-64" x="609.570312"/>
      <use xlink:href="#DejaVuSans-65" x="673.046875"/>
      <use xlink:href="#DejaVuSans-72" x="734.570312"/>
      <use xlink:href="#DejaVuSans-61" x="775.683594"/>
      <use xlink:href="#DejaVuSans-73" x="836.962891"/>
     </g>
    </g>
   </g>
   <g id="text_9">
    <g id="patch_10">
     <path d="M 38.113228 352.410671 
L 104.225259 352.410671 
L 104.225259 335.780358 
L 38.113228 335.780358 
z
" clip-path="url(#p4373d7f775)" style="fill: #ffffff; opacity: 0.7; stroke: #000000; stroke-linejoin: miter"/>
    </g>
    <g clip-path="url(#p4373d7f775)">
     <!-- John Travolta -->
     <g transform="translate(42.073228 346.578952)scale(0.09 -0.09)">
      <defs>
       <path id="DejaVuSans-4a" d="M 628 4666 
L 1259 4666 
L 1259 325 
Q 1259 -519 939 -900 
Q 619 -1281 -91 -1281 
L -331 -1281 
L -331 -750 
L -134 -750 
Q 284 -750 456 -515 
Q 628 -281 628 325 
L 628 4666 
z
" transform="scale(0.015625)"/>
       <path id="DejaVuSans-68" d="M 3513 2113 
L 3513 0 
L 2938 0 
L 2938 2094 
Q 2938 2591 2744 2837 
Q 2550 3084 2163 3084 
Q 1697 3084 1428 2787 
Q 1159 2491 1159 1978 
L 1159 0 
L 581 0 
L 581 4863 
L 1159 4863 
L 1159 2956 
Q 1366 3272 1645 3428 
Q 1925 3584 2291 3584 
Q 2894 3584 3203 3211 
Q 3513 2838 3513 2113 
z
" transform="scale(0.015625)"/>
       <path id="DejaVuSans-54" d="M -19 4666 
L 3928 4666 
L 3928 4134 
L 2272 4134 
L 2272 0 
L 1638 0 
L 1638 4134 
L -19 4134 
L -19 4666 
z
" transform="scale(0.015625)"/>
      </defs>
      <use xlink:href="#DejaVuSans-4a"/>
      <use xlink:href="#DejaVuSans-6f" x="29.492188"/>
      <use xlink:href="#DejaVuSans-68" x="90.673828"/>
      <use xlink:href="#DejaVuSans-6e" x="154.052734"/>
      <use xlink:href="#DejaVuSans-20" x="217.431641"/>
      <use xlink:href="#DejaVuSans-54" x="249.21875"/>
      <use xlink:href="#DejaVuSans-72" x="295.552734"/>
      <use xlink:href="#DejaVuSans-61" x="336.666016"/>
      <use xlink:href="#DejaVuSans-76" x="397.945312"/>
      <use xlink:href="#DejaVuSans-6f" x="457.125"/>
      <use xlink:href="#DejaVuSans-6c" x="518.306641"/>
      <use xlink:href="#DejaVuSans-74" x="546.089844"/>
      <use xlink:href="#DejaVuSans-61" x="585.298828"/>
     </g>
    </g>
   </g>
   <g id="text_10">
    <g id="patch_11">
     <path d="M 71.216646 433.857565 
L 144.046334 433.857565 
L 144.046334 417.227253 
L 71.216646 417.227253 
z
" clip-path="url(#p4373d7f775)" style="fill: #ffffff; opacity: 0.7; stroke: #000000; stroke-linejoin: miter"/>
    </g>
    <g clip-path="url(#p4373d7f775)">
     <!-- Jim Cummings -->
     <g transform="translate(75.176646 428.025847)scale(0.09 -0.09)">
      <use xlink:href="#DejaVuSans-4a"/>
      <use xlink:href="#DejaVuSans-69" x="29.492188"/>
      <use xlink:href="#DejaVuSans-6d" x="57.275391"/>
      <use xlink:href="#DejaVuSans-20" x="154.6875"/>
      <use xlink:href="#DejaVuSans-43" x="186.474609"/>
      <use xlink:href="#DejaVuSans-75" x="256.298828"/>
      <use xlink:href="#DejaVuSans-6d" x="319.677734"/>
      <use xlink:href="#DejaVuSans-6d" x="417.089844"/>
      <use xlink:href="#DejaVuSans-69" x="514.501953"/>
      <use xlink:href="#DejaVuSans-6e" x="542.285156"/>
      <use xlink:href="#DejaVuSans-67" x="605.664062"/>
      <use xlink:href="#DejaVuSans-73" x="669.140625"/>
     </g>
    </g>
   </g>
   <g id="text_11">
    <g id="patch_12">
     <path d="M 129.51008 493.513727 
L 218.99258 493.513727 
L 218.99258 476.883414 
L 129.51008 476.883414 
z
" clip-path="url(#p4373d7f775)" style="fill: #ffffff; opacity: 0.7; stroke: #000000; stroke-linejoin: miter"/>
    </g>
    <g clip-path="url(#p4373d7f775)">
     <!-- Samuel L. Jackson -->
     <g transform="translate(133.47008 487.682008)scale(0.09 -0.09)">
      <defs>
       <path id="DejaVuSans-2e" d="M 684 794 
L 1344 794 
L 1344 0 
L 684 0 
L 684 794 
z
" transform="scale(0.015625)"/>
       <path id="DejaVuSans-6b" d="M 581 4863 
L 1159 4863 
L 1159 1991 
L 2875 3500 
L 3609 3500 
L 1753 1863 
L 3688 0 
L 2938 0 
L 1159 1709 
L 1159 0 
L 581 0 
L 581 4863 
z
" transform="scale(0.015625)"/>
      </defs>
      <use xlink:href="#DejaVuSans-53"/>
      <use xlink:href="#DejaVuSans-61" x="63.476562"/>
      <use xlink:href="#DejaVuSans-6d" x="124.755859"/>
      <use xlink:href="#DejaVuSans-75" x="222.167969"/>
      <use xlink:href="#DejaVuSans-65" x="285.546875"/>
      <use xlink:href="#DejaVuSans-6c" x="347.070312"/>
      <use xlink:href="#DejaVuSans-20" x="374.853516"/>
      <use xlink:href="#DejaVuSans-4c" x="406.640625"/>
      <use xlink:href="#DejaVuSans-2e" x="462.353516"/>
      <use xlink:href="#DejaVuSans-20" x="494.140625"/>
      <use xlink:href="#DejaVuSans-4a" x="525.927734"/>
      <use xlink:href="#DejaVuSans-61" x="555.419922"/>
      <use xlink:href="#DejaVuSans-63" x="616.699219"/>
      <use xlink:href="#DejaVuSans-6b" x="671.679688"/>
      <use xlink:href="#DejaVuSans-73" x="729.589844"/>
      <use xlink:href="#DejaVuSans-6f" x="781.689453"/>
      <use xlink:href="#DejaVuSans-6e" x="842.871094"/>
     </g>
    </g>
   </g>
   <g id="text_12">
    <g id="patch_13">
     <path d="M 224.298493 521.06405 
L 294.720681 521.06405 
L 294.720681 504.433738 
L 224.298493 504.433738 
z
" clip-path="url(#p4373d7f775)" style="fill: #ffffff; opacity: 0.7; stroke: #000000; stroke-linejoin: miter"/>
    </g>
    <g clip-path="url(#p4373d7f775)">
     <!-- Robert Loggia -->
     <g transform="translate(228.258493 515.232332)scale(0.09 -0.09)">
      <use xlink:href="#DejaVuSans-52"/>
      <use xlink:href="#DejaVuSans-6f" x="64.982422"/>
      <use xlink:href="#DejaVuSans-62" x="126.164062"/>
      <use xlink:href="#DejaVuSans-65" x="189.640625"/>
      <use xlink:href="#DejaVuSans-72" x="251.164062"/>
      <use xlink:href="#DejaVuSans-74" x="292.277344"/>
      <use xlink:href="#DejaVuSans-20" x="331.486328"/>
      <use xlink:href="#DejaVuSans-4c" x="363.273438"/>
      <use xlink:href="#DejaVuSans-6f" x="417.236328"/>
      <use xlink:href="#DejaVuSans-67" x="478.417969"/>
      <use xlink:href="#DejaVuSans-67" x="541.894531"/>
      <use xlink:href="#DejaVuSans-69" x="605.371094"/>
      <use xlink:href="#DejaVuSans-61" x="633.154297"/>
     </g>
    </g>
   </g>
   <g id="text_13">
    <g id="patch_14">
     <path d="M 307.161667 511.744831 
L 390.16698 511.744831 
L 390.16698 495.114518 
L 307.161667 495.114518 
z
" clip-path="url(#p4373d7f775)" style="fill: #ffffff; opacity: 0.7; stroke: #000000; stroke-linejoin: miter"/>
    </g>
    <g clip-path="url(#p4373d7f775)">
     <!-- Chazz Palminteri -->
     <g transform="translate(311.121667 505.913112)scale(0.09 -0.09)">
      <defs>
       <path id="DejaVuSans-7a" d="M 353 3500 
L 3084 3500 
L 3084 2975 
L 922 459 
L 3084 459 
L 3084 0 
L 275 0 
L 275 525 
L 2438 3041 
L 353 3041 
L 353 3500 
z
" transform="scale(0.015625)"/>
      </defs>
      <use xlink:href="#DejaVuSans-43"/>
      <use xlink:href="#DejaVuSans-68" x="69.824219"/>
      <use xlink:href="#DejaVuSans-61" x="133.203125"/>
      <use xlink:href="#DejaVuSans-7a" x="194.482422"/>
      <use xlink:href="#DejaVuSans-7a" x="246.972656"/>
      <use xlink:href="#DejaVuSans-20" x="299.462891"/>
      <use xlink:href="#DejaVuSans-50" x="331.25"/>
      <use xlink:href="#DejaVuSans-61" x="387.052734"/>
      <use xlink:href="#DejaVuSans-6c" x="448.332031"/>
      <use xlink:href="#DejaVuSans-6d" x="476.115234"/>
      <use xlink:href="#DejaVuSans-69" x="573.527344"/>
      <use xlink:href="#DejaVuSans-6e" x="601.310547"/>
      <use xlink:href="#DejaVuSans-74" x="664.689453"/>
      <use xlink:href="#DejaVuSans-65" x="703.898438"/>
      <use xlink:href="#DejaVuSans-72" x="765.421875"/>
      <use xlink:href="#DejaVuSans-69" x="806.535156"/>
     </g>
    </g>
   </g>
   <g id="text_14">
    <g id="patch_15">
     <path d="M 390.720357 467.167441 
L 461.87942 467.167441 
L 461.87942 450.537129 
L 390.720357 450.537129 
z
" clip-path="url(#p4373d7f775)" style="fill: #ffffff; opacity: 0.7; stroke: #000000; stroke-linejoin: miter"/>
    </g>
    <g clip-path="url(#p4373d7f775)">
     <!-- Adam Sandler -->
     <g transform="translate(394.680357 461.335723)scale(0.09 -0.09)">
      <use xlink:href="#DejaVuSans-41"/>
      <use xlink:href="#DejaVuSans-64" x="66.658203"/>
      <use xlink:href="#DejaVuSans-61" x="130.134766"/>
      <use xlink:href="#DejaVuSans-6d" x="191.414062"/>
      <use xlink:href="#DejaVuSans-20" x="288.826172"/>
      <use xlink:href="#DejaVuSans-53" x="320.613281"/>
      <use xlink:href="#DejaVuSans-61" x="384.089844"/>
      <use xlink:href="#DejaVuSans-6e" x="445.369141"/>
      <use xlink:href="#DejaVuSans-64" x="508.748047"/>
      <use xlink:href="#DejaVuSans-6c" x="572.224609"/>
      <use xlink:href="#DejaVuSans-65" x="600.007812"/>
      <use xlink:href="#DejaVuSans-72" x="661.53125"/>
     </g>
    </g>
   </g>
   <g id="text_15">
    <g id="patch_16">
     <path d="M 448.77417 395.039741 
L 509.210577 395.039741 
L 509.210577 378.409428 
L 448.77417 378.409428 
z
" clip-path="url(#p4373d7f775)" style="fill: #ffffff; opacity: 0.7; stroke: #000000; stroke-linejoin: miter"/>
    </g>
    <g clip-path="url(#p4373d7f775)">
     <!-- John Cleese -->
     <g transform="translate(452.73417 389.208022)scale(0.09 -0.09)">
      <use xlink:href="#DejaVuSans-4a"/>
      <use xlink:href="#DejaVuSans-6f" x="29.492188"/>
      <use xlink:href="#DejaVuSans-68" x="90.673828"/>
      <use xlink:href="#DejaVuSans-6e" x="154.052734"/>
      <use xlink:href="#DejaVuSans-20" x="217.431641"/>
      <use xlink:href="#DejaVuSans-43" x="249.21875"/>
      <use xlink:href="#DejaVuSans-6c" x="319.042969"/>
      <use xlink:href="#DejaVuSans-65" x="346.826172"/>
      <use xlink:href="#DejaVuSans-65" x="408.349609"/>
      <use xlink:href="#DejaVuSans-73" x="469.873047"/>
      <use xlink:href="#DejaVuSans-65" x="521.972656"/>
     </g>
    </g>
   </g>
   <g id="text_16">
    <!-- Impactful actors for Romance Film genre - Importance rank: 2 -->
    <g transform="translate(98.85 16.318125)scale(0.12 -0.12)">
     <defs>
      <path id="DejaVuSans-49" d="M 628 4666 
L 1259 4666 
L 1259 0 
L 628 0 
L 628 4666 
z
" transform="scale(0.015625)"/>
      <path id="DejaVuSans-70" d="M 1159 525 
L 1159 -1331 
L 581 -1331 
L 581 3500 
L 1159 3500 
L 1159 2969 
Q 1341 3281 1617 3432 
Q 1894 3584 2278 3584 
Q 2916 3584 3314 3078 
Q 3713 2572 3713 1747 
Q 3713 922 3314 415 
Q 2916 -91 2278 -91 
Q 1894 -91 1617 61 
Q 1341 213 1159 525 
z
M 3116 1747 
Q 3116 2381 2855 2742 
Q 2594 3103 2138 3103 
Q 1681 3103 1420 2742 
Q 1159 2381 1159 1747 
Q 1159 1113 1420 752 
Q 1681 391 2138 391 
Q 2594 391 2855 752 
Q 3116 1113 3116 1747 
z
" transform="scale(0.015625)"/>
      <path id="DejaVuSans-66" d="M 2375 4863 
L 2375 4384 
L 1825 4384 
Q 1516 4384 1395 4259 
Q 1275 4134 1275 3809 
L 1275 3500 
L 2222 3500 
L 2222 3053 
L 1275 3053 
L 1275 0 
L 697 0 
L 697 3053 
L 147 3053 
L 147 3500 
L 697 3500 
L 697 3744 
Q 697 4328 969 4595 
Q 1241 4863 1831 4863 
L 2375 4863 
z
" transform="scale(0.015625)"/>
      <path id="DejaVuSans-46" d="M 628 4666 
L 3309 4666 
L 3309 4134 
L 1259 4134 
L 1259 2759 
L 3109 2759 
L 3109 2228 
L 1259 2228 
L 1259 0 
L 628 0 
L 628 4666 
z
" transform="scale(0.015625)"/>
      <path id="DejaVuSans-2d" d="M 313 2009 
L 1997 2009 
L 1997 1497 
L 313 1497 
L 313 2009 
z
" transform="scale(0.015625)"/>
      <path id="DejaVuSans-3a" d="M 750 794 
L 1409 794 
L 1409 0 
L 750 0 
L 750 794 
z
M 750 3309 
L 1409 3309 
L 1409 2516 
L 750 2516 
L 750 3309 
z
" transform="scale(0.015625)"/>
      <path id="DejaVuSans-32" d="M 1228 531 
L 3431 531 
L 3431 0 
L 469 0 
L 469 531 
Q 828 903 1448 1529 
Q 2069 2156 2228 2338 
Q 2531 2678 2651 2914 
Q 2772 3150 2772 3378 
Q 2772 3750 2511 3984 
Q 2250 4219 1831 4219 
Q 1534 4219 1204 4116 
Q 875 4013 500 3803 
L 500 4441 
Q 881 4594 1212 4672 
Q 1544 4750 1819 4750 
Q 2544 4750 2975 4387 
Q 3406 4025 3406 3419 
Q 3406 3131 3298 2873 
Q 3191 2616 2906 2266 
Q 2828 2175 2409 1742 
Q 1991 1309 1228 531 
z
" transform="scale(0.015625)"/>
     </defs>
     <use xlink:href="#DejaVuSans-49"/>
     <use xlink:href="#DejaVuSans-6d" x="29.492188"/>
     <use xlink:href="#DejaVuSans-70" x="126.904297"/>
     <use xlink:href="#DejaVuSans-61" x="190.380859"/>
     <use xlink:href="#DejaVuSans-63" x="251.660156"/>
     <use xlink:href="#DejaVuSans-74" x="306.640625"/>
     <use xlink:href="#DejaVuSans-66" x="345.849609"/>
     <use xlink:href="#DejaVuSans-75" x="381.054688"/>
     <use xlink:href="#DejaVuSans-6c" x="444.433594"/>
     <use xlink:href="#DejaVuSans-20" x="472.216797"/>
     <use xlink:href="#DejaVuSans-61" x="504.003906"/>
     <use xlink:href="#DejaVuSans-63" x="565.283203"/>
     <use xlink:href="#DejaVuSans-74" x="620.263672"/>
     <use xlink:href="#DejaVuSans-6f" x="659.472656"/>
     <use xlink:href="#DejaVuSans-72" x="720.654297"/>
     <use xlink:href="#DejaVuSans-73" x="761.767578"/>
     <use xlink:href="#DejaVuSans-20" x="813.867188"/>
     <use xlink:href="#DejaVuSans-66" x="845.654297"/>
     <use xlink:href="#DejaVuSans-6f" x="880.859375"/>
     <use xlink:href="#DejaVuSans-72" x="942.041016"/>
     <use xlink:href="#DejaVuSans-20" x="983.154297"/>
     <use xlink:href="#DejaVuSans-52" x="1014.941406"/>
     <use xlink:href="#DejaVuSans-6f" x="1079.923828"/>
     <use xlink:href="#DejaVuSans-6d" x="1141.105469"/>
     <use xlink:href="#DejaVuSans-61" x="1238.517578"/>
     <use xlink:href="#DejaVuSans-6e" x="1299.796875"/>
     <use xlink:href="#DejaVuSans-63" x="1363.175781"/>
     <use xlink:href="#DejaVuSans-65" x="1418.15625"/>
     <use xlink:href="#DejaVuSans-20" x="1479.679688"/>
     <use xlink:href="#DejaVuSans-46" x="1511.466797"/>
     <use xlink:href="#DejaVuSans-69" x="1561.736328"/>
     <use xlink:href="#DejaVuSans-6c" x="1589.519531"/>
     <use xlink:href="#DejaVuSans-6d" x="1617.302734"/>
     <use xlink:href="#DejaVuSans-20" x="1714.714844"/>
     <use xlink:href="#DejaVuSans-67" x="1746.501953"/>
     <use xlink:href="#DejaVuSans-65" x="1809.978516"/>
     <use xlink:href="#DejaVuSans-6e" x="1871.501953"/>
     <use xlink:href="#DejaVuSans-72" x="1934.880859"/>
     <use xlink:href="#DejaVuSans-65" x="1973.744141"/>
     <use xlink:href="#DejaVuSans-20" x="2035.267578"/>
     <use xlink:href="#DejaVuSans-2d" x="2067.054688"/>
     <use xlink:href="#DejaVuSans-20" x="2103.138672"/>
     <use xlink:href="#DejaVuSans-49" x="2134.925781"/>
     <use xlink:href="#DejaVuSans-6d" x="2164.417969"/>
     <use xlink:href="#DejaVuSans-70" x="2261.830078"/>
     <use xlink:href="#DejaVuSans-6f" x="2325.306641"/>
     <use xlink:href="#DejaVuSans-72" x="2386.488281"/>
     <use xlink:href="#DejaVuSans-74" x="2427.601562"/>
     <use xlink:href="#DejaVuSans-61" x="2466.810547"/>
     <use xlink:href="#DejaVuSans-6e" x="2528.089844"/>
     <use xlink:href="#DejaVuSans-63" x="2591.46875"/>
     <use xlink:href="#DejaVuSans-65" x="2646.449219"/>
     <use xlink:href="#DejaVuSans-20" x="2707.972656"/>
     <use xlink:href="#DejaVuSans-72" x="2739.759766"/>
     <use xlink:href="#DejaVuSans-61" x="2780.873047"/>
     <use xlink:href="#DejaVuSans-6e" x="2842.152344"/>
     <use xlink:href="#DejaVuSans-6b" x="2905.53125"/>
     <use xlink:href="#DejaVuSans-3a" x="2963.441406"/>
     <use xlink:href="#DejaVuSans-20" x="2997.132812"/>
     <use xlink:href="#DejaVuSans-32" x="3028.919922"/>
    </g>
   </g>
  </g>
 </g>
 <defs>
  <clipPath id="p4373d7f775">
   <rect x="7.2" y="22.318125" width="554.4" height="554.4"/>
  </clipPath>
 </defs>
</svg>
