<?xml version="1.0" encoding="utf-8" standalone="no"?>
<!DOCTYPE svg PUBLIC "-//W3C//DTD SVG 1.1//EN"
  "http://www.w3.org/Graphics/SVG/1.1/DTD/svg11.dtd">
<svg xmlns:xlink="http://www.w3.org/1999/xlink" width="568.8pt" height="583.918125pt" viewBox="0 0 568.8 583.918125" xmlns="http://www.w3.org/2000/svg" version="1.1">
 <metadata>
  <rdf:RDF xmlns:dc="http://purl.org/dc/elements/1.1/" xmlns:cc="http://creativecommons.org/ns#" xmlns:rdf="http://www.w3.org/1999/02/22-rdf-syntax-ns#">
   <cc:Work>
    <dc:type rdf:resource="http://purl.org/dc/dcmitype/StillImage"/>
    <dc:date>2022-12-22T19:12:15.561437</dc:date>
    <dc:format>image/svg+xml</dc:format>
    <dc:creator>
     <cc:Agent>
      <dc:title>Matplotlib v3.5.2, https://matplotlib.org/</dc:title>
     </cc:Agent>
    </dc:creator>
   </cc:Work>
  </rdf:RDF>
 </metadata>
 <defs>
  <style type="text/css">*{stroke-linejoin: round; stroke-linecap: butt}</style>
 </defs>
 <g id="figure_1">
  <g id="patch_1">
   <path d="M 0 583.918125 
L 568.8 583.918125 
L 568.8 0 
L 0 0 
z
" style="fill: #ffffff"/>
  </g>
  <g id="axes_1">
   <g id="PathCollection_1">
    <path d="M 497.630769 326.904253 
C 504.893655 326.904253 511.86005 324.018678 516.995686 318.883042 
C 522.131322 313.747406 525.016897 306.781011 525.016897 299.518125 
C 525.016897 292.255239 522.131322 285.288844 516.995686 280.153208 
C 511.86005 275.017572 504.893655 272.131997 497.630769 272.131997 
C 490.367883 272.131997 483.401488 275.017572 478.265852 280.153208 
C 473.130217 285.288844 470.244641 292.255239 470.244641 299.518125 
C 470.244641 306.781011 473.130217 313.747406 478.265852 318.883042 
C 483.401488 324.018678 490.367883 326.904253 497.630769 326.904253 
z
" clip-path="url(#pab6fa05d69)" style="fill: #d62728; fill-opacity: 0.99; stroke: #d62728; stroke-opacity: 0.99"/>
    <path d="M 478.992348 237.282046 
C 485.614579 237.282046 491.966472 234.651006 496.649096 229.968382 
C 501.33172 225.285757 503.962761 218.933864 503.962761 212.311633 
C 503.962761 205.689403 501.33172 199.33751 496.649096 194.654885 
C 491.966472 189.972261 485.614579 187.341221 478.992348 187.341221 
C 472.370117 187.341221 466.018224 189.972261 461.3356 194.654885 
C 456.652975 199.33751 454.021935 205.689403 454.021935 212.311633 
C 454.021935 218.933864 456.652975 225.285757 461.3356 229.968382 
C 466.018224 234.651006 472.370117 237.282046 478.992348 237.282046 
z
" clip-path="url(#pab6fa05d69)" style="fill: #d62728; fill-opacity: 0.99; stroke: #d62728; stroke-opacity: 0.99"/>
    <path d="M 426.29985 164.043808 
C 432.627564 164.043808 438.696964 161.529781 443.171334 157.055411 
C 447.645704 152.581041 450.159731 146.511641 450.159731 140.183927 
C 450.159731 133.856212 447.645704 127.786812 443.171334 123.312443 
C 438.696964 118.838073 432.627564 116.324045 426.29985 116.324045 
C 419.972135 116.324045 413.902736 118.838073 409.428366 123.312443 
C 404.953996 127.786812 402.439968 133.856212 402.439968 140.183927 
C 402.439968 146.511641 404.953996 152.581041 409.428366 157.055411 
C 413.902736 161.529781 419.972135 164.043808 426.29985 164.043808 
z
" clip-path="url(#pab6fa05d69)" style="fill: #d62728; fill-opacity: 0.99; stroke: #d62728; stroke-opacity: 0.99"/>
    <path d="M 348.664291 119.249381 
C 354.93444 119.249381 360.948624 116.758224 365.382288 112.32456 
C 369.815953 107.890895 372.307109 101.876711 372.307109 95.606563 
C 372.307109 89.336414 369.815953 83.32223 365.382288 78.888566 
C 360.948624 74.454901 354.93444 71.963745 348.664291 71.963745 
C 342.394143 71.963745 336.379959 74.454901 331.946294 78.888566 
C 327.51263 83.32223 325.021473 89.336414 325.021473 95.606563 
C 325.021473 101.876711 327.51263 107.890895 331.946294 112.32456 
C 336.379959 116.758224 342.394143 119.249381 348.664291 119.249381 
z
" clip-path="url(#pab6fa05d69)" style="fill: #d62728; fill-opacity: 0.99; stroke: #d62728; stroke-opacity: 0.99"/>
    <path d="M 259.509549 108.614898 
C 265.430882 108.614898 271.11049 106.262328 275.297505 102.075312 
C 279.48452 97.888297 281.837091 92.208689 281.837091 86.287356 
C 281.837091 80.366022 279.48452 74.686414 275.297505 70.499399 
C 271.11049 66.312384 265.430882 63.959813 259.509549 63.959813 
C 253.588215 63.959813 247.908607 66.312384 243.721592 70.499399 
C 239.534577 74.686414 237.182006 80.366022 237.182006 86.287356 
C 237.182006 92.208689 239.534577 97.888297 243.721592 102.075312 
C 247.908607 106.262328 253.588215 108.614898 259.509549 108.614898 
z
" clip-path="url(#pab6fa05d69)" style="fill: #d62728; fill-opacity: 0.99; stroke: #d62728; stroke-opacity: 0.99"/>
    <path d="M 174.251298 136.047518 
C 180.141413 136.047518 185.791077 133.707351 189.956017 129.542411 
C 194.120957 125.377471 196.461124 119.727807 196.461124 113.837692 
C 196.461124 107.947578 194.120957 102.297914 189.956017 98.132974 
C 185.791077 93.968034 180.141413 91.627866 174.251298 91.627866 
C 168.361183 91.627866 162.71152 93.968034 158.54658 98.132974 
C 154.38164 102.297914 152.041472 107.947578 152.041472 113.837692 
C 152.041472 119.727807 154.38164 125.377471 158.54658 129.542411 
C 162.71152 133.707351 168.361183 136.047518 174.251298 136.047518 
z
" clip-path="url(#pab6fa05d69)" style="fill: #d62728; fill-opacity: 0.99; stroke: #d62728; stroke-opacity: 0.99"/>
    <path d="M 107.631477 195.370493 
C 113.43323 195.370493 118.998138 193.065432 123.100597 188.962974 
C 127.203055 184.860515 129.508116 179.295606 129.508116 173.493854 
C 129.508116 167.692101 127.203055 162.127192 123.100597 158.024734 
C 118.998138 153.922275 113.43323 151.617215 107.631477 151.617215 
C 101.829724 151.617215 96.264816 153.922275 92.162357 158.024734 
C 88.059899 162.127192 85.754838 167.692101 85.754838 173.493854 
C 85.754838 179.295606 88.059899 184.860515 92.162357 188.962974 
C 96.264816 193.065432 101.829724 195.370493 107.631477 195.370493 
z
" clip-path="url(#pab6fa05d69)" style="fill: #d62728; fill-opacity: 0.99; stroke: #d62728; stroke-opacity: 0.99"/>
    <path d="M 71.169231 276.621802 
C 76.919107 276.621802 82.434256 274.337352 86.500032 270.271576 
C 90.565809 266.205799 92.850258 260.69065 92.850258 254.940774 
C 92.850258 249.190898 90.565809 243.675748 86.500032 239.609972 
C 82.434256 235.544196 76.919107 233.259746 71.169231 233.259746 
C 65.419355 233.259746 59.904205 235.544196 55.838429 239.609972 
C 51.772653 243.675748 49.488203 249.190898 49.488203 254.940774 
C 49.488203 260.69065 51.772653 266.205799 55.838429 270.271576 
C 59.904205 274.337352 65.419355 276.621802 71.169231 276.621802 
z
" clip-path="url(#pab6fa05d69)" style="fill: #d62728; fill-opacity: 0.99; stroke: #d62728; stroke-opacity: 0.99"/>
    <path d="M 71.169244 365.702654 
C 76.899524 365.702654 82.395878 363.42599 86.447799 359.374069 
C 90.499719 355.322149 92.776383 349.825795 92.776383 344.095514 
C 92.776383 338.365234 90.499719 332.86888 86.447799 328.816959 
C 82.395878 324.765039 76.899524 322.488375 71.169244 322.488375 
C 65.438963 322.488375 59.942609 324.765039 55.890689 328.816959 
C 51.838768 332.86888 49.562104 338.365234 49.562104 344.095514 
C 49.562104 349.825795 51.838768 355.322149 55.890689 359.374069 
C 59.942609 363.42599 65.438963 365.702654 71.169244 365.702654 
z
" clip-path="url(#pab6fa05d69)" style="fill: #d62728; fill-opacity: 0.99; stroke: #d62728; stroke-opacity: 0.99"/>
    <path d="M 107.63149 446.417969 
C 113.167753 446.417969 118.47801 444.218388 122.39274 440.303659 
C 126.307469 436.38893 128.507049 431.078672 128.507049 425.542409 
C 128.507049 420.006146 126.307469 414.695889 122.39274 410.781159 
C 118.47801 406.86643 113.167753 404.66685 107.63149 404.66685 
C 102.095227 404.66685 96.784969 406.86643 92.87024 410.781159 
C 88.955511 414.695889 86.75593 420.006146 86.75593 425.542409 
C 86.75593 431.078672 88.955511 436.38893 92.87024 440.303659 
C 96.784969 444.218388 102.095227 446.417969 107.63149 446.417969 
z
" clip-path="url(#pab6fa05d69)" style="fill: #d62728; fill-opacity: 0.99; stroke: #d62728; stroke-opacity: 0.99"/>
    <path d="M 174.25133 506.014005 
C 179.771648 506.014005 185.066611 503.820759 188.970065 499.917305 
C 192.873519 496.013851 195.066764 490.718888 195.066764 485.198571 
C 195.066764 479.678253 192.873519 474.38329 188.970065 470.479836 
C 185.066611 466.576382 179.771648 464.383136 174.25133 464.383136 
C 168.731013 464.383136 163.43605 466.576382 159.532596 470.479836 
C 155.629142 474.38329 153.435896 479.678253 153.435896 485.198571 
C 153.435896 490.718888 155.629142 496.013851 159.532596 499.917305 
C 163.43605 503.820759 168.731013 506.014005 174.25133 506.014005 
z
" clip-path="url(#pab6fa05d69)" style="fill: #d62728; fill-opacity: 0.99; stroke: #d62728; stroke-opacity: 0.99"/>
    <path d="M 259.509587 533.48712 
C 265.009429 533.48712 270.284752 531.30201 274.173727 527.413034 
C 278.062703 523.524059 280.247813 518.248736 280.247813 512.748894 
C 280.247813 507.249052 278.062703 501.97373 274.173727 498.084754 
C 270.284752 494.195779 265.009429 492.010669 259.509587 492.010669 
C 254.009745 492.010669 248.734423 494.195779 244.845447 498.084754 
C 240.956472 501.97373 238.771362 507.249052 238.771362 512.748894 
C 238.771362 518.248736 240.956472 523.524059 244.845447 527.413034 
C 248.734423 531.30201 254.009745 533.48712 259.509587 533.48712 
z
" clip-path="url(#pab6fa05d69)" style="fill: #d62728; fill-opacity: 0.99; stroke: #d62728; stroke-opacity: 0.99"/>
    <path d="M 348.664323 523.801649 
C 354.067034 523.801649 359.249191 521.655129 363.069484 517.834836 
C 366.889778 514.014542 369.036298 508.832385 369.036298 503.429675 
C 369.036298 498.026964 366.889778 492.844807 363.069484 489.024513 
C 359.249191 485.20422 354.067034 483.0577 348.664323 483.0577 
C 343.261613 483.0577 338.079456 485.20422 334.259162 489.024513 
C 330.438869 492.844807 328.292349 498.026964 328.292349 503.429675 
C 328.292349 508.832385 330.438869 514.014542 334.259162 517.834836 
C 338.079456 521.655129 343.261613 523.801649 348.664323 523.801649 
z
" clip-path="url(#pab6fa05d69)" style="fill: #d62728; fill-opacity: 0.99; stroke: #d62728; stroke-opacity: 0.99"/>
    <path d="M 426.299888 478.695467 
C 431.562362 478.695467 436.610006 476.604664 440.331137 472.883534 
C 444.052268 469.162403 446.14307 464.114758 446.14307 458.852285 
C 446.14307 453.589812 444.052268 448.542167 440.331137 444.821037 
C 436.610006 441.099906 431.562362 439.009103 426.299888 439.009103 
C 421.037415 439.009103 415.98977 441.099906 412.26864 444.821037 
C 408.547509 448.542167 406.456706 453.589812 406.456706 458.852285 
C 406.456706 464.114758 408.547509 469.162403 412.26864 472.883534 
C 415.98977 476.604664 421.037415 478.695467 426.299888 478.695467 
z
" clip-path="url(#pab6fa05d69)" style="fill: #d62728; fill-opacity: 0.99; stroke: #d62728; stroke-opacity: 0.99"/>
    <path d="M 478.992374 406.089501 
C 484.128009 406.089501 489.053994 404.049092 492.685437 400.417649 
C 496.31688 396.786206 498.35729 391.860221 498.35729 386.724585 
C 498.35729 381.588949 496.31688 376.662964 492.685437 373.031521 
C 489.053994 369.400078 484.128009 367.359668 478.992374 367.359668 
C 473.856738 367.359668 468.930753 369.400078 465.29931 373.031521 
C 461.667867 376.662964 459.627457 381.588949 459.627457 386.724585 
C 459.627457 391.860221 461.667867 396.786206 465.29931 400.417649 
C 468.930753 404.049092 473.856738 406.089501 478.992374 406.089501 
z
" clip-path="url(#pab6fa05d69)" style="fill: #d62728; fill-opacity: 0.99; stroke: #d62728; stroke-opacity: 0.99"/>
   </g>
   <g id="text_1">
    <g id="patch_2">
     <path d="M 464.432019 307.833281 
L 530.829519 307.833281 
L 530.829519 291.202969 
L 464.432019 291.202969 
z
" clip-path="url(#pab6fa05d69)" style="fill: #ffffff; opacity: 0.7; stroke: #000000; stroke-linejoin: miter"/>
    </g>
    <g clip-path="url(#pab6fa05d69)">
     <!-- Carla Gugino -->
     <g transform="translate(468.392019 302.001562)scale(0.09 -0.09)">
      <defs>
       <path id="DejaVuSans-43" d="M 4122 4306 
L 4122 3641 
Q 3803 3938 3442 4084 
Q 3081 4231 2675 4231 
Q 1875 4231 1450 3742 
Q 1025 3253 1025 2328 
Q 1025 1406 1450 917 
Q 1875 428 2675 428 
Q 3081 428 3442 575 
Q 3803 722 4122 1019 
L 4122 359 
Q 3791 134 3420 21 
Q 3050 -91 2638 -91 
Q 1578 -91 968 557 
Q 359 1206 359 2328 
Q 359 3453 968 4101 
Q 1578 4750 2638 4750 
Q 3056 4750 3426 4639 
Q 3797 4528 4122 4306 
z
" transform="scale(0.015625)"/>
       <path id="DejaVuSans-61" d="M 2194 1759 
Q 1497 1759 1228 1600 
Q 959 1441 959 1056 
Q 959 750 1161 570 
Q 1363 391 1709 391 
Q 2188 391 2477 730 
Q 2766 1069 2766 1631 
L 2766 1759 
L 2194 1759 
z
M 3341 1997 
L 3341 0 
L 2766 0 
L 2766 531 
Q 2569 213 2275 61 
Q 1981 -91 1556 -91 
Q 1019 -91 701 211 
Q 384 513 384 1019 
Q 384 1609 779 1909 
Q 1175 2209 1959 2209 
L 2766 2209 
L 2766 2266 
Q 2766 2663 2505 2880 
Q 2244 3097 1772 3097 
Q 1472 3097 1187 3025 
Q 903 2953 641 2809 
L 641 3341 
Q 956 3463 1253 3523 
Q 1550 3584 1831 3584 
Q 2591 3584 2966 3190 
Q 3341 2797 3341 1997 
z
" transform="scale(0.015625)"/>
       <path id="DejaVuSans-72" d="M 2631 2963 
Q 2534 3019 2420 3045 
Q 2306 3072 2169 3072 
Q 1681 3072 1420 2755 
Q 1159 2438 1159 1844 
L 1159 0 
L 581 0 
L 581 3500 
L 1159 3500 
L 1159 2956 
Q 1341 3275 1631 3429 
Q 1922 3584 2338 3584 
Q 2397 3584 2469 3576 
Q 2541 3569 2628 3553 
L 2631 2963 
z
" transform="scale(0.015625)"/>
       <path id="DejaVuSans-6c" d="M 603 4863 
L 1178 4863 
L 1178 0 
L 603 0 
L 603 4863 
z
" transform="scale(0.015625)"/>
       <path id="DejaVuSans-20" transform="scale(0.015625)"/>
       <path id="DejaVuSans-47" d="M 3809 666 
L 3809 1919 
L 2778 1919 
L 2778 2438 
L 4434 2438 
L 4434 434 
Q 4069 175 3628 42 
Q 3188 -91 2688 -91 
Q 1594 -91 976 548 
Q 359 1188 359 2328 
Q 359 3472 976 4111 
Q 1594 4750 2688 4750 
Q 3144 4750 3555 4637 
Q 3966 4525 4313 4306 
L 4313 3634 
Q 3963 3931 3569 4081 
Q 3175 4231 2741 4231 
Q 1884 4231 1454 3753 
Q 1025 3275 1025 2328 
Q 1025 1384 1454 906 
Q 1884 428 2741 428 
Q 3075 428 3337 486 
Q 3600 544 3809 666 
z
" transform="scale(0.015625)"/>
       <path id="DejaVuSans-75" d="M 544 1381 
L 544 3500 
L 1119 3500 
L 1119 1403 
Q 1119 906 1312 657 
Q 1506 409 1894 409 
Q 2359 409 2629 706 
Q 2900 1003 2900 1516 
L 2900 3500 
L 3475 3500 
L 3475 0 
L 2900 0 
L 2900 538 
Q 2691 219 2414 64 
Q 2138 -91 1772 -91 
Q 1169 -91 856 284 
Q 544 659 544 1381 
z
M 1991 3584 
L 1991 3584 
z
" transform="scale(0.015625)"/>
       <path id="DejaVuSans-67" d="M 2906 1791 
Q 2906 2416 2648 2759 
Q 2391 3103 1925 3103 
Q 1463 3103 1205 2759 
Q 947 2416 947 1791 
Q 947 1169 1205 825 
Q 1463 481 1925 481 
Q 2391 481 2648 825 
Q 2906 1169 2906 1791 
z
M 3481 434 
Q 3481 -459 3084 -895 
Q 2688 -1331 1869 -1331 
Q 1566 -1331 1297 -1286 
Q 1028 -1241 775 -1147 
L 775 -588 
Q 1028 -725 1275 -790 
Q 1522 -856 1778 -856 
Q 2344 -856 2625 -561 
Q 2906 -266 2906 331 
L 2906 616 
Q 2728 306 2450 153 
Q 2172 0 1784 0 
Q 1141 0 747 490 
Q 353 981 353 1791 
Q 353 2603 747 3093 
Q 1141 3584 1784 3584 
Q 2172 3584 2450 3431 
Q 2728 3278 2906 2969 
L 2906 3500 
L 3481 3500 
L 3481 434 
z
" transform="scale(0.015625)"/>
       <path id="DejaVuSans-69" d="M 603 3500 
L 1178 3500 
L 1178 0 
L 603 0 
L 603 3500 
z
M 603 4863 
L 1178 4863 
L 1178 4134 
L 603 4134 
L 603 4863 
z
" transform="scale(0.015625)"/>
       <path id="DejaVuSans-6e" d="M 3513 2113 
L 3513 0 
L 2938 0 
L 2938 2094 
Q 2938 2591 2744 2837 
Q 2550 3084 2163 3084 
Q 1697 3084 1428 2787 
Q 1159 2491 1159 1978 
L 1159 0 
L 581 0 
L 581 3500 
L 1159 3500 
L 1159 2956 
Q 1366 3272 1645 3428 
Q 1925 3584 2291 3584 
Q 2894 3584 3203 3211 
Q 3513 2838 3513 2113 
z
" transform="scale(0.015625)"/>
       <path id="DejaVuSans-6f" d="M 1959 3097 
Q 1497 3097 1228 2736 
Q 959 2375 959 1747 
Q 959 1119 1226 758 
Q 1494 397 1959 397 
Q 2419 397 2687 759 
Q 2956 1122 2956 1747 
Q 2956 2369 2687 2733 
Q 2419 3097 1959 3097 
z
M 1959 3584 
Q 2709 3584 3137 3096 
Q 3566 2609 3566 1747 
Q 3566 888 3137 398 
Q 2709 -91 1959 -91 
Q 1206 -91 779 398 
Q 353 888 353 1747 
Q 353 2609 779 3096 
Q 1206 3584 1959 3584 
z
" transform="scale(0.015625)"/>
      </defs>
      <use xlink:href="#DejaVuSans-43"/>
      <use xlink:href="#DejaVuSans-61" x="69.824219"/>
      <use xlink:href="#DejaVuSans-72" x="131.103516"/>
      <use xlink:href="#DejaVuSans-6c" x="172.216797"/>
      <use xlink:href="#DejaVuSans-61" x="200"/>
      <use xlink:href="#DejaVuSans-20" x="261.279297"/>
      <use xlink:href="#DejaVuSans-47" x="293.066406"/>
      <use xlink:href="#DejaVuSans-75" x="370.556641"/>
      <use xlink:href="#DejaVuSans-67" x="433.935547"/>
      <use xlink:href="#DejaVuSans-69" x="497.412109"/>
      <use xlink:href="#DejaVuSans-6e" x="525.195312"/>
      <use xlink:href="#DejaVuSans-6f" x="588.574219"/>
     </g>
    </g>
   </g>
   <g id="text_2">
    <g id="patch_3">
     <path d="M 441.901801 220.62679 
L 516.082895 220.62679 
L 516.082895 203.996477 
L 441.901801 203.996477 
z
" clip-path="url(#pab6fa05d69)" style="fill: #ffffff; opacity: 0.7; stroke: #000000; stroke-linejoin: miter"/>
    </g>
    <g clip-path="url(#pab6fa05d69)">
     <!-- Robert De Niro -->
     <g transform="translate(445.861801 214.795071)scale(0.09 -0.09)">
      <defs>
       <path id="DejaVuSans-52" d="M 2841 2188 
Q 3044 2119 3236 1894 
Q 3428 1669 3622 1275 
L 4263 0 
L 3584 0 
L 2988 1197 
Q 2756 1666 2539 1819 
Q 2322 1972 1947 1972 
L 1259 1972 
L 1259 0 
L 628 0 
L 628 4666 
L 2053 4666 
Q 2853 4666 3247 4331 
Q 3641 3997 3641 3322 
Q 3641 2881 3436 2590 
Q 3231 2300 2841 2188 
z
M 1259 4147 
L 1259 2491 
L 2053 2491 
Q 2509 2491 2742 2702 
Q 2975 2913 2975 3322 
Q 2975 3731 2742 3939 
Q 2509 4147 2053 4147 
L 1259 4147 
z
" transform="scale(0.015625)"/>
       <path id="DejaVuSans-62" d="M 3116 1747 
Q 3116 2381 2855 2742 
Q 2594 3103 2138 3103 
Q 1681 3103 1420 2742 
Q 1159 2381 1159 1747 
Q 1159 1113 1420 752 
Q 1681 391 2138 391 
Q 2594 391 2855 752 
Q 3116 1113 3116 1747 
z
M 1159 2969 
Q 1341 3281 1617 3432 
Q 1894 3584 2278 3584 
Q 2916 3584 3314 3078 
Q 3713 2572 3713 1747 
Q 3713 922 3314 415 
Q 2916 -91 2278 -91 
Q 1894 -91 1617 61 
Q 1341 213 1159 525 
L 1159 0 
L 581 0 
L 581 4863 
L 1159 4863 
L 1159 2969 
z
" transform="scale(0.015625)"/>
       <path id="DejaVuSans-65" d="M 3597 1894 
L 3597 1613 
L 953 1613 
Q 991 1019 1311 708 
Q 1631 397 2203 397 
Q 2534 397 2845 478 
Q 3156 559 3463 722 
L 3463 178 
Q 3153 47 2828 -22 
Q 2503 -91 2169 -91 
Q 1331 -91 842 396 
Q 353 884 353 1716 
Q 353 2575 817 3079 
Q 1281 3584 2069 3584 
Q 2775 3584 3186 3129 
Q 3597 2675 3597 1894 
z
M 3022 2063 
Q 3016 2534 2758 2815 
Q 2500 3097 2075 3097 
Q 1594 3097 1305 2825 
Q 1016 2553 972 2059 
L 3022 2063 
z
" transform="scale(0.015625)"/>
       <path id="DejaVuSans-74" d="M 1172 4494 
L 1172 3500 
L 2356 3500 
L 2356 3053 
L 1172 3053 
L 1172 1153 
Q 1172 725 1289 603 
Q 1406 481 1766 481 
L 2356 481 
L 2356 0 
L 1766 0 
Q 1100 0 847 248 
Q 594 497 594 1153 
L 594 3053 
L 172 3053 
L 172 3500 
L 594 3500 
L 594 4494 
L 1172 4494 
z
" transform="scale(0.015625)"/>
       <path id="DejaVuSans-44" d="M 1259 4147 
L 1259 519 
L 2022 519 
Q 2988 519 3436 956 
Q 3884 1394 3884 2338 
Q 3884 3275 3436 3711 
Q 2988 4147 2022 4147 
L 1259 4147 
z
M 628 4666 
L 1925 4666 
Q 3281 4666 3915 4102 
Q 4550 3538 4550 2338 
Q 4550 1131 3912 565 
Q 3275 0 1925 0 
L 628 0 
L 628 4666 
z
" transform="scale(0.015625)"/>
       <path id="DejaVuSans-4e" d="M 628 4666 
L 1478 4666 
L 3547 763 
L 3547 4666 
L 4159 4666 
L 4159 0 
L 3309 0 
L 1241 3903 
L 1241 0 
L 628 0 
L 628 4666 
z
" transform="scale(0.015625)"/>
      </defs>
      <use xlink:href="#DejaVuSans-52"/>
      <use xlink:href="#DejaVuSans-6f" x="64.982422"/>
      <use xlink:href="#DejaVuSans-62" x="126.164062"/>
      <use xlink:href="#DejaVuSans-65" x="189.640625"/>
      <use xlink:href="#DejaVuSans-72" x="251.164062"/>
      <use xlink:href="#DejaVuSans-74" x="292.277344"/>
      <use xlink:href="#DejaVuSans-20" x="331.486328"/>
      <use xlink:href="#DejaVuSans-44" x="363.273438"/>
      <use xlink:href="#DejaVuSans-65" x="440.275391"/>
      <use xlink:href="#DejaVuSans-20" x="501.798828"/>
      <use xlink:href="#DejaVuSans-4e" x="533.585938"/>
      <use xlink:href="#DejaVuSans-69" x="608.390625"/>
      <use xlink:href="#DejaVuSans-72" x="636.173828"/>
      <use xlink:href="#DejaVuSans-6f" x="675.037109"/>
     </g>
    </g>
   </g>
   <g id="text_3">
    <g id="patch_4">
     <path d="M 402.96735 148.499083 
L 449.63235 148.499083 
L 449.63235 131.86877 
L 402.96735 131.86877 
z
" clip-path="url(#pab6fa05d69)" style="fill: #ffffff; opacity: 0.7; stroke: #000000; stroke-linejoin: miter"/>
    </g>
    <g clip-path="url(#pab6fa05d69)">
     <!-- Brad Pitt -->
     <g transform="translate(406.92735 142.667364)scale(0.09 -0.09)">
      <defs>
       <path id="DejaVuSans-42" d="M 1259 2228 
L 1259 519 
L 2272 519 
Q 2781 519 3026 730 
Q 3272 941 3272 1375 
Q 3272 1813 3026 2020 
Q 2781 2228 2272 2228 
L 1259 2228 
z
M 1259 4147 
L 1259 2741 
L 2194 2741 
Q 2656 2741 2882 2914 
Q 3109 3088 3109 3444 
Q 3109 3797 2882 3972 
Q 2656 4147 2194 4147 
L 1259 4147 
z
M 628 4666 
L 2241 4666 
Q 2963 4666 3353 4366 
Q 3744 4066 3744 3513 
Q 3744 3084 3544 2831 
Q 3344 2578 2956 2516 
Q 3422 2416 3680 2098 
Q 3938 1781 3938 1306 
Q 3938 681 3513 340 
Q 3088 0 2303 0 
L 628 0 
L 628 4666 
z
" transform="scale(0.015625)"/>
       <path id="DejaVuSans-64" d="M 2906 2969 
L 2906 4863 
L 3481 4863 
L 3481 0 
L 2906 0 
L 2906 525 
Q 2725 213 2448 61 
Q 2172 -91 1784 -91 
Q 1150 -91 751 415 
Q 353 922 353 1747 
Q 353 2572 751 3078 
Q 1150 3584 1784 3584 
Q 2172 3584 2448 3432 
Q 2725 3281 2906 2969 
z
M 947 1747 
Q 947 1113 1208 752 
Q 1469 391 1925 391 
Q 2381 391 2643 752 
Q 2906 1113 2906 1747 
Q 2906 2381 2643 2742 
Q 2381 3103 1925 3103 
Q 1469 3103 1208 2742 
Q 947 2381 947 1747 
z
" transform="scale(0.015625)"/>
       <path id="DejaVuSans-50" d="M 1259 4147 
L 1259 2394 
L 2053 2394 
Q 2494 2394 2734 2622 
Q 2975 2850 2975 3272 
Q 2975 3691 2734 3919 
Q 2494 4147 2053 4147 
L 1259 4147 
z
M 628 4666 
L 2053 4666 
Q 2838 4666 3239 4311 
Q 3641 3956 3641 3272 
Q 3641 2581 3239 2228 
Q 2838 1875 2053 1875 
L 1259 1875 
L 1259 0 
L 628 0 
L 628 4666 
z
" transform="scale(0.015625)"/>
      </defs>
      <use xlink:href="#DejaVuSans-42"/>
      <use xlink:href="#DejaVuSans-72" x="68.603516"/>
      <use xlink:href="#DejaVuSans-61" x="109.716797"/>
      <use xlink:href="#DejaVuSans-64" x="170.996094"/>
      <use xlink:href="#DejaVuSans-20" x="234.472656"/>
      <use xlink:href="#DejaVuSans-50" x="266.259766"/>
      <use xlink:href="#DejaVuSans-69" x="324.3125"/>
      <use xlink:href="#DejaVuSans-74" x="352.095703"/>
      <use xlink:href="#DejaVuSans-74" x="391.304688"/>
     </g>
    </g>
   </g>
   <g id="text_4">
    <g id="patch_5">
     <path d="M 318.552963 103.921719 
L 378.775619 103.921719 
L 378.775619 87.291406 
L 318.552963 87.291406 
z
" clip-path="url(#pab6fa05d69)" style="fill: #ffffff; opacity: 0.7; stroke: #000000; stroke-linejoin: miter"/>
    </g>
    <g clip-path="url(#pab6fa05d69)">
     <!-- Terry Crews -->
     <g transform="translate(322.512963 98.09)scale(0.09 -0.09)">
      <defs>
       <path id="DejaVuSans-54" d="M -19 4666 
L 3928 4666 
L 3928 4134 
L 2272 4134 
L 2272 0 
L 1638 0 
L 1638 4134 
L -19 4134 
L -19 4666 
z
" transform="scale(0.015625)"/>
       <path id="DejaVuSans-79" d="M 2059 -325 
Q 1816 -950 1584 -1140 
Q 1353 -1331 966 -1331 
L 506 -1331 
L 506 -850 
L 844 -850 
Q 1081 -850 1212 -737 
Q 1344 -625 1503 -206 
L 1606 56 
L 191 3500 
L 800 3500 
L 1894 763 
L 2988 3500 
L 3597 3500 
L 2059 -325 
z
" transform="scale(0.015625)"/>
       <path id="DejaVuSans-77" d="M 269 3500 
L 844 3500 
L 1563 769 
L 2278 3500 
L 2956 3500 
L 3675 769 
L 4391 3500 
L 4966 3500 
L 4050 0 
L 3372 0 
L 2619 2869 
L 1863 0 
L 1184 0 
L 269 3500 
z
" transform="scale(0.015625)"/>
       <path id="DejaVuSans-73" d="M 2834 3397 
L 2834 2853 
Q 2591 2978 2328 3040 
Q 2066 3103 1784 3103 
Q 1356 3103 1142 2972 
Q 928 2841 928 2578 
Q 928 2378 1081 2264 
Q 1234 2150 1697 2047 
L 1894 2003 
Q 2506 1872 2764 1633 
Q 3022 1394 3022 966 
Q 3022 478 2636 193 
Q 2250 -91 1575 -91 
Q 1294 -91 989 -36 
Q 684 19 347 128 
L 347 722 
Q 666 556 975 473 
Q 1284 391 1588 391 
Q 1994 391 2212 530 
Q 2431 669 2431 922 
Q 2431 1156 2273 1281 
Q 2116 1406 1581 1522 
L 1381 1569 
Q 847 1681 609 1914 
Q 372 2147 372 2553 
Q 372 3047 722 3315 
Q 1072 3584 1716 3584 
Q 2034 3584 2315 3537 
Q 2597 3491 2834 3397 
z
" transform="scale(0.015625)"/>
      </defs>
      <use xlink:href="#DejaVuSans-54"/>
      <use xlink:href="#DejaVuSans-65" x="44.083984"/>
      <use xlink:href="#DejaVuSans-72" x="105.607422"/>
      <use xlink:href="#DejaVuSans-72" x="144.970703"/>
      <use xlink:href="#DejaVuSans-79" x="186.083984"/>
      <use xlink:href="#DejaVuSans-20" x="245.263672"/>
      <use xlink:href="#DejaVuSans-43" x="277.050781"/>
      <use xlink:href="#DejaVuSans-72" x="346.875"/>
      <use xlink:href="#DejaVuSans-65" x="385.738281"/>
      <use xlink:href="#DejaVuSans-77" x="447.261719"/>
      <use xlink:href="#DejaVuSans-73" x="529.048828"/>
     </g>
    </g>
   </g>
   <g id="text_5">
    <g id="patch_6">
     <path d="M 214.936345 94.602512 
L 304.082752 94.602512 
L 304.082752 77.9722 
L 214.936345 77.9722 
z
" clip-path="url(#pab6fa05d69)" style="fill: #ffffff; opacity: 0.7; stroke: #000000; stroke-linejoin: miter"/>
    </g>
    <g clip-path="url(#pab6fa05d69)">
     <!-- Sylvester Stallone -->
     <g transform="translate(218.896345 88.770793)scale(0.09 -0.09)">
      <defs>
       <path id="DejaVuSans-53" d="M 3425 4513 
L 3425 3897 
Q 3066 4069 2747 4153 
Q 2428 4238 2131 4238 
Q 1616 4238 1336 4038 
Q 1056 3838 1056 3469 
Q 1056 3159 1242 3001 
Q 1428 2844 1947 2747 
L 2328 2669 
Q 3034 2534 3370 2195 
Q 3706 1856 3706 1288 
Q 3706 609 3251 259 
Q 2797 -91 1919 -91 
Q 1588 -91 1214 -16 
Q 841 59 441 206 
L 441 856 
Q 825 641 1194 531 
Q 1563 422 1919 422 
Q 2459 422 2753 634 
Q 3047 847 3047 1241 
Q 3047 1584 2836 1778 
Q 2625 1972 2144 2069 
L 1759 2144 
Q 1053 2284 737 2584 
Q 422 2884 422 3419 
Q 422 4038 858 4394 
Q 1294 4750 2059 4750 
Q 2388 4750 2728 4690 
Q 3069 4631 3425 4513 
z
" transform="scale(0.015625)"/>
       <path id="DejaVuSans-76" d="M 191 3500 
L 800 3500 
L 1894 563 
L 2988 3500 
L 3597 3500 
L 2284 0 
L 1503 0 
L 191 3500 
z
" transform="scale(0.015625)"/>
      </defs>
      <use xlink:href="#DejaVuSans-53"/>
      <use xlink:href="#DejaVuSans-79" x="63.476562"/>
      <use xlink:href="#DejaVuSans-6c" x="122.65625"/>
      <use xlink:href="#DejaVuSans-76" x="150.439453"/>
      <use xlink:href="#DejaVuSans-65" x="209.619141"/>
      <use xlink:href="#DejaVuSans-73" x="271.142578"/>
      <use xlink:href="#DejaVuSans-74" x="323.242188"/>
      <use xlink:href="#DejaVuSans-65" x="362.451172"/>
      <use xlink:href="#DejaVuSans-72" x="423.974609"/>
      <use xlink:href="#DejaVuSans-20" x="465.087891"/>
      <use xlink:href="#DejaVuSans-53" x="496.875"/>
      <use xlink:href="#DejaVuSans-74" x="560.351562"/>
      <use xlink:href="#DejaVuSans-61" x="599.560547"/>
      <use xlink:href="#DejaVuSans-6c" x="660.839844"/>
      <use xlink:href="#DejaVuSans-6c" x="688.623047"/>
      <use xlink:href="#DejaVuSans-6f" x="716.40625"/>
      <use xlink:href="#DejaVuSans-6e" x="777.587891"/>
      <use xlink:href="#DejaVuSans-65" x="840.966797"/>
     </g>
    </g>
   </g>
   <g id="text_6">
    <g id="patch_7">
     <path d="M 145.797236 122.152849 
L 202.705361 122.152849 
L 202.705361 105.522536 
L 145.797236 105.522536 
z
" clip-path="url(#pab6fa05d69)" style="fill: #ffffff; opacity: 0.7; stroke: #000000; stroke-linejoin: miter"/>
    </g>
    <g clip-path="url(#pab6fa05d69)">
     <!-- Tom Hanks -->
     <g transform="translate(149.757236 116.32113)scale(0.09 -0.09)">
      <defs>
       <path id="DejaVuSans-6d" d="M 3328 2828 
Q 3544 3216 3844 3400 
Q 4144 3584 4550 3584 
Q 5097 3584 5394 3201 
Q 5691 2819 5691 2113 
L 5691 0 
L 5113 0 
L 5113 2094 
Q 5113 2597 4934 2840 
Q 4756 3084 4391 3084 
Q 3944 3084 3684 2787 
Q 3425 2491 3425 1978 
L 3425 0 
L 2847 0 
L 2847 2094 
Q 2847 2600 2669 2842 
Q 2491 3084 2119 3084 
Q 1678 3084 1418 2786 
Q 1159 2488 1159 1978 
L 1159 0 
L 581 0 
L 581 3500 
L 1159 3500 
L 1159 2956 
Q 1356 3278 1631 3431 
Q 1906 3584 2284 3584 
Q 2666 3584 2933 3390 
Q 3200 3197 3328 2828 
z
" transform="scale(0.015625)"/>
       <path id="DejaVuSans-48" d="M 628 4666 
L 1259 4666 
L 1259 2753 
L 3553 2753 
L 3553 4666 
L 4184 4666 
L 4184 0 
L 3553 0 
L 3553 2222 
L 1259 2222 
L 1259 0 
L 628 0 
L 628 4666 
z
" transform="scale(0.015625)"/>
       <path id="DejaVuSans-6b" d="M 581 4863 
L 1159 4863 
L 1159 1991 
L 2875 3500 
L 3609 3500 
L 1753 1863 
L 3688 0 
L 2938 0 
L 1159 1709 
L 1159 0 
L 581 0 
L 581 4863 
z
" transform="scale(0.015625)"/>
      </defs>
      <use xlink:href="#DejaVuSans-54"/>
      <use xlink:href="#DejaVuSans-6f" x="44.083984"/>
      <use xlink:href="#DejaVuSans-6d" x="105.265625"/>
      <use xlink:href="#DejaVuSans-20" x="202.677734"/>
      <use xlink:href="#DejaVuSans-48" x="234.464844"/>
      <use xlink:href="#DejaVuSans-61" x="309.660156"/>
      <use xlink:href="#DejaVuSans-6e" x="370.939453"/>
      <use xlink:href="#DejaVuSans-6b" x="434.318359"/>
      <use xlink:href="#DejaVuSans-73" x="492.228516"/>
     </g>
    </g>
   </g>
   <g id="text_7">
    <g id="patch_8">
     <path d="M 71.70179 181.80901 
L 143.561165 181.80901 
L 143.561165 165.178697 
L 71.70179 165.178697 
z
" clip-path="url(#pab6fa05d69)" style="fill: #ffffff; opacity: 0.7; stroke: #000000; stroke-linejoin: miter"/>
    </g>
    <g clip-path="url(#pab6fa05d69)">
     <!-- Danny Huston -->
     <g transform="translate(75.66179 175.977291)scale(0.09 -0.09)">
      <use xlink:href="#DejaVuSans-44"/>
      <use xlink:href="#DejaVuSans-61" x="77.001953"/>
      <use xlink:href="#DejaVuSans-6e" x="138.28125"/>
      <use xlink:href="#DejaVuSans-6e" x="201.660156"/>
      <use xlink:href="#DejaVuSans-79" x="265.039062"/>
      <use xlink:href="#DejaVuSans-20" x="324.21875"/>
      <use xlink:href="#DejaVuSans-48" x="356.005859"/>
      <use xlink:href="#DejaVuSans-75" x="431.201172"/>
      <use xlink:href="#DejaVuSans-73" x="494.580078"/>
      <use xlink:href="#DejaVuSans-74" x="546.679688"/>
      <use xlink:href="#DejaVuSans-6f" x="585.888672"/>
      <use xlink:href="#DejaVuSans-6e" x="647.070312"/>
     </g>
    </g>
   </g>
   <g id="text_8">
    <g id="patch_9">
     <path d="M 41.888293 263.25593 
L 100.450168 263.25593 
L 100.450168 246.625618 
L 41.888293 246.625618 
z
" clip-path="url(#pab6fa05d69)" style="fill: #ffffff; opacity: 0.7; stroke: #000000; stroke-linejoin: miter"/>
    </g>
    <g clip-path="url(#pab6fa05d69)">
     <!-- Ben Affleck -->
     <g transform="translate(45.848293 257.424211)scale(0.09 -0.09)">
      <defs>
       <path id="DejaVuSans-41" d="M 2188 4044 
L 1331 1722 
L 3047 1722 
L 2188 4044 
z
M 1831 4666 
L 2547 4666 
L 4325 0 
L 3669 0 
L 3244 1197 
L 1141 1197 
L 716 0 
L 50 0 
L 1831 4666 
z
" transform="scale(0.015625)"/>
       <path id="DejaVuSans-66" d="M 2375 4863 
L 2375 4384 
L 1825 4384 
Q 1516 4384 1395 4259 
Q 1275 4134 1275 3809 
L 1275 3500 
L 2222 3500 
L 2222 3053 
L 1275 3053 
L 1275 0 
L 697 0 
L 697 3053 
L 147 3053 
L 147 3500 
L 697 3500 
L 697 3744 
Q 697 4328 969 4595 
Q 1241 4863 1831 4863 
L 2375 4863 
z
" transform="scale(0.015625)"/>
       <path id="DejaVuSans-63" d="M 3122 3366 
L 3122 2828 
Q 2878 2963 2633 3030 
Q 2388 3097 2138 3097 
Q 1578 3097 1268 2742 
Q 959 2388 959 1747 
Q 959 1106 1268 751 
Q 1578 397 2138 397 
Q 2388 397 2633 464 
Q 2878 531 3122 666 
L 3122 134 
Q 2881 22 2623 -34 
Q 2366 -91 2075 -91 
Q 1284 -91 818 406 
Q 353 903 353 1747 
Q 353 2603 823 3093 
Q 1294 3584 2113 3584 
Q 2378 3584 2631 3529 
Q 2884 3475 3122 3366 
z
" transform="scale(0.015625)"/>
      </defs>
      <use xlink:href="#DejaVuSans-42"/>
      <use xlink:href="#DejaVuSans-65" x="68.603516"/>
      <use xlink:href="#DejaVuSans-6e" x="130.126953"/>
      <use xlink:href="#DejaVuSans-20" x="193.505859"/>
      <use xlink:href="#DejaVuSans-41" x="225.292969"/>
      <use xlink:href="#DejaVuSans-66" x="290.076172"/>
      <use xlink:href="#DejaVuSans-66" x="325.28125"/>
      <use xlink:href="#DejaVuSans-6c" x="360.486328"/>
      <use xlink:href="#DejaVuSans-65" x="388.269531"/>
      <use xlink:href="#DejaVuSans-63" x="449.792969"/>
      <use xlink:href="#DejaVuSans-6b" x="504.773438"/>
     </g>
    </g>
   </g>
   <g id="text_9">
    <g id="patch_10">
     <path d="M 35.372447 352.410671 
L 106.96604 352.410671 
L 106.96604 335.780358 
L 35.372447 335.780358 
z
" clip-path="url(#pab6fa05d69)" style="fill: #ffffff; opacity: 0.7; stroke: #000000; stroke-linejoin: miter"/>
    </g>
    <g clip-path="url(#pab6fa05d69)">
     <!-- Jim Broadbent -->
     <g transform="translate(39.332447 346.578952)scale(0.09 -0.09)">
      <defs>
       <path id="DejaVuSans-4a" d="M 628 4666 
L 1259 4666 
L 1259 325 
Q 1259 -519 939 -900 
Q 619 -1281 -91 -1281 
L -331 -1281 
L -331 -750 
L -134 -750 
Q 284 -750 456 -515 
Q 628 -281 628 325 
L 628 4666 
z
" transform="scale(0.015625)"/>
      </defs>
      <use xlink:href="#DejaVuSans-4a"/>
      <use xlink:href="#DejaVuSans-69" x="29.492188"/>
      <use xlink:href="#DejaVuSans-6d" x="57.275391"/>
      <use xlink:href="#DejaVuSans-20" x="154.6875"/>
      <use xlink:href="#DejaVuSans-42" x="186.474609"/>
      <use xlink:href="#DejaVuSans-72" x="255.078125"/>
      <use xlink:href="#DejaVuSans-6f" x="293.941406"/>
      <use xlink:href="#DejaVuSans-61" x="355.123047"/>
      <use xlink:href="#DejaVuSans-64" x="416.402344"/>
      <use xlink:href="#DejaVuSans-62" x="479.878906"/>
      <use xlink:href="#DejaVuSans-65" x="543.355469"/>
      <use xlink:href="#DejaVuSans-6e" x="604.878906"/>
      <use xlink:href="#DejaVuSans-74" x="668.257812"/>
     </g>
    </g>
   </g>
   <g id="text_10">
    <g id="patch_11">
     <path d="M 68.073677 433.857565 
L 147.189302 433.857565 
L 147.189302 417.227253 
L 68.073677 417.227253 
z
" clip-path="url(#pab6fa05d69)" style="fill: #ffffff; opacity: 0.7; stroke: #000000; stroke-linejoin: miter"/>
    </g>
    <g clip-path="url(#pab6fa05d69)">
     <!-- Anne Hathaway -->
     <g transform="translate(72.033677 428.025847)scale(0.09 -0.09)">
      <defs>
       <path id="DejaVuSans-68" d="M 3513 2113 
L 3513 0 
L 2938 0 
L 2938 2094 
Q 2938 2591 2744 2837 
Q 2550 3084 2163 3084 
Q 1697 3084 1428 2787 
Q 1159 2491 1159 1978 
L 1159 0 
L 581 0 
L 581 4863 
L 1159 4863 
L 1159 2956 
Q 1366 3272 1645 3428 
Q 1925 3584 2291 3584 
Q 2894 3584 3203 3211 
Q 3513 2838 3513 2113 
z
" transform="scale(0.015625)"/>
      </defs>
      <use xlink:href="#DejaVuSans-41"/>
      <use xlink:href="#DejaVuSans-6e" x="68.408203"/>
      <use xlink:href="#DejaVuSans-6e" x="131.787109"/>
      <use xlink:href="#DejaVuSans-65" x="195.166016"/>
      <use xlink:href="#DejaVuSans-20" x="256.689453"/>
      <use xlink:href="#DejaVuSans-48" x="288.476562"/>
      <use xlink:href="#DejaVuSans-61" x="363.671875"/>
      <use xlink:href="#DejaVuSans-74" x="424.951172"/>
      <use xlink:href="#DejaVuSans-68" x="464.160156"/>
      <use xlink:href="#DejaVuSans-61" x="527.539062"/>
      <use xlink:href="#DejaVuSans-77" x="588.818359"/>
      <use xlink:href="#DejaVuSans-61" x="670.605469"/>
      <use xlink:href="#DejaVuSans-79" x="731.884766"/>
     </g>
    </g>
   </g>
   <g id="text_11">
    <g id="patch_12">
     <path d="M 150.352111 493.513727 
L 198.150549 493.513727 
L 198.150549 476.883414 
L 150.352111 476.883414 
z
" clip-path="url(#pab6fa05d69)" style="fill: #ffffff; opacity: 0.7; stroke: #000000; stroke-linejoin: miter"/>
    </g>
    <g clip-path="url(#pab6fa05d69)">
     <!-- Jim Ward -->
     <g transform="translate(154.312111 487.682008)scale(0.09 -0.09)">
      <defs>
       <path id="DejaVuSans-57" d="M 213 4666 
L 850 4666 
L 1831 722 
L 2809 4666 
L 3519 4666 
L 4500 722 
L 5478 4666 
L 6119 4666 
L 4947 0 
L 4153 0 
L 3169 4050 
L 2175 0 
L 1381 0 
L 213 4666 
z
" transform="scale(0.015625)"/>
      </defs>
      <use xlink:href="#DejaVuSans-4a"/>
      <use xlink:href="#DejaVuSans-69" x="29.492188"/>
      <use xlink:href="#DejaVuSans-6d" x="57.275391"/>
      <use xlink:href="#DejaVuSans-20" x="154.6875"/>
      <use xlink:href="#DejaVuSans-57" x="186.474609"/>
      <use xlink:href="#DejaVuSans-61" x="278.976562"/>
      <use xlink:href="#DejaVuSans-72" x="340.255859"/>
      <use xlink:href="#DejaVuSans-64" x="379.619141"/>
     </g>
    </g>
   </g>
   <g id="text_12">
    <g id="patch_13">
     <path d="M 226.225056 521.06405 
L 292.794118 521.06405 
L 292.794118 504.433738 
L 226.225056 504.433738 
z
" clip-path="url(#pab6fa05d69)" style="fill: #ffffff; opacity: 0.7; stroke: #000000; stroke-linejoin: miter"/>
    </g>
    <g clip-path="url(#pab6fa05d69)">
     <!-- John C. Reilly -->
     <g transform="translate(230.185056 515.232332)scale(0.09 -0.09)">
      <defs>
       <path id="DejaVuSans-2e" d="M 684 794 
L 1344 794 
L 1344 0 
L 684 0 
L 684 794 
z
" transform="scale(0.015625)"/>
      </defs>
      <use xlink:href="#DejaVuSans-4a"/>
      <use xlink:href="#DejaVuSans-6f" x="29.492188"/>
      <use xlink:href="#DejaVuSans-68" x="90.673828"/>
      <use xlink:href="#DejaVuSans-6e" x="154.052734"/>
      <use xlink:href="#DejaVuSans-20" x="217.431641"/>
      <use xlink:href="#DejaVuSans-43" x="249.21875"/>
      <use xlink:href="#DejaVuSans-2e" x="319.042969"/>
      <use xlink:href="#DejaVuSans-20" x="350.830078"/>
      <use xlink:href="#DejaVuSans-52" x="382.617188"/>
      <use xlink:href="#DejaVuSans-65" x="447.599609"/>
      <use xlink:href="#DejaVuSans-69" x="509.123047"/>
      <use xlink:href="#DejaVuSans-6c" x="536.90625"/>
      <use xlink:href="#DejaVuSans-6c" x="564.689453"/>
      <use xlink:href="#DejaVuSans-79" x="592.472656"/>
     </g>
    </g>
   </g>
   <g id="text_13">
    <g id="patch_14">
     <path d="M 313.823776 511.744831 
L 383.50487 511.744831 
L 383.50487 495.114518 
L 313.823776 495.114518 
z
" clip-path="url(#pab6fa05d69)" style="fill: #ffffff; opacity: 0.7; stroke: #000000; stroke-linejoin: miter"/>
    </g>
    <g clip-path="url(#pab6fa05d69)">
     <!-- Cheech Marin -->
     <g transform="translate(317.783776 505.913112)scale(0.09 -0.09)">
      <defs>
       <path id="DejaVuSans-4d" d="M 628 4666 
L 1569 4666 
L 2759 1491 
L 3956 4666 
L 4897 4666 
L 4897 0 
L 4281 0 
L 4281 4097 
L 3078 897 
L 2444 897 
L 1241 4097 
L 1241 0 
L 628 0 
L 628 4666 
z
" transform="scale(0.015625)"/>
      </defs>
      <use xlink:href="#DejaVuSans-43"/>
      <use xlink:href="#DejaVuSans-68" x="69.824219"/>
      <use xlink:href="#DejaVuSans-65" x="133.203125"/>
      <use xlink:href="#DejaVuSans-65" x="194.726562"/>
      <use xlink:href="#DejaVuSans-63" x="256.25"/>
      <use xlink:href="#DejaVuSans-68" x="311.230469"/>
      <use xlink:href="#DejaVuSans-20" x="374.609375"/>
      <use xlink:href="#DejaVuSans-4d" x="406.396484"/>
      <use xlink:href="#DejaVuSans-61" x="492.675781"/>
      <use xlink:href="#DejaVuSans-72" x="553.955078"/>
      <use xlink:href="#DejaVuSans-69" x="595.068359"/>
      <use xlink:href="#DejaVuSans-6e" x="622.851562"/>
     </g>
    </g>
   </g>
   <g id="text_14">
    <g id="patch_15">
     <path d="M 389.848482 467.167441 
L 462.751295 467.167441 
L 462.751295 450.537129 
L 389.848482 450.537129 
z
" clip-path="url(#pab6fa05d69)" style="fill: #ffffff; opacity: 0.7; stroke: #000000; stroke-linejoin: miter"/>
    </g>
    <g clip-path="url(#pab6fa05d69)">
     <!-- Jack Nicholson -->
     <g transform="translate(393.808482 461.335723)scale(0.09 -0.09)">
      <use xlink:href="#DejaVuSans-4a"/>
      <use xlink:href="#DejaVuSans-61" x="29.492188"/>
      <use xlink:href="#DejaVuSans-63" x="90.771484"/>
      <use xlink:href="#DejaVuSans-6b" x="145.751953"/>
      <use xlink:href="#DejaVuSans-20" x="203.662109"/>
      <use xlink:href="#DejaVuSans-4e" x="235.449219"/>
      <use xlink:href="#DejaVuSans-69" x="310.253906"/>
      <use xlink:href="#DejaVuSans-63" x="338.037109"/>
      <use xlink:href="#DejaVuSans-68" x="393.017578"/>
      <use xlink:href="#DejaVuSans-6f" x="456.396484"/>
      <use xlink:href="#DejaVuSans-6c" x="517.578125"/>
      <use xlink:href="#DejaVuSans-73" x="545.361328"/>
      <use xlink:href="#DejaVuSans-6f" x="597.460938"/>
      <use xlink:href="#DejaVuSans-6e" x="658.642578"/>
     </g>
    </g>
   </g>
   <g id="text_15">
    <g id="patch_16">
     <path d="M 443.412842 395.039741 
L 514.571905 395.039741 
L 514.571905 378.409428 
L 443.412842 378.409428 
z
" clip-path="url(#pab6fa05d69)" style="fill: #ffffff; opacity: 0.7; stroke: #000000; stroke-linejoin: miter"/>
    </g>
    <g clip-path="url(#pab6fa05d69)">
     <!-- Adam Sandler -->
     <g transform="translate(447.372842 389.208022)scale(0.09 -0.09)">
      <use xlink:href="#DejaVuSans-41"/>
      <use xlink:href="#DejaVuSans-64" x="66.658203"/>
      <use xlink:href="#DejaVuSans-61" x="130.134766"/>
      <use xlink:href="#DejaVuSans-6d" x="191.414062"/>
      <use xlink:href="#DejaVuSans-20" x="288.826172"/>
      <use xlink:href="#DejaVuSans-53" x="320.613281"/>
      <use xlink:href="#DejaVuSans-61" x="384.089844"/>
      <use xlink:href="#DejaVuSans-6e" x="445.369141"/>
      <use xlink:href="#DejaVuSans-64" x="508.748047"/>
      <use xlink:href="#DejaVuSans-6c" x="572.224609"/>
      <use xlink:href="#DejaVuSans-65" x="600.007812"/>
      <use xlink:href="#DejaVuSans-72" x="661.53125"/>
     </g>
    </g>
   </g>
   <g id="text_16">
    <!-- Impactful actors for Romance Film genre -->
    <g transform="translate(162.285 16.318125)scale(0.12 -0.12)">
     <defs>
      <path id="DejaVuSans-49" d="M 628 4666 
L 1259 4666 
L 1259 0 
L 628 0 
L 628 4666 
z
" transform="scale(0.015625)"/>
      <path id="DejaVuSans-70" d="M 1159 525 
L 1159 -1331 
L 581 -1331 
L 581 3500 
L 1159 3500 
L 1159 2969 
Q 1341 3281 1617 3432 
Q 1894 3584 2278 3584 
Q 2916 3584 3314 3078 
Q 3713 2572 3713 1747 
Q 3713 922 3314 415 
Q 2916 -91 2278 -91 
Q 1894 -91 1617 61 
Q 1341 213 1159 525 
z
M 3116 1747 
Q 3116 2381 2855 2742 
Q 2594 3103 2138 3103 
Q 1681 3103 1420 2742 
Q 1159 2381 1159 1747 
Q 1159 1113 1420 752 
Q 1681 391 2138 391 
Q 2594 391 2855 752 
Q 3116 1113 3116 1747 
z
" transform="scale(0.015625)"/>
      <path id="DejaVuSans-46" d="M 628 4666 
L 3309 4666 
L 3309 4134 
L 1259 4134 
L 1259 2759 
L 3109 2759 
L 3109 2228 
L 1259 2228 
L 1259 0 
L 628 0 
L 628 4666 
z
" transform="scale(0.015625)"/>
     </defs>
     <use xlink:href="#DejaVuSans-49"/>
     <use xlink:href="#DejaVuSans-6d" x="29.492188"/>
     <use xlink:href="#DejaVuSans-70" x="126.904297"/>
     <use xlink:href="#DejaVuSans-61" x="190.380859"/>
     <use xlink:href="#DejaVuSans-63" x="251.660156"/>
     <use xlink:href="#DejaVuSans-74" x="306.640625"/>
     <use xlink:href="#DejaVuSans-66" x="345.849609"/>
     <use xlink:href="#DejaVuSans-75" x="381.054688"/>
     <use xlink:href="#DejaVuSans-6c" x="444.433594"/>
     <use xlink:href="#DejaVuSans-20" x="472.216797"/>
     <use xlink:href="#DejaVuSans-61" x="504.003906"/>
     <use xlink:href="#DejaVuSans-63" x="565.283203"/>
     <use xlink:href="#DejaVuSans-74" x="620.263672"/>
     <use xlink:href="#DejaVuSans-6f" x="659.472656"/>
     <use xlink:href="#DejaVuSans-72" x="720.654297"/>
     <use xlink:href="#DejaVuSans-73" x="761.767578"/>
     <use xlink:href="#DejaVuSans-20" x="813.867188"/>
     <use xlink:href="#DejaVuSans-66" x="845.654297"/>
     <use xlink:href="#DejaVuSans-6f" x="880.859375"/>
     <use xlink:href="#DejaVuSans-72" x="942.041016"/>
     <use xlink:href="#DejaVuSans-20" x="983.154297"/>
     <use xlink:href="#DejaVuSans-52" x="1014.941406"/>
     <use xlink:href="#DejaVuSans-6f" x="1079.923828"/>
     <use xlink:href="#DejaVuSans-6d" x="1141.105469"/>
     <use xlink:href="#DejaVuSans-61" x="1238.517578"/>
     <use xlink:href="#DejaVuSans-6e" x="1299.796875"/>
     <use xlink:href="#DejaVuSans-63" x="1363.175781"/>
     <use xlink:href="#DejaVuSans-65" x="1418.15625"/>
     <use xlink:href="#DejaVuSans-20" x="1479.679688"/>
     <use xlink:href="#DejaVuSans-46" x="1511.466797"/>
     <use xlink:href="#DejaVuSans-69" x="1561.736328"/>
     <use xlink:href="#DejaVuSans-6c" x="1589.519531"/>
     <use xlink:href="#DejaVuSans-6d" x="1617.302734"/>
     <use xlink:href="#DejaVuSans-20" x="1714.714844"/>
     <use xlink:href="#DejaVuSans-67" x="1746.501953"/>
     <use xlink:href="#DejaVuSans-65" x="1809.978516"/>
     <use xlink:href="#DejaVuSans-6e" x="1871.501953"/>
     <use xlink:href="#DejaVuSans-72" x="1934.880859"/>
     <use xlink:href="#DejaVuSans-65" x="1973.744141"/>
    </g>
   </g>
  </g>
 </g>
 <defs>
  <clipPath id="pab6fa05d69">
   <rect x="7.2" y="22.318125" width="554.4" height="554.4"/>
  </clipPath>
 </defs>
</svg>
