<?xml version="1.0" encoding="utf-8" standalone="no"?>
<!DOCTYPE svg PUBLIC "-//W3C//DTD SVG 1.1//EN"
  "http://www.w3.org/Graphics/SVG/1.1/DTD/svg11.dtd">
<svg xmlns:xlink="http://www.w3.org/1999/xlink" width="568.8pt" height="583.918125pt" viewBox="0 0 568.8 583.918125" xmlns="http://www.w3.org/2000/svg" version="1.1">
 <metadata>
  <rdf:RDF xmlns:dc="http://purl.org/dc/elements/1.1/" xmlns:cc="http://creativecommons.org/ns#" xmlns:rdf="http://www.w3.org/1999/02/22-rdf-syntax-ns#">
   <cc:Work>
    <dc:type rdf:resource="http://purl.org/dc/dcmitype/StillImage"/>
    <dc:date>2022-12-23T20:56:50.503061</dc:date>
    <dc:format>image/svg+xml</dc:format>
    <dc:creator>
     <cc:Agent>
      <dc:title>Matplotlib v3.5.3, https://matplotlib.org/</dc:title>
     </cc:Agent>
    </dc:creator>
   </cc:Work>
  </rdf:RDF>
 </metadata>
 <defs>
  <style type="text/css">*{stroke-linejoin: round; stroke-linecap: butt}</style>
 </defs>
 <g id="figure_1">
  <g id="patch_1">
   <path d="M 0 583.918125 
L 568.8 583.918125 
L 568.8 0 
L 0 0 
z
" style="fill: #ffffff"/>
  </g>
  <g id="axes_1">
   <g id="PathCollection_1">
    <path d="M 497.630769 326.904253 
C 504.893655 326.904253 511.86005 324.018678 516.995686 318.883042 
C 522.131322 313.747406 525.016897 306.781011 525.016897 299.518125 
C 525.016897 292.255239 522.131322 285.288844 516.995686 280.153208 
C 511.86005 275.017572 504.893655 272.131997 497.630769 272.131997 
C 490.367883 272.131997 483.401488 275.017572 478.265852 280.153208 
C 473.130217 285.288844 470.244641 292.255239 470.244641 299.518125 
C 470.244641 306.781011 473.130217 313.747406 478.265852 318.883042 
C 483.401488 324.018678 490.367883 326.904253 497.630769 326.904253 
z
" clip-path="url(#pa05938f96a)" style="fill: #c70039; fill-opacity: 0.99; stroke: #c70039; stroke-opacity: 0.99"/>
    <path d="M 478.992348 234.580036 
C 484.897997 234.580036 490.562562 232.233697 494.738486 228.057772 
C 498.914411 223.881847 501.26075 218.217283 501.26075 212.311633 
C 501.26075 206.405984 498.914411 200.74142 494.738486 196.565495 
C 490.562562 192.38957 484.897997 190.043231 478.992348 190.043231 
C 473.086698 190.043231 467.422134 192.38957 463.246209 196.565495 
C 459.070285 200.74142 456.723945 206.405984 456.723945 212.311633 
C 456.723945 218.217283 459.070285 223.881847 463.246209 228.057772 
C 467.422134 232.233697 473.086698 234.580036 478.992348 234.580036 
z
" clip-path="url(#pa05938f96a)" style="fill: #c70039; fill-opacity: 0.99; stroke: #c70039; stroke-opacity: 0.99"/>
    <path d="M 426.29985 161.956089 
C 432.073895 161.956089 437.612227 159.662036 441.695093 155.57917 
C 445.77796 151.496304 448.072012 145.957972 448.072012 140.183927 
C 448.072012 134.409882 445.77796 128.871549 441.695093 124.788683 
C 437.612227 120.705817 432.073895 118.411764 426.29985 118.411764 
C 420.525805 118.411764 414.987473 120.705817 410.904606 124.788683 
C 406.82174 128.871549 404.527688 134.409882 404.527688 140.183927 
C 404.527688 145.957972 406.82174 151.496304 410.904606 155.57917 
C 414.987473 159.662036 420.525805 161.956089 426.29985 161.956089 
z
" clip-path="url(#pa05938f96a)" style="fill: #c70039; fill-opacity: 0.99; stroke: #c70039; stroke-opacity: 0.99"/>
    <path d="M 348.664291 117.358163 
C 354.432883 117.358163 359.965985 115.066277 364.044995 110.987267 
C 368.124006 106.908256 370.415891 101.375154 370.415891 95.606563 
C 370.415891 89.837971 368.124006 84.304869 364.044995 80.225859 
C 359.965985 76.146848 354.432883 73.854963 348.664291 73.854963 
C 342.895699 73.854963 337.362598 76.146848 333.283587 80.225859 
C 329.204577 84.304869 326.912691 89.837971 326.912691 95.606563 
C 326.912691 101.375154 329.204577 106.908256 333.283587 110.987267 
C 337.362598 115.066277 342.895699 117.358163 348.664291 117.358163 
z
" clip-path="url(#pa05938f96a)" style="fill: #c70039; fill-opacity: 0.99; stroke: #c70039; stroke-opacity: 0.99"/>
    <path d="M 259.509549 107.323035 
C 265.088276 107.323035 270.439264 105.106583 274.38402 101.161827 
C 278.328776 97.217071 280.545227 91.866083 280.545227 86.287356 
C 280.545227 80.708629 278.328776 75.35764 274.38402 71.412885 
C 270.439264 67.468129 265.088276 65.251677 259.509549 65.251677 
C 253.930821 65.251677 248.579833 67.468129 244.635077 71.412885 
C 240.690322 75.35764 238.47387 80.708629 238.47387 86.287356 
C 238.47387 91.866083 240.690322 97.217071 244.635077 101.161827 
C 248.579833 105.106583 253.930821 107.323035 259.509549 107.323035 
z
" clip-path="url(#pa05938f96a)" style="fill: #c70039; fill-opacity: 0.99; stroke: #c70039; stroke-opacity: 0.99"/>
    <path d="M 174.251298 134.581303 
C 179.752568 134.581303 185.02926 132.395625 188.919246 128.50564 
C 192.809231 124.615655 194.994908 119.338962 194.994908 113.837692 
C 194.994908 108.336423 192.809231 103.05973 188.919246 99.169745 
C 185.02926 95.27976 179.752568 93.094082 174.251298 93.094082 
C 168.750028 93.094082 163.473336 95.27976 159.583351 99.169745 
C 155.693365 103.05973 153.507688 108.336423 153.507688 113.837692 
C 153.507688 119.338962 155.693365 124.615655 159.583351 128.50564 
C 163.473336 132.395625 168.750028 134.581303 174.251298 134.581303 
z
" clip-path="url(#pa05938f96a)" style="fill: #c70039; fill-opacity: 0.99; stroke: #c70039; stroke-opacity: 0.99"/>
    <path d="M 107.631477 194.098299 
C 113.09584 194.098299 118.337132 191.927285 122.20102 188.063397 
C 126.064908 184.199509 128.235923 178.958217 128.235923 173.493854 
C 128.235923 168.029491 126.064908 162.788198 122.20102 158.92431 
C 118.337132 155.060422 113.09584 152.889408 107.631477 152.889408 
C 102.167114 152.889408 96.925822 155.060422 93.061934 158.92431 
C 89.198046 162.788198 87.027031 168.029491 87.027031 173.493854 
C 87.027031 178.958217 89.198046 184.199509 93.061934 188.063397 
C 96.925822 191.927285 102.167114 194.098299 107.631477 194.098299 
z
" clip-path="url(#pa05938f96a)" style="fill: #c70039; fill-opacity: 0.99; stroke: #c70039; stroke-opacity: 0.99"/>
    <path d="M 71.169231 275.362656 
C 76.585177 275.362656 81.78003 273.210878 85.609682 269.381226 
C 89.439335 265.551573 91.591113 260.35672 91.591113 254.940774 
C 91.591113 249.524827 89.439335 244.329975 85.609682 240.500322 
C 81.78003 236.67067 76.585177 234.518891 71.169231 234.518891 
C 65.753284 234.518891 60.558432 236.67067 56.728779 240.500322 
C 52.899127 244.329975 50.747348 249.524827 50.747348 254.940774 
C 50.747348 260.35672 52.899127 265.551573 56.728779 269.381226 
C 60.558432 273.210878 65.753284 275.362656 71.169231 275.362656 
z
" clip-path="url(#pa05938f96a)" style="fill: #c70039; fill-opacity: 0.99; stroke: #c70039; stroke-opacity: 0.99"/>
    <path d="M 71.169244 364.293785 
C 76.525888 364.293785 81.663859 362.165568 85.451578 358.377849 
C 89.239297 354.590129 91.367515 349.452159 91.367515 344.095514 
C 91.367515 338.73887 89.239297 333.600899 85.451578 329.81318 
C 81.663859 326.025461 76.525888 323.897244 71.169244 323.897244 
C 65.8126 323.897244 60.674629 326.025461 56.886909 329.81318 
C 53.09919 333.600899 50.970973 338.73887 50.970973 344.095514 
C 50.970973 349.452159 53.09919 354.590129 56.886909 358.377849 
C 60.674629 362.165568 65.8126 364.293785 71.169244 364.293785 
z
" clip-path="url(#pa05938f96a)" style="fill: #c70039; fill-opacity: 0.99; stroke: #c70039; stroke-opacity: 0.99"/>
    <path d="M 107.63149 445.395792 
C 112.896668 445.395792 117.946908 443.303914 121.669951 439.580871 
C 125.392995 435.857827 127.484873 430.807588 127.484873 425.542409 
C 127.484873 420.27723 125.392995 415.226991 121.669951 411.503948 
C 117.946908 407.780904 112.896668 405.689026 107.63149 405.689026 
C 102.366311 405.689026 97.316072 407.780904 93.593028 411.503948 
C 89.869985 415.226991 87.778107 420.27723 87.778107 425.542409 
C 87.778107 430.807588 89.869985 435.857827 93.593028 439.580871 
C 97.316072 443.303914 102.366311 445.395792 107.63149 445.395792 
z
" clip-path="url(#pa05938f96a)" style="fill: #c70039; fill-opacity: 0.99; stroke: #c70039; stroke-opacity: 0.99"/>
    <path d="M 174.25133 504.999391 
C 179.502569 504.999391 184.539438 502.913051 188.252624 499.199865 
C 191.965811 495.486678 194.05215 490.449809 194.05215 485.198571 
C 194.05215 479.947332 191.965811 474.910463 188.252624 471.197276 
C 184.539438 467.48409 179.502569 465.397751 174.25133 465.397751 
C 169.000091 465.397751 163.963223 467.48409 160.250036 471.197276 
C 156.53685 474.910463 154.45051 479.947332 154.45051 485.198571 
C 154.45051 490.449809 156.53685 495.486678 160.250036 499.199865 
C 163.963223 502.913051 169.000091 504.999391 174.25133 504.999391 
z
" clip-path="url(#pa05938f96a)" style="fill: #c70039; fill-opacity: 0.99; stroke: #c70039; stroke-opacity: 0.99"/>
    <path d="M 259.509587 532.41948 
C 264.726288 532.41948 269.730028 530.346863 273.418792 526.658099 
C 277.107556 522.969335 279.180173 517.965595 279.180173 512.748894 
C 279.180173 507.532194 277.107556 502.528454 273.418792 498.839689 
C 269.730028 495.150925 264.726288 493.078308 259.509587 493.078308 
C 254.292887 493.078308 249.289147 495.150925 245.600382 498.839689 
C 241.911618 502.528454 239.839001 507.532194 239.839001 512.748894 
C 239.839001 517.965595 241.911618 522.969335 245.600382 526.658099 
C 249.289147 530.346863 254.292887 532.41948 259.509587 532.41948 
z
" clip-path="url(#pa05938f96a)" style="fill: #c70039; fill-opacity: 0.99; stroke: #c70039; stroke-opacity: 0.99"/>
    <path d="M 348.664323 523.078959 
C 353.875374 523.078959 358.873696 521.008586 362.558465 517.323817 
C 366.243235 513.639047 368.313608 508.640726 368.313608 503.429675 
C 368.313608 498.218623 366.243235 493.220302 362.558465 489.535532 
C 358.873696 485.850763 353.875374 483.78039 348.664323 483.78039 
C 343.453272 483.78039 338.454951 485.850763 334.770181 489.535532 
C 331.085412 493.220302 329.015039 498.218623 329.015039 503.429675 
C 329.015039 508.640726 331.085412 513.639047 334.770181 517.323817 
C 338.454951 521.008586 343.453272 523.078959 348.664323 523.078959 
z
" clip-path="url(#pa05938f96a)" style="fill: #c70039; fill-opacity: 0.99; stroke: #c70039; stroke-opacity: 0.99"/>
    <path d="M 426.299888 478.292458 
C 431.455482 478.292458 436.400611 476.244119 440.046166 472.598563 
C 443.691722 468.953007 445.740061 464.007879 445.740061 458.852285 
C 445.740061 453.696691 443.691722 448.751563 440.046166 445.106007 
C 436.400611 441.460452 431.455482 439.412112 426.299888 439.412112 
C 421.144294 439.412112 416.199166 441.460452 412.55361 445.106007 
C 408.908055 448.751563 406.859716 453.696691 406.859716 458.852285 
C 406.859716 464.007879 408.908055 468.953007 412.55361 472.598563 
C 416.199166 476.244119 421.144294 478.292458 426.299888 478.292458 
z
" clip-path="url(#pa05938f96a)" style="fill: #c70039; fill-opacity: 0.99; stroke: #c70039; stroke-opacity: 0.99"/>
    <path d="M 478.992374 406.089501 
C 484.128009 406.089501 489.053994 404.049092 492.685437 400.417649 
C 496.31688 396.786206 498.35729 391.860221 498.35729 386.724585 
C 498.35729 381.588949 496.31688 376.662964 492.685437 373.031521 
C 489.053994 369.400078 484.128009 367.359668 478.992374 367.359668 
C 473.856738 367.359668 468.930753 369.400078 465.29931 373.031521 
C 461.667867 376.662964 459.627457 381.588949 459.627457 386.724585 
C 459.627457 391.860221 461.667867 396.786206 465.29931 400.417649 
C 468.930753 404.049092 473.856738 406.089501 478.992374 406.089501 
z
" clip-path="url(#pa05938f96a)" style="fill: #c70039; fill-opacity: 0.99; stroke: #c70039; stroke-opacity: 0.99"/>
   </g>
   <g id="text_1">
    <g id="patch_2">
     <path d="M 460.540222 307.833281 
L 534.721316 307.833281 
L 534.721316 291.202969 
L 460.540222 291.202969 
z
" clip-path="url(#pa05938f96a)" style="fill: #ffffff; opacity: 0.7; stroke: #000000; stroke-linejoin: miter"/>
    </g>
    <g clip-path="url(#pa05938f96a)">
     <!-- Robert De Niro -->
     <g transform="translate(464.500222 302.001562)scale(0.09 -0.09)">
      <defs>
       <path id="DejaVuSans-52" d="M 2841 2188 
Q 3044 2119 3236 1894 
Q 3428 1669 3622 1275 
L 4263 0 
L 3584 0 
L 2988 1197 
Q 2756 1666 2539 1819 
Q 2322 1972 1947 1972 
L 1259 1972 
L 1259 0 
L 628 0 
L 628 4666 
L 2053 4666 
Q 2853 4666 3247 4331 
Q 3641 3997 3641 3322 
Q 3641 2881 3436 2590 
Q 3231 2300 2841 2188 
z
M 1259 4147 
L 1259 2491 
L 2053 2491 
Q 2509 2491 2742 2702 
Q 2975 2913 2975 3322 
Q 2975 3731 2742 3939 
Q 2509 4147 2053 4147 
L 1259 4147 
z
" transform="scale(0.015625)"/>
       <path id="DejaVuSans-6f" d="M 1959 3097 
Q 1497 3097 1228 2736 
Q 959 2375 959 1747 
Q 959 1119 1226 758 
Q 1494 397 1959 397 
Q 2419 397 2687 759 
Q 2956 1122 2956 1747 
Q 2956 2369 2687 2733 
Q 2419 3097 1959 3097 
z
M 1959 3584 
Q 2709 3584 3137 3096 
Q 3566 2609 3566 1747 
Q 3566 888 3137 398 
Q 2709 -91 1959 -91 
Q 1206 -91 779 398 
Q 353 888 353 1747 
Q 353 2609 779 3096 
Q 1206 3584 1959 3584 
z
" transform="scale(0.015625)"/>
       <path id="DejaVuSans-62" d="M 3116 1747 
Q 3116 2381 2855 2742 
Q 2594 3103 2138 3103 
Q 1681 3103 1420 2742 
Q 1159 2381 1159 1747 
Q 1159 1113 1420 752 
Q 1681 391 2138 391 
Q 2594 391 2855 752 
Q 3116 1113 3116 1747 
z
M 1159 2969 
Q 1341 3281 1617 3432 
Q 1894 3584 2278 3584 
Q 2916 3584 3314 3078 
Q 3713 2572 3713 1747 
Q 3713 922 3314 415 
Q 2916 -91 2278 -91 
Q 1894 -91 1617 61 
Q 1341 213 1159 525 
L 1159 0 
L 581 0 
L 581 4863 
L 1159 4863 
L 1159 2969 
z
" transform="scale(0.015625)"/>
       <path id="DejaVuSans-65" d="M 3597 1894 
L 3597 1613 
L 953 1613 
Q 991 1019 1311 708 
Q 1631 397 2203 397 
Q 2534 397 2845 478 
Q 3156 559 3463 722 
L 3463 178 
Q 3153 47 2828 -22 
Q 2503 -91 2169 -91 
Q 1331 -91 842 396 
Q 353 884 353 1716 
Q 353 2575 817 3079 
Q 1281 3584 2069 3584 
Q 2775 3584 3186 3129 
Q 3597 2675 3597 1894 
z
M 3022 2063 
Q 3016 2534 2758 2815 
Q 2500 3097 2075 3097 
Q 1594 3097 1305 2825 
Q 1016 2553 972 2059 
L 3022 2063 
z
" transform="scale(0.015625)"/>
       <path id="DejaVuSans-72" d="M 2631 2963 
Q 2534 3019 2420 3045 
Q 2306 3072 2169 3072 
Q 1681 3072 1420 2755 
Q 1159 2438 1159 1844 
L 1159 0 
L 581 0 
L 581 3500 
L 1159 3500 
L 1159 2956 
Q 1341 3275 1631 3429 
Q 1922 3584 2338 3584 
Q 2397 3584 2469 3576 
Q 2541 3569 2628 3553 
L 2631 2963 
z
" transform="scale(0.015625)"/>
       <path id="DejaVuSans-74" d="M 1172 4494 
L 1172 3500 
L 2356 3500 
L 2356 3053 
L 1172 3053 
L 1172 1153 
Q 1172 725 1289 603 
Q 1406 481 1766 481 
L 2356 481 
L 2356 0 
L 1766 0 
Q 1100 0 847 248 
Q 594 497 594 1153 
L 594 3053 
L 172 3053 
L 172 3500 
L 594 3500 
L 594 4494 
L 1172 4494 
z
" transform="scale(0.015625)"/>
       <path id="DejaVuSans-20" transform="scale(0.015625)"/>
       <path id="DejaVuSans-44" d="M 1259 4147 
L 1259 519 
L 2022 519 
Q 2988 519 3436 956 
Q 3884 1394 3884 2338 
Q 3884 3275 3436 3711 
Q 2988 4147 2022 4147 
L 1259 4147 
z
M 628 4666 
L 1925 4666 
Q 3281 4666 3915 4102 
Q 4550 3538 4550 2338 
Q 4550 1131 3912 565 
Q 3275 0 1925 0 
L 628 0 
L 628 4666 
z
" transform="scale(0.015625)"/>
       <path id="DejaVuSans-4e" d="M 628 4666 
L 1478 4666 
L 3547 763 
L 3547 4666 
L 4159 4666 
L 4159 0 
L 3309 0 
L 1241 3903 
L 1241 0 
L 628 0 
L 628 4666 
z
" transform="scale(0.015625)"/>
       <path id="DejaVuSans-69" d="M 603 3500 
L 1178 3500 
L 1178 0 
L 603 0 
L 603 3500 
z
M 603 4863 
L 1178 4863 
L 1178 4134 
L 603 4134 
L 603 4863 
z
" transform="scale(0.015625)"/>
      </defs>
      <use xlink:href="#DejaVuSans-52"/>
      <use xlink:href="#DejaVuSans-6f" x="64.982422"/>
      <use xlink:href="#DejaVuSans-62" x="126.164062"/>
      <use xlink:href="#DejaVuSans-65" x="189.640625"/>
      <use xlink:href="#DejaVuSans-72" x="251.164062"/>
      <use xlink:href="#DejaVuSans-74" x="292.277344"/>
      <use xlink:href="#DejaVuSans-20" x="331.486328"/>
      <use xlink:href="#DejaVuSans-44" x="363.273438"/>
      <use xlink:href="#DejaVuSans-65" x="440.275391"/>
      <use xlink:href="#DejaVuSans-20" x="501.798828"/>
      <use xlink:href="#DejaVuSans-4e" x="533.585938"/>
      <use xlink:href="#DejaVuSans-69" x="608.390625"/>
      <use xlink:href="#DejaVuSans-72" x="636.173828"/>
      <use xlink:href="#DejaVuSans-6f" x="675.037109"/>
     </g>
    </g>
   </g>
   <g id="text_2">
    <g id="patch_3">
     <path d="M 446.009457 220.62679 
L 511.975238 220.62679 
L 511.975238 203.996477 
L 446.009457 203.996477 
z
" clip-path="url(#pa05938f96a)" style="fill: #ffffff; opacity: 0.7; stroke: #000000; stroke-linejoin: miter"/>
    </g>
    <g clip-path="url(#pa05938f96a)">
     <!-- Frank Welker -->
     <g transform="translate(449.969457 214.795071)scale(0.09 -0.09)">
      <defs>
       <path id="DejaVuSans-46" d="M 628 4666 
L 3309 4666 
L 3309 4134 
L 1259 4134 
L 1259 2759 
L 3109 2759 
L 3109 2228 
L 1259 2228 
L 1259 0 
L 628 0 
L 628 4666 
z
" transform="scale(0.015625)"/>
       <path id="DejaVuSans-61" d="M 2194 1759 
Q 1497 1759 1228 1600 
Q 959 1441 959 1056 
Q 959 750 1161 570 
Q 1363 391 1709 391 
Q 2188 391 2477 730 
Q 2766 1069 2766 1631 
L 2766 1759 
L 2194 1759 
z
M 3341 1997 
L 3341 0 
L 2766 0 
L 2766 531 
Q 2569 213 2275 61 
Q 1981 -91 1556 -91 
Q 1019 -91 701 211 
Q 384 513 384 1019 
Q 384 1609 779 1909 
Q 1175 2209 1959 2209 
L 2766 2209 
L 2766 2266 
Q 2766 2663 2505 2880 
Q 2244 3097 1772 3097 
Q 1472 3097 1187 3025 
Q 903 2953 641 2809 
L 641 3341 
Q 956 3463 1253 3523 
Q 1550 3584 1831 3584 
Q 2591 3584 2966 3190 
Q 3341 2797 3341 1997 
z
" transform="scale(0.015625)"/>
       <path id="DejaVuSans-6e" d="M 3513 2113 
L 3513 0 
L 2938 0 
L 2938 2094 
Q 2938 2591 2744 2837 
Q 2550 3084 2163 3084 
Q 1697 3084 1428 2787 
Q 1159 2491 1159 1978 
L 1159 0 
L 581 0 
L 581 3500 
L 1159 3500 
L 1159 2956 
Q 1366 3272 1645 3428 
Q 1925 3584 2291 3584 
Q 2894 3584 3203 3211 
Q 3513 2838 3513 2113 
z
" transform="scale(0.015625)"/>
       <path id="DejaVuSans-6b" d="M 581 4863 
L 1159 4863 
L 1159 1991 
L 2875 3500 
L 3609 3500 
L 1753 1863 
L 3688 0 
L 2938 0 
L 1159 1709 
L 1159 0 
L 581 0 
L 581 4863 
z
" transform="scale(0.015625)"/>
       <path id="DejaVuSans-57" d="M 213 4666 
L 850 4666 
L 1831 722 
L 2809 4666 
L 3519 4666 
L 4500 722 
L 5478 4666 
L 6119 4666 
L 4947 0 
L 4153 0 
L 3169 4050 
L 2175 0 
L 1381 0 
L 213 4666 
z
" transform="scale(0.015625)"/>
       <path id="DejaVuSans-6c" d="M 603 4863 
L 1178 4863 
L 1178 0 
L 603 0 
L 603 4863 
z
" transform="scale(0.015625)"/>
      </defs>
      <use xlink:href="#DejaVuSans-46"/>
      <use xlink:href="#DejaVuSans-72" x="50.269531"/>
      <use xlink:href="#DejaVuSans-61" x="91.382812"/>
      <use xlink:href="#DejaVuSans-6e" x="152.662109"/>
      <use xlink:href="#DejaVuSans-6b" x="216.041016"/>
      <use xlink:href="#DejaVuSans-20" x="273.951172"/>
      <use xlink:href="#DejaVuSans-57" x="305.738281"/>
      <use xlink:href="#DejaVuSans-65" x="398.740234"/>
      <use xlink:href="#DejaVuSans-6c" x="460.263672"/>
      <use xlink:href="#DejaVuSans-6b" x="488.046875"/>
      <use xlink:href="#DejaVuSans-65" x="542.332031"/>
      <use xlink:href="#DejaVuSans-72" x="603.855469"/>
     </g>
    </g>
   </g>
   <g id="text_3">
    <g id="patch_4">
     <path d="M 402.678365 148.499083 
L 449.921334 148.499083 
L 449.921334 131.86877 
L 402.678365 131.86877 
z
" clip-path="url(#pa05938f96a)" style="fill: #ffffff; opacity: 0.7; stroke: #000000; stroke-linejoin: miter"/>
    </g>
    <g clip-path="url(#pa05938f96a)">
     <!-- Frank Oz -->
     <g transform="translate(406.638365 142.667364)scale(0.09 -0.09)">
      <defs>
       <path id="DejaVuSans-4f" d="M 2522 4238 
Q 1834 4238 1429 3725 
Q 1025 3213 1025 2328 
Q 1025 1447 1429 934 
Q 1834 422 2522 422 
Q 3209 422 3611 934 
Q 4013 1447 4013 2328 
Q 4013 3213 3611 3725 
Q 3209 4238 2522 4238 
z
M 2522 4750 
Q 3503 4750 4090 4092 
Q 4678 3434 4678 2328 
Q 4678 1225 4090 567 
Q 3503 -91 2522 -91 
Q 1538 -91 948 565 
Q 359 1222 359 2328 
Q 359 3434 948 4092 
Q 1538 4750 2522 4750 
z
" transform="scale(0.015625)"/>
       <path id="DejaVuSans-7a" d="M 353 3500 
L 3084 3500 
L 3084 2975 
L 922 459 
L 3084 459 
L 3084 0 
L 275 0 
L 275 525 
L 2438 3041 
L 353 3041 
L 353 3500 
z
" transform="scale(0.015625)"/>
      </defs>
      <use xlink:href="#DejaVuSans-46"/>
      <use xlink:href="#DejaVuSans-72" x="50.269531"/>
      <use xlink:href="#DejaVuSans-61" x="91.382812"/>
      <use xlink:href="#DejaVuSans-6e" x="152.662109"/>
      <use xlink:href="#DejaVuSans-6b" x="216.041016"/>
      <use xlink:href="#DejaVuSans-20" x="273.951172"/>
      <use xlink:href="#DejaVuSans-4f" x="305.738281"/>
      <use xlink:href="#DejaVuSans-7a" x="384.449219"/>
     </g>
    </g>
   </g>
   <g id="text_4">
    <g id="patch_5">
     <path d="M 312.212885 103.921719 
L 385.115697 103.921719 
L 385.115697 87.291406 
L 312.212885 87.291406 
z
" clip-path="url(#pa05938f96a)" style="fill: #ffffff; opacity: 0.7; stroke: #000000; stroke-linejoin: miter"/>
    </g>
    <g clip-path="url(#pa05938f96a)">
     <!-- Jack Nicholson -->
     <g transform="translate(316.172885 98.09)scale(0.09 -0.09)">
      <defs>
       <path id="DejaVuSans-4a" d="M 628 4666 
L 1259 4666 
L 1259 325 
Q 1259 -519 939 -900 
Q 619 -1281 -91 -1281 
L -331 -1281 
L -331 -750 
L -134 -750 
Q 284 -750 456 -515 
Q 628 -281 628 325 
L 628 4666 
z
" transform="scale(0.015625)"/>
       <path id="DejaVuSans-63" d="M 3122 3366 
L 3122 2828 
Q 2878 2963 2633 3030 
Q 2388 3097 2138 3097 
Q 1578 3097 1268 2742 
Q 959 2388 959 1747 
Q 959 1106 1268 751 
Q 1578 397 2138 397 
Q 2388 397 2633 464 
Q 2878 531 3122 666 
L 3122 134 
Q 2881 22 2623 -34 
Q 2366 -91 2075 -91 
Q 1284 -91 818 406 
Q 353 903 353 1747 
Q 353 2603 823 3093 
Q 1294 3584 2113 3584 
Q 2378 3584 2631 3529 
Q 2884 3475 3122 3366 
z
" transform="scale(0.015625)"/>
       <path id="DejaVuSans-68" d="M 3513 2113 
L 3513 0 
L 2938 0 
L 2938 2094 
Q 2938 2591 2744 2837 
Q 2550 3084 2163 3084 
Q 1697 3084 1428 2787 
Q 1159 2491 1159 1978 
L 1159 0 
L 581 0 
L 581 4863 
L 1159 4863 
L 1159 2956 
Q 1366 3272 1645 3428 
Q 1925 3584 2291 3584 
Q 2894 3584 3203 3211 
Q 3513 2838 3513 2113 
z
" transform="scale(0.015625)"/>
       <path id="DejaVuSans-73" d="M 2834 3397 
L 2834 2853 
Q 2591 2978 2328 3040 
Q 2066 3103 1784 3103 
Q 1356 3103 1142 2972 
Q 928 2841 928 2578 
Q 928 2378 1081 2264 
Q 1234 2150 1697 2047 
L 1894 2003 
Q 2506 1872 2764 1633 
Q 3022 1394 3022 966 
Q 3022 478 2636 193 
Q 2250 -91 1575 -91 
Q 1294 -91 989 -36 
Q 684 19 347 128 
L 347 722 
Q 666 556 975 473 
Q 1284 391 1588 391 
Q 1994 391 2212 530 
Q 2431 669 2431 922 
Q 2431 1156 2273 1281 
Q 2116 1406 1581 1522 
L 1381 1569 
Q 847 1681 609 1914 
Q 372 2147 372 2553 
Q 372 3047 722 3315 
Q 1072 3584 1716 3584 
Q 2034 3584 2315 3537 
Q 2597 3491 2834 3397 
z
" transform="scale(0.015625)"/>
      </defs>
      <use xlink:href="#DejaVuSans-4a"/>
      <use xlink:href="#DejaVuSans-61" x="29.492188"/>
      <use xlink:href="#DejaVuSans-63" x="90.771484"/>
      <use xlink:href="#DejaVuSans-6b" x="145.751953"/>
      <use xlink:href="#DejaVuSans-20" x="203.662109"/>
      <use xlink:href="#DejaVuSans-4e" x="235.449219"/>
      <use xlink:href="#DejaVuSans-69" x="310.253906"/>
      <use xlink:href="#DejaVuSans-63" x="338.037109"/>
      <use xlink:href="#DejaVuSans-68" x="393.017578"/>
      <use xlink:href="#DejaVuSans-6f" x="456.396484"/>
      <use xlink:href="#DejaVuSans-6c" x="517.578125"/>
      <use xlink:href="#DejaVuSans-73" x="545.361328"/>
      <use xlink:href="#DejaVuSans-6f" x="597.460938"/>
      <use xlink:href="#DejaVuSans-6e" x="658.642578"/>
     </g>
    </g>
   </g>
   <g id="text_5">
    <g id="patch_6">
     <path d="M 224.211267 94.602512 
L 294.80783 94.602512 
L 294.80783 77.9722 
L 224.211267 77.9722 
z
" clip-path="url(#pa05938f96a)" style="fill: #ffffff; opacity: 0.7; stroke: #000000; stroke-linejoin: miter"/>
    </g>
    <g clip-path="url(#pa05938f96a)">
     <!-- Orlando Jones -->
     <g transform="translate(228.171267 88.770793)scale(0.09 -0.09)">
      <defs>
       <path id="DejaVuSans-64" d="M 2906 2969 
L 2906 4863 
L 3481 4863 
L 3481 0 
L 2906 0 
L 2906 525 
Q 2725 213 2448 61 
Q 2172 -91 1784 -91 
Q 1150 -91 751 415 
Q 353 922 353 1747 
Q 353 2572 751 3078 
Q 1150 3584 1784 3584 
Q 2172 3584 2448 3432 
Q 2725 3281 2906 2969 
z
M 947 1747 
Q 947 1113 1208 752 
Q 1469 391 1925 391 
Q 2381 391 2643 752 
Q 2906 1113 2906 1747 
Q 2906 2381 2643 2742 
Q 2381 3103 1925 3103 
Q 1469 3103 1208 2742 
Q 947 2381 947 1747 
z
" transform="scale(0.015625)"/>
      </defs>
      <use xlink:href="#DejaVuSans-4f"/>
      <use xlink:href="#DejaVuSans-72" x="78.710938"/>
      <use xlink:href="#DejaVuSans-6c" x="119.824219"/>
      <use xlink:href="#DejaVuSans-61" x="147.607422"/>
      <use xlink:href="#DejaVuSans-6e" x="208.886719"/>
      <use xlink:href="#DejaVuSans-64" x="272.265625"/>
      <use xlink:href="#DejaVuSans-6f" x="335.742188"/>
      <use xlink:href="#DejaVuSans-20" x="396.923828"/>
      <use xlink:href="#DejaVuSans-4a" x="428.710938"/>
      <use xlink:href="#DejaVuSans-6f" x="458.203125"/>
      <use xlink:href="#DejaVuSans-6e" x="519.384766"/>
      <use xlink:href="#DejaVuSans-65" x="582.763672"/>
      <use xlink:href="#DejaVuSans-73" x="644.287109"/>
     </g>
    </g>
   </g>
   <g id="text_6">
    <g id="patch_7">
     <path d="M 141.139032 122.152849 
L 207.363564 122.152849 
L 207.363564 105.522536 
L 141.139032 105.522536 
z
" clip-path="url(#pa05938f96a)" style="fill: #ffffff; opacity: 0.7; stroke: #000000; stroke-linejoin: miter"/>
    </g>
    <g clip-path="url(#pa05938f96a)">
     <!-- Nicolas Cage -->
     <g transform="translate(145.099032 116.32113)scale(0.09 -0.09)">
      <defs>
       <path id="DejaVuSans-43" d="M 4122 4306 
L 4122 3641 
Q 3803 3938 3442 4084 
Q 3081 4231 2675 4231 
Q 1875 4231 1450 3742 
Q 1025 3253 1025 2328 
Q 1025 1406 1450 917 
Q 1875 428 2675 428 
Q 3081 428 3442 575 
Q 3803 722 4122 1019 
L 4122 359 
Q 3791 134 3420 21 
Q 3050 -91 2638 -91 
Q 1578 -91 968 557 
Q 359 1206 359 2328 
Q 359 3453 968 4101 
Q 1578 4750 2638 4750 
Q 3056 4750 3426 4639 
Q 3797 4528 4122 4306 
z
" transform="scale(0.015625)"/>
       <path id="DejaVuSans-67" d="M 2906 1791 
Q 2906 2416 2648 2759 
Q 2391 3103 1925 3103 
Q 1463 3103 1205 2759 
Q 947 2416 947 1791 
Q 947 1169 1205 825 
Q 1463 481 1925 481 
Q 2391 481 2648 825 
Q 2906 1169 2906 1791 
z
M 3481 434 
Q 3481 -459 3084 -895 
Q 2688 -1331 1869 -1331 
Q 1566 -1331 1297 -1286 
Q 1028 -1241 775 -1147 
L 775 -588 
Q 1028 -725 1275 -790 
Q 1522 -856 1778 -856 
Q 2344 -856 2625 -561 
Q 2906 -266 2906 331 
L 2906 616 
Q 2728 306 2450 153 
Q 2172 0 1784 0 
Q 1141 0 747 490 
Q 353 981 353 1791 
Q 353 2603 747 3093 
Q 1141 3584 1784 3584 
Q 2172 3584 2450 3431 
Q 2728 3278 2906 2969 
L 2906 3500 
L 3481 3500 
L 3481 434 
z
" transform="scale(0.015625)"/>
      </defs>
      <use xlink:href="#DejaVuSans-4e"/>
      <use xlink:href="#DejaVuSans-69" x="74.804688"/>
      <use xlink:href="#DejaVuSans-63" x="102.587891"/>
      <use xlink:href="#DejaVuSans-6f" x="157.568359"/>
      <use xlink:href="#DejaVuSans-6c" x="218.75"/>
      <use xlink:href="#DejaVuSans-61" x="246.533203"/>
      <use xlink:href="#DejaVuSans-73" x="307.8125"/>
      <use xlink:href="#DejaVuSans-20" x="359.912109"/>
      <use xlink:href="#DejaVuSans-43" x="391.699219"/>
      <use xlink:href="#DejaVuSans-61" x="461.523438"/>
      <use xlink:href="#DejaVuSans-67" x="522.802734"/>
      <use xlink:href="#DejaVuSans-65" x="586.279297"/>
     </g>
    </g>
   </g>
   <g id="text_7">
    <g id="patch_8">
     <path d="M 65.826477 181.80901 
L 149.436477 181.80901 
L 149.436477 165.178697 
L 65.826477 165.178697 
z
" clip-path="url(#pa05938f96a)" style="fill: #ffffff; opacity: 0.7; stroke: #000000; stroke-linejoin: miter"/>
    </g>
    <g clip-path="url(#pa05938f96a)">
     <!-- Morgan Freeman -->
     <g transform="translate(69.786477 175.977291)scale(0.09 -0.09)">
      <defs>
       <path id="DejaVuSans-4d" d="M 628 4666 
L 1569 4666 
L 2759 1491 
L 3956 4666 
L 4897 4666 
L 4897 0 
L 4281 0 
L 4281 4097 
L 3078 897 
L 2444 897 
L 1241 4097 
L 1241 0 
L 628 0 
L 628 4666 
z
" transform="scale(0.015625)"/>
       <path id="DejaVuSans-6d" d="M 3328 2828 
Q 3544 3216 3844 3400 
Q 4144 3584 4550 3584 
Q 5097 3584 5394 3201 
Q 5691 2819 5691 2113 
L 5691 0 
L 5113 0 
L 5113 2094 
Q 5113 2597 4934 2840 
Q 4756 3084 4391 3084 
Q 3944 3084 3684 2787 
Q 3425 2491 3425 1978 
L 3425 0 
L 2847 0 
L 2847 2094 
Q 2847 2600 2669 2842 
Q 2491 3084 2119 3084 
Q 1678 3084 1418 2786 
Q 1159 2488 1159 1978 
L 1159 0 
L 581 0 
L 581 3500 
L 1159 3500 
L 1159 2956 
Q 1356 3278 1631 3431 
Q 1906 3584 2284 3584 
Q 2666 3584 2933 3390 
Q 3200 3197 3328 2828 
z
" transform="scale(0.015625)"/>
      </defs>
      <use xlink:href="#DejaVuSans-4d"/>
      <use xlink:href="#DejaVuSans-6f" x="86.279297"/>
      <use xlink:href="#DejaVuSans-72" x="147.460938"/>
      <use xlink:href="#DejaVuSans-67" x="186.824219"/>
      <use xlink:href="#DejaVuSans-61" x="250.300781"/>
      <use xlink:href="#DejaVuSans-6e" x="311.580078"/>
      <use xlink:href="#DejaVuSans-20" x="374.958984"/>
      <use xlink:href="#DejaVuSans-46" x="406.746094"/>
      <use xlink:href="#DejaVuSans-72" x="457.015625"/>
      <use xlink:href="#DejaVuSans-65" x="495.878906"/>
      <use xlink:href="#DejaVuSans-65" x="557.402344"/>
      <use xlink:href="#DejaVuSans-6d" x="618.925781"/>
      <use xlink:href="#DejaVuSans-61" x="716.337891"/>
      <use xlink:href="#DejaVuSans-6e" x="777.617188"/>
     </g>
    </g>
   </g>
   <g id="text_8">
    <g id="patch_9">
     <path d="M 37.74759 263.25593 
L 104.590871 263.25593 
L 104.590871 246.625618 
L 37.74759 246.625618 
z
" clip-path="url(#pa05938f96a)" style="fill: #ffffff; opacity: 0.7; stroke: #000000; stroke-linejoin: miter"/>
    </g>
    <g clip-path="url(#pa05938f96a)">
     <!-- Stanley Tucci -->
     <g transform="translate(41.70759 257.424211)scale(0.09 -0.09)">
      <defs>
       <path id="DejaVuSans-53" d="M 3425 4513 
L 3425 3897 
Q 3066 4069 2747 4153 
Q 2428 4238 2131 4238 
Q 1616 4238 1336 4038 
Q 1056 3838 1056 3469 
Q 1056 3159 1242 3001 
Q 1428 2844 1947 2747 
L 2328 2669 
Q 3034 2534 3370 2195 
Q 3706 1856 3706 1288 
Q 3706 609 3251 259 
Q 2797 -91 1919 -91 
Q 1588 -91 1214 -16 
Q 841 59 441 206 
L 441 856 
Q 825 641 1194 531 
Q 1563 422 1919 422 
Q 2459 422 2753 634 
Q 3047 847 3047 1241 
Q 3047 1584 2836 1778 
Q 2625 1972 2144 2069 
L 1759 2144 
Q 1053 2284 737 2584 
Q 422 2884 422 3419 
Q 422 4038 858 4394 
Q 1294 4750 2059 4750 
Q 2388 4750 2728 4690 
Q 3069 4631 3425 4513 
z
" transform="scale(0.015625)"/>
       <path id="DejaVuSans-79" d="M 2059 -325 
Q 1816 -950 1584 -1140 
Q 1353 -1331 966 -1331 
L 506 -1331 
L 506 -850 
L 844 -850 
Q 1081 -850 1212 -737 
Q 1344 -625 1503 -206 
L 1606 56 
L 191 3500 
L 800 3500 
L 1894 763 
L 2988 3500 
L 3597 3500 
L 2059 -325 
z
" transform="scale(0.015625)"/>
       <path id="DejaVuSans-54" d="M -19 4666 
L 3928 4666 
L 3928 4134 
L 2272 4134 
L 2272 0 
L 1638 0 
L 1638 4134 
L -19 4134 
L -19 4666 
z
" transform="scale(0.015625)"/>
       <path id="DejaVuSans-75" d="M 544 1381 
L 544 3500 
L 1119 3500 
L 1119 1403 
Q 1119 906 1312 657 
Q 1506 409 1894 409 
Q 2359 409 2629 706 
Q 2900 1003 2900 1516 
L 2900 3500 
L 3475 3500 
L 3475 0 
L 2900 0 
L 2900 538 
Q 2691 219 2414 64 
Q 2138 -91 1772 -91 
Q 1169 -91 856 284 
Q 544 659 544 1381 
z
M 1991 3584 
L 1991 3584 
z
" transform="scale(0.015625)"/>
      </defs>
      <use xlink:href="#DejaVuSans-53"/>
      <use xlink:href="#DejaVuSans-74" x="63.476562"/>
      <use xlink:href="#DejaVuSans-61" x="102.685547"/>
      <use xlink:href="#DejaVuSans-6e" x="163.964844"/>
      <use xlink:href="#DejaVuSans-6c" x="227.34375"/>
      <use xlink:href="#DejaVuSans-65" x="255.126953"/>
      <use xlink:href="#DejaVuSans-79" x="316.650391"/>
      <use xlink:href="#DejaVuSans-20" x="375.830078"/>
      <use xlink:href="#DejaVuSans-54" x="407.617188"/>
      <use xlink:href="#DejaVuSans-75" x="453.576172"/>
      <use xlink:href="#DejaVuSans-63" x="516.955078"/>
      <use xlink:href="#DejaVuSans-63" x="571.935547"/>
      <use xlink:href="#DejaVuSans-69" x="626.916016"/>
     </g>
    </g>
   </g>
   <g id="text_9">
    <g id="patch_10">
     <path d="M 34.385962 352.410671 
L 107.952525 352.410671 
L 107.952525 335.780358 
L 34.385962 335.780358 
z
" clip-path="url(#pa05938f96a)" style="fill: #ffffff; opacity: 0.7; stroke: #000000; stroke-linejoin: miter"/>
    </g>
    <g clip-path="url(#pa05938f96a)">
     <!-- Robert Picardo -->
     <g transform="translate(38.345962 346.578952)scale(0.09 -0.09)">
      <defs>
       <path id="DejaVuSans-50" d="M 1259 4147 
L 1259 2394 
L 2053 2394 
Q 2494 2394 2734 2622 
Q 2975 2850 2975 3272 
Q 2975 3691 2734 3919 
Q 2494 4147 2053 4147 
L 1259 4147 
z
M 628 4666 
L 2053 4666 
Q 2838 4666 3239 4311 
Q 3641 3956 3641 3272 
Q 3641 2581 3239 2228 
Q 2838 1875 2053 1875 
L 1259 1875 
L 1259 0 
L 628 0 
L 628 4666 
z
" transform="scale(0.015625)"/>
      </defs>
      <use xlink:href="#DejaVuSans-52"/>
      <use xlink:href="#DejaVuSans-6f" x="64.982422"/>
      <use xlink:href="#DejaVuSans-62" x="126.164062"/>
      <use xlink:href="#DejaVuSans-65" x="189.640625"/>
      <use xlink:href="#DejaVuSans-72" x="251.164062"/>
      <use xlink:href="#DejaVuSans-74" x="292.277344"/>
      <use xlink:href="#DejaVuSans-20" x="331.486328"/>
      <use xlink:href="#DejaVuSans-50" x="363.273438"/>
      <use xlink:href="#DejaVuSans-69" x="421.326172"/>
      <use xlink:href="#DejaVuSans-63" x="449.109375"/>
      <use xlink:href="#DejaVuSans-61" x="504.089844"/>
      <use xlink:href="#DejaVuSans-72" x="565.369141"/>
      <use xlink:href="#DejaVuSans-64" x="604.732422"/>
      <use xlink:href="#DejaVuSans-6f" x="668.208984"/>
     </g>
    </g>
   </g>
   <g id="text_10">
    <g id="patch_11">
     <path d="M 74.935474 433.857565 
L 140.327505 433.857565 
L 140.327505 417.227253 
L 74.935474 417.227253 
z
" clip-path="url(#pa05938f96a)" style="fill: #ffffff; opacity: 0.7; stroke: #000000; stroke-linejoin: miter"/>
    </g>
    <g clip-path="url(#pa05938f96a)">
     <!-- Alec Baldwin -->
     <g transform="translate(78.895474 428.025847)scale(0.09 -0.09)">
      <defs>
       <path id="DejaVuSans-41" d="M 2188 4044 
L 1331 1722 
L 3047 1722 
L 2188 4044 
z
M 1831 4666 
L 2547 4666 
L 4325 0 
L 3669 0 
L 3244 1197 
L 1141 1197 
L 716 0 
L 50 0 
L 1831 4666 
z
" transform="scale(0.015625)"/>
       <path id="DejaVuSans-42" d="M 1259 2228 
L 1259 519 
L 2272 519 
Q 2781 519 3026 730 
Q 3272 941 3272 1375 
Q 3272 1813 3026 2020 
Q 2781 2228 2272 2228 
L 1259 2228 
z
M 1259 4147 
L 1259 2741 
L 2194 2741 
Q 2656 2741 2882 2914 
Q 3109 3088 3109 3444 
Q 3109 3797 2882 3972 
Q 2656 4147 2194 4147 
L 1259 4147 
z
M 628 4666 
L 2241 4666 
Q 2963 4666 3353 4366 
Q 3744 4066 3744 3513 
Q 3744 3084 3544 2831 
Q 3344 2578 2956 2516 
Q 3422 2416 3680 2098 
Q 3938 1781 3938 1306 
Q 3938 681 3513 340 
Q 3088 0 2303 0 
L 628 0 
L 628 4666 
z
" transform="scale(0.015625)"/>
       <path id="DejaVuSans-77" d="M 269 3500 
L 844 3500 
L 1563 769 
L 2278 3500 
L 2956 3500 
L 3675 769 
L 4391 3500 
L 4966 3500 
L 4050 0 
L 3372 0 
L 2619 2869 
L 1863 0 
L 1184 0 
L 269 3500 
z
" transform="scale(0.015625)"/>
      </defs>
      <use xlink:href="#DejaVuSans-41"/>
      <use xlink:href="#DejaVuSans-6c" x="68.408203"/>
      <use xlink:href="#DejaVuSans-65" x="96.191406"/>
      <use xlink:href="#DejaVuSans-63" x="157.714844"/>
      <use xlink:href="#DejaVuSans-20" x="212.695312"/>
      <use xlink:href="#DejaVuSans-42" x="244.482422"/>
      <use xlink:href="#DejaVuSans-61" x="313.085938"/>
      <use xlink:href="#DejaVuSans-6c" x="374.365234"/>
      <use xlink:href="#DejaVuSans-64" x="402.148438"/>
      <use xlink:href="#DejaVuSans-77" x="465.625"/>
      <use xlink:href="#DejaVuSans-69" x="547.412109"/>
      <use xlink:href="#DejaVuSans-6e" x="575.195312"/>
     </g>
    </g>
   </g>
   <g id="text_11">
    <g id="patch_12">
     <path d="M 134.271643 493.513727 
L 214.231018 493.513727 
L 214.231018 476.883414 
L 134.271643 476.883414 
z
" clip-path="url(#pa05938f96a)" style="fill: #ffffff; opacity: 0.7; stroke: #000000; stroke-linejoin: miter"/>
    </g>
    <g clip-path="url(#pa05938f96a)">
     <!-- George Clooney -->
     <g transform="translate(138.231643 487.682008)scale(0.09 -0.09)">
      <defs>
       <path id="DejaVuSans-47" d="M 3809 666 
L 3809 1919 
L 2778 1919 
L 2778 2438 
L 4434 2438 
L 4434 434 
Q 4069 175 3628 42 
Q 3188 -91 2688 -91 
Q 1594 -91 976 548 
Q 359 1188 359 2328 
Q 359 3472 976 4111 
Q 1594 4750 2688 4750 
Q 3144 4750 3555 4637 
Q 3966 4525 4313 4306 
L 4313 3634 
Q 3963 3931 3569 4081 
Q 3175 4231 2741 4231 
Q 1884 4231 1454 3753 
Q 1025 3275 1025 2328 
Q 1025 1384 1454 906 
Q 1884 428 2741 428 
Q 3075 428 3337 486 
Q 3600 544 3809 666 
z
" transform="scale(0.015625)"/>
      </defs>
      <use xlink:href="#DejaVuSans-47"/>
      <use xlink:href="#DejaVuSans-65" x="77.490234"/>
      <use xlink:href="#DejaVuSans-6f" x="139.013672"/>
      <use xlink:href="#DejaVuSans-72" x="200.195312"/>
      <use xlink:href="#DejaVuSans-67" x="239.558594"/>
      <use xlink:href="#DejaVuSans-65" x="303.035156"/>
      <use xlink:href="#DejaVuSans-20" x="364.558594"/>
      <use xlink:href="#DejaVuSans-43" x="396.345703"/>
      <use xlink:href="#DejaVuSans-6c" x="466.169922"/>
      <use xlink:href="#DejaVuSans-6f" x="493.953125"/>
      <use xlink:href="#DejaVuSans-6f" x="555.134766"/>
      <use xlink:href="#DejaVuSans-6e" x="616.316406"/>
      <use xlink:href="#DejaVuSans-65" x="679.695312"/>
      <use xlink:href="#DejaVuSans-79" x="741.21875"/>
     </g>
    </g>
   </g>
   <g id="text_12">
    <g id="patch_13">
     <path d="M 224.942556 521.06405 
L 294.076618 521.06405 
L 294.076618 504.433738 
L 224.942556 504.433738 
z
" clip-path="url(#pa05938f96a)" style="fill: #ffffff; opacity: 0.7; stroke: #000000; stroke-linejoin: miter"/>
    </g>
    <g clip-path="url(#pa05938f96a)">
     <!-- Dennis Farina -->
     <g transform="translate(228.902556 515.232332)scale(0.09 -0.09)">
      <use xlink:href="#DejaVuSans-44"/>
      <use xlink:href="#DejaVuSans-65" x="77.001953"/>
      <use xlink:href="#DejaVuSans-6e" x="138.525391"/>
      <use xlink:href="#DejaVuSans-6e" x="201.904297"/>
      <use xlink:href="#DejaVuSans-69" x="265.283203"/>
      <use xlink:href="#DejaVuSans-73" x="293.066406"/>
      <use xlink:href="#DejaVuSans-20" x="345.166016"/>
      <use xlink:href="#DejaVuSans-46" x="376.953125"/>
      <use xlink:href="#DejaVuSans-61" x="425.347656"/>
      <use xlink:href="#DejaVuSans-72" x="486.626953"/>
      <use xlink:href="#DejaVuSans-69" x="527.740234"/>
      <use xlink:href="#DejaVuSans-6e" x="555.523438"/>
      <use xlink:href="#DejaVuSans-61" x="618.902344"/>
     </g>
    </g>
   </g>
   <g id="text_13">
    <g id="patch_14">
     <path d="M 320.254558 511.744831 
L 377.074089 511.744831 
L 377.074089 495.114518 
L 320.254558 495.114518 
z
" clip-path="url(#pa05938f96a)" style="fill: #ffffff; opacity: 0.7; stroke: #000000; stroke-linejoin: miter"/>
    </g>
    <g clip-path="url(#pa05938f96a)">
     <!-- Burt Young -->
     <g transform="translate(324.214558 505.913112)scale(0.09 -0.09)">
      <defs>
       <path id="DejaVuSans-59" d="M -13 4666 
L 666 4666 
L 1959 2747 
L 3244 4666 
L 3922 4666 
L 2272 2222 
L 2272 0 
L 1638 0 
L 1638 2222 
L -13 4666 
z
" transform="scale(0.015625)"/>
      </defs>
      <use xlink:href="#DejaVuSans-42"/>
      <use xlink:href="#DejaVuSans-75" x="68.603516"/>
      <use xlink:href="#DejaVuSans-72" x="131.982422"/>
      <use xlink:href="#DejaVuSans-74" x="173.095703"/>
      <use xlink:href="#DejaVuSans-20" x="212.304688"/>
      <use xlink:href="#DejaVuSans-59" x="244.091797"/>
      <use xlink:href="#DejaVuSans-6f" x="291.925781"/>
      <use xlink:href="#DejaVuSans-75" x="353.107422"/>
      <use xlink:href="#DejaVuSans-6e" x="416.486328"/>
      <use xlink:href="#DejaVuSans-67" x="479.865234"/>
     </g>
    </g>
   </g>
   <g id="text_14">
    <g id="patch_15">
     <path d="M 397.745982 467.167441 
L 454.853795 467.167441 
L 454.853795 450.537129 
L 397.745982 450.537129 
z
" clip-path="url(#pa05938f96a)" style="fill: #ffffff; opacity: 0.7; stroke: #000000; stroke-linejoin: miter"/>
    </g>
    <g clip-path="url(#pa05938f96a)">
     <!-- Matt Stone -->
     <g transform="translate(401.705982 461.335723)scale(0.09 -0.09)">
      <use xlink:href="#DejaVuSans-4d"/>
      <use xlink:href="#DejaVuSans-61" x="86.279297"/>
      <use xlink:href="#DejaVuSans-74" x="147.558594"/>
      <use xlink:href="#DejaVuSans-74" x="186.767578"/>
      <use xlink:href="#DejaVuSans-20" x="225.976562"/>
      <use xlink:href="#DejaVuSans-53" x="257.763672"/>
      <use xlink:href="#DejaVuSans-74" x="321.240234"/>
      <use xlink:href="#DejaVuSans-6f" x="360.449219"/>
      <use xlink:href="#DejaVuSans-6e" x="421.630859"/>
      <use xlink:href="#DejaVuSans-65" x="485.009766"/>
     </g>
    </g>
   </g>
   <g id="text_15">
    <g id="patch_16">
     <path d="M 442.57753 395.039741 
L 515.407217 395.039741 
L 515.407217 378.409428 
L 442.57753 378.409428 
z
" clip-path="url(#pa05938f96a)" style="fill: #ffffff; opacity: 0.7; stroke: #000000; stroke-linejoin: miter"/>
    </g>
    <g clip-path="url(#pa05938f96a)">
     <!-- Jim Cummings -->
     <g transform="translate(446.53753 389.208022)scale(0.09 -0.09)">
      <use xlink:href="#DejaVuSans-4a"/>
      <use xlink:href="#DejaVuSans-69" x="29.492188"/>
      <use xlink:href="#DejaVuSans-6d" x="57.275391"/>
      <use xlink:href="#DejaVuSans-20" x="154.6875"/>
      <use xlink:href="#DejaVuSans-43" x="186.474609"/>
      <use xlink:href="#DejaVuSans-75" x="256.298828"/>
      <use xlink:href="#DejaVuSans-6d" x="319.677734"/>
      <use xlink:href="#DejaVuSans-6d" x="417.089844"/>
      <use xlink:href="#DejaVuSans-69" x="514.501953"/>
      <use xlink:href="#DejaVuSans-6e" x="542.285156"/>
      <use xlink:href="#DejaVuSans-67" x="605.664062"/>
      <use xlink:href="#DejaVuSans-73" x="669.140625"/>
     </g>
    </g>
   </g>
   <g id="text_16">
    <!-- Impactful actors for Short Film genre - Importance rank: 3 -->
    <g transform="translate(110.633437 16.318125)scale(0.12 -0.12)">
     <defs>
      <path id="DejaVuSans-49" d="M 628 4666 
L 1259 4666 
L 1259 0 
L 628 0 
L 628 4666 
z
" transform="scale(0.015625)"/>
      <path id="DejaVuSans-70" d="M 1159 525 
L 1159 -1331 
L 581 -1331 
L 581 3500 
L 1159 3500 
L 1159 2969 
Q 1341 3281 1617 3432 
Q 1894 3584 2278 3584 
Q 2916 3584 3314 3078 
Q 3713 2572 3713 1747 
Q 3713 922 3314 415 
Q 2916 -91 2278 -91 
Q 1894 -91 1617 61 
Q 1341 213 1159 525 
z
M 3116 1747 
Q 3116 2381 2855 2742 
Q 2594 3103 2138 3103 
Q 1681 3103 1420 2742 
Q 1159 2381 1159 1747 
Q 1159 1113 1420 752 
Q 1681 391 2138 391 
Q 2594 391 2855 752 
Q 3116 1113 3116 1747 
z
" transform="scale(0.015625)"/>
      <path id="DejaVuSans-66" d="M 2375 4863 
L 2375 4384 
L 1825 4384 
Q 1516 4384 1395 4259 
Q 1275 4134 1275 3809 
L 1275 3500 
L 2222 3500 
L 2222 3053 
L 1275 3053 
L 1275 0 
L 697 0 
L 697 3053 
L 147 3053 
L 147 3500 
L 697 3500 
L 697 3744 
Q 697 4328 969 4595 
Q 1241 4863 1831 4863 
L 2375 4863 
z
" transform="scale(0.015625)"/>
      <path id="DejaVuSans-2d" d="M 313 2009 
L 1997 2009 
L 1997 1497 
L 313 1497 
L 313 2009 
z
" transform="scale(0.015625)"/>
      <path id="DejaVuSans-3a" d="M 750 794 
L 1409 794 
L 1409 0 
L 750 0 
L 750 794 
z
M 750 3309 
L 1409 3309 
L 1409 2516 
L 750 2516 
L 750 3309 
z
" transform="scale(0.015625)"/>
      <path id="DejaVuSans-33" d="M 2597 2516 
Q 3050 2419 3304 2112 
Q 3559 1806 3559 1356 
Q 3559 666 3084 287 
Q 2609 -91 1734 -91 
Q 1441 -91 1130 -33 
Q 819 25 488 141 
L 488 750 
Q 750 597 1062 519 
Q 1375 441 1716 441 
Q 2309 441 2620 675 
Q 2931 909 2931 1356 
Q 2931 1769 2642 2001 
Q 2353 2234 1838 2234 
L 1294 2234 
L 1294 2753 
L 1863 2753 
Q 2328 2753 2575 2939 
Q 2822 3125 2822 3475 
Q 2822 3834 2567 4026 
Q 2313 4219 1838 4219 
Q 1578 4219 1281 4162 
Q 984 4106 628 3988 
L 628 4550 
Q 988 4650 1302 4700 
Q 1616 4750 1894 4750 
Q 2613 4750 3031 4423 
Q 3450 4097 3450 3541 
Q 3450 3153 3228 2886 
Q 3006 2619 2597 2516 
z
" transform="scale(0.015625)"/>
     </defs>
     <use xlink:href="#DejaVuSans-49"/>
     <use xlink:href="#DejaVuSans-6d" x="29.492188"/>
     <use xlink:href="#DejaVuSans-70" x="126.904297"/>
     <use xlink:href="#DejaVuSans-61" x="190.380859"/>
     <use xlink:href="#DejaVuSans-63" x="251.660156"/>
     <use xlink:href="#DejaVuSans-74" x="306.640625"/>
     <use xlink:href="#DejaVuSans-66" x="345.849609"/>
     <use xlink:href="#DejaVuSans-75" x="381.054688"/>
     <use xlink:href="#DejaVuSans-6c" x="444.433594"/>
     <use xlink:href="#DejaVuSans-20" x="472.216797"/>
     <use xlink:href="#DejaVuSans-61" x="504.003906"/>
     <use xlink:href="#DejaVuSans-63" x="565.283203"/>
     <use xlink:href="#DejaVuSans-74" x="620.263672"/>
     <use xlink:href="#DejaVuSans-6f" x="659.472656"/>
     <use xlink:href="#DejaVuSans-72" x="720.654297"/>
     <use xlink:href="#DejaVuSans-73" x="761.767578"/>
     <use xlink:href="#DejaVuSans-20" x="813.867188"/>
     <use xlink:href="#DejaVuSans-66" x="845.654297"/>
     <use xlink:href="#DejaVuSans-6f" x="880.859375"/>
     <use xlink:href="#DejaVuSans-72" x="942.041016"/>
     <use xlink:href="#DejaVuSans-20" x="983.154297"/>
     <use xlink:href="#DejaVuSans-53" x="1014.941406"/>
     <use xlink:href="#DejaVuSans-68" x="1078.417969"/>
     <use xlink:href="#DejaVuSans-6f" x="1141.796875"/>
     <use xlink:href="#DejaVuSans-72" x="1202.978516"/>
     <use xlink:href="#DejaVuSans-74" x="1244.091797"/>
     <use xlink:href="#DejaVuSans-20" x="1283.300781"/>
     <use xlink:href="#DejaVuSans-46" x="1315.087891"/>
     <use xlink:href="#DejaVuSans-69" x="1365.357422"/>
     <use xlink:href="#DejaVuSans-6c" x="1393.140625"/>
     <use xlink:href="#DejaVuSans-6d" x="1420.923828"/>
     <use xlink:href="#DejaVuSans-20" x="1518.335938"/>
     <use xlink:href="#DejaVuSans-67" x="1550.123047"/>
     <use xlink:href="#DejaVuSans-65" x="1613.599609"/>
     <use xlink:href="#DejaVuSans-6e" x="1675.123047"/>
     <use xlink:href="#DejaVuSans-72" x="1738.501953"/>
     <use xlink:href="#DejaVuSans-65" x="1777.365234"/>
     <use xlink:href="#DejaVuSans-20" x="1838.888672"/>
     <use xlink:href="#DejaVuSans-2d" x="1870.675781"/>
     <use xlink:href="#DejaVuSans-20" x="1906.759766"/>
     <use xlink:href="#DejaVuSans-49" x="1938.546875"/>
     <use xlink:href="#DejaVuSans-6d" x="1968.039062"/>
     <use xlink:href="#DejaVuSans-70" x="2065.451172"/>
     <use xlink:href="#DejaVuSans-6f" x="2128.927734"/>
     <use xlink:href="#DejaVuSans-72" x="2190.109375"/>
     <use xlink:href="#DejaVuSans-74" x="2231.222656"/>
     <use xlink:href="#DejaVuSans-61" x="2270.431641"/>
     <use xlink:href="#DejaVuSans-6e" x="2331.710938"/>
     <use xlink:href="#DejaVuSans-63" x="2395.089844"/>
     <use xlink:href="#DejaVuSans-65" x="2450.070312"/>
     <use xlink:href="#DejaVuSans-20" x="2511.59375"/>
     <use xlink:href="#DejaVuSans-72" x="2543.380859"/>
     <use xlink:href="#DejaVuSans-61" x="2584.494141"/>
     <use xlink:href="#DejaVuSans-6e" x="2645.773438"/>
     <use xlink:href="#DejaVuSans-6b" x="2709.152344"/>
     <use xlink:href="#DejaVuSans-3a" x="2767.0625"/>
     <use xlink:href="#DejaVuSans-20" x="2800.753906"/>
     <use xlink:href="#DejaVuSans-33" x="2832.541016"/>
    </g>
   </g>
  </g>
 </g>
 <defs>
  <clipPath id="pa05938f96a">
   <rect x="7.2" y="22.318125" width="554.4" height="554.4"/>
  </clipPath>
 </defs>
</svg>
