<?xml version="1.0" encoding="utf-8" standalone="no"?>
<!DOCTYPE svg PUBLIC "-//W3C//DTD SVG 1.1//EN"
  "http://www.w3.org/Graphics/SVG/1.1/DTD/svg11.dtd">
<svg xmlns:xlink="http://www.w3.org/1999/xlink" width="568.8pt" height="583.918125pt" viewBox="0 0 568.8 583.918125" xmlns="http://www.w3.org/2000/svg" version="1.1">
 <metadata>
  <rdf:RDF xmlns:dc="http://purl.org/dc/elements/1.1/" xmlns:cc="http://creativecommons.org/ns#" xmlns:rdf="http://www.w3.org/1999/02/22-rdf-syntax-ns#">
   <cc:Work>
    <dc:type rdf:resource="http://purl.org/dc/dcmitype/StillImage"/>
    <dc:date>2022-12-22T19:12:31.004142</dc:date>
    <dc:format>image/svg+xml</dc:format>
    <dc:creator>
     <cc:Agent>
      <dc:title>Matplotlib v3.5.2, https://matplotlib.org/</dc:title>
     </cc:Agent>
    </dc:creator>
   </cc:Work>
  </rdf:RDF>
 </metadata>
 <defs>
  <style type="text/css">*{stroke-linejoin: round; stroke-linecap: butt}</style>
 </defs>
 <g id="figure_1">
  <g id="patch_1">
   <path d="M 0 583.918125 
L 568.8 583.918125 
L 568.8 0 
L 0 0 
z
" style="fill: #ffffff"/>
  </g>
  <g id="axes_1">
   <g id="PathCollection_1">
    <path d="M 497.630769 326.904253 
C 504.893655 326.904253 511.86005 324.018678 516.995686 318.883042 
C 522.131322 313.747406 525.016897 306.781011 525.016897 299.518125 
C 525.016897 292.255239 522.131322 285.288844 516.995686 280.153208 
C 511.86005 275.017572 504.893655 272.131997 497.630769 272.131997 
C 490.367883 272.131997 483.401488 275.017572 478.265852 280.153208 
C 473.130217 285.288844 470.244641 292.255239 470.244641 299.518125 
C 470.244641 306.781011 473.130217 313.747406 478.265852 318.883042 
C 483.401488 324.018678 490.367883 326.904253 497.630769 326.904253 
z
" clip-path="url(#pf6f7446d7e)" style="fill: #d62728; fill-opacity: 0.99; stroke: #d62728; stroke-opacity: 0.99"/>
    <path d="M 478.992348 238.015964 
C 485.809216 238.015964 492.347801 235.307594 497.168054 230.48734 
C 501.988308 225.667086 504.696678 219.128502 504.696678 212.311633 
C 504.696678 205.494765 501.988308 198.956181 497.168054 194.135927 
C 492.347801 189.315673 485.809216 186.607303 478.992348 186.607303 
C 472.17548 186.607303 465.636895 189.315673 460.816641 194.135927 
C 455.996388 198.956181 453.288017 205.494765 453.288017 212.311633 
C 453.288017 219.128502 455.996388 225.667086 460.816641 230.48734 
C 465.636895 235.307594 472.17548 238.015964 478.992348 238.015964 
z
" clip-path="url(#pf6f7446d7e)" style="fill: #d62728; fill-opacity: 0.99; stroke: #d62728; stroke-opacity: 0.99"/>
    <path d="M 426.29985 164.332446 
C 432.704112 164.332446 438.846934 161.788006 443.375432 157.259508 
C 447.903929 152.731011 450.448369 146.588189 450.448369 140.183927 
C 450.448369 133.779664 447.903929 127.636842 443.375432 123.108345 
C 438.846934 118.579848 432.704112 116.035407 426.29985 116.035407 
C 419.895588 116.035407 413.752765 118.579848 409.224268 123.108345 
C 404.695771 127.636842 402.151331 133.779664 402.151331 140.183927 
C 402.151331 146.588189 404.695771 152.731011 409.224268 157.259508 
C 413.752765 161.788006 419.895588 164.332446 426.29985 164.332446 
z
" clip-path="url(#pf6f7446d7e)" style="fill: #d62728; fill-opacity: 0.99; stroke: #d62728; stroke-opacity: 0.99"/>
    <path d="M 348.664291 119.616065 
C 355.031686 119.616065 361.139145 117.086272 365.641573 112.583845 
C 370.144001 108.081417 372.673793 101.973957 372.673793 95.606563 
C 372.673793 89.239168 370.144001 83.131709 365.641573 78.629281 
C 361.139145 74.126853 355.031686 71.597061 348.664291 71.597061 
C 342.296897 71.597061 336.189437 74.126853 331.687009 78.629281 
C 327.184582 83.131709 324.654789 89.239168 324.654789 95.606563 
C 324.654789 101.973957 327.184582 108.081417 331.687009 112.583845 
C 336.189437 117.086272 342.296897 119.616065 348.664291 119.616065 
z
" clip-path="url(#pf6f7446d7e)" style="fill: #d62728; fill-opacity: 0.99; stroke: #d62728; stroke-opacity: 0.99"/>
    <path d="M 259.509549 109.266824 
C 265.603775 109.266824 271.449217 106.845562 275.758486 102.536293 
C 280.067755 98.227025 282.489016 92.381582 282.489016 86.287356 
C 282.489016 80.19313 280.067755 74.347687 275.758486 70.038418 
C 271.449217 65.72915 265.603775 63.307888 259.509549 63.307888 
C 253.415323 63.307888 247.56988 65.72915 243.260611 70.038418 
C 238.951343 74.347687 236.530081 80.19313 236.530081 86.287356 
C 236.530081 92.381582 238.951343 98.227025 243.260611 102.536293 
C 247.56988 106.845562 253.415323 109.266824 259.509549 109.266824 
z
" clip-path="url(#pf6f7446d7e)" style="fill: #d62728; fill-opacity: 0.99; stroke: #d62728; stroke-opacity: 0.99"/>
    <path d="M 174.251298 136.238963 
C 180.192184 136.238963 185.890547 133.878624 190.091388 129.677783 
C 194.29223 125.476942 196.652569 119.778579 196.652569 113.837692 
C 196.652569 107.896806 194.29223 102.198443 190.091388 97.997602 
C 185.890547 93.796761 180.192184 91.436422 174.251298 91.436422 
C 168.310412 91.436422 162.612049 93.796761 158.411208 97.997602 
C 154.210367 102.198443 151.850027 107.896806 151.850027 113.837692 
C 151.850027 119.778579 154.210367 125.476942 158.411208 129.677783 
C 162.612049 133.878624 168.310412 136.238963 174.251298 136.238963 
z
" clip-path="url(#pf6f7446d7e)" style="fill: #d62728; fill-opacity: 0.99; stroke: #d62728; stroke-opacity: 0.99"/>
    <path d="M 107.631477 195.399047 
C 113.440802 195.399047 119.012974 193.090978 123.120788 188.983164 
C 127.228601 184.875351 129.53667 179.303179 129.53667 173.493854 
C 129.53667 167.684529 127.228601 162.112356 123.120788 158.004543 
C 119.012974 153.89673 113.440802 151.588661 107.631477 151.588661 
C 101.822152 151.588661 96.24998 153.89673 92.142166 158.004543 
C 88.034353 162.112356 85.726284 167.684529 85.726284 173.493854 
C 85.726284 179.303179 88.034353 184.875351 92.142166 188.983164 
C 96.24998 193.090978 101.822152 195.399047 107.631477 195.399047 
z
" clip-path="url(#pf6f7446d7e)" style="fill: #d62728; fill-opacity: 0.99; stroke: #d62728; stroke-opacity: 0.99"/>
    <path d="M 71.169231 276.368891 
C 76.852034 276.368891 82.302849 274.11109 86.321198 270.092741 
C 90.339547 266.074392 92.597348 260.623577 92.597348 254.940774 
C 92.597348 249.257971 90.339547 243.807155 86.321198 239.788807 
C 82.302849 235.770458 76.852034 233.512656 71.169231 233.512656 
C 65.486428 233.512656 60.035612 235.770458 56.017264 239.788807 
C 51.998915 243.807155 49.741113 249.257971 49.741113 254.940774 
C 49.741113 260.623577 51.998915 266.074392 56.017264 270.092741 
C 60.035612 274.11109 65.486428 276.368891 71.169231 276.368891 
z
" clip-path="url(#pf6f7446d7e)" style="fill: #d62728; fill-opacity: 0.99; stroke: #d62728; stroke-opacity: 0.99"/>
    <path d="M 71.169244 365.240019 
C 76.776832 365.240019 82.155503 363.012101 86.120666 359.046937 
C 90.08583 355.081774 92.313749 349.703103 92.313749 344.095514 
C 92.313749 338.487926 90.08583 333.109255 86.120666 329.144092 
C 82.155503 325.178928 76.776832 322.951009 71.169244 322.951009 
C 65.561655 322.951009 60.182984 325.178928 56.217821 329.144092 
C 52.252657 333.109255 50.024739 338.487926 50.024739 344.095514 
C 50.024739 349.703103 52.252657 355.081774 56.217821 359.046937 
C 60.182984 363.012101 65.561655 365.240019 71.169244 365.240019 
z
" clip-path="url(#pf6f7446d7e)" style="fill: #d62728; fill-opacity: 0.99; stroke: #d62728; stroke-opacity: 0.99"/>
    <path d="M 107.63149 446.357992 
C 113.151847 446.357992 118.446848 444.164731 122.35033 440.261249 
C 126.253812 436.357767 128.447073 431.062766 128.447073 425.542409 
C 128.447073 420.022052 126.253812 414.727051 122.35033 410.823569 
C 118.446848 406.920087 113.151847 404.726826 107.63149 404.726826 
C 102.111133 404.726826 96.816132 406.920087 92.91265 410.823569 
C 89.009168 414.727051 86.815907 420.022052 86.815907 425.542409 
C 86.815907 431.062766 89.009168 436.357767 92.91265 440.261249 
C 96.816132 444.164731 102.111133 446.357992 107.63149 446.357992 
z
" clip-path="url(#pf6f7446d7e)" style="fill: #d62728; fill-opacity: 0.99; stroke: #d62728; stroke-opacity: 0.99"/>
    <path d="M 174.25133 505.997255 
C 179.767206 505.997255 185.057908 503.805774 188.958221 499.905461 
C 192.858534 496.005148 195.050015 490.714446 195.050015 485.198571 
C 195.050015 479.682695 192.858534 474.391993 188.958221 470.49168 
C 185.057908 466.591367 179.767206 464.399886 174.25133 464.399886 
C 168.735455 464.399886 163.444752 466.591367 159.544439 470.49168 
C 155.644126 474.391993 153.452646 479.682695 153.452646 485.198571 
C 153.452646 490.714446 155.644126 496.005148 159.544439 499.905461 
C 163.444752 503.805774 168.735455 505.997255 174.25133 505.997255 
z
" clip-path="url(#pf6f7446d7e)" style="fill: #d62728; fill-opacity: 0.99; stroke: #d62728; stroke-opacity: 0.99"/>
    <path d="M 259.509587 533.539522 
C 265.023326 533.539522 270.311979 531.34889 274.210781 527.450088 
C 278.109583 523.551286 280.300215 518.262633 280.300215 512.748894 
C 280.300215 507.235155 278.109583 501.946503 274.210781 498.047701 
C 270.311979 494.148899 265.023326 491.958267 259.509587 491.958267 
C 253.995848 491.958267 248.707196 494.148899 244.808394 498.047701 
C 240.909591 501.946503 238.71896 507.235155 238.71896 512.748894 
C 238.71896 518.262633 240.909591 523.551286 244.808394 527.450088 
C 248.707196 531.34889 253.995848 533.539522 259.509587 533.539522 
z
" clip-path="url(#pf6f7446d7e)" style="fill: #d62728; fill-opacity: 0.99; stroke: #d62728; stroke-opacity: 0.99"/>
    <path d="M 348.664323 524.18906 
C 354.169777 524.18906 359.450482 522.00172 363.343426 518.108777 
C 367.236369 514.215833 369.423709 508.935128 369.423709 503.429675 
C 369.423709 497.924221 367.236369 492.643516 363.343426 488.750572 
C 359.450482 484.857629 354.169777 482.670289 348.664323 482.670289 
C 343.15887 482.670289 337.878164 484.857629 333.985221 488.750572 
C 330.092277 492.643516 327.904938 497.924221 327.904938 503.429675 
C 327.904938 508.935128 330.092277 514.215833 333.985221 518.108777 
C 337.878164 522.00172 343.15887 524.18906 348.664323 524.18906 
z
" clip-path="url(#pf6f7446d7e)" style="fill: #d62728; fill-opacity: 0.99; stroke: #d62728; stroke-opacity: 0.99"/>
    <path d="M 426.299888 479.083222 
C 431.665196 479.083222 436.811476 476.951563 440.605321 473.157718 
C 444.399166 469.363873 446.530826 464.217592 446.530826 458.852285 
C 446.530826 453.486978 444.399166 448.340697 440.605321 444.546852 
C 436.811476 440.753007 431.665196 438.621348 426.299888 438.621348 
C 420.934581 438.621348 415.788301 440.753007 411.994456 444.546852 
C 408.20061 448.340697 406.068951 453.486978 406.068951 458.852285 
C 406.068951 464.217592 408.20061 469.363873 411.994456 473.157718 
C 415.788301 476.951563 420.934581 479.083222 426.299888 479.083222 
z
" clip-path="url(#pf6f7446d7e)" style="fill: #d62728; fill-opacity: 0.99; stroke: #d62728; stroke-opacity: 0.99"/>
    <path d="M 478.992374 406.089501 
C 484.128009 406.089501 489.053994 404.049092 492.685437 400.417649 
C 496.31688 396.786206 498.35729 391.860221 498.35729 386.724585 
C 498.35729 381.588949 496.31688 376.662964 492.685437 373.031521 
C 489.053994 369.400078 484.128009 367.359668 478.992374 367.359668 
C 473.856738 367.359668 468.930753 369.400078 465.29931 373.031521 
C 461.667867 376.662964 459.627457 381.588949 459.627457 386.724585 
C 459.627457 391.860221 461.667867 396.786206 465.29931 400.417649 
C 468.930753 404.049092 473.856738 406.089501 478.992374 406.089501 
z
" clip-path="url(#pf6f7446d7e)" style="fill: #d62728; fill-opacity: 0.99; stroke: #d62728; stroke-opacity: 0.99"/>
   </g>
   <g id="text_1">
    <g id="patch_2">
     <path d="M 467.810535 307.833281 
L 527.451004 307.833281 
L 527.451004 291.202969 
L 467.810535 291.202969 
z
" clip-path="url(#pf6f7446d7e)" style="fill: #ffffff; opacity: 0.7; stroke: #000000; stroke-linejoin: miter"/>
    </g>
    <g clip-path="url(#pf6f7446d7e)">
     <!-- Jason Biggs -->
     <g transform="translate(471.770535 302.001562)scale(0.09 -0.09)">
      <defs>
       <path id="DejaVuSans-4a" d="M 628 4666 
L 1259 4666 
L 1259 325 
Q 1259 -519 939 -900 
Q 619 -1281 -91 -1281 
L -331 -1281 
L -331 -750 
L -134 -750 
Q 284 -750 456 -515 
Q 628 -281 628 325 
L 628 4666 
z
" transform="scale(0.015625)"/>
       <path id="DejaVuSans-61" d="M 2194 1759 
Q 1497 1759 1228 1600 
Q 959 1441 959 1056 
Q 959 750 1161 570 
Q 1363 391 1709 391 
Q 2188 391 2477 730 
Q 2766 1069 2766 1631 
L 2766 1759 
L 2194 1759 
z
M 3341 1997 
L 3341 0 
L 2766 0 
L 2766 531 
Q 2569 213 2275 61 
Q 1981 -91 1556 -91 
Q 1019 -91 701 211 
Q 384 513 384 1019 
Q 384 1609 779 1909 
Q 1175 2209 1959 2209 
L 2766 2209 
L 2766 2266 
Q 2766 2663 2505 2880 
Q 2244 3097 1772 3097 
Q 1472 3097 1187 3025 
Q 903 2953 641 2809 
L 641 3341 
Q 956 3463 1253 3523 
Q 1550 3584 1831 3584 
Q 2591 3584 2966 3190 
Q 3341 2797 3341 1997 
z
" transform="scale(0.015625)"/>
       <path id="DejaVuSans-73" d="M 2834 3397 
L 2834 2853 
Q 2591 2978 2328 3040 
Q 2066 3103 1784 3103 
Q 1356 3103 1142 2972 
Q 928 2841 928 2578 
Q 928 2378 1081 2264 
Q 1234 2150 1697 2047 
L 1894 2003 
Q 2506 1872 2764 1633 
Q 3022 1394 3022 966 
Q 3022 478 2636 193 
Q 2250 -91 1575 -91 
Q 1294 -91 989 -36 
Q 684 19 347 128 
L 347 722 
Q 666 556 975 473 
Q 1284 391 1588 391 
Q 1994 391 2212 530 
Q 2431 669 2431 922 
Q 2431 1156 2273 1281 
Q 2116 1406 1581 1522 
L 1381 1569 
Q 847 1681 609 1914 
Q 372 2147 372 2553 
Q 372 3047 722 3315 
Q 1072 3584 1716 3584 
Q 2034 3584 2315 3537 
Q 2597 3491 2834 3397 
z
" transform="scale(0.015625)"/>
       <path id="DejaVuSans-6f" d="M 1959 3097 
Q 1497 3097 1228 2736 
Q 959 2375 959 1747 
Q 959 1119 1226 758 
Q 1494 397 1959 397 
Q 2419 397 2687 759 
Q 2956 1122 2956 1747 
Q 2956 2369 2687 2733 
Q 2419 3097 1959 3097 
z
M 1959 3584 
Q 2709 3584 3137 3096 
Q 3566 2609 3566 1747 
Q 3566 888 3137 398 
Q 2709 -91 1959 -91 
Q 1206 -91 779 398 
Q 353 888 353 1747 
Q 353 2609 779 3096 
Q 1206 3584 1959 3584 
z
" transform="scale(0.015625)"/>
       <path id="DejaVuSans-6e" d="M 3513 2113 
L 3513 0 
L 2938 0 
L 2938 2094 
Q 2938 2591 2744 2837 
Q 2550 3084 2163 3084 
Q 1697 3084 1428 2787 
Q 1159 2491 1159 1978 
L 1159 0 
L 581 0 
L 581 3500 
L 1159 3500 
L 1159 2956 
Q 1366 3272 1645 3428 
Q 1925 3584 2291 3584 
Q 2894 3584 3203 3211 
Q 3513 2838 3513 2113 
z
" transform="scale(0.015625)"/>
       <path id="DejaVuSans-20" transform="scale(0.015625)"/>
       <path id="DejaVuSans-42" d="M 1259 2228 
L 1259 519 
L 2272 519 
Q 2781 519 3026 730 
Q 3272 941 3272 1375 
Q 3272 1813 3026 2020 
Q 2781 2228 2272 2228 
L 1259 2228 
z
M 1259 4147 
L 1259 2741 
L 2194 2741 
Q 2656 2741 2882 2914 
Q 3109 3088 3109 3444 
Q 3109 3797 2882 3972 
Q 2656 4147 2194 4147 
L 1259 4147 
z
M 628 4666 
L 2241 4666 
Q 2963 4666 3353 4366 
Q 3744 4066 3744 3513 
Q 3744 3084 3544 2831 
Q 3344 2578 2956 2516 
Q 3422 2416 3680 2098 
Q 3938 1781 3938 1306 
Q 3938 681 3513 340 
Q 3088 0 2303 0 
L 628 0 
L 628 4666 
z
" transform="scale(0.015625)"/>
       <path id="DejaVuSans-69" d="M 603 3500 
L 1178 3500 
L 1178 0 
L 603 0 
L 603 3500 
z
M 603 4863 
L 1178 4863 
L 1178 4134 
L 603 4134 
L 603 4863 
z
" transform="scale(0.015625)"/>
       <path id="DejaVuSans-67" d="M 2906 1791 
Q 2906 2416 2648 2759 
Q 2391 3103 1925 3103 
Q 1463 3103 1205 2759 
Q 947 2416 947 1791 
Q 947 1169 1205 825 
Q 1463 481 1925 481 
Q 2391 481 2648 825 
Q 2906 1169 2906 1791 
z
M 3481 434 
Q 3481 -459 3084 -895 
Q 2688 -1331 1869 -1331 
Q 1566 -1331 1297 -1286 
Q 1028 -1241 775 -1147 
L 775 -588 
Q 1028 -725 1275 -790 
Q 1522 -856 1778 -856 
Q 2344 -856 2625 -561 
Q 2906 -266 2906 331 
L 2906 616 
Q 2728 306 2450 153 
Q 2172 0 1784 0 
Q 1141 0 747 490 
Q 353 981 353 1791 
Q 353 2603 747 3093 
Q 1141 3584 1784 3584 
Q 2172 3584 2450 3431 
Q 2728 3278 2906 2969 
L 2906 3500 
L 3481 3500 
L 3481 434 
z
" transform="scale(0.015625)"/>
      </defs>
      <use xlink:href="#DejaVuSans-4a"/>
      <use xlink:href="#DejaVuSans-61" x="29.492188"/>
      <use xlink:href="#DejaVuSans-73" x="90.771484"/>
      <use xlink:href="#DejaVuSans-6f" x="142.871094"/>
      <use xlink:href="#DejaVuSans-6e" x="204.052734"/>
      <use xlink:href="#DejaVuSans-20" x="267.431641"/>
      <use xlink:href="#DejaVuSans-42" x="299.21875"/>
      <use xlink:href="#DejaVuSans-69" x="367.822266"/>
      <use xlink:href="#DejaVuSans-67" x="395.605469"/>
      <use xlink:href="#DejaVuSans-67" x="459.082031"/>
      <use xlink:href="#DejaVuSans-73" x="522.558594"/>
     </g>
    </g>
   </g>
   <g id="text_2">
    <g id="patch_3">
     <path d="M 450.582582 220.62679 
L 507.402113 220.62679 
L 507.402113 203.996477 
L 450.582582 203.996477 
z
" clip-path="url(#pf6f7446d7e)" style="fill: #ffffff; opacity: 0.7; stroke: #000000; stroke-linejoin: miter"/>
    </g>
    <g clip-path="url(#pf6f7446d7e)">
     <!-- Burt Young -->
     <g transform="translate(454.542582 214.795071)scale(0.09 -0.09)">
      <defs>
       <path id="DejaVuSans-75" d="M 544 1381 
L 544 3500 
L 1119 3500 
L 1119 1403 
Q 1119 906 1312 657 
Q 1506 409 1894 409 
Q 2359 409 2629 706 
Q 2900 1003 2900 1516 
L 2900 3500 
L 3475 3500 
L 3475 0 
L 2900 0 
L 2900 538 
Q 2691 219 2414 64 
Q 2138 -91 1772 -91 
Q 1169 -91 856 284 
Q 544 659 544 1381 
z
M 1991 3584 
L 1991 3584 
z
" transform="scale(0.015625)"/>
       <path id="DejaVuSans-72" d="M 2631 2963 
Q 2534 3019 2420 3045 
Q 2306 3072 2169 3072 
Q 1681 3072 1420 2755 
Q 1159 2438 1159 1844 
L 1159 0 
L 581 0 
L 581 3500 
L 1159 3500 
L 1159 2956 
Q 1341 3275 1631 3429 
Q 1922 3584 2338 3584 
Q 2397 3584 2469 3576 
Q 2541 3569 2628 3553 
L 2631 2963 
z
" transform="scale(0.015625)"/>
       <path id="DejaVuSans-74" d="M 1172 4494 
L 1172 3500 
L 2356 3500 
L 2356 3053 
L 1172 3053 
L 1172 1153 
Q 1172 725 1289 603 
Q 1406 481 1766 481 
L 2356 481 
L 2356 0 
L 1766 0 
Q 1100 0 847 248 
Q 594 497 594 1153 
L 594 3053 
L 172 3053 
L 172 3500 
L 594 3500 
L 594 4494 
L 1172 4494 
z
" transform="scale(0.015625)"/>
       <path id="DejaVuSans-59" d="M -13 4666 
L 666 4666 
L 1959 2747 
L 3244 4666 
L 3922 4666 
L 2272 2222 
L 2272 0 
L 1638 0 
L 1638 2222 
L -13 4666 
z
" transform="scale(0.015625)"/>
      </defs>
      <use xlink:href="#DejaVuSans-42"/>
      <use xlink:href="#DejaVuSans-75" x="68.603516"/>
      <use xlink:href="#DejaVuSans-72" x="131.982422"/>
      <use xlink:href="#DejaVuSans-74" x="173.095703"/>
      <use xlink:href="#DejaVuSans-20" x="212.304688"/>
      <use xlink:href="#DejaVuSans-59" x="244.091797"/>
      <use xlink:href="#DejaVuSans-6f" x="291.925781"/>
      <use xlink:href="#DejaVuSans-75" x="353.107422"/>
      <use xlink:href="#DejaVuSans-6e" x="416.486328"/>
      <use xlink:href="#DejaVuSans-67" x="479.865234"/>
     </g>
    </g>
   </g>
   <g id="text_3">
    <g id="patch_4">
     <path d="M 399.70485 148.499083 
L 452.89485 148.499083 
L 452.89485 131.86877 
L 399.70485 131.86877 
z
" clip-path="url(#pf6f7446d7e)" style="fill: #ffffff; opacity: 0.7; stroke: #000000; stroke-linejoin: miter"/>
    </g>
    <g clip-path="url(#pf6f7446d7e)">
     <!-- Will Smith -->
     <g transform="translate(403.66485 142.667364)scale(0.09 -0.09)">
      <defs>
       <path id="DejaVuSans-57" d="M 213 4666 
L 850 4666 
L 1831 722 
L 2809 4666 
L 3519 4666 
L 4500 722 
L 5478 4666 
L 6119 4666 
L 4947 0 
L 4153 0 
L 3169 4050 
L 2175 0 
L 1381 0 
L 213 4666 
z
" transform="scale(0.015625)"/>
       <path id="DejaVuSans-6c" d="M 603 4863 
L 1178 4863 
L 1178 0 
L 603 0 
L 603 4863 
z
" transform="scale(0.015625)"/>
       <path id="DejaVuSans-53" d="M 3425 4513 
L 3425 3897 
Q 3066 4069 2747 4153 
Q 2428 4238 2131 4238 
Q 1616 4238 1336 4038 
Q 1056 3838 1056 3469 
Q 1056 3159 1242 3001 
Q 1428 2844 1947 2747 
L 2328 2669 
Q 3034 2534 3370 2195 
Q 3706 1856 3706 1288 
Q 3706 609 3251 259 
Q 2797 -91 1919 -91 
Q 1588 -91 1214 -16 
Q 841 59 441 206 
L 441 856 
Q 825 641 1194 531 
Q 1563 422 1919 422 
Q 2459 422 2753 634 
Q 3047 847 3047 1241 
Q 3047 1584 2836 1778 
Q 2625 1972 2144 2069 
L 1759 2144 
Q 1053 2284 737 2584 
Q 422 2884 422 3419 
Q 422 4038 858 4394 
Q 1294 4750 2059 4750 
Q 2388 4750 2728 4690 
Q 3069 4631 3425 4513 
z
" transform="scale(0.015625)"/>
       <path id="DejaVuSans-6d" d="M 3328 2828 
Q 3544 3216 3844 3400 
Q 4144 3584 4550 3584 
Q 5097 3584 5394 3201 
Q 5691 2819 5691 2113 
L 5691 0 
L 5113 0 
L 5113 2094 
Q 5113 2597 4934 2840 
Q 4756 3084 4391 3084 
Q 3944 3084 3684 2787 
Q 3425 2491 3425 1978 
L 3425 0 
L 2847 0 
L 2847 2094 
Q 2847 2600 2669 2842 
Q 2491 3084 2119 3084 
Q 1678 3084 1418 2786 
Q 1159 2488 1159 1978 
L 1159 0 
L 581 0 
L 581 3500 
L 1159 3500 
L 1159 2956 
Q 1356 3278 1631 3431 
Q 1906 3584 2284 3584 
Q 2666 3584 2933 3390 
Q 3200 3197 3328 2828 
z
" transform="scale(0.015625)"/>
       <path id="DejaVuSans-68" d="M 3513 2113 
L 3513 0 
L 2938 0 
L 2938 2094 
Q 2938 2591 2744 2837 
Q 2550 3084 2163 3084 
Q 1697 3084 1428 2787 
Q 1159 2491 1159 1978 
L 1159 0 
L 581 0 
L 581 4863 
L 1159 4863 
L 1159 2956 
Q 1366 3272 1645 3428 
Q 1925 3584 2291 3584 
Q 2894 3584 3203 3211 
Q 3513 2838 3513 2113 
z
" transform="scale(0.015625)"/>
      </defs>
      <use xlink:href="#DejaVuSans-57"/>
      <use xlink:href="#DejaVuSans-69" x="96.626953"/>
      <use xlink:href="#DejaVuSans-6c" x="124.410156"/>
      <use xlink:href="#DejaVuSans-6c" x="152.193359"/>
      <use xlink:href="#DejaVuSans-20" x="179.976562"/>
      <use xlink:href="#DejaVuSans-53" x="211.763672"/>
      <use xlink:href="#DejaVuSans-6d" x="275.240234"/>
      <use xlink:href="#DejaVuSans-69" x="372.652344"/>
      <use xlink:href="#DejaVuSans-74" x="400.435547"/>
      <use xlink:href="#DejaVuSans-68" x="439.644531"/>
     </g>
    </g>
   </g>
   <g id="text_4">
    <g id="patch_5">
     <path d="M 302.566713 103.921719 
L 394.761869 103.921719 
L 394.761869 87.291406 
L 302.566713 87.291406 
z
" clip-path="url(#pf6f7446d7e)" style="fill: #ffffff; opacity: 0.7; stroke: #000000; stroke-linejoin: miter"/>
    </g>
    <g clip-path="url(#pf6f7446d7e)">
     <!-- Stephen McCollum -->
     <g transform="translate(306.526713 98.09)scale(0.09 -0.09)">
      <defs>
       <path id="DejaVuSans-65" d="M 3597 1894 
L 3597 1613 
L 953 1613 
Q 991 1019 1311 708 
Q 1631 397 2203 397 
Q 2534 397 2845 478 
Q 3156 559 3463 722 
L 3463 178 
Q 3153 47 2828 -22 
Q 2503 -91 2169 -91 
Q 1331 -91 842 396 
Q 353 884 353 1716 
Q 353 2575 817 3079 
Q 1281 3584 2069 3584 
Q 2775 3584 3186 3129 
Q 3597 2675 3597 1894 
z
M 3022 2063 
Q 3016 2534 2758 2815 
Q 2500 3097 2075 3097 
Q 1594 3097 1305 2825 
Q 1016 2553 972 2059 
L 3022 2063 
z
" transform="scale(0.015625)"/>
       <path id="DejaVuSans-70" d="M 1159 525 
L 1159 -1331 
L 581 -1331 
L 581 3500 
L 1159 3500 
L 1159 2969 
Q 1341 3281 1617 3432 
Q 1894 3584 2278 3584 
Q 2916 3584 3314 3078 
Q 3713 2572 3713 1747 
Q 3713 922 3314 415 
Q 2916 -91 2278 -91 
Q 1894 -91 1617 61 
Q 1341 213 1159 525 
z
M 3116 1747 
Q 3116 2381 2855 2742 
Q 2594 3103 2138 3103 
Q 1681 3103 1420 2742 
Q 1159 2381 1159 1747 
Q 1159 1113 1420 752 
Q 1681 391 2138 391 
Q 2594 391 2855 752 
Q 3116 1113 3116 1747 
z
" transform="scale(0.015625)"/>
       <path id="DejaVuSans-4d" d="M 628 4666 
L 1569 4666 
L 2759 1491 
L 3956 4666 
L 4897 4666 
L 4897 0 
L 4281 0 
L 4281 4097 
L 3078 897 
L 2444 897 
L 1241 4097 
L 1241 0 
L 628 0 
L 628 4666 
z
" transform="scale(0.015625)"/>
       <path id="DejaVuSans-63" d="M 3122 3366 
L 3122 2828 
Q 2878 2963 2633 3030 
Q 2388 3097 2138 3097 
Q 1578 3097 1268 2742 
Q 959 2388 959 1747 
Q 959 1106 1268 751 
Q 1578 397 2138 397 
Q 2388 397 2633 464 
Q 2878 531 3122 666 
L 3122 134 
Q 2881 22 2623 -34 
Q 2366 -91 2075 -91 
Q 1284 -91 818 406 
Q 353 903 353 1747 
Q 353 2603 823 3093 
Q 1294 3584 2113 3584 
Q 2378 3584 2631 3529 
Q 2884 3475 3122 3366 
z
" transform="scale(0.015625)"/>
       <path id="DejaVuSans-43" d="M 4122 4306 
L 4122 3641 
Q 3803 3938 3442 4084 
Q 3081 4231 2675 4231 
Q 1875 4231 1450 3742 
Q 1025 3253 1025 2328 
Q 1025 1406 1450 917 
Q 1875 428 2675 428 
Q 3081 428 3442 575 
Q 3803 722 4122 1019 
L 4122 359 
Q 3791 134 3420 21 
Q 3050 -91 2638 -91 
Q 1578 -91 968 557 
Q 359 1206 359 2328 
Q 359 3453 968 4101 
Q 1578 4750 2638 4750 
Q 3056 4750 3426 4639 
Q 3797 4528 4122 4306 
z
" transform="scale(0.015625)"/>
      </defs>
      <use xlink:href="#DejaVuSans-53"/>
      <use xlink:href="#DejaVuSans-74" x="63.476562"/>
      <use xlink:href="#DejaVuSans-65" x="102.685547"/>
      <use xlink:href="#DejaVuSans-70" x="164.208984"/>
      <use xlink:href="#DejaVuSans-68" x="227.685547"/>
      <use xlink:href="#DejaVuSans-65" x="291.064453"/>
      <use xlink:href="#DejaVuSans-6e" x="352.587891"/>
      <use xlink:href="#DejaVuSans-20" x="415.966797"/>
      <use xlink:href="#DejaVuSans-4d" x="447.753906"/>
      <use xlink:href="#DejaVuSans-63" x="534.033203"/>
      <use xlink:href="#DejaVuSans-43" x="589.013672"/>
      <use xlink:href="#DejaVuSans-6f" x="658.837891"/>
      <use xlink:href="#DejaVuSans-6c" x="720.019531"/>
      <use xlink:href="#DejaVuSans-6c" x="747.802734"/>
      <use xlink:href="#DejaVuSans-75" x="775.585938"/>
      <use xlink:href="#DejaVuSans-6d" x="838.964844"/>
     </g>
    </g>
   </g>
   <g id="text_5">
    <g id="patch_6">
     <path d="M 225.062049 94.602512 
L 293.957049 94.602512 
L 293.957049 77.9722 
L 225.062049 77.9722 
z
" clip-path="url(#pf6f7446d7e)" style="fill: #ffffff; opacity: 0.7; stroke: #000000; stroke-linejoin: miter"/>
    </g>
    <g clip-path="url(#pf6f7446d7e)">
     <!-- Kirsten Dunst -->
     <g transform="translate(229.022049 88.770793)scale(0.09 -0.09)">
      <defs>
       <path id="DejaVuSans-4b" d="M 628 4666 
L 1259 4666 
L 1259 2694 
L 3353 4666 
L 4166 4666 
L 1850 2491 
L 4331 0 
L 3500 0 
L 1259 2247 
L 1259 0 
L 628 0 
L 628 4666 
z
" transform="scale(0.015625)"/>
       <path id="DejaVuSans-44" d="M 1259 4147 
L 1259 519 
L 2022 519 
Q 2988 519 3436 956 
Q 3884 1394 3884 2338 
Q 3884 3275 3436 3711 
Q 2988 4147 2022 4147 
L 1259 4147 
z
M 628 4666 
L 1925 4666 
Q 3281 4666 3915 4102 
Q 4550 3538 4550 2338 
Q 4550 1131 3912 565 
Q 3275 0 1925 0 
L 628 0 
L 628 4666 
z
" transform="scale(0.015625)"/>
      </defs>
      <use xlink:href="#DejaVuSans-4b"/>
      <use xlink:href="#DejaVuSans-69" x="65.576172"/>
      <use xlink:href="#DejaVuSans-72" x="93.359375"/>
      <use xlink:href="#DejaVuSans-73" x="134.472656"/>
      <use xlink:href="#DejaVuSans-74" x="186.572266"/>
      <use xlink:href="#DejaVuSans-65" x="225.78125"/>
      <use xlink:href="#DejaVuSans-6e" x="287.304688"/>
      <use xlink:href="#DejaVuSans-20" x="350.683594"/>
      <use xlink:href="#DejaVuSans-44" x="382.470703"/>
      <use xlink:href="#DejaVuSans-75" x="459.472656"/>
      <use xlink:href="#DejaVuSans-6e" x="522.851562"/>
      <use xlink:href="#DejaVuSans-73" x="586.230469"/>
      <use xlink:href="#DejaVuSans-74" x="638.330078"/>
     </g>
    </g>
   </g>
   <g id="text_6">
    <g id="patch_7">
     <path d="M 130.950048 122.152849 
L 217.552548 122.152849 
L 217.552548 105.522536 
L 130.950048 105.522536 
z
" clip-path="url(#pf6f7446d7e)" style="fill: #ffffff; opacity: 0.7; stroke: #000000; stroke-linejoin: miter"/>
    </g>
    <g clip-path="url(#pf6f7446d7e)">
     <!-- Emma Thompson -->
     <g transform="translate(134.910048 116.32113)scale(0.09 -0.09)">
      <defs>
       <path id="DejaVuSans-45" d="M 628 4666 
L 3578 4666 
L 3578 4134 
L 1259 4134 
L 1259 2753 
L 3481 2753 
L 3481 2222 
L 1259 2222 
L 1259 531 
L 3634 531 
L 3634 0 
L 628 0 
L 628 4666 
z
" transform="scale(0.015625)"/>
       <path id="DejaVuSans-54" d="M -19 4666 
L 3928 4666 
L 3928 4134 
L 2272 4134 
L 2272 0 
L 1638 0 
L 1638 4134 
L -19 4134 
L -19 4666 
z
" transform="scale(0.015625)"/>
      </defs>
      <use xlink:href="#DejaVuSans-45"/>
      <use xlink:href="#DejaVuSans-6d" x="63.183594"/>
      <use xlink:href="#DejaVuSans-6d" x="160.595703"/>
      <use xlink:href="#DejaVuSans-61" x="258.007812"/>
      <use xlink:href="#DejaVuSans-20" x="319.287109"/>
      <use xlink:href="#DejaVuSans-54" x="351.074219"/>
      <use xlink:href="#DejaVuSans-68" x="412.158203"/>
      <use xlink:href="#DejaVuSans-6f" x="475.537109"/>
      <use xlink:href="#DejaVuSans-6d" x="536.71875"/>
      <use xlink:href="#DejaVuSans-70" x="634.130859"/>
      <use xlink:href="#DejaVuSans-73" x="697.607422"/>
      <use xlink:href="#DejaVuSans-6f" x="749.707031"/>
      <use xlink:href="#DejaVuSans-6e" x="810.888672"/>
     </g>
    </g>
   </g>
   <g id="text_7">
    <g id="patch_8">
     <path d="M 83.486868 181.80901 
L 131.776086 181.80901 
L 131.776086 165.178697 
L 83.486868 165.178697 
z
" clip-path="url(#pf6f7446d7e)" style="fill: #ffffff; opacity: 0.7; stroke: #000000; stroke-linejoin: miter"/>
    </g>
    <g clip-path="url(#pf6f7446d7e)">
     <!-- Joe Ranft -->
     <g transform="translate(87.446868 175.977291)scale(0.09 -0.09)">
      <defs>
       <path id="DejaVuSans-52" d="M 2841 2188 
Q 3044 2119 3236 1894 
Q 3428 1669 3622 1275 
L 4263 0 
L 3584 0 
L 2988 1197 
Q 2756 1666 2539 1819 
Q 2322 1972 1947 1972 
L 1259 1972 
L 1259 0 
L 628 0 
L 628 4666 
L 2053 4666 
Q 2853 4666 3247 4331 
Q 3641 3997 3641 3322 
Q 3641 2881 3436 2590 
Q 3231 2300 2841 2188 
z
M 1259 4147 
L 1259 2491 
L 2053 2491 
Q 2509 2491 2742 2702 
Q 2975 2913 2975 3322 
Q 2975 3731 2742 3939 
Q 2509 4147 2053 4147 
L 1259 4147 
z
" transform="scale(0.015625)"/>
       <path id="DejaVuSans-66" d="M 2375 4863 
L 2375 4384 
L 1825 4384 
Q 1516 4384 1395 4259 
Q 1275 4134 1275 3809 
L 1275 3500 
L 2222 3500 
L 2222 3053 
L 1275 3053 
L 1275 0 
L 697 0 
L 697 3053 
L 147 3053 
L 147 3500 
L 697 3500 
L 697 3744 
Q 697 4328 969 4595 
Q 1241 4863 1831 4863 
L 2375 4863 
z
" transform="scale(0.015625)"/>
      </defs>
      <use xlink:href="#DejaVuSans-4a"/>
      <use xlink:href="#DejaVuSans-6f" x="29.492188"/>
      <use xlink:href="#DejaVuSans-65" x="90.673828"/>
      <use xlink:href="#DejaVuSans-20" x="152.197266"/>
      <use xlink:href="#DejaVuSans-52" x="183.984375"/>
      <use xlink:href="#DejaVuSans-61" x="251.216797"/>
      <use xlink:href="#DejaVuSans-6e" x="312.496094"/>
      <use xlink:href="#DejaVuSans-66" x="375.875"/>
      <use xlink:href="#DejaVuSans-74" x="409.330078"/>
     </g>
    </g>
   </g>
   <g id="text_8">
    <g id="patch_9">
     <path d="M 25.437278 263.25593 
L 116.901184 263.25593 
L 116.901184 246.625618 
L 25.437278 246.625618 
z
" clip-path="url(#pf6f7446d7e)" style="fill: #ffffff; opacity: 0.7; stroke: #000000; stroke-linejoin: miter"/>
    </g>
    <g clip-path="url(#pf6f7446d7e)">
     <!-- Giancarlo Esposito -->
     <g transform="translate(29.397278 257.424211)scale(0.09 -0.09)">
      <defs>
       <path id="DejaVuSans-47" d="M 3809 666 
L 3809 1919 
L 2778 1919 
L 2778 2438 
L 4434 2438 
L 4434 434 
Q 4069 175 3628 42 
Q 3188 -91 2688 -91 
Q 1594 -91 976 548 
Q 359 1188 359 2328 
Q 359 3472 976 4111 
Q 1594 4750 2688 4750 
Q 3144 4750 3555 4637 
Q 3966 4525 4313 4306 
L 4313 3634 
Q 3963 3931 3569 4081 
Q 3175 4231 2741 4231 
Q 1884 4231 1454 3753 
Q 1025 3275 1025 2328 
Q 1025 1384 1454 906 
Q 1884 428 2741 428 
Q 3075 428 3337 486 
Q 3600 544 3809 666 
z
" transform="scale(0.015625)"/>
      </defs>
      <use xlink:href="#DejaVuSans-47"/>
      <use xlink:href="#DejaVuSans-69" x="77.490234"/>
      <use xlink:href="#DejaVuSans-61" x="105.273438"/>
      <use xlink:href="#DejaVuSans-6e" x="166.552734"/>
      <use xlink:href="#DejaVuSans-63" x="229.931641"/>
      <use xlink:href="#DejaVuSans-61" x="284.912109"/>
      <use xlink:href="#DejaVuSans-72" x="346.191406"/>
      <use xlink:href="#DejaVuSans-6c" x="387.304688"/>
      <use xlink:href="#DejaVuSans-6f" x="415.087891"/>
      <use xlink:href="#DejaVuSans-20" x="476.269531"/>
      <use xlink:href="#DejaVuSans-45" x="508.056641"/>
      <use xlink:href="#DejaVuSans-73" x="571.240234"/>
      <use xlink:href="#DejaVuSans-70" x="623.339844"/>
      <use xlink:href="#DejaVuSans-6f" x="686.816406"/>
      <use xlink:href="#DejaVuSans-73" x="747.998047"/>
      <use xlink:href="#DejaVuSans-69" x="800.097656"/>
      <use xlink:href="#DejaVuSans-74" x="827.880859"/>
      <use xlink:href="#DejaVuSans-6f" x="867.089844"/>
     </g>
    </g>
   </g>
   <g id="text_9">
    <g id="patch_10">
     <path d="M 35.285259 352.410671 
L 107.053228 352.410671 
L 107.053228 335.780358 
L 35.285259 335.780358 
z
" clip-path="url(#pf6f7446d7e)" style="fill: #ffffff; opacity: 0.7; stroke: #000000; stroke-linejoin: miter"/>
    </g>
    <g clip-path="url(#pf6f7446d7e)">
     <!-- Steven Wright -->
     <g transform="translate(39.245259 346.578952)scale(0.09 -0.09)">
      <defs>
       <path id="DejaVuSans-76" d="M 191 3500 
L 800 3500 
L 1894 563 
L 2988 3500 
L 3597 3500 
L 2284 0 
L 1503 0 
L 191 3500 
z
" transform="scale(0.015625)"/>
      </defs>
      <use xlink:href="#DejaVuSans-53"/>
      <use xlink:href="#DejaVuSans-74" x="63.476562"/>
      <use xlink:href="#DejaVuSans-65" x="102.685547"/>
      <use xlink:href="#DejaVuSans-76" x="164.208984"/>
      <use xlink:href="#DejaVuSans-65" x="223.388672"/>
      <use xlink:href="#DejaVuSans-6e" x="284.912109"/>
      <use xlink:href="#DejaVuSans-20" x="348.291016"/>
      <use xlink:href="#DejaVuSans-57" x="380.078125"/>
      <use xlink:href="#DejaVuSans-72" x="474.455078"/>
      <use xlink:href="#DejaVuSans-69" x="515.568359"/>
      <use xlink:href="#DejaVuSans-67" x="543.351562"/>
      <use xlink:href="#DejaVuSans-68" x="606.828125"/>
      <use xlink:href="#DejaVuSans-74" x="670.207031"/>
     </g>
    </g>
   </g>
   <g id="text_10">
    <g id="patch_11">
     <path d="M 70.135943 433.857565 
L 145.127037 433.857565 
L 145.127037 417.227253 
L 70.135943 417.227253 
z
" clip-path="url(#pf6f7446d7e)" style="fill: #ffffff; opacity: 0.7; stroke: #000000; stroke-linejoin: miter"/>
    </g>
    <g clip-path="url(#pf6f7446d7e)">
     <!-- Edward Norton -->
     <g transform="translate(74.095943 428.025847)scale(0.09 -0.09)">
      <defs>
       <path id="DejaVuSans-64" d="M 2906 2969 
L 2906 4863 
L 3481 4863 
L 3481 0 
L 2906 0 
L 2906 525 
Q 2725 213 2448 61 
Q 2172 -91 1784 -91 
Q 1150 -91 751 415 
Q 353 922 353 1747 
Q 353 2572 751 3078 
Q 1150 3584 1784 3584 
Q 2172 3584 2448 3432 
Q 2725 3281 2906 2969 
z
M 947 1747 
Q 947 1113 1208 752 
Q 1469 391 1925 391 
Q 2381 391 2643 752 
Q 2906 1113 2906 1747 
Q 2906 2381 2643 2742 
Q 2381 3103 1925 3103 
Q 1469 3103 1208 2742 
Q 947 2381 947 1747 
z
" transform="scale(0.015625)"/>
       <path id="DejaVuSans-77" d="M 269 3500 
L 844 3500 
L 1563 769 
L 2278 3500 
L 2956 3500 
L 3675 769 
L 4391 3500 
L 4966 3500 
L 4050 0 
L 3372 0 
L 2619 2869 
L 1863 0 
L 1184 0 
L 269 3500 
z
" transform="scale(0.015625)"/>
       <path id="DejaVuSans-4e" d="M 628 4666 
L 1478 4666 
L 3547 763 
L 3547 4666 
L 4159 4666 
L 4159 0 
L 3309 0 
L 1241 3903 
L 1241 0 
L 628 0 
L 628 4666 
z
" transform="scale(0.015625)"/>
      </defs>
      <use xlink:href="#DejaVuSans-45"/>
      <use xlink:href="#DejaVuSans-64" x="63.183594"/>
      <use xlink:href="#DejaVuSans-77" x="126.660156"/>
      <use xlink:href="#DejaVuSans-61" x="208.447266"/>
      <use xlink:href="#DejaVuSans-72" x="269.726562"/>
      <use xlink:href="#DejaVuSans-64" x="309.089844"/>
      <use xlink:href="#DejaVuSans-20" x="372.566406"/>
      <use xlink:href="#DejaVuSans-4e" x="404.353516"/>
      <use xlink:href="#DejaVuSans-6f" x="479.158203"/>
      <use xlink:href="#DejaVuSans-72" x="540.339844"/>
      <use xlink:href="#DejaVuSans-74" x="581.453125"/>
      <use xlink:href="#DejaVuSans-6f" x="620.662109"/>
      <use xlink:href="#DejaVuSans-6e" x="681.84375"/>
     </g>
    </g>
   </g>
   <g id="text_11">
    <g id="patch_12">
     <path d="M 141.195315 493.513727 
L 207.307346 493.513727 
L 207.307346 476.883414 
L 141.195315 476.883414 
z
" clip-path="url(#pf6f7446d7e)" style="fill: #ffffff; opacity: 0.7; stroke: #000000; stroke-linejoin: miter"/>
    </g>
    <g clip-path="url(#pf6f7446d7e)">
     <!-- John Travolta -->
     <g transform="translate(145.155315 487.682008)scale(0.09 -0.09)">
      <use xlink:href="#DejaVuSans-4a"/>
      <use xlink:href="#DejaVuSans-6f" x="29.492188"/>
      <use xlink:href="#DejaVuSans-68" x="90.673828"/>
      <use xlink:href="#DejaVuSans-6e" x="154.052734"/>
      <use xlink:href="#DejaVuSans-20" x="217.431641"/>
      <use xlink:href="#DejaVuSans-54" x="249.21875"/>
      <use xlink:href="#DejaVuSans-72" x="295.552734"/>
      <use xlink:href="#DejaVuSans-61" x="336.666016"/>
      <use xlink:href="#DejaVuSans-76" x="397.945312"/>
      <use xlink:href="#DejaVuSans-6f" x="457.125"/>
      <use xlink:href="#DejaVuSans-6c" x="518.306641"/>
      <use xlink:href="#DejaVuSans-74" x="546.089844"/>
      <use xlink:href="#DejaVuSans-61" x="585.298828"/>
     </g>
    </g>
   </g>
   <g id="text_12">
    <g id="patch_13">
     <path d="M 234.442478 521.06405 
L 284.576697 521.06405 
L 284.576697 504.433738 
L 234.442478 504.433738 
z
" clip-path="url(#pf6f7446d7e)" style="fill: #ffffff; opacity: 0.7; stroke: #000000; stroke-linejoin: miter"/>
    </g>
    <g clip-path="url(#pf6f7446d7e)">
     <!-- Jonah Hill -->
     <g transform="translate(238.402478 515.232332)scale(0.09 -0.09)">
      <defs>
       <path id="DejaVuSans-48" d="M 628 4666 
L 1259 4666 
L 1259 2753 
L 3553 2753 
L 3553 4666 
L 4184 4666 
L 4184 0 
L 3553 0 
L 3553 2222 
L 1259 2222 
L 1259 0 
L 628 0 
L 628 4666 
z
" transform="scale(0.015625)"/>
      </defs>
      <use xlink:href="#DejaVuSans-4a"/>
      <use xlink:href="#DejaVuSans-6f" x="29.492188"/>
      <use xlink:href="#DejaVuSans-6e" x="90.673828"/>
      <use xlink:href="#DejaVuSans-61" x="154.052734"/>
      <use xlink:href="#DejaVuSans-68" x="215.332031"/>
      <use xlink:href="#DejaVuSans-20" x="278.710938"/>
      <use xlink:href="#DejaVuSans-48" x="310.498047"/>
      <use xlink:href="#DejaVuSans-69" x="385.693359"/>
      <use xlink:href="#DejaVuSans-6c" x="413.476562"/>
      <use xlink:href="#DejaVuSans-6c" x="441.259766"/>
     </g>
    </g>
   </g>
   <g id="text_13">
    <g id="patch_14">
     <path d="M 317.348542 511.924831 
L 379.980105 511.924831 
L 379.980105 494.934518 
L 317.348542 494.934518 
z
" clip-path="url(#pf6f7446d7e)" style="fill: #ffffff; opacity: 0.7; stroke: #000000; stroke-linejoin: miter"/>
    </g>
    <g clip-path="url(#pf6f7446d7e)">
     <!-- Andy García -->
     <g transform="translate(321.308542 506.093112)scale(0.09 -0.09)">
      <defs>
       <path id="DejaVuSans-41" d="M 2188 4044 
L 1331 1722 
L 3047 1722 
L 2188 4044 
z
M 1831 4666 
L 2547 4666 
L 4325 0 
L 3669 0 
L 3244 1197 
L 1141 1197 
L 716 0 
L 50 0 
L 1831 4666 
z
" transform="scale(0.015625)"/>
       <path id="DejaVuSans-79" d="M 2059 -325 
Q 1816 -950 1584 -1140 
Q 1353 -1331 966 -1331 
L 506 -1331 
L 506 -850 
L 844 -850 
Q 1081 -850 1212 -737 
Q 1344 -625 1503 -206 
L 1606 56 
L 191 3500 
L 800 3500 
L 1894 763 
L 2988 3500 
L 3597 3500 
L 2059 -325 
z
" transform="scale(0.015625)"/>
       <path id="DejaVuSans-ed" d="M 1325 5119 
L 1947 5119 
L 928 3944 
L 450 3944 
L 1325 5119 
z
M 603 3500 
L 1178 3500 
L 1178 0 
L 603 0 
L 603 3500 
z
M 891 3584 
L 891 3584 
z
" transform="scale(0.015625)"/>
      </defs>
      <use xlink:href="#DejaVuSans-41"/>
      <use xlink:href="#DejaVuSans-6e" x="68.408203"/>
      <use xlink:href="#DejaVuSans-64" x="131.787109"/>
      <use xlink:href="#DejaVuSans-79" x="195.263672"/>
      <use xlink:href="#DejaVuSans-20" x="254.443359"/>
      <use xlink:href="#DejaVuSans-47" x="286.230469"/>
      <use xlink:href="#DejaVuSans-61" x="363.720703"/>
      <use xlink:href="#DejaVuSans-72" x="425"/>
      <use xlink:href="#DejaVuSans-63" x="463.863281"/>
      <use xlink:href="#DejaVuSans-ed" x="518.84375"/>
      <use xlink:href="#DejaVuSans-61" x="546.626953"/>
     </g>
    </g>
   </g>
   <g id="text_14">
    <g id="patch_15">
     <path d="M 391.29481 467.167441 
L 461.304967 467.167441 
L 461.304967 450.537129 
L 391.29481 450.537129 
z
" clip-path="url(#pf6f7446d7e)" style="fill: #ffffff; opacity: 0.7; stroke: #000000; stroke-linejoin: miter"/>
    </g>
    <g clip-path="url(#pf6f7446d7e)">
     <!-- W. Earl Brown -->
     <g transform="translate(395.25481 461.335723)scale(0.09 -0.09)">
      <defs>
       <path id="DejaVuSans-2e" d="M 684 794 
L 1344 794 
L 1344 0 
L 684 0 
L 684 794 
z
" transform="scale(0.015625)"/>
      </defs>
      <use xlink:href="#DejaVuSans-57"/>
      <use xlink:href="#DejaVuSans-2e" x="87.376953"/>
      <use xlink:href="#DejaVuSans-20" x="119.164062"/>
      <use xlink:href="#DejaVuSans-45" x="150.951172"/>
      <use xlink:href="#DejaVuSans-61" x="214.134766"/>
      <use xlink:href="#DejaVuSans-72" x="275.414062"/>
      <use xlink:href="#DejaVuSans-6c" x="316.527344"/>
      <use xlink:href="#DejaVuSans-20" x="344.310547"/>
      <use xlink:href="#DejaVuSans-42" x="376.097656"/>
      <use xlink:href="#DejaVuSans-72" x="444.701172"/>
      <use xlink:href="#DejaVuSans-6f" x="483.564453"/>
      <use xlink:href="#DejaVuSans-77" x="544.746094"/>
      <use xlink:href="#DejaVuSans-6e" x="626.533203"/>
     </g>
    </g>
   </g>
   <g id="text_15">
    <g id="patch_16">
     <path d="M 439.043624 395.039741 
L 518.941124 395.039741 
L 518.941124 378.409428 
L 439.043624 378.409428 
z
" clip-path="url(#pf6f7446d7e)" style="fill: #ffffff; opacity: 0.7; stroke: #000000; stroke-linejoin: miter"/>
    </g>
    <g clip-path="url(#pf6f7446d7e)">
     <!-- James Cromwell -->
     <g transform="translate(443.003624 389.208022)scale(0.09 -0.09)">
      <use xlink:href="#DejaVuSans-4a"/>
      <use xlink:href="#DejaVuSans-61" x="29.492188"/>
      <use xlink:href="#DejaVuSans-6d" x="90.771484"/>
      <use xlink:href="#DejaVuSans-65" x="188.183594"/>
      <use xlink:href="#DejaVuSans-73" x="249.707031"/>
      <use xlink:href="#DejaVuSans-20" x="301.806641"/>
      <use xlink:href="#DejaVuSans-43" x="333.59375"/>
      <use xlink:href="#DejaVuSans-72" x="403.417969"/>
      <use xlink:href="#DejaVuSans-6f" x="442.28125"/>
      <use xlink:href="#DejaVuSans-6d" x="503.462891"/>
      <use xlink:href="#DejaVuSans-77" x="600.875"/>
      <use xlink:href="#DejaVuSans-65" x="682.662109"/>
      <use xlink:href="#DejaVuSans-6c" x="744.185547"/>
      <use xlink:href="#DejaVuSans-6c" x="771.96875"/>
     </g>
    </g>
   </g>
   <g id="text_16">
    <!-- Impactful actors for Short Film genre -->
    <g transform="translate(174.068437 16.318125)scale(0.12 -0.12)">
     <defs>
      <path id="DejaVuSans-49" d="M 628 4666 
L 1259 4666 
L 1259 0 
L 628 0 
L 628 4666 
z
" transform="scale(0.015625)"/>
      <path id="DejaVuSans-46" d="M 628 4666 
L 3309 4666 
L 3309 4134 
L 1259 4134 
L 1259 2759 
L 3109 2759 
L 3109 2228 
L 1259 2228 
L 1259 0 
L 628 0 
L 628 4666 
z
" transform="scale(0.015625)"/>
     </defs>
     <use xlink:href="#DejaVuSans-49"/>
     <use xlink:href="#DejaVuSans-6d" x="29.492188"/>
     <use xlink:href="#DejaVuSans-70" x="126.904297"/>
     <use xlink:href="#DejaVuSans-61" x="190.380859"/>
     <use xlink:href="#DejaVuSans-63" x="251.660156"/>
     <use xlink:href="#DejaVuSans-74" x="306.640625"/>
     <use xlink:href="#DejaVuSans-66" x="345.849609"/>
     <use xlink:href="#DejaVuSans-75" x="381.054688"/>
     <use xlink:href="#DejaVuSans-6c" x="444.433594"/>
     <use xlink:href="#DejaVuSans-20" x="472.216797"/>
     <use xlink:href="#DejaVuSans-61" x="504.003906"/>
     <use xlink:href="#DejaVuSans-63" x="565.283203"/>
     <use xlink:href="#DejaVuSans-74" x="620.263672"/>
     <use xlink:href="#DejaVuSans-6f" x="659.472656"/>
     <use xlink:href="#DejaVuSans-72" x="720.654297"/>
     <use xlink:href="#DejaVuSans-73" x="761.767578"/>
     <use xlink:href="#DejaVuSans-20" x="813.867188"/>
     <use xlink:href="#DejaVuSans-66" x="845.654297"/>
     <use xlink:href="#DejaVuSans-6f" x="880.859375"/>
     <use xlink:href="#DejaVuSans-72" x="942.041016"/>
     <use xlink:href="#DejaVuSans-20" x="983.154297"/>
     <use xlink:href="#DejaVuSans-53" x="1014.941406"/>
     <use xlink:href="#DejaVuSans-68" x="1078.417969"/>
     <use xlink:href="#DejaVuSans-6f" x="1141.796875"/>
     <use xlink:href="#DejaVuSans-72" x="1202.978516"/>
     <use xlink:href="#DejaVuSans-74" x="1244.091797"/>
     <use xlink:href="#DejaVuSans-20" x="1283.300781"/>
     <use xlink:href="#DejaVuSans-46" x="1315.087891"/>
     <use xlink:href="#DejaVuSans-69" x="1365.357422"/>
     <use xlink:href="#DejaVuSans-6c" x="1393.140625"/>
     <use xlink:href="#DejaVuSans-6d" x="1420.923828"/>
     <use xlink:href="#DejaVuSans-20" x="1518.335938"/>
     <use xlink:href="#DejaVuSans-67" x="1550.123047"/>
     <use xlink:href="#DejaVuSans-65" x="1613.599609"/>
     <use xlink:href="#DejaVuSans-6e" x="1675.123047"/>
     <use xlink:href="#DejaVuSans-72" x="1738.501953"/>
     <use xlink:href="#DejaVuSans-65" x="1777.365234"/>
    </g>
   </g>
  </g>
 </g>
 <defs>
  <clipPath id="pf6f7446d7e">
   <rect x="7.2" y="22.318125" width="554.4" height="554.4"/>
  </clipPath>
 </defs>
</svg>
