<?xml version="1.0" encoding="utf-8" standalone="no"?>
<!DOCTYPE svg PUBLIC "-//W3C//DTD SVG 1.1//EN"
  "http://www.w3.org/Graphics/SVG/1.1/DTD/svg11.dtd">
<svg xmlns:xlink="http://www.w3.org/1999/xlink" width="568.8pt" height="583.918125pt" viewBox="0 0 568.8 583.918125" xmlns="http://www.w3.org/2000/svg" version="1.1">
 <metadata>
  <rdf:RDF xmlns:dc="http://purl.org/dc/elements/1.1/" xmlns:cc="http://creativecommons.org/ns#" xmlns:rdf="http://www.w3.org/1999/02/22-rdf-syntax-ns#">
   <cc:Work>
    <dc:type rdf:resource="http://purl.org/dc/dcmitype/StillImage"/>
    <dc:date>2022-12-22T19:12:52.026627</dc:date>
    <dc:format>image/svg+xml</dc:format>
    <dc:creator>
     <cc:Agent>
      <dc:title>Matplotlib v3.5.2, https://matplotlib.org/</dc:title>
     </cc:Agent>
    </dc:creator>
   </cc:Work>
  </rdf:RDF>
 </metadata>
 <defs>
  <style type="text/css">*{stroke-linejoin: round; stroke-linecap: butt}</style>
 </defs>
 <g id="figure_1">
  <g id="patch_1">
   <path d="M 0 583.918125 
L 568.8 583.918125 
L 568.8 0 
L 0 0 
z
" style="fill: #ffffff"/>
  </g>
  <g id="axes_1">
   <g id="PathCollection_1">
    <path d="M 497.630769 326.904253 
C 504.893655 326.904253 511.86005 324.018678 516.995686 318.883042 
C 522.131322 313.747406 525.016897 306.781011 525.016897 299.518125 
C 525.016897 292.255239 522.131322 285.288844 516.995686 280.153208 
C 511.86005 275.017572 504.893655 272.131997 497.630769 272.131997 
C 490.367883 272.131997 483.401488 275.017572 478.265852 280.153208 
C 473.130217 285.288844 470.244641 292.255239 470.244641 299.518125 
C 470.244641 306.781011 473.130217 313.747406 478.265852 318.883042 
C 483.401488 324.018678 490.367883 326.904253 497.630769 326.904253 
z
" clip-path="url(#p6e24dbfc32)" style="fill: #d62728; fill-opacity: 0.99; stroke: #d62728; stroke-opacity: 0.99"/>
    <path d="M 478.992348 239.692101 
C 486.253733 239.692101 493.218688 236.807123 498.353262 231.672548 
C 503.487837 226.537973 506.372816 219.573018 506.372816 212.311633 
C 506.372816 205.050248 503.487837 198.085293 498.353262 192.950719 
C 493.218688 187.816144 486.253733 184.931165 478.992348 184.931165 
C 471.730963 184.931165 464.766008 187.816144 459.631433 192.950719 
C 454.496859 198.085293 451.61188 205.050248 451.61188 212.311633 
C 451.61188 219.573018 454.496859 226.537973 459.631433 231.672548 
C 464.766008 236.807123 471.730963 239.692101 478.992348 239.692101 
z
" clip-path="url(#p6e24dbfc32)" style="fill: #d62728; fill-opacity: 0.99; stroke: #d62728; stroke-opacity: 0.99"/>
    <path d="M 426.29985 166.895302 
C 433.383789 166.895302 440.178543 164.080823 445.187645 159.071721 
C 450.196746 154.06262 453.011225 147.267866 453.011225 140.183927 
C 453.011225 133.099987 450.196746 126.305234 445.187645 121.296132 
C 440.178543 116.28703 433.383789 113.472551 426.29985 113.472551 
C 419.21591 113.472551 412.421157 116.28703 407.412055 121.296132 
C 402.402953 126.305234 399.588474 133.099987 399.588474 140.183927 
C 399.588474 147.267866 402.402953 154.06262 407.412055 159.071721 
C 412.421157 164.080823 419.21591 166.895302 426.29985 166.895302 
z
" clip-path="url(#p6e24dbfc32)" style="fill: #d62728; fill-opacity: 0.99; stroke: #d62728; stroke-opacity: 0.99"/>
    <path d="M 348.664291 121.039747 
C 355.40925 121.039747 361.878862 118.359946 366.648268 113.59054 
C 371.417675 108.821133 374.097475 102.351522 374.097475 95.606563 
C 374.097475 88.861603 371.417675 82.391992 366.648268 77.622586 
C 361.878862 72.853179 355.40925 70.173379 348.664291 70.173379 
C 341.919332 70.173379 335.449721 72.853179 330.680314 77.622586 
C 325.910908 82.391992 323.231107 88.861603 323.231107 95.606563 
C 323.231107 102.351522 325.910908 108.821133 330.680314 113.59054 
C 335.449721 118.359946 341.919332 121.039747 348.664291 121.039747 
z
" clip-path="url(#p6e24dbfc32)" style="fill: #d62728; fill-opacity: 0.99; stroke: #d62728; stroke-opacity: 0.99"/>
    <path d="M 259.509549 110.112574 
C 265.82807 110.112574 271.888653 107.602199 276.356522 103.134329 
C 280.824392 98.66646 283.334767 92.605878 283.334767 86.287356 
C 283.334767 79.968834 280.824392 73.908252 276.356522 69.440382 
C 271.888653 64.972513 265.82807 62.462137 259.509549 62.462137 
C 253.191027 62.462137 247.130445 64.972513 242.662575 69.440382 
C 238.194705 73.908252 235.68433 79.968834 235.68433 86.287356 
C 235.68433 92.605878 238.194705 98.66646 242.662575 103.134329 
C 247.130445 107.602199 253.191027 110.112574 259.509549 110.112574 
z
" clip-path="url(#p6e24dbfc32)" style="fill: #d62728; fill-opacity: 0.99; stroke: #d62728; stroke-opacity: 0.99"/>
    <path d="M 174.251298 137.207049 
C 180.448924 137.207049 186.393546 134.744706 190.775929 130.362323 
C 195.158312 125.97994 197.620655 120.035318 197.620655 113.837692 
C 197.620655 107.640066 195.158312 101.695445 190.775929 97.313061 
C 186.393546 92.930678 180.448924 90.468335 174.251298 90.468335 
C 168.053672 90.468335 162.109051 92.930678 157.726667 97.313061 
C 153.344284 101.695445 150.881941 107.640066 150.881941 113.837692 
C 150.881941 120.035318 153.344284 125.97994 157.726667 130.362323 
C 162.109051 134.744706 168.053672 137.207049 174.251298 137.207049 
z
" clip-path="url(#p6e24dbfc32)" style="fill: #d62728; fill-opacity: 0.99; stroke: #d62728; stroke-opacity: 0.99"/>
    <path d="M 107.631477 196.661478 
C 113.775603 196.661478 119.668908 194.220391 124.013461 189.875838 
C 128.358014 185.531285 130.799101 179.637979 130.799101 173.493854 
C 130.799101 167.349728 128.358014 161.456423 124.013461 157.11187 
C 119.668908 152.767317 113.775603 150.32623 107.631477 150.32623 
C 101.487351 150.32623 95.594046 152.767317 91.249493 157.11187 
C 86.90494 161.456423 84.463853 167.349728 84.463853 173.493854 
C 84.463853 179.637979 86.90494 185.531285 91.249493 189.875838 
C 95.594046 194.220391 101.487351 196.661478 107.631477 196.661478 
z
" clip-path="url(#p6e24dbfc32)" style="fill: #d62728; fill-opacity: 0.99; stroke: #d62728; stroke-opacity: 0.99"/>
    <path d="M 71.169231 277.494156 
C 77.150458 277.494156 82.887514 275.117789 87.11688 270.888423 
C 91.346246 266.659057 93.722613 260.922001 93.722613 254.940774 
C 93.722613 248.959547 91.346246 243.222491 87.11688 238.993124 
C 82.887514 234.763758 77.150458 232.387392 71.169231 232.387392 
C 65.188004 232.387392 59.450947 234.763758 55.221581 238.993124 
C 50.992215 243.222491 48.615849 248.959547 48.615849 254.940774 
C 48.615849 260.922001 50.992215 266.659057 55.221581 270.888423 
C 59.450947 275.117789 65.188004 277.494156 71.169231 277.494156 
z
" clip-path="url(#p6e24dbfc32)" style="fill: #d62728; fill-opacity: 0.99; stroke: #d62728; stroke-opacity: 0.99"/>
    <path d="M 71.169244 366.088556 
C 77.001866 366.088556 82.596385 363.771231 86.720673 359.646943 
C 90.84496 355.522656 93.162285 349.928137 93.162285 344.095514 
C 93.162285 338.262892 90.84496 332.668373 86.720673 328.544086 
C 82.596385 324.419798 77.001866 322.102473 71.169244 322.102473 
C 65.336621 322.102473 59.742102 324.419798 55.617815 328.544086 
C 51.493527 332.668373 49.176202 338.262892 49.176202 344.095514 
C 49.176202 349.928137 51.493527 355.522656 55.617815 359.646943 
C 59.742102 363.771231 65.336621 366.088556 71.169244 366.088556 
z
" clip-path="url(#p6e24dbfc32)" style="fill: #d62728; fill-opacity: 0.99; stroke: #d62728; stroke-opacity: 0.99"/>
    <path d="M 107.63149 446.588971 
C 113.213103 446.588971 118.56686 444.371372 122.513656 440.424576 
C 126.460453 436.477779 128.678052 431.124022 128.678052 425.542409 
C 128.678052 419.960796 126.460453 414.607039 122.513656 410.660243 
C 118.56686 406.713446 113.213103 404.495847 107.63149 404.495847 
C 102.049876 404.495847 96.69612 406.713446 92.749323 410.660243 
C 88.802527 414.607039 86.584928 419.960796 86.584928 425.542409 
C 86.584928 431.124022 88.802527 436.477779 92.749323 440.424576 
C 96.69612 444.371372 102.049876 446.588971 107.63149 446.588971 
z
" clip-path="url(#p6e24dbfc32)" style="fill: #d62728; fill-opacity: 0.99; stroke: #d62728; stroke-opacity: 0.99"/>
    <path d="M 174.25133 506.087751 
C 179.791206 506.087751 185.104928 503.886735 189.022212 499.969452 
C 192.939495 496.052168 195.140511 490.738446 195.140511 485.198571 
C 195.140511 479.658695 192.939495 474.344973 189.022212 470.427689 
C 185.104928 466.510406 179.791206 464.30939 174.25133 464.30939 
C 168.711455 464.30939 163.397732 466.510406 159.480449 470.427689 
C 155.563165 474.344973 153.362149 479.658695 153.362149 485.198571 
C 153.362149 490.738446 155.563165 496.052168 159.480449 499.969452 
C 163.397732 503.886735 168.711455 506.087751 174.25133 506.087751 
z
" clip-path="url(#p6e24dbfc32)" style="fill: #d62728; fill-opacity: 0.99; stroke: #d62728; stroke-opacity: 0.99"/>
    <path d="M 259.509587 533.617159 
C 265.043916 533.617159 270.352318 531.418347 274.265679 527.504986 
C 278.17904 523.591625 280.377852 518.283223 280.377852 512.748894 
C 280.377852 507.214566 278.17904 501.906164 274.265679 497.992803 
C 270.352318 494.079441 265.043916 491.880629 259.509587 491.880629 
C 253.975259 491.880629 248.666857 494.079441 244.753496 497.992803 
C 240.840134 501.906164 238.641322 507.214566 238.641322 512.748894 
C 238.641322 518.283223 240.840134 523.591625 244.753496 527.504986 
C 248.666857 531.418347 253.975259 533.617159 259.509587 533.617159 
z
" clip-path="url(#p6e24dbfc32)" style="fill: #d62728; fill-opacity: 0.99; stroke: #d62728; stroke-opacity: 0.99"/>
    <path d="M 348.664323 524.020662 
C 354.125117 524.020662 359.362986 521.851066 363.22435 517.989701 
C 367.085714 514.128337 369.255311 508.890468 369.255311 503.429675 
C 369.255311 497.968881 367.085714 492.731012 363.22435 488.869648 
C 359.362986 485.008283 354.125117 482.838687 348.664323 482.838687 
C 343.20353 482.838687 337.965661 485.008283 334.104296 488.869648 
C 330.242932 492.731012 328.073336 497.968881 328.073336 503.429675 
C 328.073336 508.890468 330.242932 514.128337 334.104296 517.989701 
C 337.965661 521.851066 343.20353 524.020662 348.664323 524.020662 
z
" clip-path="url(#p6e24dbfc32)" style="fill: #d62728; fill-opacity: 0.99; stroke: #d62728; stroke-opacity: 0.99"/>
    <path d="M 426.299888 478.906466 
C 431.618319 478.906466 436.719637 476.793431 440.480336 473.032732 
C 444.241034 469.272034 446.354069 464.170716 446.354069 458.852285 
C 446.354069 453.533854 444.241034 448.432536 440.480336 444.671838 
C 436.719637 440.911139 431.618319 438.798104 426.299888 438.798104 
C 420.981457 438.798104 415.88014 440.911139 412.119441 444.671838 
C 408.358742 448.432536 406.245707 453.533854 406.245707 458.852285 
C 406.245707 464.170716 408.358742 469.272034 412.119441 473.032732 
C 415.88014 476.793431 420.981457 478.906466 426.299888 478.906466 
z
" clip-path="url(#p6e24dbfc32)" style="fill: #d62728; fill-opacity: 0.99; stroke: #d62728; stroke-opacity: 0.99"/>
    <path d="M 478.992374 406.089501 
C 484.128009 406.089501 489.053994 404.049092 492.685437 400.417649 
C 496.31688 396.786206 498.35729 391.860221 498.35729 386.724585 
C 498.35729 381.588949 496.31688 376.662964 492.685437 373.031521 
C 489.053994 369.400078 484.128009 367.359668 478.992374 367.359668 
C 473.856738 367.359668 468.930753 369.400078 465.29931 373.031521 
C 461.667867 376.662964 459.627457 381.588949 459.627457 386.724585 
C 459.627457 391.860221 461.667867 396.786206 465.29931 400.417649 
C 468.930753 404.049092 473.856738 406.089501 478.992374 406.089501 
z
" clip-path="url(#p6e24dbfc32)" style="fill: #d62728; fill-opacity: 0.99; stroke: #d62728; stroke-opacity: 0.99"/>
   </g>
   <g id="text_1">
    <g id="patch_2">
     <path d="M 442.431238 307.833281 
L 552.8303 307.833281 
L 552.8303 291.202969 
L 442.431238 291.202969 
z
" clip-path="url(#p6e24dbfc32)" style="fill: #ffffff; opacity: 0.7; stroke: #000000; stroke-linejoin: miter"/>
    </g>
    <g clip-path="url(#p6e24dbfc32)">
     <!-- Thomas Haden Church -->
     <g transform="translate(446.391238 302.001562)scale(0.09 -0.09)">
      <defs>
       <path id="DejaVuSans-54" d="M -19 4666 
L 3928 4666 
L 3928 4134 
L 2272 4134 
L 2272 0 
L 1638 0 
L 1638 4134 
L -19 4134 
L -19 4666 
z
" transform="scale(0.015625)"/>
       <path id="DejaVuSans-68" d="M 3513 2113 
L 3513 0 
L 2938 0 
L 2938 2094 
Q 2938 2591 2744 2837 
Q 2550 3084 2163 3084 
Q 1697 3084 1428 2787 
Q 1159 2491 1159 1978 
L 1159 0 
L 581 0 
L 581 4863 
L 1159 4863 
L 1159 2956 
Q 1366 3272 1645 3428 
Q 1925 3584 2291 3584 
Q 2894 3584 3203 3211 
Q 3513 2838 3513 2113 
z
" transform="scale(0.015625)"/>
       <path id="DejaVuSans-6f" d="M 1959 3097 
Q 1497 3097 1228 2736 
Q 959 2375 959 1747 
Q 959 1119 1226 758 
Q 1494 397 1959 397 
Q 2419 397 2687 759 
Q 2956 1122 2956 1747 
Q 2956 2369 2687 2733 
Q 2419 3097 1959 3097 
z
M 1959 3584 
Q 2709 3584 3137 3096 
Q 3566 2609 3566 1747 
Q 3566 888 3137 398 
Q 2709 -91 1959 -91 
Q 1206 -91 779 398 
Q 353 888 353 1747 
Q 353 2609 779 3096 
Q 1206 3584 1959 3584 
z
" transform="scale(0.015625)"/>
       <path id="DejaVuSans-6d" d="M 3328 2828 
Q 3544 3216 3844 3400 
Q 4144 3584 4550 3584 
Q 5097 3584 5394 3201 
Q 5691 2819 5691 2113 
L 5691 0 
L 5113 0 
L 5113 2094 
Q 5113 2597 4934 2840 
Q 4756 3084 4391 3084 
Q 3944 3084 3684 2787 
Q 3425 2491 3425 1978 
L 3425 0 
L 2847 0 
L 2847 2094 
Q 2847 2600 2669 2842 
Q 2491 3084 2119 3084 
Q 1678 3084 1418 2786 
Q 1159 2488 1159 1978 
L 1159 0 
L 581 0 
L 581 3500 
L 1159 3500 
L 1159 2956 
Q 1356 3278 1631 3431 
Q 1906 3584 2284 3584 
Q 2666 3584 2933 3390 
Q 3200 3197 3328 2828 
z
" transform="scale(0.015625)"/>
       <path id="DejaVuSans-61" d="M 2194 1759 
Q 1497 1759 1228 1600 
Q 959 1441 959 1056 
Q 959 750 1161 570 
Q 1363 391 1709 391 
Q 2188 391 2477 730 
Q 2766 1069 2766 1631 
L 2766 1759 
L 2194 1759 
z
M 3341 1997 
L 3341 0 
L 2766 0 
L 2766 531 
Q 2569 213 2275 61 
Q 1981 -91 1556 -91 
Q 1019 -91 701 211 
Q 384 513 384 1019 
Q 384 1609 779 1909 
Q 1175 2209 1959 2209 
L 2766 2209 
L 2766 2266 
Q 2766 2663 2505 2880 
Q 2244 3097 1772 3097 
Q 1472 3097 1187 3025 
Q 903 2953 641 2809 
L 641 3341 
Q 956 3463 1253 3523 
Q 1550 3584 1831 3584 
Q 2591 3584 2966 3190 
Q 3341 2797 3341 1997 
z
" transform="scale(0.015625)"/>
       <path id="DejaVuSans-73" d="M 2834 3397 
L 2834 2853 
Q 2591 2978 2328 3040 
Q 2066 3103 1784 3103 
Q 1356 3103 1142 2972 
Q 928 2841 928 2578 
Q 928 2378 1081 2264 
Q 1234 2150 1697 2047 
L 1894 2003 
Q 2506 1872 2764 1633 
Q 3022 1394 3022 966 
Q 3022 478 2636 193 
Q 2250 -91 1575 -91 
Q 1294 -91 989 -36 
Q 684 19 347 128 
L 347 722 
Q 666 556 975 473 
Q 1284 391 1588 391 
Q 1994 391 2212 530 
Q 2431 669 2431 922 
Q 2431 1156 2273 1281 
Q 2116 1406 1581 1522 
L 1381 1569 
Q 847 1681 609 1914 
Q 372 2147 372 2553 
Q 372 3047 722 3315 
Q 1072 3584 1716 3584 
Q 2034 3584 2315 3537 
Q 2597 3491 2834 3397 
z
" transform="scale(0.015625)"/>
       <path id="DejaVuSans-20" transform="scale(0.015625)"/>
       <path id="DejaVuSans-48" d="M 628 4666 
L 1259 4666 
L 1259 2753 
L 3553 2753 
L 3553 4666 
L 4184 4666 
L 4184 0 
L 3553 0 
L 3553 2222 
L 1259 2222 
L 1259 0 
L 628 0 
L 628 4666 
z
" transform="scale(0.015625)"/>
       <path id="DejaVuSans-64" d="M 2906 2969 
L 2906 4863 
L 3481 4863 
L 3481 0 
L 2906 0 
L 2906 525 
Q 2725 213 2448 61 
Q 2172 -91 1784 -91 
Q 1150 -91 751 415 
Q 353 922 353 1747 
Q 353 2572 751 3078 
Q 1150 3584 1784 3584 
Q 2172 3584 2448 3432 
Q 2725 3281 2906 2969 
z
M 947 1747 
Q 947 1113 1208 752 
Q 1469 391 1925 391 
Q 2381 391 2643 752 
Q 2906 1113 2906 1747 
Q 2906 2381 2643 2742 
Q 2381 3103 1925 3103 
Q 1469 3103 1208 2742 
Q 947 2381 947 1747 
z
" transform="scale(0.015625)"/>
       <path id="DejaVuSans-65" d="M 3597 1894 
L 3597 1613 
L 953 1613 
Q 991 1019 1311 708 
Q 1631 397 2203 397 
Q 2534 397 2845 478 
Q 3156 559 3463 722 
L 3463 178 
Q 3153 47 2828 -22 
Q 2503 -91 2169 -91 
Q 1331 -91 842 396 
Q 353 884 353 1716 
Q 353 2575 817 3079 
Q 1281 3584 2069 3584 
Q 2775 3584 3186 3129 
Q 3597 2675 3597 1894 
z
M 3022 2063 
Q 3016 2534 2758 2815 
Q 2500 3097 2075 3097 
Q 1594 3097 1305 2825 
Q 1016 2553 972 2059 
L 3022 2063 
z
" transform="scale(0.015625)"/>
       <path id="DejaVuSans-6e" d="M 3513 2113 
L 3513 0 
L 2938 0 
L 2938 2094 
Q 2938 2591 2744 2837 
Q 2550 3084 2163 3084 
Q 1697 3084 1428 2787 
Q 1159 2491 1159 1978 
L 1159 0 
L 581 0 
L 581 3500 
L 1159 3500 
L 1159 2956 
Q 1366 3272 1645 3428 
Q 1925 3584 2291 3584 
Q 2894 3584 3203 3211 
Q 3513 2838 3513 2113 
z
" transform="scale(0.015625)"/>
       <path id="DejaVuSans-43" d="M 4122 4306 
L 4122 3641 
Q 3803 3938 3442 4084 
Q 3081 4231 2675 4231 
Q 1875 4231 1450 3742 
Q 1025 3253 1025 2328 
Q 1025 1406 1450 917 
Q 1875 428 2675 428 
Q 3081 428 3442 575 
Q 3803 722 4122 1019 
L 4122 359 
Q 3791 134 3420 21 
Q 3050 -91 2638 -91 
Q 1578 -91 968 557 
Q 359 1206 359 2328 
Q 359 3453 968 4101 
Q 1578 4750 2638 4750 
Q 3056 4750 3426 4639 
Q 3797 4528 4122 4306 
z
" transform="scale(0.015625)"/>
       <path id="DejaVuSans-75" d="M 544 1381 
L 544 3500 
L 1119 3500 
L 1119 1403 
Q 1119 906 1312 657 
Q 1506 409 1894 409 
Q 2359 409 2629 706 
Q 2900 1003 2900 1516 
L 2900 3500 
L 3475 3500 
L 3475 0 
L 2900 0 
L 2900 538 
Q 2691 219 2414 64 
Q 2138 -91 1772 -91 
Q 1169 -91 856 284 
Q 544 659 544 1381 
z
M 1991 3584 
L 1991 3584 
z
" transform="scale(0.015625)"/>
       <path id="DejaVuSans-72" d="M 2631 2963 
Q 2534 3019 2420 3045 
Q 2306 3072 2169 3072 
Q 1681 3072 1420 2755 
Q 1159 2438 1159 1844 
L 1159 0 
L 581 0 
L 581 3500 
L 1159 3500 
L 1159 2956 
Q 1341 3275 1631 3429 
Q 1922 3584 2338 3584 
Q 2397 3584 2469 3576 
Q 2541 3569 2628 3553 
L 2631 2963 
z
" transform="scale(0.015625)"/>
       <path id="DejaVuSans-63" d="M 3122 3366 
L 3122 2828 
Q 2878 2963 2633 3030 
Q 2388 3097 2138 3097 
Q 1578 3097 1268 2742 
Q 959 2388 959 1747 
Q 959 1106 1268 751 
Q 1578 397 2138 397 
Q 2388 397 2633 464 
Q 2878 531 3122 666 
L 3122 134 
Q 2881 22 2623 -34 
Q 2366 -91 2075 -91 
Q 1284 -91 818 406 
Q 353 903 353 1747 
Q 353 2603 823 3093 
Q 1294 3584 2113 3584 
Q 2378 3584 2631 3529 
Q 2884 3475 3122 3366 
z
" transform="scale(0.015625)"/>
      </defs>
      <use xlink:href="#DejaVuSans-54"/>
      <use xlink:href="#DejaVuSans-68" x="61.083984"/>
      <use xlink:href="#DejaVuSans-6f" x="124.462891"/>
      <use xlink:href="#DejaVuSans-6d" x="185.644531"/>
      <use xlink:href="#DejaVuSans-61" x="283.056641"/>
      <use xlink:href="#DejaVuSans-73" x="344.335938"/>
      <use xlink:href="#DejaVuSans-20" x="396.435547"/>
      <use xlink:href="#DejaVuSans-48" x="428.222656"/>
      <use xlink:href="#DejaVuSans-61" x="503.417969"/>
      <use xlink:href="#DejaVuSans-64" x="564.697266"/>
      <use xlink:href="#DejaVuSans-65" x="628.173828"/>
      <use xlink:href="#DejaVuSans-6e" x="689.697266"/>
      <use xlink:href="#DejaVuSans-20" x="753.076172"/>
      <use xlink:href="#DejaVuSans-43" x="784.863281"/>
      <use xlink:href="#DejaVuSans-68" x="854.6875"/>
      <use xlink:href="#DejaVuSans-75" x="918.066406"/>
      <use xlink:href="#DejaVuSans-72" x="981.445312"/>
      <use xlink:href="#DejaVuSans-63" x="1020.308594"/>
      <use xlink:href="#DejaVuSans-68" x="1075.289062"/>
     </g>
    </g>
   </g>
   <g id="text_2">
    <g id="patch_3">
     <path d="M 433.36516 220.62679 
L 524.619535 220.62679 
L 524.619535 203.996477 
L 433.36516 203.996477 
z
" clip-path="url(#p6e24dbfc32)" style="fill: #ffffff; opacity: 0.7; stroke: #000000; stroke-linejoin: miter"/>
    </g>
    <g clip-path="url(#p6e24dbfc32)">
     <!-- Hayden Panettiere -->
     <g transform="translate(437.32516 214.795071)scale(0.09 -0.09)">
      <defs>
       <path id="DejaVuSans-79" d="M 2059 -325 
Q 1816 -950 1584 -1140 
Q 1353 -1331 966 -1331 
L 506 -1331 
L 506 -850 
L 844 -850 
Q 1081 -850 1212 -737 
Q 1344 -625 1503 -206 
L 1606 56 
L 191 3500 
L 800 3500 
L 1894 763 
L 2988 3500 
L 3597 3500 
L 2059 -325 
z
" transform="scale(0.015625)"/>
       <path id="DejaVuSans-50" d="M 1259 4147 
L 1259 2394 
L 2053 2394 
Q 2494 2394 2734 2622 
Q 2975 2850 2975 3272 
Q 2975 3691 2734 3919 
Q 2494 4147 2053 4147 
L 1259 4147 
z
M 628 4666 
L 2053 4666 
Q 2838 4666 3239 4311 
Q 3641 3956 3641 3272 
Q 3641 2581 3239 2228 
Q 2838 1875 2053 1875 
L 1259 1875 
L 1259 0 
L 628 0 
L 628 4666 
z
" transform="scale(0.015625)"/>
       <path id="DejaVuSans-74" d="M 1172 4494 
L 1172 3500 
L 2356 3500 
L 2356 3053 
L 1172 3053 
L 1172 1153 
Q 1172 725 1289 603 
Q 1406 481 1766 481 
L 2356 481 
L 2356 0 
L 1766 0 
Q 1100 0 847 248 
Q 594 497 594 1153 
L 594 3053 
L 172 3053 
L 172 3500 
L 594 3500 
L 594 4494 
L 1172 4494 
z
" transform="scale(0.015625)"/>
       <path id="DejaVuSans-69" d="M 603 3500 
L 1178 3500 
L 1178 0 
L 603 0 
L 603 3500 
z
M 603 4863 
L 1178 4863 
L 1178 4134 
L 603 4134 
L 603 4863 
z
" transform="scale(0.015625)"/>
      </defs>
      <use xlink:href="#DejaVuSans-48"/>
      <use xlink:href="#DejaVuSans-61" x="75.195312"/>
      <use xlink:href="#DejaVuSans-79" x="136.474609"/>
      <use xlink:href="#DejaVuSans-64" x="195.654297"/>
      <use xlink:href="#DejaVuSans-65" x="259.130859"/>
      <use xlink:href="#DejaVuSans-6e" x="320.654297"/>
      <use xlink:href="#DejaVuSans-20" x="384.033203"/>
      <use xlink:href="#DejaVuSans-50" x="415.820312"/>
      <use xlink:href="#DejaVuSans-61" x="471.623047"/>
      <use xlink:href="#DejaVuSans-6e" x="532.902344"/>
      <use xlink:href="#DejaVuSans-65" x="596.28125"/>
      <use xlink:href="#DejaVuSans-74" x="657.804688"/>
      <use xlink:href="#DejaVuSans-74" x="697.013672"/>
      <use xlink:href="#DejaVuSans-69" x="736.222656"/>
      <use xlink:href="#DejaVuSans-65" x="764.005859"/>
      <use xlink:href="#DejaVuSans-72" x="825.529297"/>
      <use xlink:href="#DejaVuSans-65" x="864.392578"/>
     </g>
    </g>
   </g>
   <g id="text_3">
    <g id="patch_4">
     <path d="M 392.125162 148.499083 
L 460.474537 148.499083 
L 460.474537 131.86877 
L 392.125162 131.86877 
z
" clip-path="url(#p6e24dbfc32)" style="fill: #ffffff; opacity: 0.7; stroke: #000000; stroke-linejoin: miter"/>
    </g>
    <g clip-path="url(#p6e24dbfc32)">
     <!-- Paul Giamatti -->
     <g transform="translate(396.085162 142.667364)scale(0.09 -0.09)">
      <defs>
       <path id="DejaVuSans-6c" d="M 603 4863 
L 1178 4863 
L 1178 0 
L 603 0 
L 603 4863 
z
" transform="scale(0.015625)"/>
       <path id="DejaVuSans-47" d="M 3809 666 
L 3809 1919 
L 2778 1919 
L 2778 2438 
L 4434 2438 
L 4434 434 
Q 4069 175 3628 42 
Q 3188 -91 2688 -91 
Q 1594 -91 976 548 
Q 359 1188 359 2328 
Q 359 3472 976 4111 
Q 1594 4750 2688 4750 
Q 3144 4750 3555 4637 
Q 3966 4525 4313 4306 
L 4313 3634 
Q 3963 3931 3569 4081 
Q 3175 4231 2741 4231 
Q 1884 4231 1454 3753 
Q 1025 3275 1025 2328 
Q 1025 1384 1454 906 
Q 1884 428 2741 428 
Q 3075 428 3337 486 
Q 3600 544 3809 666 
z
" transform="scale(0.015625)"/>
      </defs>
      <use xlink:href="#DejaVuSans-50"/>
      <use xlink:href="#DejaVuSans-61" x="55.802734"/>
      <use xlink:href="#DejaVuSans-75" x="117.082031"/>
      <use xlink:href="#DejaVuSans-6c" x="180.460938"/>
      <use xlink:href="#DejaVuSans-20" x="208.244141"/>
      <use xlink:href="#DejaVuSans-47" x="240.03125"/>
      <use xlink:href="#DejaVuSans-69" x="317.521484"/>
      <use xlink:href="#DejaVuSans-61" x="345.304688"/>
      <use xlink:href="#DejaVuSans-6d" x="406.583984"/>
      <use xlink:href="#DejaVuSans-61" x="503.996094"/>
      <use xlink:href="#DejaVuSans-74" x="565.275391"/>
      <use xlink:href="#DejaVuSans-74" x="604.484375"/>
      <use xlink:href="#DejaVuSans-69" x="643.693359"/>
     </g>
    </g>
   </g>
   <g id="text_4">
    <g id="patch_5">
     <path d="M 325.722729 103.921719 
L 371.605854 103.921719 
L 371.605854 87.291406 
L 325.722729 87.291406 
z
" clip-path="url(#p6e24dbfc32)" style="fill: #ffffff; opacity: 0.7; stroke: #000000; stroke-linejoin: miter"/>
    </g>
    <g clip-path="url(#p6e24dbfc32)">
     <!-- Jay Leno -->
     <g transform="translate(329.682729 98.09)scale(0.09 -0.09)">
      <defs>
       <path id="DejaVuSans-4a" d="M 628 4666 
L 1259 4666 
L 1259 325 
Q 1259 -519 939 -900 
Q 619 -1281 -91 -1281 
L -331 -1281 
L -331 -750 
L -134 -750 
Q 284 -750 456 -515 
Q 628 -281 628 325 
L 628 4666 
z
" transform="scale(0.015625)"/>
       <path id="DejaVuSans-4c" d="M 628 4666 
L 1259 4666 
L 1259 531 
L 3531 531 
L 3531 0 
L 628 0 
L 628 4666 
z
" transform="scale(0.015625)"/>
      </defs>
      <use xlink:href="#DejaVuSans-4a"/>
      <use xlink:href="#DejaVuSans-61" x="29.492188"/>
      <use xlink:href="#DejaVuSans-79" x="90.771484"/>
      <use xlink:href="#DejaVuSans-20" x="149.951172"/>
      <use xlink:href="#DejaVuSans-4c" x="181.738281"/>
      <use xlink:href="#DejaVuSans-65" x="235.701172"/>
      <use xlink:href="#DejaVuSans-6e" x="297.224609"/>
      <use xlink:href="#DejaVuSans-6f" x="360.603516"/>
     </g>
    </g>
   </g>
   <g id="text_5">
    <g id="patch_6">
     <path d="M 224.543845 94.602512 
L 294.475252 94.602512 
L 294.475252 77.9722 
L 224.543845 77.9722 
z
" clip-path="url(#p6e24dbfc32)" style="fill: #ffffff; opacity: 0.7; stroke: #000000; stroke-linejoin: miter"/>
    </g>
    <g clip-path="url(#p6e24dbfc32)">
     <!-- George Lopez -->
     <g transform="translate(228.503845 88.770793)scale(0.09 -0.09)">
      <defs>
       <path id="DejaVuSans-67" d="M 2906 1791 
Q 2906 2416 2648 2759 
Q 2391 3103 1925 3103 
Q 1463 3103 1205 2759 
Q 947 2416 947 1791 
Q 947 1169 1205 825 
Q 1463 481 1925 481 
Q 2391 481 2648 825 
Q 2906 1169 2906 1791 
z
M 3481 434 
Q 3481 -459 3084 -895 
Q 2688 -1331 1869 -1331 
Q 1566 -1331 1297 -1286 
Q 1028 -1241 775 -1147 
L 775 -588 
Q 1028 -725 1275 -790 
Q 1522 -856 1778 -856 
Q 2344 -856 2625 -561 
Q 2906 -266 2906 331 
L 2906 616 
Q 2728 306 2450 153 
Q 2172 0 1784 0 
Q 1141 0 747 490 
Q 353 981 353 1791 
Q 353 2603 747 3093 
Q 1141 3584 1784 3584 
Q 2172 3584 2450 3431 
Q 2728 3278 2906 2969 
L 2906 3500 
L 3481 3500 
L 3481 434 
z
" transform="scale(0.015625)"/>
       <path id="DejaVuSans-70" d="M 1159 525 
L 1159 -1331 
L 581 -1331 
L 581 3500 
L 1159 3500 
L 1159 2969 
Q 1341 3281 1617 3432 
Q 1894 3584 2278 3584 
Q 2916 3584 3314 3078 
Q 3713 2572 3713 1747 
Q 3713 922 3314 415 
Q 2916 -91 2278 -91 
Q 1894 -91 1617 61 
Q 1341 213 1159 525 
z
M 3116 1747 
Q 3116 2381 2855 2742 
Q 2594 3103 2138 3103 
Q 1681 3103 1420 2742 
Q 1159 2381 1159 1747 
Q 1159 1113 1420 752 
Q 1681 391 2138 391 
Q 2594 391 2855 752 
Q 3116 1113 3116 1747 
z
" transform="scale(0.015625)"/>
       <path id="DejaVuSans-7a" d="M 353 3500 
L 3084 3500 
L 3084 2975 
L 922 459 
L 3084 459 
L 3084 0 
L 275 0 
L 275 525 
L 2438 3041 
L 353 3041 
L 353 3500 
z
" transform="scale(0.015625)"/>
      </defs>
      <use xlink:href="#DejaVuSans-47"/>
      <use xlink:href="#DejaVuSans-65" x="77.490234"/>
      <use xlink:href="#DejaVuSans-6f" x="139.013672"/>
      <use xlink:href="#DejaVuSans-72" x="200.195312"/>
      <use xlink:href="#DejaVuSans-67" x="239.558594"/>
      <use xlink:href="#DejaVuSans-65" x="303.035156"/>
      <use xlink:href="#DejaVuSans-20" x="364.558594"/>
      <use xlink:href="#DejaVuSans-4c" x="396.345703"/>
      <use xlink:href="#DejaVuSans-6f" x="450.308594"/>
      <use xlink:href="#DejaVuSans-70" x="511.490234"/>
      <use xlink:href="#DejaVuSans-65" x="574.966797"/>
      <use xlink:href="#DejaVuSans-7a" x="636.490234"/>
     </g>
    </g>
   </g>
   <g id="text_6">
    <g id="patch_7">
     <path d="M 142.538251 122.152849 
L 205.964345 122.152849 
L 205.964345 105.522536 
L 142.538251 105.522536 
z
" clip-path="url(#p6e24dbfc32)" style="fill: #ffffff; opacity: 0.7; stroke: #000000; stroke-linejoin: miter"/>
    </g>
    <g clip-path="url(#p6e24dbfc32)">
     <!-- Anne Archer -->
     <g transform="translate(146.498251 116.32113)scale(0.09 -0.09)">
      <defs>
       <path id="DejaVuSans-41" d="M 2188 4044 
L 1331 1722 
L 3047 1722 
L 2188 4044 
z
M 1831 4666 
L 2547 4666 
L 4325 0 
L 3669 0 
L 3244 1197 
L 1141 1197 
L 716 0 
L 50 0 
L 1831 4666 
z
" transform="scale(0.015625)"/>
      </defs>
      <use xlink:href="#DejaVuSans-41"/>
      <use xlink:href="#DejaVuSans-6e" x="68.408203"/>
      <use xlink:href="#DejaVuSans-6e" x="131.787109"/>
      <use xlink:href="#DejaVuSans-65" x="195.166016"/>
      <use xlink:href="#DejaVuSans-20" x="256.689453"/>
      <use xlink:href="#DejaVuSans-41" x="288.476562"/>
      <use xlink:href="#DejaVuSans-72" x="356.884766"/>
      <use xlink:href="#DejaVuSans-63" x="395.748047"/>
      <use xlink:href="#DejaVuSans-68" x="450.728516"/>
      <use xlink:href="#DejaVuSans-65" x="514.107422"/>
      <use xlink:href="#DejaVuSans-72" x="575.630859"/>
     </g>
    </g>
   </g>
   <g id="text_7">
    <g id="patch_8">
     <path d="M 79.391868 181.80901 
L 135.871086 181.80901 
L 135.871086 165.178697 
L 79.391868 165.178697 
z
" clip-path="url(#p6e24dbfc32)" style="fill: #ffffff; opacity: 0.7; stroke: #000000; stroke-linejoin: miter"/>
    </g>
    <g clip-path="url(#p6e24dbfc32)">
     <!-- Tom Felton -->
     <g transform="translate(83.351868 175.977291)scale(0.09 -0.09)">
      <defs>
       <path id="DejaVuSans-46" d="M 628 4666 
L 3309 4666 
L 3309 4134 
L 1259 4134 
L 1259 2759 
L 3109 2759 
L 3109 2228 
L 1259 2228 
L 1259 0 
L 628 0 
L 628 4666 
z
" transform="scale(0.015625)"/>
      </defs>
      <use xlink:href="#DejaVuSans-54"/>
      <use xlink:href="#DejaVuSans-6f" x="44.083984"/>
      <use xlink:href="#DejaVuSans-6d" x="105.265625"/>
      <use xlink:href="#DejaVuSans-20" x="202.677734"/>
      <use xlink:href="#DejaVuSans-46" x="234.464844"/>
      <use xlink:href="#DejaVuSans-65" x="286.484375"/>
      <use xlink:href="#DejaVuSans-6c" x="348.007812"/>
      <use xlink:href="#DejaVuSans-74" x="375.791016"/>
      <use xlink:href="#DejaVuSans-6f" x="415"/>
      <use xlink:href="#DejaVuSans-6e" x="476.181641"/>
     </g>
    </g>
   </g>
   <g id="text_8">
    <g id="patch_9">
     <path d="M 46.102121 263.25593 
L 96.23634 263.25593 
L 96.23634 246.625618 
L 46.102121 246.625618 
z
" clip-path="url(#p6e24dbfc32)" style="fill: #ffffff; opacity: 0.7; stroke: #000000; stroke-linejoin: miter"/>
    </g>
    <g clip-path="url(#p6e24dbfc32)">
     <!-- Jonah Hill -->
     <g transform="translate(50.062121 257.424211)scale(0.09 -0.09)">
      <use xlink:href="#DejaVuSans-4a"/>
      <use xlink:href="#DejaVuSans-6f" x="29.492188"/>
      <use xlink:href="#DejaVuSans-6e" x="90.673828"/>
      <use xlink:href="#DejaVuSans-61" x="154.052734"/>
      <use xlink:href="#DejaVuSans-68" x="215.332031"/>
      <use xlink:href="#DejaVuSans-20" x="278.710938"/>
      <use xlink:href="#DejaVuSans-48" x="310.498047"/>
      <use xlink:href="#DejaVuSans-69" x="385.693359"/>
      <use xlink:href="#DejaVuSans-6c" x="413.476562"/>
      <use xlink:href="#DejaVuSans-6c" x="441.259766"/>
     </g>
    </g>
   </g>
   <g id="text_9">
    <g id="patch_10">
     <path d="M 39.399244 352.410671 
L 102.939244 352.410671 
L 102.939244 335.780358 
L 39.399244 335.780358 
z
" clip-path="url(#p6e24dbfc32)" style="fill: #ffffff; opacity: 0.7; stroke: #000000; stroke-linejoin: miter"/>
    </g>
    <g clip-path="url(#p6e24dbfc32)">
     <!-- Matt Damon -->
     <g transform="translate(43.359244 346.578952)scale(0.09 -0.09)">
      <defs>
       <path id="DejaVuSans-4d" d="M 628 4666 
L 1569 4666 
L 2759 1491 
L 3956 4666 
L 4897 4666 
L 4897 0 
L 4281 0 
L 4281 4097 
L 3078 897 
L 2444 897 
L 1241 4097 
L 1241 0 
L 628 0 
L 628 4666 
z
" transform="scale(0.015625)"/>
       <path id="DejaVuSans-44" d="M 1259 4147 
L 1259 519 
L 2022 519 
Q 2988 519 3436 956 
Q 3884 1394 3884 2338 
Q 3884 3275 3436 3711 
Q 2988 4147 2022 4147 
L 1259 4147 
z
M 628 4666 
L 1925 4666 
Q 3281 4666 3915 4102 
Q 4550 3538 4550 2338 
Q 4550 1131 3912 565 
Q 3275 0 1925 0 
L 628 0 
L 628 4666 
z
" transform="scale(0.015625)"/>
      </defs>
      <use xlink:href="#DejaVuSans-4d"/>
      <use xlink:href="#DejaVuSans-61" x="86.279297"/>
      <use xlink:href="#DejaVuSans-74" x="147.558594"/>
      <use xlink:href="#DejaVuSans-74" x="186.767578"/>
      <use xlink:href="#DejaVuSans-20" x="225.976562"/>
      <use xlink:href="#DejaVuSans-44" x="257.763672"/>
      <use xlink:href="#DejaVuSans-61" x="334.765625"/>
      <use xlink:href="#DejaVuSans-6d" x="396.044922"/>
      <use xlink:href="#DejaVuSans-6f" x="493.457031"/>
      <use xlink:href="#DejaVuSans-6e" x="554.638672"/>
     </g>
    </g>
   </g>
   <g id="text_10">
    <g id="patch_11">
     <path d="M 79.32649 433.857565 
L 135.93649 433.857565 
L 135.93649 417.227253 
L 79.32649 417.227253 
z
" clip-path="url(#p6e24dbfc32)" style="fill: #ffffff; opacity: 0.7; stroke: #000000; stroke-linejoin: miter"/>
    </g>
    <g clip-path="url(#p6e24dbfc32)">
     <!-- Jed Brophy -->
     <g transform="translate(83.28649 428.025847)scale(0.09 -0.09)">
      <defs>
       <path id="DejaVuSans-42" d="M 1259 2228 
L 1259 519 
L 2272 519 
Q 2781 519 3026 730 
Q 3272 941 3272 1375 
Q 3272 1813 3026 2020 
Q 2781 2228 2272 2228 
L 1259 2228 
z
M 1259 4147 
L 1259 2741 
L 2194 2741 
Q 2656 2741 2882 2914 
Q 3109 3088 3109 3444 
Q 3109 3797 2882 3972 
Q 2656 4147 2194 4147 
L 1259 4147 
z
M 628 4666 
L 2241 4666 
Q 2963 4666 3353 4366 
Q 3744 4066 3744 3513 
Q 3744 3084 3544 2831 
Q 3344 2578 2956 2516 
Q 3422 2416 3680 2098 
Q 3938 1781 3938 1306 
Q 3938 681 3513 340 
Q 3088 0 2303 0 
L 628 0 
L 628 4666 
z
" transform="scale(0.015625)"/>
      </defs>
      <use xlink:href="#DejaVuSans-4a"/>
      <use xlink:href="#DejaVuSans-65" x="29.492188"/>
      <use xlink:href="#DejaVuSans-64" x="91.015625"/>
      <use xlink:href="#DejaVuSans-20" x="154.492188"/>
      <use xlink:href="#DejaVuSans-42" x="186.279297"/>
      <use xlink:href="#DejaVuSans-72" x="254.882812"/>
      <use xlink:href="#DejaVuSans-6f" x="293.746094"/>
      <use xlink:href="#DejaVuSans-70" x="354.927734"/>
      <use xlink:href="#DejaVuSans-68" x="418.404297"/>
      <use xlink:href="#DejaVuSans-79" x="481.783203"/>
     </g>
    </g>
   </g>
   <g id="text_11">
    <g id="patch_12">
     <path d="M 140.222893 493.513727 
L 208.279768 493.513727 
L 208.279768 476.883414 
L 140.222893 476.883414 
z
" clip-path="url(#p6e24dbfc32)" style="fill: #ffffff; opacity: 0.7; stroke: #000000; stroke-linejoin: miter"/>
    </g>
    <g clip-path="url(#p6e24dbfc32)">
     <!-- Kevin Spacey -->
     <g transform="translate(144.182893 487.682008)scale(0.09 -0.09)">
      <defs>
       <path id="DejaVuSans-4b" d="M 628 4666 
L 1259 4666 
L 1259 2694 
L 3353 4666 
L 4166 4666 
L 1850 2491 
L 4331 0 
L 3500 0 
L 1259 2247 
L 1259 0 
L 628 0 
L 628 4666 
z
" transform="scale(0.015625)"/>
       <path id="DejaVuSans-76" d="M 191 3500 
L 800 3500 
L 1894 563 
L 2988 3500 
L 3597 3500 
L 2284 0 
L 1503 0 
L 191 3500 
z
" transform="scale(0.015625)"/>
       <path id="DejaVuSans-53" d="M 3425 4513 
L 3425 3897 
Q 3066 4069 2747 4153 
Q 2428 4238 2131 4238 
Q 1616 4238 1336 4038 
Q 1056 3838 1056 3469 
Q 1056 3159 1242 3001 
Q 1428 2844 1947 2747 
L 2328 2669 
Q 3034 2534 3370 2195 
Q 3706 1856 3706 1288 
Q 3706 609 3251 259 
Q 2797 -91 1919 -91 
Q 1588 -91 1214 -16 
Q 841 59 441 206 
L 441 856 
Q 825 641 1194 531 
Q 1563 422 1919 422 
Q 2459 422 2753 634 
Q 3047 847 3047 1241 
Q 3047 1584 2836 1778 
Q 2625 1972 2144 2069 
L 1759 2144 
Q 1053 2284 737 2584 
Q 422 2884 422 3419 
Q 422 4038 858 4394 
Q 1294 4750 2059 4750 
Q 2388 4750 2728 4690 
Q 3069 4631 3425 4513 
z
" transform="scale(0.015625)"/>
      </defs>
      <use xlink:href="#DejaVuSans-4b"/>
      <use xlink:href="#DejaVuSans-65" x="60.576172"/>
      <use xlink:href="#DejaVuSans-76" x="122.099609"/>
      <use xlink:href="#DejaVuSans-69" x="181.279297"/>
      <use xlink:href="#DejaVuSans-6e" x="209.0625"/>
      <use xlink:href="#DejaVuSans-20" x="272.441406"/>
      <use xlink:href="#DejaVuSans-53" x="304.228516"/>
      <use xlink:href="#DejaVuSans-70" x="367.705078"/>
      <use xlink:href="#DejaVuSans-61" x="431.181641"/>
      <use xlink:href="#DejaVuSans-63" x="492.460938"/>
      <use xlink:href="#DejaVuSans-65" x="547.441406"/>
      <use xlink:href="#DejaVuSans-79" x="608.964844"/>
     </g>
    </g>
   </g>
   <g id="text_12">
    <g id="patch_13">
     <path d="M 230.863572 521.06405 
L 288.155603 521.06405 
L 288.155603 504.433738 
L 230.863572 504.433738 
z
" clip-path="url(#p6e24dbfc32)" style="fill: #ffffff; opacity: 0.7; stroke: #000000; stroke-linejoin: miter"/>
    </g>
    <g clip-path="url(#p6e24dbfc32)">
     <!-- Carla Gallo -->
     <g transform="translate(234.823572 515.232332)scale(0.09 -0.09)">
      <use xlink:href="#DejaVuSans-43"/>
      <use xlink:href="#DejaVuSans-61" x="69.824219"/>
      <use xlink:href="#DejaVuSans-72" x="131.103516"/>
      <use xlink:href="#DejaVuSans-6c" x="172.216797"/>
      <use xlink:href="#DejaVuSans-61" x="200"/>
      <use xlink:href="#DejaVuSans-20" x="261.279297"/>
      <use xlink:href="#DejaVuSans-47" x="293.066406"/>
      <use xlink:href="#DejaVuSans-61" x="370.556641"/>
      <use xlink:href="#DejaVuSans-6c" x="431.835938"/>
      <use xlink:href="#DejaVuSans-6c" x="459.619141"/>
      <use xlink:href="#DejaVuSans-6f" x="487.402344"/>
     </g>
    </g>
   </g>
   <g id="text_13">
    <g id="patch_14">
     <path d="M 310.849558 511.744831 
L 386.479089 511.744831 
L 386.479089 495.114518 
L 310.849558 495.114518 
z
" clip-path="url(#p6e24dbfc32)" style="fill: #ffffff; opacity: 0.7; stroke: #000000; stroke-linejoin: miter"/>
    </g>
    <g clip-path="url(#p6e24dbfc32)">
     <!-- Benjamin Bratt -->
     <g transform="translate(314.809558 505.913112)scale(0.09 -0.09)">
      <defs>
       <path id="DejaVuSans-6a" d="M 603 3500 
L 1178 3500 
L 1178 -63 
Q 1178 -731 923 -1031 
Q 669 -1331 103 -1331 
L -116 -1331 
L -116 -844 
L 38 -844 
Q 366 -844 484 -692 
Q 603 -541 603 -63 
L 603 3500 
z
M 603 4863 
L 1178 4863 
L 1178 4134 
L 603 4134 
L 603 4863 
z
" transform="scale(0.015625)"/>
      </defs>
      <use xlink:href="#DejaVuSans-42"/>
      <use xlink:href="#DejaVuSans-65" x="68.603516"/>
      <use xlink:href="#DejaVuSans-6e" x="130.126953"/>
      <use xlink:href="#DejaVuSans-6a" x="193.505859"/>
      <use xlink:href="#DejaVuSans-61" x="221.289062"/>
      <use xlink:href="#DejaVuSans-6d" x="282.568359"/>
      <use xlink:href="#DejaVuSans-69" x="379.980469"/>
      <use xlink:href="#DejaVuSans-6e" x="407.763672"/>
      <use xlink:href="#DejaVuSans-20" x="471.142578"/>
      <use xlink:href="#DejaVuSans-42" x="502.929688"/>
      <use xlink:href="#DejaVuSans-72" x="571.533203"/>
      <use xlink:href="#DejaVuSans-61" x="612.646484"/>
      <use xlink:href="#DejaVuSans-74" x="673.925781"/>
      <use xlink:href="#DejaVuSans-74" x="713.134766"/>
     </g>
    </g>
   </g>
   <g id="text_14">
    <g id="patch_15">
     <path d="M 389.155904 467.167441 
L 463.443873 467.167441 
L 463.443873 450.537129 
L 389.155904 450.537129 
z
" clip-path="url(#p6e24dbfc32)" style="fill: #ffffff; opacity: 0.7; stroke: #000000; stroke-linejoin: miter"/>
    </g>
    <g clip-path="url(#p6e24dbfc32)">
     <!-- Loretta Devine -->
     <g transform="translate(393.115904 461.335723)scale(0.09 -0.09)">
      <use xlink:href="#DejaVuSans-4c"/>
      <use xlink:href="#DejaVuSans-6f" x="53.962891"/>
      <use xlink:href="#DejaVuSans-72" x="115.144531"/>
      <use xlink:href="#DejaVuSans-65" x="154.007812"/>
      <use xlink:href="#DejaVuSans-74" x="215.53125"/>
      <use xlink:href="#DejaVuSans-74" x="254.740234"/>
      <use xlink:href="#DejaVuSans-61" x="293.949219"/>
      <use xlink:href="#DejaVuSans-20" x="355.228516"/>
      <use xlink:href="#DejaVuSans-44" x="387.015625"/>
      <use xlink:href="#DejaVuSans-65" x="464.017578"/>
      <use xlink:href="#DejaVuSans-76" x="525.541016"/>
      <use xlink:href="#DejaVuSans-69" x="584.720703"/>
      <use xlink:href="#DejaVuSans-6e" x="612.503906"/>
      <use xlink:href="#DejaVuSans-65" x="675.882812"/>
     </g>
    </g>
   </g>
   <g id="text_15">
    <g id="patch_16">
     <path d="M 438.54792 395.039741 
L 519.436827 395.039741 
L 519.436827 378.409428 
L 438.54792 378.409428 
z
" clip-path="url(#p6e24dbfc32)" style="fill: #ffffff; opacity: 0.7; stroke: #000000; stroke-linejoin: miter"/>
    </g>
    <g clip-path="url(#p6e24dbfc32)">
     <!-- Richard Griffiths -->
     <g transform="translate(442.50792 389.208022)scale(0.09 -0.09)">
      <defs>
       <path id="DejaVuSans-52" d="M 2841 2188 
Q 3044 2119 3236 1894 
Q 3428 1669 3622 1275 
L 4263 0 
L 3584 0 
L 2988 1197 
Q 2756 1666 2539 1819 
Q 2322 1972 1947 1972 
L 1259 1972 
L 1259 0 
L 628 0 
L 628 4666 
L 2053 4666 
Q 2853 4666 3247 4331 
Q 3641 3997 3641 3322 
Q 3641 2881 3436 2590 
Q 3231 2300 2841 2188 
z
M 1259 4147 
L 1259 2491 
L 2053 2491 
Q 2509 2491 2742 2702 
Q 2975 2913 2975 3322 
Q 2975 3731 2742 3939 
Q 2509 4147 2053 4147 
L 1259 4147 
z
" transform="scale(0.015625)"/>
       <path id="DejaVuSans-66" d="M 2375 4863 
L 2375 4384 
L 1825 4384 
Q 1516 4384 1395 4259 
Q 1275 4134 1275 3809 
L 1275 3500 
L 2222 3500 
L 2222 3053 
L 1275 3053 
L 1275 0 
L 697 0 
L 697 3053 
L 147 3053 
L 147 3500 
L 697 3500 
L 697 3744 
Q 697 4328 969 4595 
Q 1241 4863 1831 4863 
L 2375 4863 
z
" transform="scale(0.015625)"/>
      </defs>
      <use xlink:href="#DejaVuSans-52"/>
      <use xlink:href="#DejaVuSans-69" x="69.482422"/>
      <use xlink:href="#DejaVuSans-63" x="97.265625"/>
      <use xlink:href="#DejaVuSans-68" x="152.246094"/>
      <use xlink:href="#DejaVuSans-61" x="215.625"/>
      <use xlink:href="#DejaVuSans-72" x="276.904297"/>
      <use xlink:href="#DejaVuSans-64" x="316.267578"/>
      <use xlink:href="#DejaVuSans-20" x="379.744141"/>
      <use xlink:href="#DejaVuSans-47" x="411.53125"/>
      <use xlink:href="#DejaVuSans-72" x="489.021484"/>
      <use xlink:href="#DejaVuSans-69" x="530.134766"/>
      <use xlink:href="#DejaVuSans-66" x="557.917969"/>
      <use xlink:href="#DejaVuSans-66" x="593.123047"/>
      <use xlink:href="#DejaVuSans-69" x="628.328125"/>
      <use xlink:href="#DejaVuSans-74" x="656.111328"/>
      <use xlink:href="#DejaVuSans-68" x="695.320312"/>
      <use xlink:href="#DejaVuSans-73" x="758.699219"/>
     </g>
    </g>
   </g>
   <g id="text_16">
    <!-- Impactful actors for Silent film genre -->
    <g transform="translate(174.084375 16.318125)scale(0.12 -0.12)">
     <defs>
      <path id="DejaVuSans-49" d="M 628 4666 
L 1259 4666 
L 1259 0 
L 628 0 
L 628 4666 
z
" transform="scale(0.015625)"/>
     </defs>
     <use xlink:href="#DejaVuSans-49"/>
     <use xlink:href="#DejaVuSans-6d" x="29.492188"/>
     <use xlink:href="#DejaVuSans-70" x="126.904297"/>
     <use xlink:href="#DejaVuSans-61" x="190.380859"/>
     <use xlink:href="#DejaVuSans-63" x="251.660156"/>
     <use xlink:href="#DejaVuSans-74" x="306.640625"/>
     <use xlink:href="#DejaVuSans-66" x="345.849609"/>
     <use xlink:href="#DejaVuSans-75" x="381.054688"/>
     <use xlink:href="#DejaVuSans-6c" x="444.433594"/>
     <use xlink:href="#DejaVuSans-20" x="472.216797"/>
     <use xlink:href="#DejaVuSans-61" x="504.003906"/>
     <use xlink:href="#DejaVuSans-63" x="565.283203"/>
     <use xlink:href="#DejaVuSans-74" x="620.263672"/>
     <use xlink:href="#DejaVuSans-6f" x="659.472656"/>
     <use xlink:href="#DejaVuSans-72" x="720.654297"/>
     <use xlink:href="#DejaVuSans-73" x="761.767578"/>
     <use xlink:href="#DejaVuSans-20" x="813.867188"/>
     <use xlink:href="#DejaVuSans-66" x="845.654297"/>
     <use xlink:href="#DejaVuSans-6f" x="880.859375"/>
     <use xlink:href="#DejaVuSans-72" x="942.041016"/>
     <use xlink:href="#DejaVuSans-20" x="983.154297"/>
     <use xlink:href="#DejaVuSans-53" x="1014.941406"/>
     <use xlink:href="#DejaVuSans-69" x="1078.417969"/>
     <use xlink:href="#DejaVuSans-6c" x="1106.201172"/>
     <use xlink:href="#DejaVuSans-65" x="1133.984375"/>
     <use xlink:href="#DejaVuSans-6e" x="1195.507812"/>
     <use xlink:href="#DejaVuSans-74" x="1258.886719"/>
     <use xlink:href="#DejaVuSans-20" x="1298.095703"/>
     <use xlink:href="#DejaVuSans-66" x="1329.882812"/>
     <use xlink:href="#DejaVuSans-69" x="1365.087891"/>
     <use xlink:href="#DejaVuSans-6c" x="1392.871094"/>
     <use xlink:href="#DejaVuSans-6d" x="1420.654297"/>
     <use xlink:href="#DejaVuSans-20" x="1518.066406"/>
     <use xlink:href="#DejaVuSans-67" x="1549.853516"/>
     <use xlink:href="#DejaVuSans-65" x="1613.330078"/>
     <use xlink:href="#DejaVuSans-6e" x="1674.853516"/>
     <use xlink:href="#DejaVuSans-72" x="1738.232422"/>
     <use xlink:href="#DejaVuSans-65" x="1777.095703"/>
    </g>
   </g>
  </g>
 </g>
 <defs>
  <clipPath id="p6e24dbfc32">
   <rect x="7.2" y="22.318125" width="554.4" height="554.4"/>
  </clipPath>
 </defs>
</svg>
