<?xml version="1.0" encoding="utf-8" standalone="no"?>
<!DOCTYPE svg PUBLIC "-//W3C//DTD SVG 1.1//EN"
  "http://www.w3.org/Graphics/SVG/1.1/DTD/svg11.dtd">
<svg xmlns:xlink="http://www.w3.org/1999/xlink" width="568.8pt" height="583.918125pt" viewBox="0 0 568.8 583.918125" xmlns="http://www.w3.org/2000/svg" version="1.1">
 <metadata>
  <rdf:RDF xmlns:dc="http://purl.org/dc/elements/1.1/" xmlns:cc="http://creativecommons.org/ns#" xmlns:rdf="http://www.w3.org/1999/02/22-rdf-syntax-ns#">
   <cc:Work>
    <dc:type rdf:resource="http://purl.org/dc/dcmitype/StillImage"/>
    <dc:date>2022-12-23T19:50:29.494654</dc:date>
    <dc:format>image/svg+xml</dc:format>
    <dc:creator>
     <cc:Agent>
      <dc:title>Matplotlib v3.5.3, https://matplotlib.org/</dc:title>
     </cc:Agent>
    </dc:creator>
   </cc:Work>
  </rdf:RDF>
 </metadata>
 <defs>
  <style type="text/css">*{stroke-linejoin: round; stroke-linecap: butt}</style>
 </defs>
 <g id="figure_1">
  <g id="patch_1">
   <path d="M 0 583.918125 
L 568.8 583.918125 
L 568.8 0 
L 0 0 
z
" style="fill: #ffffff"/>
  </g>
  <g id="axes_1">
   <g id="PathCollection_1">
    <path d="M 497.630769 326.904253 
C 504.893655 326.904253 511.86005 324.018678 516.995686 318.883042 
C 522.131322 313.747406 525.016897 306.781011 525.016897 299.518125 
C 525.016897 292.255239 522.131322 285.288844 516.995686 280.153208 
C 511.86005 275.017572 504.893655 272.131997 497.630769 272.131997 
C 490.367883 272.131997 483.401488 275.017572 478.265852 280.153208 
C 473.130217 285.288844 470.244641 292.255239 470.244641 299.518125 
C 470.244641 306.781011 473.130217 313.747406 478.265852 318.883042 
C 483.401488 324.018678 490.367883 326.904253 497.630769 326.904253 
z
" clip-path="url(#p71cc6bebd5)" style="fill: #c70039; fill-opacity: 0.99; stroke: #c70039; stroke-opacity: 0.99"/>
    <path d="M 478.992348 238.894612 
C 486.042236 238.894612 492.804329 236.093662 497.789352 231.108638 
C 502.774376 226.123614 505.575327 219.361522 505.575327 212.311633 
C 505.575327 205.261745 502.774376 198.499653 497.789352 193.514629 
C 492.804329 188.529605 486.042236 185.728655 478.992348 185.728655 
C 471.942459 185.728655 465.180367 188.529605 460.195343 193.514629 
C 455.210319 198.499653 452.409369 205.261745 452.409369 212.311633 
C 452.409369 219.361522 455.210319 226.123614 460.195343 231.108638 
C 465.180367 236.093662 471.942459 238.894612 478.992348 238.894612 
z
" clip-path="url(#p71cc6bebd5)" style="fill: #c70039; fill-opacity: 0.99; stroke: #c70039; stroke-opacity: 0.99"/>
    <path d="M 426.29985 164.475061 
C 432.741934 164.475061 438.921034 161.915594 443.476275 157.360352 
C 448.031517 152.805111 450.590984 146.626011 450.590984 140.183927 
C 450.590984 133.741843 448.031517 127.562742 443.476275 123.007501 
C 438.921034 118.45226 432.741934 115.892793 426.29985 115.892793 
C 419.857766 115.892793 413.678666 118.45226 409.123424 123.007501 
C 404.568183 127.562742 402.008716 133.741843 402.008716 140.183927 
C 402.008716 146.626011 404.568183 152.805111 409.123424 157.360352 
C 413.678666 161.915594 419.857766 164.475061 426.29985 164.475061 
z
" clip-path="url(#p71cc6bebd5)" style="fill: #c70039; fill-opacity: 0.99; stroke: #c70039; stroke-opacity: 0.99"/>
    <path d="M 348.664291 119.586377 
C 355.023812 119.586377 361.12372 117.059712 365.62058 112.562852 
C 370.117441 108.065991 372.644105 101.966084 372.644105 95.606563 
C 372.644105 89.247042 370.117441 83.147134 365.62058 78.650273 
C 361.12372 74.153413 355.023812 71.626749 348.664291 71.626749 
C 342.30477 71.626749 336.204862 74.153413 331.708002 78.650273 
C 327.211142 83.147134 324.684477 89.247042 324.684477 95.606563 
C 324.684477 101.966084 327.211142 108.065991 331.708002 112.562852 
C 336.204862 117.059712 342.30477 119.586377 348.664291 119.586377 
z
" clip-path="url(#p71cc6bebd5)" style="fill: #c70039; fill-opacity: 0.99; stroke: #c70039; stroke-opacity: 0.99"/>
    <path d="M 259.509549 109.889339 
C 265.768868 109.889339 271.772664 107.402485 276.198671 102.976478 
C 280.624678 98.550471 283.111531 92.546675 283.111531 86.287356 
C 283.111531 80.028037 280.624678 74.024241 276.198671 69.598234 
C 271.772664 65.172227 265.768868 62.685373 259.509549 62.685373 
C 253.25023 62.685373 247.246433 65.172227 242.820427 69.598234 
C 238.39442 74.024241 235.907566 80.028037 235.907566 86.287356 
C 235.907566 92.546675 238.39442 98.550471 242.820427 102.976478 
C 247.246433 107.402485 253.25023 109.889339 259.509549 109.889339 
z
" clip-path="url(#p71cc6bebd5)" style="fill: #c70039; fill-opacity: 0.99; stroke: #c70039; stroke-opacity: 0.99"/>
    <path d="M 174.251298 136.84277 
C 180.352316 136.84277 186.204273 134.41881 190.518344 130.104739 
C 194.832415 125.790667 197.256376 119.93871 197.256376 113.837692 
C 197.256376 107.736674 194.832415 101.884717 190.518344 97.570646 
C 186.204273 93.256575 180.352316 90.832615 174.251298 90.832615 
C 168.15028 90.832615 162.298323 93.256575 157.984252 97.570646 
C 153.670181 101.884717 151.246221 107.736674 151.246221 113.837692 
C 151.246221 119.93871 153.670181 125.790667 157.984252 130.104739 
C 162.298323 134.41881 168.15028 136.84277 174.251298 136.84277 
z
" clip-path="url(#p71cc6bebd5)" style="fill: #c70039; fill-opacity: 0.99; stroke: #c70039; stroke-opacity: 0.99"/>
    <path d="M 107.631477 195.862413 
C 113.563688 195.862413 119.25373 193.50552 123.448437 189.310814 
C 127.643144 185.116107 130.000036 179.426065 130.000036 173.493854 
C 130.000036 167.561642 127.643144 161.871601 123.448437 157.676894 
C 119.25373 153.482187 113.563688 151.125295 107.631477 151.125295 
C 101.699266 151.125295 96.009224 153.482187 91.814517 157.676894 
C 87.61981 161.871601 85.262918 167.561642 85.262918 173.493854 
C 85.262918 179.426065 87.61981 185.116107 91.814517 189.310814 
C 96.009224 193.50552 101.699266 195.862413 107.631477 195.862413 
z
" clip-path="url(#p71cc6bebd5)" style="fill: #c70039; fill-opacity: 0.99; stroke: #c70039; stroke-opacity: 0.99"/>
    <path d="M 71.169231 277.123728 
C 77.052219 277.123728 82.695047 274.786392 86.854948 270.626491 
C 91.014849 266.466591 93.352185 260.823762 93.352185 254.940774 
C 93.352185 249.057786 91.014849 243.414957 86.854948 239.255056 
C 82.695047 235.095155 77.052219 232.757819 71.169231 232.757819 
C 65.286242 232.757819 59.643414 235.095155 55.483513 239.255056 
C 51.323612 243.414957 48.986276 249.057786 48.986276 254.940774 
C 48.986276 260.823762 51.323612 266.466591 55.483513 270.626491 
C 59.643414 274.786392 65.286242 277.123728 71.169231 277.123728 
z
" clip-path="url(#p71cc6bebd5)" style="fill: #c70039; fill-opacity: 0.99; stroke: #c70039; stroke-opacity: 0.99"/>
    <path d="M 71.169244 365.885123 
C 76.947915 365.885123 82.490686 363.589233 86.576824 359.503095 
C 90.662962 355.416957 92.958853 349.874186 92.958853 344.095514 
C 92.958853 338.316843 90.662962 332.774072 86.576824 328.687934 
C 82.490686 324.601796 76.947915 322.305905 71.169244 322.305905 
C 65.390572 322.305905 59.847801 324.601796 55.761663 328.687934 
C 51.675525 332.774072 49.379635 338.316843 49.379635 344.095514 
C 49.379635 349.874186 51.675525 355.416957 55.761663 359.503095 
C 59.847801 363.589233 65.390572 365.885123 71.169244 365.885123 
z
" clip-path="url(#p71cc6bebd5)" style="fill: #c70039; fill-opacity: 0.99; stroke: #c70039; stroke-opacity: 0.99"/>
    <path d="M 107.63149 447.184678 
C 113.371087 447.184678 118.876377 444.904312 122.934885 440.845804 
C 126.993392 436.787296 129.273758 431.282006 129.273758 425.542409 
C 129.273758 419.802812 126.993392 414.297522 122.934885 410.239014 
C 118.876377 406.180507 113.371087 403.900141 107.63149 403.900141 
C 101.891893 403.900141 96.386603 406.180507 92.328095 410.239014 
C 88.269587 414.297522 85.989221 419.802812 85.989221 425.542409 
C 85.989221 431.282006 88.269587 436.787296 92.328095 440.845804 
C 96.386603 444.904312 101.891893 447.184678 107.63149 447.184678 
z
" clip-path="url(#p71cc6bebd5)" style="fill: #c70039; fill-opacity: 0.99; stroke: #c70039; stroke-opacity: 0.99"/>
    <path d="M 174.25133 506.284312 
C 179.843334 506.284312 185.207057 504.062585 189.161201 500.108441 
C 193.115345 496.154297 195.337071 490.790574 195.337071 485.198571 
C 195.337071 479.606567 193.115345 474.242844 189.161201 470.2887 
C 185.207057 466.334556 179.843334 464.112829 174.25133 464.112829 
C 168.659326 464.112829 163.295604 466.334556 159.34146 470.2887 
C 155.387316 474.242844 153.165589 479.606567 153.165589 485.198571 
C 153.165589 490.790574 155.387316 496.154297 159.34146 500.108441 
C 163.295604 504.062585 168.659326 506.284312 174.25133 506.284312 
z
" clip-path="url(#p71cc6bebd5)" style="fill: #c70039; fill-opacity: 0.99; stroke: #c70039; stroke-opacity: 0.99"/>
    <path d="M 259.509587 533.25706 
C 264.948416 533.25706 270.165217 531.09619 274.01105 527.250357 
C 277.856883 523.404524 280.017753 518.187723 280.017753 512.748894 
C 280.017753 507.310065 277.856883 502.093264 274.01105 498.247431 
C 270.165217 494.401598 264.948416 492.240728 259.509587 492.240728 
C 254.070758 492.240728 248.853957 494.401598 245.008124 498.247431 
C 241.162291 502.093264 239.001421 507.310065 239.001421 512.748894 
C 239.001421 518.187723 241.162291 523.404524 245.008124 527.250357 
C 248.853957 531.09619 254.070758 533.25706 259.509587 533.25706 
z
" clip-path="url(#p71cc6bebd5)" style="fill: #c70039; fill-opacity: 0.99; stroke: #c70039; stroke-opacity: 0.99"/>
    <path d="M 348.664323 523.230532 
C 353.915572 523.230532 358.95245 521.144189 362.665644 517.430995 
C 366.378838 513.717802 368.465181 508.680923 368.465181 503.429675 
C 368.465181 498.178426 366.378838 493.141547 362.665644 489.428354 
C 358.95245 485.71516 353.915572 483.628817 348.664323 483.628817 
C 343.413074 483.628817 338.376196 485.71516 334.663003 489.428354 
C 330.949809 493.141547 328.863466 498.178426 328.863466 503.429675 
C 328.863466 508.680923 330.949809 513.717802 334.663003 517.430995 
C 338.376196 521.144189 343.413074 523.230532 348.664323 523.230532 
z
" clip-path="url(#p71cc6bebd5)" style="fill: #c70039; fill-opacity: 0.99; stroke: #c70039; stroke-opacity: 0.99"/>
    <path d="M 426.299888 478.473482 
C 431.503491 478.473482 436.494667 476.406069 440.17417 472.726566 
C 443.853672 469.047064 445.921085 464.055887 445.921085 458.852285 
C 445.921085 453.648683 443.853672 448.657506 440.17417 444.978004 
C 436.494667 441.298501 431.503491 439.231088 426.299888 439.231088 
C 421.096286 439.231088 416.105109 441.298501 412.425607 444.978004 
C 408.746104 448.657506 406.678691 453.648683 406.678691 458.852285 
C 406.678691 464.055887 408.746104 469.047064 412.425607 472.726566 
C 416.105109 476.406069 421.096286 478.473482 426.299888 478.473482 
z
" clip-path="url(#p71cc6bebd5)" style="fill: #c70039; fill-opacity: 0.99; stroke: #c70039; stroke-opacity: 0.99"/>
    <path d="M 478.992374 406.089501 
C 484.128009 406.089501 489.053994 404.049092 492.685437 400.417649 
C 496.31688 396.786206 498.35729 391.860221 498.35729 386.724585 
C 498.35729 381.588949 496.31688 376.662964 492.685437 373.031521 
C 489.053994 369.400078 484.128009 367.359668 478.992374 367.359668 
C 473.856738 367.359668 468.930753 369.400078 465.29931 373.031521 
C 461.667867 376.662964 459.627457 381.588949 459.627457 386.724585 
C 459.627457 391.860221 461.667867 396.786206 465.29931 400.417649 
C 468.930753 404.049092 473.856738 406.089501 478.992374 406.089501 
z
" clip-path="url(#p71cc6bebd5)" style="fill: #c70039; fill-opacity: 0.99; stroke: #c70039; stroke-opacity: 0.99"/>
   </g>
   <g id="text_1">
    <g id="patch_2">
     <path d="M 464.258347 307.833281 
L 531.003191 307.833281 
L 531.003191 291.202969 
L 464.258347 291.202969 
z
" clip-path="url(#p71cc6bebd5)" style="fill: #ffffff; opacity: 0.7; stroke: #000000; stroke-linejoin: miter"/>
    </g>
    <g clip-path="url(#p71cc6bebd5)">
     <!-- Denis Lavant -->
     <g transform="translate(468.218347 302.001562)scale(0.09 -0.09)">
      <defs>
       <path id="DejaVuSans-44" d="M 1259 4147 
L 1259 519 
L 2022 519 
Q 2988 519 3436 956 
Q 3884 1394 3884 2338 
Q 3884 3275 3436 3711 
Q 2988 4147 2022 4147 
L 1259 4147 
z
M 628 4666 
L 1925 4666 
Q 3281 4666 3915 4102 
Q 4550 3538 4550 2338 
Q 4550 1131 3912 565 
Q 3275 0 1925 0 
L 628 0 
L 628 4666 
z
" transform="scale(0.015625)"/>
       <path id="DejaVuSans-65" d="M 3597 1894 
L 3597 1613 
L 953 1613 
Q 991 1019 1311 708 
Q 1631 397 2203 397 
Q 2534 397 2845 478 
Q 3156 559 3463 722 
L 3463 178 
Q 3153 47 2828 -22 
Q 2503 -91 2169 -91 
Q 1331 -91 842 396 
Q 353 884 353 1716 
Q 353 2575 817 3079 
Q 1281 3584 2069 3584 
Q 2775 3584 3186 3129 
Q 3597 2675 3597 1894 
z
M 3022 2063 
Q 3016 2534 2758 2815 
Q 2500 3097 2075 3097 
Q 1594 3097 1305 2825 
Q 1016 2553 972 2059 
L 3022 2063 
z
" transform="scale(0.015625)"/>
       <path id="DejaVuSans-6e" d="M 3513 2113 
L 3513 0 
L 2938 0 
L 2938 2094 
Q 2938 2591 2744 2837 
Q 2550 3084 2163 3084 
Q 1697 3084 1428 2787 
Q 1159 2491 1159 1978 
L 1159 0 
L 581 0 
L 581 3500 
L 1159 3500 
L 1159 2956 
Q 1366 3272 1645 3428 
Q 1925 3584 2291 3584 
Q 2894 3584 3203 3211 
Q 3513 2838 3513 2113 
z
" transform="scale(0.015625)"/>
       <path id="DejaVuSans-69" d="M 603 3500 
L 1178 3500 
L 1178 0 
L 603 0 
L 603 3500 
z
M 603 4863 
L 1178 4863 
L 1178 4134 
L 603 4134 
L 603 4863 
z
" transform="scale(0.015625)"/>
       <path id="DejaVuSans-73" d="M 2834 3397 
L 2834 2853 
Q 2591 2978 2328 3040 
Q 2066 3103 1784 3103 
Q 1356 3103 1142 2972 
Q 928 2841 928 2578 
Q 928 2378 1081 2264 
Q 1234 2150 1697 2047 
L 1894 2003 
Q 2506 1872 2764 1633 
Q 3022 1394 3022 966 
Q 3022 478 2636 193 
Q 2250 -91 1575 -91 
Q 1294 -91 989 -36 
Q 684 19 347 128 
L 347 722 
Q 666 556 975 473 
Q 1284 391 1588 391 
Q 1994 391 2212 530 
Q 2431 669 2431 922 
Q 2431 1156 2273 1281 
Q 2116 1406 1581 1522 
L 1381 1569 
Q 847 1681 609 1914 
Q 372 2147 372 2553 
Q 372 3047 722 3315 
Q 1072 3584 1716 3584 
Q 2034 3584 2315 3537 
Q 2597 3491 2834 3397 
z
" transform="scale(0.015625)"/>
       <path id="DejaVuSans-20" transform="scale(0.015625)"/>
       <path id="DejaVuSans-4c" d="M 628 4666 
L 1259 4666 
L 1259 531 
L 3531 531 
L 3531 0 
L 628 0 
L 628 4666 
z
" transform="scale(0.015625)"/>
       <path id="DejaVuSans-61" d="M 2194 1759 
Q 1497 1759 1228 1600 
Q 959 1441 959 1056 
Q 959 750 1161 570 
Q 1363 391 1709 391 
Q 2188 391 2477 730 
Q 2766 1069 2766 1631 
L 2766 1759 
L 2194 1759 
z
M 3341 1997 
L 3341 0 
L 2766 0 
L 2766 531 
Q 2569 213 2275 61 
Q 1981 -91 1556 -91 
Q 1019 -91 701 211 
Q 384 513 384 1019 
Q 384 1609 779 1909 
Q 1175 2209 1959 2209 
L 2766 2209 
L 2766 2266 
Q 2766 2663 2505 2880 
Q 2244 3097 1772 3097 
Q 1472 3097 1187 3025 
Q 903 2953 641 2809 
L 641 3341 
Q 956 3463 1253 3523 
Q 1550 3584 1831 3584 
Q 2591 3584 2966 3190 
Q 3341 2797 3341 1997 
z
" transform="scale(0.015625)"/>
       <path id="DejaVuSans-76" d="M 191 3500 
L 800 3500 
L 1894 563 
L 2988 3500 
L 3597 3500 
L 2284 0 
L 1503 0 
L 191 3500 
z
" transform="scale(0.015625)"/>
       <path id="DejaVuSans-74" d="M 1172 4494 
L 1172 3500 
L 2356 3500 
L 2356 3053 
L 1172 3053 
L 1172 1153 
Q 1172 725 1289 603 
Q 1406 481 1766 481 
L 2356 481 
L 2356 0 
L 1766 0 
Q 1100 0 847 248 
Q 594 497 594 1153 
L 594 3053 
L 172 3053 
L 172 3500 
L 594 3500 
L 594 4494 
L 1172 4494 
z
" transform="scale(0.015625)"/>
      </defs>
      <use xlink:href="#DejaVuSans-44"/>
      <use xlink:href="#DejaVuSans-65" x="77.001953"/>
      <use xlink:href="#DejaVuSans-6e" x="138.525391"/>
      <use xlink:href="#DejaVuSans-69" x="201.904297"/>
      <use xlink:href="#DejaVuSans-73" x="229.6875"/>
      <use xlink:href="#DejaVuSans-20" x="281.787109"/>
      <use xlink:href="#DejaVuSans-4c" x="313.574219"/>
      <use xlink:href="#DejaVuSans-61" x="369.287109"/>
      <use xlink:href="#DejaVuSans-76" x="430.566406"/>
      <use xlink:href="#DejaVuSans-61" x="489.746094"/>
      <use xlink:href="#DejaVuSans-6e" x="551.025391"/>
      <use xlink:href="#DejaVuSans-74" x="614.404297"/>
     </g>
    </g>
   </g>
   <g id="text_2">
    <g id="patch_3">
     <path d="M 446.800473 220.62679 
L 511.184223 220.62679 
L 511.184223 203.996477 
L 446.800473 203.996477 
z
" clip-path="url(#p71cc6bebd5)" style="fill: #ffffff; opacity: 0.7; stroke: #000000; stroke-linejoin: miter"/>
    </g>
    <g clip-path="url(#p71cc6bebd5)">
     <!-- Mark Ruffalo -->
     <g transform="translate(450.760473 214.795071)scale(0.09 -0.09)">
      <defs>
       <path id="DejaVuSans-4d" d="M 628 4666 
L 1569 4666 
L 2759 1491 
L 3956 4666 
L 4897 4666 
L 4897 0 
L 4281 0 
L 4281 4097 
L 3078 897 
L 2444 897 
L 1241 4097 
L 1241 0 
L 628 0 
L 628 4666 
z
" transform="scale(0.015625)"/>
       <path id="DejaVuSans-72" d="M 2631 2963 
Q 2534 3019 2420 3045 
Q 2306 3072 2169 3072 
Q 1681 3072 1420 2755 
Q 1159 2438 1159 1844 
L 1159 0 
L 581 0 
L 581 3500 
L 1159 3500 
L 1159 2956 
Q 1341 3275 1631 3429 
Q 1922 3584 2338 3584 
Q 2397 3584 2469 3576 
Q 2541 3569 2628 3553 
L 2631 2963 
z
" transform="scale(0.015625)"/>
       <path id="DejaVuSans-6b" d="M 581 4863 
L 1159 4863 
L 1159 1991 
L 2875 3500 
L 3609 3500 
L 1753 1863 
L 3688 0 
L 2938 0 
L 1159 1709 
L 1159 0 
L 581 0 
L 581 4863 
z
" transform="scale(0.015625)"/>
       <path id="DejaVuSans-52" d="M 2841 2188 
Q 3044 2119 3236 1894 
Q 3428 1669 3622 1275 
L 4263 0 
L 3584 0 
L 2988 1197 
Q 2756 1666 2539 1819 
Q 2322 1972 1947 1972 
L 1259 1972 
L 1259 0 
L 628 0 
L 628 4666 
L 2053 4666 
Q 2853 4666 3247 4331 
Q 3641 3997 3641 3322 
Q 3641 2881 3436 2590 
Q 3231 2300 2841 2188 
z
M 1259 4147 
L 1259 2491 
L 2053 2491 
Q 2509 2491 2742 2702 
Q 2975 2913 2975 3322 
Q 2975 3731 2742 3939 
Q 2509 4147 2053 4147 
L 1259 4147 
z
" transform="scale(0.015625)"/>
       <path id="DejaVuSans-75" d="M 544 1381 
L 544 3500 
L 1119 3500 
L 1119 1403 
Q 1119 906 1312 657 
Q 1506 409 1894 409 
Q 2359 409 2629 706 
Q 2900 1003 2900 1516 
L 2900 3500 
L 3475 3500 
L 3475 0 
L 2900 0 
L 2900 538 
Q 2691 219 2414 64 
Q 2138 -91 1772 -91 
Q 1169 -91 856 284 
Q 544 659 544 1381 
z
M 1991 3584 
L 1991 3584 
z
" transform="scale(0.015625)"/>
       <path id="DejaVuSans-66" d="M 2375 4863 
L 2375 4384 
L 1825 4384 
Q 1516 4384 1395 4259 
Q 1275 4134 1275 3809 
L 1275 3500 
L 2222 3500 
L 2222 3053 
L 1275 3053 
L 1275 0 
L 697 0 
L 697 3053 
L 147 3053 
L 147 3500 
L 697 3500 
L 697 3744 
Q 697 4328 969 4595 
Q 1241 4863 1831 4863 
L 2375 4863 
z
" transform="scale(0.015625)"/>
       <path id="DejaVuSans-6c" d="M 603 4863 
L 1178 4863 
L 1178 0 
L 603 0 
L 603 4863 
z
" transform="scale(0.015625)"/>
       <path id="DejaVuSans-6f" d="M 1959 3097 
Q 1497 3097 1228 2736 
Q 959 2375 959 1747 
Q 959 1119 1226 758 
Q 1494 397 1959 397 
Q 2419 397 2687 759 
Q 2956 1122 2956 1747 
Q 2956 2369 2687 2733 
Q 2419 3097 1959 3097 
z
M 1959 3584 
Q 2709 3584 3137 3096 
Q 3566 2609 3566 1747 
Q 3566 888 3137 398 
Q 2709 -91 1959 -91 
Q 1206 -91 779 398 
Q 353 888 353 1747 
Q 353 2609 779 3096 
Q 1206 3584 1959 3584 
z
" transform="scale(0.015625)"/>
      </defs>
      <use xlink:href="#DejaVuSans-4d"/>
      <use xlink:href="#DejaVuSans-61" x="86.279297"/>
      <use xlink:href="#DejaVuSans-72" x="147.558594"/>
      <use xlink:href="#DejaVuSans-6b" x="188.671875"/>
      <use xlink:href="#DejaVuSans-20" x="246.582031"/>
      <use xlink:href="#DejaVuSans-52" x="278.369141"/>
      <use xlink:href="#DejaVuSans-75" x="343.351562"/>
      <use xlink:href="#DejaVuSans-66" x="406.730469"/>
      <use xlink:href="#DejaVuSans-66" x="441.935547"/>
      <use xlink:href="#DejaVuSans-61" x="477.140625"/>
      <use xlink:href="#DejaVuSans-6c" x="538.419922"/>
      <use xlink:href="#DejaVuSans-6f" x="566.203125"/>
     </g>
    </g>
   </g>
   <g id="text_3">
    <g id="patch_4">
     <path d="M 393.443522 148.499083 
L 459.156178 148.499083 
L 459.156178 131.86877 
L 393.443522 131.86877 
z
" clip-path="url(#p71cc6bebd5)" style="fill: #ffffff; opacity: 0.7; stroke: #000000; stroke-linejoin: miter"/>
    </g>
    <g clip-path="url(#p71cc6bebd5)">
     <!-- Eugene Levy -->
     <g transform="translate(397.403522 142.667364)scale(0.09 -0.09)">
      <defs>
       <path id="DejaVuSans-45" d="M 628 4666 
L 3578 4666 
L 3578 4134 
L 1259 4134 
L 1259 2753 
L 3481 2753 
L 3481 2222 
L 1259 2222 
L 1259 531 
L 3634 531 
L 3634 0 
L 628 0 
L 628 4666 
z
" transform="scale(0.015625)"/>
       <path id="DejaVuSans-67" d="M 2906 1791 
Q 2906 2416 2648 2759 
Q 2391 3103 1925 3103 
Q 1463 3103 1205 2759 
Q 947 2416 947 1791 
Q 947 1169 1205 825 
Q 1463 481 1925 481 
Q 2391 481 2648 825 
Q 2906 1169 2906 1791 
z
M 3481 434 
Q 3481 -459 3084 -895 
Q 2688 -1331 1869 -1331 
Q 1566 -1331 1297 -1286 
Q 1028 -1241 775 -1147 
L 775 -588 
Q 1028 -725 1275 -790 
Q 1522 -856 1778 -856 
Q 2344 -856 2625 -561 
Q 2906 -266 2906 331 
L 2906 616 
Q 2728 306 2450 153 
Q 2172 0 1784 0 
Q 1141 0 747 490 
Q 353 981 353 1791 
Q 353 2603 747 3093 
Q 1141 3584 1784 3584 
Q 2172 3584 2450 3431 
Q 2728 3278 2906 2969 
L 2906 3500 
L 3481 3500 
L 3481 434 
z
" transform="scale(0.015625)"/>
       <path id="DejaVuSans-79" d="M 2059 -325 
Q 1816 -950 1584 -1140 
Q 1353 -1331 966 -1331 
L 506 -1331 
L 506 -850 
L 844 -850 
Q 1081 -850 1212 -737 
Q 1344 -625 1503 -206 
L 1606 56 
L 191 3500 
L 800 3500 
L 1894 763 
L 2988 3500 
L 3597 3500 
L 2059 -325 
z
" transform="scale(0.015625)"/>
      </defs>
      <use xlink:href="#DejaVuSans-45"/>
      <use xlink:href="#DejaVuSans-75" x="63.183594"/>
      <use xlink:href="#DejaVuSans-67" x="126.5625"/>
      <use xlink:href="#DejaVuSans-65" x="190.039062"/>
      <use xlink:href="#DejaVuSans-6e" x="251.5625"/>
      <use xlink:href="#DejaVuSans-65" x="314.941406"/>
      <use xlink:href="#DejaVuSans-20" x="376.464844"/>
      <use xlink:href="#DejaVuSans-4c" x="408.251953"/>
      <use xlink:href="#DejaVuSans-65" x="462.214844"/>
      <use xlink:href="#DejaVuSans-76" x="523.738281"/>
      <use xlink:href="#DejaVuSans-79" x="582.917969"/>
     </g>
    </g>
   </g>
   <g id="text_4">
    <g id="patch_5">
     <path d="M 313.36601 103.921719 
L 383.962572 103.921719 
L 383.962572 87.291406 
L 313.36601 87.291406 
z
" clip-path="url(#p71cc6bebd5)" style="fill: #ffffff; opacity: 0.7; stroke: #000000; stroke-linejoin: miter"/>
    </g>
    <g clip-path="url(#p71cc6bebd5)">
     <!-- Orlando Jones -->
     <g transform="translate(317.32601 98.09)scale(0.09 -0.09)">
      <defs>
       <path id="DejaVuSans-4f" d="M 2522 4238 
Q 1834 4238 1429 3725 
Q 1025 3213 1025 2328 
Q 1025 1447 1429 934 
Q 1834 422 2522 422 
Q 3209 422 3611 934 
Q 4013 1447 4013 2328 
Q 4013 3213 3611 3725 
Q 3209 4238 2522 4238 
z
M 2522 4750 
Q 3503 4750 4090 4092 
Q 4678 3434 4678 2328 
Q 4678 1225 4090 567 
Q 3503 -91 2522 -91 
Q 1538 -91 948 565 
Q 359 1222 359 2328 
Q 359 3434 948 4092 
Q 1538 4750 2522 4750 
z
" transform="scale(0.015625)"/>
       <path id="DejaVuSans-64" d="M 2906 2969 
L 2906 4863 
L 3481 4863 
L 3481 0 
L 2906 0 
L 2906 525 
Q 2725 213 2448 61 
Q 2172 -91 1784 -91 
Q 1150 -91 751 415 
Q 353 922 353 1747 
Q 353 2572 751 3078 
Q 1150 3584 1784 3584 
Q 2172 3584 2448 3432 
Q 2725 3281 2906 2969 
z
M 947 1747 
Q 947 1113 1208 752 
Q 1469 391 1925 391 
Q 2381 391 2643 752 
Q 2906 1113 2906 1747 
Q 2906 2381 2643 2742 
Q 2381 3103 1925 3103 
Q 1469 3103 1208 2742 
Q 947 2381 947 1747 
z
" transform="scale(0.015625)"/>
       <path id="DejaVuSans-4a" d="M 628 4666 
L 1259 4666 
L 1259 325 
Q 1259 -519 939 -900 
Q 619 -1281 -91 -1281 
L -331 -1281 
L -331 -750 
L -134 -750 
Q 284 -750 456 -515 
Q 628 -281 628 325 
L 628 4666 
z
" transform="scale(0.015625)"/>
      </defs>
      <use xlink:href="#DejaVuSans-4f"/>
      <use xlink:href="#DejaVuSans-72" x="78.710938"/>
      <use xlink:href="#DejaVuSans-6c" x="119.824219"/>
      <use xlink:href="#DejaVuSans-61" x="147.607422"/>
      <use xlink:href="#DejaVuSans-6e" x="208.886719"/>
      <use xlink:href="#DejaVuSans-64" x="272.265625"/>
      <use xlink:href="#DejaVuSans-6f" x="335.742188"/>
      <use xlink:href="#DejaVuSans-20" x="396.923828"/>
      <use xlink:href="#DejaVuSans-4a" x="428.710938"/>
      <use xlink:href="#DejaVuSans-6f" x="458.203125"/>
      <use xlink:href="#DejaVuSans-6e" x="519.384766"/>
      <use xlink:href="#DejaVuSans-65" x="582.763672"/>
      <use xlink:href="#DejaVuSans-73" x="644.287109"/>
     </g>
    </g>
   </g>
   <g id="text_5">
    <g id="patch_6">
     <path d="M 233.796267 94.602512 
L 285.22283 94.602512 
L 285.22283 77.9722 
L 233.796267 77.9722 
z
" clip-path="url(#p71cc6bebd5)" style="fill: #ffffff; opacity: 0.7; stroke: #000000; stroke-linejoin: miter"/>
    </g>
    <g clip-path="url(#p71cc6bebd5)">
     <!-- Mel Blanc -->
     <g transform="translate(237.756267 88.770793)scale(0.09 -0.09)">
      <defs>
       <path id="DejaVuSans-42" d="M 1259 2228 
L 1259 519 
L 2272 519 
Q 2781 519 3026 730 
Q 3272 941 3272 1375 
Q 3272 1813 3026 2020 
Q 2781 2228 2272 2228 
L 1259 2228 
z
M 1259 4147 
L 1259 2741 
L 2194 2741 
Q 2656 2741 2882 2914 
Q 3109 3088 3109 3444 
Q 3109 3797 2882 3972 
Q 2656 4147 2194 4147 
L 1259 4147 
z
M 628 4666 
L 2241 4666 
Q 2963 4666 3353 4366 
Q 3744 4066 3744 3513 
Q 3744 3084 3544 2831 
Q 3344 2578 2956 2516 
Q 3422 2416 3680 2098 
Q 3938 1781 3938 1306 
Q 3938 681 3513 340 
Q 3088 0 2303 0 
L 628 0 
L 628 4666 
z
" transform="scale(0.015625)"/>
       <path id="DejaVuSans-63" d="M 3122 3366 
L 3122 2828 
Q 2878 2963 2633 3030 
Q 2388 3097 2138 3097 
Q 1578 3097 1268 2742 
Q 959 2388 959 1747 
Q 959 1106 1268 751 
Q 1578 397 2138 397 
Q 2388 397 2633 464 
Q 2878 531 3122 666 
L 3122 134 
Q 2881 22 2623 -34 
Q 2366 -91 2075 -91 
Q 1284 -91 818 406 
Q 353 903 353 1747 
Q 353 2603 823 3093 
Q 1294 3584 2113 3584 
Q 2378 3584 2631 3529 
Q 2884 3475 3122 3366 
z
" transform="scale(0.015625)"/>
      </defs>
      <use xlink:href="#DejaVuSans-4d"/>
      <use xlink:href="#DejaVuSans-65" x="86.279297"/>
      <use xlink:href="#DejaVuSans-6c" x="147.802734"/>
      <use xlink:href="#DejaVuSans-20" x="175.585938"/>
      <use xlink:href="#DejaVuSans-42" x="207.373047"/>
      <use xlink:href="#DejaVuSans-6c" x="275.976562"/>
      <use xlink:href="#DejaVuSans-61" x="303.759766"/>
      <use xlink:href="#DejaVuSans-6e" x="365.039062"/>
      <use xlink:href="#DejaVuSans-63" x="428.417969"/>
     </g>
    </g>
   </g>
   <g id="text_6">
    <g id="patch_7">
     <path d="M 132.446298 122.152849 
L 216.056298 122.152849 
L 216.056298 105.522536 
L 132.446298 105.522536 
z
" clip-path="url(#p71cc6bebd5)" style="fill: #ffffff; opacity: 0.7; stroke: #000000; stroke-linejoin: miter"/>
    </g>
    <g clip-path="url(#p71cc6bebd5)">
     <!-- Morgan Freeman -->
     <g transform="translate(136.406298 116.32113)scale(0.09 -0.09)">
      <defs>
       <path id="DejaVuSans-46" d="M 628 4666 
L 3309 4666 
L 3309 4134 
L 1259 4134 
L 1259 2759 
L 3109 2759 
L 3109 2228 
L 1259 2228 
L 1259 0 
L 628 0 
L 628 4666 
z
" transform="scale(0.015625)"/>
       <path id="DejaVuSans-6d" d="M 3328 2828 
Q 3544 3216 3844 3400 
Q 4144 3584 4550 3584 
Q 5097 3584 5394 3201 
Q 5691 2819 5691 2113 
L 5691 0 
L 5113 0 
L 5113 2094 
Q 5113 2597 4934 2840 
Q 4756 3084 4391 3084 
Q 3944 3084 3684 2787 
Q 3425 2491 3425 1978 
L 3425 0 
L 2847 0 
L 2847 2094 
Q 2847 2600 2669 2842 
Q 2491 3084 2119 3084 
Q 1678 3084 1418 2786 
Q 1159 2488 1159 1978 
L 1159 0 
L 581 0 
L 581 3500 
L 1159 3500 
L 1159 2956 
Q 1356 3278 1631 3431 
Q 1906 3584 2284 3584 
Q 2666 3584 2933 3390 
Q 3200 3197 3328 2828 
z
" transform="scale(0.015625)"/>
      </defs>
      <use xlink:href="#DejaVuSans-4d"/>
      <use xlink:href="#DejaVuSans-6f" x="86.279297"/>
      <use xlink:href="#DejaVuSans-72" x="147.460938"/>
      <use xlink:href="#DejaVuSans-67" x="186.824219"/>
      <use xlink:href="#DejaVuSans-61" x="250.300781"/>
      <use xlink:href="#DejaVuSans-6e" x="311.580078"/>
      <use xlink:href="#DejaVuSans-20" x="374.958984"/>
      <use xlink:href="#DejaVuSans-46" x="406.746094"/>
      <use xlink:href="#DejaVuSans-72" x="457.015625"/>
      <use xlink:href="#DejaVuSans-65" x="495.878906"/>
      <use xlink:href="#DejaVuSans-65" x="557.402344"/>
      <use xlink:href="#DejaVuSans-6d" x="618.925781"/>
      <use xlink:href="#DejaVuSans-61" x="716.337891"/>
      <use xlink:href="#DejaVuSans-6e" x="777.617188"/>
     </g>
    </g>
   </g>
   <g id="text_7">
    <g id="patch_8">
     <path d="M 70.258977 181.80901 
L 145.003977 181.80901 
L 145.003977 165.178697 
L 70.258977 165.178697 
z
" clip-path="url(#p71cc6bebd5)" style="fill: #ffffff; opacity: 0.7; stroke: #000000; stroke-linejoin: miter"/>
    </g>
    <g clip-path="url(#p71cc6bebd5)">
     <!-- Steve Buscemi -->
     <g transform="translate(74.218977 175.977291)scale(0.09 -0.09)">
      <defs>
       <path id="DejaVuSans-53" d="M 3425 4513 
L 3425 3897 
Q 3066 4069 2747 4153 
Q 2428 4238 2131 4238 
Q 1616 4238 1336 4038 
Q 1056 3838 1056 3469 
Q 1056 3159 1242 3001 
Q 1428 2844 1947 2747 
L 2328 2669 
Q 3034 2534 3370 2195 
Q 3706 1856 3706 1288 
Q 3706 609 3251 259 
Q 2797 -91 1919 -91 
Q 1588 -91 1214 -16 
Q 841 59 441 206 
L 441 856 
Q 825 641 1194 531 
Q 1563 422 1919 422 
Q 2459 422 2753 634 
Q 3047 847 3047 1241 
Q 3047 1584 2836 1778 
Q 2625 1972 2144 2069 
L 1759 2144 
Q 1053 2284 737 2584 
Q 422 2884 422 3419 
Q 422 4038 858 4394 
Q 1294 4750 2059 4750 
Q 2388 4750 2728 4690 
Q 3069 4631 3425 4513 
z
" transform="scale(0.015625)"/>
      </defs>
      <use xlink:href="#DejaVuSans-53"/>
      <use xlink:href="#DejaVuSans-74" x="63.476562"/>
      <use xlink:href="#DejaVuSans-65" x="102.685547"/>
      <use xlink:href="#DejaVuSans-76" x="164.208984"/>
      <use xlink:href="#DejaVuSans-65" x="223.388672"/>
      <use xlink:href="#DejaVuSans-20" x="284.912109"/>
      <use xlink:href="#DejaVuSans-42" x="316.699219"/>
      <use xlink:href="#DejaVuSans-75" x="385.302734"/>
      <use xlink:href="#DejaVuSans-73" x="448.681641"/>
      <use xlink:href="#DejaVuSans-63" x="500.78125"/>
      <use xlink:href="#DejaVuSans-65" x="555.761719"/>
      <use xlink:href="#DejaVuSans-6d" x="617.285156"/>
      <use xlink:href="#DejaVuSans-69" x="714.697266"/>
     </g>
    </g>
   </g>
   <g id="text_8">
    <g id="patch_9">
     <path d="M 41.247043 263.25593 
L 101.091418 263.25593 
L 101.091418 246.625618 
L 41.247043 246.625618 
z
" clip-path="url(#p71cc6bebd5)" style="fill: #ffffff; opacity: 0.7; stroke: #000000; stroke-linejoin: miter"/>
    </g>
    <g clip-path="url(#p71cc6bebd5)">
     <!-- Rene Russo -->
     <g transform="translate(45.207043 257.424211)scale(0.09 -0.09)">
      <use xlink:href="#DejaVuSans-52"/>
      <use xlink:href="#DejaVuSans-65" x="64.982422"/>
      <use xlink:href="#DejaVuSans-6e" x="126.505859"/>
      <use xlink:href="#DejaVuSans-65" x="189.884766"/>
      <use xlink:href="#DejaVuSans-20" x="251.408203"/>
      <use xlink:href="#DejaVuSans-52" x="283.195312"/>
      <use xlink:href="#DejaVuSans-75" x="348.177734"/>
      <use xlink:href="#DejaVuSans-73" x="411.556641"/>
      <use xlink:href="#DejaVuSans-73" x="463.65625"/>
      <use xlink:href="#DejaVuSans-6f" x="515.755859"/>
     </g>
    </g>
   </g>
   <g id="text_9">
    <g id="patch_10">
     <path d="M 29.666587 352.410671 
L 112.6719 352.410671 
L 112.6719 335.780358 
L 29.666587 335.780358 
z
" clip-path="url(#p71cc6bebd5)" style="fill: #ffffff; opacity: 0.7; stroke: #000000; stroke-linejoin: miter"/>
    </g>
    <g clip-path="url(#p71cc6bebd5)">
     <!-- Chazz Palminteri -->
     <g transform="translate(33.626587 346.578952)scale(0.09 -0.09)">
      <defs>
       <path id="DejaVuSans-43" d="M 4122 4306 
L 4122 3641 
Q 3803 3938 3442 4084 
Q 3081 4231 2675 4231 
Q 1875 4231 1450 3742 
Q 1025 3253 1025 2328 
Q 1025 1406 1450 917 
Q 1875 428 2675 428 
Q 3081 428 3442 575 
Q 3803 722 4122 1019 
L 4122 359 
Q 3791 134 3420 21 
Q 3050 -91 2638 -91 
Q 1578 -91 968 557 
Q 359 1206 359 2328 
Q 359 3453 968 4101 
Q 1578 4750 2638 4750 
Q 3056 4750 3426 4639 
Q 3797 4528 4122 4306 
z
" transform="scale(0.015625)"/>
       <path id="DejaVuSans-68" d="M 3513 2113 
L 3513 0 
L 2938 0 
L 2938 2094 
Q 2938 2591 2744 2837 
Q 2550 3084 2163 3084 
Q 1697 3084 1428 2787 
Q 1159 2491 1159 1978 
L 1159 0 
L 581 0 
L 581 4863 
L 1159 4863 
L 1159 2956 
Q 1366 3272 1645 3428 
Q 1925 3584 2291 3584 
Q 2894 3584 3203 3211 
Q 3513 2838 3513 2113 
z
" transform="scale(0.015625)"/>
       <path id="DejaVuSans-7a" d="M 353 3500 
L 3084 3500 
L 3084 2975 
L 922 459 
L 3084 459 
L 3084 0 
L 275 0 
L 275 525 
L 2438 3041 
L 353 3041 
L 353 3500 
z
" transform="scale(0.015625)"/>
       <path id="DejaVuSans-50" d="M 1259 4147 
L 1259 2394 
L 2053 2394 
Q 2494 2394 2734 2622 
Q 2975 2850 2975 3272 
Q 2975 3691 2734 3919 
Q 2494 4147 2053 4147 
L 1259 4147 
z
M 628 4666 
L 2053 4666 
Q 2838 4666 3239 4311 
Q 3641 3956 3641 3272 
Q 3641 2581 3239 2228 
Q 2838 1875 2053 1875 
L 1259 1875 
L 1259 0 
L 628 0 
L 628 4666 
z
" transform="scale(0.015625)"/>
      </defs>
      <use xlink:href="#DejaVuSans-43"/>
      <use xlink:href="#DejaVuSans-68" x="69.824219"/>
      <use xlink:href="#DejaVuSans-61" x="133.203125"/>
      <use xlink:href="#DejaVuSans-7a" x="194.482422"/>
      <use xlink:href="#DejaVuSans-7a" x="246.972656"/>
      <use xlink:href="#DejaVuSans-20" x="299.462891"/>
      <use xlink:href="#DejaVuSans-50" x="331.25"/>
      <use xlink:href="#DejaVuSans-61" x="387.052734"/>
      <use xlink:href="#DejaVuSans-6c" x="448.332031"/>
      <use xlink:href="#DejaVuSans-6d" x="476.115234"/>
      <use xlink:href="#DejaVuSans-69" x="573.527344"/>
      <use xlink:href="#DejaVuSans-6e" x="601.310547"/>
      <use xlink:href="#DejaVuSans-74" x="664.689453"/>
      <use xlink:href="#DejaVuSans-65" x="703.898438"/>
      <use xlink:href="#DejaVuSans-72" x="765.421875"/>
      <use xlink:href="#DejaVuSans-69" x="806.535156"/>
     </g>
    </g>
   </g>
   <g id="text_10">
    <g id="patch_11">
     <path d="M 68.094068 433.857565 
L 147.168912 433.857565 
L 147.168912 417.227253 
L 68.094068 417.227253 
z
" clip-path="url(#p71cc6bebd5)" style="fill: #ffffff; opacity: 0.7; stroke: #000000; stroke-linejoin: miter"/>
    </g>
    <g clip-path="url(#p71cc6bebd5)">
     <!-- Jennifer Aniston -->
     <g transform="translate(72.054068 428.025847)scale(0.09 -0.09)">
      <defs>
       <path id="DejaVuSans-41" d="M 2188 4044 
L 1331 1722 
L 3047 1722 
L 2188 4044 
z
M 1831 4666 
L 2547 4666 
L 4325 0 
L 3669 0 
L 3244 1197 
L 1141 1197 
L 716 0 
L 50 0 
L 1831 4666 
z
" transform="scale(0.015625)"/>
      </defs>
      <use xlink:href="#DejaVuSans-4a"/>
      <use xlink:href="#DejaVuSans-65" x="29.492188"/>
      <use xlink:href="#DejaVuSans-6e" x="91.015625"/>
      <use xlink:href="#DejaVuSans-6e" x="154.394531"/>
      <use xlink:href="#DejaVuSans-69" x="217.773438"/>
      <use xlink:href="#DejaVuSans-66" x="245.556641"/>
      <use xlink:href="#DejaVuSans-65" x="280.761719"/>
      <use xlink:href="#DejaVuSans-72" x="342.285156"/>
      <use xlink:href="#DejaVuSans-20" x="383.398438"/>
      <use xlink:href="#DejaVuSans-41" x="415.185547"/>
      <use xlink:href="#DejaVuSans-6e" x="483.59375"/>
      <use xlink:href="#DejaVuSans-69" x="546.972656"/>
      <use xlink:href="#DejaVuSans-73" x="574.755859"/>
      <use xlink:href="#DejaVuSans-74" x="626.855469"/>
      <use xlink:href="#DejaVuSans-6f" x="666.064453"/>
      <use xlink:href="#DejaVuSans-6e" x="727.246094"/>
     </g>
    </g>
   </g>
   <g id="text_11">
    <g id="patch_12">
     <path d="M 141.195315 493.513727 
L 207.307346 493.513727 
L 207.307346 476.883414 
L 141.195315 476.883414 
z
" clip-path="url(#p71cc6bebd5)" style="fill: #ffffff; opacity: 0.7; stroke: #000000; stroke-linejoin: miter"/>
    </g>
    <g clip-path="url(#p71cc6bebd5)">
     <!-- John Travolta -->
     <g transform="translate(145.155315 487.682008)scale(0.09 -0.09)">
      <defs>
       <path id="DejaVuSans-54" d="M -19 4666 
L 3928 4666 
L 3928 4134 
L 2272 4134 
L 2272 0 
L 1638 0 
L 1638 4134 
L -19 4134 
L -19 4666 
z
" transform="scale(0.015625)"/>
      </defs>
      <use xlink:href="#DejaVuSans-4a"/>
      <use xlink:href="#DejaVuSans-6f" x="29.492188"/>
      <use xlink:href="#DejaVuSans-68" x="90.673828"/>
      <use xlink:href="#DejaVuSans-6e" x="154.052734"/>
      <use xlink:href="#DejaVuSans-20" x="217.431641"/>
      <use xlink:href="#DejaVuSans-54" x="249.21875"/>
      <use xlink:href="#DejaVuSans-72" x="295.552734"/>
      <use xlink:href="#DejaVuSans-61" x="336.666016"/>
      <use xlink:href="#DejaVuSans-76" x="397.945312"/>
      <use xlink:href="#DejaVuSans-6f" x="457.125"/>
      <use xlink:href="#DejaVuSans-6c" x="518.306641"/>
      <use xlink:href="#DejaVuSans-74" x="546.089844"/>
      <use xlink:href="#DejaVuSans-61" x="585.298828"/>
     </g>
    </g>
   </g>
   <g id="text_12">
    <g id="patch_13">
     <path d="M 224.640212 521.06405 
L 294.378962 521.06405 
L 294.378962 504.433738 
L 224.640212 504.433738 
z
" clip-path="url(#p71cc6bebd5)" style="fill: #ffffff; opacity: 0.7; stroke: #000000; stroke-linejoin: miter"/>
    </g>
    <g clip-path="url(#p71cc6bebd5)">
     <!-- Maggie Smith -->
     <g transform="translate(228.600212 515.232332)scale(0.09 -0.09)">
      <use xlink:href="#DejaVuSans-4d"/>
      <use xlink:href="#DejaVuSans-61" x="86.279297"/>
      <use xlink:href="#DejaVuSans-67" x="147.558594"/>
      <use xlink:href="#DejaVuSans-67" x="211.035156"/>
      <use xlink:href="#DejaVuSans-69" x="274.511719"/>
      <use xlink:href="#DejaVuSans-65" x="302.294922"/>
      <use xlink:href="#DejaVuSans-20" x="363.818359"/>
      <use xlink:href="#DejaVuSans-53" x="395.605469"/>
      <use xlink:href="#DejaVuSans-6d" x="459.082031"/>
      <use xlink:href="#DejaVuSans-69" x="556.494141"/>
      <use xlink:href="#DejaVuSans-74" x="584.277344"/>
      <use xlink:href="#DejaVuSans-68" x="623.486328"/>
     </g>
    </g>
   </g>
   <g id="text_13">
    <g id="patch_14">
     <path d="M 302.225026 511.744831 
L 395.10362 511.744831 
L 395.10362 495.114518 
L 302.225026 495.114518 
z
" clip-path="url(#p71cc6bebd5)" style="fill: #ffffff; opacity: 0.7; stroke: #000000; stroke-linejoin: miter"/>
    </g>
    <g clip-path="url(#p71cc6bebd5)">
     <!-- Amitabh Bachchan -->
     <g transform="translate(306.185026 505.913112)scale(0.09 -0.09)">
      <defs>
       <path id="DejaVuSans-62" d="M 3116 1747 
Q 3116 2381 2855 2742 
Q 2594 3103 2138 3103 
Q 1681 3103 1420 2742 
Q 1159 2381 1159 1747 
Q 1159 1113 1420 752 
Q 1681 391 2138 391 
Q 2594 391 2855 752 
Q 3116 1113 3116 1747 
z
M 1159 2969 
Q 1341 3281 1617 3432 
Q 1894 3584 2278 3584 
Q 2916 3584 3314 3078 
Q 3713 2572 3713 1747 
Q 3713 922 3314 415 
Q 2916 -91 2278 -91 
Q 1894 -91 1617 61 
Q 1341 213 1159 525 
L 1159 0 
L 581 0 
L 581 4863 
L 1159 4863 
L 1159 2969 
z
" transform="scale(0.015625)"/>
      </defs>
      <use xlink:href="#DejaVuSans-41"/>
      <use xlink:href="#DejaVuSans-6d" x="68.408203"/>
      <use xlink:href="#DejaVuSans-69" x="165.820312"/>
      <use xlink:href="#DejaVuSans-74" x="193.603516"/>
      <use xlink:href="#DejaVuSans-61" x="232.8125"/>
      <use xlink:href="#DejaVuSans-62" x="294.091797"/>
      <use xlink:href="#DejaVuSans-68" x="357.568359"/>
      <use xlink:href="#DejaVuSans-20" x="420.947266"/>
      <use xlink:href="#DejaVuSans-42" x="452.734375"/>
      <use xlink:href="#DejaVuSans-61" x="521.337891"/>
      <use xlink:href="#DejaVuSans-63" x="582.617188"/>
      <use xlink:href="#DejaVuSans-68" x="637.597656"/>
      <use xlink:href="#DejaVuSans-63" x="700.976562"/>
      <use xlink:href="#DejaVuSans-68" x="755.957031"/>
      <use xlink:href="#DejaVuSans-61" x="819.335938"/>
      <use xlink:href="#DejaVuSans-6e" x="880.615234"/>
     </g>
    </g>
   </g>
   <g id="text_14">
    <g id="patch_15">
     <path d="M 389.439263 467.167441 
L 463.160513 467.167441 
L 463.160513 450.537129 
L 389.439263 450.537129 
z
" clip-path="url(#p71cc6bebd5)" style="fill: #ffffff; opacity: 0.7; stroke: #000000; stroke-linejoin: miter"/>
    </g>
    <g clip-path="url(#p71cc6bebd5)">
     <!-- Robin Williams -->
     <g transform="translate(393.399263 461.335723)scale(0.09 -0.09)">
      <defs>
       <path id="DejaVuSans-57" d="M 213 4666 
L 850 4666 
L 1831 722 
L 2809 4666 
L 3519 4666 
L 4500 722 
L 5478 4666 
L 6119 4666 
L 4947 0 
L 4153 0 
L 3169 4050 
L 2175 0 
L 1381 0 
L 213 4666 
z
" transform="scale(0.015625)"/>
      </defs>
      <use xlink:href="#DejaVuSans-52"/>
      <use xlink:href="#DejaVuSans-6f" x="64.982422"/>
      <use xlink:href="#DejaVuSans-62" x="126.164062"/>
      <use xlink:href="#DejaVuSans-69" x="189.640625"/>
      <use xlink:href="#DejaVuSans-6e" x="217.423828"/>
      <use xlink:href="#DejaVuSans-20" x="280.802734"/>
      <use xlink:href="#DejaVuSans-57" x="312.589844"/>
      <use xlink:href="#DejaVuSans-69" x="409.216797"/>
      <use xlink:href="#DejaVuSans-6c" x="437"/>
      <use xlink:href="#DejaVuSans-6c" x="464.783203"/>
      <use xlink:href="#DejaVuSans-69" x="492.566406"/>
      <use xlink:href="#DejaVuSans-61" x="520.349609"/>
      <use xlink:href="#DejaVuSans-6d" x="581.628906"/>
      <use xlink:href="#DejaVuSans-73" x="679.041016"/>
     </g>
    </g>
   </g>
   <g id="text_15">
    <g id="patch_16">
     <path d="M 438.905108 395.039741 
L 519.079639 395.039741 
L 519.079639 378.409428 
L 438.905108 378.409428 
z
" clip-path="url(#p71cc6bebd5)" style="fill: #ffffff; opacity: 0.7; stroke: #000000; stroke-linejoin: miter"/>
    </g>
    <g clip-path="url(#p71cc6bebd5)">
     <!-- Michael McKean -->
     <g transform="translate(442.865108 389.208022)scale(0.09 -0.09)">
      <defs>
       <path id="DejaVuSans-4b" d="M 628 4666 
L 1259 4666 
L 1259 2694 
L 3353 4666 
L 4166 4666 
L 1850 2491 
L 4331 0 
L 3500 0 
L 1259 2247 
L 1259 0 
L 628 0 
L 628 4666 
z
" transform="scale(0.015625)"/>
      </defs>
      <use xlink:href="#DejaVuSans-4d"/>
      <use xlink:href="#DejaVuSans-69" x="86.279297"/>
      <use xlink:href="#DejaVuSans-63" x="114.0625"/>
      <use xlink:href="#DejaVuSans-68" x="169.042969"/>
      <use xlink:href="#DejaVuSans-61" x="232.421875"/>
      <use xlink:href="#DejaVuSans-65" x="293.701172"/>
      <use xlink:href="#DejaVuSans-6c" x="355.224609"/>
      <use xlink:href="#DejaVuSans-20" x="383.007812"/>
      <use xlink:href="#DejaVuSans-4d" x="414.794922"/>
      <use xlink:href="#DejaVuSans-63" x="501.074219"/>
      <use xlink:href="#DejaVuSans-4b" x="556.054688"/>
      <use xlink:href="#DejaVuSans-65" x="616.630859"/>
      <use xlink:href="#DejaVuSans-61" x="678.154297"/>
      <use xlink:href="#DejaVuSans-6e" x="739.433594"/>
     </g>
    </g>
   </g>
   <g id="text_16">
    <!-- Impactful actors for Silent film genre - Importance rank: 3 -->
    <g transform="translate(110.649375 16.318125)scale(0.12 -0.12)">
     <defs>
      <path id="DejaVuSans-49" d="M 628 4666 
L 1259 4666 
L 1259 0 
L 628 0 
L 628 4666 
z
" transform="scale(0.015625)"/>
      <path id="DejaVuSans-70" d="M 1159 525 
L 1159 -1331 
L 581 -1331 
L 581 3500 
L 1159 3500 
L 1159 2969 
Q 1341 3281 1617 3432 
Q 1894 3584 2278 3584 
Q 2916 3584 3314 3078 
Q 3713 2572 3713 1747 
Q 3713 922 3314 415 
Q 2916 -91 2278 -91 
Q 1894 -91 1617 61 
Q 1341 213 1159 525 
z
M 3116 1747 
Q 3116 2381 2855 2742 
Q 2594 3103 2138 3103 
Q 1681 3103 1420 2742 
Q 1159 2381 1159 1747 
Q 1159 1113 1420 752 
Q 1681 391 2138 391 
Q 2594 391 2855 752 
Q 3116 1113 3116 1747 
z
" transform="scale(0.015625)"/>
      <path id="DejaVuSans-2d" d="M 313 2009 
L 1997 2009 
L 1997 1497 
L 313 1497 
L 313 2009 
z
" transform="scale(0.015625)"/>
      <path id="DejaVuSans-3a" d="M 750 794 
L 1409 794 
L 1409 0 
L 750 0 
L 750 794 
z
M 750 3309 
L 1409 3309 
L 1409 2516 
L 750 2516 
L 750 3309 
z
" transform="scale(0.015625)"/>
      <path id="DejaVuSans-33" d="M 2597 2516 
Q 3050 2419 3304 2112 
Q 3559 1806 3559 1356 
Q 3559 666 3084 287 
Q 2609 -91 1734 -91 
Q 1441 -91 1130 -33 
Q 819 25 488 141 
L 488 750 
Q 750 597 1062 519 
Q 1375 441 1716 441 
Q 2309 441 2620 675 
Q 2931 909 2931 1356 
Q 2931 1769 2642 2001 
Q 2353 2234 1838 2234 
L 1294 2234 
L 1294 2753 
L 1863 2753 
Q 2328 2753 2575 2939 
Q 2822 3125 2822 3475 
Q 2822 3834 2567 4026 
Q 2313 4219 1838 4219 
Q 1578 4219 1281 4162 
Q 984 4106 628 3988 
L 628 4550 
Q 988 4650 1302 4700 
Q 1616 4750 1894 4750 
Q 2613 4750 3031 4423 
Q 3450 4097 3450 3541 
Q 3450 3153 3228 2886 
Q 3006 2619 2597 2516 
z
" transform="scale(0.015625)"/>
     </defs>
     <use xlink:href="#DejaVuSans-49"/>
     <use xlink:href="#DejaVuSans-6d" x="29.492188"/>
     <use xlink:href="#DejaVuSans-70" x="126.904297"/>
     <use xlink:href="#DejaVuSans-61" x="190.380859"/>
     <use xlink:href="#DejaVuSans-63" x="251.660156"/>
     <use xlink:href="#DejaVuSans-74" x="306.640625"/>
     <use xlink:href="#DejaVuSans-66" x="345.849609"/>
     <use xlink:href="#DejaVuSans-75" x="381.054688"/>
     <use xlink:href="#DejaVuSans-6c" x="444.433594"/>
     <use xlink:href="#DejaVuSans-20" x="472.216797"/>
     <use xlink:href="#DejaVuSans-61" x="504.003906"/>
     <use xlink:href="#DejaVuSans-63" x="565.283203"/>
     <use xlink:href="#DejaVuSans-74" x="620.263672"/>
     <use xlink:href="#DejaVuSans-6f" x="659.472656"/>
     <use xlink:href="#DejaVuSans-72" x="720.654297"/>
     <use xlink:href="#DejaVuSans-73" x="761.767578"/>
     <use xlink:href="#DejaVuSans-20" x="813.867188"/>
     <use xlink:href="#DejaVuSans-66" x="845.654297"/>
     <use xlink:href="#DejaVuSans-6f" x="880.859375"/>
     <use xlink:href="#DejaVuSans-72" x="942.041016"/>
     <use xlink:href="#DejaVuSans-20" x="983.154297"/>
     <use xlink:href="#DejaVuSans-53" x="1014.941406"/>
     <use xlink:href="#DejaVuSans-69" x="1078.417969"/>
     <use xlink:href="#DejaVuSans-6c" x="1106.201172"/>
     <use xlink:href="#DejaVuSans-65" x="1133.984375"/>
     <use xlink:href="#DejaVuSans-6e" x="1195.507812"/>
     <use xlink:href="#DejaVuSans-74" x="1258.886719"/>
     <use xlink:href="#DejaVuSans-20" x="1298.095703"/>
     <use xlink:href="#DejaVuSans-66" x="1329.882812"/>
     <use xlink:href="#DejaVuSans-69" x="1365.087891"/>
     <use xlink:href="#DejaVuSans-6c" x="1392.871094"/>
     <use xlink:href="#DejaVuSans-6d" x="1420.654297"/>
     <use xlink:href="#DejaVuSans-20" x="1518.066406"/>
     <use xlink:href="#DejaVuSans-67" x="1549.853516"/>
     <use xlink:href="#DejaVuSans-65" x="1613.330078"/>
     <use xlink:href="#DejaVuSans-6e" x="1674.853516"/>
     <use xlink:href="#DejaVuSans-72" x="1738.232422"/>
     <use xlink:href="#DejaVuSans-65" x="1777.095703"/>
     <use xlink:href="#DejaVuSans-20" x="1838.619141"/>
     <use xlink:href="#DejaVuSans-2d" x="1870.40625"/>
     <use xlink:href="#DejaVuSans-20" x="1906.490234"/>
     <use xlink:href="#DejaVuSans-49" x="1938.277344"/>
     <use xlink:href="#DejaVuSans-6d" x="1967.769531"/>
     <use xlink:href="#DejaVuSans-70" x="2065.181641"/>
     <use xlink:href="#DejaVuSans-6f" x="2128.658203"/>
     <use xlink:href="#DejaVuSans-72" x="2189.839844"/>
     <use xlink:href="#DejaVuSans-74" x="2230.953125"/>
     <use xlink:href="#DejaVuSans-61" x="2270.162109"/>
     <use xlink:href="#DejaVuSans-6e" x="2331.441406"/>
     <use xlink:href="#DejaVuSans-63" x="2394.820312"/>
     <use xlink:href="#DejaVuSans-65" x="2449.800781"/>
     <use xlink:href="#DejaVuSans-20" x="2511.324219"/>
     <use xlink:href="#DejaVuSans-72" x="2543.111328"/>
     <use xlink:href="#DejaVuSans-61" x="2584.224609"/>
     <use xlink:href="#DejaVuSans-6e" x="2645.503906"/>
     <use xlink:href="#DejaVuSans-6b" x="2708.882812"/>
     <use xlink:href="#DejaVuSans-3a" x="2766.792969"/>
     <use xlink:href="#DejaVuSans-20" x="2800.484375"/>
     <use xlink:href="#DejaVuSans-33" x="2832.271484"/>
    </g>
   </g>
  </g>
 </g>
 <defs>
  <clipPath id="p71cc6bebd5">
   <rect x="7.2" y="22.318125" width="554.4" height="554.4"/>
  </clipPath>
 </defs>
</svg>
