<?xml version="1.0" encoding="utf-8" standalone="no"?>
<!DOCTYPE svg PUBLIC "-//W3C//DTD SVG 1.1//EN"
  "http://www.w3.org/Graphics/SVG/1.1/DTD/svg11.dtd">
<svg xmlns:xlink="http://www.w3.org/1999/xlink" width="568.8pt" height="583.918125pt" viewBox="0 0 568.8 583.918125" xmlns="http://www.w3.org/2000/svg" version="1.1">
 <metadata>
  <rdf:RDF xmlns:dc="http://purl.org/dc/elements/1.1/" xmlns:cc="http://creativecommons.org/ns#" xmlns:rdf="http://www.w3.org/1999/02/22-rdf-syntax-ns#">
   <cc:Work>
    <dc:type rdf:resource="http://purl.org/dc/dcmitype/StillImage"/>
    <dc:date>2022-12-23T20:56:46.556186</dc:date>
    <dc:format>image/svg+xml</dc:format>
    <dc:creator>
     <cc:Agent>
      <dc:title>Matplotlib v3.5.3, https://matplotlib.org/</dc:title>
     </cc:Agent>
    </dc:creator>
   </cc:Work>
  </rdf:RDF>
 </metadata>
 <defs>
  <style type="text/css">*{stroke-linejoin: round; stroke-linecap: butt}</style>
 </defs>
 <g id="figure_1">
  <g id="patch_1">
   <path d="M 0 583.918125 
L 568.8 583.918125 
L 568.8 0 
L 0 0 
z
" style="fill: #ffffff"/>
  </g>
  <g id="axes_1">
   <g id="PathCollection_1">
    <path d="M 497.630769 326.904253 
C 504.893655 326.904253 511.86005 324.018678 516.995686 318.883042 
C 522.131322 313.747406 525.016897 306.781011 525.016897 299.518125 
C 525.016897 292.255239 522.131322 285.288844 516.995686 280.153208 
C 511.86005 275.017572 504.893655 272.131997 497.630769 272.131997 
C 490.367883 272.131997 483.401488 275.017572 478.265852 280.153208 
C 473.130217 285.288844 470.244641 292.255239 470.244641 299.518125 
C 470.244641 306.781011 473.130217 313.747406 478.265852 318.883042 
C 483.401488 324.018678 490.367883 326.904253 497.630769 326.904253 
z
" clip-path="url(#p91551db4b0)" style="fill: #c70039; fill-opacity: 0.99; stroke: #c70039; stroke-opacity: 0.99"/>
    <path d="M 478.992348 234.710616 
C 484.932627 234.710616 490.630408 232.350518 494.83082 228.150106 
C 499.031232 223.949694 501.39133 218.251913 501.39133 212.311633 
C 501.39133 206.371354 499.031232 200.673573 494.83082 196.473161 
C 490.630408 192.272749 484.932627 189.912651 478.992348 189.912651 
C 473.052068 189.912651 467.354287 192.272749 463.153875 196.473161 
C 458.953463 200.673573 456.593365 206.371354 456.593365 212.311633 
C 456.593365 218.251913 458.953463 223.949694 463.153875 228.150106 
C 467.354287 232.350518 473.052068 234.710616 478.992348 234.710616 
z
" clip-path="url(#p91551db4b0)" style="fill: #c70039; fill-opacity: 0.99; stroke: #c70039; stroke-opacity: 0.99"/>
    <path d="M 426.29985 162.119243 
C 432.117164 162.119243 437.696999 159.808 441.810461 155.694538 
C 445.923923 151.581076 448.235166 146.001241 448.235166 140.183927 
C 448.235166 134.366613 445.923923 128.786778 441.810461 124.673316 
C 437.696999 120.559853 432.117164 118.24861 426.29985 118.24861 
C 420.482536 118.24861 414.902701 120.559853 410.789239 124.673316 
C 406.675777 128.786778 404.364533 134.366613 404.364533 140.183927 
C 404.364533 146.001241 406.675777 151.581076 410.789239 155.694538 
C 414.902701 159.808 420.482536 162.119243 426.29985 162.119243 
z
" clip-path="url(#p91551db4b0)" style="fill: #c70039; fill-opacity: 0.99; stroke: #c70039; stroke-opacity: 0.99"/>
    <path d="M 348.664291 117.14915 
C 354.377452 117.14915 359.857386 114.879287 363.897201 110.839472 
C 367.937016 106.799657 370.206879 101.319724 370.206879 95.606563 
C 370.206879 89.893402 367.937016 84.413468 363.897201 80.373653 
C 359.857386 76.333838 354.377452 74.063975 348.664291 74.063975 
C 342.95113 74.063975 337.471196 76.333838 333.431382 80.373653 
C 329.391567 84.413468 327.121704 89.893402 327.121704 95.606563 
C 327.121704 101.319724 329.391567 106.799657 333.431382 110.839472 
C 337.471196 114.879287 342.95113 117.14915 348.664291 117.14915 
z
" clip-path="url(#p91551db4b0)" style="fill: #c70039; fill-opacity: 0.99; stroke: #c70039; stroke-opacity: 0.99"/>
    <path d="M 259.509549 106.522589 
C 264.875995 106.522589 270.023369 104.390478 273.81802 100.595827 
C 277.61267 96.801176 279.744782 91.653802 279.744782 86.287356 
C 279.744782 80.920909 277.61267 75.773536 273.81802 71.978885 
C 270.023369 68.184234 264.875995 66.052122 259.509549 66.052122 
C 254.143102 66.052122 248.995729 68.184234 245.201078 71.978885 
C 241.406427 75.773536 239.274315 80.920909 239.274315 86.287356 
C 239.274315 91.653802 241.406427 96.801176 245.201078 100.595827 
C 248.995729 104.390478 254.143102 106.522589 259.509549 106.522589 
z
" clip-path="url(#p91551db4b0)" style="fill: #c70039; fill-opacity: 0.99; stroke: #c70039; stroke-opacity: 0.99"/>
    <path d="M 174.251298 133.976978 
C 179.592299 133.976978 184.715266 131.854976 188.491924 128.078318 
C 192.268582 124.30166 194.390584 119.178693 194.390584 113.837692 
C 194.390584 108.496691 192.268582 103.373725 188.491924 99.597066 
C 184.715266 95.820408 179.592299 93.698406 174.251298 93.698406 
C 168.910297 93.698406 163.78733 95.820408 160.010672 99.597066 
C 156.234014 103.373725 154.112012 108.496691 154.112012 113.837692 
C 154.112012 119.178693 156.234014 124.30166 160.010672 128.078318 
C 163.78733 131.854976 168.910297 133.976978 174.251298 133.976978 
z
" clip-path="url(#p91551db4b0)" style="fill: #c70039; fill-opacity: 0.99; stroke: #c70039; stroke-opacity: 0.99"/>
    <path d="M 107.631477 193.46363 
C 112.927524 193.46363 118.007371 191.359488 121.752241 187.614618 
C 125.497111 183.869747 127.601253 178.7899 127.601253 173.493854 
C 127.601253 168.197807 125.497111 163.11796 121.752241 159.37309 
C 118.007371 155.628219 112.927524 153.524078 107.631477 153.524078 
C 102.33543 153.524078 97.255583 155.628219 93.510713 159.37309 
C 89.765843 163.11796 87.661701 168.197807 87.661701 173.493854 
C 87.661701 178.7899 89.765843 183.869747 93.510713 187.614618 
C 97.255583 191.359488 102.33543 193.46363 107.631477 193.46363 
z
" clip-path="url(#p91551db4b0)" style="fill: #c70039; fill-opacity: 0.99; stroke: #c70039; stroke-opacity: 0.99"/>
    <path d="M 71.169231 274.79042 
C 76.433418 274.79042 81.482707 272.698936 85.20505 268.976593 
C 88.927393 265.25425 91.018877 260.204961 91.018877 254.940774 
C 91.018877 249.676586 88.927393 244.627297 85.20505 240.904955 
C 81.482707 237.182612 76.433418 235.091128 71.169231 235.091128 
C 65.905043 235.091128 60.855754 237.182612 57.133412 240.904955 
C 53.411069 244.627297 51.319585 249.676586 51.319585 254.940774 
C 51.319585 260.204961 53.411069 265.25425 57.133412 268.976593 
C 60.855754 272.698936 65.905043 274.79042 71.169231 274.79042 
z
" clip-path="url(#p91551db4b0)" style="fill: #c70039; fill-opacity: 0.99; stroke: #c70039; stroke-opacity: 0.99"/>
    <path d="M 71.169244 363.818057 
C 76.399723 363.818057 81.41668 361.739965 85.115187 358.041458 
C 88.813694 354.34295 90.891786 349.325994 90.891786 344.095514 
C 90.891786 338.865035 88.813694 333.848079 85.115187 330.149571 
C 81.41668 326.451064 76.399723 324.372972 71.169244 324.372972 
C 65.938764 324.372972 60.921808 326.451064 57.2233 330.149571 
C 53.524793 333.848079 51.446701 338.865035 51.446701 344.095514 
C 51.446701 349.325994 53.524793 354.34295 57.2233 358.041458 
C 60.921808 361.739965 65.938764 363.818057 71.169244 363.818057 
z
" clip-path="url(#p91551db4b0)" style="fill: #c70039; fill-opacity: 0.99; stroke: #c70039; stroke-opacity: 0.99"/>
    <path d="M 107.63149 445.101379 
C 112.818589 445.101379 117.793937 443.040523 121.46177 439.372689 
C 125.129604 435.704856 127.19046 430.729509 127.19046 425.542409 
C 127.19046 420.35531 125.129604 415.379962 121.46177 411.712129 
C 117.793937 408.044295 112.818589 405.983439 107.63149 405.983439 
C 102.44439 405.983439 97.469043 408.044295 93.801209 411.712129 
C 90.133376 415.379962 88.07252 420.35531 88.07252 425.542409 
C 88.07252 430.729509 90.133376 435.704856 93.801209 439.372689 
C 97.469043 443.040523 102.44439 445.101379 107.63149 445.101379 
z
" clip-path="url(#p91551db4b0)" style="fill: #c70039; fill-opacity: 0.99; stroke: #c70039; stroke-opacity: 0.99"/>
    <path d="M 174.25133 504.670331 
C 179.415301 504.670331 184.368465 502.618663 188.019944 498.967184 
C 191.671423 495.315705 193.723091 490.362542 193.723091 485.198571 
C 193.723091 480.034599 191.671423 475.081436 188.019944 471.429957 
C 184.368465 467.778478 179.415301 465.72681 174.25133 465.72681 
C 169.087359 465.72681 164.134195 467.778478 160.482716 471.429957 
C 156.831237 475.081436 154.77957 480.034599 154.77957 485.198571 
C 154.77957 490.362542 156.831237 495.315705 160.482716 498.967184 
C 164.134195 502.618663 169.087359 504.670331 174.25133 504.670331 
z
" clip-path="url(#p91551db4b0)" style="fill: #c70039; fill-opacity: 0.99; stroke: #c70039; stroke-opacity: 0.99"/>
    <path d="M 259.509587 532.176617 
C 264.661879 532.176617 269.603841 530.129589 273.247062 526.486369 
C 276.890282 522.843148 278.93731 517.901187 278.93731 512.748894 
C 278.93731 507.596602 276.890282 502.654641 273.247062 499.01142 
C 269.603841 495.368199 264.661879 493.321172 259.509587 493.321172 
C 254.357295 493.321172 249.415334 495.368199 245.772113 499.01142 
C 242.128892 502.654641 240.081865 507.596602 240.081865 512.748894 
C 240.081865 517.901187 242.128892 522.843148 245.772113 526.486369 
C 249.415334 530.129589 254.357295 532.176617 259.509587 532.176617 
z
" clip-path="url(#p91551db4b0)" style="fill: #c70039; fill-opacity: 0.99; stroke: #c70039; stroke-opacity: 0.99"/>
    <path d="M 348.664323 522.832713 
C 353.810069 522.832713 358.745752 520.788287 362.384344 517.149695 
C 366.022936 513.511103 368.067362 508.575421 368.067362 503.429675 
C 368.067362 498.283928 366.022936 493.348246 362.384344 489.709654 
C 358.745752 486.071062 353.810069 484.026636 348.664323 484.026636 
C 343.518577 484.026636 338.582895 486.071062 334.944303 489.709654 
C 331.305711 493.348246 329.261285 498.283928 329.261285 503.429675 
C 329.261285 508.575421 331.305711 513.511103 334.944303 517.149695 
C 338.582895 520.788287 343.518577 522.832713 348.664323 522.832713 
z
" clip-path="url(#p91551db4b0)" style="fill: #c70039; fill-opacity: 0.99; stroke: #c70039; stroke-opacity: 0.99"/>
    <path d="M 426.299888 478.25454 
C 431.445427 478.25454 436.38091 476.210196 440.019354 472.571751 
C 443.657799 468.933306 445.702143 463.997823 445.702143 458.852285 
C 445.702143 453.706747 443.657799 448.771264 440.019354 445.132819 
C 436.38091 441.494374 431.445427 439.45003 426.299888 439.45003 
C 421.15435 439.45003 416.218867 441.494374 412.580422 445.132819 
C 408.941977 448.771264 406.897633 453.706747 406.897633 458.852285 
C 406.897633 463.997823 408.941977 468.933306 412.580422 472.571751 
C 416.218867 476.210196 421.15435 478.25454 426.299888 478.25454 
z
" clip-path="url(#p91551db4b0)" style="fill: #c70039; fill-opacity: 0.99; stroke: #c70039; stroke-opacity: 0.99"/>
    <path d="M 478.992374 406.089501 
C 484.128009 406.089501 489.053994 404.049092 492.685437 400.417649 
C 496.31688 396.786206 498.35729 391.860221 498.35729 386.724585 
C 498.35729 381.588949 496.31688 376.662964 492.685437 373.031521 
C 489.053994 369.400078 484.128009 367.359668 478.992374 367.359668 
C 473.856738 367.359668 468.930753 369.400078 465.29931 373.031521 
C 461.667867 376.662964 459.627457 381.588949 459.627457 386.724585 
C 459.627457 391.860221 461.667867 396.786206 465.29931 400.417649 
C 468.930753 404.049092 473.856738 406.089501 478.992374 406.089501 
z
" clip-path="url(#p91551db4b0)" style="fill: #c70039; fill-opacity: 0.99; stroke: #c70039; stroke-opacity: 0.99"/>
   </g>
   <g id="text_1">
    <g id="patch_2">
     <path d="M 460.258269 307.833281 
L 535.003269 307.833281 
L 535.003269 291.202969 
L 460.258269 291.202969 
z
" clip-path="url(#p91551db4b0)" style="fill: #ffffff; opacity: 0.7; stroke: #000000; stroke-linejoin: miter"/>
    </g>
    <g clip-path="url(#p91551db4b0)">
     <!-- Steve Buscemi -->
     <g transform="translate(464.218269 302.001562)scale(0.09 -0.09)">
      <defs>
       <path id="DejaVuSans-53" d="M 3425 4513 
L 3425 3897 
Q 3066 4069 2747 4153 
Q 2428 4238 2131 4238 
Q 1616 4238 1336 4038 
Q 1056 3838 1056 3469 
Q 1056 3159 1242 3001 
Q 1428 2844 1947 2747 
L 2328 2669 
Q 3034 2534 3370 2195 
Q 3706 1856 3706 1288 
Q 3706 609 3251 259 
Q 2797 -91 1919 -91 
Q 1588 -91 1214 -16 
Q 841 59 441 206 
L 441 856 
Q 825 641 1194 531 
Q 1563 422 1919 422 
Q 2459 422 2753 634 
Q 3047 847 3047 1241 
Q 3047 1584 2836 1778 
Q 2625 1972 2144 2069 
L 1759 2144 
Q 1053 2284 737 2584 
Q 422 2884 422 3419 
Q 422 4038 858 4394 
Q 1294 4750 2059 4750 
Q 2388 4750 2728 4690 
Q 3069 4631 3425 4513 
z
" transform="scale(0.015625)"/>
       <path id="DejaVuSans-74" d="M 1172 4494 
L 1172 3500 
L 2356 3500 
L 2356 3053 
L 1172 3053 
L 1172 1153 
Q 1172 725 1289 603 
Q 1406 481 1766 481 
L 2356 481 
L 2356 0 
L 1766 0 
Q 1100 0 847 248 
Q 594 497 594 1153 
L 594 3053 
L 172 3053 
L 172 3500 
L 594 3500 
L 594 4494 
L 1172 4494 
z
" transform="scale(0.015625)"/>
       <path id="DejaVuSans-65" d="M 3597 1894 
L 3597 1613 
L 953 1613 
Q 991 1019 1311 708 
Q 1631 397 2203 397 
Q 2534 397 2845 478 
Q 3156 559 3463 722 
L 3463 178 
Q 3153 47 2828 -22 
Q 2503 -91 2169 -91 
Q 1331 -91 842 396 
Q 353 884 353 1716 
Q 353 2575 817 3079 
Q 1281 3584 2069 3584 
Q 2775 3584 3186 3129 
Q 3597 2675 3597 1894 
z
M 3022 2063 
Q 3016 2534 2758 2815 
Q 2500 3097 2075 3097 
Q 1594 3097 1305 2825 
Q 1016 2553 972 2059 
L 3022 2063 
z
" transform="scale(0.015625)"/>
       <path id="DejaVuSans-76" d="M 191 3500 
L 800 3500 
L 1894 563 
L 2988 3500 
L 3597 3500 
L 2284 0 
L 1503 0 
L 191 3500 
z
" transform="scale(0.015625)"/>
       <path id="DejaVuSans-20" transform="scale(0.015625)"/>
       <path id="DejaVuSans-42" d="M 1259 2228 
L 1259 519 
L 2272 519 
Q 2781 519 3026 730 
Q 3272 941 3272 1375 
Q 3272 1813 3026 2020 
Q 2781 2228 2272 2228 
L 1259 2228 
z
M 1259 4147 
L 1259 2741 
L 2194 2741 
Q 2656 2741 2882 2914 
Q 3109 3088 3109 3444 
Q 3109 3797 2882 3972 
Q 2656 4147 2194 4147 
L 1259 4147 
z
M 628 4666 
L 2241 4666 
Q 2963 4666 3353 4366 
Q 3744 4066 3744 3513 
Q 3744 3084 3544 2831 
Q 3344 2578 2956 2516 
Q 3422 2416 3680 2098 
Q 3938 1781 3938 1306 
Q 3938 681 3513 340 
Q 3088 0 2303 0 
L 628 0 
L 628 4666 
z
" transform="scale(0.015625)"/>
       <path id="DejaVuSans-75" d="M 544 1381 
L 544 3500 
L 1119 3500 
L 1119 1403 
Q 1119 906 1312 657 
Q 1506 409 1894 409 
Q 2359 409 2629 706 
Q 2900 1003 2900 1516 
L 2900 3500 
L 3475 3500 
L 3475 0 
L 2900 0 
L 2900 538 
Q 2691 219 2414 64 
Q 2138 -91 1772 -91 
Q 1169 -91 856 284 
Q 544 659 544 1381 
z
M 1991 3584 
L 1991 3584 
z
" transform="scale(0.015625)"/>
       <path id="DejaVuSans-73" d="M 2834 3397 
L 2834 2853 
Q 2591 2978 2328 3040 
Q 2066 3103 1784 3103 
Q 1356 3103 1142 2972 
Q 928 2841 928 2578 
Q 928 2378 1081 2264 
Q 1234 2150 1697 2047 
L 1894 2003 
Q 2506 1872 2764 1633 
Q 3022 1394 3022 966 
Q 3022 478 2636 193 
Q 2250 -91 1575 -91 
Q 1294 -91 989 -36 
Q 684 19 347 128 
L 347 722 
Q 666 556 975 473 
Q 1284 391 1588 391 
Q 1994 391 2212 530 
Q 2431 669 2431 922 
Q 2431 1156 2273 1281 
Q 2116 1406 1581 1522 
L 1381 1569 
Q 847 1681 609 1914 
Q 372 2147 372 2553 
Q 372 3047 722 3315 
Q 1072 3584 1716 3584 
Q 2034 3584 2315 3537 
Q 2597 3491 2834 3397 
z
" transform="scale(0.015625)"/>
       <path id="DejaVuSans-63" d="M 3122 3366 
L 3122 2828 
Q 2878 2963 2633 3030 
Q 2388 3097 2138 3097 
Q 1578 3097 1268 2742 
Q 959 2388 959 1747 
Q 959 1106 1268 751 
Q 1578 397 2138 397 
Q 2388 397 2633 464 
Q 2878 531 3122 666 
L 3122 134 
Q 2881 22 2623 -34 
Q 2366 -91 2075 -91 
Q 1284 -91 818 406 
Q 353 903 353 1747 
Q 353 2603 823 3093 
Q 1294 3584 2113 3584 
Q 2378 3584 2631 3529 
Q 2884 3475 3122 3366 
z
" transform="scale(0.015625)"/>
       <path id="DejaVuSans-6d" d="M 3328 2828 
Q 3544 3216 3844 3400 
Q 4144 3584 4550 3584 
Q 5097 3584 5394 3201 
Q 5691 2819 5691 2113 
L 5691 0 
L 5113 0 
L 5113 2094 
Q 5113 2597 4934 2840 
Q 4756 3084 4391 3084 
Q 3944 3084 3684 2787 
Q 3425 2491 3425 1978 
L 3425 0 
L 2847 0 
L 2847 2094 
Q 2847 2600 2669 2842 
Q 2491 3084 2119 3084 
Q 1678 3084 1418 2786 
Q 1159 2488 1159 1978 
L 1159 0 
L 581 0 
L 581 3500 
L 1159 3500 
L 1159 2956 
Q 1356 3278 1631 3431 
Q 1906 3584 2284 3584 
Q 2666 3584 2933 3390 
Q 3200 3197 3328 2828 
z
" transform="scale(0.015625)"/>
       <path id="DejaVuSans-69" d="M 603 3500 
L 1178 3500 
L 1178 0 
L 603 0 
L 603 3500 
z
M 603 4863 
L 1178 4863 
L 1178 4134 
L 603 4134 
L 603 4863 
z
" transform="scale(0.015625)"/>
      </defs>
      <use xlink:href="#DejaVuSans-53"/>
      <use xlink:href="#DejaVuSans-74" x="63.476562"/>
      <use xlink:href="#DejaVuSans-65" x="102.685547"/>
      <use xlink:href="#DejaVuSans-76" x="164.208984"/>
      <use xlink:href="#DejaVuSans-65" x="223.388672"/>
      <use xlink:href="#DejaVuSans-20" x="284.912109"/>
      <use xlink:href="#DejaVuSans-42" x="316.699219"/>
      <use xlink:href="#DejaVuSans-75" x="385.302734"/>
      <use xlink:href="#DejaVuSans-73" x="448.681641"/>
      <use xlink:href="#DejaVuSans-63" x="500.78125"/>
      <use xlink:href="#DejaVuSans-65" x="555.761719"/>
      <use xlink:href="#DejaVuSans-6d" x="617.285156"/>
      <use xlink:href="#DejaVuSans-69" x="714.697266"/>
     </g>
    </g>
   </g>
   <g id="text_2">
    <g id="patch_3">
     <path d="M 444.069535 220.62679 
L 513.91516 220.62679 
L 513.91516 203.996477 
L 444.069535 203.996477 
z
" clip-path="url(#p91551db4b0)" style="fill: #ffffff; opacity: 0.7; stroke: #000000; stroke-linejoin: miter"/>
    </g>
    <g clip-path="url(#p91551db4b0)">
     <!-- Eddie Murphy -->
     <g transform="translate(448.029535 214.795071)scale(0.09 -0.09)">
      <defs>
       <path id="DejaVuSans-45" d="M 628 4666 
L 3578 4666 
L 3578 4134 
L 1259 4134 
L 1259 2753 
L 3481 2753 
L 3481 2222 
L 1259 2222 
L 1259 531 
L 3634 531 
L 3634 0 
L 628 0 
L 628 4666 
z
" transform="scale(0.015625)"/>
       <path id="DejaVuSans-64" d="M 2906 2969 
L 2906 4863 
L 3481 4863 
L 3481 0 
L 2906 0 
L 2906 525 
Q 2725 213 2448 61 
Q 2172 -91 1784 -91 
Q 1150 -91 751 415 
Q 353 922 353 1747 
Q 353 2572 751 3078 
Q 1150 3584 1784 3584 
Q 2172 3584 2448 3432 
Q 2725 3281 2906 2969 
z
M 947 1747 
Q 947 1113 1208 752 
Q 1469 391 1925 391 
Q 2381 391 2643 752 
Q 2906 1113 2906 1747 
Q 2906 2381 2643 2742 
Q 2381 3103 1925 3103 
Q 1469 3103 1208 2742 
Q 947 2381 947 1747 
z
" transform="scale(0.015625)"/>
       <path id="DejaVuSans-4d" d="M 628 4666 
L 1569 4666 
L 2759 1491 
L 3956 4666 
L 4897 4666 
L 4897 0 
L 4281 0 
L 4281 4097 
L 3078 897 
L 2444 897 
L 1241 4097 
L 1241 0 
L 628 0 
L 628 4666 
z
" transform="scale(0.015625)"/>
       <path id="DejaVuSans-72" d="M 2631 2963 
Q 2534 3019 2420 3045 
Q 2306 3072 2169 3072 
Q 1681 3072 1420 2755 
Q 1159 2438 1159 1844 
L 1159 0 
L 581 0 
L 581 3500 
L 1159 3500 
L 1159 2956 
Q 1341 3275 1631 3429 
Q 1922 3584 2338 3584 
Q 2397 3584 2469 3576 
Q 2541 3569 2628 3553 
L 2631 2963 
z
" transform="scale(0.015625)"/>
       <path id="DejaVuSans-70" d="M 1159 525 
L 1159 -1331 
L 581 -1331 
L 581 3500 
L 1159 3500 
L 1159 2969 
Q 1341 3281 1617 3432 
Q 1894 3584 2278 3584 
Q 2916 3584 3314 3078 
Q 3713 2572 3713 1747 
Q 3713 922 3314 415 
Q 2916 -91 2278 -91 
Q 1894 -91 1617 61 
Q 1341 213 1159 525 
z
M 3116 1747 
Q 3116 2381 2855 2742 
Q 2594 3103 2138 3103 
Q 1681 3103 1420 2742 
Q 1159 2381 1159 1747 
Q 1159 1113 1420 752 
Q 1681 391 2138 391 
Q 2594 391 2855 752 
Q 3116 1113 3116 1747 
z
" transform="scale(0.015625)"/>
       <path id="DejaVuSans-68" d="M 3513 2113 
L 3513 0 
L 2938 0 
L 2938 2094 
Q 2938 2591 2744 2837 
Q 2550 3084 2163 3084 
Q 1697 3084 1428 2787 
Q 1159 2491 1159 1978 
L 1159 0 
L 581 0 
L 581 4863 
L 1159 4863 
L 1159 2956 
Q 1366 3272 1645 3428 
Q 1925 3584 2291 3584 
Q 2894 3584 3203 3211 
Q 3513 2838 3513 2113 
z
" transform="scale(0.015625)"/>
       <path id="DejaVuSans-79" d="M 2059 -325 
Q 1816 -950 1584 -1140 
Q 1353 -1331 966 -1331 
L 506 -1331 
L 506 -850 
L 844 -850 
Q 1081 -850 1212 -737 
Q 1344 -625 1503 -206 
L 1606 56 
L 191 3500 
L 800 3500 
L 1894 763 
L 2988 3500 
L 3597 3500 
L 2059 -325 
z
" transform="scale(0.015625)"/>
      </defs>
      <use xlink:href="#DejaVuSans-45"/>
      <use xlink:href="#DejaVuSans-64" x="63.183594"/>
      <use xlink:href="#DejaVuSans-64" x="126.660156"/>
      <use xlink:href="#DejaVuSans-69" x="190.136719"/>
      <use xlink:href="#DejaVuSans-65" x="217.919922"/>
      <use xlink:href="#DejaVuSans-20" x="279.443359"/>
      <use xlink:href="#DejaVuSans-4d" x="311.230469"/>
      <use xlink:href="#DejaVuSans-75" x="397.509766"/>
      <use xlink:href="#DejaVuSans-72" x="460.888672"/>
      <use xlink:href="#DejaVuSans-70" x="502.001953"/>
      <use xlink:href="#DejaVuSans-68" x="565.478516"/>
      <use xlink:href="#DejaVuSans-79" x="628.857422"/>
     </g>
    </g>
   </g>
   <g id="text_3">
    <g id="patch_4">
     <path d="M 393.243834 148.499083 
L 459.355865 148.499083 
L 459.355865 131.86877 
L 393.243834 131.86877 
z
" clip-path="url(#p91551db4b0)" style="fill: #ffffff; opacity: 0.7; stroke: #000000; stroke-linejoin: miter"/>
    </g>
    <g clip-path="url(#p91551db4b0)">
     <!-- John Travolta -->
     <g transform="translate(397.203834 142.667364)scale(0.09 -0.09)">
      <defs>
       <path id="DejaVuSans-4a" d="M 628 4666 
L 1259 4666 
L 1259 325 
Q 1259 -519 939 -900 
Q 619 -1281 -91 -1281 
L -331 -1281 
L -331 -750 
L -134 -750 
Q 284 -750 456 -515 
Q 628 -281 628 325 
L 628 4666 
z
" transform="scale(0.015625)"/>
       <path id="DejaVuSans-6f" d="M 1959 3097 
Q 1497 3097 1228 2736 
Q 959 2375 959 1747 
Q 959 1119 1226 758 
Q 1494 397 1959 397 
Q 2419 397 2687 759 
Q 2956 1122 2956 1747 
Q 2956 2369 2687 2733 
Q 2419 3097 1959 3097 
z
M 1959 3584 
Q 2709 3584 3137 3096 
Q 3566 2609 3566 1747 
Q 3566 888 3137 398 
Q 2709 -91 1959 -91 
Q 1206 -91 779 398 
Q 353 888 353 1747 
Q 353 2609 779 3096 
Q 1206 3584 1959 3584 
z
" transform="scale(0.015625)"/>
       <path id="DejaVuSans-6e" d="M 3513 2113 
L 3513 0 
L 2938 0 
L 2938 2094 
Q 2938 2591 2744 2837 
Q 2550 3084 2163 3084 
Q 1697 3084 1428 2787 
Q 1159 2491 1159 1978 
L 1159 0 
L 581 0 
L 581 3500 
L 1159 3500 
L 1159 2956 
Q 1366 3272 1645 3428 
Q 1925 3584 2291 3584 
Q 2894 3584 3203 3211 
Q 3513 2838 3513 2113 
z
" transform="scale(0.015625)"/>
       <path id="DejaVuSans-54" d="M -19 4666 
L 3928 4666 
L 3928 4134 
L 2272 4134 
L 2272 0 
L 1638 0 
L 1638 4134 
L -19 4134 
L -19 4666 
z
" transform="scale(0.015625)"/>
       <path id="DejaVuSans-61" d="M 2194 1759 
Q 1497 1759 1228 1600 
Q 959 1441 959 1056 
Q 959 750 1161 570 
Q 1363 391 1709 391 
Q 2188 391 2477 730 
Q 2766 1069 2766 1631 
L 2766 1759 
L 2194 1759 
z
M 3341 1997 
L 3341 0 
L 2766 0 
L 2766 531 
Q 2569 213 2275 61 
Q 1981 -91 1556 -91 
Q 1019 -91 701 211 
Q 384 513 384 1019 
Q 384 1609 779 1909 
Q 1175 2209 1959 2209 
L 2766 2209 
L 2766 2266 
Q 2766 2663 2505 2880 
Q 2244 3097 1772 3097 
Q 1472 3097 1187 3025 
Q 903 2953 641 2809 
L 641 3341 
Q 956 3463 1253 3523 
Q 1550 3584 1831 3584 
Q 2591 3584 2966 3190 
Q 3341 2797 3341 1997 
z
" transform="scale(0.015625)"/>
       <path id="DejaVuSans-6c" d="M 603 4863 
L 1178 4863 
L 1178 0 
L 603 0 
L 603 4863 
z
" transform="scale(0.015625)"/>
      </defs>
      <use xlink:href="#DejaVuSans-4a"/>
      <use xlink:href="#DejaVuSans-6f" x="29.492188"/>
      <use xlink:href="#DejaVuSans-68" x="90.673828"/>
      <use xlink:href="#DejaVuSans-6e" x="154.052734"/>
      <use xlink:href="#DejaVuSans-20" x="217.431641"/>
      <use xlink:href="#DejaVuSans-54" x="249.21875"/>
      <use xlink:href="#DejaVuSans-72" x="295.552734"/>
      <use xlink:href="#DejaVuSans-61" x="336.666016"/>
      <use xlink:href="#DejaVuSans-76" x="397.945312"/>
      <use xlink:href="#DejaVuSans-6f" x="457.125"/>
      <use xlink:href="#DejaVuSans-6c" x="518.306641"/>
      <use xlink:href="#DejaVuSans-74" x="546.089844"/>
      <use xlink:href="#DejaVuSans-61" x="585.298828"/>
     </g>
    </g>
   </g>
   <g id="text_4">
    <g id="patch_5">
     <path d="M 322.95101 103.921719 
L 374.377572 103.921719 
L 374.377572 87.291406 
L 322.95101 87.291406 
z
" clip-path="url(#p91551db4b0)" style="fill: #ffffff; opacity: 0.7; stroke: #000000; stroke-linejoin: miter"/>
    </g>
    <g clip-path="url(#p91551db4b0)">
     <!-- Mel Blanc -->
     <g transform="translate(326.91101 98.09)scale(0.09 -0.09)">
      <use xlink:href="#DejaVuSans-4d"/>
      <use xlink:href="#DejaVuSans-65" x="86.279297"/>
      <use xlink:href="#DejaVuSans-6c" x="147.802734"/>
      <use xlink:href="#DejaVuSans-20" x="175.585938"/>
      <use xlink:href="#DejaVuSans-42" x="207.373047"/>
      <use xlink:href="#DejaVuSans-6c" x="275.976562"/>
      <use xlink:href="#DejaVuSans-61" x="303.759766"/>
      <use xlink:href="#DejaVuSans-6e" x="365.039062"/>
      <use xlink:href="#DejaVuSans-63" x="428.417969"/>
     </g>
    </g>
   </g>
   <g id="text_5">
    <g id="patch_6">
     <path d="M 219.972127 94.602512 
L 299.04697 94.602512 
L 299.04697 77.9722 
L 219.972127 77.9722 
z
" clip-path="url(#p91551db4b0)" style="fill: #ffffff; opacity: 0.7; stroke: #000000; stroke-linejoin: miter"/>
    </g>
    <g clip-path="url(#p91551db4b0)">
     <!-- Jennifer Aniston -->
     <g transform="translate(223.932127 88.770793)scale(0.09 -0.09)">
      <defs>
       <path id="DejaVuSans-66" d="M 2375 4863 
L 2375 4384 
L 1825 4384 
Q 1516 4384 1395 4259 
Q 1275 4134 1275 3809 
L 1275 3500 
L 2222 3500 
L 2222 3053 
L 1275 3053 
L 1275 0 
L 697 0 
L 697 3053 
L 147 3053 
L 147 3500 
L 697 3500 
L 697 3744 
Q 697 4328 969 4595 
Q 1241 4863 1831 4863 
L 2375 4863 
z
" transform="scale(0.015625)"/>
       <path id="DejaVuSans-41" d="M 2188 4044 
L 1331 1722 
L 3047 1722 
L 2188 4044 
z
M 1831 4666 
L 2547 4666 
L 4325 0 
L 3669 0 
L 3244 1197 
L 1141 1197 
L 716 0 
L 50 0 
L 1831 4666 
z
" transform="scale(0.015625)"/>
      </defs>
      <use xlink:href="#DejaVuSans-4a"/>
      <use xlink:href="#DejaVuSans-65" x="29.492188"/>
      <use xlink:href="#DejaVuSans-6e" x="91.015625"/>
      <use xlink:href="#DejaVuSans-6e" x="154.394531"/>
      <use xlink:href="#DejaVuSans-69" x="217.773438"/>
      <use xlink:href="#DejaVuSans-66" x="245.556641"/>
      <use xlink:href="#DejaVuSans-65" x="280.761719"/>
      <use xlink:href="#DejaVuSans-72" x="342.285156"/>
      <use xlink:href="#DejaVuSans-20" x="383.398438"/>
      <use xlink:href="#DejaVuSans-41" x="415.185547"/>
      <use xlink:href="#DejaVuSans-6e" x="483.59375"/>
      <use xlink:href="#DejaVuSans-69" x="546.972656"/>
      <use xlink:href="#DejaVuSans-73" x="574.755859"/>
      <use xlink:href="#DejaVuSans-74" x="626.855469"/>
      <use xlink:href="#DejaVuSans-6f" x="666.064453"/>
      <use xlink:href="#DejaVuSans-6e" x="727.246094"/>
     </g>
    </g>
   </g>
   <g id="text_6">
    <g id="patch_7">
     <path d="M 133.662704 122.152849 
L 214.839892 122.152849 
L 214.839892 105.522536 
L 133.662704 105.522536 
z
" clip-path="url(#p91551db4b0)" style="fill: #ffffff; opacity: 0.7; stroke: #000000; stroke-linejoin: miter"/>
    </g>
    <g clip-path="url(#p91551db4b0)">
     <!-- Susan Sarandon -->
     <g transform="translate(137.622704 116.32113)scale(0.09 -0.09)">
      <use xlink:href="#DejaVuSans-53"/>
      <use xlink:href="#DejaVuSans-75" x="63.476562"/>
      <use xlink:href="#DejaVuSans-73" x="126.855469"/>
      <use xlink:href="#DejaVuSans-61" x="178.955078"/>
      <use xlink:href="#DejaVuSans-6e" x="240.234375"/>
      <use xlink:href="#DejaVuSans-20" x="303.613281"/>
      <use xlink:href="#DejaVuSans-53" x="335.400391"/>
      <use xlink:href="#DejaVuSans-61" x="398.876953"/>
      <use xlink:href="#DejaVuSans-72" x="460.15625"/>
      <use xlink:href="#DejaVuSans-61" x="501.269531"/>
      <use xlink:href="#DejaVuSans-6e" x="562.548828"/>
      <use xlink:href="#DejaVuSans-64" x="625.927734"/>
      <use xlink:href="#DejaVuSans-6f" x="689.404297"/>
      <use xlink:href="#DejaVuSans-6e" x="750.585938"/>
     </g>
    </g>
   </g>
   <g id="text_7">
    <g id="patch_8">
     <path d="M 70.54093 181.80901 
L 144.722024 181.80901 
L 144.722024 165.178697 
L 70.54093 165.178697 
z
" clip-path="url(#p91551db4b0)" style="fill: #ffffff; opacity: 0.7; stroke: #000000; stroke-linejoin: miter"/>
    </g>
    <g clip-path="url(#p91551db4b0)">
     <!-- Robert De Niro -->
     <g transform="translate(74.50093 175.977291)scale(0.09 -0.09)">
      <defs>
       <path id="DejaVuSans-52" d="M 2841 2188 
Q 3044 2119 3236 1894 
Q 3428 1669 3622 1275 
L 4263 0 
L 3584 0 
L 2988 1197 
Q 2756 1666 2539 1819 
Q 2322 1972 1947 1972 
L 1259 1972 
L 1259 0 
L 628 0 
L 628 4666 
L 2053 4666 
Q 2853 4666 3247 4331 
Q 3641 3997 3641 3322 
Q 3641 2881 3436 2590 
Q 3231 2300 2841 2188 
z
M 1259 4147 
L 1259 2491 
L 2053 2491 
Q 2509 2491 2742 2702 
Q 2975 2913 2975 3322 
Q 2975 3731 2742 3939 
Q 2509 4147 2053 4147 
L 1259 4147 
z
" transform="scale(0.015625)"/>
       <path id="DejaVuSans-62" d="M 3116 1747 
Q 3116 2381 2855 2742 
Q 2594 3103 2138 3103 
Q 1681 3103 1420 2742 
Q 1159 2381 1159 1747 
Q 1159 1113 1420 752 
Q 1681 391 2138 391 
Q 2594 391 2855 752 
Q 3116 1113 3116 1747 
z
M 1159 2969 
Q 1341 3281 1617 3432 
Q 1894 3584 2278 3584 
Q 2916 3584 3314 3078 
Q 3713 2572 3713 1747 
Q 3713 922 3314 415 
Q 2916 -91 2278 -91 
Q 1894 -91 1617 61 
Q 1341 213 1159 525 
L 1159 0 
L 581 0 
L 581 4863 
L 1159 4863 
L 1159 2969 
z
" transform="scale(0.015625)"/>
       <path id="DejaVuSans-44" d="M 1259 4147 
L 1259 519 
L 2022 519 
Q 2988 519 3436 956 
Q 3884 1394 3884 2338 
Q 3884 3275 3436 3711 
Q 2988 4147 2022 4147 
L 1259 4147 
z
M 628 4666 
L 1925 4666 
Q 3281 4666 3915 4102 
Q 4550 3538 4550 2338 
Q 4550 1131 3912 565 
Q 3275 0 1925 0 
L 628 0 
L 628 4666 
z
" transform="scale(0.015625)"/>
       <path id="DejaVuSans-4e" d="M 628 4666 
L 1478 4666 
L 3547 763 
L 3547 4666 
L 4159 4666 
L 4159 0 
L 3309 0 
L 1241 3903 
L 1241 0 
L 628 0 
L 628 4666 
z
" transform="scale(0.015625)"/>
      </defs>
      <use xlink:href="#DejaVuSans-52"/>
      <use xlink:href="#DejaVuSans-6f" x="64.982422"/>
      <use xlink:href="#DejaVuSans-62" x="126.164062"/>
      <use xlink:href="#DejaVuSans-65" x="189.640625"/>
      <use xlink:href="#DejaVuSans-72" x="251.164062"/>
      <use xlink:href="#DejaVuSans-74" x="292.277344"/>
      <use xlink:href="#DejaVuSans-20" x="331.486328"/>
      <use xlink:href="#DejaVuSans-44" x="363.273438"/>
      <use xlink:href="#DejaVuSans-65" x="440.275391"/>
      <use xlink:href="#DejaVuSans-20" x="501.798828"/>
      <use xlink:href="#DejaVuSans-4e" x="533.585938"/>
      <use xlink:href="#DejaVuSans-69" x="608.390625"/>
      <use xlink:href="#DejaVuSans-72" x="636.173828"/>
      <use xlink:href="#DejaVuSans-6f" x="675.037109"/>
     </g>
    </g>
   </g>
   <g id="text_8">
    <g id="patch_9">
     <path d="M 37.74759 263.25593 
L 104.590871 263.25593 
L 104.590871 246.625618 
L 37.74759 246.625618 
z
" clip-path="url(#p91551db4b0)" style="fill: #ffffff; opacity: 0.7; stroke: #000000; stroke-linejoin: miter"/>
    </g>
    <g clip-path="url(#p91551db4b0)">
     <!-- Stanley Tucci -->
     <g transform="translate(41.70759 257.424211)scale(0.09 -0.09)">
      <use xlink:href="#DejaVuSans-53"/>
      <use xlink:href="#DejaVuSans-74" x="63.476562"/>
      <use xlink:href="#DejaVuSans-61" x="102.685547"/>
      <use xlink:href="#DejaVuSans-6e" x="163.964844"/>
      <use xlink:href="#DejaVuSans-6c" x="227.34375"/>
      <use xlink:href="#DejaVuSans-65" x="255.126953"/>
      <use xlink:href="#DejaVuSans-79" x="316.650391"/>
      <use xlink:href="#DejaVuSans-20" x="375.830078"/>
      <use xlink:href="#DejaVuSans-54" x="407.617188"/>
      <use xlink:href="#DejaVuSans-75" x="453.576172"/>
      <use xlink:href="#DejaVuSans-63" x="516.955078"/>
      <use xlink:href="#DejaVuSans-63" x="571.935547"/>
      <use xlink:href="#DejaVuSans-69" x="626.916016"/>
     </g>
    </g>
   </g>
   <g id="text_9">
    <g id="patch_10">
     <path d="M 34.599009 352.410671 
L 107.739478 352.410671 
L 107.739478 335.780358 
L 34.599009 335.780358 
z
" clip-path="url(#p91551db4b0)" style="fill: #ffffff; opacity: 0.7; stroke: #000000; stroke-linejoin: miter"/>
    </g>
    <g clip-path="url(#p91551db4b0)">
     <!-- Hugo Weaving -->
     <g transform="translate(38.559009 346.578952)scale(0.09 -0.09)">
      <defs>
       <path id="DejaVuSans-48" d="M 628 4666 
L 1259 4666 
L 1259 2753 
L 3553 2753 
L 3553 4666 
L 4184 4666 
L 4184 0 
L 3553 0 
L 3553 2222 
L 1259 2222 
L 1259 0 
L 628 0 
L 628 4666 
z
" transform="scale(0.015625)"/>
       <path id="DejaVuSans-67" d="M 2906 1791 
Q 2906 2416 2648 2759 
Q 2391 3103 1925 3103 
Q 1463 3103 1205 2759 
Q 947 2416 947 1791 
Q 947 1169 1205 825 
Q 1463 481 1925 481 
Q 2391 481 2648 825 
Q 2906 1169 2906 1791 
z
M 3481 434 
Q 3481 -459 3084 -895 
Q 2688 -1331 1869 -1331 
Q 1566 -1331 1297 -1286 
Q 1028 -1241 775 -1147 
L 775 -588 
Q 1028 -725 1275 -790 
Q 1522 -856 1778 -856 
Q 2344 -856 2625 -561 
Q 2906 -266 2906 331 
L 2906 616 
Q 2728 306 2450 153 
Q 2172 0 1784 0 
Q 1141 0 747 490 
Q 353 981 353 1791 
Q 353 2603 747 3093 
Q 1141 3584 1784 3584 
Q 2172 3584 2450 3431 
Q 2728 3278 2906 2969 
L 2906 3500 
L 3481 3500 
L 3481 434 
z
" transform="scale(0.015625)"/>
       <path id="DejaVuSans-57" d="M 213 4666 
L 850 4666 
L 1831 722 
L 2809 4666 
L 3519 4666 
L 4500 722 
L 5478 4666 
L 6119 4666 
L 4947 0 
L 4153 0 
L 3169 4050 
L 2175 0 
L 1381 0 
L 213 4666 
z
" transform="scale(0.015625)"/>
      </defs>
      <use xlink:href="#DejaVuSans-48"/>
      <use xlink:href="#DejaVuSans-75" x="75.195312"/>
      <use xlink:href="#DejaVuSans-67" x="138.574219"/>
      <use xlink:href="#DejaVuSans-6f" x="202.050781"/>
      <use xlink:href="#DejaVuSans-20" x="263.232422"/>
      <use xlink:href="#DejaVuSans-57" x="295.019531"/>
      <use xlink:href="#DejaVuSans-65" x="388.021484"/>
      <use xlink:href="#DejaVuSans-61" x="449.544922"/>
      <use xlink:href="#DejaVuSans-76" x="510.824219"/>
      <use xlink:href="#DejaVuSans-69" x="570.003906"/>
      <use xlink:href="#DejaVuSans-6e" x="597.787109"/>
      <use xlink:href="#DejaVuSans-67" x="661.166016"/>
     </g>
    </g>
   </g>
   <g id="text_10">
    <g id="patch_11">
     <path d="M 74.43274 433.857565 
L 140.83024 433.857565 
L 140.83024 417.227253 
L 74.43274 417.227253 
z
" clip-path="url(#p91551db4b0)" style="fill: #ffffff; opacity: 0.7; stroke: #000000; stroke-linejoin: miter"/>
    </g>
    <g clip-path="url(#p91551db4b0)">
     <!-- Carla Gugino -->
     <g transform="translate(78.39274 428.025847)scale(0.09 -0.09)">
      <defs>
       <path id="DejaVuSans-43" d="M 4122 4306 
L 4122 3641 
Q 3803 3938 3442 4084 
Q 3081 4231 2675 4231 
Q 1875 4231 1450 3742 
Q 1025 3253 1025 2328 
Q 1025 1406 1450 917 
Q 1875 428 2675 428 
Q 3081 428 3442 575 
Q 3803 722 4122 1019 
L 4122 359 
Q 3791 134 3420 21 
Q 3050 -91 2638 -91 
Q 1578 -91 968 557 
Q 359 1206 359 2328 
Q 359 3453 968 4101 
Q 1578 4750 2638 4750 
Q 3056 4750 3426 4639 
Q 3797 4528 4122 4306 
z
" transform="scale(0.015625)"/>
       <path id="DejaVuSans-47" d="M 3809 666 
L 3809 1919 
L 2778 1919 
L 2778 2438 
L 4434 2438 
L 4434 434 
Q 4069 175 3628 42 
Q 3188 -91 2688 -91 
Q 1594 -91 976 548 
Q 359 1188 359 2328 
Q 359 3472 976 4111 
Q 1594 4750 2688 4750 
Q 3144 4750 3555 4637 
Q 3966 4525 4313 4306 
L 4313 3634 
Q 3963 3931 3569 4081 
Q 3175 4231 2741 4231 
Q 1884 4231 1454 3753 
Q 1025 3275 1025 2328 
Q 1025 1384 1454 906 
Q 1884 428 2741 428 
Q 3075 428 3337 486 
Q 3600 544 3809 666 
z
" transform="scale(0.015625)"/>
      </defs>
      <use xlink:href="#DejaVuSans-43"/>
      <use xlink:href="#DejaVuSans-61" x="69.824219"/>
      <use xlink:href="#DejaVuSans-72" x="131.103516"/>
      <use xlink:href="#DejaVuSans-6c" x="172.216797"/>
      <use xlink:href="#DejaVuSans-61" x="200"/>
      <use xlink:href="#DejaVuSans-20" x="261.279297"/>
      <use xlink:href="#DejaVuSans-47" x="293.066406"/>
      <use xlink:href="#DejaVuSans-75" x="370.556641"/>
      <use xlink:href="#DejaVuSans-67" x="433.935547"/>
      <use xlink:href="#DejaVuSans-69" x="497.412109"/>
      <use xlink:href="#DejaVuSans-6e" x="525.195312"/>
      <use xlink:href="#DejaVuSans-6f" x="588.574219"/>
     </g>
    </g>
   </g>
   <g id="text_11">
    <g id="patch_12">
     <path d="M 132.119377 493.513727 
L 216.383283 493.513727 
L 216.383283 476.883414 
L 132.119377 476.883414 
z
" clip-path="url(#p91551db4b0)" style="fill: #ffffff; opacity: 0.7; stroke: #000000; stroke-linejoin: miter"/>
    </g>
    <g clip-path="url(#p91551db4b0)">
     <!-- Shirley MacLaine -->
     <g transform="translate(136.079377 487.682008)scale(0.09 -0.09)">
      <defs>
       <path id="DejaVuSans-4c" d="M 628 4666 
L 1259 4666 
L 1259 531 
L 3531 531 
L 3531 0 
L 628 0 
L 628 4666 
z
" transform="scale(0.015625)"/>
      </defs>
      <use xlink:href="#DejaVuSans-53"/>
      <use xlink:href="#DejaVuSans-68" x="63.476562"/>
      <use xlink:href="#DejaVuSans-69" x="126.855469"/>
      <use xlink:href="#DejaVuSans-72" x="154.638672"/>
      <use xlink:href="#DejaVuSans-6c" x="195.751953"/>
      <use xlink:href="#DejaVuSans-65" x="223.535156"/>
      <use xlink:href="#DejaVuSans-79" x="285.058594"/>
      <use xlink:href="#DejaVuSans-20" x="344.238281"/>
      <use xlink:href="#DejaVuSans-4d" x="376.025391"/>
      <use xlink:href="#DejaVuSans-61" x="462.304688"/>
      <use xlink:href="#DejaVuSans-63" x="523.583984"/>
      <use xlink:href="#DejaVuSans-4c" x="578.564453"/>
      <use xlink:href="#DejaVuSans-61" x="634.277344"/>
      <use xlink:href="#DejaVuSans-69" x="695.556641"/>
      <use xlink:href="#DejaVuSans-6e" x="723.339844"/>
      <use xlink:href="#DejaVuSans-65" x="786.71875"/>
     </g>
    </g>
   </g>
   <g id="text_12">
    <g id="patch_13">
     <path d="M 222.933025 521.06405 
L 296.08615 521.06405 
L 296.08615 504.433738 
L 222.933025 504.433738 
z
" clip-path="url(#p91551db4b0)" style="fill: #ffffff; opacity: 0.7; stroke: #000000; stroke-linejoin: miter"/>
    </g>
    <g clip-path="url(#p91551db4b0)">
     <!-- Ralph Macchio -->
     <g transform="translate(226.893025 515.232332)scale(0.09 -0.09)">
      <use xlink:href="#DejaVuSans-52"/>
      <use xlink:href="#DejaVuSans-61" x="67.232422"/>
      <use xlink:href="#DejaVuSans-6c" x="128.511719"/>
      <use xlink:href="#DejaVuSans-70" x="156.294922"/>
      <use xlink:href="#DejaVuSans-68" x="219.771484"/>
      <use xlink:href="#DejaVuSans-20" x="283.150391"/>
      <use xlink:href="#DejaVuSans-4d" x="314.9375"/>
      <use xlink:href="#DejaVuSans-61" x="401.216797"/>
      <use xlink:href="#DejaVuSans-63" x="462.496094"/>
      <use xlink:href="#DejaVuSans-63" x="517.476562"/>
      <use xlink:href="#DejaVuSans-68" x="572.457031"/>
      <use xlink:href="#DejaVuSans-69" x="635.835938"/>
      <use xlink:href="#DejaVuSans-6f" x="663.619141"/>
     </g>
    </g>
   </g>
   <g id="text_13">
    <g id="patch_14">
     <path d="M 315.552058 511.744831 
L 381.776589 511.744831 
L 381.776589 495.114518 
L 315.552058 495.114518 
z
" clip-path="url(#p91551db4b0)" style="fill: #ffffff; opacity: 0.7; stroke: #000000; stroke-linejoin: miter"/>
    </g>
    <g clip-path="url(#p91551db4b0)">
     <!-- Nicolas Cage -->
     <g transform="translate(319.512058 505.913112)scale(0.09 -0.09)">
      <use xlink:href="#DejaVuSans-4e"/>
      <use xlink:href="#DejaVuSans-69" x="74.804688"/>
      <use xlink:href="#DejaVuSans-63" x="102.587891"/>
      <use xlink:href="#DejaVuSans-6f" x="157.568359"/>
      <use xlink:href="#DejaVuSans-6c" x="218.75"/>
      <use xlink:href="#DejaVuSans-61" x="246.533203"/>
      <use xlink:href="#DejaVuSans-73" x="307.8125"/>
      <use xlink:href="#DejaVuSans-20" x="359.912109"/>
      <use xlink:href="#DejaVuSans-43" x="391.699219"/>
      <use xlink:href="#DejaVuSans-61" x="461.523438"/>
      <use xlink:href="#DejaVuSans-67" x="522.802734"/>
      <use xlink:href="#DejaVuSans-65" x="586.279297"/>
     </g>
    </g>
   </g>
   <g id="text_14">
    <g id="patch_15">
     <path d="M 391.341217 467.167441 
L 461.25856 467.167441 
L 461.25856 450.537129 
L 391.341217 450.537129 
z
" clip-path="url(#p91551db4b0)" style="fill: #ffffff; opacity: 0.7; stroke: #000000; stroke-linejoin: miter"/>
    </g>
    <g clip-path="url(#p91551db4b0)">
     <!-- Danny DeVito -->
     <g transform="translate(395.301217 461.335723)scale(0.09 -0.09)">
      <defs>
       <path id="DejaVuSans-56" d="M 1831 0 
L 50 4666 
L 709 4666 
L 2188 738 
L 3669 4666 
L 4325 4666 
L 2547 0 
L 1831 0 
z
" transform="scale(0.015625)"/>
      </defs>
      <use xlink:href="#DejaVuSans-44"/>
      <use xlink:href="#DejaVuSans-61" x="77.001953"/>
      <use xlink:href="#DejaVuSans-6e" x="138.28125"/>
      <use xlink:href="#DejaVuSans-6e" x="201.660156"/>
      <use xlink:href="#DejaVuSans-79" x="265.039062"/>
      <use xlink:href="#DejaVuSans-20" x="324.21875"/>
      <use xlink:href="#DejaVuSans-44" x="356.005859"/>
      <use xlink:href="#DejaVuSans-65" x="433.007812"/>
      <use xlink:href="#DejaVuSans-56" x="494.53125"/>
      <use xlink:href="#DejaVuSans-69" x="560.689453"/>
      <use xlink:href="#DejaVuSans-74" x="588.472656"/>
      <use xlink:href="#DejaVuSans-6f" x="627.681641"/>
     </g>
    </g>
   </g>
   <g id="text_15">
    <g id="patch_16">
     <path d="M 445.122842 395.039741 
L 512.861905 395.039741 
L 512.861905 378.409428 
L 445.122842 378.409428 
z
" clip-path="url(#p91551db4b0)" style="fill: #ffffff; opacity: 0.7; stroke: #000000; stroke-linejoin: miter"/>
    </g>
    <g clip-path="url(#p91551db4b0)">
     <!-- Dom DeLuise -->
     <g transform="translate(449.082842 389.208022)scale(0.09 -0.09)">
      <use xlink:href="#DejaVuSans-44"/>
      <use xlink:href="#DejaVuSans-6f" x="77.001953"/>
      <use xlink:href="#DejaVuSans-6d" x="138.183594"/>
      <use xlink:href="#DejaVuSans-20" x="235.595703"/>
      <use xlink:href="#DejaVuSans-44" x="267.382812"/>
      <use xlink:href="#DejaVuSans-65" x="344.384766"/>
      <use xlink:href="#DejaVuSans-4c" x="405.908203"/>
      <use xlink:href="#DejaVuSans-75" x="459.871094"/>
      <use xlink:href="#DejaVuSans-69" x="523.25"/>
      <use xlink:href="#DejaVuSans-73" x="551.033203"/>
      <use xlink:href="#DejaVuSans-65" x="603.132812"/>
     </g>
    </g>
   </g>
   <g id="text_16">
    <!-- Impactful actors for Thriller genre - Importance rank: 5 -->
    <g transform="translate(119.743125 16.318125)scale(0.12 -0.12)">
     <defs>
      <path id="DejaVuSans-49" d="M 628 4666 
L 1259 4666 
L 1259 0 
L 628 0 
L 628 4666 
z
" transform="scale(0.015625)"/>
      <path id="DejaVuSans-2d" d="M 313 2009 
L 1997 2009 
L 1997 1497 
L 313 1497 
L 313 2009 
z
" transform="scale(0.015625)"/>
      <path id="DejaVuSans-6b" d="M 581 4863 
L 1159 4863 
L 1159 1991 
L 2875 3500 
L 3609 3500 
L 1753 1863 
L 3688 0 
L 2938 0 
L 1159 1709 
L 1159 0 
L 581 0 
L 581 4863 
z
" transform="scale(0.015625)"/>
      <path id="DejaVuSans-3a" d="M 750 794 
L 1409 794 
L 1409 0 
L 750 0 
L 750 794 
z
M 750 3309 
L 1409 3309 
L 1409 2516 
L 750 2516 
L 750 3309 
z
" transform="scale(0.015625)"/>
      <path id="DejaVuSans-35" d="M 691 4666 
L 3169 4666 
L 3169 4134 
L 1269 4134 
L 1269 2991 
Q 1406 3038 1543 3061 
Q 1681 3084 1819 3084 
Q 2600 3084 3056 2656 
Q 3513 2228 3513 1497 
Q 3513 744 3044 326 
Q 2575 -91 1722 -91 
Q 1428 -91 1123 -41 
Q 819 9 494 109 
L 494 744 
Q 775 591 1075 516 
Q 1375 441 1709 441 
Q 2250 441 2565 725 
Q 2881 1009 2881 1497 
Q 2881 1984 2565 2268 
Q 2250 2553 1709 2553 
Q 1456 2553 1204 2497 
Q 953 2441 691 2322 
L 691 4666 
z
" transform="scale(0.015625)"/>
     </defs>
     <use xlink:href="#DejaVuSans-49"/>
     <use xlink:href="#DejaVuSans-6d" x="29.492188"/>
     <use xlink:href="#DejaVuSans-70" x="126.904297"/>
     <use xlink:href="#DejaVuSans-61" x="190.380859"/>
     <use xlink:href="#DejaVuSans-63" x="251.660156"/>
     <use xlink:href="#DejaVuSans-74" x="306.640625"/>
     <use xlink:href="#DejaVuSans-66" x="345.849609"/>
     <use xlink:href="#DejaVuSans-75" x="381.054688"/>
     <use xlink:href="#DejaVuSans-6c" x="444.433594"/>
     <use xlink:href="#DejaVuSans-20" x="472.216797"/>
     <use xlink:href="#DejaVuSans-61" x="504.003906"/>
     <use xlink:href="#DejaVuSans-63" x="565.283203"/>
     <use xlink:href="#DejaVuSans-74" x="620.263672"/>
     <use xlink:href="#DejaVuSans-6f" x="659.472656"/>
     <use xlink:href="#DejaVuSans-72" x="720.654297"/>
     <use xlink:href="#DejaVuSans-73" x="761.767578"/>
     <use xlink:href="#DejaVuSans-20" x="813.867188"/>
     <use xlink:href="#DejaVuSans-66" x="845.654297"/>
     <use xlink:href="#DejaVuSans-6f" x="880.859375"/>
     <use xlink:href="#DejaVuSans-72" x="942.041016"/>
     <use xlink:href="#DejaVuSans-20" x="983.154297"/>
     <use xlink:href="#DejaVuSans-54" x="1014.941406"/>
     <use xlink:href="#DejaVuSans-68" x="1076.025391"/>
     <use xlink:href="#DejaVuSans-72" x="1139.404297"/>
     <use xlink:href="#DejaVuSans-69" x="1180.517578"/>
     <use xlink:href="#DejaVuSans-6c" x="1208.300781"/>
     <use xlink:href="#DejaVuSans-6c" x="1236.083984"/>
     <use xlink:href="#DejaVuSans-65" x="1263.867188"/>
     <use xlink:href="#DejaVuSans-72" x="1325.390625"/>
     <use xlink:href="#DejaVuSans-20" x="1366.503906"/>
     <use xlink:href="#DejaVuSans-67" x="1398.291016"/>
     <use xlink:href="#DejaVuSans-65" x="1461.767578"/>
     <use xlink:href="#DejaVuSans-6e" x="1523.291016"/>
     <use xlink:href="#DejaVuSans-72" x="1586.669922"/>
     <use xlink:href="#DejaVuSans-65" x="1625.533203"/>
     <use xlink:href="#DejaVuSans-20" x="1687.056641"/>
     <use xlink:href="#DejaVuSans-2d" x="1718.84375"/>
     <use xlink:href="#DejaVuSans-20" x="1754.927734"/>
     <use xlink:href="#DejaVuSans-49" x="1786.714844"/>
     <use xlink:href="#DejaVuSans-6d" x="1816.207031"/>
     <use xlink:href="#DejaVuSans-70" x="1913.619141"/>
     <use xlink:href="#DejaVuSans-6f" x="1977.095703"/>
     <use xlink:href="#DejaVuSans-72" x="2038.277344"/>
     <use xlink:href="#DejaVuSans-74" x="2079.390625"/>
     <use xlink:href="#DejaVuSans-61" x="2118.599609"/>
     <use xlink:href="#DejaVuSans-6e" x="2179.878906"/>
     <use xlink:href="#DejaVuSans-63" x="2243.257812"/>
     <use xlink:href="#DejaVuSans-65" x="2298.238281"/>
     <use xlink:href="#DejaVuSans-20" x="2359.761719"/>
     <use xlink:href="#DejaVuSans-72" x="2391.548828"/>
     <use xlink:href="#DejaVuSans-61" x="2432.662109"/>
     <use xlink:href="#DejaVuSans-6e" x="2493.941406"/>
     <use xlink:href="#DejaVuSans-6b" x="2557.320312"/>
     <use xlink:href="#DejaVuSans-3a" x="2615.230469"/>
     <use xlink:href="#DejaVuSans-20" x="2648.921875"/>
     <use xlink:href="#DejaVuSans-35" x="2680.708984"/>
    </g>
   </g>
  </g>
 </g>
 <defs>
  <clipPath id="p91551db4b0">
   <rect x="7.2" y="22.318125" width="554.4" height="554.4"/>
  </clipPath>
 </defs>
</svg>
