<?xml version="1.0" encoding="utf-8" standalone="no"?>
<!DOCTYPE svg PUBLIC "-//W3C//DTD SVG 1.1//EN"
  "http://www.w3.org/Graphics/SVG/1.1/DTD/svg11.dtd">
<svg xmlns:xlink="http://www.w3.org/1999/xlink" width="568.8pt" height="583.918125pt" viewBox="0 0 568.8 583.918125" xmlns="http://www.w3.org/2000/svg" version="1.1">
 <metadata>
  <rdf:RDF xmlns:dc="http://purl.org/dc/elements/1.1/" xmlns:cc="http://creativecommons.org/ns#" xmlns:rdf="http://www.w3.org/1999/02/22-rdf-syntax-ns#">
   <cc:Work>
    <dc:type rdf:resource="http://purl.org/dc/dcmitype/StillImage"/>
    <dc:date>2022-12-22T19:12:35.768112</dc:date>
    <dc:format>image/svg+xml</dc:format>
    <dc:creator>
     <cc:Agent>
      <dc:title>Matplotlib v3.5.2, https://matplotlib.org/</dc:title>
     </cc:Agent>
    </dc:creator>
   </cc:Work>
  </rdf:RDF>
 </metadata>
 <defs>
  <style type="text/css">*{stroke-linejoin: round; stroke-linecap: butt}</style>
 </defs>
 <g id="figure_1">
  <g id="patch_1">
   <path d="M 0 583.918125 
L 568.8 583.918125 
L 568.8 0 
L 0 0 
z
" style="fill: #ffffff"/>
  </g>
  <g id="axes_1">
   <g id="PathCollection_1">
    <path d="M 497.630769 326.904253 
C 504.893655 326.904253 511.86005 324.018678 516.995686 318.883042 
C 522.131322 313.747406 525.016897 306.781011 525.016897 299.518125 
C 525.016897 292.255239 522.131322 285.288844 516.995686 280.153208 
C 511.86005 275.017572 504.893655 272.131997 497.630769 272.131997 
C 490.367883 272.131997 483.401488 275.017572 478.265852 280.153208 
C 473.130217 285.288844 470.244641 292.255239 470.244641 299.518125 
C 470.244641 306.781011 473.130217 313.747406 478.265852 318.883042 
C 483.401488 324.018678 490.367883 326.904253 497.630769 326.904253 
z
" clip-path="url(#p7c57be89d6)" style="fill: #d62728; fill-opacity: 0.99; stroke: #d62728; stroke-opacity: 0.99"/>
    <path d="M 478.992348 238.892106 
C 486.041572 238.892106 492.803026 236.09142 497.78758 231.106866 
C 502.772134 226.122312 505.572821 219.360857 505.572821 212.311633 
C 505.572821 205.26241 502.772134 198.500955 497.78758 193.516401 
C 492.803026 188.531847 486.041572 185.731161 478.992348 185.731161 
C 471.943124 185.731161 465.181669 188.531847 460.197115 193.516401 
C 455.212561 198.500955 452.411875 205.26241 452.411875 212.311633 
C 452.411875 219.360857 455.212561 226.122312 460.197115 231.106866 
C 465.181669 236.09142 471.943124 238.892106 478.992348 238.892106 
z
" clip-path="url(#p7c57be89d6)" style="fill: #d62728; fill-opacity: 0.99; stroke: #d62728; stroke-opacity: 0.99"/>
    <path d="M 426.29985 163.594604 
C 432.508434 163.594604 438.463567 161.127907 442.853699 156.737775 
C 447.243831 152.347643 449.710527 146.392511 449.710527 140.183927 
C 449.710527 133.975342 447.243831 128.02021 442.853699 123.630078 
C 438.463567 119.239946 432.508434 116.773249 426.29985 116.773249 
C 420.091266 116.773249 414.136133 119.239946 409.746001 123.630078 
C 405.355869 128.02021 402.889172 133.975342 402.889172 140.183927 
C 402.889172 146.392511 405.355869 152.347643 409.746001 156.737775 
C 414.136133 161.127907 420.091266 163.594604 426.29985 163.594604 
z
" clip-path="url(#p7c57be89d6)" style="fill: #d62728; fill-opacity: 0.99; stroke: #d62728; stroke-opacity: 0.99"/>
    <path d="M 348.664291 118.69948 
C 354.788604 118.69948 360.662906 116.266265 364.99345 111.935721 
C 369.323993 107.605178 371.757209 101.730876 371.757209 95.606563 
C 371.757209 89.482249 369.323993 83.607948 364.99345 79.277404 
C 360.662906 74.946861 354.788604 72.513645 348.664291 72.513645 
C 342.539978 72.513645 336.665676 74.946861 332.335133 79.277404 
C 328.004589 83.607948 325.571374 89.482249 325.571374 95.606563 
C 325.571374 101.730876 328.004589 107.605178 332.335133 111.935721 
C 336.665676 116.266265 342.539978 118.69948 348.664291 118.69948 
z
" clip-path="url(#p7c57be89d6)" style="fill: #d62728; fill-opacity: 0.99; stroke: #d62728; stroke-opacity: 0.99"/>
    <path d="M 259.509549 108.4398 
C 265.384445 108.4398 271.019513 106.105678 275.173692 101.951499 
C 279.327871 97.79732 281.661993 92.162253 281.661993 86.287356 
C 281.661993 80.412459 279.327871 74.777392 275.173692 70.623212 
C 271.019513 66.469033 265.384445 64.134912 259.509549 64.134912 
C 253.634652 64.134912 247.999585 66.469033 243.845405 70.623212 
C 239.691226 74.777392 237.357105 80.412459 237.357105 86.287356 
C 237.357105 92.162253 239.691226 97.79732 243.845405 101.951499 
C 247.999585 106.105678 253.634652 108.4398 259.509549 108.4398 
z
" clip-path="url(#p7c57be89d6)" style="fill: #d62728; fill-opacity: 0.99; stroke: #d62728; stroke-opacity: 0.99"/>
    <path d="M 174.251298 135.711875 
C 180.052399 135.711875 185.616683 133.407073 189.718681 129.305075 
C 193.820679 125.203077 196.125481 119.638793 196.125481 113.837692 
C 196.125481 108.036591 193.820679 102.472307 189.718681 98.370309 
C 185.616683 94.268311 180.052399 91.963509 174.251298 91.963509 
C 168.450197 91.963509 162.885913 94.268311 158.783915 98.370309 
C 154.681917 102.472307 152.377115 108.036591 152.377115 113.837692 
C 152.377115 119.638793 154.681917 125.203077 158.783915 129.305075 
C 162.885913 133.407073 168.450197 135.711875 174.251298 135.711875 
z
" clip-path="url(#p7c57be89d6)" style="fill: #d62728; fill-opacity: 0.99; stroke: #d62728; stroke-opacity: 0.99"/>
    <path d="M 107.631477 195.105062 
C 113.362836 195.105062 118.860226 192.827969 122.912909 188.775286 
C 126.965592 184.722603 129.242685 179.225213 129.242685 173.493854 
C 129.242685 167.762494 126.965592 162.265105 122.912909 158.212422 
C 118.860226 154.159739 113.362836 151.882645 107.631477 151.882645 
C 101.900118 151.882645 96.402728 154.159739 92.350045 158.212422 
C 88.297362 162.265105 86.020269 167.762494 86.020269 173.493854 
C 86.020269 179.225213 88.297362 184.722603 92.350045 188.775286 
C 96.402728 192.827969 101.900118 195.105062 107.631477 195.105062 
z
" clip-path="url(#p7c57be89d6)" style="fill: #d62728; fill-opacity: 0.99; stroke: #d62728; stroke-opacity: 0.99"/>
    <path d="M 71.169231 276.47302 
C 76.879649 276.47302 82.356952 274.204247 86.394828 270.166371 
C 90.432704 266.128496 92.701477 260.651192 92.701477 254.940774 
C 92.701477 249.230355 90.432704 243.753052 86.394828 239.715177 
C 82.356952 235.677301 76.879649 233.408528 71.169231 233.408528 
C 65.458812 233.408528 59.981509 235.677301 55.943634 239.715177 
C 51.905758 243.753052 49.636985 249.230355 49.636985 254.940774 
C 49.636985 260.651192 51.905758 266.128496 55.943634 270.166371 
C 59.981509 274.204247 65.458812 276.47302 71.169231 276.47302 
z
" clip-path="url(#p7c57be89d6)" style="fill: #d62728; fill-opacity: 0.99; stroke: #d62728; stroke-opacity: 0.99"/>
    <path d="M 71.169244 365.387233 
C 76.815873 365.387233 82.231992 363.143803 86.224762 359.151033 
C 90.217532 355.158263 92.460962 349.742144 92.460962 344.095514 
C 92.460962 338.448885 90.217532 333.032766 86.224762 329.039996 
C 82.231992 325.047226 76.815873 322.803796 71.169244 322.803796 
C 65.522614 322.803796 60.106496 325.047226 56.113725 329.039996 
C 52.120955 333.032766 49.877526 338.448885 49.877526 344.095514 
C 49.877526 349.742144 52.120955 355.158263 56.113725 359.151033 
C 60.106496 363.143803 65.522614 365.387233 71.169244 365.387233 
z
" clip-path="url(#p7c57be89d6)" style="fill: #d62728; fill-opacity: 0.99; stroke: #d62728; stroke-opacity: 0.99"/>
    <path d="M 107.63149 446.633391 
C 113.224884 446.633391 118.58994 444.411112 122.545066 440.455986 
C 126.500193 436.500859 128.722472 431.135803 128.722472 425.542409 
C 128.722472 419.949015 126.500193 414.583959 122.545066 410.628832 
C 118.58994 406.673706 113.224884 404.451427 107.63149 404.451427 
C 102.038096 404.451427 96.67304 406.673706 92.717913 410.628832 
C 88.762786 414.583959 86.540508 419.949015 86.540508 425.542409 
C 86.540508 431.135803 88.762786 436.500859 92.717913 440.455986 
C 96.67304 444.411112 102.038096 446.633391 107.63149 446.633391 
z
" clip-path="url(#p7c57be89d6)" style="fill: #d62728; fill-opacity: 0.99; stroke: #d62728; stroke-opacity: 0.99"/>
    <path d="M 174.25133 505.412174 
C 179.61204 505.412174 184.753911 503.282341 188.544506 499.491746 
C 192.3351 495.701152 194.464933 490.559281 194.464933 485.198571 
C 194.464933 479.83786 192.3351 474.695989 188.544506 470.905395 
C 184.753911 467.1148 179.61204 464.984968 174.25133 464.984968 
C 168.89062 464.984968 163.748749 467.1148 159.958154 470.905395 
C 156.16756 474.695989 154.037727 479.83786 154.037727 485.198571 
C 154.037727 490.559281 156.16756 495.701152 159.958154 499.491746 
C 163.748749 503.282341 168.89062 505.412174 174.25133 505.412174 
z
" clip-path="url(#p7c57be89d6)" style="fill: #d62728; fill-opacity: 0.99; stroke: #d62728; stroke-opacity: 0.99"/>
    <path d="M 259.509587 532.896963 
C 264.852917 532.896963 269.978118 530.774035 273.756423 526.99573 
C 277.534728 523.217425 279.657656 518.092224 279.657656 512.748894 
C 279.657656 507.405564 277.534728 502.280363 273.756423 498.502058 
C 269.978118 494.723753 264.852917 492.600826 259.509587 492.600826 
C 254.166257 492.600826 249.041056 494.723753 245.262751 498.502058 
C 241.484446 502.280363 239.361519 507.405564 239.361519 512.748894 
C 239.361519 518.092224 241.484446 523.217425 245.262751 526.99573 
C 249.041056 530.774035 254.166257 532.896963 259.509587 532.896963 
z
" clip-path="url(#p7c57be89d6)" style="fill: #d62728; fill-opacity: 0.99; stroke: #d62728; stroke-opacity: 0.99"/>
    <path d="M 348.664323 523.451476 
C 353.974167 523.451476 359.067248 521.341852 362.821875 517.587226 
C 366.576501 513.832599 368.686124 508.739518 368.686124 503.429675 
C 368.686124 498.119831 366.576501 493.02675 362.821875 489.272123 
C 359.067248 485.517497 353.974167 483.407873 348.664323 483.407873 
C 343.35448 483.407873 338.261399 485.517497 334.506772 489.272123 
C 330.752146 493.02675 328.642522 498.119831 328.642522 503.429675 
C 328.642522 508.739518 330.752146 513.832599 334.506772 517.587226 
C 338.261399 521.341852 343.35448 523.451476 348.664323 523.451476 
z
" clip-path="url(#p7c57be89d6)" style="fill: #d62728; fill-opacity: 0.99; stroke: #d62728; stroke-opacity: 0.99"/>
    <path d="M 426.299888 478.490996 
C 431.508135 478.490996 436.503767 476.421738 440.186554 472.738951 
C 443.869341 469.056164 445.938599 464.060532 445.938599 458.852285 
C 445.938599 453.644038 443.869341 448.648406 440.186554 444.965619 
C 436.503767 441.282832 431.508135 439.213574 426.299888 439.213574 
C 421.091641 439.213574 416.096009 441.282832 412.413223 444.965619 
C 408.730436 448.648406 406.661177 453.644038 406.661177 458.852285 
C 406.661177 464.060532 408.730436 469.056164 412.413223 472.738951 
C 416.096009 476.421738 421.091641 478.490996 426.299888 478.490996 
z
" clip-path="url(#p7c57be89d6)" style="fill: #d62728; fill-opacity: 0.99; stroke: #d62728; stroke-opacity: 0.99"/>
    <path d="M 478.992374 406.089501 
C 484.128009 406.089501 489.053994 404.049092 492.685437 400.417649 
C 496.31688 396.786206 498.35729 391.860221 498.35729 386.724585 
C 498.35729 381.588949 496.31688 376.662964 492.685437 373.031521 
C 489.053994 369.400078 484.128009 367.359668 478.992374 367.359668 
C 473.856738 367.359668 468.930753 369.400078 465.29931 373.031521 
C 461.667867 376.662964 459.627457 381.588949 459.627457 386.724585 
C 459.627457 391.860221 461.667867 396.786206 465.29931 400.417649 
C 468.930753 404.049092 473.856738 406.089501 478.992374 406.089501 
z
" clip-path="url(#p7c57be89d6)" style="fill: #d62728; fill-opacity: 0.99; stroke: #d62728; stroke-opacity: 0.99"/>
   </g>
   <g id="text_1">
    <g id="patch_2">
     <path d="M 462.923113 307.833281 
L 532.338425 307.833281 
L 532.338425 291.202969 
L 462.923113 291.202969 
z
" clip-path="url(#p7c57be89d6)" style="fill: #ffffff; opacity: 0.7; stroke: #000000; stroke-linejoin: miter"/>
    </g>
    <g clip-path="url(#p7c57be89d6)">
     <!-- Ike Barinholtz -->
     <g transform="translate(466.883113 302.001562)scale(0.09 -0.09)">
      <defs>
       <path id="DejaVuSans-49" d="M 628 4666 
L 1259 4666 
L 1259 0 
L 628 0 
L 628 4666 
z
" transform="scale(0.015625)"/>
       <path id="DejaVuSans-6b" d="M 581 4863 
L 1159 4863 
L 1159 1991 
L 2875 3500 
L 3609 3500 
L 1753 1863 
L 3688 0 
L 2938 0 
L 1159 1709 
L 1159 0 
L 581 0 
L 581 4863 
z
" transform="scale(0.015625)"/>
       <path id="DejaVuSans-65" d="M 3597 1894 
L 3597 1613 
L 953 1613 
Q 991 1019 1311 708 
Q 1631 397 2203 397 
Q 2534 397 2845 478 
Q 3156 559 3463 722 
L 3463 178 
Q 3153 47 2828 -22 
Q 2503 -91 2169 -91 
Q 1331 -91 842 396 
Q 353 884 353 1716 
Q 353 2575 817 3079 
Q 1281 3584 2069 3584 
Q 2775 3584 3186 3129 
Q 3597 2675 3597 1894 
z
M 3022 2063 
Q 3016 2534 2758 2815 
Q 2500 3097 2075 3097 
Q 1594 3097 1305 2825 
Q 1016 2553 972 2059 
L 3022 2063 
z
" transform="scale(0.015625)"/>
       <path id="DejaVuSans-20" transform="scale(0.015625)"/>
       <path id="DejaVuSans-42" d="M 1259 2228 
L 1259 519 
L 2272 519 
Q 2781 519 3026 730 
Q 3272 941 3272 1375 
Q 3272 1813 3026 2020 
Q 2781 2228 2272 2228 
L 1259 2228 
z
M 1259 4147 
L 1259 2741 
L 2194 2741 
Q 2656 2741 2882 2914 
Q 3109 3088 3109 3444 
Q 3109 3797 2882 3972 
Q 2656 4147 2194 4147 
L 1259 4147 
z
M 628 4666 
L 2241 4666 
Q 2963 4666 3353 4366 
Q 3744 4066 3744 3513 
Q 3744 3084 3544 2831 
Q 3344 2578 2956 2516 
Q 3422 2416 3680 2098 
Q 3938 1781 3938 1306 
Q 3938 681 3513 340 
Q 3088 0 2303 0 
L 628 0 
L 628 4666 
z
" transform="scale(0.015625)"/>
       <path id="DejaVuSans-61" d="M 2194 1759 
Q 1497 1759 1228 1600 
Q 959 1441 959 1056 
Q 959 750 1161 570 
Q 1363 391 1709 391 
Q 2188 391 2477 730 
Q 2766 1069 2766 1631 
L 2766 1759 
L 2194 1759 
z
M 3341 1997 
L 3341 0 
L 2766 0 
L 2766 531 
Q 2569 213 2275 61 
Q 1981 -91 1556 -91 
Q 1019 -91 701 211 
Q 384 513 384 1019 
Q 384 1609 779 1909 
Q 1175 2209 1959 2209 
L 2766 2209 
L 2766 2266 
Q 2766 2663 2505 2880 
Q 2244 3097 1772 3097 
Q 1472 3097 1187 3025 
Q 903 2953 641 2809 
L 641 3341 
Q 956 3463 1253 3523 
Q 1550 3584 1831 3584 
Q 2591 3584 2966 3190 
Q 3341 2797 3341 1997 
z
" transform="scale(0.015625)"/>
       <path id="DejaVuSans-72" d="M 2631 2963 
Q 2534 3019 2420 3045 
Q 2306 3072 2169 3072 
Q 1681 3072 1420 2755 
Q 1159 2438 1159 1844 
L 1159 0 
L 581 0 
L 581 3500 
L 1159 3500 
L 1159 2956 
Q 1341 3275 1631 3429 
Q 1922 3584 2338 3584 
Q 2397 3584 2469 3576 
Q 2541 3569 2628 3553 
L 2631 2963 
z
" transform="scale(0.015625)"/>
       <path id="DejaVuSans-69" d="M 603 3500 
L 1178 3500 
L 1178 0 
L 603 0 
L 603 3500 
z
M 603 4863 
L 1178 4863 
L 1178 4134 
L 603 4134 
L 603 4863 
z
" transform="scale(0.015625)"/>
       <path id="DejaVuSans-6e" d="M 3513 2113 
L 3513 0 
L 2938 0 
L 2938 2094 
Q 2938 2591 2744 2837 
Q 2550 3084 2163 3084 
Q 1697 3084 1428 2787 
Q 1159 2491 1159 1978 
L 1159 0 
L 581 0 
L 581 3500 
L 1159 3500 
L 1159 2956 
Q 1366 3272 1645 3428 
Q 1925 3584 2291 3584 
Q 2894 3584 3203 3211 
Q 3513 2838 3513 2113 
z
" transform="scale(0.015625)"/>
       <path id="DejaVuSans-68" d="M 3513 2113 
L 3513 0 
L 2938 0 
L 2938 2094 
Q 2938 2591 2744 2837 
Q 2550 3084 2163 3084 
Q 1697 3084 1428 2787 
Q 1159 2491 1159 1978 
L 1159 0 
L 581 0 
L 581 4863 
L 1159 4863 
L 1159 2956 
Q 1366 3272 1645 3428 
Q 1925 3584 2291 3584 
Q 2894 3584 3203 3211 
Q 3513 2838 3513 2113 
z
" transform="scale(0.015625)"/>
       <path id="DejaVuSans-6f" d="M 1959 3097 
Q 1497 3097 1228 2736 
Q 959 2375 959 1747 
Q 959 1119 1226 758 
Q 1494 397 1959 397 
Q 2419 397 2687 759 
Q 2956 1122 2956 1747 
Q 2956 2369 2687 2733 
Q 2419 3097 1959 3097 
z
M 1959 3584 
Q 2709 3584 3137 3096 
Q 3566 2609 3566 1747 
Q 3566 888 3137 398 
Q 2709 -91 1959 -91 
Q 1206 -91 779 398 
Q 353 888 353 1747 
Q 353 2609 779 3096 
Q 1206 3584 1959 3584 
z
" transform="scale(0.015625)"/>
       <path id="DejaVuSans-6c" d="M 603 4863 
L 1178 4863 
L 1178 0 
L 603 0 
L 603 4863 
z
" transform="scale(0.015625)"/>
       <path id="DejaVuSans-74" d="M 1172 4494 
L 1172 3500 
L 2356 3500 
L 2356 3053 
L 1172 3053 
L 1172 1153 
Q 1172 725 1289 603 
Q 1406 481 1766 481 
L 2356 481 
L 2356 0 
L 1766 0 
Q 1100 0 847 248 
Q 594 497 594 1153 
L 594 3053 
L 172 3053 
L 172 3500 
L 594 3500 
L 594 4494 
L 1172 4494 
z
" transform="scale(0.015625)"/>
       <path id="DejaVuSans-7a" d="M 353 3500 
L 3084 3500 
L 3084 2975 
L 922 459 
L 3084 459 
L 3084 0 
L 275 0 
L 275 525 
L 2438 3041 
L 353 3041 
L 353 3500 
z
" transform="scale(0.015625)"/>
      </defs>
      <use xlink:href="#DejaVuSans-49"/>
      <use xlink:href="#DejaVuSans-6b" x="29.492188"/>
      <use xlink:href="#DejaVuSans-65" x="83.777344"/>
      <use xlink:href="#DejaVuSans-20" x="145.300781"/>
      <use xlink:href="#DejaVuSans-42" x="177.087891"/>
      <use xlink:href="#DejaVuSans-61" x="245.691406"/>
      <use xlink:href="#DejaVuSans-72" x="306.970703"/>
      <use xlink:href="#DejaVuSans-69" x="348.083984"/>
      <use xlink:href="#DejaVuSans-6e" x="375.867188"/>
      <use xlink:href="#DejaVuSans-68" x="439.246094"/>
      <use xlink:href="#DejaVuSans-6f" x="502.625"/>
      <use xlink:href="#DejaVuSans-6c" x="563.806641"/>
      <use xlink:href="#DejaVuSans-74" x="591.589844"/>
      <use xlink:href="#DejaVuSans-7a" x="630.798828"/>
     </g>
    </g>
   </g>
   <g id="text_2">
    <g id="patch_3">
     <path d="M 445.793598 220.62679 
L 512.191098 220.62679 
L 512.191098 203.996477 
L 445.793598 203.996477 
z
" clip-path="url(#p7c57be89d6)" style="fill: #ffffff; opacity: 0.7; stroke: #000000; stroke-linejoin: miter"/>
    </g>
    <g clip-path="url(#p7c57be89d6)">
     <!-- Carla Gugino -->
     <g transform="translate(449.753598 214.795071)scale(0.09 -0.09)">
      <defs>
       <path id="DejaVuSans-43" d="M 4122 4306 
L 4122 3641 
Q 3803 3938 3442 4084 
Q 3081 4231 2675 4231 
Q 1875 4231 1450 3742 
Q 1025 3253 1025 2328 
Q 1025 1406 1450 917 
Q 1875 428 2675 428 
Q 3081 428 3442 575 
Q 3803 722 4122 1019 
L 4122 359 
Q 3791 134 3420 21 
Q 3050 -91 2638 -91 
Q 1578 -91 968 557 
Q 359 1206 359 2328 
Q 359 3453 968 4101 
Q 1578 4750 2638 4750 
Q 3056 4750 3426 4639 
Q 3797 4528 4122 4306 
z
" transform="scale(0.015625)"/>
       <path id="DejaVuSans-47" d="M 3809 666 
L 3809 1919 
L 2778 1919 
L 2778 2438 
L 4434 2438 
L 4434 434 
Q 4069 175 3628 42 
Q 3188 -91 2688 -91 
Q 1594 -91 976 548 
Q 359 1188 359 2328 
Q 359 3472 976 4111 
Q 1594 4750 2688 4750 
Q 3144 4750 3555 4637 
Q 3966 4525 4313 4306 
L 4313 3634 
Q 3963 3931 3569 4081 
Q 3175 4231 2741 4231 
Q 1884 4231 1454 3753 
Q 1025 3275 1025 2328 
Q 1025 1384 1454 906 
Q 1884 428 2741 428 
Q 3075 428 3337 486 
Q 3600 544 3809 666 
z
" transform="scale(0.015625)"/>
       <path id="DejaVuSans-75" d="M 544 1381 
L 544 3500 
L 1119 3500 
L 1119 1403 
Q 1119 906 1312 657 
Q 1506 409 1894 409 
Q 2359 409 2629 706 
Q 2900 1003 2900 1516 
L 2900 3500 
L 3475 3500 
L 3475 0 
L 2900 0 
L 2900 538 
Q 2691 219 2414 64 
Q 2138 -91 1772 -91 
Q 1169 -91 856 284 
Q 544 659 544 1381 
z
M 1991 3584 
L 1991 3584 
z
" transform="scale(0.015625)"/>
       <path id="DejaVuSans-67" d="M 2906 1791 
Q 2906 2416 2648 2759 
Q 2391 3103 1925 3103 
Q 1463 3103 1205 2759 
Q 947 2416 947 1791 
Q 947 1169 1205 825 
Q 1463 481 1925 481 
Q 2391 481 2648 825 
Q 2906 1169 2906 1791 
z
M 3481 434 
Q 3481 -459 3084 -895 
Q 2688 -1331 1869 -1331 
Q 1566 -1331 1297 -1286 
Q 1028 -1241 775 -1147 
L 775 -588 
Q 1028 -725 1275 -790 
Q 1522 -856 1778 -856 
Q 2344 -856 2625 -561 
Q 2906 -266 2906 331 
L 2906 616 
Q 2728 306 2450 153 
Q 2172 0 1784 0 
Q 1141 0 747 490 
Q 353 981 353 1791 
Q 353 2603 747 3093 
Q 1141 3584 1784 3584 
Q 2172 3584 2450 3431 
Q 2728 3278 2906 2969 
L 2906 3500 
L 3481 3500 
L 3481 434 
z
" transform="scale(0.015625)"/>
      </defs>
      <use xlink:href="#DejaVuSans-43"/>
      <use xlink:href="#DejaVuSans-61" x="69.824219"/>
      <use xlink:href="#DejaVuSans-72" x="131.103516"/>
      <use xlink:href="#DejaVuSans-6c" x="172.216797"/>
      <use xlink:href="#DejaVuSans-61" x="200"/>
      <use xlink:href="#DejaVuSans-20" x="261.279297"/>
      <use xlink:href="#DejaVuSans-47" x="293.066406"/>
      <use xlink:href="#DejaVuSans-75" x="370.556641"/>
      <use xlink:href="#DejaVuSans-67" x="433.935547"/>
      <use xlink:href="#DejaVuSans-69" x="497.412109"/>
      <use xlink:href="#DejaVuSans-6e" x="525.195312"/>
      <use xlink:href="#DejaVuSans-6f" x="588.574219"/>
     </g>
    </g>
   </g>
   <g id="text_3">
    <g id="patch_4">
     <path d="M 381.291412 148.499083 
L 471.308287 148.499083 
L 471.308287 131.86877 
L 381.291412 131.86877 
z
" clip-path="url(#p7c57be89d6)" style="fill: #ffffff; opacity: 0.7; stroke: #000000; stroke-linejoin: miter"/>
    </g>
    <g clip-path="url(#p7c57be89d6)">
     <!-- Sigourney Weaver -->
     <g transform="translate(385.251412 142.667364)scale(0.09 -0.09)">
      <defs>
       <path id="DejaVuSans-53" d="M 3425 4513 
L 3425 3897 
Q 3066 4069 2747 4153 
Q 2428 4238 2131 4238 
Q 1616 4238 1336 4038 
Q 1056 3838 1056 3469 
Q 1056 3159 1242 3001 
Q 1428 2844 1947 2747 
L 2328 2669 
Q 3034 2534 3370 2195 
Q 3706 1856 3706 1288 
Q 3706 609 3251 259 
Q 2797 -91 1919 -91 
Q 1588 -91 1214 -16 
Q 841 59 441 206 
L 441 856 
Q 825 641 1194 531 
Q 1563 422 1919 422 
Q 2459 422 2753 634 
Q 3047 847 3047 1241 
Q 3047 1584 2836 1778 
Q 2625 1972 2144 2069 
L 1759 2144 
Q 1053 2284 737 2584 
Q 422 2884 422 3419 
Q 422 4038 858 4394 
Q 1294 4750 2059 4750 
Q 2388 4750 2728 4690 
Q 3069 4631 3425 4513 
z
" transform="scale(0.015625)"/>
       <path id="DejaVuSans-79" d="M 2059 -325 
Q 1816 -950 1584 -1140 
Q 1353 -1331 966 -1331 
L 506 -1331 
L 506 -850 
L 844 -850 
Q 1081 -850 1212 -737 
Q 1344 -625 1503 -206 
L 1606 56 
L 191 3500 
L 800 3500 
L 1894 763 
L 2988 3500 
L 3597 3500 
L 2059 -325 
z
" transform="scale(0.015625)"/>
       <path id="DejaVuSans-57" d="M 213 4666 
L 850 4666 
L 1831 722 
L 2809 4666 
L 3519 4666 
L 4500 722 
L 5478 4666 
L 6119 4666 
L 4947 0 
L 4153 0 
L 3169 4050 
L 2175 0 
L 1381 0 
L 213 4666 
z
" transform="scale(0.015625)"/>
       <path id="DejaVuSans-76" d="M 191 3500 
L 800 3500 
L 1894 563 
L 2988 3500 
L 3597 3500 
L 2284 0 
L 1503 0 
L 191 3500 
z
" transform="scale(0.015625)"/>
      </defs>
      <use xlink:href="#DejaVuSans-53"/>
      <use xlink:href="#DejaVuSans-69" x="63.476562"/>
      <use xlink:href="#DejaVuSans-67" x="91.259766"/>
      <use xlink:href="#DejaVuSans-6f" x="154.736328"/>
      <use xlink:href="#DejaVuSans-75" x="215.917969"/>
      <use xlink:href="#DejaVuSans-72" x="279.296875"/>
      <use xlink:href="#DejaVuSans-6e" x="318.660156"/>
      <use xlink:href="#DejaVuSans-65" x="382.039062"/>
      <use xlink:href="#DejaVuSans-79" x="443.5625"/>
      <use xlink:href="#DejaVuSans-20" x="502.742188"/>
      <use xlink:href="#DejaVuSans-57" x="534.529297"/>
      <use xlink:href="#DejaVuSans-65" x="627.53125"/>
      <use xlink:href="#DejaVuSans-61" x="689.054688"/>
      <use xlink:href="#DejaVuSans-76" x="750.333984"/>
      <use xlink:href="#DejaVuSans-65" x="809.513672"/>
      <use xlink:href="#DejaVuSans-72" x="871.037109"/>
     </g>
    </g>
   </g>
   <g id="text_4">
    <g id="patch_5">
     <path d="M 313.013041 103.921719 
L 384.315541 103.921719 
L 384.315541 87.291406 
L 313.013041 87.291406 
z
" clip-path="url(#p7c57be89d6)" style="fill: #ffffff; opacity: 0.7; stroke: #000000; stroke-linejoin: miter"/>
    </g>
    <g clip-path="url(#p7c57be89d6)">
     <!-- Ethan Sandler -->
     <g transform="translate(316.973041 98.09)scale(0.09 -0.09)">
      <defs>
       <path id="DejaVuSans-45" d="M 628 4666 
L 3578 4666 
L 3578 4134 
L 1259 4134 
L 1259 2753 
L 3481 2753 
L 3481 2222 
L 1259 2222 
L 1259 531 
L 3634 531 
L 3634 0 
L 628 0 
L 628 4666 
z
" transform="scale(0.015625)"/>
       <path id="DejaVuSans-64" d="M 2906 2969 
L 2906 4863 
L 3481 4863 
L 3481 0 
L 2906 0 
L 2906 525 
Q 2725 213 2448 61 
Q 2172 -91 1784 -91 
Q 1150 -91 751 415 
Q 353 922 353 1747 
Q 353 2572 751 3078 
Q 1150 3584 1784 3584 
Q 2172 3584 2448 3432 
Q 2725 3281 2906 2969 
z
M 947 1747 
Q 947 1113 1208 752 
Q 1469 391 1925 391 
Q 2381 391 2643 752 
Q 2906 1113 2906 1747 
Q 2906 2381 2643 2742 
Q 2381 3103 1925 3103 
Q 1469 3103 1208 2742 
Q 947 2381 947 1747 
z
" transform="scale(0.015625)"/>
      </defs>
      <use xlink:href="#DejaVuSans-45"/>
      <use xlink:href="#DejaVuSans-74" x="63.183594"/>
      <use xlink:href="#DejaVuSans-68" x="102.392578"/>
      <use xlink:href="#DejaVuSans-61" x="165.771484"/>
      <use xlink:href="#DejaVuSans-6e" x="227.050781"/>
      <use xlink:href="#DejaVuSans-20" x="290.429688"/>
      <use xlink:href="#DejaVuSans-53" x="322.216797"/>
      <use xlink:href="#DejaVuSans-61" x="385.693359"/>
      <use xlink:href="#DejaVuSans-6e" x="446.972656"/>
      <use xlink:href="#DejaVuSans-64" x="510.351562"/>
      <use xlink:href="#DejaVuSans-6c" x="573.828125"/>
      <use xlink:href="#DejaVuSans-65" x="601.611328"/>
      <use xlink:href="#DejaVuSans-72" x="663.134766"/>
     </g>
    </g>
   </g>
   <g id="text_5">
    <g id="patch_6">
     <path d="M 229.394002 94.602512 
L 289.625095 94.602512 
L 289.625095 77.9722 
L 229.394002 77.9722 
z
" clip-path="url(#p7c57be89d6)" style="fill: #ffffff; opacity: 0.7; stroke: #000000; stroke-linejoin: miter"/>
    </g>
    <g clip-path="url(#p7c57be89d6)">
     <!-- Bruce Willis -->
     <g transform="translate(233.354002 88.770793)scale(0.09 -0.09)">
      <defs>
       <path id="DejaVuSans-63" d="M 3122 3366 
L 3122 2828 
Q 2878 2963 2633 3030 
Q 2388 3097 2138 3097 
Q 1578 3097 1268 2742 
Q 959 2388 959 1747 
Q 959 1106 1268 751 
Q 1578 397 2138 397 
Q 2388 397 2633 464 
Q 2878 531 3122 666 
L 3122 134 
Q 2881 22 2623 -34 
Q 2366 -91 2075 -91 
Q 1284 -91 818 406 
Q 353 903 353 1747 
Q 353 2603 823 3093 
Q 1294 3584 2113 3584 
Q 2378 3584 2631 3529 
Q 2884 3475 3122 3366 
z
" transform="scale(0.015625)"/>
       <path id="DejaVuSans-73" d="M 2834 3397 
L 2834 2853 
Q 2591 2978 2328 3040 
Q 2066 3103 1784 3103 
Q 1356 3103 1142 2972 
Q 928 2841 928 2578 
Q 928 2378 1081 2264 
Q 1234 2150 1697 2047 
L 1894 2003 
Q 2506 1872 2764 1633 
Q 3022 1394 3022 966 
Q 3022 478 2636 193 
Q 2250 -91 1575 -91 
Q 1294 -91 989 -36 
Q 684 19 347 128 
L 347 722 
Q 666 556 975 473 
Q 1284 391 1588 391 
Q 1994 391 2212 530 
Q 2431 669 2431 922 
Q 2431 1156 2273 1281 
Q 2116 1406 1581 1522 
L 1381 1569 
Q 847 1681 609 1914 
Q 372 2147 372 2553 
Q 372 3047 722 3315 
Q 1072 3584 1716 3584 
Q 2034 3584 2315 3537 
Q 2597 3491 2834 3397 
z
" transform="scale(0.015625)"/>
      </defs>
      <use xlink:href="#DejaVuSans-42"/>
      <use xlink:href="#DejaVuSans-72" x="68.603516"/>
      <use xlink:href="#DejaVuSans-75" x="109.716797"/>
      <use xlink:href="#DejaVuSans-63" x="173.095703"/>
      <use xlink:href="#DejaVuSans-65" x="228.076172"/>
      <use xlink:href="#DejaVuSans-20" x="289.599609"/>
      <use xlink:href="#DejaVuSans-57" x="321.386719"/>
      <use xlink:href="#DejaVuSans-69" x="418.013672"/>
      <use xlink:href="#DejaVuSans-6c" x="445.796875"/>
      <use xlink:href="#DejaVuSans-6c" x="473.580078"/>
      <use xlink:href="#DejaVuSans-69" x="501.363281"/>
      <use xlink:href="#DejaVuSans-73" x="529.146484"/>
     </g>
    </g>
   </g>
   <g id="text_6">
    <g id="patch_7">
     <path d="M 137.233173 122.152849 
L 211.269423 122.152849 
L 211.269423 105.522536 
L 137.233173 105.522536 
z
" clip-path="url(#p7c57be89d6)" style="fill: #ffffff; opacity: 0.7; stroke: #000000; stroke-linejoin: miter"/>
    </g>
    <g clip-path="url(#p7c57be89d6)">
     <!-- John Goodman -->
     <g transform="translate(141.193173 116.32113)scale(0.09 -0.09)">
      <defs>
       <path id="DejaVuSans-4a" d="M 628 4666 
L 1259 4666 
L 1259 325 
Q 1259 -519 939 -900 
Q 619 -1281 -91 -1281 
L -331 -1281 
L -331 -750 
L -134 -750 
Q 284 -750 456 -515 
Q 628 -281 628 325 
L 628 4666 
z
" transform="scale(0.015625)"/>
       <path id="DejaVuSans-6d" d="M 3328 2828 
Q 3544 3216 3844 3400 
Q 4144 3584 4550 3584 
Q 5097 3584 5394 3201 
Q 5691 2819 5691 2113 
L 5691 0 
L 5113 0 
L 5113 2094 
Q 5113 2597 4934 2840 
Q 4756 3084 4391 3084 
Q 3944 3084 3684 2787 
Q 3425 2491 3425 1978 
L 3425 0 
L 2847 0 
L 2847 2094 
Q 2847 2600 2669 2842 
Q 2491 3084 2119 3084 
Q 1678 3084 1418 2786 
Q 1159 2488 1159 1978 
L 1159 0 
L 581 0 
L 581 3500 
L 1159 3500 
L 1159 2956 
Q 1356 3278 1631 3431 
Q 1906 3584 2284 3584 
Q 2666 3584 2933 3390 
Q 3200 3197 3328 2828 
z
" transform="scale(0.015625)"/>
      </defs>
      <use xlink:href="#DejaVuSans-4a"/>
      <use xlink:href="#DejaVuSans-6f" x="29.492188"/>
      <use xlink:href="#DejaVuSans-68" x="90.673828"/>
      <use xlink:href="#DejaVuSans-6e" x="154.052734"/>
      <use xlink:href="#DejaVuSans-20" x="217.431641"/>
      <use xlink:href="#DejaVuSans-47" x="249.21875"/>
      <use xlink:href="#DejaVuSans-6f" x="326.708984"/>
      <use xlink:href="#DejaVuSans-6f" x="387.890625"/>
      <use xlink:href="#DejaVuSans-64" x="449.072266"/>
      <use xlink:href="#DejaVuSans-6d" x="512.548828"/>
      <use xlink:href="#DejaVuSans-61" x="609.960938"/>
      <use xlink:href="#DejaVuSans-6e" x="671.240234"/>
     </g>
    </g>
   </g>
   <g id="text_7">
    <g id="patch_8">
     <path d="M 73.064446 181.80901 
L 142.198508 181.80901 
L 142.198508 165.178697 
L 73.064446 165.178697 
z
" clip-path="url(#p7c57be89d6)" style="fill: #ffffff; opacity: 0.7; stroke: #000000; stroke-linejoin: miter"/>
    </g>
    <g clip-path="url(#p7c57be89d6)">
     <!-- Dennis Farina -->
     <g transform="translate(77.024446 175.977291)scale(0.09 -0.09)">
      <defs>
       <path id="DejaVuSans-44" d="M 1259 4147 
L 1259 519 
L 2022 519 
Q 2988 519 3436 956 
Q 3884 1394 3884 2338 
Q 3884 3275 3436 3711 
Q 2988 4147 2022 4147 
L 1259 4147 
z
M 628 4666 
L 1925 4666 
Q 3281 4666 3915 4102 
Q 4550 3538 4550 2338 
Q 4550 1131 3912 565 
Q 3275 0 1925 0 
L 628 0 
L 628 4666 
z
" transform="scale(0.015625)"/>
       <path id="DejaVuSans-46" d="M 628 4666 
L 3309 4666 
L 3309 4134 
L 1259 4134 
L 1259 2759 
L 3109 2759 
L 3109 2228 
L 1259 2228 
L 1259 0 
L 628 0 
L 628 4666 
z
" transform="scale(0.015625)"/>
      </defs>
      <use xlink:href="#DejaVuSans-44"/>
      <use xlink:href="#DejaVuSans-65" x="77.001953"/>
      <use xlink:href="#DejaVuSans-6e" x="138.525391"/>
      <use xlink:href="#DejaVuSans-6e" x="201.904297"/>
      <use xlink:href="#DejaVuSans-69" x="265.283203"/>
      <use xlink:href="#DejaVuSans-73" x="293.066406"/>
      <use xlink:href="#DejaVuSans-20" x="345.166016"/>
      <use xlink:href="#DejaVuSans-46" x="376.953125"/>
      <use xlink:href="#DejaVuSans-61" x="425.347656"/>
      <use xlink:href="#DejaVuSans-72" x="486.626953"/>
      <use xlink:href="#DejaVuSans-69" x="527.740234"/>
      <use xlink:href="#DejaVuSans-6e" x="555.523438"/>
      <use xlink:href="#DejaVuSans-61" x="618.902344"/>
     </g>
    </g>
   </g>
   <g id="text_8">
    <g id="patch_9">
     <path d="M 44.431496 263.25593 
L 97.906965 263.25593 
L 97.906965 246.625618 
L 44.431496 246.625618 
z
" clip-path="url(#p7c57be89d6)" style="fill: #ffffff; opacity: 0.7; stroke: #000000; stroke-linejoin: miter"/>
    </g>
    <g clip-path="url(#p7c57be89d6)">
     <!-- Joe Whyte -->
     <g transform="translate(48.391496 257.424211)scale(0.09 -0.09)">
      <use xlink:href="#DejaVuSans-4a"/>
      <use xlink:href="#DejaVuSans-6f" x="29.492188"/>
      <use xlink:href="#DejaVuSans-65" x="90.673828"/>
      <use xlink:href="#DejaVuSans-20" x="152.197266"/>
      <use xlink:href="#DejaVuSans-57" x="183.984375"/>
      <use xlink:href="#DejaVuSans-68" x="282.861328"/>
      <use xlink:href="#DejaVuSans-79" x="346.240234"/>
      <use xlink:href="#DejaVuSans-74" x="405.419922"/>
      <use xlink:href="#DejaVuSans-65" x="444.628906"/>
     </g>
    </g>
   </g>
   <g id="text_9">
    <g id="patch_10">
     <path d="M 41.719556 352.410671 
L 100.618931 352.410671 
L 100.618931 335.780358 
L 41.719556 335.780358 
z
" clip-path="url(#p7c57be89d6)" style="fill: #ffffff; opacity: 0.7; stroke: #000000; stroke-linejoin: miter"/>
    </g>
    <g clip-path="url(#p7c57be89d6)">
     <!-- Adam West -->
     <g transform="translate(45.679556 346.578952)scale(0.09 -0.09)">
      <defs>
       <path id="DejaVuSans-41" d="M 2188 4044 
L 1331 1722 
L 3047 1722 
L 2188 4044 
z
M 1831 4666 
L 2547 4666 
L 4325 0 
L 3669 0 
L 3244 1197 
L 1141 1197 
L 716 0 
L 50 0 
L 1831 4666 
z
" transform="scale(0.015625)"/>
      </defs>
      <use xlink:href="#DejaVuSans-41"/>
      <use xlink:href="#DejaVuSans-64" x="66.658203"/>
      <use xlink:href="#DejaVuSans-61" x="130.134766"/>
      <use xlink:href="#DejaVuSans-6d" x="191.414062"/>
      <use xlink:href="#DejaVuSans-20" x="288.826172"/>
      <use xlink:href="#DejaVuSans-57" x="320.613281"/>
      <use xlink:href="#DejaVuSans-65" x="413.615234"/>
      <use xlink:href="#DejaVuSans-73" x="475.138672"/>
      <use xlink:href="#DejaVuSans-74" x="527.238281"/>
     </g>
    </g>
   </g>
   <g id="text_10">
    <g id="patch_11">
     <path d="M 73.975709 433.857565 
L 141.287271 433.857565 
L 141.287271 417.227253 
L 73.975709 417.227253 
z
" clip-path="url(#p7c57be89d6)" style="fill: #ffffff; opacity: 0.7; stroke: #000000; stroke-linejoin: miter"/>
    </g>
    <g clip-path="url(#p7c57be89d6)">
     <!-- James Remar -->
     <g transform="translate(77.935709 428.025847)scale(0.09 -0.09)">
      <defs>
       <path id="DejaVuSans-52" d="M 2841 2188 
Q 3044 2119 3236 1894 
Q 3428 1669 3622 1275 
L 4263 0 
L 3584 0 
L 2988 1197 
Q 2756 1666 2539 1819 
Q 2322 1972 1947 1972 
L 1259 1972 
L 1259 0 
L 628 0 
L 628 4666 
L 2053 4666 
Q 2853 4666 3247 4331 
Q 3641 3997 3641 3322 
Q 3641 2881 3436 2590 
Q 3231 2300 2841 2188 
z
M 1259 4147 
L 1259 2491 
L 2053 2491 
Q 2509 2491 2742 2702 
Q 2975 2913 2975 3322 
Q 2975 3731 2742 3939 
Q 2509 4147 2053 4147 
L 1259 4147 
z
" transform="scale(0.015625)"/>
      </defs>
      <use xlink:href="#DejaVuSans-4a"/>
      <use xlink:href="#DejaVuSans-61" x="29.492188"/>
      <use xlink:href="#DejaVuSans-6d" x="90.771484"/>
      <use xlink:href="#DejaVuSans-65" x="188.183594"/>
      <use xlink:href="#DejaVuSans-73" x="249.707031"/>
      <use xlink:href="#DejaVuSans-20" x="301.806641"/>
      <use xlink:href="#DejaVuSans-52" x="333.59375"/>
      <use xlink:href="#DejaVuSans-65" x="398.576172"/>
      <use xlink:href="#DejaVuSans-6d" x="460.099609"/>
      <use xlink:href="#DejaVuSans-61" x="557.511719"/>
      <use xlink:href="#DejaVuSans-72" x="618.791016"/>
     </g>
    </g>
   </g>
   <g id="text_11">
    <g id="patch_12">
     <path d="M 146.67969 493.513727 
L 201.822971 493.513727 
L 201.822971 476.883414 
L 146.67969 476.883414 
z
" clip-path="url(#p7c57be89d6)" style="fill: #ffffff; opacity: 0.7; stroke: #000000; stroke-linejoin: miter"/>
    </g>
    <g clip-path="url(#p7c57be89d6)">
     <!-- Tyler Perry -->
     <g transform="translate(150.63969 487.682008)scale(0.09 -0.09)">
      <defs>
       <path id="DejaVuSans-54" d="M -19 4666 
L 3928 4666 
L 3928 4134 
L 2272 4134 
L 2272 0 
L 1638 0 
L 1638 4134 
L -19 4134 
L -19 4666 
z
" transform="scale(0.015625)"/>
       <path id="DejaVuSans-50" d="M 1259 4147 
L 1259 2394 
L 2053 2394 
Q 2494 2394 2734 2622 
Q 2975 2850 2975 3272 
Q 2975 3691 2734 3919 
Q 2494 4147 2053 4147 
L 1259 4147 
z
M 628 4666 
L 2053 4666 
Q 2838 4666 3239 4311 
Q 3641 3956 3641 3272 
Q 3641 2581 3239 2228 
Q 2838 1875 2053 1875 
L 1259 1875 
L 1259 0 
L 628 0 
L 628 4666 
z
" transform="scale(0.015625)"/>
      </defs>
      <use xlink:href="#DejaVuSans-54"/>
      <use xlink:href="#DejaVuSans-79" x="45.458984"/>
      <use xlink:href="#DejaVuSans-6c" x="104.638672"/>
      <use xlink:href="#DejaVuSans-65" x="132.421875"/>
      <use xlink:href="#DejaVuSans-72" x="193.945312"/>
      <use xlink:href="#DejaVuSans-20" x="235.058594"/>
      <use xlink:href="#DejaVuSans-50" x="266.845703"/>
      <use xlink:href="#DejaVuSans-65" x="323.523438"/>
      <use xlink:href="#DejaVuSans-72" x="385.046875"/>
      <use xlink:href="#DejaVuSans-72" x="424.410156"/>
      <use xlink:href="#DejaVuSans-79" x="465.523438"/>
     </g>
    </g>
   </g>
   <g id="text_12">
    <g id="patch_13">
     <path d="M 216.178103 521.06405 
L 302.841072 521.06405 
L 302.841072 504.433738 
L 216.178103 504.433738 
z
" clip-path="url(#p7c57be89d6)" style="fill: #ffffff; opacity: 0.7; stroke: #000000; stroke-linejoin: miter"/>
    </g>
    <g clip-path="url(#p7c57be89d6)">
     <!-- Sterling Holloway -->
     <g transform="translate(220.138103 515.232332)scale(0.09 -0.09)">
      <defs>
       <path id="DejaVuSans-48" d="M 628 4666 
L 1259 4666 
L 1259 2753 
L 3553 2753 
L 3553 4666 
L 4184 4666 
L 4184 0 
L 3553 0 
L 3553 2222 
L 1259 2222 
L 1259 0 
L 628 0 
L 628 4666 
z
" transform="scale(0.015625)"/>
       <path id="DejaVuSans-77" d="M 269 3500 
L 844 3500 
L 1563 769 
L 2278 3500 
L 2956 3500 
L 3675 769 
L 4391 3500 
L 4966 3500 
L 4050 0 
L 3372 0 
L 2619 2869 
L 1863 0 
L 1184 0 
L 269 3500 
z
" transform="scale(0.015625)"/>
      </defs>
      <use xlink:href="#DejaVuSans-53"/>
      <use xlink:href="#DejaVuSans-74" x="63.476562"/>
      <use xlink:href="#DejaVuSans-65" x="102.685547"/>
      <use xlink:href="#DejaVuSans-72" x="164.208984"/>
      <use xlink:href="#DejaVuSans-6c" x="205.322266"/>
      <use xlink:href="#DejaVuSans-69" x="233.105469"/>
      <use xlink:href="#DejaVuSans-6e" x="260.888672"/>
      <use xlink:href="#DejaVuSans-67" x="324.267578"/>
      <use xlink:href="#DejaVuSans-20" x="387.744141"/>
      <use xlink:href="#DejaVuSans-48" x="419.53125"/>
      <use xlink:href="#DejaVuSans-6f" x="494.726562"/>
      <use xlink:href="#DejaVuSans-6c" x="555.908203"/>
      <use xlink:href="#DejaVuSans-6c" x="583.691406"/>
      <use xlink:href="#DejaVuSans-6f" x="611.474609"/>
      <use xlink:href="#DejaVuSans-77" x="672.65625"/>
      <use xlink:href="#DejaVuSans-61" x="754.443359"/>
      <use xlink:href="#DejaVuSans-79" x="815.722656"/>
     </g>
    </g>
   </g>
   <g id="text_13">
    <g id="patch_14">
     <path d="M 304.09112 511.744831 
L 393.237526 511.744831 
L 393.237526 495.114518 
L 304.09112 495.114518 
z
" clip-path="url(#p7c57be89d6)" style="fill: #ffffff; opacity: 0.7; stroke: #000000; stroke-linejoin: miter"/>
    </g>
    <g clip-path="url(#p7c57be89d6)">
     <!-- Sylvester Stallone -->
     <g transform="translate(308.05112 505.913112)scale(0.09 -0.09)">
      <use xlink:href="#DejaVuSans-53"/>
      <use xlink:href="#DejaVuSans-79" x="63.476562"/>
      <use xlink:href="#DejaVuSans-6c" x="122.65625"/>
      <use xlink:href="#DejaVuSans-76" x="150.439453"/>
      <use xlink:href="#DejaVuSans-65" x="209.619141"/>
      <use xlink:href="#DejaVuSans-73" x="271.142578"/>
      <use xlink:href="#DejaVuSans-74" x="323.242188"/>
      <use xlink:href="#DejaVuSans-65" x="362.451172"/>
      <use xlink:href="#DejaVuSans-72" x="423.974609"/>
      <use xlink:href="#DejaVuSans-20" x="465.087891"/>
      <use xlink:href="#DejaVuSans-53" x="496.875"/>
      <use xlink:href="#DejaVuSans-74" x="560.351562"/>
      <use xlink:href="#DejaVuSans-61" x="599.560547"/>
      <use xlink:href="#DejaVuSans-6c" x="660.839844"/>
      <use xlink:href="#DejaVuSans-6c" x="688.623047"/>
      <use xlink:href="#DejaVuSans-6f" x="716.40625"/>
      <use xlink:href="#DejaVuSans-6e" x="777.587891"/>
      <use xlink:href="#DejaVuSans-65" x="840.966797"/>
     </g>
    </g>
   </g>
   <g id="text_14">
    <g id="patch_15">
     <path d="M 391.459342 467.167441 
L 461.140435 467.167441 
L 461.140435 450.537129 
L 391.459342 450.537129 
z
" clip-path="url(#p7c57be89d6)" style="fill: #ffffff; opacity: 0.7; stroke: #000000; stroke-linejoin: miter"/>
    </g>
    <g clip-path="url(#p7c57be89d6)">
     <!-- Cheech Marin -->
     <g transform="translate(395.419342 461.335723)scale(0.09 -0.09)">
      <defs>
       <path id="DejaVuSans-4d" d="M 628 4666 
L 1569 4666 
L 2759 1491 
L 3956 4666 
L 4897 4666 
L 4897 0 
L 4281 0 
L 4281 4097 
L 3078 897 
L 2444 897 
L 1241 4097 
L 1241 0 
L 628 0 
L 628 4666 
z
" transform="scale(0.015625)"/>
      </defs>
      <use xlink:href="#DejaVuSans-43"/>
      <use xlink:href="#DejaVuSans-68" x="69.824219"/>
      <use xlink:href="#DejaVuSans-65" x="133.203125"/>
      <use xlink:href="#DejaVuSans-65" x="194.726562"/>
      <use xlink:href="#DejaVuSans-63" x="256.25"/>
      <use xlink:href="#DejaVuSans-68" x="311.230469"/>
      <use xlink:href="#DejaVuSans-20" x="374.609375"/>
      <use xlink:href="#DejaVuSans-4d" x="406.396484"/>
      <use xlink:href="#DejaVuSans-61" x="492.675781"/>
      <use xlink:href="#DejaVuSans-72" x="553.955078"/>
      <use xlink:href="#DejaVuSans-69" x="595.068359"/>
      <use xlink:href="#DejaVuSans-6e" x="622.851562"/>
     </g>
    </g>
   </g>
   <g id="text_15">
    <g id="patch_16">
     <path d="M 429.339795 395.039741 
L 528.644952 395.039741 
L 528.644952 378.409428 
L 429.339795 378.409428 
z
" clip-path="url(#p7c57be89d6)" style="fill: #ffffff; opacity: 0.7; stroke: #000000; stroke-linejoin: miter"/>
    </g>
    <g clip-path="url(#p7c57be89d6)">
     <!-- Stephen J. Anderson -->
     <g transform="translate(433.299795 389.208022)scale(0.09 -0.09)">
      <defs>
       <path id="DejaVuSans-70" d="M 1159 525 
L 1159 -1331 
L 581 -1331 
L 581 3500 
L 1159 3500 
L 1159 2969 
Q 1341 3281 1617 3432 
Q 1894 3584 2278 3584 
Q 2916 3584 3314 3078 
Q 3713 2572 3713 1747 
Q 3713 922 3314 415 
Q 2916 -91 2278 -91 
Q 1894 -91 1617 61 
Q 1341 213 1159 525 
z
M 3116 1747 
Q 3116 2381 2855 2742 
Q 2594 3103 2138 3103 
Q 1681 3103 1420 2742 
Q 1159 2381 1159 1747 
Q 1159 1113 1420 752 
Q 1681 391 2138 391 
Q 2594 391 2855 752 
Q 3116 1113 3116 1747 
z
" transform="scale(0.015625)"/>
       <path id="DejaVuSans-2e" d="M 684 794 
L 1344 794 
L 1344 0 
L 684 0 
L 684 794 
z
" transform="scale(0.015625)"/>
      </defs>
      <use xlink:href="#DejaVuSans-53"/>
      <use xlink:href="#DejaVuSans-74" x="63.476562"/>
      <use xlink:href="#DejaVuSans-65" x="102.685547"/>
      <use xlink:href="#DejaVuSans-70" x="164.208984"/>
      <use xlink:href="#DejaVuSans-68" x="227.685547"/>
      <use xlink:href="#DejaVuSans-65" x="291.064453"/>
      <use xlink:href="#DejaVuSans-6e" x="352.587891"/>
      <use xlink:href="#DejaVuSans-20" x="415.966797"/>
      <use xlink:href="#DejaVuSans-4a" x="447.753906"/>
      <use xlink:href="#DejaVuSans-2e" x="477.246094"/>
      <use xlink:href="#DejaVuSans-20" x="509.033203"/>
      <use xlink:href="#DejaVuSans-41" x="540.820312"/>
      <use xlink:href="#DejaVuSans-6e" x="609.228516"/>
      <use xlink:href="#DejaVuSans-64" x="672.607422"/>
      <use xlink:href="#DejaVuSans-65" x="736.083984"/>
      <use xlink:href="#DejaVuSans-72" x="797.607422"/>
      <use xlink:href="#DejaVuSans-73" x="838.720703"/>
      <use xlink:href="#DejaVuSans-6f" x="890.820312"/>
      <use xlink:href="#DejaVuSans-6e" x="952.001953"/>
     </g>
    </g>
   </g>
   <g id="text_16">
    <!-- Impactful actors for World cinema genre -->
    <g transform="translate(163.18875 16.318125)scale(0.12 -0.12)">
     <defs>
      <path id="DejaVuSans-66" d="M 2375 4863 
L 2375 4384 
L 1825 4384 
Q 1516 4384 1395 4259 
Q 1275 4134 1275 3809 
L 1275 3500 
L 2222 3500 
L 2222 3053 
L 1275 3053 
L 1275 0 
L 697 0 
L 697 3053 
L 147 3053 
L 147 3500 
L 697 3500 
L 697 3744 
Q 697 4328 969 4595 
Q 1241 4863 1831 4863 
L 2375 4863 
z
" transform="scale(0.015625)"/>
     </defs>
     <use xlink:href="#DejaVuSans-49"/>
     <use xlink:href="#DejaVuSans-6d" x="29.492188"/>
     <use xlink:href="#DejaVuSans-70" x="126.904297"/>
     <use xlink:href="#DejaVuSans-61" x="190.380859"/>
     <use xlink:href="#DejaVuSans-63" x="251.660156"/>
     <use xlink:href="#DejaVuSans-74" x="306.640625"/>
     <use xlink:href="#DejaVuSans-66" x="345.849609"/>
     <use xlink:href="#DejaVuSans-75" x="381.054688"/>
     <use xlink:href="#DejaVuSans-6c" x="444.433594"/>
     <use xlink:href="#DejaVuSans-20" x="472.216797"/>
     <use xlink:href="#DejaVuSans-61" x="504.003906"/>
     <use xlink:href="#DejaVuSans-63" x="565.283203"/>
     <use xlink:href="#DejaVuSans-74" x="620.263672"/>
     <use xlink:href="#DejaVuSans-6f" x="659.472656"/>
     <use xlink:href="#DejaVuSans-72" x="720.654297"/>
     <use xlink:href="#DejaVuSans-73" x="761.767578"/>
     <use xlink:href="#DejaVuSans-20" x="813.867188"/>
     <use xlink:href="#DejaVuSans-66" x="845.654297"/>
     <use xlink:href="#DejaVuSans-6f" x="880.859375"/>
     <use xlink:href="#DejaVuSans-72" x="942.041016"/>
     <use xlink:href="#DejaVuSans-20" x="983.154297"/>
     <use xlink:href="#DejaVuSans-57" x="1014.941406"/>
     <use xlink:href="#DejaVuSans-6f" x="1107.943359"/>
     <use xlink:href="#DejaVuSans-72" x="1169.125"/>
     <use xlink:href="#DejaVuSans-6c" x="1210.238281"/>
     <use xlink:href="#DejaVuSans-64" x="1238.021484"/>
     <use xlink:href="#DejaVuSans-20" x="1301.498047"/>
     <use xlink:href="#DejaVuSans-63" x="1333.285156"/>
     <use xlink:href="#DejaVuSans-69" x="1388.265625"/>
     <use xlink:href="#DejaVuSans-6e" x="1416.048828"/>
     <use xlink:href="#DejaVuSans-65" x="1479.427734"/>
     <use xlink:href="#DejaVuSans-6d" x="1540.951172"/>
     <use xlink:href="#DejaVuSans-61" x="1638.363281"/>
     <use xlink:href="#DejaVuSans-20" x="1699.642578"/>
     <use xlink:href="#DejaVuSans-67" x="1731.429688"/>
     <use xlink:href="#DejaVuSans-65" x="1794.90625"/>
     <use xlink:href="#DejaVuSans-6e" x="1856.429688"/>
     <use xlink:href="#DejaVuSans-72" x="1919.808594"/>
     <use xlink:href="#DejaVuSans-65" x="1958.671875"/>
    </g>
   </g>
  </g>
 </g>
 <defs>
  <clipPath id="p7c57be89d6">
   <rect x="7.2" y="22.318125" width="554.4" height="554.4"/>
  </clipPath>
 </defs>
</svg>
