<?xml version="1.0" encoding="utf-8" standalone="no"?>
<!DOCTYPE svg PUBLIC "-//W3C//DTD SVG 1.1//EN"
  "http://www.w3.org/Graphics/SVG/1.1/DTD/svg11.dtd">
<svg xmlns:xlink="http://www.w3.org/1999/xlink" width="568.8pt" height="583.918125pt" viewBox="0 0 568.8 583.918125" xmlns="http://www.w3.org/2000/svg" version="1.1">
 <metadata>
  <rdf:RDF xmlns:dc="http://purl.org/dc/elements/1.1/" xmlns:cc="http://creativecommons.org/ns#" xmlns:rdf="http://www.w3.org/1999/02/22-rdf-syntax-ns#">
   <cc:Work>
    <dc:type rdf:resource="http://purl.org/dc/dcmitype/StillImage"/>
    <dc:date>2022-12-23T19:50:06.180207</dc:date>
    <dc:format>image/svg+xml</dc:format>
    <dc:creator>
     <cc:Agent>
      <dc:title>Matplotlib v3.5.3, https://matplotlib.org/</dc:title>
     </cc:Agent>
    </dc:creator>
   </cc:Work>
  </rdf:RDF>
 </metadata>
 <defs>
  <style type="text/css">*{stroke-linejoin: round; stroke-linecap: butt}</style>
 </defs>
 <g id="figure_1">
  <g id="patch_1">
   <path d="M 0 583.918125 
L 568.8 583.918125 
L 568.8 0 
L 0 0 
z
" style="fill: #ffffff"/>
  </g>
  <g id="axes_1">
   <g id="LineCollection_1">
    <path d="M 464.4 257.025891 
L 265.396901 257.025891 
" clip-path="url(#p4415b525da)" style="fill: none; stroke: #000000; stroke-opacity: 0.3; stroke-width: 16"/>
    <path d="M 265.396901 257.025891 
L 104.4 119.518125 
" clip-path="url(#p4415b525da)" style="fill: none; stroke: #000000; stroke-opacity: 0.3; stroke-width: 10.429589"/>
    <path d="M 265.396901 257.025891 
L 326.892262 479.518125 
" clip-path="url(#p4415b525da)" style="fill: none; stroke: #000000; stroke-opacity: 0.3; stroke-width: 8"/>
    <path d="M 265.396901 257.025891 
L 104.400012 394.533671 
" clip-path="url(#p4415b525da)" style="fill: none; stroke: #000000; stroke-opacity: 0.3; stroke-width: 14.011492"/>
   </g>
   <g id="PathCollection_1">
    <path d="M 464.4 283.483404 
C 471.416614 283.483404 478.146791 280.695674 483.108287 275.734178 
C 488.069783 270.772682 490.857513 264.042506 490.857513 257.025891 
C 490.857513 250.009277 488.069783 243.2791 483.108287 238.317604 
C 478.146791 233.356108 471.416614 230.568378 464.4 230.568378 
C 457.383386 230.568378 450.653209 233.356108 445.691713 238.317604 
C 440.730217 243.2791 437.942487 250.009277 437.942487 257.025891 
C 437.942487 264.042506 440.730217 270.772682 445.691713 275.734178 
C 450.653209 280.695674 457.383386 283.483404 464.4 283.483404 
z
" clip-path="url(#p4415b525da)" style="fill: #c70039; fill-opacity: 0.99; stroke: #c70039; stroke-opacity: 0.99"/>
    <path d="M 265.396901 281.643463 
C 271.925558 281.643463 278.187696 279.049601 282.804154 274.433143 
C 287.420611 269.816686 290.014474 263.554548 290.014474 257.025891 
C 290.014474 250.497235 287.420611 244.235096 282.804154 239.618639 
C 278.187696 235.002181 271.925558 232.408319 265.396901 232.408319 
C 258.868245 232.408319 252.606106 235.002181 247.989649 239.618639 
C 243.373192 244.235096 240.779329 250.497235 240.779329 257.025891 
C 240.779329 263.554548 243.373192 269.816686 247.989649 274.433143 
C 252.606106 279.049601 258.868245 281.643463 265.396901 281.643463 
z
" clip-path="url(#p4415b525da)" style="fill: #c70039; fill-opacity: 0.99; stroke: #c70039; stroke-opacity: 0.99"/>
    <path d="M 104.4 142.0797 
C 110.3834 142.0797 116.12254 139.70247 120.353443 135.471568 
C 124.584345 131.240665 126.961575 125.501525 126.961575 119.518125 
C 126.961575 113.534725 124.584345 107.795585 120.353443 103.564682 
C 116.12254 99.33378 110.3834 96.95655 104.4 96.95655 
C 98.4166 96.95655 92.67746 99.33378 88.446557 103.564682 
C 84.215655 107.795585 81.838425 113.534725 81.838425 119.518125 
C 81.838425 125.501525 84.215655 131.240665 88.446557 135.471568 
C 92.67746 139.70247 98.4166 142.0797 104.4 142.0797 
z
" clip-path="url(#p4415b525da)" style="fill: #c70039; fill-opacity: 0.99; stroke: #c70039; stroke-opacity: 0.99"/>
    <path d="M 104.400012 416.731101 
C 110.286839 416.731101 115.93335 414.39224 120.095965 410.229624 
C 124.258581 406.067009 126.597442 400.420498 126.597442 394.533671 
C 126.597442 388.646844 124.258581 383.000333 120.095965 378.837718 
C 115.93335 374.675102 110.286839 372.336241 104.400012 372.336241 
C 98.513185 372.336241 92.866674 374.675102 88.704059 378.837718 
C 84.541443 383.000333 82.202582 388.646844 82.202582 394.533671 
C 82.202582 400.420498 84.541443 406.067009 88.704059 410.229624 
C 92.866674 414.39224 98.513185 416.731101 104.400012 416.731101 
z
" clip-path="url(#p4415b525da)" style="fill: #c70039; fill-opacity: 0.99; stroke: #c70039; stroke-opacity: 0.99"/>
    <path d="M 326.892262 498.226412 
C 331.853758 498.226412 336.612711 496.255189 340.121018 492.746882 
C 343.629326 489.238574 345.600549 484.479621 345.600549 479.518125 
C 345.600549 474.556629 343.629326 469.797676 340.121018 466.289368 
C 336.612711 462.781061 331.853758 460.809838 326.892262 460.809838 
C 321.930766 460.809838 317.171813 462.781061 313.663505 466.289368 
C 310.155198 469.797676 308.183975 474.556629 308.183975 479.518125 
C 308.183975 484.479621 310.155198 489.238574 313.663505 492.746882 
C 317.171813 496.255189 321.930766 498.226412 326.892262 498.226412 
z
" clip-path="url(#p4415b525da)" style="fill: #c70039; fill-opacity: 0.99; stroke: #c70039; stroke-opacity: 0.99"/>
   </g>
   <g id="text_1">
    <g id="patch_2">
     <path d="M 445.226484 265.341047 
L 483.573516 265.341047 
L 483.573516 248.710735 
L 445.226484 248.710735 
z
" clip-path="url(#p4415b525da)" style="fill: #ffffff; opacity: 0.7; stroke: #000000; stroke-linejoin: miter"/>
    </g>
    <g clip-path="url(#p4415b525da)">
     <!-- Drama -->
     <g transform="translate(449.186484 259.509329)scale(0.09 -0.09)">
      <defs>
       <path id="DejaVuSans-44" d="M 1259 4147 
L 1259 519 
L 2022 519 
Q 2988 519 3436 956 
Q 3884 1394 3884 2338 
Q 3884 3275 3436 3711 
Q 2988 4147 2022 4147 
L 1259 4147 
z
M 628 4666 
L 1925 4666 
Q 3281 4666 3915 4102 
Q 4550 3538 4550 2338 
Q 4550 1131 3912 565 
Q 3275 0 1925 0 
L 628 0 
L 628 4666 
z
" transform="scale(0.015625)"/>
       <path id="DejaVuSans-72" d="M 2631 2963 
Q 2534 3019 2420 3045 
Q 2306 3072 2169 3072 
Q 1681 3072 1420 2755 
Q 1159 2438 1159 1844 
L 1159 0 
L 581 0 
L 581 3500 
L 1159 3500 
L 1159 2956 
Q 1341 3275 1631 3429 
Q 1922 3584 2338 3584 
Q 2397 3584 2469 3576 
Q 2541 3569 2628 3553 
L 2631 2963 
z
" transform="scale(0.015625)"/>
       <path id="DejaVuSans-61" d="M 2194 1759 
Q 1497 1759 1228 1600 
Q 959 1441 959 1056 
Q 959 750 1161 570 
Q 1363 391 1709 391 
Q 2188 391 2477 730 
Q 2766 1069 2766 1631 
L 2766 1759 
L 2194 1759 
z
M 3341 1997 
L 3341 0 
L 2766 0 
L 2766 531 
Q 2569 213 2275 61 
Q 1981 -91 1556 -91 
Q 1019 -91 701 211 
Q 384 513 384 1019 
Q 384 1609 779 1909 
Q 1175 2209 1959 2209 
L 2766 2209 
L 2766 2266 
Q 2766 2663 2505 2880 
Q 2244 3097 1772 3097 
Q 1472 3097 1187 3025 
Q 903 2953 641 2809 
L 641 3341 
Q 956 3463 1253 3523 
Q 1550 3584 1831 3584 
Q 2591 3584 2966 3190 
Q 3341 2797 3341 1997 
z
" transform="scale(0.015625)"/>
       <path id="DejaVuSans-6d" d="M 3328 2828 
Q 3544 3216 3844 3400 
Q 4144 3584 4550 3584 
Q 5097 3584 5394 3201 
Q 5691 2819 5691 2113 
L 5691 0 
L 5113 0 
L 5113 2094 
Q 5113 2597 4934 2840 
Q 4756 3084 4391 3084 
Q 3944 3084 3684 2787 
Q 3425 2491 3425 1978 
L 3425 0 
L 2847 0 
L 2847 2094 
Q 2847 2600 2669 2842 
Q 2491 3084 2119 3084 
Q 1678 3084 1418 2786 
Q 1159 2488 1159 1978 
L 1159 0 
L 581 0 
L 581 3500 
L 1159 3500 
L 1159 2956 
Q 1356 3278 1631 3431 
Q 1906 3584 2284 3584 
Q 2666 3584 2933 3390 
Q 3200 3197 3328 2828 
z
" transform="scale(0.015625)"/>
      </defs>
      <use xlink:href="#DejaVuSans-44"/>
      <use xlink:href="#DejaVuSans-72" x="77.001953"/>
      <use xlink:href="#DejaVuSans-61" x="118.115234"/>
      <use xlink:href="#DejaVuSans-6d" x="179.394531"/>
      <use xlink:href="#DejaVuSans-61" x="276.806641"/>
     </g>
    </g>
   </g>
   <g id="text_2">
    <g id="patch_3">
     <path d="M 225.232995 265.341047 
L 305.560807 265.341047 
L 305.560807 248.710735 
L 225.232995 248.710735 
z
" clip-path="url(#p4415b525da)" style="fill: #ffffff; opacity: 0.7; stroke: #000000; stroke-linejoin: miter"/>
    </g>
    <g clip-path="url(#p4415b525da)">
     <!-- Black-and-white -->
     <g transform="translate(229.192995 259.509329)scale(0.09 -0.09)">
      <defs>
       <path id="DejaVuSans-42" d="M 1259 2228 
L 1259 519 
L 2272 519 
Q 2781 519 3026 730 
Q 3272 941 3272 1375 
Q 3272 1813 3026 2020 
Q 2781 2228 2272 2228 
L 1259 2228 
z
M 1259 4147 
L 1259 2741 
L 2194 2741 
Q 2656 2741 2882 2914 
Q 3109 3088 3109 3444 
Q 3109 3797 2882 3972 
Q 2656 4147 2194 4147 
L 1259 4147 
z
M 628 4666 
L 2241 4666 
Q 2963 4666 3353 4366 
Q 3744 4066 3744 3513 
Q 3744 3084 3544 2831 
Q 3344 2578 2956 2516 
Q 3422 2416 3680 2098 
Q 3938 1781 3938 1306 
Q 3938 681 3513 340 
Q 3088 0 2303 0 
L 628 0 
L 628 4666 
z
" transform="scale(0.015625)"/>
       <path id="DejaVuSans-6c" d="M 603 4863 
L 1178 4863 
L 1178 0 
L 603 0 
L 603 4863 
z
" transform="scale(0.015625)"/>
       <path id="DejaVuSans-63" d="M 3122 3366 
L 3122 2828 
Q 2878 2963 2633 3030 
Q 2388 3097 2138 3097 
Q 1578 3097 1268 2742 
Q 959 2388 959 1747 
Q 959 1106 1268 751 
Q 1578 397 2138 397 
Q 2388 397 2633 464 
Q 2878 531 3122 666 
L 3122 134 
Q 2881 22 2623 -34 
Q 2366 -91 2075 -91 
Q 1284 -91 818 406 
Q 353 903 353 1747 
Q 353 2603 823 3093 
Q 1294 3584 2113 3584 
Q 2378 3584 2631 3529 
Q 2884 3475 3122 3366 
z
" transform="scale(0.015625)"/>
       <path id="DejaVuSans-6b" d="M 581 4863 
L 1159 4863 
L 1159 1991 
L 2875 3500 
L 3609 3500 
L 1753 1863 
L 3688 0 
L 2938 0 
L 1159 1709 
L 1159 0 
L 581 0 
L 581 4863 
z
" transform="scale(0.015625)"/>
       <path id="DejaVuSans-2d" d="M 313 2009 
L 1997 2009 
L 1997 1497 
L 313 1497 
L 313 2009 
z
" transform="scale(0.015625)"/>
       <path id="DejaVuSans-6e" d="M 3513 2113 
L 3513 0 
L 2938 0 
L 2938 2094 
Q 2938 2591 2744 2837 
Q 2550 3084 2163 3084 
Q 1697 3084 1428 2787 
Q 1159 2491 1159 1978 
L 1159 0 
L 581 0 
L 581 3500 
L 1159 3500 
L 1159 2956 
Q 1366 3272 1645 3428 
Q 1925 3584 2291 3584 
Q 2894 3584 3203 3211 
Q 3513 2838 3513 2113 
z
" transform="scale(0.015625)"/>
       <path id="DejaVuSans-64" d="M 2906 2969 
L 2906 4863 
L 3481 4863 
L 3481 0 
L 2906 0 
L 2906 525 
Q 2725 213 2448 61 
Q 2172 -91 1784 -91 
Q 1150 -91 751 415 
Q 353 922 353 1747 
Q 353 2572 751 3078 
Q 1150 3584 1784 3584 
Q 2172 3584 2448 3432 
Q 2725 3281 2906 2969 
z
M 947 1747 
Q 947 1113 1208 752 
Q 1469 391 1925 391 
Q 2381 391 2643 752 
Q 2906 1113 2906 1747 
Q 2906 2381 2643 2742 
Q 2381 3103 1925 3103 
Q 1469 3103 1208 2742 
Q 947 2381 947 1747 
z
" transform="scale(0.015625)"/>
       <path id="DejaVuSans-77" d="M 269 3500 
L 844 3500 
L 1563 769 
L 2278 3500 
L 2956 3500 
L 3675 769 
L 4391 3500 
L 4966 3500 
L 4050 0 
L 3372 0 
L 2619 2869 
L 1863 0 
L 1184 0 
L 269 3500 
z
" transform="scale(0.015625)"/>
       <path id="DejaVuSans-68" d="M 3513 2113 
L 3513 0 
L 2938 0 
L 2938 2094 
Q 2938 2591 2744 2837 
Q 2550 3084 2163 3084 
Q 1697 3084 1428 2787 
Q 1159 2491 1159 1978 
L 1159 0 
L 581 0 
L 581 4863 
L 1159 4863 
L 1159 2956 
Q 1366 3272 1645 3428 
Q 1925 3584 2291 3584 
Q 2894 3584 3203 3211 
Q 3513 2838 3513 2113 
z
" transform="scale(0.015625)"/>
       <path id="DejaVuSans-69" d="M 603 3500 
L 1178 3500 
L 1178 0 
L 603 0 
L 603 3500 
z
M 603 4863 
L 1178 4863 
L 1178 4134 
L 603 4134 
L 603 4863 
z
" transform="scale(0.015625)"/>
       <path id="DejaVuSans-74" d="M 1172 4494 
L 1172 3500 
L 2356 3500 
L 2356 3053 
L 1172 3053 
L 1172 1153 
Q 1172 725 1289 603 
Q 1406 481 1766 481 
L 2356 481 
L 2356 0 
L 1766 0 
Q 1100 0 847 248 
Q 594 497 594 1153 
L 594 3053 
L 172 3053 
L 172 3500 
L 594 3500 
L 594 4494 
L 1172 4494 
z
" transform="scale(0.015625)"/>
       <path id="DejaVuSans-65" d="M 3597 1894 
L 3597 1613 
L 953 1613 
Q 991 1019 1311 708 
Q 1631 397 2203 397 
Q 2534 397 2845 478 
Q 3156 559 3463 722 
L 3463 178 
Q 3153 47 2828 -22 
Q 2503 -91 2169 -91 
Q 1331 -91 842 396 
Q 353 884 353 1716 
Q 353 2575 817 3079 
Q 1281 3584 2069 3584 
Q 2775 3584 3186 3129 
Q 3597 2675 3597 1894 
z
M 3022 2063 
Q 3016 2534 2758 2815 
Q 2500 3097 2075 3097 
Q 1594 3097 1305 2825 
Q 1016 2553 972 2059 
L 3022 2063 
z
" transform="scale(0.015625)"/>
      </defs>
      <use xlink:href="#DejaVuSans-42"/>
      <use xlink:href="#DejaVuSans-6c" x="68.603516"/>
      <use xlink:href="#DejaVuSans-61" x="96.386719"/>
      <use xlink:href="#DejaVuSans-63" x="157.666016"/>
      <use xlink:href="#DejaVuSans-6b" x="212.646484"/>
      <use xlink:href="#DejaVuSans-2d" x="270.556641"/>
      <use xlink:href="#DejaVuSans-61" x="306.640625"/>
      <use xlink:href="#DejaVuSans-6e" x="367.919922"/>
      <use xlink:href="#DejaVuSans-64" x="431.298828"/>
      <use xlink:href="#DejaVuSans-2d" x="494.775391"/>
      <use xlink:href="#DejaVuSans-77" x="530.859375"/>
      <use xlink:href="#DejaVuSans-68" x="612.646484"/>
      <use xlink:href="#DejaVuSans-69" x="676.025391"/>
      <use xlink:href="#DejaVuSans-74" x="703.808594"/>
      <use xlink:href="#DejaVuSans-65" x="743.017578"/>
     </g>
    </g>
   </g>
   <g id="text_3">
    <g id="patch_4">
     <path d="M 81.871875 127.833281 
L 126.928125 127.833281 
L 126.928125 111.202969 
L 81.871875 111.202969 
z
" clip-path="url(#p4415b525da)" style="fill: #ffffff; opacity: 0.7; stroke: #000000; stroke-linejoin: miter"/>
    </g>
    <g clip-path="url(#p4415b525da)">
     <!-- Comedy -->
     <g transform="translate(85.831875 122.001562)scale(0.09 -0.09)">
      <defs>
       <path id="DejaVuSans-43" d="M 4122 4306 
L 4122 3641 
Q 3803 3938 3442 4084 
Q 3081 4231 2675 4231 
Q 1875 4231 1450 3742 
Q 1025 3253 1025 2328 
Q 1025 1406 1450 917 
Q 1875 428 2675 428 
Q 3081 428 3442 575 
Q 3803 722 4122 1019 
L 4122 359 
Q 3791 134 3420 21 
Q 3050 -91 2638 -91 
Q 1578 -91 968 557 
Q 359 1206 359 2328 
Q 359 3453 968 4101 
Q 1578 4750 2638 4750 
Q 3056 4750 3426 4639 
Q 3797 4528 4122 4306 
z
" transform="scale(0.015625)"/>
       <path id="DejaVuSans-6f" d="M 1959 3097 
Q 1497 3097 1228 2736 
Q 959 2375 959 1747 
Q 959 1119 1226 758 
Q 1494 397 1959 397 
Q 2419 397 2687 759 
Q 2956 1122 2956 1747 
Q 2956 2369 2687 2733 
Q 2419 3097 1959 3097 
z
M 1959 3584 
Q 2709 3584 3137 3096 
Q 3566 2609 3566 1747 
Q 3566 888 3137 398 
Q 2709 -91 1959 -91 
Q 1206 -91 779 398 
Q 353 888 353 1747 
Q 353 2609 779 3096 
Q 1206 3584 1959 3584 
z
" transform="scale(0.015625)"/>
       <path id="DejaVuSans-79" d="M 2059 -325 
Q 1816 -950 1584 -1140 
Q 1353 -1331 966 -1331 
L 506 -1331 
L 506 -850 
L 844 -850 
Q 1081 -850 1212 -737 
Q 1344 -625 1503 -206 
L 1606 56 
L 191 3500 
L 800 3500 
L 1894 763 
L 2988 3500 
L 3597 3500 
L 2059 -325 
z
" transform="scale(0.015625)"/>
      </defs>
      <use xlink:href="#DejaVuSans-43"/>
      <use xlink:href="#DejaVuSans-6f" x="69.824219"/>
      <use xlink:href="#DejaVuSans-6d" x="131.005859"/>
      <use xlink:href="#DejaVuSans-65" x="228.417969"/>
      <use xlink:href="#DejaVuSans-64" x="289.941406"/>
      <use xlink:href="#DejaVuSans-79" x="353.417969"/>
     </g>
    </g>
   </g>
   <g id="text_4">
    <g id="patch_5">
     <path d="M 84.620402 402.848827 
L 124.179621 402.848827 
L 124.179621 386.218515 
L 84.620402 386.218515 
z
" clip-path="url(#p4415b525da)" style="fill: #ffffff; opacity: 0.7; stroke: #000000; stroke-linejoin: miter"/>
    </g>
    <g clip-path="url(#p4415b525da)">
     <!-- Thriller -->
     <g transform="translate(88.580402 397.017109)scale(0.09 -0.09)">
      <defs>
       <path id="DejaVuSans-54" d="M -19 4666 
L 3928 4666 
L 3928 4134 
L 2272 4134 
L 2272 0 
L 1638 0 
L 1638 4134 
L -19 4134 
L -19 4666 
z
" transform="scale(0.015625)"/>
      </defs>
      <use xlink:href="#DejaVuSans-54"/>
      <use xlink:href="#DejaVuSans-68" x="61.083984"/>
      <use xlink:href="#DejaVuSans-72" x="124.462891"/>
      <use xlink:href="#DejaVuSans-69" x="165.576172"/>
      <use xlink:href="#DejaVuSans-6c" x="193.359375"/>
      <use xlink:href="#DejaVuSans-6c" x="221.142578"/>
      <use xlink:href="#DejaVuSans-65" x="248.925781"/>
      <use xlink:href="#DejaVuSans-72" x="310.449219"/>
     </g>
    </g>
   </g>
   <g id="text_5">
    <g id="patch_6">
     <path d="M 291.442809 487.833281 
L 362.341715 487.833281 
L 362.341715 471.202969 
L 291.442809 471.202969 
z
" clip-path="url(#p4415b525da)" style="fill: #ffffff; opacity: 0.7; stroke: #000000; stroke-linejoin: miter"/>
    </g>
    <g clip-path="url(#p4415b525da)">
     <!-- Romance Film -->
     <g transform="translate(295.402809 482.001562)scale(0.09 -0.09)">
      <defs>
       <path id="DejaVuSans-52" d="M 2841 2188 
Q 3044 2119 3236 1894 
Q 3428 1669 3622 1275 
L 4263 0 
L 3584 0 
L 2988 1197 
Q 2756 1666 2539 1819 
Q 2322 1972 1947 1972 
L 1259 1972 
L 1259 0 
L 628 0 
L 628 4666 
L 2053 4666 
Q 2853 4666 3247 4331 
Q 3641 3997 3641 3322 
Q 3641 2881 3436 2590 
Q 3231 2300 2841 2188 
z
M 1259 4147 
L 1259 2491 
L 2053 2491 
Q 2509 2491 2742 2702 
Q 2975 2913 2975 3322 
Q 2975 3731 2742 3939 
Q 2509 4147 2053 4147 
L 1259 4147 
z
" transform="scale(0.015625)"/>
       <path id="DejaVuSans-20" transform="scale(0.015625)"/>
       <path id="DejaVuSans-46" d="M 628 4666 
L 3309 4666 
L 3309 4134 
L 1259 4134 
L 1259 2759 
L 3109 2759 
L 3109 2228 
L 1259 2228 
L 1259 0 
L 628 0 
L 628 4666 
z
" transform="scale(0.015625)"/>
      </defs>
      <use xlink:href="#DejaVuSans-52"/>
      <use xlink:href="#DejaVuSans-6f" x="64.982422"/>
      <use xlink:href="#DejaVuSans-6d" x="126.164062"/>
      <use xlink:href="#DejaVuSans-61" x="223.576172"/>
      <use xlink:href="#DejaVuSans-6e" x="284.855469"/>
      <use xlink:href="#DejaVuSans-63" x="348.234375"/>
      <use xlink:href="#DejaVuSans-65" x="403.214844"/>
      <use xlink:href="#DejaVuSans-20" x="464.738281"/>
      <use xlink:href="#DejaVuSans-46" x="496.525391"/>
      <use xlink:href="#DejaVuSans-69" x="546.794922"/>
      <use xlink:href="#DejaVuSans-6c" x="574.578125"/>
      <use xlink:href="#DejaVuSans-6d" x="602.361328"/>
     </g>
    </g>
   </g>
   <g id="text_6">
    <!-- Impactful genre combination for Black-and-white genre - Importance rank: 6 -->
    <g transform="translate(54.659062 16.318125)scale(0.12 -0.12)">
     <defs>
      <path id="DejaVuSans-49" d="M 628 4666 
L 1259 4666 
L 1259 0 
L 628 0 
L 628 4666 
z
" transform="scale(0.015625)"/>
      <path id="DejaVuSans-70" d="M 1159 525 
L 1159 -1331 
L 581 -1331 
L 581 3500 
L 1159 3500 
L 1159 2969 
Q 1341 3281 1617 3432 
Q 1894 3584 2278 3584 
Q 2916 3584 3314 3078 
Q 3713 2572 3713 1747 
Q 3713 922 3314 415 
Q 2916 -91 2278 -91 
Q 1894 -91 1617 61 
Q 1341 213 1159 525 
z
M 3116 1747 
Q 3116 2381 2855 2742 
Q 2594 3103 2138 3103 
Q 1681 3103 1420 2742 
Q 1159 2381 1159 1747 
Q 1159 1113 1420 752 
Q 1681 391 2138 391 
Q 2594 391 2855 752 
Q 3116 1113 3116 1747 
z
" transform="scale(0.015625)"/>
      <path id="DejaVuSans-66" d="M 2375 4863 
L 2375 4384 
L 1825 4384 
Q 1516 4384 1395 4259 
Q 1275 4134 1275 3809 
L 1275 3500 
L 2222 3500 
L 2222 3053 
L 1275 3053 
L 1275 0 
L 697 0 
L 697 3053 
L 147 3053 
L 147 3500 
L 697 3500 
L 697 3744 
Q 697 4328 969 4595 
Q 1241 4863 1831 4863 
L 2375 4863 
z
" transform="scale(0.015625)"/>
      <path id="DejaVuSans-75" d="M 544 1381 
L 544 3500 
L 1119 3500 
L 1119 1403 
Q 1119 906 1312 657 
Q 1506 409 1894 409 
Q 2359 409 2629 706 
Q 2900 1003 2900 1516 
L 2900 3500 
L 3475 3500 
L 3475 0 
L 2900 0 
L 2900 538 
Q 2691 219 2414 64 
Q 2138 -91 1772 -91 
Q 1169 -91 856 284 
Q 544 659 544 1381 
z
M 1991 3584 
L 1991 3584 
z
" transform="scale(0.015625)"/>
      <path id="DejaVuSans-67" d="M 2906 1791 
Q 2906 2416 2648 2759 
Q 2391 3103 1925 3103 
Q 1463 3103 1205 2759 
Q 947 2416 947 1791 
Q 947 1169 1205 825 
Q 1463 481 1925 481 
Q 2391 481 2648 825 
Q 2906 1169 2906 1791 
z
M 3481 434 
Q 3481 -459 3084 -895 
Q 2688 -1331 1869 -1331 
Q 1566 -1331 1297 -1286 
Q 1028 -1241 775 -1147 
L 775 -588 
Q 1028 -725 1275 -790 
Q 1522 -856 1778 -856 
Q 2344 -856 2625 -561 
Q 2906 -266 2906 331 
L 2906 616 
Q 2728 306 2450 153 
Q 2172 0 1784 0 
Q 1141 0 747 490 
Q 353 981 353 1791 
Q 353 2603 747 3093 
Q 1141 3584 1784 3584 
Q 2172 3584 2450 3431 
Q 2728 3278 2906 2969 
L 2906 3500 
L 3481 3500 
L 3481 434 
z
" transform="scale(0.015625)"/>
      <path id="DejaVuSans-62" d="M 3116 1747 
Q 3116 2381 2855 2742 
Q 2594 3103 2138 3103 
Q 1681 3103 1420 2742 
Q 1159 2381 1159 1747 
Q 1159 1113 1420 752 
Q 1681 391 2138 391 
Q 2594 391 2855 752 
Q 3116 1113 3116 1747 
z
M 1159 2969 
Q 1341 3281 1617 3432 
Q 1894 3584 2278 3584 
Q 2916 3584 3314 3078 
Q 3713 2572 3713 1747 
Q 3713 922 3314 415 
Q 2916 -91 2278 -91 
Q 1894 -91 1617 61 
Q 1341 213 1159 525 
L 1159 0 
L 581 0 
L 581 4863 
L 1159 4863 
L 1159 2969 
z
" transform="scale(0.015625)"/>
      <path id="DejaVuSans-3a" d="M 750 794 
L 1409 794 
L 1409 0 
L 750 0 
L 750 794 
z
M 750 3309 
L 1409 3309 
L 1409 2516 
L 750 2516 
L 750 3309 
z
" transform="scale(0.015625)"/>
      <path id="DejaVuSans-36" d="M 2113 2584 
Q 1688 2584 1439 2293 
Q 1191 2003 1191 1497 
Q 1191 994 1439 701 
Q 1688 409 2113 409 
Q 2538 409 2786 701 
Q 3034 994 3034 1497 
Q 3034 2003 2786 2293 
Q 2538 2584 2113 2584 
z
M 3366 4563 
L 3366 3988 
Q 3128 4100 2886 4159 
Q 2644 4219 2406 4219 
Q 1781 4219 1451 3797 
Q 1122 3375 1075 2522 
Q 1259 2794 1537 2939 
Q 1816 3084 2150 3084 
Q 2853 3084 3261 2657 
Q 3669 2231 3669 1497 
Q 3669 778 3244 343 
Q 2819 -91 2113 -91 
Q 1303 -91 875 529 
Q 447 1150 447 2328 
Q 447 3434 972 4092 
Q 1497 4750 2381 4750 
Q 2619 4750 2861 4703 
Q 3103 4656 3366 4563 
z
" transform="scale(0.015625)"/>
     </defs>
     <use xlink:href="#DejaVuSans-49"/>
     <use xlink:href="#DejaVuSans-6d" x="29.492188"/>
     <use xlink:href="#DejaVuSans-70" x="126.904297"/>
     <use xlink:href="#DejaVuSans-61" x="190.380859"/>
     <use xlink:href="#DejaVuSans-63" x="251.660156"/>
     <use xlink:href="#DejaVuSans-74" x="306.640625"/>
     <use xlink:href="#DejaVuSans-66" x="345.849609"/>
     <use xlink:href="#DejaVuSans-75" x="381.054688"/>
     <use xlink:href="#DejaVuSans-6c" x="444.433594"/>
     <use xlink:href="#DejaVuSans-20" x="472.216797"/>
     <use xlink:href="#DejaVuSans-67" x="504.003906"/>
     <use xlink:href="#DejaVuSans-65" x="567.480469"/>
     <use xlink:href="#DejaVuSans-6e" x="629.003906"/>
     <use xlink:href="#DejaVuSans-72" x="692.382812"/>
     <use xlink:href="#DejaVuSans-65" x="731.246094"/>
     <use xlink:href="#DejaVuSans-20" x="792.769531"/>
     <use xlink:href="#DejaVuSans-63" x="824.556641"/>
     <use xlink:href="#DejaVuSans-6f" x="879.537109"/>
     <use xlink:href="#DejaVuSans-6d" x="940.71875"/>
     <use xlink:href="#DejaVuSans-62" x="1038.130859"/>
     <use xlink:href="#DejaVuSans-69" x="1101.607422"/>
     <use xlink:href="#DejaVuSans-6e" x="1129.390625"/>
     <use xlink:href="#DejaVuSans-61" x="1192.769531"/>
     <use xlink:href="#DejaVuSans-74" x="1254.048828"/>
     <use xlink:href="#DejaVuSans-69" x="1293.257812"/>
     <use xlink:href="#DejaVuSans-6f" x="1321.041016"/>
     <use xlink:href="#DejaVuSans-6e" x="1382.222656"/>
     <use xlink:href="#DejaVuSans-20" x="1445.601562"/>
     <use xlink:href="#DejaVuSans-66" x="1477.388672"/>
     <use xlink:href="#DejaVuSans-6f" x="1512.59375"/>
     <use xlink:href="#DejaVuSans-72" x="1573.775391"/>
     <use xlink:href="#DejaVuSans-20" x="1614.888672"/>
     <use xlink:href="#DejaVuSans-42" x="1646.675781"/>
     <use xlink:href="#DejaVuSans-6c" x="1715.279297"/>
     <use xlink:href="#DejaVuSans-61" x="1743.0625"/>
     <use xlink:href="#DejaVuSans-63" x="1804.341797"/>
     <use xlink:href="#DejaVuSans-6b" x="1859.322266"/>
     <use xlink:href="#DejaVuSans-2d" x="1917.232422"/>
     <use xlink:href="#DejaVuSans-61" x="1953.316406"/>
     <use xlink:href="#DejaVuSans-6e" x="2014.595703"/>
     <use xlink:href="#DejaVuSans-64" x="2077.974609"/>
     <use xlink:href="#DejaVuSans-2d" x="2141.451172"/>
     <use xlink:href="#DejaVuSans-77" x="2177.535156"/>
     <use xlink:href="#DejaVuSans-68" x="2259.322266"/>
     <use xlink:href="#DejaVuSans-69" x="2322.701172"/>
     <use xlink:href="#DejaVuSans-74" x="2350.484375"/>
     <use xlink:href="#DejaVuSans-65" x="2389.693359"/>
     <use xlink:href="#DejaVuSans-20" x="2451.216797"/>
     <use xlink:href="#DejaVuSans-67" x="2483.003906"/>
     <use xlink:href="#DejaVuSans-65" x="2546.480469"/>
     <use xlink:href="#DejaVuSans-6e" x="2608.003906"/>
     <use xlink:href="#DejaVuSans-72" x="2671.382812"/>
     <use xlink:href="#DejaVuSans-65" x="2710.246094"/>
     <use xlink:href="#DejaVuSans-20" x="2771.769531"/>
     <use xlink:href="#DejaVuSans-2d" x="2803.556641"/>
     <use xlink:href="#DejaVuSans-20" x="2839.640625"/>
     <use xlink:href="#DejaVuSans-49" x="2871.427734"/>
     <use xlink:href="#DejaVuSans-6d" x="2900.919922"/>
     <use xlink:href="#DejaVuSans-70" x="2998.332031"/>
     <use xlink:href="#DejaVuSans-6f" x="3061.808594"/>
     <use xlink:href="#DejaVuSans-72" x="3122.990234"/>
     <use xlink:href="#DejaVuSans-74" x="3164.103516"/>
     <use xlink:href="#DejaVuSans-61" x="3203.3125"/>
     <use xlink:href="#DejaVuSans-6e" x="3264.591797"/>
     <use xlink:href="#DejaVuSans-63" x="3327.970703"/>
     <use xlink:href="#DejaVuSans-65" x="3382.951172"/>
     <use xlink:href="#DejaVuSans-20" x="3444.474609"/>
     <use xlink:href="#DejaVuSans-72" x="3476.261719"/>
     <use xlink:href="#DejaVuSans-61" x="3517.375"/>
     <use xlink:href="#DejaVuSans-6e" x="3578.654297"/>
     <use xlink:href="#DejaVuSans-6b" x="3642.033203"/>
     <use xlink:href="#DejaVuSans-3a" x="3699.943359"/>
     <use xlink:href="#DejaVuSans-20" x="3733.634766"/>
     <use xlink:href="#DejaVuSans-36" x="3765.421875"/>
    </g>
   </g>
  </g>
 </g>
 <defs>
  <clipPath id="p4415b525da">
   <rect x="7.2" y="22.318125" width="554.4" height="554.4"/>
  </clipPath>
 </defs>
</svg>
