<?xml version="1.0" encoding="utf-8" standalone="no"?>
<!DOCTYPE svg PUBLIC "-//W3C//DTD SVG 1.1//EN"
  "http://www.w3.org/Graphics/SVG/1.1/DTD/svg11.dtd">
<svg xmlns:xlink="http://www.w3.org/1999/xlink" width="568.8pt" height="583.918125pt" viewBox="0 0 568.8 583.918125" xmlns="http://www.w3.org/2000/svg" version="1.1">
 <metadata>
  <rdf:RDF xmlns:dc="http://purl.org/dc/elements/1.1/" xmlns:cc="http://creativecommons.org/ns#" xmlns:rdf="http://www.w3.org/1999/02/22-rdf-syntax-ns#">
   <cc:Work>
    <dc:type rdf:resource="http://purl.org/dc/dcmitype/StillImage"/>
    <dc:date>2022-12-23T16:18:34.088559</dc:date>
    <dc:format>image/svg+xml</dc:format>
    <dc:creator>
     <cc:Agent>
      <dc:title>Matplotlib v3.5.2, https://matplotlib.org/</dc:title>
     </cc:Agent>
    </dc:creator>
   </cc:Work>
  </rdf:RDF>
 </metadata>
 <defs>
  <style type="text/css">*{stroke-linejoin: round; stroke-linecap: butt}</style>
 </defs>
 <g id="figure_1">
  <g id="patch_1">
   <path d="M 0 583.918125 
L 568.8 583.918125 
L 568.8 0 
L 0 0 
z
" style="fill: #ffffff"/>
  </g>
  <g id="axes_1">
   <g id="LineCollection_1">
    <path d="M 464.4 299.518119 
L 284.399997 299.518124 
" clip-path="url(#p18f41b483e)" style="fill: none; stroke: #000000; stroke-opacity: 0.3; stroke-width: 16"/>
    <path d="M 284.399997 299.518124 
L 194.399989 119.518125 
" clip-path="url(#p18f41b483e)" style="fill: none; stroke: #000000; stroke-opacity: 0.3; stroke-width: 15.446047"/>
    <path d="M 284.399997 299.518124 
L 104.4 299.518137 
" clip-path="url(#p18f41b483e)" style="fill: none; stroke: #000000; stroke-opacity: 0.3; stroke-width: 8"/>
    <path d="M 284.399997 299.518124 
L 194.400016 479.518125 
" clip-path="url(#p18f41b483e)" style="fill: none; stroke: #000000; stroke-opacity: 0.3; stroke-width: 11.415659"/>
    <path d="M 284.399997 299.518124 
L 374.399984 479.518125 
" clip-path="url(#p18f41b483e)" style="fill: none; stroke: #000000; stroke-opacity: 0.3; stroke-width: 14.185989"/>
   </g>
   <g id="PathCollection_1">
    <path d="M 464.4 325.975632 
C 471.416614 325.975632 478.146791 323.187901 483.108287 318.226406 
C 488.069783 313.26491 490.857513 306.534733 490.857513 299.518119 
C 490.857513 292.501504 488.069783 285.771328 483.108287 280.809832 
C 478.146791 275.848336 471.416614 273.060606 464.4 273.060606 
C 457.383386 273.060606 450.653209 275.848336 445.691713 280.809832 
C 440.730217 285.771328 437.942487 292.501504 437.942487 299.518119 
C 437.942487 306.534733 440.730217 313.26491 445.691713 318.226406 
C 450.653209 323.187901 457.383386 325.975632 464.4 325.975632 
z
" clip-path="url(#p18f41b483e)" style="fill: #c70039; fill-opacity: 0.99; stroke: #c70039; stroke-opacity: 0.99"/>
    <path d="M 284.399997 321.786665 
C 290.305683 321.786665 295.970283 319.440311 300.146234 315.26436 
C 304.322184 311.088409 306.668538 305.42381 306.668538 299.518124 
C 306.668538 293.612438 304.322184 287.947838 300.146234 283.771888 
C 295.970283 279.595937 290.305683 277.249583 284.399997 277.249583 
C 278.494311 277.249583 272.829712 279.595937 268.653761 283.771888 
C 264.47781 287.947838 262.131457 293.612438 262.131457 299.518124 
C 262.131457 305.42381 264.47781 311.088409 268.653761 315.26436 
C 272.829712 319.440311 278.494311 321.786665 284.399997 321.786665 
z
" clip-path="url(#p18f41b483e)" style="fill: #c70039; fill-opacity: 0.99; stroke: #c70039; stroke-opacity: 0.99"/>
    <path d="M 194.399989 141.427112 
C 200.210321 141.427112 205.783458 139.118643 209.891983 135.010118 
C 214.000507 130.901594 216.308976 125.328456 216.308976 119.518125 
C 216.308976 113.707794 214.000507 108.134656 209.891983 104.026132 
C 205.783458 99.917607 200.210321 97.609138 194.399989 97.609138 
C 188.589658 97.609138 183.016521 99.917607 178.907996 104.026132 
C 174.799471 108.134656 172.491002 113.707794 172.491002 119.518125 
C 172.491002 125.328456 174.799471 130.901594 178.907996 135.010118 
C 183.016521 139.118643 188.589658 141.427112 194.399989 141.427112 
z
" clip-path="url(#p18f41b483e)" style="fill: #c70039; fill-opacity: 0.99; stroke: #c70039; stroke-opacity: 0.99"/>
    <path d="M 104.4 319.478113 
C 109.693447 319.478113 114.770802 317.375004 118.513834 313.631971 
C 122.256867 309.888938 124.359976 304.811584 124.359976 299.518137 
C 124.359976 294.22469 122.256867 289.147335 118.513834 285.404303 
C 114.770802 281.66127 109.693447 279.558161 104.4 279.558161 
C 99.106553 279.558161 94.029198 281.66127 90.286166 285.404303 
C 86.543133 289.147335 84.440024 294.22469 84.440024 299.518137 
C 84.440024 304.811584 86.543133 309.888938 90.286166 313.631971 
C 94.029198 317.375004 99.106553 319.478113 104.4 319.478113 
z
" clip-path="url(#p18f41b483e)" style="fill: #c70039; fill-opacity: 0.99; stroke: #c70039; stroke-opacity: 0.99"/>
    <path d="M 194.400016 498.856233 
C 199.528542 498.856233 204.447708 496.818648 208.074124 493.192232 
C 211.700539 489.565817 213.738124 484.646651 213.738124 479.518125 
C 213.738124 474.389599 211.700539 469.470433 208.074124 465.844018 
C 204.447708 462.217602 199.528542 460.180017 194.400016 460.180017 
C 189.27149 460.180017 184.352324 462.217602 180.725909 465.844018 
C 177.099493 469.470433 175.061908 474.389599 175.061908 479.518125 
C 175.061908 484.646651 177.099493 489.565817 180.725909 493.192232 
C 184.352324 496.818648 189.27149 498.856233 194.400016 498.856233 
z
" clip-path="url(#p18f41b483e)" style="fill: #c70039; fill-opacity: 0.99; stroke: #c70039; stroke-opacity: 0.99"/>
    <path d="M 374.399984 498.226412 
C 379.36148 498.226412 384.120433 496.255189 387.62874 492.746882 
C 391.137048 489.238574 393.108271 484.479621 393.108271 479.518125 
C 393.108271 474.556629 391.137048 469.797676 387.62874 466.289368 
C 384.120433 462.781061 379.36148 460.809838 374.399984 460.809838 
C 369.438488 460.809838 364.679535 462.781061 361.171227 466.289368 
C 357.66292 469.797676 355.691697 474.556629 355.691697 479.518125 
C 355.691697 484.479621 357.66292 489.238574 361.171227 492.746882 
C 364.679535 496.255189 369.438488 498.226412 374.399984 498.226412 
z
" clip-path="url(#p18f41b483e)" style="fill: #c70039; fill-opacity: 0.99; stroke: #c70039; stroke-opacity: 0.99"/>
   </g>
   <g id="text_1">
    <g id="patch_2">
     <path d="M 445.226484 307.833275 
L 483.573516 307.833275 
L 483.573516 291.202963 
L 445.226484 291.202963 
z
" clip-path="url(#p18f41b483e)" style="fill: #ffffff; opacity: 0.7; stroke: #000000; stroke-linejoin: miter"/>
    </g>
    <g clip-path="url(#p18f41b483e)">
     <!-- Drama -->
     <g transform="translate(449.186484 302.001556)scale(0.09 -0.09)">
      <defs>
       <path id="DejaVuSans-44" d="M 1259 4147 
L 1259 519 
L 2022 519 
Q 2988 519 3436 956 
Q 3884 1394 3884 2338 
Q 3884 3275 3436 3711 
Q 2988 4147 2022 4147 
L 1259 4147 
z
M 628 4666 
L 1925 4666 
Q 3281 4666 3915 4102 
Q 4550 3538 4550 2338 
Q 4550 1131 3912 565 
Q 3275 0 1925 0 
L 628 0 
L 628 4666 
z
" transform="scale(0.015625)"/>
       <path id="DejaVuSans-72" d="M 2631 2963 
Q 2534 3019 2420 3045 
Q 2306 3072 2169 3072 
Q 1681 3072 1420 2755 
Q 1159 2438 1159 1844 
L 1159 0 
L 581 0 
L 581 3500 
L 1159 3500 
L 1159 2956 
Q 1341 3275 1631 3429 
Q 1922 3584 2338 3584 
Q 2397 3584 2469 3576 
Q 2541 3569 2628 3553 
L 2631 2963 
z
" transform="scale(0.015625)"/>
       <path id="DejaVuSans-61" d="M 2194 1759 
Q 1497 1759 1228 1600 
Q 959 1441 959 1056 
Q 959 750 1161 570 
Q 1363 391 1709 391 
Q 2188 391 2477 730 
Q 2766 1069 2766 1631 
L 2766 1759 
L 2194 1759 
z
M 3341 1997 
L 3341 0 
L 2766 0 
L 2766 531 
Q 2569 213 2275 61 
Q 1981 -91 1556 -91 
Q 1019 -91 701 211 
Q 384 513 384 1019 
Q 384 1609 779 1909 
Q 1175 2209 1959 2209 
L 2766 2209 
L 2766 2266 
Q 2766 2663 2505 2880 
Q 2244 3097 1772 3097 
Q 1472 3097 1187 3025 
Q 903 2953 641 2809 
L 641 3341 
Q 956 3463 1253 3523 
Q 1550 3584 1831 3584 
Q 2591 3584 2966 3190 
Q 3341 2797 3341 1997 
z
" transform="scale(0.015625)"/>
       <path id="DejaVuSans-6d" d="M 3328 2828 
Q 3544 3216 3844 3400 
Q 4144 3584 4550 3584 
Q 5097 3584 5394 3201 
Q 5691 2819 5691 2113 
L 5691 0 
L 5113 0 
L 5113 2094 
Q 5113 2597 4934 2840 
Q 4756 3084 4391 3084 
Q 3944 3084 3684 2787 
Q 3425 2491 3425 1978 
L 3425 0 
L 2847 0 
L 2847 2094 
Q 2847 2600 2669 2842 
Q 2491 3084 2119 3084 
Q 1678 3084 1418 2786 
Q 1159 2488 1159 1978 
L 1159 0 
L 581 0 
L 581 3500 
L 1159 3500 
L 1159 2956 
Q 1356 3278 1631 3431 
Q 1906 3584 2284 3584 
Q 2666 3584 2933 3390 
Q 3200 3197 3328 2828 
z
" transform="scale(0.015625)"/>
      </defs>
      <use xlink:href="#DejaVuSans-44"/>
      <use xlink:href="#DejaVuSans-72" x="77.001953"/>
      <use xlink:href="#DejaVuSans-61" x="118.115234"/>
      <use xlink:href="#DejaVuSans-6d" x="179.394531"/>
      <use xlink:href="#DejaVuSans-61" x="276.806641"/>
     </g>
    </g>
   </g>
   <g id="text_2">
    <g id="patch_3">
     <path d="M 261.871872 307.83328 
L 306.928122 307.83328 
L 306.928122 291.202968 
L 261.871872 291.202968 
z
" clip-path="url(#p18f41b483e)" style="fill: #ffffff; opacity: 0.7; stroke: #000000; stroke-linejoin: miter"/>
    </g>
    <g clip-path="url(#p18f41b483e)">
     <!-- Comedy -->
     <g transform="translate(265.831872 302.001561)scale(0.09 -0.09)">
      <defs>
       <path id="DejaVuSans-43" d="M 4122 4306 
L 4122 3641 
Q 3803 3938 3442 4084 
Q 3081 4231 2675 4231 
Q 1875 4231 1450 3742 
Q 1025 3253 1025 2328 
Q 1025 1406 1450 917 
Q 1875 428 2675 428 
Q 3081 428 3442 575 
Q 3803 722 4122 1019 
L 4122 359 
Q 3791 134 3420 21 
Q 3050 -91 2638 -91 
Q 1578 -91 968 557 
Q 359 1206 359 2328 
Q 359 3453 968 4101 
Q 1578 4750 2638 4750 
Q 3056 4750 3426 4639 
Q 3797 4528 4122 4306 
z
" transform="scale(0.015625)"/>
       <path id="DejaVuSans-6f" d="M 1959 3097 
Q 1497 3097 1228 2736 
Q 959 2375 959 1747 
Q 959 1119 1226 758 
Q 1494 397 1959 397 
Q 2419 397 2687 759 
Q 2956 1122 2956 1747 
Q 2956 2369 2687 2733 
Q 2419 3097 1959 3097 
z
M 1959 3584 
Q 2709 3584 3137 3096 
Q 3566 2609 3566 1747 
Q 3566 888 3137 398 
Q 2709 -91 1959 -91 
Q 1206 -91 779 398 
Q 353 888 353 1747 
Q 353 2609 779 3096 
Q 1206 3584 1959 3584 
z
" transform="scale(0.015625)"/>
       <path id="DejaVuSans-65" d="M 3597 1894 
L 3597 1613 
L 953 1613 
Q 991 1019 1311 708 
Q 1631 397 2203 397 
Q 2534 397 2845 478 
Q 3156 559 3463 722 
L 3463 178 
Q 3153 47 2828 -22 
Q 2503 -91 2169 -91 
Q 1331 -91 842 396 
Q 353 884 353 1716 
Q 353 2575 817 3079 
Q 1281 3584 2069 3584 
Q 2775 3584 3186 3129 
Q 3597 2675 3597 1894 
z
M 3022 2063 
Q 3016 2534 2758 2815 
Q 2500 3097 2075 3097 
Q 1594 3097 1305 2825 
Q 1016 2553 972 2059 
L 3022 2063 
z
" transform="scale(0.015625)"/>
       <path id="DejaVuSans-64" d="M 2906 2969 
L 2906 4863 
L 3481 4863 
L 3481 0 
L 2906 0 
L 2906 525 
Q 2725 213 2448 61 
Q 2172 -91 1784 -91 
Q 1150 -91 751 415 
Q 353 922 353 1747 
Q 353 2572 751 3078 
Q 1150 3584 1784 3584 
Q 2172 3584 2448 3432 
Q 2725 3281 2906 2969 
z
M 947 1747 
Q 947 1113 1208 752 
Q 1469 391 1925 391 
Q 2381 391 2643 752 
Q 2906 1113 2906 1747 
Q 2906 2381 2643 2742 
Q 2381 3103 1925 3103 
Q 1469 3103 1208 2742 
Q 947 2381 947 1747 
z
" transform="scale(0.015625)"/>
       <path id="DejaVuSans-79" d="M 2059 -325 
Q 1816 -950 1584 -1140 
Q 1353 -1331 966 -1331 
L 506 -1331 
L 506 -850 
L 844 -850 
Q 1081 -850 1212 -737 
Q 1344 -625 1503 -206 
L 1606 56 
L 191 3500 
L 800 3500 
L 1894 763 
L 2988 3500 
L 3597 3500 
L 2059 -325 
z
" transform="scale(0.015625)"/>
      </defs>
      <use xlink:href="#DejaVuSans-43"/>
      <use xlink:href="#DejaVuSans-6f" x="69.824219"/>
      <use xlink:href="#DejaVuSans-6d" x="131.005859"/>
      <use xlink:href="#DejaVuSans-65" x="228.417969"/>
      <use xlink:href="#DejaVuSans-64" x="289.941406"/>
      <use xlink:href="#DejaVuSans-79" x="353.417969"/>
     </g>
    </g>
   </g>
   <g id="text_3">
    <g id="patch_4">
     <path d="M 158.950536 127.833281 
L 229.849442 127.833281 
L 229.849442 111.202969 
L 158.950536 111.202969 
z
" clip-path="url(#p18f41b483e)" style="fill: #ffffff; opacity: 0.7; stroke: #000000; stroke-linejoin: miter"/>
    </g>
    <g clip-path="url(#p18f41b483e)">
     <!-- Romance Film -->
     <g transform="translate(162.910536 122.001562)scale(0.09 -0.09)">
      <defs>
       <path id="DejaVuSans-52" d="M 2841 2188 
Q 3044 2119 3236 1894 
Q 3428 1669 3622 1275 
L 4263 0 
L 3584 0 
L 2988 1197 
Q 2756 1666 2539 1819 
Q 2322 1972 1947 1972 
L 1259 1972 
L 1259 0 
L 628 0 
L 628 4666 
L 2053 4666 
Q 2853 4666 3247 4331 
Q 3641 3997 3641 3322 
Q 3641 2881 3436 2590 
Q 3231 2300 2841 2188 
z
M 1259 4147 
L 1259 2491 
L 2053 2491 
Q 2509 2491 2742 2702 
Q 2975 2913 2975 3322 
Q 2975 3731 2742 3939 
Q 2509 4147 2053 4147 
L 1259 4147 
z
" transform="scale(0.015625)"/>
       <path id="DejaVuSans-6e" d="M 3513 2113 
L 3513 0 
L 2938 0 
L 2938 2094 
Q 2938 2591 2744 2837 
Q 2550 3084 2163 3084 
Q 1697 3084 1428 2787 
Q 1159 2491 1159 1978 
L 1159 0 
L 581 0 
L 581 3500 
L 1159 3500 
L 1159 2956 
Q 1366 3272 1645 3428 
Q 1925 3584 2291 3584 
Q 2894 3584 3203 3211 
Q 3513 2838 3513 2113 
z
" transform="scale(0.015625)"/>
       <path id="DejaVuSans-63" d="M 3122 3366 
L 3122 2828 
Q 2878 2963 2633 3030 
Q 2388 3097 2138 3097 
Q 1578 3097 1268 2742 
Q 959 2388 959 1747 
Q 959 1106 1268 751 
Q 1578 397 2138 397 
Q 2388 397 2633 464 
Q 2878 531 3122 666 
L 3122 134 
Q 2881 22 2623 -34 
Q 2366 -91 2075 -91 
Q 1284 -91 818 406 
Q 353 903 353 1747 
Q 353 2603 823 3093 
Q 1294 3584 2113 3584 
Q 2378 3584 2631 3529 
Q 2884 3475 3122 3366 
z
" transform="scale(0.015625)"/>
       <path id="DejaVuSans-20" transform="scale(0.015625)"/>
       <path id="DejaVuSans-46" d="M 628 4666 
L 3309 4666 
L 3309 4134 
L 1259 4134 
L 1259 2759 
L 3109 2759 
L 3109 2228 
L 1259 2228 
L 1259 0 
L 628 0 
L 628 4666 
z
" transform="scale(0.015625)"/>
       <path id="DejaVuSans-69" d="M 603 3500 
L 1178 3500 
L 1178 0 
L 603 0 
L 603 3500 
z
M 603 4863 
L 1178 4863 
L 1178 4134 
L 603 4134 
L 603 4863 
z
" transform="scale(0.015625)"/>
       <path id="DejaVuSans-6c" d="M 603 4863 
L 1178 4863 
L 1178 0 
L 603 0 
L 603 4863 
z
" transform="scale(0.015625)"/>
      </defs>
      <use xlink:href="#DejaVuSans-52"/>
      <use xlink:href="#DejaVuSans-6f" x="64.982422"/>
      <use xlink:href="#DejaVuSans-6d" x="126.164062"/>
      <use xlink:href="#DejaVuSans-61" x="223.576172"/>
      <use xlink:href="#DejaVuSans-6e" x="284.855469"/>
      <use xlink:href="#DejaVuSans-63" x="348.234375"/>
      <use xlink:href="#DejaVuSans-65" x="403.214844"/>
      <use xlink:href="#DejaVuSans-20" x="464.738281"/>
      <use xlink:href="#DejaVuSans-46" x="496.525391"/>
      <use xlink:href="#DejaVuSans-69" x="546.794922"/>
      <use xlink:href="#DejaVuSans-6c" x="574.578125"/>
      <use xlink:href="#DejaVuSans-6d" x="602.361328"/>
     </g>
    </g>
   </g>
   <g id="text_4">
    <g id="patch_5">
     <path d="M 77.165859 307.833293 
L 131.634141 307.833293 
L 131.634141 291.202981 
L 77.165859 291.202981 
z
" clip-path="url(#p18f41b483e)" style="fill: #ffffff; opacity: 0.7; stroke: #000000; stroke-linejoin: miter"/>
    </g>
    <g clip-path="url(#p18f41b483e)">
     <!-- Adventure -->
     <g transform="translate(81.125859 302.001574)scale(0.09 -0.09)">
      <defs>
       <path id="DejaVuSans-41" d="M 2188 4044 
L 1331 1722 
L 3047 1722 
L 2188 4044 
z
M 1831 4666 
L 2547 4666 
L 4325 0 
L 3669 0 
L 3244 1197 
L 1141 1197 
L 716 0 
L 50 0 
L 1831 4666 
z
" transform="scale(0.015625)"/>
       <path id="DejaVuSans-76" d="M 191 3500 
L 800 3500 
L 1894 563 
L 2988 3500 
L 3597 3500 
L 2284 0 
L 1503 0 
L 191 3500 
z
" transform="scale(0.015625)"/>
       <path id="DejaVuSans-74" d="M 1172 4494 
L 1172 3500 
L 2356 3500 
L 2356 3053 
L 1172 3053 
L 1172 1153 
Q 1172 725 1289 603 
Q 1406 481 1766 481 
L 2356 481 
L 2356 0 
L 1766 0 
Q 1100 0 847 248 
Q 594 497 594 1153 
L 594 3053 
L 172 3053 
L 172 3500 
L 594 3500 
L 594 4494 
L 1172 4494 
z
" transform="scale(0.015625)"/>
       <path id="DejaVuSans-75" d="M 544 1381 
L 544 3500 
L 1119 3500 
L 1119 1403 
Q 1119 906 1312 657 
Q 1506 409 1894 409 
Q 2359 409 2629 706 
Q 2900 1003 2900 1516 
L 2900 3500 
L 3475 3500 
L 3475 0 
L 2900 0 
L 2900 538 
Q 2691 219 2414 64 
Q 2138 -91 1772 -91 
Q 1169 -91 856 284 
Q 544 659 544 1381 
z
M 1991 3584 
L 1991 3584 
z
" transform="scale(0.015625)"/>
      </defs>
      <use xlink:href="#DejaVuSans-41"/>
      <use xlink:href="#DejaVuSans-64" x="66.658203"/>
      <use xlink:href="#DejaVuSans-76" x="130.134766"/>
      <use xlink:href="#DejaVuSans-65" x="189.314453"/>
      <use xlink:href="#DejaVuSans-6e" x="250.837891"/>
      <use xlink:href="#DejaVuSans-74" x="314.216797"/>
      <use xlink:href="#DejaVuSans-75" x="353.425781"/>
      <use xlink:href="#DejaVuSans-72" x="416.804688"/>
      <use xlink:href="#DejaVuSans-65" x="455.667969"/>
     </g>
    </g>
   </g>
   <g id="text_5">
    <g id="patch_6">
     <path d="M 149.950563 487.833281 
L 238.849469 487.833281 
L 238.849469 471.202969 
L 149.950563 471.202969 
z
" clip-path="url(#p18f41b483e)" style="fill: #ffffff; opacity: 0.7; stroke: #000000; stroke-linejoin: miter"/>
    </g>
    <g clip-path="url(#p18f41b483e)">
     <!-- Romantic comedy -->
     <g transform="translate(153.910563 482.001562)scale(0.09 -0.09)">
      <use xlink:href="#DejaVuSans-52"/>
      <use xlink:href="#DejaVuSans-6f" x="64.982422"/>
      <use xlink:href="#DejaVuSans-6d" x="126.164062"/>
      <use xlink:href="#DejaVuSans-61" x="223.576172"/>
      <use xlink:href="#DejaVuSans-6e" x="284.855469"/>
      <use xlink:href="#DejaVuSans-74" x="348.234375"/>
      <use xlink:href="#DejaVuSans-69" x="387.443359"/>
      <use xlink:href="#DejaVuSans-63" x="415.226562"/>
      <use xlink:href="#DejaVuSans-20" x="470.207031"/>
      <use xlink:href="#DejaVuSans-63" x="501.994141"/>
      <use xlink:href="#DejaVuSans-6f" x="556.974609"/>
      <use xlink:href="#DejaVuSans-6d" x="618.15625"/>
      <use xlink:href="#DejaVuSans-65" x="715.568359"/>
      <use xlink:href="#DejaVuSans-64" x="777.091797"/>
      <use xlink:href="#DejaVuSans-79" x="840.568359"/>
     </g>
    </g>
   </g>
   <g id="text_6">
    <g id="patch_7">
     <path d="M 345.382015 487.833281 
L 403.417953 487.833281 
L 403.417953 471.202969 
L 345.382015 471.202969 
z
" clip-path="url(#p18f41b483e)" style="fill: #ffffff; opacity: 0.7; stroke: #000000; stroke-linejoin: miter"/>
    </g>
    <g clip-path="url(#p18f41b483e)">
     <!-- Family Film -->
     <g transform="translate(349.342015 482.001562)scale(0.09 -0.09)">
      <use xlink:href="#DejaVuSans-46"/>
      <use xlink:href="#DejaVuSans-61" x="48.394531"/>
      <use xlink:href="#DejaVuSans-6d" x="109.673828"/>
      <use xlink:href="#DejaVuSans-69" x="207.085938"/>
      <use xlink:href="#DejaVuSans-6c" x="234.869141"/>
      <use xlink:href="#DejaVuSans-79" x="262.652344"/>
      <use xlink:href="#DejaVuSans-20" x="321.832031"/>
      <use xlink:href="#DejaVuSans-46" x="353.619141"/>
      <use xlink:href="#DejaVuSans-69" x="403.888672"/>
      <use xlink:href="#DejaVuSans-6c" x="431.671875"/>
      <use xlink:href="#DejaVuSans-6d" x="459.455078"/>
     </g>
    </g>
   </g>
   <g id="text_7">
    <!-- Impactful genre combination for Comedy genre - Importance rank: 1 -->
    <g transform="translate(78.173437 16.318125)scale(0.12 -0.12)">
     <defs>
      <path id="DejaVuSans-49" d="M 628 4666 
L 1259 4666 
L 1259 0 
L 628 0 
L 628 4666 
z
" transform="scale(0.015625)"/>
      <path id="DejaVuSans-70" d="M 1159 525 
L 1159 -1331 
L 581 -1331 
L 581 3500 
L 1159 3500 
L 1159 2969 
Q 1341 3281 1617 3432 
Q 1894 3584 2278 3584 
Q 2916 3584 3314 3078 
Q 3713 2572 3713 1747 
Q 3713 922 3314 415 
Q 2916 -91 2278 -91 
Q 1894 -91 1617 61 
Q 1341 213 1159 525 
z
M 3116 1747 
Q 3116 2381 2855 2742 
Q 2594 3103 2138 3103 
Q 1681 3103 1420 2742 
Q 1159 2381 1159 1747 
Q 1159 1113 1420 752 
Q 1681 391 2138 391 
Q 2594 391 2855 752 
Q 3116 1113 3116 1747 
z
" transform="scale(0.015625)"/>
      <path id="DejaVuSans-66" d="M 2375 4863 
L 2375 4384 
L 1825 4384 
Q 1516 4384 1395 4259 
Q 1275 4134 1275 3809 
L 1275 3500 
L 2222 3500 
L 2222 3053 
L 1275 3053 
L 1275 0 
L 697 0 
L 697 3053 
L 147 3053 
L 147 3500 
L 697 3500 
L 697 3744 
Q 697 4328 969 4595 
Q 1241 4863 1831 4863 
L 2375 4863 
z
" transform="scale(0.015625)"/>
      <path id="DejaVuSans-67" d="M 2906 1791 
Q 2906 2416 2648 2759 
Q 2391 3103 1925 3103 
Q 1463 3103 1205 2759 
Q 947 2416 947 1791 
Q 947 1169 1205 825 
Q 1463 481 1925 481 
Q 2391 481 2648 825 
Q 2906 1169 2906 1791 
z
M 3481 434 
Q 3481 -459 3084 -895 
Q 2688 -1331 1869 -1331 
Q 1566 -1331 1297 -1286 
Q 1028 -1241 775 -1147 
L 775 -588 
Q 1028 -725 1275 -790 
Q 1522 -856 1778 -856 
Q 2344 -856 2625 -561 
Q 2906 -266 2906 331 
L 2906 616 
Q 2728 306 2450 153 
Q 2172 0 1784 0 
Q 1141 0 747 490 
Q 353 981 353 1791 
Q 353 2603 747 3093 
Q 1141 3584 1784 3584 
Q 2172 3584 2450 3431 
Q 2728 3278 2906 2969 
L 2906 3500 
L 3481 3500 
L 3481 434 
z
" transform="scale(0.015625)"/>
      <path id="DejaVuSans-62" d="M 3116 1747 
Q 3116 2381 2855 2742 
Q 2594 3103 2138 3103 
Q 1681 3103 1420 2742 
Q 1159 2381 1159 1747 
Q 1159 1113 1420 752 
Q 1681 391 2138 391 
Q 2594 391 2855 752 
Q 3116 1113 3116 1747 
z
M 1159 2969 
Q 1341 3281 1617 3432 
Q 1894 3584 2278 3584 
Q 2916 3584 3314 3078 
Q 3713 2572 3713 1747 
Q 3713 922 3314 415 
Q 2916 -91 2278 -91 
Q 1894 -91 1617 61 
Q 1341 213 1159 525 
L 1159 0 
L 581 0 
L 581 4863 
L 1159 4863 
L 1159 2969 
z
" transform="scale(0.015625)"/>
      <path id="DejaVuSans-2d" d="M 313 2009 
L 1997 2009 
L 1997 1497 
L 313 1497 
L 313 2009 
z
" transform="scale(0.015625)"/>
      <path id="DejaVuSans-6b" d="M 581 4863 
L 1159 4863 
L 1159 1991 
L 2875 3500 
L 3609 3500 
L 1753 1863 
L 3688 0 
L 2938 0 
L 1159 1709 
L 1159 0 
L 581 0 
L 581 4863 
z
" transform="scale(0.015625)"/>
      <path id="DejaVuSans-3a" d="M 750 794 
L 1409 794 
L 1409 0 
L 750 0 
L 750 794 
z
M 750 3309 
L 1409 3309 
L 1409 2516 
L 750 2516 
L 750 3309 
z
" transform="scale(0.015625)"/>
      <path id="DejaVuSans-31" d="M 794 531 
L 1825 531 
L 1825 4091 
L 703 3866 
L 703 4441 
L 1819 4666 
L 2450 4666 
L 2450 531 
L 3481 531 
L 3481 0 
L 794 0 
L 794 531 
z
" transform="scale(0.015625)"/>
     </defs>
     <use xlink:href="#DejaVuSans-49"/>
     <use xlink:href="#DejaVuSans-6d" x="29.492188"/>
     <use xlink:href="#DejaVuSans-70" x="126.904297"/>
     <use xlink:href="#DejaVuSans-61" x="190.380859"/>
     <use xlink:href="#DejaVuSans-63" x="251.660156"/>
     <use xlink:href="#DejaVuSans-74" x="306.640625"/>
     <use xlink:href="#DejaVuSans-66" x="345.849609"/>
     <use xlink:href="#DejaVuSans-75" x="381.054688"/>
     <use xlink:href="#DejaVuSans-6c" x="444.433594"/>
     <use xlink:href="#DejaVuSans-20" x="472.216797"/>
     <use xlink:href="#DejaVuSans-67" x="504.003906"/>
     <use xlink:href="#DejaVuSans-65" x="567.480469"/>
     <use xlink:href="#DejaVuSans-6e" x="629.003906"/>
     <use xlink:href="#DejaVuSans-72" x="692.382812"/>
     <use xlink:href="#DejaVuSans-65" x="731.246094"/>
     <use xlink:href="#DejaVuSans-20" x="792.769531"/>
     <use xlink:href="#DejaVuSans-63" x="824.556641"/>
     <use xlink:href="#DejaVuSans-6f" x="879.537109"/>
     <use xlink:href="#DejaVuSans-6d" x="940.71875"/>
     <use xlink:href="#DejaVuSans-62" x="1038.130859"/>
     <use xlink:href="#DejaVuSans-69" x="1101.607422"/>
     <use xlink:href="#DejaVuSans-6e" x="1129.390625"/>
     <use xlink:href="#DejaVuSans-61" x="1192.769531"/>
     <use xlink:href="#DejaVuSans-74" x="1254.048828"/>
     <use xlink:href="#DejaVuSans-69" x="1293.257812"/>
     <use xlink:href="#DejaVuSans-6f" x="1321.041016"/>
     <use xlink:href="#DejaVuSans-6e" x="1382.222656"/>
     <use xlink:href="#DejaVuSans-20" x="1445.601562"/>
     <use xlink:href="#DejaVuSans-66" x="1477.388672"/>
     <use xlink:href="#DejaVuSans-6f" x="1512.59375"/>
     <use xlink:href="#DejaVuSans-72" x="1573.775391"/>
     <use xlink:href="#DejaVuSans-20" x="1614.888672"/>
     <use xlink:href="#DejaVuSans-43" x="1646.675781"/>
     <use xlink:href="#DejaVuSans-6f" x="1716.5"/>
     <use xlink:href="#DejaVuSans-6d" x="1777.681641"/>
     <use xlink:href="#DejaVuSans-65" x="1875.09375"/>
     <use xlink:href="#DejaVuSans-64" x="1936.617188"/>
     <use xlink:href="#DejaVuSans-79" x="2000.09375"/>
     <use xlink:href="#DejaVuSans-20" x="2059.273438"/>
     <use xlink:href="#DejaVuSans-67" x="2091.060547"/>
     <use xlink:href="#DejaVuSans-65" x="2154.537109"/>
     <use xlink:href="#DejaVuSans-6e" x="2216.060547"/>
     <use xlink:href="#DejaVuSans-72" x="2279.439453"/>
     <use xlink:href="#DejaVuSans-65" x="2318.302734"/>
     <use xlink:href="#DejaVuSans-20" x="2379.826172"/>
     <use xlink:href="#DejaVuSans-2d" x="2411.613281"/>
     <use xlink:href="#DejaVuSans-20" x="2447.697266"/>
     <use xlink:href="#DejaVuSans-49" x="2479.484375"/>
     <use xlink:href="#DejaVuSans-6d" x="2508.976562"/>
     <use xlink:href="#DejaVuSans-70" x="2606.388672"/>
     <use xlink:href="#DejaVuSans-6f" x="2669.865234"/>
     <use xlink:href="#DejaVuSans-72" x="2731.046875"/>
     <use xlink:href="#DejaVuSans-74" x="2772.160156"/>
     <use xlink:href="#DejaVuSans-61" x="2811.369141"/>
     <use xlink:href="#DejaVuSans-6e" x="2872.648438"/>
     <use xlink:href="#DejaVuSans-63" x="2936.027344"/>
     <use xlink:href="#DejaVuSans-65" x="2991.007812"/>
     <use xlink:href="#DejaVuSans-20" x="3052.53125"/>
     <use xlink:href="#DejaVuSans-72" x="3084.318359"/>
     <use xlink:href="#DejaVuSans-61" x="3125.431641"/>
     <use xlink:href="#DejaVuSans-6e" x="3186.710938"/>
     <use xlink:href="#DejaVuSans-6b" x="3250.089844"/>
     <use xlink:href="#DejaVuSans-3a" x="3308"/>
     <use xlink:href="#DejaVuSans-20" x="3341.691406"/>
     <use xlink:href="#DejaVuSans-31" x="3373.478516"/>
    </g>
   </g>
  </g>
 </g>
 <defs>
  <clipPath id="p18f41b483e">
   <rect x="7.2" y="22.318125" width="554.4" height="554.4"/>
  </clipPath>
 </defs>
</svg>
