<?xml version="1.0" encoding="utf-8" standalone="no"?>
<!DOCTYPE svg PUBLIC "-//W3C//DTD SVG 1.1//EN"
  "http://www.w3.org/Graphics/SVG/1.1/DTD/svg11.dtd">
<svg xmlns:xlink="http://www.w3.org/1999/xlink" width="568.8pt" height="583.918125pt" viewBox="0 0 568.8 583.918125" xmlns="http://www.w3.org/2000/svg" version="1.1">
 <metadata>
  <rdf:RDF xmlns:dc="http://purl.org/dc/elements/1.1/" xmlns:cc="http://creativecommons.org/ns#" xmlns:rdf="http://www.w3.org/1999/02/22-rdf-syntax-ns#">
   <cc:Work>
    <dc:type rdf:resource="http://purl.org/dc/dcmitype/StillImage"/>
    <dc:date>2022-12-22T19:12:46.700289</dc:date>
    <dc:format>image/svg+xml</dc:format>
    <dc:creator>
     <cc:Agent>
      <dc:title>Matplotlib v3.5.2, https://matplotlib.org/</dc:title>
     </cc:Agent>
    </dc:creator>
   </cc:Work>
  </rdf:RDF>
 </metadata>
 <defs>
  <style type="text/css">*{stroke-linejoin: round; stroke-linecap: butt}</style>
 </defs>
 <g id="figure_1">
  <g id="patch_1">
   <path d="M 0 583.918125 
L 568.8 583.918125 
L 568.8 0 
L 0 0 
z
" style="fill: #ffffff"/>
  </g>
  <g id="axes_1">
   <g id="PathCollection_1">
    <path d="M 482.4 325.975638 
C 489.416614 325.975638 496.146791 323.187908 501.108287 318.226412 
C 506.069783 313.264916 508.857513 306.534739 508.857513 299.518125 
C 508.857513 292.501511 506.069783 285.771334 501.108287 280.809838 
C 496.146791 275.848342 489.416614 273.060612 482.4 273.060612 
C 475.383386 273.060612 468.653209 275.848342 463.691713 280.809838 
C 458.730217 285.771334 455.942487 292.501511 455.942487 299.518125 
C 455.942487 306.534739 458.730217 313.264916 463.691713 318.226412 
C 468.653209 323.187908 475.383386 325.975638 482.4 325.975638 
z
" clip-path="url(#pfb120013b9)" style="fill: #d62728; fill-opacity: 0.99; stroke: #d62728; stroke-opacity: 0.99"/>
    <path d="M 383.399994 124.306086 
C 389.443432 124.306086 395.24016 121.905003 399.513516 117.631647 
C 403.786872 113.358291 406.187956 107.561563 406.187956 101.518125 
C 406.187956 95.474687 403.786872 89.677959 399.513516 85.404603 
C 395.24016 81.131247 389.443432 78.730164 383.399994 78.730164 
C 377.356556 78.730164 371.559828 81.131247 367.286472 85.404603 
C 363.013116 89.677959 360.612033 95.474687 360.612033 101.518125 
C 360.612033 107.561563 363.013116 113.358291 367.286472 117.631647 
C 371.559828 121.905003 377.356556 124.306086 383.399994 124.306086 
z
" clip-path="url(#pfb120013b9)" style="fill: #d62728; fill-opacity: 0.99; stroke: #d62728; stroke-opacity: 0.99"/>
    <path d="M 185.399988 123.513061 
C 191.23311 123.513061 196.828107 121.195537 200.952747 117.070897 
C 205.077386 112.946257 207.39491 107.35126 207.39491 101.518139 
C 207.39491 95.685017 205.077386 90.09002 200.952747 85.96538 
C 196.828107 81.84074 191.23311 79.523217 185.399988 79.523217 
C 179.566867 79.523217 173.971869 81.84074 169.84723 85.96538 
C 165.72259 90.09002 163.405066 95.685017 163.405066 101.518139 
C 163.405066 107.35126 165.72259 112.946257 169.84723 117.070897 
C 173.971869 121.195537 179.566867 123.513061 185.399988 123.513061 
z
" clip-path="url(#pfb120013b9)" style="fill: #d62728; fill-opacity: 0.99; stroke: #d62728; stroke-opacity: 0.99"/>
    <path d="M 86.4 319.579819 
C 91.720418 319.579819 96.823642 317.465995 100.585746 313.703891 
C 104.34785 309.941787 106.461674 304.838563 106.461674 299.518145 
C 106.461674 294.197727 104.34785 289.094503 100.585746 285.332399 
C 96.823642 281.570295 91.720418 279.456471 86.4 279.456471 
C 81.079582 279.456471 75.976358 281.570295 72.214254 285.332399 
C 68.45215 289.094503 66.338326 294.197727 66.338326 299.518145 
C 66.338326 304.838563 68.45215 309.941787 72.214254 313.703891 
C 75.976358 317.465995 81.079582 319.579819 86.4 319.579819 
z
" clip-path="url(#pfb120013b9)" style="fill: #d62728; fill-opacity: 0.99; stroke: #d62728; stroke-opacity: 0.99"/>
    <path d="M 185.400018 516.363678 
C 190.397917 516.363678 195.191788 514.377992 198.725836 510.843943 
C 202.259884 507.309895 204.245571 502.516024 204.245571 497.518125 
C 204.245571 492.520226 202.259884 487.726355 198.725836 484.192307 
C 195.191788 480.658258 190.397917 478.672572 185.400018 478.672572 
C 180.402119 478.672572 175.608248 480.658258 172.074199 484.192307 
C 168.540151 487.726355 166.554465 492.520226 166.554465 497.518125 
C 166.554465 502.516024 168.540151 507.309895 172.074199 510.843943 
C 175.608248 514.377992 180.402119 516.363678 185.400018 516.363678 
z
" clip-path="url(#pfb120013b9)" style="fill: #d62728; fill-opacity: 0.99; stroke: #d62728; stroke-opacity: 0.99"/>
    <path d="M 383.399982 516.226412 
C 388.361478 516.226412 393.120432 514.255189 396.628739 510.746882 
C 400.137046 507.238574 402.108269 502.479621 402.108269 497.518125 
C 402.108269 492.556629 400.137046 487.797676 396.628739 484.289368 
C 393.120432 480.781061 388.361478 478.809838 383.399982 478.809838 
C 378.438487 478.809838 373.679533 480.781061 370.171226 484.289368 
C 366.662918 487.797676 364.691695 492.556629 364.691695 497.518125 
C 364.691695 502.479621 366.662918 507.238574 370.171226 510.746882 
C 373.679533 514.255189 378.438487 516.226412 383.399982 516.226412 
z
" clip-path="url(#pfb120013b9)" style="fill: #d62728; fill-opacity: 0.99; stroke: #d62728; stroke-opacity: 0.99"/>
   </g>
   <g id="text_1">
    <g id="patch_2">
     <path d="M 464.122266 307.833281 
L 500.677734 307.833281 
L 500.677734 291.202969 
L 464.122266 291.202969 
z
" clip-path="url(#pfb120013b9)" style="fill: #ffffff; opacity: 0.7; stroke: #000000; stroke-linejoin: miter"/>
    </g>
    <g clip-path="url(#pfb120013b9)">
     <!-- Dance -->
     <g transform="translate(468.082266 302.001562)scale(0.09 -0.09)">
      <defs>
       <path id="DejaVuSans-44" d="M 1259 4147 
L 1259 519 
L 2022 519 
Q 2988 519 3436 956 
Q 3884 1394 3884 2338 
Q 3884 3275 3436 3711 
Q 2988 4147 2022 4147 
L 1259 4147 
z
M 628 4666 
L 1925 4666 
Q 3281 4666 3915 4102 
Q 4550 3538 4550 2338 
Q 4550 1131 3912 565 
Q 3275 0 1925 0 
L 628 0 
L 628 4666 
z
" transform="scale(0.015625)"/>
       <path id="DejaVuSans-61" d="M 2194 1759 
Q 1497 1759 1228 1600 
Q 959 1441 959 1056 
Q 959 750 1161 570 
Q 1363 391 1709 391 
Q 2188 391 2477 730 
Q 2766 1069 2766 1631 
L 2766 1759 
L 2194 1759 
z
M 3341 1997 
L 3341 0 
L 2766 0 
L 2766 531 
Q 2569 213 2275 61 
Q 1981 -91 1556 -91 
Q 1019 -91 701 211 
Q 384 513 384 1019 
Q 384 1609 779 1909 
Q 1175 2209 1959 2209 
L 2766 2209 
L 2766 2266 
Q 2766 2663 2505 2880 
Q 2244 3097 1772 3097 
Q 1472 3097 1187 3025 
Q 903 2953 641 2809 
L 641 3341 
Q 956 3463 1253 3523 
Q 1550 3584 1831 3584 
Q 2591 3584 2966 3190 
Q 3341 2797 3341 1997 
z
" transform="scale(0.015625)"/>
       <path id="DejaVuSans-6e" d="M 3513 2113 
L 3513 0 
L 2938 0 
L 2938 2094 
Q 2938 2591 2744 2837 
Q 2550 3084 2163 3084 
Q 1697 3084 1428 2787 
Q 1159 2491 1159 1978 
L 1159 0 
L 581 0 
L 581 3500 
L 1159 3500 
L 1159 2956 
Q 1366 3272 1645 3428 
Q 1925 3584 2291 3584 
Q 2894 3584 3203 3211 
Q 3513 2838 3513 2113 
z
" transform="scale(0.015625)"/>
       <path id="DejaVuSans-63" d="M 3122 3366 
L 3122 2828 
Q 2878 2963 2633 3030 
Q 2388 3097 2138 3097 
Q 1578 3097 1268 2742 
Q 959 2388 959 1747 
Q 959 1106 1268 751 
Q 1578 397 2138 397 
Q 2388 397 2633 464 
Q 2878 531 3122 666 
L 3122 134 
Q 2881 22 2623 -34 
Q 2366 -91 2075 -91 
Q 1284 -91 818 406 
Q 353 903 353 1747 
Q 353 2603 823 3093 
Q 1294 3584 2113 3584 
Q 2378 3584 2631 3529 
Q 2884 3475 3122 3366 
z
" transform="scale(0.015625)"/>
       <path id="DejaVuSans-65" d="M 3597 1894 
L 3597 1613 
L 953 1613 
Q 991 1019 1311 708 
Q 1631 397 2203 397 
Q 2534 397 2845 478 
Q 3156 559 3463 722 
L 3463 178 
Q 3153 47 2828 -22 
Q 2503 -91 2169 -91 
Q 1331 -91 842 396 
Q 353 884 353 1716 
Q 353 2575 817 3079 
Q 1281 3584 2069 3584 
Q 2775 3584 3186 3129 
Q 3597 2675 3597 1894 
z
M 3022 2063 
Q 3016 2534 2758 2815 
Q 2500 3097 2075 3097 
Q 1594 3097 1305 2825 
Q 1016 2553 972 2059 
L 3022 2063 
z
" transform="scale(0.015625)"/>
      </defs>
      <use xlink:href="#DejaVuSans-44"/>
      <use xlink:href="#DejaVuSans-61" x="77.001953"/>
      <use xlink:href="#DejaVuSans-6e" x="138.28125"/>
      <use xlink:href="#DejaVuSans-63" x="201.660156"/>
      <use xlink:href="#DejaVuSans-65" x="256.640625"/>
     </g>
    </g>
   </g>
   <g id="text_2">
    <g id="patch_3">
     <path d="M 364.117494 109.833281 
L 402.682494 109.833281 
L 402.682494 93.202969 
L 364.117494 93.202969 
z
" clip-path="url(#pfb120013b9)" style="fill: #ffffff; opacity: 0.7; stroke: #000000; stroke-linejoin: miter"/>
    </g>
    <g clip-path="url(#pfb120013b9)">
     <!-- Boxing -->
     <g transform="translate(368.077494 104.001562)scale(0.09 -0.09)">
      <defs>
       <path id="DejaVuSans-42" d="M 1259 2228 
L 1259 519 
L 2272 519 
Q 2781 519 3026 730 
Q 3272 941 3272 1375 
Q 3272 1813 3026 2020 
Q 2781 2228 2272 2228 
L 1259 2228 
z
M 1259 4147 
L 1259 2741 
L 2194 2741 
Q 2656 2741 2882 2914 
Q 3109 3088 3109 3444 
Q 3109 3797 2882 3972 
Q 2656 4147 2194 4147 
L 1259 4147 
z
M 628 4666 
L 2241 4666 
Q 2963 4666 3353 4366 
Q 3744 4066 3744 3513 
Q 3744 3084 3544 2831 
Q 3344 2578 2956 2516 
Q 3422 2416 3680 2098 
Q 3938 1781 3938 1306 
Q 3938 681 3513 340 
Q 3088 0 2303 0 
L 628 0 
L 628 4666 
z
" transform="scale(0.015625)"/>
       <path id="DejaVuSans-6f" d="M 1959 3097 
Q 1497 3097 1228 2736 
Q 959 2375 959 1747 
Q 959 1119 1226 758 
Q 1494 397 1959 397 
Q 2419 397 2687 759 
Q 2956 1122 2956 1747 
Q 2956 2369 2687 2733 
Q 2419 3097 1959 3097 
z
M 1959 3584 
Q 2709 3584 3137 3096 
Q 3566 2609 3566 1747 
Q 3566 888 3137 398 
Q 2709 -91 1959 -91 
Q 1206 -91 779 398 
Q 353 888 353 1747 
Q 353 2609 779 3096 
Q 1206 3584 1959 3584 
z
" transform="scale(0.015625)"/>
       <path id="DejaVuSans-78" d="M 3513 3500 
L 2247 1797 
L 3578 0 
L 2900 0 
L 1881 1375 
L 863 0 
L 184 0 
L 1544 1831 
L 300 3500 
L 978 3500 
L 1906 2253 
L 2834 3500 
L 3513 3500 
z
" transform="scale(0.015625)"/>
       <path id="DejaVuSans-69" d="M 603 3500 
L 1178 3500 
L 1178 0 
L 603 0 
L 603 3500 
z
M 603 4863 
L 1178 4863 
L 1178 4134 
L 603 4134 
L 603 4863 
z
" transform="scale(0.015625)"/>
       <path id="DejaVuSans-67" d="M 2906 1791 
Q 2906 2416 2648 2759 
Q 2391 3103 1925 3103 
Q 1463 3103 1205 2759 
Q 947 2416 947 1791 
Q 947 1169 1205 825 
Q 1463 481 1925 481 
Q 2391 481 2648 825 
Q 2906 1169 2906 1791 
z
M 3481 434 
Q 3481 -459 3084 -895 
Q 2688 -1331 1869 -1331 
Q 1566 -1331 1297 -1286 
Q 1028 -1241 775 -1147 
L 775 -588 
Q 1028 -725 1275 -790 
Q 1522 -856 1778 -856 
Q 2344 -856 2625 -561 
Q 2906 -266 2906 331 
L 2906 616 
Q 2728 306 2450 153 
Q 2172 0 1784 0 
Q 1141 0 747 490 
Q 353 981 353 1791 
Q 353 2603 747 3093 
Q 1141 3584 1784 3584 
Q 2172 3584 2450 3431 
Q 2728 3278 2906 2969 
L 2906 3500 
L 3481 3500 
L 3481 434 
z
" transform="scale(0.015625)"/>
      </defs>
      <use xlink:href="#DejaVuSans-42"/>
      <use xlink:href="#DejaVuSans-6f" x="68.603516"/>
      <use xlink:href="#DejaVuSans-78" x="126.660156"/>
      <use xlink:href="#DejaVuSans-69" x="185.839844"/>
      <use xlink:href="#DejaVuSans-6e" x="213.623047"/>
      <use xlink:href="#DejaVuSans-67" x="277.001953"/>
     </g>
    </g>
   </g>
   <g id="text_3">
    <g id="patch_4">
     <path d="M 172.431551 109.833295 
L 198.368426 109.833295 
L 198.368426 93.202982 
L 172.431551 93.202982 
z
" clip-path="url(#pfb120013b9)" style="fill: #ffffff; opacity: 0.7; stroke: #000000; stroke-linejoin: miter"/>
    </g>
    <g clip-path="url(#pfb120013b9)">
     <!-- Cult -->
     <g transform="translate(176.391551 104.001576)scale(0.09 -0.09)">
      <defs>
       <path id="DejaVuSans-43" d="M 4122 4306 
L 4122 3641 
Q 3803 3938 3442 4084 
Q 3081 4231 2675 4231 
Q 1875 4231 1450 3742 
Q 1025 3253 1025 2328 
Q 1025 1406 1450 917 
Q 1875 428 2675 428 
Q 3081 428 3442 575 
Q 3803 722 4122 1019 
L 4122 359 
Q 3791 134 3420 21 
Q 3050 -91 2638 -91 
Q 1578 -91 968 557 
Q 359 1206 359 2328 
Q 359 3453 968 4101 
Q 1578 4750 2638 4750 
Q 3056 4750 3426 4639 
Q 3797 4528 4122 4306 
z
" transform="scale(0.015625)"/>
       <path id="DejaVuSans-75" d="M 544 1381 
L 544 3500 
L 1119 3500 
L 1119 1403 
Q 1119 906 1312 657 
Q 1506 409 1894 409 
Q 2359 409 2629 706 
Q 2900 1003 2900 1516 
L 2900 3500 
L 3475 3500 
L 3475 0 
L 2900 0 
L 2900 538 
Q 2691 219 2414 64 
Q 2138 -91 1772 -91 
Q 1169 -91 856 284 
Q 544 659 544 1381 
z
M 1991 3584 
L 1991 3584 
z
" transform="scale(0.015625)"/>
       <path id="DejaVuSans-6c" d="M 603 4863 
L 1178 4863 
L 1178 0 
L 603 0 
L 603 4863 
z
" transform="scale(0.015625)"/>
       <path id="DejaVuSans-74" d="M 1172 4494 
L 1172 3500 
L 2356 3500 
L 2356 3053 
L 1172 3053 
L 1172 1153 
Q 1172 725 1289 603 
Q 1406 481 1766 481 
L 2356 481 
L 2356 0 
L 1766 0 
Q 1100 0 847 248 
Q 594 497 594 1153 
L 594 3053 
L 172 3053 
L 172 3500 
L 594 3500 
L 594 4494 
L 1172 4494 
z
" transform="scale(0.015625)"/>
      </defs>
      <use xlink:href="#DejaVuSans-43"/>
      <use xlink:href="#DejaVuSans-75" x="69.824219"/>
      <use xlink:href="#DejaVuSans-6c" x="133.203125"/>
      <use xlink:href="#DejaVuSans-74" x="160.986328"/>
     </g>
    </g>
   </g>
   <g id="text_4">
    <g id="patch_5">
     <path d="M 21.600703 307.833301 
L 151.199297 307.833301 
L 151.199297 291.202989 
L 21.600703 291.202989 
z
" clip-path="url(#pfb120013b9)" style="fill: #ffffff; opacity: 0.7; stroke: #000000; stroke-linejoin: miter"/>
    </g>
    <g clip-path="url(#pfb120013b9)">
     <!-- Bloopers &amp; Candid Camera -->
     <g transform="translate(25.560703 302.001582)scale(0.09 -0.09)">
      <defs>
       <path id="DejaVuSans-70" d="M 1159 525 
L 1159 -1331 
L 581 -1331 
L 581 3500 
L 1159 3500 
L 1159 2969 
Q 1341 3281 1617 3432 
Q 1894 3584 2278 3584 
Q 2916 3584 3314 3078 
Q 3713 2572 3713 1747 
Q 3713 922 3314 415 
Q 2916 -91 2278 -91 
Q 1894 -91 1617 61 
Q 1341 213 1159 525 
z
M 3116 1747 
Q 3116 2381 2855 2742 
Q 2594 3103 2138 3103 
Q 1681 3103 1420 2742 
Q 1159 2381 1159 1747 
Q 1159 1113 1420 752 
Q 1681 391 2138 391 
Q 2594 391 2855 752 
Q 3116 1113 3116 1747 
z
" transform="scale(0.015625)"/>
       <path id="DejaVuSans-72" d="M 2631 2963 
Q 2534 3019 2420 3045 
Q 2306 3072 2169 3072 
Q 1681 3072 1420 2755 
Q 1159 2438 1159 1844 
L 1159 0 
L 581 0 
L 581 3500 
L 1159 3500 
L 1159 2956 
Q 1341 3275 1631 3429 
Q 1922 3584 2338 3584 
Q 2397 3584 2469 3576 
Q 2541 3569 2628 3553 
L 2631 2963 
z
" transform="scale(0.015625)"/>
       <path id="DejaVuSans-73" d="M 2834 3397 
L 2834 2853 
Q 2591 2978 2328 3040 
Q 2066 3103 1784 3103 
Q 1356 3103 1142 2972 
Q 928 2841 928 2578 
Q 928 2378 1081 2264 
Q 1234 2150 1697 2047 
L 1894 2003 
Q 2506 1872 2764 1633 
Q 3022 1394 3022 966 
Q 3022 478 2636 193 
Q 2250 -91 1575 -91 
Q 1294 -91 989 -36 
Q 684 19 347 128 
L 347 722 
Q 666 556 975 473 
Q 1284 391 1588 391 
Q 1994 391 2212 530 
Q 2431 669 2431 922 
Q 2431 1156 2273 1281 
Q 2116 1406 1581 1522 
L 1381 1569 
Q 847 1681 609 1914 
Q 372 2147 372 2553 
Q 372 3047 722 3315 
Q 1072 3584 1716 3584 
Q 2034 3584 2315 3537 
Q 2597 3491 2834 3397 
z
" transform="scale(0.015625)"/>
       <path id="DejaVuSans-20" transform="scale(0.015625)"/>
       <path id="DejaVuSans-26" d="M 1556 2509 
Q 1272 2256 1139 2004 
Q 1006 1753 1006 1478 
Q 1006 1022 1337 719 
Q 1669 416 2169 416 
Q 2466 416 2725 514 
Q 2984 613 3213 813 
L 1556 2509 
z
M 1997 2859 
L 3584 1234 
Q 3769 1513 3872 1830 
Q 3975 2147 3994 2503 
L 4575 2503 
Q 4538 2091 4375 1687 
Q 4213 1284 3922 891 
L 4794 0 
L 4006 0 
L 3559 459 
Q 3234 181 2878 45 
Q 2522 -91 2113 -91 
Q 1359 -91 881 339 
Q 403 769 403 1441 
Q 403 1841 612 2192 
Q 822 2544 1241 2853 
Q 1091 3050 1012 3245 
Q 934 3441 934 3628 
Q 934 4134 1281 4442 
Q 1628 4750 2203 4750 
Q 2463 4750 2720 4694 
Q 2978 4638 3244 4525 
L 3244 3956 
Q 2972 4103 2725 4179 
Q 2478 4256 2266 4256 
Q 1938 4256 1733 4082 
Q 1528 3909 1528 3634 
Q 1528 3475 1620 3314 
Q 1713 3153 1997 2859 
z
" transform="scale(0.015625)"/>
       <path id="DejaVuSans-64" d="M 2906 2969 
L 2906 4863 
L 3481 4863 
L 3481 0 
L 2906 0 
L 2906 525 
Q 2725 213 2448 61 
Q 2172 -91 1784 -91 
Q 1150 -91 751 415 
Q 353 922 353 1747 
Q 353 2572 751 3078 
Q 1150 3584 1784 3584 
Q 2172 3584 2448 3432 
Q 2725 3281 2906 2969 
z
M 947 1747 
Q 947 1113 1208 752 
Q 1469 391 1925 391 
Q 2381 391 2643 752 
Q 2906 1113 2906 1747 
Q 2906 2381 2643 2742 
Q 2381 3103 1925 3103 
Q 1469 3103 1208 2742 
Q 947 2381 947 1747 
z
" transform="scale(0.015625)"/>
       <path id="DejaVuSans-6d" d="M 3328 2828 
Q 3544 3216 3844 3400 
Q 4144 3584 4550 3584 
Q 5097 3584 5394 3201 
Q 5691 2819 5691 2113 
L 5691 0 
L 5113 0 
L 5113 2094 
Q 5113 2597 4934 2840 
Q 4756 3084 4391 3084 
Q 3944 3084 3684 2787 
Q 3425 2491 3425 1978 
L 3425 0 
L 2847 0 
L 2847 2094 
Q 2847 2600 2669 2842 
Q 2491 3084 2119 3084 
Q 1678 3084 1418 2786 
Q 1159 2488 1159 1978 
L 1159 0 
L 581 0 
L 581 3500 
L 1159 3500 
L 1159 2956 
Q 1356 3278 1631 3431 
Q 1906 3584 2284 3584 
Q 2666 3584 2933 3390 
Q 3200 3197 3328 2828 
z
" transform="scale(0.015625)"/>
      </defs>
      <use xlink:href="#DejaVuSans-42"/>
      <use xlink:href="#DejaVuSans-6c" x="68.603516"/>
      <use xlink:href="#DejaVuSans-6f" x="96.386719"/>
      <use xlink:href="#DejaVuSans-6f" x="157.568359"/>
      <use xlink:href="#DejaVuSans-70" x="218.75"/>
      <use xlink:href="#DejaVuSans-65" x="282.226562"/>
      <use xlink:href="#DejaVuSans-72" x="343.75"/>
      <use xlink:href="#DejaVuSans-73" x="384.863281"/>
      <use xlink:href="#DejaVuSans-20" x="436.962891"/>
      <use xlink:href="#DejaVuSans-26" x="468.75"/>
      <use xlink:href="#DejaVuSans-20" x="546.728516"/>
      <use xlink:href="#DejaVuSans-43" x="578.515625"/>
      <use xlink:href="#DejaVuSans-61" x="648.339844"/>
      <use xlink:href="#DejaVuSans-6e" x="709.619141"/>
      <use xlink:href="#DejaVuSans-64" x="772.998047"/>
      <use xlink:href="#DejaVuSans-69" x="836.474609"/>
      <use xlink:href="#DejaVuSans-64" x="864.257812"/>
      <use xlink:href="#DejaVuSans-20" x="927.734375"/>
      <use xlink:href="#DejaVuSans-43" x="959.521484"/>
      <use xlink:href="#DejaVuSans-61" x="1029.345703"/>
      <use xlink:href="#DejaVuSans-6d" x="1090.625"/>
      <use xlink:href="#DejaVuSans-65" x="1188.037109"/>
      <use xlink:href="#DejaVuSans-72" x="1249.560547"/>
      <use xlink:href="#DejaVuSans-61" x="1290.673828"/>
     </g>
    </g>
   </g>
   <g id="text_5">
    <g id="patch_6">
     <path d="M 155.521424 505.833281 
L 215.278611 505.833281 
L 215.278611 489.202969 
L 155.521424 489.202969 
z
" clip-path="url(#pfb120013b9)" style="fill: #ffffff; opacity: 0.7; stroke: #000000; stroke-linejoin: miter"/>
    </g>
    <g clip-path="url(#pfb120013b9)">
     <!-- Auto racing -->
     <g transform="translate(159.481424 500.001562)scale(0.09 -0.09)">
      <defs>
       <path id="DejaVuSans-41" d="M 2188 4044 
L 1331 1722 
L 3047 1722 
L 2188 4044 
z
M 1831 4666 
L 2547 4666 
L 4325 0 
L 3669 0 
L 3244 1197 
L 1141 1197 
L 716 0 
L 50 0 
L 1831 4666 
z
" transform="scale(0.015625)"/>
      </defs>
      <use xlink:href="#DejaVuSans-41"/>
      <use xlink:href="#DejaVuSans-75" x="68.408203"/>
      <use xlink:href="#DejaVuSans-74" x="131.787109"/>
      <use xlink:href="#DejaVuSans-6f" x="170.996094"/>
      <use xlink:href="#DejaVuSans-20" x="232.177734"/>
      <use xlink:href="#DejaVuSans-72" x="263.964844"/>
      <use xlink:href="#DejaVuSans-61" x="305.078125"/>
      <use xlink:href="#DejaVuSans-63" x="366.357422"/>
      <use xlink:href="#DejaVuSans-69" x="421.337891"/>
      <use xlink:href="#DejaVuSans-6e" x="449.121094"/>
      <use xlink:href="#DejaVuSans-67" x="512.5"/>
     </g>
    </g>
   </g>
   <g id="text_6">
    <g id="patch_7">
     <path d="M 361.503264 505.833281 
L 405.296701 505.833281 
L 405.296701 489.202969 
L 361.503264 489.202969 
z
" clip-path="url(#pfb120013b9)" style="fill: #ffffff; opacity: 0.7; stroke: #000000; stroke-linejoin: miter"/>
    </g>
    <g clip-path="url(#pfb120013b9)">
     <!-- Mystery -->
     <g transform="translate(365.463264 500.001562)scale(0.09 -0.09)">
      <defs>
       <path id="DejaVuSans-4d" d="M 628 4666 
L 1569 4666 
L 2759 1491 
L 3956 4666 
L 4897 4666 
L 4897 0 
L 4281 0 
L 4281 4097 
L 3078 897 
L 2444 897 
L 1241 4097 
L 1241 0 
L 628 0 
L 628 4666 
z
" transform="scale(0.015625)"/>
       <path id="DejaVuSans-79" d="M 2059 -325 
Q 1816 -950 1584 -1140 
Q 1353 -1331 966 -1331 
L 506 -1331 
L 506 -850 
L 844 -850 
Q 1081 -850 1212 -737 
Q 1344 -625 1503 -206 
L 1606 56 
L 191 3500 
L 800 3500 
L 1894 763 
L 2988 3500 
L 3597 3500 
L 2059 -325 
z
" transform="scale(0.015625)"/>
      </defs>
      <use xlink:href="#DejaVuSans-4d"/>
      <use xlink:href="#DejaVuSans-79" x="86.279297"/>
      <use xlink:href="#DejaVuSans-73" x="145.458984"/>
      <use xlink:href="#DejaVuSans-74" x="197.558594"/>
      <use xlink:href="#DejaVuSans-65" x="236.767578"/>
      <use xlink:href="#DejaVuSans-72" x="298.291016"/>
      <use xlink:href="#DejaVuSans-79" x="339.404297"/>
     </g>
    </g>
   </g>
   <g id="text_7">
    <!-- Impactful genre combination for Documentary genre  -->
    <g transform="translate(123.680625 16.318125)scale(0.12 -0.12)">
     <defs>
      <path id="DejaVuSans-49" d="M 628 4666 
L 1259 4666 
L 1259 0 
L 628 0 
L 628 4666 
z
" transform="scale(0.015625)"/>
      <path id="DejaVuSans-66" d="M 2375 4863 
L 2375 4384 
L 1825 4384 
Q 1516 4384 1395 4259 
Q 1275 4134 1275 3809 
L 1275 3500 
L 2222 3500 
L 2222 3053 
L 1275 3053 
L 1275 0 
L 697 0 
L 697 3053 
L 147 3053 
L 147 3500 
L 697 3500 
L 697 3744 
Q 697 4328 969 4595 
Q 1241 4863 1831 4863 
L 2375 4863 
z
" transform="scale(0.015625)"/>
      <path id="DejaVuSans-62" d="M 3116 1747 
Q 3116 2381 2855 2742 
Q 2594 3103 2138 3103 
Q 1681 3103 1420 2742 
Q 1159 2381 1159 1747 
Q 1159 1113 1420 752 
Q 1681 391 2138 391 
Q 2594 391 2855 752 
Q 3116 1113 3116 1747 
z
M 1159 2969 
Q 1341 3281 1617 3432 
Q 1894 3584 2278 3584 
Q 2916 3584 3314 3078 
Q 3713 2572 3713 1747 
Q 3713 922 3314 415 
Q 2916 -91 2278 -91 
Q 1894 -91 1617 61 
Q 1341 213 1159 525 
L 1159 0 
L 581 0 
L 581 4863 
L 1159 4863 
L 1159 2969 
z
" transform="scale(0.015625)"/>
     </defs>
     <use xlink:href="#DejaVuSans-49"/>
     <use xlink:href="#DejaVuSans-6d" x="29.492188"/>
     <use xlink:href="#DejaVuSans-70" x="126.904297"/>
     <use xlink:href="#DejaVuSans-61" x="190.380859"/>
     <use xlink:href="#DejaVuSans-63" x="251.660156"/>
     <use xlink:href="#DejaVuSans-74" x="306.640625"/>
     <use xlink:href="#DejaVuSans-66" x="345.849609"/>
     <use xlink:href="#DejaVuSans-75" x="381.054688"/>
     <use xlink:href="#DejaVuSans-6c" x="444.433594"/>
     <use xlink:href="#DejaVuSans-20" x="472.216797"/>
     <use xlink:href="#DejaVuSans-67" x="504.003906"/>
     <use xlink:href="#DejaVuSans-65" x="567.480469"/>
     <use xlink:href="#DejaVuSans-6e" x="629.003906"/>
     <use xlink:href="#DejaVuSans-72" x="692.382812"/>
     <use xlink:href="#DejaVuSans-65" x="731.246094"/>
     <use xlink:href="#DejaVuSans-20" x="792.769531"/>
     <use xlink:href="#DejaVuSans-63" x="824.556641"/>
     <use xlink:href="#DejaVuSans-6f" x="879.537109"/>
     <use xlink:href="#DejaVuSans-6d" x="940.71875"/>
     <use xlink:href="#DejaVuSans-62" x="1038.130859"/>
     <use xlink:href="#DejaVuSans-69" x="1101.607422"/>
     <use xlink:href="#DejaVuSans-6e" x="1129.390625"/>
     <use xlink:href="#DejaVuSans-61" x="1192.769531"/>
     <use xlink:href="#DejaVuSans-74" x="1254.048828"/>
     <use xlink:href="#DejaVuSans-69" x="1293.257812"/>
     <use xlink:href="#DejaVuSans-6f" x="1321.041016"/>
     <use xlink:href="#DejaVuSans-6e" x="1382.222656"/>
     <use xlink:href="#DejaVuSans-20" x="1445.601562"/>
     <use xlink:href="#DejaVuSans-66" x="1477.388672"/>
     <use xlink:href="#DejaVuSans-6f" x="1512.59375"/>
     <use xlink:href="#DejaVuSans-72" x="1573.775391"/>
     <use xlink:href="#DejaVuSans-20" x="1614.888672"/>
     <use xlink:href="#DejaVuSans-44" x="1646.675781"/>
     <use xlink:href="#DejaVuSans-6f" x="1723.677734"/>
     <use xlink:href="#DejaVuSans-63" x="1784.859375"/>
     <use xlink:href="#DejaVuSans-75" x="1839.839844"/>
     <use xlink:href="#DejaVuSans-6d" x="1903.21875"/>
     <use xlink:href="#DejaVuSans-65" x="2000.630859"/>
     <use xlink:href="#DejaVuSans-6e" x="2062.154297"/>
     <use xlink:href="#DejaVuSans-74" x="2125.533203"/>
     <use xlink:href="#DejaVuSans-61" x="2164.742188"/>
     <use xlink:href="#DejaVuSans-72" x="2226.021484"/>
     <use xlink:href="#DejaVuSans-79" x="2267.134766"/>
     <use xlink:href="#DejaVuSans-20" x="2326.314453"/>
     <use xlink:href="#DejaVuSans-67" x="2358.101562"/>
     <use xlink:href="#DejaVuSans-65" x="2421.578125"/>
     <use xlink:href="#DejaVuSans-6e" x="2483.101562"/>
     <use xlink:href="#DejaVuSans-72" x="2546.480469"/>
     <use xlink:href="#DejaVuSans-65" x="2585.34375"/>
     <use xlink:href="#DejaVuSans-20" x="2646.867188"/>
    </g>
   </g>
  </g>
 </g>
 <defs>
  <clipPath id="pfb120013b9">
   <rect x="7.2" y="22.318125" width="554.4" height="554.4"/>
  </clipPath>
 </defs>
</svg>
