<?xml version="1.0" encoding="utf-8" standalone="no"?>
<!DOCTYPE svg PUBLIC "-//W3C//DTD SVG 1.1//EN"
  "http://www.w3.org/Graphics/SVG/1.1/DTD/svg11.dtd">
<svg xmlns:xlink="http://www.w3.org/1999/xlink" width="568.8pt" height="583.918125pt" viewBox="0 0 568.8 583.918125" xmlns="http://www.w3.org/2000/svg" version="1.1">
 <metadata>
  <rdf:RDF xmlns:dc="http://purl.org/dc/elements/1.1/" xmlns:cc="http://creativecommons.org/ns#" xmlns:rdf="http://www.w3.org/1999/02/22-rdf-syntax-ns#">
   <cc:Work>
    <dc:type rdf:resource="http://purl.org/dc/dcmitype/StillImage"/>
    <dc:date>2022-12-23T19:06:37.475426</dc:date>
    <dc:format>image/svg+xml</dc:format>
    <dc:creator>
     <cc:Agent>
      <dc:title>Matplotlib v3.5.2, https://matplotlib.org/</dc:title>
     </cc:Agent>
    </dc:creator>
   </cc:Work>
  </rdf:RDF>
 </metadata>
 <defs>
  <style type="text/css">*{stroke-linejoin: round; stroke-linecap: butt}</style>
 </defs>
 <g id="figure_1">
  <g id="patch_1">
   <path d="M 0 583.918125 
L 568.8 583.918125 
L 568.8 0 
L 0 0 
z
" style="fill: #ffffff"/>
  </g>
  <g id="axes_1">
   <g id="LineCollection_1">
    <path d="M 464.4 299.518119 
L 284.399997 299.518124 
" clip-path="url(#p3211d0ce77)" style="fill: none; stroke: #000000; stroke-opacity: 0.3; stroke-width: 11.255089"/>
    <path d="M 284.399997 299.518124 
L 194.399989 119.518125 
" clip-path="url(#p3211d0ce77)" style="fill: none; stroke: #000000; stroke-opacity: 0.3; stroke-width: 8.307553"/>
    <path d="M 284.399997 299.518124 
L 194.400016 479.518125 
" clip-path="url(#p3211d0ce77)" style="fill: none; stroke: #000000; stroke-opacity: 0.3; stroke-width: 8"/>
    <path d="M 284.399997 299.518124 
L 374.399984 479.518125 
" clip-path="url(#p3211d0ce77)" style="fill: none; stroke: #000000; stroke-opacity: 0.3; stroke-width: 13.927549"/>
    <path d="M 284.399997 299.518124 
L 104.4 299.518137 
" clip-path="url(#p3211d0ce77)" style="fill: none; stroke: #000000; stroke-opacity: 0.3; stroke-width: 14.311105"/>
   </g>
   <g id="PathCollection_1">
    <path d="M 464.4 325.975632 
C 471.416614 325.975632 478.146791 323.187901 483.108287 318.226406 
C 488.069783 313.26491 490.857513 306.534733 490.857513 299.518119 
C 490.857513 292.501504 488.069783 285.771328 483.108287 280.809832 
C 478.146791 275.848336 471.416614 273.060606 464.4 273.060606 
C 457.383386 273.060606 450.653209 275.848336 445.691713 280.809832 
C 440.730217 285.771328 437.942487 292.501504 437.942487 299.518119 
C 437.942487 306.534733 440.730217 313.26491 445.691713 318.226406 
C 450.653209 323.187901 457.383386 325.975632 464.4 325.975632 
z
" clip-path="url(#p3211d0ce77)" style="fill: #c70039; fill-opacity: 0.99; stroke: #c70039; stroke-opacity: 0.99"/>
    <path d="M 284.399997 320.637891 
C 290.001025 320.637891 295.373403 318.412579 299.333928 314.452055 
C 303.294453 310.49153 305.519765 305.119152 305.519765 299.518124 
C 305.519765 293.917096 303.294453 288.544718 299.333928 284.584193 
C 295.373403 280.623668 290.001025 278.398357 284.399997 278.398357 
C 278.79897 278.398357 273.426591 280.623668 269.466067 284.584193 
C 265.505542 288.544718 263.28023 293.917096 263.28023 299.518124 
C 263.28023 305.119152 265.505542 310.49153 269.466067 314.452055 
C 273.426591 318.412579 278.79897 320.637891 284.399997 320.637891 
z
" clip-path="url(#p3211d0ce77)" style="fill: #c70039; fill-opacity: 0.99; stroke: #c70039; stroke-opacity: 0.99"/>
    <path d="M 194.399989 140.11938 
C 199.863506 140.11938 205.103986 137.948701 208.967276 134.085412 
C 212.830566 130.222122 215.001244 124.981642 215.001244 119.518125 
C 215.001244 114.054608 212.830566 108.814128 208.967276 104.950838 
C 205.103986 101.087549 199.863506 98.91687 194.399989 98.91687 
C 188.936473 98.91687 183.695992 101.087549 179.832703 104.950838 
C 175.969413 108.814128 173.798735 114.054608 173.798735 119.518125 
C 173.798735 124.981642 175.969413 130.222122 179.832703 134.085412 
C 183.695992 137.948701 188.936473 140.11938 194.399989 140.11938 
z
" clip-path="url(#p3211d0ce77)" style="fill: #c70039; fill-opacity: 0.99; stroke: #c70039; stroke-opacity: 0.99"/>
    <path d="M 104.4 319.795359 
C 109.777582 319.795359 114.935636 317.658823 118.738161 313.856298 
C 122.540686 310.053773 124.677222 304.895719 124.677222 299.518137 
C 124.677222 294.140555 122.540686 288.982501 118.738161 285.179976 
C 114.935636 281.377451 109.777582 279.240915 104.4 279.240915 
C 99.022418 279.240915 93.864364 281.377451 90.061839 285.179976 
C 86.259314 288.982501 84.122778 294.140555 84.122778 299.518137 
C 84.122778 304.895719 86.259314 310.053773 90.061839 313.856298 
C 93.864364 317.658823 99.022418 319.795359 104.4 319.795359 
z
" clip-path="url(#p3211d0ce77)" style="fill: #c70039; fill-opacity: 0.99; stroke: #c70039; stroke-opacity: 0.99"/>
    <path d="M 194.400016 499.312621 
C 199.649578 499.312621 204.684838 497.226948 208.396838 493.514947 
C 212.108839 489.802947 214.194512 484.767687 214.194512 479.518125 
C 214.194512 474.268563 212.108839 469.233303 208.396838 465.521303 
C 204.684838 461.809302 199.649578 459.723629 194.400016 459.723629 
C 189.150454 459.723629 184.115195 461.809302 180.403194 465.521303 
C 176.691193 469.233303 174.60552 474.268563 174.60552 479.518125 
C 174.60552 484.767687 176.691193 489.802947 180.403194 493.514947 
C 184.115195 497.226948 189.150454 499.312621 194.400016 499.312621 
z
" clip-path="url(#p3211d0ce77)" style="fill: #c70039; fill-opacity: 0.99; stroke: #c70039; stroke-opacity: 0.99"/>
    <path d="M 374.399984 498.226412 
C 379.36148 498.226412 384.120433 496.255189 387.62874 492.746882 
C 391.137048 489.238574 393.108271 484.479621 393.108271 479.518125 
C 393.108271 474.556629 391.137048 469.797676 387.62874 466.289368 
C 384.120433 462.781061 379.36148 460.809838 374.399984 460.809838 
C 369.438488 460.809838 364.679535 462.781061 361.171227 466.289368 
C 357.66292 469.797676 355.691697 474.556629 355.691697 479.518125 
C 355.691697 484.479621 357.66292 489.238574 361.171227 492.746882 
C 364.679535 496.255189 369.438488 498.226412 374.399984 498.226412 
z
" clip-path="url(#p3211d0ce77)" style="fill: #c70039; fill-opacity: 0.99; stroke: #c70039; stroke-opacity: 0.99"/>
   </g>
   <g id="text_1">
    <g id="patch_2">
     <path d="M 437.5125 307.833275 
L 491.2875 307.833275 
L 491.2875 291.202963 
L 437.5125 291.202963 
z
" clip-path="url(#p3211d0ce77)" style="fill: #ffffff; opacity: 0.7; stroke: #000000; stroke-linejoin: miter"/>
    </g>
    <g clip-path="url(#p3211d0ce77)">
     <!-- Biography -->
     <g transform="translate(441.4725 302.001556)scale(0.09 -0.09)">
      <defs>
       <path id="DejaVuSans-42" d="M 1259 2228 
L 1259 519 
L 2272 519 
Q 2781 519 3026 730 
Q 3272 941 3272 1375 
Q 3272 1813 3026 2020 
Q 2781 2228 2272 2228 
L 1259 2228 
z
M 1259 4147 
L 1259 2741 
L 2194 2741 
Q 2656 2741 2882 2914 
Q 3109 3088 3109 3444 
Q 3109 3797 2882 3972 
Q 2656 4147 2194 4147 
L 1259 4147 
z
M 628 4666 
L 2241 4666 
Q 2963 4666 3353 4366 
Q 3744 4066 3744 3513 
Q 3744 3084 3544 2831 
Q 3344 2578 2956 2516 
Q 3422 2416 3680 2098 
Q 3938 1781 3938 1306 
Q 3938 681 3513 340 
Q 3088 0 2303 0 
L 628 0 
L 628 4666 
z
" transform="scale(0.015625)"/>
       <path id="DejaVuSans-69" d="M 603 3500 
L 1178 3500 
L 1178 0 
L 603 0 
L 603 3500 
z
M 603 4863 
L 1178 4863 
L 1178 4134 
L 603 4134 
L 603 4863 
z
" transform="scale(0.015625)"/>
       <path id="DejaVuSans-6f" d="M 1959 3097 
Q 1497 3097 1228 2736 
Q 959 2375 959 1747 
Q 959 1119 1226 758 
Q 1494 397 1959 397 
Q 2419 397 2687 759 
Q 2956 1122 2956 1747 
Q 2956 2369 2687 2733 
Q 2419 3097 1959 3097 
z
M 1959 3584 
Q 2709 3584 3137 3096 
Q 3566 2609 3566 1747 
Q 3566 888 3137 398 
Q 2709 -91 1959 -91 
Q 1206 -91 779 398 
Q 353 888 353 1747 
Q 353 2609 779 3096 
Q 1206 3584 1959 3584 
z
" transform="scale(0.015625)"/>
       <path id="DejaVuSans-67" d="M 2906 1791 
Q 2906 2416 2648 2759 
Q 2391 3103 1925 3103 
Q 1463 3103 1205 2759 
Q 947 2416 947 1791 
Q 947 1169 1205 825 
Q 1463 481 1925 481 
Q 2391 481 2648 825 
Q 2906 1169 2906 1791 
z
M 3481 434 
Q 3481 -459 3084 -895 
Q 2688 -1331 1869 -1331 
Q 1566 -1331 1297 -1286 
Q 1028 -1241 775 -1147 
L 775 -588 
Q 1028 -725 1275 -790 
Q 1522 -856 1778 -856 
Q 2344 -856 2625 -561 
Q 2906 -266 2906 331 
L 2906 616 
Q 2728 306 2450 153 
Q 2172 0 1784 0 
Q 1141 0 747 490 
Q 353 981 353 1791 
Q 353 2603 747 3093 
Q 1141 3584 1784 3584 
Q 2172 3584 2450 3431 
Q 2728 3278 2906 2969 
L 2906 3500 
L 3481 3500 
L 3481 434 
z
" transform="scale(0.015625)"/>
       <path id="DejaVuSans-72" d="M 2631 2963 
Q 2534 3019 2420 3045 
Q 2306 3072 2169 3072 
Q 1681 3072 1420 2755 
Q 1159 2438 1159 1844 
L 1159 0 
L 581 0 
L 581 3500 
L 1159 3500 
L 1159 2956 
Q 1341 3275 1631 3429 
Q 1922 3584 2338 3584 
Q 2397 3584 2469 3576 
Q 2541 3569 2628 3553 
L 2631 2963 
z
" transform="scale(0.015625)"/>
       <path id="DejaVuSans-61" d="M 2194 1759 
Q 1497 1759 1228 1600 
Q 959 1441 959 1056 
Q 959 750 1161 570 
Q 1363 391 1709 391 
Q 2188 391 2477 730 
Q 2766 1069 2766 1631 
L 2766 1759 
L 2194 1759 
z
M 3341 1997 
L 3341 0 
L 2766 0 
L 2766 531 
Q 2569 213 2275 61 
Q 1981 -91 1556 -91 
Q 1019 -91 701 211 
Q 384 513 384 1019 
Q 384 1609 779 1909 
Q 1175 2209 1959 2209 
L 2766 2209 
L 2766 2266 
Q 2766 2663 2505 2880 
Q 2244 3097 1772 3097 
Q 1472 3097 1187 3025 
Q 903 2953 641 2809 
L 641 3341 
Q 956 3463 1253 3523 
Q 1550 3584 1831 3584 
Q 2591 3584 2966 3190 
Q 3341 2797 3341 1997 
z
" transform="scale(0.015625)"/>
       <path id="DejaVuSans-70" d="M 1159 525 
L 1159 -1331 
L 581 -1331 
L 581 3500 
L 1159 3500 
L 1159 2969 
Q 1341 3281 1617 3432 
Q 1894 3584 2278 3584 
Q 2916 3584 3314 3078 
Q 3713 2572 3713 1747 
Q 3713 922 3314 415 
Q 2916 -91 2278 -91 
Q 1894 -91 1617 61 
Q 1341 213 1159 525 
z
M 3116 1747 
Q 3116 2381 2855 2742 
Q 2594 3103 2138 3103 
Q 1681 3103 1420 2742 
Q 1159 2381 1159 1747 
Q 1159 1113 1420 752 
Q 1681 391 2138 391 
Q 2594 391 2855 752 
Q 3116 1113 3116 1747 
z
" transform="scale(0.015625)"/>
       <path id="DejaVuSans-68" d="M 3513 2113 
L 3513 0 
L 2938 0 
L 2938 2094 
Q 2938 2591 2744 2837 
Q 2550 3084 2163 3084 
Q 1697 3084 1428 2787 
Q 1159 2491 1159 1978 
L 1159 0 
L 581 0 
L 581 4863 
L 1159 4863 
L 1159 2956 
Q 1366 3272 1645 3428 
Q 1925 3584 2291 3584 
Q 2894 3584 3203 3211 
Q 3513 2838 3513 2113 
z
" transform="scale(0.015625)"/>
       <path id="DejaVuSans-79" d="M 2059 -325 
Q 1816 -950 1584 -1140 
Q 1353 -1331 966 -1331 
L 506 -1331 
L 506 -850 
L 844 -850 
Q 1081 -850 1212 -737 
Q 1344 -625 1503 -206 
L 1606 56 
L 191 3500 
L 800 3500 
L 1894 763 
L 2988 3500 
L 3597 3500 
L 2059 -325 
z
" transform="scale(0.015625)"/>
      </defs>
      <use xlink:href="#DejaVuSans-42"/>
      <use xlink:href="#DejaVuSans-69" x="68.603516"/>
      <use xlink:href="#DejaVuSans-6f" x="96.386719"/>
      <use xlink:href="#DejaVuSans-67" x="157.568359"/>
      <use xlink:href="#DejaVuSans-72" x="221.044922"/>
      <use xlink:href="#DejaVuSans-61" x="262.158203"/>
      <use xlink:href="#DejaVuSans-70" x="323.4375"/>
      <use xlink:href="#DejaVuSans-68" x="386.914062"/>
      <use xlink:href="#DejaVuSans-79" x="450.292969"/>
     </g>
    </g>
   </g>
   <g id="text_2">
    <g id="patch_3">
     <path d="M 249.856169 307.83328 
L 318.943825 307.83328 
L 318.943825 291.202968 
L 249.856169 291.202968 
z
" clip-path="url(#p3211d0ce77)" style="fill: #ffffff; opacity: 0.7; stroke: #000000; stroke-linejoin: miter"/>
    </g>
    <g clip-path="url(#p3211d0ce77)">
     <!-- Documentary -->
     <g transform="translate(253.816169 302.001561)scale(0.09 -0.09)">
      <defs>
       <path id="DejaVuSans-44" d="M 1259 4147 
L 1259 519 
L 2022 519 
Q 2988 519 3436 956 
Q 3884 1394 3884 2338 
Q 3884 3275 3436 3711 
Q 2988 4147 2022 4147 
L 1259 4147 
z
M 628 4666 
L 1925 4666 
Q 3281 4666 3915 4102 
Q 4550 3538 4550 2338 
Q 4550 1131 3912 565 
Q 3275 0 1925 0 
L 628 0 
L 628 4666 
z
" transform="scale(0.015625)"/>
       <path id="DejaVuSans-63" d="M 3122 3366 
L 3122 2828 
Q 2878 2963 2633 3030 
Q 2388 3097 2138 3097 
Q 1578 3097 1268 2742 
Q 959 2388 959 1747 
Q 959 1106 1268 751 
Q 1578 397 2138 397 
Q 2388 397 2633 464 
Q 2878 531 3122 666 
L 3122 134 
Q 2881 22 2623 -34 
Q 2366 -91 2075 -91 
Q 1284 -91 818 406 
Q 353 903 353 1747 
Q 353 2603 823 3093 
Q 1294 3584 2113 3584 
Q 2378 3584 2631 3529 
Q 2884 3475 3122 3366 
z
" transform="scale(0.015625)"/>
       <path id="DejaVuSans-75" d="M 544 1381 
L 544 3500 
L 1119 3500 
L 1119 1403 
Q 1119 906 1312 657 
Q 1506 409 1894 409 
Q 2359 409 2629 706 
Q 2900 1003 2900 1516 
L 2900 3500 
L 3475 3500 
L 3475 0 
L 2900 0 
L 2900 538 
Q 2691 219 2414 64 
Q 2138 -91 1772 -91 
Q 1169 -91 856 284 
Q 544 659 544 1381 
z
M 1991 3584 
L 1991 3584 
z
" transform="scale(0.015625)"/>
       <path id="DejaVuSans-6d" d="M 3328 2828 
Q 3544 3216 3844 3400 
Q 4144 3584 4550 3584 
Q 5097 3584 5394 3201 
Q 5691 2819 5691 2113 
L 5691 0 
L 5113 0 
L 5113 2094 
Q 5113 2597 4934 2840 
Q 4756 3084 4391 3084 
Q 3944 3084 3684 2787 
Q 3425 2491 3425 1978 
L 3425 0 
L 2847 0 
L 2847 2094 
Q 2847 2600 2669 2842 
Q 2491 3084 2119 3084 
Q 1678 3084 1418 2786 
Q 1159 2488 1159 1978 
L 1159 0 
L 581 0 
L 581 3500 
L 1159 3500 
L 1159 2956 
Q 1356 3278 1631 3431 
Q 1906 3584 2284 3584 
Q 2666 3584 2933 3390 
Q 3200 3197 3328 2828 
z
" transform="scale(0.015625)"/>
       <path id="DejaVuSans-65" d="M 3597 1894 
L 3597 1613 
L 953 1613 
Q 991 1019 1311 708 
Q 1631 397 2203 397 
Q 2534 397 2845 478 
Q 3156 559 3463 722 
L 3463 178 
Q 3153 47 2828 -22 
Q 2503 -91 2169 -91 
Q 1331 -91 842 396 
Q 353 884 353 1716 
Q 353 2575 817 3079 
Q 1281 3584 2069 3584 
Q 2775 3584 3186 3129 
Q 3597 2675 3597 1894 
z
M 3022 2063 
Q 3016 2534 2758 2815 
Q 2500 3097 2075 3097 
Q 1594 3097 1305 2825 
Q 1016 2553 972 2059 
L 3022 2063 
z
" transform="scale(0.015625)"/>
       <path id="DejaVuSans-6e" d="M 3513 2113 
L 3513 0 
L 2938 0 
L 2938 2094 
Q 2938 2591 2744 2837 
Q 2550 3084 2163 3084 
Q 1697 3084 1428 2787 
Q 1159 2491 1159 1978 
L 1159 0 
L 581 0 
L 581 3500 
L 1159 3500 
L 1159 2956 
Q 1366 3272 1645 3428 
Q 1925 3584 2291 3584 
Q 2894 3584 3203 3211 
Q 3513 2838 3513 2113 
z
" transform="scale(0.015625)"/>
       <path id="DejaVuSans-74" d="M 1172 4494 
L 1172 3500 
L 2356 3500 
L 2356 3053 
L 1172 3053 
L 1172 1153 
Q 1172 725 1289 603 
Q 1406 481 1766 481 
L 2356 481 
L 2356 0 
L 1766 0 
Q 1100 0 847 248 
Q 594 497 594 1153 
L 594 3053 
L 172 3053 
L 172 3500 
L 594 3500 
L 594 4494 
L 1172 4494 
z
" transform="scale(0.015625)"/>
      </defs>
      <use xlink:href="#DejaVuSans-44"/>
      <use xlink:href="#DejaVuSans-6f" x="77.001953"/>
      <use xlink:href="#DejaVuSans-63" x="138.183594"/>
      <use xlink:href="#DejaVuSans-75" x="193.164062"/>
      <use xlink:href="#DejaVuSans-6d" x="256.542969"/>
      <use xlink:href="#DejaVuSans-65" x="353.955078"/>
      <use xlink:href="#DejaVuSans-6e" x="415.478516"/>
      <use xlink:href="#DejaVuSans-74" x="478.857422"/>
      <use xlink:href="#DejaVuSans-61" x="518.066406"/>
      <use xlink:href="#DejaVuSans-72" x="579.345703"/>
      <use xlink:href="#DejaVuSans-79" x="620.458984"/>
     </g>
    </g>
   </g>
   <g id="text_3">
    <g id="patch_4">
     <path d="M 181.294442 127.833281 
L 207.505536 127.833281 
L 207.505536 111.202969 
L 181.294442 111.202969 
z
" clip-path="url(#p3211d0ce77)" style="fill: #ffffff; opacity: 0.7; stroke: #000000; stroke-linejoin: miter"/>
    </g>
    <g clip-path="url(#p3211d0ce77)">
     <!-- Film -->
     <g transform="translate(185.254442 122.001562)scale(0.09 -0.09)">
      <defs>
       <path id="DejaVuSans-46" d="M 628 4666 
L 3309 4666 
L 3309 4134 
L 1259 4134 
L 1259 2759 
L 3109 2759 
L 3109 2228 
L 1259 2228 
L 1259 0 
L 628 0 
L 628 4666 
z
" transform="scale(0.015625)"/>
       <path id="DejaVuSans-6c" d="M 603 4863 
L 1178 4863 
L 1178 0 
L 603 0 
L 603 4863 
z
" transform="scale(0.015625)"/>
      </defs>
      <use xlink:href="#DejaVuSans-46"/>
      <use xlink:href="#DejaVuSans-69" x="50.269531"/>
      <use xlink:href="#DejaVuSans-6c" x="78.052734"/>
      <use xlink:href="#DejaVuSans-6d" x="105.835938"/>
     </g>
    </g>
   </g>
   <g id="text_4">
    <g id="patch_5">
     <path d="M 45.600469 307.833293 
L 163.199531 307.833293 
L 163.199531 291.202981 
L 45.600469 291.202981 
z
" clip-path="url(#p3211d0ce77)" style="fill: #ffffff; opacity: 0.7; stroke: #000000; stroke-linejoin: miter"/>
    </g>
    <g clip-path="url(#p3211d0ce77)">
     <!-- Film &amp; Television History -->
     <g transform="translate(49.560469 302.001574)scale(0.09 -0.09)">
      <defs>
       <path id="DejaVuSans-20" transform="scale(0.015625)"/>
       <path id="DejaVuSans-26" d="M 1556 2509 
Q 1272 2256 1139 2004 
Q 1006 1753 1006 1478 
Q 1006 1022 1337 719 
Q 1669 416 2169 416 
Q 2466 416 2725 514 
Q 2984 613 3213 813 
L 1556 2509 
z
M 1997 2859 
L 3584 1234 
Q 3769 1513 3872 1830 
Q 3975 2147 3994 2503 
L 4575 2503 
Q 4538 2091 4375 1687 
Q 4213 1284 3922 891 
L 4794 0 
L 4006 0 
L 3559 459 
Q 3234 181 2878 45 
Q 2522 -91 2113 -91 
Q 1359 -91 881 339 
Q 403 769 403 1441 
Q 403 1841 612 2192 
Q 822 2544 1241 2853 
Q 1091 3050 1012 3245 
Q 934 3441 934 3628 
Q 934 4134 1281 4442 
Q 1628 4750 2203 4750 
Q 2463 4750 2720 4694 
Q 2978 4638 3244 4525 
L 3244 3956 
Q 2972 4103 2725 4179 
Q 2478 4256 2266 4256 
Q 1938 4256 1733 4082 
Q 1528 3909 1528 3634 
Q 1528 3475 1620 3314 
Q 1713 3153 1997 2859 
z
" transform="scale(0.015625)"/>
       <path id="DejaVuSans-54" d="M -19 4666 
L 3928 4666 
L 3928 4134 
L 2272 4134 
L 2272 0 
L 1638 0 
L 1638 4134 
L -19 4134 
L -19 4666 
z
" transform="scale(0.015625)"/>
       <path id="DejaVuSans-76" d="M 191 3500 
L 800 3500 
L 1894 563 
L 2988 3500 
L 3597 3500 
L 2284 0 
L 1503 0 
L 191 3500 
z
" transform="scale(0.015625)"/>
       <path id="DejaVuSans-73" d="M 2834 3397 
L 2834 2853 
Q 2591 2978 2328 3040 
Q 2066 3103 1784 3103 
Q 1356 3103 1142 2972 
Q 928 2841 928 2578 
Q 928 2378 1081 2264 
Q 1234 2150 1697 2047 
L 1894 2003 
Q 2506 1872 2764 1633 
Q 3022 1394 3022 966 
Q 3022 478 2636 193 
Q 2250 -91 1575 -91 
Q 1294 -91 989 -36 
Q 684 19 347 128 
L 347 722 
Q 666 556 975 473 
Q 1284 391 1588 391 
Q 1994 391 2212 530 
Q 2431 669 2431 922 
Q 2431 1156 2273 1281 
Q 2116 1406 1581 1522 
L 1381 1569 
Q 847 1681 609 1914 
Q 372 2147 372 2553 
Q 372 3047 722 3315 
Q 1072 3584 1716 3584 
Q 2034 3584 2315 3537 
Q 2597 3491 2834 3397 
z
" transform="scale(0.015625)"/>
       <path id="DejaVuSans-48" d="M 628 4666 
L 1259 4666 
L 1259 2753 
L 3553 2753 
L 3553 4666 
L 4184 4666 
L 4184 0 
L 3553 0 
L 3553 2222 
L 1259 2222 
L 1259 0 
L 628 0 
L 628 4666 
z
" transform="scale(0.015625)"/>
      </defs>
      <use xlink:href="#DejaVuSans-46"/>
      <use xlink:href="#DejaVuSans-69" x="50.269531"/>
      <use xlink:href="#DejaVuSans-6c" x="78.052734"/>
      <use xlink:href="#DejaVuSans-6d" x="105.835938"/>
      <use xlink:href="#DejaVuSans-20" x="203.248047"/>
      <use xlink:href="#DejaVuSans-26" x="235.035156"/>
      <use xlink:href="#DejaVuSans-20" x="313.013672"/>
      <use xlink:href="#DejaVuSans-54" x="344.800781"/>
      <use xlink:href="#DejaVuSans-65" x="388.884766"/>
      <use xlink:href="#DejaVuSans-6c" x="450.408203"/>
      <use xlink:href="#DejaVuSans-65" x="478.191406"/>
      <use xlink:href="#DejaVuSans-76" x="539.714844"/>
      <use xlink:href="#DejaVuSans-69" x="598.894531"/>
      <use xlink:href="#DejaVuSans-73" x="626.677734"/>
      <use xlink:href="#DejaVuSans-69" x="678.777344"/>
      <use xlink:href="#DejaVuSans-6f" x="706.560547"/>
      <use xlink:href="#DejaVuSans-6e" x="767.742188"/>
      <use xlink:href="#DejaVuSans-20" x="831.121094"/>
      <use xlink:href="#DejaVuSans-48" x="862.908203"/>
      <use xlink:href="#DejaVuSans-69" x="938.103516"/>
      <use xlink:href="#DejaVuSans-73" x="965.886719"/>
      <use xlink:href="#DejaVuSans-74" x="1017.986328"/>
      <use xlink:href="#DejaVuSans-6f" x="1057.195312"/>
      <use xlink:href="#DejaVuSans-72" x="1118.376953"/>
      <use xlink:href="#DejaVuSans-79" x="1159.490234"/>
     </g>
    </g>
   </g>
   <g id="text_5">
    <g id="patch_6">
     <path d="M 155.223297 487.833281 
L 233.576735 487.833281 
L 233.576735 471.202969 
L 155.223297 471.202969 
z
" clip-path="url(#p3211d0ce77)" style="fill: #ffffff; opacity: 0.7; stroke: #000000; stroke-linejoin: miter"/>
    </g>
    <g clip-path="url(#p3211d0ce77)">
     <!-- Political cinema -->
     <g transform="translate(159.183297 482.001562)scale(0.09 -0.09)">
      <defs>
       <path id="DejaVuSans-50" d="M 1259 4147 
L 1259 2394 
L 2053 2394 
Q 2494 2394 2734 2622 
Q 2975 2850 2975 3272 
Q 2975 3691 2734 3919 
Q 2494 4147 2053 4147 
L 1259 4147 
z
M 628 4666 
L 2053 4666 
Q 2838 4666 3239 4311 
Q 3641 3956 3641 3272 
Q 3641 2581 3239 2228 
Q 2838 1875 2053 1875 
L 1259 1875 
L 1259 0 
L 628 0 
L 628 4666 
z
" transform="scale(0.015625)"/>
      </defs>
      <use xlink:href="#DejaVuSans-50"/>
      <use xlink:href="#DejaVuSans-6f" x="56.677734"/>
      <use xlink:href="#DejaVuSans-6c" x="117.859375"/>
      <use xlink:href="#DejaVuSans-69" x="145.642578"/>
      <use xlink:href="#DejaVuSans-74" x="173.425781"/>
      <use xlink:href="#DejaVuSans-69" x="212.634766"/>
      <use xlink:href="#DejaVuSans-63" x="240.417969"/>
      <use xlink:href="#DejaVuSans-61" x="295.398438"/>
      <use xlink:href="#DejaVuSans-6c" x="356.677734"/>
      <use xlink:href="#DejaVuSans-20" x="384.460938"/>
      <use xlink:href="#DejaVuSans-63" x="416.248047"/>
      <use xlink:href="#DejaVuSans-69" x="471.228516"/>
      <use xlink:href="#DejaVuSans-6e" x="499.011719"/>
      <use xlink:href="#DejaVuSans-65" x="562.390625"/>
      <use xlink:href="#DejaVuSans-6d" x="623.914062"/>
      <use xlink:href="#DejaVuSans-61" x="721.326172"/>
     </g>
    </g>
   </g>
   <g id="text_6">
    <g id="patch_7">
     <path d="M 338.800765 487.833281 
L 409.999203 487.833281 
L 409.999203 471.202969 
L 338.800765 471.202969 
z
" clip-path="url(#p3211d0ce77)" style="fill: #ffffff; opacity: 0.7; stroke: #000000; stroke-linejoin: miter"/>
    </g>
    <g clip-path="url(#p3211d0ce77)">
     <!-- Media Studies -->
     <g transform="translate(342.760765 482.001562)scale(0.09 -0.09)">
      <defs>
       <path id="DejaVuSans-4d" d="M 628 4666 
L 1569 4666 
L 2759 1491 
L 3956 4666 
L 4897 4666 
L 4897 0 
L 4281 0 
L 4281 4097 
L 3078 897 
L 2444 897 
L 1241 4097 
L 1241 0 
L 628 0 
L 628 4666 
z
" transform="scale(0.015625)"/>
       <path id="DejaVuSans-64" d="M 2906 2969 
L 2906 4863 
L 3481 4863 
L 3481 0 
L 2906 0 
L 2906 525 
Q 2725 213 2448 61 
Q 2172 -91 1784 -91 
Q 1150 -91 751 415 
Q 353 922 353 1747 
Q 353 2572 751 3078 
Q 1150 3584 1784 3584 
Q 2172 3584 2448 3432 
Q 2725 3281 2906 2969 
z
M 947 1747 
Q 947 1113 1208 752 
Q 1469 391 1925 391 
Q 2381 391 2643 752 
Q 2906 1113 2906 1747 
Q 2906 2381 2643 2742 
Q 2381 3103 1925 3103 
Q 1469 3103 1208 2742 
Q 947 2381 947 1747 
z
" transform="scale(0.015625)"/>
       <path id="DejaVuSans-53" d="M 3425 4513 
L 3425 3897 
Q 3066 4069 2747 4153 
Q 2428 4238 2131 4238 
Q 1616 4238 1336 4038 
Q 1056 3838 1056 3469 
Q 1056 3159 1242 3001 
Q 1428 2844 1947 2747 
L 2328 2669 
Q 3034 2534 3370 2195 
Q 3706 1856 3706 1288 
Q 3706 609 3251 259 
Q 2797 -91 1919 -91 
Q 1588 -91 1214 -16 
Q 841 59 441 206 
L 441 856 
Q 825 641 1194 531 
Q 1563 422 1919 422 
Q 2459 422 2753 634 
Q 3047 847 3047 1241 
Q 3047 1584 2836 1778 
Q 2625 1972 2144 2069 
L 1759 2144 
Q 1053 2284 737 2584 
Q 422 2884 422 3419 
Q 422 4038 858 4394 
Q 1294 4750 2059 4750 
Q 2388 4750 2728 4690 
Q 3069 4631 3425 4513 
z
" transform="scale(0.015625)"/>
      </defs>
      <use xlink:href="#DejaVuSans-4d"/>
      <use xlink:href="#DejaVuSans-65" x="86.279297"/>
      <use xlink:href="#DejaVuSans-64" x="147.802734"/>
      <use xlink:href="#DejaVuSans-69" x="211.279297"/>
      <use xlink:href="#DejaVuSans-61" x="239.0625"/>
      <use xlink:href="#DejaVuSans-20" x="300.341797"/>
      <use xlink:href="#DejaVuSans-53" x="332.128906"/>
      <use xlink:href="#DejaVuSans-74" x="395.605469"/>
      <use xlink:href="#DejaVuSans-75" x="434.814453"/>
      <use xlink:href="#DejaVuSans-64" x="498.193359"/>
      <use xlink:href="#DejaVuSans-69" x="561.669922"/>
      <use xlink:href="#DejaVuSans-65" x="589.453125"/>
      <use xlink:href="#DejaVuSans-73" x="650.976562"/>
     </g>
    </g>
   </g>
   <g id="text_7">
    <!-- Impactful genre combination for Documentary genre - Importance rank: 6 -->
    <g transform="translate(62.1525 16.318125)scale(0.12 -0.12)">
     <defs>
      <path id="DejaVuSans-49" d="M 628 4666 
L 1259 4666 
L 1259 0 
L 628 0 
L 628 4666 
z
" transform="scale(0.015625)"/>
      <path id="DejaVuSans-66" d="M 2375 4863 
L 2375 4384 
L 1825 4384 
Q 1516 4384 1395 4259 
Q 1275 4134 1275 3809 
L 1275 3500 
L 2222 3500 
L 2222 3053 
L 1275 3053 
L 1275 0 
L 697 0 
L 697 3053 
L 147 3053 
L 147 3500 
L 697 3500 
L 697 3744 
Q 697 4328 969 4595 
Q 1241 4863 1831 4863 
L 2375 4863 
z
" transform="scale(0.015625)"/>
      <path id="DejaVuSans-62" d="M 3116 1747 
Q 3116 2381 2855 2742 
Q 2594 3103 2138 3103 
Q 1681 3103 1420 2742 
Q 1159 2381 1159 1747 
Q 1159 1113 1420 752 
Q 1681 391 2138 391 
Q 2594 391 2855 752 
Q 3116 1113 3116 1747 
z
M 1159 2969 
Q 1341 3281 1617 3432 
Q 1894 3584 2278 3584 
Q 2916 3584 3314 3078 
Q 3713 2572 3713 1747 
Q 3713 922 3314 415 
Q 2916 -91 2278 -91 
Q 1894 -91 1617 61 
Q 1341 213 1159 525 
L 1159 0 
L 581 0 
L 581 4863 
L 1159 4863 
L 1159 2969 
z
" transform="scale(0.015625)"/>
      <path id="DejaVuSans-2d" d="M 313 2009 
L 1997 2009 
L 1997 1497 
L 313 1497 
L 313 2009 
z
" transform="scale(0.015625)"/>
      <path id="DejaVuSans-6b" d="M 581 4863 
L 1159 4863 
L 1159 1991 
L 2875 3500 
L 3609 3500 
L 1753 1863 
L 3688 0 
L 2938 0 
L 1159 1709 
L 1159 0 
L 581 0 
L 581 4863 
z
" transform="scale(0.015625)"/>
      <path id="DejaVuSans-3a" d="M 750 794 
L 1409 794 
L 1409 0 
L 750 0 
L 750 794 
z
M 750 3309 
L 1409 3309 
L 1409 2516 
L 750 2516 
L 750 3309 
z
" transform="scale(0.015625)"/>
      <path id="DejaVuSans-36" d="M 2113 2584 
Q 1688 2584 1439 2293 
Q 1191 2003 1191 1497 
Q 1191 994 1439 701 
Q 1688 409 2113 409 
Q 2538 409 2786 701 
Q 3034 994 3034 1497 
Q 3034 2003 2786 2293 
Q 2538 2584 2113 2584 
z
M 3366 4563 
L 3366 3988 
Q 3128 4100 2886 4159 
Q 2644 4219 2406 4219 
Q 1781 4219 1451 3797 
Q 1122 3375 1075 2522 
Q 1259 2794 1537 2939 
Q 1816 3084 2150 3084 
Q 2853 3084 3261 2657 
Q 3669 2231 3669 1497 
Q 3669 778 3244 343 
Q 2819 -91 2113 -91 
Q 1303 -91 875 529 
Q 447 1150 447 2328 
Q 447 3434 972 4092 
Q 1497 4750 2381 4750 
Q 2619 4750 2861 4703 
Q 3103 4656 3366 4563 
z
" transform="scale(0.015625)"/>
     </defs>
     <use xlink:href="#DejaVuSans-49"/>
     <use xlink:href="#DejaVuSans-6d" x="29.492188"/>
     <use xlink:href="#DejaVuSans-70" x="126.904297"/>
     <use xlink:href="#DejaVuSans-61" x="190.380859"/>
     <use xlink:href="#DejaVuSans-63" x="251.660156"/>
     <use xlink:href="#DejaVuSans-74" x="306.640625"/>
     <use xlink:href="#DejaVuSans-66" x="345.849609"/>
     <use xlink:href="#DejaVuSans-75" x="381.054688"/>
     <use xlink:href="#DejaVuSans-6c" x="444.433594"/>
     <use xlink:href="#DejaVuSans-20" x="472.216797"/>
     <use xlink:href="#DejaVuSans-67" x="504.003906"/>
     <use xlink:href="#DejaVuSans-65" x="567.480469"/>
     <use xlink:href="#DejaVuSans-6e" x="629.003906"/>
     <use xlink:href="#DejaVuSans-72" x="692.382812"/>
     <use xlink:href="#DejaVuSans-65" x="731.246094"/>
     <use xlink:href="#DejaVuSans-20" x="792.769531"/>
     <use xlink:href="#DejaVuSans-63" x="824.556641"/>
     <use xlink:href="#DejaVuSans-6f" x="879.537109"/>
     <use xlink:href="#DejaVuSans-6d" x="940.71875"/>
     <use xlink:href="#DejaVuSans-62" x="1038.130859"/>
     <use xlink:href="#DejaVuSans-69" x="1101.607422"/>
     <use xlink:href="#DejaVuSans-6e" x="1129.390625"/>
     <use xlink:href="#DejaVuSans-61" x="1192.769531"/>
     <use xlink:href="#DejaVuSans-74" x="1254.048828"/>
     <use xlink:href="#DejaVuSans-69" x="1293.257812"/>
     <use xlink:href="#DejaVuSans-6f" x="1321.041016"/>
     <use xlink:href="#DejaVuSans-6e" x="1382.222656"/>
     <use xlink:href="#DejaVuSans-20" x="1445.601562"/>
     <use xlink:href="#DejaVuSans-66" x="1477.388672"/>
     <use xlink:href="#DejaVuSans-6f" x="1512.59375"/>
     <use xlink:href="#DejaVuSans-72" x="1573.775391"/>
     <use xlink:href="#DejaVuSans-20" x="1614.888672"/>
     <use xlink:href="#DejaVuSans-44" x="1646.675781"/>
     <use xlink:href="#DejaVuSans-6f" x="1723.677734"/>
     <use xlink:href="#DejaVuSans-63" x="1784.859375"/>
     <use xlink:href="#DejaVuSans-75" x="1839.839844"/>
     <use xlink:href="#DejaVuSans-6d" x="1903.21875"/>
     <use xlink:href="#DejaVuSans-65" x="2000.630859"/>
     <use xlink:href="#DejaVuSans-6e" x="2062.154297"/>
     <use xlink:href="#DejaVuSans-74" x="2125.533203"/>
     <use xlink:href="#DejaVuSans-61" x="2164.742188"/>
     <use xlink:href="#DejaVuSans-72" x="2226.021484"/>
     <use xlink:href="#DejaVuSans-79" x="2267.134766"/>
     <use xlink:href="#DejaVuSans-20" x="2326.314453"/>
     <use xlink:href="#DejaVuSans-67" x="2358.101562"/>
     <use xlink:href="#DejaVuSans-65" x="2421.578125"/>
     <use xlink:href="#DejaVuSans-6e" x="2483.101562"/>
     <use xlink:href="#DejaVuSans-72" x="2546.480469"/>
     <use xlink:href="#DejaVuSans-65" x="2585.34375"/>
     <use xlink:href="#DejaVuSans-20" x="2646.867188"/>
     <use xlink:href="#DejaVuSans-2d" x="2678.654297"/>
     <use xlink:href="#DejaVuSans-20" x="2714.738281"/>
     <use xlink:href="#DejaVuSans-49" x="2746.525391"/>
     <use xlink:href="#DejaVuSans-6d" x="2776.017578"/>
     <use xlink:href="#DejaVuSans-70" x="2873.429688"/>
     <use xlink:href="#DejaVuSans-6f" x="2936.90625"/>
     <use xlink:href="#DejaVuSans-72" x="2998.087891"/>
     <use xlink:href="#DejaVuSans-74" x="3039.201172"/>
     <use xlink:href="#DejaVuSans-61" x="3078.410156"/>
     <use xlink:href="#DejaVuSans-6e" x="3139.689453"/>
     <use xlink:href="#DejaVuSans-63" x="3203.068359"/>
     <use xlink:href="#DejaVuSans-65" x="3258.048828"/>
     <use xlink:href="#DejaVuSans-20" x="3319.572266"/>
     <use xlink:href="#DejaVuSans-72" x="3351.359375"/>
     <use xlink:href="#DejaVuSans-61" x="3392.472656"/>
     <use xlink:href="#DejaVuSans-6e" x="3453.751953"/>
     <use xlink:href="#DejaVuSans-6b" x="3517.130859"/>
     <use xlink:href="#DejaVuSans-3a" x="3575.041016"/>
     <use xlink:href="#DejaVuSans-20" x="3608.732422"/>
     <use xlink:href="#DejaVuSans-36" x="3640.519531"/>
    </g>
   </g>
  </g>
 </g>
 <defs>
  <clipPath id="p3211d0ce77">
   <rect x="7.2" y="22.318125" width="554.4" height="554.4"/>
  </clipPath>
 </defs>
</svg>
