<?xml version="1.0" encoding="utf-8" standalone="no"?>
<!DOCTYPE svg PUBLIC "-//W3C//DTD SVG 1.1//EN"
  "http://www.w3.org/Graphics/SVG/1.1/DTD/svg11.dtd">
<svg xmlns:xlink="http://www.w3.org/1999/xlink" width="568.8pt" height="583.918125pt" viewBox="0 0 568.8 583.918125" xmlns="http://www.w3.org/2000/svg" version="1.1">
 <metadata>
  <rdf:RDF xmlns:dc="http://purl.org/dc/elements/1.1/" xmlns:cc="http://creativecommons.org/ns#" xmlns:rdf="http://www.w3.org/1999/02/22-rdf-syntax-ns#">
   <cc:Work>
    <dc:type rdf:resource="http://purl.org/dc/dcmitype/StillImage"/>
    <dc:date>2022-12-22T19:12:58.672256</dc:date>
    <dc:format>image/svg+xml</dc:format>
    <dc:creator>
     <cc:Agent>
      <dc:title>Matplotlib v3.5.2, https://matplotlib.org/</dc:title>
     </cc:Agent>
    </dc:creator>
   </cc:Work>
  </rdf:RDF>
 </metadata>
 <defs>
  <style type="text/css">*{stroke-linejoin: round; stroke-linecap: butt}</style>
 </defs>
 <g id="figure_1">
  <g id="patch_1">
   <path d="M 0 583.918125 
L 568.8 583.918125 
L 568.8 0 
L 0 0 
z
" style="fill: #ffffff"/>
  </g>
  <g id="axes_1">
   <g id="PathCollection_1">
    <path d="M 482.4 325.975638 
C 489.416614 325.975638 496.146791 323.187908 501.108287 318.226412 
C 506.069783 313.264916 508.857513 306.534739 508.857513 299.518125 
C 508.857513 292.501511 506.069783 285.771334 501.108287 280.809838 
C 496.146791 275.848342 489.416614 273.060612 482.4 273.060612 
C 475.383386 273.060612 468.653209 275.848342 463.691713 280.809838 
C 458.730217 285.771334 455.942487 292.501511 455.942487 299.518125 
C 455.942487 306.534739 458.730217 313.264916 463.691713 318.226412 
C 468.653209 323.187908 475.383386 325.975638 482.4 325.975638 
z
" clip-path="url(#pd93e3b6315)" style="fill: #d62728; fill-opacity: 0.99; stroke: #d62728; stroke-opacity: 0.99"/>
    <path d="M 383.399994 125.664736 
C 389.80375 125.664736 395.946087 123.120496 400.474226 118.592357 
C 405.002366 114.064218 407.546605 107.921881 407.546605 101.518125 
C 407.546605 95.114369 405.002366 88.972032 400.474226 84.443893 
C 395.946087 79.915754 389.80375 77.371514 383.399994 77.371514 
C 376.996238 77.371514 370.853901 79.915754 366.325762 84.443893 
C 361.797623 88.972032 359.253383 95.114369 359.253383 101.518125 
C 359.253383 107.921881 361.797623 114.064218 366.325762 118.592357 
C 370.853901 123.120496 376.996238 125.664736 383.399994 125.664736 
z
" clip-path="url(#pd93e3b6315)" style="fill: #d62728; fill-opacity: 0.99; stroke: #d62728; stroke-opacity: 0.99"/>
    <path d="M 185.399988 123.793895 
C 191.307588 123.793895 196.974023 121.446781 201.151327 117.269477 
C 205.328631 113.092173 207.675745 107.425738 207.675745 101.518139 
C 207.675745 95.610539 205.328631 89.944104 201.151327 85.7668 
C 196.974023 81.589496 191.307588 79.242382 185.399988 79.242382 
C 179.492388 79.242382 173.825953 81.589496 169.64865 85.7668 
C 165.471346 89.944104 163.124232 95.610539 163.124232 101.518139 
C 163.124232 107.425738 165.471346 113.092173 169.64865 117.269477 
C 173.825953 121.446781 179.492388 123.793895 185.399988 123.793895 
z
" clip-path="url(#pd93e3b6315)" style="fill: #d62728; fill-opacity: 0.99; stroke: #d62728; stroke-opacity: 0.99"/>
    <path d="M 86.4 320.089656 
C 91.855628 320.089656 97.088543 317.922112 100.946255 314.0644 
C 104.803967 310.206688 106.971511 304.973773 106.971511 299.518145 
C 106.971511 294.062517 104.803967 288.829602 100.946255 284.97189 
C 97.088543 281.114178 91.855628 278.946634 86.4 278.946634 
C 80.944372 278.946634 75.711457 281.114178 71.853745 284.97189 
C 67.996033 288.829602 65.828489 294.062517 65.828489 299.518145 
C 65.828489 304.973773 67.996033 310.206688 71.853745 314.0644 
C 75.711457 317.922112 80.944372 320.089656 86.4 320.089656 
z
" clip-path="url(#pd93e3b6315)" style="fill: #d62728; fill-opacity: 0.99; stroke: #d62728; stroke-opacity: 0.99"/>
    <path d="M 185.400018 516.444471 
C 190.419343 516.444471 195.233766 514.450272 198.782965 510.901073 
C 202.332164 507.351873 204.326364 502.537451 204.326364 497.518125 
C 204.326364 492.498799 202.332164 487.684377 198.782965 484.135177 
C 195.233766 480.585978 190.419343 478.591779 185.400018 478.591779 
C 180.380692 478.591779 175.566269 480.585978 172.01707 484.135177 
C 168.467871 487.684377 166.473672 492.498799 166.473672 497.518125 
C 166.473672 502.537451 168.467871 507.351873 172.01707 510.901073 
C 175.566269 514.450272 180.380692 516.444471 185.400018 516.444471 
z
" clip-path="url(#pd93e3b6315)" style="fill: #d62728; fill-opacity: 0.99; stroke: #d62728; stroke-opacity: 0.99"/>
    <path d="M 383.399982 516.226412 
C 388.361478 516.226412 393.120432 514.255189 396.628739 510.746882 
C 400.137046 507.238574 402.108269 502.479621 402.108269 497.518125 
C 402.108269 492.556629 400.137046 487.797676 396.628739 484.289368 
C 393.120432 480.781061 388.361478 478.809838 383.399982 478.809838 
C 378.438487 478.809838 373.679533 480.781061 370.171226 484.289368 
C 366.662918 487.797676 364.691695 492.556629 364.691695 497.518125 
C 364.691695 502.479621 366.662918 507.238574 370.171226 510.746882 
C 373.679533 514.255189 378.438487 516.226412 383.399982 516.226412 
z
" clip-path="url(#pd93e3b6315)" style="fill: #d62728; fill-opacity: 0.99; stroke: #d62728; stroke-opacity: 0.99"/>
   </g>
   <g id="text_1">
    <g id="patch_2">
     <path d="M 439.556484 307.833281 
L 525.243516 307.833281 
L 525.243516 291.202969 
L 439.556484 291.202969 
z
" clip-path="url(#pd93e3b6315)" style="fill: #ffffff; opacity: 0.7; stroke: #000000; stroke-linejoin: miter"/>
    </g>
    <g clip-path="url(#pd93e3b6315)">
     <!-- Action/Adventure -->
     <g transform="translate(443.516484 302.001562)scale(0.09 -0.09)">
      <defs>
       <path id="DejaVuSans-41" d="M 2188 4044 
L 1331 1722 
L 3047 1722 
L 2188 4044 
z
M 1831 4666 
L 2547 4666 
L 4325 0 
L 3669 0 
L 3244 1197 
L 1141 1197 
L 716 0 
L 50 0 
L 1831 4666 
z
" transform="scale(0.015625)"/>
       <path id="DejaVuSans-63" d="M 3122 3366 
L 3122 2828 
Q 2878 2963 2633 3030 
Q 2388 3097 2138 3097 
Q 1578 3097 1268 2742 
Q 959 2388 959 1747 
Q 959 1106 1268 751 
Q 1578 397 2138 397 
Q 2388 397 2633 464 
Q 2878 531 3122 666 
L 3122 134 
Q 2881 22 2623 -34 
Q 2366 -91 2075 -91 
Q 1284 -91 818 406 
Q 353 903 353 1747 
Q 353 2603 823 3093 
Q 1294 3584 2113 3584 
Q 2378 3584 2631 3529 
Q 2884 3475 3122 3366 
z
" transform="scale(0.015625)"/>
       <path id="DejaVuSans-74" d="M 1172 4494 
L 1172 3500 
L 2356 3500 
L 2356 3053 
L 1172 3053 
L 1172 1153 
Q 1172 725 1289 603 
Q 1406 481 1766 481 
L 2356 481 
L 2356 0 
L 1766 0 
Q 1100 0 847 248 
Q 594 497 594 1153 
L 594 3053 
L 172 3053 
L 172 3500 
L 594 3500 
L 594 4494 
L 1172 4494 
z
" transform="scale(0.015625)"/>
       <path id="DejaVuSans-69" d="M 603 3500 
L 1178 3500 
L 1178 0 
L 603 0 
L 603 3500 
z
M 603 4863 
L 1178 4863 
L 1178 4134 
L 603 4134 
L 603 4863 
z
" transform="scale(0.015625)"/>
       <path id="DejaVuSans-6f" d="M 1959 3097 
Q 1497 3097 1228 2736 
Q 959 2375 959 1747 
Q 959 1119 1226 758 
Q 1494 397 1959 397 
Q 2419 397 2687 759 
Q 2956 1122 2956 1747 
Q 2956 2369 2687 2733 
Q 2419 3097 1959 3097 
z
M 1959 3584 
Q 2709 3584 3137 3096 
Q 3566 2609 3566 1747 
Q 3566 888 3137 398 
Q 2709 -91 1959 -91 
Q 1206 -91 779 398 
Q 353 888 353 1747 
Q 353 2609 779 3096 
Q 1206 3584 1959 3584 
z
" transform="scale(0.015625)"/>
       <path id="DejaVuSans-6e" d="M 3513 2113 
L 3513 0 
L 2938 0 
L 2938 2094 
Q 2938 2591 2744 2837 
Q 2550 3084 2163 3084 
Q 1697 3084 1428 2787 
Q 1159 2491 1159 1978 
L 1159 0 
L 581 0 
L 581 3500 
L 1159 3500 
L 1159 2956 
Q 1366 3272 1645 3428 
Q 1925 3584 2291 3584 
Q 2894 3584 3203 3211 
Q 3513 2838 3513 2113 
z
" transform="scale(0.015625)"/>
       <path id="DejaVuSans-2f" d="M 1625 4666 
L 2156 4666 
L 531 -594 
L 0 -594 
L 1625 4666 
z
" transform="scale(0.015625)"/>
       <path id="DejaVuSans-64" d="M 2906 2969 
L 2906 4863 
L 3481 4863 
L 3481 0 
L 2906 0 
L 2906 525 
Q 2725 213 2448 61 
Q 2172 -91 1784 -91 
Q 1150 -91 751 415 
Q 353 922 353 1747 
Q 353 2572 751 3078 
Q 1150 3584 1784 3584 
Q 2172 3584 2448 3432 
Q 2725 3281 2906 2969 
z
M 947 1747 
Q 947 1113 1208 752 
Q 1469 391 1925 391 
Q 2381 391 2643 752 
Q 2906 1113 2906 1747 
Q 2906 2381 2643 2742 
Q 2381 3103 1925 3103 
Q 1469 3103 1208 2742 
Q 947 2381 947 1747 
z
" transform="scale(0.015625)"/>
       <path id="DejaVuSans-76" d="M 191 3500 
L 800 3500 
L 1894 563 
L 2988 3500 
L 3597 3500 
L 2284 0 
L 1503 0 
L 191 3500 
z
" transform="scale(0.015625)"/>
       <path id="DejaVuSans-65" d="M 3597 1894 
L 3597 1613 
L 953 1613 
Q 991 1019 1311 708 
Q 1631 397 2203 397 
Q 2534 397 2845 478 
Q 3156 559 3463 722 
L 3463 178 
Q 3153 47 2828 -22 
Q 2503 -91 2169 -91 
Q 1331 -91 842 396 
Q 353 884 353 1716 
Q 353 2575 817 3079 
Q 1281 3584 2069 3584 
Q 2775 3584 3186 3129 
Q 3597 2675 3597 1894 
z
M 3022 2063 
Q 3016 2534 2758 2815 
Q 2500 3097 2075 3097 
Q 1594 3097 1305 2825 
Q 1016 2553 972 2059 
L 3022 2063 
z
" transform="scale(0.015625)"/>
       <path id="DejaVuSans-75" d="M 544 1381 
L 544 3500 
L 1119 3500 
L 1119 1403 
Q 1119 906 1312 657 
Q 1506 409 1894 409 
Q 2359 409 2629 706 
Q 2900 1003 2900 1516 
L 2900 3500 
L 3475 3500 
L 3475 0 
L 2900 0 
L 2900 538 
Q 2691 219 2414 64 
Q 2138 -91 1772 -91 
Q 1169 -91 856 284 
Q 544 659 544 1381 
z
M 1991 3584 
L 1991 3584 
z
" transform="scale(0.015625)"/>
       <path id="DejaVuSans-72" d="M 2631 2963 
Q 2534 3019 2420 3045 
Q 2306 3072 2169 3072 
Q 1681 3072 1420 2755 
Q 1159 2438 1159 1844 
L 1159 0 
L 581 0 
L 581 3500 
L 1159 3500 
L 1159 2956 
Q 1341 3275 1631 3429 
Q 1922 3584 2338 3584 
Q 2397 3584 2469 3576 
Q 2541 3569 2628 3553 
L 2631 2963 
z
" transform="scale(0.015625)"/>
      </defs>
      <use xlink:href="#DejaVuSans-41"/>
      <use xlink:href="#DejaVuSans-63" x="66.658203"/>
      <use xlink:href="#DejaVuSans-74" x="121.638672"/>
      <use xlink:href="#DejaVuSans-69" x="160.847656"/>
      <use xlink:href="#DejaVuSans-6f" x="188.630859"/>
      <use xlink:href="#DejaVuSans-6e" x="249.8125"/>
      <use xlink:href="#DejaVuSans-2f" x="313.191406"/>
      <use xlink:href="#DejaVuSans-41" x="346.882812"/>
      <use xlink:href="#DejaVuSans-64" x="413.541016"/>
      <use xlink:href="#DejaVuSans-76" x="477.017578"/>
      <use xlink:href="#DejaVuSans-65" x="536.197266"/>
      <use xlink:href="#DejaVuSans-6e" x="597.720703"/>
      <use xlink:href="#DejaVuSans-74" x="661.099609"/>
      <use xlink:href="#DejaVuSans-75" x="700.308594"/>
      <use xlink:href="#DejaVuSans-72" x="763.6875"/>
      <use xlink:href="#DejaVuSans-65" x="802.550781"/>
     </g>
    </g>
   </g>
   <g id="text_2">
    <g id="patch_3">
     <path d="M 343.3964 109.833281 
L 423.403588 109.833281 
L 423.403588 93.202969 
L 343.3964 93.202969 
z
" clip-path="url(#pd93e3b6315)" style="fill: #ffffff; opacity: 0.7; stroke: #000000; stroke-linejoin: miter"/>
    </g>
    <g clip-path="url(#pd93e3b6315)">
     <!-- Costume drama -->
     <g transform="translate(347.3564 104.001562)scale(0.09 -0.09)">
      <defs>
       <path id="DejaVuSans-43" d="M 4122 4306 
L 4122 3641 
Q 3803 3938 3442 4084 
Q 3081 4231 2675 4231 
Q 1875 4231 1450 3742 
Q 1025 3253 1025 2328 
Q 1025 1406 1450 917 
Q 1875 428 2675 428 
Q 3081 428 3442 575 
Q 3803 722 4122 1019 
L 4122 359 
Q 3791 134 3420 21 
Q 3050 -91 2638 -91 
Q 1578 -91 968 557 
Q 359 1206 359 2328 
Q 359 3453 968 4101 
Q 1578 4750 2638 4750 
Q 3056 4750 3426 4639 
Q 3797 4528 4122 4306 
z
" transform="scale(0.015625)"/>
       <path id="DejaVuSans-73" d="M 2834 3397 
L 2834 2853 
Q 2591 2978 2328 3040 
Q 2066 3103 1784 3103 
Q 1356 3103 1142 2972 
Q 928 2841 928 2578 
Q 928 2378 1081 2264 
Q 1234 2150 1697 2047 
L 1894 2003 
Q 2506 1872 2764 1633 
Q 3022 1394 3022 966 
Q 3022 478 2636 193 
Q 2250 -91 1575 -91 
Q 1294 -91 989 -36 
Q 684 19 347 128 
L 347 722 
Q 666 556 975 473 
Q 1284 391 1588 391 
Q 1994 391 2212 530 
Q 2431 669 2431 922 
Q 2431 1156 2273 1281 
Q 2116 1406 1581 1522 
L 1381 1569 
Q 847 1681 609 1914 
Q 372 2147 372 2553 
Q 372 3047 722 3315 
Q 1072 3584 1716 3584 
Q 2034 3584 2315 3537 
Q 2597 3491 2834 3397 
z
" transform="scale(0.015625)"/>
       <path id="DejaVuSans-6d" d="M 3328 2828 
Q 3544 3216 3844 3400 
Q 4144 3584 4550 3584 
Q 5097 3584 5394 3201 
Q 5691 2819 5691 2113 
L 5691 0 
L 5113 0 
L 5113 2094 
Q 5113 2597 4934 2840 
Q 4756 3084 4391 3084 
Q 3944 3084 3684 2787 
Q 3425 2491 3425 1978 
L 3425 0 
L 2847 0 
L 2847 2094 
Q 2847 2600 2669 2842 
Q 2491 3084 2119 3084 
Q 1678 3084 1418 2786 
Q 1159 2488 1159 1978 
L 1159 0 
L 581 0 
L 581 3500 
L 1159 3500 
L 1159 2956 
Q 1356 3278 1631 3431 
Q 1906 3584 2284 3584 
Q 2666 3584 2933 3390 
Q 3200 3197 3328 2828 
z
" transform="scale(0.015625)"/>
       <path id="DejaVuSans-20" transform="scale(0.015625)"/>
       <path id="DejaVuSans-61" d="M 2194 1759 
Q 1497 1759 1228 1600 
Q 959 1441 959 1056 
Q 959 750 1161 570 
Q 1363 391 1709 391 
Q 2188 391 2477 730 
Q 2766 1069 2766 1631 
L 2766 1759 
L 2194 1759 
z
M 3341 1997 
L 3341 0 
L 2766 0 
L 2766 531 
Q 2569 213 2275 61 
Q 1981 -91 1556 -91 
Q 1019 -91 701 211 
Q 384 513 384 1019 
Q 384 1609 779 1909 
Q 1175 2209 1959 2209 
L 2766 2209 
L 2766 2266 
Q 2766 2663 2505 2880 
Q 2244 3097 1772 3097 
Q 1472 3097 1187 3025 
Q 903 2953 641 2809 
L 641 3341 
Q 956 3463 1253 3523 
Q 1550 3584 1831 3584 
Q 2591 3584 2966 3190 
Q 3341 2797 3341 1997 
z
" transform="scale(0.015625)"/>
      </defs>
      <use xlink:href="#DejaVuSans-43"/>
      <use xlink:href="#DejaVuSans-6f" x="69.824219"/>
      <use xlink:href="#DejaVuSans-73" x="131.005859"/>
      <use xlink:href="#DejaVuSans-74" x="183.105469"/>
      <use xlink:href="#DejaVuSans-75" x="222.314453"/>
      <use xlink:href="#DejaVuSans-6d" x="285.693359"/>
      <use xlink:href="#DejaVuSans-65" x="383.105469"/>
      <use xlink:href="#DejaVuSans-20" x="444.628906"/>
      <use xlink:href="#DejaVuSans-64" x="476.416016"/>
      <use xlink:href="#DejaVuSans-72" x="539.892578"/>
      <use xlink:href="#DejaVuSans-61" x="581.005859"/>
      <use xlink:href="#DejaVuSans-6d" x="642.285156"/>
      <use xlink:href="#DejaVuSans-61" x="739.697266"/>
     </g>
    </g>
   </g>
   <g id="text_3">
    <g id="patch_4">
     <path d="M 139.419129 109.833295 
L 231.380848 109.833295 
L 231.380848 93.202982 
L 139.419129 93.202982 
z
" clip-path="url(#pd93e3b6315)" style="fill: #ffffff; opacity: 0.7; stroke: #000000; stroke-linejoin: miter"/>
    </g>
    <g clip-path="url(#pd93e3b6315)">
     <!-- Fantasy Adventure -->
     <g transform="translate(143.379129 104.001576)scale(0.09 -0.09)">
      <defs>
       <path id="DejaVuSans-46" d="M 628 4666 
L 3309 4666 
L 3309 4134 
L 1259 4134 
L 1259 2759 
L 3109 2759 
L 3109 2228 
L 1259 2228 
L 1259 0 
L 628 0 
L 628 4666 
z
" transform="scale(0.015625)"/>
       <path id="DejaVuSans-79" d="M 2059 -325 
Q 1816 -950 1584 -1140 
Q 1353 -1331 966 -1331 
L 506 -1331 
L 506 -850 
L 844 -850 
Q 1081 -850 1212 -737 
Q 1344 -625 1503 -206 
L 1606 56 
L 191 3500 
L 800 3500 
L 1894 763 
L 2988 3500 
L 3597 3500 
L 2059 -325 
z
" transform="scale(0.015625)"/>
      </defs>
      <use xlink:href="#DejaVuSans-46"/>
      <use xlink:href="#DejaVuSans-61" x="48.394531"/>
      <use xlink:href="#DejaVuSans-6e" x="109.673828"/>
      <use xlink:href="#DejaVuSans-74" x="173.052734"/>
      <use xlink:href="#DejaVuSans-61" x="212.261719"/>
      <use xlink:href="#DejaVuSans-73" x="273.541016"/>
      <use xlink:href="#DejaVuSans-79" x="325.640625"/>
      <use xlink:href="#DejaVuSans-20" x="384.820312"/>
      <use xlink:href="#DejaVuSans-41" x="416.607422"/>
      <use xlink:href="#DejaVuSans-64" x="483.265625"/>
      <use xlink:href="#DejaVuSans-76" x="546.742188"/>
      <use xlink:href="#DejaVuSans-65" x="605.921875"/>
      <use xlink:href="#DejaVuSans-6e" x="667.445312"/>
      <use xlink:href="#DejaVuSans-74" x="730.824219"/>
      <use xlink:href="#DejaVuSans-75" x="770.033203"/>
      <use xlink:href="#DejaVuSans-72" x="833.412109"/>
      <use xlink:href="#DejaVuSans-65" x="872.275391"/>
     </g>
    </g>
   </g>
   <g id="text_4">
    <g id="patch_5">
     <path d="M 39.167578 307.833301 
L 133.632422 307.833301 
L 133.632422 291.202989 
L 39.167578 291.202989 
z
" clip-path="url(#pd93e3b6315)" style="fill: #ffffff; opacity: 0.7; stroke: #000000; stroke-linejoin: miter"/>
    </g>
    <g clip-path="url(#pd93e3b6315)">
     <!-- Adventure Comedy -->
     <g transform="translate(43.127578 302.001582)scale(0.09 -0.09)">
      <use xlink:href="#DejaVuSans-41"/>
      <use xlink:href="#DejaVuSans-64" x="66.658203"/>
      <use xlink:href="#DejaVuSans-76" x="130.134766"/>
      <use xlink:href="#DejaVuSans-65" x="189.314453"/>
      <use xlink:href="#DejaVuSans-6e" x="250.837891"/>
      <use xlink:href="#DejaVuSans-74" x="314.216797"/>
      <use xlink:href="#DejaVuSans-75" x="353.425781"/>
      <use xlink:href="#DejaVuSans-72" x="416.804688"/>
      <use xlink:href="#DejaVuSans-65" x="455.667969"/>
      <use xlink:href="#DejaVuSans-20" x="517.191406"/>
      <use xlink:href="#DejaVuSans-43" x="548.978516"/>
      <use xlink:href="#DejaVuSans-6f" x="618.802734"/>
      <use xlink:href="#DejaVuSans-6d" x="679.984375"/>
      <use xlink:href="#DejaVuSans-65" x="777.396484"/>
      <use xlink:href="#DejaVuSans-64" x="838.919922"/>
      <use xlink:href="#DejaVuSans-79" x="902.396484"/>
     </g>
    </g>
   </g>
   <g id="text_5">
    <g id="patch_6">
     <path d="M 145.018846 505.833281 
L 225.78119 505.833281 
L 225.78119 489.202969 
L 145.018846 489.202969 
z
" clip-path="url(#pd93e3b6315)" style="fill: #ffffff; opacity: 0.7; stroke: #000000; stroke-linejoin: miter"/>
    </g>
    <g clip-path="url(#pd93e3b6315)">
     <!-- Sci-Fi Adventure -->
     <g transform="translate(148.978846 500.001562)scale(0.09 -0.09)">
      <defs>
       <path id="DejaVuSans-53" d="M 3425 4513 
L 3425 3897 
Q 3066 4069 2747 4153 
Q 2428 4238 2131 4238 
Q 1616 4238 1336 4038 
Q 1056 3838 1056 3469 
Q 1056 3159 1242 3001 
Q 1428 2844 1947 2747 
L 2328 2669 
Q 3034 2534 3370 2195 
Q 3706 1856 3706 1288 
Q 3706 609 3251 259 
Q 2797 -91 1919 -91 
Q 1588 -91 1214 -16 
Q 841 59 441 206 
L 441 856 
Q 825 641 1194 531 
Q 1563 422 1919 422 
Q 2459 422 2753 634 
Q 3047 847 3047 1241 
Q 3047 1584 2836 1778 
Q 2625 1972 2144 2069 
L 1759 2144 
Q 1053 2284 737 2584 
Q 422 2884 422 3419 
Q 422 4038 858 4394 
Q 1294 4750 2059 4750 
Q 2388 4750 2728 4690 
Q 3069 4631 3425 4513 
z
" transform="scale(0.015625)"/>
       <path id="DejaVuSans-2d" d="M 313 2009 
L 1997 2009 
L 1997 1497 
L 313 1497 
L 313 2009 
z
" transform="scale(0.015625)"/>
      </defs>
      <use xlink:href="#DejaVuSans-53"/>
      <use xlink:href="#DejaVuSans-63" x="63.476562"/>
      <use xlink:href="#DejaVuSans-69" x="118.457031"/>
      <use xlink:href="#DejaVuSans-2d" x="146.240234"/>
      <use xlink:href="#DejaVuSans-46" x="182.324219"/>
      <use xlink:href="#DejaVuSans-69" x="232.59375"/>
      <use xlink:href="#DejaVuSans-20" x="260.376953"/>
      <use xlink:href="#DejaVuSans-41" x="292.164062"/>
      <use xlink:href="#DejaVuSans-64" x="358.822266"/>
      <use xlink:href="#DejaVuSans-76" x="422.298828"/>
      <use xlink:href="#DejaVuSans-65" x="481.478516"/>
      <use xlink:href="#DejaVuSans-6e" x="543.001953"/>
      <use xlink:href="#DejaVuSans-74" x="606.380859"/>
      <use xlink:href="#DejaVuSans-75" x="645.589844"/>
      <use xlink:href="#DejaVuSans-72" x="708.96875"/>
      <use xlink:href="#DejaVuSans-65" x="747.832031"/>
     </g>
    </g>
   </g>
   <g id="text_6">
    <g id="patch_7">
     <path d="M 342.125139 505.833281 
L 424.674826 505.833281 
L 424.674826 489.202969 
L 342.125139 489.202969 
z
" clip-path="url(#pd93e3b6315)" style="fill: #ffffff; opacity: 0.7; stroke: #000000; stroke-linejoin: miter"/>
    </g>
    <g clip-path="url(#pd93e3b6315)">
     <!-- Fantasy Comedy -->
     <g transform="translate(346.085139 500.001562)scale(0.09 -0.09)">
      <use xlink:href="#DejaVuSans-46"/>
      <use xlink:href="#DejaVuSans-61" x="48.394531"/>
      <use xlink:href="#DejaVuSans-6e" x="109.673828"/>
      <use xlink:href="#DejaVuSans-74" x="173.052734"/>
      <use xlink:href="#DejaVuSans-61" x="212.261719"/>
      <use xlink:href="#DejaVuSans-73" x="273.541016"/>
      <use xlink:href="#DejaVuSans-79" x="325.640625"/>
      <use xlink:href="#DejaVuSans-20" x="384.820312"/>
      <use xlink:href="#DejaVuSans-43" x="416.607422"/>
      <use xlink:href="#DejaVuSans-6f" x="486.431641"/>
      <use xlink:href="#DejaVuSans-6d" x="547.613281"/>
      <use xlink:href="#DejaVuSans-65" x="645.025391"/>
      <use xlink:href="#DejaVuSans-64" x="706.548828"/>
      <use xlink:href="#DejaVuSans-79" x="770.025391"/>
     </g>
    </g>
   </g>
   <g id="text_7">
    <!-- Impactful genre combination for Family Film genre  -->
    <g transform="translate(131.048437 16.318125)scale(0.12 -0.12)">
     <defs>
      <path id="DejaVuSans-49" d="M 628 4666 
L 1259 4666 
L 1259 0 
L 628 0 
L 628 4666 
z
" transform="scale(0.015625)"/>
      <path id="DejaVuSans-70" d="M 1159 525 
L 1159 -1331 
L 581 -1331 
L 581 3500 
L 1159 3500 
L 1159 2969 
Q 1341 3281 1617 3432 
Q 1894 3584 2278 3584 
Q 2916 3584 3314 3078 
Q 3713 2572 3713 1747 
Q 3713 922 3314 415 
Q 2916 -91 2278 -91 
Q 1894 -91 1617 61 
Q 1341 213 1159 525 
z
M 3116 1747 
Q 3116 2381 2855 2742 
Q 2594 3103 2138 3103 
Q 1681 3103 1420 2742 
Q 1159 2381 1159 1747 
Q 1159 1113 1420 752 
Q 1681 391 2138 391 
Q 2594 391 2855 752 
Q 3116 1113 3116 1747 
z
" transform="scale(0.015625)"/>
      <path id="DejaVuSans-66" d="M 2375 4863 
L 2375 4384 
L 1825 4384 
Q 1516 4384 1395 4259 
Q 1275 4134 1275 3809 
L 1275 3500 
L 2222 3500 
L 2222 3053 
L 1275 3053 
L 1275 0 
L 697 0 
L 697 3053 
L 147 3053 
L 147 3500 
L 697 3500 
L 697 3744 
Q 697 4328 969 4595 
Q 1241 4863 1831 4863 
L 2375 4863 
z
" transform="scale(0.015625)"/>
      <path id="DejaVuSans-6c" d="M 603 4863 
L 1178 4863 
L 1178 0 
L 603 0 
L 603 4863 
z
" transform="scale(0.015625)"/>
      <path id="DejaVuSans-67" d="M 2906 1791 
Q 2906 2416 2648 2759 
Q 2391 3103 1925 3103 
Q 1463 3103 1205 2759 
Q 947 2416 947 1791 
Q 947 1169 1205 825 
Q 1463 481 1925 481 
Q 2391 481 2648 825 
Q 2906 1169 2906 1791 
z
M 3481 434 
Q 3481 -459 3084 -895 
Q 2688 -1331 1869 -1331 
Q 1566 -1331 1297 -1286 
Q 1028 -1241 775 -1147 
L 775 -588 
Q 1028 -725 1275 -790 
Q 1522 -856 1778 -856 
Q 2344 -856 2625 -561 
Q 2906 -266 2906 331 
L 2906 616 
Q 2728 306 2450 153 
Q 2172 0 1784 0 
Q 1141 0 747 490 
Q 353 981 353 1791 
Q 353 2603 747 3093 
Q 1141 3584 1784 3584 
Q 2172 3584 2450 3431 
Q 2728 3278 2906 2969 
L 2906 3500 
L 3481 3500 
L 3481 434 
z
" transform="scale(0.015625)"/>
      <path id="DejaVuSans-62" d="M 3116 1747 
Q 3116 2381 2855 2742 
Q 2594 3103 2138 3103 
Q 1681 3103 1420 2742 
Q 1159 2381 1159 1747 
Q 1159 1113 1420 752 
Q 1681 391 2138 391 
Q 2594 391 2855 752 
Q 3116 1113 3116 1747 
z
M 1159 2969 
Q 1341 3281 1617 3432 
Q 1894 3584 2278 3584 
Q 2916 3584 3314 3078 
Q 3713 2572 3713 1747 
Q 3713 922 3314 415 
Q 2916 -91 2278 -91 
Q 1894 -91 1617 61 
Q 1341 213 1159 525 
L 1159 0 
L 581 0 
L 581 4863 
L 1159 4863 
L 1159 2969 
z
" transform="scale(0.015625)"/>
     </defs>
     <use xlink:href="#DejaVuSans-49"/>
     <use xlink:href="#DejaVuSans-6d" x="29.492188"/>
     <use xlink:href="#DejaVuSans-70" x="126.904297"/>
     <use xlink:href="#DejaVuSans-61" x="190.380859"/>
     <use xlink:href="#DejaVuSans-63" x="251.660156"/>
     <use xlink:href="#DejaVuSans-74" x="306.640625"/>
     <use xlink:href="#DejaVuSans-66" x="345.849609"/>
     <use xlink:href="#DejaVuSans-75" x="381.054688"/>
     <use xlink:href="#DejaVuSans-6c" x="444.433594"/>
     <use xlink:href="#DejaVuSans-20" x="472.216797"/>
     <use xlink:href="#DejaVuSans-67" x="504.003906"/>
     <use xlink:href="#DejaVuSans-65" x="567.480469"/>
     <use xlink:href="#DejaVuSans-6e" x="629.003906"/>
     <use xlink:href="#DejaVuSans-72" x="692.382812"/>
     <use xlink:href="#DejaVuSans-65" x="731.246094"/>
     <use xlink:href="#DejaVuSans-20" x="792.769531"/>
     <use xlink:href="#DejaVuSans-63" x="824.556641"/>
     <use xlink:href="#DejaVuSans-6f" x="879.537109"/>
     <use xlink:href="#DejaVuSans-6d" x="940.71875"/>
     <use xlink:href="#DejaVuSans-62" x="1038.130859"/>
     <use xlink:href="#DejaVuSans-69" x="1101.607422"/>
     <use xlink:href="#DejaVuSans-6e" x="1129.390625"/>
     <use xlink:href="#DejaVuSans-61" x="1192.769531"/>
     <use xlink:href="#DejaVuSans-74" x="1254.048828"/>
     <use xlink:href="#DejaVuSans-69" x="1293.257812"/>
     <use xlink:href="#DejaVuSans-6f" x="1321.041016"/>
     <use xlink:href="#DejaVuSans-6e" x="1382.222656"/>
     <use xlink:href="#DejaVuSans-20" x="1445.601562"/>
     <use xlink:href="#DejaVuSans-66" x="1477.388672"/>
     <use xlink:href="#DejaVuSans-6f" x="1512.59375"/>
     <use xlink:href="#DejaVuSans-72" x="1573.775391"/>
     <use xlink:href="#DejaVuSans-20" x="1614.888672"/>
     <use xlink:href="#DejaVuSans-46" x="1646.675781"/>
     <use xlink:href="#DejaVuSans-61" x="1695.070312"/>
     <use xlink:href="#DejaVuSans-6d" x="1756.349609"/>
     <use xlink:href="#DejaVuSans-69" x="1853.761719"/>
     <use xlink:href="#DejaVuSans-6c" x="1881.544922"/>
     <use xlink:href="#DejaVuSans-79" x="1909.328125"/>
     <use xlink:href="#DejaVuSans-20" x="1968.507812"/>
     <use xlink:href="#DejaVuSans-46" x="2000.294922"/>
     <use xlink:href="#DejaVuSans-69" x="2050.564453"/>
     <use xlink:href="#DejaVuSans-6c" x="2078.347656"/>
     <use xlink:href="#DejaVuSans-6d" x="2106.130859"/>
     <use xlink:href="#DejaVuSans-20" x="2203.542969"/>
     <use xlink:href="#DejaVuSans-67" x="2235.330078"/>
     <use xlink:href="#DejaVuSans-65" x="2298.806641"/>
     <use xlink:href="#DejaVuSans-6e" x="2360.330078"/>
     <use xlink:href="#DejaVuSans-72" x="2423.708984"/>
     <use xlink:href="#DejaVuSans-65" x="2462.572266"/>
     <use xlink:href="#DejaVuSans-20" x="2524.095703"/>
    </g>
   </g>
  </g>
 </g>
 <defs>
  <clipPath id="pd93e3b6315">
   <rect x="7.2" y="22.318125" width="554.4" height="554.4"/>
  </clipPath>
 </defs>
</svg>
