<?xml version="1.0" encoding="utf-8" standalone="no"?>
<!DOCTYPE svg PUBLIC "-//W3C//DTD SVG 1.1//EN"
  "http://www.w3.org/Graphics/SVG/1.1/DTD/svg11.dtd">
<svg xmlns:xlink="http://www.w3.org/1999/xlink" width="568.8pt" height="583.918125pt" viewBox="0 0 568.8 583.918125" xmlns="http://www.w3.org/2000/svg" version="1.1">
 <metadata>
  <rdf:RDF xmlns:dc="http://purl.org/dc/elements/1.1/" xmlns:cc="http://creativecommons.org/ns#" xmlns:rdf="http://www.w3.org/1999/02/22-rdf-syntax-ns#">
   <cc:Work>
    <dc:type rdf:resource="http://purl.org/dc/dcmitype/StillImage"/>
    <dc:date>2022-12-23T19:50:34.785042</dc:date>
    <dc:format>image/svg+xml</dc:format>
    <dc:creator>
     <cc:Agent>
      <dc:title>Matplotlib v3.5.3, https://matplotlib.org/</dc:title>
     </cc:Agent>
    </dc:creator>
   </cc:Work>
  </rdf:RDF>
 </metadata>
 <defs>
  <style type="text/css">*{stroke-linejoin: round; stroke-linecap: butt}</style>
 </defs>
 <g id="figure_1">
  <g id="patch_1">
   <path d="M 0 583.918125 
L 568.8 583.918125 
L 568.8 0 
L 0 0 
z
" style="fill: #ffffff"/>
  </g>
  <g id="axes_1">
   <g id="LineCollection_1">
    <path d="M 464.4 299.518119 
L 284.399997 299.518124 
" clip-path="url(#p5f4839efec)" style="fill: none; stroke: #000000; stroke-opacity: 0.3; stroke-width: 10.269261"/>
    <path d="M 284.399997 299.518124 
L 194.399989 119.518125 
" clip-path="url(#p5f4839efec)" style="fill: none; stroke: #000000; stroke-opacity: 0.3; stroke-width: 9.495517"/>
    <path d="M 284.399997 299.518124 
L 104.4 299.518137 
" clip-path="url(#p5f4839efec)" style="fill: none; stroke: #000000; stroke-opacity: 0.3; stroke-width: 8"/>
    <path d="M 284.399997 299.518124 
L 194.400016 479.518125 
" clip-path="url(#p5f4839efec)" style="fill: none; stroke: #000000; stroke-opacity: 0.3; stroke-width: 12.166493"/>
    <path d="M 284.399997 299.518124 
L 374.399984 479.518125 
" clip-path="url(#p5f4839efec)" style="fill: none; stroke: #000000; stroke-opacity: 0.3; stroke-width: 13.427289"/>
   </g>
   <g id="PathCollection_1">
    <path d="M 464.4 325.975632 
C 471.416614 325.975632 478.146791 323.187901 483.108287 318.226406 
C 488.069783 313.26491 490.857513 306.534733 490.857513 299.518119 
C 490.857513 292.501504 488.069783 285.771328 483.108287 280.809832 
C 478.146791 275.848336 471.416614 273.060606 464.4 273.060606 
C 457.383386 273.060606 450.653209 275.848336 445.691713 280.809832 
C 440.730217 285.771328 437.942487 292.501504 437.942487 299.518119 
C 437.942487 306.534733 440.730217 313.26491 445.691713 318.226406 
C 450.653209 323.187901 457.383386 325.975632 464.4 325.975632 
z
" clip-path="url(#p5f4839efec)" style="fill: #c70039; fill-opacity: 0.99; stroke: #c70039; stroke-opacity: 0.99"/>
    <path d="M 284.399997 324.829214 
C 291.112577 324.829214 297.55113 322.162278 302.297641 317.415767 
C 307.044151 312.669257 309.711087 306.230703 309.711087 299.518124 
C 309.711087 292.805544 307.044151 286.366991 302.297641 281.620481 
C 297.55113 276.87397 291.112577 274.207034 284.399997 274.207034 
C 277.687418 274.207034 271.248865 276.87397 266.502354 281.620481 
C 261.755844 286.366991 259.088907 292.805544 259.088907 299.518124 
C 259.088907 306.230703 261.755844 312.669257 266.502354 317.415767 
C 271.248865 322.162278 277.687418 324.829214 284.399997 324.829214 
z
" clip-path="url(#p5f4839efec)" style="fill: #c70039; fill-opacity: 0.99; stroke: #c70039; stroke-opacity: 0.99"/>
    <path d="M 194.399989 143.067981 
C 200.645484 143.067981 206.63602 140.586619 211.052252 136.170388 
C 215.468484 131.754156 217.949845 125.76362 217.949845 119.518125 
C 217.949845 113.27263 215.468484 107.282094 211.052252 102.865862 
C 206.63602 98.449631 200.645484 95.968269 194.399989 95.968269 
C 188.154495 95.968269 182.163958 98.449631 177.747727 102.865862 
C 173.331495 107.282094 170.850133 113.27263 170.850133 119.518125 
C 170.850133 125.76362 173.331495 131.754156 177.747727 136.170388 
C 182.163958 140.586619 188.154495 143.067981 194.399989 143.067981 
z
" clip-path="url(#p5f4839efec)" style="fill: #c70039; fill-opacity: 0.99; stroke: #c70039; stroke-opacity: 0.99"/>
    <path d="M 104.4 321.424756 
C 110.209703 321.424756 115.782238 319.116537 119.890319 315.008456 
C 123.9984 310.900375 126.306619 305.32784 126.306619 299.518137 
C 126.306619 293.708434 123.9984 288.135899 119.890319 284.027818 
C 115.782238 279.919737 110.209703 277.611518 104.4 277.611518 
C 98.590297 277.611518 93.017762 279.919737 88.909681 284.027818 
C 84.8016 288.135899 82.493381 293.708434 82.493381 299.518137 
C 82.493381 305.32784 84.8016 310.900375 88.909681 315.008456 
C 93.017762 319.116537 98.590297 321.424756 104.4 321.424756 
z
" clip-path="url(#p5f4839efec)" style="fill: #c70039; fill-opacity: 0.99; stroke: #c70039; stroke-opacity: 0.99"/>
    <path d="M 194.400016 500.819008 
C 200.049076 500.819008 205.467526 498.574613 209.462015 494.580124 
C 213.456504 490.585635 215.700899 485.167185 215.700899 479.518125 
C 215.700899 473.869065 213.456504 468.450615 209.462015 464.456126 
C 205.467526 460.461637 200.049076 458.217242 194.400016 458.217242 
C 188.750956 458.217242 183.332506 460.461637 179.338017 464.456126 
C 175.343528 468.450615 173.099133 473.869065 173.099133 479.518125 
C 173.099133 485.167185 175.343528 490.585635 179.338017 494.580124 
C 183.332506 498.574613 188.750956 500.819008 194.400016 500.819008 
z
" clip-path="url(#p5f4839efec)" style="fill: #c70039; fill-opacity: 0.99; stroke: #c70039; stroke-opacity: 0.99"/>
    <path d="M 374.399984 498.226412 
C 379.36148 498.226412 384.120433 496.255189 387.62874 492.746882 
C 391.137048 489.238574 393.108271 484.479621 393.108271 479.518125 
C 393.108271 474.556629 391.137048 469.797676 387.62874 466.289368 
C 384.120433 462.781061 379.36148 460.809838 374.399984 460.809838 
C 369.438488 460.809838 364.679535 462.781061 361.171227 466.289368 
C 357.66292 469.797676 355.691697 474.556629 355.691697 479.518125 
C 355.691697 484.479621 357.66292 489.238574 361.171227 492.746882 
C 364.679535 496.255189 369.438488 498.226412 374.399984 498.226412 
z
" clip-path="url(#p5f4839efec)" style="fill: #c70039; fill-opacity: 0.99; stroke: #c70039; stroke-opacity: 0.99"/>
   </g>
   <g id="text_1">
    <g id="patch_2">
     <path d="M 445.226484 307.833275 
L 483.573516 307.833275 
L 483.573516 291.202963 
L 445.226484 291.202963 
z
" clip-path="url(#p5f4839efec)" style="fill: #ffffff; opacity: 0.7; stroke: #000000; stroke-linejoin: miter"/>
    </g>
    <g clip-path="url(#p5f4839efec)">
     <!-- Drama -->
     <g transform="translate(449.186484 302.001556)scale(0.09 -0.09)">
      <defs>
       <path id="DejaVuSans-44" d="M 1259 4147 
L 1259 519 
L 2022 519 
Q 2988 519 3436 956 
Q 3884 1394 3884 2338 
Q 3884 3275 3436 3711 
Q 2988 4147 2022 4147 
L 1259 4147 
z
M 628 4666 
L 1925 4666 
Q 3281 4666 3915 4102 
Q 4550 3538 4550 2338 
Q 4550 1131 3912 565 
Q 3275 0 1925 0 
L 628 0 
L 628 4666 
z
" transform="scale(0.015625)"/>
       <path id="DejaVuSans-72" d="M 2631 2963 
Q 2534 3019 2420 3045 
Q 2306 3072 2169 3072 
Q 1681 3072 1420 2755 
Q 1159 2438 1159 1844 
L 1159 0 
L 581 0 
L 581 3500 
L 1159 3500 
L 1159 2956 
Q 1341 3275 1631 3429 
Q 1922 3584 2338 3584 
Q 2397 3584 2469 3576 
Q 2541 3569 2628 3553 
L 2631 2963 
z
" transform="scale(0.015625)"/>
       <path id="DejaVuSans-61" d="M 2194 1759 
Q 1497 1759 1228 1600 
Q 959 1441 959 1056 
Q 959 750 1161 570 
Q 1363 391 1709 391 
Q 2188 391 2477 730 
Q 2766 1069 2766 1631 
L 2766 1759 
L 2194 1759 
z
M 3341 1997 
L 3341 0 
L 2766 0 
L 2766 531 
Q 2569 213 2275 61 
Q 1981 -91 1556 -91 
Q 1019 -91 701 211 
Q 384 513 384 1019 
Q 384 1609 779 1909 
Q 1175 2209 1959 2209 
L 2766 2209 
L 2766 2266 
Q 2766 2663 2505 2880 
Q 2244 3097 1772 3097 
Q 1472 3097 1187 3025 
Q 903 2953 641 2809 
L 641 3341 
Q 956 3463 1253 3523 
Q 1550 3584 1831 3584 
Q 2591 3584 2966 3190 
Q 3341 2797 3341 1997 
z
" transform="scale(0.015625)"/>
       <path id="DejaVuSans-6d" d="M 3328 2828 
Q 3544 3216 3844 3400 
Q 4144 3584 4550 3584 
Q 5097 3584 5394 3201 
Q 5691 2819 5691 2113 
L 5691 0 
L 5113 0 
L 5113 2094 
Q 5113 2597 4934 2840 
Q 4756 3084 4391 3084 
Q 3944 3084 3684 2787 
Q 3425 2491 3425 1978 
L 3425 0 
L 2847 0 
L 2847 2094 
Q 2847 2600 2669 2842 
Q 2491 3084 2119 3084 
Q 1678 3084 1418 2786 
Q 1159 2488 1159 1978 
L 1159 0 
L 581 0 
L 581 3500 
L 1159 3500 
L 1159 2956 
Q 1356 3278 1631 3431 
Q 1906 3584 2284 3584 
Q 2666 3584 2933 3390 
Q 3200 3197 3328 2828 
z
" transform="scale(0.015625)"/>
      </defs>
      <use xlink:href="#DejaVuSans-44"/>
      <use xlink:href="#DejaVuSans-72" x="77.001953"/>
      <use xlink:href="#DejaVuSans-61" x="118.115234"/>
      <use xlink:href="#DejaVuSans-6d" x="179.394531"/>
      <use xlink:href="#DejaVuSans-61" x="276.806641"/>
     </g>
    </g>
   </g>
   <g id="text_2">
    <g id="patch_3">
     <path d="M 255.382029 307.83328 
L 313.417966 307.83328 
L 313.417966 291.202968 
L 255.382029 291.202968 
z
" clip-path="url(#p5f4839efec)" style="fill: #ffffff; opacity: 0.7; stroke: #000000; stroke-linejoin: miter"/>
    </g>
    <g clip-path="url(#p5f4839efec)">
     <!-- Family Film -->
     <g transform="translate(259.342029 302.001561)scale(0.09 -0.09)">
      <defs>
       <path id="DejaVuSans-46" d="M 628 4666 
L 3309 4666 
L 3309 4134 
L 1259 4134 
L 1259 2759 
L 3109 2759 
L 3109 2228 
L 1259 2228 
L 1259 0 
L 628 0 
L 628 4666 
z
" transform="scale(0.015625)"/>
       <path id="DejaVuSans-69" d="M 603 3500 
L 1178 3500 
L 1178 0 
L 603 0 
L 603 3500 
z
M 603 4863 
L 1178 4863 
L 1178 4134 
L 603 4134 
L 603 4863 
z
" transform="scale(0.015625)"/>
       <path id="DejaVuSans-6c" d="M 603 4863 
L 1178 4863 
L 1178 0 
L 603 0 
L 603 4863 
z
" transform="scale(0.015625)"/>
       <path id="DejaVuSans-79" d="M 2059 -325 
Q 1816 -950 1584 -1140 
Q 1353 -1331 966 -1331 
L 506 -1331 
L 506 -850 
L 844 -850 
Q 1081 -850 1212 -737 
Q 1344 -625 1503 -206 
L 1606 56 
L 191 3500 
L 800 3500 
L 1894 763 
L 2988 3500 
L 3597 3500 
L 2059 -325 
z
" transform="scale(0.015625)"/>
       <path id="DejaVuSans-20" transform="scale(0.015625)"/>
      </defs>
      <use xlink:href="#DejaVuSans-46"/>
      <use xlink:href="#DejaVuSans-61" x="48.394531"/>
      <use xlink:href="#DejaVuSans-6d" x="109.673828"/>
      <use xlink:href="#DejaVuSans-69" x="207.085938"/>
      <use xlink:href="#DejaVuSans-6c" x="234.869141"/>
      <use xlink:href="#DejaVuSans-79" x="262.652344"/>
      <use xlink:href="#DejaVuSans-20" x="321.832031"/>
      <use xlink:href="#DejaVuSans-46" x="353.619141"/>
      <use xlink:href="#DejaVuSans-69" x="403.888672"/>
      <use xlink:href="#DejaVuSans-6c" x="431.671875"/>
      <use xlink:href="#DejaVuSans-6d" x="459.455078"/>
     </g>
    </g>
   </g>
   <g id="text_3">
    <g id="patch_4">
     <path d="M 171.871864 127.833281 
L 216.928114 127.833281 
L 216.928114 111.202969 
L 171.871864 111.202969 
z
" clip-path="url(#p5f4839efec)" style="fill: #ffffff; opacity: 0.7; stroke: #000000; stroke-linejoin: miter"/>
    </g>
    <g clip-path="url(#p5f4839efec)">
     <!-- Comedy -->
     <g transform="translate(175.831864 122.001562)scale(0.09 -0.09)">
      <defs>
       <path id="DejaVuSans-43" d="M 4122 4306 
L 4122 3641 
Q 3803 3938 3442 4084 
Q 3081 4231 2675 4231 
Q 1875 4231 1450 3742 
Q 1025 3253 1025 2328 
Q 1025 1406 1450 917 
Q 1875 428 2675 428 
Q 3081 428 3442 575 
Q 3803 722 4122 1019 
L 4122 359 
Q 3791 134 3420 21 
Q 3050 -91 2638 -91 
Q 1578 -91 968 557 
Q 359 1206 359 2328 
Q 359 3453 968 4101 
Q 1578 4750 2638 4750 
Q 3056 4750 3426 4639 
Q 3797 4528 4122 4306 
z
" transform="scale(0.015625)"/>
       <path id="DejaVuSans-6f" d="M 1959 3097 
Q 1497 3097 1228 2736 
Q 959 2375 959 1747 
Q 959 1119 1226 758 
Q 1494 397 1959 397 
Q 2419 397 2687 759 
Q 2956 1122 2956 1747 
Q 2956 2369 2687 2733 
Q 2419 3097 1959 3097 
z
M 1959 3584 
Q 2709 3584 3137 3096 
Q 3566 2609 3566 1747 
Q 3566 888 3137 398 
Q 2709 -91 1959 -91 
Q 1206 -91 779 398 
Q 353 888 353 1747 
Q 353 2609 779 3096 
Q 1206 3584 1959 3584 
z
" transform="scale(0.015625)"/>
       <path id="DejaVuSans-65" d="M 3597 1894 
L 3597 1613 
L 953 1613 
Q 991 1019 1311 708 
Q 1631 397 2203 397 
Q 2534 397 2845 478 
Q 3156 559 3463 722 
L 3463 178 
Q 3153 47 2828 -22 
Q 2503 -91 2169 -91 
Q 1331 -91 842 396 
Q 353 884 353 1716 
Q 353 2575 817 3079 
Q 1281 3584 2069 3584 
Q 2775 3584 3186 3129 
Q 3597 2675 3597 1894 
z
M 3022 2063 
Q 3016 2534 2758 2815 
Q 2500 3097 2075 3097 
Q 1594 3097 1305 2825 
Q 1016 2553 972 2059 
L 3022 2063 
z
" transform="scale(0.015625)"/>
       <path id="DejaVuSans-64" d="M 2906 2969 
L 2906 4863 
L 3481 4863 
L 3481 0 
L 2906 0 
L 2906 525 
Q 2725 213 2448 61 
Q 2172 -91 1784 -91 
Q 1150 -91 751 415 
Q 353 922 353 1747 
Q 353 2572 751 3078 
Q 1150 3584 1784 3584 
Q 2172 3584 2448 3432 
Q 2725 3281 2906 2969 
z
M 947 1747 
Q 947 1113 1208 752 
Q 1469 391 1925 391 
Q 2381 391 2643 752 
Q 2906 1113 2906 1747 
Q 2906 2381 2643 2742 
Q 2381 3103 1925 3103 
Q 1469 3103 1208 2742 
Q 947 2381 947 1747 
z
" transform="scale(0.015625)"/>
      </defs>
      <use xlink:href="#DejaVuSans-43"/>
      <use xlink:href="#DejaVuSans-6f" x="69.824219"/>
      <use xlink:href="#DejaVuSans-6d" x="131.005859"/>
      <use xlink:href="#DejaVuSans-65" x="228.417969"/>
      <use xlink:href="#DejaVuSans-64" x="289.941406"/>
      <use xlink:href="#DejaVuSans-79" x="353.417969"/>
     </g>
    </g>
   </g>
   <g id="text_4">
    <g id="patch_5">
     <path d="M 68.950547 307.833293 
L 139.849453 307.833293 
L 139.849453 291.202981 
L 68.950547 291.202981 
z
" clip-path="url(#p5f4839efec)" style="fill: #ffffff; opacity: 0.7; stroke: #000000; stroke-linejoin: miter"/>
    </g>
    <g clip-path="url(#p5f4839efec)">
     <!-- Romance Film -->
     <g transform="translate(72.910547 302.001574)scale(0.09 -0.09)">
      <defs>
       <path id="DejaVuSans-52" d="M 2841 2188 
Q 3044 2119 3236 1894 
Q 3428 1669 3622 1275 
L 4263 0 
L 3584 0 
L 2988 1197 
Q 2756 1666 2539 1819 
Q 2322 1972 1947 1972 
L 1259 1972 
L 1259 0 
L 628 0 
L 628 4666 
L 2053 4666 
Q 2853 4666 3247 4331 
Q 3641 3997 3641 3322 
Q 3641 2881 3436 2590 
Q 3231 2300 2841 2188 
z
M 1259 4147 
L 1259 2491 
L 2053 2491 
Q 2509 2491 2742 2702 
Q 2975 2913 2975 3322 
Q 2975 3731 2742 3939 
Q 2509 4147 2053 4147 
L 1259 4147 
z
" transform="scale(0.015625)"/>
       <path id="DejaVuSans-6e" d="M 3513 2113 
L 3513 0 
L 2938 0 
L 2938 2094 
Q 2938 2591 2744 2837 
Q 2550 3084 2163 3084 
Q 1697 3084 1428 2787 
Q 1159 2491 1159 1978 
L 1159 0 
L 581 0 
L 581 3500 
L 1159 3500 
L 1159 2956 
Q 1366 3272 1645 3428 
Q 1925 3584 2291 3584 
Q 2894 3584 3203 3211 
Q 3513 2838 3513 2113 
z
" transform="scale(0.015625)"/>
       <path id="DejaVuSans-63" d="M 3122 3366 
L 3122 2828 
Q 2878 2963 2633 3030 
Q 2388 3097 2138 3097 
Q 1578 3097 1268 2742 
Q 959 2388 959 1747 
Q 959 1106 1268 751 
Q 1578 397 2138 397 
Q 2388 397 2633 464 
Q 2878 531 3122 666 
L 3122 134 
Q 2881 22 2623 -34 
Q 2366 -91 2075 -91 
Q 1284 -91 818 406 
Q 353 903 353 1747 
Q 353 2603 823 3093 
Q 1294 3584 2113 3584 
Q 2378 3584 2631 3529 
Q 2884 3475 3122 3366 
z
" transform="scale(0.015625)"/>
      </defs>
      <use xlink:href="#DejaVuSans-52"/>
      <use xlink:href="#DejaVuSans-6f" x="64.982422"/>
      <use xlink:href="#DejaVuSans-6d" x="126.164062"/>
      <use xlink:href="#DejaVuSans-61" x="223.576172"/>
      <use xlink:href="#DejaVuSans-6e" x="284.855469"/>
      <use xlink:href="#DejaVuSans-63" x="348.234375"/>
      <use xlink:href="#DejaVuSans-65" x="403.214844"/>
      <use xlink:href="#DejaVuSans-20" x="464.738281"/>
      <use xlink:href="#DejaVuSans-46" x="496.525391"/>
      <use xlink:href="#DejaVuSans-69" x="546.794922"/>
      <use xlink:href="#DejaVuSans-6c" x="574.578125"/>
      <use xlink:href="#DejaVuSans-6d" x="602.361328"/>
     </g>
    </g>
   </g>
   <g id="text_5">
    <g id="patch_6">
     <path d="M 167.165875 487.833281 
L 221.634157 487.833281 
L 221.634157 471.202969 
L 167.165875 471.202969 
z
" clip-path="url(#p5f4839efec)" style="fill: #ffffff; opacity: 0.7; stroke: #000000; stroke-linejoin: miter"/>
    </g>
    <g clip-path="url(#p5f4839efec)">
     <!-- Adventure -->
     <g transform="translate(171.125875 482.001562)scale(0.09 -0.09)">
      <defs>
       <path id="DejaVuSans-41" d="M 2188 4044 
L 1331 1722 
L 3047 1722 
L 2188 4044 
z
M 1831 4666 
L 2547 4666 
L 4325 0 
L 3669 0 
L 3244 1197 
L 1141 1197 
L 716 0 
L 50 0 
L 1831 4666 
z
" transform="scale(0.015625)"/>
       <path id="DejaVuSans-76" d="M 191 3500 
L 800 3500 
L 1894 563 
L 2988 3500 
L 3597 3500 
L 2284 0 
L 1503 0 
L 191 3500 
z
" transform="scale(0.015625)"/>
       <path id="DejaVuSans-74" d="M 1172 4494 
L 1172 3500 
L 2356 3500 
L 2356 3053 
L 1172 3053 
L 1172 1153 
Q 1172 725 1289 603 
Q 1406 481 1766 481 
L 2356 481 
L 2356 0 
L 1766 0 
Q 1100 0 847 248 
Q 594 497 594 1153 
L 594 3053 
L 172 3053 
L 172 3500 
L 594 3500 
L 594 4494 
L 1172 4494 
z
" transform="scale(0.015625)"/>
       <path id="DejaVuSans-75" d="M 544 1381 
L 544 3500 
L 1119 3500 
L 1119 1403 
Q 1119 906 1312 657 
Q 1506 409 1894 409 
Q 2359 409 2629 706 
Q 2900 1003 2900 1516 
L 2900 3500 
L 3475 3500 
L 3475 0 
L 2900 0 
L 2900 538 
Q 2691 219 2414 64 
Q 2138 -91 1772 -91 
Q 1169 -91 856 284 
Q 544 659 544 1381 
z
M 1991 3584 
L 1991 3584 
z
" transform="scale(0.015625)"/>
      </defs>
      <use xlink:href="#DejaVuSans-41"/>
      <use xlink:href="#DejaVuSans-64" x="66.658203"/>
      <use xlink:href="#DejaVuSans-76" x="130.134766"/>
      <use xlink:href="#DejaVuSans-65" x="189.314453"/>
      <use xlink:href="#DejaVuSans-6e" x="250.837891"/>
      <use xlink:href="#DejaVuSans-74" x="314.216797"/>
      <use xlink:href="#DejaVuSans-75" x="353.425781"/>
      <use xlink:href="#DejaVuSans-72" x="416.804688"/>
      <use xlink:href="#DejaVuSans-65" x="455.667969"/>
     </g>
    </g>
   </g>
   <g id="text_6">
    <g id="patch_7">
     <path d="M 339.314046 487.833281 
L 409.485921 487.833281 
L 409.485921 471.202969 
L 339.314046 471.202969 
z
" clip-path="url(#p5f4839efec)" style="fill: #ffffff; opacity: 0.7; stroke: #000000; stroke-linejoin: miter"/>
    </g>
    <g clip-path="url(#p5f4839efec)">
     <!-- Family Drama -->
     <g transform="translate(343.274046 482.001562)scale(0.09 -0.09)">
      <use xlink:href="#DejaVuSans-46"/>
      <use xlink:href="#DejaVuSans-61" x="48.394531"/>
      <use xlink:href="#DejaVuSans-6d" x="109.673828"/>
      <use xlink:href="#DejaVuSans-69" x="207.085938"/>
      <use xlink:href="#DejaVuSans-6c" x="234.869141"/>
      <use xlink:href="#DejaVuSans-79" x="262.652344"/>
      <use xlink:href="#DejaVuSans-20" x="321.832031"/>
      <use xlink:href="#DejaVuSans-44" x="353.619141"/>
      <use xlink:href="#DejaVuSans-72" x="430.621094"/>
      <use xlink:href="#DejaVuSans-61" x="471.734375"/>
      <use xlink:href="#DejaVuSans-6d" x="533.013672"/>
      <use xlink:href="#DejaVuSans-61" x="630.425781"/>
     </g>
    </g>
   </g>
   <g id="text_7">
    <!-- Impactful genre combination for Family Film genre - Importance rank: 8 -->
    <g transform="translate(69.520312 16.318125)scale(0.12 -0.12)">
     <defs>
      <path id="DejaVuSans-49" d="M 628 4666 
L 1259 4666 
L 1259 0 
L 628 0 
L 628 4666 
z
" transform="scale(0.015625)"/>
      <path id="DejaVuSans-70" d="M 1159 525 
L 1159 -1331 
L 581 -1331 
L 581 3500 
L 1159 3500 
L 1159 2969 
Q 1341 3281 1617 3432 
Q 1894 3584 2278 3584 
Q 2916 3584 3314 3078 
Q 3713 2572 3713 1747 
Q 3713 922 3314 415 
Q 2916 -91 2278 -91 
Q 1894 -91 1617 61 
Q 1341 213 1159 525 
z
M 3116 1747 
Q 3116 2381 2855 2742 
Q 2594 3103 2138 3103 
Q 1681 3103 1420 2742 
Q 1159 2381 1159 1747 
Q 1159 1113 1420 752 
Q 1681 391 2138 391 
Q 2594 391 2855 752 
Q 3116 1113 3116 1747 
z
" transform="scale(0.015625)"/>
      <path id="DejaVuSans-66" d="M 2375 4863 
L 2375 4384 
L 1825 4384 
Q 1516 4384 1395 4259 
Q 1275 4134 1275 3809 
L 1275 3500 
L 2222 3500 
L 2222 3053 
L 1275 3053 
L 1275 0 
L 697 0 
L 697 3053 
L 147 3053 
L 147 3500 
L 697 3500 
L 697 3744 
Q 697 4328 969 4595 
Q 1241 4863 1831 4863 
L 2375 4863 
z
" transform="scale(0.015625)"/>
      <path id="DejaVuSans-67" d="M 2906 1791 
Q 2906 2416 2648 2759 
Q 2391 3103 1925 3103 
Q 1463 3103 1205 2759 
Q 947 2416 947 1791 
Q 947 1169 1205 825 
Q 1463 481 1925 481 
Q 2391 481 2648 825 
Q 2906 1169 2906 1791 
z
M 3481 434 
Q 3481 -459 3084 -895 
Q 2688 -1331 1869 -1331 
Q 1566 -1331 1297 -1286 
Q 1028 -1241 775 -1147 
L 775 -588 
Q 1028 -725 1275 -790 
Q 1522 -856 1778 -856 
Q 2344 -856 2625 -561 
Q 2906 -266 2906 331 
L 2906 616 
Q 2728 306 2450 153 
Q 2172 0 1784 0 
Q 1141 0 747 490 
Q 353 981 353 1791 
Q 353 2603 747 3093 
Q 1141 3584 1784 3584 
Q 2172 3584 2450 3431 
Q 2728 3278 2906 2969 
L 2906 3500 
L 3481 3500 
L 3481 434 
z
" transform="scale(0.015625)"/>
      <path id="DejaVuSans-62" d="M 3116 1747 
Q 3116 2381 2855 2742 
Q 2594 3103 2138 3103 
Q 1681 3103 1420 2742 
Q 1159 2381 1159 1747 
Q 1159 1113 1420 752 
Q 1681 391 2138 391 
Q 2594 391 2855 752 
Q 3116 1113 3116 1747 
z
M 1159 2969 
Q 1341 3281 1617 3432 
Q 1894 3584 2278 3584 
Q 2916 3584 3314 3078 
Q 3713 2572 3713 1747 
Q 3713 922 3314 415 
Q 2916 -91 2278 -91 
Q 1894 -91 1617 61 
Q 1341 213 1159 525 
L 1159 0 
L 581 0 
L 581 4863 
L 1159 4863 
L 1159 2969 
z
" transform="scale(0.015625)"/>
      <path id="DejaVuSans-2d" d="M 313 2009 
L 1997 2009 
L 1997 1497 
L 313 1497 
L 313 2009 
z
" transform="scale(0.015625)"/>
      <path id="DejaVuSans-6b" d="M 581 4863 
L 1159 4863 
L 1159 1991 
L 2875 3500 
L 3609 3500 
L 1753 1863 
L 3688 0 
L 2938 0 
L 1159 1709 
L 1159 0 
L 581 0 
L 581 4863 
z
" transform="scale(0.015625)"/>
      <path id="DejaVuSans-3a" d="M 750 794 
L 1409 794 
L 1409 0 
L 750 0 
L 750 794 
z
M 750 3309 
L 1409 3309 
L 1409 2516 
L 750 2516 
L 750 3309 
z
" transform="scale(0.015625)"/>
      <path id="DejaVuSans-38" d="M 2034 2216 
Q 1584 2216 1326 1975 
Q 1069 1734 1069 1313 
Q 1069 891 1326 650 
Q 1584 409 2034 409 
Q 2484 409 2743 651 
Q 3003 894 3003 1313 
Q 3003 1734 2745 1975 
Q 2488 2216 2034 2216 
z
M 1403 2484 
Q 997 2584 770 2862 
Q 544 3141 544 3541 
Q 544 4100 942 4425 
Q 1341 4750 2034 4750 
Q 2731 4750 3128 4425 
Q 3525 4100 3525 3541 
Q 3525 3141 3298 2862 
Q 3072 2584 2669 2484 
Q 3125 2378 3379 2068 
Q 3634 1759 3634 1313 
Q 3634 634 3220 271 
Q 2806 -91 2034 -91 
Q 1263 -91 848 271 
Q 434 634 434 1313 
Q 434 1759 690 2068 
Q 947 2378 1403 2484 
z
M 1172 3481 
Q 1172 3119 1398 2916 
Q 1625 2713 2034 2713 
Q 2441 2713 2670 2916 
Q 2900 3119 2900 3481 
Q 2900 3844 2670 4047 
Q 2441 4250 2034 4250 
Q 1625 4250 1398 4047 
Q 1172 3844 1172 3481 
z
" transform="scale(0.015625)"/>
     </defs>
     <use xlink:href="#DejaVuSans-49"/>
     <use xlink:href="#DejaVuSans-6d" x="29.492188"/>
     <use xlink:href="#DejaVuSans-70" x="126.904297"/>
     <use xlink:href="#DejaVuSans-61" x="190.380859"/>
     <use xlink:href="#DejaVuSans-63" x="251.660156"/>
     <use xlink:href="#DejaVuSans-74" x="306.640625"/>
     <use xlink:href="#DejaVuSans-66" x="345.849609"/>
     <use xlink:href="#DejaVuSans-75" x="381.054688"/>
     <use xlink:href="#DejaVuSans-6c" x="444.433594"/>
     <use xlink:href="#DejaVuSans-20" x="472.216797"/>
     <use xlink:href="#DejaVuSans-67" x="504.003906"/>
     <use xlink:href="#DejaVuSans-65" x="567.480469"/>
     <use xlink:href="#DejaVuSans-6e" x="629.003906"/>
     <use xlink:href="#DejaVuSans-72" x="692.382812"/>
     <use xlink:href="#DejaVuSans-65" x="731.246094"/>
     <use xlink:href="#DejaVuSans-20" x="792.769531"/>
     <use xlink:href="#DejaVuSans-63" x="824.556641"/>
     <use xlink:href="#DejaVuSans-6f" x="879.537109"/>
     <use xlink:href="#DejaVuSans-6d" x="940.71875"/>
     <use xlink:href="#DejaVuSans-62" x="1038.130859"/>
     <use xlink:href="#DejaVuSans-69" x="1101.607422"/>
     <use xlink:href="#DejaVuSans-6e" x="1129.390625"/>
     <use xlink:href="#DejaVuSans-61" x="1192.769531"/>
     <use xlink:href="#DejaVuSans-74" x="1254.048828"/>
     <use xlink:href="#DejaVuSans-69" x="1293.257812"/>
     <use xlink:href="#DejaVuSans-6f" x="1321.041016"/>
     <use xlink:href="#DejaVuSans-6e" x="1382.222656"/>
     <use xlink:href="#DejaVuSans-20" x="1445.601562"/>
     <use xlink:href="#DejaVuSans-66" x="1477.388672"/>
     <use xlink:href="#DejaVuSans-6f" x="1512.59375"/>
     <use xlink:href="#DejaVuSans-72" x="1573.775391"/>
     <use xlink:href="#DejaVuSans-20" x="1614.888672"/>
     <use xlink:href="#DejaVuSans-46" x="1646.675781"/>
     <use xlink:href="#DejaVuSans-61" x="1695.070312"/>
     <use xlink:href="#DejaVuSans-6d" x="1756.349609"/>
     <use xlink:href="#DejaVuSans-69" x="1853.761719"/>
     <use xlink:href="#DejaVuSans-6c" x="1881.544922"/>
     <use xlink:href="#DejaVuSans-79" x="1909.328125"/>
     <use xlink:href="#DejaVuSans-20" x="1968.507812"/>
     <use xlink:href="#DejaVuSans-46" x="2000.294922"/>
     <use xlink:href="#DejaVuSans-69" x="2050.564453"/>
     <use xlink:href="#DejaVuSans-6c" x="2078.347656"/>
     <use xlink:href="#DejaVuSans-6d" x="2106.130859"/>
     <use xlink:href="#DejaVuSans-20" x="2203.542969"/>
     <use xlink:href="#DejaVuSans-67" x="2235.330078"/>
     <use xlink:href="#DejaVuSans-65" x="2298.806641"/>
     <use xlink:href="#DejaVuSans-6e" x="2360.330078"/>
     <use xlink:href="#DejaVuSans-72" x="2423.708984"/>
     <use xlink:href="#DejaVuSans-65" x="2462.572266"/>
     <use xlink:href="#DejaVuSans-20" x="2524.095703"/>
     <use xlink:href="#DejaVuSans-2d" x="2555.882812"/>
     <use xlink:href="#DejaVuSans-20" x="2591.966797"/>
     <use xlink:href="#DejaVuSans-49" x="2623.753906"/>
     <use xlink:href="#DejaVuSans-6d" x="2653.246094"/>
     <use xlink:href="#DejaVuSans-70" x="2750.658203"/>
     <use xlink:href="#DejaVuSans-6f" x="2814.134766"/>
     <use xlink:href="#DejaVuSans-72" x="2875.316406"/>
     <use xlink:href="#DejaVuSans-74" x="2916.429688"/>
     <use xlink:href="#DejaVuSans-61" x="2955.638672"/>
     <use xlink:href="#DejaVuSans-6e" x="3016.917969"/>
     <use xlink:href="#DejaVuSans-63" x="3080.296875"/>
     <use xlink:href="#DejaVuSans-65" x="3135.277344"/>
     <use xlink:href="#DejaVuSans-20" x="3196.800781"/>
     <use xlink:href="#DejaVuSans-72" x="3228.587891"/>
     <use xlink:href="#DejaVuSans-61" x="3269.701172"/>
     <use xlink:href="#DejaVuSans-6e" x="3330.980469"/>
     <use xlink:href="#DejaVuSans-6b" x="3394.359375"/>
     <use xlink:href="#DejaVuSans-3a" x="3452.269531"/>
     <use xlink:href="#DejaVuSans-20" x="3485.960938"/>
     <use xlink:href="#DejaVuSans-38" x="3517.748047"/>
    </g>
   </g>
  </g>
 </g>
 <defs>
  <clipPath id="p5f4839efec">
   <rect x="7.2" y="22.318125" width="554.4" height="554.4"/>
  </clipPath>
 </defs>
</svg>
