<?xml version="1.0" encoding="utf-8" standalone="no"?>
<!DOCTYPE svg PUBLIC "-//W3C//DTD SVG 1.1//EN"
  "http://www.w3.org/Graphics/SVG/1.1/DTD/svg11.dtd">
<svg xmlns:xlink="http://www.w3.org/1999/xlink" width="568.8pt" height="583.918125pt" viewBox="0 0 568.8 583.918125" xmlns="http://www.w3.org/2000/svg" version="1.1">
 <metadata>
  <rdf:RDF xmlns:dc="http://purl.org/dc/elements/1.1/" xmlns:cc="http://creativecommons.org/ns#" xmlns:rdf="http://www.w3.org/1999/02/22-rdf-syntax-ns#">
   <cc:Work>
    <dc:type rdf:resource="http://purl.org/dc/dcmitype/StillImage"/>
    <dc:date>2022-12-23T19:50:12.901230</dc:date>
    <dc:format>image/svg+xml</dc:format>
    <dc:creator>
     <cc:Agent>
      <dc:title>Matplotlib v3.5.3, https://matplotlib.org/</dc:title>
     </cc:Agent>
    </dc:creator>
   </cc:Work>
  </rdf:RDF>
 </metadata>
 <defs>
  <style type="text/css">*{stroke-linejoin: round; stroke-linecap: butt}</style>
 </defs>
 <g id="figure_1">
  <g id="patch_1">
   <path d="M 0 583.918125 
L 568.8 583.918125 
L 568.8 0 
L 0 0 
z
" style="fill: #ffffff"/>
  </g>
  <g id="axes_1">
   <g id="LineCollection_1">
    <path d="M 464.4 257.025891 
L 265.396901 257.025891 
" clip-path="url(#pbc8873bc76)" style="fill: none; stroke: #000000; stroke-opacity: 0.3; stroke-width: 12.070836"/>
    <path d="M 265.396901 257.025891 
L 104.4 119.518125 
" clip-path="url(#pbc8873bc76)" style="fill: none; stroke: #000000; stroke-opacity: 0.3; stroke-width: 15.052697"/>
    <path d="M 265.396901 257.025891 
L 104.400012 394.533671 
" clip-path="url(#pbc8873bc76)" style="fill: none; stroke: #000000; stroke-opacity: 0.3; stroke-width: 12.913003"/>
    <path d="M 265.396901 257.025891 
L 326.892262 479.518125 
" clip-path="url(#pbc8873bc76)" style="fill: none; stroke: #000000; stroke-opacity: 0.3; stroke-width: 11.584295"/>
   </g>
   <g id="PathCollection_1">
    <path d="M 464.4 283.483404 
C 471.416614 283.483404 478.146791 280.695674 483.108287 275.734178 
C 488.069783 270.772682 490.857513 264.042506 490.857513 257.025891 
C 490.857513 250.009277 488.069783 243.2791 483.108287 238.317604 
C 478.146791 233.356108 471.416614 230.568378 464.4 230.568378 
C 457.383386 230.568378 450.653209 233.356108 445.691713 238.317604 
C 440.730217 243.2791 437.942487 250.009277 437.942487 257.025891 
C 437.942487 264.042506 440.730217 270.772682 445.691713 275.734178 
C 450.653209 280.695674 457.383386 283.483404 464.4 283.483404 
z
" clip-path="url(#pbc8873bc76)" style="fill: #c70039; fill-opacity: 0.99; stroke: #c70039; stroke-opacity: 0.99"/>
    <path d="M 265.396901 278.836987 
C 271.181271 278.836987 276.729508 276.538832 280.819675 272.448665 
C 284.909842 268.358497 287.207997 262.810261 287.207997 257.025891 
C 287.207997 251.241521 284.909842 245.693285 280.819675 241.603117 
C 276.729508 237.51295 271.181271 235.214795 265.396901 235.214795 
C 259.612531 235.214795 254.064295 237.51295 249.974127 241.603117 
C 245.88396 245.693285 243.585805 251.241521 243.585805 257.025891 
C 243.585805 262.810261 245.88396 268.358497 249.974127 272.448665 
C 254.064295 276.538832 259.612531 278.836987 265.396901 278.836987 
z
" clip-path="url(#pbc8873bc76)" style="fill: #c70039; fill-opacity: 0.99; stroke: #c70039; stroke-opacity: 0.99"/>
    <path d="M 104.4 141.048109 
C 110.109818 141.048109 115.586546 138.779574 119.623997 134.742122 
C 123.661449 130.704671 125.929984 125.227943 125.929984 119.518125 
C 125.929984 113.808307 123.661449 108.331579 119.623997 104.294128 
C 115.586546 100.256676 110.109818 97.988141 104.4 97.988141 
C 98.690182 97.988141 93.213454 100.256676 89.176003 104.294128 
C 85.138551 108.331579 82.870016 113.808307 82.870016 119.518125 
C 82.870016 125.227943 85.138551 130.704671 89.176003 134.742122 
C 93.213454 138.779574 98.690182 141.048109 104.4 141.048109 
z
" clip-path="url(#pbc8873bc76)" style="fill: #c70039; fill-opacity: 0.99; stroke: #c70039; stroke-opacity: 0.99"/>
    <path d="M 104.400012 413.662531 
C 109.473045 413.662531 114.338982 411.646994 117.926158 408.059818 
C 121.513335 404.472642 123.528872 399.606704 123.528872 394.533671 
C 123.528872 389.460638 121.513335 384.5947 117.926158 381.007524 
C 114.338982 377.420348 109.473045 375.404811 104.400012 375.404811 
C 99.326979 375.404811 94.461041 377.420348 90.873865 381.007524 
C 87.286689 384.5947 85.271152 389.460638 85.271152 394.533671 
C 85.271152 399.606704 87.286689 404.472642 90.873865 408.059818 
C 94.461041 411.646994 99.326979 413.662531 104.400012 413.662531 
z
" clip-path="url(#pbc8873bc76)" style="fill: #c70039; fill-opacity: 0.99; stroke: #c70039; stroke-opacity: 0.99"/>
    <path d="M 326.892262 498.226412 
C 331.853758 498.226412 336.612711 496.255189 340.121018 492.746882 
C 343.629326 489.238574 345.600549 484.479621 345.600549 479.518125 
C 345.600549 474.556629 343.629326 469.797676 340.121018 466.289368 
C 336.612711 462.781061 331.853758 460.809838 326.892262 460.809838 
C 321.930766 460.809838 317.171813 462.781061 313.663505 466.289368 
C 310.155198 469.797676 308.183975 474.556629 308.183975 479.518125 
C 308.183975 484.479621 310.155198 489.238574 313.663505 492.746882 
C 317.171813 496.255189 321.930766 498.226412 326.892262 498.226412 
z
" clip-path="url(#pbc8873bc76)" style="fill: #c70039; fill-opacity: 0.99; stroke: #c70039; stroke-opacity: 0.99"/>
   </g>
   <g id="text_1">
    <g id="patch_2">
     <path d="M 441.871875 265.341047 
L 486.928125 265.341047 
L 486.928125 248.710735 
L 441.871875 248.710735 
z
" clip-path="url(#pbc8873bc76)" style="fill: #ffffff; opacity: 0.7; stroke: #000000; stroke-linejoin: miter"/>
    </g>
    <g clip-path="url(#pbc8873bc76)">
     <!-- Comedy -->
     <g transform="translate(445.831875 259.509329)scale(0.09 -0.09)">
      <defs>
       <path id="DejaVuSans-43" d="M 4122 4306 
L 4122 3641 
Q 3803 3938 3442 4084 
Q 3081 4231 2675 4231 
Q 1875 4231 1450 3742 
Q 1025 3253 1025 2328 
Q 1025 1406 1450 917 
Q 1875 428 2675 428 
Q 3081 428 3442 575 
Q 3803 722 4122 1019 
L 4122 359 
Q 3791 134 3420 21 
Q 3050 -91 2638 -91 
Q 1578 -91 968 557 
Q 359 1206 359 2328 
Q 359 3453 968 4101 
Q 1578 4750 2638 4750 
Q 3056 4750 3426 4639 
Q 3797 4528 4122 4306 
z
" transform="scale(0.015625)"/>
       <path id="DejaVuSans-6f" d="M 1959 3097 
Q 1497 3097 1228 2736 
Q 959 2375 959 1747 
Q 959 1119 1226 758 
Q 1494 397 1959 397 
Q 2419 397 2687 759 
Q 2956 1122 2956 1747 
Q 2956 2369 2687 2733 
Q 2419 3097 1959 3097 
z
M 1959 3584 
Q 2709 3584 3137 3096 
Q 3566 2609 3566 1747 
Q 3566 888 3137 398 
Q 2709 -91 1959 -91 
Q 1206 -91 779 398 
Q 353 888 353 1747 
Q 353 2609 779 3096 
Q 1206 3584 1959 3584 
z
" transform="scale(0.015625)"/>
       <path id="DejaVuSans-6d" d="M 3328 2828 
Q 3544 3216 3844 3400 
Q 4144 3584 4550 3584 
Q 5097 3584 5394 3201 
Q 5691 2819 5691 2113 
L 5691 0 
L 5113 0 
L 5113 2094 
Q 5113 2597 4934 2840 
Q 4756 3084 4391 3084 
Q 3944 3084 3684 2787 
Q 3425 2491 3425 1978 
L 3425 0 
L 2847 0 
L 2847 2094 
Q 2847 2600 2669 2842 
Q 2491 3084 2119 3084 
Q 1678 3084 1418 2786 
Q 1159 2488 1159 1978 
L 1159 0 
L 581 0 
L 581 3500 
L 1159 3500 
L 1159 2956 
Q 1356 3278 1631 3431 
Q 1906 3584 2284 3584 
Q 2666 3584 2933 3390 
Q 3200 3197 3328 2828 
z
" transform="scale(0.015625)"/>
       <path id="DejaVuSans-65" d="M 3597 1894 
L 3597 1613 
L 953 1613 
Q 991 1019 1311 708 
Q 1631 397 2203 397 
Q 2534 397 2845 478 
Q 3156 559 3463 722 
L 3463 178 
Q 3153 47 2828 -22 
Q 2503 -91 2169 -91 
Q 1331 -91 842 396 
Q 353 884 353 1716 
Q 353 2575 817 3079 
Q 1281 3584 2069 3584 
Q 2775 3584 3186 3129 
Q 3597 2675 3597 1894 
z
M 3022 2063 
Q 3016 2534 2758 2815 
Q 2500 3097 2075 3097 
Q 1594 3097 1305 2825 
Q 1016 2553 972 2059 
L 3022 2063 
z
" transform="scale(0.015625)"/>
       <path id="DejaVuSans-64" d="M 2906 2969 
L 2906 4863 
L 3481 4863 
L 3481 0 
L 2906 0 
L 2906 525 
Q 2725 213 2448 61 
Q 2172 -91 1784 -91 
Q 1150 -91 751 415 
Q 353 922 353 1747 
Q 353 2572 751 3078 
Q 1150 3584 1784 3584 
Q 2172 3584 2448 3432 
Q 2725 3281 2906 2969 
z
M 947 1747 
Q 947 1113 1208 752 
Q 1469 391 1925 391 
Q 2381 391 2643 752 
Q 2906 1113 2906 1747 
Q 2906 2381 2643 2742 
Q 2381 3103 1925 3103 
Q 1469 3103 1208 2742 
Q 947 2381 947 1747 
z
" transform="scale(0.015625)"/>
       <path id="DejaVuSans-79" d="M 2059 -325 
Q 1816 -950 1584 -1140 
Q 1353 -1331 966 -1331 
L 506 -1331 
L 506 -850 
L 844 -850 
Q 1081 -850 1212 -737 
Q 1344 -625 1503 -206 
L 1606 56 
L 191 3500 
L 800 3500 
L 1894 763 
L 2988 3500 
L 3597 3500 
L 2059 -325 
z
" transform="scale(0.015625)"/>
      </defs>
      <use xlink:href="#DejaVuSans-43"/>
      <use xlink:href="#DejaVuSans-6f" x="69.824219"/>
      <use xlink:href="#DejaVuSans-6d" x="131.005859"/>
      <use xlink:href="#DejaVuSans-65" x="228.417969"/>
      <use xlink:href="#DejaVuSans-64" x="289.941406"/>
      <use xlink:href="#DejaVuSans-79" x="353.417969"/>
     </g>
    </g>
   </g>
   <g id="text_2">
    <g id="patch_3">
     <path d="M 238.785026 265.341047 
L 292.008776 265.341047 
L 292.008776 248.710735 
L 238.785026 248.710735 
z
" clip-path="url(#pbc8873bc76)" style="fill: #ffffff; opacity: 0.7; stroke: #000000; stroke-linejoin: miter"/>
    </g>
    <g clip-path="url(#pbc8873bc76)">
     <!-- Short Film -->
     <g transform="translate(242.745026 259.509329)scale(0.09 -0.09)">
      <defs>
       <path id="DejaVuSans-53" d="M 3425 4513 
L 3425 3897 
Q 3066 4069 2747 4153 
Q 2428 4238 2131 4238 
Q 1616 4238 1336 4038 
Q 1056 3838 1056 3469 
Q 1056 3159 1242 3001 
Q 1428 2844 1947 2747 
L 2328 2669 
Q 3034 2534 3370 2195 
Q 3706 1856 3706 1288 
Q 3706 609 3251 259 
Q 2797 -91 1919 -91 
Q 1588 -91 1214 -16 
Q 841 59 441 206 
L 441 856 
Q 825 641 1194 531 
Q 1563 422 1919 422 
Q 2459 422 2753 634 
Q 3047 847 3047 1241 
Q 3047 1584 2836 1778 
Q 2625 1972 2144 2069 
L 1759 2144 
Q 1053 2284 737 2584 
Q 422 2884 422 3419 
Q 422 4038 858 4394 
Q 1294 4750 2059 4750 
Q 2388 4750 2728 4690 
Q 3069 4631 3425 4513 
z
" transform="scale(0.015625)"/>
       <path id="DejaVuSans-68" d="M 3513 2113 
L 3513 0 
L 2938 0 
L 2938 2094 
Q 2938 2591 2744 2837 
Q 2550 3084 2163 3084 
Q 1697 3084 1428 2787 
Q 1159 2491 1159 1978 
L 1159 0 
L 581 0 
L 581 4863 
L 1159 4863 
L 1159 2956 
Q 1366 3272 1645 3428 
Q 1925 3584 2291 3584 
Q 2894 3584 3203 3211 
Q 3513 2838 3513 2113 
z
" transform="scale(0.015625)"/>
       <path id="DejaVuSans-72" d="M 2631 2963 
Q 2534 3019 2420 3045 
Q 2306 3072 2169 3072 
Q 1681 3072 1420 2755 
Q 1159 2438 1159 1844 
L 1159 0 
L 581 0 
L 581 3500 
L 1159 3500 
L 1159 2956 
Q 1341 3275 1631 3429 
Q 1922 3584 2338 3584 
Q 2397 3584 2469 3576 
Q 2541 3569 2628 3553 
L 2631 2963 
z
" transform="scale(0.015625)"/>
       <path id="DejaVuSans-74" d="M 1172 4494 
L 1172 3500 
L 2356 3500 
L 2356 3053 
L 1172 3053 
L 1172 1153 
Q 1172 725 1289 603 
Q 1406 481 1766 481 
L 2356 481 
L 2356 0 
L 1766 0 
Q 1100 0 847 248 
Q 594 497 594 1153 
L 594 3053 
L 172 3053 
L 172 3500 
L 594 3500 
L 594 4494 
L 1172 4494 
z
" transform="scale(0.015625)"/>
       <path id="DejaVuSans-20" transform="scale(0.015625)"/>
       <path id="DejaVuSans-46" d="M 628 4666 
L 3309 4666 
L 3309 4134 
L 1259 4134 
L 1259 2759 
L 3109 2759 
L 3109 2228 
L 1259 2228 
L 1259 0 
L 628 0 
L 628 4666 
z
" transform="scale(0.015625)"/>
       <path id="DejaVuSans-69" d="M 603 3500 
L 1178 3500 
L 1178 0 
L 603 0 
L 603 3500 
z
M 603 4863 
L 1178 4863 
L 1178 4134 
L 603 4134 
L 603 4863 
z
" transform="scale(0.015625)"/>
       <path id="DejaVuSans-6c" d="M 603 4863 
L 1178 4863 
L 1178 0 
L 603 0 
L 603 4863 
z
" transform="scale(0.015625)"/>
      </defs>
      <use xlink:href="#DejaVuSans-53"/>
      <use xlink:href="#DejaVuSans-68" x="63.476562"/>
      <use xlink:href="#DejaVuSans-6f" x="126.855469"/>
      <use xlink:href="#DejaVuSans-72" x="188.037109"/>
      <use xlink:href="#DejaVuSans-74" x="229.150391"/>
      <use xlink:href="#DejaVuSans-20" x="268.359375"/>
      <use xlink:href="#DejaVuSans-46" x="300.146484"/>
      <use xlink:href="#DejaVuSans-69" x="350.416016"/>
      <use xlink:href="#DejaVuSans-6c" x="378.199219"/>
      <use xlink:href="#DejaVuSans-6d" x="405.982422"/>
     </g>
    </g>
   </g>
   <g id="text_3">
    <g id="patch_4">
     <path d="M 75.382031 127.833281 
L 133.417969 127.833281 
L 133.417969 111.202969 
L 75.382031 111.202969 
z
" clip-path="url(#pbc8873bc76)" style="fill: #ffffff; opacity: 0.7; stroke: #000000; stroke-linejoin: miter"/>
    </g>
    <g clip-path="url(#pbc8873bc76)">
     <!-- Family Film -->
     <g transform="translate(79.342031 122.001562)scale(0.09 -0.09)">
      <defs>
       <path id="DejaVuSans-61" d="M 2194 1759 
Q 1497 1759 1228 1600 
Q 959 1441 959 1056 
Q 959 750 1161 570 
Q 1363 391 1709 391 
Q 2188 391 2477 730 
Q 2766 1069 2766 1631 
L 2766 1759 
L 2194 1759 
z
M 3341 1997 
L 3341 0 
L 2766 0 
L 2766 531 
Q 2569 213 2275 61 
Q 1981 -91 1556 -91 
Q 1019 -91 701 211 
Q 384 513 384 1019 
Q 384 1609 779 1909 
Q 1175 2209 1959 2209 
L 2766 2209 
L 2766 2266 
Q 2766 2663 2505 2880 
Q 2244 3097 1772 3097 
Q 1472 3097 1187 3025 
Q 903 2953 641 2809 
L 641 3341 
Q 956 3463 1253 3523 
Q 1550 3584 1831 3584 
Q 2591 3584 2966 3190 
Q 3341 2797 3341 1997 
z
" transform="scale(0.015625)"/>
      </defs>
      <use xlink:href="#DejaVuSans-46"/>
      <use xlink:href="#DejaVuSans-61" x="48.394531"/>
      <use xlink:href="#DejaVuSans-6d" x="109.673828"/>
      <use xlink:href="#DejaVuSans-69" x="207.085938"/>
      <use xlink:href="#DejaVuSans-6c" x="234.869141"/>
      <use xlink:href="#DejaVuSans-79" x="262.652344"/>
      <use xlink:href="#DejaVuSans-20" x="321.832031"/>
      <use xlink:href="#DejaVuSans-46" x="353.619141"/>
      <use xlink:href="#DejaVuSans-69" x="403.888672"/>
      <use xlink:href="#DejaVuSans-6c" x="431.671875"/>
      <use xlink:href="#DejaVuSans-6d" x="459.455078"/>
     </g>
    </g>
   </g>
   <g id="text_4">
    <g id="patch_5">
     <path d="M 64.236106 402.848827 
L 144.563918 402.848827 
L 144.563918 386.218515 
L 64.236106 386.218515 
z
" clip-path="url(#pbc8873bc76)" style="fill: #ffffff; opacity: 0.7; stroke: #000000; stroke-linejoin: miter"/>
    </g>
    <g clip-path="url(#pbc8873bc76)">
     <!-- Black-and-white -->
     <g transform="translate(68.196106 397.017109)scale(0.09 -0.09)">
      <defs>
       <path id="DejaVuSans-42" d="M 1259 2228 
L 1259 519 
L 2272 519 
Q 2781 519 3026 730 
Q 3272 941 3272 1375 
Q 3272 1813 3026 2020 
Q 2781 2228 2272 2228 
L 1259 2228 
z
M 1259 4147 
L 1259 2741 
L 2194 2741 
Q 2656 2741 2882 2914 
Q 3109 3088 3109 3444 
Q 3109 3797 2882 3972 
Q 2656 4147 2194 4147 
L 1259 4147 
z
M 628 4666 
L 2241 4666 
Q 2963 4666 3353 4366 
Q 3744 4066 3744 3513 
Q 3744 3084 3544 2831 
Q 3344 2578 2956 2516 
Q 3422 2416 3680 2098 
Q 3938 1781 3938 1306 
Q 3938 681 3513 340 
Q 3088 0 2303 0 
L 628 0 
L 628 4666 
z
" transform="scale(0.015625)"/>
       <path id="DejaVuSans-63" d="M 3122 3366 
L 3122 2828 
Q 2878 2963 2633 3030 
Q 2388 3097 2138 3097 
Q 1578 3097 1268 2742 
Q 959 2388 959 1747 
Q 959 1106 1268 751 
Q 1578 397 2138 397 
Q 2388 397 2633 464 
Q 2878 531 3122 666 
L 3122 134 
Q 2881 22 2623 -34 
Q 2366 -91 2075 -91 
Q 1284 -91 818 406 
Q 353 903 353 1747 
Q 353 2603 823 3093 
Q 1294 3584 2113 3584 
Q 2378 3584 2631 3529 
Q 2884 3475 3122 3366 
z
" transform="scale(0.015625)"/>
       <path id="DejaVuSans-6b" d="M 581 4863 
L 1159 4863 
L 1159 1991 
L 2875 3500 
L 3609 3500 
L 1753 1863 
L 3688 0 
L 2938 0 
L 1159 1709 
L 1159 0 
L 581 0 
L 581 4863 
z
" transform="scale(0.015625)"/>
       <path id="DejaVuSans-2d" d="M 313 2009 
L 1997 2009 
L 1997 1497 
L 313 1497 
L 313 2009 
z
" transform="scale(0.015625)"/>
       <path id="DejaVuSans-6e" d="M 3513 2113 
L 3513 0 
L 2938 0 
L 2938 2094 
Q 2938 2591 2744 2837 
Q 2550 3084 2163 3084 
Q 1697 3084 1428 2787 
Q 1159 2491 1159 1978 
L 1159 0 
L 581 0 
L 581 3500 
L 1159 3500 
L 1159 2956 
Q 1366 3272 1645 3428 
Q 1925 3584 2291 3584 
Q 2894 3584 3203 3211 
Q 3513 2838 3513 2113 
z
" transform="scale(0.015625)"/>
       <path id="DejaVuSans-77" d="M 269 3500 
L 844 3500 
L 1563 769 
L 2278 3500 
L 2956 3500 
L 3675 769 
L 4391 3500 
L 4966 3500 
L 4050 0 
L 3372 0 
L 2619 2869 
L 1863 0 
L 1184 0 
L 269 3500 
z
" transform="scale(0.015625)"/>
      </defs>
      <use xlink:href="#DejaVuSans-42"/>
      <use xlink:href="#DejaVuSans-6c" x="68.603516"/>
      <use xlink:href="#DejaVuSans-61" x="96.386719"/>
      <use xlink:href="#DejaVuSans-63" x="157.666016"/>
      <use xlink:href="#DejaVuSans-6b" x="212.646484"/>
      <use xlink:href="#DejaVuSans-2d" x="270.556641"/>
      <use xlink:href="#DejaVuSans-61" x="306.640625"/>
      <use xlink:href="#DejaVuSans-6e" x="367.919922"/>
      <use xlink:href="#DejaVuSans-64" x="431.298828"/>
      <use xlink:href="#DejaVuSans-2d" x="494.775391"/>
      <use xlink:href="#DejaVuSans-77" x="530.859375"/>
      <use xlink:href="#DejaVuSans-68" x="612.646484"/>
      <use xlink:href="#DejaVuSans-69" x="676.025391"/>
      <use xlink:href="#DejaVuSans-74" x="703.808594"/>
      <use xlink:href="#DejaVuSans-65" x="743.017578"/>
     </g>
    </g>
   </g>
   <g id="text_5">
    <g id="patch_6">
     <path d="M 299.991403 487.833281 
L 353.793121 487.833281 
L 353.793121 471.202969 
L 299.991403 471.202969 
z
" clip-path="url(#pbc8873bc76)" style="fill: #ffffff; opacity: 0.7; stroke: #000000; stroke-linejoin: miter"/>
    </g>
    <g clip-path="url(#pbc8873bc76)">
     <!-- Animation -->
     <g transform="translate(303.951403 482.001562)scale(0.09 -0.09)">
      <defs>
       <path id="DejaVuSans-41" d="M 2188 4044 
L 1331 1722 
L 3047 1722 
L 2188 4044 
z
M 1831 4666 
L 2547 4666 
L 4325 0 
L 3669 0 
L 3244 1197 
L 1141 1197 
L 716 0 
L 50 0 
L 1831 4666 
z
" transform="scale(0.015625)"/>
      </defs>
      <use xlink:href="#DejaVuSans-41"/>
      <use xlink:href="#DejaVuSans-6e" x="68.408203"/>
      <use xlink:href="#DejaVuSans-69" x="131.787109"/>
      <use xlink:href="#DejaVuSans-6d" x="159.570312"/>
      <use xlink:href="#DejaVuSans-61" x="256.982422"/>
      <use xlink:href="#DejaVuSans-74" x="318.261719"/>
      <use xlink:href="#DejaVuSans-69" x="357.470703"/>
      <use xlink:href="#DejaVuSans-6f" x="385.253906"/>
      <use xlink:href="#DejaVuSans-6e" x="446.435547"/>
     </g>
    </g>
   </g>
   <g id="text_6">
    <!-- Impactful genre combination for Short Film genre - Importance rank: 1 -->
    <g transform="translate(72.728437 16.318125)scale(0.12 -0.12)">
     <defs>
      <path id="DejaVuSans-49" d="M 628 4666 
L 1259 4666 
L 1259 0 
L 628 0 
L 628 4666 
z
" transform="scale(0.015625)"/>
       <path id="DejaVuSans-70" d="M 1159 525 
L 1159 -1331 
L 581 -1331 
L 581 3500 
L 1159 3500 
L 1159 2969 
Q 1341 3281 1617 3432 
Q 1894 3584 2278 3584 
Q 2916 3584 3314 3078 
Q 3713 2572 3713 1747 
Q 3713 922 3314 415 
Q 2916 -91 2278 -91 
Q 1894 -91 1617 61 
Q 1341 213 1159 525 
z
M 3116 1747 
Q 3116 2381 2855 2742 
Q 2594 3103 2138 3103 
Q 1681 3103 1420 2742 
Q 1159 2381 1159 1747 
Q 1159 1113 1420 752 
Q 1681 391 2138 391 
Q 2594 391 2855 752 
Q 3116 1113 3116 1747 
z
" transform="scale(0.015625)"/>
      </defs>
      <use xlink:href="#DejaVuSans-42"/>
      <use xlink:href="#DejaVuSans-69" x="68.603516"/>
      <use xlink:href="#DejaVuSans-6f" x="96.386719"/>
      <use xlink:href="#DejaVuSans-67" x="157.568359"/>
      <use xlink:href="#DejaVuSans-72" x="221.044922"/>
      <use xlink:href="#DejaVuSans-61" x="262.158203"/>
      <use xlink:href="#DejaVuSans-70" x="323.4375"/>
      <use xlink:href="#DejaVuSans-68" x="386.914062"/>
      <use xlink:href="#DejaVuSans-79" x="450.292969"/>
     </g>
    </g>
   </g>
   <g id="text_5">
    <g id="patch_6">
     <path d="M 165.382047 487.833281 
L 223.417985 487.833281 
L 223.417985 471.202969 
L 165.382047 471.202969 
z
" clip-path="url(#p2b4c2dcf5b)" style="fill: #ffffff; opacity: 0.7; stroke: #000000; stroke-linejoin: miter"/>
    </g>
    <g clip-path="url(#p2b4c2dcf5b)">
     <!-- Family Film -->
     <g transform="translate(169.342047 482.001562)scale(0.09 -0.09)">
      <use xlink:href="#DejaVuSans-46"/>
      <use xlink:href="#DejaVuSans-61" x="48.394531"/>
      <use xlink:href="#DejaVuSans-6d" x="109.673828"/>
      <use xlink:href="#DejaVuSans-69" x="207.085938"/>
      <use xlink:href="#DejaVuSans-6c" x="234.869141"/>
      <use xlink:href="#DejaVuSans-79" x="262.652344"/>
      <use xlink:href="#DejaVuSans-20" x="321.832031"/>
      <use xlink:href="#DejaVuSans-46" x="353.619141"/>
      <use xlink:href="#DejaVuSans-69" x="403.888672"/>
      <use xlink:href="#DejaVuSans-6c" x="431.671875"/>
      <use xlink:href="#DejaVuSans-6d" x="459.455078"/>
     </g>
    </g>
   </g>
   <g id="text_6">
    <g id="patch_7">
     <path d="M 339.856156 487.833281 
L 408.943812 487.833281 
L 408.943812 471.202969 
L 339.856156 471.202969 
z
" clip-path="url(#p2b4c2dcf5b)" style="fill: #ffffff; opacity: 0.7; stroke: #000000; stroke-linejoin: miter"/>
    </g>
    <g clip-path="url(#p2b4c2dcf5b)">
     <!-- Documentary -->
     <g transform="translate(343.816156 482.001562)scale(0.09 -0.09)">
      <defs>
       <path id="DejaVuSans-44" d="M 1259 4147 
L 1259 519 
L 2022 519 
Q 2988 519 3436 956 
Q 3884 1394 3884 2338 
Q 3884 3275 3436 3711 
Q 2988 4147 2022 4147 
L 1259 4147 
z
M 628 4666 
L 1925 4666 
Q 3281 4666 3915 4102 
Q 4550 3538 4550 2338 
Q 4550 1131 3912 565 
Q 3275 0 1925 0 
L 628 0 
L 628 4666 
z
" transform="scale(0.015625)"/>
       <path id="DejaVuSans-75" d="M 544 1381 
L 544 3500 
L 1119 3500 
L 1119 1403 
Q 1119 906 1312 657 
Q 1506 409 1894 409 
Q 2359 409 2629 706 
Q 2900 1003 2900 1516 
L 2900 3500 
L 3475 3500 
L 3475 0 
L 2900 0 
L 2900 538 
Q 2691 219 2414 64 
Q 2138 -91 1772 -91 
Q 1169 -91 856 284 
Q 544 659 544 1381 
z
M 1991 3584 
L 1991 3584 
z
" transform="scale(0.015625)"/>
      </defs>
      <use xlink:href="#DejaVuSans-44"/>
      <use xlink:href="#DejaVuSans-6f" x="77.001953"/>
      <use xlink:href="#DejaVuSans-63" x="138.183594"/>
      <use xlink:href="#DejaVuSans-75" x="193.164062"/>
      <use xlink:href="#DejaVuSans-6d" x="256.542969"/>
      <use xlink:href="#DejaVuSans-65" x="353.955078"/>
      <use xlink:href="#DejaVuSans-6e" x="415.478516"/>
      <use xlink:href="#DejaVuSans-74" x="478.857422"/>
      <use xlink:href="#DejaVuSans-61" x="518.066406"/>
      <use xlink:href="#DejaVuSans-72" x="579.345703"/>
      <use xlink:href="#DejaVuSans-79" x="620.458984"/>
     </g>
    </g>
   </g>
   <g id="text_7">
    <!-- Impactful genre combination for Short Film genre - Importance rank: 8 -->
    <g transform="translate(72.728437 16.318125)scale(0.12 -0.12)">
     <defs>
      <path id="DejaVuSans-49" d="M 628 4666 
L 1259 4666 
L 1259 0 
L 628 0 
L 628 4666 
z
" transform="scale(0.015625)"/>
      <path id="DejaVuSans-66" d="M 2375 4863 
L 2375 4384 
L 1825 4384 
Q 1516 4384 1395 4259 
Q 1275 4134 1275 3809 
L 1275 3500 
L 2222 3500 
L 2222 3053 
L 1275 3053 
L 1275 0 
L 697 0 
L 697 3053 
L 147 3053 
L 147 3500 
L 697 3500 
L 697 3744 
Q 697 4328 969 4595 
Q 1241 4863 1831 4863 
L 2375 4863 
z
" transform="scale(0.015625)"/>
      <path id="DejaVuSans-62" d="M 3116 1747 
Q 3116 2381 2855 2742 
Q 2594 3103 2138 3103 
Q 1681 3103 1420 2742 
Q 1159 2381 1159 1747 
Q 1159 1113 1420 752 
Q 1681 391 2138 391 
Q 2594 391 2855 752 
Q 3116 1113 3116 1747 
z
M 1159 2969 
Q 1341 3281 1617 3432 
Q 1894 3584 2278 3584 
Q 2916 3584 3314 3078 
Q 3713 2572 3713 1747 
Q 3713 922 3314 415 
Q 2916 -91 2278 -91 
Q 1894 -91 1617 61 
Q 1341 213 1159 525 
L 1159 0 
L 581 0 
L 581 4863 
L 1159 4863 
L 1159 2969 
z
" transform="scale(0.015625)"/>
      <path id="DejaVuSans-3a" d="M 750 794 
L 1409 794 
L 1409 0 
L 750 0 
L 750 794 
z
M 750 3309 
L 1409 3309 
L 1409 2516 
L 750 2516 
L 750 3309 
z
" transform="scale(0.015625)"/>
      <path id="DejaVuSans-31" d="M 794 531 
L 1825 531 
L 1825 4091 
L 703 3866 
L 703 4441 
L 1819 4666 
L 2450 4666 
L 2450 531 
L 3481 531 
L 3481 0 
L 794 0 
L 794 531 
z
" transform="scale(0.015625)"/>
     </defs>
     <use xlink:href="#DejaVuSans-49"/>
     <use xlink:href="#DejaVuSans-6d" x="29.492188"/>
     <use xlink:href="#DejaVuSans-70" x="126.904297"/>
     <use xlink:href="#DejaVuSans-61" x="190.380859"/>
     <use xlink:href="#DejaVuSans-63" x="251.660156"/>
     <use xlink:href="#DejaVuSans-74" x="306.640625"/>
     <use xlink:href="#DejaVuSans-66" x="345.849609"/>
     <use xlink:href="#DejaVuSans-75" x="381.054688"/>
     <use xlink:href="#DejaVuSans-6c" x="444.433594"/>
     <use xlink:href="#DejaVuSans-20" x="472.216797"/>
     <use xlink:href="#DejaVuSans-67" x="504.003906"/>
     <use xlink:href="#DejaVuSans-65" x="567.480469"/>
     <use xlink:href="#DejaVuSans-6e" x="629.003906"/>
     <use xlink:href="#DejaVuSans-72" x="692.382812"/>
     <use xlink:href="#DejaVuSans-65" x="731.246094"/>
     <use xlink:href="#DejaVuSans-20" x="792.769531"/>
     <use xlink:href="#DejaVuSans-63" x="824.556641"/>
     <use xlink:href="#DejaVuSans-6f" x="879.537109"/>
     <use xlink:href="#DejaVuSans-6d" x="940.71875"/>
     <use xlink:href="#DejaVuSans-62" x="1038.130859"/>
     <use xlink:href="#DejaVuSans-69" x="1101.607422"/>
     <use xlink:href="#DejaVuSans-6e" x="1129.390625"/>
     <use xlink:href="#DejaVuSans-61" x="1192.769531"/>
     <use xlink:href="#DejaVuSans-74" x="1254.048828"/>
     <use xlink:href="#DejaVuSans-69" x="1293.257812"/>
     <use xlink:href="#DejaVuSans-6f" x="1321.041016"/>
     <use xlink:href="#DejaVuSans-6e" x="1382.222656"/>
     <use xlink:href="#DejaVuSans-20" x="1445.601562"/>
     <use xlink:href="#DejaVuSans-66" x="1477.388672"/>
     <use xlink:href="#DejaVuSans-6f" x="1512.59375"/>
     <use xlink:href="#DejaVuSans-72" x="1573.775391"/>
     <use xlink:href="#DejaVuSans-20" x="1614.888672"/>
     <use xlink:href="#DejaVuSans-53" x="1646.675781"/>
     <use xlink:href="#DejaVuSans-68" x="1710.152344"/>
     <use xlink:href="#DejaVuSans-6f" x="1773.53125"/>
     <use xlink:href="#DejaVuSans-72" x="1834.712891"/>
     <use xlink:href="#DejaVuSans-74" x="1875.826172"/>
     <use xlink:href="#DejaVuSans-20" x="1915.035156"/>
     <use xlink:href="#DejaVuSans-46" x="1946.822266"/>
     <use xlink:href="#DejaVuSans-69" x="1997.091797"/>
     <use xlink:href="#DejaVuSans-6c" x="2024.875"/>
     <use xlink:href="#DejaVuSans-6d" x="2052.658203"/>
     <use xlink:href="#DejaVuSans-20" x="2150.070312"/>
     <use xlink:href="#DejaVuSans-67" x="2181.857422"/>
     <use xlink:href="#DejaVuSans-65" x="2245.333984"/>
     <use xlink:href="#DejaVuSans-6e" x="2306.857422"/>
     <use xlink:href="#DejaVuSans-72" x="2370.236328"/>
     <use xlink:href="#DejaVuSans-65" x="2409.099609"/>
     <use xlink:href="#DejaVuSans-20" x="2470.623047"/>
     <use xlink:href="#DejaVuSans-2d" x="2502.410156"/>
     <use xlink:href="#DejaVuSans-20" x="2538.494141"/>
     <use xlink:href="#DejaVuSans-49" x="2570.28125"/>
     <use xlink:href="#DejaVuSans-6d" x="2599.773438"/>
     <use xlink:href="#DejaVuSans-70" x="2697.185547"/>
     <use xlink:href="#DejaVuSans-6f" x="2760.662109"/>
     <use xlink:href="#DejaVuSans-72" x="2821.84375"/>
     <use xlink:href="#DejaVuSans-74" x="2862.957031"/>
     <use xlink:href="#DejaVuSans-61" x="2902.166016"/>
     <use xlink:href="#DejaVuSans-6e" x="2963.445312"/>
     <use xlink:href="#DejaVuSans-63" x="3026.824219"/>
     <use xlink:href="#DejaVuSans-65" x="3081.804688"/>
     <use xlink:href="#DejaVuSans-20" x="3143.328125"/>
     <use xlink:href="#DejaVuSans-72" x="3175.115234"/>
     <use xlink:href="#DejaVuSans-61" x="3216.228516"/>
     <use xlink:href="#DejaVuSans-6e" x="3277.507812"/>
     <use xlink:href="#DejaVuSans-6b" x="3340.886719"/>
     <use xlink:href="#DejaVuSans-3a" x="3398.796875"/>
     <use xlink:href="#DejaVuSans-20" x="3432.488281"/>
     <use xlink:href="#DejaVuSans-31" x="3464.275391"/>
    </g>
   </g>
  </g>
 </g>
 <defs>
  <clipPath id="pbc8873bc76">
   <rect x="7.2" y="22.318125" width="554.4" height="554.4"/>
  </clipPath>
 </defs>
</svg>
