<?xml version="1.0" encoding="utf-8" standalone="no"?>
<!DOCTYPE svg PUBLIC "-//W3C//DTD SVG 1.1//EN"
  "http://www.w3.org/Graphics/SVG/1.1/DTD/svg11.dtd">
<svg xmlns:xlink="http://www.w3.org/1999/xlink" width="576pt" height="576pt" viewBox="0 0 576 576" xmlns="http://www.w3.org/2000/svg" version="1.1">
 <metadata>
  <rdf:RDF xmlns:dc="http://purl.org/dc/elements/1.1/" xmlns:cc="http://creativecommons.org/ns#" xmlns:rdf="http://www.w3.org/1999/02/22-rdf-syntax-ns#">
   <cc:Work>
    <dc:type rdf:resource="http://purl.org/dc/dcmitype/StillImage"/>
    <dc:date>2022-12-22T19:12:19.059791</dc:date>
    <dc:format>image/svg+xml</dc:format>
    <dc:creator>
     <cc:Agent>
      <dc:title>Matplotlib v3.5.2, https://matplotlib.org/</dc:title>
     </cc:Agent>
    </dc:creator>
   </cc:Work>
  </rdf:RDF>
 </metadata>
 <defs>
  <style type="text/css">*{stroke-linejoin: round; stroke-linecap: butt}</style>
 </defs>
 <g id="figure_1">
  <g id="patch_1">
   <path d="M 0 576 
L 576 576 
L 576 0 
L 0 0 
z
" style="fill: #ffffff"/>
  </g>
  <g id="axes_1">
   <g id="LineCollection_1">
    <path d="M 177.85133 472.396068 
L 263.109587 499.857688 
" clip-path="url(#p31aff7325b)" style="fill: none; stroke: #000000; stroke-opacity: 0.3; stroke-width: 5"/>
   </g>
   <g id="PathCollection_1">
    <path d="M 501.230769 314.699587 
C 508.493655 314.699587 515.46005 311.814012 520.595686 306.678376 
C 525.731322 301.54274 528.616897 294.576346 528.616897 287.31346 
C 528.616897 280.050573 525.731322 273.084179 520.595686 267.948543 
C 515.46005 262.812907 508.493655 259.927332 501.230769 259.927332 
C 493.967883 259.927332 487.001488 262.812907 481.865852 267.948543 
C 476.730217 273.084179 473.844641 280.050573 473.844641 287.31346 
C 473.844641 294.576346 476.730217 301.54274 481.865852 306.678376 
C 487.001488 311.814012 493.967883 314.699587 501.230769 314.699587 
z
" clip-path="url(#p31aff7325b)" style="fill: #d62728; fill-opacity: 0.99; stroke: #d62728; stroke-opacity: 0.99"/>
    <path d="M 482.592348 226.944736 
C 489.635344 226.944736 496.390825 224.146524 501.370975 219.166374 
C 506.351125 214.186224 509.149336 207.430743 509.149336 200.387747 
C 509.149336 193.344752 506.351125 186.589271 501.370975 181.609121 
C 496.390825 176.628971 489.635344 173.830759 482.592348 173.830759 
C 475.549352 173.830759 468.793871 176.628971 463.813721 181.609121 
C 458.833571 186.589271 456.035359 193.344752 456.035359 200.387747 
C 456.035359 207.430743 458.833571 214.186224 463.813721 219.166374 
C 468.793871 224.146524 475.549352 226.944736 482.592348 226.944736 
z
" clip-path="url(#p31aff7325b)" style="fill: #d62728; fill-opacity: 0.99; stroke: #d62728; stroke-opacity: 0.99"/>
    <path d="M 429.89985 153.867937 
C 436.629555 153.867937 443.084535 151.194197 447.843156 146.435576 
C 452.601776 141.676956 455.275516 135.221976 455.275516 128.49227 
C 455.275516 121.762565 452.601776 115.307585 447.843156 110.548965 
C 443.084535 105.790344 436.629555 103.116604 429.89985 103.116604 
C 423.170144 103.116604 416.715164 105.790344 411.956544 110.548965 
C 407.197924 115.307585 404.524183 121.762565 404.524183 128.49227 
C 404.524183 135.221976 407.197924 141.676956 411.956544 146.435576 
C 416.715164 151.194197 423.170144 153.867937 429.89985 153.867937 
z
" clip-path="url(#p31aff7325b)" style="fill: #d62728; fill-opacity: 0.99; stroke: #d62728; stroke-opacity: 0.99"/>
    <path d="M 352.264291 109.104517 
C 358.90659 109.104517 365.277732 106.465503 369.974547 101.768688 
C 374.671362 97.071874 377.310375 90.700732 377.310375 84.058433 
C 377.310375 77.416133 374.671362 71.044992 369.974547 66.348177 
C 365.277732 61.651362 358.90659 59.012349 352.264291 59.012349 
C 345.621992 59.012349 339.25085 61.651362 334.554035 66.348177 
C 329.857221 71.044992 327.218207 77.416133 327.218207 84.058433 
C 327.218207 90.700732 329.857221 97.071874 334.554035 101.768688 
C 339.25085 106.465503 345.621992 109.104517 352.264291 109.104517 
z
" clip-path="url(#p31aff7325b)" style="fill: #d62728; fill-opacity: 0.99; stroke: #d62728; stroke-opacity: 0.99"/>
    <path d="M 263.109549 99.306602 
C 269.616936 99.306602 275.858673 96.72119 280.46009 92.119772 
C 285.061508 87.518355 287.64692 81.276618 287.64692 74.769231 
C 287.64692 68.261844 285.061508 62.020107 280.46009 57.418689 
C 275.858673 52.817272 269.616936 50.231859 263.109549 50.231859 
C 256.602162 50.231859 250.360424 52.817272 245.759007 57.418689 
C 241.15759 62.020107 238.572177 68.261844 238.572177 74.769231 
C 238.572177 81.276618 241.15759 87.518355 245.759007 92.119772 
C 250.360424 96.72119 256.602162 99.306602 263.109549 99.306602 
z
" clip-path="url(#p31aff7325b)" style="fill: #d62728; fill-opacity: 0.99; stroke: #d62728; stroke-opacity: 0.99"/>
    <path d="M 177.851298 126.178192 
C 184.202204 126.178192 190.293848 123.654951 194.784617 119.164182 
C 199.275386 114.673413 201.798627 108.581769 201.798627 102.230863 
C 201.798627 95.879957 199.275386 89.788313 194.784617 85.297544 
C 190.293848 80.806776 184.202204 78.283534 177.851298 78.283534 
C 171.500392 78.283534 165.408748 80.806776 160.917979 85.297544 
C 156.427211 89.788313 153.903969 95.879957 153.903969 102.230863 
C 153.903969 108.581769 156.427211 114.673413 160.917979 119.164182 
C 165.408748 123.654951 171.500392 126.178192 177.851298 126.178192 
z
" clip-path="url(#p31aff7325b)" style="fill: #d62728; fill-opacity: 0.99; stroke: #d62728; stroke-opacity: 0.99"/>
    <path d="M 111.231477 184.16091 
C 117.189519 184.16091 122.904338 181.793755 127.11731 177.580782 
C 131.330282 173.36781 133.697437 167.652992 133.697437 161.694949 
C 133.697437 155.736907 131.330282 150.022089 127.11731 145.809116 
C 122.904338 141.596144 117.189519 139.228989 111.231477 139.228989 
C 105.273435 139.228989 99.558616 141.596144 95.345644 145.809116 
C 91.132672 150.022089 88.765517 155.736907 88.765517 161.694949 
C 88.765517 167.652992 91.132672 173.36781 95.345644 177.580782 
C 99.558616 181.793755 105.273435 184.16091 111.231477 184.16091 
z
" clip-path="url(#p31aff7325b)" style="fill: #d62728; fill-opacity: 0.99; stroke: #d62728; stroke-opacity: 0.99"/>
    <path d="M 74.769231 265.216934 
C 80.693152 265.216934 86.375242 262.863336 90.564087 258.674491 
C 94.752932 254.485646 97.106531 248.803556 97.106531 242.879634 
C 97.106531 236.955713 94.752932 231.273623 90.564087 227.084778 
C 86.375242 222.895933 80.693152 220.542334 74.769231 220.542334 
C 68.84531 220.542334 63.163219 222.895933 58.974374 227.084778 
C 54.78553 231.273623 52.431931 236.955713 52.431931 242.879634 
C 52.431931 248.803556 54.78553 254.485646 58.974374 258.674491 
C 63.163219 262.863336 68.84531 265.216934 74.769231 265.216934 
z
" clip-path="url(#p31aff7325b)" style="fill: #d62728; fill-opacity: 0.99; stroke: #d62728; stroke-opacity: 0.99"/>
    <path d="M 74.769244 353.734038 
C 80.600189 353.734038 86.193098 351.417379 90.316199 347.294278 
C 94.4393 343.171177 96.755959 337.578268 96.755959 331.747323 
C 96.755959 325.916378 94.4393 320.323468 90.316199 316.200368 
C 86.193098 312.077267 80.600189 309.760608 74.769244 309.760608 
C 68.938299 309.760608 63.345389 312.077267 59.222288 316.200368 
C 55.099188 320.323468 52.782529 325.916378 52.782529 331.747323 
C 52.782529 337.578268 55.099188 343.171177 59.222288 347.294278 
C 63.345389 351.417379 68.938299 353.734038 74.769244 353.734038 
z
" clip-path="url(#p31aff7325b)" style="fill: #d62728; fill-opacity: 0.99; stroke: #d62728; stroke-opacity: 0.99"/>
    <path d="M 111.23149 434.102462 
C 116.845967 434.102462 122.231245 431.871807 126.201279 427.901772 
C 130.171314 423.931737 132.401969 418.546459 132.401969 412.931982 
C 132.401969 407.317506 130.171314 401.932227 126.201279 397.962193 
C 122.231245 393.992158 116.845967 391.761503 111.23149 391.761503 
C 105.617013 391.761503 100.231735 393.992158 96.2617 397.962193 
C 92.291666 401.932227 90.06101 407.317506 90.06101 412.931982 
C 90.06101 418.546459 92.291666 423.931737 96.2617 427.901772 
C 100.231735 431.871807 105.617013 434.102462 111.23149 434.102462 
z
" clip-path="url(#p31aff7325b)" style="fill: #d62728; fill-opacity: 0.99; stroke: #d62728; stroke-opacity: 0.99"/>
    <path d="M 177.85133 492.739756 
C 183.246539 492.739756 188.421501 490.596217 192.23649 486.781228 
C 196.051478 482.966239 198.195018 477.791277 198.195018 472.396068 
C 198.195018 467.000859 196.051478 461.825898 192.23649 458.010909 
C 188.421501 454.19592 183.246539 452.052381 177.85133 452.052381 
C 172.456121 452.052381 167.28116 454.19592 163.466171 458.010909 
C 159.651182 461.825898 157.507643 467.000859 157.507643 472.396068 
C 157.507643 477.791277 159.651182 482.966239 163.466171 486.781228 
C 167.28116 490.596217 172.456121 492.739756 177.85133 492.739756 
z
" clip-path="url(#p31aff7325b)" style="fill: #d62728; fill-opacity: 0.99; stroke: #d62728; stroke-opacity: 0.99"/>
    <path d="M 263.109587 520.201376 
C 268.504796 520.201376 273.679758 518.057836 277.494747 514.242848 
C 281.309735 510.427859 283.453275 505.252897 283.453275 499.857688 
C 283.453275 494.462479 281.309735 489.287518 277.494747 485.472529 
C 273.679758 481.65754 268.504796 479.514001 263.109587 479.514001 
C 257.714378 479.514001 252.539417 481.65754 248.724428 485.472529 
C 244.909439 489.287518 242.7659 494.462479 242.7659 499.857688 
C 242.7659 505.252897 244.909439 510.427859 248.724428 514.242848 
C 252.539417 518.057836 257.714378 520.201376 263.109587 520.201376 
z
" clip-path="url(#p31aff7325b)" style="fill: #d62728; fill-opacity: 0.99; stroke: #d62728; stroke-opacity: 0.99"/>
    <path d="M 352.264323 510.439088 
C 357.534072 510.439088 362.588694 508.345394 366.314969 504.61912 
C 370.041244 500.892845 372.134937 495.838222 372.134937 490.568474 
C 372.134937 485.298725 370.041244 480.244103 366.314969 476.517828 
C 362.588694 472.791553 357.534072 470.69786 352.264323 470.69786 
C 346.994575 470.69786 341.939952 472.791553 338.213677 476.517828 
C 334.487403 480.244103 332.393709 485.298725 332.393709 490.568474 
C 332.393709 495.838222 334.487403 500.892845 338.213677 504.61912 
C 341.939952 508.345394 346.994575 510.439088 352.264323 510.439088 
z
" clip-path="url(#p31aff7325b)" style="fill: #d62728; fill-opacity: 0.99; stroke: #d62728; stroke-opacity: 0.99"/>
    <path d="M 429.899888 465.558111 
C 435.051061 465.558111 439.991948 463.511528 443.634377 459.869099 
C 447.276807 456.22667 449.323389 451.285783 449.323389 446.13461 
C 449.323389 440.983438 447.276807 436.04255 443.634377 432.400121 
C 439.991948 428.757692 435.051061 426.71111 429.899888 426.71111 
C 424.748716 426.71111 419.807828 428.757692 416.165399 432.400121 
C 412.52297 436.04255 410.476388 440.983438 410.476388 446.13461 
C 410.476388 451.285783 412.52297 456.22667 416.165399 459.869099 
C 419.807828 463.511528 424.748716 465.558111 429.899888 465.558111 
z
" clip-path="url(#p31aff7325b)" style="fill: #d62728; fill-opacity: 0.99; stroke: #d62728; stroke-opacity: 0.99"/>
    <path d="M 482.592374 393.604057 
C 487.728009 393.604057 492.653994 391.563647 496.285437 387.932204 
C 499.91688 384.300761 501.95729 379.374776 501.95729 374.23914 
C 501.95729 369.103504 499.91688 364.177519 496.285437 360.546076 
C 492.653994 356.914633 487.728009 354.874223 482.592374 354.874223 
C 477.456738 354.874223 472.530753 356.914633 468.89931 360.546076 
C 465.267867 364.177519 463.227457 369.103504 463.227457 374.23914 
C 463.227457 379.374776 465.267867 384.300761 468.89931 387.932204 
C 472.530753 391.563647 477.456738 393.604057 482.592374 393.604057 
z
" clip-path="url(#p31aff7325b)" style="fill: #d62728; fill-opacity: 0.99; stroke: #d62728; stroke-opacity: 0.99"/>
   </g>
   <g id="text_1">
    <g id="patch_2">
     <path d="M 470.31155 295.628616 
L 532.149988 295.628616 
L 532.149988 278.998303 
L 470.31155 278.998303 
z
" clip-path="url(#p31aff7325b)" style="fill: #ffffff; opacity: 0.7; stroke: #000000; stroke-linejoin: miter"/>
    </g>
    <g clip-path="url(#p31aff7325b)">
     <!-- Ridley Scott -->
     <g transform="translate(474.27155 289.796897)scale(0.09 -0.09)">
      <defs>
       <path id="DejaVuSans-52" d="M 2841 2188 
Q 3044 2119 3236 1894 
Q 3428 1669 3622 1275 
L 4263 0 
L 3584 0 
L 2988 1197 
Q 2756 1666 2539 1819 
Q 2322 1972 1947 1972 
L 1259 1972 
L 1259 0 
L 628 0 
L 628 4666 
L 2053 4666 
Q 2853 4666 3247 4331 
Q 3641 3997 3641 3322 
Q 3641 2881 3436 2590 
Q 3231 2300 2841 2188 
z
M 1259 4147 
L 1259 2491 
L 2053 2491 
Q 2509 2491 2742 2702 
Q 2975 2913 2975 3322 
Q 2975 3731 2742 3939 
Q 2509 4147 2053 4147 
L 1259 4147 
z
" transform="scale(0.015625)"/>
       <path id="DejaVuSans-69" d="M 603 3500 
L 1178 3500 
L 1178 0 
L 603 0 
L 603 3500 
z
M 603 4863 
L 1178 4863 
L 1178 4134 
L 603 4134 
L 603 4863 
z
" transform="scale(0.015625)"/>
       <path id="DejaVuSans-64" d="M 2906 2969 
L 2906 4863 
L 3481 4863 
L 3481 0 
L 2906 0 
L 2906 525 
Q 2725 213 2448 61 
Q 2172 -91 1784 -91 
Q 1150 -91 751 415 
Q 353 922 353 1747 
Q 353 2572 751 3078 
Q 1150 3584 1784 3584 
Q 2172 3584 2448 3432 
Q 2725 3281 2906 2969 
z
M 947 1747 
Q 947 1113 1208 752 
Q 1469 391 1925 391 
Q 2381 391 2643 752 
Q 2906 1113 2906 1747 
Q 2906 2381 2643 2742 
Q 2381 3103 1925 3103 
Q 1469 3103 1208 2742 
Q 947 2381 947 1747 
z
" transform="scale(0.015625)"/>
       <path id="DejaVuSans-6c" d="M 603 4863 
L 1178 4863 
L 1178 0 
L 603 0 
L 603 4863 
z
" transform="scale(0.015625)"/>
       <path id="DejaVuSans-65" d="M 3597 1894 
L 3597 1613 
L 953 1613 
Q 991 1019 1311 708 
Q 1631 397 2203 397 
Q 2534 397 2845 478 
Q 3156 559 3463 722 
L 3463 178 
Q 3153 47 2828 -22 
Q 2503 -91 2169 -91 
Q 1331 -91 842 396 
Q 353 884 353 1716 
Q 353 2575 817 3079 
Q 1281 3584 2069 3584 
Q 2775 3584 3186 3129 
Q 3597 2675 3597 1894 
z
M 3022 2063 
Q 3016 2534 2758 2815 
Q 2500 3097 2075 3097 
Q 1594 3097 1305 2825 
Q 1016 2553 972 2059 
L 3022 2063 
z
" transform="scale(0.015625)"/>
       <path id="DejaVuSans-79" d="M 2059 -325 
Q 1816 -950 1584 -1140 
Q 1353 -1331 966 -1331 
L 506 -1331 
L 506 -850 
L 844 -850 
Q 1081 -850 1212 -737 
Q 1344 -625 1503 -206 
L 1606 56 
L 191 3500 
L 800 3500 
L 1894 763 
L 2988 3500 
L 3597 3500 
L 2059 -325 
z
" transform="scale(0.015625)"/>
       <path id="DejaVuSans-20" transform="scale(0.015625)"/>
       <path id="DejaVuSans-53" d="M 3425 4513 
L 3425 3897 
Q 3066 4069 2747 4153 
Q 2428 4238 2131 4238 
Q 1616 4238 1336 4038 
Q 1056 3838 1056 3469 
Q 1056 3159 1242 3001 
Q 1428 2844 1947 2747 
L 2328 2669 
Q 3034 2534 3370 2195 
Q 3706 1856 3706 1288 
Q 3706 609 3251 259 
Q 2797 -91 1919 -91 
Q 1588 -91 1214 -16 
Q 841 59 441 206 
L 441 856 
Q 825 641 1194 531 
Q 1563 422 1919 422 
Q 2459 422 2753 634 
Q 3047 847 3047 1241 
Q 3047 1584 2836 1778 
Q 2625 1972 2144 2069 
L 1759 2144 
Q 1053 2284 737 2584 
Q 422 2884 422 3419 
Q 422 4038 858 4394 
Q 1294 4750 2059 4750 
Q 2388 4750 2728 4690 
Q 3069 4631 3425 4513 
z
" transform="scale(0.015625)"/>
       <path id="DejaVuSans-63" d="M 3122 3366 
L 3122 2828 
Q 2878 2963 2633 3030 
Q 2388 3097 2138 3097 
Q 1578 3097 1268 2742 
Q 959 2388 959 1747 
Q 959 1106 1268 751 
Q 1578 397 2138 397 
Q 2388 397 2633 464 
Q 2878 531 3122 666 
L 3122 134 
Q 2881 22 2623 -34 
Q 2366 -91 2075 -91 
Q 1284 -91 818 406 
Q 353 903 353 1747 
Q 353 2603 823 3093 
Q 1294 3584 2113 3584 
Q 2378 3584 2631 3529 
Q 2884 3475 3122 3366 
z
" transform="scale(0.015625)"/>
       <path id="DejaVuSans-6f" d="M 1959 3097 
Q 1497 3097 1228 2736 
Q 959 2375 959 1747 
Q 959 1119 1226 758 
Q 1494 397 1959 397 
Q 2419 397 2687 759 
Q 2956 1122 2956 1747 
Q 2956 2369 2687 2733 
Q 2419 3097 1959 3097 
z
M 1959 3584 
Q 2709 3584 3137 3096 
Q 3566 2609 3566 1747 
Q 3566 888 3137 398 
Q 2709 -91 1959 -91 
Q 1206 -91 779 398 
Q 353 888 353 1747 
Q 353 2609 779 3096 
Q 1206 3584 1959 3584 
z
" transform="scale(0.015625)"/>
       <path id="DejaVuSans-74" d="M 1172 4494 
L 1172 3500 
L 2356 3500 
L 2356 3053 
L 1172 3053 
L 1172 1153 
Q 1172 725 1289 603 
Q 1406 481 1766 481 
L 2356 481 
L 2356 0 
L 1766 0 
Q 1100 0 847 248 
Q 594 497 594 1153 
L 594 3053 
L 172 3053 
L 172 3500 
L 594 3500 
L 594 4494 
L 1172 4494 
z
" transform="scale(0.015625)"/>
      </defs>
      <use xlink:href="#DejaVuSans-52"/>
      <use xlink:href="#DejaVuSans-69" x="69.482422"/>
      <use xlink:href="#DejaVuSans-64" x="97.265625"/>
      <use xlink:href="#DejaVuSans-6c" x="160.742188"/>
      <use xlink:href="#DejaVuSans-65" x="188.525391"/>
      <use xlink:href="#DejaVuSans-79" x="250.048828"/>
      <use xlink:href="#DejaVuSans-20" x="309.228516"/>
      <use xlink:href="#DejaVuSans-53" x="341.015625"/>
      <use xlink:href="#DejaVuSans-63" x="404.492188"/>
      <use xlink:href="#DejaVuSans-6f" x="459.472656"/>
      <use xlink:href="#DejaVuSans-74" x="520.654297"/>
      <use xlink:href="#DejaVuSans-74" x="559.863281"/>
     </g>
    </g>
   </g>
   <g id="text_2">
    <g id="patch_3">
     <path d="M 440.291645 208.702903 
L 524.893051 208.702903 
L 524.893051 192.072591 
L 440.291645 192.072591 
z
" clip-path="url(#p31aff7325b)" style="fill: #ffffff; opacity: 0.7; stroke: #000000; stroke-linejoin: miter"/>
    </g>
    <g clip-path="url(#p31aff7325b)">
     <!-- Steven Spielberg -->
     <g transform="translate(444.251645 202.871185)scale(0.09 -0.09)">
      <defs>
       <path id="DejaVuSans-76" d="M 191 3500 
L 800 3500 
L 1894 563 
L 2988 3500 
L 3597 3500 
L 2284 0 
L 1503 0 
L 191 3500 
z
" transform="scale(0.015625)"/>
       <path id="DejaVuSans-6e" d="M 3513 2113 
L 3513 0 
L 2938 0 
L 2938 2094 
Q 2938 2591 2744 2837 
Q 2550 3084 2163 3084 
Q 1697 3084 1428 2787 
Q 1159 2491 1159 1978 
L 1159 0 
L 581 0 
L 581 3500 
L 1159 3500 
L 1159 2956 
Q 1366 3272 1645 3428 
Q 1925 3584 2291 3584 
Q 2894 3584 3203 3211 
Q 3513 2838 3513 2113 
z
" transform="scale(0.015625)"/>
       <path id="DejaVuSans-70" d="M 1159 525 
L 1159 -1331 
L 581 -1331 
L 581 3500 
L 1159 3500 
L 1159 2969 
Q 1341 3281 1617 3432 
Q 1894 3584 2278 3584 
Q 2916 3584 3314 3078 
Q 3713 2572 3713 1747 
Q 3713 922 3314 415 
Q 2916 -91 2278 -91 
Q 1894 -91 1617 61 
Q 1341 213 1159 525 
z
M 3116 1747 
Q 3116 2381 2855 2742 
Q 2594 3103 2138 3103 
Q 1681 3103 1420 2742 
Q 1159 2381 1159 1747 
Q 1159 1113 1420 752 
Q 1681 391 2138 391 
Q 2594 391 2855 752 
Q 3116 1113 3116 1747 
z
" transform="scale(0.015625)"/>
       <path id="DejaVuSans-62" d="M 3116 1747 
Q 3116 2381 2855 2742 
Q 2594 3103 2138 3103 
Q 1681 3103 1420 2742 
Q 1159 2381 1159 1747 
Q 1159 1113 1420 752 
Q 1681 391 2138 391 
Q 2594 391 2855 752 
Q 3116 1113 3116 1747 
z
M 1159 2969 
Q 1341 3281 1617 3432 
Q 1894 3584 2278 3584 
Q 2916 3584 3314 3078 
Q 3713 2572 3713 1747 
Q 3713 922 3314 415 
Q 2916 -91 2278 -91 
Q 1894 -91 1617 61 
Q 1341 213 1159 525 
L 1159 0 
L 581 0 
L 581 4863 
L 1159 4863 
L 1159 2969 
z
" transform="scale(0.015625)"/>
       <path id="DejaVuSans-72" d="M 2631 2963 
Q 2534 3019 2420 3045 
Q 2306 3072 2169 3072 
Q 1681 3072 1420 2755 
Q 1159 2438 1159 1844 
L 1159 0 
L 581 0 
L 581 3500 
L 1159 3500 
L 1159 2956 
Q 1341 3275 1631 3429 
Q 1922 3584 2338 3584 
Q 2397 3584 2469 3576 
Q 2541 3569 2628 3553 
L 2631 2963 
z
" transform="scale(0.015625)"/>
       <path id="DejaVuSans-67" d="M 2906 1791 
Q 2906 2416 2648 2759 
Q 2391 3103 1925 3103 
Q 1463 3103 1205 2759 
Q 947 2416 947 1791 
Q 947 1169 1205 825 
Q 1463 481 1925 481 
Q 2391 481 2648 825 
Q 2906 1169 2906 1791 
z
M 3481 434 
Q 3481 -459 3084 -895 
Q 2688 -1331 1869 -1331 
Q 1566 -1331 1297 -1286 
Q 1028 -1241 775 -1147 
L 775 -588 
Q 1028 -725 1275 -790 
Q 1522 -856 1778 -856 
Q 2344 -856 2625 -561 
Q 2906 -266 2906 331 
L 2906 616 
Q 2728 306 2450 153 
Q 2172 0 1784 0 
Q 1141 0 747 490 
Q 353 981 353 1791 
Q 353 2603 747 3093 
Q 1141 3584 1784 3584 
Q 2172 3584 2450 3431 
Q 2728 3278 2906 2969 
L 2906 3500 
L 3481 3500 
L 3481 434 
z
" transform="scale(0.015625)"/>
      </defs>
      <use xlink:href="#DejaVuSans-53"/>
      <use xlink:href="#DejaVuSans-74" x="63.476562"/>
      <use xlink:href="#DejaVuSans-65" x="102.685547"/>
      <use xlink:href="#DejaVuSans-76" x="164.208984"/>
      <use xlink:href="#DejaVuSans-65" x="223.388672"/>
      <use xlink:href="#DejaVuSans-6e" x="284.912109"/>
      <use xlink:href="#DejaVuSans-20" x="348.291016"/>
      <use xlink:href="#DejaVuSans-53" x="380.078125"/>
      <use xlink:href="#DejaVuSans-70" x="443.554688"/>
      <use xlink:href="#DejaVuSans-69" x="507.03125"/>
      <use xlink:href="#DejaVuSans-65" x="534.814453"/>
      <use xlink:href="#DejaVuSans-6c" x="596.337891"/>
      <use xlink:href="#DejaVuSans-62" x="624.121094"/>
      <use xlink:href="#DejaVuSans-65" x="687.597656"/>
      <use xlink:href="#DejaVuSans-72" x="749.121094"/>
      <use xlink:href="#DejaVuSans-67" x="788.484375"/>
     </g>
    </g>
   </g>
   <g id="text_3">
    <g id="patch_4">
     <path d="M 398.776725 136.807427 
L 461.022975 136.807427 
L 461.022975 120.177114 
L 398.776725 120.177114 
z
" clip-path="url(#p31aff7325b)" style="fill: #ffffff; opacity: 0.7; stroke: #000000; stroke-linejoin: miter"/>
    </g>
    <g clip-path="url(#p31aff7325b)">
     <!-- Ron Howard -->
     <g transform="translate(402.736725 130.975708)scale(0.09 -0.09)">
      <defs>
       <path id="DejaVuSans-48" d="M 628 4666 
L 1259 4666 
L 1259 2753 
L 3553 2753 
L 3553 4666 
L 4184 4666 
L 4184 0 
L 3553 0 
L 3553 2222 
L 1259 2222 
L 1259 0 
L 628 0 
L 628 4666 
z
" transform="scale(0.015625)"/>
       <path id="DejaVuSans-77" d="M 269 3500 
L 844 3500 
L 1563 769 
L 2278 3500 
L 2956 3500 
L 3675 769 
L 4391 3500 
L 4966 3500 
L 4050 0 
L 3372 0 
L 2619 2869 
L 1863 0 
L 1184 0 
L 269 3500 
z
" transform="scale(0.015625)"/>
       <path id="DejaVuSans-61" d="M 2194 1759 
Q 1497 1759 1228 1600 
Q 959 1441 959 1056 
Q 959 750 1161 570 
Q 1363 391 1709 391 
Q 2188 391 2477 730 
Q 2766 1069 2766 1631 
L 2766 1759 
L 2194 1759 
z
M 3341 1997 
L 3341 0 
L 2766 0 
L 2766 531 
Q 2569 213 2275 61 
Q 1981 -91 1556 -91 
Q 1019 -91 701 211 
Q 384 513 384 1019 
Q 384 1609 779 1909 
Q 1175 2209 1959 2209 
L 2766 2209 
L 2766 2266 
Q 2766 2663 2505 2880 
Q 2244 3097 1772 3097 
Q 1472 3097 1187 3025 
Q 903 2953 641 2809 
L 641 3341 
Q 956 3463 1253 3523 
Q 1550 3584 1831 3584 
Q 2591 3584 2966 3190 
Q 3341 2797 3341 1997 
z
" transform="scale(0.015625)"/>
      </defs>
      <use xlink:href="#DejaVuSans-52"/>
      <use xlink:href="#DejaVuSans-6f" x="64.982422"/>
      <use xlink:href="#DejaVuSans-6e" x="126.164062"/>
      <use xlink:href="#DejaVuSans-20" x="189.542969"/>
      <use xlink:href="#DejaVuSans-48" x="221.330078"/>
      <use xlink:href="#DejaVuSans-6f" x="296.525391"/>
      <use xlink:href="#DejaVuSans-77" x="357.707031"/>
      <use xlink:href="#DejaVuSans-61" x="439.494141"/>
      <use xlink:href="#DejaVuSans-72" x="500.773438"/>
      <use xlink:href="#DejaVuSans-64" x="540.136719"/>
     </g>
    </g>
   </g>
   <g id="text_4">
    <g id="patch_5">
     <path d="M 323.474135 92.373589 
L 381.054447 92.373589 
L 381.054447 75.743276 
L 323.474135 75.743276 
z
" clip-path="url(#p31aff7325b)" style="fill: #ffffff; opacity: 0.7; stroke: #000000; stroke-linejoin: miter"/>
    </g>
    <g clip-path="url(#p31aff7325b)">
     <!-- Tim Burton -->
     <g transform="translate(327.434135 86.54187)scale(0.09 -0.09)">
      <defs>
       <path id="DejaVuSans-54" d="M -19 4666 
L 3928 4666 
L 3928 4134 
L 2272 4134 
L 2272 0 
L 1638 0 
L 1638 4134 
L -19 4134 
L -19 4666 
z
" transform="scale(0.015625)"/>
       <path id="DejaVuSans-6d" d="M 3328 2828 
Q 3544 3216 3844 3400 
Q 4144 3584 4550 3584 
Q 5097 3584 5394 3201 
Q 5691 2819 5691 2113 
L 5691 0 
L 5113 0 
L 5113 2094 
Q 5113 2597 4934 2840 
Q 4756 3084 4391 3084 
Q 3944 3084 3684 2787 
Q 3425 2491 3425 1978 
L 3425 0 
L 2847 0 
L 2847 2094 
Q 2847 2600 2669 2842 
Q 2491 3084 2119 3084 
Q 1678 3084 1418 2786 
Q 1159 2488 1159 1978 
L 1159 0 
L 581 0 
L 581 3500 
L 1159 3500 
L 1159 2956 
Q 1356 3278 1631 3431 
Q 1906 3584 2284 3584 
Q 2666 3584 2933 3390 
Q 3200 3197 3328 2828 
z
" transform="scale(0.015625)"/>
       <path id="DejaVuSans-42" d="M 1259 2228 
L 1259 519 
L 2272 519 
Q 2781 519 3026 730 
Q 3272 941 3272 1375 
Q 3272 1813 3026 2020 
Q 2781 2228 2272 2228 
L 1259 2228 
z
M 1259 4147 
L 1259 2741 
L 2194 2741 
Q 2656 2741 2882 2914 
Q 3109 3088 3109 3444 
Q 3109 3797 2882 3972 
Q 2656 4147 2194 4147 
L 1259 4147 
z
M 628 4666 
L 2241 4666 
Q 2963 4666 3353 4366 
Q 3744 4066 3744 3513 
Q 3744 3084 3544 2831 
Q 3344 2578 2956 2516 
Q 3422 2416 3680 2098 
Q 3938 1781 3938 1306 
Q 3938 681 3513 340 
Q 3088 0 2303 0 
L 628 0 
L 628 4666 
z
" transform="scale(0.015625)"/>
       <path id="DejaVuSans-75" d="M 544 1381 
L 544 3500 
L 1119 3500 
L 1119 1403 
Q 1119 906 1312 657 
Q 1506 409 1894 409 
Q 2359 409 2629 706 
Q 2900 1003 2900 1516 
L 2900 3500 
L 3475 3500 
L 3475 0 
L 2900 0 
L 2900 538 
Q 2691 219 2414 64 
Q 2138 -91 1772 -91 
Q 1169 -91 856 284 
Q 544 659 544 1381 
z
M 1991 3584 
L 1991 3584 
z
" transform="scale(0.015625)"/>
      </defs>
      <use xlink:href="#DejaVuSans-54"/>
      <use xlink:href="#DejaVuSans-69" x="57.958984"/>
      <use xlink:href="#DejaVuSans-6d" x="85.742188"/>
      <use xlink:href="#DejaVuSans-20" x="183.154297"/>
      <use xlink:href="#DejaVuSans-42" x="214.941406"/>
      <use xlink:href="#DejaVuSans-75" x="283.544922"/>
      <use xlink:href="#DejaVuSans-72" x="346.923828"/>
      <use xlink:href="#DejaVuSans-74" x="388.037109"/>
      <use xlink:href="#DejaVuSans-6f" x="427.246094"/>
      <use xlink:href="#DejaVuSans-6e" x="488.427734"/>
     </g>
    </g>
   </g>
   <g id="text_5">
    <g id="patch_6">
     <path d="M 212.322127 83.084387 
L 313.89697 83.084387 
L 313.89697 66.454075 
L 212.322127 66.454075 
z
" clip-path="url(#p31aff7325b)" style="fill: #ffffff; opacity: 0.7; stroke: #000000; stroke-linejoin: miter"/>
    </g>
    <g clip-path="url(#p31aff7325b)">
     <!-- Francis Ford Coppola -->
     <g transform="translate(216.282127 77.252668)scale(0.09 -0.09)">
      <defs>
       <path id="DejaVuSans-46" d="M 628 4666 
L 3309 4666 
L 3309 4134 
L 1259 4134 
L 1259 2759 
L 3109 2759 
L 3109 2228 
L 1259 2228 
L 1259 0 
L 628 0 
L 628 4666 
z
" transform="scale(0.015625)"/>
       <path id="DejaVuSans-73" d="M 2834 3397 
L 2834 2853 
Q 2591 2978 2328 3040 
Q 2066 3103 1784 3103 
Q 1356 3103 1142 2972 
Q 928 2841 928 2578 
Q 928 2378 1081 2264 
Q 1234 2150 1697 2047 
L 1894 2003 
Q 2506 1872 2764 1633 
Q 3022 1394 3022 966 
Q 3022 478 2636 193 
Q 2250 -91 1575 -91 
Q 1294 -91 989 -36 
Q 684 19 347 128 
L 347 722 
Q 666 556 975 473 
Q 1284 391 1588 391 
Q 1994 391 2212 530 
Q 2431 669 2431 922 
Q 2431 1156 2273 1281 
Q 2116 1406 1581 1522 
L 1381 1569 
Q 847 1681 609 1914 
Q 372 2147 372 2553 
Q 372 3047 722 3315 
Q 1072 3584 1716 3584 
Q 2034 3584 2315 3537 
Q 2597 3491 2834 3397 
z
" transform="scale(0.015625)"/>
       <path id="DejaVuSans-43" d="M 4122 4306 
L 4122 3641 
Q 3803 3938 3442 4084 
Q 3081 4231 2675 4231 
Q 1875 4231 1450 3742 
Q 1025 3253 1025 2328 
Q 1025 1406 1450 917 
Q 1875 428 2675 428 
Q 3081 428 3442 575 
Q 3803 722 4122 1019 
L 4122 359 
Q 3791 134 3420 21 
Q 3050 -91 2638 -91 
Q 1578 -91 968 557 
Q 359 1206 359 2328 
Q 359 3453 968 4101 
Q 1578 4750 2638 4750 
Q 3056 4750 3426 4639 
Q 3797 4528 4122 4306 
z
" transform="scale(0.015625)"/>
      </defs>
      <use xlink:href="#DejaVuSans-46"/>
      <use xlink:href="#DejaVuSans-72" x="50.269531"/>
      <use xlink:href="#DejaVuSans-61" x="91.382812"/>
      <use xlink:href="#DejaVuSans-6e" x="152.662109"/>
      <use xlink:href="#DejaVuSans-63" x="216.041016"/>
      <use xlink:href="#DejaVuSans-69" x="271.021484"/>
      <use xlink:href="#DejaVuSans-73" x="298.804688"/>
      <use xlink:href="#DejaVuSans-20" x="350.904297"/>
      <use xlink:href="#DejaVuSans-46" x="382.691406"/>
      <use xlink:href="#DejaVuSans-6f" x="436.585938"/>
      <use xlink:href="#DejaVuSans-72" x="497.767578"/>
      <use xlink:href="#DejaVuSans-64" x="537.130859"/>
      <use xlink:href="#DejaVuSans-20" x="600.607422"/>
      <use xlink:href="#DejaVuSans-43" x="632.394531"/>
      <use xlink:href="#DejaVuSans-6f" x="702.21875"/>
      <use xlink:href="#DejaVuSans-70" x="763.400391"/>
      <use xlink:href="#DejaVuSans-70" x="826.876953"/>
      <use xlink:href="#DejaVuSans-6f" x="890.353516"/>
      <use xlink:href="#DejaVuSans-6c" x="951.535156"/>
      <use xlink:href="#DejaVuSans-61" x="979.318359"/>
     </g>
    </g>
   </g>
   <g id="text_6">
    <g id="patch_7">
     <path d="M 146.049657 110.54602 
L 209.652939 110.54602 
L 209.652939 93.915707 
L 146.049657 93.915707 
z
" clip-path="url(#p31aff7325b)" style="fill: #ffffff; opacity: 0.7; stroke: #000000; stroke-linejoin: miter"/>
    </g>
    <g clip-path="url(#p31aff7325b)">
     <!-- Woody Allen -->
     <g transform="translate(150.009657 104.714301)scale(0.09 -0.09)">
      <defs>
       <path id="DejaVuSans-57" d="M 213 4666 
L 850 4666 
L 1831 722 
L 2809 4666 
L 3519 4666 
L 4500 722 
L 5478 4666 
L 6119 4666 
L 4947 0 
L 4153 0 
L 3169 4050 
L 2175 0 
L 1381 0 
L 213 4666 
z
" transform="scale(0.015625)"/>
       <path id="DejaVuSans-41" d="M 2188 4044 
L 1331 1722 
L 3047 1722 
L 2188 4044 
z
M 1831 4666 
L 2547 4666 
L 4325 0 
L 3669 0 
L 3244 1197 
L 1141 1197 
L 716 0 
L 50 0 
L 1831 4666 
z
" transform="scale(0.015625)"/>
      </defs>
      <use xlink:href="#DejaVuSans-57"/>
      <use xlink:href="#DejaVuSans-6f" x="93.001953"/>
      <use xlink:href="#DejaVuSans-6f" x="154.183594"/>
      <use xlink:href="#DejaVuSans-64" x="215.365234"/>
      <use xlink:href="#DejaVuSans-79" x="278.841797"/>
      <use xlink:href="#DejaVuSans-20" x="338.021484"/>
      <use xlink:href="#DejaVuSans-41" x="369.808594"/>
      <use xlink:href="#DejaVuSans-6c" x="438.216797"/>
      <use xlink:href="#DejaVuSans-6c" x="466"/>
      <use xlink:href="#DejaVuSans-65" x="493.783203"/>
      <use xlink:href="#DejaVuSans-6e" x="555.306641"/>
     </g>
    </g>
   </g>
   <g id="text_7">
    <g id="patch_8">
     <path d="M 71.853665 170.010106 
L 150.60929 170.010106 
L 150.60929 153.379793 
L 71.853665 153.379793 
z
" clip-path="url(#p31aff7325b)" style="fill: #ffffff; opacity: 0.7; stroke: #000000; stroke-linejoin: miter"/>
    </g>
    <g clip-path="url(#p31aff7325b)">
     <!-- James Cameron -->
     <g transform="translate(75.813665 164.178387)scale(0.09 -0.09)">
      <defs>
       <path id="DejaVuSans-4a" d="M 628 4666 
L 1259 4666 
L 1259 325 
Q 1259 -519 939 -900 
Q 619 -1281 -91 -1281 
L -331 -1281 
L -331 -750 
L -134 -750 
Q 284 -750 456 -515 
Q 628 -281 628 325 
L 628 4666 
z
" transform="scale(0.015625)"/>
      </defs>
      <use xlink:href="#DejaVuSans-4a"/>
      <use xlink:href="#DejaVuSans-61" x="29.492188"/>
      <use xlink:href="#DejaVuSans-6d" x="90.771484"/>
      <use xlink:href="#DejaVuSans-65" x="188.183594"/>
      <use xlink:href="#DejaVuSans-73" x="249.707031"/>
      <use xlink:href="#DejaVuSans-20" x="301.806641"/>
      <use xlink:href="#DejaVuSans-43" x="333.59375"/>
      <use xlink:href="#DejaVuSans-61" x="403.417969"/>
      <use xlink:href="#DejaVuSans-6d" x="464.697266"/>
      <use xlink:href="#DejaVuSans-65" x="562.109375"/>
      <use xlink:href="#DejaVuSans-72" x="623.632812"/>
      <use xlink:href="#DejaVuSans-6f" x="662.496094"/>
      <use xlink:href="#DejaVuSans-6e" x="723.677734"/>
     </g>
    </g>
   </g>
   <g id="text_8">
    <g id="patch_9">
     <path d="M 43.058996 251.194791 
L 106.479465 251.194791 
L 106.479465 234.564478 
L 43.058996 234.564478 
z
" clip-path="url(#p31aff7325b)" style="fill: #ffffff; opacity: 0.7; stroke: #000000; stroke-linejoin: miter"/>
    </g>
    <g clip-path="url(#p31aff7325b)">
     <!-- Oliver Stone -->
     <g transform="translate(47.018996 245.363072)scale(0.09 -0.09)">
      <defs>
       <path id="DejaVuSans-4f" d="M 2522 4238 
Q 1834 4238 1429 3725 
Q 1025 3213 1025 2328 
Q 1025 1447 1429 934 
Q 1834 422 2522 422 
Q 3209 422 3611 934 
Q 4013 1447 4013 2328 
Q 4013 3213 3611 3725 
Q 3209 4238 2522 4238 
z
M 2522 4750 
Q 3503 4750 4090 4092 
Q 4678 3434 4678 2328 
Q 4678 1225 4090 567 
Q 3503 -91 2522 -91 
Q 1538 -91 948 565 
Q 359 1222 359 2328 
Q 359 3434 948 4092 
Q 1538 4750 2522 4750 
z
" transform="scale(0.015625)"/>
      </defs>
      <use xlink:href="#DejaVuSans-4f"/>
      <use xlink:href="#DejaVuSans-6c" x="78.710938"/>
      <use xlink:href="#DejaVuSans-69" x="106.494141"/>
      <use xlink:href="#DejaVuSans-76" x="134.277344"/>
      <use xlink:href="#DejaVuSans-65" x="193.457031"/>
      <use xlink:href="#DejaVuSans-72" x="254.980469"/>
      <use xlink:href="#DejaVuSans-20" x="296.09375"/>
      <use xlink:href="#DejaVuSans-53" x="327.880859"/>
      <use xlink:href="#DejaVuSans-74" x="391.357422"/>
      <use xlink:href="#DejaVuSans-6f" x="430.566406"/>
      <use xlink:href="#DejaVuSans-6e" x="491.748047"/>
      <use xlink:href="#DejaVuSans-65" x="555.126953"/>
     </g>
    </g>
   </g>
   <g id="text_9">
    <g id="patch_10">
     <path d="M 43.634869 340.062479 
L 105.903619 340.062479 
L 105.903619 323.432167 
L 43.634869 323.432167 
z
" clip-path="url(#p31aff7325b)" style="fill: #ffffff; opacity: 0.7; stroke: #000000; stroke-linejoin: miter"/>
    </g>
    <g clip-path="url(#p31aff7325b)">
     <!-- Michael Bay -->
     <g transform="translate(47.594869 334.23076)scale(0.09 -0.09)">
      <defs>
       <path id="DejaVuSans-4d" d="M 628 4666 
L 1569 4666 
L 2759 1491 
L 3956 4666 
L 4897 4666 
L 4897 0 
L 4281 0 
L 4281 4097 
L 3078 897 
L 2444 897 
L 1241 4097 
L 1241 0 
L 628 0 
L 628 4666 
z
" transform="scale(0.015625)"/>
       <path id="DejaVuSans-68" d="M 3513 2113 
L 3513 0 
L 2938 0 
L 2938 2094 
Q 2938 2591 2744 2837 
Q 2550 3084 2163 3084 
Q 1697 3084 1428 2787 
Q 1159 2491 1159 1978 
L 1159 0 
L 581 0 
L 581 4863 
L 1159 4863 
L 1159 2956 
Q 1366 3272 1645 3428 
Q 1925 3584 2291 3584 
Q 2894 3584 3203 3211 
Q 3513 2838 3513 2113 
z
" transform="scale(0.015625)"/>
      </defs>
      <use xlink:href="#DejaVuSans-4d"/>
      <use xlink:href="#DejaVuSans-69" x="86.279297"/>
      <use xlink:href="#DejaVuSans-63" x="114.0625"/>
      <use xlink:href="#DejaVuSans-68" x="169.042969"/>
      <use xlink:href="#DejaVuSans-61" x="232.421875"/>
      <use xlink:href="#DejaVuSans-65" x="293.701172"/>
      <use xlink:href="#DejaVuSans-6c" x="355.224609"/>
      <use xlink:href="#DejaVuSans-20" x="383.007812"/>
      <use xlink:href="#DejaVuSans-42" x="414.794922"/>
      <use xlink:href="#DejaVuSans-61" x="483.398438"/>
      <use xlink:href="#DejaVuSans-79" x="544.677734"/>
     </g>
    </g>
   </g>
   <g id="text_10">
    <g id="patch_11">
     <path d="M 77.502584 421.247139 
L 144.960396 421.247139 
L 144.960396 404.616826 
L 77.502584 404.616826 
z
" clip-path="url(#p31aff7325b)" style="fill: #ffffff; opacity: 0.7; stroke: #000000; stroke-linejoin: miter"/>
    </g>
    <g clip-path="url(#p31aff7325b)">
     <!-- Tom Shadyac -->
     <g transform="translate(81.462584 415.41542)scale(0.09 -0.09)">
      <use xlink:href="#DejaVuSans-54"/>
      <use xlink:href="#DejaVuSans-6f" x="44.083984"/>
      <use xlink:href="#DejaVuSans-6d" x="105.265625"/>
      <use xlink:href="#DejaVuSans-20" x="202.677734"/>
      <use xlink:href="#DejaVuSans-53" x="234.464844"/>
      <use xlink:href="#DejaVuSans-68" x="297.941406"/>
      <use xlink:href="#DejaVuSans-61" x="361.320312"/>
      <use xlink:href="#DejaVuSans-64" x="422.599609"/>
      <use xlink:href="#DejaVuSans-79" x="486.076172"/>
      <use xlink:href="#DejaVuSans-61" x="545.255859"/>
      <use xlink:href="#DejaVuSans-63" x="606.535156"/>
     </g>
    </g>
   </g>
   <g id="text_11">
    <g id="patch_12">
     <path d="M 152.84469 480.711225 
L 202.857971 480.711225 
L 202.857971 464.080912 
L 152.84469 464.080912 
z
" clip-path="url(#p31aff7325b)" style="fill: #ffffff; opacity: 0.7; stroke: #000000; stroke-linejoin: miter"/>
    </g>
    <g clip-path="url(#p31aff7325b)">
     <!-- Joel Coen -->
     <g transform="translate(156.80469 474.879506)scale(0.09 -0.09)">
      <use xlink:href="#DejaVuSans-4a"/>
      <use xlink:href="#DejaVuSans-6f" x="29.492188"/>
      <use xlink:href="#DejaVuSans-65" x="90.673828"/>
      <use xlink:href="#DejaVuSans-6c" x="152.197266"/>
      <use xlink:href="#DejaVuSans-20" x="179.980469"/>
      <use xlink:href="#DejaVuSans-43" x="211.767578"/>
      <use xlink:href="#DejaVuSans-6f" x="281.591797"/>
      <use xlink:href="#DejaVuSans-65" x="342.773438"/>
      <use xlink:href="#DejaVuSans-6e" x="404.296875"/>
     </g>
    </g>
   </g>
   <g id="text_12">
    <g id="patch_13">
     <path d="M 233.133962 508.172844 
L 293.085212 508.172844 
L 293.085212 491.542532 
L 233.133962 491.542532 
z
" clip-path="url(#p31aff7325b)" style="fill: #ffffff; opacity: 0.7; stroke: #000000; stroke-linejoin: miter"/>
    </g>
    <g clip-path="url(#p31aff7325b)">
     <!-- Ethan Coen -->
     <g transform="translate(237.093962 502.341126)scale(0.09 -0.09)">
      <defs>
       <path id="DejaVuSans-45" d="M 628 4666 
L 3578 4666 
L 3578 4134 
L 1259 4134 
L 1259 2753 
L 3481 2753 
L 3481 2222 
L 1259 2222 
L 1259 531 
L 3634 531 
L 3634 0 
L 628 0 
L 628 4666 
z
" transform="scale(0.015625)"/>
      </defs>
      <use xlink:href="#DejaVuSans-45"/>
      <use xlink:href="#DejaVuSans-74" x="63.183594"/>
      <use xlink:href="#DejaVuSans-68" x="102.392578"/>
      <use xlink:href="#DejaVuSans-61" x="165.771484"/>
      <use xlink:href="#DejaVuSans-6e" x="227.050781"/>
      <use xlink:href="#DejaVuSans-20" x="290.429688"/>
      <use xlink:href="#DejaVuSans-43" x="322.216797"/>
      <use xlink:href="#DejaVuSans-6f" x="392.041016"/>
      <use xlink:href="#DejaVuSans-65" x="453.222656"/>
      <use xlink:href="#DejaVuSans-6e" x="514.746094"/>
     </g>
    </g>
   </g>
   <g id="text_13">
    <g id="patch_14">
     <path d="M 310.27862 498.88363 
L 394.250026 498.88363 
L 394.250026 482.253317 
L 310.27862 482.253317 
z
" clip-path="url(#p31aff7325b)" style="fill: #ffffff; opacity: 0.7; stroke: #000000; stroke-linejoin: miter"/>
    </g>
    <g clip-path="url(#p31aff7325b)">
     <!-- Robert Zemeckis -->
     <g transform="translate(314.23862 493.051911)scale(0.09 -0.09)">
      <defs>
       <path id="DejaVuSans-5a" d="M 359 4666 
L 4025 4666 
L 4025 4184 
L 1075 531 
L 4097 531 
L 4097 0 
L 288 0 
L 288 481 
L 3238 4134 
L 359 4134 
L 359 4666 
z
" transform="scale(0.015625)"/>
       <path id="DejaVuSans-6b" d="M 581 4863 
L 1159 4863 
L 1159 1991 
L 2875 3500 
L 3609 3500 
L 1753 1863 
L 3688 0 
L 2938 0 
L 1159 1709 
L 1159 0 
L 581 0 
L 581 4863 
z
" transform="scale(0.015625)"/>
      </defs>
      <use xlink:href="#DejaVuSans-52"/>
      <use xlink:href="#DejaVuSans-6f" x="64.982422"/>
      <use xlink:href="#DejaVuSans-62" x="126.164062"/>
      <use xlink:href="#DejaVuSans-65" x="189.640625"/>
      <use xlink:href="#DejaVuSans-72" x="251.164062"/>
      <use xlink:href="#DejaVuSans-74" x="292.277344"/>
      <use xlink:href="#DejaVuSans-20" x="331.486328"/>
      <use xlink:href="#DejaVuSans-5a" x="363.273438"/>
      <use xlink:href="#DejaVuSans-65" x="431.779297"/>
      <use xlink:href="#DejaVuSans-6d" x="493.302734"/>
      <use xlink:href="#DejaVuSans-65" x="590.714844"/>
      <use xlink:href="#DejaVuSans-63" x="652.238281"/>
      <use xlink:href="#DejaVuSans-6b" x="707.21875"/>
      <use xlink:href="#DejaVuSans-69" x="765.128906"/>
      <use xlink:href="#DejaVuSans-73" x="792.912109"/>
     </g>
    </g>
   </g>
   <g id="text_14">
    <g id="patch_15">
     <path d="M 386.985357 454.449767 
L 472.81442 454.449767 
L 472.81442 437.819454 
L 386.985357 437.819454 
z
" clip-path="url(#p31aff7325b)" style="fill: #ffffff; opacity: 0.7; stroke: #000000; stroke-linejoin: miter"/>
    </g>
    <g clip-path="url(#p31aff7325b)">
     <!-- Barry Sonnenfeld -->
     <g transform="translate(390.945357 448.618048)scale(0.09 -0.09)">
      <defs>
       <path id="DejaVuSans-66" d="M 2375 4863 
L 2375 4384 
L 1825 4384 
Q 1516 4384 1395 4259 
Q 1275 4134 1275 3809 
L 1275 3500 
L 2222 3500 
L 2222 3053 
L 1275 3053 
L 1275 0 
L 697 0 
L 697 3053 
L 147 3053 
L 147 3500 
L 697 3500 
L 697 3744 
Q 697 4328 969 4595 
Q 1241 4863 1831 4863 
L 2375 4863 
z
" transform="scale(0.015625)"/>
      </defs>
      <use xlink:href="#DejaVuSans-42"/>
      <use xlink:href="#DejaVuSans-61" x="68.603516"/>
      <use xlink:href="#DejaVuSans-72" x="129.882812"/>
      <use xlink:href="#DejaVuSans-72" x="169.246094"/>
      <use xlink:href="#DejaVuSans-79" x="210.359375"/>
      <use xlink:href="#DejaVuSans-20" x="269.539062"/>
      <use xlink:href="#DejaVuSans-53" x="301.326172"/>
      <use xlink:href="#DejaVuSans-6f" x="364.802734"/>
      <use xlink:href="#DejaVuSans-6e" x="425.984375"/>
      <use xlink:href="#DejaVuSans-6e" x="489.363281"/>
      <use xlink:href="#DejaVuSans-65" x="552.742188"/>
      <use xlink:href="#DejaVuSans-6e" x="614.265625"/>
      <use xlink:href="#DejaVuSans-66" x="677.644531"/>
      <use xlink:href="#DejaVuSans-65" x="712.849609"/>
      <use xlink:href="#DejaVuSans-6c" x="774.373047"/>
      <use xlink:href="#DejaVuSans-64" x="802.15625"/>
     </g>
    </g>
   </g>
   <g id="text_15">
    <g id="patch_16">
     <path d="M 449.79792 382.554296 
L 515.386827 382.554296 
L 515.386827 365.923984 
L 449.79792 365.923984 
z
" clip-path="url(#p31aff7325b)" style="fill: #ffffff; opacity: 0.7; stroke: #000000; stroke-linejoin: miter"/>
    </g>
    <g clip-path="url(#p31aff7325b)">
     <!-- Renny Harlin -->
     <g transform="translate(453.75792 376.722577)scale(0.09 -0.09)">
      <use xlink:href="#DejaVuSans-52"/>
      <use xlink:href="#DejaVuSans-65" x="64.982422"/>
      <use xlink:href="#DejaVuSans-6e" x="126.505859"/>
      <use xlink:href="#DejaVuSans-6e" x="189.884766"/>
      <use xlink:href="#DejaVuSans-79" x="253.263672"/>
      <use xlink:href="#DejaVuSans-20" x="312.443359"/>
      <use xlink:href="#DejaVuSans-48" x="344.230469"/>
      <use xlink:href="#DejaVuSans-61" x="419.425781"/>
      <use xlink:href="#DejaVuSans-72" x="480.705078"/>
      <use xlink:href="#DejaVuSans-6c" x="521.818359"/>
      <use xlink:href="#DejaVuSans-69" x="549.601562"/>
      <use xlink:href="#DejaVuSans-6e" x="577.384766"/>
     </g>
    </g>
   </g>
   <g id="text_16">
    <!-- Impactful directors for Action genre -->
    <g transform="translate(181.257187 4.8)scale(0.12 -0.12)">
     <defs>
      <path id="DejaVuSans-49" d="M 628 4666 
L 1259 4666 
L 1259 0 
L 628 0 
L 628 4666 
z
" transform="scale(0.015625)"/>
     </defs>
     <use xlink:href="#DejaVuSans-49"/>
     <use xlink:href="#DejaVuSans-6d" x="29.492188"/>
     <use xlink:href="#DejaVuSans-70" x="126.904297"/>
     <use xlink:href="#DejaVuSans-61" x="190.380859"/>
     <use xlink:href="#DejaVuSans-63" x="251.660156"/>
     <use xlink:href="#DejaVuSans-74" x="306.640625"/>
     <use xlink:href="#DejaVuSans-66" x="345.849609"/>
     <use xlink:href="#DejaVuSans-75" x="381.054688"/>
     <use xlink:href="#DejaVuSans-6c" x="444.433594"/>
     <use xlink:href="#DejaVuSans-20" x="472.216797"/>
     <use xlink:href="#DejaVuSans-64" x="504.003906"/>
     <use xlink:href="#DejaVuSans-69" x="567.480469"/>
     <use xlink:href="#DejaVuSans-72" x="595.263672"/>
     <use xlink:href="#DejaVuSans-65" x="634.126953"/>
     <use xlink:href="#DejaVuSans-63" x="695.650391"/>
     <use xlink:href="#DejaVuSans-74" x="750.630859"/>
     <use xlink:href="#DejaVuSans-6f" x="789.839844"/>
     <use xlink:href="#DejaVuSans-72" x="851.021484"/>
     <use xlink:href="#DejaVuSans-73" x="892.134766"/>
     <use xlink:href="#DejaVuSans-20" x="944.234375"/>
     <use xlink:href="#DejaVuSans-66" x="976.021484"/>
     <use xlink:href="#DejaVuSans-6f" x="1011.226562"/>
     <use xlink:href="#DejaVuSans-72" x="1072.408203"/>
     <use xlink:href="#DejaVuSans-20" x="1113.521484"/>
     <use xlink:href="#DejaVuSans-41" x="1145.308594"/>
     <use xlink:href="#DejaVuSans-63" x="1211.966797"/>
     <use xlink:href="#DejaVuSans-74" x="1266.947266"/>
     <use xlink:href="#DejaVuSans-69" x="1306.15625"/>
     <use xlink:href="#DejaVuSans-6f" x="1333.939453"/>
     <use xlink:href="#DejaVuSans-6e" x="1395.121094"/>
     <use xlink:href="#DejaVuSans-20" x="1458.5"/>
     <use xlink:href="#DejaVuSans-67" x="1490.287109"/>
     <use xlink:href="#DejaVuSans-65" x="1553.763672"/>
     <use xlink:href="#DejaVuSans-6e" x="1615.287109"/>
     <use xlink:href="#DejaVuSans-72" x="1678.666016"/>
     <use xlink:href="#DejaVuSans-65" x="1717.529297"/>
    </g>
   </g>
  </g>
 </g>
 <defs>
  <clipPath id="p31aff7325b">
   <rect x="10.8" y="10.8" width="554.4" height="554.4"/>
  </clipPath>
 </defs>
</svg>
