<?xml version="1.0" encoding="utf-8" standalone="no"?>
<!DOCTYPE svg PUBLIC "-//W3C//DTD SVG 1.1//EN"
  "http://www.w3.org/Graphics/SVG/1.1/DTD/svg11.dtd">
<svg xmlns:xlink="http://www.w3.org/1999/xlink" width="576pt" height="576pt" viewBox="0 0 576 576" xmlns="http://www.w3.org/2000/svg" version="1.1">
 <metadata>
  <rdf:RDF xmlns:dc="http://purl.org/dc/elements/1.1/" xmlns:cc="http://creativecommons.org/ns#" xmlns:rdf="http://www.w3.org/1999/02/22-rdf-syntax-ns#">
   <cc:Work>
    <dc:type rdf:resource="http://purl.org/dc/dcmitype/StillImage"/>
    <dc:date>2022-12-23T19:50:02.272331</dc:date>
    <dc:format>image/svg+xml</dc:format>
    <dc:creator>
     <cc:Agent>
      <dc:title>Matplotlib v3.5.3, https://matplotlib.org/</dc:title>
     </cc:Agent>
    </dc:creator>
   </cc:Work>
  </rdf:RDF>
 </metadata>
 <defs>
  <style type="text/css">*{stroke-linejoin: round; stroke-linecap: butt}</style>
 </defs>
 <g id="figure_1">
  <g id="patch_1">
   <path d="M 0 576 
L 576 576 
L 576 0 
L 0 0 
z
" style="fill: #ffffff"/>
  </g>
  <g id="axes_1">
   <g id="LineCollection_1">
    <path d="M 493.9103 288.437287 
L 475.591819 201.409636 
" clip-path="url(#p561299879f)" style="fill: none; stroke: #000000; stroke-opacity: 0.3; stroke-width: 10"/>
    <path d="M 423.803819 129.429846 
L 347.500922 84.9439 
" clip-path="url(#p561299879f)" style="fill: none; stroke: #000000; stroke-opacity: 0.3; stroke-width: 5"/>
   </g>
   <g id="PathCollection_1">
    <path d="M 493.9103 315.823415 
C 501.173186 315.823415 508.139581 312.93784 513.275217 307.802204 
C 518.410853 302.666568 521.296428 295.700173 521.296428 288.437287 
C 521.296428 281.174401 518.410853 274.208006 513.275217 269.07237 
C 508.139581 263.936734 501.173186 261.051159 493.9103 261.051159 
C 486.647414 261.051159 479.68102 263.936734 474.545384 269.07237 
C 469.409748 274.208006 466.524172 281.174401 466.524172 288.437287 
C 466.524172 295.700173 469.409748 302.666568 474.545384 307.802204 
C 479.68102 312.93784 486.647414 315.823415 493.9103 315.823415 
z
" clip-path="url(#p561299879f)" style="fill: #c70039; fill-opacity: 0.99; stroke: #c70039; stroke-opacity: 0.99"/>
    <path d="M 475.591819 228.408972 
C 482.752126 228.408972 489.62013 225.564151 494.683232 220.501049 
C 499.746334 215.437947 502.591154 208.569943 502.591154 201.409636 
C 502.591154 194.249328 499.746334 187.381324 494.683232 182.318222 
C 489.62013 177.25512 482.752126 174.4103 475.591819 174.4103 
C 468.431511 174.4103 461.563507 177.25512 456.500405 182.318222 
C 451.437303 187.381324 448.592483 194.249328 448.592483 201.409636 
C 448.592483 208.569943 451.437303 215.437947 456.500405 220.501049 
C 461.563507 225.564151 468.431511 228.408972 475.591819 228.408972 
z
" clip-path="url(#p561299879f)" style="fill: #c70039; fill-opacity: 0.99; stroke: #c70039; stroke-opacity: 0.99"/>
    <path d="M 423.803819 154.11266 
C 430.349778 154.11266 436.628512 151.511923 441.257204 146.883231 
C 445.885896 142.254539 448.486632 135.975805 448.486632 129.429846 
C 448.486632 122.883888 445.885896 116.605153 441.257204 111.976461 
C 436.628512 107.34777 430.349778 104.747033 423.803819 104.747033 
C 417.25786 104.747033 410.979126 107.34777 406.350434 111.976461 
C 401.721743 116.605153 399.121006 122.883888 399.121006 129.429846 
C 399.121006 135.975805 401.721743 142.254539 406.350434 146.883231 
C 410.979126 151.511923 417.25786 154.11266 423.803819 154.11266 
z
" clip-path="url(#p561299879f)" style="fill: #c70039; fill-opacity: 0.99; stroke: #c70039; stroke-opacity: 0.99"/>
    <path d="M 347.500922 109.283497 
C 353.955858 109.283497 360.147286 106.718923 364.711615 102.154594 
C 369.275945 97.590265 371.840518 91.398837 371.840518 84.9439 
C 371.840518 78.488964 369.275945 72.297536 364.711615 67.733206 
C 360.147286 63.168877 353.955858 60.604303 347.500922 60.604303 
C 341.045985 60.604303 334.854557 63.168877 330.290228 67.733206 
C 325.725898 72.297536 323.161325 78.488964 323.161325 84.9439 
C 323.161325 91.398837 325.725898 97.590265 330.290228 102.154594 
C 334.854557 106.718923 341.045985 109.283497 347.500922 109.283497 
z
" clip-path="url(#p561299879f)" style="fill: #c70039; fill-opacity: 0.99; stroke: #c70039; stroke-opacity: 0.99"/>
    <path d="M 259.876574 98.911696 
C 266.047291 98.911696 271.966102 96.460044 276.329457 92.096688 
C 280.692813 87.733332 283.144465 81.814522 283.144465 75.643805 
C 283.144465 69.473088 280.692813 63.554277 276.329457 59.190921 
C 271.966102 54.827566 266.047291 52.375914 259.876574 52.375914 
C 253.705857 52.375914 247.787046 54.827566 243.42369 59.190921 
C 239.060335 63.554277 236.608683 69.473088 236.608683 75.643805 
C 236.608683 81.814522 239.060335 87.733332 243.42369 92.096688 
C 247.787046 96.460044 253.705857 98.911696 259.876574 98.911696 
z
" clip-path="url(#p561299879f)" style="fill: #c70039; fill-opacity: 0.99; stroke: #c70039; stroke-opacity: 0.99"/>
    <path d="M 176.081832 125.99382 
C 182.143362 125.99382 187.957442 123.585549 192.243591 119.2994 
C 196.529739 115.013252 198.93801 109.199171 198.93801 103.137642 
C 198.93801 97.076113 196.529739 91.262032 192.243591 86.975883 
C 187.957442 82.689735 182.143362 80.281464 176.081832 80.281464 
C 170.020303 80.281464 164.206222 82.689735 159.920074 86.975883 
C 155.633925 91.262032 153.225654 97.076113 153.225654 103.137642 
C 153.225654 109.199171 155.633925 115.013252 159.920074 119.2994 
C 164.206222 123.585549 170.020303 125.99382 176.081832 125.99382 
z
" clip-path="url(#p561299879f)" style="fill: #c70039; fill-opacity: 0.99; stroke: #c70039; stroke-opacity: 0.99"/>
    <path d="M 110.605581 184.660935 
C 116.437257 184.660935 122.030868 182.343985 126.154486 178.220367 
C 130.278104 174.09675 132.595053 168.503139 132.595053 162.671462 
C 132.595053 156.839786 130.278104 151.246175 126.154486 147.122557 
C 122.030868 142.998939 116.437257 140.68199 110.605581 140.68199 
C 104.773904 140.68199 99.180293 142.998939 95.056675 147.122557 
C 90.933058 151.246175 88.616108 156.839786 88.616108 162.671462 
C 88.616108 168.503139 90.933058 174.09675 95.056675 178.220367 
C 99.180293 182.343985 104.773904 184.660935 110.605581 184.660935 
z
" clip-path="url(#p561299879f)" style="fill: #c70039; fill-opacity: 0.99; stroke: #c70039; stroke-opacity: 0.99"/>
    <path d="M 74.769231 265.544108 
C 80.495696 265.544108 85.988391 263.268959 90.037614 259.219737 
C 94.086836 255.170514 96.361985 249.677819 96.361985 243.951354 
C 96.361985 238.224888 94.086836 232.732193 90.037614 228.682971 
C 85.988391 224.633748 80.495696 222.3586 74.769231 222.3586 
C 69.042765 222.3586 63.55007 224.633748 59.500848 228.682971 
C 55.451625 232.732193 53.176477 238.224888 53.176477 243.951354 
C 53.176477 249.677819 55.451625 255.170514 59.500848 259.219737 
C 63.55007 263.268959 69.042765 265.544108 74.769231 265.544108 
z
" clip-path="url(#p561299879f)" style="fill: #c70039; fill-opacity: 0.99; stroke: #c70039; stroke-opacity: 0.99"/>
    <path d="M 74.769243 353.850004 
C 80.319081 353.850004 85.642359 351.64503 89.566687 347.720702 
C 93.491015 343.796374 95.695989 338.473096 95.695989 332.923259 
C 95.695989 327.373421 93.491015 322.050143 89.566687 318.125815 
C 85.642359 314.201487 80.319081 311.996513 74.769243 311.996513 
C 69.219406 311.996513 63.896128 314.201487 59.9718 318.125815 
C 56.047472 322.050143 53.842498 327.373421 53.842498 332.923259 
C 53.842498 338.473096 56.047472 343.796374 59.9718 347.720702 
C 63.896128 351.64503 69.219406 353.850004 74.769243 353.850004 
z
" clip-path="url(#p561299879f)" style="fill: #c70039; fill-opacity: 0.99; stroke: #c70039; stroke-opacity: 0.99"/>
    <path d="M 110.605593 434.768703 
C 116.059648 434.768703 121.291054 432.601784 125.147653 428.745184 
C 129.004252 424.888585 131.171171 419.657179 131.171171 414.203124 
C 131.171171 408.749069 129.004252 403.517664 125.147653 399.661065 
C 121.291054 395.804465 116.059648 393.637546 110.605593 393.637546 
C 105.151538 393.637546 99.920133 395.804465 96.063533 399.661065 
C 92.206934 403.517664 90.040015 408.749069 90.040015 414.203124 
C 90.040015 419.657179 92.206934 424.888585 96.063533 428.745184 
C 99.920133 432.601784 105.151538 434.768703 110.605593 434.768703 
z
" clip-path="url(#p561299879f)" style="fill: #c70039; fill-opacity: 0.99; stroke: #c70039; stroke-opacity: 0.99"/>
    <path d="M 176.081864 494.12561 
C 181.489001 494.12561 186.675404 491.977331 190.498827 488.153908 
C 194.322251 484.330485 196.470529 479.144082 196.470529 473.736945 
C 196.470529 468.329808 194.322251 463.143405 190.498827 459.319982 
C 186.675404 455.496558 181.489001 453.34828 176.081864 453.34828 
C 170.674727 453.34828 165.488324 455.496558 161.664901 459.319982 
C 157.841477 463.143405 155.693199 468.329808 155.693199 473.736945 
C 155.693199 479.144082 157.841477 484.330485 161.664901 488.153908 
C 165.488324 491.977331 170.674727 494.12561 176.081864 494.12561 
z
" clip-path="url(#p561299879f)" style="fill: #c70039; fill-opacity: 0.99; stroke: #c70039; stroke-opacity: 0.99"/>
    <path d="M 259.876612 521.208481 
C 265.174763 521.208481 270.256629 519.103504 274.002987 515.357145 
C 277.749346 511.610786 279.854324 506.52892 279.854324 501.230769 
C 279.854324 495.932618 277.749346 490.850752 274.002987 487.104393 
C 270.256629 483.358035 265.174763 481.253057 259.876612 481.253057 
C 254.57846 481.253057 249.496594 483.358035 245.750236 487.104393 
C 242.003877 490.850752 239.898899 495.932618 239.898899 501.230769 
C 239.898899 506.52892 242.003877 511.610786 245.750236 515.357145 
C 249.496594 519.103504 254.57846 521.208481 259.876612 521.208481 
z
" clip-path="url(#p561299879f)" style="fill: #c70039; fill-opacity: 0.99; stroke: #c70039; stroke-opacity: 0.99"/>
    <path d="M 347.500953 511.800699 
C 352.770549 511.800699 357.825025 509.707067 361.551192 505.9809 
C 365.277359 502.254733 367.370991 497.200257 367.370991 491.930661 
C 367.370991 486.661065 365.277359 481.606589 361.551192 477.880422 
C 357.825025 474.154255 352.770549 472.060623 347.500953 472.060623 
C 342.231357 472.060623 337.176881 474.154255 333.450714 477.880422 
C 329.724547 481.606589 327.630915 486.661065 327.630915 491.930661 
C 327.630915 497.200257 329.724547 502.254733 333.450714 505.9809 
C 337.176881 509.707067 342.231357 511.800699 347.500953 511.800699 
z
" clip-path="url(#p561299879f)" style="fill: #c70039; fill-opacity: 0.99; stroke: #c70039; stroke-opacity: 0.99"/>
    <path d="M 423.803857 467.092219 
C 429.014443 467.092219 434.012318 465.022031 437.696758 461.337591 
C 441.381199 457.65315 443.451386 452.655275 443.451386 447.44469 
C 443.451386 442.234104 441.381199 437.236229 437.696758 433.551788 
C 434.012318 429.867348 429.014443 427.79716 423.803857 427.79716 
C 418.593271 427.79716 413.595396 429.867348 409.910956 433.551788 
C 406.226515 437.236229 404.156328 442.234104 404.156328 447.44469 
C 404.156328 452.655275 406.226515 457.65315 409.910956 461.337591 
C 413.595396 465.022031 418.593271 467.092219 423.803857 467.092219 
z
" clip-path="url(#p561299879f)" style="fill: #c70039; fill-opacity: 0.99; stroke: #c70039; stroke-opacity: 0.99"/>
    <path d="M 475.591844 394.829823 
C 480.72748 394.829823 485.653465 392.789413 489.284908 389.15797 
C 492.916351 385.526527 494.956761 380.600542 494.956761 375.464906 
C 494.956761 370.32927 492.916351 365.403285 489.284908 361.771842 
C 485.653465 358.140399 480.72748 356.09999 475.591844 356.09999 
C 470.456208 356.09999 465.530223 358.140399 461.89878 361.771842 
C 458.267337 365.403285 456.226927 370.32927 456.226927 375.464906 
C 456.226927 380.600542 458.267337 385.526527 461.89878 389.15797 
C 465.530223 392.789413 470.456208 394.829823 475.591844 394.829823 
z
" clip-path="url(#p561299879f)" style="fill: #c70039; fill-opacity: 0.99; stroke: #c70039; stroke-opacity: 0.99"/>
   </g>
   <g id="text_1">
    <g id="patch_2">
     <path d="M 457.427253 296.752443 
L 530.393347 296.752443 
L 530.393347 280.122131 
L 457.427253 280.122131 
z
" clip-path="url(#p561299879f)" style="fill: #ffffff; opacity: 0.7; stroke: #000000; stroke-linejoin: miter"/>
    </g>
    <g clip-path="url(#p561299879f)">
     <!-- William Hanna -->
     <g transform="translate(461.387253 290.920724)scale(0.09 -0.09)">
      <defs>
       <path id="DejaVuSans-57" d="M 213 4666 
L 850 4666 
L 1831 722 
L 2809 4666 
L 3519 4666 
L 4500 722 
L 5478 4666 
L 6119 4666 
L 4947 0 
L 4153 0 
L 3169 4050 
L 2175 0 
L 1381 0 
L 213 4666 
z
" transform="scale(0.015625)"/>
       <path id="DejaVuSans-69" d="M 603 3500 
L 1178 3500 
L 1178 0 
L 603 0 
L 603 3500 
z
M 603 4863 
L 1178 4863 
L 1178 4134 
L 603 4134 
L 603 4863 
z
" transform="scale(0.015625)"/>
       <path id="DejaVuSans-6c" d="M 603 4863 
L 1178 4863 
L 1178 0 
L 603 0 
L 603 4863 
z
" transform="scale(0.015625)"/>
       <path id="DejaVuSans-61" d="M 2194 1759 
Q 1497 1759 1228 1600 
Q 959 1441 959 1056 
Q 959 750 1161 570 
Q 1363 391 1709 391 
Q 2188 391 2477 730 
Q 2766 1069 2766 1631 
L 2766 1759 
L 2194 1759 
z
M 3341 1997 
L 3341 0 
L 2766 0 
L 2766 531 
Q 2569 213 2275 61 
Q 1981 -91 1556 -91 
Q 1019 -91 701 211 
Q 384 513 384 1019 
Q 384 1609 779 1909 
Q 1175 2209 1959 2209 
L 2766 2209 
L 2766 2266 
Q 2766 2663 2505 2880 
Q 2244 3097 1772 3097 
Q 1472 3097 1187 3025 
Q 903 2953 641 2809 
L 641 3341 
Q 956 3463 1253 3523 
Q 1550 3584 1831 3584 
Q 2591 3584 2966 3190 
Q 3341 2797 3341 1997 
z
" transform="scale(0.015625)"/>
       <path id="DejaVuSans-6d" d="M 3328 2828 
Q 3544 3216 3844 3400 
Q 4144 3584 4550 3584 
Q 5097 3584 5394 3201 
Q 5691 2819 5691 2113 
L 5691 0 
L 5113 0 
L 5113 2094 
Q 5113 2597 4934 2840 
Q 4756 3084 4391 3084 
Q 3944 3084 3684 2787 
Q 3425 2491 3425 1978 
L 3425 0 
L 2847 0 
L 2847 2094 
Q 2847 2600 2669 2842 
Q 2491 3084 2119 3084 
Q 1678 3084 1418 2786 
Q 1159 2488 1159 1978 
L 1159 0 
L 581 0 
L 581 3500 
L 1159 3500 
L 1159 2956 
Q 1356 3278 1631 3431 
Q 1906 3584 2284 3584 
Q 2666 3584 2933 3390 
Q 3200 3197 3328 2828 
z
" transform="scale(0.015625)"/>
       <path id="DejaVuSans-20" transform="scale(0.015625)"/>
       <path id="DejaVuSans-48" d="M 628 4666 
L 1259 4666 
L 1259 2753 
L 3553 2753 
L 3553 4666 
L 4184 4666 
L 4184 0 
L 3553 0 
L 3553 2222 
L 1259 2222 
L 1259 0 
L 628 0 
L 628 4666 
z
" transform="scale(0.015625)"/>
       <path id="DejaVuSans-6e" d="M 3513 2113 
L 3513 0 
L 2938 0 
L 2938 2094 
Q 2938 2591 2744 2837 
Q 2550 3084 2163 3084 
Q 1697 3084 1428 2787 
Q 1159 2491 1159 1978 
L 1159 0 
L 581 0 
L 581 3500 
L 1159 3500 
L 1159 2956 
Q 1366 3272 1645 3428 
Q 1925 3584 2291 3584 
Q 2894 3584 3203 3211 
Q 3513 2838 3513 2113 
z
" transform="scale(0.015625)"/>
      </defs>
      <use xlink:href="#DejaVuSans-57"/>
      <use xlink:href="#DejaVuSans-69" x="96.626953"/>
      <use xlink:href="#DejaVuSans-6c" x="124.410156"/>
      <use xlink:href="#DejaVuSans-6c" x="152.193359"/>
      <use xlink:href="#DejaVuSans-69" x="179.976562"/>
      <use xlink:href="#DejaVuSans-61" x="207.759766"/>
      <use xlink:href="#DejaVuSans-6d" x="269.039062"/>
      <use xlink:href="#DejaVuSans-20" x="366.451172"/>
      <use xlink:href="#DejaVuSans-48" x="398.238281"/>
      <use xlink:href="#DejaVuSans-61" x="473.433594"/>
      <use xlink:href="#DejaVuSans-6e" x="534.712891"/>
      <use xlink:href="#DejaVuSans-6e" x="598.091797"/>
      <use xlink:href="#DejaVuSans-61" x="661.470703"/>
     </g>
    </g>
   </g>
   <g id="text_2">
    <g id="patch_3">
     <path d="M 437.370647 209.724792 
L 513.81299 209.724792 
L 513.81299 193.094479 
L 437.370647 193.094479 
z
" clip-path="url(#p561299879f)" style="fill: #ffffff; opacity: 0.7; stroke: #000000; stroke-linejoin: miter"/>
    </g>
    <g clip-path="url(#p561299879f)">
     <!-- Joseph Barbera -->
     <g transform="translate(441.330647 203.893073)scale(0.09 -0.09)">
      <defs>
       <path id="DejaVuSans-4a" d="M 628 4666 
L 1259 4666 
L 1259 325 
Q 1259 -519 939 -900 
Q 619 -1281 -91 -1281 
L -331 -1281 
L -331 -750 
L -134 -750 
Q 284 -750 456 -515 
Q 628 -281 628 325 
L 628 4666 
z
" transform="scale(0.015625)"/>
       <path id="DejaVuSans-6f" d="M 1959 3097 
Q 1497 3097 1228 2736 
Q 959 2375 959 1747 
Q 959 1119 1226 758 
Q 1494 397 1959 397 
Q 2419 397 2687 759 
Q 2956 1122 2956 1747 
Q 2956 2369 2687 2733 
Q 2419 3097 1959 3097 
z
M 1959 3584 
Q 2709 3584 3137 3096 
Q 3566 2609 3566 1747 
Q 3566 888 3137 398 
Q 2709 -91 1959 -91 
Q 1206 -91 779 398 
Q 353 888 353 1747 
Q 353 2609 779 3096 
Q 1206 3584 1959 3584 
z
" transform="scale(0.015625)"/>
       <path id="DejaVuSans-73" d="M 2834 3397 
L 2834 2853 
Q 2591 2978 2328 3040 
Q 2066 3103 1784 3103 
Q 1356 3103 1142 2972 
Q 928 2841 928 2578 
Q 928 2378 1081 2264 
Q 1234 2150 1697 2047 
L 1894 2003 
Q 2506 1872 2764 1633 
Q 3022 1394 3022 966 
Q 3022 478 2636 193 
Q 2250 -91 1575 -91 
Q 1294 -91 989 -36 
Q 684 19 347 128 
L 347 722 
Q 666 556 975 473 
Q 1284 391 1588 391 
Q 1994 391 2212 530 
Q 2431 669 2431 922 
Q 2431 1156 2273 1281 
Q 2116 1406 1581 1522 
L 1381 1569 
Q 847 1681 609 1914 
Q 372 2147 372 2553 
Q 372 3047 722 3315 
Q 1072 3584 1716 3584 
Q 2034 3584 2315 3537 
Q 2597 3491 2834 3397 
z
" transform="scale(0.015625)"/>
       <path id="DejaVuSans-65" d="M 3597 1894 
L 3597 1613 
L 953 1613 
Q 991 1019 1311 708 
Q 1631 397 2203 397 
Q 2534 397 2845 478 
Q 3156 559 3463 722 
L 3463 178 
Q 3153 47 2828 -22 
Q 2503 -91 2169 -91 
Q 1331 -91 842 396 
Q 353 884 353 1716 
Q 353 2575 817 3079 
Q 1281 3584 2069 3584 
Q 2775 3584 3186 3129 
Q 3597 2675 3597 1894 
z
M 3022 2063 
Q 3016 2534 2758 2815 
Q 2500 3097 2075 3097 
Q 1594 3097 1305 2825 
Q 1016 2553 972 2059 
L 3022 2063 
z
" transform="scale(0.015625)"/>
       <path id="DejaVuSans-70" d="M 1159 525 
L 1159 -1331 
L 581 -1331 
L 581 3500 
L 1159 3500 
L 1159 2969 
Q 1341 3281 1617 3432 
Q 1894 3584 2278 3584 
Q 2916 3584 3314 3078 
Q 3713 2572 3713 1747 
Q 3713 922 3314 415 
Q 2916 -91 2278 -91 
Q 1894 -91 1617 61 
Q 1341 213 1159 525 
z
M 3116 1747 
Q 3116 2381 2855 2742 
Q 2594 3103 2138 3103 
Q 1681 3103 1420 2742 
Q 1159 2381 1159 1747 
Q 1159 1113 1420 752 
Q 1681 391 2138 391 
Q 2594 391 2855 752 
Q 3116 1113 3116 1747 
z
" transform="scale(0.015625)"/>
       <path id="DejaVuSans-68" d="M 3513 2113 
L 3513 0 
L 2938 0 
L 2938 2094 
Q 2938 2591 2744 2837 
Q 2550 3084 2163 3084 
Q 1697 3084 1428 2787 
Q 1159 2491 1159 1978 
L 1159 0 
L 581 0 
L 581 4863 
L 1159 4863 
L 1159 2956 
Q 1366 3272 1645 3428 
Q 1925 3584 2291 3584 
Q 2894 3584 3203 3211 
Q 3513 2838 3513 2113 
z
" transform="scale(0.015625)"/>
       <path id="DejaVuSans-42" d="M 1259 2228 
L 1259 519 
L 2272 519 
Q 2781 519 3026 730 
Q 3272 941 3272 1375 
Q 3272 1813 3026 2020 
Q 2781 2228 2272 2228 
L 1259 2228 
z
M 1259 4147 
L 1259 2741 
L 2194 2741 
Q 2656 2741 2882 2914 
Q 3109 3088 3109 3444 
Q 3109 3797 2882 3972 
Q 2656 4147 2194 4147 
L 1259 4147 
z
M 628 4666 
L 2241 4666 
Q 2963 4666 3353 4366 
Q 3744 4066 3744 3513 
Q 3744 3084 3544 2831 
Q 3344 2578 2956 2516 
Q 3422 2416 3680 2098 
Q 3938 1781 3938 1306 
Q 3938 681 3513 340 
Q 3088 0 2303 0 
L 628 0 
L 628 4666 
z
" transform="scale(0.015625)"/>
       <path id="DejaVuSans-72" d="M 2631 2963 
Q 2534 3019 2420 3045 
Q 2306 3072 2169 3072 
Q 1681 3072 1420 2755 
Q 1159 2438 1159 1844 
L 1159 0 
L 581 0 
L 581 3500 
L 1159 3500 
L 1159 2956 
Q 1341 3275 1631 3429 
Q 1922 3584 2338 3584 
Q 2397 3584 2469 3576 
Q 2541 3569 2628 3553 
L 2631 2963 
z
" transform="scale(0.015625)"/>
       <path id="DejaVuSans-62" d="M 3116 1747 
Q 3116 2381 2855 2742 
Q 2594 3103 2138 3103 
Q 1681 3103 1420 2742 
Q 1159 2381 1159 1747 
Q 1159 1113 1420 752 
Q 1681 391 2138 391 
Q 2594 391 2855 752 
Q 3116 1113 3116 1747 
z
M 1159 2969 
Q 1341 3281 1617 3432 
Q 1894 3584 2278 3584 
Q 2916 3584 3314 3078 
Q 3713 2572 3713 1747 
Q 3713 922 3314 415 
Q 2916 -91 2278 -91 
Q 1894 -91 1617 61 
Q 1341 213 1159 525 
L 1159 0 
L 581 0 
L 581 4863 
L 1159 4863 
L 1159 2969 
z
" transform="scale(0.015625)"/>
      </defs>
      <use xlink:href="#DejaVuSans-4a"/>
      <use xlink:href="#DejaVuSans-6f" x="29.492188"/>
      <use xlink:href="#DejaVuSans-73" x="90.673828"/>
      <use xlink:href="#DejaVuSans-65" x="142.773438"/>
      <use xlink:href="#DejaVuSans-70" x="204.296875"/>
      <use xlink:href="#DejaVuSans-68" x="267.773438"/>
      <use xlink:href="#DejaVuSans-20" x="331.152344"/>
      <use xlink:href="#DejaVuSans-42" x="362.939453"/>
      <use xlink:href="#DejaVuSans-61" x="431.542969"/>
      <use xlink:href="#DejaVuSans-72" x="492.822266"/>
      <use xlink:href="#DejaVuSans-62" x="533.935547"/>
      <use xlink:href="#DejaVuSans-65" x="597.412109"/>
      <use xlink:href="#DejaVuSans-72" x="658.935547"/>
      <use xlink:href="#DejaVuSans-61" x="700.048828"/>
     </g>
    </g>
   </g>
   <g id="text_3">
    <g id="patch_4">
     <path d="M 392.441632 137.745002 
L 455.166007 137.745002 
L 455.166007 121.11469 
L 392.441632 121.11469 
z
" clip-path="url(#p561299879f)" style="fill: #ffffff; opacity: 0.7; stroke: #000000; stroke-linejoin: miter"/>
    </g>
    <g clip-path="url(#p561299879f)">
     <!-- Chuck Jones -->
     <g transform="translate(396.401632 131.913284)scale(0.09 -0.09)">
      <defs>
       <path id="DejaVuSans-43" d="M 4122 4306 
L 4122 3641 
Q 3803 3938 3442 4084 
Q 3081 4231 2675 4231 
Q 1875 4231 1450 3742 
Q 1025 3253 1025 2328 
Q 1025 1406 1450 917 
Q 1875 428 2675 428 
Q 3081 428 3442 575 
Q 3803 722 4122 1019 
L 4122 359 
Q 3791 134 3420 21 
Q 3050 -91 2638 -91 
Q 1578 -91 968 557 
Q 359 1206 359 2328 
Q 359 3453 968 4101 
Q 1578 4750 2638 4750 
Q 3056 4750 3426 4639 
Q 3797 4528 4122 4306 
z
" transform="scale(0.015625)"/>
       <path id="DejaVuSans-75" d="M 544 1381 
L 544 3500 
L 1119 3500 
L 1119 1403 
Q 1119 906 1312 657 
Q 1506 409 1894 409 
Q 2359 409 2629 706 
Q 2900 1003 2900 1516 
L 2900 3500 
L 3475 3500 
L 3475 0 
L 2900 0 
L 2900 538 
Q 2691 219 2414 64 
Q 2138 -91 1772 -91 
Q 1169 -91 856 284 
Q 544 659 544 1381 
z
M 1991 3584 
L 1991 3584 
z
" transform="scale(0.015625)"/>
       <path id="DejaVuSans-63" d="M 3122 3366 
L 3122 2828 
Q 2878 2963 2633 3030 
Q 2388 3097 2138 3097 
Q 1578 3097 1268 2742 
Q 959 2388 959 1747 
Q 959 1106 1268 751 
Q 1578 397 2138 397 
Q 2388 397 2633 464 
Q 2878 531 3122 666 
L 3122 134 
Q 2881 22 2623 -34 
Q 2366 -91 2075 -91 
Q 1284 -91 818 406 
Q 353 903 353 1747 
Q 353 2603 823 3093 
Q 1294 3584 2113 3584 
Q 2378 3584 2631 3529 
Q 2884 3475 3122 3366 
z
" transform="scale(0.015625)"/>
       <path id="DejaVuSans-6b" d="M 581 4863 
L 1159 4863 
L 1159 1991 
L 2875 3500 
L 3609 3500 
L 1753 1863 
L 3688 0 
L 2938 0 
L 1159 1709 
L 1159 0 
L 581 0 
L 581 4863 
z
" transform="scale(0.015625)"/>
      </defs>
      <use xlink:href="#DejaVuSans-43"/>
      <use xlink:href="#DejaVuSans-68" x="69.824219"/>
      <use xlink:href="#DejaVuSans-75" x="133.203125"/>
      <use xlink:href="#DejaVuSans-63" x="196.582031"/>
      <use xlink:href="#DejaVuSans-6b" x="251.5625"/>
      <use xlink:href="#DejaVuSans-20" x="309.472656"/>
      <use xlink:href="#DejaVuSans-4a" x="341.259766"/>
      <use xlink:href="#DejaVuSans-6f" x="370.751953"/>
      <use xlink:href="#DejaVuSans-6e" x="431.933594"/>
      <use xlink:href="#DejaVuSans-65" x="495.3125"/>
      <use xlink:href="#DejaVuSans-73" x="556.835938"/>
     </g>
    </g>
   </g>
   <g id="text_4">
    <g id="patch_5">
     <path d="M 317.879672 93.259056 
L 377.122172 93.259056 
L 377.122172 76.628744 
L 317.879672 76.628744 
z
" clip-path="url(#p561299879f)" style="fill: #ffffff; opacity: 0.7; stroke: #000000; stroke-linejoin: miter"/>
    </g>
    <g clip-path="url(#p561299879f)">
     <!-- Friz Freleng -->
     <g transform="translate(321.839672 87.427338)scale(0.09 -0.09)">
      <defs>
       <path id="DejaVuSans-46" d="M 628 4666 
L 3309 4666 
L 3309 4134 
L 1259 4134 
L 1259 2759 
L 3109 2759 
L 3109 2228 
L 1259 2228 
L 1259 0 
L 628 0 
L 628 4666 
z
" transform="scale(0.015625)"/>
       <path id="DejaVuSans-7a" d="M 353 3500 
L 3084 3500 
L 3084 2975 
L 922 459 
L 3084 459 
L 3084 0 
L 275 0 
L 275 525 
L 2438 3041 
L 353 3041 
L 353 3500 
z
" transform="scale(0.015625)"/>
       <path id="DejaVuSans-67" d="M 2906 1791 
Q 2906 2416 2648 2759 
Q 2391 3103 1925 3103 
Q 1463 3103 1205 2759 
Q 947 2416 947 1791 
Q 947 1169 1205 825 
Q 1463 481 1925 481 
Q 2391 481 2648 825 
Q 2906 1169 2906 1791 
z
M 3481 434 
Q 3481 -459 3084 -895 
Q 2688 -1331 1869 -1331 
Q 1566 -1331 1297 -1286 
Q 1028 -1241 775 -1147 
L 775 -588 
Q 1028 -725 1275 -790 
Q 1522 -856 1778 -856 
Q 2344 -856 2625 -561 
Q 2906 -266 2906 331 
L 2906 616 
Q 2728 306 2450 153 
Q 2172 0 1784 0 
Q 1141 0 747 490 
Q 353 981 353 1791 
Q 353 2603 747 3093 
Q 1141 3584 1784 3584 
Q 2172 3584 2450 3431 
Q 2728 3278 2906 2969 
L 2906 3500 
L 3481 3500 
L 3481 434 
z
" transform="scale(0.015625)"/>
      </defs>
      <use xlink:href="#DejaVuSans-46"/>
      <use xlink:href="#DejaVuSans-72" x="50.269531"/>
      <use xlink:href="#DejaVuSans-69" x="91.382812"/>
      <use xlink:href="#DejaVuSans-7a" x="119.166016"/>
      <use xlink:href="#DejaVuSans-20" x="171.65625"/>
      <use xlink:href="#DejaVuSans-46" x="203.443359"/>
      <use xlink:href="#DejaVuSans-72" x="253.712891"/>
      <use xlink:href="#DejaVuSans-65" x="292.576172"/>
      <use xlink:href="#DejaVuSans-6c" x="354.099609"/>
      <use xlink:href="#DejaVuSans-65" x="381.882812"/>
      <use xlink:href="#DejaVuSans-6e" x="443.40625"/>
      <use xlink:href="#DejaVuSans-67" x="506.785156"/>
     </g>
    </g>
   </g>
   <g id="text_5">
    <g id="patch_6">
     <path d="M 230.368527 83.958961 
L 289.384621 83.958961 
L 289.384621 67.328648 
L 230.368527 67.328648 
z
" clip-path="url(#p561299879f)" style="fill: #ffffff; opacity: 0.7; stroke: #000000; stroke-linejoin: miter"/>
    </g>
    <g clip-path="url(#p561299879f)">
     <!-- Alan Parker -->
     <g transform="translate(234.328527 78.127242)scale(0.09 -0.09)">
      <defs>
       <path id="DejaVuSans-41" d="M 2188 4044 
L 1331 1722 
L 3047 1722 
L 2188 4044 
z
M 1831 4666 
L 2547 4666 
L 4325 0 
L 3669 0 
L 3244 1197 
L 1141 1197 
L 716 0 
L 50 0 
L 1831 4666 
z
" transform="scale(0.015625)"/>
       <path id="DejaVuSans-50" d="M 1259 4147 
L 1259 2394 
L 2053 2394 
Q 2494 2394 2734 2622 
Q 2975 2850 2975 3272 
Q 2975 3691 2734 3919 
Q 2494 4147 2053 4147 
L 1259 4147 
z
M 628 4666 
L 2053 4666 
Q 2838 4666 3239 4311 
Q 3641 3956 3641 3272 
Q 3641 2581 3239 2228 
Q 2838 1875 2053 1875 
L 1259 1875 
L 1259 0 
L 628 0 
L 628 4666 
z
" transform="scale(0.015625)"/>
      </defs>
      <use xlink:href="#DejaVuSans-41"/>
      <use xlink:href="#DejaVuSans-6c" x="68.408203"/>
      <use xlink:href="#DejaVuSans-61" x="96.191406"/>
      <use xlink:href="#DejaVuSans-6e" x="157.470703"/>
      <use xlink:href="#DejaVuSans-20" x="220.849609"/>
      <use xlink:href="#DejaVuSans-50" x="252.636719"/>
      <use xlink:href="#DejaVuSans-61" x="308.439453"/>
      <use xlink:href="#DejaVuSans-72" x="369.71875"/>
      <use xlink:href="#DejaVuSans-6b" x="410.832031"/>
      <use xlink:href="#DejaVuSans-65" x="465.117188"/>
      <use xlink:href="#DejaVuSans-72" x="526.640625"/>
     </g>
    </g>
   </g>
   <g id="text_6">
    <g id="patch_7">
     <path d="M 142.212301 111.452798 
L 209.951364 111.452798 
L 209.951364 94.822486 
L 142.212301 94.822486 
z
" clip-path="url(#p561299879f)" style="fill: #ffffff; opacity: 0.7; stroke: #000000; stroke-linejoin: miter"/>
    </g>
    <g clip-path="url(#p561299879f)">
     <!-- John Badham -->
     <g transform="translate(146.172301 105.621079)scale(0.09 -0.09)">
      <defs>
       <path id="DejaVuSans-64" d="M 2906 2969 
L 2906 4863 
L 3481 4863 
L 3481 0 
L 2906 0 
L 2906 525 
Q 2725 213 2448 61 
Q 2172 -91 1784 -91 
Q 1150 -91 751 415 
Q 353 922 353 1747 
Q 353 2572 751 3078 
Q 1150 3584 1784 3584 
Q 2172 3584 2448 3432 
Q 2725 3281 2906 2969 
z
M 947 1747 
Q 947 1113 1208 752 
Q 1469 391 1925 391 
Q 2381 391 2643 752 
Q 2906 1113 2906 1747 
Q 2906 2381 2643 2742 
Q 2381 3103 1925 3103 
Q 1469 3103 1208 2742 
Q 947 2381 947 1747 
z
" transform="scale(0.015625)"/>
      </defs>
      <use xlink:href="#DejaVuSans-4a"/>
      <use xlink:href="#DejaVuSans-6f" x="29.492188"/>
      <use xlink:href="#DejaVuSans-68" x="90.673828"/>
      <use xlink:href="#DejaVuSans-6e" x="154.052734"/>
      <use xlink:href="#DejaVuSans-20" x="217.431641"/>
      <use xlink:href="#DejaVuSans-42" x="249.21875"/>
      <use xlink:href="#DejaVuSans-61" x="317.822266"/>
      <use xlink:href="#DejaVuSans-64" x="379.101562"/>
      <use xlink:href="#DejaVuSans-68" x="442.578125"/>
      <use xlink:href="#DejaVuSans-61" x="505.957031"/>
      <use xlink:href="#DejaVuSans-6d" x="567.236328"/>
     </g>
    </g>
   </g>
   <g id="text_7">
    <g id="patch_8">
     <path d="M 70.698315 170.986619 
L 150.512846 170.986619 
L 150.512846 154.356306 
L 70.698315 154.356306 
z
" clip-path="url(#p561299879f)" style="fill: #ffffff; opacity: 0.7; stroke: #000000; stroke-linejoin: miter"/>
    </g>
    <g clip-path="url(#p561299879f)">
     <!-- Martin Scorsese -->
     <g transform="translate(74.658315 165.1549)scale(0.09 -0.09)">
      <defs>
       <path id="DejaVuSans-4d" d="M 628 4666 
L 1569 4666 
L 2759 1491 
L 3956 4666 
L 4897 4666 
L 4897 0 
L 4281 0 
L 4281 4097 
L 3078 897 
L 2444 897 
L 1241 4097 
L 1241 0 
L 628 0 
L 628 4666 
z
" transform="scale(0.015625)"/>
       <path id="DejaVuSans-74" d="M 1172 4494 
L 1172 3500 
L 2356 3500 
L 2356 3053 
L 1172 3053 
L 1172 1153 
Q 1172 725 1289 603 
Q 1406 481 1766 481 
L 2356 481 
L 2356 0 
L 1766 0 
Q 1100 0 847 248 
Q 594 497 594 1153 
L 594 3053 
L 172 3053 
L 172 3500 
L 594 3500 
L 594 4494 
L 1172 4494 
z
" transform="scale(0.015625)"/>
       <path id="DejaVuSans-53" d="M 3425 4513 
L 3425 3897 
Q 3066 4069 2747 4153 
Q 2428 4238 2131 4238 
Q 1616 4238 1336 4038 
Q 1056 3838 1056 3469 
Q 1056 3159 1242 3001 
Q 1428 2844 1947 2747 
L 2328 2669 
Q 3034 2534 3370 2195 
Q 3706 1856 3706 1288 
Q 3706 609 3251 259 
Q 2797 -91 1919 -91 
Q 1588 -91 1214 -16 
Q 841 59 441 206 
L 441 856 
Q 825 641 1194 531 
Q 1563 422 1919 422 
Q 2459 422 2753 634 
Q 3047 847 3047 1241 
Q 3047 1584 2836 1778 
Q 2625 1972 2144 2069 
L 1759 2144 
Q 1053 2284 737 2584 
Q 422 2884 422 3419 
Q 422 4038 858 4394 
Q 1294 4750 2059 4750 
Q 2388 4750 2728 4690 
Q 3069 4631 3425 4513 
z
" transform="scale(0.015625)"/>
      </defs>
      <use xlink:href="#DejaVuSans-4d"/>
      <use xlink:href="#DejaVuSans-61" x="86.279297"/>
      <use xlink:href="#DejaVuSans-72" x="147.558594"/>
      <use xlink:href="#DejaVuSans-74" x="188.671875"/>
      <use xlink:href="#DejaVuSans-69" x="227.880859"/>
      <use xlink:href="#DejaVuSans-6e" x="255.664062"/>
      <use xlink:href="#DejaVuSans-20" x="319.042969"/>
      <use xlink:href="#DejaVuSans-53" x="350.830078"/>
      <use xlink:href="#DejaVuSans-63" x="414.306641"/>
      <use xlink:href="#DejaVuSans-6f" x="469.287109"/>
      <use xlink:href="#DejaVuSans-72" x="530.46875"/>
      <use xlink:href="#DejaVuSans-73" x="571.582031"/>
      <use xlink:href="#DejaVuSans-65" x="623.681641"/>
      <use xlink:href="#DejaVuSans-73" x="685.205078"/>
      <use xlink:href="#DejaVuSans-65" x="737.304688"/>
     </g>
    </g>
   </g>
   <g id="text_8">
    <g id="patch_9">
     <path d="M 47.513996 252.26651 
L 102.024465 252.26651 
L 102.024465 235.636197 
L 47.513996 235.636197 
z
" clip-path="url(#p561299879f)" style="fill: #ffffff; opacity: 0.7; stroke: #000000; stroke-linejoin: miter"/>
    </g>
    <g clip-path="url(#p561299879f)">
     <!-- Tony Scott -->
     <g transform="translate(51.473996 246.434791)scale(0.09 -0.09)">
      <defs>
       <path id="DejaVuSans-54" d="M -19 4666 
L 3928 4666 
L 3928 4134 
L 2272 4134 
L 2272 0 
L 1638 0 
L 1638 4134 
L -19 4134 
L -19 4666 
z
" transform="scale(0.015625)"/>
       <path id="DejaVuSans-79" d="M 2059 -325 
Q 1816 -950 1584 -1140 
Q 1353 -1331 966 -1331 
L 506 -1331 
L 506 -850 
L 844 -850 
Q 1081 -850 1212 -737 
Q 1344 -625 1503 -206 
L 1606 56 
L 191 3500 
L 800 3500 
L 1894 763 
L 2988 3500 
L 3597 3500 
L 2059 -325 
z
" transform="scale(0.015625)"/>
      </defs>
      <use xlink:href="#DejaVuSans-54"/>
      <use xlink:href="#DejaVuSans-6f" x="44.083984"/>
      <use xlink:href="#DejaVuSans-6e" x="105.265625"/>
      <use xlink:href="#DejaVuSans-79" x="168.644531"/>
      <use xlink:href="#DejaVuSans-20" x="227.824219"/>
      <use xlink:href="#DejaVuSans-53" x="259.611328"/>
      <use xlink:href="#DejaVuSans-63" x="323.087891"/>
      <use xlink:href="#DejaVuSans-6f" x="378.068359"/>
      <use xlink:href="#DejaVuSans-74" x="439.25"/>
      <use xlink:href="#DejaVuSans-74" x="478.458984"/>
     </g>
    </g>
   </g>
   <g id="text_9">
    <g id="patch_10">
     <path d="M 23.981822 341.238415 
L 125.556665 341.238415 
L 125.556665 324.608102 
L 23.981822 324.608102 
z
" clip-path="url(#p561299879f)" style="fill: #ffffff; opacity: 0.7; stroke: #000000; stroke-linejoin: miter"/>
    </g>
    <g clip-path="url(#p561299879f)">
     <!-- Francis Ford Coppola -->
     <g transform="translate(27.941822 335.406696)scale(0.09 -0.09)">
      <use xlink:href="#DejaVuSans-46"/>
      <use xlink:href="#DejaVuSans-72" x="50.269531"/>
      <use xlink:href="#DejaVuSans-61" x="91.382812"/>
      <use xlink:href="#DejaVuSans-6e" x="152.662109"/>
      <use xlink:href="#DejaVuSans-63" x="216.041016"/>
      <use xlink:href="#DejaVuSans-69" x="271.021484"/>
      <use xlink:href="#DejaVuSans-73" x="298.804688"/>
      <use xlink:href="#DejaVuSans-20" x="350.904297"/>
      <use xlink:href="#DejaVuSans-46" x="382.691406"/>
      <use xlink:href="#DejaVuSans-6f" x="436.585938"/>
      <use xlink:href="#DejaVuSans-72" x="497.767578"/>
      <use xlink:href="#DejaVuSans-64" x="537.130859"/>
      <use xlink:href="#DejaVuSans-20" x="600.607422"/>
      <use xlink:href="#DejaVuSans-43" x="632.394531"/>
      <use xlink:href="#DejaVuSans-6f" x="702.21875"/>
      <use xlink:href="#DejaVuSans-70" x="763.400391"/>
      <use xlink:href="#DejaVuSans-70" x="826.876953"/>
      <use xlink:href="#DejaVuSans-6f" x="890.353516"/>
      <use xlink:href="#DejaVuSans-6c" x="951.535156"/>
      <use xlink:href="#DejaVuSans-61" x="979.318359"/>
     </g>
    </g>
   </g>
   <g id="text_10">
    <g id="patch_11">
     <path d="M 74.654812 422.518281 
L 146.556374 422.518281 
L 146.556374 405.887968 
L 74.654812 405.887968 
z
" clip-path="url(#p561299879f)" style="fill: #ffffff; opacity: 0.7; stroke: #000000; stroke-linejoin: miter"/>
    </g>
    <g clip-path="url(#p561299879f)">
     <!-- Michael Apted -->
     <g transform="translate(78.614812 416.686562)scale(0.09 -0.09)">
      <use xlink:href="#DejaVuSans-4d"/>
      <use xlink:href="#DejaVuSans-69" x="86.279297"/>
      <use xlink:href="#DejaVuSans-63" x="114.0625"/>
      <use xlink:href="#DejaVuSans-68" x="169.042969"/>
      <use xlink:href="#DejaVuSans-61" x="232.421875"/>
      <use xlink:href="#DejaVuSans-65" x="293.701172"/>
      <use xlink:href="#DejaVuSans-6c" x="355.224609"/>
      <use xlink:href="#DejaVuSans-20" x="383.007812"/>
      <use xlink:href="#DejaVuSans-41" x="414.794922"/>
      <use xlink:href="#DejaVuSans-70" x="483.203125"/>
      <use xlink:href="#DejaVuSans-74" x="546.679688"/>
      <use xlink:href="#DejaVuSans-65" x="585.888672"/>
      <use xlink:href="#DejaVuSans-64" x="647.412109"/>
     </g>
    </g>
   </g>
   <g id="text_11">
    <g id="patch_12">
     <path d="M 147.064598 482.052101 
L 205.09913 482.052101 
L 205.09913 465.421789 
L 147.064598 465.421789 
z
" clip-path="url(#p561299879f)" style="fill: #ffffff; opacity: 0.7; stroke: #000000; stroke-linejoin: miter"/>
    </g>
    <g clip-path="url(#p561299879f)">
     <!-- Jules White -->
     <g transform="translate(151.024598 476.220382)scale(0.09 -0.09)">
      <use xlink:href="#DejaVuSans-4a"/>
      <use xlink:href="#DejaVuSans-75" x="29.492188"/>
      <use xlink:href="#DejaVuSans-6c" x="92.871094"/>
      <use xlink:href="#DejaVuSans-65" x="120.654297"/>
      <use xlink:href="#DejaVuSans-73" x="182.177734"/>
      <use xlink:href="#DejaVuSans-20" x="234.277344"/>
      <use xlink:href="#DejaVuSans-57" x="266.064453"/>
      <use xlink:href="#DejaVuSans-68" x="364.941406"/>
      <use xlink:href="#DejaVuSans-69" x="428.320312"/>
      <use xlink:href="#DejaVuSans-74" x="456.103516"/>
      <use xlink:href="#DejaVuSans-65" x="495.3125"/>
     </g>
    </g>
   </g>
   <g id="text_12">
    <g id="patch_13">
     <path d="M 221.365752 509.545925 
L 298.387471 509.545925 
L 298.387471 492.915613 
L 221.365752 492.915613 
z
" clip-path="url(#p561299879f)" style="fill: #ffffff; opacity: 0.7; stroke: #000000; stroke-linejoin: miter"/>
    </g>
    <g clip-path="url(#p561299879f)">
     <!-- Brian De Palma -->
     <g transform="translate(225.325752 503.714207)scale(0.09 -0.09)">
      <defs>
       <path id="DejaVuSans-44" d="M 1259 4147 
L 1259 519 
L 2022 519 
Q 2988 519 3436 956 
Q 3884 1394 3884 2338 
Q 3884 3275 3436 3711 
Q 2988 4147 2022 4147 
L 1259 4147 
z
M 628 4666 
L 1925 4666 
Q 3281 4666 3915 4102 
Q 4550 3538 4550 2338 
Q 4550 1131 3912 565 
Q 3275 0 1925 0 
L 628 0 
L 628 4666 
z
" transform="scale(0.015625)"/>
      </defs>
      <use xlink:href="#DejaVuSans-42"/>
      <use xlink:href="#DejaVuSans-72" x="68.603516"/>
      <use xlink:href="#DejaVuSans-69" x="109.716797"/>
      <use xlink:href="#DejaVuSans-61" x="137.5"/>
      <use xlink:href="#DejaVuSans-6e" x="198.779297"/>
      <use xlink:href="#DejaVuSans-20" x="262.158203"/>
      <use xlink:href="#DejaVuSans-44" x="293.945312"/>
      <use xlink:href="#DejaVuSans-65" x="370.947266"/>
      <use xlink:href="#DejaVuSans-20" x="432.470703"/>
      <use xlink:href="#DejaVuSans-50" x="464.257812"/>
      <use xlink:href="#DejaVuSans-61" x="520.060547"/>
      <use xlink:href="#DejaVuSans-6c" x="581.339844"/>
      <use xlink:href="#DejaVuSans-6d" x="609.123047"/>
      <use xlink:href="#DejaVuSans-61" x="706.535156"/>
     </g>
    </g>
   </g>
   <g id="text_13">
    <g id="patch_14">
     <path d="M 315.699312 500.245817 
L 379.302594 500.245817 
L 379.302594 483.615505 
L 315.699312 483.615505 
z
" clip-path="url(#p561299879f)" style="fill: #ffffff; opacity: 0.7; stroke: #000000; stroke-linejoin: miter"/>
    </g>
    <g clip-path="url(#p561299879f)">
     <!-- Woody Allen -->
     <g transform="translate(319.659312 494.414099)scale(0.09 -0.09)">
      <use xlink:href="#DejaVuSans-57"/>
      <use xlink:href="#DejaVuSans-6f" x="93.001953"/>
      <use xlink:href="#DejaVuSans-6f" x="154.183594"/>
      <use xlink:href="#DejaVuSans-64" x="215.365234"/>
      <use xlink:href="#DejaVuSans-79" x="278.841797"/>
      <use xlink:href="#DejaVuSans-20" x="338.021484"/>
      <use xlink:href="#DejaVuSans-41" x="369.808594"/>
      <use xlink:href="#DejaVuSans-6c" x="438.216797"/>
      <use xlink:href="#DejaVuSans-6c" x="466"/>
      <use xlink:href="#DejaVuSans-65" x="493.783203"/>
      <use xlink:href="#DejaVuSans-6e" x="555.306641"/>
     </g>
    </g>
   </g>
   <g id="text_14">
    <g id="patch_15">
     <path d="M 382.192919 455.759846 
L 465.414794 455.759846 
L 465.414794 439.129533 
L 382.192919 439.129533 
z
" clip-path="url(#p561299879f)" style="fill: #ffffff; opacity: 0.7; stroke: #000000; stroke-linejoin: miter"/>
    </g>
    <g clip-path="url(#p561299879f)">
     <!-- Joel Schumacher -->
     <g transform="translate(386.152919 449.928127)scale(0.09 -0.09)">
      <use xlink:href="#DejaVuSans-4a"/>
      <use xlink:href="#DejaVuSans-6f" x="29.492188"/>
      <use xlink:href="#DejaVuSans-65" x="90.673828"/>
      <use xlink:href="#DejaVuSans-6c" x="152.197266"/>
      <use xlink:href="#DejaVuSans-20" x="179.980469"/>
      <use xlink:href="#DejaVuSans-53" x="211.767578"/>
      <use xlink:href="#DejaVuSans-63" x="275.244141"/>
      <use xlink:href="#DejaVuSans-68" x="330.224609"/>
      <use xlink:href="#DejaVuSans-75" x="393.603516"/>
      <use xlink:href="#DejaVuSans-6d" x="456.982422"/>
      <use xlink:href="#DejaVuSans-61" x="554.394531"/>
      <use xlink:href="#DejaVuSans-63" x="615.673828"/>
      <use xlink:href="#DejaVuSans-68" x="670.654297"/>
      <use xlink:href="#DejaVuSans-65" x="734.033203"/>
      <use xlink:href="#DejaVuSans-72" x="795.556641"/>
     </g>
    </g>
   </g>
   <g id="text_15">
    <g id="patch_16">
     <path d="M 442.966844 383.780063 
L 508.216844 383.780063 
L 508.216844 367.14975 
L 442.966844 367.14975 
z
" clip-path="url(#p561299879f)" style="fill: #ffffff; opacity: 0.7; stroke: #000000; stroke-linejoin: miter"/>
    </g>
    <g clip-path="url(#p561299879f)">
     <!-- Peter Hyams -->
     <g transform="translate(446.926844 377.948344)scale(0.09 -0.09)">
      <use xlink:href="#DejaVuSans-50"/>
      <use xlink:href="#DejaVuSans-65" x="56.677734"/>
      <use xlink:href="#DejaVuSans-74" x="118.201172"/>
      <use xlink:href="#DejaVuSans-65" x="157.410156"/>
      <use xlink:href="#DejaVuSans-72" x="218.933594"/>
      <use xlink:href="#DejaVuSans-20" x="260.046875"/>
      <use xlink:href="#DejaVuSans-48" x="291.833984"/>
      <use xlink:href="#DejaVuSans-79" x="367.029297"/>
      <use xlink:href="#DejaVuSans-61" x="426.208984"/>
      <use xlink:href="#DejaVuSans-6d" x="487.488281"/>
      <use xlink:href="#DejaVuSans-73" x="584.900391"/>
     </g>
    </g>
   </g>
   <g id="text_16">
    <!-- Impactful directors for Action genre - Importance rank: 1 -->
    <g transform="translate(117.822188 4.8)scale(0.12 -0.12)">
     <defs>
      <path id="DejaVuSans-49" d="M 628 4666 
L 1259 4666 
L 1259 0 
L 628 0 
L 628 4666 
z
" transform="scale(0.015625)"/>
      <path id="DejaVuSans-66" d="M 2375 4863 
L 2375 4384 
L 1825 4384 
Q 1516 4384 1395 4259 
Q 1275 4134 1275 3809 
L 1275 3500 
L 2222 3500 
L 2222 3053 
L 1275 3053 
L 1275 0 
L 697 0 
L 697 3053 
L 147 3053 
L 147 3500 
L 697 3500 
L 697 3744 
Q 697 4328 969 4595 
Q 1241 4863 1831 4863 
L 2375 4863 
z
" transform="scale(0.015625)"/>
      <path id="DejaVuSans-2d" d="M 313 2009 
L 1997 2009 
L 1997 1497 
L 313 1497 
L 313 2009 
z
" transform="scale(0.015625)"/>
      <path id="DejaVuSans-3a" d="M 750 794 
L 1409 794 
L 1409 0 
L 750 0 
L 750 794 
z
M 750 3309 
L 1409 3309 
L 1409 2516 
L 750 2516 
L 750 3309 
z
" transform="scale(0.015625)"/>
      <path id="DejaVuSans-31" d="M 794 531 
L 1825 531 
L 1825 4091 
L 703 3866 
L 703 4441 
L 1819 4666 
L 2450 4666 
L 2450 531 
L 3481 531 
L 3481 0 
L 794 0 
L 794 531 
z
" transform="scale(0.015625)"/>
     </defs>
     <use xlink:href="#DejaVuSans-49"/>
     <use xlink:href="#DejaVuSans-6d" x="29.492188"/>
     <use xlink:href="#DejaVuSans-70" x="126.904297"/>
     <use xlink:href="#DejaVuSans-61" x="190.380859"/>
     <use xlink:href="#DejaVuSans-63" x="251.660156"/>
     <use xlink:href="#DejaVuSans-74" x="306.640625"/>
     <use xlink:href="#DejaVuSans-66" x="345.849609"/>
     <use xlink:href="#DejaVuSans-75" x="381.054688"/>
     <use xlink:href="#DejaVuSans-6c" x="444.433594"/>
     <use xlink:href="#DejaVuSans-20" x="472.216797"/>
     <use xlink:href="#DejaVuSans-64" x="504.003906"/>
     <use xlink:href="#DejaVuSans-69" x="567.480469"/>
     <use xlink:href="#DejaVuSans-72" x="595.263672"/>
     <use xlink:href="#DejaVuSans-65" x="634.126953"/>
     <use xlink:href="#DejaVuSans-63" x="695.650391"/>
     <use xlink:href="#DejaVuSans-74" x="750.630859"/>
     <use xlink:href="#DejaVuSans-6f" x="789.839844"/>
     <use xlink:href="#DejaVuSans-72" x="851.021484"/>
     <use xlink:href="#DejaVuSans-73" x="892.134766"/>
     <use xlink:href="#DejaVuSans-20" x="944.234375"/>
     <use xlink:href="#DejaVuSans-66" x="976.021484"/>
     <use xlink:href="#DejaVuSans-6f" x="1011.226562"/>
     <use xlink:href="#DejaVuSans-72" x="1072.408203"/>
     <use xlink:href="#DejaVuSans-20" x="1113.521484"/>
     <use xlink:href="#DejaVuSans-41" x="1145.308594"/>
     <use xlink:href="#DejaVuSans-63" x="1211.966797"/>
     <use xlink:href="#DejaVuSans-74" x="1266.947266"/>
     <use xlink:href="#DejaVuSans-69" x="1306.15625"/>
     <use xlink:href="#DejaVuSans-6f" x="1333.939453"/>
     <use xlink:href="#DejaVuSans-6e" x="1395.121094"/>
     <use xlink:href="#DejaVuSans-20" x="1458.5"/>
     <use xlink:href="#DejaVuSans-67" x="1490.287109"/>
     <use xlink:href="#DejaVuSans-65" x="1553.763672"/>
     <use xlink:href="#DejaVuSans-6e" x="1615.287109"/>
     <use xlink:href="#DejaVuSans-72" x="1678.666016"/>
     <use xlink:href="#DejaVuSans-65" x="1717.529297"/>
     <use xlink:href="#DejaVuSans-20" x="1779.052734"/>
     <use xlink:href="#DejaVuSans-2d" x="1810.839844"/>
     <use xlink:href="#DejaVuSans-20" x="1846.923828"/>
     <use xlink:href="#DejaVuSans-49" x="1878.710938"/>
     <use xlink:href="#DejaVuSans-6d" x="1908.203125"/>
     <use xlink:href="#DejaVuSans-70" x="2005.615234"/>
     <use xlink:href="#DejaVuSans-6f" x="2069.091797"/>
     <use xlink:href="#DejaVuSans-72" x="2130.273438"/>
     <use xlink:href="#DejaVuSans-74" x="2171.386719"/>
     <use xlink:href="#DejaVuSans-61" x="2210.595703"/>
     <use xlink:href="#DejaVuSans-6e" x="2271.875"/>
     <use xlink:href="#DejaVuSans-63" x="2335.253906"/>
     <use xlink:href="#DejaVuSans-65" x="2390.234375"/>
     <use xlink:href="#DejaVuSans-20" x="2451.757812"/>
     <use xlink:href="#DejaVuSans-72" x="2483.544922"/>
     <use xlink:href="#DejaVuSans-61" x="2524.658203"/>
     <use xlink:href="#DejaVuSans-6e" x="2585.9375"/>
     <use xlink:href="#DejaVuSans-6b" x="2649.316406"/>
     <use xlink:href="#DejaVuSans-3a" x="2707.226562"/>
     <use xlink:href="#DejaVuSans-20" x="2740.917969"/>
     <use xlink:href="#DejaVuSans-31" x="2772.705078"/>
    </g>
   </g>
  </g>
 </g>
 <defs>
  <clipPath id="p561299879f">
   <rect x="10.8" y="10.8" width="554.4" height="554.4"/>
  </clipPath>
 </defs>
</svg>
