<?xml version="1.0" encoding="utf-8" standalone="no"?>
<!DOCTYPE svg PUBLIC "-//W3C//DTD SVG 1.1//EN"
  "http://www.w3.org/Graphics/SVG/1.1/DTD/svg11.dtd">
<svg xmlns:xlink="http://www.w3.org/1999/xlink" width="568.8pt" height="583.918125pt" viewBox="0 0 568.8 583.918125" xmlns="http://www.w3.org/2000/svg" version="1.1">
 <metadata>
  <rdf:RDF xmlns:dc="http://purl.org/dc/elements/1.1/" xmlns:cc="http://creativecommons.org/ns#" xmlns:rdf="http://www.w3.org/1999/02/22-rdf-syntax-ns#">
   <cc:Work>
    <dc:type rdf:resource="http://purl.org/dc/dcmitype/StillImage"/>
    <dc:date>2022-12-23T19:06:49.928605</dc:date>
    <dc:format>image/svg+xml</dc:format>
    <dc:creator>
     <cc:Agent>
      <dc:title>Matplotlib v3.5.2, https://matplotlib.org/</dc:title>
     </cc:Agent>
    </dc:creator>
   </cc:Work>
  </rdf:RDF>
 </metadata>
 <defs>
  <style type="text/css">*{stroke-linejoin: round; stroke-linecap: butt}</style>
 </defs>
 <g id="figure_1">
  <g id="patch_1">
   <path d="M 0 583.918125 
L 568.8 583.918125 
L 568.8 0 
L 0 0 
z
" style="fill: #ffffff"/>
  </g>
  <g id="axes_1">
   <g id="LineCollection_1">
    <path d="M 174.25133 483.914193 
L 259.509587 511.375813 
" clip-path="url(#pc24ef731c5)" style="fill: none; stroke: #000000; stroke-opacity: 0.3; stroke-width: 10"/>
    <path d="M 174.25133 483.914193 
L 348.664323 502.086599 
" clip-path="url(#pc24ef731c5)" style="fill: none; stroke: #000000; stroke-opacity: 0.3; stroke-width: 5.408834"/>
    <path d="M 259.509587 511.375813 
L 348.664323 502.086599 
" clip-path="url(#pc24ef731c5)" style="fill: none; stroke: #000000; stroke-opacity: 0.3; stroke-width: 5.408834"/>
   </g>
   <g id="PathCollection_1">
    <path d="M 497.630769 326.217712 
C 504.893655 326.217712 511.86005 323.332137 516.995686 318.196501 
C 522.131322 313.060865 525.016897 306.094471 525.016897 298.831585 
C 525.016897 291.568698 522.131322 284.602304 516.995686 279.466668 
C 511.86005 274.331032 504.893655 271.445457 497.630769 271.445457 
C 490.367883 271.445457 483.401488 274.331032 478.265852 279.466668 
C 473.130217 284.602304 470.244641 291.568698 470.244641 298.831585 
C 470.244641 306.094471 473.130217 313.060865 478.265852 318.196501 
C 483.401488 323.332137 490.367883 326.217712 497.630769 326.217712 
z
" clip-path="url(#pc24ef731c5)" style="fill: #c70039; fill-opacity: 0.99; stroke: #c70039; stroke-opacity: 0.99"/>
    <path d="M 478.992348 236.799418 
C 485.594193 236.799418 491.926533 234.176477 496.594743 229.508267 
C 501.262952 224.840057 503.885894 218.507718 503.885894 211.905872 
C 503.885894 205.304027 501.262952 198.971687 496.594743 194.303477 
C 491.926533 189.635268 485.594193 187.012327 478.992348 187.012327 
C 472.390502 187.012327 466.058163 189.635268 461.389953 194.303477 
C 456.721743 198.971687 454.098802 205.304027 454.098802 211.905872 
C 454.098802 218.507718 456.721743 224.840057 461.389953 229.508267 
C 466.058163 234.176477 472.390502 236.799418 478.992348 236.799418 
z
" clip-path="url(#pc24ef731c5)" style="fill: #c70039; fill-opacity: 0.99; stroke: #c70039; stroke-opacity: 0.99"/>
    <path d="M 426.29985 162.063012 
C 432.148272 162.063012 437.757945 159.739409 441.893404 155.60395 
C 446.028863 151.468491 448.352466 145.858818 448.352466 140.010395 
C 448.352466 134.161973 446.028863 128.5523 441.893404 124.416841 
C 437.757945 120.281382 432.148272 117.957779 426.29985 117.957779 
C 420.451428 117.957779 414.841754 120.281382 410.706295 124.416841 
C 406.570836 128.5523 404.247234 134.161973 404.247234 140.010395 
C 404.247234 145.858818 406.570836 151.468491 410.706295 155.60395 
C 414.841754 159.739409 420.451428 162.063012 426.29985 162.063012 
z
" clip-path="url(#pc24ef731c5)" style="fill: #c70039; fill-opacity: 0.99; stroke: #c70039; stroke-opacity: 0.99"/>
    <path d="M 348.664291 117.240669 
C 354.409681 117.240669 359.920527 114.958002 363.983131 110.895398 
C 368.045735 106.832794 370.328403 101.321947 370.328403 95.576558 
C 370.328403 89.831168 368.045735 84.320321 363.983131 80.257718 
C 359.920527 76.195114 354.409681 73.912446 348.664291 73.912446 
C 342.918902 73.912446 337.408055 76.195114 333.345451 80.257718 
C 329.282847 84.320321 327.00018 89.831168 327.00018 95.576558 
C 327.00018 101.321947 329.282847 106.832794 333.345451 110.895398 
C 337.408055 114.958002 342.918902 117.240669 348.664291 117.240669 
z
" clip-path="url(#pc24ef731c5)" style="fill: #c70039; fill-opacity: 0.99; stroke: #c70039; stroke-opacity: 0.99"/>
    <path d="M 259.509549 107.67371 
C 265.181276 107.67371 270.621468 105.420308 274.631984 101.409792 
C 278.642501 97.399275 280.895902 91.959083 280.895902 86.287356 
C 280.895902 80.615628 278.642501 75.175437 274.631984 71.16492 
C 270.621468 67.154403 265.181276 64.901002 259.509549 64.901002 
C 253.837821 64.901002 248.39763 67.154403 244.387113 71.16492 
C 240.376596 75.175437 238.123195 80.615628 238.123195 86.287356 
C 238.123195 91.959083 240.376596 97.399275 244.387113 101.409792 
C 248.39763 105.420308 253.837821 107.67371 259.509549 107.67371 
z
" clip-path="url(#pc24ef731c5)" style="fill: #c70039; fill-opacity: 0.99; stroke: #c70039; stroke-opacity: 0.99"/>
    <path d="M 174.251298 134.696677 
C 179.80669 134.696677 185.135295 132.489496 189.063551 128.561241 
C 192.991806 124.632986 195.198987 119.30438 195.198987 113.748988 
C 195.198987 108.193596 192.991806 102.864991 189.063551 98.936736 
C 185.135295 95.00848 179.80669 92.8013 174.251298 92.8013 
C 168.695906 92.8013 163.367301 95.00848 159.439045 98.936736 
C 155.51079 102.864991 153.30361 108.193596 153.30361 113.748988 
C 153.30361 119.30438 155.51079 124.632986 159.439045 128.561241 
C 163.367301 132.489496 168.695906 134.696677 174.251298 134.696677 
z
" clip-path="url(#pc24ef731c5)" style="fill: #c70039; fill-opacity: 0.99; stroke: #c70039; stroke-opacity: 0.99"/>
    <path d="M 107.631477 194.050328 
C 113.157581 194.050328 118.458094 191.854783 122.36564 187.947238 
C 126.273186 184.039692 128.46873 178.739179 128.46873 173.213074 
C 128.46873 167.68697 126.273186 162.386457 122.36564 158.478911 
C 118.458094 154.571365 113.157581 152.375821 107.631477 152.375821 
C 102.105373 152.375821 96.80486 154.571365 92.897314 158.478911 
C 88.989768 162.386457 86.794224 167.68697 86.794224 173.213074 
C 86.794224 178.739179 88.989768 184.039692 92.897314 187.947238 
C 96.80486 191.854783 102.105373 194.050328 107.631477 194.050328 
z
" clip-path="url(#pc24ef731c5)" style="fill: #c70039; fill-opacity: 0.99; stroke: #c70039; stroke-opacity: 0.99"/>
    <path d="M 71.169231 274.897382 
C 76.605794 274.897382 81.820422 272.737412 85.664653 268.893181 
C 89.508884 265.04895 91.668853 259.834323 91.668853 254.397759 
C 91.668853 248.961196 89.508884 243.746568 85.664653 239.902337 
C 81.820422 236.058107 76.605794 233.898137 71.169231 233.898137 
C 65.732667 233.898137 60.51804 236.058107 56.673809 239.902337 
C 52.829578 243.746568 50.669608 248.961196 50.669608 254.397759 
C 50.669608 259.834323 52.829578 265.04895 56.673809 268.893181 
C 60.51804 272.737412 65.732667 274.897382 71.169231 274.897382 
z
" clip-path="url(#pc24ef731c5)" style="fill: #c70039; fill-opacity: 0.99; stroke: #c70039; stroke-opacity: 0.99"/>
    <path d="M 71.169244 363.643425 
C 76.573546 363.643425 81.75723 361.496273 85.578649 357.674854 
C 89.400068 353.853434 91.547221 348.669751 91.547221 343.265448 
C 91.547221 337.861145 89.400068 332.677461 85.578649 328.856042 
C 81.75723 325.034623 76.573546 322.887471 71.169244 322.887471 
C 65.764941 322.887471 60.581257 325.034623 56.759838 328.856042 
C 52.938419 332.677461 50.791267 337.861145 50.791267 343.265448 
C 50.791267 348.669751 52.938419 353.853434 56.759838 357.674854 
C 60.581257 361.496273 65.764941 363.643425 71.169244 363.643425 
z
" clip-path="url(#pc24ef731c5)" style="fill: #c70039; fill-opacity: 0.99; stroke: #c70039; stroke-opacity: 0.99"/>
    <path d="M 107.63149 444.69945 
C 113.001678 444.69945 118.15264 442.565851 121.949937 438.768555 
C 125.747234 434.971258 127.880832 429.820296 127.880832 424.450107 
C 127.880832 419.079919 125.747234 413.928957 121.949937 410.13166 
C 118.15264 406.334364 113.001678 404.200765 107.63149 404.200765 
C 102.261302 404.200765 97.110339 406.334364 93.313043 410.13166 
C 89.515746 413.928957 87.382148 419.079919 87.382148 424.450107 
C 87.382148 429.820296 89.515746 434.971258 93.313043 438.768555 
C 97.110339 442.565851 102.261302 444.69945 107.63149 444.69945 
z
" clip-path="url(#pc24ef731c5)" style="fill: #c70039; fill-opacity: 0.99; stroke: #c70039; stroke-opacity: 0.99"/>
    <path d="M 174.25133 503.807562 
C 179.527113 503.807562 184.587524 501.711472 188.318066 497.98093 
C 192.048608 494.250388 194.144699 489.189977 194.144699 483.914193 
C 194.144699 478.63841 192.048608 473.577999 188.318066 469.847457 
C 184.587524 466.116915 179.527113 464.020825 174.25133 464.020825 
C 168.975547 464.020825 163.915136 466.116915 160.184594 469.847457 
C 156.454052 473.577999 154.357961 478.63841 154.357961 483.914193 
C 154.357961 489.189977 156.454052 494.250388 160.184594 497.98093 
C 163.915136 501.711472 168.975547 503.807562 174.25133 503.807562 
z
" clip-path="url(#pc24ef731c5)" style="fill: #c70039; fill-opacity: 0.99; stroke: #c70039; stroke-opacity: 0.99"/>
    <path d="M 259.509587 531.255978 
C 264.781868 531.255978 269.838921 529.161278 273.566986 525.433212 
C 277.295052 521.705147 279.389752 516.648095 279.389752 511.375813 
C 279.389752 506.103532 277.295052 501.04648 273.566986 497.318414 
C 269.838921 493.590348 264.781868 491.495649 259.509587 491.495649 
C 254.237306 491.495649 249.180254 493.590348 245.452188 497.318414 
C 241.724122 501.04648 239.629423 506.103532 239.629423 511.375813 
C 239.629423 516.648095 241.724122 521.705147 245.452188 525.433212 
C 249.180254 529.161278 254.237306 531.255978 259.509587 531.255978 
z
" clip-path="url(#pc24ef731c5)" style="fill: #c70039; fill-opacity: 0.99; stroke: #c70039; stroke-opacity: 0.99"/>
    <path d="M 348.664323 521.926972 
C 353.926052 521.926972 358.972982 519.836465 362.693586 516.115861 
C 366.41419 512.395257 368.504696 507.348327 368.504696 502.086599 
C 368.504696 496.82487 366.41419 491.77794 362.693586 488.057336 
C 358.972982 484.336732 353.926052 482.246226 348.664323 482.246226 
C 343.402595 482.246226 338.355665 484.336732 334.635061 488.057336 
C 330.914457 491.77794 328.82395 496.82487 328.82395 502.086599 
C 328.82395 507.348327 330.914457 512.395257 334.635061 516.115861 
C 338.355665 519.836465 343.402595 521.926972 348.664323 521.926972 
z
" clip-path="url(#pc24ef731c5)" style="fill: #c70039; fill-opacity: 0.99; stroke: #c70039; stroke-opacity: 0.99"/>
    <path d="M 426.299888 477.479688 
C 431.558058 477.479688 436.601574 475.390595 440.319661 471.672508 
C 444.037748 467.954421 446.126841 462.910905 446.126841 457.652735 
C 446.126841 452.394566 444.037748 447.35105 440.319661 443.632963 
C 436.601574 439.914876 431.558058 437.825783 426.299888 437.825783 
C 421.041719 437.825783 415.998203 439.914876 412.280116 443.632963 
C 408.562029 447.35105 406.472936 452.394566 406.472936 457.652735 
C 406.472936 462.910905 408.562029 467.954421 412.280116 471.672508 
C 415.998203 475.390595 421.041719 477.479688 426.299888 477.479688 
z
" clip-path="url(#pc24ef731c5)" style="fill: #c70039; fill-opacity: 0.99; stroke: #c70039; stroke-opacity: 0.99"/>
    <path d="M 478.992374 405.122182 
C 484.128009 405.122182 489.053994 403.081772 492.685437 399.450329 
C 496.31688 395.818886 498.35729 390.892901 498.35729 385.757265 
C 498.35729 380.621629 496.31688 375.695644 492.685437 372.064201 
C 489.053994 368.432758 484.128009 366.392348 478.992374 366.392348 
C 473.856738 366.392348 468.930753 368.432758 465.29931 372.064201 
C 461.667867 375.695644 459.627457 380.621629 459.627457 385.757265 
C 459.627457 390.892901 461.667867 395.818886 465.29931 399.450329 
C 468.930753 403.081772 473.856738 405.122182 478.992374 405.122182 
z
" clip-path="url(#pc24ef731c5)" style="fill: #c70039; fill-opacity: 0.99; stroke: #c70039; stroke-opacity: 0.99"/>
   </g>
   <g id="text_1">
    <g id="patch_2">
     <path d="M 455.330066 307.146741 
L 539.931472 307.146741 
L 539.931472 290.516428 
L 455.330066 290.516428 
z
" clip-path="url(#pc24ef731c5)" style="fill: #ffffff; opacity: 0.7; stroke: #000000; stroke-linejoin: miter"/>
    </g>
    <g clip-path="url(#pc24ef731c5)">
     <!-- Steven Spielberg -->
     <g transform="translate(459.290066 301.315022)scale(0.09 -0.09)">
      <defs>
       <path id="DejaVuSans-53" d="M 3425 4513 
L 3425 3897 
Q 3066 4069 2747 4153 
Q 2428 4238 2131 4238 
Q 1616 4238 1336 4038 
Q 1056 3838 1056 3469 
Q 1056 3159 1242 3001 
Q 1428 2844 1947 2747 
L 2328 2669 
Q 3034 2534 3370 2195 
Q 3706 1856 3706 1288 
Q 3706 609 3251 259 
Q 2797 -91 1919 -91 
Q 1588 -91 1214 -16 
Q 841 59 441 206 
L 441 856 
Q 825 641 1194 531 
Q 1563 422 1919 422 
Q 2459 422 2753 634 
Q 3047 847 3047 1241 
Q 3047 1584 2836 1778 
Q 2625 1972 2144 2069 
L 1759 2144 
Q 1053 2284 737 2584 
Q 422 2884 422 3419 
Q 422 4038 858 4394 
Q 1294 4750 2059 4750 
Q 2388 4750 2728 4690 
Q 3069 4631 3425 4513 
z
" transform="scale(0.015625)"/>
       <path id="DejaVuSans-74" d="M 1172 4494 
L 1172 3500 
L 2356 3500 
L 2356 3053 
L 1172 3053 
L 1172 1153 
Q 1172 725 1289 603 
Q 1406 481 1766 481 
L 2356 481 
L 2356 0 
L 1766 0 
Q 1100 0 847 248 
Q 594 497 594 1153 
L 594 3053 
L 172 3053 
L 172 3500 
L 594 3500 
L 594 4494 
L 1172 4494 
z
" transform="scale(0.015625)"/>
       <path id="DejaVuSans-65" d="M 3597 1894 
L 3597 1613 
L 953 1613 
Q 991 1019 1311 708 
Q 1631 397 2203 397 
Q 2534 397 2845 478 
Q 3156 559 3463 722 
L 3463 178 
Q 3153 47 2828 -22 
Q 2503 -91 2169 -91 
Q 1331 -91 842 396 
Q 353 884 353 1716 
Q 353 2575 817 3079 
Q 1281 3584 2069 3584 
Q 2775 3584 3186 3129 
Q 3597 2675 3597 1894 
z
M 3022 2063 
Q 3016 2534 2758 2815 
Q 2500 3097 2075 3097 
Q 1594 3097 1305 2825 
Q 1016 2553 972 2059 
L 3022 2063 
z
" transform="scale(0.015625)"/>
       <path id="DejaVuSans-76" d="M 191 3500 
L 800 3500 
L 1894 563 
L 2988 3500 
L 3597 3500 
L 2284 0 
L 1503 0 
L 191 3500 
z
" transform="scale(0.015625)"/>
       <path id="DejaVuSans-6e" d="M 3513 2113 
L 3513 0 
L 2938 0 
L 2938 2094 
Q 2938 2591 2744 2837 
Q 2550 3084 2163 3084 
Q 1697 3084 1428 2787 
Q 1159 2491 1159 1978 
L 1159 0 
L 581 0 
L 581 3500 
L 1159 3500 
L 1159 2956 
Q 1366 3272 1645 3428 
Q 1925 3584 2291 3584 
Q 2894 3584 3203 3211 
Q 3513 2838 3513 2113 
z
" transform="scale(0.015625)"/>
       <path id="DejaVuSans-20" transform="scale(0.015625)"/>
       <path id="DejaVuSans-70" d="M 1159 525 
L 1159 -1331 
L 581 -1331 
L 581 3500 
L 1159 3500 
L 1159 2969 
Q 1341 3281 1617 3432 
Q 1894 3584 2278 3584 
Q 2916 3584 3314 3078 
Q 3713 2572 3713 1747 
Q 3713 922 3314 415 
Q 2916 -91 2278 -91 
Q 1894 -91 1617 61 
Q 1341 213 1159 525 
z
M 3116 1747 
Q 3116 2381 2855 2742 
Q 2594 3103 2138 3103 
Q 1681 3103 1420 2742 
Q 1159 2381 1159 1747 
Q 1159 1113 1420 752 
Q 1681 391 2138 391 
Q 2594 391 2855 752 
Q 3116 1113 3116 1747 
z
" transform="scale(0.015625)"/>
       <path id="DejaVuSans-69" d="M 603 3500 
L 1178 3500 
L 1178 0 
L 603 0 
L 603 3500 
z
M 603 4863 
L 1178 4863 
L 1178 4134 
L 603 4134 
L 603 4863 
z
" transform="scale(0.015625)"/>
       <path id="DejaVuSans-6c" d="M 603 4863 
L 1178 4863 
L 1178 0 
L 603 0 
L 603 4863 
z
" transform="scale(0.015625)"/>
       <path id="DejaVuSans-62" d="M 3116 1747 
Q 3116 2381 2855 2742 
Q 2594 3103 2138 3103 
Q 1681 3103 1420 2742 
Q 1159 2381 1159 1747 
Q 1159 1113 1420 752 
Q 1681 391 2138 391 
Q 2594 391 2855 752 
Q 3116 1113 3116 1747 
z
M 1159 2969 
Q 1341 3281 1617 3432 
Q 1894 3584 2278 3584 
Q 2916 3584 3314 3078 
Q 3713 2572 3713 1747 
Q 3713 922 3314 415 
Q 2916 -91 2278 -91 
Q 1894 -91 1617 61 
Q 1341 213 1159 525 
L 1159 0 
L 581 0 
L 581 4863 
L 1159 4863 
L 1159 2969 
z
" transform="scale(0.015625)"/>
       <path id="DejaVuSans-72" d="M 2631 2963 
Q 2534 3019 2420 3045 
Q 2306 3072 2169 3072 
Q 1681 3072 1420 2755 
Q 1159 2438 1159 1844 
L 1159 0 
L 581 0 
L 581 3500 
L 1159 3500 
L 1159 2956 
Q 1341 3275 1631 3429 
Q 1922 3584 2338 3584 
Q 2397 3584 2469 3576 
Q 2541 3569 2628 3553 
L 2631 2963 
z
" transform="scale(0.015625)"/>
       <path id="DejaVuSans-67" d="M 2906 1791 
Q 2906 2416 2648 2759 
Q 2391 3103 1925 3103 
Q 1463 3103 1205 2759 
Q 947 2416 947 1791 
Q 947 1169 1205 825 
Q 1463 481 1925 481 
Q 2391 481 2648 825 
Q 2906 1169 2906 1791 
z
M 3481 434 
Q 3481 -459 3084 -895 
Q 2688 -1331 1869 -1331 
Q 1566 -1331 1297 -1286 
Q 1028 -1241 775 -1147 
L 775 -588 
Q 1028 -725 1275 -790 
Q 1522 -856 1778 -856 
Q 2344 -856 2625 -561 
Q 2906 -266 2906 331 
L 2906 616 
Q 2728 306 2450 153 
Q 2172 0 1784 0 
Q 1141 0 747 490 
Q 353 981 353 1791 
Q 353 2603 747 3093 
Q 1141 3584 1784 3584 
Q 2172 3584 2450 3431 
Q 2728 3278 2906 2969 
L 2906 3500 
L 3481 3500 
L 3481 434 
z
" transform="scale(0.015625)"/>
      </defs>
      <use xlink:href="#DejaVuSans-53"/>
      <use xlink:href="#DejaVuSans-74" x="63.476562"/>
      <use xlink:href="#DejaVuSans-65" x="102.685547"/>
      <use xlink:href="#DejaVuSans-76" x="164.208984"/>
      <use xlink:href="#DejaVuSans-65" x="223.388672"/>
      <use xlink:href="#DejaVuSans-6e" x="284.912109"/>
      <use xlink:href="#DejaVuSans-20" x="348.291016"/>
      <use xlink:href="#DejaVuSans-53" x="380.078125"/>
      <use xlink:href="#DejaVuSans-70" x="443.554688"/>
      <use xlink:href="#DejaVuSans-69" x="507.03125"/>
      <use xlink:href="#DejaVuSans-65" x="534.814453"/>
      <use xlink:href="#DejaVuSans-6c" x="596.337891"/>
      <use xlink:href="#DejaVuSans-62" x="624.121094"/>
      <use xlink:href="#DejaVuSans-65" x="687.597656"/>
      <use xlink:href="#DejaVuSans-72" x="749.121094"/>
      <use xlink:href="#DejaVuSans-67" x="788.484375"/>
     </g>
    </g>
   </g>
   <g id="text_2">
    <g id="patch_3">
     <path d="M 438.282817 220.221028 
L 519.701879 220.221028 
L 519.701879 203.590716 
L 438.282817 203.590716 
z
" clip-path="url(#pc24ef731c5)" style="fill: #ffffff; opacity: 0.7; stroke: #000000; stroke-linejoin: miter"/>
    </g>
    <g clip-path="url(#pc24ef731c5)">
     <!-- Alfred Hitchcock -->
     <g transform="translate(442.242817 214.38931)scale(0.09 -0.09)">
      <defs>
       <path id="DejaVuSans-41" d="M 2188 4044 
L 1331 1722 
L 3047 1722 
L 2188 4044 
z
M 1831 4666 
L 2547 4666 
L 4325 0 
L 3669 0 
L 3244 1197 
L 1141 1197 
L 716 0 
L 50 0 
L 1831 4666 
z
" transform="scale(0.015625)"/>
       <path id="DejaVuSans-66" d="M 2375 4863 
L 2375 4384 
L 1825 4384 
Q 1516 4384 1395 4259 
Q 1275 4134 1275 3809 
L 1275 3500 
L 2222 3500 
L 2222 3053 
L 1275 3053 
L 1275 0 
L 697 0 
L 697 3053 
L 147 3053 
L 147 3500 
L 697 3500 
L 697 3744 
Q 697 4328 969 4595 
Q 1241 4863 1831 4863 
L 2375 4863 
z
" transform="scale(0.015625)"/>
       <path id="DejaVuSans-64" d="M 2906 2969 
L 2906 4863 
L 3481 4863 
L 3481 0 
L 2906 0 
L 2906 525 
Q 2725 213 2448 61 
Q 2172 -91 1784 -91 
Q 1150 -91 751 415 
Q 353 922 353 1747 
Q 353 2572 751 3078 
Q 1150 3584 1784 3584 
Q 2172 3584 2448 3432 
Q 2725 3281 2906 2969 
z
M 947 1747 
Q 947 1113 1208 752 
Q 1469 391 1925 391 
Q 2381 391 2643 752 
Q 2906 1113 2906 1747 
Q 2906 2381 2643 2742 
Q 2381 3103 1925 3103 
Q 1469 3103 1208 2742 
Q 947 2381 947 1747 
z
" transform="scale(0.015625)"/>
       <path id="DejaVuSans-48" d="M 628 4666 
L 1259 4666 
L 1259 2753 
L 3553 2753 
L 3553 4666 
L 4184 4666 
L 4184 0 
L 3553 0 
L 3553 2222 
L 1259 2222 
L 1259 0 
L 628 0 
L 628 4666 
z
" transform="scale(0.015625)"/>
       <path id="DejaVuSans-63" d="M 3122 3366 
L 3122 2828 
Q 2878 2963 2633 3030 
Q 2388 3097 2138 3097 
Q 1578 3097 1268 2742 
Q 959 2388 959 1747 
Q 959 1106 1268 751 
Q 1578 397 2138 397 
Q 2388 397 2633 464 
Q 2878 531 3122 666 
L 3122 134 
Q 2881 22 2623 -34 
Q 2366 -91 2075 -91 
Q 1284 -91 818 406 
Q 353 903 353 1747 
Q 353 2603 823 3093 
Q 1294 3584 2113 3584 
Q 2378 3584 2631 3529 
Q 2884 3475 3122 3366 
z
" transform="scale(0.015625)"/>
       <path id="DejaVuSans-68" d="M 3513 2113 
L 3513 0 
L 2938 0 
L 2938 2094 
Q 2938 2591 2744 2837 
Q 2550 3084 2163 3084 
Q 1697 3084 1428 2787 
Q 1159 2491 1159 1978 
L 1159 0 
L 581 0 
L 581 4863 
L 1159 4863 
L 1159 2956 
Q 1366 3272 1645 3428 
Q 1925 3584 2291 3584 
Q 2894 3584 3203 3211 
Q 3513 2838 3513 2113 
z
" transform="scale(0.015625)"/>
       <path id="DejaVuSans-6f" d="M 1959 3097 
Q 1497 3097 1228 2736 
Q 959 2375 959 1747 
Q 959 1119 1226 758 
Q 1494 397 1959 397 
Q 2419 397 2687 759 
Q 2956 1122 2956 1747 
Q 2956 2369 2687 2733 
Q 2419 3097 1959 3097 
z
M 1959 3584 
Q 2709 3584 3137 3096 
Q 3566 2609 3566 1747 
Q 3566 888 3137 398 
Q 2709 -91 1959 -91 
Q 1206 -91 779 398 
Q 353 888 353 1747 
Q 353 2609 779 3096 
Q 1206 3584 1959 3584 
z
" transform="scale(0.015625)"/>
       <path id="DejaVuSans-6b" d="M 581 4863 
L 1159 4863 
L 1159 1991 
L 2875 3500 
L 3609 3500 
L 1753 1863 
L 3688 0 
L 2938 0 
L 1159 1709 
L 1159 0 
L 581 0 
L 581 4863 
z
" transform="scale(0.015625)"/>
      </defs>
      <use xlink:href="#DejaVuSans-41"/>
      <use xlink:href="#DejaVuSans-6c" x="68.408203"/>
      <use xlink:href="#DejaVuSans-66" x="96.191406"/>
      <use xlink:href="#DejaVuSans-72" x="131.396484"/>
      <use xlink:href="#DejaVuSans-65" x="170.259766"/>
      <use xlink:href="#DejaVuSans-64" x="231.783203"/>
      <use xlink:href="#DejaVuSans-20" x="295.259766"/>
      <use xlink:href="#DejaVuSans-48" x="327.046875"/>
      <use xlink:href="#DejaVuSans-69" x="402.242188"/>
      <use xlink:href="#DejaVuSans-74" x="430.025391"/>
      <use xlink:href="#DejaVuSans-63" x="469.234375"/>
      <use xlink:href="#DejaVuSans-68" x="524.214844"/>
      <use xlink:href="#DejaVuSans-63" x="587.59375"/>
      <use xlink:href="#DejaVuSans-6f" x="642.574219"/>
      <use xlink:href="#DejaVuSans-63" x="703.755859"/>
      <use xlink:href="#DejaVuSans-6b" x="758.736328"/>
     </g>
    </g>
   </g>
   <g id="text_3">
    <g id="patch_4">
     <path d="M 395.165475 148.325552 
L 457.434225 148.325552 
L 457.434225 131.695239 
L 395.165475 131.695239 
z
" clip-path="url(#pc24ef731c5)" style="fill: #ffffff; opacity: 0.7; stroke: #000000; stroke-linejoin: miter"/>
    </g>
    <g clip-path="url(#pc24ef731c5)">
     <!-- Michael Bay -->
     <g transform="translate(399.125475 142.493833)scale(0.09 -0.09)">
      <defs>
       <path id="DejaVuSans-4d" d="M 628 4666 
L 1569 4666 
L 2759 1491 
L 3956 4666 
L 4897 4666 
L 4897 0 
L 4281 0 
L 4281 4097 
L 3078 897 
L 2444 897 
L 1241 4097 
L 1241 0 
L 628 0 
L 628 4666 
z
" transform="scale(0.015625)"/>
       <path id="DejaVuSans-61" d="M 2194 1759 
Q 1497 1759 1228 1600 
Q 959 1441 959 1056 
Q 959 750 1161 570 
Q 1363 391 1709 391 
Q 2188 391 2477 730 
Q 2766 1069 2766 1631 
L 2766 1759 
L 2194 1759 
z
M 3341 1997 
L 3341 0 
L 2766 0 
L 2766 531 
Q 2569 213 2275 61 
Q 1981 -91 1556 -91 
Q 1019 -91 701 211 
Q 384 513 384 1019 
Q 384 1609 779 1909 
Q 1175 2209 1959 2209 
L 2766 2209 
L 2766 2266 
Q 2766 2663 2505 2880 
Q 2244 3097 1772 3097 
Q 1472 3097 1187 3025 
Q 903 2953 641 2809 
L 641 3341 
Q 956 3463 1253 3523 
Q 1550 3584 1831 3584 
Q 2591 3584 2966 3190 
Q 3341 2797 3341 1997 
z
" transform="scale(0.015625)"/>
       <path id="DejaVuSans-42" d="M 1259 2228 
L 1259 519 
L 2272 519 
Q 2781 519 3026 730 
Q 3272 941 3272 1375 
Q 3272 1813 3026 2020 
Q 2781 2228 2272 2228 
L 1259 2228 
z
M 1259 4147 
L 1259 2741 
L 2194 2741 
Q 2656 2741 2882 2914 
Q 3109 3088 3109 3444 
Q 3109 3797 2882 3972 
Q 2656 4147 2194 4147 
L 1259 4147 
z
M 628 4666 
L 2241 4666 
Q 2963 4666 3353 4366 
Q 3744 4066 3744 3513 
Q 3744 3084 3544 2831 
Q 3344 2578 2956 2516 
Q 3422 2416 3680 2098 
Q 3938 1781 3938 1306 
Q 3938 681 3513 340 
Q 3088 0 2303 0 
L 628 0 
L 628 4666 
z
" transform="scale(0.015625)"/>
       <path id="DejaVuSans-79" d="M 2059 -325 
Q 1816 -950 1584 -1140 
Q 1353 -1331 966 -1331 
L 506 -1331 
L 506 -850 
L 844 -850 
Q 1081 -850 1212 -737 
Q 1344 -625 1503 -206 
L 1606 56 
L 191 3500 
L 800 3500 
L 1894 763 
L 2988 3500 
L 3597 3500 
L 2059 -325 
z
" transform="scale(0.015625)"/>
      </defs>
      <use xlink:href="#DejaVuSans-4d"/>
      <use xlink:href="#DejaVuSans-69" x="86.279297"/>
      <use xlink:href="#DejaVuSans-63" x="114.0625"/>
      <use xlink:href="#DejaVuSans-68" x="169.042969"/>
      <use xlink:href="#DejaVuSans-61" x="232.421875"/>
      <use xlink:href="#DejaVuSans-65" x="293.701172"/>
      <use xlink:href="#DejaVuSans-6c" x="355.224609"/>
      <use xlink:href="#DejaVuSans-20" x="383.007812"/>
      <use xlink:href="#DejaVuSans-42" x="414.794922"/>
      <use xlink:href="#DejaVuSans-61" x="483.398438"/>
      <use xlink:href="#DejaVuSans-79" x="544.677734"/>
     </g>
    </g>
   </g>
   <g id="text_4">
    <g id="patch_5">
     <path d="M 314.45726 103.891714 
L 382.871322 103.891714 
L 382.871322 87.261401 
L 314.45726 87.261401 
z
" clip-path="url(#pc24ef731c5)" style="fill: #ffffff; opacity: 0.7; stroke: #000000; stroke-linejoin: miter"/>
    </g>
    <g clip-path="url(#pc24ef731c5)">
     <!-- Peter Jackson -->
     <g transform="translate(318.41726 98.059995)scale(0.09 -0.09)">
      <defs>
       <path id="DejaVuSans-50" d="M 1259 4147 
L 1259 2394 
L 2053 2394 
Q 2494 2394 2734 2622 
Q 2975 2850 2975 3272 
Q 2975 3691 2734 3919 
Q 2494 4147 2053 4147 
L 1259 4147 
z
M 628 4666 
L 2053 4666 
Q 2838 4666 3239 4311 
Q 3641 3956 3641 3272 
Q 3641 2581 3239 2228 
Q 2838 1875 2053 1875 
L 1259 1875 
L 1259 0 
L 628 0 
L 628 4666 
z
" transform="scale(0.015625)"/>
       <path id="DejaVuSans-4a" d="M 628 4666 
L 1259 4666 
L 1259 325 
Q 1259 -519 939 -900 
Q 619 -1281 -91 -1281 
L -331 -1281 
L -331 -750 
L -134 -750 
Q 284 -750 456 -515 
Q 628 -281 628 325 
L 628 4666 
z
" transform="scale(0.015625)"/>
       <path id="DejaVuSans-73" d="M 2834 3397 
L 2834 2853 
Q 2591 2978 2328 3040 
Q 2066 3103 1784 3103 
Q 1356 3103 1142 2972 
Q 928 2841 928 2578 
Q 928 2378 1081 2264 
Q 1234 2150 1697 2047 
L 1894 2003 
Q 2506 1872 2764 1633 
Q 3022 1394 3022 966 
Q 3022 478 2636 193 
Q 2250 -91 1575 -91 
Q 1294 -91 989 -36 
Q 684 19 347 128 
L 347 722 
Q 666 556 975 473 
Q 1284 391 1588 391 
Q 1994 391 2212 530 
Q 2431 669 2431 922 
Q 2431 1156 2273 1281 
Q 2116 1406 1581 1522 
L 1381 1569 
Q 847 1681 609 1914 
Q 372 2147 372 2553 
Q 372 3047 722 3315 
Q 1072 3584 1716 3584 
Q 2034 3584 2315 3537 
Q 2597 3491 2834 3397 
z
" transform="scale(0.015625)"/>
      </defs>
      <use xlink:href="#DejaVuSans-50"/>
      <use xlink:href="#DejaVuSans-65" x="56.677734"/>
      <use xlink:href="#DejaVuSans-74" x="118.201172"/>
      <use xlink:href="#DejaVuSans-65" x="157.410156"/>
      <use xlink:href="#DejaVuSans-72" x="218.933594"/>
      <use xlink:href="#DejaVuSans-20" x="260.046875"/>
      <use xlink:href="#DejaVuSans-4a" x="291.833984"/>
      <use xlink:href="#DejaVuSans-61" x="321.326172"/>
      <use xlink:href="#DejaVuSans-63" x="382.605469"/>
      <use xlink:href="#DejaVuSans-6b" x="437.585938"/>
      <use xlink:href="#DejaVuSans-73" x="495.496094"/>
      <use xlink:href="#DejaVuSans-6f" x="547.595703"/>
      <use xlink:href="#DejaVuSans-6e" x="608.777344"/>
     </g>
    </g>
   </g>
   <g id="text_5">
    <g id="patch_6">
     <path d="M 212.314392 94.602512 
L 306.704705 94.602512 
L 306.704705 77.9722 
L 212.314392 77.9722 
z
" clip-path="url(#pc24ef731c5)" style="fill: #ffffff; opacity: 0.7; stroke: #000000; stroke-linejoin: miter"/>
    </g>
    <g clip-path="url(#pc24ef731c5)">
     <!-- Paul W.S. Anderson -->
     <g transform="translate(216.274392 88.770793)scale(0.09 -0.09)">
      <defs>
       <path id="DejaVuSans-75" d="M 544 1381 
L 544 3500 
L 1119 3500 
L 1119 1403 
Q 1119 906 1312 657 
Q 1506 409 1894 409 
Q 2359 409 2629 706 
Q 2900 1003 2900 1516 
L 2900 3500 
L 3475 3500 
L 3475 0 
L 2900 0 
L 2900 538 
Q 2691 219 2414 64 
Q 2138 -91 1772 -91 
Q 1169 -91 856 284 
Q 544 659 544 1381 
z
M 1991 3584 
L 1991 3584 
z
" transform="scale(0.015625)"/>
       <path id="DejaVuSans-57" d="M 213 4666 
L 850 4666 
L 1831 722 
L 2809 4666 
L 3519 4666 
L 4500 722 
L 5478 4666 
L 6119 4666 
L 4947 0 
L 4153 0 
L 3169 4050 
L 2175 0 
L 1381 0 
L 213 4666 
z
" transform="scale(0.015625)"/>
       <path id="DejaVuSans-2e" d="M 684 794 
L 1344 794 
L 1344 0 
L 684 0 
L 684 794 
z
" transform="scale(0.015625)"/>
      </defs>
      <use xlink:href="#DejaVuSans-50"/>
      <use xlink:href="#DejaVuSans-61" x="55.802734"/>
      <use xlink:href="#DejaVuSans-75" x="117.082031"/>
      <use xlink:href="#DejaVuSans-6c" x="180.460938"/>
      <use xlink:href="#DejaVuSans-20" x="208.244141"/>
      <use xlink:href="#DejaVuSans-57" x="240.03125"/>
      <use xlink:href="#DejaVuSans-2e" x="327.408203"/>
      <use xlink:href="#DejaVuSans-53" x="359.195312"/>
      <use xlink:href="#DejaVuSans-2e" x="422.671875"/>
      <use xlink:href="#DejaVuSans-20" x="454.458984"/>
      <use xlink:href="#DejaVuSans-41" x="486.246094"/>
      <use xlink:href="#DejaVuSans-6e" x="554.654297"/>
      <use xlink:href="#DejaVuSans-64" x="618.033203"/>
      <use xlink:href="#DejaVuSans-65" x="681.509766"/>
      <use xlink:href="#DejaVuSans-72" x="743.033203"/>
      <use xlink:href="#DejaVuSans-73" x="784.146484"/>
      <use xlink:href="#DejaVuSans-6f" x="836.246094"/>
      <use xlink:href="#DejaVuSans-6e" x="897.427734"/>
     </g>
    </g>
   </g>
   <g id="text_6">
    <g id="patch_7">
     <path d="M 134.344032 122.064145 
L 214.158564 122.064145 
L 214.158564 105.433832 
L 134.344032 105.433832 
z
" clip-path="url(#pc24ef731c5)" style="fill: #ffffff; opacity: 0.7; stroke: #000000; stroke-linejoin: miter"/>
    </g>
    <g clip-path="url(#pc24ef731c5)">
     <!-- Martin Scorsese -->
     <g transform="translate(138.304032 116.232426)scale(0.09 -0.09)">
      <use xlink:href="#DejaVuSans-4d"/>
      <use xlink:href="#DejaVuSans-61" x="86.279297"/>
      <use xlink:href="#DejaVuSans-72" x="147.558594"/>
      <use xlink:href="#DejaVuSans-74" x="188.671875"/>
      <use xlink:href="#DejaVuSans-69" x="227.880859"/>
      <use xlink:href="#DejaVuSans-6e" x="255.664062"/>
      <use xlink:href="#DejaVuSans-20" x="319.042969"/>
      <use xlink:href="#DejaVuSans-53" x="350.830078"/>
      <use xlink:href="#DejaVuSans-63" x="414.306641"/>
      <use xlink:href="#DejaVuSans-6f" x="469.287109"/>
      <use xlink:href="#DejaVuSans-72" x="530.46875"/>
      <use xlink:href="#DejaVuSans-73" x="571.582031"/>
      <use xlink:href="#DejaVuSans-65" x="623.681641"/>
      <use xlink:href="#DejaVuSans-73" x="685.205078"/>
      <use xlink:href="#DejaVuSans-65" x="737.304688"/>
     </g>
    </g>
   </g>
   <g id="text_7">
    <g id="patch_8">
     <path d="M 75.829836 181.528231 
L 139.433118 181.528231 
L 139.433118 164.897918 
L 75.829836 164.897918 
z
" clip-path="url(#pc24ef731c5)" style="fill: #ffffff; opacity: 0.7; stroke: #000000; stroke-linejoin: miter"/>
    </g>
    <g clip-path="url(#pc24ef731c5)">
     <!-- Woody Allen -->
     <g transform="translate(79.789836 175.696512)scale(0.09 -0.09)">
      <use xlink:href="#DejaVuSans-57"/>
      <use xlink:href="#DejaVuSans-6f" x="93.001953"/>
      <use xlink:href="#DejaVuSans-6f" x="154.183594"/>
      <use xlink:href="#DejaVuSans-64" x="215.365234"/>
      <use xlink:href="#DejaVuSans-79" x="278.841797"/>
      <use xlink:href="#DejaVuSans-20" x="338.021484"/>
      <use xlink:href="#DejaVuSans-41" x="369.808594"/>
      <use xlink:href="#DejaVuSans-6c" x="438.216797"/>
      <use xlink:href="#DejaVuSans-6c" x="466"/>
      <use xlink:href="#DejaVuSans-65" x="493.783203"/>
      <use xlink:href="#DejaVuSans-6e" x="555.306641"/>
     </g>
    </g>
   </g>
   <g id="text_8">
    <g id="patch_9">
     <path d="M 30.74095 262.712916 
L 111.597512 262.712916 
L 111.597512 246.082603 
L 30.74095 246.082603 
z
" clip-path="url(#pc24ef731c5)" style="fill: #ffffff; opacity: 0.7; stroke: #000000; stroke-linejoin: miter"/>
    </g>
    <g clip-path="url(#pc24ef731c5)">
     <!-- Carlos Saldanha -->
     <g transform="translate(34.70095 256.881197)scale(0.09 -0.09)">
      <defs>
       <path id="DejaVuSans-43" d="M 4122 4306 
L 4122 3641 
Q 3803 3938 3442 4084 
Q 3081 4231 2675 4231 
Q 1875 4231 1450 3742 
Q 1025 3253 1025 2328 
Q 1025 1406 1450 917 
Q 1875 428 2675 428 
Q 3081 428 3442 575 
Q 3803 722 4122 1019 
L 4122 359 
Q 3791 134 3420 21 
Q 3050 -91 2638 -91 
Q 1578 -91 968 557 
Q 359 1206 359 2328 
Q 359 3453 968 4101 
Q 1578 4750 2638 4750 
Q 3056 4750 3426 4639 
Q 3797 4528 4122 4306 
z
" transform="scale(0.015625)"/>
      </defs>
      <use xlink:href="#DejaVuSans-43"/>
      <use xlink:href="#DejaVuSans-61" x="69.824219"/>
      <use xlink:href="#DejaVuSans-72" x="131.103516"/>
      <use xlink:href="#DejaVuSans-6c" x="172.216797"/>
      <use xlink:href="#DejaVuSans-6f" x="200"/>
      <use xlink:href="#DejaVuSans-73" x="261.181641"/>
      <use xlink:href="#DejaVuSans-20" x="313.28125"/>
      <use xlink:href="#DejaVuSans-53" x="345.068359"/>
      <use xlink:href="#DejaVuSans-61" x="408.544922"/>
      <use xlink:href="#DejaVuSans-6c" x="469.824219"/>
      <use xlink:href="#DejaVuSans-64" x="497.607422"/>
      <use xlink:href="#DejaVuSans-61" x="561.083984"/>
      <use xlink:href="#DejaVuSans-6e" x="622.363281"/>
      <use xlink:href="#DejaVuSans-68" x="685.742188"/>
      <use xlink:href="#DejaVuSans-61" x="749.121094"/>
     </g>
    </g>
   </g>
   <g id="text_9">
    <g id="patch_10">
     <path d="M 29.18354 351.580604 
L 113.154947 351.580604 
L 113.154947 334.950292 
L 29.18354 334.950292 
z
" clip-path="url(#pc24ef731c5)" style="fill: #ffffff; opacity: 0.7; stroke: #000000; stroke-linejoin: miter"/>
    </g>
    <g clip-path="url(#pc24ef731c5)">
     <!-- Robert Zemeckis -->
     <g transform="translate(33.14354 345.748885)scale(0.09 -0.09)">
      <defs>
       <path id="DejaVuSans-52" d="M 2841 2188 
Q 3044 2119 3236 1894 
Q 3428 1669 3622 1275 
L 4263 0 
L 3584 0 
L 2988 1197 
Q 2756 1666 2539 1819 
Q 2322 1972 1947 1972 
L 1259 1972 
L 1259 0 
L 628 0 
L 628 4666 
L 2053 4666 
Q 2853 4666 3247 4331 
Q 3641 3997 3641 3322 
Q 3641 2881 3436 2590 
Q 3231 2300 2841 2188 
z
M 1259 4147 
L 1259 2491 
L 2053 2491 
Q 2509 2491 2742 2702 
Q 2975 2913 2975 3322 
Q 2975 3731 2742 3939 
Q 2509 4147 2053 4147 
L 1259 4147 
z
" transform="scale(0.015625)"/>
       <path id="DejaVuSans-5a" d="M 359 4666 
L 4025 4666 
L 4025 4184 
L 1075 531 
L 4097 531 
L 4097 0 
L 288 0 
L 288 481 
L 3238 4134 
L 359 4134 
L 359 4666 
z
" transform="scale(0.015625)"/>
       <path id="DejaVuSans-6d" d="M 3328 2828 
Q 3544 3216 3844 3400 
Q 4144 3584 4550 3584 
Q 5097 3584 5394 3201 
Q 5691 2819 5691 2113 
L 5691 0 
L 5113 0 
L 5113 2094 
Q 5113 2597 4934 2840 
Q 4756 3084 4391 3084 
Q 3944 3084 3684 2787 
Q 3425 2491 3425 1978 
L 3425 0 
L 2847 0 
L 2847 2094 
Q 2847 2600 2669 2842 
Q 2491 3084 2119 3084 
Q 1678 3084 1418 2786 
Q 1159 2488 1159 1978 
L 1159 0 
L 581 0 
L 581 3500 
L 1159 3500 
L 1159 2956 
Q 1356 3278 1631 3431 
Q 1906 3584 2284 3584 
Q 2666 3584 2933 3390 
Q 3200 3197 3328 2828 
z
" transform="scale(0.015625)"/>
      </defs>
      <use xlink:href="#DejaVuSans-52"/>
      <use xlink:href="#DejaVuSans-6f" x="64.982422"/>
      <use xlink:href="#DejaVuSans-62" x="126.164062"/>
      <use xlink:href="#DejaVuSans-65" x="189.640625"/>
      <use xlink:href="#DejaVuSans-72" x="251.164062"/>
      <use xlink:href="#DejaVuSans-74" x="292.277344"/>
      <use xlink:href="#DejaVuSans-20" x="331.486328"/>
      <use xlink:href="#DejaVuSans-5a" x="363.273438"/>
      <use xlink:href="#DejaVuSans-65" x="431.779297"/>
      <use xlink:href="#DejaVuSans-6d" x="493.302734"/>
      <use xlink:href="#DejaVuSans-65" x="590.714844"/>
      <use xlink:href="#DejaVuSans-63" x="652.238281"/>
      <use xlink:href="#DejaVuSans-6b" x="707.21875"/>
      <use xlink:href="#DejaVuSans-69" x="765.128906"/>
      <use xlink:href="#DejaVuSans-73" x="792.912109"/>
     </g>
    </g>
   </g>
   <g id="text_10">
    <g id="patch_11">
     <path d="M 78.841334 432.765264 
L 136.421646 432.765264 
L 136.421646 416.134951 
L 78.841334 416.134951 
z
" clip-path="url(#pc24ef731c5)" style="fill: #ffffff; opacity: 0.7; stroke: #000000; stroke-linejoin: miter"/>
    </g>
    <g clip-path="url(#pc24ef731c5)">
     <!-- Tim Burton -->
     <g transform="translate(82.801334 426.933545)scale(0.09 -0.09)">
      <defs>
       <path id="DejaVuSans-54" d="M -19 4666 
L 3928 4666 
L 3928 4134 
L 2272 4134 
L 2272 0 
L 1638 0 
L 1638 4134 
L -19 4134 
L -19 4666 
z
" transform="scale(0.015625)"/>
      </defs>
      <use xlink:href="#DejaVuSans-54"/>
      <use xlink:href="#DejaVuSans-69" x="57.958984"/>
      <use xlink:href="#DejaVuSans-6d" x="85.742188"/>
      <use xlink:href="#DejaVuSans-20" x="183.154297"/>
      <use xlink:href="#DejaVuSans-42" x="214.941406"/>
      <use xlink:href="#DejaVuSans-75" x="283.544922"/>
      <use xlink:href="#DejaVuSans-72" x="346.923828"/>
      <use xlink:href="#DejaVuSans-74" x="388.037109"/>
      <use xlink:href="#DejaVuSans-6f" x="427.246094"/>
      <use xlink:href="#DejaVuSans-6e" x="488.427734"/>
     </g>
    </g>
   </g>
   <g id="text_11">
    <g id="patch_12">
     <path d="M 135.63008 492.22935 
L 212.87258 492.22935 
L 212.87258 475.599037 
L 135.63008 475.599037 
z
" clip-path="url(#pc24ef731c5)" style="fill: #ffffff; opacity: 0.7; stroke: #000000; stroke-linejoin: miter"/>
    </g>
    <g clip-path="url(#pc24ef731c5)">
     <!-- Hamilton Luske -->
     <g transform="translate(139.59008 486.397631)scale(0.09 -0.09)">
      <defs>
       <path id="DejaVuSans-4c" d="M 628 4666 
L 1259 4666 
L 1259 531 
L 3531 531 
L 3531 0 
L 628 0 
L 628 4666 
z
" transform="scale(0.015625)"/>
      </defs>
      <use xlink:href="#DejaVuSans-48"/>
      <use xlink:href="#DejaVuSans-61" x="75.195312"/>
      <use xlink:href="#DejaVuSans-6d" x="136.474609"/>
      <use xlink:href="#DejaVuSans-69" x="233.886719"/>
      <use xlink:href="#DejaVuSans-6c" x="261.669922"/>
      <use xlink:href="#DejaVuSans-74" x="289.453125"/>
      <use xlink:href="#DejaVuSans-6f" x="328.662109"/>
      <use xlink:href="#DejaVuSans-6e" x="389.84375"/>
      <use xlink:href="#DejaVuSans-20" x="453.222656"/>
      <use xlink:href="#DejaVuSans-4c" x="485.009766"/>
      <use xlink:href="#DejaVuSans-75" x="538.972656"/>
      <use xlink:href="#DejaVuSans-73" x="602.351562"/>
      <use xlink:href="#DejaVuSans-6b" x="654.451172"/>
      <use xlink:href="#DejaVuSans-65" x="708.736328"/>
     </g>
    </g>
   </g>
   <g id="text_12">
    <g id="patch_13">
     <path d="M 220.944587 519.690969 
L 298.074587 519.690969 
L 298.074587 503.060657 
L 220.944587 503.060657 
z
" clip-path="url(#pc24ef731c5)" style="fill: #ffffff; opacity: 0.7; stroke: #000000; stroke-linejoin: miter"/>
    </g>
    <g clip-path="url(#pc24ef731c5)">
     <!-- Clyde Geronimi -->
     <g transform="translate(224.904587 513.859251)scale(0.09 -0.09)">
      <defs>
       <path id="DejaVuSans-47" d="M 3809 666 
L 3809 1919 
L 2778 1919 
L 2778 2438 
L 4434 2438 
L 4434 434 
Q 4069 175 3628 42 
Q 3188 -91 2688 -91 
Q 1594 -91 976 548 
Q 359 1188 359 2328 
Q 359 3472 976 4111 
Q 1594 4750 2688 4750 
Q 3144 4750 3555 4637 
Q 3966 4525 4313 4306 
L 4313 3634 
Q 3963 3931 3569 4081 
Q 3175 4231 2741 4231 
Q 1884 4231 1454 3753 
Q 1025 3275 1025 2328 
Q 1025 1384 1454 906 
Q 1884 428 2741 428 
Q 3075 428 3337 486 
Q 3600 544 3809 666 
z
" transform="scale(0.015625)"/>
      </defs>
      <use xlink:href="#DejaVuSans-43"/>
      <use xlink:href="#DejaVuSans-6c" x="69.824219"/>
      <use xlink:href="#DejaVuSans-79" x="97.607422"/>
      <use xlink:href="#DejaVuSans-64" x="156.787109"/>
      <use xlink:href="#DejaVuSans-65" x="220.263672"/>
      <use xlink:href="#DejaVuSans-20" x="281.787109"/>
      <use xlink:href="#DejaVuSans-47" x="313.574219"/>
      <use xlink:href="#DejaVuSans-65" x="391.064453"/>
      <use xlink:href="#DejaVuSans-72" x="452.587891"/>
      <use xlink:href="#DejaVuSans-6f" x="491.451172"/>
      <use xlink:href="#DejaVuSans-6e" x="552.632812"/>
      <use xlink:href="#DejaVuSans-69" x="616.011719"/>
      <use xlink:href="#DejaVuSans-6d" x="643.794922"/>
      <use xlink:href="#DejaVuSans-69" x="741.207031"/>
     </g>
    </g>
   </g>
   <g id="text_13">
    <g id="patch_14">
     <path d="M 296.086042 510.401755 
L 401.242605 510.401755 
L 401.242605 493.771442 
L 296.086042 493.771442 
z
" clip-path="url(#pc24ef731c5)" style="fill: #ffffff; opacity: 0.7; stroke: #000000; stroke-linejoin: miter"/>
    </g>
    <g clip-path="url(#pc24ef731c5)">
     <!-- Wolfgang Reitherman -->
     <g transform="translate(300.046042 504.570036)scale(0.09 -0.09)">
      <use xlink:href="#DejaVuSans-57"/>
      <use xlink:href="#DejaVuSans-6f" x="93.001953"/>
      <use xlink:href="#DejaVuSans-6c" x="154.183594"/>
      <use xlink:href="#DejaVuSans-66" x="181.966797"/>
      <use xlink:href="#DejaVuSans-67" x="217.171875"/>
      <use xlink:href="#DejaVuSans-61" x="280.648438"/>
      <use xlink:href="#DejaVuSans-6e" x="341.927734"/>
      <use xlink:href="#DejaVuSans-67" x="405.306641"/>
      <use xlink:href="#DejaVuSans-20" x="468.783203"/>
      <use xlink:href="#DejaVuSans-52" x="500.570312"/>
      <use xlink:href="#DejaVuSans-65" x="565.552734"/>
      <use xlink:href="#DejaVuSans-69" x="627.076172"/>
      <use xlink:href="#DejaVuSans-74" x="654.859375"/>
      <use xlink:href="#DejaVuSans-68" x="694.068359"/>
      <use xlink:href="#DejaVuSans-65" x="757.447266"/>
      <use xlink:href="#DejaVuSans-72" x="818.970703"/>
      <use xlink:href="#DejaVuSans-6d" x="858.333984"/>
      <use xlink:href="#DejaVuSans-61" x="955.746094"/>
      <use xlink:href="#DejaVuSans-6e" x="1017.025391"/>
     </g>
    </g>
   </g>
   <g id="text_14">
    <g id="patch_15">
     <path d="M 397.961138 465.967892 
L 454.638638 465.967892 
L 454.638638 449.337579 
L 397.961138 449.337579 
z
" clip-path="url(#pc24ef731c5)" style="fill: #ffffff; opacity: 0.7; stroke: #000000; stroke-linejoin: miter"/>
    </g>
    <g clip-path="url(#pc24ef731c5)">
     <!-- Rob Reiner -->
     <g transform="translate(401.921138 460.136173)scale(0.09 -0.09)">
      <use xlink:href="#DejaVuSans-52"/>
      <use xlink:href="#DejaVuSans-6f" x="64.982422"/>
      <use xlink:href="#DejaVuSans-62" x="126.164062"/>
      <use xlink:href="#DejaVuSans-20" x="189.640625"/>
      <use xlink:href="#DejaVuSans-52" x="221.427734"/>
      <use xlink:href="#DejaVuSans-65" x="286.410156"/>
      <use xlink:href="#DejaVuSans-69" x="347.933594"/>
      <use xlink:href="#DejaVuSans-6e" x="375.716797"/>
      <use xlink:href="#DejaVuSans-65" x="439.095703"/>
      <use xlink:href="#DejaVuSans-72" x="500.619141"/>
     </g>
    </g>
   </g>
   <g id="text_15">
    <g id="patch_16">
     <path d="M 436.077842 394.072421 
L 521.906905 394.072421 
L 521.906905 377.442109 
L 436.077842 377.442109 
z
" clip-path="url(#pc24ef731c5)" style="fill: #ffffff; opacity: 0.7; stroke: #000000; stroke-linejoin: miter"/>
    </g>
    <g clip-path="url(#pc24ef731c5)">
     <!-- Barry Sonnenfeld -->
     <g transform="translate(440.037842 388.240702)scale(0.09 -0.09)">
      <use xlink:href="#DejaVuSans-42"/>
      <use xlink:href="#DejaVuSans-61" x="68.603516"/>
      <use xlink:href="#DejaVuSans-72" x="129.882812"/>
      <use xlink:href="#DejaVuSans-72" x="169.246094"/>
      <use xlink:href="#DejaVuSans-79" x="210.359375"/>
      <use xlink:href="#DejaVuSans-20" x="269.539062"/>
      <use xlink:href="#DejaVuSans-53" x="301.326172"/>
      <use xlink:href="#DejaVuSans-6f" x="364.802734"/>
      <use xlink:href="#DejaVuSans-6e" x="425.984375"/>
      <use xlink:href="#DejaVuSans-6e" x="489.363281"/>
      <use xlink:href="#DejaVuSans-65" x="552.742188"/>
      <use xlink:href="#DejaVuSans-6e" x="614.265625"/>
      <use xlink:href="#DejaVuSans-66" x="677.644531"/>
      <use xlink:href="#DejaVuSans-65" x="712.849609"/>
      <use xlink:href="#DejaVuSans-6c" x="774.373047"/>
      <use xlink:href="#DejaVuSans-64" x="802.15625"/>
     </g>
    </g>
   </g>
   <g id="text_16">
    <!-- Impactful directors for Adventure genre - Importance rank: 7 -->
    <g transform="translate(101.98125 16.318125)scale(0.12 -0.12)">
     <defs>
      <path id="DejaVuSans-49" d="M 628 4666 
L 1259 4666 
L 1259 0 
L 628 0 
L 628 4666 
z
" transform="scale(0.015625)"/>
      <path id="DejaVuSans-2d" d="M 313 2009 
L 1997 2009 
L 1997 1497 
L 313 1497 
L 313 2009 
z
" transform="scale(0.015625)"/>
      <path id="DejaVuSans-3a" d="M 750 794 
L 1409 794 
L 1409 0 
L 750 0 
L 750 794 
z
M 750 3309 
L 1409 3309 
L 1409 2516 
L 750 2516 
L 750 3309 
z
" transform="scale(0.015625)"/>
      <path id="DejaVuSans-37" d="M 525 4666 
L 3525 4666 
L 3525 4397 
L 1831 0 
L 1172 0 
L 2766 4134 
L 525 4134 
L 525 4666 
z
" transform="scale(0.015625)"/>
     </defs>
     <use xlink:href="#DejaVuSans-49"/>
     <use xlink:href="#DejaVuSans-6d" x="29.492188"/>
     <use xlink:href="#DejaVuSans-70" x="126.904297"/>
     <use xlink:href="#DejaVuSans-61" x="190.380859"/>
     <use xlink:href="#DejaVuSans-63" x="251.660156"/>
     <use xlink:href="#DejaVuSans-74" x="306.640625"/>
     <use xlink:href="#DejaVuSans-66" x="345.849609"/>
     <use xlink:href="#DejaVuSans-75" x="381.054688"/>
     <use xlink:href="#DejaVuSans-6c" x="444.433594"/>
     <use xlink:href="#DejaVuSans-20" x="472.216797"/>
     <use xlink:href="#DejaVuSans-64" x="504.003906"/>
     <use xlink:href="#DejaVuSans-69" x="567.480469"/>
     <use xlink:href="#DejaVuSans-72" x="595.263672"/>
     <use xlink:href="#DejaVuSans-65" x="634.126953"/>
     <use xlink:href="#DejaVuSans-63" x="695.650391"/>
     <use xlink:href="#DejaVuSans-74" x="750.630859"/>
     <use xlink:href="#DejaVuSans-6f" x="789.839844"/>
     <use xlink:href="#DejaVuSans-72" x="851.021484"/>
     <use xlink:href="#DejaVuSans-73" x="892.134766"/>
     <use xlink:href="#DejaVuSans-20" x="944.234375"/>
     <use xlink:href="#DejaVuSans-66" x="976.021484"/>
     <use xlink:href="#DejaVuSans-6f" x="1011.226562"/>
     <use xlink:href="#DejaVuSans-72" x="1072.408203"/>
     <use xlink:href="#DejaVuSans-20" x="1113.521484"/>
     <use xlink:href="#DejaVuSans-41" x="1145.308594"/>
     <use xlink:href="#DejaVuSans-64" x="1211.966797"/>
     <use xlink:href="#DejaVuSans-76" x="1275.443359"/>
     <use xlink:href="#DejaVuSans-65" x="1334.623047"/>
     <use xlink:href="#DejaVuSans-6e" x="1396.146484"/>
     <use xlink:href="#DejaVuSans-74" x="1459.525391"/>
     <use xlink:href="#DejaVuSans-75" x="1498.734375"/>
     <use xlink:href="#DejaVuSans-72" x="1562.113281"/>
     <use xlink:href="#DejaVuSans-65" x="1600.976562"/>
     <use xlink:href="#DejaVuSans-20" x="1662.5"/>
     <use xlink:href="#DejaVuSans-67" x="1694.287109"/>
     <use xlink:href="#DejaVuSans-65" x="1757.763672"/>
     <use xlink:href="#DejaVuSans-6e" x="1819.287109"/>
     <use xlink:href="#DejaVuSans-72" x="1882.666016"/>
     <use xlink:href="#DejaVuSans-65" x="1921.529297"/>
     <use xlink:href="#DejaVuSans-20" x="1983.052734"/>
     <use xlink:href="#DejaVuSans-2d" x="2014.839844"/>
     <use xlink:href="#DejaVuSans-20" x="2050.923828"/>
     <use xlink:href="#DejaVuSans-49" x="2082.710938"/>
     <use xlink:href="#DejaVuSans-6d" x="2112.203125"/>
     <use xlink:href="#DejaVuSans-70" x="2209.615234"/>
     <use xlink:href="#DejaVuSans-6f" x="2273.091797"/>
     <use xlink:href="#DejaVuSans-72" x="2334.273438"/>
     <use xlink:href="#DejaVuSans-74" x="2375.386719"/>
     <use xlink:href="#DejaVuSans-61" x="2414.595703"/>
     <use xlink:href="#DejaVuSans-6e" x="2475.875"/>
     <use xlink:href="#DejaVuSans-63" x="2539.253906"/>
     <use xlink:href="#DejaVuSans-65" x="2594.234375"/>
     <use xlink:href="#DejaVuSans-20" x="2655.757812"/>
     <use xlink:href="#DejaVuSans-72" x="2687.544922"/>
     <use xlink:href="#DejaVuSans-61" x="2728.658203"/>
     <use xlink:href="#DejaVuSans-6e" x="2789.9375"/>
     <use xlink:href="#DejaVuSans-6b" x="2853.316406"/>
     <use xlink:href="#DejaVuSans-3a" x="2911.226562"/>
     <use xlink:href="#DejaVuSans-20" x="2944.917969"/>
     <use xlink:href="#DejaVuSans-37" x="2976.705078"/>
    </g>
   </g>
  </g>
 </g>
 <defs>
  <clipPath id="pc24ef731c5">
   <rect x="7.2" y="22.318125" width="554.4" height="554.4"/>
  </clipPath>
 </defs>
</svg>
