<?xml version="1.0" encoding="utf-8" standalone="no"?>
<!DOCTYPE svg PUBLIC "-//W3C//DTD SVG 1.1//EN"
  "http://www.w3.org/Graphics/SVG/1.1/DTD/svg11.dtd">
<svg xmlns:xlink="http://www.w3.org/1999/xlink" width="568.8pt" height="583.918125pt" viewBox="0 0 568.8 583.918125" xmlns="http://www.w3.org/2000/svg" version="1.1">
 <metadata>
  <rdf:RDF xmlns:dc="http://purl.org/dc/elements/1.1/" xmlns:cc="http://creativecommons.org/ns#" xmlns:rdf="http://www.w3.org/1999/02/22-rdf-syntax-ns#">
   <cc:Work>
    <dc:type rdf:resource="http://purl.org/dc/dcmitype/StillImage"/>
    <dc:date>2022-12-23T19:06:07.842328</dc:date>
    <dc:format>image/svg+xml</dc:format>
    <dc:creator>
     <cc:Agent>
      <dc:title>Matplotlib v3.5.2, https://matplotlib.org/</dc:title>
     </cc:Agent>
    </dc:creator>
   </cc:Work>
  </rdf:RDF>
 </metadata>
 <defs>
  <style type="text/css">*{stroke-linejoin: round; stroke-linecap: butt}</style>
 </defs>
 <g id="figure_1">
  <g id="patch_1">
   <path d="M 0 583.918125 
L 568.8 583.918125 
L 568.8 0 
L 0 0 
z
" style="fill: #ffffff"/>
  </g>
  <g id="axes_1">
   <g id="LineCollection_1">
    <path d="M 478.992348 225.735232 
L 426.29985 156.830206 
" clip-path="url(#p8f62865c34)" style="fill: none; stroke: #000000; stroke-opacity: 0.3; stroke-width: 10"/>
    <path d="M 259.509549 105.341745 
L 174.251298 131.661127 
" clip-path="url(#p8f62865c34)" style="fill: none; stroke: #000000; stroke-opacity: 0.3; stroke-width: 5.228316"/>
    <path d="M 259.509549 105.341745 
L 174.25133 486.429525 
" clip-path="url(#p8f62865c34)" style="fill: none; stroke: #000000; stroke-opacity: 0.3; stroke-width: 5"/>
    <path d="M 174.251298 131.661127 
L 174.25133 486.429525 
" clip-path="url(#p8f62865c34)" style="fill: none; stroke: #000000; stroke-opacity: 0.3; stroke-width: 5.760789"/>
   </g>
   <g id="PathCollection_1">
    <path d="M 497.630769 336.431447 
C 504.893655 336.431447 511.86005 333.545872 516.995686 328.410236 
C 522.131322 323.2746 525.016897 316.308206 525.016897 309.045319 
C 525.016897 301.782433 522.131322 294.816039 516.995686 289.680403 
C 511.86005 284.544767 504.893655 281.659192 497.630769 281.659192 
C 490.367883 281.659192 483.401488 284.544767 478.265852 289.680403 
C 473.130217 294.816039 470.244641 301.782433 470.244641 309.045319 
C 470.244641 316.308206 473.130217 323.2746 478.265852 328.410236 
C 483.401488 333.545872 490.367883 336.431447 497.630769 336.431447 
z
" clip-path="url(#p8f62865c34)" style="fill: #c70039; fill-opacity: 0.99; stroke: #c70039; stroke-opacity: 0.99"/>
    <path d="M 478.992348 251.34725 
C 485.784734 251.34725 492.299837 248.648606 497.102779 243.845663 
C 501.905722 239.042721 504.604366 232.527618 504.604366 225.735232 
C 504.604366 218.942845 501.905722 212.427743 497.102779 207.6248 
C 492.299837 202.821858 485.784734 200.123214 478.992348 200.123214 
C 472.199961 200.123214 465.684859 202.821858 460.881916 207.6248 
C 456.078974 212.427743 453.38033 218.942845 453.38033 225.735232 
C 453.38033 232.527618 456.078974 239.042721 460.881916 243.845663 
C 465.684859 248.648606 472.199961 251.34725 478.992348 251.34725 
z
" clip-path="url(#p8f62865c34)" style="fill: #c70039; fill-opacity: 0.99; stroke: #c70039; stroke-opacity: 0.99"/>
    <path d="M 426.29985 182.442224 
C 433.092236 182.442224 439.607339 179.74358 444.410281 174.940637 
C 449.213224 170.137695 451.911868 163.622592 451.911868 156.830206 
C 451.911868 150.037819 449.213224 143.522717 444.410281 138.719774 
C 439.607339 133.916832 433.092236 131.218188 426.29985 131.218188 
C 419.507463 131.218188 412.992361 133.916832 408.189418 138.719774 
C 403.386476 143.522717 400.687832 150.037819 400.687832 156.830206 
C 400.687832 163.622592 403.386476 170.137695 408.189418 174.940637 
C 412.992361 179.74358 419.507463 182.442224 426.29985 182.442224 
z
" clip-path="url(#p8f62865c34)" style="fill: #c70039; fill-opacity: 0.99; stroke: #c70039; stroke-opacity: 0.99"/>
    <path d="M 348.664291 139.58007 
C 355.383345 139.58007 361.828108 136.910562 366.579197 132.159473 
C 371.330285 127.408385 373.999794 120.963621 373.999794 114.244568 
C 373.999794 107.525514 371.330285 101.080751 366.579197 96.329662 
C 361.828108 91.578574 355.383345 88.909065 348.664291 88.909065 
C 341.945237 88.909065 335.500474 91.578574 330.749386 96.329662 
C 325.998297 101.080751 323.328789 107.525514 323.328789 114.244568 
C 323.328789 120.963621 325.998297 127.408385 330.749386 132.159473 
C 335.500474 136.910562 341.945237 139.58007 348.664291 139.58007 
z
" clip-path="url(#p8f62865c34)" style="fill: #c70039; fill-opacity: 0.99; stroke: #c70039; stroke-opacity: 0.99"/>
    <path d="M 259.509549 129.107857 
C 265.812395 129.107857 271.857942 126.603709 276.314728 122.146924 
C 280.771513 117.690138 283.275661 111.644591 283.275661 105.341745 
C 283.275661 99.038898 280.771513 92.993351 276.314728 88.536566 
C 271.857942 84.07978 265.812395 81.575633 259.509549 81.575633 
C 253.206702 81.575633 247.161155 84.07978 242.70437 88.536566 
C 238.247584 92.993351 235.743436 99.038898 235.743436 105.341745 
C 235.743436 111.644591 238.247584 117.690138 242.70437 122.146924 
C 247.161155 126.603709 253.206702 129.107857 259.509549 129.107857 
z
" clip-path="url(#p8f62865c34)" style="fill: #c70039; fill-opacity: 0.99; stroke: #c70039; stroke-opacity: 0.99"/>
    <path d="M 174.251298 155.272793 
C 180.513185 155.272793 186.519445 152.784919 190.947267 148.357096 
C 195.37509 143.929273 197.862964 137.923014 197.862964 131.661127 
C 197.862964 125.39924 195.37509 119.39298 190.947267 114.965157 
C 186.519445 110.537335 180.513185 108.04946 174.251298 108.04946 
C 167.989411 108.04946 161.983152 110.537335 157.555329 114.965157 
C 153.127506 119.39298 150.639632 125.39924 150.639632 131.661127 
C 150.639632 137.923014 153.127506 143.929273 157.555329 148.357096 
C 161.983152 152.784919 167.989411 155.272793 174.251298 155.272793 
z
" clip-path="url(#p8f62865c34)" style="fill: #c70039; fill-opacity: 0.99; stroke: #c70039; stroke-opacity: 0.99"/>
    <path d="M 107.631477 212.230902 
C 113.884718 212.230902 119.882684 209.746463 124.304393 205.324754 
C 128.726101 200.903045 131.21054 194.905079 131.21054 188.651839 
C 131.21054 182.398598 128.726101 176.400632 124.304393 171.978923 
C 119.882684 167.557214 113.884718 165.072775 107.631477 165.072775 
C 101.378236 165.072775 95.38027 167.557214 90.958562 171.978923 
C 86.536853 176.400632 84.052414 182.398598 84.052414 188.651839 
C 84.052414 194.905079 86.536853 200.903045 90.958562 205.324754 
C 95.38027 209.746463 101.378236 212.230902 107.631477 212.230902 
z
" clip-path="url(#p8f62865c34)" style="fill: #c70039; fill-opacity: 0.99; stroke: #c70039; stroke-opacity: 0.99"/>
    <path d="M 71.169231 288.793623 
C 77.092258 288.793623 82.773491 286.440379 86.961703 282.252166 
C 91.149916 278.063953 93.50316 272.382721 93.50316 266.459694 
C 93.50316 260.536666 91.149916 254.855434 86.961703 250.667221 
C 82.773491 246.479008 77.092258 244.125765 71.169231 244.125765 
C 65.246204 244.125765 59.564971 246.479008 55.376758 250.667221 
C 51.188545 254.855434 48.835302 260.536666 48.835302 266.459694 
C 48.835302 272.382721 51.188545 278.063953 55.376758 282.252166 
C 59.564971 286.440379 65.246204 288.793623 71.169231 288.793623 
z
" clip-path="url(#p8f62865c34)" style="fill: #c70039; fill-opacity: 0.99; stroke: #c70039; stroke-opacity: 0.99"/>
    <path d="M 71.169244 373.686439 
C 77.018419 373.686439 82.628815 371.362537 86.764806 367.226545 
C 90.900798 363.090553 93.2247 357.480158 93.2247 351.630982 
C 93.2247 345.781807 90.900798 340.171411 86.764806 336.035419 
C 82.628815 331.899428 77.018419 329.575526 71.169244 329.575526 
C 65.320068 329.575526 59.709672 331.899428 55.573681 336.035419 
C 51.437689 340.171411 49.113787 345.781807 49.113787 351.630982 
C 49.113787 357.480158 51.437689 363.090553 55.573681 367.226545 
C 59.709672 371.362537 65.320068 373.686439 71.169244 373.686439 
z
" clip-path="url(#p8f62865c34)" style="fill: #c70039; fill-opacity: 0.99; stroke: #c70039; stroke-opacity: 0.99"/>
    <path d="M 107.63149 451.175285 
C 113.39607 451.175285 118.925324 448.884993 123.001497 444.80882 
C 127.077671 440.732646 129.367963 435.203393 129.367963 429.438813 
C 129.367963 423.674233 127.077671 418.144979 123.001497 414.068805 
C 118.925324 409.992632 113.39607 407.70234 107.63149 407.70234 
C 101.86691 407.70234 96.337656 409.992632 92.261483 414.068805 
C 88.185309 418.144979 85.895017 423.674233 85.895017 429.438813 
C 85.895017 435.203393 88.185309 440.732646 92.261483 444.80882 
C 96.337656 448.884993 101.86691 451.175285 107.63149 451.175285 
z
" clip-path="url(#p8f62865c34)" style="fill: #c70039; fill-opacity: 0.99; stroke: #c70039; stroke-opacity: 0.99"/>
    <path d="M 174.25133 508.042483 
C 179.983154 508.042483 185.480988 505.765206 189.534 501.712194 
C 193.587011 497.659183 195.864289 492.161348 195.864289 486.429525 
C 195.864289 480.697701 193.587011 475.199866 189.534 471.146855 
C 185.480988 467.093844 179.983154 464.816566 174.25133 464.816566 
C 168.519507 464.816566 163.021672 467.093844 158.968661 471.146855 
C 154.915649 475.199866 152.638372 480.697701 152.638372 486.429525 
C 152.638372 492.161348 154.915649 497.659183 158.968661 501.712194 
C 163.021672 505.765206 168.519507 508.042483 174.25133 508.042483 
z
" clip-path="url(#p8f62865c34)" style="fill: #c70039; fill-opacity: 0.99; stroke: #c70039; stroke-opacity: 0.99"/>
    <path d="M 259.509587 533.973741 
C 265.138482 533.973741 270.53759 531.737357 274.51782 527.757127 
C 278.49805 523.776897 280.734434 518.377789 280.734434 512.748894 
C 280.734434 507.119999 278.49805 501.720891 274.51782 497.740661 
C 270.53759 493.760431 265.138482 491.524047 259.509587 491.524047 
C 253.880692 491.524047 248.481584 493.760431 244.501354 497.740661 
C 240.521124 501.720891 238.28474 507.119999 238.28474 512.748894 
C 238.28474 518.377789 240.521124 523.776897 244.501354 527.757127 
C 248.481584 531.737357 253.880692 533.973741 259.509587 533.973741 
z
" clip-path="url(#p8f62865c34)" style="fill: #c70039; fill-opacity: 0.99; stroke: #c70039; stroke-opacity: 0.99"/>
    <path d="M 348.664323 523.573066 
C 353.895987 523.573066 358.914079 521.494504 362.613424 517.795159 
C 366.312768 514.095815 368.39133 509.077723 368.39133 503.846059 
C 368.39133 498.614396 366.312768 493.596304 362.613424 489.896959 
C 358.914079 486.197614 353.895987 484.119052 348.664323 484.119052 
C 343.43266 484.119052 338.414568 486.197614 334.715223 489.896959 
C 331.015878 493.596304 328.937317 498.614396 328.937317 503.846059 
C 328.937317 509.077723 331.015878 514.095815 334.715223 517.795159 
C 338.414568 521.494504 343.43266 523.573066 348.664323 523.573066 
z
" clip-path="url(#p8f62865c34)" style="fill: #c70039; fill-opacity: 0.99; stroke: #c70039; stroke-opacity: 0.99"/>
    <path d="M 426.299888 480.870285 
C 431.500492 480.870285 436.488792 478.804063 440.166173 475.126681 
C 443.843555 471.4493 445.909777 466.461 445.909777 461.260397 
C 445.909777 456.059793 443.843555 451.071493 440.166173 447.394112 
C 436.488792 443.71673 431.500492 441.650508 426.299888 441.650508 
C 421.099285 441.650508 416.110985 443.71673 412.433604 447.394112 
C 408.756222 451.071493 406.69 456.059793 406.69 461.260397 
C 406.69 466.461 408.756222 471.4493 412.433604 475.126681 
C 416.110985 478.804063 421.099285 480.870285 426.299888 480.870285 
z
" clip-path="url(#p8f62865c34)" style="fill: #c70039; fill-opacity: 0.99; stroke: #c70039; stroke-opacity: 0.99"/>
    <path d="M 478.992374 411.720293 
C 484.128009 411.720293 489.053994 409.679884 492.685437 406.048441 
C 496.31688 402.416998 498.35729 397.491013 498.35729 392.355377 
C 498.35729 387.219741 496.31688 382.293756 492.685437 378.662313 
C 489.053994 375.03087 484.128009 372.99046 478.992374 372.99046 
C 473.856738 372.99046 468.930753 375.03087 465.29931 378.662313 
C 461.667867 382.293756 459.627457 387.219741 459.627457 392.355377 
C 459.627457 397.491013 461.667867 402.416998 465.29931 406.048441 
C 468.930753 409.679884 473.856738 411.720293 478.992374 411.720293 
z
" clip-path="url(#p8f62865c34)" style="fill: #c70039; fill-opacity: 0.99; stroke: #c70039; stroke-opacity: 0.99"/>
   </g>
   <g id="text_1">
    <g id="patch_2">
     <path d="M 456.105613 317.360476 
L 539.155925 317.360476 
L 539.155925 300.730163 
L 456.105613 300.730163 
z
" clip-path="url(#p8f62865c34)" style="fill: #ffffff; opacity: 0.7; stroke: #000000; stroke-linejoin: miter"/>
    </g>
    <g clip-path="url(#p8f62865c34)">
     <!-- Henry Hathaway -->
     <g transform="translate(460.065613 311.528757)scale(0.09 -0.09)">
      <defs>
       <path id="DejaVuSans-48" d="M 628 4666 
L 1259 4666 
L 1259 2753 
L 3553 2753 
L 3553 4666 
L 4184 4666 
L 4184 0 
L 3553 0 
L 3553 2222 
L 1259 2222 
L 1259 0 
L 628 0 
L 628 4666 
z
" transform="scale(0.015625)"/>
       <path id="DejaVuSans-65" d="M 3597 1894 
L 3597 1613 
L 953 1613 
Q 991 1019 1311 708 
Q 1631 397 2203 397 
Q 2534 397 2845 478 
Q 3156 559 3463 722 
L 3463 178 
Q 3153 47 2828 -22 
Q 2503 -91 2169 -91 
Q 1331 -91 842 396 
Q 353 884 353 1716 
Q 353 2575 817 3079 
Q 1281 3584 2069 3584 
Q 2775 3584 3186 3129 
Q 3597 2675 3597 1894 
z
M 3022 2063 
Q 3016 2534 2758 2815 
Q 2500 3097 2075 3097 
Q 1594 3097 1305 2825 
Q 1016 2553 972 2059 
L 3022 2063 
z
" transform="scale(0.015625)"/>
       <path id="DejaVuSans-6e" d="M 3513 2113 
L 3513 0 
L 2938 0 
L 2938 2094 
Q 2938 2591 2744 2837 
Q 2550 3084 2163 3084 
Q 1697 3084 1428 2787 
Q 1159 2491 1159 1978 
L 1159 0 
L 581 0 
L 581 3500 
L 1159 3500 
L 1159 2956 
Q 1366 3272 1645 3428 
Q 1925 3584 2291 3584 
Q 2894 3584 3203 3211 
Q 3513 2838 3513 2113 
z
" transform="scale(0.015625)"/>
       <path id="DejaVuSans-72" d="M 2631 2963 
Q 2534 3019 2420 3045 
Q 2306 3072 2169 3072 
Q 1681 3072 1420 2755 
Q 1159 2438 1159 1844 
L 1159 0 
L 581 0 
L 581 3500 
L 1159 3500 
L 1159 2956 
Q 1341 3275 1631 3429 
Q 1922 3584 2338 3584 
Q 2397 3584 2469 3576 
Q 2541 3569 2628 3553 
L 2631 2963 
z
" transform="scale(0.015625)"/>
       <path id="DejaVuSans-79" d="M 2059 -325 
Q 1816 -950 1584 -1140 
Q 1353 -1331 966 -1331 
L 506 -1331 
L 506 -850 
L 844 -850 
Q 1081 -850 1212 -737 
Q 1344 -625 1503 -206 
L 1606 56 
L 191 3500 
L 800 3500 
L 1894 763 
L 2988 3500 
L 3597 3500 
L 2059 -325 
z
" transform="scale(0.015625)"/>
       <path id="DejaVuSans-20" transform="scale(0.015625)"/>
       <path id="DejaVuSans-61" d="M 2194 1759 
Q 1497 1759 1228 1600 
Q 959 1441 959 1056 
Q 959 750 1161 570 
Q 1363 391 1709 391 
Q 2188 391 2477 730 
Q 2766 1069 2766 1631 
L 2766 1759 
L 2194 1759 
z
M 3341 1997 
L 3341 0 
L 2766 0 
L 2766 531 
Q 2569 213 2275 61 
Q 1981 -91 1556 -91 
Q 1019 -91 701 211 
Q 384 513 384 1019 
Q 384 1609 779 1909 
Q 1175 2209 1959 2209 
L 2766 2209 
L 2766 2266 
Q 2766 2663 2505 2880 
Q 2244 3097 1772 3097 
Q 1472 3097 1187 3025 
Q 903 2953 641 2809 
L 641 3341 
Q 956 3463 1253 3523 
Q 1550 3584 1831 3584 
Q 2591 3584 2966 3190 
Q 3341 2797 3341 1997 
z
" transform="scale(0.015625)"/>
       <path id="DejaVuSans-74" d="M 1172 4494 
L 1172 3500 
L 2356 3500 
L 2356 3053 
L 1172 3053 
L 1172 1153 
Q 1172 725 1289 603 
Q 1406 481 1766 481 
L 2356 481 
L 2356 0 
L 1766 0 
Q 1100 0 847 248 
Q 594 497 594 1153 
L 594 3053 
L 172 3053 
L 172 3500 
L 594 3500 
L 594 4494 
L 1172 4494 
z
" transform="scale(0.015625)"/>
       <path id="DejaVuSans-68" d="M 3513 2113 
L 3513 0 
L 2938 0 
L 2938 2094 
Q 2938 2591 2744 2837 
Q 2550 3084 2163 3084 
Q 1697 3084 1428 2787 
Q 1159 2491 1159 1978 
L 1159 0 
L 581 0 
L 581 4863 
L 1159 4863 
L 1159 2956 
Q 1366 3272 1645 3428 
Q 1925 3584 2291 3584 
Q 2894 3584 3203 3211 
Q 3513 2838 3513 2113 
z
" transform="scale(0.015625)"/>
       <path id="DejaVuSans-77" d="M 269 3500 
L 844 3500 
L 1563 769 
L 2278 3500 
L 2956 3500 
L 3675 769 
L 4391 3500 
L 4966 3500 
L 4050 0 
L 3372 0 
L 2619 2869 
L 1863 0 
L 1184 0 
L 269 3500 
z
" transform="scale(0.015625)"/>
      </defs>
      <use xlink:href="#DejaVuSans-48"/>
      <use xlink:href="#DejaVuSans-65" x="75.195312"/>
      <use xlink:href="#DejaVuSans-6e" x="136.71875"/>
      <use xlink:href="#DejaVuSans-72" x="200.097656"/>
      <use xlink:href="#DejaVuSans-79" x="241.210938"/>
      <use xlink:href="#DejaVuSans-20" x="300.390625"/>
      <use xlink:href="#DejaVuSans-48" x="332.177734"/>
      <use xlink:href="#DejaVuSans-61" x="407.373047"/>
      <use xlink:href="#DejaVuSans-74" x="468.652344"/>
      <use xlink:href="#DejaVuSans-68" x="507.861328"/>
      <use xlink:href="#DejaVuSans-61" x="571.240234"/>
      <use xlink:href="#DejaVuSans-77" x="632.519531"/>
      <use xlink:href="#DejaVuSans-61" x="714.306641"/>
      <use xlink:href="#DejaVuSans-79" x="775.585938"/>
     </g>
    </g>
   </g>
   <g id="text_2">
    <g id="patch_3">
     <path d="M 440.771176 234.050388 
L 517.21352 234.050388 
L 517.21352 217.420076 
L 440.771176 217.420076 
z
" clip-path="url(#p8f62865c34)" style="fill: #ffffff; opacity: 0.7; stroke: #000000; stroke-linejoin: miter"/>
    </g>
    <g clip-path="url(#p8f62865c34)">
     <!-- Joseph Barbera -->
     <g transform="translate(444.731176 228.218669)scale(0.09 -0.09)">
      <defs>
       <path id="DejaVuSans-4a" d="M 628 4666 
L 1259 4666 
L 1259 325 
Q 1259 -519 939 -900 
Q 619 -1281 -91 -1281 
L -331 -1281 
L -331 -750 
L -134 -750 
Q 284 -750 456 -515 
Q 628 -281 628 325 
L 628 4666 
z
" transform="scale(0.015625)"/>
       <path id="DejaVuSans-6f" d="M 1959 3097 
Q 1497 3097 1228 2736 
Q 959 2375 959 1747 
Q 959 1119 1226 758 
Q 1494 397 1959 397 
Q 2419 397 2687 759 
Q 2956 1122 2956 1747 
Q 2956 2369 2687 2733 
Q 2419 3097 1959 3097 
z
M 1959 3584 
Q 2709 3584 3137 3096 
Q 3566 2609 3566 1747 
Q 3566 888 3137 398 
Q 2709 -91 1959 -91 
Q 1206 -91 779 398 
Q 353 888 353 1747 
Q 353 2609 779 3096 
Q 1206 3584 1959 3584 
z
" transform="scale(0.015625)"/>
       <path id="DejaVuSans-73" d="M 2834 3397 
L 2834 2853 
Q 2591 2978 2328 3040 
Q 2066 3103 1784 3103 
Q 1356 3103 1142 2972 
Q 928 2841 928 2578 
Q 928 2378 1081 2264 
Q 1234 2150 1697 2047 
L 1894 2003 
Q 2506 1872 2764 1633 
Q 3022 1394 3022 966 
Q 3022 478 2636 193 
Q 2250 -91 1575 -91 
Q 1294 -91 989 -36 
Q 684 19 347 128 
L 347 722 
Q 666 556 975 473 
Q 1284 391 1588 391 
Q 1994 391 2212 530 
Q 2431 669 2431 922 
Q 2431 1156 2273 1281 
Q 2116 1406 1581 1522 
L 1381 1569 
Q 847 1681 609 1914 
Q 372 2147 372 2553 
Q 372 3047 722 3315 
Q 1072 3584 1716 3584 
Q 2034 3584 2315 3537 
Q 2597 3491 2834 3397 
z
" transform="scale(0.015625)"/>
       <path id="DejaVuSans-70" d="M 1159 525 
L 1159 -1331 
L 581 -1331 
L 581 3500 
L 1159 3500 
L 1159 2969 
Q 1341 3281 1617 3432 
Q 1894 3584 2278 3584 
Q 2916 3584 3314 3078 
Q 3713 2572 3713 1747 
Q 3713 922 3314 415 
Q 2916 -91 2278 -91 
Q 1894 -91 1617 61 
Q 1341 213 1159 525 
z
M 3116 1747 
Q 3116 2381 2855 2742 
Q 2594 3103 2138 3103 
Q 1681 3103 1420 2742 
Q 1159 2381 1159 1747 
Q 1159 1113 1420 752 
Q 1681 391 2138 391 
Q 2594 391 2855 752 
Q 3116 1113 3116 1747 
z
" transform="scale(0.015625)"/>
       <path id="DejaVuSans-42" d="M 1259 2228 
L 1259 519 
L 2272 519 
Q 2781 519 3026 730 
Q 3272 941 3272 1375 
Q 3272 1813 3026 2020 
Q 2781 2228 2272 2228 
L 1259 2228 
z
M 1259 4147 
L 1259 2741 
L 2194 2741 
Q 2656 2741 2882 2914 
Q 3109 3088 3109 3444 
Q 3109 3797 2882 3972 
Q 2656 4147 2194 4147 
L 1259 4147 
z
M 628 4666 
L 2241 4666 
Q 2963 4666 3353 4366 
Q 3744 4066 3744 3513 
Q 3744 3084 3544 2831 
Q 3344 2578 2956 2516 
Q 3422 2416 3680 2098 
Q 3938 1781 3938 1306 
Q 3938 681 3513 340 
Q 3088 0 2303 0 
L 628 0 
L 628 4666 
z
" transform="scale(0.015625)"/>
       <path id="DejaVuSans-62" d="M 3116 1747 
Q 3116 2381 2855 2742 
Q 2594 3103 2138 3103 
Q 1681 3103 1420 2742 
Q 1159 2381 1159 1747 
Q 1159 1113 1420 752 
Q 1681 391 2138 391 
Q 2594 391 2855 752 
Q 3116 1113 3116 1747 
z
M 1159 2969 
Q 1341 3281 1617 3432 
Q 1894 3584 2278 3584 
Q 2916 3584 3314 3078 
Q 3713 2572 3713 1747 
Q 3713 922 3314 415 
Q 2916 -91 2278 -91 
Q 1894 -91 1617 61 
Q 1341 213 1159 525 
L 1159 0 
L 581 0 
L 581 4863 
L 1159 4863 
L 1159 2969 
z
" transform="scale(0.015625)"/>
      </defs>
      <use xlink:href="#DejaVuSans-4a"/>
      <use xlink:href="#DejaVuSans-6f" x="29.492188"/>
      <use xlink:href="#DejaVuSans-73" x="90.673828"/>
      <use xlink:href="#DejaVuSans-65" x="142.773438"/>
      <use xlink:href="#DejaVuSans-70" x="204.296875"/>
      <use xlink:href="#DejaVuSans-68" x="267.773438"/>
      <use xlink:href="#DejaVuSans-20" x="331.152344"/>
      <use xlink:href="#DejaVuSans-42" x="362.939453"/>
      <use xlink:href="#DejaVuSans-61" x="431.542969"/>
      <use xlink:href="#DejaVuSans-72" x="492.822266"/>
      <use xlink:href="#DejaVuSans-62" x="533.935547"/>
      <use xlink:href="#DejaVuSans-65" x="597.412109"/>
      <use xlink:href="#DejaVuSans-72" x="658.935547"/>
      <use xlink:href="#DejaVuSans-61" x="700.048828"/>
     </g>
    </g>
   </g>
   <g id="text_3">
    <g id="patch_4">
     <path d="M 389.816803 165.145362 
L 462.782897 165.145362 
L 462.782897 148.51505 
L 389.816803 148.51505 
z
" clip-path="url(#p8f62865c34)" style="fill: #ffffff; opacity: 0.7; stroke: #000000; stroke-linejoin: miter"/>
    </g>
    <g clip-path="url(#p8f62865c34)">
     <!-- William Hanna -->
     <g transform="translate(393.776803 159.313643)scale(0.09 -0.09)">
      <defs>
       <path id="DejaVuSans-57" d="M 213 4666 
L 850 4666 
L 1831 722 
L 2809 4666 
L 3519 4666 
L 4500 722 
L 5478 4666 
L 6119 4666 
L 4947 0 
L 4153 0 
L 3169 4050 
L 2175 0 
L 1381 0 
L 213 4666 
z
" transform="scale(0.015625)"/>
       <path id="DejaVuSans-69" d="M 603 3500 
L 1178 3500 
L 1178 0 
L 603 0 
L 603 3500 
z
M 603 4863 
L 1178 4863 
L 1178 4134 
L 603 4134 
L 603 4863 
z
" transform="scale(0.015625)"/>
       <path id="DejaVuSans-6c" d="M 603 4863 
L 1178 4863 
L 1178 0 
L 603 0 
L 603 4863 
z
" transform="scale(0.015625)"/>
       <path id="DejaVuSans-6d" d="M 3328 2828 
Q 3544 3216 3844 3400 
Q 4144 3584 4550 3584 
Q 5097 3584 5394 3201 
Q 5691 2819 5691 2113 
L 5691 0 
L 5113 0 
L 5113 2094 
Q 5113 2597 4934 2840 
Q 4756 3084 4391 3084 
Q 3944 3084 3684 2787 
Q 3425 2491 3425 1978 
L 3425 0 
L 2847 0 
L 2847 2094 
Q 2847 2600 2669 2842 
Q 2491 3084 2119 3084 
Q 1678 3084 1418 2786 
Q 1159 2488 1159 1978 
L 1159 0 
L 581 0 
L 581 3500 
L 1159 3500 
L 1159 2956 
Q 1356 3278 1631 3431 
Q 1906 3584 2284 3584 
Q 2666 3584 2933 3390 
Q 3200 3197 3328 2828 
z
" transform="scale(0.015625)"/>
      </defs>
      <use xlink:href="#DejaVuSans-57"/>
      <use xlink:href="#DejaVuSans-69" x="96.626953"/>
      <use xlink:href="#DejaVuSans-6c" x="124.410156"/>
      <use xlink:href="#DejaVuSans-6c" x="152.193359"/>
      <use xlink:href="#DejaVuSans-69" x="179.976562"/>
      <use xlink:href="#DejaVuSans-61" x="207.759766"/>
      <use xlink:href="#DejaVuSans-6d" x="269.039062"/>
      <use xlink:href="#DejaVuSans-20" x="366.451172"/>
      <use xlink:href="#DejaVuSans-48" x="398.238281"/>
      <use xlink:href="#DejaVuSans-61" x="473.433594"/>
      <use xlink:href="#DejaVuSans-6e" x="534.712891"/>
      <use xlink:href="#DejaVuSans-6e" x="598.091797"/>
      <use xlink:href="#DejaVuSans-61" x="661.470703"/>
     </g>
    </g>
   </g>
   <g id="text_4">
    <g id="patch_5">
     <path d="M 312.818276 122.559724 
L 384.510307 122.559724 
L 384.510307 105.929411 
L 312.818276 105.929411 
z
" clip-path="url(#p8f62865c34)" style="fill: #ffffff; opacity: 0.7; stroke: #000000; stroke-linejoin: miter"/>
    </g>
    <g clip-path="url(#p8f62865c34)">
     <!-- Michael Curtiz -->
     <g transform="translate(316.778276 116.728005)scale(0.09 -0.09)">
      <defs>
       <path id="DejaVuSans-4d" d="M 628 4666 
L 1569 4666 
L 2759 1491 
L 3956 4666 
L 4897 4666 
L 4897 0 
L 4281 0 
L 4281 4097 
L 3078 897 
L 2444 897 
L 1241 4097 
L 1241 0 
L 628 0 
L 628 4666 
z
" transform="scale(0.015625)"/>
       <path id="DejaVuSans-63" d="M 3122 3366 
L 3122 2828 
Q 2878 2963 2633 3030 
Q 2388 3097 2138 3097 
Q 1578 3097 1268 2742 
Q 959 2388 959 1747 
Q 959 1106 1268 751 
Q 1578 397 2138 397 
Q 2388 397 2633 464 
Q 2878 531 3122 666 
L 3122 134 
Q 2881 22 2623 -34 
Q 2366 -91 2075 -91 
Q 1284 -91 818 406 
Q 353 903 353 1747 
Q 353 2603 823 3093 
Q 1294 3584 2113 3584 
Q 2378 3584 2631 3529 
Q 2884 3475 3122 3366 
z
" transform="scale(0.015625)"/>
       <path id="DejaVuSans-43" d="M 4122 4306 
L 4122 3641 
Q 3803 3938 3442 4084 
Q 3081 4231 2675 4231 
Q 1875 4231 1450 3742 
Q 1025 3253 1025 2328 
Q 1025 1406 1450 917 
Q 1875 428 2675 428 
Q 3081 428 3442 575 
Q 3803 722 4122 1019 
L 4122 359 
Q 3791 134 3420 21 
Q 3050 -91 2638 -91 
Q 1578 -91 968 557 
Q 359 1206 359 2328 
Q 359 3453 968 4101 
Q 1578 4750 2638 4750 
Q 3056 4750 3426 4639 
Q 3797 4528 4122 4306 
z
" transform="scale(0.015625)"/>
       <path id="DejaVuSans-75" d="M 544 1381 
L 544 3500 
L 1119 3500 
L 1119 1403 
Q 1119 906 1312 657 
Q 1506 409 1894 409 
Q 2359 409 2629 706 
Q 2900 1003 2900 1516 
L 2900 3500 
L 3475 3500 
L 3475 0 
L 2900 0 
L 2900 538 
Q 2691 219 2414 64 
Q 2138 -91 1772 -91 
Q 1169 -91 856 284 
Q 544 659 544 1381 
z
M 1991 3584 
L 1991 3584 
z
" transform="scale(0.015625)"/>
       <path id="DejaVuSans-7a" d="M 353 3500 
L 3084 3500 
L 3084 2975 
L 922 459 
L 3084 459 
L 3084 0 
L 275 0 
L 275 525 
L 2438 3041 
L 353 3041 
L 353 3500 
z
" transform="scale(0.015625)"/>
      </defs>
      <use xlink:href="#DejaVuSans-4d"/>
      <use xlink:href="#DejaVuSans-69" x="86.279297"/>
      <use xlink:href="#DejaVuSans-63" x="114.0625"/>
      <use xlink:href="#DejaVuSans-68" x="169.042969"/>
      <use xlink:href="#DejaVuSans-61" x="232.421875"/>
      <use xlink:href="#DejaVuSans-65" x="293.701172"/>
      <use xlink:href="#DejaVuSans-6c" x="355.224609"/>
      <use xlink:href="#DejaVuSans-20" x="383.007812"/>
      <use xlink:href="#DejaVuSans-43" x="414.794922"/>
      <use xlink:href="#DejaVuSans-75" x="484.619141"/>
      <use xlink:href="#DejaVuSans-72" x="547.998047"/>
      <use xlink:href="#DejaVuSans-74" x="589.111328"/>
      <use xlink:href="#DejaVuSans-69" x="628.320312"/>
      <use xlink:href="#DejaVuSans-7a" x="656.103516"/>
     </g>
    </g>
   </g>
   <g id="text_5">
    <g id="patch_6">
     <path d="M 216.310955 113.656901 
L 302.708142 113.656901 
L 302.708142 97.026589 
L 216.310955 97.026589 
z
" clip-path="url(#p8f62865c34)" style="fill: #ffffff; opacity: 0.7; stroke: #000000; stroke-linejoin: miter"/>
    </g>
    <g clip-path="url(#p8f62865c34)">
     <!-- Robert McKimson -->
     <g transform="translate(220.270955 107.825182)scale(0.09 -0.09)">
      <defs>
       <path id="DejaVuSans-52" d="M 2841 2188 
Q 3044 2119 3236 1894 
Q 3428 1669 3622 1275 
L 4263 0 
L 3584 0 
L 2988 1197 
Q 2756 1666 2539 1819 
Q 2322 1972 1947 1972 
L 1259 1972 
L 1259 0 
L 628 0 
L 628 4666 
L 2053 4666 
Q 2853 4666 3247 4331 
Q 3641 3997 3641 3322 
Q 3641 2881 3436 2590 
Q 3231 2300 2841 2188 
z
M 1259 4147 
L 1259 2491 
L 2053 2491 
Q 2509 2491 2742 2702 
Q 2975 2913 2975 3322 
Q 2975 3731 2742 3939 
Q 2509 4147 2053 4147 
L 1259 4147 
z
" transform="scale(0.015625)"/>
       <path id="DejaVuSans-4b" d="M 628 4666 
L 1259 4666 
L 1259 2694 
L 3353 4666 
L 4166 4666 
L 1850 2491 
L 4331 0 
L 3500 0 
L 1259 2247 
L 1259 0 
L 628 0 
L 628 4666 
z
" transform="scale(0.015625)"/>
      </defs>
      <use xlink:href="#DejaVuSans-52"/>
      <use xlink:href="#DejaVuSans-6f" x="64.982422"/>
      <use xlink:href="#DejaVuSans-62" x="126.164062"/>
      <use xlink:href="#DejaVuSans-65" x="189.640625"/>
      <use xlink:href="#DejaVuSans-72" x="251.164062"/>
      <use xlink:href="#DejaVuSans-74" x="292.277344"/>
      <use xlink:href="#DejaVuSans-20" x="331.486328"/>
      <use xlink:href="#DejaVuSans-4d" x="363.273438"/>
      <use xlink:href="#DejaVuSans-63" x="449.552734"/>
      <use xlink:href="#DejaVuSans-4b" x="504.533203"/>
      <use xlink:href="#DejaVuSans-69" x="570.109375"/>
      <use xlink:href="#DejaVuSans-6d" x="597.892578"/>
      <use xlink:href="#DejaVuSans-73" x="695.304688"/>
      <use xlink:href="#DejaVuSans-6f" x="747.404297"/>
      <use xlink:href="#DejaVuSans-6e" x="808.585938"/>
     </g>
    </g>
   </g>
   <g id="text_6">
    <g id="patch_7">
     <path d="M 142.889111 139.976283 
L 205.613486 139.976283 
L 205.613486 123.34597 
L 142.889111 123.34597 
z
" clip-path="url(#p8f62865c34)" style="fill: #ffffff; opacity: 0.7; stroke: #000000; stroke-linejoin: miter"/>
    </g>
    <g clip-path="url(#p8f62865c34)">
     <!-- Chuck Jones -->
     <g transform="translate(146.849111 134.144564)scale(0.09 -0.09)">
      <defs>
       <path id="DejaVuSans-6b" d="M 581 4863 
L 1159 4863 
L 1159 1991 
L 2875 3500 
L 3609 3500 
L 1753 1863 
L 3688 0 
L 2938 0 
L 1159 1709 
L 1159 0 
L 581 0 
L 581 4863 
z
" transform="scale(0.015625)"/>
      </defs>
      <use xlink:href="#DejaVuSans-43"/>
      <use xlink:href="#DejaVuSans-68" x="69.824219"/>
      <use xlink:href="#DejaVuSans-75" x="133.203125"/>
      <use xlink:href="#DejaVuSans-63" x="196.582031"/>
      <use xlink:href="#DejaVuSans-6b" x="251.5625"/>
      <use xlink:href="#DejaVuSans-20" x="309.472656"/>
      <use xlink:href="#DejaVuSans-4a" x="341.259766"/>
      <use xlink:href="#DejaVuSans-6f" x="370.751953"/>
      <use xlink:href="#DejaVuSans-6e" x="431.933594"/>
      <use xlink:href="#DejaVuSans-65" x="495.3125"/>
      <use xlink:href="#DejaVuSans-73" x="556.835938"/>
     </g>
    </g>
   </g>
   <g id="text_7">
    <g id="patch_8">
     <path d="M 68.31554 196.966995 
L 146.947415 196.966995 
L 146.947415 180.336682 
L 68.31554 180.336682 
z
" clip-path="url(#p8f62865c34)" style="fill: #ffffff; opacity: 0.7; stroke: #000000; stroke-linejoin: miter"/>
    </g>
    <g clip-path="url(#p8f62865c34)">
     <!-- Charles Chaplin -->
     <g transform="translate(72.27554 191.135276)scale(0.09 -0.09)">
      <use xlink:href="#DejaVuSans-43"/>
      <use xlink:href="#DejaVuSans-68" x="69.824219"/>
      <use xlink:href="#DejaVuSans-61" x="133.203125"/>
      <use xlink:href="#DejaVuSans-72" x="194.482422"/>
      <use xlink:href="#DejaVuSans-6c" x="235.595703"/>
      <use xlink:href="#DejaVuSans-65" x="263.378906"/>
      <use xlink:href="#DejaVuSans-73" x="324.902344"/>
      <use xlink:href="#DejaVuSans-20" x="377.001953"/>
      <use xlink:href="#DejaVuSans-43" x="408.789062"/>
      <use xlink:href="#DejaVuSans-68" x="478.613281"/>
      <use xlink:href="#DejaVuSans-61" x="541.992188"/>
      <use xlink:href="#DejaVuSans-70" x="603.271484"/>
      <use xlink:href="#DejaVuSans-6c" x="666.748047"/>
      <use xlink:href="#DejaVuSans-69" x="694.53125"/>
      <use xlink:href="#DejaVuSans-6e" x="722.314453"/>
     </g>
    </g>
   </g>
   <g id="text_8">
    <g id="patch_9">
     <path d="M 36.38634 274.77485 
L 105.952121 274.77485 
L 105.952121 258.144537 
L 36.38634 258.144537 
z
" clip-path="url(#p8f62865c34)" style="fill: #ffffff; opacity: 0.7; stroke: #000000; stroke-linejoin: miter"/>
    </g>
    <g clip-path="url(#p8f62865c34)">
     <!-- William Wyler -->
     <g transform="translate(40.34634 268.943131)scale(0.09 -0.09)">
      <use xlink:href="#DejaVuSans-57"/>
      <use xlink:href="#DejaVuSans-69" x="96.626953"/>
      <use xlink:href="#DejaVuSans-6c" x="124.410156"/>
      <use xlink:href="#DejaVuSans-6c" x="152.193359"/>
      <use xlink:href="#DejaVuSans-69" x="179.976562"/>
      <use xlink:href="#DejaVuSans-61" x="207.759766"/>
      <use xlink:href="#DejaVuSans-6d" x="269.039062"/>
      <use xlink:href="#DejaVuSans-20" x="366.451172"/>
      <use xlink:href="#DejaVuSans-57" x="398.238281"/>
      <use xlink:href="#DejaVuSans-79" x="495.365234"/>
      <use xlink:href="#DejaVuSans-6c" x="554.544922"/>
      <use xlink:href="#DejaVuSans-65" x="582.328125"/>
      <use xlink:href="#DejaVuSans-72" x="643.851562"/>
     </g>
    </g>
   </g>
   <g id="text_9">
    <g id="patch_10">
     <path d="M 35.017369 359.946138 
L 107.321119 359.946138 
L 107.321119 343.315826 
L 35.017369 343.315826 
z
" clip-path="url(#p8f62865c34)" style="fill: #ffffff; opacity: 0.7; stroke: #000000; stroke-linejoin: miter"/>
    </g>
    <g clip-path="url(#p8f62865c34)">
     <!-- John Cromwell -->
     <g transform="translate(38.977369 354.11442)scale(0.09 -0.09)">
      <use xlink:href="#DejaVuSans-4a"/>
      <use xlink:href="#DejaVuSans-6f" x="29.492188"/>
      <use xlink:href="#DejaVuSans-68" x="90.673828"/>
      <use xlink:href="#DejaVuSans-6e" x="154.052734"/>
      <use xlink:href="#DejaVuSans-20" x="217.431641"/>
      <use xlink:href="#DejaVuSans-43" x="249.21875"/>
      <use xlink:href="#DejaVuSans-72" x="319.042969"/>
      <use xlink:href="#DejaVuSans-6f" x="357.90625"/>
      <use xlink:href="#DejaVuSans-6d" x="419.087891"/>
      <use xlink:href="#DejaVuSans-77" x="516.5"/>
      <use xlink:href="#DejaVuSans-65" x="598.287109"/>
      <use xlink:href="#DejaVuSans-6c" x="659.810547"/>
      <use xlink:href="#DejaVuSans-6c" x="687.59375"/>
     </g>
    </g>
   </g>
   <g id="text_10">
    <g id="patch_11">
     <path d="M 72.022427 437.753969 
L 143.240552 437.753969 
L 143.240552 421.123656 
L 72.022427 421.123656 
z
" clip-path="url(#p8f62865c34)" style="fill: #ffffff; opacity: 0.7; stroke: #000000; stroke-linejoin: miter"/>
    </g>
    <g clip-path="url(#p8f62865c34)">
     <!-- Mervyn LeRoy -->
     <g transform="translate(75.982427 431.92225)scale(0.09 -0.09)">
      <defs>
       <path id="DejaVuSans-76" d="M 191 3500 
L 800 3500 
L 1894 563 
L 2988 3500 
L 3597 3500 
L 2284 0 
L 1503 0 
L 191 3500 
z
" transform="scale(0.015625)"/>
       <path id="DejaVuSans-4c" d="M 628 4666 
L 1259 4666 
L 1259 531 
L 3531 531 
L 3531 0 
L 628 0 
L 628 4666 
z
" transform="scale(0.015625)"/>
      </defs>
      <use xlink:href="#DejaVuSans-4d"/>
      <use xlink:href="#DejaVuSans-65" x="86.279297"/>
      <use xlink:href="#DejaVuSans-72" x="147.802734"/>
      <use xlink:href="#DejaVuSans-76" x="188.916016"/>
      <use xlink:href="#DejaVuSans-79" x="248.095703"/>
      <use xlink:href="#DejaVuSans-6e" x="307.275391"/>
      <use xlink:href="#DejaVuSans-20" x="370.654297"/>
      <use xlink:href="#DejaVuSans-4c" x="402.441406"/>
      <use xlink:href="#DejaVuSans-65" x="456.404297"/>
      <use xlink:href="#DejaVuSans-52" x="517.927734"/>
      <use xlink:href="#DejaVuSans-6f" x="582.910156"/>
      <use xlink:href="#DejaVuSans-79" x="644.091797"/>
     </g>
    </g>
   </g>
   <g id="text_11">
    <g id="patch_12">
     <path d="M 144.63008 494.744681 
L 203.87258 494.744681 
L 203.87258 478.114368 
L 144.63008 478.114368 
z
" clip-path="url(#p8f62865c34)" style="fill: #ffffff; opacity: 0.7; stroke: #000000; stroke-linejoin: miter"/>
    </g>
    <g clip-path="url(#p8f62865c34)">
     <!-- Friz Freleng -->
     <g transform="translate(148.59008 488.912962)scale(0.09 -0.09)">
      <defs>
       <path id="DejaVuSans-46" d="M 628 4666 
L 3309 4666 
L 3309 4134 
L 1259 4134 
L 1259 2759 
L 3109 2759 
L 3109 2228 
L 1259 2228 
L 1259 0 
L 628 0 
L 628 4666 
z
" transform="scale(0.015625)"/>
       <path id="DejaVuSans-67" d="M 2906 1791 
Q 2906 2416 2648 2759 
Q 2391 3103 1925 3103 
Q 1463 3103 1205 2759 
Q 947 2416 947 1791 
Q 947 1169 1205 825 
Q 1463 481 1925 481 
Q 2391 481 2648 825 
Q 2906 1169 2906 1791 
z
M 3481 434 
Q 3481 -459 3084 -895 
Q 2688 -1331 1869 -1331 
Q 1566 -1331 1297 -1286 
Q 1028 -1241 775 -1147 
L 775 -588 
Q 1028 -725 1275 -790 
Q 1522 -856 1778 -856 
Q 2344 -856 2625 -561 
Q 2906 -266 2906 331 
L 2906 616 
Q 2728 306 2450 153 
Q 2172 0 1784 0 
Q 1141 0 747 490 
Q 353 981 353 1791 
Q 353 2603 747 3093 
Q 1141 3584 1784 3584 
Q 2172 3584 2450 3431 
Q 2728 3278 2906 2969 
L 2906 3500 
L 3481 3500 
L 3481 434 
z
" transform="scale(0.015625)"/>
      </defs>
      <use xlink:href="#DejaVuSans-46"/>
      <use xlink:href="#DejaVuSans-72" x="50.269531"/>
      <use xlink:href="#DejaVuSans-69" x="91.382812"/>
      <use xlink:href="#DejaVuSans-7a" x="119.166016"/>
      <use xlink:href="#DejaVuSans-20" x="171.65625"/>
      <use xlink:href="#DejaVuSans-46" x="203.443359"/>
      <use xlink:href="#DejaVuSans-72" x="253.712891"/>
      <use xlink:href="#DejaVuSans-65" x="292.576172"/>
      <use xlink:href="#DejaVuSans-6c" x="354.099609"/>
      <use xlink:href="#DejaVuSans-65" x="381.882812"/>
      <use xlink:href="#DejaVuSans-6e" x="443.40625"/>
      <use xlink:href="#DejaVuSans-67" x="506.785156"/>
     </g>
    </g>
   </g>
   <g id="text_12">
    <g id="patch_13">
     <path d="M 228.385056 521.06405 
L 290.634118 521.06405 
L 290.634118 504.433738 
L 228.385056 504.433738 
z
" clip-path="url(#p8f62865c34)" style="fill: #ffffff; opacity: 0.7; stroke: #000000; stroke-linejoin: miter"/>
    </g>
    <g clip-path="url(#p8f62865c34)">
     <!-- John Huston -->
     <g transform="translate(232.345056 515.232332)scale(0.09 -0.09)">
      <use xlink:href="#DejaVuSans-4a"/>
      <use xlink:href="#DejaVuSans-6f" x="29.492188"/>
      <use xlink:href="#DejaVuSans-68" x="90.673828"/>
      <use xlink:href="#DejaVuSans-6e" x="154.052734"/>
      <use xlink:href="#DejaVuSans-20" x="217.431641"/>
      <use xlink:href="#DejaVuSans-48" x="249.21875"/>
      <use xlink:href="#DejaVuSans-75" x="324.414062"/>
      <use xlink:href="#DejaVuSans-73" x="387.792969"/>
      <use xlink:href="#DejaVuSans-74" x="439.892578"/>
      <use xlink:href="#DejaVuSans-6f" x="479.101562"/>
      <use xlink:href="#DejaVuSans-6e" x="540.283203"/>
     </g>
    </g>
   </g>
   <g id="text_13">
    <g id="patch_14">
     <path d="M 299.831589 512.161215 
L 397.497058 512.161215 
L 397.497058 495.530903 
L 299.831589 495.530903 
z
" clip-path="url(#p8f62865c34)" style="fill: #ffffff; opacity: 0.7; stroke: #000000; stroke-linejoin: miter"/>
    </g>
    <g clip-path="url(#p8f62865c34)">
     <!-- John Frankenheimer -->
     <g transform="translate(303.791589 506.329497)scale(0.09 -0.09)">
      <use xlink:href="#DejaVuSans-4a"/>
      <use xlink:href="#DejaVuSans-6f" x="29.492188"/>
      <use xlink:href="#DejaVuSans-68" x="90.673828"/>
      <use xlink:href="#DejaVuSans-6e" x="154.052734"/>
      <use xlink:href="#DejaVuSans-20" x="217.431641"/>
      <use xlink:href="#DejaVuSans-46" x="249.21875"/>
      <use xlink:href="#DejaVuSans-72" x="299.488281"/>
      <use xlink:href="#DejaVuSans-61" x="340.601562"/>
      <use xlink:href="#DejaVuSans-6e" x="401.880859"/>
      <use xlink:href="#DejaVuSans-6b" x="465.259766"/>
      <use xlink:href="#DejaVuSans-65" x="519.544922"/>
      <use xlink:href="#DejaVuSans-6e" x="581.068359"/>
      <use xlink:href="#DejaVuSans-68" x="644.447266"/>
      <use xlink:href="#DejaVuSans-65" x="707.826172"/>
      <use xlink:href="#DejaVuSans-69" x="769.349609"/>
      <use xlink:href="#DejaVuSans-6d" x="797.132812"/>
      <use xlink:href="#DejaVuSans-65" x="894.544922"/>
      <use xlink:href="#DejaVuSans-72" x="956.068359"/>
     </g>
    </g>
   </g>
   <g id="text_14">
    <g id="patch_15">
     <path d="M 374.755904 469.575553 
L 477.843873 469.575553 
L 477.843873 452.94524 
L 374.755904 452.94524 
z
" clip-path="url(#p8f62865c34)" style="fill: #ffffff; opacity: 0.7; stroke: #000000; stroke-linejoin: miter"/>
    </g>
    <g clip-path="url(#p8f62865c34)">
     <!-- Joseph L. Mankiewicz -->
     <g transform="translate(378.715904 463.743834)scale(0.09 -0.09)">
      <defs>
       <path id="DejaVuSans-2e" d="M 684 794 
L 1344 794 
L 1344 0 
L 684 0 
L 684 794 
z
" transform="scale(0.015625)"/>
      </defs>
      <use xlink:href="#DejaVuSans-4a"/>
      <use xlink:href="#DejaVuSans-6f" x="29.492188"/>
      <use xlink:href="#DejaVuSans-73" x="90.673828"/>
      <use xlink:href="#DejaVuSans-65" x="142.773438"/>
      <use xlink:href="#DejaVuSans-70" x="204.296875"/>
      <use xlink:href="#DejaVuSans-68" x="267.773438"/>
      <use xlink:href="#DejaVuSans-20" x="331.152344"/>
      <use xlink:href="#DejaVuSans-4c" x="362.939453"/>
      <use xlink:href="#DejaVuSans-2e" x="418.652344"/>
      <use xlink:href="#DejaVuSans-20" x="450.439453"/>
      <use xlink:href="#DejaVuSans-4d" x="482.226562"/>
      <use xlink:href="#DejaVuSans-61" x="568.505859"/>
      <use xlink:href="#DejaVuSans-6e" x="629.785156"/>
      <use xlink:href="#DejaVuSans-6b" x="693.164062"/>
      <use xlink:href="#DejaVuSans-69" x="751.074219"/>
      <use xlink:href="#DejaVuSans-65" x="778.857422"/>
      <use xlink:href="#DejaVuSans-77" x="840.380859"/>
      <use xlink:href="#DejaVuSans-69" x="922.167969"/>
      <use xlink:href="#DejaVuSans-63" x="949.951172"/>
      <use xlink:href="#DejaVuSans-7a" x="1004.931641"/>
     </g>
    </g>
   </g>
   <g id="text_15">
    <g id="patch_16">
     <path d="M 452.726436 400.670533 
L 505.258311 400.670533 
L 505.258311 384.04022 
L 452.726436 384.04022 
z
" clip-path="url(#p8f62865c34)" style="fill: #ffffff; opacity: 0.7; stroke: #000000; stroke-linejoin: miter"/>
    </g>
    <g clip-path="url(#p8f62865c34)">
     <!-- Don Bluth -->
     <g transform="translate(456.686436 394.838814)scale(0.09 -0.09)">
      <defs>
       <path id="DejaVuSans-44" d="M 1259 4147 
L 1259 519 
L 2022 519 
Q 2988 519 3436 956 
Q 3884 1394 3884 2338 
Q 3884 3275 3436 3711 
Q 2988 4147 2022 4147 
L 1259 4147 
z
M 628 4666 
L 1925 4666 
Q 3281 4666 3915 4102 
Q 4550 3538 4550 2338 
Q 4550 1131 3912 565 
Q 3275 0 1925 0 
L 628 0 
L 628 4666 
z
" transform="scale(0.015625)"/>
      </defs>
      <use xlink:href="#DejaVuSans-44"/>
      <use xlink:href="#DejaVuSans-6f" x="77.001953"/>
      <use xlink:href="#DejaVuSans-6e" x="138.183594"/>
      <use xlink:href="#DejaVuSans-20" x="201.5625"/>
      <use xlink:href="#DejaVuSans-42" x="233.349609"/>
      <use xlink:href="#DejaVuSans-6c" x="301.953125"/>
      <use xlink:href="#DejaVuSans-75" x="329.736328"/>
      <use xlink:href="#DejaVuSans-74" x="393.115234"/>
      <use xlink:href="#DejaVuSans-68" x="432.324219"/>
     </g>
    </g>
   </g>
   <g id="text_16">
    <!-- Impactful directors for Black-and-white genre - Importance rank: 6 -->
    <g transform="translate(84.741562 16.318125)scale(0.12 -0.12)">
     <defs>
      <path id="DejaVuSans-49" d="M 628 4666 
L 1259 4666 
L 1259 0 
L 628 0 
L 628 4666 
z
" transform="scale(0.015625)"/>
      <path id="DejaVuSans-66" d="M 2375 4863 
L 2375 4384 
L 1825 4384 
Q 1516 4384 1395 4259 
Q 1275 4134 1275 3809 
L 1275 3500 
L 2222 3500 
L 2222 3053 
L 1275 3053 
L 1275 0 
L 697 0 
L 697 3053 
L 147 3053 
L 147 3500 
L 697 3500 
L 697 3744 
Q 697 4328 969 4595 
Q 1241 4863 1831 4863 
L 2375 4863 
z
" transform="scale(0.015625)"/>
      <path id="DejaVuSans-64" d="M 2906 2969 
L 2906 4863 
L 3481 4863 
L 3481 0 
L 2906 0 
L 2906 525 
Q 2725 213 2448 61 
Q 2172 -91 1784 -91 
Q 1150 -91 751 415 
Q 353 922 353 1747 
Q 353 2572 751 3078 
Q 1150 3584 1784 3584 
Q 2172 3584 2448 3432 
Q 2725 3281 2906 2969 
z
M 947 1747 
Q 947 1113 1208 752 
Q 1469 391 1925 391 
Q 2381 391 2643 752 
Q 2906 1113 2906 1747 
Q 2906 2381 2643 2742 
Q 2381 3103 1925 3103 
Q 1469 3103 1208 2742 
Q 947 2381 947 1747 
z
" transform="scale(0.015625)"/>
      <path id="DejaVuSans-2d" d="M 313 2009 
L 1997 2009 
L 1997 1497 
L 313 1497 
L 313 2009 
z
" transform="scale(0.015625)"/>
      <path id="DejaVuSans-3a" d="M 750 794 
L 1409 794 
L 1409 0 
L 750 0 
L 750 794 
z
M 750 3309 
L 1409 3309 
L 1409 2516 
L 750 2516 
L 750 3309 
z
" transform="scale(0.015625)"/>
      <path id="DejaVuSans-36" d="M 2113 2584 
Q 1688 2584 1439 2293 
Q 1191 2003 1191 1497 
Q 1191 994 1439 701 
Q 1688 409 2113 409 
Q 2538 409 2786 701 
Q 3034 994 3034 1497 
Q 3034 2003 2786 2293 
Q 2538 2584 2113 2584 
z
M 3366 4563 
L 3366 3988 
Q 3128 4100 2886 4159 
Q 2644 4219 2406 4219 
Q 1781 4219 1451 3797 
Q 1122 3375 1075 2522 
Q 1259 2794 1537 2939 
Q 1816 3084 2150 3084 
Q 2853 3084 3261 2657 
Q 3669 2231 3669 1497 
Q 3669 778 3244 343 
Q 2819 -91 2113 -91 
Q 1303 -91 875 529 
Q 447 1150 447 2328 
Q 447 3434 972 4092 
Q 1497 4750 2381 4750 
Q 2619 4750 2861 4703 
Q 3103 4656 3366 4563 
z
" transform="scale(0.015625)"/>
     </defs>
     <use xlink:href="#DejaVuSans-49"/>
     <use xlink:href="#DejaVuSans-6d" x="29.492188"/>
     <use xlink:href="#DejaVuSans-70" x="126.904297"/>
     <use xlink:href="#DejaVuSans-61" x="190.380859"/>
     <use xlink:href="#DejaVuSans-63" x="251.660156"/>
     <use xlink:href="#DejaVuSans-74" x="306.640625"/>
     <use xlink:href="#DejaVuSans-66" x="345.849609"/>
     <use xlink:href="#DejaVuSans-75" x="381.054688"/>
     <use xlink:href="#DejaVuSans-6c" x="444.433594"/>
     <use xlink:href="#DejaVuSans-20" x="472.216797"/>
     <use xlink:href="#DejaVuSans-64" x="504.003906"/>
     <use xlink:href="#DejaVuSans-69" x="567.480469"/>
     <use xlink:href="#DejaVuSans-72" x="595.263672"/>
     <use xlink:href="#DejaVuSans-65" x="634.126953"/>
     <use xlink:href="#DejaVuSans-63" x="695.650391"/>
     <use xlink:href="#DejaVuSans-74" x="750.630859"/>
     <use xlink:href="#DejaVuSans-6f" x="789.839844"/>
     <use xlink:href="#DejaVuSans-72" x="851.021484"/>
     <use xlink:href="#DejaVuSans-73" x="892.134766"/>
     <use xlink:href="#DejaVuSans-20" x="944.234375"/>
     <use xlink:href="#DejaVuSans-66" x="976.021484"/>
     <use xlink:href="#DejaVuSans-6f" x="1011.226562"/>
     <use xlink:href="#DejaVuSans-72" x="1072.408203"/>
     <use xlink:href="#DejaVuSans-20" x="1113.521484"/>
     <use xlink:href="#DejaVuSans-42" x="1145.308594"/>
     <use xlink:href="#DejaVuSans-6c" x="1213.912109"/>
     <use xlink:href="#DejaVuSans-61" x="1241.695312"/>
     <use xlink:href="#DejaVuSans-63" x="1302.974609"/>
     <use xlink:href="#DejaVuSans-6b" x="1357.955078"/>
     <use xlink:href="#DejaVuSans-2d" x="1415.865234"/>
     <use xlink:href="#DejaVuSans-61" x="1451.949219"/>
     <use xlink:href="#DejaVuSans-6e" x="1513.228516"/>
     <use xlink:href="#DejaVuSans-64" x="1576.607422"/>
     <use xlink:href="#DejaVuSans-2d" x="1640.083984"/>
     <use xlink:href="#DejaVuSans-77" x="1676.167969"/>
     <use xlink:href="#DejaVuSans-68" x="1757.955078"/>
     <use xlink:href="#DejaVuSans-69" x="1821.333984"/>
     <use xlink:href="#DejaVuSans-74" x="1849.117188"/>
     <use xlink:href="#DejaVuSans-65" x="1888.326172"/>
     <use xlink:href="#DejaVuSans-20" x="1949.849609"/>
     <use xlink:href="#DejaVuSans-67" x="1981.636719"/>
     <use xlink:href="#DejaVuSans-65" x="2045.113281"/>
     <use xlink:href="#DejaVuSans-6e" x="2106.636719"/>
     <use xlink:href="#DejaVuSans-72" x="2170.015625"/>
     <use xlink:href="#DejaVuSans-65" x="2208.878906"/>
     <use xlink:href="#DejaVuSans-20" x="2270.402344"/>
     <use xlink:href="#DejaVuSans-2d" x="2302.189453"/>
     <use xlink:href="#DejaVuSans-20" x="2338.273438"/>
     <use xlink:href="#DejaVuSans-49" x="2370.060547"/>
     <use xlink:href="#DejaVuSans-6d" x="2399.552734"/>
     <use xlink:href="#DejaVuSans-70" x="2496.964844"/>
     <use xlink:href="#DejaVuSans-6f" x="2560.441406"/>
     <use xlink:href="#DejaVuSans-72" x="2621.623047"/>
     <use xlink:href="#DejaVuSans-74" x="2662.736328"/>
     <use xlink:href="#DejaVuSans-61" x="2701.945312"/>
     <use xlink:href="#DejaVuSans-6e" x="2763.224609"/>
     <use xlink:href="#DejaVuSans-63" x="2826.603516"/>
     <use xlink:href="#DejaVuSans-65" x="2881.583984"/>
     <use xlink:href="#DejaVuSans-20" x="2943.107422"/>
     <use xlink:href="#DejaVuSans-72" x="2974.894531"/>
     <use xlink:href="#DejaVuSans-61" x="3016.007812"/>
     <use xlink:href="#DejaVuSans-6e" x="3077.287109"/>
     <use xlink:href="#DejaVuSans-6b" x="3140.666016"/>
     <use xlink:href="#DejaVuSans-3a" x="3198.576172"/>
     <use xlink:href="#DejaVuSans-20" x="3232.267578"/>
     <use xlink:href="#DejaVuSans-36" x="3264.054688"/>
    </g>
   </g>
  </g>
 </g>
 <defs>
  <clipPath id="p8f62865c34">
   <rect x="7.2" y="22.318125" width="554.4" height="554.4"/>
  </clipPath>
 </defs>
</svg>
