<?xml version="1.0" encoding="utf-8" standalone="no"?>
<!DOCTYPE svg PUBLIC "-//W3C//DTD SVG 1.1//EN"
  "http://www.w3.org/Graphics/SVG/1.1/DTD/svg11.dtd">
<svg xmlns:xlink="http://www.w3.org/1999/xlink" width="568.8pt" height="583.918125pt" viewBox="0 0 568.8 583.918125" xmlns="http://www.w3.org/2000/svg" version="1.1">
 <metadata>
  <rdf:RDF xmlns:dc="http://purl.org/dc/elements/1.1/" xmlns:cc="http://creativecommons.org/ns#" xmlns:rdf="http://www.w3.org/1999/02/22-rdf-syntax-ns#">
   <cc:Work>
    <dc:type rdf:resource="http://purl.org/dc/dcmitype/StillImage"/>
    <dc:date>2022-12-23T19:49:55.842727</dc:date>
    <dc:format>image/svg+xml</dc:format>
    <dc:creator>
     <cc:Agent>
      <dc:title>Matplotlib v3.5.3, https://matplotlib.org/</dc:title>
     </cc:Agent>
    </dc:creator>
   </cc:Work>
  </rdf:RDF>
 </metadata>
 <defs>
  <style type="text/css">*{stroke-linejoin: round; stroke-linecap: butt}</style>
 </defs>
 <g id="figure_1">
  <g id="patch_1">
   <path d="M 0 583.918125 
L 568.8 583.918125 
L 568.8 0 
L 0 0 
z
" style="fill: #ffffff"/>
  </g>
  <g id="axes_1">
   <g id="LineCollection_1">
    <path d="M 485.652437 293.20075 
L 467.694863 208.121247 
" clip-path="url(#p0d876714c9)" style="fill: none; stroke: #000000; stroke-opacity: 0.3; stroke-width: 5"/>
    <path d="M 256.229613 85.170732 
L 174.085784 112.049109 
" clip-path="url(#p0d876714c9)" style="fill: none; stroke: #000000; stroke-opacity: 0.3; stroke-width: 10"/>
   </g>
   <g id="PathCollection_1">
    <path d="M 485.652437 320.586878 
C 492.915323 320.586878 499.881717 317.701303 505.017353 312.565667 
C 510.152989 307.430031 513.038564 300.463636 513.038564 293.20075 
C 513.038564 285.937864 510.152989 278.97147 505.017353 273.835834 
C 499.881717 268.700198 492.915323 265.814623 485.652437 265.814623 
C 478.389551 265.814623 471.423156 268.700198 466.28752 273.835834 
C 461.151884 278.97147 458.266309 285.937864 458.266309 293.20075 
C 458.266309 300.463636 461.151884 307.430031 466.28752 312.565667 
C 471.423156 317.701303 478.389551 320.586878 485.652437 320.586878 
z
" clip-path="url(#p0d876714c9)" style="fill: #c70039; fill-opacity: 0.99; stroke: #c70039; stroke-opacity: 0.99"/>
    <path d="M 467.694863 231.528402 
C 473.902514 231.528402 479.85675 229.062077 484.246222 224.672605 
C 488.635693 220.283133 491.102019 214.328897 491.102019 208.121247 
C 491.102019 201.913596 488.635693 195.95936 484.246222 191.569888 
C 479.85675 187.180416 473.902514 184.714091 467.694863 184.714091 
C 461.487213 184.714091 455.532976 187.180416 451.143505 191.569888 
C 446.754033 195.95936 444.287708 201.913596 444.287708 208.121247 
C 444.287708 214.328897 446.754033 220.283133 451.143505 224.672605 
C 455.532976 229.062077 461.487213 231.528402 467.694863 231.528402 
z
" clip-path="url(#p0d876714c9)" style="fill: #c70039; fill-opacity: 0.99; stroke: #c70039; stroke-opacity: 0.99"/>
    <path d="M 416.927184 160.615343 
C 422.990414 160.615343 428.806126 158.206396 433.093477 153.919045 
C 437.380828 149.631694 439.789775 143.815982 439.789775 137.752752 
C 439.789775 131.689522 437.380828 125.87381 433.093477 121.586459 
C 428.806126 117.299108 422.990414 114.890161 416.927184 114.890161 
C 410.863954 114.890161 405.048242 117.299108 400.760891 121.586459 
C 396.47354 125.87381 394.064594 131.689522 394.064594 137.752752 
C 394.064594 143.815982 396.47354 149.631694 400.760891 153.919045 
C 405.048242 158.206396 410.863954 160.615343 416.927184 160.615343 
z
" clip-path="url(#p0d876714c9)" style="fill: #c70039; fill-opacity: 0.99; stroke: #c70039; stroke-opacity: 0.99"/>
    <path d="M 342.127597 116.695614 
C 348.076891 116.695614 353.783318 114.331934 357.990104 110.125148 
C 362.19689 105.918362 364.56057 100.211935 364.56057 94.262641 
C 364.56057 88.313347 362.19689 82.60692 357.990104 78.400134 
C 353.783318 74.193347 348.076891 71.829668 342.127597 71.829668 
C 336.178303 71.829668 330.471875 74.193347 326.265089 78.400134 
C 322.058303 82.60692 319.694624 88.313347 319.694624 94.262641 
C 319.694624 100.211935 322.058303 105.918362 326.265089 110.125148 
C 330.471875 114.331934 336.178303 116.695614 342.127597 116.695614 
z
" clip-path="url(#p0d876714c9)" style="fill: #c70039; fill-opacity: 0.99; stroke: #c70039; stroke-opacity: 0.99"/>
    <path d="M 256.229613 107.360355 
C 262.114369 107.360355 267.758894 105.022316 271.920045 100.861165 
C 276.081197 96.700013 278.419236 91.055489 278.419236 85.170732 
C 278.419236 79.285975 276.081197 73.64145 271.920045 69.480299 
C 267.758894 65.319147 262.114369 62.981109 256.229613 62.981109 
C 250.344856 62.981109 244.700331 65.319147 240.53918 69.480299 
C 236.378028 73.64145 234.03999 79.285975 234.03999 85.170732 
C 234.03999 91.055489 236.378028 96.700013 240.53918 100.861165 
C 244.700331 105.022316 250.344856 107.360355 256.229613 107.360355 
z
" clip-path="url(#p0d876714c9)" style="fill: #c70039; fill-opacity: 0.99; stroke: #c70039; stroke-opacity: 0.99"/>
    <path d="M 174.085784 134.238732 
C 179.970541 134.238732 185.615066 131.900693 189.776217 127.739542 
C 193.937369 123.57839 196.275408 117.933866 196.275408 112.049109 
C 196.275408 106.164352 193.937369 100.519827 189.776217 96.358676 
C 185.615066 92.197524 179.970541 89.859486 174.085784 89.859486 
C 168.201028 89.859486 162.556503 92.197524 158.395352 96.358676 
C 154.2342 100.519827 151.896161 106.164352 151.896161 112.049109 
C 151.896161 117.933866 154.2342 123.57839 158.395352 127.739542 
C 162.556503 131.900693 168.201028 134.238732 174.085784 134.238732 
z
" clip-path="url(#p0d876714c9)" style="fill: #c70039; fill-opacity: 0.99; stroke: #c70039; stroke-opacity: 0.99"/>
    <path d="M 109.899537 191.367836 
C 115.499989 191.367836 120.871814 189.142753 124.831931 185.182636 
C 128.792048 181.222518 131.017131 175.850693 131.017131 170.250242 
C 131.017131 164.649791 128.792048 159.277965 124.831931 155.317848 
C 120.871814 151.357731 115.499989 149.132648 109.899537 149.132648 
C 104.299086 149.132648 98.927261 151.357731 94.967144 155.317848 
C 91.007027 159.277965 88.781944 164.649791 88.781944 170.250242 
C 88.781944 175.850693 91.007027 181.222518 94.967144 185.182636 
C 98.927261 189.142753 104.299086 191.367836 109.899537 191.367836 
z
" clip-path="url(#p0d876714c9)" style="fill: #c70039; fill-opacity: 0.99; stroke: #c70039; stroke-opacity: 0.99"/>
    <path d="M 74.769231 270.460568 
C 80.272173 270.460568 85.55047 268.274226 89.441638 264.383059 
C 93.332805 260.491891 95.519147 255.213594 95.519147 249.710652 
C 95.519147 244.20771 93.332805 238.929413 89.441638 235.038245 
C 85.55047 231.147077 80.272173 228.960735 74.769231 228.960735 
C 69.266289 228.960735 63.987992 231.147077 60.096824 235.038245 
C 56.205656 238.929413 54.019314 244.20771 54.019314 249.710652 
C 54.019314 255.213594 56.205656 260.491891 60.096824 264.383059 
C 63.987992 268.274226 69.266289 270.460568 74.769231 270.460568 
z
" clip-path="url(#p0d876714c9)" style="fill: #c70039; fill-opacity: 0.99; stroke: #c70039; stroke-opacity: 0.99"/>
    <path d="M 74.769243 357.23927 
C 80.218738 357.23927 85.44577 355.074163 89.299145 351.220788 
C 93.15252 347.367413 95.317627 342.140382 95.317627 336.690887 
C 95.317627 331.241391 93.15252 326.01436 89.299145 322.160985 
C 85.44577 318.30761 80.218738 316.142503 74.769243 316.142503 
C 69.319748 316.142503 64.092717 318.30761 60.239342 322.160985 
C 56.385967 326.01436 54.220859 331.241391 54.220859 336.690887 
C 54.220859 342.140382 56.385967 347.367413 60.239342 351.220788 
C 64.092717 355.074163 69.319748 357.23927 74.769243 357.23927 
z
" clip-path="url(#p0d876714c9)" style="fill: #c70039; fill-opacity: 0.99; stroke: #c70039; stroke-opacity: 0.99"/>
    <path d="M 109.89955 436.660687 
C 115.33871 436.660687 120.555829 434.499685 124.401896 430.653618 
C 128.247964 426.807551 130.408965 421.590432 130.408965 416.151271 
C 130.408965 410.712111 128.247964 405.494992 124.401896 401.648925 
C 120.555829 397.802858 115.33871 395.641856 109.89955 395.641856 
C 104.460389 395.641856 99.24327 397.802858 95.397203 401.648925 
C 91.551136 405.494992 89.390135 410.712111 89.390135 416.151271 
C 89.390135 421.590432 91.551136 426.807551 95.397203 430.653618 
C 99.24327 434.499685 104.460389 436.660687 109.89955 436.660687 
z
" clip-path="url(#p0d876714c9)" style="fill: #c70039; fill-opacity: 0.99; stroke: #c70039; stroke-opacity: 0.99"/>
    <path d="M 174.085815 494.660025 
C 179.471459 494.660025 184.637246 492.520286 188.445472 488.712061 
C 192.253697 484.903836 194.393436 479.738049 194.393436 474.352405 
C 194.393436 468.966761 192.253697 463.800974 188.445472 459.992748 
C 184.637246 456.184523 179.471459 454.044784 174.085815 454.044784 
C 168.700171 454.044784 163.534384 456.184523 159.726159 459.992748 
C 155.917934 463.800974 153.778195 468.966761 153.778195 474.352405 
C 153.778195 479.738049 155.917934 484.903836 159.726159 488.712061 
C 163.534384 492.520286 168.700171 494.660025 174.085815 494.660025 
z
" clip-path="url(#p0d876714c9)" style="fill: #c70039; fill-opacity: 0.99; stroke: #c70039; stroke-opacity: 0.99"/>
    <path d="M 256.22965 521.341208 
C 261.563001 521.341208 266.678629 519.222246 270.449878 515.450997 
C 274.221126 511.679749 276.340089 506.56412 276.340089 501.230769 
C 276.340089 495.897418 274.221126 490.78179 270.449878 487.010541 
C 266.678629 483.239293 261.563001 481.12033 256.22965 481.12033 
C 250.896299 481.12033 245.78067 483.239293 242.009422 487.010541 
C 238.238173 490.78179 236.11921 495.897418 236.11921 501.230769 
C 236.11921 506.56412 238.238173 511.679749 242.009422 515.450997 
C 245.78067 519.222246 250.896299 521.341208 256.22965 521.341208 
z
" clip-path="url(#p0d876714c9)" style="fill: #c70039; fill-opacity: 0.99; stroke: #c70039; stroke-opacity: 0.99"/>
    <path d="M 342.127628 511.899566 
C 347.368231 511.899566 352.394899 509.817452 356.100566 506.111786 
C 359.806232 502.406119 361.888346 497.379451 361.888346 492.138848 
C 361.888346 486.898244 359.806232 481.871576 356.100566 478.165909 
C 352.394899 474.460243 347.368231 472.378129 342.127628 472.378129 
C 336.887024 472.378129 331.860356 474.460243 328.15469 478.165909 
C 324.449023 481.871576 322.366909 486.898244 322.366909 492.138848 
C 322.366909 497.379451 324.449023 502.406119 328.15469 506.111786 
C 331.860356 509.817452 336.887024 511.899566 342.127628 511.899566 
z
" clip-path="url(#p0d876714c9)" style="fill: #c70039; fill-opacity: 0.99; stroke: #c70039; stroke-opacity: 0.99"/>
    <path d="M 416.927221 468.252348 
C 422.126167 468.252348 427.112876 466.186785 430.789086 462.510576 
C 434.465295 458.834366 436.530858 453.847657 436.530858 448.648711 
C 436.530858 443.449766 434.465295 438.463057 430.789086 434.786847 
C 427.112876 431.110638 422.126167 429.045075 416.927221 429.045075 
C 411.728276 429.045075 406.741567 431.110638 403.065357 434.786847 
C 399.389148 438.463057 397.323585 443.449766 397.323585 448.648711 
C 397.323585 453.847657 399.389148 458.834366 403.065357 462.510576 
C 406.741567 466.186785 411.728276 468.252348 416.927221 468.252348 
z
" clip-path="url(#p0d876714c9)" style="fill: #c70039; fill-opacity: 0.99; stroke: #c70039; stroke-opacity: 0.99"/>
    <path d="M 467.694888 397.64514 
C 472.830524 397.64514 477.756509 395.60473 481.387952 391.973287 
C 485.019395 388.341844 487.059805 383.415859 487.059805 378.280223 
C 487.059805 373.144587 485.019395 368.218602 481.387952 364.587159 
C 477.756509 360.955716 472.830524 358.915307 467.694888 358.915307 
C 462.559252 358.915307 457.633267 360.955716 454.001824 364.587159 
C 450.370381 368.218602 448.329971 373.144587 448.329971 378.280223 
C 448.329971 383.415859 450.370381 388.341844 454.001824 391.973287 
C 457.633267 395.60473 462.559252 397.64514 467.694888 397.64514 
z
" clip-path="url(#p0d876714c9)" style="fill: #c70039; fill-opacity: 0.99; stroke: #c70039; stroke-opacity: 0.99"/>
   </g>
   <g id="text_1">
    <g id="patch_2">
     <path d="M 454.290249 301.515907 
L 517.014624 301.515907 
L 517.014624 284.885594 
L 454.290249 284.885594 
z
" clip-path="url(#p0d876714c9)" style="fill: #ffffff; opacity: 0.7; stroke: #000000; stroke-linejoin: miter"/>
    </g>
    <g clip-path="url(#p0d876714c9)">
     <!-- Chuck Jones -->
     <g transform="translate(458.250249 295.684188)scale(0.09 -0.09)">
      <defs>
       <path id="DejaVuSans-43" d="M 4122 4306 
L 4122 3641 
Q 3803 3938 3442 4084 
Q 3081 4231 2675 4231 
Q 1875 4231 1450 3742 
Q 1025 3253 1025 2328 
Q 1025 1406 1450 917 
Q 1875 428 2675 428 
Q 3081 428 3442 575 
Q 3803 722 4122 1019 
L 4122 359 
Q 3791 134 3420 21 
Q 3050 -91 2638 -91 
Q 1578 -91 968 557 
Q 359 1206 359 2328 
Q 359 3453 968 4101 
Q 1578 4750 2638 4750 
Q 3056 4750 3426 4639 
Q 3797 4528 4122 4306 
z
" transform="scale(0.015625)"/>
       <path id="DejaVuSans-68" d="M 3513 2113 
L 3513 0 
L 2938 0 
L 2938 2094 
Q 2938 2591 2744 2837 
Q 2550 3084 2163 3084 
Q 1697 3084 1428 2787 
Q 1159 2491 1159 1978 
L 1159 0 
L 581 0 
L 581 4863 
L 1159 4863 
L 1159 2956 
Q 1366 3272 1645 3428 
Q 1925 3584 2291 3584 
Q 2894 3584 3203 3211 
Q 3513 2838 3513 2113 
z
" transform="scale(0.015625)"/>
       <path id="DejaVuSans-75" d="M 544 1381 
L 544 3500 
L 1119 3500 
L 1119 1403 
Q 1119 906 1312 657 
Q 1506 409 1894 409 
Q 2359 409 2629 706 
Q 2900 1003 2900 1516 
L 2900 3500 
L 3475 3500 
L 3475 0 
L 2900 0 
L 2900 538 
Q 2691 219 2414 64 
Q 2138 -91 1772 -91 
Q 1169 -91 856 284 
Q 544 659 544 1381 
z
M 1991 3584 
L 1991 3584 
z
" transform="scale(0.015625)"/>
       <path id="DejaVuSans-63" d="M 3122 3366 
L 3122 2828 
Q 2878 2963 2633 3030 
Q 2388 3097 2138 3097 
Q 1578 3097 1268 2742 
Q 959 2388 959 1747 
Q 959 1106 1268 751 
Q 1578 397 2138 397 
Q 2388 397 2633 464 
Q 2878 531 3122 666 
L 3122 134 
Q 2881 22 2623 -34 
Q 2366 -91 2075 -91 
Q 1284 -91 818 406 
Q 353 903 353 1747 
Q 353 2603 823 3093 
Q 1294 3584 2113 3584 
Q 2378 3584 2631 3529 
Q 2884 3475 3122 3366 
z
" transform="scale(0.015625)"/>
       <path id="DejaVuSans-6b" d="M 581 4863 
L 1159 4863 
L 1159 1991 
L 2875 3500 
L 3609 3500 
L 1753 1863 
L 3688 0 
L 2938 0 
L 1159 1709 
L 1159 0 
L 581 0 
L 581 4863 
z
" transform="scale(0.015625)"/>
       <path id="DejaVuSans-20" transform="scale(0.015625)"/>
       <path id="DejaVuSans-4a" d="M 628 4666 
L 1259 4666 
L 1259 325 
Q 1259 -519 939 -900 
Q 619 -1281 -91 -1281 
L -331 -1281 
L -331 -750 
L -134 -750 
Q 284 -750 456 -515 
Q 628 -281 628 325 
L 628 4666 
z
" transform="scale(0.015625)"/>
       <path id="DejaVuSans-6f" d="M 1959 3097 
Q 1497 3097 1228 2736 
Q 959 2375 959 1747 
Q 959 1119 1226 758 
Q 1494 397 1959 397 
Q 2419 397 2687 759 
Q 2956 1122 2956 1747 
Q 2956 2369 2687 2733 
Q 2419 3097 1959 3097 
z
M 1959 3584 
Q 2709 3584 3137 3096 
Q 3566 2609 3566 1747 
Q 3566 888 3137 398 
Q 2709 -91 1959 -91 
Q 1206 -91 779 398 
Q 353 888 353 1747 
Q 353 2609 779 3096 
Q 1206 3584 1959 3584 
z
" transform="scale(0.015625)"/>
       <path id="DejaVuSans-6e" d="M 3513 2113 
L 3513 0 
L 2938 0 
L 2938 2094 
Q 2938 2591 2744 2837 
Q 2550 3084 2163 3084 
Q 1697 3084 1428 2787 
Q 1159 2491 1159 1978 
L 1159 0 
L 581 0 
L 581 3500 
L 1159 3500 
L 1159 2956 
Q 1366 3272 1645 3428 
Q 1925 3584 2291 3584 
Q 2894 3584 3203 3211 
Q 3513 2838 3513 2113 
z
" transform="scale(0.015625)"/>
       <path id="DejaVuSans-65" d="M 3597 1894 
L 3597 1613 
L 953 1613 
Q 991 1019 1311 708 
Q 1631 397 2203 397 
Q 2534 397 2845 478 
Q 3156 559 3463 722 
L 3463 178 
Q 3153 47 2828 -22 
Q 2503 -91 2169 -91 
Q 1331 -91 842 396 
Q 353 884 353 1716 
Q 353 2575 817 3079 
Q 1281 3584 2069 3584 
Q 2775 3584 3186 3129 
Q 3597 2675 3597 1894 
z
M 3022 2063 
Q 3016 2534 2758 2815 
Q 2500 3097 2075 3097 
Q 1594 3097 1305 2825 
Q 1016 2553 972 2059 
L 3022 2063 
z
" transform="scale(0.015625)"/>
       <path id="DejaVuSans-73" d="M 2834 3397 
L 2834 2853 
Q 2591 2978 2328 3040 
Q 2066 3103 1784 3103 
Q 1356 3103 1142 2972 
Q 928 2841 928 2578 
Q 928 2378 1081 2264 
Q 1234 2150 1697 2047 
L 1894 2003 
Q 2506 1872 2764 1633 
Q 3022 1394 3022 966 
Q 3022 478 2636 193 
Q 2250 -91 1575 -91 
Q 1294 -91 989 -36 
Q 684 19 347 128 
L 347 722 
Q 666 556 975 473 
Q 1284 391 1588 391 
Q 1994 391 2212 530 
Q 2431 669 2431 922 
Q 2431 1156 2273 1281 
Q 2116 1406 1581 1522 
L 1381 1569 
Q 847 1681 609 1914 
Q 372 2147 372 2553 
Q 372 3047 722 3315 
Q 1072 3584 1716 3584 
Q 2034 3584 2315 3537 
Q 2597 3491 2834 3397 
z
" transform="scale(0.015625)"/>
      </defs>
      <use xlink:href="#DejaVuSans-43"/>
      <use xlink:href="#DejaVuSans-68" x="69.824219"/>
      <use xlink:href="#DejaVuSans-75" x="133.203125"/>
      <use xlink:href="#DejaVuSans-63" x="196.582031"/>
      <use xlink:href="#DejaVuSans-6b" x="251.5625"/>
      <use xlink:href="#DejaVuSans-20" x="309.472656"/>
      <use xlink:href="#DejaVuSans-4a" x="341.259766"/>
      <use xlink:href="#DejaVuSans-6f" x="370.751953"/>
      <use xlink:href="#DejaVuSans-6e" x="431.933594"/>
      <use xlink:href="#DejaVuSans-65" x="495.3125"/>
      <use xlink:href="#DejaVuSans-73" x="556.835938"/>
     </g>
    </g>
   </g>
   <g id="text_2">
    <g id="patch_3">
     <path d="M 438.073613 216.436403 
L 497.316113 216.436403 
L 497.316113 199.80609 
L 438.073613 199.80609 
z
" clip-path="url(#p0d876714c9)" style="fill: #ffffff; opacity: 0.7; stroke: #000000; stroke-linejoin: miter"/>
    </g>
    <g clip-path="url(#p0d876714c9)">
     <!-- Friz Freleng -->
     <g transform="translate(442.033613 210.604684)scale(0.09 -0.09)">
      <defs>
       <path id="DejaVuSans-46" d="M 628 4666 
L 3309 4666 
L 3309 4134 
L 1259 4134 
L 1259 2759 
L 3109 2759 
L 3109 2228 
L 1259 2228 
L 1259 0 
L 628 0 
L 628 4666 
z
" transform="scale(0.015625)"/>
       <path id="DejaVuSans-72" d="M 2631 2963 
Q 2534 3019 2420 3045 
Q 2306 3072 2169 3072 
Q 1681 3072 1420 2755 
Q 1159 2438 1159 1844 
L 1159 0 
L 581 0 
L 581 3500 
L 1159 3500 
L 1159 2956 
Q 1341 3275 1631 3429 
Q 1922 3584 2338 3584 
Q 2397 3584 2469 3576 
Q 2541 3569 2628 3553 
L 2631 2963 
z
" transform="scale(0.015625)"/>
       <path id="DejaVuSans-69" d="M 603 3500 
L 1178 3500 
L 1178 0 
L 603 0 
L 603 3500 
z
M 603 4863 
L 1178 4863 
L 1178 4134 
L 603 4134 
L 603 4863 
z
" transform="scale(0.015625)"/>
       <path id="DejaVuSans-7a" d="M 353 3500 
L 3084 3500 
L 3084 2975 
L 922 459 
L 3084 459 
L 3084 0 
L 275 0 
L 275 525 
L 2438 3041 
L 353 3041 
L 353 3500 
z
" transform="scale(0.015625)"/>
       <path id="DejaVuSans-6c" d="M 603 4863 
L 1178 4863 
L 1178 0 
L 603 0 
L 603 4863 
z
" transform="scale(0.015625)"/>
       <path id="DejaVuSans-67" d="M 2906 1791 
Q 2906 2416 2648 2759 
Q 2391 3103 1925 3103 
Q 1463 3103 1205 2759 
Q 947 2416 947 1791 
Q 947 1169 1205 825 
Q 1463 481 1925 481 
Q 2391 481 2648 825 
Q 2906 1169 2906 1791 
z
M 3481 434 
Q 3481 -459 3084 -895 
Q 2688 -1331 1869 -1331 
Q 1566 -1331 1297 -1286 
Q 1028 -1241 775 -1147 
L 775 -588 
Q 1028 -725 1275 -790 
Q 1522 -856 1778 -856 
Q 2344 -856 2625 -561 
Q 2906 -266 2906 331 
L 2906 616 
Q 2728 306 2450 153 
Q 2172 0 1784 0 
Q 1141 0 747 490 
Q 353 981 353 1791 
Q 353 2603 747 3093 
Q 1141 3584 1784 3584 
Q 2172 3584 2450 3431 
Q 2728 3278 2906 2969 
L 2906 3500 
L 3481 3500 
L 3481 434 
z
" transform="scale(0.015625)"/>
      </defs>
      <use xlink:href="#DejaVuSans-46"/>
      <use xlink:href="#DejaVuSans-72" x="50.269531"/>
      <use xlink:href="#DejaVuSans-69" x="91.382812"/>
      <use xlink:href="#DejaVuSans-7a" x="119.166016"/>
      <use xlink:href="#DejaVuSans-20" x="171.65625"/>
      <use xlink:href="#DejaVuSans-46" x="203.443359"/>
      <use xlink:href="#DejaVuSans-72" x="253.712891"/>
      <use xlink:href="#DejaVuSans-65" x="292.576172"/>
      <use xlink:href="#DejaVuSans-6c" x="354.099609"/>
      <use xlink:href="#DejaVuSans-65" x="381.882812"/>
      <use xlink:href="#DejaVuSans-6e" x="443.40625"/>
      <use xlink:href="#DejaVuSans-67" x="506.785156"/>
     </g>
    </g>
   </g>
   <g id="text_3">
    <g id="patch_4">
     <path d="M 379.525153 146.067908 
L 454.329216 146.067908 
L 454.329216 129.437596 
L 379.525153 129.437596 
z
" clip-path="url(#p0d876714c9)" style="fill: #ffffff; opacity: 0.7; stroke: #000000; stroke-linejoin: miter"/>
    </g>
    <g clip-path="url(#p0d876714c9)">
     <!-- Clint Eastwood -->
     <g transform="translate(383.485153 140.23619)scale(0.09 -0.09)">
      <defs>
       <path id="DejaVuSans-74" d="M 1172 4494 
L 1172 3500 
L 2356 3500 
L 2356 3053 
L 1172 3053 
L 1172 1153 
Q 1172 725 1289 603 
Q 1406 481 1766 481 
L 2356 481 
L 2356 0 
L 1766 0 
Q 1100 0 847 248 
Q 594 497 594 1153 
L 594 3053 
L 172 3053 
L 172 3500 
L 594 3500 
L 594 4494 
L 1172 4494 
z
" transform="scale(0.015625)"/>
       <path id="DejaVuSans-45" d="M 628 4666 
L 3578 4666 
L 3578 4134 
L 1259 4134 
L 1259 2753 
L 3481 2753 
L 3481 2222 
L 1259 2222 
L 1259 531 
L 3634 531 
L 3634 0 
L 628 0 
L 628 4666 
z
" transform="scale(0.015625)"/>
       <path id="DejaVuSans-61" d="M 2194 1759 
Q 1497 1759 1228 1600 
Q 959 1441 959 1056 
Q 959 750 1161 570 
Q 1363 391 1709 391 
Q 2188 391 2477 730 
Q 2766 1069 2766 1631 
L 2766 1759 
L 2194 1759 
z
M 3341 1997 
L 3341 0 
L 2766 0 
L 2766 531 
Q 2569 213 2275 61 
Q 1981 -91 1556 -91 
Q 1019 -91 701 211 
Q 384 513 384 1019 
Q 384 1609 779 1909 
Q 1175 2209 1959 2209 
L 2766 2209 
L 2766 2266 
Q 2766 2663 2505 2880 
Q 2244 3097 1772 3097 
Q 1472 3097 1187 3025 
Q 903 2953 641 2809 
L 641 3341 
Q 956 3463 1253 3523 
Q 1550 3584 1831 3584 
Q 2591 3584 2966 3190 
Q 3341 2797 3341 1997 
z
" transform="scale(0.015625)"/>
       <path id="DejaVuSans-77" d="M 269 3500 
L 844 3500 
L 1563 769 
L 2278 3500 
L 2956 3500 
L 3675 769 
L 4391 3500 
L 4966 3500 
L 4050 0 
L 3372 0 
L 2619 2869 
L 1863 0 
L 1184 0 
L 269 3500 
z
" transform="scale(0.015625)"/>
       <path id="DejaVuSans-64" d="M 2906 2969 
L 2906 4863 
L 3481 4863 
L 3481 0 
L 2906 0 
L 2906 525 
Q 2725 213 2448 61 
Q 2172 -91 1784 -91 
Q 1150 -91 751 415 
Q 353 922 353 1747 
Q 353 2572 751 3078 
Q 1150 3584 1784 3584 
Q 2172 3584 2448 3432 
Q 2725 3281 2906 2969 
z
M 947 1747 
Q 947 1113 1208 752 
Q 1469 391 1925 391 
Q 2381 391 2643 752 
Q 2906 1113 2906 1747 
Q 2906 2381 2643 2742 
Q 2381 3103 1925 3103 
Q 1469 3103 1208 2742 
Q 947 2381 947 1747 
z
" transform="scale(0.015625)"/>
      </defs>
      <use xlink:href="#DejaVuSans-43"/>
      <use xlink:href="#DejaVuSans-6c" x="69.824219"/>
      <use xlink:href="#DejaVuSans-69" x="97.607422"/>
      <use xlink:href="#DejaVuSans-6e" x="125.390625"/>
      <use xlink:href="#DejaVuSans-74" x="188.769531"/>
      <use xlink:href="#DejaVuSans-20" x="227.978516"/>
      <use xlink:href="#DejaVuSans-45" x="259.765625"/>
      <use xlink:href="#DejaVuSans-61" x="322.949219"/>
      <use xlink:href="#DejaVuSans-73" x="384.228516"/>
      <use xlink:href="#DejaVuSans-74" x="436.328125"/>
      <use xlink:href="#DejaVuSans-77" x="475.537109"/>
      <use xlink:href="#DejaVuSans-6f" x="557.324219"/>
      <use xlink:href="#DejaVuSans-6f" x="618.505859"/>
      <use xlink:href="#DejaVuSans-64" x="679.6875"/>
     </g>
    </g>
   </g>
   <g id="text_4">
    <g id="patch_5">
     <path d="M 301.418065 102.577797 
L 382.837128 102.577797 
L 382.837128 85.947485 
L 301.418065 85.947485 
z
" clip-path="url(#p0d876714c9)" style="fill: #ffffff; opacity: 0.7; stroke: #000000; stroke-linejoin: miter"/>
    </g>
    <g clip-path="url(#p0d876714c9)">
     <!-- Alfred Hitchcock -->
     <g transform="translate(305.378065 96.746078)scale(0.09 -0.09)">
      <defs>
       <path id="DejaVuSans-41" d="M 2188 4044 
L 1331 1722 
L 3047 1722 
L 2188 4044 
z
M 1831 4666 
L 2547 4666 
L 4325 0 
L 3669 0 
L 3244 1197 
L 1141 1197 
L 716 0 
L 50 0 
L 1831 4666 
z
" transform="scale(0.015625)"/>
       <path id="DejaVuSans-6c" d="M 603 4863 
L 1178 4863 
L 1178 0 
L 603 0 
L 603 4863 
z
" transform="scale(0.015625)"/>
       <path id="DejaVuSans-66" d="M 2375 4863 
L 2375 4384 
L 1825 4384 
Q 1516 4384 1395 4259 
Q 1275 4134 1275 3809 
L 1275 3500 
L 2222 3500 
L 2222 3053 
L 1275 3053 
L 1275 0 
L 697 0 
L 697 3053 
L 147 3053 
L 147 3500 
L 697 3500 
L 697 3744 
Q 697 4328 969 4595 
Q 1241 4863 1831 4863 
L 2375 4863 
z
" transform="scale(0.015625)"/>
       <path id="DejaVuSans-48" d="M 628 4666 
L 1259 4666 
L 1259 2753 
L 3553 2753 
L 3553 4666 
L 4184 4666 
L 4184 0 
L 3553 0 
L 3553 2222 
L 1259 2222 
L 1259 0 
L 628 0 
L 628 4666 
z
" transform="scale(0.015625)"/>
      </defs>
      <use xlink:href="#DejaVuSans-41"/>
      <use xlink:href="#DejaVuSans-6c" x="68.408203"/>
      <use xlink:href="#DejaVuSans-66" x="96.191406"/>
      <use xlink:href="#DejaVuSans-72" x="131.396484"/>
      <use xlink:href="#DejaVuSans-65" x="170.259766"/>
      <use xlink:href="#DejaVuSans-64" x="231.783203"/>
      <use xlink:href="#DejaVuSans-20" x="295.259766"/>
      <use xlink:href="#DejaVuSans-48" x="327.046875"/>
      <use xlink:href="#DejaVuSans-69" x="402.242188"/>
      <use xlink:href="#DejaVuSans-74" x="430.025391"/>
      <use xlink:href="#DejaVuSans-63" x="469.234375"/>
      <use xlink:href="#DejaVuSans-68" x="524.214844"/>
      <use xlink:href="#DejaVuSans-63" x="587.59375"/>
      <use xlink:href="#DejaVuSans-6f" x="642.574219"/>
      <use xlink:href="#DejaVuSans-63" x="703.755859"/>
      <use xlink:href="#DejaVuSans-6b" x="758.736328"/>
     </g>
    </g>
   </g>
   <g id="text_5">
    <g id="patch_6">
     <path d="M 218.008441 93.485888 
L 294.450784 93.485888 
L 294.450784 76.855575 
L 218.008441 76.855575 
z
" clip-path="url(#p0d876714c9)" style="fill: #ffffff; opacity: 0.7; stroke: #000000; stroke-linejoin: miter"/>
    </g>
    <g clip-path="url(#p0d876714c9)">
     <!-- Joseph Barbera -->
     <g transform="translate(221.968441 87.654169)scale(0.09 -0.09)">
      <defs>
       <path id="DejaVuSans-70" d="M 1159 525 
L 1159 -1331 
L 581 -1331 
L 581 3500 
L 1159 3500 
L 1159 2969 
Q 1341 3281 1617 3432 
Q 1894 3584 2278 3584 
Q 2916 3584 3314 3078 
Q 3713 2572 3713 1747 
Q 3713 922 3314 415 
Q 2916 -91 2278 -91 
Q 1894 -91 1617 61 
Q 1341 213 1159 525 
z
M 3116 1747 
Q 3116 2381 2855 2742 
Q 2594 3103 2138 3103 
Q 1681 3103 1420 2742 
Q 1159 2381 1159 1747 
Q 1159 1113 1420 752 
Q 1681 391 2138 391 
Q 2594 391 2855 752 
Q 3116 1113 3116 1747 
z
" transform="scale(0.015625)"/>
       <path id="DejaVuSans-42" d="M 1259 2228 
L 1259 519 
L 2272 519 
Q 2781 519 3026 730 
Q 3272 941 3272 1375 
Q 3272 1813 3026 2020 
Q 2781 2228 2272 2228 
L 1259 2228 
z
M 1259 4147 
L 1259 2741 
L 2194 2741 
Q 2656 2741 2882 2914 
Q 3109 3088 3109 3444 
Q 3109 3797 2882 3972 
Q 2656 4147 2194 4147 
L 1259 4147 
z
M 628 4666 
L 2241 4666 
Q 2963 4666 3353 4366 
Q 3744 4066 3744 3513 
Q 3744 3084 3544 2831 
Q 3344 2578 2956 2516 
Q 3422 2416 3680 2098 
Q 3938 1781 3938 1306 
Q 3938 681 3513 340 
Q 3088 0 2303 0 
L 628 0 
L 628 4666 
z
" transform="scale(0.015625)"/>
       <path id="DejaVuSans-62" d="M 3116 1747 
Q 3116 2381 2855 2742 
Q 2594 3103 2138 3103 
Q 1681 3103 1420 2742 
Q 1159 2381 1159 1747 
Q 1159 1113 1420 752 
Q 1681 391 2138 391 
Q 2594 391 2855 752 
Q 3116 1113 3116 1747 
z
M 1159 2969 
Q 1341 3281 1617 3432 
Q 1894 3584 2278 3584 
Q 2916 3584 3314 3078 
Q 3713 2572 3713 1747 
Q 3713 922 3314 415 
Q 2916 -91 2278 -91 
Q 1894 -91 1617 61 
Q 1341 213 1159 525 
L 1159 0 
L 581 0 
L 581 4863 
L 1159 4863 
L 1159 2969 
z
" transform="scale(0.015625)"/>
      </defs>
      <use xlink:href="#DejaVuSans-4a"/>
      <use xlink:href="#DejaVuSans-6f" x="29.492188"/>
      <use xlink:href="#DejaVuSans-73" x="90.673828"/>
      <use xlink:href="#DejaVuSans-65" x="142.773438"/>
      <use xlink:href="#DejaVuSans-70" x="204.296875"/>
      <use xlink:href="#DejaVuSans-68" x="267.773438"/>
      <use xlink:href="#DejaVuSans-20" x="331.152344"/>
      <use xlink:href="#DejaVuSans-42" x="362.939453"/>
      <use xlink:href="#DejaVuSans-61" x="431.542969"/>
      <use xlink:href="#DejaVuSans-72" x="492.822266"/>
      <use xlink:href="#DejaVuSans-62" x="533.935547"/>
      <use xlink:href="#DejaVuSans-65" x="597.412109"/>
      <use xlink:href="#DejaVuSans-72" x="658.935547"/>
      <use xlink:href="#DejaVuSans-61" x="700.048828"/>
     </g>
    </g>
   </g>
   <g id="text_5">
    <g id="patch_6">
     <path d="M 224.772977 105.004013 
L 284.015477 105.004013 
L 284.015477 88.3737 
L 224.772977 88.3737 
z
" clip-path="url(#p4284650622)" style="fill: #ffffff; opacity: 0.7; stroke: #000000; stroke-linejoin: miter"/>
    </g>
    <g clip-path="url(#p4284650622)">
     <!-- Friz Freleng -->
     <g transform="translate(228.732977 99.172294)scale(0.09 -0.09)">
      <defs>
       <path id="DejaVuSans-46" d="M 628 4666 
L 3309 4666 
L 3309 4134 
L 1259 4134 
L 1259 2759 
L 3109 2759 
L 3109 2228 
L 1259 2228 
L 1259 0 
L 628 0 
L 628 4666 
z
" transform="scale(0.015625)"/>
       <path id="DejaVuSans-7a" d="M 353 3500 
L 3084 3500 
L 3084 2975 
L 922 459 
L 3084 459 
L 3084 0 
L 275 0 
L 275 525 
L 2438 3041 
L 353 3041 
L 353 3500 
z
" transform="scale(0.015625)"/>
       <path id="DejaVuSans-67" d="M 2906 1791 
Q 2906 2416 2648 2759 
Q 2391 3103 1925 3103 
Q 1463 3103 1205 2759 
Q 947 2416 947 1791 
Q 947 1169 1205 825 
Q 1463 481 1925 481 
Q 2391 481 2648 825 
Q 2906 1169 2906 1791 
z
M 3481 434 
Q 3481 -459 3084 -895 
Q 2688 -1331 1869 -1331 
Q 1566 -1331 1297 -1286 
Q 1028 -1241 775 -1147 
L 775 -588 
Q 1028 -725 1275 -790 
Q 1522 -856 1778 -856 
Q 2344 -856 2625 -561 
Q 2906 -266 2906 331 
L 2906 616 
Q 2728 306 2450 153 
Q 2172 0 1784 0 
Q 1141 0 747 490 
Q 353 981 353 1791 
Q 353 2603 747 3093 
Q 1141 3584 1784 3584 
Q 2172 3584 2450 3431 
Q 2728 3278 2906 2969 
L 2906 3500 
L 3481 3500 
L 3481 434 
z
" transform="scale(0.015625)"/>
      </defs>
      <use xlink:href="#DejaVuSans-46"/>
      <use xlink:href="#DejaVuSans-72" x="50.269531"/>
      <use xlink:href="#DejaVuSans-69" x="91.382812"/>
      <use xlink:href="#DejaVuSans-7a" x="119.166016"/>
      <use xlink:href="#DejaVuSans-20" x="171.65625"/>
      <use xlink:href="#DejaVuSans-46" x="203.443359"/>
      <use xlink:href="#DejaVuSans-72" x="253.712891"/>
      <use xlink:href="#DejaVuSans-65" x="292.576172"/>
      <use xlink:href="#DejaVuSans-6c" x="354.099609"/>
      <use xlink:href="#DejaVuSans-65" x="381.882812"/>
      <use xlink:href="#DejaVuSans-6e" x="443.40625"/>
      <use xlink:href="#DejaVuSans-67" x="506.785156"/>
     </g>
    </g>
   </g>
   <g id="text_6">
    <g id="patch_7">
     <path d="M 137.602738 120.364265 
L 210.568831 120.364265 
L 210.568831 103.733953 
L 137.602738 103.733953 
z
" clip-path="url(#p0d876714c9)" style="fill: #ffffff; opacity: 0.7; stroke: #000000; stroke-linejoin: miter"/>
    </g>
    <g clip-path="url(#p0d876714c9)">
     <!-- William Hanna -->
     <g transform="translate(141.562738 114.532546)scale(0.09 -0.09)">
      <defs>
       <path id="DejaVuSans-57" d="M 213 4666 
L 850 4666 
L 1831 722 
L 2809 4666 
L 3519 4666 
L 4500 722 
L 5478 4666 
L 6119 4666 
L 4947 0 
L 4153 0 
L 3169 4050 
L 2175 0 
L 1381 0 
L 213 4666 
z
" transform="scale(0.015625)"/>
       <path id="DejaVuSans-6d" d="M 3328 2828 
Q 3544 3216 3844 3400 
Q 4144 3584 4550 3584 
Q 5097 3584 5394 3201 
Q 5691 2819 5691 2113 
L 5691 0 
L 5113 0 
L 5113 2094 
Q 5113 2597 4934 2840 
Q 4756 3084 4391 3084 
Q 3944 3084 3684 2787 
Q 3425 2491 3425 1978 
L 3425 0 
L 2847 0 
L 2847 2094 
Q 2847 2600 2669 2842 
Q 2491 3084 2119 3084 
Q 1678 3084 1418 2786 
Q 1159 2488 1159 1978 
L 1159 0 
L 581 0 
L 581 3500 
L 1159 3500 
L 1159 2956 
Q 1356 3278 1631 3431 
Q 1906 3584 2284 3584 
Q 2666 3584 2933 3390 
Q 3200 3197 3328 2828 
z
" transform="scale(0.015625)"/>
      </defs>
      <use xlink:href="#DejaVuSans-57"/>
      <use xlink:href="#DejaVuSans-69" x="96.626953"/>
      <use xlink:href="#DejaVuSans-6c" x="124.410156"/>
      <use xlink:href="#DejaVuSans-6c" x="152.193359"/>
      <use xlink:href="#DejaVuSans-69" x="179.976562"/>
      <use xlink:href="#DejaVuSans-61" x="207.759766"/>
      <use xlink:href="#DejaVuSans-6d" x="269.039062"/>
      <use xlink:href="#DejaVuSans-20" x="366.451172"/>
      <use xlink:href="#DejaVuSans-48" x="398.238281"/>
      <use xlink:href="#DejaVuSans-61" x="473.433594"/>
      <use xlink:href="#DejaVuSans-6e" x="534.712891"/>
      <use xlink:href="#DejaVuSans-6e" x="598.091797"/>
      <use xlink:href="#DejaVuSans-61" x="661.470703"/>
     </g>
    </g>
   </g>
   <g id="text_7">
    <g id="patch_8">
     <path d="M 72.534069 178.565398 
L 147.265006 178.565398 
L 147.265006 161.935086 
L 72.534069 161.935086 
z
" clip-path="url(#p0d876714c9)" style="fill: #ffffff; opacity: 0.7; stroke: #000000; stroke-linejoin: miter"/>
    </g>
    <g clip-path="url(#p0d876714c9)">
     <!-- Howard Hawks -->
     <g transform="translate(76.494069 172.733679)scale(0.09 -0.09)">
      <use xlink:href="#DejaVuSans-48"/>
      <use xlink:href="#DejaVuSans-6f" x="75.195312"/>
      <use xlink:href="#DejaVuSans-77" x="136.376953"/>
      <use xlink:href="#DejaVuSans-61" x="218.164062"/>
      <use xlink:href="#DejaVuSans-72" x="279.443359"/>
      <use xlink:href="#DejaVuSans-64" x="318.806641"/>
      <use xlink:href="#DejaVuSans-20" x="382.283203"/>
      <use xlink:href="#DejaVuSans-48" x="414.070312"/>
      <use xlink:href="#DejaVuSans-61" x="489.265625"/>
      <use xlink:href="#DejaVuSans-77" x="550.544922"/>
      <use xlink:href="#DejaVuSans-6b" x="632.332031"/>
      <use xlink:href="#DejaVuSans-73" x="690.242188"/>
     </g>
    </g>
   </g>
   <g id="text_8">
    <g id="patch_9">
     <path d="M 33.244075 258.025808 
L 116.294387 258.025808 
L 116.294387 241.395496 
L 33.244075 241.395496 
z
" clip-path="url(#p0d876714c9)" style="fill: #ffffff; opacity: 0.7; stroke: #000000; stroke-linejoin: miter"/>
    </g>
    <g clip-path="url(#p0d876714c9)">
     <!-- Henry Hathaway -->
     <g transform="translate(37.204075 252.194089)scale(0.09 -0.09)">
      <defs>
       <path id="DejaVuSans-79" d="M 2059 -325 
Q 1816 -950 1584 -1140 
Q 1353 -1331 966 -1331 
L 506 -1331 
L 506 -850 
L 844 -850 
Q 1081 -850 1212 -737 
Q 1344 -625 1503 -206 
L 1606 56 
L 191 3500 
L 800 3500 
L 1894 763 
L 2988 3500 
L 3597 3500 
L 2059 -325 
z
" transform="scale(0.015625)"/>
      </defs>
      <use xlink:href="#DejaVuSans-48"/>
      <use xlink:href="#DejaVuSans-65" x="75.195312"/>
      <use xlink:href="#DejaVuSans-6e" x="136.71875"/>
      <use xlink:href="#DejaVuSans-72" x="200.097656"/>
      <use xlink:href="#DejaVuSans-79" x="241.210938"/>
      <use xlink:href="#DejaVuSans-20" x="300.390625"/>
      <use xlink:href="#DejaVuSans-48" x="332.177734"/>
      <use xlink:href="#DejaVuSans-61" x="407.373047"/>
      <use xlink:href="#DejaVuSans-74" x="468.652344"/>
      <use xlink:href="#DejaVuSans-68" x="507.861328"/>
      <use xlink:href="#DejaVuSans-61" x="571.240234"/>
      <use xlink:href="#DejaVuSans-77" x="632.519531"/>
      <use xlink:href="#DejaVuSans-61" x="714.306641"/>
      <use xlink:href="#DejaVuSans-79" x="775.585938"/>
     </g>
    </g>
   </g>
   <g id="text_9">
    <g id="patch_10">
     <path d="M 34.861978 345.006043 
L 114.676509 345.006043 
L 114.676509 328.37573 
L 34.861978 328.37573 
z
" clip-path="url(#p0d876714c9)" style="fill: #ffffff; opacity: 0.7; stroke: #000000; stroke-linejoin: miter"/>
    </g>
    <g clip-path="url(#p0d876714c9)">
     <!-- Martin Scorsese -->
     <g transform="translate(38.821978 339.174324)scale(0.09 -0.09)">
      <defs>
       <path id="DejaVuSans-4d" d="M 628 4666 
L 1569 4666 
L 2759 1491 
L 3956 4666 
L 4897 4666 
L 4897 0 
L 4281 0 
L 4281 4097 
L 3078 897 
L 2444 897 
L 1241 4097 
L 1241 0 
L 628 0 
L 628 4666 
z
" transform="scale(0.015625)"/>
       <path id="DejaVuSans-53" d="M 3425 4513 
L 3425 3897 
Q 3066 4069 2747 4153 
Q 2428 4238 2131 4238 
Q 1616 4238 1336 4038 
Q 1056 3838 1056 3469 
Q 1056 3159 1242 3001 
Q 1428 2844 1947 2747 
L 2328 2669 
Q 3034 2534 3370 2195 
Q 3706 1856 3706 1288 
Q 3706 609 3251 259 
Q 2797 -91 1919 -91 
Q 1588 -91 1214 -16 
Q 841 59 441 206 
L 441 856 
Q 825 641 1194 531 
Q 1563 422 1919 422 
Q 2459 422 2753 634 
Q 3047 847 3047 1241 
Q 3047 1584 2836 1778 
Q 2625 1972 2144 2069 
L 1759 2144 
Q 1053 2284 737 2584 
Q 422 2884 422 3419 
Q 422 4038 858 4394 
Q 1294 4750 2059 4750 
Q 2388 4750 2728 4690 
Q 3069 4631 3425 4513 
z
" transform="scale(0.015625)"/>
      </defs>
      <use xlink:href="#DejaVuSans-4d"/>
      <use xlink:href="#DejaVuSans-61" x="86.279297"/>
      <use xlink:href="#DejaVuSans-72" x="147.558594"/>
      <use xlink:href="#DejaVuSans-74" x="188.671875"/>
      <use xlink:href="#DejaVuSans-69" x="227.880859"/>
      <use xlink:href="#DejaVuSans-6e" x="255.664062"/>
      <use xlink:href="#DejaVuSans-20" x="319.042969"/>
      <use xlink:href="#DejaVuSans-53" x="350.830078"/>
      <use xlink:href="#DejaVuSans-63" x="414.306641"/>
      <use xlink:href="#DejaVuSans-6f" x="469.287109"/>
      <use xlink:href="#DejaVuSans-72" x="530.46875"/>
      <use xlink:href="#DejaVuSans-73" x="571.582031"/>
      <use xlink:href="#DejaVuSans-65" x="623.681641"/>
      <use xlink:href="#DejaVuSans-73" x="685.205078"/>
      <use xlink:href="#DejaVuSans-65" x="737.304688"/>
     </g>
    </g>
   </g>
   <g id="text_10">
    <g id="patch_11">
     <path d="M 67.598847 424.466428 
L 152.200253 424.466428 
L 152.200253 407.836115 
L 67.598847 407.836115 
z
" clip-path="url(#p0d876714c9)" style="fill: #ffffff; opacity: 0.7; stroke: #000000; stroke-linejoin: miter"/>
    </g>
    <g clip-path="url(#p0d876714c9)">
     <!-- Steven Spielberg -->
     <g transform="translate(71.558847 418.634709)scale(0.09 -0.09)">
      <defs>
       <path id="DejaVuSans-76" d="M 191 3500 
L 800 3500 
L 1894 563 
L 2988 3500 
L 3597 3500 
L 2284 0 
L 1503 0 
L 191 3500 
z
" transform="scale(0.015625)"/>
      </defs>
      <use xlink:href="#DejaVuSans-53"/>
      <use xlink:href="#DejaVuSans-74" x="63.476562"/>
      <use xlink:href="#DejaVuSans-65" x="102.685547"/>
      <use xlink:href="#DejaVuSans-76" x="164.208984"/>
      <use xlink:href="#DejaVuSans-65" x="223.388672"/>
      <use xlink:href="#DejaVuSans-6e" x="284.912109"/>
      <use xlink:href="#DejaVuSans-20" x="348.291016"/>
      <use xlink:href="#DejaVuSans-53" x="380.078125"/>
      <use xlink:href="#DejaVuSans-70" x="443.554688"/>
      <use xlink:href="#DejaVuSans-69" x="507.03125"/>
      <use xlink:href="#DejaVuSans-65" x="534.814453"/>
      <use xlink:href="#DejaVuSans-6c" x="596.337891"/>
      <use xlink:href="#DejaVuSans-62" x="624.121094"/>
      <use xlink:href="#DejaVuSans-65" x="687.597656"/>
      <use xlink:href="#DejaVuSans-72" x="749.121094"/>
      <use xlink:href="#DejaVuSans-67" x="788.484375"/>
     </g>
    </g>
   </g>
   <g id="text_11">
    <g id="patch_12">
     <path d="M 138.476753 482.667561 
L 209.694878 482.667561 
L 209.694878 466.037248 
L 138.476753 466.037248 
z
" clip-path="url(#p0d876714c9)" style="fill: #ffffff; opacity: 0.7; stroke: #000000; stroke-linejoin: miter"/>
    </g>
    <g clip-path="url(#p0d876714c9)">
     <!-- Mervyn LeRoy -->
     <g transform="translate(142.436753 476.835842)scale(0.09 -0.09)">
      <defs>
       <path id="DejaVuSans-4c" d="M 628 4666 
L 1259 4666 
L 1259 531 
L 3531 531 
L 3531 0 
L 628 0 
L 628 4666 
z
" transform="scale(0.015625)"/>
       <path id="DejaVuSans-52" d="M 2841 2188 
Q 3044 2119 3236 1894 
Q 3428 1669 3622 1275 
L 4263 0 
L 3584 0 
L 2988 1197 
Q 2756 1666 2539 1819 
Q 2322 1972 1947 1972 
L 1259 1972 
L 1259 0 
L 628 0 
L 628 4666 
L 2053 4666 
Q 2853 4666 3247 4331 
Q 3641 3997 3641 3322 
Q 3641 2881 3436 2590 
Q 3231 2300 2841 2188 
z
M 1259 4147 
L 1259 2491 
L 2053 2491 
Q 2509 2491 2742 2702 
Q 2975 2913 2975 3322 
Q 2975 3731 2742 3939 
Q 2509 4147 2053 4147 
L 1259 4147 
z
" transform="scale(0.015625)"/>
      </defs>
      <use xlink:href="#DejaVuSans-4d"/>
      <use xlink:href="#DejaVuSans-65" x="86.279297"/>
      <use xlink:href="#DejaVuSans-72" x="147.802734"/>
      <use xlink:href="#DejaVuSans-76" x="188.916016"/>
      <use xlink:href="#DejaVuSans-79" x="248.095703"/>
      <use xlink:href="#DejaVuSans-6e" x="307.275391"/>
      <use xlink:href="#DejaVuSans-20" x="370.654297"/>
      <use xlink:href="#DejaVuSans-4c" x="402.441406"/>
      <use xlink:href="#DejaVuSans-65" x="456.404297"/>
      <use xlink:href="#DejaVuSans-52" x="517.927734"/>
      <use xlink:href="#DejaVuSans-6f" x="582.910156"/>
      <use xlink:href="#DejaVuSans-79" x="644.091797"/>
     </g>
    </g>
   </g>
   <g id="text_12">
    <g id="patch_13">
     <path d="M 215.553165 509.545925 
L 296.906134 509.545925 
L 296.906134 492.915613 
L 215.553165 492.915613 
z
" clip-path="url(#p0d876714c9)" style="fill: #ffffff; opacity: 0.7; stroke: #000000; stroke-linejoin: miter"/>
    </g>
    <g clip-path="url(#p0d876714c9)">
     <!-- Fred Zinnemann -->
     <g transform="translate(219.513165 503.714207)scale(0.09 -0.09)">
      <defs>
       <path id="DejaVuSans-5a" d="M 359 4666 
L 4025 4666 
L 4025 4184 
L 1075 531 
L 4097 531 
L 4097 0 
L 288 0 
L 288 481 
L 3238 4134 
L 359 4134 
L 359 4666 
z
" transform="scale(0.015625)"/>
      </defs>
      <use xlink:href="#DejaVuSans-46"/>
      <use xlink:href="#DejaVuSans-72" x="50.269531"/>
      <use xlink:href="#DejaVuSans-65" x="89.132812"/>
      <use xlink:href="#DejaVuSans-64" x="150.65625"/>
      <use xlink:href="#DejaVuSans-20" x="214.132812"/>
      <use xlink:href="#DejaVuSans-5a" x="245.919922"/>
      <use xlink:href="#DejaVuSans-69" x="314.425781"/>
      <use xlink:href="#DejaVuSans-6e" x="342.208984"/>
      <use xlink:href="#DejaVuSans-6e" x="405.587891"/>
      <use xlink:href="#DejaVuSans-65" x="468.966797"/>
      <use xlink:href="#DejaVuSans-6d" x="530.490234"/>
      <use xlink:href="#DejaVuSans-61" x="627.902344"/>
      <use xlink:href="#DejaVuSans-6e" x="689.181641"/>
      <use xlink:href="#DejaVuSans-6e" x="752.560547"/>
     </g>
    </g>
   </g>
   <g id="text_13">
    <g id="patch_14">
     <path d="M 310.325987 500.454004 
L 373.929268 500.454004 
L 373.929268 483.823691 
L 310.325987 483.823691 
z
" clip-path="url(#p0d876714c9)" style="fill: #ffffff; opacity: 0.7; stroke: #000000; stroke-linejoin: miter"/>
    </g>
    <g clip-path="url(#p0d876714c9)">
     <!-- Woody Allen -->
     <g transform="translate(314.285987 494.622285)scale(0.09 -0.09)">
      <use xlink:href="#DejaVuSans-57"/>
      <use xlink:href="#DejaVuSans-6f" x="93.001953"/>
      <use xlink:href="#DejaVuSans-6f" x="154.183594"/>
      <use xlink:href="#DejaVuSans-64" x="215.365234"/>
      <use xlink:href="#DejaVuSans-79" x="278.841797"/>
      <use xlink:href="#DejaVuSans-20" x="338.021484"/>
      <use xlink:href="#DejaVuSans-41" x="369.808594"/>
      <use xlink:href="#DejaVuSans-6c" x="438.216797"/>
      <use xlink:href="#DejaVuSans-6c" x="466"/>
      <use xlink:href="#DejaVuSans-65" x="493.783203"/>
      <use xlink:href="#DejaVuSans-6e" x="555.306641"/>
     </g>
    </g>
   </g>
   <g id="text_14">
    <g id="patch_15">
     <path d="M 380.378081 456.963868 
L 453.476362 456.963868 
L 453.476362 440.333555 
L 380.378081 440.333555 
z
" clip-path="url(#p0d876714c9)" style="fill: #ffffff; opacity: 0.7; stroke: #000000; stroke-linejoin: miter"/>
    </g>
    <g clip-path="url(#p0d876714c9)">
     <!-- Anthony Mann -->
     <g transform="translate(384.338081 451.132149)scale(0.09 -0.09)">
      <use xlink:href="#DejaVuSans-41"/>
      <use xlink:href="#DejaVuSans-6e" x="68.408203"/>
      <use xlink:href="#DejaVuSans-74" x="131.787109"/>
      <use xlink:href="#DejaVuSans-68" x="170.996094"/>
      <use xlink:href="#DejaVuSans-6f" x="234.375"/>
      <use xlink:href="#DejaVuSans-6e" x="295.556641"/>
      <use xlink:href="#DejaVuSans-79" x="358.935547"/>
      <use xlink:href="#DejaVuSans-20" x="418.115234"/>
      <use xlink:href="#DejaVuSans-4d" x="449.902344"/>
      <use xlink:href="#DejaVuSans-61" x="536.181641"/>
      <use xlink:href="#DejaVuSans-6e" x="597.460938"/>
      <use xlink:href="#DejaVuSans-6e" x="660.839844"/>
     </g>
    </g>
   </g>
   <g id="text_15">
    <g id="patch_16">
     <path d="M 436.299654 386.59538 
L 499.090122 386.59538 
L 499.090122 369.965067 
L 436.299654 369.965067 
z
" clip-path="url(#p0d876714c9)" style="fill: #ffffff; opacity: 0.7; stroke: #000000; stroke-linejoin: miter"/>
    </g>
    <g clip-path="url(#p0d876714c9)">
     <!-- Raoul Walsh -->
     <g transform="translate(440.259654 380.763661)scale(0.09 -0.09)">
      <use xlink:href="#DejaVuSans-52"/>
      <use xlink:href="#DejaVuSans-61" x="67.232422"/>
      <use xlink:href="#DejaVuSans-6f" x="128.511719"/>
      <use xlink:href="#DejaVuSans-75" x="189.693359"/>
      <use xlink:href="#DejaVuSans-6c" x="253.072266"/>
      <use xlink:href="#DejaVuSans-20" x="280.855469"/>
      <use xlink:href="#DejaVuSans-57" x="312.642578"/>
      <use xlink:href="#DejaVuSans-61" x="405.144531"/>
      <use xlink:href="#DejaVuSans-6c" x="466.423828"/>
      <use xlink:href="#DejaVuSans-73" x="494.207031"/>
      <use xlink:href="#DejaVuSans-68" x="546.306641"/>
     </g>
    </g>
   </g>
   <g id="text_16">
    <!-- Impactful directors for Comedy genre - Importance rank: 2 -->
    <g transform="translate(111.855938 4.8)scale(0.12 -0.12)">
     <defs>
      <path id="DejaVuSans-49" d="M 628 4666 
L 1259 4666 
L 1259 0 
L 628 0 
L 628 4666 
z
" transform="scale(0.015625)"/>
      <path id="DejaVuSans-2d" d="M 313 2009 
L 1997 2009 
L 1997 1497 
L 313 1497 
L 313 2009 
z
" transform="scale(0.015625)"/>
      <path id="DejaVuSans-3a" d="M 750 794 
L 1409 794 
L 1409 0 
L 750 0 
L 750 794 
z
M 750 3309 
L 1409 3309 
L 1409 2516 
L 750 2516 
L 750 3309 
z
" transform="scale(0.015625)"/>
      <path id="DejaVuSans-32" d="M 1228 531 
L 3431 531 
L 3431 0 
L 469 0 
L 469 531 
Q 828 903 1448 1529 
Q 2069 2156 2228 2338 
Q 2531 2678 2651 2914 
Q 2772 3150 2772 3378 
Q 2772 3750 2511 3984 
Q 2250 4219 1831 4219 
Q 1534 4219 1204 4116 
Q 875 4013 500 3803 
L 500 4441 
Q 881 4594 1212 4672 
Q 1544 4750 1819 4750 
Q 2544 4750 2975 4387 
Q 3406 4025 3406 3419 
Q 3406 3131 3298 2873 
Q 3191 2616 2906 2266 
Q 2828 2175 2409 1742 
Q 1991 1309 1228 531 
z
" transform="scale(0.015625)"/>
     </defs>
     <use xlink:href="#DejaVuSans-49"/>
     <use xlink:href="#DejaVuSans-6d" x="29.492188"/>
     <use xlink:href="#DejaVuSans-70" x="126.904297"/>
     <use xlink:href="#DejaVuSans-61" x="190.380859"/>
     <use xlink:href="#DejaVuSans-63" x="251.660156"/>
     <use xlink:href="#DejaVuSans-74" x="306.640625"/>
     <use xlink:href="#DejaVuSans-66" x="345.849609"/>
     <use xlink:href="#DejaVuSans-75" x="381.054688"/>
     <use xlink:href="#DejaVuSans-6c" x="444.433594"/>
     <use xlink:href="#DejaVuSans-20" x="472.216797"/>
     <use xlink:href="#DejaVuSans-64" x="504.003906"/>
     <use xlink:href="#DejaVuSans-69" x="567.480469"/>
     <use xlink:href="#DejaVuSans-72" x="595.263672"/>
     <use xlink:href="#DejaVuSans-65" x="634.126953"/>
     <use xlink:href="#DejaVuSans-63" x="695.650391"/>
     <use xlink:href="#DejaVuSans-74" x="750.630859"/>
     <use xlink:href="#DejaVuSans-6f" x="789.839844"/>
     <use xlink:href="#DejaVuSans-72" x="851.021484"/>
     <use xlink:href="#DejaVuSans-73" x="892.134766"/>
     <use xlink:href="#DejaVuSans-20" x="944.234375"/>
     <use xlink:href="#DejaVuSans-66" x="976.021484"/>
     <use xlink:href="#DejaVuSans-6f" x="1011.226562"/>
     <use xlink:href="#DejaVuSans-72" x="1072.408203"/>
     <use xlink:href="#DejaVuSans-20" x="1113.521484"/>
     <use xlink:href="#DejaVuSans-43" x="1145.308594"/>
     <use xlink:href="#DejaVuSans-6f" x="1215.132812"/>
     <use xlink:href="#DejaVuSans-6d" x="1276.314453"/>
     <use xlink:href="#DejaVuSans-65" x="1373.726562"/>
     <use xlink:href="#DejaVuSans-64" x="1435.25"/>
     <use xlink:href="#DejaVuSans-79" x="1498.726562"/>
     <use xlink:href="#DejaVuSans-20" x="1557.90625"/>
     <use xlink:href="#DejaVuSans-67" x="1589.693359"/>
     <use xlink:href="#DejaVuSans-65" x="1653.169922"/>
     <use xlink:href="#DejaVuSans-6e" x="1714.693359"/>
     <use xlink:href="#DejaVuSans-72" x="1778.072266"/>
     <use xlink:href="#DejaVuSans-65" x="1816.935547"/>
     <use xlink:href="#DejaVuSans-20" x="1878.458984"/>
     <use xlink:href="#DejaVuSans-2d" x="1910.246094"/>
     <use xlink:href="#DejaVuSans-20" x="1946.330078"/>
     <use xlink:href="#DejaVuSans-49" x="1978.117188"/>
     <use xlink:href="#DejaVuSans-6d" x="2007.609375"/>
     <use xlink:href="#DejaVuSans-70" x="2105.021484"/>
     <use xlink:href="#DejaVuSans-6f" x="2168.498047"/>
     <use xlink:href="#DejaVuSans-72" x="2229.679688"/>
     <use xlink:href="#DejaVuSans-74" x="2270.792969"/>
     <use xlink:href="#DejaVuSans-61" x="2310.001953"/>
     <use xlink:href="#DejaVuSans-6e" x="2371.28125"/>
     <use xlink:href="#DejaVuSans-63" x="2434.660156"/>
     <use xlink:href="#DejaVuSans-65" x="2489.640625"/>
     <use xlink:href="#DejaVuSans-20" x="2551.164062"/>
     <use xlink:href="#DejaVuSans-72" x="2582.951172"/>
     <use xlink:href="#DejaVuSans-61" x="2624.064453"/>
     <use xlink:href="#DejaVuSans-6e" x="2685.34375"/>
     <use xlink:href="#DejaVuSans-6b" x="2748.722656"/>
     <use xlink:href="#DejaVuSans-3a" x="2806.632812"/>
     <use xlink:href="#DejaVuSans-20" x="2840.324219"/>
     <use xlink:href="#DejaVuSans-32" x="2872.111328"/>
    </g>
   </g>
  </g>
 </g>
 <defs>
  <clipPath id="p0d876714c9">
   <rect x="10.8" y="10.8" width="554.4" height="554.4"/>
  </clipPath>
 </defs>
</svg>
