<?xml version="1.0" encoding="utf-8" standalone="no"?>
<!DOCTYPE svg PUBLIC "-//W3C//DTD SVG 1.1//EN"
  "http://www.w3.org/Graphics/SVG/1.1/DTD/svg11.dtd">
<svg xmlns:xlink="http://www.w3.org/1999/xlink" width="576pt" height="576pt" viewBox="0 0 576 576" xmlns="http://www.w3.org/2000/svg" version="1.1">
 <metadata>
  <rdf:RDF xmlns:dc="http://purl.org/dc/elements/1.1/" xmlns:cc="http://creativecommons.org/ns#" xmlns:rdf="http://www.w3.org/1999/02/22-rdf-syntax-ns#">
   <cc:Work>
    <dc:type rdf:resource="http://purl.org/dc/dcmitype/StillImage"/>
    <dc:date>2022-12-22T19:12:11.200341</dc:date>
    <dc:format>image/svg+xml</dc:format>
    <dc:creator>
     <cc:Agent>
      <dc:title>Matplotlib v3.5.2, https://matplotlib.org/</dc:title>
     </cc:Agent>
    </dc:creator>
   </cc:Work>
  </rdf:RDF>
 </metadata>
 <defs>
  <style type="text/css">*{stroke-linejoin: round; stroke-linecap: butt}</style>
 </defs>
 <g id="figure_1">
  <g id="patch_1">
   <path d="M 0 576 
L 576 576 
L 576 0 
L 0 0 
z
" style="fill: #ffffff"/>
  </g>
  <g id="axes_1">
   <g id="PathCollection_1">
    <path d="M 501.230769 315.386128 
C 508.493655 315.386128 515.46005 312.500553 520.595686 307.364917 
C 525.731322 302.229281 528.616897 295.262886 528.616897 288 
C 528.616897 280.737114 525.731322 273.770719 520.595686 268.635083 
C 515.46005 263.499447 508.493655 260.613872 501.230769 260.613872 
C 493.967883 260.613872 487.001488 263.499447 481.865852 268.635083 
C 476.730217 273.770719 473.844641 280.737114 473.844641 288 
C 473.844641 295.262886 476.730217 302.229281 481.865852 307.364917 
C 487.001488 312.500553 493.967883 315.386128 501.230769 315.386128 
z
" clip-path="url(#p1dba4ac5b8)" style="fill: #d62728; fill-opacity: 0.99; stroke: #d62728; stroke-opacity: 0.99"/>
    <path d="M 482.592348 222.2643 
C 488.286468 222.2643 493.748139 220.002002 497.77449 215.975651 
C 501.800841 211.949299 504.063139 206.487629 504.063139 200.793508 
C 504.063139 195.099388 501.800841 189.637717 497.77449 185.611366 
C 493.748139 181.585015 488.286468 179.322717 482.592348 179.322717 
C 476.898227 179.322717 471.436557 181.585015 467.410206 185.611366 
C 463.383855 189.637717 461.121557 195.099388 461.121557 200.793508 
C 461.121557 206.487629 463.383855 211.949299 467.410206 215.975651 
C 471.436557 220.002002 476.898227 222.2643 482.592348 222.2643 
z
" clip-path="url(#p1dba4ac5b8)" style="fill: #d62728; fill-opacity: 0.99; stroke: #d62728; stroke-opacity: 0.99"/>
    <path d="M 429.89985 149.581222 
C 435.446684 149.581222 440.767081 147.377441 444.689285 143.455237 
C 448.61149 139.533033 450.81527 134.212636 450.81527 128.665802 
C 450.81527 123.118967 448.61149 117.79857 444.689285 113.876366 
C 440.767081 109.954162 435.446684 107.750381 429.89985 107.750381 
C 424.353016 107.750381 419.032618 109.954162 415.110414 113.876366 
C 411.18821 117.79857 408.98443 123.118967 408.98443 128.665802 
C 408.98443 134.212636 411.18821 139.533033 415.110414 143.455237 
C 419.032618 147.377441 424.353016 149.581222 429.89985 149.581222 
z
" clip-path="url(#p1dba4ac5b8)" style="fill: #d62728; fill-opacity: 0.99; stroke: #d62728; stroke-opacity: 0.99"/>
    <path d="M 352.264291 104.688588 
C 357.727515 104.688588 362.967714 102.518026 366.830797 98.654943 
C 370.693879 94.791861 372.864441 89.551661 372.864441 84.088438 
C 372.864441 78.625214 370.693879 73.385014 366.830797 69.521932 
C 362.967714 65.65885 357.727515 63.488288 352.264291 63.488288 
C 346.801068 63.488288 341.560868 65.65885 337.697786 69.521932 
C 333.834703 73.385014 331.664141 78.625214 331.664141 84.088438 
C 331.664141 89.551661 333.834703 94.791861 337.697786 98.654943 
C 341.560868 102.518026 346.801068 104.688588 352.264291 104.688588 
z
" clip-path="url(#p1dba4ac5b8)" style="fill: #d62728; fill-opacity: 0.99; stroke: #d62728; stroke-opacity: 0.99"/>
    <path d="M 263.109549 95.182815 
C 268.523294 95.182815 273.716036 93.031911 277.544132 89.203815 
C 281.372229 85.375718 283.523133 80.182977 283.523133 74.769231 
C 283.523133 69.355485 281.372229 64.162743 277.544132 60.334647 
C 273.716036 56.506551 268.523294 54.355647 263.109549 54.355647 
C 257.695803 54.355647 252.503061 56.506551 248.674965 60.334647 
C 244.846868 64.162743 242.695964 69.355485 242.695964 74.769231 
C 242.695964 80.182977 244.846868 85.375718 248.674965 89.203815 
C 252.503061 93.031911 257.695803 95.182815 263.109549 95.182815 
z
" clip-path="url(#p1dba4ac5b8)" style="fill: #d62728; fill-opacity: 0.99; stroke: #d62728; stroke-opacity: 0.99"/>
    <path d="M 177.851298 122.598262 
C 183.229271 122.598262 188.3877 120.461571 192.190501 116.65877 
C 195.993301 112.855969 198.129993 107.69754 198.129993 102.319567 
C 198.129993 96.941595 195.993301 91.783166 192.190501 87.980365 
C 188.3877 84.177564 183.229271 82.040873 177.851298 82.040873 
C 172.473325 82.040873 167.314897 84.177564 163.512096 87.980365 
C 159.709295 91.783166 157.572604 96.941595 157.572604 102.319567 
C 157.572604 107.69754 159.709295 112.855969 163.512096 116.65877 
C 167.314897 120.461571 172.473325 122.598262 177.851298 122.598262 
z
" clip-path="url(#p1dba4ac5b8)" style="fill: #d62728; fill-opacity: 0.99; stroke: #d62728; stroke-opacity: 0.99"/>
    <path d="M 111.231477 182.205609 
C 116.596504 182.205609 121.742516 180.074062 125.536163 176.280415 
C 129.32981 172.486768 131.461358 167.340756 131.461358 161.975729 
C 131.461358 156.610702 129.32981 151.46469 125.536163 147.671043 
C 121.742516 143.877396 116.596504 141.745848 111.231477 141.745848 
C 105.86645 141.745848 100.720438 143.877396 96.926791 147.671043 
C 93.133144 151.46469 91.001596 156.610702 91.001596 161.975729 
C 91.001596 167.340756 93.133144 172.486768 96.926791 176.280415 
C 100.720438 180.074062 105.86645 182.205609 111.231477 182.205609 
z
" clip-path="url(#p1dba4ac5b8)" style="fill: #d62728; fill-opacity: 0.99; stroke: #d62728; stroke-opacity: 0.99"/>
    <path d="M 74.769231 263.578013 
C 80.114496 263.578013 85.241552 261.454316 89.021225 257.674643 
C 92.800898 253.89497 94.924595 248.767914 94.924595 243.422649 
C 94.924595 238.077384 92.800898 232.950328 89.021225 229.170654 
C 85.241552 225.390981 80.114496 223.267285 74.769231 223.267285 
C 69.423966 223.267285 64.296909 225.390981 60.517236 229.170654 
C 56.737563 232.950328 54.613867 238.077384 54.613867 243.422649 
C 54.613867 248.767914 56.737563 253.89497 60.517236 257.674643 
C 64.296909 261.454316 69.423966 263.578013 74.769231 263.578013 
z
" clip-path="url(#p1dba4ac5b8)" style="fill: #d62728; fill-opacity: 0.99; stroke: #d62728; stroke-opacity: 0.99"/>
    <path d="M 74.769244 352.59268 
C 80.077361 352.59268 85.168786 350.483743 88.922192 346.730337 
C 92.675597 342.976932 94.784535 337.885507 94.784535 332.577389 
C 94.784535 327.269272 92.675597 322.177847 88.922192 318.424442 
C 85.168786 314.671036 80.077361 312.562099 74.769244 312.562099 
C 69.461126 312.562099 64.369701 314.671036 60.616296 318.424442 
C 56.86289 322.177847 54.753953 327.269272 54.753953 332.577389 
C 54.753953 337.885507 56.86289 342.976932 60.616296 346.730337 
C 64.369701 350.483743 69.461126 352.59268 74.769244 352.59268 
z
" clip-path="url(#p1dba4ac5b8)" style="fill: #d62728; fill-opacity: 0.99; stroke: #d62728; stroke-opacity: 0.99"/>
    <path d="M 111.23149 433.877652 
C 116.496664 433.877652 121.5469 431.785776 125.269941 428.062735 
C 128.992981 424.339694 131.084857 419.289459 131.084857 414.024284 
C 131.084857 408.759109 128.992981 403.708874 125.269941 399.985833 
C 121.5469 396.262792 116.496664 394.170916 111.23149 394.170916 
C 105.966315 394.170916 100.91608 396.262792 97.193039 399.985833 
C 93.469998 403.708874 91.378122 408.759109 91.378122 414.024284 
C 91.378122 419.289459 93.469998 424.339694 97.193039 428.062735 
C 100.91608 431.785776 105.966315 433.877652 111.23149 433.877652 
z
" clip-path="url(#p1dba4ac5b8)" style="fill: #d62728; fill-opacity: 0.99; stroke: #d62728; stroke-opacity: 0.99"/>
    <path d="M 177.85133 493.488118 
C 183.104386 493.488118 188.142998 491.401057 191.85747 487.686585 
C 195.571941 483.972113 197.659003 478.933502 197.659003 473.680446 
C 197.659003 468.427389 195.571941 463.388778 191.85747 459.674306 
C 188.142998 455.959834 183.104386 453.872773 177.85133 453.872773 
C 172.598274 453.872773 167.559662 455.959834 163.845191 459.674306 
C 160.130719 463.388778 158.043658 468.427389 158.043658 473.680446 
C 158.043658 478.933502 160.130719 483.972113 163.845191 487.686585 
C 167.559662 491.401057 172.598274 493.488118 177.85133 493.488118 
z
" clip-path="url(#p1dba4ac5b8)" style="fill: #d62728; fill-opacity: 0.99; stroke: #d62728; stroke-opacity: 0.99"/>
    <path d="M 263.109587 520.884214 
C 268.321742 520.884214 273.321122 518.813403 277.006671 515.127853 
C 280.692221 511.442304 282.763032 506.442924 282.763032 501.230769 
C 282.763032 496.018615 280.692221 491.019235 277.006671 487.333685 
C 273.321122 483.648135 268.321742 481.577324 263.109587 481.577324 
C 257.897433 481.577324 252.898053 483.648135 249.212503 487.333685 
C 245.526953 491.019235 243.456142 496.018615 243.456142 501.230769 
C 243.456142 506.442924 245.526953 511.442304 249.212503 515.127853 
C 252.898053 518.813403 257.897433 520.884214 263.109587 520.884214 
z
" clip-path="url(#p1dba4ac5b8)" style="fill: #d62728; fill-opacity: 0.99; stroke: #d62728; stroke-opacity: 0.99"/>
    <path d="M 352.264323 511.438926 
C 357.443044 511.438926 362.410355 509.381398 366.072263 505.71949 
C 369.734172 502.057581 371.7917 497.09027 371.7917 491.91155 
C 371.7917 486.732829 369.734172 481.765518 366.072263 478.103609 
C 362.410355 474.441701 357.443044 472.384173 352.264323 472.384173 
C 347.085603 472.384173 342.118292 474.441701 338.456383 478.103609 
C 334.794475 481.765518 332.736947 486.732829 332.736947 491.91155 
C 332.736947 497.09027 334.794475 502.057581 338.456383 505.71949 
C 342.118292 509.381398 347.085603 511.438926 352.264323 511.438926 
z
" clip-path="url(#p1dba4ac5b8)" style="fill: #d62728; fill-opacity: 0.99; stroke: #d62728; stroke-opacity: 0.99"/>
    <path d="M 429.899888 466.756774 
C 435.050826 466.756774 439.991488 464.710285 443.633751 461.068022 
C 447.276013 457.425759 449.322503 452.485098 449.322503 447.33416 
C 449.322503 442.183223 447.276013 437.242561 443.633751 433.600298 
C 439.991488 429.958035 435.050826 427.911546 429.899888 427.911546 
C 424.748951 427.911546 419.808289 429.958035 416.166026 433.600298 
C 412.523763 437.242561 410.477274 442.183223 410.477274 447.33416 
C 410.477274 452.485098 412.523763 457.425759 416.166026 461.068022 
C 419.808289 464.710285 424.748951 466.756774 429.899888 466.756774 
z
" clip-path="url(#p1dba4ac5b8)" style="fill: #d62728; fill-opacity: 0.99; stroke: #d62728; stroke-opacity: 0.99"/>
    <path d="M 482.592374 394.571376 
C 487.728009 394.571376 492.653994 392.530967 496.285437 388.899524 
C 499.91688 385.268081 501.95729 380.342096 501.95729 375.20646 
C 501.95729 370.070824 499.91688 365.144839 496.285437 361.513396 
C 492.653994 357.881953 487.728009 355.841543 482.592374 355.841543 
C 477.456738 355.841543 472.530753 357.881953 468.89931 361.513396 
C 465.267867 365.144839 463.227457 370.070824 463.227457 375.20646 
C 463.227457 380.342096 465.267867 385.268081 468.89931 388.899524 
C 472.530753 392.530967 477.456738 394.571376 482.592374 394.571376 
z
" clip-path="url(#p1dba4ac5b8)" style="fill: #d62728; fill-opacity: 0.99; stroke: #d62728; stroke-opacity: 0.99"/>
   </g>
   <g id="text_1">
    <g id="patch_2">
     <path d="M 458.930066 296.315156 
L 543.531472 296.315156 
L 543.531472 279.684844 
L 458.930066 279.684844 
z
" clip-path="url(#p1dba4ac5b8)" style="fill: #ffffff; opacity: 0.7; stroke: #000000; stroke-linejoin: miter"/>
    </g>
    <g clip-path="url(#p1dba4ac5b8)">
     <!-- Steven Spielberg -->
     <g transform="translate(462.890066 290.483437)scale(0.09 -0.09)">
      <defs>
       <path id="DejaVuSans-53" d="M 3425 4513 
L 3425 3897 
Q 3066 4069 2747 4153 
Q 2428 4238 2131 4238 
Q 1616 4238 1336 4038 
Q 1056 3838 1056 3469 
Q 1056 3159 1242 3001 
Q 1428 2844 1947 2747 
L 2328 2669 
Q 3034 2534 3370 2195 
Q 3706 1856 3706 1288 
Q 3706 609 3251 259 
Q 2797 -91 1919 -91 
Q 1588 -91 1214 -16 
Q 841 59 441 206 
L 441 856 
Q 825 641 1194 531 
Q 1563 422 1919 422 
Q 2459 422 2753 634 
Q 3047 847 3047 1241 
Q 3047 1584 2836 1778 
Q 2625 1972 2144 2069 
L 1759 2144 
Q 1053 2284 737 2584 
Q 422 2884 422 3419 
Q 422 4038 858 4394 
Q 1294 4750 2059 4750 
Q 2388 4750 2728 4690 
Q 3069 4631 3425 4513 
z
" transform="scale(0.015625)"/>
       <path id="DejaVuSans-74" d="M 1172 4494 
L 1172 3500 
L 2356 3500 
L 2356 3053 
L 1172 3053 
L 1172 1153 
Q 1172 725 1289 603 
Q 1406 481 1766 481 
L 2356 481 
L 2356 0 
L 1766 0 
Q 1100 0 847 248 
Q 594 497 594 1153 
L 594 3053 
L 172 3053 
L 172 3500 
L 594 3500 
L 594 4494 
L 1172 4494 
z
" transform="scale(0.015625)"/>
       <path id="DejaVuSans-65" d="M 3597 1894 
L 3597 1613 
L 953 1613 
Q 991 1019 1311 708 
Q 1631 397 2203 397 
Q 2534 397 2845 478 
Q 3156 559 3463 722 
L 3463 178 
Q 3153 47 2828 -22 
Q 2503 -91 2169 -91 
Q 1331 -91 842 396 
Q 353 884 353 1716 
Q 353 2575 817 3079 
Q 1281 3584 2069 3584 
Q 2775 3584 3186 3129 
Q 3597 2675 3597 1894 
z
M 3022 2063 
Q 3016 2534 2758 2815 
Q 2500 3097 2075 3097 
Q 1594 3097 1305 2825 
Q 1016 2553 972 2059 
L 3022 2063 
z
" transform="scale(0.015625)"/>
       <path id="DejaVuSans-76" d="M 191 3500 
L 800 3500 
L 1894 563 
L 2988 3500 
L 3597 3500 
L 2284 0 
L 1503 0 
L 191 3500 
z
" transform="scale(0.015625)"/>
       <path id="DejaVuSans-6e" d="M 3513 2113 
L 3513 0 
L 2938 0 
L 2938 2094 
Q 2938 2591 2744 2837 
Q 2550 3084 2163 3084 
Q 1697 3084 1428 2787 
Q 1159 2491 1159 1978 
L 1159 0 
L 581 0 
L 581 3500 
L 1159 3500 
L 1159 2956 
Q 1366 3272 1645 3428 
Q 1925 3584 2291 3584 
Q 2894 3584 3203 3211 
Q 3513 2838 3513 2113 
z
" transform="scale(0.015625)"/>
       <path id="DejaVuSans-20" transform="scale(0.015625)"/>
       <path id="DejaVuSans-70" d="M 1159 525 
L 1159 -1331 
L 581 -1331 
L 581 3500 
L 1159 3500 
L 1159 2969 
Q 1341 3281 1617 3432 
Q 1894 3584 2278 3584 
Q 2916 3584 3314 3078 
Q 3713 2572 3713 1747 
Q 3713 922 3314 415 
Q 2916 -91 2278 -91 
Q 1894 -91 1617 61 
Q 1341 213 1159 525 
z
M 3116 1747 
Q 3116 2381 2855 2742 
Q 2594 3103 2138 3103 
Q 1681 3103 1420 2742 
Q 1159 2381 1159 1747 
Q 1159 1113 1420 752 
Q 1681 391 2138 391 
Q 2594 391 2855 752 
Q 3116 1113 3116 1747 
z
" transform="scale(0.015625)"/>
       <path id="DejaVuSans-69" d="M 603 3500 
L 1178 3500 
L 1178 0 
L 603 0 
L 603 3500 
z
M 603 4863 
L 1178 4863 
L 1178 4134 
L 603 4134 
L 603 4863 
z
" transform="scale(0.015625)"/>
       <path id="DejaVuSans-6c" d="M 603 4863 
L 1178 4863 
L 1178 0 
L 603 0 
L 603 4863 
z
" transform="scale(0.015625)"/>
       <path id="DejaVuSans-62" d="M 3116 1747 
Q 3116 2381 2855 2742 
Q 2594 3103 2138 3103 
Q 1681 3103 1420 2742 
Q 1159 2381 1159 1747 
Q 1159 1113 1420 752 
Q 1681 391 2138 391 
Q 2594 391 2855 752 
Q 3116 1113 3116 1747 
z
M 1159 2969 
Q 1341 3281 1617 3432 
Q 1894 3584 2278 3584 
Q 2916 3584 3314 3078 
Q 3713 2572 3713 1747 
Q 3713 922 3314 415 
Q 2916 -91 2278 -91 
Q 1894 -91 1617 61 
Q 1341 213 1159 525 
L 1159 0 
L 581 0 
L 581 4863 
L 1159 4863 
L 1159 2969 
z
" transform="scale(0.015625)"/>
       <path id="DejaVuSans-72" d="M 2631 2963 
Q 2534 3019 2420 3045 
Q 2306 3072 2169 3072 
Q 1681 3072 1420 2755 
Q 1159 2438 1159 1844 
L 1159 0 
L 581 0 
L 581 3500 
L 1159 3500 
L 1159 2956 
Q 1341 3275 1631 3429 
Q 1922 3584 2338 3584 
Q 2397 3584 2469 3576 
Q 2541 3569 2628 3553 
L 2631 2963 
z
" transform="scale(0.015625)"/>
       <path id="DejaVuSans-67" d="M 2906 1791 
Q 2906 2416 2648 2759 
Q 2391 3103 1925 3103 
Q 1463 3103 1205 2759 
Q 947 2416 947 1791 
Q 947 1169 1205 825 
Q 1463 481 1925 481 
Q 2391 481 2648 825 
Q 2906 1169 2906 1791 
z
M 3481 434 
Q 3481 -459 3084 -895 
Q 2688 -1331 1869 -1331 
Q 1566 -1331 1297 -1286 
Q 1028 -1241 775 -1147 
L 775 -588 
Q 1028 -725 1275 -790 
Q 1522 -856 1778 -856 
Q 2344 -856 2625 -561 
Q 2906 -266 2906 331 
L 2906 616 
Q 2728 306 2450 153 
Q 2172 0 1784 0 
Q 1141 0 747 490 
Q 353 981 353 1791 
Q 353 2603 747 3093 
Q 1141 3584 1784 3584 
Q 2172 3584 2450 3431 
Q 2728 3278 2906 2969 
L 2906 3500 
L 3481 3500 
L 3481 434 
z
" transform="scale(0.015625)"/>
      </defs>
      <use xlink:href="#DejaVuSans-53"/>
      <use xlink:href="#DejaVuSans-74" x="63.476562"/>
      <use xlink:href="#DejaVuSans-65" x="102.685547"/>
      <use xlink:href="#DejaVuSans-76" x="164.208984"/>
      <use xlink:href="#DejaVuSans-65" x="223.388672"/>
      <use xlink:href="#DejaVuSans-6e" x="284.912109"/>
      <use xlink:href="#DejaVuSans-20" x="348.291016"/>
      <use xlink:href="#DejaVuSans-53" x="380.078125"/>
      <use xlink:href="#DejaVuSans-70" x="443.554688"/>
      <use xlink:href="#DejaVuSans-69" x="507.03125"/>
      <use xlink:href="#DejaVuSans-65" x="534.814453"/>
      <use xlink:href="#DejaVuSans-6c" x="596.337891"/>
      <use xlink:href="#DejaVuSans-62" x="624.121094"/>
      <use xlink:href="#DejaVuSans-65" x="687.597656"/>
      <use xlink:href="#DejaVuSans-72" x="749.121094"/>
      <use xlink:href="#DejaVuSans-67" x="788.484375"/>
     </g>
    </g>
   </g>
   <g id="text_2">
    <g id="patch_3">
     <path d="M 451.23016 209.108665 
L 513.954535 209.108665 
L 513.954535 192.478352 
L 451.23016 192.478352 
z
" clip-path="url(#p1dba4ac5b8)" style="fill: #ffffff; opacity: 0.7; stroke: #000000; stroke-linejoin: miter"/>
    </g>
    <g clip-path="url(#p1dba4ac5b8)">
     <!-- Chuck Jones -->
     <g transform="translate(455.19016 203.276946)scale(0.09 -0.09)">
      <defs>
       <path id="DejaVuSans-43" d="M 4122 4306 
L 4122 3641 
Q 3803 3938 3442 4084 
Q 3081 4231 2675 4231 
Q 1875 4231 1450 3742 
Q 1025 3253 1025 2328 
Q 1025 1406 1450 917 
Q 1875 428 2675 428 
Q 3081 428 3442 575 
Q 3803 722 4122 1019 
L 4122 359 
Q 3791 134 3420 21 
Q 3050 -91 2638 -91 
Q 1578 -91 968 557 
Q 359 1206 359 2328 
Q 359 3453 968 4101 
Q 1578 4750 2638 4750 
Q 3056 4750 3426 4639 
Q 3797 4528 4122 4306 
z
" transform="scale(0.015625)"/>
       <path id="DejaVuSans-68" d="M 3513 2113 
L 3513 0 
L 2938 0 
L 2938 2094 
Q 2938 2591 2744 2837 
Q 2550 3084 2163 3084 
Q 1697 3084 1428 2787 
Q 1159 2491 1159 1978 
L 1159 0 
L 581 0 
L 581 4863 
L 1159 4863 
L 1159 2956 
Q 1366 3272 1645 3428 
Q 1925 3584 2291 3584 
Q 2894 3584 3203 3211 
Q 3513 2838 3513 2113 
z
" transform="scale(0.015625)"/>
       <path id="DejaVuSans-75" d="M 544 1381 
L 544 3500 
L 1119 3500 
L 1119 1403 
Q 1119 906 1312 657 
Q 1506 409 1894 409 
Q 2359 409 2629 706 
Q 2900 1003 2900 1516 
L 2900 3500 
L 3475 3500 
L 3475 0 
L 2900 0 
L 2900 538 
Q 2691 219 2414 64 
Q 2138 -91 1772 -91 
Q 1169 -91 856 284 
Q 544 659 544 1381 
z
M 1991 3584 
L 1991 3584 
z
" transform="scale(0.015625)"/>
       <path id="DejaVuSans-63" d="M 3122 3366 
L 3122 2828 
Q 2878 2963 2633 3030 
Q 2388 3097 2138 3097 
Q 1578 3097 1268 2742 
Q 959 2388 959 1747 
Q 959 1106 1268 751 
Q 1578 397 2138 397 
Q 2388 397 2633 464 
Q 2878 531 3122 666 
L 3122 134 
Q 2881 22 2623 -34 
Q 2366 -91 2075 -91 
Q 1284 -91 818 406 
Q 353 903 353 1747 
Q 353 2603 823 3093 
Q 1294 3584 2113 3584 
Q 2378 3584 2631 3529 
Q 2884 3475 3122 3366 
z
" transform="scale(0.015625)"/>
       <path id="DejaVuSans-6b" d="M 581 4863 
L 1159 4863 
L 1159 1991 
L 2875 3500 
L 3609 3500 
L 1753 1863 
L 3688 0 
L 2938 0 
L 1159 1709 
L 1159 0 
L 581 0 
L 581 4863 
z
" transform="scale(0.015625)"/>
       <path id="DejaVuSans-4a" d="M 628 4666 
L 1259 4666 
L 1259 325 
Q 1259 -519 939 -900 
Q 619 -1281 -91 -1281 
L -331 -1281 
L -331 -750 
L -134 -750 
Q 284 -750 456 -515 
Q 628 -281 628 325 
L 628 4666 
z
" transform="scale(0.015625)"/>
       <path id="DejaVuSans-6f" d="M 1959 3097 
Q 1497 3097 1228 2736 
Q 959 2375 959 1747 
Q 959 1119 1226 758 
Q 1494 397 1959 397 
Q 2419 397 2687 759 
Q 2956 1122 2956 1747 
Q 2956 2369 2687 2733 
Q 2419 3097 1959 3097 
z
M 1959 3584 
Q 2709 3584 3137 3096 
Q 3566 2609 3566 1747 
Q 3566 888 3137 398 
Q 2709 -91 1959 -91 
Q 1206 -91 779 398 
Q 353 888 353 1747 
Q 353 2609 779 3096 
Q 1206 3584 1959 3584 
z
" transform="scale(0.015625)"/>
       <path id="DejaVuSans-73" d="M 2834 3397 
L 2834 2853 
Q 2591 2978 2328 3040 
Q 2066 3103 1784 3103 
Q 1356 3103 1142 2972 
Q 928 2841 928 2578 
Q 928 2378 1081 2264 
Q 1234 2150 1697 2047 
L 1894 2003 
Q 2506 1872 2764 1633 
Q 3022 1394 3022 966 
Q 3022 478 2636 193 
Q 2250 -91 1575 -91 
Q 1294 -91 989 -36 
Q 684 19 347 128 
L 347 722 
Q 666 556 975 473 
Q 1284 391 1588 391 
Q 1994 391 2212 530 
Q 2431 669 2431 922 
Q 2431 1156 2273 1281 
Q 2116 1406 1581 1522 
L 1381 1569 
Q 847 1681 609 1914 
Q 372 2147 372 2553 
Q 372 3047 722 3315 
Q 1072 3584 1716 3584 
Q 2034 3584 2315 3537 
Q 2597 3491 2834 3397 
z
" transform="scale(0.015625)"/>
      </defs>
      <use xlink:href="#DejaVuSans-43"/>
      <use xlink:href="#DejaVuSans-68" x="69.824219"/>
      <use xlink:href="#DejaVuSans-75" x="133.203125"/>
      <use xlink:href="#DejaVuSans-63" x="196.582031"/>
      <use xlink:href="#DejaVuSans-6b" x="251.5625"/>
      <use xlink:href="#DejaVuSans-20" x="309.472656"/>
      <use xlink:href="#DejaVuSans-4a" x="341.259766"/>
      <use xlink:href="#DejaVuSans-6f" x="370.751953"/>
      <use xlink:href="#DejaVuSans-6e" x="431.933594"/>
      <use xlink:href="#DejaVuSans-65" x="495.3125"/>
      <use xlink:href="#DejaVuSans-73" x="556.835938"/>
     </g>
    </g>
   </g>
   <g id="text_3">
    <g id="patch_4">
     <path d="M 398.098209 136.980958 
L 461.70149 136.980958 
L 461.70149 120.350645 
L 398.098209 120.350645 
z
" clip-path="url(#p1dba4ac5b8)" style="fill: #ffffff; opacity: 0.7; stroke: #000000; stroke-linejoin: miter"/>
    </g>
    <g clip-path="url(#p1dba4ac5b8)">
     <!-- Woody Allen -->
     <g transform="translate(402.058209 131.149239)scale(0.09 -0.09)">
      <defs>
       <path id="DejaVuSans-57" d="M 213 4666 
L 850 4666 
L 1831 722 
L 2809 4666 
L 3519 4666 
L 4500 722 
L 5478 4666 
L 6119 4666 
L 4947 0 
L 4153 0 
L 3169 4050 
L 2175 0 
L 1381 0 
L 213 4666 
z
" transform="scale(0.015625)"/>
       <path id="DejaVuSans-64" d="M 2906 2969 
L 2906 4863 
L 3481 4863 
L 3481 0 
L 2906 0 
L 2906 525 
Q 2725 213 2448 61 
Q 2172 -91 1784 -91 
Q 1150 -91 751 415 
Q 353 922 353 1747 
Q 353 2572 751 3078 
Q 1150 3584 1784 3584 
Q 2172 3584 2448 3432 
Q 2725 3281 2906 2969 
z
M 947 1747 
Q 947 1113 1208 752 
Q 1469 391 1925 391 
Q 2381 391 2643 752 
Q 2906 1113 2906 1747 
Q 2906 2381 2643 2742 
Q 2381 3103 1925 3103 
Q 1469 3103 1208 2742 
Q 947 2381 947 1747 
z
" transform="scale(0.015625)"/>
       <path id="DejaVuSans-79" d="M 2059 -325 
Q 1816 -950 1584 -1140 
Q 1353 -1331 966 -1331 
L 506 -1331 
L 506 -850 
L 844 -850 
Q 1081 -850 1212 -737 
Q 1344 -625 1503 -206 
L 1606 56 
L 191 3500 
L 800 3500 
L 1894 763 
L 2988 3500 
L 3597 3500 
L 2059 -325 
z
" transform="scale(0.015625)"/>
       <path id="DejaVuSans-41" d="M 2188 4044 
L 1331 1722 
L 3047 1722 
L 2188 4044 
z
M 1831 4666 
L 2547 4666 
L 4325 0 
L 3669 0 
L 3244 1197 
L 1141 1197 
L 716 0 
L 50 0 
L 1831 4666 
z
" transform="scale(0.015625)"/>
      </defs>
      <use xlink:href="#DejaVuSans-57"/>
      <use xlink:href="#DejaVuSans-6f" x="93.001953"/>
      <use xlink:href="#DejaVuSans-6f" x="154.183594"/>
      <use xlink:href="#DejaVuSans-64" x="215.365234"/>
      <use xlink:href="#DejaVuSans-79" x="278.841797"/>
      <use xlink:href="#DejaVuSans-20" x="338.021484"/>
      <use xlink:href="#DejaVuSans-41" x="369.808594"/>
      <use xlink:href="#DejaVuSans-6c" x="438.216797"/>
      <use xlink:href="#DejaVuSans-6c" x="466"/>
      <use xlink:href="#DejaVuSans-65" x="493.783203"/>
      <use xlink:href="#DejaVuSans-6e" x="555.306641"/>
     </g>
    </g>
   </g>
   <g id="text_4">
    <g id="patch_5">
     <path d="M 321.141166 92.403594 
L 383.387416 92.403594 
L 383.387416 75.773281 
L 321.141166 75.773281 
z
" clip-path="url(#p1dba4ac5b8)" style="fill: #ffffff; opacity: 0.7; stroke: #000000; stroke-linejoin: miter"/>
    </g>
    <g clip-path="url(#p1dba4ac5b8)">
     <!-- Ron Howard -->
     <g transform="translate(325.101166 86.571875)scale(0.09 -0.09)">
      <defs>
       <path id="DejaVuSans-52" d="M 2841 2188 
Q 3044 2119 3236 1894 
Q 3428 1669 3622 1275 
L 4263 0 
L 3584 0 
L 2988 1197 
Q 2756 1666 2539 1819 
Q 2322 1972 1947 1972 
L 1259 1972 
L 1259 0 
L 628 0 
L 628 4666 
L 2053 4666 
Q 2853 4666 3247 4331 
Q 3641 3997 3641 3322 
Q 3641 2881 3436 2590 
Q 3231 2300 2841 2188 
z
M 1259 4147 
L 1259 2491 
L 2053 2491 
Q 2509 2491 2742 2702 
Q 2975 2913 2975 3322 
Q 2975 3731 2742 3939 
Q 2509 4147 2053 4147 
L 1259 4147 
z
" transform="scale(0.015625)"/>
       <path id="DejaVuSans-48" d="M 628 4666 
L 1259 4666 
L 1259 2753 
L 3553 2753 
L 3553 4666 
L 4184 4666 
L 4184 0 
L 3553 0 
L 3553 2222 
L 1259 2222 
L 1259 0 
L 628 0 
L 628 4666 
z
" transform="scale(0.015625)"/>
       <path id="DejaVuSans-77" d="M 269 3500 
L 844 3500 
L 1563 769 
L 2278 3500 
L 2956 3500 
L 3675 769 
L 4391 3500 
L 4966 3500 
L 4050 0 
L 3372 0 
L 2619 2869 
L 1863 0 
L 1184 0 
L 269 3500 
z
" transform="scale(0.015625)"/>
       <path id="DejaVuSans-61" d="M 2194 1759 
Q 1497 1759 1228 1600 
Q 959 1441 959 1056 
Q 959 750 1161 570 
Q 1363 391 1709 391 
Q 2188 391 2477 730 
Q 2766 1069 2766 1631 
L 2766 1759 
L 2194 1759 
z
M 3341 1997 
L 3341 0 
L 2766 0 
L 2766 531 
Q 2569 213 2275 61 
Q 1981 -91 1556 -91 
Q 1019 -91 701 211 
Q 384 513 384 1019 
Q 384 1609 779 1909 
Q 1175 2209 1959 2209 
L 2766 2209 
L 2766 2266 
Q 2766 2663 2505 2880 
Q 2244 3097 1772 3097 
Q 1472 3097 1187 3025 
Q 903 2953 641 2809 
L 641 3341 
Q 956 3463 1253 3523 
Q 1550 3584 1831 3584 
Q 2591 3584 2966 3190 
Q 3341 2797 3341 1997 
z
" transform="scale(0.015625)"/>
      </defs>
      <use xlink:href="#DejaVuSans-52"/>
      <use xlink:href="#DejaVuSans-6f" x="64.982422"/>
      <use xlink:href="#DejaVuSans-6e" x="126.164062"/>
      <use xlink:href="#DejaVuSans-20" x="189.542969"/>
      <use xlink:href="#DejaVuSans-48" x="221.330078"/>
      <use xlink:href="#DejaVuSans-6f" x="296.525391"/>
      <use xlink:href="#DejaVuSans-77" x="357.707031"/>
      <use xlink:href="#DejaVuSans-61" x="439.494141"/>
      <use xlink:href="#DejaVuSans-72" x="500.773438"/>
      <use xlink:href="#DejaVuSans-64" x="540.136719"/>
     </g>
    </g>
   </g>
   <g id="text_5">
    <g id="patch_6">
     <path d="M 234.319392 83.084387 
L 291.899705 83.084387 
L 291.899705 66.454075 
L 234.319392 66.454075 
z
" clip-path="url(#p1dba4ac5b8)" style="fill: #ffffff; opacity: 0.7; stroke: #000000; stroke-linejoin: miter"/>
    </g>
    <g clip-path="url(#p1dba4ac5b8)">
     <!-- Tim Burton -->
     <g transform="translate(238.279392 77.252668)scale(0.09 -0.09)">
      <defs>
       <path id="DejaVuSans-54" d="M -19 4666 
L 3928 4666 
L 3928 4134 
L 2272 4134 
L 2272 0 
L 1638 0 
L 1638 4134 
L -19 4134 
L -19 4666 
z
" transform="scale(0.015625)"/>
       <path id="DejaVuSans-6d" d="M 3328 2828 
Q 3544 3216 3844 3400 
Q 4144 3584 4550 3584 
Q 5097 3584 5394 3201 
Q 5691 2819 5691 2113 
L 5691 0 
L 5113 0 
L 5113 2094 
Q 5113 2597 4934 2840 
Q 4756 3084 4391 3084 
Q 3944 3084 3684 2787 
Q 3425 2491 3425 1978 
L 3425 0 
L 2847 0 
L 2847 2094 
Q 2847 2600 2669 2842 
Q 2491 3084 2119 3084 
Q 1678 3084 1418 2786 
Q 1159 2488 1159 1978 
L 1159 0 
L 581 0 
L 581 3500 
L 1159 3500 
L 1159 2956 
Q 1356 3278 1631 3431 
Q 1906 3584 2284 3584 
Q 2666 3584 2933 3390 
Q 3200 3197 3328 2828 
z
" transform="scale(0.015625)"/>
       <path id="DejaVuSans-42" d="M 1259 2228 
L 1259 519 
L 2272 519 
Q 2781 519 3026 730 
Q 3272 941 3272 1375 
Q 3272 1813 3026 2020 
Q 2781 2228 2272 2228 
L 1259 2228 
z
M 1259 4147 
L 1259 2741 
L 2194 2741 
Q 2656 2741 2882 2914 
Q 3109 3088 3109 3444 
Q 3109 3797 2882 3972 
Q 2656 4147 2194 4147 
L 1259 4147 
z
M 628 4666 
L 2241 4666 
Q 2963 4666 3353 4366 
Q 3744 4066 3744 3513 
Q 3744 3084 3544 2831 
Q 3344 2578 2956 2516 
Q 3422 2416 3680 2098 
Q 3938 1781 3938 1306 
Q 3938 681 3513 340 
Q 3088 0 2303 0 
L 628 0 
L 628 4666 
z
" transform="scale(0.015625)"/>
      </defs>
      <use xlink:href="#DejaVuSans-54"/>
      <use xlink:href="#DejaVuSans-69" x="57.958984"/>
      <use xlink:href="#DejaVuSans-6d" x="85.742188"/>
      <use xlink:href="#DejaVuSans-20" x="183.154297"/>
      <use xlink:href="#DejaVuSans-42" x="214.941406"/>
      <use xlink:href="#DejaVuSans-75" x="283.544922"/>
      <use xlink:href="#DejaVuSans-72" x="346.923828"/>
      <use xlink:href="#DejaVuSans-74" x="388.037109"/>
      <use xlink:href="#DejaVuSans-6f" x="427.246094"/>
      <use xlink:href="#DejaVuSans-6e" x="488.427734"/>
     </g>
    </g>
   </g>
   <g id="text_6">
    <g id="patch_7">
     <path d="M 132.402001 110.634724 
L 223.300595 110.634724 
L 223.300595 94.004411 
L 132.402001 94.004411 
z
" clip-path="url(#p1dba4ac5b8)" style="fill: #ffffff; opacity: 0.7; stroke: #000000; stroke-linejoin: miter"/>
    </g>
    <g clip-path="url(#p1dba4ac5b8)">
     <!-- Stephen Sommers -->
     <g transform="translate(136.362001 104.803005)scale(0.09 -0.09)">
      <use xlink:href="#DejaVuSans-53"/>
      <use xlink:href="#DejaVuSans-74" x="63.476562"/>
      <use xlink:href="#DejaVuSans-65" x="102.685547"/>
      <use xlink:href="#DejaVuSans-70" x="164.208984"/>
      <use xlink:href="#DejaVuSans-68" x="227.685547"/>
      <use xlink:href="#DejaVuSans-65" x="291.064453"/>
      <use xlink:href="#DejaVuSans-6e" x="352.587891"/>
      <use xlink:href="#DejaVuSans-20" x="415.966797"/>
      <use xlink:href="#DejaVuSans-53" x="447.753906"/>
      <use xlink:href="#DejaVuSans-6f" x="511.230469"/>
      <use xlink:href="#DejaVuSans-6d" x="572.412109"/>
      <use xlink:href="#DejaVuSans-6d" x="669.824219"/>
      <use xlink:href="#DejaVuSans-65" x="767.236328"/>
      <use xlink:href="#DejaVuSans-72" x="828.759766"/>
      <use xlink:href="#DejaVuSans-73" x="869.873047"/>
     </g>
    </g>
   </g>
   <g id="text_7">
    <g id="patch_8">
     <path d="M 71.324211 170.290885 
L 151.138743 170.290885 
L 151.138743 153.660572 
L 71.324211 153.660572 
z
" clip-path="url(#p1dba4ac5b8)" style="fill: #ffffff; opacity: 0.7; stroke: #000000; stroke-linejoin: miter"/>
    </g>
    <g clip-path="url(#p1dba4ac5b8)">
     <!-- Martin Scorsese -->
     <g transform="translate(75.284211 164.459166)scale(0.09 -0.09)">
      <defs>
       <path id="DejaVuSans-4d" d="M 628 4666 
L 1569 4666 
L 2759 1491 
L 3956 4666 
L 4897 4666 
L 4897 0 
L 4281 0 
L 4281 4097 
L 3078 897 
L 2444 897 
L 1241 4097 
L 1241 0 
L 628 0 
L 628 4666 
z
" transform="scale(0.015625)"/>
      </defs>
      <use xlink:href="#DejaVuSans-4d"/>
      <use xlink:href="#DejaVuSans-61" x="86.279297"/>
      <use xlink:href="#DejaVuSans-72" x="147.558594"/>
      <use xlink:href="#DejaVuSans-74" x="188.671875"/>
      <use xlink:href="#DejaVuSans-69" x="227.880859"/>
      <use xlink:href="#DejaVuSans-6e" x="255.664062"/>
      <use xlink:href="#DejaVuSans-20" x="319.042969"/>
      <use xlink:href="#DejaVuSans-53" x="350.830078"/>
      <use xlink:href="#DejaVuSans-63" x="414.306641"/>
      <use xlink:href="#DejaVuSans-6f" x="469.287109"/>
      <use xlink:href="#DejaVuSans-72" x="530.46875"/>
      <use xlink:href="#DejaVuSans-73" x="571.582031"/>
      <use xlink:href="#DejaVuSans-65" x="623.681641"/>
      <use xlink:href="#DejaVuSans-73" x="685.205078"/>
      <use xlink:href="#DejaVuSans-65" x="737.304688"/>
     </g>
    </g>
   </g>
   <g id="text_8">
    <g id="patch_9">
     <path d="M 32.783528 251.737805 
L 116.754934 251.737805 
L 116.754934 235.107493 
L 32.783528 235.107493 
z
" clip-path="url(#p1dba4ac5b8)" style="fill: #ffffff; opacity: 0.7; stroke: #000000; stroke-linejoin: miter"/>
    </g>
    <g clip-path="url(#p1dba4ac5b8)">
     <!-- Robert Zemeckis -->
     <g transform="translate(36.743528 245.906086)scale(0.09 -0.09)">
      <defs>
       <path id="DejaVuSans-5a" d="M 359 4666 
L 4025 4666 
L 4025 4184 
L 1075 531 
L 4097 531 
L 4097 0 
L 288 0 
L 288 481 
L 3238 4134 
L 359 4134 
L 359 4666 
z
" transform="scale(0.015625)"/>
      </defs>
      <use xlink:href="#DejaVuSans-52"/>
      <use xlink:href="#DejaVuSans-6f" x="64.982422"/>
      <use xlink:href="#DejaVuSans-62" x="126.164062"/>
      <use xlink:href="#DejaVuSans-65" x="189.640625"/>
      <use xlink:href="#DejaVuSans-72" x="251.164062"/>
      <use xlink:href="#DejaVuSans-74" x="292.277344"/>
      <use xlink:href="#DejaVuSans-20" x="331.486328"/>
      <use xlink:href="#DejaVuSans-5a" x="363.273438"/>
      <use xlink:href="#DejaVuSans-65" x="431.779297"/>
      <use xlink:href="#DejaVuSans-6d" x="493.302734"/>
      <use xlink:href="#DejaVuSans-65" x="590.714844"/>
      <use xlink:href="#DejaVuSans-63" x="652.238281"/>
      <use xlink:href="#DejaVuSans-6b" x="707.21875"/>
      <use xlink:href="#DejaVuSans-69" x="765.128906"/>
      <use xlink:href="#DejaVuSans-73" x="792.912109"/>
     </g>
    </g>
   </g>
   <g id="text_9">
    <g id="patch_10">
     <path d="M 46.430494 340.892546 
L 103.107994 340.892546 
L 103.107994 324.262233 
L 46.430494 324.262233 
z
" clip-path="url(#p1dba4ac5b8)" style="fill: #ffffff; opacity: 0.7; stroke: #000000; stroke-linejoin: miter"/>
    </g>
    <g clip-path="url(#p1dba4ac5b8)">
     <!-- Rob Reiner -->
     <g transform="translate(50.390494 335.060827)scale(0.09 -0.09)">
      <use xlink:href="#DejaVuSans-52"/>
      <use xlink:href="#DejaVuSans-6f" x="64.982422"/>
      <use xlink:href="#DejaVuSans-62" x="126.164062"/>
      <use xlink:href="#DejaVuSans-20" x="189.640625"/>
      <use xlink:href="#DejaVuSans-52" x="221.427734"/>
      <use xlink:href="#DejaVuSans-65" x="286.410156"/>
      <use xlink:href="#DejaVuSans-69" x="347.933594"/>
      <use xlink:href="#DejaVuSans-6e" x="375.716797"/>
      <use xlink:href="#DejaVuSans-65" x="439.095703"/>
      <use xlink:href="#DejaVuSans-72" x="500.619141"/>
     </g>
    </g>
   </g>
   <g id="text_10">
    <g id="patch_11">
     <path d="M 77.024459 422.33944 
L 145.438521 422.33944 
L 145.438521 405.709128 
L 77.024459 405.709128 
z
" clip-path="url(#p1dba4ac5b8)" style="fill: #ffffff; opacity: 0.7; stroke: #000000; stroke-linejoin: miter"/>
    </g>
    <g clip-path="url(#p1dba4ac5b8)">
     <!-- Peter Jackson -->
     <g transform="translate(80.984459 416.507722)scale(0.09 -0.09)">
      <defs>
       <path id="DejaVuSans-50" d="M 1259 4147 
L 1259 2394 
L 2053 2394 
Q 2494 2394 2734 2622 
Q 2975 2850 2975 3272 
Q 2975 3691 2734 3919 
Q 2494 4147 2053 4147 
L 1259 4147 
z
M 628 4666 
L 2053 4666 
Q 2838 4666 3239 4311 
Q 3641 3956 3641 3272 
Q 3641 2581 3239 2228 
Q 2838 1875 2053 1875 
L 1259 1875 
L 1259 0 
L 628 0 
L 628 4666 
z
" transform="scale(0.015625)"/>
      </defs>
      <use xlink:href="#DejaVuSans-50"/>
      <use xlink:href="#DejaVuSans-65" x="56.677734"/>
      <use xlink:href="#DejaVuSans-74" x="118.201172"/>
      <use xlink:href="#DejaVuSans-65" x="157.410156"/>
      <use xlink:href="#DejaVuSans-72" x="218.933594"/>
      <use xlink:href="#DejaVuSans-20" x="260.046875"/>
      <use xlink:href="#DejaVuSans-4a" x="291.833984"/>
      <use xlink:href="#DejaVuSans-61" x="321.326172"/>
      <use xlink:href="#DejaVuSans-63" x="382.605469"/>
      <use xlink:href="#DejaVuSans-6b" x="437.585938"/>
      <use xlink:href="#DejaVuSans-73" x="495.496094"/>
      <use xlink:href="#DejaVuSans-6f" x="547.595703"/>
      <use xlink:href="#DejaVuSans-6e" x="608.777344"/>
     </g>
    </g>
   </g>
   <g id="text_11">
    <g id="patch_12">
     <path d="M 145.056877 481.995602 
L 210.645783 481.995602 
L 210.645783 465.365289 
L 145.056877 465.365289 
z
" clip-path="url(#p1dba4ac5b8)" style="fill: #ffffff; opacity: 0.7; stroke: #000000; stroke-linejoin: miter"/>
    </g>
    <g clip-path="url(#p1dba4ac5b8)">
     <!-- Renny Harlin -->
     <g transform="translate(149.016877 476.163883)scale(0.09 -0.09)">
      <use xlink:href="#DejaVuSans-52"/>
      <use xlink:href="#DejaVuSans-65" x="64.982422"/>
      <use xlink:href="#DejaVuSans-6e" x="126.505859"/>
      <use xlink:href="#DejaVuSans-6e" x="189.884766"/>
      <use xlink:href="#DejaVuSans-79" x="253.263672"/>
      <use xlink:href="#DejaVuSans-20" x="312.443359"/>
      <use xlink:href="#DejaVuSans-48" x="344.230469"/>
      <use xlink:href="#DejaVuSans-61" x="419.425781"/>
      <use xlink:href="#DejaVuSans-72" x="480.705078"/>
      <use xlink:href="#DejaVuSans-6c" x="521.818359"/>
      <use xlink:href="#DejaVuSans-69" x="549.601562"/>
      <use xlink:href="#DejaVuSans-6e" x="577.384766"/>
     </g>
    </g>
   </g>
   <g id="text_12">
    <g id="patch_13">
     <path d="M 223.731775 509.545925 
L 302.4874 509.545925 
L 302.4874 492.915613 
L 223.731775 492.915613 
z
" clip-path="url(#p1dba4ac5b8)" style="fill: #ffffff; opacity: 0.7; stroke: #000000; stroke-linejoin: miter"/>
    </g>
    <g clip-path="url(#p1dba4ac5b8)">
     <!-- James Cameron -->
     <g transform="translate(227.691775 503.714207)scale(0.09 -0.09)">
      <use xlink:href="#DejaVuSans-4a"/>
      <use xlink:href="#DejaVuSans-61" x="29.492188"/>
      <use xlink:href="#DejaVuSans-6d" x="90.771484"/>
      <use xlink:href="#DejaVuSans-65" x="188.183594"/>
      <use xlink:href="#DejaVuSans-73" x="249.707031"/>
      <use xlink:href="#DejaVuSans-20" x="301.806641"/>
      <use xlink:href="#DejaVuSans-43" x="333.59375"/>
      <use xlink:href="#DejaVuSans-61" x="403.417969"/>
      <use xlink:href="#DejaVuSans-6d" x="464.697266"/>
      <use xlink:href="#DejaVuSans-65" x="562.109375"/>
      <use xlink:href="#DejaVuSans-72" x="623.632812"/>
      <use xlink:href="#DejaVuSans-6f" x="662.496094"/>
      <use xlink:href="#DejaVuSans-6e" x="723.677734"/>
     </g>
    </g>
   </g>
   <g id="text_13">
    <g id="patch_14">
     <path d="M 312.515964 500.226706 
L 392.012683 500.226706 
L 392.012683 483.596393 
L 312.515964 483.596393 
z
" clip-path="url(#p1dba4ac5b8)" style="fill: #ffffff; opacity: 0.7; stroke: #000000; stroke-linejoin: miter"/>
    </g>
    <g clip-path="url(#p1dba4ac5b8)">
     <!-- Lasse Hallström -->
     <g transform="translate(316.475964 494.394987)scale(0.09 -0.09)">
      <defs>
       <path id="DejaVuSans-4c" d="M 628 4666 
L 1259 4666 
L 1259 531 
L 3531 531 
L 3531 0 
L 628 0 
L 628 4666 
z
" transform="scale(0.015625)"/>
       <path id="DejaVuSans-f6" d="M 1959 3097 
Q 1497 3097 1228 2736 
Q 959 2375 959 1747 
Q 959 1119 1226 758 
Q 1494 397 1959 397 
Q 2419 397 2687 759 
Q 2956 1122 2956 1747 
Q 2956 2369 2687 2733 
Q 2419 3097 1959 3097 
z
M 1959 3584 
Q 2709 3584 3137 3096 
Q 3566 2609 3566 1747 
Q 3566 888 3137 398 
Q 2709 -91 1959 -91 
Q 1206 -91 779 398 
Q 353 888 353 1747 
Q 353 2609 779 3096 
Q 1206 3584 1959 3584 
z
M 2253 4850 
L 2888 4850 
L 2888 4219 
L 2253 4219 
L 2253 4850 
z
M 1031 4850 
L 1666 4850 
L 1666 4219 
L 1031 4219 
L 1031 4850 
z
" transform="scale(0.015625)"/>
      </defs>
      <use xlink:href="#DejaVuSans-4c"/>
      <use xlink:href="#DejaVuSans-61" x="55.712891"/>
      <use xlink:href="#DejaVuSans-73" x="116.992188"/>
      <use xlink:href="#DejaVuSans-73" x="169.091797"/>
      <use xlink:href="#DejaVuSans-65" x="221.191406"/>
      <use xlink:href="#DejaVuSans-20" x="282.714844"/>
      <use xlink:href="#DejaVuSans-48" x="314.501953"/>
      <use xlink:href="#DejaVuSans-61" x="389.697266"/>
      <use xlink:href="#DejaVuSans-6c" x="450.976562"/>
      <use xlink:href="#DejaVuSans-6c" x="478.759766"/>
      <use xlink:href="#DejaVuSans-73" x="506.542969"/>
      <use xlink:href="#DejaVuSans-74" x="558.642578"/>
      <use xlink:href="#DejaVuSans-72" x="597.851562"/>
      <use xlink:href="#DejaVuSans-f6" x="636.714844"/>
      <use xlink:href="#DejaVuSans-6d" x="697.896484"/>
     </g>
    </g>
   </g>
   <g id="text_14">
    <g id="patch_15">
     <path d="M 400.156998 455.649316 
L 459.642779 455.649316 
L 459.642779 439.019004 
L 400.156998 439.019004 
z
" clip-path="url(#p1dba4ac5b8)" style="fill: #ffffff; opacity: 0.7; stroke: #000000; stroke-linejoin: miter"/>
    </g>
    <g clip-path="url(#p1dba4ac5b8)">
     <!-- John Landis -->
     <g transform="translate(404.116998 449.817598)scale(0.09 -0.09)">
      <use xlink:href="#DejaVuSans-4a"/>
      <use xlink:href="#DejaVuSans-6f" x="29.492188"/>
      <use xlink:href="#DejaVuSans-68" x="90.673828"/>
      <use xlink:href="#DejaVuSans-6e" x="154.052734"/>
      <use xlink:href="#DejaVuSans-20" x="217.431641"/>
      <use xlink:href="#DejaVuSans-4c" x="249.21875"/>
      <use xlink:href="#DejaVuSans-61" x="304.931641"/>
      <use xlink:href="#DejaVuSans-6e" x="366.210938"/>
      <use xlink:href="#DejaVuSans-64" x="429.589844"/>
      <use xlink:href="#DejaVuSans-69" x="493.066406"/>
      <use xlink:href="#DejaVuSans-73" x="520.849609"/>
     </g>
    </g>
   </g>
   <g id="text_15">
    <g id="patch_16">
     <path d="M 440.981436 383.521616 
L 524.203311 383.521616 
L 524.203311 366.891303 
L 440.981436 366.891303 
z
" clip-path="url(#p1dba4ac5b8)" style="fill: #ffffff; opacity: 0.7; stroke: #000000; stroke-linejoin: miter"/>
    </g>
    <g clip-path="url(#p1dba4ac5b8)">
     <!-- Joel Schumacher -->
     <g transform="translate(444.941436 377.689897)scale(0.09 -0.09)">
      <use xlink:href="#DejaVuSans-4a"/>
      <use xlink:href="#DejaVuSans-6f" x="29.492188"/>
      <use xlink:href="#DejaVuSans-65" x="90.673828"/>
      <use xlink:href="#DejaVuSans-6c" x="152.197266"/>
      <use xlink:href="#DejaVuSans-20" x="179.980469"/>
      <use xlink:href="#DejaVuSans-53" x="211.767578"/>
      <use xlink:href="#DejaVuSans-63" x="275.244141"/>
      <use xlink:href="#DejaVuSans-68" x="330.224609"/>
      <use xlink:href="#DejaVuSans-75" x="393.603516"/>
      <use xlink:href="#DejaVuSans-6d" x="456.982422"/>
      <use xlink:href="#DejaVuSans-61" x="554.394531"/>
      <use xlink:href="#DejaVuSans-63" x="615.673828"/>
      <use xlink:href="#DejaVuSans-68" x="670.654297"/>
      <use xlink:href="#DejaVuSans-65" x="734.033203"/>
      <use xlink:href="#DejaVuSans-72" x="795.556641"/>
     </g>
    </g>
   </g>
   <g id="text_16">
    <!-- Impactful directors for Comedy genre -->
    <g transform="translate(175.290937 4.8)scale(0.12 -0.12)">
     <defs>
      <path id="DejaVuSans-49" d="M 628 4666 
L 1259 4666 
L 1259 0 
L 628 0 
L 628 4666 
z
" transform="scale(0.015625)"/>
      <path id="DejaVuSans-66" d="M 2375 4863 
L 2375 4384 
L 1825 4384 
Q 1516 4384 1395 4259 
Q 1275 4134 1275 3809 
L 1275 3500 
L 2222 3500 
L 2222 3053 
L 1275 3053 
L 1275 0 
L 697 0 
L 697 3053 
L 147 3053 
L 147 3500 
L 697 3500 
L 697 3744 
Q 697 4328 969 4595 
Q 1241 4863 1831 4863 
L 2375 4863 
z
" transform="scale(0.015625)"/>
     </defs>
     <use xlink:href="#DejaVuSans-49"/>
     <use xlink:href="#DejaVuSans-6d" x="29.492188"/>
     <use xlink:href="#DejaVuSans-70" x="126.904297"/>
     <use xlink:href="#DejaVuSans-61" x="190.380859"/>
     <use xlink:href="#DejaVuSans-63" x="251.660156"/>
     <use xlink:href="#DejaVuSans-74" x="306.640625"/>
     <use xlink:href="#DejaVuSans-66" x="345.849609"/>
     <use xlink:href="#DejaVuSans-75" x="381.054688"/>
     <use xlink:href="#DejaVuSans-6c" x="444.433594"/>
     <use xlink:href="#DejaVuSans-20" x="472.216797"/>
     <use xlink:href="#DejaVuSans-64" x="504.003906"/>
     <use xlink:href="#DejaVuSans-69" x="567.480469"/>
     <use xlink:href="#DejaVuSans-72" x="595.263672"/>
     <use xlink:href="#DejaVuSans-65" x="634.126953"/>
     <use xlink:href="#DejaVuSans-63" x="695.650391"/>
     <use xlink:href="#DejaVuSans-74" x="750.630859"/>
     <use xlink:href="#DejaVuSans-6f" x="789.839844"/>
     <use xlink:href="#DejaVuSans-72" x="851.021484"/>
     <use xlink:href="#DejaVuSans-73" x="892.134766"/>
     <use xlink:href="#DejaVuSans-20" x="944.234375"/>
     <use xlink:href="#DejaVuSans-66" x="976.021484"/>
     <use xlink:href="#DejaVuSans-6f" x="1011.226562"/>
     <use xlink:href="#DejaVuSans-72" x="1072.408203"/>
     <use xlink:href="#DejaVuSans-20" x="1113.521484"/>
     <use xlink:href="#DejaVuSans-43" x="1145.308594"/>
     <use xlink:href="#DejaVuSans-6f" x="1215.132812"/>
     <use xlink:href="#DejaVuSans-6d" x="1276.314453"/>
     <use xlink:href="#DejaVuSans-65" x="1373.726562"/>
     <use xlink:href="#DejaVuSans-64" x="1435.25"/>
     <use xlink:href="#DejaVuSans-79" x="1498.726562"/>
     <use xlink:href="#DejaVuSans-20" x="1557.90625"/>
     <use xlink:href="#DejaVuSans-67" x="1589.693359"/>
     <use xlink:href="#DejaVuSans-65" x="1653.169922"/>
     <use xlink:href="#DejaVuSans-6e" x="1714.693359"/>
     <use xlink:href="#DejaVuSans-72" x="1778.072266"/>
     <use xlink:href="#DejaVuSans-65" x="1816.935547"/>
    </g>
   </g>
  </g>
 </g>
 <defs>
  <clipPath id="p1dba4ac5b8">
   <rect x="10.8" y="10.8" width="554.4" height="554.4"/>
  </clipPath>
 </defs>
</svg>
