<?xml version="1.0" encoding="utf-8" standalone="no"?>
<!DOCTYPE svg PUBLIC "-//W3C//DTD SVG 1.1//EN"
  "http://www.w3.org/Graphics/SVG/1.1/DTD/svg11.dtd">
<svg xmlns:xlink="http://www.w3.org/1999/xlink" width="568.8pt" height="583.918125pt" viewBox="0 0 568.8 583.918125" xmlns="http://www.w3.org/2000/svg" version="1.1">
 <metadata>
  <rdf:RDF xmlns:dc="http://purl.org/dc/elements/1.1/" xmlns:cc="http://creativecommons.org/ns#" xmlns:rdf="http://www.w3.org/1999/02/22-rdf-syntax-ns#">
   <cc:Work>
    <dc:type rdf:resource="http://purl.org/dc/dcmitype/StillImage"/>
    <dc:date>2022-12-23T19:05:51.841495</dc:date>
    <dc:format>image/svg+xml</dc:format>
    <dc:creator>
     <cc:Agent>
      <dc:title>Matplotlib v3.5.2, https://matplotlib.org/</dc:title>
     </cc:Agent>
    </dc:creator>
   </cc:Work>
  </rdf:RDF>
 </metadata>
 <defs>
  <style type="text/css">*{stroke-linejoin: round; stroke-linecap: butt}</style>
 </defs>
 <g id="figure_1">
  <g id="patch_1">
   <path d="M 0 583.918125 
L 568.8 583.918125 
L 568.8 0 
L 0 0 
z
" style="fill: #ffffff"/>
  </g>
  <g id="axes_1">
   <g id="LineCollection_1">
    <path d="M 486.048077 304.718875 
L 254.394227 96.688857 
" clip-path="url(#p4284650622)" style="fill: none; stroke: #000000; stroke-opacity: 0.3; stroke-width: 5"/>
    <path d="M 416.654505 149.270877 
L 341.127527 105.780766 
" clip-path="url(#p4284650622)" style="fill: none; stroke: #000000; stroke-opacity: 0.3; stroke-width: 10"/>
   </g>
   <g id="PathCollection_1">
    <path d="M 486.048077 332.105003 
C 493.310963 332.105003 500.277358 329.219428 505.412993 324.083792 
C 510.548629 318.948156 513.434205 311.981761 513.434205 304.718875 
C 513.434205 297.455989 510.548629 290.489595 505.412993 285.353959 
C 500.277358 280.218323 493.310963 277.332748 486.048077 277.332748 
C 478.785191 277.332748 471.818796 280.218323 466.68316 285.353959 
C 461.547524 290.489595 458.661949 297.455989 458.661949 304.718875 
C 458.661949 311.981761 461.547524 318.948156 466.68316 324.083792 
C 471.818796 329.219428 478.785191 332.105003 486.048077 332.105003 
z
" clip-path="url(#p4284650622)" style="fill: #c70039; fill-opacity: 0.99; stroke: #c70039; stroke-opacity: 0.99"/>
    <path d="M 467.915875 243.338995 
C 474.201088 243.338995 480.229722 240.841853 484.674039 236.397536 
C 489.118357 231.953219 491.615499 225.924585 491.615499 219.639372 
C 491.615499 213.354158 489.118357 207.325524 484.674039 202.881207 
C 480.229722 198.43689 474.201088 195.939748 467.915875 195.939748 
C 461.630661 195.939748 455.602027 198.43689 451.15771 202.881207 
C 446.713393 207.325524 444.216251 213.354158 444.216251 219.639372 
C 444.216251 225.924585 446.713393 231.953219 451.15771 236.397536 
C 455.602027 240.841853 461.630661 243.338995 467.915875 243.338995 
z
" clip-path="url(#p4284650622)" style="fill: #c70039; fill-opacity: 0.99; stroke: #c70039; stroke-opacity: 0.99"/>
    <path d="M 416.654505 172.786855 
C 422.891015 172.786855 428.872934 170.309063 433.282812 165.899185 
C 437.692691 161.489306 440.170483 155.507387 440.170483 149.270877 
C 440.170483 143.034367 437.692691 137.052448 433.282812 132.642569 
C 428.872934 128.232691 422.891015 125.754899 416.654505 125.754899 
C 410.417994 125.754899 404.436076 128.232691 400.026197 132.642569 
C 395.616318 137.052448 393.138527 143.034367 393.138527 149.270877 
C 393.138527 155.507387 395.616318 161.489306 400.026197 165.899185 
C 404.436076 170.309063 410.417994 172.786855 416.654505 172.786855 
z
" clip-path="url(#p4284650622)" style="fill: #c70039; fill-opacity: 0.99; stroke: #c70039; stroke-opacity: 0.99"/>
    <path d="M 341.127527 128.895837 
C 347.257716 128.895837 353.137653 126.460287 357.472351 122.125589 
C 361.807048 117.790891 364.242598 111.910954 364.242598 105.780766 
C 364.242598 99.650577 361.807048 93.77064 357.472351 89.435943 
C 353.137653 85.101245 347.257716 82.665695 341.127527 82.665695 
C 334.997339 82.665695 329.117402 85.101245 324.782704 89.435943 
C 320.448006 93.77064 318.012457 99.650577 318.012457 105.780766 
C 318.012457 111.910954 320.448006 117.790891 324.782704 122.125589 
C 329.117402 126.460287 334.997339 128.895837 341.127527 128.895837 
z
" clip-path="url(#p4284650622)" style="fill: #c70039; fill-opacity: 0.99; stroke: #c70039; stroke-opacity: 0.99"/>
    <path d="M 254.394227 119.552901 
C 260.457842 119.552901 266.273924 117.143801 270.561547 112.856177 
C 274.849171 108.568554 277.258271 102.752472 277.258271 96.688857 
C 277.258271 90.625241 274.849171 84.80916 270.561547 80.521536 
C 266.273924 76.233913 260.457842 73.824813 254.394227 73.824813 
C 248.330611 73.824813 242.51453 76.233913 238.226906 80.521536 
C 233.939283 84.80916 231.530183 90.625241 231.530183 96.688857 
C 231.530183 102.752472 233.939283 108.568554 238.226906 112.856177 
C 242.51453 117.143801 248.330611 119.552901 254.394227 119.552901 
z
" clip-path="url(#p4284650622)" style="fill: #c70039; fill-opacity: 0.99; stroke: #c70039; stroke-opacity: 0.99"/>
    <path d="M 171.45159 146.036533 
C 177.410518 146.036533 183.126185 143.669026 187.339784 139.455428 
C 191.553382 135.241829 193.920889 129.526162 193.920889 123.567234 
C 193.920889 117.608306 191.553382 111.892638 187.339784 107.67904 
C 183.126185 103.465442 177.410518 101.097935 171.45159 101.097935 
C 165.492662 101.097935 159.776994 103.465442 155.563396 107.67904 
C 151.349798 111.892638 148.982291 117.608306 148.982291 123.567234 
C 148.982291 129.526162 151.349798 135.241829 155.563396 139.455428 
C 159.776994 143.669026 165.492662 146.036533 171.45159 146.036533 
z
" clip-path="url(#p4284650622)" style="fill: #c70039; fill-opacity: 0.99; stroke: #c70039; stroke-opacity: 0.99"/>
    <path d="M 106.641163 203.297471 
C 112.350748 203.297471 117.827252 201.029028 121.864538 196.991742 
C 125.901824 192.954456 128.170266 187.477952 128.170266 181.768367 
C 128.170266 176.058782 125.901824 170.582278 121.864538 166.544992 
C 117.827252 162.507705 112.350748 160.239263 106.641163 160.239263 
C 100.931578 160.239263 95.455074 162.507705 91.417787 166.544992 
C 87.380501 170.582278 85.112059 176.058782 85.112059 181.768367 
C 85.112059 187.477952 87.380501 192.954456 91.417787 196.991742 
C 95.455074 201.029028 100.931578 203.297471 106.641163 203.297471 
z
" clip-path="url(#p4284650622)" style="fill: #c70039; fill-opacity: 0.99; stroke: #c70039; stroke-opacity: 0.99"/>
    <path d="M 71.169231 282.690063 
C 76.86083 282.690063 82.320083 280.428767 86.344652 276.404198 
C 90.369221 272.379629 92.630517 266.920376 92.630517 261.228777 
C 92.630517 255.537177 90.369221 250.077924 86.344652 246.053356 
C 82.320083 242.028787 76.86083 239.76749 71.169231 239.76749 
C 65.477631 239.76749 60.018378 242.028787 55.99381 246.053356 
C 51.969241 250.077924 49.707944 255.537177 49.707944 261.228777 
C 49.707944 266.920376 51.969241 272.379629 55.99381 276.404198 
C 60.018378 280.428767 65.477631 282.690063 71.169231 282.690063 
z
" clip-path="url(#p4284650622)" style="fill: #c70039; fill-opacity: 0.99; stroke: #c70039; stroke-opacity: 0.99"/>
    <path d="M 71.169243 369.51653 
C 76.820063 369.51653 82.240201 367.271435 86.235934 363.275702 
C 90.231667 359.279969 92.476761 353.859831 92.476761 348.209012 
C 92.476761 342.558192 90.231667 337.138054 86.235934 333.142321 
C 82.240201 329.146588 76.820063 326.901493 71.169243 326.901493 
C 65.518423 326.901493 60.098286 329.146588 56.102553 333.142321 
C 52.10682 337.138054 49.861725 342.558192 49.861725 348.209012 
C 49.861725 353.859831 52.10682 359.279969 56.102553 363.275702 
C 60.098286 367.271435 65.518423 369.51653 71.169243 369.51653 
z
" clip-path="url(#p4284650622)" style="fill: #c70039; fill-opacity: 0.99; stroke: #c70039; stroke-opacity: 0.99"/>
    <path d="M 106.641175 448.238709 
C 112.096221 448.238709 117.328576 446.071396 121.185876 442.214097 
C 125.043175 438.356797 127.210488 433.124442 127.210488 427.669396 
C 127.210488 422.214351 125.043175 416.981996 121.185876 413.124696 
C 117.328576 409.267397 112.096221 407.100084 106.641175 407.100084 
C 101.18613 407.100084 95.953774 409.267397 92.096475 413.124696 
C 88.239175 416.981996 86.071863 422.214351 86.071863 427.669396 
C 86.071863 433.124442 88.239175 438.356797 92.096475 442.214097 
C 95.953774 446.071396 101.18613 448.238709 106.641175 448.238709 
z
" clip-path="url(#p4284650622)" style="fill: #c70039; fill-opacity: 0.99; stroke: #c70039; stroke-opacity: 0.99"/>
    <path d="M 171.451621 506.124534 
C 176.823046 506.124534 181.975194 503.990444 185.773365 500.192273 
C 189.571535 496.394102 191.705625 491.241954 191.705625 485.87053 
C 191.705625 480.499105 189.571535 475.346957 185.773365 471.548786 
C 181.975194 467.750615 176.823046 465.616526 171.451621 465.616526 
C 166.080196 465.616526 160.928048 467.750615 157.129878 471.548786 
C 153.331707 475.346957 151.197617 480.499105 151.197617 485.87053 
C 151.197617 491.241954 153.331707 496.394102 157.129878 500.192273 
C 160.928048 503.990444 166.080196 506.124534 171.451621 506.124534 
z
" clip-path="url(#p4284650622)" style="fill: #c70039; fill-opacity: 0.99; stroke: #c70039; stroke-opacity: 0.99"/>
    <path d="M 254.394264 532.796944 
C 259.711069 532.796944 264.810827 530.684555 268.570376 526.925006 
C 272.329925 523.165457 274.442314 518.065699 274.442314 512.748894 
C 274.442314 507.432089 272.329925 502.332331 268.570376 498.572782 
C 264.810827 494.813234 259.711069 492.700845 254.394264 492.700845 
C 249.077459 492.700845 243.977701 494.813234 240.218152 498.572782 
C 236.458604 502.332331 234.346215 507.432089 234.346215 512.748894 
C 234.346215 518.065699 236.458604 523.165457 240.218152 526.925006 
C 243.977701 530.684555 249.077459 532.796944 254.394264 532.796944 
z
" clip-path="url(#p4284650622)" style="fill: #c70039; fill-opacity: 0.99; stroke: #c70039; stroke-opacity: 0.99"/>
    <path d="M 341.127559 523.371086 
C 346.355802 523.371086 351.370615 521.293882 355.067542 517.596956 
C 358.764468 513.900029 360.841672 508.885216 360.841672 503.656973 
C 360.841672 498.428729 358.764468 493.413916 355.067542 489.716989 
C 351.370615 486.020063 346.355802 483.942859 341.127559 483.942859 
C 335.899315 483.942859 330.884502 486.020063 327.187575 489.716989 
C 323.490649 493.413916 321.413445 498.428729 321.413445 503.656973 
C 321.413445 508.885216 323.490649 513.900029 327.187575 517.596956 
C 330.884502 521.293882 335.899315 523.371086 341.127559 523.371086 
z
" clip-path="url(#p4284650622)" style="fill: #c70039; fill-opacity: 0.99; stroke: #c70039; stroke-opacity: 0.99"/>
    <path d="M 416.654542 479.616663 
C 421.812696 479.616663 426.76028 477.567306 430.407646 473.919941 
C 434.055012 470.272575 436.104368 465.324991 436.104368 460.166836 
C 436.104368 455.008682 434.055012 450.061098 430.407646 446.413732 
C 426.76028 442.766367 421.812696 440.71701 416.654542 440.71701 
C 411.496388 440.71701 406.548804 442.766367 402.901438 446.413732 
C 399.254072 450.061098 397.204716 455.008682 397.204716 460.166836 
C 397.204716 465.324991 399.254072 470.272575 402.901438 473.919941 
C 406.548804 477.567306 411.496388 479.616663 416.654542 479.616663 
z
" clip-path="url(#p4284650622)" style="fill: #c70039; fill-opacity: 0.99; stroke: #c70039; stroke-opacity: 0.99"/>
    <path d="M 467.9159 409.163265 
C 473.051536 409.163265 477.977521 407.122855 481.608964 403.491412 
C 485.240407 399.859969 487.280816 394.933984 487.280816 389.798348 
C 487.280816 384.662712 485.240407 379.736727 481.608964 376.105284 
C 477.977521 372.473841 473.051536 370.433432 467.9159 370.433432 
C 462.780264 370.433432 457.854279 372.473841 454.222836 376.105284 
C 450.591393 379.736727 448.550983 384.662712 448.550983 389.798348 
C 448.550983 394.933984 450.591393 399.859969 454.222836 403.491412 
C 457.854279 407.122855 462.780264 409.163265 467.9159 409.163265 
z
" clip-path="url(#p4284650622)" style="fill: #c70039; fill-opacity: 0.99; stroke: #c70039; stroke-opacity: 0.99"/>
   </g>
   <g id="text_1">
    <g id="patch_2">
     <path d="M 454.685889 313.034032 
L 517.410264 313.034032 
L 517.410264 296.403719 
L 454.685889 296.403719 
z
" clip-path="url(#p4284650622)" style="fill: #ffffff; opacity: 0.7; stroke: #000000; stroke-linejoin: miter"/>
    </g>
    <g clip-path="url(#p4284650622)">
     <!-- Chuck Jones -->
     <g transform="translate(458.645889 307.202313)scale(0.09 -0.09)">
      <defs>
       <path id="DejaVuSans-43" d="M 4122 4306 
L 4122 3641 
Q 3803 3938 3442 4084 
Q 3081 4231 2675 4231 
Q 1875 4231 1450 3742 
Q 1025 3253 1025 2328 
Q 1025 1406 1450 917 
Q 1875 428 2675 428 
Q 3081 428 3442 575 
Q 3803 722 4122 1019 
L 4122 359 
Q 3791 134 3420 21 
Q 3050 -91 2638 -91 
Q 1578 -91 968 557 
Q 359 1206 359 2328 
Q 359 3453 968 4101 
Q 1578 4750 2638 4750 
Q 3056 4750 3426 4639 
Q 3797 4528 4122 4306 
z
" transform="scale(0.015625)"/>
       <path id="DejaVuSans-68" d="M 3513 2113 
L 3513 0 
L 2938 0 
L 2938 2094 
Q 2938 2591 2744 2837 
Q 2550 3084 2163 3084 
Q 1697 3084 1428 2787 
Q 1159 2491 1159 1978 
L 1159 0 
L 581 0 
L 581 4863 
L 1159 4863 
L 1159 2956 
Q 1366 3272 1645 3428 
Q 1925 3584 2291 3584 
Q 2894 3584 3203 3211 
Q 3513 2838 3513 2113 
z
" transform="scale(0.015625)"/>
       <path id="DejaVuSans-75" d="M 544 1381 
L 544 3500 
L 1119 3500 
L 1119 1403 
Q 1119 906 1312 657 
Q 1506 409 1894 409 
Q 2359 409 2629 706 
Q 2900 1003 2900 1516 
L 2900 3500 
L 3475 3500 
L 3475 0 
L 2900 0 
L 2900 538 
Q 2691 219 2414 64 
Q 2138 -91 1772 -91 
Q 1169 -91 856 284 
Q 544 659 544 1381 
z
M 1991 3584 
L 1991 3584 
z
" transform="scale(0.015625)"/>
       <path id="DejaVuSans-63" d="M 3122 3366 
L 3122 2828 
Q 2878 2963 2633 3030 
Q 2388 3097 2138 3097 
Q 1578 3097 1268 2742 
Q 959 2388 959 1747 
Q 959 1106 1268 751 
Q 1578 397 2138 397 
Q 2388 397 2633 464 
Q 2878 531 3122 666 
L 3122 134 
Q 2881 22 2623 -34 
Q 2366 -91 2075 -91 
Q 1284 -91 818 406 
Q 353 903 353 1747 
Q 353 2603 823 3093 
Q 1294 3584 2113 3584 
Q 2378 3584 2631 3529 
Q 2884 3475 3122 3366 
z
" transform="scale(0.015625)"/>
       <path id="DejaVuSans-6b" d="M 581 4863 
L 1159 4863 
L 1159 1991 
L 2875 3500 
L 3609 3500 
L 1753 1863 
L 3688 0 
L 2938 0 
L 1159 1709 
L 1159 0 
L 581 0 
L 581 4863 
z
" transform="scale(0.015625)"/>
       <path id="DejaVuSans-20" transform="scale(0.015625)"/>
       <path id="DejaVuSans-4a" d="M 628 4666 
L 1259 4666 
L 1259 325 
Q 1259 -519 939 -900 
Q 619 -1281 -91 -1281 
L -331 -1281 
L -331 -750 
L -134 -750 
Q 284 -750 456 -515 
Q 628 -281 628 325 
L 628 4666 
z
" transform="scale(0.015625)"/>
       <path id="DejaVuSans-6f" d="M 1959 3097 
Q 1497 3097 1228 2736 
Q 959 2375 959 1747 
Q 959 1119 1226 758 
Q 1494 397 1959 397 
Q 2419 397 2687 759 
Q 2956 1122 2956 1747 
Q 2956 2369 2687 2733 
Q 2419 3097 1959 3097 
z
M 1959 3584 
Q 2709 3584 3137 3096 
Q 3566 2609 3566 1747 
Q 3566 888 3137 398 
Q 2709 -91 1959 -91 
Q 1206 -91 779 398 
Q 353 888 353 1747 
Q 353 2609 779 3096 
Q 1206 3584 1959 3584 
z
" transform="scale(0.015625)"/>
       <path id="DejaVuSans-6e" d="M 3513 2113 
L 3513 0 
L 2938 0 
L 2938 2094 
Q 2938 2591 2744 2837 
Q 2550 3084 2163 3084 
Q 1697 3084 1428 2787 
Q 1159 2491 1159 1978 
L 1159 0 
L 581 0 
L 581 3500 
L 1159 3500 
L 1159 2956 
Q 1366 3272 1645 3428 
Q 1925 3584 2291 3584 
Q 2894 3584 3203 3211 
Q 3513 2838 3513 2113 
z
" transform="scale(0.015625)"/>
       <path id="DejaVuSans-65" d="M 3597 1894 
L 3597 1613 
L 953 1613 
Q 991 1019 1311 708 
Q 1631 397 2203 397 
Q 2534 397 2845 478 
Q 3156 559 3463 722 
L 3463 178 
Q 3153 47 2828 -22 
Q 2503 -91 2169 -91 
Q 1331 -91 842 396 
Q 353 884 353 1716 
Q 353 2575 817 3079 
Q 1281 3584 2069 3584 
Q 2775 3584 3186 3129 
Q 3597 2675 3597 1894 
z
M 3022 2063 
Q 3016 2534 2758 2815 
Q 2500 3097 2075 3097 
Q 1594 3097 1305 2825 
Q 1016 2553 972 2059 
L 3022 2063 
z
" transform="scale(0.015625)"/>
       <path id="DejaVuSans-73" d="M 2834 3397 
L 2834 2853 
Q 2591 2978 2328 3040 
Q 2066 3103 1784 3103 
Q 1356 3103 1142 2972 
Q 928 2841 928 2578 
Q 928 2378 1081 2264 
Q 1234 2150 1697 2047 
L 1894 2003 
Q 2506 1872 2764 1633 
Q 3022 1394 3022 966 
Q 3022 478 2636 193 
Q 2250 -91 1575 -91 
Q 1294 -91 989 -36 
Q 684 19 347 128 
L 347 722 
Q 666 556 975 473 
Q 1284 391 1588 391 
Q 1994 391 2212 530 
Q 2431 669 2431 922 
Q 2431 1156 2273 1281 
Q 2116 1406 1581 1522 
L 1381 1569 
Q 847 1681 609 1914 
Q 372 2147 372 2553 
Q 372 3047 722 3315 
Q 1072 3584 1716 3584 
Q 2034 3584 2315 3537 
Q 2597 3491 2834 3397 
z
" transform="scale(0.015625)"/>
      </defs>
      <use xlink:href="#DejaVuSans-43"/>
      <use xlink:href="#DejaVuSans-68" x="69.824219"/>
      <use xlink:href="#DejaVuSans-75" x="133.203125"/>
      <use xlink:href="#DejaVuSans-63" x="196.582031"/>
      <use xlink:href="#DejaVuSans-6b" x="251.5625"/>
      <use xlink:href="#DejaVuSans-20" x="309.472656"/>
      <use xlink:href="#DejaVuSans-4a" x="341.259766"/>
      <use xlink:href="#DejaVuSans-6f" x="370.751953"/>
      <use xlink:href="#DejaVuSans-6e" x="431.933594"/>
      <use xlink:href="#DejaVuSans-65" x="495.3125"/>
      <use xlink:href="#DejaVuSans-73" x="556.835938"/>
     </g>
    </g>
   </g>
   <g id="text_2">
    <g id="patch_3">
     <path d="M 427.206343 227.954528 
L 508.625406 227.954528 
L 508.625406 211.324215 
L 427.206343 211.324215 
z
" clip-path="url(#p4284650622)" style="fill: #ffffff; opacity: 0.7; stroke: #000000; stroke-linejoin: miter"/>
    </g>
    <g clip-path="url(#p4284650622)">
     <!-- Alfred Hitchcock -->
     <g transform="translate(431.166343 222.122809)scale(0.09 -0.09)">
      <defs>
       <path id="DejaVuSans-41" d="M 2188 4044 
L 1331 1722 
L 3047 1722 
L 2188 4044 
z
M 1831 4666 
L 2547 4666 
L 4325 0 
L 3669 0 
L 3244 1197 
L 1141 1197 
L 716 0 
L 50 0 
L 1831 4666 
z
" transform="scale(0.015625)"/>
       <path id="DejaVuSans-6c" d="M 603 4863 
L 1178 4863 
L 1178 0 
L 603 0 
L 603 4863 
z
" transform="scale(0.015625)"/>
       <path id="DejaVuSans-66" d="M 2375 4863 
L 2375 4384 
L 1825 4384 
Q 1516 4384 1395 4259 
Q 1275 4134 1275 3809 
L 1275 3500 
L 2222 3500 
L 2222 3053 
L 1275 3053 
L 1275 0 
L 697 0 
L 697 3053 
L 147 3053 
L 147 3500 
L 697 3500 
L 697 3744 
Q 697 4328 969 4595 
Q 1241 4863 1831 4863 
L 2375 4863 
z
" transform="scale(0.015625)"/>
       <path id="DejaVuSans-72" d="M 2631 2963 
Q 2534 3019 2420 3045 
Q 2306 3072 2169 3072 
Q 1681 3072 1420 2755 
Q 1159 2438 1159 1844 
L 1159 0 
L 581 0 
L 581 3500 
L 1159 3500 
L 1159 2956 
Q 1341 3275 1631 3429 
Q 1922 3584 2338 3584 
Q 2397 3584 2469 3576 
Q 2541 3569 2628 3553 
L 2631 2963 
z
" transform="scale(0.015625)"/>
       <path id="DejaVuSans-64" d="M 2906 2969 
L 2906 4863 
L 3481 4863 
L 3481 0 
L 2906 0 
L 2906 525 
Q 2725 213 2448 61 
Q 2172 -91 1784 -91 
Q 1150 -91 751 415 
Q 353 922 353 1747 
Q 353 2572 751 3078 
Q 1150 3584 1784 3584 
Q 2172 3584 2448 3432 
Q 2725 3281 2906 2969 
z
M 947 1747 
Q 947 1113 1208 752 
Q 1469 391 1925 391 
Q 2381 391 2643 752 
Q 2906 1113 2906 1747 
Q 2906 2381 2643 2742 
Q 2381 3103 1925 3103 
Q 1469 3103 1208 2742 
Q 947 2381 947 1747 
z
" transform="scale(0.015625)"/>
       <path id="DejaVuSans-48" d="M 628 4666 
L 1259 4666 
L 1259 2753 
L 3553 2753 
L 3553 4666 
L 4184 4666 
L 4184 0 
L 3553 0 
L 3553 2222 
L 1259 2222 
L 1259 0 
L 628 0 
L 628 4666 
z
" transform="scale(0.015625)"/>
       <path id="DejaVuSans-69" d="M 603 3500 
L 1178 3500 
L 1178 0 
L 603 0 
L 603 3500 
z
M 603 4863 
L 1178 4863 
L 1178 4134 
L 603 4134 
L 603 4863 
z
" transform="scale(0.015625)"/>
       <path id="DejaVuSans-74" d="M 1172 4494 
L 1172 3500 
L 2356 3500 
L 2356 3053 
L 1172 3053 
L 1172 1153 
Q 1172 725 1289 603 
Q 1406 481 1766 481 
L 2356 481 
L 2356 0 
L 1766 0 
Q 1100 0 847 248 
Q 594 497 594 1153 
L 594 3053 
L 172 3053 
L 172 3500 
L 594 3500 
L 594 4494 
L 1172 4494 
z
" transform="scale(0.015625)"/>
      </defs>
      <use xlink:href="#DejaVuSans-41"/>
      <use xlink:href="#DejaVuSans-6c" x="68.408203"/>
      <use xlink:href="#DejaVuSans-66" x="96.191406"/>
      <use xlink:href="#DejaVuSans-72" x="131.396484"/>
      <use xlink:href="#DejaVuSans-65" x="170.259766"/>
      <use xlink:href="#DejaVuSans-64" x="231.783203"/>
      <use xlink:href="#DejaVuSans-20" x="295.259766"/>
      <use xlink:href="#DejaVuSans-48" x="327.046875"/>
      <use xlink:href="#DejaVuSans-69" x="402.242188"/>
      <use xlink:href="#DejaVuSans-74" x="430.025391"/>
      <use xlink:href="#DejaVuSans-63" x="469.234375"/>
      <use xlink:href="#DejaVuSans-68" x="524.214844"/>
      <use xlink:href="#DejaVuSans-63" x="587.59375"/>
      <use xlink:href="#DejaVuSans-6f" x="642.574219"/>
      <use xlink:href="#DejaVuSans-63" x="703.755859"/>
      <use xlink:href="#DejaVuSans-6b" x="758.736328"/>
     </g>
    </g>
   </g>
   <g id="text_3">
    <g id="patch_4">
     <path d="M 380.171458 157.586033 
L 453.137552 157.586033 
L 453.137552 140.955721 
L 380.171458 140.955721 
z
" clip-path="url(#p4284650622)" style="fill: #ffffff; opacity: 0.7; stroke: #000000; stroke-linejoin: miter"/>
    </g>
    <g clip-path="url(#p4284650622)">
     <!-- William Hanna -->
     <g transform="translate(384.131458 151.754315)scale(0.09 -0.09)">
      <defs>
       <path id="DejaVuSans-57" d="M 213 4666 
L 850 4666 
L 1831 722 
L 2809 4666 
L 3519 4666 
L 4500 722 
L 5478 4666 
L 6119 4666 
L 4947 0 
L 4153 0 
L 3169 4050 
L 2175 0 
L 1381 0 
L 213 4666 
z
" transform="scale(0.015625)"/>
       <path id="DejaVuSans-61" d="M 2194 1759 
Q 1497 1759 1228 1600 
Q 959 1441 959 1056 
Q 959 750 1161 570 
Q 1363 391 1709 391 
Q 2188 391 2477 730 
Q 2766 1069 2766 1631 
L 2766 1759 
L 2194 1759 
z
M 3341 1997 
L 3341 0 
L 2766 0 
L 2766 531 
Q 2569 213 2275 61 
Q 1981 -91 1556 -91 
Q 1019 -91 701 211 
Q 384 513 384 1019 
Q 384 1609 779 1909 
Q 1175 2209 1959 2209 
L 2766 2209 
L 2766 2266 
Q 2766 2663 2505 2880 
Q 2244 3097 1772 3097 
Q 1472 3097 1187 3025 
Q 903 2953 641 2809 
L 641 3341 
Q 956 3463 1253 3523 
Q 1550 3584 1831 3584 
Q 2591 3584 2966 3190 
Q 3341 2797 3341 1997 
z
" transform="scale(0.015625)"/>
       <path id="DejaVuSans-6d" d="M 3328 2828 
Q 3544 3216 3844 3400 
Q 4144 3584 4550 3584 
Q 5097 3584 5394 3201 
Q 5691 2819 5691 2113 
L 5691 0 
L 5113 0 
L 5113 2094 
Q 5113 2597 4934 2840 
Q 4756 3084 4391 3084 
Q 3944 3084 3684 2787 
Q 3425 2491 3425 1978 
L 3425 0 
L 2847 0 
L 2847 2094 
Q 2847 2600 2669 2842 
Q 2491 3084 2119 3084 
Q 1678 3084 1418 2786 
Q 1159 2488 1159 1978 
L 1159 0 
L 581 0 
L 581 3500 
L 1159 3500 
L 1159 2956 
Q 1356 3278 1631 3431 
Q 1906 3584 2284 3584 
Q 2666 3584 2933 3390 
Q 3200 3197 3328 2828 
z
" transform="scale(0.015625)"/>
      </defs>
      <use xlink:href="#DejaVuSans-57"/>
      <use xlink:href="#DejaVuSans-69" x="96.626953"/>
      <use xlink:href="#DejaVuSans-6c" x="124.410156"/>
      <use xlink:href="#DejaVuSans-6c" x="152.193359"/>
      <use xlink:href="#DejaVuSans-69" x="179.976562"/>
      <use xlink:href="#DejaVuSans-61" x="207.759766"/>
      <use xlink:href="#DejaVuSans-6d" x="269.039062"/>
      <use xlink:href="#DejaVuSans-20" x="366.451172"/>
      <use xlink:href="#DejaVuSans-48" x="398.238281"/>
      <use xlink:href="#DejaVuSans-61" x="473.433594"/>
      <use xlink:href="#DejaVuSans-6e" x="534.712891"/>
      <use xlink:href="#DejaVuSans-6e" x="598.091797"/>
      <use xlink:href="#DejaVuSans-61" x="661.470703"/>
     </g>
    </g>
   </g>
   <g id="text_4">
    <g id="patch_5">
     <path d="M 302.906355 114.095922 
L 379.348699 114.095922 
L 379.348699 97.46561 
L 302.906355 97.46561 
z
" clip-path="url(#p4284650622)" style="fill: #ffffff; opacity: 0.7; stroke: #000000; stroke-linejoin: miter"/>
    </g>
    <g clip-path="url(#p4284650622)">
     <!-- Joseph Barbera -->
     <g transform="translate(306.866355 108.264203)scale(0.09 -0.09)">
      <defs>
       <path id="DejaVuSans-70" d="M 1159 525 
L 1159 -1331 
L 581 -1331 
L 581 3500 
L 1159 3500 
L 1159 2969 
Q 1341 3281 1617 3432 
Q 1894 3584 2278 3584 
Q 2916 3584 3314 3078 
Q 3713 2572 3713 1747 
Q 3713 922 3314 415 
Q 2916 -91 2278 -91 
Q 1894 -91 1617 61 
Q 1341 213 1159 525 
z
M 3116 1747 
Q 3116 2381 2855 2742 
Q 2594 3103 2138 3103 
Q 1681 3103 1420 2742 
Q 1159 2381 1159 1747 
Q 1159 1113 1420 752 
Q 1681 391 2138 391 
Q 2594 391 2855 752 
Q 3116 1113 3116 1747 
z
" transform="scale(0.015625)"/>
       <path id="DejaVuSans-42" d="M 1259 2228 
L 1259 519 
L 2272 519 
Q 2781 519 3026 730 
Q 3272 941 3272 1375 
Q 3272 1813 3026 2020 
Q 2781 2228 2272 2228 
L 1259 2228 
z
M 1259 4147 
L 1259 2741 
L 2194 2741 
Q 2656 2741 2882 2914 
Q 3109 3088 3109 3444 
Q 3109 3797 2882 3972 
Q 2656 4147 2194 4147 
L 1259 4147 
z
M 628 4666 
L 2241 4666 
Q 2963 4666 3353 4366 
Q 3744 4066 3744 3513 
Q 3744 3084 3544 2831 
Q 3344 2578 2956 2516 
Q 3422 2416 3680 2098 
Q 3938 1781 3938 1306 
Q 3938 681 3513 340 
Q 3088 0 2303 0 
L 628 0 
L 628 4666 
z
" transform="scale(0.015625)"/>
       <path id="DejaVuSans-62" d="M 3116 1747 
Q 3116 2381 2855 2742 
Q 2594 3103 2138 3103 
Q 1681 3103 1420 2742 
Q 1159 2381 1159 1747 
Q 1159 1113 1420 752 
Q 1681 391 2138 391 
Q 2594 391 2855 752 
Q 3116 1113 3116 1747 
z
M 1159 2969 
Q 1341 3281 1617 3432 
Q 1894 3584 2278 3584 
Q 2916 3584 3314 3078 
Q 3713 2572 3713 1747 
Q 3713 922 3314 415 
Q 2916 -91 2278 -91 
Q 1894 -91 1617 61 
Q 1341 213 1159 525 
L 1159 0 
L 581 0 
L 581 4863 
L 1159 4863 
L 1159 2969 
z
" transform="scale(0.015625)"/>
      </defs>
      <use xlink:href="#DejaVuSans-4a"/>
      <use xlink:href="#DejaVuSans-6f" x="29.492188"/>
      <use xlink:href="#DejaVuSans-73" x="90.673828"/>
      <use xlink:href="#DejaVuSans-65" x="142.773438"/>
      <use xlink:href="#DejaVuSans-70" x="204.296875"/>
      <use xlink:href="#DejaVuSans-68" x="267.773438"/>
      <use xlink:href="#DejaVuSans-20" x="331.152344"/>
      <use xlink:href="#DejaVuSans-42" x="362.939453"/>
      <use xlink:href="#DejaVuSans-61" x="431.542969"/>
      <use xlink:href="#DejaVuSans-72" x="492.822266"/>
      <use xlink:href="#DejaVuSans-62" x="533.935547"/>
      <use xlink:href="#DejaVuSans-65" x="597.412109"/>
      <use xlink:href="#DejaVuSans-72" x="658.935547"/>
      <use xlink:href="#DejaVuSans-61" x="700.048828"/>
     </g>
    </g>
   </g>
   <g id="text_5">
    <g id="patch_6">
     <path d="M 224.772977 105.004013 
L 284.015477 105.004013 
L 284.015477 88.3737 
L 224.772977 88.3737 
z
" clip-path="url(#p4284650622)" style="fill: #ffffff; opacity: 0.7; stroke: #000000; stroke-linejoin: miter"/>
    </g>
    <g clip-path="url(#p4284650622)">
     <!-- Friz Freleng -->
     <g transform="translate(228.732977 99.172294)scale(0.09 -0.09)">
      <defs>
       <path id="DejaVuSans-46" d="M 628 4666 
L 3309 4666 
L 3309 4134 
L 1259 4134 
L 1259 2759 
L 3109 2759 
L 3109 2228 
L 1259 2228 
L 1259 0 
L 628 0 
L 628 4666 
z
" transform="scale(0.015625)"/>
       <path id="DejaVuSans-7a" d="M 353 3500 
L 3084 3500 
L 3084 2975 
L 922 459 
L 3084 459 
L 3084 0 
L 275 0 
L 275 525 
L 2438 3041 
L 353 3041 
L 353 3500 
z
" transform="scale(0.015625)"/>
       <path id="DejaVuSans-67" d="M 2906 1791 
Q 2906 2416 2648 2759 
Q 2391 3103 1925 3103 
Q 1463 3103 1205 2759 
Q 947 2416 947 1791 
Q 947 1169 1205 825 
Q 1463 481 1925 481 
Q 2391 481 2648 825 
Q 2906 1169 2906 1791 
z
M 3481 434 
Q 3481 -459 3084 -895 
Q 2688 -1331 1869 -1331 
Q 1566 -1331 1297 -1286 
Q 1028 -1241 775 -1147 
L 775 -588 
Q 1028 -725 1275 -790 
Q 1522 -856 1778 -856 
Q 2344 -856 2625 -561 
Q 2906 -266 2906 331 
L 2906 616 
Q 2728 306 2450 153 
Q 2172 0 1784 0 
Q 1141 0 747 490 
Q 353 981 353 1791 
Q 353 2603 747 3093 
Q 1141 3584 1784 3584 
Q 2172 3584 2450 3431 
Q 2728 3278 2906 2969 
L 2906 3500 
L 3481 3500 
L 3481 434 
z
" transform="scale(0.015625)"/>
      </defs>
      <use xlink:href="#DejaVuSans-46"/>
      <use xlink:href="#DejaVuSans-72" x="50.269531"/>
      <use xlink:href="#DejaVuSans-69" x="91.382812"/>
      <use xlink:href="#DejaVuSans-7a" x="119.166016"/>
      <use xlink:href="#DejaVuSans-20" x="171.65625"/>
      <use xlink:href="#DejaVuSans-46" x="203.443359"/>
      <use xlink:href="#DejaVuSans-72" x="253.712891"/>
      <use xlink:href="#DejaVuSans-65" x="292.576172"/>
      <use xlink:href="#DejaVuSans-6c" x="354.099609"/>
      <use xlink:href="#DejaVuSans-65" x="381.882812"/>
      <use xlink:href="#DejaVuSans-6e" x="443.40625"/>
      <use xlink:href="#DejaVuSans-67" x="506.785156"/>
     </g>
    </g>
   </g>
   <g id="text_6">
    <g id="patch_7">
     <path d="M 139.649949 131.88239 
L 203.25323 131.88239 
L 203.25323 115.252078 
L 139.649949 115.252078 
z
" clip-path="url(#p4284650622)" style="fill: #ffffff; opacity: 0.7; stroke: #000000; stroke-linejoin: miter"/>
    </g>
    <g clip-path="url(#p4284650622)">
     <!-- Woody Allen -->
     <g transform="translate(143.609949 126.050671)scale(0.09 -0.09)">
      <defs>
       <path id="DejaVuSans-79" d="M 2059 -325 
Q 1816 -950 1584 -1140 
Q 1353 -1331 966 -1331 
L 506 -1331 
L 506 -850 
L 844 -850 
Q 1081 -850 1212 -737 
Q 1344 -625 1503 -206 
L 1606 56 
L 191 3500 
L 800 3500 
L 1894 763 
L 2988 3500 
L 3597 3500 
L 2059 -325 
z
" transform="scale(0.015625)"/>
      </defs>
      <use xlink:href="#DejaVuSans-57"/>
      <use xlink:href="#DejaVuSans-6f" x="93.001953"/>
      <use xlink:href="#DejaVuSans-6f" x="154.183594"/>
      <use xlink:href="#DejaVuSans-64" x="215.365234"/>
      <use xlink:href="#DejaVuSans-79" x="278.841797"/>
      <use xlink:href="#DejaVuSans-20" x="338.021484"/>
      <use xlink:href="#DejaVuSans-41" x="369.808594"/>
      <use xlink:href="#DejaVuSans-6c" x="438.216797"/>
      <use xlink:href="#DejaVuSans-6c" x="466"/>
      <use xlink:href="#DejaVuSans-65" x="493.783203"/>
      <use xlink:href="#DejaVuSans-6e" x="555.306641"/>
     </g>
    </g>
   </g>
   <g id="text_7">
    <g id="patch_8">
     <path d="M 77.425616 190.083523 
L 135.85671 190.083523 
L 135.85671 173.453211 
L 77.425616 173.453211 
z
" clip-path="url(#p4284650622)" style="fill: #ffffff; opacity: 0.7; stroke: #000000; stroke-linejoin: miter"/>
    </g>
    <g clip-path="url(#p4284650622)">
     <!-- Billy Wilder -->
     <g transform="translate(81.385616 184.251804)scale(0.09 -0.09)">
      <use xlink:href="#DejaVuSans-42"/>
      <use xlink:href="#DejaVuSans-69" x="68.603516"/>
      <use xlink:href="#DejaVuSans-6c" x="96.386719"/>
      <use xlink:href="#DejaVuSans-6c" x="124.169922"/>
      <use xlink:href="#DejaVuSans-79" x="151.953125"/>
      <use xlink:href="#DejaVuSans-20" x="211.132812"/>
      <use xlink:href="#DejaVuSans-57" x="242.919922"/>
      <use xlink:href="#DejaVuSans-69" x="339.546875"/>
      <use xlink:href="#DejaVuSans-6c" x="367.330078"/>
      <use xlink:href="#DejaVuSans-64" x="395.113281"/>
      <use xlink:href="#DejaVuSans-65" x="458.589844"/>
      <use xlink:href="#DejaVuSans-72" x="520.113281"/>
     </g>
    </g>
   </g>
   <g id="text_8">
    <g id="patch_9">
     <path d="M 46.187903 269.543933 
L 96.150559 269.543933 
L 96.150559 252.913621 
L 46.187903 252.913621 
z
" clip-path="url(#p4284650622)" style="fill: #ffffff; opacity: 0.7; stroke: #000000; stroke-linejoin: miter"/>
    </g>
    <g clip-path="url(#p4284650622)">
     <!-- John Ford -->
     <g transform="translate(50.147903 263.712214)scale(0.09 -0.09)">
      <use xlink:href="#DejaVuSans-4a"/>
      <use xlink:href="#DejaVuSans-6f" x="29.492188"/>
      <use xlink:href="#DejaVuSans-68" x="90.673828"/>
      <use xlink:href="#DejaVuSans-6e" x="154.052734"/>
      <use xlink:href="#DejaVuSans-20" x="217.431641"/>
      <use xlink:href="#DejaVuSans-46" x="249.21875"/>
      <use xlink:href="#DejaVuSans-6f" x="303.113281"/>
      <use xlink:href="#DejaVuSans-72" x="364.294922"/>
      <use xlink:href="#DejaVuSans-64" x="403.658203"/>
     </g>
    </g>
   </g>
   <g id="text_9">
    <g id="patch_10">
     <path d="M 35.323228 356.524168 
L 107.015259 356.524168 
L 107.015259 339.893855 
L 35.323228 339.893855 
z
" clip-path="url(#p4284650622)" style="fill: #ffffff; opacity: 0.7; stroke: #000000; stroke-linejoin: miter"/>
    </g>
    <g clip-path="url(#p4284650622)">
     <!-- Michael Curtiz -->
     <g transform="translate(39.283228 350.692449)scale(0.09 -0.09)">
      <defs>
       <path id="DejaVuSans-4d" d="M 628 4666 
L 1569 4666 
L 2759 1491 
L 3956 4666 
L 4897 4666 
L 4897 0 
L 4281 0 
L 4281 4097 
L 3078 897 
L 2444 897 
L 1241 4097 
L 1241 0 
L 628 0 
L 628 4666 
z
" transform="scale(0.015625)"/>
      </defs>
      <use xlink:href="#DejaVuSans-4d"/>
      <use xlink:href="#DejaVuSans-69" x="86.279297"/>
      <use xlink:href="#DejaVuSans-63" x="114.0625"/>
      <use xlink:href="#DejaVuSans-68" x="169.042969"/>
      <use xlink:href="#DejaVuSans-61" x="232.421875"/>
      <use xlink:href="#DejaVuSans-65" x="293.701172"/>
      <use xlink:href="#DejaVuSans-6c" x="355.224609"/>
      <use xlink:href="#DejaVuSans-20" x="383.007812"/>
      <use xlink:href="#DejaVuSans-43" x="414.794922"/>
      <use xlink:href="#DejaVuSans-75" x="484.619141"/>
      <use xlink:href="#DejaVuSans-72" x="547.998047"/>
      <use xlink:href="#DejaVuSans-74" x="589.111328"/>
      <use xlink:href="#DejaVuSans-69" x="628.320312"/>
      <use xlink:href="#DejaVuSans-7a" x="656.103516"/>
     </g>
    </g>
   </g>
   <g id="text_10">
    <g id="patch_11">
     <path d="M 71.804847 435.984553 
L 141.477503 435.984553 
L 141.477503 419.35424 
L 71.804847 419.35424 
z
" clip-path="url(#p4284650622)" style="fill: #ffffff; opacity: 0.7; stroke: #000000; stroke-linejoin: miter"/>
    </g>
    <g clip-path="url(#p4284650622)">
     <!-- George Cukor -->
     <g transform="translate(75.764847 430.152834)scale(0.09 -0.09)">
      <defs>
       <path id="DejaVuSans-47" d="M 3809 666 
L 3809 1919 
L 2778 1919 
L 2778 2438 
L 4434 2438 
L 4434 434 
Q 4069 175 3628 42 
Q 3188 -91 2688 -91 
Q 1594 -91 976 548 
Q 359 1188 359 2328 
Q 359 3472 976 4111 
Q 1594 4750 2688 4750 
Q 3144 4750 3555 4637 
Q 3966 4525 4313 4306 
L 4313 3634 
Q 3963 3931 3569 4081 
Q 3175 4231 2741 4231 
Q 1884 4231 1454 3753 
Q 1025 3275 1025 2328 
Q 1025 1384 1454 906 
Q 1884 428 2741 428 
Q 3075 428 3337 486 
Q 3600 544 3809 666 
z
" transform="scale(0.015625)"/>
      </defs>
      <use xlink:href="#DejaVuSans-47"/>
      <use xlink:href="#DejaVuSans-65" x="77.490234"/>
      <use xlink:href="#DejaVuSans-6f" x="139.013672"/>
      <use xlink:href="#DejaVuSans-72" x="200.195312"/>
      <use xlink:href="#DejaVuSans-67" x="239.558594"/>
      <use xlink:href="#DejaVuSans-65" x="303.035156"/>
      <use xlink:href="#DejaVuSans-20" x="364.558594"/>
      <use xlink:href="#DejaVuSans-43" x="396.345703"/>
      <use xlink:href="#DejaVuSans-75" x="466.169922"/>
      <use xlink:href="#DejaVuSans-6b" x="529.548828"/>
      <use xlink:href="#DejaVuSans-6f" x="583.833984"/>
      <use xlink:href="#DejaVuSans-72" x="645.015625"/>
     </g>
    </g>
   </g>
   <g id="text_11">
    <g id="patch_12">
     <path d="M 131.544355 494.185686 
L 211.358887 494.185686 
L 211.358887 477.555373 
L 131.544355 477.555373 
z
" clip-path="url(#p4284650622)" style="fill: #ffffff; opacity: 0.7; stroke: #000000; stroke-linejoin: miter"/>
    </g>
    <g clip-path="url(#p4284650622)">
     <!-- Martin Scorsese -->
     <g transform="translate(135.504355 488.353967)scale(0.09 -0.09)">
      <defs>
       <path id="DejaVuSans-53" d="M 3425 4513 
L 3425 3897 
Q 3066 4069 2747 4153 
Q 2428 4238 2131 4238 
Q 1616 4238 1336 4038 
Q 1056 3838 1056 3469 
Q 1056 3159 1242 3001 
Q 1428 2844 1947 2747 
L 2328 2669 
Q 3034 2534 3370 2195 
Q 3706 1856 3706 1288 
Q 3706 609 3251 259 
Q 2797 -91 1919 -91 
Q 1588 -91 1214 -16 
Q 841 59 441 206 
L 441 856 
Q 825 641 1194 531 
Q 1563 422 1919 422 
Q 2459 422 2753 634 
Q 3047 847 3047 1241 
Q 3047 1584 2836 1778 
Q 2625 1972 2144 2069 
L 1759 2144 
Q 1053 2284 737 2584 
Q 422 2884 422 3419 
Q 422 4038 858 4394 
Q 1294 4750 2059 4750 
Q 2388 4750 2728 4690 
Q 3069 4631 3425 4513 
z
" transform="scale(0.015625)"/>
      </defs>
      <use xlink:href="#DejaVuSans-4d"/>
      <use xlink:href="#DejaVuSans-61" x="86.279297"/>
      <use xlink:href="#DejaVuSans-72" x="147.558594"/>
      <use xlink:href="#DejaVuSans-74" x="188.671875"/>
      <use xlink:href="#DejaVuSans-69" x="227.880859"/>
      <use xlink:href="#DejaVuSans-6e" x="255.664062"/>
      <use xlink:href="#DejaVuSans-20" x="319.042969"/>
      <use xlink:href="#DejaVuSans-53" x="350.830078"/>
      <use xlink:href="#DejaVuSans-63" x="414.306641"/>
      <use xlink:href="#DejaVuSans-6f" x="469.287109"/>
      <use xlink:href="#DejaVuSans-72" x="530.46875"/>
      <use xlink:href="#DejaVuSans-73" x="571.582031"/>
      <use xlink:href="#DejaVuSans-65" x="623.681641"/>
      <use xlink:href="#DejaVuSans-73" x="685.205078"/>
      <use xlink:href="#DejaVuSans-65" x="737.304688"/>
     </g>
    </g>
   </g>
   <g id="text_12">
    <g id="patch_13">
     <path d="M 207.207546 521.06405 
L 301.580983 521.06405 
L 301.580983 504.433738 
L 207.207546 504.433738 
z
" clip-path="url(#p4284650622)" style="fill: #ffffff; opacity: 0.7; stroke: #000000; stroke-linejoin: miter"/>
    </g>
    <g clip-path="url(#p4284650622)">
     <!-- William A. Wellman -->
     <g transform="translate(211.167546 515.232332)scale(0.09 -0.09)">
      <defs>
       <path id="DejaVuSans-2e" d="M 684 794 
L 1344 794 
L 1344 0 
L 684 0 
L 684 794 
z
" transform="scale(0.015625)"/>
      </defs>
      <use xlink:href="#DejaVuSans-57"/>
      <use xlink:href="#DejaVuSans-69" x="96.626953"/>
      <use xlink:href="#DejaVuSans-6c" x="124.410156"/>
      <use xlink:href="#DejaVuSans-6c" x="152.193359"/>
      <use xlink:href="#DejaVuSans-69" x="179.976562"/>
      <use xlink:href="#DejaVuSans-61" x="207.759766"/>
      <use xlink:href="#DejaVuSans-6d" x="269.039062"/>
      <use xlink:href="#DejaVuSans-20" x="366.451172"/>
      <use xlink:href="#DejaVuSans-41" x="398.238281"/>
      <use xlink:href="#DejaVuSans-2e" x="464.896484"/>
      <use xlink:href="#DejaVuSans-20" x="496.683594"/>
      <use xlink:href="#DejaVuSans-57" x="528.470703"/>
      <use xlink:href="#DejaVuSans-65" x="621.472656"/>
      <use xlink:href="#DejaVuSans-6c" x="682.996094"/>
      <use xlink:href="#DejaVuSans-6c" x="710.779297"/>
      <use xlink:href="#DejaVuSans-6d" x="738.5625"/>
      <use xlink:href="#DejaVuSans-61" x="835.974609"/>
      <use xlink:href="#DejaVuSans-6e" x="897.253906"/>
     </g>
    </g>
   </g>
   <g id="text_13">
    <g id="patch_14">
     <path d="M 309.586074 511.972129 
L 372.669043 511.972129 
L 372.669043 495.341816 
L 309.586074 495.341816 
z
" clip-path="url(#p4284650622)" style="fill: #ffffff; opacity: 0.7; stroke: #000000; stroke-linejoin: miter"/>
    </g>
    <g clip-path="url(#p4284650622)">
     <!-- Brett Ratner -->
     <g transform="translate(313.546074 506.14041)scale(0.09 -0.09)">
      <defs>
       <path id="DejaVuSans-52" d="M 2841 2188 
Q 3044 2119 3236 1894 
Q 3428 1669 3622 1275 
L 4263 0 
L 3584 0 
L 2988 1197 
Q 2756 1666 2539 1819 
Q 2322 1972 1947 1972 
L 1259 1972 
L 1259 0 
L 628 0 
L 628 4666 
L 2053 4666 
Q 2853 4666 3247 4331 
Q 3641 3997 3641 3322 
Q 3641 2881 3436 2590 
Q 3231 2300 2841 2188 
z
M 1259 4147 
L 1259 2491 
L 2053 2491 
Q 2509 2491 2742 2702 
Q 2975 2913 2975 3322 
Q 2975 3731 2742 3939 
Q 2509 4147 2053 4147 
L 1259 4147 
z
" transform="scale(0.015625)"/>
      </defs>
      <use xlink:href="#DejaVuSans-42"/>
      <use xlink:href="#DejaVuSans-72" x="68.603516"/>
      <use xlink:href="#DejaVuSans-65" x="107.466797"/>
      <use xlink:href="#DejaVuSans-74" x="168.990234"/>
      <use xlink:href="#DejaVuSans-74" x="208.199219"/>
      <use xlink:href="#DejaVuSans-20" x="247.408203"/>
      <use xlink:href="#DejaVuSans-52" x="279.195312"/>
      <use xlink:href="#DejaVuSans-61" x="346.427734"/>
      <use xlink:href="#DejaVuSans-74" x="407.707031"/>
      <use xlink:href="#DejaVuSans-6e" x="446.916016"/>
      <use xlink:href="#DejaVuSans-65" x="510.294922"/>
      <use xlink:href="#DejaVuSans-72" x="571.818359"/>
     </g>
    </g>
   </g>
   <g id="text_14">
    <g id="patch_15">
     <path d="M 377.338605 468.481993 
L 455.97048 468.481993 
L 455.97048 451.85168 
L 377.338605 451.85168 
z
" clip-path="url(#p4284650622)" style="fill: #ffffff; opacity: 0.7; stroke: #000000; stroke-linejoin: miter"/>
    </g>
    <g clip-path="url(#p4284650622)">
     <!-- Charles Chaplin -->
     <g transform="translate(381.298605 462.650274)scale(0.09 -0.09)">
      <use xlink:href="#DejaVuSans-43"/>
      <use xlink:href="#DejaVuSans-68" x="69.824219"/>
      <use xlink:href="#DejaVuSans-61" x="133.203125"/>
      <use xlink:href="#DejaVuSans-72" x="194.482422"/>
      <use xlink:href="#DejaVuSans-6c" x="235.595703"/>
      <use xlink:href="#DejaVuSans-65" x="263.378906"/>
      <use xlink:href="#DejaVuSans-73" x="324.902344"/>
      <use xlink:href="#DejaVuSans-20" x="377.001953"/>
      <use xlink:href="#DejaVuSans-43" x="408.789062"/>
      <use xlink:href="#DejaVuSans-68" x="478.613281"/>
      <use xlink:href="#DejaVuSans-61" x="541.992188"/>
      <use xlink:href="#DejaVuSans-70" x="603.271484"/>
      <use xlink:href="#DejaVuSans-6c" x="666.748047"/>
      <use xlink:href="#DejaVuSans-69" x="694.53125"/>
      <use xlink:href="#DejaVuSans-6e" x="722.314453"/>
     </g>
    </g>
   </g>
   <g id="text_15">
    <g id="patch_16">
     <path d="M 436.792775 398.113505 
L 499.039025 398.113505 
L 499.039025 381.483192 
L 436.792775 381.483192 
z
" clip-path="url(#p4284650622)" style="fill: #ffffff; opacity: 0.7; stroke: #000000; stroke-linejoin: miter"/>
    </g>
    <g clip-path="url(#p4284650622)">
     <!-- Ron Howard -->
     <g transform="translate(440.752775 392.281786)scale(0.09 -0.09)">
      <defs>
       <path id="DejaVuSans-77" d="M 269 3500 
L 844 3500 
L 1563 769 
L 2278 3500 
L 2956 3500 
L 3675 769 
L 4391 3500 
L 4966 3500 
L 4050 0 
L 3372 0 
L 2619 2869 
L 1863 0 
L 1184 0 
L 269 3500 
z
" transform="scale(0.015625)"/>
      </defs>
      <use xlink:href="#DejaVuSans-52"/>
      <use xlink:href="#DejaVuSans-6f" x="64.982422"/>
      <use xlink:href="#DejaVuSans-6e" x="126.164062"/>
      <use xlink:href="#DejaVuSans-20" x="189.542969"/>
      <use xlink:href="#DejaVuSans-48" x="221.330078"/>
      <use xlink:href="#DejaVuSans-6f" x="296.525391"/>
      <use xlink:href="#DejaVuSans-77" x="357.707031"/>
      <use xlink:href="#DejaVuSans-61" x="439.494141"/>
      <use xlink:href="#DejaVuSans-72" x="500.773438"/>
      <use xlink:href="#DejaVuSans-64" x="540.136719"/>
     </g>
    </g>
   </g>
   <g id="text_16">
    <!-- Impactful directors for Comedy genre - Importance rank: 7 -->
    <g transform="translate(108.255937 16.318125)scale(0.12 -0.12)">
     <defs>
      <path id="DejaVuSans-49" d="M 628 4666 
L 1259 4666 
L 1259 0 
L 628 0 
L 628 4666 
z
" transform="scale(0.015625)"/>
      <path id="DejaVuSans-2d" d="M 313 2009 
L 1997 2009 
L 1997 1497 
L 313 1497 
L 313 2009 
z
" transform="scale(0.015625)"/>
      <path id="DejaVuSans-3a" d="M 750 794 
L 1409 794 
L 1409 0 
L 750 0 
L 750 794 
z
M 750 3309 
L 1409 3309 
L 1409 2516 
L 750 2516 
L 750 3309 
z
" transform="scale(0.015625)"/>
      <path id="DejaVuSans-37" d="M 525 4666 
L 3525 4666 
L 3525 4397 
L 1831 0 
L 1172 0 
L 2766 4134 
L 525 4134 
L 525 4666 
z
" transform="scale(0.015625)"/>
     </defs>
     <use xlink:href="#DejaVuSans-49"/>
     <use xlink:href="#DejaVuSans-6d" x="29.492188"/>
     <use xlink:href="#DejaVuSans-70" x="126.904297"/>
     <use xlink:href="#DejaVuSans-61" x="190.380859"/>
     <use xlink:href="#DejaVuSans-63" x="251.660156"/>
     <use xlink:href="#DejaVuSans-74" x="306.640625"/>
     <use xlink:href="#DejaVuSans-66" x="345.849609"/>
     <use xlink:href="#DejaVuSans-75" x="381.054688"/>
     <use xlink:href="#DejaVuSans-6c" x="444.433594"/>
     <use xlink:href="#DejaVuSans-20" x="472.216797"/>
     <use xlink:href="#DejaVuSans-64" x="504.003906"/>
     <use xlink:href="#DejaVuSans-69" x="567.480469"/>
     <use xlink:href="#DejaVuSans-72" x="595.263672"/>
     <use xlink:href="#DejaVuSans-65" x="634.126953"/>
     <use xlink:href="#DejaVuSans-63" x="695.650391"/>
     <use xlink:href="#DejaVuSans-74" x="750.630859"/>
     <use xlink:href="#DejaVuSans-6f" x="789.839844"/>
     <use xlink:href="#DejaVuSans-72" x="851.021484"/>
     <use xlink:href="#DejaVuSans-73" x="892.134766"/>
     <use xlink:href="#DejaVuSans-20" x="944.234375"/>
     <use xlink:href="#DejaVuSans-66" x="976.021484"/>
     <use xlink:href="#DejaVuSans-6f" x="1011.226562"/>
     <use xlink:href="#DejaVuSans-72" x="1072.408203"/>
     <use xlink:href="#DejaVuSans-20" x="1113.521484"/>
     <use xlink:href="#DejaVuSans-43" x="1145.308594"/>
     <use xlink:href="#DejaVuSans-6f" x="1215.132812"/>
     <use xlink:href="#DejaVuSans-6d" x="1276.314453"/>
     <use xlink:href="#DejaVuSans-65" x="1373.726562"/>
     <use xlink:href="#DejaVuSans-64" x="1435.25"/>
     <use xlink:href="#DejaVuSans-79" x="1498.726562"/>
     <use xlink:href="#DejaVuSans-20" x="1557.90625"/>
     <use xlink:href="#DejaVuSans-67" x="1589.693359"/>
     <use xlink:href="#DejaVuSans-65" x="1653.169922"/>
     <use xlink:href="#DejaVuSans-6e" x="1714.693359"/>
     <use xlink:href="#DejaVuSans-72" x="1778.072266"/>
     <use xlink:href="#DejaVuSans-65" x="1816.935547"/>
     <use xlink:href="#DejaVuSans-20" x="1878.458984"/>
     <use xlink:href="#DejaVuSans-2d" x="1910.246094"/>
     <use xlink:href="#DejaVuSans-20" x="1946.330078"/>
     <use xlink:href="#DejaVuSans-49" x="1978.117188"/>
     <use xlink:href="#DejaVuSans-6d" x="2007.609375"/>
     <use xlink:href="#DejaVuSans-70" x="2105.021484"/>
     <use xlink:href="#DejaVuSans-6f" x="2168.498047"/>
     <use xlink:href="#DejaVuSans-72" x="2229.679688"/>
     <use xlink:href="#DejaVuSans-74" x="2270.792969"/>
     <use xlink:href="#DejaVuSans-61" x="2310.001953"/>
     <use xlink:href="#DejaVuSans-6e" x="2371.28125"/>
     <use xlink:href="#DejaVuSans-63" x="2434.660156"/>
     <use xlink:href="#DejaVuSans-65" x="2489.640625"/>
     <use xlink:href="#DejaVuSans-20" x="2551.164062"/>
     <use xlink:href="#DejaVuSans-72" x="2582.951172"/>
     <use xlink:href="#DejaVuSans-61" x="2624.064453"/>
     <use xlink:href="#DejaVuSans-6e" x="2685.34375"/>
     <use xlink:href="#DejaVuSans-6b" x="2748.722656"/>
     <use xlink:href="#DejaVuSans-3a" x="2806.632812"/>
     <use xlink:href="#DejaVuSans-20" x="2840.324219"/>
     <use xlink:href="#DejaVuSans-37" x="2872.111328"/>
    </g>
   </g>
  </g>
 </g>
 <defs>
  <clipPath id="p4284650622">
   <rect x="7.2" y="22.318125" width="554.4" height="554.4"/>
  </clipPath>
 </defs>
</svg>
