<?xml version="1.0" encoding="utf-8" standalone="no"?>
<!DOCTYPE svg PUBLIC "-//W3C//DTD SVG 1.1//EN"
  "http://www.w3.org/Graphics/SVG/1.1/DTD/svg11.dtd">
<svg xmlns:xlink="http://www.w3.org/1999/xlink" width="576pt" height="576pt" viewBox="0 0 576 576" xmlns="http://www.w3.org/2000/svg" version="1.1">
 <metadata>
  <rdf:RDF xmlns:dc="http://purl.org/dc/elements/1.1/" xmlns:cc="http://creativecommons.org/ns#" xmlns:rdf="http://www.w3.org/1999/02/22-rdf-syntax-ns#">
   <cc:Work>
    <dc:type rdf:resource="http://purl.org/dc/dcmitype/StillImage"/>
    <dc:date>2022-12-22T19:11:38.654432</dc:date>
    <dc:format>image/svg+xml</dc:format>
    <dc:creator>
     <cc:Agent>
      <dc:title>Matplotlib v3.5.2, https://matplotlib.org/</dc:title>
     </cc:Agent>
    </dc:creator>
   </cc:Work>
  </rdf:RDF>
 </metadata>
 <defs>
  <style type="text/css">*{stroke-linejoin: round; stroke-linecap: butt}</style>
 </defs>
 <g id="figure_1">
  <g id="patch_1">
   <path d="M 0 576 
L 576 576 
L 576 0 
L 0 0 
z
" style="fill: #ffffff"/>
  </g>
  <g id="axes_1">
   <g id="PathCollection_1">
    <path d="M 501.230769 315.386128 
C 508.493655 315.386128 515.46005 312.500553 520.595686 307.364917 
C 525.731322 302.229281 528.616897 295.262886 528.616897 288 
C 528.616897 280.737114 525.731322 273.770719 520.595686 268.635083 
C 515.46005 263.499447 508.493655 260.613872 501.230769 260.613872 
C 493.967883 260.613872 487.001488 263.499447 481.865852 268.635083 
C 476.730217 273.770719 473.844641 280.737114 473.844641 288 
C 473.844641 295.262886 476.730217 302.229281 481.865852 307.364917 
C 487.001488 312.500553 493.967883 315.386128 501.230769 315.386128 
z
" clip-path="url(#p75897fc256)" style="fill: #d62728; fill-opacity: 0.99; stroke: #d62728; stroke-opacity: 0.99"/>
    <path d="M 482.592348 225.460589 
C 489.134134 225.460589 495.408866 222.86151 500.034608 218.235768 
C 504.660349 213.610027 507.259428 207.335295 507.259428 200.793508 
C 507.259428 194.251722 504.660349 187.97699 500.034608 183.351249 
C 495.408866 178.725507 489.134134 176.126428 482.592348 176.126428 
C 476.050562 176.126428 469.775829 178.725507 465.150088 183.351249 
C 460.524347 187.97699 457.925267 194.251722 457.925267 200.793508 
C 457.925267 207.335295 460.524347 213.610027 465.150088 218.235768 
C 469.775829 222.86151 476.050562 225.460589 482.592348 225.460589 
z
" clip-path="url(#p75897fc256)" style="fill: #d62728; fill-opacity: 0.99; stroke: #d62728; stroke-opacity: 0.99"/>
    <path d="M 429.89985 153.176567 
C 436.400181 153.176567 442.63515 150.593958 447.231578 145.99753 
C 451.828006 141.401102 454.410615 135.166133 454.410615 128.665802 
C 454.410615 122.165471 451.828006 115.930501 447.231578 111.334073 
C 442.63515 106.737645 436.400181 104.155037 429.89985 104.155037 
C 423.399519 104.155037 417.16455 106.737645 412.568122 111.334073 
C 407.971694 115.930501 405.389085 122.165471 405.389085 128.665802 
C 405.389085 135.166133 407.971694 141.401102 412.568122 145.99753 
C 417.16455 150.593958 423.399519 153.176567 429.89985 153.176567 
z
" clip-path="url(#p75897fc256)" style="fill: #d62728; fill-opacity: 0.99; stroke: #d62728; stroke-opacity: 0.99"/>
    <path d="M 352.264291 108.448043 
C 358.724534 108.448043 364.921052 105.881362 369.489133 101.31328 
C 374.057215 96.745198 376.623897 90.548681 376.623897 84.088438 
C 376.623897 77.628195 374.057215 71.431677 369.489133 66.863595 
C 364.921052 62.295514 358.724534 59.728832 352.264291 59.728832 
C 345.804048 59.728832 339.60753 62.295514 335.039449 66.863595 
C 330.471367 71.431677 327.904686 77.628195 327.904686 84.088438 
C 327.904686 90.548681 330.471367 96.745198 335.039449 101.31328 
C 339.60753 105.881362 345.804048 108.448043 352.264291 108.448043 
z
" clip-path="url(#p75897fc256)" style="fill: #d62728; fill-opacity: 0.99; stroke: #d62728; stroke-opacity: 0.99"/>
    <path d="M 263.109549 99.089321 
C 269.559312 99.089321 275.745778 96.526803 280.306449 91.966131 
C 284.867121 87.40546 287.429639 81.218994 287.429639 74.769231 
C 287.429639 68.319467 284.867121 62.133001 280.306449 57.57233 
C 275.745778 53.011659 269.559312 50.449141 263.109549 50.449141 
C 256.659785 50.449141 250.473319 53.011659 245.912648 57.57233 
C 241.351977 62.133001 238.789458 68.319467 238.789458 74.769231 
C 238.789458 81.218994 241.351977 87.40546 245.912648 91.966131 
C 250.473319 96.526803 256.659785 99.089321 263.109549 99.089321 
z
" clip-path="url(#p75897fc256)" style="fill: #d62728; fill-opacity: 0.99; stroke: #d62728; stroke-opacity: 0.99"/>
    <path d="M 177.851298 126.552751 
C 184.278014 126.552751 190.442373 123.99939 194.986747 119.455016 
C 199.531121 114.910642 202.084482 108.746283 202.084482 102.319567 
C 202.084482 95.892852 199.531121 89.728493 194.986747 85.184119 
C 190.442373 80.639744 184.278014 78.086383 177.851298 78.086383 
C 171.424583 78.086383 165.260223 80.639744 160.715849 85.184119 
C 156.171475 89.728493 153.618114 95.892852 153.618114 102.319567 
C 153.618114 108.746283 156.171475 114.910642 160.715849 119.455016 
C 165.260223 123.99939 171.424583 126.552751 177.851298 126.552751 
z
" clip-path="url(#p75897fc256)" style="fill: #d62728; fill-opacity: 0.99; stroke: #d62728; stroke-opacity: 0.99"/>
    <path d="M 111.231477 185.510373 
C 117.472938 185.510373 123.459604 183.030614 127.872984 178.617235 
C 132.286363 174.203856 134.766121 168.217189 134.766121 161.975729 
C 134.766121 155.734268 132.286363 149.747601 127.872984 145.334222 
C 123.459604 140.920843 117.472938 138.441084 111.231477 138.441084 
C 104.990016 138.441084 99.00335 140.920843 94.58997 145.334222 
C 90.176591 149.747601 87.696833 155.734268 87.696833 161.975729 
C 87.696833 168.217189 90.176591 174.203856 94.58997 178.617235 
C 99.00335 183.030614 104.990016 185.510373 111.231477 185.510373 
z
" clip-path="url(#p75897fc256)" style="fill: #d62728; fill-opacity: 0.99; stroke: #d62728; stroke-opacity: 0.99"/>
    <path d="M 74.769231 266.915035 
C 80.999485 266.915035 86.975402 264.439729 91.380857 260.034275 
C 95.786311 255.62882 98.261617 249.652903 98.261617 243.422649 
C 98.261617 237.192395 95.786311 231.216478 91.380857 226.811023 
C 86.975402 222.405568 80.999485 219.930262 74.769231 219.930262 
C 68.538977 219.930262 62.56306 222.405568 58.157605 226.811023 
C 53.75215 231.216478 51.276844 237.192395 51.276844 243.422649 
C 51.276844 249.652903 53.75215 255.62882 58.157605 260.034275 
C 62.56306 264.439729 68.538977 266.915035 74.769231 266.915035 
z
" clip-path="url(#p75897fc256)" style="fill: #d62728; fill-opacity: 0.99; stroke: #d62728; stroke-opacity: 0.99"/>
    <path d="M 74.769244 355.930886 
C 80.962663 355.930886 86.90325 353.470214 91.282659 349.090805 
C 95.662068 344.711396 98.12274 338.770809 98.12274 332.577389 
C 98.12274 326.38397 95.662068 320.443383 91.282659 316.063974 
C 86.90325 311.684565 80.962663 309.223893 74.769244 309.223893 
C 68.575824 309.223893 62.635237 311.684565 58.255828 316.063974 
C 53.876419 320.443383 51.415747 326.38397 51.415747 332.577389 
C 51.415747 338.770809 53.876419 344.711396 58.255828 349.090805 
C 62.635237 353.470214 68.575824 355.930886 74.769244 355.930886 
z
" clip-path="url(#p75897fc256)" style="fill: #d62728; fill-opacity: 0.99; stroke: #d62728; stroke-opacity: 0.99"/>
    <path d="M 111.23149 437.065476 
C 117.342085 437.065476 123.203229 434.63771 127.524073 430.316867 
C 131.844916 425.996023 134.272682 420.13488 134.272682 414.024284 
C 134.272682 407.913689 131.844916 402.052545 127.524073 397.731701 
C 123.203229 393.410858 117.342085 390.983092 111.23149 390.983092 
C 105.120894 390.983092 99.25975 393.410858 94.938907 397.731701 
C 90.618063 402.052545 88.190298 407.913689 88.190298 414.024284 
C 88.190298 420.13488 90.618063 425.996023 94.938907 430.316867 
C 99.25975 434.63771 105.120894 437.065476 111.23149 437.065476 
z
" clip-path="url(#p75897fc256)" style="fill: #d62728; fill-opacity: 0.99; stroke: #d62728; stroke-opacity: 0.99"/>
    <path d="M 177.85133 495.013837 
C 183.509012 495.013837 188.935731 492.766016 192.936316 488.765431 
C 196.936901 484.764846 199.184722 479.338127 199.184722 473.680446 
C 199.184722 468.022764 196.936901 462.596045 192.936316 458.59546 
C 188.935731 454.594875 183.509012 452.347054 177.85133 452.347054 
C 172.193649 452.347054 166.766929 454.594875 162.766344 458.59546 
C 158.765759 462.596045 156.517939 468.022764 156.517939 473.680446 
C 156.517939 479.338127 158.765759 484.764846 162.766344 488.765431 
C 166.766929 492.766016 172.193649 495.013837 177.85133 495.013837 
z
" clip-path="url(#p75897fc256)" style="fill: #d62728; fill-opacity: 0.99; stroke: #d62728; stroke-opacity: 0.99"/>
    <path d="M 263.109587 522.441316 
C 268.73469 522.441316 274.13016 520.206439 278.107708 516.22889 
C 282.085257 512.251342 284.320134 506.855872 284.320134 501.230769 
C 284.320134 495.605667 282.085257 490.210196 278.107708 486.232648 
C 274.13016 482.2551 268.73469 480.020223 263.109587 480.020223 
C 257.484484 480.020223 252.089014 482.2551 248.111466 486.232648 
C 244.133918 490.210196 241.899041 495.605667 241.899041 501.230769 
C 241.899041 506.855872 244.133918 512.251342 248.111466 516.22889 
C 252.089014 520.206439 257.484484 522.441316 263.109587 522.441316 
z
" clip-path="url(#p75897fc256)" style="fill: #d62728; fill-opacity: 0.99; stroke: #d62728; stroke-opacity: 0.99"/>
    <path d="M 352.264323 513.1003 
C 357.883646 513.1003 363.273572 510.86772 367.247033 506.894259 
C 371.220493 502.920798 373.453074 497.530872 373.453074 491.91155 
C 373.453074 486.292227 371.220493 480.902301 367.247033 476.92884 
C 363.273572 472.955379 357.883646 470.722799 352.264323 470.722799 
C 346.645001 470.722799 341.255075 472.955379 337.281614 476.92884 
C 333.308153 480.902301 331.075573 486.292227 331.075573 491.91155 
C 331.075573 497.530872 333.308153 502.920798 337.281614 506.894259 
C 341.255075 510.86772 346.645001 513.1003 352.264323 513.1003 
z
" clip-path="url(#p75897fc256)" style="fill: #d62728; fill-opacity: 0.99; stroke: #d62728; stroke-opacity: 0.99"/>
    <path d="M 429.899888 467.752274 
C 435.314835 467.752274 440.508729 465.600892 444.337675 461.771947 
C 448.166621 457.943001 450.318002 452.749107 450.318002 447.33416 
C 450.318002 441.919213 448.166621 436.725319 444.337675 432.896373 
C 440.508729 429.067428 435.314835 426.916046 429.899888 426.916046 
C 424.484941 426.916046 419.291048 429.067428 415.462102 432.896373 
C 411.633156 436.725319 409.481775 441.919213 409.481775 447.33416 
C 409.481775 452.749107 411.633156 457.943001 415.462102 461.771947 
C 419.291048 465.600892 424.484941 467.752274 429.899888 467.752274 
z
" clip-path="url(#p75897fc256)" style="fill: #d62728; fill-opacity: 0.99; stroke: #d62728; stroke-opacity: 0.99"/>
    <path d="M 482.592374 394.571376 
C 487.728009 394.571376 492.653994 392.530967 496.285437 388.899524 
C 499.91688 385.268081 501.95729 380.342096 501.95729 375.20646 
C 501.95729 370.070824 499.91688 365.144839 496.285437 361.513396 
C 492.653994 357.881953 487.728009 355.841543 482.592374 355.841543 
C 477.456738 355.841543 472.530753 357.881953 468.89931 361.513396 
C 465.267867 365.144839 463.227457 370.070824 463.227457 375.20646 
C 463.227457 380.342096 465.267867 385.268081 468.89931 388.899524 
C 472.530753 392.530967 477.456738 394.571376 482.592374 394.571376 
z
" clip-path="url(#p75897fc256)" style="fill: #d62728; fill-opacity: 0.99; stroke: #d62728; stroke-opacity: 0.99"/>
   </g>
   <g id="text_1">
    <g id="patch_2">
     <path d="M 475.71155 296.315156 
L 526.749988 296.315156 
L 526.749988 279.684844 
L 475.71155 279.684844 
z
" clip-path="url(#p75897fc256)" style="fill: #ffffff; opacity: 0.7; stroke: #000000; stroke-linejoin: miter"/>
    </g>
    <g clip-path="url(#p75897fc256)">
     <!-- Tim Story -->
     <g transform="translate(479.67155 290.483437)scale(0.09 -0.09)">
      <defs>
       <path id="DejaVuSans-54" d="M -19 4666 
L 3928 4666 
L 3928 4134 
L 2272 4134 
L 2272 0 
L 1638 0 
L 1638 4134 
L -19 4134 
L -19 4666 
z
" transform="scale(0.015625)"/>
       <path id="DejaVuSans-69" d="M 603 3500 
L 1178 3500 
L 1178 0 
L 603 0 
L 603 3500 
z
M 603 4863 
L 1178 4863 
L 1178 4134 
L 603 4134 
L 603 4863 
z
" transform="scale(0.015625)"/>
       <path id="DejaVuSans-6d" d="M 3328 2828 
Q 3544 3216 3844 3400 
Q 4144 3584 4550 3584 
Q 5097 3584 5394 3201 
Q 5691 2819 5691 2113 
L 5691 0 
L 5113 0 
L 5113 2094 
Q 5113 2597 4934 2840 
Q 4756 3084 4391 3084 
Q 3944 3084 3684 2787 
Q 3425 2491 3425 1978 
L 3425 0 
L 2847 0 
L 2847 2094 
Q 2847 2600 2669 2842 
Q 2491 3084 2119 3084 
Q 1678 3084 1418 2786 
Q 1159 2488 1159 1978 
L 1159 0 
L 581 0 
L 581 3500 
L 1159 3500 
L 1159 2956 
Q 1356 3278 1631 3431 
Q 1906 3584 2284 3584 
Q 2666 3584 2933 3390 
Q 3200 3197 3328 2828 
z
" transform="scale(0.015625)"/>
       <path id="DejaVuSans-20" transform="scale(0.015625)"/>
       <path id="DejaVuSans-53" d="M 3425 4513 
L 3425 3897 
Q 3066 4069 2747 4153 
Q 2428 4238 2131 4238 
Q 1616 4238 1336 4038 
Q 1056 3838 1056 3469 
Q 1056 3159 1242 3001 
Q 1428 2844 1947 2747 
L 2328 2669 
Q 3034 2534 3370 2195 
Q 3706 1856 3706 1288 
Q 3706 609 3251 259 
Q 2797 -91 1919 -91 
Q 1588 -91 1214 -16 
Q 841 59 441 206 
L 441 856 
Q 825 641 1194 531 
Q 1563 422 1919 422 
Q 2459 422 2753 634 
Q 3047 847 3047 1241 
Q 3047 1584 2836 1778 
Q 2625 1972 2144 2069 
L 1759 2144 
Q 1053 2284 737 2584 
Q 422 2884 422 3419 
Q 422 4038 858 4394 
Q 1294 4750 2059 4750 
Q 2388 4750 2728 4690 
Q 3069 4631 3425 4513 
z
" transform="scale(0.015625)"/>
       <path id="DejaVuSans-74" d="M 1172 4494 
L 1172 3500 
L 2356 3500 
L 2356 3053 
L 1172 3053 
L 1172 1153 
Q 1172 725 1289 603 
Q 1406 481 1766 481 
L 2356 481 
L 2356 0 
L 1766 0 
Q 1100 0 847 248 
Q 594 497 594 1153 
L 594 3053 
L 172 3053 
L 172 3500 
L 594 3500 
L 594 4494 
L 1172 4494 
z
" transform="scale(0.015625)"/>
       <path id="DejaVuSans-6f" d="M 1959 3097 
Q 1497 3097 1228 2736 
Q 959 2375 959 1747 
Q 959 1119 1226 758 
Q 1494 397 1959 397 
Q 2419 397 2687 759 
Q 2956 1122 2956 1747 
Q 2956 2369 2687 2733 
Q 2419 3097 1959 3097 
z
M 1959 3584 
Q 2709 3584 3137 3096 
Q 3566 2609 3566 1747 
Q 3566 888 3137 398 
Q 2709 -91 1959 -91 
Q 1206 -91 779 398 
Q 353 888 353 1747 
Q 353 2609 779 3096 
Q 1206 3584 1959 3584 
z
" transform="scale(0.015625)"/>
       <path id="DejaVuSans-72" d="M 2631 2963 
Q 2534 3019 2420 3045 
Q 2306 3072 2169 3072 
Q 1681 3072 1420 2755 
Q 1159 2438 1159 1844 
L 1159 0 
L 581 0 
L 581 3500 
L 1159 3500 
L 1159 2956 
Q 1341 3275 1631 3429 
Q 1922 3584 2338 3584 
Q 2397 3584 2469 3576 
Q 2541 3569 2628 3553 
L 2631 2963 
z
" transform="scale(0.015625)"/>
       <path id="DejaVuSans-79" d="M 2059 -325 
Q 1816 -950 1584 -1140 
Q 1353 -1331 966 -1331 
L 506 -1331 
L 506 -850 
L 844 -850 
Q 1081 -850 1212 -737 
Q 1344 -625 1503 -206 
L 1606 56 
L 191 3500 
L 800 3500 
L 1894 763 
L 2988 3500 
L 3597 3500 
L 2059 -325 
z
" transform="scale(0.015625)"/>
      </defs>
      <use xlink:href="#DejaVuSans-54"/>
      <use xlink:href="#DejaVuSans-69" x="57.958984"/>
      <use xlink:href="#DejaVuSans-6d" x="85.742188"/>
      <use xlink:href="#DejaVuSans-20" x="183.154297"/>
      <use xlink:href="#DejaVuSans-53" x="214.941406"/>
      <use xlink:href="#DejaVuSans-74" x="278.417969"/>
      <use xlink:href="#DejaVuSans-6f" x="317.626953"/>
      <use xlink:href="#DejaVuSans-72" x="378.808594"/>
      <use xlink:href="#DejaVuSans-79" x="419.921875"/>
     </g>
    </g>
   </g>
   <g id="text_2">
    <g id="patch_3">
     <path d="M 426.096254 209.288665 
L 539.088442 209.288665 
L 539.088442 192.298352 
L 426.096254 192.298352 
z
" clip-path="url(#p75897fc256)" style="fill: #ffffff; opacity: 0.7; stroke: #000000; stroke-linejoin: miter"/>
    </g>
    <g clip-path="url(#p75897fc256)">
     <!-- Travis Gutiérrez Senger -->
     <g transform="translate(430.056254 203.456946)scale(0.09 -0.09)">
      <defs>
       <path id="DejaVuSans-61" d="M 2194 1759 
Q 1497 1759 1228 1600 
Q 959 1441 959 1056 
Q 959 750 1161 570 
Q 1363 391 1709 391 
Q 2188 391 2477 730 
Q 2766 1069 2766 1631 
L 2766 1759 
L 2194 1759 
z
M 3341 1997 
L 3341 0 
L 2766 0 
L 2766 531 
Q 2569 213 2275 61 
Q 1981 -91 1556 -91 
Q 1019 -91 701 211 
Q 384 513 384 1019 
Q 384 1609 779 1909 
Q 1175 2209 1959 2209 
L 2766 2209 
L 2766 2266 
Q 2766 2663 2505 2880 
Q 2244 3097 1772 3097 
Q 1472 3097 1187 3025 
Q 903 2953 641 2809 
L 641 3341 
Q 956 3463 1253 3523 
Q 1550 3584 1831 3584 
Q 2591 3584 2966 3190 
Q 3341 2797 3341 1997 
z
" transform="scale(0.015625)"/>
       <path id="DejaVuSans-76" d="M 191 3500 
L 800 3500 
L 1894 563 
L 2988 3500 
L 3597 3500 
L 2284 0 
L 1503 0 
L 191 3500 
z
" transform="scale(0.015625)"/>
       <path id="DejaVuSans-73" d="M 2834 3397 
L 2834 2853 
Q 2591 2978 2328 3040 
Q 2066 3103 1784 3103 
Q 1356 3103 1142 2972 
Q 928 2841 928 2578 
Q 928 2378 1081 2264 
Q 1234 2150 1697 2047 
L 1894 2003 
Q 2506 1872 2764 1633 
Q 3022 1394 3022 966 
Q 3022 478 2636 193 
Q 2250 -91 1575 -91 
Q 1294 -91 989 -36 
Q 684 19 347 128 
L 347 722 
Q 666 556 975 473 
Q 1284 391 1588 391 
Q 1994 391 2212 530 
Q 2431 669 2431 922 
Q 2431 1156 2273 1281 
Q 2116 1406 1581 1522 
L 1381 1569 
Q 847 1681 609 1914 
Q 372 2147 372 2553 
Q 372 3047 722 3315 
Q 1072 3584 1716 3584 
Q 2034 3584 2315 3537 
Q 2597 3491 2834 3397 
z
" transform="scale(0.015625)"/>
       <path id="DejaVuSans-47" d="M 3809 666 
L 3809 1919 
L 2778 1919 
L 2778 2438 
L 4434 2438 
L 4434 434 
Q 4069 175 3628 42 
Q 3188 -91 2688 -91 
Q 1594 -91 976 548 
Q 359 1188 359 2328 
Q 359 3472 976 4111 
Q 1594 4750 2688 4750 
Q 3144 4750 3555 4637 
Q 3966 4525 4313 4306 
L 4313 3634 
Q 3963 3931 3569 4081 
Q 3175 4231 2741 4231 
Q 1884 4231 1454 3753 
Q 1025 3275 1025 2328 
Q 1025 1384 1454 906 
Q 1884 428 2741 428 
Q 3075 428 3337 486 
Q 3600 544 3809 666 
z
" transform="scale(0.015625)"/>
       <path id="DejaVuSans-75" d="M 544 1381 
L 544 3500 
L 1119 3500 
L 1119 1403 
Q 1119 906 1312 657 
Q 1506 409 1894 409 
Q 2359 409 2629 706 
Q 2900 1003 2900 1516 
L 2900 3500 
L 3475 3500 
L 3475 0 
L 2900 0 
L 2900 538 
Q 2691 219 2414 64 
Q 2138 -91 1772 -91 
Q 1169 -91 856 284 
Q 544 659 544 1381 
z
M 1991 3584 
L 1991 3584 
z
" transform="scale(0.015625)"/>
       <path id="DejaVuSans-e9" d="M 3597 1894 
L 3597 1613 
L 953 1613 
Q 991 1019 1311 708 
Q 1631 397 2203 397 
Q 2534 397 2845 478 
Q 3156 559 3463 722 
L 3463 178 
Q 3153 47 2828 -22 
Q 2503 -91 2169 -91 
Q 1331 -91 842 396 
Q 353 884 353 1716 
Q 353 2575 817 3079 
Q 1281 3584 2069 3584 
Q 2775 3584 3186 3129 
Q 3597 2675 3597 1894 
z
M 3022 2063 
Q 3016 2534 2758 2815 
Q 2500 3097 2075 3097 
Q 1594 3097 1305 2825 
Q 1016 2553 972 2059 
L 3022 2063 
z
M 2469 5119 
L 3091 5119 
L 2072 3944 
L 1594 3944 
L 2469 5119 
z
" transform="scale(0.015625)"/>
       <path id="DejaVuSans-65" d="M 3597 1894 
L 3597 1613 
L 953 1613 
Q 991 1019 1311 708 
Q 1631 397 2203 397 
Q 2534 397 2845 478 
Q 3156 559 3463 722 
L 3463 178 
Q 3153 47 2828 -22 
Q 2503 -91 2169 -91 
Q 1331 -91 842 396 
Q 353 884 353 1716 
Q 353 2575 817 3079 
Q 1281 3584 2069 3584 
Q 2775 3584 3186 3129 
Q 3597 2675 3597 1894 
z
M 3022 2063 
Q 3016 2534 2758 2815 
Q 2500 3097 2075 3097 
Q 1594 3097 1305 2825 
Q 1016 2553 972 2059 
L 3022 2063 
z
" transform="scale(0.015625)"/>
       <path id="DejaVuSans-7a" d="M 353 3500 
L 3084 3500 
L 3084 2975 
L 922 459 
L 3084 459 
L 3084 0 
L 275 0 
L 275 525 
L 2438 3041 
L 353 3041 
L 353 3500 
z
" transform="scale(0.015625)"/>
       <path id="DejaVuSans-6e" d="M 3513 2113 
L 3513 0 
L 2938 0 
L 2938 2094 
Q 2938 2591 2744 2837 
Q 2550 3084 2163 3084 
Q 1697 3084 1428 2787 
Q 1159 2491 1159 1978 
L 1159 0 
L 581 0 
L 581 3500 
L 1159 3500 
L 1159 2956 
Q 1366 3272 1645 3428 
Q 1925 3584 2291 3584 
Q 2894 3584 3203 3211 
Q 3513 2838 3513 2113 
z
" transform="scale(0.015625)"/>
       <path id="DejaVuSans-67" d="M 2906 1791 
Q 2906 2416 2648 2759 
Q 2391 3103 1925 3103 
Q 1463 3103 1205 2759 
Q 947 2416 947 1791 
Q 947 1169 1205 825 
Q 1463 481 1925 481 
Q 2391 481 2648 825 
Q 2906 1169 2906 1791 
z
M 3481 434 
Q 3481 -459 3084 -895 
Q 2688 -1331 1869 -1331 
Q 1566 -1331 1297 -1286 
Q 1028 -1241 775 -1147 
L 775 -588 
Q 1028 -725 1275 -790 
Q 1522 -856 1778 -856 
Q 2344 -856 2625 -561 
Q 2906 -266 2906 331 
L 2906 616 
Q 2728 306 2450 153 
Q 2172 0 1784 0 
Q 1141 0 747 490 
Q 353 981 353 1791 
Q 353 2603 747 3093 
Q 1141 3584 1784 3584 
Q 2172 3584 2450 3431 
Q 2728 3278 2906 2969 
L 2906 3500 
L 3481 3500 
L 3481 434 
z
" transform="scale(0.015625)"/>
      </defs>
      <use xlink:href="#DejaVuSans-54"/>
      <use xlink:href="#DejaVuSans-72" x="46.333984"/>
      <use xlink:href="#DejaVuSans-61" x="87.447266"/>
      <use xlink:href="#DejaVuSans-76" x="148.726562"/>
      <use xlink:href="#DejaVuSans-69" x="207.90625"/>
      <use xlink:href="#DejaVuSans-73" x="235.689453"/>
      <use xlink:href="#DejaVuSans-20" x="287.789062"/>
      <use xlink:href="#DejaVuSans-47" x="319.576172"/>
      <use xlink:href="#DejaVuSans-75" x="397.066406"/>
      <use xlink:href="#DejaVuSans-74" x="460.445312"/>
      <use xlink:href="#DejaVuSans-69" x="499.654297"/>
      <use xlink:href="#DejaVuSans-e9" x="527.4375"/>
      <use xlink:href="#DejaVuSans-72" x="588.960938"/>
      <use xlink:href="#DejaVuSans-72" x="628.324219"/>
      <use xlink:href="#DejaVuSans-65" x="667.1875"/>
      <use xlink:href="#DejaVuSans-7a" x="728.710938"/>
      <use xlink:href="#DejaVuSans-20" x="781.201172"/>
      <use xlink:href="#DejaVuSans-53" x="812.988281"/>
      <use xlink:href="#DejaVuSans-65" x="876.464844"/>
      <use xlink:href="#DejaVuSans-6e" x="937.988281"/>
      <use xlink:href="#DejaVuSans-67" x="1001.367188"/>
      <use xlink:href="#DejaVuSans-65" x="1064.84375"/>
      <use xlink:href="#DejaVuSans-72" x="1126.367188"/>
     </g>
    </g>
   </g>
   <g id="text_3">
    <g id="patch_4">
     <path d="M 391.4811 136.980958 
L 468.3186 136.980958 
L 468.3186 120.350645 
L 391.4811 120.350645 
z
" clip-path="url(#p75897fc256)" style="fill: #ffffff; opacity: 0.7; stroke: #000000; stroke-linejoin: miter"/>
    </g>
    <g clip-path="url(#p75897fc256)">
     <!-- Michael Cordell -->
     <g transform="translate(395.4411 131.149239)scale(0.09 -0.09)">
      <defs>
       <path id="DejaVuSans-4d" d="M 628 4666 
L 1569 4666 
L 2759 1491 
L 3956 4666 
L 4897 4666 
L 4897 0 
L 4281 0 
L 4281 4097 
L 3078 897 
L 2444 897 
L 1241 4097 
L 1241 0 
L 628 0 
L 628 4666 
z
" transform="scale(0.015625)"/>
       <path id="DejaVuSans-63" d="M 3122 3366 
L 3122 2828 
Q 2878 2963 2633 3030 
Q 2388 3097 2138 3097 
Q 1578 3097 1268 2742 
Q 959 2388 959 1747 
Q 959 1106 1268 751 
Q 1578 397 2138 397 
Q 2388 397 2633 464 
Q 2878 531 3122 666 
L 3122 134 
Q 2881 22 2623 -34 
Q 2366 -91 2075 -91 
Q 1284 -91 818 406 
Q 353 903 353 1747 
Q 353 2603 823 3093 
Q 1294 3584 2113 3584 
Q 2378 3584 2631 3529 
Q 2884 3475 3122 3366 
z
" transform="scale(0.015625)"/>
       <path id="DejaVuSans-68" d="M 3513 2113 
L 3513 0 
L 2938 0 
L 2938 2094 
Q 2938 2591 2744 2837 
Q 2550 3084 2163 3084 
Q 1697 3084 1428 2787 
Q 1159 2491 1159 1978 
L 1159 0 
L 581 0 
L 581 4863 
L 1159 4863 
L 1159 2956 
Q 1366 3272 1645 3428 
Q 1925 3584 2291 3584 
Q 2894 3584 3203 3211 
Q 3513 2838 3513 2113 
z
" transform="scale(0.015625)"/>
       <path id="DejaVuSans-6c" d="M 603 4863 
L 1178 4863 
L 1178 0 
L 603 0 
L 603 4863 
z
" transform="scale(0.015625)"/>
       <path id="DejaVuSans-43" d="M 4122 4306 
L 4122 3641 
Q 3803 3938 3442 4084 
Q 3081 4231 2675 4231 
Q 1875 4231 1450 3742 
Q 1025 3253 1025 2328 
Q 1025 1406 1450 917 
Q 1875 428 2675 428 
Q 3081 428 3442 575 
Q 3803 722 4122 1019 
L 4122 359 
Q 3791 134 3420 21 
Q 3050 -91 2638 -91 
Q 1578 -91 968 557 
Q 359 1206 359 2328 
Q 359 3453 968 4101 
Q 1578 4750 2638 4750 
Q 3056 4750 3426 4639 
Q 3797 4528 4122 4306 
z
" transform="scale(0.015625)"/>
       <path id="DejaVuSans-64" d="M 2906 2969 
L 2906 4863 
L 3481 4863 
L 3481 0 
L 2906 0 
L 2906 525 
Q 2725 213 2448 61 
Q 2172 -91 1784 -91 
Q 1150 -91 751 415 
Q 353 922 353 1747 
Q 353 2572 751 3078 
Q 1150 3584 1784 3584 
Q 2172 3584 2448 3432 
Q 2725 3281 2906 2969 
z
M 947 1747 
Q 947 1113 1208 752 
Q 1469 391 1925 391 
Q 2381 391 2643 752 
Q 2906 1113 2906 1747 
Q 2906 2381 2643 2742 
Q 2381 3103 1925 3103 
Q 1469 3103 1208 2742 
Q 947 2381 947 1747 
z
" transform="scale(0.015625)"/>
      </defs>
      <use xlink:href="#DejaVuSans-4d"/>
      <use xlink:href="#DejaVuSans-69" x="86.279297"/>
      <use xlink:href="#DejaVuSans-63" x="114.0625"/>
      <use xlink:href="#DejaVuSans-68" x="169.042969"/>
      <use xlink:href="#DejaVuSans-61" x="232.421875"/>
      <use xlink:href="#DejaVuSans-65" x="293.701172"/>
      <use xlink:href="#DejaVuSans-6c" x="355.224609"/>
      <use xlink:href="#DejaVuSans-20" x="383.007812"/>
      <use xlink:href="#DejaVuSans-43" x="414.794922"/>
      <use xlink:href="#DejaVuSans-6f" x="484.619141"/>
      <use xlink:href="#DejaVuSans-72" x="545.800781"/>
      <use xlink:href="#DejaVuSans-64" x="585.164062"/>
      <use xlink:href="#DejaVuSans-65" x="648.640625"/>
      <use xlink:href="#DejaVuSans-6c" x="710.164062"/>
      <use xlink:href="#DejaVuSans-6c" x="737.947266"/>
     </g>
    </g>
   </g>
   <g id="text_4">
    <g id="patch_5">
     <path d="M 311.717885 92.403594 
L 392.810697 92.403594 
L 392.810697 75.773281 
L 311.717885 75.773281 
z
" clip-path="url(#p75897fc256)" style="fill: #ffffff; opacity: 0.7; stroke: #000000; stroke-linejoin: miter"/>
    </g>
    <g clip-path="url(#p75897fc256)">
     <!-- Mikael Håfström -->
     <g transform="translate(315.677885 86.571875)scale(0.09 -0.09)">
      <defs>
       <path id="DejaVuSans-6b" d="M 581 4863 
L 1159 4863 
L 1159 1991 
L 2875 3500 
L 3609 3500 
L 1753 1863 
L 3688 0 
L 2938 0 
L 1159 1709 
L 1159 0 
L 581 0 
L 581 4863 
z
" transform="scale(0.015625)"/>
       <path id="DejaVuSans-48" d="M 628 4666 
L 1259 4666 
L 1259 2753 
L 3553 2753 
L 3553 4666 
L 4184 4666 
L 4184 0 
L 3553 0 
L 3553 2222 
L 1259 2222 
L 1259 0 
L 628 0 
L 628 4666 
z
" transform="scale(0.015625)"/>
       <path id="DejaVuSans-e5" d="M 2194 1759 
Q 1497 1759 1228 1600 
Q 959 1441 959 1056 
Q 959 750 1161 570 
Q 1363 391 1709 391 
Q 2188 391 2477 730 
Q 2766 1069 2766 1631 
L 2766 1759 
L 2194 1759 
z
M 3341 1997 
L 3341 0 
L 2766 0 
L 2766 531 
Q 2569 213 2275 61 
Q 1981 -91 1556 -91 
Q 1019 -91 701 211 
Q 384 513 384 1019 
Q 384 1609 779 1909 
Q 1175 2209 1959 2209 
L 2766 2209 
L 2766 2266 
Q 2766 2663 2505 2880 
Q 2244 3097 1772 3097 
Q 1472 3097 1187 3025 
Q 903 2953 641 2809 
L 641 3341 
Q 956 3463 1253 3523 
Q 1550 3584 1831 3584 
Q 2591 3584 2966 3190 
Q 3341 2797 3341 1997 
z
M 2331 4763 
Q 2331 4959 2193 5096 
Q 2056 5234 1856 5234 
Q 1653 5234 1517 5098 
Q 1381 4963 1381 4763 
Q 1381 4559 1517 4423 
Q 1653 4288 1856 4288 
Q 2056 4288 2193 4425 
Q 2331 4563 2331 4763 
z
M 2713 4763 
Q 2713 4403 2464 4153 
Q 2216 3903 1856 3903 
Q 1497 3903 1248 4153 
Q 1000 4403 1000 4763 
Q 1000 5122 1248 5370 
Q 1497 5619 1856 5619 
Q 2216 5619 2464 5370 
Q 2713 5122 2713 4763 
z
" transform="scale(0.015625)"/>
       <path id="DejaVuSans-66" d="M 2375 4863 
L 2375 4384 
L 1825 4384 
Q 1516 4384 1395 4259 
Q 1275 4134 1275 3809 
L 1275 3500 
L 2222 3500 
L 2222 3053 
L 1275 3053 
L 1275 0 
L 697 0 
L 697 3053 
L 147 3053 
L 147 3500 
L 697 3500 
L 697 3744 
Q 697 4328 969 4595 
Q 1241 4863 1831 4863 
L 2375 4863 
z
" transform="scale(0.015625)"/>
       <path id="DejaVuSans-f6" d="M 1959 3097 
Q 1497 3097 1228 2736 
Q 959 2375 959 1747 
Q 959 1119 1226 758 
Q 1494 397 1959 397 
Q 2419 397 2687 759 
Q 2956 1122 2956 1747 
Q 2956 2369 2687 2733 
Q 2419 3097 1959 3097 
z
M 1959 3584 
Q 2709 3584 3137 3096 
Q 3566 2609 3566 1747 
Q 3566 888 3137 398 
Q 2709 -91 1959 -91 
Q 1206 -91 779 398 
Q 353 888 353 1747 
Q 353 2609 779 3096 
Q 1206 3584 1959 3584 
z
M 2253 4850 
L 2888 4850 
L 2888 4219 
L 2253 4219 
L 2253 4850 
z
M 1031 4850 
L 1666 4850 
L 1666 4219 
L 1031 4219 
L 1031 4850 
z
" transform="scale(0.015625)"/>
      </defs>
      <use xlink:href="#DejaVuSans-4d"/>
      <use xlink:href="#DejaVuSans-69" x="86.279297"/>
      <use xlink:href="#DejaVuSans-6b" x="114.0625"/>
      <use xlink:href="#DejaVuSans-61" x="170.222656"/>
      <use xlink:href="#DejaVuSans-65" x="231.501953"/>
      <use xlink:href="#DejaVuSans-6c" x="293.025391"/>
      <use xlink:href="#DejaVuSans-20" x="320.808594"/>
      <use xlink:href="#DejaVuSans-48" x="352.595703"/>
      <use xlink:href="#DejaVuSans-e5" x="427.791016"/>
      <use xlink:href="#DejaVuSans-66" x="489.070312"/>
      <use xlink:href="#DejaVuSans-73" x="524.275391"/>
      <use xlink:href="#DejaVuSans-74" x="576.375"/>
      <use xlink:href="#DejaVuSans-72" x="615.583984"/>
      <use xlink:href="#DejaVuSans-f6" x="654.447266"/>
      <use xlink:href="#DejaVuSans-6d" x="715.628906"/>
     </g>
    </g>
   </g>
   <g id="text_5">
    <g id="patch_6">
     <path d="M 230.606189 83.084387 
L 295.612908 83.084387 
L 295.612908 66.454075 
L 230.606189 66.454075 
z
" clip-path="url(#p75897fc256)" style="fill: #ffffff; opacity: 0.7; stroke: #000000; stroke-linejoin: miter"/>
    </g>
    <g clip-path="url(#p75897fc256)">
     <!-- Danny Boyle -->
     <g transform="translate(234.566189 77.252668)scale(0.09 -0.09)">
      <defs>
       <path id="DejaVuSans-44" d="M 1259 4147 
L 1259 519 
L 2022 519 
Q 2988 519 3436 956 
Q 3884 1394 3884 2338 
Q 3884 3275 3436 3711 
Q 2988 4147 2022 4147 
L 1259 4147 
z
M 628 4666 
L 1925 4666 
Q 3281 4666 3915 4102 
Q 4550 3538 4550 2338 
Q 4550 1131 3912 565 
Q 3275 0 1925 0 
L 628 0 
L 628 4666 
z
" transform="scale(0.015625)"/>
       <path id="DejaVuSans-42" d="M 1259 2228 
L 1259 519 
L 2272 519 
Q 2781 519 3026 730 
Q 3272 941 3272 1375 
Q 3272 1813 3026 2020 
Q 2781 2228 2272 2228 
L 1259 2228 
z
M 1259 4147 
L 1259 2741 
L 2194 2741 
Q 2656 2741 2882 2914 
Q 3109 3088 3109 3444 
Q 3109 3797 2882 3972 
Q 2656 4147 2194 4147 
L 1259 4147 
z
M 628 4666 
L 2241 4666 
Q 2963 4666 3353 4366 
Q 3744 4066 3744 3513 
Q 3744 3084 3544 2831 
Q 3344 2578 2956 2516 
Q 3422 2416 3680 2098 
Q 3938 1781 3938 1306 
Q 3938 681 3513 340 
Q 3088 0 2303 0 
L 628 0 
L 628 4666 
z
" transform="scale(0.015625)"/>
      </defs>
      <use xlink:href="#DejaVuSans-44"/>
      <use xlink:href="#DejaVuSans-61" x="77.001953"/>
      <use xlink:href="#DejaVuSans-6e" x="138.28125"/>
      <use xlink:href="#DejaVuSans-6e" x="201.660156"/>
      <use xlink:href="#DejaVuSans-79" x="265.039062"/>
      <use xlink:href="#DejaVuSans-20" x="324.21875"/>
      <use xlink:href="#DejaVuSans-42" x="356.005859"/>
      <use xlink:href="#DejaVuSans-6f" x="424.609375"/>
      <use xlink:href="#DejaVuSans-79" x="485.791016"/>
      <use xlink:href="#DejaVuSans-6c" x="544.970703"/>
      <use xlink:href="#DejaVuSans-65" x="572.753906"/>
     </g>
    </g>
   </g>
   <g id="text_6">
    <g id="patch_7">
     <path d="M 146.408954 110.634724 
L 209.293642 110.634724 
L 209.293642 94.004411 
L 146.408954 94.004411 
z
" clip-path="url(#p75897fc256)" style="fill: #ffffff; opacity: 0.7; stroke: #000000; stroke-linejoin: miter"/>
    </g>
    <g clip-path="url(#p75897fc256)">
     <!-- Yavar Abbas -->
     <g transform="translate(150.368954 104.803005)scale(0.09 -0.09)">
      <defs>
       <path id="DejaVuSans-59" d="M -13 4666 
L 666 4666 
L 1959 2747 
L 3244 4666 
L 3922 4666 
L 2272 2222 
L 2272 0 
L 1638 0 
L 1638 2222 
L -13 4666 
z
" transform="scale(0.015625)"/>
       <path id="DejaVuSans-41" d="M 2188 4044 
L 1331 1722 
L 3047 1722 
L 2188 4044 
z
M 1831 4666 
L 2547 4666 
L 4325 0 
L 3669 0 
L 3244 1197 
L 1141 1197 
L 716 0 
L 50 0 
L 1831 4666 
z
" transform="scale(0.015625)"/>
       <path id="DejaVuSans-62" d="M 3116 1747 
Q 3116 2381 2855 2742 
Q 2594 3103 2138 3103 
Q 1681 3103 1420 2742 
Q 1159 2381 1159 1747 
Q 1159 1113 1420 752 
Q 1681 391 2138 391 
Q 2594 391 2855 752 
Q 3116 1113 3116 1747 
z
M 1159 2969 
Q 1341 3281 1617 3432 
Q 1894 3584 2278 3584 
Q 2916 3584 3314 3078 
Q 3713 2572 3713 1747 
Q 3713 922 3314 415 
Q 2916 -91 2278 -91 
Q 1894 -91 1617 61 
Q 1341 213 1159 525 
L 1159 0 
L 581 0 
L 581 4863 
L 1159 4863 
L 1159 2969 
z
" transform="scale(0.015625)"/>
      </defs>
      <use xlink:href="#DejaVuSans-59"/>
      <use xlink:href="#DejaVuSans-61" x="47.333984"/>
      <use xlink:href="#DejaVuSans-76" x="108.613281"/>
      <use xlink:href="#DejaVuSans-61" x="167.792969"/>
      <use xlink:href="#DejaVuSans-72" x="229.072266"/>
      <use xlink:href="#DejaVuSans-20" x="270.185547"/>
      <use xlink:href="#DejaVuSans-41" x="301.972656"/>
      <use xlink:href="#DejaVuSans-62" x="370.380859"/>
      <use xlink:href="#DejaVuSans-62" x="433.857422"/>
      <use xlink:href="#DejaVuSans-61" x="497.333984"/>
      <use xlink:href="#DejaVuSans-73" x="558.613281"/>
     </g>
    </g>
   </g>
   <g id="text_7">
    <g id="patch_8">
     <path d="M 61.647805 170.290885 
L 160.815149 170.290885 
L 160.815149 153.660572 
L 61.647805 153.660572 
z
" clip-path="url(#p75897fc256)" style="fill: #ffffff; opacity: 0.7; stroke: #000000; stroke-linejoin: miter"/>
    </g>
    <g clip-path="url(#p75897fc256)">
     <!-- Lawrence Guterman -->
     <g transform="translate(65.607805 164.459166)scale(0.09 -0.09)">
      <defs>
       <path id="DejaVuSans-4c" d="M 628 4666 
L 1259 4666 
L 1259 531 
L 3531 531 
L 3531 0 
L 628 0 
L 628 4666 
z
" transform="scale(0.015625)"/>
       <path id="DejaVuSans-77" d="M 269 3500 
L 844 3500 
L 1563 769 
L 2278 3500 
L 2956 3500 
L 3675 769 
L 4391 3500 
L 4966 3500 
L 4050 0 
L 3372 0 
L 2619 2869 
L 1863 0 
L 1184 0 
L 269 3500 
z
" transform="scale(0.015625)"/>
      </defs>
      <use xlink:href="#DejaVuSans-4c"/>
      <use xlink:href="#DejaVuSans-61" x="55.712891"/>
      <use xlink:href="#DejaVuSans-77" x="116.992188"/>
      <use xlink:href="#DejaVuSans-72" x="198.779297"/>
      <use xlink:href="#DejaVuSans-65" x="237.642578"/>
      <use xlink:href="#DejaVuSans-6e" x="299.166016"/>
      <use xlink:href="#DejaVuSans-63" x="362.544922"/>
      <use xlink:href="#DejaVuSans-65" x="417.525391"/>
      <use xlink:href="#DejaVuSans-20" x="479.048828"/>
      <use xlink:href="#DejaVuSans-47" x="510.835938"/>
      <use xlink:href="#DejaVuSans-75" x="588.326172"/>
      <use xlink:href="#DejaVuSans-74" x="651.705078"/>
      <use xlink:href="#DejaVuSans-65" x="690.914062"/>
      <use xlink:href="#DejaVuSans-72" x="752.4375"/>
      <use xlink:href="#DejaVuSans-6d" x="791.800781"/>
      <use xlink:href="#DejaVuSans-61" x="889.212891"/>
      <use xlink:href="#DejaVuSans-6e" x="950.492188"/>
     </g>
    </g>
   </g>
   <g id="text_8">
    <g id="patch_9">
     <path d="M 35.8372 251.737805 
L 113.701262 251.737805 
L 113.701262 235.107493 
L 35.8372 235.107493 
z
" clip-path="url(#p75897fc256)" style="fill: #ffffff; opacity: 0.7; stroke: #000000; stroke-linejoin: miter"/>
    </g>
    <g clip-path="url(#p75897fc256)">
     <!-- Nicholas Stoller -->
     <g transform="translate(39.7972 245.906086)scale(0.09 -0.09)">
      <defs>
       <path id="DejaVuSans-4e" d="M 628 4666 
L 1478 4666 
L 3547 763 
L 3547 4666 
L 4159 4666 
L 4159 0 
L 3309 0 
L 1241 3903 
L 1241 0 
L 628 0 
L 628 4666 
z
" transform="scale(0.015625)"/>
      </defs>
      <use xlink:href="#DejaVuSans-4e"/>
      <use xlink:href="#DejaVuSans-69" x="74.804688"/>
      <use xlink:href="#DejaVuSans-63" x="102.587891"/>
      <use xlink:href="#DejaVuSans-68" x="157.568359"/>
      <use xlink:href="#DejaVuSans-6f" x="220.947266"/>
      <use xlink:href="#DejaVuSans-6c" x="282.128906"/>
      <use xlink:href="#DejaVuSans-61" x="309.912109"/>
      <use xlink:href="#DejaVuSans-73" x="371.191406"/>
      <use xlink:href="#DejaVuSans-20" x="423.291016"/>
      <use xlink:href="#DejaVuSans-53" x="455.078125"/>
      <use xlink:href="#DejaVuSans-74" x="518.554688"/>
      <use xlink:href="#DejaVuSans-6f" x="557.763672"/>
      <use xlink:href="#DejaVuSans-6c" x="618.945312"/>
      <use xlink:href="#DejaVuSans-6c" x="646.728516"/>
      <use xlink:href="#DejaVuSans-65" x="674.511719"/>
      <use xlink:href="#DejaVuSans-72" x="736.035156"/>
     </g>
    </g>
   </g>
   <g id="text_9">
    <g id="patch_10">
     <path d="M 48.984244 340.892546 
L 100.554244 340.892546 
L 100.554244 324.262233 
L 48.984244 324.262233 
z
" clip-path="url(#p75897fc256)" style="fill: #ffffff; opacity: 0.7; stroke: #000000; stroke-linejoin: miter"/>
    </g>
    <g clip-path="url(#p75897fc256)">
     <!-- P. Ramlee -->
     <g transform="translate(52.944244 335.060827)scale(0.09 -0.09)">
      <defs>
       <path id="DejaVuSans-50" d="M 1259 4147 
L 1259 2394 
L 2053 2394 
Q 2494 2394 2734 2622 
Q 2975 2850 2975 3272 
Q 2975 3691 2734 3919 
Q 2494 4147 2053 4147 
L 1259 4147 
z
M 628 4666 
L 2053 4666 
Q 2838 4666 3239 4311 
Q 3641 3956 3641 3272 
Q 3641 2581 3239 2228 
Q 2838 1875 2053 1875 
L 1259 1875 
L 1259 0 
L 628 0 
L 628 4666 
z
" transform="scale(0.015625)"/>
       <path id="DejaVuSans-2e" d="M 684 794 
L 1344 794 
L 1344 0 
L 684 0 
L 684 794 
z
" transform="scale(0.015625)"/>
       <path id="DejaVuSans-52" d="M 2841 2188 
Q 3044 2119 3236 1894 
Q 3428 1669 3622 1275 
L 4263 0 
L 3584 0 
L 2988 1197 
Q 2756 1666 2539 1819 
Q 2322 1972 1947 1972 
L 1259 1972 
L 1259 0 
L 628 0 
L 628 4666 
L 2053 4666 
Q 2853 4666 3247 4331 
Q 3641 3997 3641 3322 
Q 3641 2881 3436 2590 
Q 3231 2300 2841 2188 
z
M 1259 4147 
L 1259 2491 
L 2053 2491 
Q 2509 2491 2742 2702 
Q 2975 2913 2975 3322 
Q 2975 3731 2742 3939 
Q 2509 4147 2053 4147 
L 1259 4147 
z
" transform="scale(0.015625)"/>
      </defs>
      <use xlink:href="#DejaVuSans-50"/>
      <use xlink:href="#DejaVuSans-2e" x="44.677734"/>
      <use xlink:href="#DejaVuSans-20" x="76.464844"/>
      <use xlink:href="#DejaVuSans-52" x="108.251953"/>
      <use xlink:href="#DejaVuSans-61" x="175.484375"/>
      <use xlink:href="#DejaVuSans-6d" x="236.763672"/>
      <use xlink:href="#DejaVuSans-6c" x="334.175781"/>
      <use xlink:href="#DejaVuSans-65" x="361.958984"/>
      <use xlink:href="#DejaVuSans-65" x="423.482422"/>
     </g>
    </g>
   </g>
   <g id="text_10">
    <g id="patch_11">
     <path d="M 78.437037 422.33944 
L 144.025943 422.33944 
L 144.025943 405.709128 
L 78.437037 405.709128 
z
" clip-path="url(#p75897fc256)" style="fill: #ffffff; opacity: 0.7; stroke: #000000; stroke-linejoin: miter"/>
    </g>
    <g clip-path="url(#p75897fc256)">
     <!-- Renny Harlin -->
     <g transform="translate(82.397037 416.507722)scale(0.09 -0.09)">
      <use xlink:href="#DejaVuSans-52"/>
      <use xlink:href="#DejaVuSans-65" x="64.982422"/>
      <use xlink:href="#DejaVuSans-6e" x="126.505859"/>
      <use xlink:href="#DejaVuSans-6e" x="189.884766"/>
      <use xlink:href="#DejaVuSans-79" x="253.263672"/>
      <use xlink:href="#DejaVuSans-20" x="312.443359"/>
      <use xlink:href="#DejaVuSans-48" x="344.230469"/>
      <use xlink:href="#DejaVuSans-61" x="419.425781"/>
      <use xlink:href="#DejaVuSans-72" x="480.705078"/>
      <use xlink:href="#DejaVuSans-6c" x="521.818359"/>
      <use xlink:href="#DejaVuSans-69" x="549.601562"/>
      <use xlink:href="#DejaVuSans-6e" x="577.384766"/>
     </g>
    </g>
   </g>
   <g id="text_11">
    <g id="patch_12">
     <path d="M 139.897346 481.995602 
L 215.805315 481.995602 
L 215.805315 465.365289 
L 139.897346 465.365289 
z
" clip-path="url(#p75897fc256)" style="fill: #ffffff; opacity: 0.7; stroke: #000000; stroke-linejoin: miter"/>
    </g>
    <g clip-path="url(#p75897fc256)">
     <!-- Craig Monahan -->
     <g transform="translate(143.857346 476.163883)scale(0.09 -0.09)">
      <use xlink:href="#DejaVuSans-43"/>
      <use xlink:href="#DejaVuSans-72" x="69.824219"/>
      <use xlink:href="#DejaVuSans-61" x="110.9375"/>
      <use xlink:href="#DejaVuSans-69" x="172.216797"/>
      <use xlink:href="#DejaVuSans-67" x="200"/>
      <use xlink:href="#DejaVuSans-20" x="263.476562"/>
      <use xlink:href="#DejaVuSans-4d" x="295.263672"/>
      <use xlink:href="#DejaVuSans-6f" x="381.542969"/>
      <use xlink:href="#DejaVuSans-6e" x="442.724609"/>
      <use xlink:href="#DejaVuSans-61" x="506.103516"/>
      <use xlink:href="#DejaVuSans-68" x="567.382812"/>
      <use xlink:href="#DejaVuSans-61" x="630.761719"/>
      <use xlink:href="#DejaVuSans-6e" x="692.041016"/>
     </g>
    </g>
   </g>
   <g id="text_12">
    <g id="patch_13">
     <path d="M 224.2324 509.545925 
L 301.986775 509.545925 
L 301.986775 492.915613 
L 224.2324 492.915613 
z
" clip-path="url(#p75897fc256)" style="fill: #ffffff; opacity: 0.7; stroke: #000000; stroke-linejoin: miter"/>
    </g>
    <g clip-path="url(#p75897fc256)">
     <!-- Franco Zeffirelli -->
     <g transform="translate(228.1924 503.714207)scale(0.09 -0.09)">
      <defs>
       <path id="DejaVuSans-46" d="M 628 4666 
L 3309 4666 
L 3309 4134 
L 1259 4134 
L 1259 2759 
L 3109 2759 
L 3109 2228 
L 1259 2228 
L 1259 0 
L 628 0 
L 628 4666 
z
" transform="scale(0.015625)"/>
       <path id="DejaVuSans-5a" d="M 359 4666 
L 4025 4666 
L 4025 4184 
L 1075 531 
L 4097 531 
L 4097 0 
L 288 0 
L 288 481 
L 3238 4134 
L 359 4134 
L 359 4666 
z
" transform="scale(0.015625)"/>
      </defs>
      <use xlink:href="#DejaVuSans-46"/>
      <use xlink:href="#DejaVuSans-72" x="50.269531"/>
      <use xlink:href="#DejaVuSans-61" x="91.382812"/>
      <use xlink:href="#DejaVuSans-6e" x="152.662109"/>
      <use xlink:href="#DejaVuSans-63" x="216.041016"/>
      <use xlink:href="#DejaVuSans-6f" x="271.021484"/>
      <use xlink:href="#DejaVuSans-20" x="332.203125"/>
      <use xlink:href="#DejaVuSans-5a" x="363.990234"/>
      <use xlink:href="#DejaVuSans-65" x="432.496094"/>
      <use xlink:href="#DejaVuSans-66" x="494.019531"/>
      <use xlink:href="#DejaVuSans-66" x="529.224609"/>
      <use xlink:href="#DejaVuSans-69" x="564.429688"/>
      <use xlink:href="#DejaVuSans-72" x="592.212891"/>
      <use xlink:href="#DejaVuSans-65" x="631.076172"/>
      <use xlink:href="#DejaVuSans-6c" x="692.599609"/>
      <use xlink:href="#DejaVuSans-6c" x="720.382812"/>
      <use xlink:href="#DejaVuSans-69" x="748.166016"/>
     </g>
    </g>
   </g>
   <g id="text_13">
    <g id="patch_14">
     <path d="M 301.272292 500.226706 
L 403.256355 500.226706 
L 403.256355 483.596393 
L 301.272292 483.596393 
z
" clip-path="url(#p75897fc256)" style="fill: #ffffff; opacity: 0.7; stroke: #000000; stroke-linejoin: miter"/>
    </g>
    <g clip-path="url(#p75897fc256)">
     <!-- Sean S. Cunningham -->
     <g transform="translate(305.232292 494.394987)scale(0.09 -0.09)">
      <use xlink:href="#DejaVuSans-53"/>
      <use xlink:href="#DejaVuSans-65" x="63.476562"/>
      <use xlink:href="#DejaVuSans-61" x="125"/>
      <use xlink:href="#DejaVuSans-6e" x="186.279297"/>
      <use xlink:href="#DejaVuSans-20" x="249.658203"/>
      <use xlink:href="#DejaVuSans-53" x="281.445312"/>
      <use xlink:href="#DejaVuSans-2e" x="344.921875"/>
      <use xlink:href="#DejaVuSans-20" x="376.708984"/>
      <use xlink:href="#DejaVuSans-43" x="408.496094"/>
      <use xlink:href="#DejaVuSans-75" x="478.320312"/>
      <use xlink:href="#DejaVuSans-6e" x="541.699219"/>
      <use xlink:href="#DejaVuSans-6e" x="605.078125"/>
      <use xlink:href="#DejaVuSans-69" x="668.457031"/>
      <use xlink:href="#DejaVuSans-6e" x="696.240234"/>
      <use xlink:href="#DejaVuSans-67" x="759.619141"/>
      <use xlink:href="#DejaVuSans-68" x="823.095703"/>
      <use xlink:href="#DejaVuSans-61" x="886.474609"/>
      <use xlink:href="#DejaVuSans-6d" x="947.753906"/>
     </g>
    </g>
   </g>
   <g id="text_14">
    <g id="patch_15">
     <path d="M 394.977076 455.649316 
L 464.822701 455.649316 
L 464.822701 439.019004 
L 394.977076 439.019004 
z
" clip-path="url(#p75897fc256)" style="fill: #ffffff; opacity: 0.7; stroke: #000000; stroke-linejoin: miter"/>
    </g>
    <g clip-path="url(#p75897fc256)">
     <!-- Eddie Murphy -->
     <g transform="translate(398.937076 449.817598)scale(0.09 -0.09)">
      <defs>
       <path id="DejaVuSans-45" d="M 628 4666 
L 3578 4666 
L 3578 4134 
L 1259 4134 
L 1259 2753 
L 3481 2753 
L 3481 2222 
L 1259 2222 
L 1259 531 
L 3634 531 
L 3634 0 
L 628 0 
L 628 4666 
z
" transform="scale(0.015625)"/>
       <path id="DejaVuSans-70" d="M 1159 525 
L 1159 -1331 
L 581 -1331 
L 581 3500 
L 1159 3500 
L 1159 2969 
Q 1341 3281 1617 3432 
Q 1894 3584 2278 3584 
Q 2916 3584 3314 3078 
Q 3713 2572 3713 1747 
Q 3713 922 3314 415 
Q 2916 -91 2278 -91 
Q 1894 -91 1617 61 
Q 1341 213 1159 525 
z
M 3116 1747 
Q 3116 2381 2855 2742 
Q 2594 3103 2138 3103 
Q 1681 3103 1420 2742 
Q 1159 2381 1159 1747 
Q 1159 1113 1420 752 
Q 1681 391 2138 391 
Q 2594 391 2855 752 
Q 3116 1113 3116 1747 
z
" transform="scale(0.015625)"/>
      </defs>
      <use xlink:href="#DejaVuSans-45"/>
      <use xlink:href="#DejaVuSans-64" x="63.183594"/>
      <use xlink:href="#DejaVuSans-64" x="126.660156"/>
      <use xlink:href="#DejaVuSans-69" x="190.136719"/>
      <use xlink:href="#DejaVuSans-65" x="217.919922"/>
      <use xlink:href="#DejaVuSans-20" x="279.443359"/>
      <use xlink:href="#DejaVuSans-4d" x="311.230469"/>
      <use xlink:href="#DejaVuSans-75" x="397.509766"/>
      <use xlink:href="#DejaVuSans-72" x="460.888672"/>
      <use xlink:href="#DejaVuSans-70" x="502.001953"/>
      <use xlink:href="#DejaVuSans-68" x="565.478516"/>
      <use xlink:href="#DejaVuSans-79" x="628.857422"/>
     </g>
    </g>
   </g>
   <g id="text_15">
    <g id="patch_16">
     <path d="M 444.751592 383.521616 
L 520.433155 383.521616 
L 520.433155 366.891303 
L 444.751592 366.891303 
z
" clip-path="url(#p75897fc256)" style="fill: #ffffff; opacity: 0.7; stroke: #000000; stroke-linejoin: miter"/>
    </g>
    <g clip-path="url(#p75897fc256)">
     <!-- Stephen Frears -->
     <g transform="translate(448.711592 377.689897)scale(0.09 -0.09)">
      <use xlink:href="#DejaVuSans-53"/>
      <use xlink:href="#DejaVuSans-74" x="63.476562"/>
      <use xlink:href="#DejaVuSans-65" x="102.685547"/>
      <use xlink:href="#DejaVuSans-70" x="164.208984"/>
      <use xlink:href="#DejaVuSans-68" x="227.685547"/>
      <use xlink:href="#DejaVuSans-65" x="291.064453"/>
      <use xlink:href="#DejaVuSans-6e" x="352.587891"/>
      <use xlink:href="#DejaVuSans-20" x="415.966797"/>
      <use xlink:href="#DejaVuSans-46" x="447.753906"/>
      <use xlink:href="#DejaVuSans-72" x="498.023438"/>
      <use xlink:href="#DejaVuSans-65" x="536.886719"/>
      <use xlink:href="#DejaVuSans-61" x="598.410156"/>
      <use xlink:href="#DejaVuSans-72" x="659.689453"/>
      <use xlink:href="#DejaVuSans-73" x="700.802734"/>
     </g>
    </g>
   </g>
   <g id="text_16">
    <!-- Impactful directors for Crime genre -->
    <g transform="translate(182.189063 4.8)scale(0.12 -0.12)">
     <defs>
      <path id="DejaVuSans-49" d="M 628 4666 
L 1259 4666 
L 1259 0 
L 628 0 
L 628 4666 
z
" transform="scale(0.015625)"/>
     </defs>
     <use xlink:href="#DejaVuSans-49"/>
     <use xlink:href="#DejaVuSans-6d" x="29.492188"/>
     <use xlink:href="#DejaVuSans-70" x="126.904297"/>
     <use xlink:href="#DejaVuSans-61" x="190.380859"/>
     <use xlink:href="#DejaVuSans-63" x="251.660156"/>
     <use xlink:href="#DejaVuSans-74" x="306.640625"/>
     <use xlink:href="#DejaVuSans-66" x="345.849609"/>
     <use xlink:href="#DejaVuSans-75" x="381.054688"/>
     <use xlink:href="#DejaVuSans-6c" x="444.433594"/>
     <use xlink:href="#DejaVuSans-20" x="472.216797"/>
     <use xlink:href="#DejaVuSans-64" x="504.003906"/>
     <use xlink:href="#DejaVuSans-69" x="567.480469"/>
     <use xlink:href="#DejaVuSans-72" x="595.263672"/>
     <use xlink:href="#DejaVuSans-65" x="634.126953"/>
     <use xlink:href="#DejaVuSans-63" x="695.650391"/>
     <use xlink:href="#DejaVuSans-74" x="750.630859"/>
     <use xlink:href="#DejaVuSans-6f" x="789.839844"/>
     <use xlink:href="#DejaVuSans-72" x="851.021484"/>
     <use xlink:href="#DejaVuSans-73" x="892.134766"/>
     <use xlink:href="#DejaVuSans-20" x="944.234375"/>
     <use xlink:href="#DejaVuSans-66" x="976.021484"/>
     <use xlink:href="#DejaVuSans-6f" x="1011.226562"/>
     <use xlink:href="#DejaVuSans-72" x="1072.408203"/>
     <use xlink:href="#DejaVuSans-20" x="1113.521484"/>
     <use xlink:href="#DejaVuSans-43" x="1145.308594"/>
     <use xlink:href="#DejaVuSans-72" x="1215.132812"/>
     <use xlink:href="#DejaVuSans-69" x="1256.246094"/>
     <use xlink:href="#DejaVuSans-6d" x="1284.029297"/>
     <use xlink:href="#DejaVuSans-65" x="1381.441406"/>
     <use xlink:href="#DejaVuSans-20" x="1442.964844"/>
     <use xlink:href="#DejaVuSans-67" x="1474.751953"/>
     <use xlink:href="#DejaVuSans-65" x="1538.228516"/>
     <use xlink:href="#DejaVuSans-6e" x="1599.751953"/>
     <use xlink:href="#DejaVuSans-72" x="1663.130859"/>
     <use xlink:href="#DejaVuSans-65" x="1701.994141"/>
    </g>
   </g>
  </g>
 </g>
 <defs>
  <clipPath id="p75897fc256">
   <rect x="10.8" y="10.8" width="554.4" height="554.4"/>
  </clipPath>
 </defs>
</svg>
