<?xml version="1.0" encoding="utf-8" standalone="no"?>
<!DOCTYPE svg PUBLIC "-//W3C//DTD SVG 1.1//EN"
  "http://www.w3.org/Graphics/SVG/1.1/DTD/svg11.dtd">
<svg xmlns:xlink="http://www.w3.org/1999/xlink" width="576pt" height="576pt" viewBox="0 0 576 576" xmlns="http://www.w3.org/2000/svg" version="1.1">
 <metadata>
  <rdf:RDF xmlns:dc="http://purl.org/dc/elements/1.1/" xmlns:cc="http://creativecommons.org/ns#" xmlns:rdf="http://www.w3.org/1999/02/22-rdf-syntax-ns#">
   <cc:Work>
    <dc:type rdf:resource="http://purl.org/dc/dcmitype/StillImage"/>
    <dc:date>2022-12-22T19:12:38.849670</dc:date>
    <dc:format>image/svg+xml</dc:format>
    <dc:creator>
     <cc:Agent>
      <dc:title>Matplotlib v3.5.2, https://matplotlib.org/</dc:title>
     </cc:Agent>
    </dc:creator>
   </cc:Work>
  </rdf:RDF>
 </metadata>
 <defs>
  <style type="text/css">*{stroke-linejoin: round; stroke-linecap: butt}</style>
 </defs>
 <g id="figure_1">
  <g id="patch_1">
   <path d="M 0 576 
L 576 576 
L 576 0 
L 0 0 
z
" style="fill: #ffffff"/>
  </g>
  <g id="axes_1">
   <g id="LineCollection_1">
    <path d="M 177.851298 102.319567 
L 111.231477 161.975729 
" clip-path="url(#p11db560f48)" style="fill: none; stroke: #000000; stroke-opacity: 0.3; stroke-width: 5"/>
    <path d="M 429.899888 447.33416 
L 482.592374 375.20646 
" clip-path="url(#p11db560f48)" style="fill: none; stroke: #000000; stroke-opacity: 0.3; stroke-width: 10"/>
   </g>
   <g id="PathCollection_1">
    <path d="M 501.230769 315.386128 
C 508.493655 315.386128 515.46005 312.500553 520.595686 307.364917 
C 525.731322 302.229281 528.616897 295.262886 528.616897 288 
C 528.616897 280.737114 525.731322 273.770719 520.595686 268.635083 
C 515.46005 263.499447 508.493655 260.613872 501.230769 260.613872 
C 493.967883 260.613872 487.001488 263.499447 481.865852 268.635083 
C 476.730217 273.770719 473.844641 280.737114 473.844641 288 
C 473.844641 295.262886 476.730217 302.229281 481.865852 307.364917 
C 487.001488 312.500553 493.967883 315.386128 501.230769 315.386128 
z
" clip-path="url(#p11db560f48)" style="fill: #d62728; fill-opacity: 0.99; stroke: #d62728; stroke-opacity: 0.99"/>
    <path d="M 482.592348 227.698619 
C 489.727666 227.698619 496.571702 224.863727 501.617134 219.818294 
C 506.662566 214.772862 509.497458 207.928827 509.497458 200.793508 
C 509.497458 193.65819 506.662566 186.814155 501.617134 181.768723 
C 496.571702 176.72329 489.727666 173.888398 482.592348 173.888398 
C 475.457029 173.888398 468.612994 176.72329 463.567562 181.768723 
C 458.52213 186.814155 455.687238 193.65819 455.687238 200.793508 
C 455.687238 207.928827 458.52213 214.772862 463.567562 219.818294 
C 468.612994 224.863727 475.457029 227.698619 482.592348 227.698619 
z
" clip-path="url(#p11db560f48)" style="fill: #d62728; fill-opacity: 0.99; stroke: #d62728; stroke-opacity: 0.99"/>
    <path d="M 429.89985 154.386946 
C 436.721177 154.386946 443.264039 151.676804 448.087445 146.853397 
C 452.910852 142.029991 455.620994 135.487129 455.620994 128.665802 
C 455.620994 121.844474 452.910852 115.301613 448.087445 110.478206 
C 443.264039 105.654799 436.721177 102.944657 429.89985 102.944657 
C 423.078523 102.944657 416.535661 105.654799 411.712254 110.478206 
C 406.888847 115.301613 404.178705 121.844474 404.178705 128.665802 
C 404.178705 135.487129 406.888847 142.029991 411.712254 146.853397 
C 416.535661 151.676804 423.078523 154.386946 429.89985 154.386946 
z
" clip-path="url(#p11db560f48)" style="fill: #d62728; fill-opacity: 0.99; stroke: #d62728; stroke-opacity: 0.99"/>
    <path d="M 352.264291 107.713593 
C 358.529756 107.713593 364.539447 105.224298 368.969799 100.793945 
C 373.400151 96.363593 375.889447 90.353902 375.889447 84.088438 
C 375.889447 77.822973 373.400151 71.813282 368.969799 67.38293 
C 364.539447 62.952578 358.529756 60.463282 352.264291 60.463282 
C 345.998827 60.463282 339.989136 62.952578 335.558783 67.38293 
C 331.128431 71.813282 328.639136 77.822973 328.639136 84.088438 
C 328.639136 90.353902 331.128431 96.363593 335.558783 100.793945 
C 339.989136 105.224298 345.998827 107.713593 352.264291 107.713593 
z
" clip-path="url(#p11db560f48)" style="fill: #d62728; fill-opacity: 0.99; stroke: #d62728; stroke-opacity: 0.99"/>
    <path d="M 263.109549 98.343694 
C 269.361569 98.343694 275.358365 95.85974 279.779211 91.438894 
C 284.200058 87.018047 286.684012 81.021251 286.684012 74.769231 
C 286.684012 68.51721 284.200058 62.520414 279.779211 58.099568 
C 275.358365 53.678722 269.361569 51.194768 263.109549 51.194768 
C 256.857528 51.194768 250.860732 53.678722 246.439886 58.099568 
C 242.01904 62.520414 239.535085 68.51721 239.535085 74.769231 
C 239.535085 81.021251 242.01904 87.018047 246.439886 91.438894 
C 250.860732 95.85974 256.857528 98.343694 263.109549 98.343694 
z
" clip-path="url(#p11db560f48)" style="fill: #d62728; fill-opacity: 0.99; stroke: #d62728; stroke-opacity: 0.99"/>
    <path d="M 177.851298 125.369206 
C 183.964134 125.369206 189.827426 122.94055 194.149854 118.618123 
C 198.472281 114.295695 200.900936 108.432403 200.900936 102.319567 
C 200.900936 96.206732 198.472281 90.343439 194.149854 86.021012 
C 189.827426 81.698584 183.964134 79.269929 177.851298 79.269929 
C 171.738463 79.269929 165.87517 81.698584 161.552743 86.021012 
C 157.230315 90.343439 154.80166 96.206732 154.80166 102.319567 
C 154.80166 108.432403 157.230315 114.295695 161.552743 118.618123 
C 165.87517 122.94055 171.738463 125.369206 177.851298 125.369206 
z
" clip-path="url(#p11db560f48)" style="fill: #d62728; fill-opacity: 0.99; stroke: #d62728; stroke-opacity: 0.99"/>
    <path d="M 111.231477 185.025367 
C 117.344313 185.025367 123.207605 182.596712 127.530033 178.274284 
C 131.85246 173.951857 134.281115 168.088564 134.281115 161.975729 
C 134.281115 155.862893 131.85246 149.999601 127.530033 145.677173 
C 123.207605 141.354746 117.344313 138.92609 111.231477 138.92609 
C 105.118641 138.92609 99.255349 141.354746 94.932921 145.677173 
C 90.610494 149.999601 88.181839 155.862893 88.181839 161.975729 
C 88.181839 168.088564 90.610494 173.951857 94.932921 178.274284 
C 99.255349 182.596712 105.118641 185.025367 111.231477 185.025367 
z
" clip-path="url(#p11db560f48)" style="fill: #d62728; fill-opacity: 0.99; stroke: #d62728; stroke-opacity: 0.99"/>
    <path d="M 74.769231 265.681721 
C 80.672406 265.681721 86.334597 263.336365 90.508772 259.16219 
C 94.682947 254.988015 97.028303 249.325824 97.028303 243.422649 
C 97.028303 237.519474 94.682947 231.857283 90.508772 227.683108 
C 86.334597 223.508933 80.672406 221.163577 74.769231 221.163577 
C 68.866056 221.163577 63.203865 223.508933 59.02969 227.683108 
C 54.855515 231.857283 52.510159 237.519474 52.510159 243.422649 
C 52.510159 249.325824 54.855515 254.988015 59.02969 259.16219 
C 63.203865 263.336365 68.866056 265.681721 74.769231 265.681721 
z
" clip-path="url(#p11db560f48)" style="fill: #d62728; fill-opacity: 0.99; stroke: #d62728; stroke-opacity: 0.99"/>
    <path d="M 74.769244 354.029004 
C 80.458278 354.029004 85.915071 351.768727 89.937826 347.745972 
C 93.960581 343.723217 96.220859 338.266424 96.220859 332.577389 
C 96.220859 326.888355 93.960581 321.431562 89.937826 317.408807 
C 85.915071 313.386052 80.458278 311.125775 74.769244 311.125775 
C 69.080209 311.125775 63.623416 313.386052 59.600661 317.408807 
C 55.577906 321.431562 53.317629 326.888355 53.317629 332.577389 
C 53.317629 338.266424 55.577906 343.723217 59.600661 347.745972 
C 63.623416 351.768727 69.080209 354.029004 74.769244 354.029004 
z
" clip-path="url(#p11db560f48)" style="fill: #d62728; fill-opacity: 0.99; stroke: #d62728; stroke-opacity: 0.99"/>
    <path d="M 111.23149 435.329328 
C 116.881654 435.329328 122.301162 433.084494 126.296431 429.089225 
C 130.2917 425.093956 132.536534 419.674448 132.536534 414.024284 
C 132.536534 408.37412 130.2917 402.954612 126.296431 398.959343 
C 122.301162 394.964074 116.881654 392.71924 111.23149 392.71924 
C 105.581326 392.71924 100.161818 394.964074 96.166549 398.959343 
C 92.17128 402.954612 89.926446 408.37412 89.926446 414.024284 
C 89.926446 419.674448 92.17128 425.093956 96.166549 429.089225 
C 100.161818 433.084494 105.581326 435.329328 111.23149 435.329328 
z
" clip-path="url(#p11db560f48)" style="fill: #d62728; fill-opacity: 0.99; stroke: #d62728; stroke-opacity: 0.99"/>
    <path d="M 177.85133 494.960336 
C 183.494823 494.960336 188.907933 492.718153 192.898485 488.727601 
C 196.889037 484.737048 199.131221 479.323938 199.131221 473.680446 
C 199.131221 468.036953 196.889037 462.623843 192.898485 458.633291 
C 188.907933 454.642738 183.494823 452.400555 177.85133 452.400555 
C 172.207837 452.400555 166.794727 454.642738 162.804175 458.633291 
C 158.813623 462.623843 156.57144 468.036953 156.57144 473.680446 
C 156.57144 479.323938 158.813623 484.737048 162.804175 488.727601 
C 166.794727 492.718153 172.207837 494.960336 177.85133 494.960336 
z
" clip-path="url(#p11db560f48)" style="fill: #d62728; fill-opacity: 0.99; stroke: #d62728; stroke-opacity: 0.99"/>
    <path d="M 263.109587 522.206367 
C 268.672381 522.206367 274.008086 519.996246 277.941575 516.062757 
C 281.875064 512.129268 284.085185 506.793563 284.085185 501.230769 
C 284.085185 495.667976 281.875064 490.332271 277.941575 486.398782 
C 274.008086 482.465293 268.672381 480.255171 263.109587 480.255171 
C 257.546794 480.255171 252.211089 482.465293 248.2776 486.398782 
C 244.344111 490.332271 242.133989 495.667976 242.133989 501.230769 
C 242.133989 506.793563 244.344111 512.129268 248.2776 516.062757 
C 252.211089 519.996246 257.546794 522.206367 263.109587 522.206367 
z
" clip-path="url(#p11db560f48)" style="fill: #d62728; fill-opacity: 0.99; stroke: #d62728; stroke-opacity: 0.99"/>
    <path d="M 352.264323 512.512934 
C 357.727874 512.512934 362.968388 510.342242 366.831702 506.478928 
C 370.695016 502.615614 372.865708 497.3751 372.865708 491.91155 
C 372.865708 486.447999 370.695016 481.207485 366.831702 477.344171 
C 362.968388 473.480857 357.727874 471.310165 352.264323 471.310165 
C 346.800772 471.310165 341.560259 473.480857 337.696945 477.344171 
C 333.833631 481.207485 331.662939 486.447999 331.662939 491.91155 
C 331.662939 497.3751 333.833631 502.615614 337.696945 506.478928 
C 341.560259 510.342242 346.800772 512.512934 352.264323 512.512934 
z
" clip-path="url(#p11db560f48)" style="fill: #d62728; fill-opacity: 0.99; stroke: #d62728; stroke-opacity: 0.99"/>
    <path d="M 429.899888 466.699077 
C 435.035524 466.699077 439.961509 464.658667 443.592952 461.027224 
C 447.224395 457.395781 449.264805 452.469796 449.264805 447.33416 
C 449.264805 442.198524 447.224395 437.272539 443.592952 433.641096 
C 439.961509 430.009653 435.035524 427.969243 429.899888 427.969243 
C 424.764252 427.969243 419.838267 430.009653 416.206824 433.641096 
C 412.575381 437.272539 410.534972 442.198524 410.534972 447.33416 
C 410.534972 452.469796 412.575381 457.395781 416.206824 461.027224 
C 419.838267 464.658667 424.764252 466.699077 429.899888 466.699077 
z
" clip-path="url(#p11db560f48)" style="fill: #d62728; fill-opacity: 0.99; stroke: #d62728; stroke-opacity: 0.99"/>
    <path d="M 482.592374 394.571376 
C 487.728009 394.571376 492.653994 392.530967 496.285437 388.899524 
C 499.91688 385.268081 501.95729 380.342096 501.95729 375.20646 
C 501.95729 370.070824 499.91688 365.144839 496.285437 361.513396 
C 492.653994 357.881953 487.728009 355.841543 482.592374 355.841543 
C 477.456738 355.841543 472.530753 357.881953 468.89931 361.513396 
C 465.267867 365.144839 463.227457 370.070824 463.227457 375.20646 
C 463.227457 380.342096 465.267867 385.268081 468.89931 388.899524 
C 472.530753 392.530967 477.456738 394.571376 482.592374 394.571376 
z
" clip-path="url(#p11db560f48)" style="fill: #d62728; fill-opacity: 0.99; stroke: #d62728; stroke-opacity: 0.99"/>
   </g>
   <g id="text_1">
    <g id="patch_2">
     <path d="M 469.429129 296.315156 
L 533.03241 296.315156 
L 533.03241 279.684844 
L 469.429129 279.684844 
z
" clip-path="url(#p11db560f48)" style="fill: #ffffff; opacity: 0.7; stroke: #000000; stroke-linejoin: miter"/>
    </g>
    <g clip-path="url(#p11db560f48)">
     <!-- Woody Allen -->
     <g transform="translate(473.389129 290.483437)scale(0.09 -0.09)">
      <defs>
       <path id="DejaVuSans-57" d="M 213 4666 
L 850 4666 
L 1831 722 
L 2809 4666 
L 3519 4666 
L 4500 722 
L 5478 4666 
L 6119 4666 
L 4947 0 
L 4153 0 
L 3169 4050 
L 2175 0 
L 1381 0 
L 213 4666 
z
" transform="scale(0.015625)"/>
       <path id="DejaVuSans-6f" d="M 1959 3097 
Q 1497 3097 1228 2736 
Q 959 2375 959 1747 
Q 959 1119 1226 758 
Q 1494 397 1959 397 
Q 2419 397 2687 759 
Q 2956 1122 2956 1747 
Q 2956 2369 2687 2733 
Q 2419 3097 1959 3097 
z
M 1959 3584 
Q 2709 3584 3137 3096 
Q 3566 2609 3566 1747 
Q 3566 888 3137 398 
Q 2709 -91 1959 -91 
Q 1206 -91 779 398 
Q 353 888 353 1747 
Q 353 2609 779 3096 
Q 1206 3584 1959 3584 
z
" transform="scale(0.015625)"/>
       <path id="DejaVuSans-64" d="M 2906 2969 
L 2906 4863 
L 3481 4863 
L 3481 0 
L 2906 0 
L 2906 525 
Q 2725 213 2448 61 
Q 2172 -91 1784 -91 
Q 1150 -91 751 415 
Q 353 922 353 1747 
Q 353 2572 751 3078 
Q 1150 3584 1784 3584 
Q 2172 3584 2448 3432 
Q 2725 3281 2906 2969 
z
M 947 1747 
Q 947 1113 1208 752 
Q 1469 391 1925 391 
Q 2381 391 2643 752 
Q 2906 1113 2906 1747 
Q 2906 2381 2643 2742 
Q 2381 3103 1925 3103 
Q 1469 3103 1208 2742 
Q 947 2381 947 1747 
z
" transform="scale(0.015625)"/>
       <path id="DejaVuSans-79" d="M 2059 -325 
Q 1816 -950 1584 -1140 
Q 1353 -1331 966 -1331 
L 506 -1331 
L 506 -850 
L 844 -850 
Q 1081 -850 1212 -737 
Q 1344 -625 1503 -206 
L 1606 56 
L 191 3500 
L 800 3500 
L 1894 763 
L 2988 3500 
L 3597 3500 
L 2059 -325 
z
" transform="scale(0.015625)"/>
       <path id="DejaVuSans-20" transform="scale(0.015625)"/>
       <path id="DejaVuSans-41" d="M 2188 4044 
L 1331 1722 
L 3047 1722 
L 2188 4044 
z
M 1831 4666 
L 2547 4666 
L 4325 0 
L 3669 0 
L 3244 1197 
L 1141 1197 
L 716 0 
L 50 0 
L 1831 4666 
z
" transform="scale(0.015625)"/>
       <path id="DejaVuSans-6c" d="M 603 4863 
L 1178 4863 
L 1178 0 
L 603 0 
L 603 4863 
z
" transform="scale(0.015625)"/>
       <path id="DejaVuSans-65" d="M 3597 1894 
L 3597 1613 
L 953 1613 
Q 991 1019 1311 708 
Q 1631 397 2203 397 
Q 2534 397 2845 478 
Q 3156 559 3463 722 
L 3463 178 
Q 3153 47 2828 -22 
Q 2503 -91 2169 -91 
Q 1331 -91 842 396 
Q 353 884 353 1716 
Q 353 2575 817 3079 
Q 1281 3584 2069 3584 
Q 2775 3584 3186 3129 
Q 3597 2675 3597 1894 
z
M 3022 2063 
Q 3016 2534 2758 2815 
Q 2500 3097 2075 3097 
Q 1594 3097 1305 2825 
Q 1016 2553 972 2059 
L 3022 2063 
z
" transform="scale(0.015625)"/>
       <path id="DejaVuSans-6e" d="M 3513 2113 
L 3513 0 
L 2938 0 
L 2938 2094 
Q 2938 2591 2744 2837 
Q 2550 3084 2163 3084 
Q 1697 3084 1428 2787 
Q 1159 2491 1159 1978 
L 1159 0 
L 581 0 
L 581 3500 
L 1159 3500 
L 1159 2956 
Q 1366 3272 1645 3428 
Q 1925 3584 2291 3584 
Q 2894 3584 3203 3211 
Q 3513 2838 3513 2113 
z
" transform="scale(0.015625)"/>
      </defs>
      <use xlink:href="#DejaVuSans-57"/>
      <use xlink:href="#DejaVuSans-6f" x="93.001953"/>
      <use xlink:href="#DejaVuSans-6f" x="154.183594"/>
      <use xlink:href="#DejaVuSans-64" x="215.365234"/>
      <use xlink:href="#DejaVuSans-79" x="278.841797"/>
      <use xlink:href="#DejaVuSans-20" x="338.021484"/>
      <use xlink:href="#DejaVuSans-41" x="369.808594"/>
      <use xlink:href="#DejaVuSans-6c" x="438.216797"/>
      <use xlink:href="#DejaVuSans-6c" x="466"/>
      <use xlink:href="#DejaVuSans-65" x="493.783203"/>
      <use xlink:href="#DejaVuSans-6e" x="555.306641"/>
     </g>
    </g>
   </g>
   <g id="text_2">
    <g id="patch_3">
     <path d="M 442.685082 209.108665 
L 522.499613 209.108665 
L 522.499613 192.478352 
L 442.685082 192.478352 
z
" clip-path="url(#p11db560f48)" style="fill: #ffffff; opacity: 0.7; stroke: #000000; stroke-linejoin: miter"/>
    </g>
    <g clip-path="url(#p11db560f48)">
     <!-- Martin Scorsese -->
     <g transform="translate(446.645082 203.276946)scale(0.09 -0.09)">
      <defs>
       <path id="DejaVuSans-4d" d="M 628 4666 
L 1569 4666 
L 2759 1491 
L 3956 4666 
L 4897 4666 
L 4897 0 
L 4281 0 
L 4281 4097 
L 3078 897 
L 2444 897 
L 1241 4097 
L 1241 0 
L 628 0 
L 628 4666 
z
" transform="scale(0.015625)"/>
       <path id="DejaVuSans-61" d="M 2194 1759 
Q 1497 1759 1228 1600 
Q 959 1441 959 1056 
Q 959 750 1161 570 
Q 1363 391 1709 391 
Q 2188 391 2477 730 
Q 2766 1069 2766 1631 
L 2766 1759 
L 2194 1759 
z
M 3341 1997 
L 3341 0 
L 2766 0 
L 2766 531 
Q 2569 213 2275 61 
Q 1981 -91 1556 -91 
Q 1019 -91 701 211 
Q 384 513 384 1019 
Q 384 1609 779 1909 
Q 1175 2209 1959 2209 
L 2766 2209 
L 2766 2266 
Q 2766 2663 2505 2880 
Q 2244 3097 1772 3097 
Q 1472 3097 1187 3025 
Q 903 2953 641 2809 
L 641 3341 
Q 956 3463 1253 3523 
Q 1550 3584 1831 3584 
Q 2591 3584 2966 3190 
Q 3341 2797 3341 1997 
z
" transform="scale(0.015625)"/>
       <path id="DejaVuSans-72" d="M 2631 2963 
Q 2534 3019 2420 3045 
Q 2306 3072 2169 3072 
Q 1681 3072 1420 2755 
Q 1159 2438 1159 1844 
L 1159 0 
L 581 0 
L 581 3500 
L 1159 3500 
L 1159 2956 
Q 1341 3275 1631 3429 
Q 1922 3584 2338 3584 
Q 2397 3584 2469 3576 
Q 2541 3569 2628 3553 
L 2631 2963 
z
" transform="scale(0.015625)"/>
       <path id="DejaVuSans-74" d="M 1172 4494 
L 1172 3500 
L 2356 3500 
L 2356 3053 
L 1172 3053 
L 1172 1153 
Q 1172 725 1289 603 
Q 1406 481 1766 481 
L 2356 481 
L 2356 0 
L 1766 0 
Q 1100 0 847 248 
Q 594 497 594 1153 
L 594 3053 
L 172 3053 
L 172 3500 
L 594 3500 
L 594 4494 
L 1172 4494 
z
" transform="scale(0.015625)"/>
       <path id="DejaVuSans-69" d="M 603 3500 
L 1178 3500 
L 1178 0 
L 603 0 
L 603 3500 
z
M 603 4863 
L 1178 4863 
L 1178 4134 
L 603 4134 
L 603 4863 
z
" transform="scale(0.015625)"/>
       <path id="DejaVuSans-53" d="M 3425 4513 
L 3425 3897 
Q 3066 4069 2747 4153 
Q 2428 4238 2131 4238 
Q 1616 4238 1336 4038 
Q 1056 3838 1056 3469 
Q 1056 3159 1242 3001 
Q 1428 2844 1947 2747 
L 2328 2669 
Q 3034 2534 3370 2195 
Q 3706 1856 3706 1288 
Q 3706 609 3251 259 
Q 2797 -91 1919 -91 
Q 1588 -91 1214 -16 
Q 841 59 441 206 
L 441 856 
Q 825 641 1194 531 
Q 1563 422 1919 422 
Q 2459 422 2753 634 
Q 3047 847 3047 1241 
Q 3047 1584 2836 1778 
Q 2625 1972 2144 2069 
L 1759 2144 
Q 1053 2284 737 2584 
Q 422 2884 422 3419 
Q 422 4038 858 4394 
Q 1294 4750 2059 4750 
Q 2388 4750 2728 4690 
Q 3069 4631 3425 4513 
z
" transform="scale(0.015625)"/>
       <path id="DejaVuSans-63" d="M 3122 3366 
L 3122 2828 
Q 2878 2963 2633 3030 
Q 2388 3097 2138 3097 
Q 1578 3097 1268 2742 
Q 959 2388 959 1747 
Q 959 1106 1268 751 
Q 1578 397 2138 397 
Q 2388 397 2633 464 
Q 2878 531 3122 666 
L 3122 134 
Q 2881 22 2623 -34 
Q 2366 -91 2075 -91 
Q 1284 -91 818 406 
Q 353 903 353 1747 
Q 353 2603 823 3093 
Q 1294 3584 2113 3584 
Q 2378 3584 2631 3529 
Q 2884 3475 3122 3366 
z
" transform="scale(0.015625)"/>
       <path id="DejaVuSans-73" d="M 2834 3397 
L 2834 2853 
Q 2591 2978 2328 3040 
Q 2066 3103 1784 3103 
Q 1356 3103 1142 2972 
Q 928 2841 928 2578 
Q 928 2378 1081 2264 
Q 1234 2150 1697 2047 
L 1894 2003 
Q 2506 1872 2764 1633 
Q 3022 1394 3022 966 
Q 3022 478 2636 193 
Q 2250 -91 1575 -91 
Q 1294 -91 989 -36 
Q 684 19 347 128 
L 347 722 
Q 666 556 975 473 
Q 1284 391 1588 391 
Q 1994 391 2212 530 
Q 2431 669 2431 922 
Q 2431 1156 2273 1281 
Q 2116 1406 1581 1522 
L 1381 1569 
Q 847 1681 609 1914 
Q 372 2147 372 2553 
Q 372 3047 722 3315 
Q 1072 3584 1716 3584 
Q 2034 3584 2315 3537 
Q 2597 3491 2834 3397 
z
" transform="scale(0.015625)"/>
      </defs>
      <use xlink:href="#DejaVuSans-4d"/>
      <use xlink:href="#DejaVuSans-61" x="86.279297"/>
      <use xlink:href="#DejaVuSans-72" x="147.558594"/>
      <use xlink:href="#DejaVuSans-74" x="188.671875"/>
      <use xlink:href="#DejaVuSans-69" x="227.880859"/>
      <use xlink:href="#DejaVuSans-6e" x="255.664062"/>
      <use xlink:href="#DejaVuSans-20" x="319.042969"/>
      <use xlink:href="#DejaVuSans-53" x="350.830078"/>
      <use xlink:href="#DejaVuSans-63" x="414.306641"/>
      <use xlink:href="#DejaVuSans-6f" x="469.287109"/>
      <use xlink:href="#DejaVuSans-72" x="530.46875"/>
      <use xlink:href="#DejaVuSans-73" x="571.582031"/>
      <use xlink:href="#DejaVuSans-65" x="623.681641"/>
      <use xlink:href="#DejaVuSans-73" x="685.205078"/>
      <use xlink:href="#DejaVuSans-65" x="737.304688"/>
     </g>
    </g>
   </g>
   <g id="text_3">
    <g id="patch_4">
     <path d="M 400.156959 136.980958 
L 459.64274 136.980958 
L 459.64274 120.350645 
L 400.156959 120.350645 
z
" clip-path="url(#p11db560f48)" style="fill: #ffffff; opacity: 0.7; stroke: #000000; stroke-linejoin: miter"/>
    </g>
    <g clip-path="url(#p11db560f48)">
     <!-- John Landis -->
     <g transform="translate(404.116959 131.149239)scale(0.09 -0.09)">
      <defs>
       <path id="DejaVuSans-4a" d="M 628 4666 
L 1259 4666 
L 1259 325 
Q 1259 -519 939 -900 
Q 619 -1281 -91 -1281 
L -331 -1281 
L -331 -750 
L -134 -750 
Q 284 -750 456 -515 
Q 628 -281 628 325 
L 628 4666 
z
" transform="scale(0.015625)"/>
       <path id="DejaVuSans-68" d="M 3513 2113 
L 3513 0 
L 2938 0 
L 2938 2094 
Q 2938 2591 2744 2837 
Q 2550 3084 2163 3084 
Q 1697 3084 1428 2787 
Q 1159 2491 1159 1978 
L 1159 0 
L 581 0 
L 581 4863 
L 1159 4863 
L 1159 2956 
Q 1366 3272 1645 3428 
Q 1925 3584 2291 3584 
Q 2894 3584 3203 3211 
Q 3513 2838 3513 2113 
z
" transform="scale(0.015625)"/>
       <path id="DejaVuSans-4c" d="M 628 4666 
L 1259 4666 
L 1259 531 
L 3531 531 
L 3531 0 
L 628 0 
L 628 4666 
z
" transform="scale(0.015625)"/>
      </defs>
      <use xlink:href="#DejaVuSans-4a"/>
      <use xlink:href="#DejaVuSans-6f" x="29.492188"/>
      <use xlink:href="#DejaVuSans-68" x="90.673828"/>
      <use xlink:href="#DejaVuSans-6e" x="154.052734"/>
      <use xlink:href="#DejaVuSans-20" x="217.431641"/>
      <use xlink:href="#DejaVuSans-4c" x="249.21875"/>
      <use xlink:href="#DejaVuSans-61" x="304.931641"/>
      <use xlink:href="#DejaVuSans-6e" x="366.210938"/>
      <use xlink:href="#DejaVuSans-64" x="429.589844"/>
      <use xlink:href="#DejaVuSans-69" x="493.066406"/>
      <use xlink:href="#DejaVuSans-73" x="520.849609"/>
     </g>
    </g>
   </g>
   <g id="text_4">
    <g id="patch_5">
     <path d="M 319.469838 92.403594 
L 385.058744 92.403594 
L 385.058744 75.773281 
L 319.469838 75.773281 
z
" clip-path="url(#p11db560f48)" style="fill: #ffffff; opacity: 0.7; stroke: #000000; stroke-linejoin: miter"/>
    </g>
    <g clip-path="url(#p11db560f48)">
     <!-- Renny Harlin -->
     <g transform="translate(323.429838 86.571875)scale(0.09 -0.09)">
      <defs>
       <path id="DejaVuSans-52" d="M 2841 2188 
Q 3044 2119 3236 1894 
Q 3428 1669 3622 1275 
L 4263 0 
L 3584 0 
L 2988 1197 
Q 2756 1666 2539 1819 
Q 2322 1972 1947 1972 
L 1259 1972 
L 1259 0 
L 628 0 
L 628 4666 
L 2053 4666 
Q 2853 4666 3247 4331 
Q 3641 3997 3641 3322 
Q 3641 2881 3436 2590 
Q 3231 2300 2841 2188 
z
M 1259 4147 
L 1259 2491 
L 2053 2491 
Q 2509 2491 2742 2702 
Q 2975 2913 2975 3322 
Q 2975 3731 2742 3939 
Q 2509 4147 2053 4147 
L 1259 4147 
z
" transform="scale(0.015625)"/>
       <path id="DejaVuSans-48" d="M 628 4666 
L 1259 4666 
L 1259 2753 
L 3553 2753 
L 3553 4666 
L 4184 4666 
L 4184 0 
L 3553 0 
L 3553 2222 
L 1259 2222 
L 1259 0 
L 628 0 
L 628 4666 
z
" transform="scale(0.015625)"/>
      </defs>
      <use xlink:href="#DejaVuSans-52"/>
      <use xlink:href="#DejaVuSans-65" x="64.982422"/>
      <use xlink:href="#DejaVuSans-6e" x="126.505859"/>
      <use xlink:href="#DejaVuSans-6e" x="189.884766"/>
      <use xlink:href="#DejaVuSans-79" x="253.263672"/>
      <use xlink:href="#DejaVuSans-20" x="312.443359"/>
      <use xlink:href="#DejaVuSans-48" x="344.230469"/>
      <use xlink:href="#DejaVuSans-61" x="419.425781"/>
      <use xlink:href="#DejaVuSans-72" x="480.705078"/>
      <use xlink:href="#DejaVuSans-6c" x="521.818359"/>
      <use xlink:href="#DejaVuSans-69" x="549.601562"/>
      <use xlink:href="#DejaVuSans-6e" x="577.384766"/>
     </g>
    </g>
   </g>
   <g id="text_5">
    <g id="patch_6">
     <path d="M 232.56158 83.084387 
L 293.657517 83.084387 
L 293.657517 66.454075 
L 232.56158 66.454075 
z
" clip-path="url(#p11db560f48)" style="fill: #ffffff; opacity: 0.7; stroke: #000000; stroke-linejoin: miter"/>
    </g>
    <g clip-path="url(#p11db560f48)">
     <!-- Simon West -->
     <g transform="translate(236.52158 77.252668)scale(0.09 -0.09)">
      <defs>
       <path id="DejaVuSans-6d" d="M 3328 2828 
Q 3544 3216 3844 3400 
Q 4144 3584 4550 3584 
Q 5097 3584 5394 3201 
Q 5691 2819 5691 2113 
L 5691 0 
L 5113 0 
L 5113 2094 
Q 5113 2597 4934 2840 
Q 4756 3084 4391 3084 
Q 3944 3084 3684 2787 
Q 3425 2491 3425 1978 
L 3425 0 
L 2847 0 
L 2847 2094 
Q 2847 2600 2669 2842 
Q 2491 3084 2119 3084 
Q 1678 3084 1418 2786 
Q 1159 2488 1159 1978 
L 1159 0 
L 581 0 
L 581 3500 
L 1159 3500 
L 1159 2956 
Q 1356 3278 1631 3431 
Q 1906 3584 2284 3584 
Q 2666 3584 2933 3390 
Q 3200 3197 3328 2828 
z
" transform="scale(0.015625)"/>
      </defs>
      <use xlink:href="#DejaVuSans-53"/>
      <use xlink:href="#DejaVuSans-69" x="63.476562"/>
      <use xlink:href="#DejaVuSans-6d" x="91.259766"/>
      <use xlink:href="#DejaVuSans-6f" x="188.671875"/>
      <use xlink:href="#DejaVuSans-6e" x="249.853516"/>
      <use xlink:href="#DejaVuSans-20" x="313.232422"/>
      <use xlink:href="#DejaVuSans-57" x="345.019531"/>
      <use xlink:href="#DejaVuSans-65" x="438.021484"/>
      <use xlink:href="#DejaVuSans-73" x="499.544922"/>
      <use xlink:href="#DejaVuSans-74" x="551.644531"/>
     </g>
    </g>
   </g>
   <g id="text_6">
    <g id="patch_7">
     <path d="M 144.371298 110.634724 
L 211.331298 110.634724 
L 211.331298 94.004411 
L 144.371298 94.004411 
z
" clip-path="url(#p11db560f48)" style="fill: #ffffff; opacity: 0.7; stroke: #000000; stroke-linejoin: miter"/>
    </g>
    <g clip-path="url(#p11db560f48)">
     <!-- Peter Farrelly -->
     <g transform="translate(148.331298 104.803005)scale(0.09 -0.09)">
      <defs>
       <path id="DejaVuSans-50" d="M 1259 4147 
L 1259 2394 
L 2053 2394 
Q 2494 2394 2734 2622 
Q 2975 2850 2975 3272 
Q 2975 3691 2734 3919 
Q 2494 4147 2053 4147 
L 1259 4147 
z
M 628 4666 
L 2053 4666 
Q 2838 4666 3239 4311 
Q 3641 3956 3641 3272 
Q 3641 2581 3239 2228 
Q 2838 1875 2053 1875 
L 1259 1875 
L 1259 0 
L 628 0 
L 628 4666 
z
" transform="scale(0.015625)"/>
       <path id="DejaVuSans-46" d="M 628 4666 
L 3309 4666 
L 3309 4134 
L 1259 4134 
L 1259 2759 
L 3109 2759 
L 3109 2228 
L 1259 2228 
L 1259 0 
L 628 0 
L 628 4666 
z
" transform="scale(0.015625)"/>
      </defs>
      <use xlink:href="#DejaVuSans-50"/>
      <use xlink:href="#DejaVuSans-65" x="56.677734"/>
      <use xlink:href="#DejaVuSans-74" x="118.201172"/>
      <use xlink:href="#DejaVuSans-65" x="157.410156"/>
      <use xlink:href="#DejaVuSans-72" x="218.933594"/>
      <use xlink:href="#DejaVuSans-20" x="260.046875"/>
      <use xlink:href="#DejaVuSans-46" x="291.833984"/>
      <use xlink:href="#DejaVuSans-61" x="340.228516"/>
      <use xlink:href="#DejaVuSans-72" x="401.507812"/>
      <use xlink:href="#DejaVuSans-72" x="440.871094"/>
      <use xlink:href="#DejaVuSans-65" x="479.734375"/>
      <use xlink:href="#DejaVuSans-6c" x="541.257812"/>
      <use xlink:href="#DejaVuSans-6c" x="569.041016"/>
      <use xlink:href="#DejaVuSans-79" x="596.824219"/>
     </g>
    </g>
   </g>
   <g id="text_7">
    <g id="patch_8">
     <path d="M 75.235696 170.290885 
L 147.227258 170.290885 
L 147.227258 153.660572 
L 75.235696 153.660572 
z
" clip-path="url(#p11db560f48)" style="fill: #ffffff; opacity: 0.7; stroke: #000000; stroke-linejoin: miter"/>
    </g>
    <g clip-path="url(#p11db560f48)">
     <!-- Bobby Farrelly -->
     <g transform="translate(79.195696 164.459166)scale(0.09 -0.09)">
      <defs>
       <path id="DejaVuSans-42" d="M 1259 2228 
L 1259 519 
L 2272 519 
Q 2781 519 3026 730 
Q 3272 941 3272 1375 
Q 3272 1813 3026 2020 
Q 2781 2228 2272 2228 
L 1259 2228 
z
M 1259 4147 
L 1259 2741 
L 2194 2741 
Q 2656 2741 2882 2914 
Q 3109 3088 3109 3444 
Q 3109 3797 2882 3972 
Q 2656 4147 2194 4147 
L 1259 4147 
z
M 628 4666 
L 2241 4666 
Q 2963 4666 3353 4366 
Q 3744 4066 3744 3513 
Q 3744 3084 3544 2831 
Q 3344 2578 2956 2516 
Q 3422 2416 3680 2098 
Q 3938 1781 3938 1306 
Q 3938 681 3513 340 
Q 3088 0 2303 0 
L 628 0 
L 628 4666 
z
" transform="scale(0.015625)"/>
       <path id="DejaVuSans-62" d="M 3116 1747 
Q 3116 2381 2855 2742 
Q 2594 3103 2138 3103 
Q 1681 3103 1420 2742 
Q 1159 2381 1159 1747 
Q 1159 1113 1420 752 
Q 1681 391 2138 391 
Q 2594 391 2855 752 
Q 3116 1113 3116 1747 
z
M 1159 2969 
Q 1341 3281 1617 3432 
Q 1894 3584 2278 3584 
Q 2916 3584 3314 3078 
Q 3713 2572 3713 1747 
Q 3713 922 3314 415 
Q 2916 -91 2278 -91 
Q 1894 -91 1617 61 
Q 1341 213 1159 525 
L 1159 0 
L 581 0 
L 581 4863 
L 1159 4863 
L 1159 2969 
z
" transform="scale(0.015625)"/>
      </defs>
      <use xlink:href="#DejaVuSans-42"/>
      <use xlink:href="#DejaVuSans-6f" x="68.603516"/>
      <use xlink:href="#DejaVuSans-62" x="129.785156"/>
      <use xlink:href="#DejaVuSans-62" x="193.261719"/>
      <use xlink:href="#DejaVuSans-79" x="256.738281"/>
      <use xlink:href="#DejaVuSans-20" x="315.917969"/>
      <use xlink:href="#DejaVuSans-46" x="347.705078"/>
      <use xlink:href="#DejaVuSans-61" x="396.099609"/>
      <use xlink:href="#DejaVuSans-72" x="457.378906"/>
      <use xlink:href="#DejaVuSans-72" x="496.742188"/>
      <use xlink:href="#DejaVuSans-65" x="535.605469"/>
      <use xlink:href="#DejaVuSans-6c" x="597.128906"/>
      <use xlink:href="#DejaVuSans-6c" x="624.912109"/>
      <use xlink:href="#DejaVuSans-79" x="652.695312"/>
     </g>
    </g>
   </g>
   <g id="text_8">
    <g id="patch_9">
     <path d="M 38.047121 251.737805 
L 111.49134 251.737805 
L 111.49134 235.107493 
L 38.047121 235.107493 
z
" clip-path="url(#p11db560f48)" style="fill: #ffffff; opacity: 0.7; stroke: #000000; stroke-linejoin: miter"/>
    </g>
    <g clip-path="url(#p11db560f48)">
     <!-- N.T. Rama Rao -->
     <g transform="translate(42.007121 245.906086)scale(0.09 -0.09)">
      <defs>
       <path id="DejaVuSans-4e" d="M 628 4666 
L 1478 4666 
L 3547 763 
L 3547 4666 
L 4159 4666 
L 4159 0 
L 3309 0 
L 1241 3903 
L 1241 0 
L 628 0 
L 628 4666 
z
" transform="scale(0.015625)"/>
       <path id="DejaVuSans-2e" d="M 684 794 
L 1344 794 
L 1344 0 
L 684 0 
L 684 794 
z
" transform="scale(0.015625)"/>
       <path id="DejaVuSans-54" d="M -19 4666 
L 3928 4666 
L 3928 4134 
L 2272 4134 
L 2272 0 
L 1638 0 
L 1638 4134 
L -19 4134 
L -19 4666 
z
" transform="scale(0.015625)"/>
      </defs>
      <use xlink:href="#DejaVuSans-4e"/>
      <use xlink:href="#DejaVuSans-2e" x="74.804688"/>
      <use xlink:href="#DejaVuSans-54" x="106.591797"/>
      <use xlink:href="#DejaVuSans-2e" x="155.800781"/>
      <use xlink:href="#DejaVuSans-20" x="187.587891"/>
      <use xlink:href="#DejaVuSans-52" x="219.375"/>
      <use xlink:href="#DejaVuSans-61" x="286.607422"/>
      <use xlink:href="#DejaVuSans-6d" x="347.886719"/>
      <use xlink:href="#DejaVuSans-61" x="445.298828"/>
      <use xlink:href="#DejaVuSans-20" x="506.578125"/>
      <use xlink:href="#DejaVuSans-52" x="538.365234"/>
      <use xlink:href="#DejaVuSans-61" x="605.597656"/>
      <use xlink:href="#DejaVuSans-6f" x="666.876953"/>
     </g>
    </g>
   </g>
   <g id="text_9">
    <g id="patch_10">
     <path d="M 46.430494 340.892546 
L 103.107994 340.892546 
L 103.107994 324.262233 
L 46.430494 324.262233 
z
" clip-path="url(#p11db560f48)" style="fill: #ffffff; opacity: 0.7; stroke: #000000; stroke-linejoin: miter"/>
    </g>
    <g clip-path="url(#p11db560f48)">
     <!-- Rob Reiner -->
     <g transform="translate(50.390494 335.060827)scale(0.09 -0.09)">
      <use xlink:href="#DejaVuSans-52"/>
      <use xlink:href="#DejaVuSans-6f" x="64.982422"/>
      <use xlink:href="#DejaVuSans-62" x="126.164062"/>
      <use xlink:href="#DejaVuSans-20" x="189.640625"/>
      <use xlink:href="#DejaVuSans-52" x="221.427734"/>
      <use xlink:href="#DejaVuSans-65" x="286.410156"/>
      <use xlink:href="#DejaVuSans-69" x="347.933594"/>
      <use xlink:href="#DejaVuSans-6e" x="375.716797"/>
      <use xlink:href="#DejaVuSans-65" x="439.095703"/>
      <use xlink:href="#DejaVuSans-72" x="500.619141"/>
     </g>
    </g>
   </g>
   <g id="text_10">
    <g id="patch_11">
     <path d="M 78.37024 422.33944 
L 144.09274 422.33944 
L 144.09274 405.709128 
L 78.37024 405.709128 
z
" clip-path="url(#p11db560f48)" style="fill: #ffffff; opacity: 0.7; stroke: #000000; stroke-linejoin: miter"/>
    </g>
    <g clip-path="url(#p11db560f48)">
     <!-- Sam Mendes -->
     <g transform="translate(82.33024 416.507722)scale(0.09 -0.09)">
      <use xlink:href="#DejaVuSans-53"/>
      <use xlink:href="#DejaVuSans-61" x="63.476562"/>
      <use xlink:href="#DejaVuSans-6d" x="124.755859"/>
      <use xlink:href="#DejaVuSans-20" x="222.167969"/>
      <use xlink:href="#DejaVuSans-4d" x="253.955078"/>
      <use xlink:href="#DejaVuSans-65" x="340.234375"/>
      <use xlink:href="#DejaVuSans-6e" x="401.757812"/>
      <use xlink:href="#DejaVuSans-64" x="465.136719"/>
      <use xlink:href="#DejaVuSans-65" x="528.613281"/>
      <use xlink:href="#DejaVuSans-73" x="590.136719"/>
     </g>
    </g>
   </g>
   <g id="text_11">
    <g id="patch_12">
     <path d="M 146.309846 481.995602 
L 209.392815 481.995602 
L 209.392815 465.365289 
L 146.309846 465.365289 
z
" clip-path="url(#p11db560f48)" style="fill: #ffffff; opacity: 0.7; stroke: #000000; stroke-linejoin: miter"/>
    </g>
    <g clip-path="url(#p11db560f48)">
     <!-- Brett Ratner -->
     <g transform="translate(150.269846 476.163883)scale(0.09 -0.09)">
      <use xlink:href="#DejaVuSans-42"/>
      <use xlink:href="#DejaVuSans-72" x="68.603516"/>
      <use xlink:href="#DejaVuSans-65" x="107.466797"/>
      <use xlink:href="#DejaVuSans-74" x="168.990234"/>
      <use xlink:href="#DejaVuSans-74" x="208.199219"/>
      <use xlink:href="#DejaVuSans-20" x="247.408203"/>
      <use xlink:href="#DejaVuSans-52" x="279.195312"/>
      <use xlink:href="#DejaVuSans-61" x="346.427734"/>
      <use xlink:href="#DejaVuSans-74" x="407.707031"/>
      <use xlink:href="#DejaVuSans-6e" x="446.916016"/>
      <use xlink:href="#DejaVuSans-65" x="510.294922"/>
      <use xlink:href="#DejaVuSans-72" x="571.818359"/>
     </g>
    </g>
   </g>
   <g id="text_12">
    <g id="patch_13">
     <path d="M 231.100525 509.545925 
L 295.11865 509.545925 
L 295.11865 492.915613 
L 231.100525 492.915613 
z
" clip-path="url(#p11db560f48)" style="fill: #ffffff; opacity: 0.7; stroke: #000000; stroke-linejoin: miter"/>
    </g>
    <g clip-path="url(#p11db560f48)">
     <!-- Marc Forster -->
     <g transform="translate(235.060525 503.714207)scale(0.09 -0.09)">
      <use xlink:href="#DejaVuSans-4d"/>
      <use xlink:href="#DejaVuSans-61" x="86.279297"/>
      <use xlink:href="#DejaVuSans-72" x="147.558594"/>
      <use xlink:href="#DejaVuSans-63" x="186.421875"/>
      <use xlink:href="#DejaVuSans-20" x="241.402344"/>
      <use xlink:href="#DejaVuSans-46" x="273.189453"/>
      <use xlink:href="#DejaVuSans-6f" x="327.083984"/>
      <use xlink:href="#DejaVuSans-72" x="388.265625"/>
      <use xlink:href="#DejaVuSans-73" x="429.378906"/>
      <use xlink:href="#DejaVuSans-74" x="481.478516"/>
      <use xlink:href="#DejaVuSans-65" x="520.6875"/>
      <use xlink:href="#DejaVuSans-72" x="582.210938"/>
     </g>
    </g>
   </g>
   <g id="text_13">
    <g id="patch_14">
     <path d="M 320.319245 500.226706 
L 384.209401 500.226706 
L 384.209401 483.596393 
L 320.319245 483.596393 
z
" clip-path="url(#p11db560f48)" style="fill: #ffffff; opacity: 0.7; stroke: #000000; stroke-linejoin: miter"/>
    </g>
    <g clip-path="url(#p11db560f48)">
     <!-- Frank Coraci -->
     <g transform="translate(324.279245 494.394987)scale(0.09 -0.09)">
      <defs>
       <path id="DejaVuSans-6b" d="M 581 4863 
L 1159 4863 
L 1159 1991 
L 2875 3500 
L 3609 3500 
L 1753 1863 
L 3688 0 
L 2938 0 
L 1159 1709 
L 1159 0 
L 581 0 
L 581 4863 
z
" transform="scale(0.015625)"/>
       <path id="DejaVuSans-43" d="M 4122 4306 
L 4122 3641 
Q 3803 3938 3442 4084 
Q 3081 4231 2675 4231 
Q 1875 4231 1450 3742 
Q 1025 3253 1025 2328 
Q 1025 1406 1450 917 
Q 1875 428 2675 428 
Q 3081 428 3442 575 
Q 3803 722 4122 1019 
L 4122 359 
Q 3791 134 3420 21 
Q 3050 -91 2638 -91 
Q 1578 -91 968 557 
Q 359 1206 359 2328 
Q 359 3453 968 4101 
Q 1578 4750 2638 4750 
Q 3056 4750 3426 4639 
Q 3797 4528 4122 4306 
z
" transform="scale(0.015625)"/>
      </defs>
      <use xlink:href="#DejaVuSans-46"/>
      <use xlink:href="#DejaVuSans-72" x="50.269531"/>
      <use xlink:href="#DejaVuSans-61" x="91.382812"/>
      <use xlink:href="#DejaVuSans-6e" x="152.662109"/>
      <use xlink:href="#DejaVuSans-6b" x="216.041016"/>
      <use xlink:href="#DejaVuSans-20" x="273.951172"/>
      <use xlink:href="#DejaVuSans-43" x="305.738281"/>
      <use xlink:href="#DejaVuSans-6f" x="375.5625"/>
      <use xlink:href="#DejaVuSans-72" x="436.744141"/>
      <use xlink:href="#DejaVuSans-61" x="477.857422"/>
      <use xlink:href="#DejaVuSans-63" x="539.136719"/>
      <use xlink:href="#DejaVuSans-69" x="594.117188"/>
     </g>
    </g>
   </g>
   <g id="text_14">
    <g id="patch_15">
     <path d="M 404.893248 455.649316 
L 454.906529 455.649316 
L 454.906529 439.019004 
L 404.893248 439.019004 
z
" clip-path="url(#p11db560f48)" style="fill: #ffffff; opacity: 0.7; stroke: #000000; stroke-linejoin: miter"/>
    </g>
    <g clip-path="url(#p11db560f48)">
     <!-- Joel Coen -->
     <g transform="translate(408.853248 449.817598)scale(0.09 -0.09)">
      <use xlink:href="#DejaVuSans-4a"/>
      <use xlink:href="#DejaVuSans-6f" x="29.492188"/>
      <use xlink:href="#DejaVuSans-65" x="90.673828"/>
      <use xlink:href="#DejaVuSans-6c" x="152.197266"/>
      <use xlink:href="#DejaVuSans-20" x="179.980469"/>
      <use xlink:href="#DejaVuSans-43" x="211.767578"/>
      <use xlink:href="#DejaVuSans-6f" x="281.591797"/>
      <use xlink:href="#DejaVuSans-65" x="342.773438"/>
      <use xlink:href="#DejaVuSans-6e" x="404.296875"/>
     </g>
    </g>
   </g>
   <g id="text_15">
    <g id="patch_16">
     <path d="M 452.616749 383.521616 
L 512.567999 383.521616 
L 512.567999 366.891303 
L 452.616749 366.891303 
z
" clip-path="url(#p11db560f48)" style="fill: #ffffff; opacity: 0.7; stroke: #000000; stroke-linejoin: miter"/>
    </g>
    <g clip-path="url(#p11db560f48)">
     <!-- Ethan Coen -->
     <g transform="translate(456.576749 377.689897)scale(0.09 -0.09)">
      <defs>
       <path id="DejaVuSans-45" d="M 628 4666 
L 3578 4666 
L 3578 4134 
L 1259 4134 
L 1259 2753 
L 3481 2753 
L 3481 2222 
L 1259 2222 
L 1259 531 
L 3634 531 
L 3634 0 
L 628 0 
L 628 4666 
z
" transform="scale(0.015625)"/>
      </defs>
      <use xlink:href="#DejaVuSans-45"/>
      <use xlink:href="#DejaVuSans-74" x="63.183594"/>
      <use xlink:href="#DejaVuSans-68" x="102.392578"/>
      <use xlink:href="#DejaVuSans-61" x="165.771484"/>
      <use xlink:href="#DejaVuSans-6e" x="227.050781"/>
      <use xlink:href="#DejaVuSans-20" x="290.429688"/>
      <use xlink:href="#DejaVuSans-43" x="322.216797"/>
      <use xlink:href="#DejaVuSans-6f" x="392.041016"/>
      <use xlink:href="#DejaVuSans-65" x="453.222656"/>
      <use xlink:href="#DejaVuSans-6e" x="514.746094"/>
     </g>
    </g>
   </g>
   <g id="text_16">
    <!-- Impactful directors for Crime Fiction genre -->
    <g transform="translate(160.8075 4.8)scale(0.12 -0.12)">
     <defs>
      <path id="DejaVuSans-49" d="M 628 4666 
L 1259 4666 
L 1259 0 
L 628 0 
L 628 4666 
z
" transform="scale(0.015625)"/>
      <path id="DejaVuSans-70" d="M 1159 525 
L 1159 -1331 
L 581 -1331 
L 581 3500 
L 1159 3500 
L 1159 2969 
Q 1341 3281 1617 3432 
Q 1894 3584 2278 3584 
Q 2916 3584 3314 3078 
Q 3713 2572 3713 1747 
Q 3713 922 3314 415 
Q 2916 -91 2278 -91 
Q 1894 -91 1617 61 
Q 1341 213 1159 525 
z
M 3116 1747 
Q 3116 2381 2855 2742 
Q 2594 3103 2138 3103 
Q 1681 3103 1420 2742 
Q 1159 2381 1159 1747 
Q 1159 1113 1420 752 
Q 1681 391 2138 391 
Q 2594 391 2855 752 
Q 3116 1113 3116 1747 
z
" transform="scale(0.015625)"/>
      <path id="DejaVuSans-66" d="M 2375 4863 
L 2375 4384 
L 1825 4384 
Q 1516 4384 1395 4259 
Q 1275 4134 1275 3809 
L 1275 3500 
L 2222 3500 
L 2222 3053 
L 1275 3053 
L 1275 0 
L 697 0 
L 697 3053 
L 147 3053 
L 147 3500 
L 697 3500 
L 697 3744 
Q 697 4328 969 4595 
Q 1241 4863 1831 4863 
L 2375 4863 
z
" transform="scale(0.015625)"/>
      <path id="DejaVuSans-75" d="M 544 1381 
L 544 3500 
L 1119 3500 
L 1119 1403 
Q 1119 906 1312 657 
Q 1506 409 1894 409 
Q 2359 409 2629 706 
Q 2900 1003 2900 1516 
L 2900 3500 
L 3475 3500 
L 3475 0 
L 2900 0 
L 2900 538 
Q 2691 219 2414 64 
Q 2138 -91 1772 -91 
Q 1169 -91 856 284 
Q 544 659 544 1381 
z
M 1991 3584 
L 1991 3584 
z
" transform="scale(0.015625)"/>
      <path id="DejaVuSans-67" d="M 2906 1791 
Q 2906 2416 2648 2759 
Q 2391 3103 1925 3103 
Q 1463 3103 1205 2759 
Q 947 2416 947 1791 
Q 947 1169 1205 825 
Q 1463 481 1925 481 
Q 2391 481 2648 825 
Q 2906 1169 2906 1791 
z
M 3481 434 
Q 3481 -459 3084 -895 
Q 2688 -1331 1869 -1331 
Q 1566 -1331 1297 -1286 
Q 1028 -1241 775 -1147 
L 775 -588 
Q 1028 -725 1275 -790 
Q 1522 -856 1778 -856 
Q 2344 -856 2625 -561 
Q 2906 -266 2906 331 
L 2906 616 
Q 2728 306 2450 153 
Q 2172 0 1784 0 
Q 1141 0 747 490 
Q 353 981 353 1791 
Q 353 2603 747 3093 
Q 1141 3584 1784 3584 
Q 2172 3584 2450 3431 
Q 2728 3278 2906 2969 
L 2906 3500 
L 3481 3500 
L 3481 434 
z
" transform="scale(0.015625)"/>
     </defs>
     <use xlink:href="#DejaVuSans-49"/>
     <use xlink:href="#DejaVuSans-6d" x="29.492188"/>
     <use xlink:href="#DejaVuSans-70" x="126.904297"/>
     <use xlink:href="#DejaVuSans-61" x="190.380859"/>
     <use xlink:href="#DejaVuSans-63" x="251.660156"/>
     <use xlink:href="#DejaVuSans-74" x="306.640625"/>
     <use xlink:href="#DejaVuSans-66" x="345.849609"/>
     <use xlink:href="#DejaVuSans-75" x="381.054688"/>
     <use xlink:href="#DejaVuSans-6c" x="444.433594"/>
     <use xlink:href="#DejaVuSans-20" x="472.216797"/>
     <use xlink:href="#DejaVuSans-64" x="504.003906"/>
     <use xlink:href="#DejaVuSans-69" x="567.480469"/>
     <use xlink:href="#DejaVuSans-72" x="595.263672"/>
     <use xlink:href="#DejaVuSans-65" x="634.126953"/>
     <use xlink:href="#DejaVuSans-63" x="695.650391"/>
     <use xlink:href="#DejaVuSans-74" x="750.630859"/>
     <use xlink:href="#DejaVuSans-6f" x="789.839844"/>
     <use xlink:href="#DejaVuSans-72" x="851.021484"/>
     <use xlink:href="#DejaVuSans-73" x="892.134766"/>
     <use xlink:href="#DejaVuSans-20" x="944.234375"/>
     <use xlink:href="#DejaVuSans-66" x="976.021484"/>
     <use xlink:href="#DejaVuSans-6f" x="1011.226562"/>
     <use xlink:href="#DejaVuSans-72" x="1072.408203"/>
     <use xlink:href="#DejaVuSans-20" x="1113.521484"/>
     <use xlink:href="#DejaVuSans-43" x="1145.308594"/>
     <use xlink:href="#DejaVuSans-72" x="1215.132812"/>
     <use xlink:href="#DejaVuSans-69" x="1256.246094"/>
     <use xlink:href="#DejaVuSans-6d" x="1284.029297"/>
     <use xlink:href="#DejaVuSans-65" x="1381.441406"/>
     <use xlink:href="#DejaVuSans-20" x="1442.964844"/>
     <use xlink:href="#DejaVuSans-46" x="1474.751953"/>
     <use xlink:href="#DejaVuSans-69" x="1525.021484"/>
     <use xlink:href="#DejaVuSans-63" x="1552.804688"/>
     <use xlink:href="#DejaVuSans-74" x="1607.785156"/>
     <use xlink:href="#DejaVuSans-69" x="1646.994141"/>
     <use xlink:href="#DejaVuSans-6f" x="1674.777344"/>
     <use xlink:href="#DejaVuSans-6e" x="1735.958984"/>
     <use xlink:href="#DejaVuSans-20" x="1799.337891"/>
     <use xlink:href="#DejaVuSans-67" x="1831.125"/>
     <use xlink:href="#DejaVuSans-65" x="1894.601562"/>
     <use xlink:href="#DejaVuSans-6e" x="1956.125"/>
     <use xlink:href="#DejaVuSans-72" x="2019.503906"/>
     <use xlink:href="#DejaVuSans-65" x="2058.367188"/>
    </g>
   </g>
  </g>
 </g>
 <defs>
  <clipPath id="p11db560f48">
   <rect x="10.8" y="10.8" width="554.4" height="554.4"/>
  </clipPath>
 </defs>
</svg>
