<?xml version="1.0" encoding="utf-8" standalone="no"?>
<!DOCTYPE svg PUBLIC "-//W3C//DTD SVG 1.1//EN"
  "http://www.w3.org/Graphics/SVG/1.1/DTD/svg11.dtd">
<svg xmlns:xlink="http://www.w3.org/1999/xlink" width="568.8pt" height="583.918125pt" viewBox="0 0 568.8 583.918125" xmlns="http://www.w3.org/2000/svg" version="1.1">
 <metadata>
  <rdf:RDF xmlns:dc="http://purl.org/dc/elements/1.1/" xmlns:cc="http://creativecommons.org/ns#" xmlns:rdf="http://www.w3.org/1999/02/22-rdf-syntax-ns#">
   <cc:Work>
    <dc:type rdf:resource="http://purl.org/dc/dcmitype/StillImage"/>
    <dc:date>2022-12-23T19:50:18.150424</dc:date>
    <dc:format>image/svg+xml</dc:format>
    <dc:creator>
     <cc:Agent>
      <dc:title>Matplotlib v3.5.3, https://matplotlib.org/</dc:title>
     </cc:Agent>
    </dc:creator>
   </cc:Work>
  </rdf:RDF>
 </metadata>
 <defs>
  <style type="text/css">*{stroke-linejoin: round; stroke-linecap: butt}</style>
 </defs>
 <g id="figure_1">
  <g id="patch_1">
   <path d="M 0 583.918125 
L 568.8 583.918125 
L 568.8 0 
L 0 0 
z
" style="fill: #ffffff"/>
  </g>
  <g id="axes_1">
   <g id="LineCollection_1">
    <path d="M 500.30088 288 
L 481.703099 200.793508 
" clip-path="url(#p2eaabb1ff0)" style="fill: none; stroke: #000000; stroke-opacity: 0.3; stroke-width: 5"/>
   </g>
   <g id="PathCollection_1">
    <path d="M 500.30088 315.386128 
C 507.563766 315.386128 514.530161 312.500553 519.665797 307.364917 
C 524.801433 302.229281 527.687008 295.262886 527.687008 288 
C 527.687008 280.737114 524.801433 273.770719 519.665797 268.635083 
C 514.530161 263.499447 507.563766 260.613872 500.30088 260.613872 
C 493.037994 260.613872 486.071599 263.499447 480.935963 268.635083 
C 475.800328 273.770719 472.914752 280.737114 472.914752 288 
C 472.914752 295.262886 475.800328 302.229281 480.935963 307.364917 
C 486.071599 312.500553 493.037994 315.386128 500.30088 315.386128 
z
" clip-path="url(#p2eaabb1ff0)" style="fill: #c70039; fill-opacity: 0.99; stroke: #c70039; stroke-opacity: 0.99"/>
    <path d="M 481.703099 227.539622 
C 488.796252 227.539622 495.599842 224.721483 500.615458 219.705867 
C 505.631074 214.690251 508.449213 207.886661 508.449213 200.793508 
C 508.449213 193.700356 505.631074 186.896766 500.615458 181.88115 
C 495.599842 176.865534 488.796252 174.047395 481.703099 174.047395 
C 474.609947 174.047395 467.806357 176.865534 462.790741 181.88115 
C 457.775125 186.896766 454.956986 193.700356 454.956986 200.793508 
C 454.956986 207.886661 457.775125 214.690251 462.790741 219.705867 
C 467.806357 224.721483 474.609947 227.539622 481.703099 227.539622 
z
" clip-path="url(#p2eaabb1ff0)" style="fill: #c70039; fill-opacity: 0.99; stroke: #c70039; stroke-opacity: 0.99"/>
    <path d="M 429.125496 154.462908 
C 435.966969 154.462908 442.529154 151.744762 447.366805 146.907111 
C 452.204457 142.069459 454.922603 135.507274 454.922603 128.665802 
C 454.922603 121.824329 452.204457 115.262144 447.366805 110.424493 
C 442.529154 105.586841 435.966969 102.868695 429.125496 102.868695 
C 422.284023 102.868695 415.721839 105.586841 410.884187 110.424493 
C 406.046535 115.262144 403.328389 121.824329 403.328389 128.665802 
C 403.328389 135.507274 406.046535 142.069459 410.884187 146.907111 
C 415.721839 151.744762 422.284023 154.462908 429.125496 154.462908 
z
" clip-path="url(#p2eaabb1ff0)" style="fill: #c70039; fill-opacity: 0.99; stroke: #c70039; stroke-opacity: 0.99"/>
    <path d="M 351.65922 109.808079 
C 358.480148 109.808079 365.022628 107.098095 369.845752 102.27497 
C 374.668877 97.451845 377.378861 90.909366 377.378861 84.088438 
C 377.378861 77.267509 374.668877 70.72503 369.845752 65.901905 
C 365.022628 61.07878 358.480148 58.368797 351.65922 58.368797 
C 344.838291 58.368797 338.295812 61.07878 333.472688 65.901905 
C 328.649563 70.72503 325.939579 77.267509 325.939579 84.088438 
C 325.939579 90.909366 328.649563 97.451845 333.472688 102.27497 
C 338.295812 107.098095 344.838291 109.808079 351.65922 109.808079 
z
" clip-path="url(#p2eaabb1ff0)" style="fill: #c70039; fill-opacity: 0.99; stroke: #c70039; stroke-opacity: 0.99"/>
    <path d="M 262.698877 97.703801 
C 268.781196 97.703801 274.615218 95.28727 278.916067 90.986421 
C 283.216917 86.685572 285.633448 80.85155 285.633448 74.769231 
C 285.633448 68.686912 283.216917 62.85289 278.916067 58.55204 
C 274.615218 54.251191 268.781196 51.83466 262.698877 51.83466 
C 256.616558 51.83466 250.782536 54.251191 246.481687 58.55204 
C 242.180838 62.85289 239.764307 68.686912 239.764307 74.769231 
C 239.764307 80.85155 242.180838 86.685572 246.481687 90.986421 
C 250.782536 95.28727 256.616558 97.703801 262.698877 97.703801 
z
" clip-path="url(#p2eaabb1ff0)" style="fill: #c70039; fill-opacity: 0.99; stroke: #c70039; stroke-opacity: 0.99"/>
    <path d="M 177.62653 125.190535 
C 183.691982 125.190535 189.509825 122.780705 193.798746 118.491784 
C 198.087668 114.202862 200.497498 108.385019 200.497498 102.319567 
C 200.497498 96.254116 198.087668 90.436273 193.798746 86.147351 
C 189.509825 81.858429 183.691982 79.4486 177.62653 79.4486 
C 171.561079 79.4486 165.743236 81.858429 161.454314 86.147351 
C 157.165392 90.436273 154.755563 96.254116 154.755563 102.319567 
C 154.755563 108.385019 157.165392 114.202862 161.454314 118.491784 
C 165.743236 122.780705 171.561079 125.190535 177.62653 125.190535 
z
" clip-path="url(#p2eaabb1ff0)" style="fill: #c70039; fill-opacity: 0.99; stroke: #c70039; stroke-opacity: 0.99"/>
    <path d="M 111.151972 184.213894 
C 117.049602 184.213894 122.706475 181.870741 126.87673 177.700486 
C 131.046984 173.530232 133.390137 167.873359 133.390137 161.975729 
C 133.390137 156.078098 131.046984 150.421226 126.87673 146.250971 
C 122.706475 142.080717 117.049602 139.737563 111.151972 139.737563 
C 105.254342 139.737563 99.597469 142.080717 95.427214 146.250971 
C 91.25696 150.421226 88.913807 156.078098 88.913807 161.975729 
C 88.913807 167.873359 91.25696 173.530232 95.427214 177.700486 
C 99.597469 181.870741 105.254342 184.213894 111.151972 184.213894 
z
" clip-path="url(#p2eaabb1ff0)" style="fill: #c70039; fill-opacity: 0.99; stroke: #c70039; stroke-opacity: 0.99"/>
    <path d="M 74.769231 264.931933 
C 80.47356 264.931933 85.945022 262.665579 89.978592 258.63201 
C 94.012161 254.59844 96.278515 249.126978 96.278515 243.422649 
C 96.278515 237.71832 94.012161 232.246858 89.978592 228.213288 
C 85.945022 224.179718 80.47356 221.913364 74.769231 221.913364 
C 69.064902 221.913364 63.59344 224.179718 59.55987 228.213288 
C 55.5263 232.246858 53.259946 237.71832 53.259946 243.422649 
C 53.259946 249.126978 55.5263 254.59844 59.55987 258.63201 
C 63.59344 262.665579 69.064902 264.931933 74.769231 264.931933 
z
" clip-path="url(#p2eaabb1ff0)" style="fill: #c70039; fill-opacity: 0.99; stroke: #c70039; stroke-opacity: 0.99"/>
    <path d="M 74.769244 354.078528 
C 80.471412 354.078528 85.940802 351.813033 89.972845 347.780991 
C 94.004887 343.748948 96.270382 338.279558 96.270382 332.577389 
C 96.270382 326.875221 94.004887 321.405831 89.972845 317.373788 
C 85.940802 313.341746 80.471412 311.076251 74.769244 311.076251 
C 69.067075 311.076251 63.597685 313.341746 59.565643 317.373788 
C 55.5336 321.405831 53.268105 326.875221 53.268105 332.577389 
C 53.268105 338.279558 55.5336 343.748948 59.565643 347.780991 
C 63.597685 351.813033 69.067075 354.078528 74.769244 354.078528 
z
" clip-path="url(#p2eaabb1ff0)" style="fill: #c70039; fill-opacity: 0.99; stroke: #c70039; stroke-opacity: 0.99"/>
    <path d="M 111.151985 435.394673 
C 116.819478 435.394673 122.255609 433.142954 126.263132 429.135431 
C 130.270655 425.127908 132.522374 419.691777 132.522374 414.024284 
C 132.522374 408.356791 130.270655 402.92066 126.263132 398.913137 
C 122.255609 394.905614 116.819478 392.653895 111.151985 392.653895 
C 105.484491 392.653895 100.048361 394.905614 96.040838 398.913137 
C 92.033315 402.92066 89.781596 408.356791 89.781596 414.024284 
C 89.781596 419.691777 92.033315 425.127908 96.040838 429.135431 
C 100.048361 433.142954 105.484491 435.394673 111.151985 435.394673 
z
" clip-path="url(#p2eaabb1ff0)" style="fill: #c70039; fill-opacity: 0.99; stroke: #c70039; stroke-opacity: 0.99"/>
    <path d="M 177.626562 494.653905 
C 183.188789 494.653905 188.52395 492.444009 192.457038 488.510921 
C 196.390126 484.577833 198.600022 479.242672 198.600022 473.680446 
C 198.600022 468.118219 196.390126 462.783058 192.457038 458.84997 
C 188.52395 454.916882 183.188789 452.706986 177.626562 452.706986 
C 172.064336 452.706986 166.729175 454.916882 162.796086 458.84997 
C 158.862998 462.783058 156.653102 468.118219 156.653102 473.680446 
C 156.653102 479.242672 158.862998 484.577833 162.796086 488.510921 
C 166.729175 492.444009 172.064336 494.653905 177.626562 494.653905 
z
" clip-path="url(#p2eaabb1ff0)" style="fill: #c70039; fill-opacity: 0.99; stroke: #c70039; stroke-opacity: 0.99"/>
    <path d="M 262.698916 522.024792 
C 268.213555 522.024792 273.503071 519.833803 277.40251 515.934364 
C 281.301949 512.034925 283.492939 506.745409 283.492939 501.230769 
C 283.492939 495.71613 281.301949 490.426613 277.40251 486.527175 
C 273.503071 482.627736 268.213555 480.436746 262.698916 480.436746 
C 257.184276 480.436746 251.89476 482.627736 247.995321 486.527175 
C 244.095882 490.426613 241.904893 495.71613 241.904893 501.230769 
C 241.904893 506.745409 244.095882 512.034925 247.995321 515.934364 
C 251.89476 519.833803 257.184276 522.024792 262.698916 522.024792 
z
" clip-path="url(#p2eaabb1ff0)" style="fill: #c70039; fill-opacity: 0.99; stroke: #c70039; stroke-opacity: 0.99"/>
    <path d="M 351.659252 511.613331 
C 356.884225 511.613331 361.895901 509.537427 365.590515 505.842813 
C 369.285129 502.148198 371.361033 497.136523 371.361033 491.91155 
C 371.361033 486.686576 369.285129 481.674901 365.590515 477.980286 
C 361.895901 474.285672 356.884225 472.209768 351.659252 472.209768 
C 346.434279 472.209768 341.422603 474.285672 337.727989 477.980286 
C 334.033375 481.674901 331.957471 486.686576 331.957471 491.91155 
C 331.957471 497.136523 334.033375 502.148198 337.727989 505.842813 
C 341.422603 509.537427 346.434279 511.613331 351.659252 511.613331 
z
" clip-path="url(#p2eaabb1ff0)" style="fill: #c70039; fill-opacity: 0.99; stroke: #c70039; stroke-opacity: 0.99"/>
    <path d="M 429.125535 466.843624 
C 434.299505 466.843624 439.26226 464.787984 442.920809 461.129435 
C 446.579359 457.470885 448.634999 452.50813 448.634999 447.33416 
C 448.634999 442.16019 446.579359 437.197435 442.920809 433.538885 
C 439.26226 429.880336 434.299505 427.824696 429.125535 427.824696 
C 423.951564 427.824696 418.98881 429.880336 415.33026 433.538885 
C 411.67171 437.197435 409.61607 442.16019 409.61607 447.33416 
C 409.61607 452.50813 411.67171 457.470885 415.33026 461.129435 
C 418.98881 464.787984 423.951564 466.843624 429.125535 466.843624 
z
" clip-path="url(#p2eaabb1ff0)" style="fill: #c70039; fill-opacity: 0.99; stroke: #c70039; stroke-opacity: 0.99"/>
    <path d="M 481.703125 394.571376 
C 486.838761 394.571376 491.764746 392.530967 495.396189 388.899524 
C 499.027632 385.268081 501.068042 380.342096 501.068042 375.20646 
C 501.068042 370.070824 499.027632 365.144839 495.396189 361.513396 
C 491.764746 357.881953 486.838761 355.841543 481.703125 355.841543 
C 476.567489 355.841543 471.641504 357.881953 468.010061 361.513396 
C 464.378618 365.144839 462.338208 370.070824 462.338208 375.20646 
C 462.338208 380.342096 464.378618 385.268081 468.010061 388.899524 
C 471.641504 392.530967 476.567489 394.571376 481.703125 394.571376 
z
" clip-path="url(#p2eaabb1ff0)" style="fill: #c70039; fill-opacity: 0.99; stroke: #c70039; stroke-opacity: 0.99"/>
   </g>
   <g id="text_1">
    <g id="patch_2">
     <path d="M 463.817833 296.315156 
L 536.783927 296.315156 
L 536.783927 279.684844 
L 463.817833 279.684844 
z
" clip-path="url(#p2eaabb1ff0)" style="fill: #ffffff; opacity: 0.7; stroke: #000000; stroke-linejoin: miter"/>
    </g>
    <g clip-path="url(#p2eaabb1ff0)">
     <!-- William Hanna -->
     <g transform="translate(467.777833 290.483437)scale(0.09 -0.09)">
      <defs>
       <path id="DejaVuSans-57" d="M 213 4666 
L 850 4666 
L 1831 722 
L 2809 4666 
L 3519 4666 
L 4500 722 
L 5478 4666 
L 6119 4666 
L 4947 0 
L 4153 0 
L 3169 4050 
L 2175 0 
L 1381 0 
L 213 4666 
z
" transform="scale(0.015625)"/>
       <path id="DejaVuSans-69" d="M 603 3500 
L 1178 3500 
L 1178 0 
L 603 0 
L 603 3500 
z
M 603 4863 
L 1178 4863 
L 1178 4134 
L 603 4134 
L 603 4863 
z
" transform="scale(0.015625)"/>
       <path id="DejaVuSans-6c" d="M 603 4863 
L 1178 4863 
L 1178 0 
L 603 0 
L 603 4863 
z
" transform="scale(0.015625)"/>
       <path id="DejaVuSans-61" d="M 2194 1759 
Q 1497 1759 1228 1600 
Q 959 1441 959 1056 
Q 959 750 1161 570 
Q 1363 391 1709 391 
Q 2188 391 2477 730 
Q 2766 1069 2766 1631 
L 2766 1759 
L 2194 1759 
z
M 3341 1997 
L 3341 0 
L 2766 0 
L 2766 531 
Q 2569 213 2275 61 
Q 1981 -91 1556 -91 
Q 1019 -91 701 211 
Q 384 513 384 1019 
Q 384 1609 779 1909 
Q 1175 2209 1959 2209 
L 2766 2209 
L 2766 2266 
Q 2766 2663 2505 2880 
Q 2244 3097 1772 3097 
Q 1472 3097 1187 3025 
Q 903 2953 641 2809 
L 641 3341 
Q 956 3463 1253 3523 
Q 1550 3584 1831 3584 
Q 2591 3584 2966 3190 
Q 3341 2797 3341 1997 
z
" transform="scale(0.015625)"/>
       <path id="DejaVuSans-6d" d="M 3328 2828 
Q 3544 3216 3844 3400 
Q 4144 3584 4550 3584 
Q 5097 3584 5394 3201 
Q 5691 2819 5691 2113 
L 5691 0 
L 5113 0 
L 5113 2094 
Q 5113 2597 4934 2840 
Q 4756 3084 4391 3084 
Q 3944 3084 3684 2787 
Q 3425 2491 3425 1978 
L 3425 0 
L 2847 0 
L 2847 2094 
Q 2847 2600 2669 2842 
Q 2491 3084 2119 3084 
Q 1678 3084 1418 2786 
Q 1159 2488 1159 1978 
L 1159 0 
L 581 0 
L 581 3500 
L 1159 3500 
L 1159 2956 
Q 1356 3278 1631 3431 
Q 1906 3584 2284 3584 
Q 2666 3584 2933 3390 
Q 3200 3197 3328 2828 
z
" transform="scale(0.015625)"/>
       <path id="DejaVuSans-20" transform="scale(0.015625)"/>
       <path id="DejaVuSans-48" d="M 628 4666 
L 1259 4666 
L 1259 2753 
L 3553 2753 
L 3553 4666 
L 4184 4666 
L 4184 0 
L 3553 0 
L 3553 2222 
L 1259 2222 
L 1259 0 
L 628 0 
L 628 4666 
z
" transform="scale(0.015625)"/>
       <path id="DejaVuSans-6e" d="M 3513 2113 
L 3513 0 
L 2938 0 
L 2938 2094 
Q 2938 2591 2744 2837 
Q 2550 3084 2163 3084 
Q 1697 3084 1428 2787 
Q 1159 2491 1159 1978 
L 1159 0 
L 581 0 
L 581 3500 
L 1159 3500 
L 1159 2956 
Q 1366 3272 1645 3428 
Q 1925 3584 2291 3584 
Q 2894 3584 3203 3211 
Q 3513 2838 3513 2113 
z
" transform="scale(0.015625)"/>
      </defs>
      <use xlink:href="#DejaVuSans-57"/>
      <use xlink:href="#DejaVuSans-69" x="96.626953"/>
      <use xlink:href="#DejaVuSans-6c" x="124.410156"/>
      <use xlink:href="#DejaVuSans-6c" x="152.193359"/>
      <use xlink:href="#DejaVuSans-69" x="179.976562"/>
      <use xlink:href="#DejaVuSans-61" x="207.759766"/>
      <use xlink:href="#DejaVuSans-6d" x="269.039062"/>
      <use xlink:href="#DejaVuSans-20" x="366.451172"/>
      <use xlink:href="#DejaVuSans-48" x="398.238281"/>
      <use xlink:href="#DejaVuSans-61" x="473.433594"/>
      <use xlink:href="#DejaVuSans-6e" x="534.712891"/>
      <use xlink:href="#DejaVuSans-6e" x="598.091797"/>
      <use xlink:href="#DejaVuSans-61" x="661.470703"/>
     </g>
    </g>
   </g>
   <g id="text_2">
    <g id="patch_3">
     <path d="M 443.481928 209.108665 
L 519.924271 209.108665 
L 519.924271 192.478352 
L 443.481928 192.478352 
z
" clip-path="url(#p2eaabb1ff0)" style="fill: #ffffff; opacity: 0.7; stroke: #000000; stroke-linejoin: miter"/>
    </g>
    <g clip-path="url(#p2eaabb1ff0)">
     <!-- Joseph Barbera -->
     <g transform="translate(447.441928 203.276946)scale(0.09 -0.09)">
      <defs>
       <path id="DejaVuSans-4a" d="M 628 4666 
L 1259 4666 
L 1259 325 
Q 1259 -519 939 -900 
Q 619 -1281 -91 -1281 
L -331 -1281 
L -331 -750 
L -134 -750 
Q 284 -750 456 -515 
Q 628 -281 628 325 
L 628 4666 
z
" transform="scale(0.015625)"/>
       <path id="DejaVuSans-6f" d="M 1959 3097 
Q 1497 3097 1228 2736 
Q 959 2375 959 1747 
Q 959 1119 1226 758 
Q 1494 397 1959 397 
Q 2419 397 2687 759 
Q 2956 1122 2956 1747 
Q 2956 2369 2687 2733 
Q 2419 3097 1959 3097 
z
M 1959 3584 
Q 2709 3584 3137 3096 
Q 3566 2609 3566 1747 
Q 3566 888 3137 398 
Q 2709 -91 1959 -91 
Q 1206 -91 779 398 
Q 353 888 353 1747 
Q 353 2609 779 3096 
Q 1206 3584 1959 3584 
z
" transform="scale(0.015625)"/>
       <path id="DejaVuSans-73" d="M 2834 3397 
L 2834 2853 
Q 2591 2978 2328 3040 
Q 2066 3103 1784 3103 
Q 1356 3103 1142 2972 
Q 928 2841 928 2578 
Q 928 2378 1081 2264 
Q 1234 2150 1697 2047 
L 1894 2003 
Q 2506 1872 2764 1633 
Q 3022 1394 3022 966 
Q 3022 478 2636 193 
Q 2250 -91 1575 -91 
Q 1294 -91 989 -36 
Q 684 19 347 128 
L 347 722 
Q 666 556 975 473 
Q 1284 391 1588 391 
Q 1994 391 2212 530 
Q 2431 669 2431 922 
Q 2431 1156 2273 1281 
Q 2116 1406 1581 1522 
L 1381 1569 
Q 847 1681 609 1914 
Q 372 2147 372 2553 
Q 372 3047 722 3315 
Q 1072 3584 1716 3584 
Q 2034 3584 2315 3537 
Q 2597 3491 2834 3397 
z
" transform="scale(0.015625)"/>
       <path id="DejaVuSans-65" d="M 3597 1894 
L 3597 1613 
L 953 1613 
Q 991 1019 1311 708 
Q 1631 397 2203 397 
Q 2534 397 2845 478 
Q 3156 559 3463 722 
L 3463 178 
Q 3153 47 2828 -22 
Q 2503 -91 2169 -91 
Q 1331 -91 842 396 
Q 353 884 353 1716 
Q 353 2575 817 3079 
Q 1281 3584 2069 3584 
Q 2775 3584 3186 3129 
Q 3597 2675 3597 1894 
z
M 3022 2063 
Q 3016 2534 2758 2815 
Q 2500 3097 2075 3097 
Q 1594 3097 1305 2825 
Q 1016 2553 972 2059 
L 3022 2063 
z
" transform="scale(0.015625)"/>
       <path id="DejaVuSans-70" d="M 1159 525 
L 1159 -1331 
L 581 -1331 
L 581 3500 
L 1159 3500 
L 1159 2969 
Q 1341 3281 1617 3432 
Q 1894 3584 2278 3584 
Q 2916 3584 3314 3078 
Q 3713 2572 3713 1747 
Q 3713 922 3314 415 
Q 2916 -91 2278 -91 
Q 1894 -91 1617 61 
Q 1341 213 1159 525 
z
M 3116 1747 
Q 3116 2381 2855 2742 
Q 2594 3103 2138 3103 
Q 1681 3103 1420 2742 
Q 1159 2381 1159 1747 
Q 1159 1113 1420 752 
Q 1681 391 2138 391 
Q 2594 391 2855 752 
Q 3116 1113 3116 1747 
z
" transform="scale(0.015625)"/>
       <path id="DejaVuSans-68" d="M 3513 2113 
L 3513 0 
L 2938 0 
L 2938 2094 
Q 2938 2591 2744 2837 
Q 2550 3084 2163 3084 
Q 1697 3084 1428 2787 
Q 1159 2491 1159 1978 
L 1159 0 
L 581 0 
L 581 4863 
L 1159 4863 
L 1159 2956 
Q 1366 3272 1645 3428 
Q 1925 3584 2291 3584 
Q 2894 3584 3203 3211 
Q 3513 2838 3513 2113 
z
" transform="scale(0.015625)"/>
       <path id="DejaVuSans-42" d="M 1259 2228 
L 1259 519 
L 2272 519 
Q 2781 519 3026 730 
Q 3272 941 3272 1375 
Q 3272 1813 3026 2020 
Q 2781 2228 2272 2228 
L 1259 2228 
z
M 1259 4147 
L 1259 2741 
L 2194 2741 
Q 2656 2741 2882 2914 
Q 3109 3088 3109 3444 
Q 3109 3797 2882 3972 
Q 2656 4147 2194 4147 
L 1259 4147 
z
M 628 4666 
L 2241 4666 
Q 2963 4666 3353 4366 
Q 3744 4066 3744 3513 
Q 3744 3084 3544 2831 
Q 3344 2578 2956 2516 
Q 3422 2416 3680 2098 
Q 3938 1781 3938 1306 
Q 3938 681 3513 340 
Q 3088 0 2303 0 
L 628 0 
L 628 4666 
z
" transform="scale(0.015625)"/>
       <path id="DejaVuSans-72" d="M 2631 2963 
Q 2534 3019 2420 3045 
Q 2306 3072 2169 3072 
Q 1681 3072 1420 2755 
Q 1159 2438 1159 1844 
L 1159 0 
L 581 0 
L 581 3500 
L 1159 3500 
L 1159 2956 
Q 1341 3275 1631 3429 
Q 1922 3584 2338 3584 
Q 2397 3584 2469 3576 
Q 2541 3569 2628 3553 
L 2631 2963 
z
" transform="scale(0.015625)"/>
       <path id="DejaVuSans-62" d="M 3116 1747 
Q 3116 2381 2855 2742 
Q 2594 3103 2138 3103 
Q 1681 3103 1420 2742 
Q 1159 2381 1159 1747 
Q 1159 1113 1420 752 
Q 1681 391 2138 391 
Q 2594 391 2855 752 
Q 3116 1113 3116 1747 
z
M 1159 2969 
Q 1341 3281 1617 3432 
Q 1894 3584 2278 3584 
Q 2916 3584 3314 3078 
Q 3713 2572 3713 1747 
Q 3713 922 3314 415 
Q 2916 -91 2278 -91 
Q 1894 -91 1617 61 
Q 1341 213 1159 525 
L 1159 0 
L 581 0 
L 581 4863 
L 1159 4863 
L 1159 2969 
z
" transform="scale(0.015625)"/>
      </defs>
      <use xlink:href="#DejaVuSans-4a"/>
      <use xlink:href="#DejaVuSans-6f" x="29.492188"/>
      <use xlink:href="#DejaVuSans-73" x="90.673828"/>
      <use xlink:href="#DejaVuSans-65" x="142.773438"/>
      <use xlink:href="#DejaVuSans-70" x="204.296875"/>
      <use xlink:href="#DejaVuSans-68" x="267.773438"/>
      <use xlink:href="#DejaVuSans-20" x="331.152344"/>
      <use xlink:href="#DejaVuSans-42" x="362.939453"/>
      <use xlink:href="#DejaVuSans-61" x="431.542969"/>
      <use xlink:href="#DejaVuSans-72" x="492.822266"/>
      <use xlink:href="#DejaVuSans-62" x="533.935547"/>
      <use xlink:href="#DejaVuSans-65" x="597.412109"/>
      <use xlink:href="#DejaVuSans-72" x="658.935547"/>
      <use xlink:href="#DejaVuSans-61" x="700.048828"/>
     </g>
    </g>
   </g>
   <g id="text_3">
    <g id="patch_4">
     <path d="M 381.938777 136.980958 
L 476.312215 136.980958 
L 476.312215 120.350645 
L 381.938777 120.350645 
z
" clip-path="url(#p2eaabb1ff0)" style="fill: #ffffff; opacity: 0.7; stroke: #000000; stroke-linejoin: miter"/>
    </g>
    <g clip-path="url(#p2eaabb1ff0)">
     <!-- William A. Wellman -->
     <g transform="translate(385.898777 131.149239)scale(0.09 -0.09)">
      <defs>
       <path id="DejaVuSans-41" d="M 2188 4044 
L 1331 1722 
L 3047 1722 
L 2188 4044 
z
M 1831 4666 
L 2547 4666 
L 4325 0 
L 3669 0 
L 3244 1197 
L 1141 1197 
L 716 0 
L 50 0 
L 1831 4666 
z
" transform="scale(0.015625)"/>
       <path id="DejaVuSans-2e" d="M 684 794 
L 1344 794 
L 1344 0 
L 684 0 
L 684 794 
z
" transform="scale(0.015625)"/>
      </defs>
      <use xlink:href="#DejaVuSans-57"/>
      <use xlink:href="#DejaVuSans-69" x="96.626953"/>
      <use xlink:href="#DejaVuSans-6c" x="124.410156"/>
      <use xlink:href="#DejaVuSans-6c" x="152.193359"/>
      <use xlink:href="#DejaVuSans-69" x="179.976562"/>
      <use xlink:href="#DejaVuSans-61" x="207.759766"/>
      <use xlink:href="#DejaVuSans-6d" x="269.039062"/>
      <use xlink:href="#DejaVuSans-20" x="366.451172"/>
      <use xlink:href="#DejaVuSans-41" x="398.238281"/>
      <use xlink:href="#DejaVuSans-2e" x="464.896484"/>
      <use xlink:href="#DejaVuSans-20" x="496.683594"/>
      <use xlink:href="#DejaVuSans-57" x="528.470703"/>
      <use xlink:href="#DejaVuSans-65" x="621.472656"/>
      <use xlink:href="#DejaVuSans-6c" x="682.996094"/>
      <use xlink:href="#DejaVuSans-6c" x="710.779297"/>
      <use xlink:href="#DejaVuSans-6d" x="738.5625"/>
      <use xlink:href="#DejaVuSans-61" x="835.974609"/>
      <use xlink:href="#DejaVuSans-6e" x="897.253906"/>
     </g>
    </g>
   </g>
   <g id="text_4">
    <g id="patch_5">
     <path d="M 323.447032 92.403594 
L 379.871407 92.403594 
L 379.871407 75.773281 
L 323.447032 75.773281 
z
" clip-path="url(#p2eaabb1ff0)" style="fill: #ffffff; opacity: 0.7; stroke: #000000; stroke-linejoin: miter"/>
    </g>
    <g clip-path="url(#p2eaabb1ff0)">
     <!-- Don Siegel -->
     <g transform="translate(327.407032 86.571875)scale(0.09 -0.09)">
      <defs>
       <path id="DejaVuSans-44" d="M 1259 4147 
L 1259 519 
L 2022 519 
Q 2988 519 3436 956 
Q 3884 1394 3884 2338 
Q 3884 3275 3436 3711 
Q 2988 4147 2022 4147 
L 1259 4147 
z
M 628 4666 
L 1925 4666 
Q 3281 4666 3915 4102 
Q 4550 3538 4550 2338 
Q 4550 1131 3912 565 
Q 3275 0 1925 0 
L 628 0 
L 628 4666 
z
" transform="scale(0.015625)"/>
       <path id="DejaVuSans-53" d="M 3425 4513 
L 3425 3897 
Q 3066 4069 2747 4153 
Q 2428 4238 2131 4238 
Q 1616 4238 1336 4038 
Q 1056 3838 1056 3469 
Q 1056 3159 1242 3001 
Q 1428 2844 1947 2747 
L 2328 2669 
Q 3034 2534 3370 2195 
Q 3706 1856 3706 1288 
Q 3706 609 3251 259 
Q 2797 -91 1919 -91 
Q 1588 -91 1214 -16 
Q 841 59 441 206 
L 441 856 
Q 825 641 1194 531 
Q 1563 422 1919 422 
Q 2459 422 2753 634 
Q 3047 847 3047 1241 
Q 3047 1584 2836 1778 
Q 2625 1972 2144 2069 
L 1759 2144 
Q 1053 2284 737 2584 
Q 422 2884 422 3419 
Q 422 4038 858 4394 
Q 1294 4750 2059 4750 
Q 2388 4750 2728 4690 
Q 3069 4631 3425 4513 
z
" transform="scale(0.015625)"/>
       <path id="DejaVuSans-67" d="M 2906 1791 
Q 2906 2416 2648 2759 
Q 2391 3103 1925 3103 
Q 1463 3103 1205 2759 
Q 947 2416 947 1791 
Q 947 1169 1205 825 
Q 1463 481 1925 481 
Q 2391 481 2648 825 
Q 2906 1169 2906 1791 
z
M 3481 434 
Q 3481 -459 3084 -895 
Q 2688 -1331 1869 -1331 
Q 1566 -1331 1297 -1286 
Q 1028 -1241 775 -1147 
L 775 -588 
Q 1028 -725 1275 -790 
Q 1522 -856 1778 -856 
Q 2344 -856 2625 -561 
Q 2906 -266 2906 331 
L 2906 616 
Q 2728 306 2450 153 
Q 2172 0 1784 0 
Q 1141 0 747 490 
Q 353 981 353 1791 
Q 353 2603 747 3093 
Q 1141 3584 1784 3584 
Q 2172 3584 2450 3431 
Q 2728 3278 2906 2969 
L 2906 3500 
L 3481 3500 
L 3481 434 
z
" transform="scale(0.015625)"/>
      </defs>
      <use xlink:href="#DejaVuSans-44"/>
      <use xlink:href="#DejaVuSans-6f" x="77.001953"/>
      <use xlink:href="#DejaVuSans-6e" x="138.183594"/>
      <use xlink:href="#DejaVuSans-20" x="201.5625"/>
      <use xlink:href="#DejaVuSans-53" x="233.349609"/>
      <use xlink:href="#DejaVuSans-69" x="296.826172"/>
      <use xlink:href="#DejaVuSans-65" x="324.609375"/>
      <use xlink:href="#DejaVuSans-67" x="386.132812"/>
      <use xlink:href="#DejaVuSans-65" x="449.609375"/>
      <use xlink:href="#DejaVuSans-6c" x="511.132812"/>
     </g>
    </g>
   </g>
   <g id="text_5">
    <g id="patch_6">
     <path d="M 220.245596 83.084387 
L 305.152158 83.084387 
L 305.152158 66.454075 
L 220.245596 66.454075 
z
" clip-path="url(#p2eaabb1ff0)" style="fill: #ffffff; opacity: 0.7; stroke: #000000; stroke-linejoin: miter"/>
    </g>
    <g clip-path="url(#p2eaabb1ff0)">
     <!-- Vincente Minnelli -->
     <g transform="translate(224.205596 77.252668)scale(0.09 -0.09)">
      <defs>
       <path id="DejaVuSans-56" d="M 1831 0 
L 50 4666 
L 709 4666 
L 2188 738 
L 3669 4666 
L 4325 4666 
L 2547 0 
L 1831 0 
z
" transform="scale(0.015625)"/>
       <path id="DejaVuSans-63" d="M 3122 3366 
L 3122 2828 
Q 2878 2963 2633 3030 
Q 2388 3097 2138 3097 
Q 1578 3097 1268 2742 
Q 959 2388 959 1747 
Q 959 1106 1268 751 
Q 1578 397 2138 397 
Q 2388 397 2633 464 
Q 2878 531 3122 666 
L 3122 134 
Q 2881 22 2623 -34 
Q 2366 -91 2075 -91 
Q 1284 -91 818 406 
Q 353 903 353 1747 
Q 353 2603 823 3093 
Q 1294 3584 2113 3584 
Q 2378 3584 2631 3529 
Q 2884 3475 3122 3366 
z
" transform="scale(0.015625)"/>
       <path id="DejaVuSans-74" d="M 1172 4494 
L 1172 3500 
L 2356 3500 
L 2356 3053 
L 1172 3053 
L 1172 1153 
Q 1172 725 1289 603 
Q 1406 481 1766 481 
L 2356 481 
L 2356 0 
L 1766 0 
Q 1100 0 847 248 
Q 594 497 594 1153 
L 594 3053 
L 172 3053 
L 172 3500 
L 594 3500 
L 594 4494 
L 1172 4494 
z
" transform="scale(0.015625)"/>
       <path id="DejaVuSans-4d" d="M 628 4666 
L 1569 4666 
L 2759 1491 
L 3956 4666 
L 4897 4666 
L 4897 0 
L 4281 0 
L 4281 4097 
L 3078 897 
L 2444 897 
L 1241 4097 
L 1241 0 
L 628 0 
L 628 4666 
z
" transform="scale(0.015625)"/>
      </defs>
      <use xlink:href="#DejaVuSans-56"/>
      <use xlink:href="#DejaVuSans-69" x="66.158203"/>
      <use xlink:href="#DejaVuSans-6e" x="93.941406"/>
      <use xlink:href="#DejaVuSans-63" x="157.320312"/>
      <use xlink:href="#DejaVuSans-65" x="212.300781"/>
      <use xlink:href="#DejaVuSans-6e" x="273.824219"/>
      <use xlink:href="#DejaVuSans-74" x="337.203125"/>
      <use xlink:href="#DejaVuSans-65" x="376.412109"/>
      <use xlink:href="#DejaVuSans-20" x="437.935547"/>
      <use xlink:href="#DejaVuSans-4d" x="469.722656"/>
      <use xlink:href="#DejaVuSans-69" x="556.001953"/>
      <use xlink:href="#DejaVuSans-6e" x="583.785156"/>
      <use xlink:href="#DejaVuSans-6e" x="647.164062"/>
      <use xlink:href="#DejaVuSans-65" x="710.542969"/>
      <use xlink:href="#DejaVuSans-6c" x="772.066406"/>
      <use xlink:href="#DejaVuSans-6c" x="799.849609"/>
      <use xlink:href="#DejaVuSans-69" x="827.632812"/>
     </g>
    </g>
   </g>
   <g id="text_6">
    <g id="patch_7">
     <path d="M 136.015593 110.634724 
L 219.237468 110.634724 
L 219.237468 94.004411 
L 136.015593 94.004411 
z
" clip-path="url(#p2eaabb1ff0)" style="fill: #ffffff; opacity: 0.7; stroke: #000000; stroke-linejoin: miter"/>
    </g>
    <g clip-path="url(#p2eaabb1ff0)">
     <!-- Joel Schumacher -->
     <g transform="translate(139.975593 104.803005)scale(0.09 -0.09)">
      <defs>
       <path id="DejaVuSans-75" d="M 544 1381 
L 544 3500 
L 1119 3500 
L 1119 1403 
Q 1119 906 1312 657 
Q 1506 409 1894 409 
Q 2359 409 2629 706 
Q 2900 1003 2900 1516 
L 2900 3500 
L 3475 3500 
L 3475 0 
L 2900 0 
L 2900 538 
Q 2691 219 2414 64 
Q 2138 -91 1772 -91 
Q 1169 -91 856 284 
Q 544 659 544 1381 
z
M 1991 3584 
L 1991 3584 
z
" transform="scale(0.015625)"/>
      </defs>
      <use xlink:href="#DejaVuSans-4a"/>
      <use xlink:href="#DejaVuSans-6f" x="29.492188"/>
      <use xlink:href="#DejaVuSans-65" x="90.673828"/>
      <use xlink:href="#DejaVuSans-6c" x="152.197266"/>
      <use xlink:href="#DejaVuSans-20" x="179.980469"/>
      <use xlink:href="#DejaVuSans-53" x="211.767578"/>
      <use xlink:href="#DejaVuSans-63" x="275.244141"/>
      <use xlink:href="#DejaVuSans-68" x="330.224609"/>
      <use xlink:href="#DejaVuSans-75" x="393.603516"/>
      <use xlink:href="#DejaVuSans-6d" x="456.982422"/>
      <use xlink:href="#DejaVuSans-61" x="554.394531"/>
      <use xlink:href="#DejaVuSans-63" x="615.673828"/>
      <use xlink:href="#DejaVuSans-68" x="670.654297"/>
      <use xlink:href="#DejaVuSans-65" x="734.033203"/>
      <use xlink:href="#DejaVuSans-72" x="795.556641"/>
     </g>
    </g>
   </g>
   <g id="text_7">
    <g id="patch_8">
     <path d="M 69.626816 170.290885 
L 152.677128 170.290885 
L 152.677128 153.660572 
L 69.626816 153.660572 
z
" clip-path="url(#p2eaabb1ff0)" style="fill: #ffffff; opacity: 0.7; stroke: #000000; stroke-linejoin: miter"/>
    </g>
    <g clip-path="url(#p2eaabb1ff0)">
     <!-- Henry Hathaway -->
     <g transform="translate(73.586816 164.459166)scale(0.09 -0.09)">
      <defs>
       <path id="DejaVuSans-79" d="M 2059 -325 
Q 1816 -950 1584 -1140 
Q 1353 -1331 966 -1331 
L 506 -1331 
L 506 -850 
L 844 -850 
Q 1081 -850 1212 -737 
Q 1344 -625 1503 -206 
L 1606 56 
L 191 3500 
L 800 3500 
L 1894 763 
L 2988 3500 
L 3597 3500 
L 2059 -325 
z
" transform="scale(0.015625)"/>
       <path id="DejaVuSans-77" d="M 269 3500 
L 844 3500 
L 1563 769 
L 2278 3500 
L 2956 3500 
L 3675 769 
L 4391 3500 
L 4966 3500 
L 4050 0 
L 3372 0 
L 2619 2869 
L 1863 0 
L 1184 0 
L 269 3500 
z
" transform="scale(0.015625)"/>
      </defs>
      <use xlink:href="#DejaVuSans-48"/>
      <use xlink:href="#DejaVuSans-65" x="75.195312"/>
      <use xlink:href="#DejaVuSans-6e" x="136.71875"/>
      <use xlink:href="#DejaVuSans-72" x="200.097656"/>
      <use xlink:href="#DejaVuSans-79" x="241.210938"/>
      <use xlink:href="#DejaVuSans-20" x="300.390625"/>
      <use xlink:href="#DejaVuSans-48" x="332.177734"/>
      <use xlink:href="#DejaVuSans-61" x="407.373047"/>
      <use xlink:href="#DejaVuSans-74" x="468.652344"/>
      <use xlink:href="#DejaVuSans-68" x="507.861328"/>
      <use xlink:href="#DejaVuSans-61" x="571.240234"/>
      <use xlink:href="#DejaVuSans-77" x="632.519531"/>
      <use xlink:href="#DejaVuSans-61" x="714.306641"/>
      <use xlink:href="#DejaVuSans-79" x="775.585938"/>
     </g>
    </g>
   </g>
   <g id="text_8">
    <g id="patch_9">
     <path d="M 45.147981 251.737805 
L 104.390481 251.737805 
L 104.390481 235.107493 
L 45.147981 235.107493 
z
" clip-path="url(#p2eaabb1ff0)" style="fill: #ffffff; opacity: 0.7; stroke: #000000; stroke-linejoin: miter"/>
    </g>
    <g clip-path="url(#p2eaabb1ff0)">
     <!-- Friz Freleng -->
     <g transform="translate(49.107981 245.906086)scale(0.09 -0.09)">
      <defs>
       <path id="DejaVuSans-46" d="M 628 4666 
L 3309 4666 
L 3309 4134 
L 1259 4134 
L 1259 2759 
L 3109 2759 
L 3109 2228 
L 1259 2228 
L 1259 0 
L 628 0 
L 628 4666 
z
" transform="scale(0.015625)"/>
       <path id="DejaVuSans-7a" d="M 353 3500 
L 3084 3500 
L 3084 2975 
L 922 459 
L 3084 459 
L 3084 0 
L 275 0 
L 275 525 
L 2438 3041 
L 353 3041 
L 353 3500 
z
" transform="scale(0.015625)"/>
      </defs>
      <use xlink:href="#DejaVuSans-46"/>
      <use xlink:href="#DejaVuSans-72" x="50.269531"/>
      <use xlink:href="#DejaVuSans-69" x="91.382812"/>
      <use xlink:href="#DejaVuSans-7a" x="119.166016"/>
      <use xlink:href="#DejaVuSans-20" x="171.65625"/>
      <use xlink:href="#DejaVuSans-46" x="203.443359"/>
      <use xlink:href="#DejaVuSans-72" x="253.712891"/>
      <use xlink:href="#DejaVuSans-65" x="292.576172"/>
      <use xlink:href="#DejaVuSans-6c" x="354.099609"/>
      <use xlink:href="#DejaVuSans-65" x="381.882812"/>
      <use xlink:href="#DejaVuSans-6e" x="443.40625"/>
      <use xlink:href="#DejaVuSans-67" x="506.785156"/>
     </g>
    </g>
   </g>
   <g id="text_9">
    <g id="patch_10">
     <path d="M 39.932915 340.892546 
L 109.605572 340.892546 
L 109.605572 324.262233 
L 39.932915 324.262233 
z
" clip-path="url(#p2eaabb1ff0)" style="fill: #ffffff; opacity: 0.7; stroke: #000000; stroke-linejoin: miter"/>
    </g>
    <g clip-path="url(#p2eaabb1ff0)">
     <!-- George Cukor -->
     <g transform="translate(43.892915 335.060827)scale(0.09 -0.09)">
      <defs>
       <path id="DejaVuSans-47" d="M 3809 666 
L 3809 1919 
L 2778 1919 
L 2778 2438 
L 4434 2438 
L 4434 434 
Q 4069 175 3628 42 
Q 3188 -91 2688 -91 
Q 1594 -91 976 548 
Q 359 1188 359 2328 
Q 359 3472 976 4111 
Q 1594 4750 2688 4750 
Q 3144 4750 3555 4637 
Q 3966 4525 4313 4306 
L 4313 3634 
Q 3963 3931 3569 4081 
Q 3175 4231 2741 4231 
Q 1884 4231 1454 3753 
Q 1025 3275 1025 2328 
Q 1025 1384 1454 906 
Q 1884 428 2741 428 
Q 3075 428 3337 486 
Q 3600 544 3809 666 
z
" transform="scale(0.015625)"/>
       <path id="DejaVuSans-43" d="M 4122 4306 
L 4122 3641 
Q 3803 3938 3442 4084 
Q 3081 4231 2675 4231 
Q 1875 4231 1450 3742 
Q 1025 3253 1025 2328 
Q 1025 1406 1450 917 
Q 1875 428 2675 428 
Q 3081 428 3442 575 
Q 3803 722 4122 1019 
L 4122 359 
Q 3791 134 3420 21 
Q 3050 -91 2638 -91 
Q 1578 -91 968 557 
Q 359 1206 359 2328 
Q 359 3453 968 4101 
Q 1578 4750 2638 4750 
Q 3056 4750 3426 4639 
Q 3797 4528 4122 4306 
z
" transform="scale(0.015625)"/>
       <path id="DejaVuSans-6b" d="M 581 4863 
L 1159 4863 
L 1159 1991 
L 2875 3500 
L 3609 3500 
L 1753 1863 
L 3688 0 
L 2938 0 
L 1159 1709 
L 1159 0 
L 581 0 
L 581 4863 
z
" transform="scale(0.015625)"/>
      </defs>
      <use xlink:href="#DejaVuSans-47"/>
      <use xlink:href="#DejaVuSans-65" x="77.490234"/>
      <use xlink:href="#DejaVuSans-6f" x="139.013672"/>
      <use xlink:href="#DejaVuSans-72" x="200.195312"/>
      <use xlink:href="#DejaVuSans-67" x="239.558594"/>
      <use xlink:href="#DejaVuSans-65" x="303.035156"/>
      <use xlink:href="#DejaVuSans-20" x="364.558594"/>
      <use xlink:href="#DejaVuSans-43" x="396.345703"/>
      <use xlink:href="#DejaVuSans-75" x="466.169922"/>
      <use xlink:href="#DejaVuSans-6b" x="529.548828"/>
      <use xlink:href="#DejaVuSans-6f" x="583.833984"/>
      <use xlink:href="#DejaVuSans-72" x="645.015625"/>
     </g>
    </g>
   </g>
   <g id="text_10">
    <g id="patch_11">
     <path d="M 76.369094 422.33944 
L 145.934875 422.33944 
L 145.934875 405.709128 
L 76.369094 405.709128 
z
" clip-path="url(#p2eaabb1ff0)" style="fill: #ffffff; opacity: 0.7; stroke: #000000; stroke-linejoin: miter"/>
    </g>
    <g clip-path="url(#p2eaabb1ff0)">
     <!-- William Wyler -->
     <g transform="translate(80.329094 416.507722)scale(0.09 -0.09)">
      <use xlink:href="#DejaVuSans-57"/>
      <use xlink:href="#DejaVuSans-69" x="96.626953"/>
      <use xlink:href="#DejaVuSans-6c" x="124.410156"/>
      <use xlink:href="#DejaVuSans-6c" x="152.193359"/>
      <use xlink:href="#DejaVuSans-69" x="179.976562"/>
      <use xlink:href="#DejaVuSans-61" x="207.759766"/>
      <use xlink:href="#DejaVuSans-6d" x="269.039062"/>
      <use xlink:href="#DejaVuSans-20" x="366.451172"/>
      <use xlink:href="#DejaVuSans-57" x="398.238281"/>
      <use xlink:href="#DejaVuSans-79" x="495.365234"/>
      <use xlink:href="#DejaVuSans-6c" x="554.544922"/>
      <use xlink:href="#DejaVuSans-65" x="582.328125"/>
      <use xlink:href="#DejaVuSans-72" x="643.851562"/>
     </g>
    </g>
   </g>
   <g id="text_11">
    <g id="patch_12">
     <path d="M 146.120234 481.995602 
L 209.13289 481.995602 
L 209.13289 465.365289 
L 146.120234 465.365289 
z
" clip-path="url(#p2eaabb1ff0)" style="fill: #ffffff; opacity: 0.7; stroke: #000000; stroke-linejoin: miter"/>
    </g>
    <g clip-path="url(#p2eaabb1ff0)">
     <!-- Ted Kotcheff -->
     <g transform="translate(150.080234 476.163883)scale(0.09 -0.09)">
      <defs>
       <path id="DejaVuSans-54" d="M -19 4666 
L 3928 4666 
L 3928 4134 
L 2272 4134 
L 2272 0 
L 1638 0 
L 1638 4134 
L -19 4134 
L -19 4666 
z
" transform="scale(0.015625)"/>
       <path id="DejaVuSans-64" d="M 2906 2969 
L 2906 4863 
L 3481 4863 
L 3481 0 
L 2906 0 
L 2906 525 
Q 2725 213 2448 61 
Q 2172 -91 1784 -91 
Q 1150 -91 751 415 
Q 353 922 353 1747 
Q 353 2572 751 3078 
Q 1150 3584 1784 3584 
Q 2172 3584 2448 3432 
Q 2725 3281 2906 2969 
z
M 947 1747 
Q 947 1113 1208 752 
Q 1469 391 1925 391 
Q 2381 391 2643 752 
Q 2906 1113 2906 1747 
Q 2906 2381 2643 2742 
Q 2381 3103 1925 3103 
Q 1469 3103 1208 2742 
Q 947 2381 947 1747 
z
" transform="scale(0.015625)"/>
       <path id="DejaVuSans-4b" d="M 628 4666 
L 1259 4666 
L 1259 2694 
L 3353 4666 
L 4166 4666 
L 1850 2491 
L 4331 0 
L 3500 0 
L 1259 2247 
L 1259 0 
L 628 0 
L 628 4666 
z
" transform="scale(0.015625)"/>
       <path id="DejaVuSans-66" d="M 2375 4863 
L 2375 4384 
L 1825 4384 
Q 1516 4384 1395 4259 
Q 1275 4134 1275 3809 
L 1275 3500 
L 2222 3500 
L 2222 3053 
L 1275 3053 
L 1275 0 
L 697 0 
L 697 3053 
L 147 3053 
L 147 3500 
L 697 3500 
L 697 3744 
Q 697 4328 969 4595 
Q 1241 4863 1831 4863 
L 2375 4863 
z
" transform="scale(0.015625)"/>
      </defs>
      <use xlink:href="#DejaVuSans-54"/>
      <use xlink:href="#DejaVuSans-65" x="44.083984"/>
      <use xlink:href="#DejaVuSans-64" x="105.607422"/>
      <use xlink:href="#DejaVuSans-20" x="169.083984"/>
      <use xlink:href="#DejaVuSans-4b" x="200.871094"/>
      <use xlink:href="#DejaVuSans-6f" x="261.447266"/>
      <use xlink:href="#DejaVuSans-74" x="322.628906"/>
      <use xlink:href="#DejaVuSans-63" x="361.837891"/>
      <use xlink:href="#DejaVuSans-68" x="416.818359"/>
      <use xlink:href="#DejaVuSans-65" x="480.197266"/>
      <use xlink:href="#DejaVuSans-66" x="541.720703"/>
      <use xlink:href="#DejaVuSans-66" x="576.925781"/>
     </g>
    </g>
   </g>
   <g id="text_12">
    <g id="patch_13">
     <path d="M 230.812197 509.545925 
L 294.585634 509.545925 
L 294.585634 492.915613 
L 230.812197 492.915613 
z
" clip-path="url(#p2eaabb1ff0)" style="fill: #ffffff; opacity: 0.7; stroke: #000000; stroke-linejoin: miter"/>
    </g>
    <g clip-path="url(#p2eaabb1ff0)">
     <!-- Raja Gosnell -->
     <g transform="translate(234.772197 503.714207)scale(0.09 -0.09)">
      <defs>
       <path id="DejaVuSans-52" d="M 2841 2188 
Q 3044 2119 3236 1894 
Q 3428 1669 3622 1275 
L 4263 0 
L 3584 0 
L 2988 1197 
Q 2756 1666 2539 1819 
Q 2322 1972 1947 1972 
L 1259 1972 
L 1259 0 
L 628 0 
L 628 4666 
L 2053 4666 
Q 2853 4666 3247 4331 
Q 3641 3997 3641 3322 
Q 3641 2881 3436 2590 
Q 3231 2300 2841 2188 
z
M 1259 4147 
L 1259 2491 
L 2053 2491 
Q 2509 2491 2742 2702 
Q 2975 2913 2975 3322 
Q 2975 3731 2742 3939 
Q 2509 4147 2053 4147 
L 1259 4147 
z
" transform="scale(0.015625)"/>
       <path id="DejaVuSans-6a" d="M 603 3500 
L 1178 3500 
L 1178 -63 
Q 1178 -731 923 -1031 
Q 669 -1331 103 -1331 
L -116 -1331 
L -116 -844 
L 38 -844 
Q 366 -844 484 -692 
Q 603 -541 603 -63 
L 603 3500 
z
M 603 4863 
L 1178 4863 
L 1178 4134 
L 603 4134 
L 603 4863 
z
" transform="scale(0.015625)"/>
      </defs>
      <use xlink:href="#DejaVuSans-52"/>
      <use xlink:href="#DejaVuSans-61" x="67.232422"/>
      <use xlink:href="#DejaVuSans-6a" x="128.511719"/>
      <use xlink:href="#DejaVuSans-61" x="156.294922"/>
      <use xlink:href="#DejaVuSans-20" x="217.574219"/>
      <use xlink:href="#DejaVuSans-47" x="249.361328"/>
      <use xlink:href="#DejaVuSans-6f" x="326.851562"/>
      <use xlink:href="#DejaVuSans-73" x="388.033203"/>
      <use xlink:href="#DejaVuSans-6e" x="440.132812"/>
      <use xlink:href="#DejaVuSans-65" x="503.511719"/>
      <use xlink:href="#DejaVuSans-6c" x="565.035156"/>
      <use xlink:href="#DejaVuSans-6c" x="592.818359"/>
     </g>
    </g>
   </g>
   <g id="text_13">
    <g id="patch_14">
     <path d="M 303.525424 500.226706 
L 399.79308 500.226706 
L 399.79308 483.596393 
L 303.525424 483.596393 
z
" clip-path="url(#p2eaabb1ff0)" style="fill: #ffffff; opacity: 0.7; stroke: #000000; stroke-linejoin: miter"/>
    </g>
    <g clip-path="url(#p2eaabb1ff0)">
     <!-- Josef von Sternberg -->
     <g transform="translate(307.485424 494.394987)scale(0.09 -0.09)">
      <defs>
       <path id="DejaVuSans-76" d="M 191 3500 
L 800 3500 
L 1894 563 
L 2988 3500 
L 3597 3500 
L 2284 0 
L 1503 0 
L 191 3500 
z
" transform="scale(0.015625)"/>
      </defs>
      <use xlink:href="#DejaVuSans-4a"/>
      <use xlink:href="#DejaVuSans-6f" x="29.492188"/>
      <use xlink:href="#DejaVuSans-73" x="90.673828"/>
      <use xlink:href="#DejaVuSans-65" x="142.773438"/>
      <use xlink:href="#DejaVuSans-66" x="204.296875"/>
      <use xlink:href="#DejaVuSans-20" x="239.501953"/>
      <use xlink:href="#DejaVuSans-76" x="271.289062"/>
      <use xlink:href="#DejaVuSans-6f" x="330.46875"/>
      <use xlink:href="#DejaVuSans-6e" x="391.650391"/>
      <use xlink:href="#DejaVuSans-20" x="455.029297"/>
      <use xlink:href="#DejaVuSans-53" x="486.816406"/>
      <use xlink:href="#DejaVuSans-74" x="550.292969"/>
      <use xlink:href="#DejaVuSans-65" x="589.501953"/>
      <use xlink:href="#DejaVuSans-72" x="651.025391"/>
      <use xlink:href="#DejaVuSans-6e" x="690.388672"/>
      <use xlink:href="#DejaVuSans-62" x="753.767578"/>
      <use xlink:href="#DejaVuSans-65" x="817.244141"/>
      <use xlink:href="#DejaVuSans-72" x="878.767578"/>
      <use xlink:href="#DejaVuSans-67" x="918.130859"/>
     </g>
    </g>
   </g>
   <g id="text_14">
    <g id="patch_15">
     <path d="M 389.218269 455.649316 
L 469.0328 455.649316 
L 469.0328 439.019004 
L 389.218269 439.019004 
z
" clip-path="url(#p2eaabb1ff0)" style="fill: #ffffff; opacity: 0.7; stroke: #000000; stroke-linejoin: miter"/>
    </g>
    <g clip-path="url(#p2eaabb1ff0)">
     <!-- Martin Scorsese -->
     <g transform="translate(393.178269 449.817598)scale(0.09 -0.09)">
      <use xlink:href="#DejaVuSans-4d"/>
      <use xlink:href="#DejaVuSans-61" x="86.279297"/>
      <use xlink:href="#DejaVuSans-72" x="147.558594"/>
      <use xlink:href="#DejaVuSans-74" x="188.671875"/>
      <use xlink:href="#DejaVuSans-69" x="227.880859"/>
      <use xlink:href="#DejaVuSans-6e" x="255.664062"/>
      <use xlink:href="#DejaVuSans-20" x="319.042969"/>
      <use xlink:href="#DejaVuSans-53" x="350.830078"/>
      <use xlink:href="#DejaVuSans-63" x="414.306641"/>
      <use xlink:href="#DejaVuSans-6f" x="469.287109"/>
      <use xlink:href="#DejaVuSans-72" x="530.46875"/>
      <use xlink:href="#DejaVuSans-73" x="571.582031"/>
      <use xlink:href="#DejaVuSans-65" x="623.681641"/>
      <use xlink:href="#DejaVuSans-73" x="685.205078"/>
      <use xlink:href="#DejaVuSans-65" x="737.304688"/>
     </g>
    </g>
   </g>
   <g id="text_15">
    <g id="patch_16">
     <path d="M 452.685859 383.521616 
L 510.720391 383.521616 
L 510.720391 366.891303 
L 452.685859 366.891303 
z
" clip-path="url(#p2eaabb1ff0)" style="fill: #ffffff; opacity: 0.7; stroke: #000000; stroke-linejoin: miter"/>
    </g>
    <g clip-path="url(#p2eaabb1ff0)">
     <!-- Jules White -->
     <g transform="translate(456.645859 377.689897)scale(0.09 -0.09)">
      <use xlink:href="#DejaVuSans-4a"/>
      <use xlink:href="#DejaVuSans-75" x="29.492188"/>
      <use xlink:href="#DejaVuSans-6c" x="92.871094"/>
      <use xlink:href="#DejaVuSans-65" x="120.654297"/>
      <use xlink:href="#DejaVuSans-73" x="182.177734"/>
      <use xlink:href="#DejaVuSans-20" x="234.277344"/>
      <use xlink:href="#DejaVuSans-57" x="266.064453"/>
      <use xlink:href="#DejaVuSans-68" x="364.941406"/>
      <use xlink:href="#DejaVuSans-69" x="428.320312"/>
      <use xlink:href="#DejaVuSans-74" x="456.103516"/>
      <use xlink:href="#DejaVuSans-65" x="495.3125"/>
     </g>
    </g>
   </g>
   <g id="text_16">
    <!-- Impactful directors for Crime Fiction genre - Importance rank: 1 -->
    <g transform="translate(97.3725 4.8)scale(0.12 -0.12)">
     <defs>
      <path id="DejaVuSans-49" d="M 628 4666 
L 1259 4666 
L 1259 0 
L 628 0 
L 628 4666 
z
" transform="scale(0.015625)"/>
      <path id="DejaVuSans-2d" d="M 313 2009 
L 1997 2009 
L 1997 1497 
L 313 1497 
L 313 2009 
z
" transform="scale(0.015625)"/>
      <path id="DejaVuSans-3a" d="M 750 794 
L 1409 794 
L 1409 0 
L 750 0 
L 750 794 
z
M 750 3309 
L 1409 3309 
L 1409 2516 
L 750 2516 
L 750 3309 
z
" transform="scale(0.015625)"/>
      <path id="DejaVuSans-31" d="M 794 531 
L 1825 531 
L 1825 4091 
L 703 3866 
L 703 4441 
L 1819 4666 
L 2450 4666 
L 2450 531 
L 3481 531 
L 3481 0 
L 794 0 
L 794 531 
z
" transform="scale(0.015625)"/>
     </defs>
     <use xlink:href="#DejaVuSans-49"/>
     <use xlink:href="#DejaVuSans-6d" x="29.492188"/>
     <use xlink:href="#DejaVuSans-70" x="126.904297"/>
     <use xlink:href="#DejaVuSans-61" x="190.380859"/>
     <use xlink:href="#DejaVuSans-63" x="251.660156"/>
     <use xlink:href="#DejaVuSans-74" x="306.640625"/>
     <use xlink:href="#DejaVuSans-66" x="345.849609"/>
     <use xlink:href="#DejaVuSans-75" x="381.054688"/>
     <use xlink:href="#DejaVuSans-6c" x="444.433594"/>
     <use xlink:href="#DejaVuSans-20" x="472.216797"/>
     <use xlink:href="#DejaVuSans-64" x="504.003906"/>
     <use xlink:href="#DejaVuSans-69" x="567.480469"/>
     <use xlink:href="#DejaVuSans-72" x="595.263672"/>
     <use xlink:href="#DejaVuSans-65" x="634.126953"/>
     <use xlink:href="#DejaVuSans-63" x="695.650391"/>
     <use xlink:href="#DejaVuSans-74" x="750.630859"/>
     <use xlink:href="#DejaVuSans-6f" x="789.839844"/>
     <use xlink:href="#DejaVuSans-72" x="851.021484"/>
     <use xlink:href="#DejaVuSans-73" x="892.134766"/>
     <use xlink:href="#DejaVuSans-20" x="944.234375"/>
     <use xlink:href="#DejaVuSans-66" x="976.021484"/>
     <use xlink:href="#DejaVuSans-6f" x="1011.226562"/>
     <use xlink:href="#DejaVuSans-72" x="1072.408203"/>
     <use xlink:href="#DejaVuSans-20" x="1113.521484"/>
     <use xlink:href="#DejaVuSans-43" x="1145.308594"/>
     <use xlink:href="#DejaVuSans-72" x="1215.132812"/>
     <use xlink:href="#DejaVuSans-69" x="1256.246094"/>
     <use xlink:href="#DejaVuSans-6d" x="1284.029297"/>
     <use xlink:href="#DejaVuSans-65" x="1381.441406"/>
     <use xlink:href="#DejaVuSans-20" x="1442.964844"/>
     <use xlink:href="#DejaVuSans-46" x="1474.751953"/>
     <use xlink:href="#DejaVuSans-69" x="1525.021484"/>
     <use xlink:href="#DejaVuSans-63" x="1552.804688"/>
     <use xlink:href="#DejaVuSans-74" x="1607.785156"/>
     <use xlink:href="#DejaVuSans-69" x="1646.994141"/>
     <use xlink:href="#DejaVuSans-6f" x="1674.777344"/>
     <use xlink:href="#DejaVuSans-6e" x="1735.958984"/>
     <use xlink:href="#DejaVuSans-20" x="1799.337891"/>
     <use xlink:href="#DejaVuSans-67" x="1831.125"/>
     <use xlink:href="#DejaVuSans-65" x="1894.601562"/>
     <use xlink:href="#DejaVuSans-6e" x="1956.125"/>
     <use xlink:href="#DejaVuSans-72" x="2019.503906"/>
     <use xlink:href="#DejaVuSans-65" x="2058.367188"/>
     <use xlink:href="#DejaVuSans-20" x="2119.890625"/>
     <use xlink:href="#DejaVuSans-2d" x="2151.677734"/>
     <use xlink:href="#DejaVuSans-20" x="2187.761719"/>
     <use xlink:href="#DejaVuSans-49" x="2219.548828"/>
     <use xlink:href="#DejaVuSans-6d" x="2249.041016"/>
     <use xlink:href="#DejaVuSans-70" x="2346.453125"/>
     <use xlink:href="#DejaVuSans-6f" x="2409.929688"/>
     <use xlink:href="#DejaVuSans-72" x="2471.111328"/>
     <use xlink:href="#DejaVuSans-74" x="2512.224609"/>
     <use xlink:href="#DejaVuSans-61" x="2551.433594"/>
     <use xlink:href="#DejaVuSans-6e" x="2612.712891"/>
     <use xlink:href="#DejaVuSans-63" x="2676.091797"/>
     <use xlink:href="#DejaVuSans-65" x="2731.072266"/>
     <use xlink:href="#DejaVuSans-20" x="2792.595703"/>
     <use xlink:href="#DejaVuSans-72" x="2824.382812"/>
     <use xlink:href="#DejaVuSans-61" x="2865.496094"/>
     <use xlink:href="#DejaVuSans-6e" x="2926.775391"/>
     <use xlink:href="#DejaVuSans-6b" x="2990.154297"/>
     <use xlink:href="#DejaVuSans-3a" x="3048.064453"/>
     <use xlink:href="#DejaVuSans-20" x="3081.755859"/>
     <use xlink:href="#DejaVuSans-31" x="3113.542969"/>
    </g>
   </g>
  </g>
 </g>
 <defs>
  <clipPath id="p2eaabb1ff0">
   <rect x="10.8" y="10.8" width="554.4" height="554.4"/>
  </clipPath>
 </defs>
</svg>
