<?xml version="1.0" encoding="utf-8" standalone="no"?>
<!DOCTYPE svg PUBLIC "-//W3C//DTD SVG 1.1//EN"
  "http://www.w3.org/Graphics/SVG/1.1/DTD/svg11.dtd">
<svg xmlns:xlink="http://www.w3.org/1999/xlink" width="568.8pt" height="583.918125pt" viewBox="0 0 568.8 583.918125" xmlns="http://www.w3.org/2000/svg" version="1.1">
 <metadata>
  <rdf:RDF xmlns:dc="http://purl.org/dc/elements/1.1/" xmlns:cc="http://creativecommons.org/ns#" xmlns:rdf="http://www.w3.org/1999/02/22-rdf-syntax-ns#">
   <cc:Work>
    <dc:type rdf:resource="http://purl.org/dc/dcmitype/StillImage"/>
    <dc:date>2022-12-23T19:06:36.580312</dc:date>
    <dc:format>image/svg+xml</dc:format>
    <dc:creator>
     <cc:Agent>
      <dc:title>Matplotlib v3.5.2, https://matplotlib.org/</dc:title>
     </cc:Agent>
    </dc:creator>
   </cc:Work>
  </rdf:RDF>
 </metadata>
 <defs>
  <style type="text/css">*{stroke-linejoin: round; stroke-linecap: butt}</style>
 </defs>
 <g id="figure_1">
  <g id="patch_1">
   <path d="M 0 583.918125 
L 568.8 583.918125 
L 568.8 0 
L 0 0 
z
" style="fill: #ffffff"/>
  </g>
  <g id="axes_1">
   <g id="LineCollection_1">
    <path d="M 482.052437 304.718875 
L 464.094863 219.639372 
" clip-path="url(#p132ed0c024)" style="fill: none; stroke: #000000; stroke-opacity: 0.3; stroke-width: 10"/>
    <path d="M 338.527597 105.780766 
L 252.629613 96.688857 
" clip-path="url(#p132ed0c024)" style="fill: none; stroke: #000000; stroke-opacity: 0.3; stroke-width: 5.760789"/>
    <path d="M 338.527597 105.780766 
L 170.485784 123.567234 
" clip-path="url(#p132ed0c024)" style="fill: none; stroke: #000000; stroke-opacity: 0.3; stroke-width: 5"/>
    <path d="M 252.629613 96.688857 
L 170.485784 123.567234 
" clip-path="url(#p132ed0c024)" style="fill: none; stroke: #000000; stroke-opacity: 0.3; stroke-width: 5.228316"/>
   </g>
   <g id="PathCollection_1">
    <path d="M 482.052437 332.105003 
C 489.315323 332.105003 496.281717 329.219428 501.417353 324.083792 
C 506.552989 318.948156 509.438564 311.981761 509.438564 304.718875 
C 509.438564 297.455989 506.552989 290.489595 501.417353 285.353959 
C 496.281717 280.218323 489.315323 277.332748 482.052437 277.332748 
C 474.789551 277.332748 467.823156 280.218323 462.68752 285.353959 
C 457.551884 290.489595 454.666309 297.455989 454.666309 304.718875 
C 454.666309 311.981761 457.551884 318.948156 462.68752 324.083792 
C 467.823156 329.219428 474.789551 332.105003 482.052437 332.105003 
z
" clip-path="url(#p132ed0c024)" style="fill: #c70039; fill-opacity: 0.99; stroke: #c70039; stroke-opacity: 0.99"/>
    <path d="M 464.094863 247.025499 
C 471.357749 247.025499 478.324144 244.139924 483.45978 239.004288 
C 488.595416 233.868652 491.480991 226.902258 491.480991 219.639372 
C 491.480991 212.376485 488.595416 205.410091 483.45978 200.274455 
C 478.324144 195.138819 471.357749 192.253244 464.094863 192.253244 
C 456.831977 192.253244 449.865583 195.138819 444.729947 200.274455 
C 439.594311 205.410091 436.708735 212.376485 436.708735 219.639372 
C 436.708735 226.902258 439.594311 233.868652 444.729947 239.004288 
C 449.865583 244.139924 456.831977 247.025499 464.094863 247.025499 
z
" clip-path="url(#p132ed0c024)" style="fill: #c70039; fill-opacity: 0.99; stroke: #c70039; stroke-opacity: 0.99"/>
    <path d="M 413.327184 174.878875 
C 420.118505 174.878875 426.632585 172.180655 431.434774 167.378466 
C 436.236962 162.576278 438.935183 156.062198 438.935183 149.270877 
C 438.935183 142.479556 436.236962 135.965477 431.434774 131.163288 
C 426.632585 126.361099 420.118505 123.662879 413.327184 123.662879 
C 406.535864 123.662879 400.021784 126.361099 395.219595 131.163288 
C 390.417406 135.965477 387.719186 142.479556 387.719186 149.270877 
C 387.719186 156.062198 390.417406 162.576278 395.219595 167.378466 
C 400.021784 172.180655 406.535864 174.878875 413.327184 174.878875 
z
" clip-path="url(#p132ed0c024)" style="fill: #c70039; fill-opacity: 0.99; stroke: #c70039; stroke-opacity: 0.99"/>
    <path d="M 338.527597 130.506165 
C 345.084849 130.506165 351.374416 127.900941 356.011094 123.264263 
C 360.647772 118.627585 363.252996 112.338018 363.252996 105.780766 
C 363.252996 99.223513 360.647772 92.933946 356.011094 88.297269 
C 351.374416 83.660591 345.084849 81.055367 338.527597 81.055367 
C 331.970344 81.055367 325.680777 83.660591 321.044099 88.297269 
C 316.407422 92.933946 313.802198 99.223513 313.802198 105.780766 
C 313.802198 112.338018 316.407422 118.627585 321.044099 123.264263 
C 325.680777 127.900941 331.970344 130.506165 338.527597 130.506165 
z
" clip-path="url(#p132ed0c024)" style="fill: #c70039; fill-opacity: 0.99; stroke: #c70039; stroke-opacity: 0.99"/>
    <path d="M 252.629613 119.872422 
C 258.777966 119.872422 264.675327 117.429656 269.022869 113.082113 
C 273.370411 108.734571 275.813178 102.83721 275.813178 96.688857 
C 275.813178 90.540503 273.370411 84.643143 269.022869 80.2956 
C 264.675327 75.948058 258.777966 73.505291 252.629613 73.505291 
C 246.481259 73.505291 240.583899 75.948058 236.236356 80.2956 
C 231.888814 84.643143 229.446047 90.540503 229.446047 96.688857 
C 229.446047 102.83721 231.888814 108.734571 236.236356 113.082113 
C 240.583899 117.429656 246.481259 119.872422 252.629613 119.872422 
z
" clip-path="url(#p132ed0c024)" style="fill: #c70039; fill-opacity: 0.99; stroke: #c70039; stroke-opacity: 0.99"/>
    <path d="M 170.485784 145.973194 
C 176.427914 145.973194 182.12747 143.61236 186.329191 139.41064 
C 190.530911 135.208919 192.891744 129.509364 192.891744 123.567234 
C 192.891744 117.625104 190.530911 111.925548 186.329191 107.723828 
C 182.12747 103.522107 176.427914 101.161274 170.485784 101.161274 
C 164.543654 101.161274 158.844099 103.522107 154.642378 107.723828 
C 150.440658 111.925548 148.079825 117.625104 148.079825 123.567234 
C 148.079825 129.509364 150.440658 135.208919 154.642378 139.41064 
C 158.844099 143.61236 164.543654 145.973194 170.485784 145.973194 
z
" clip-path="url(#p132ed0c024)" style="fill: #c70039; fill-opacity: 0.99; stroke: #c70039; stroke-opacity: 0.99"/>
    <path d="M 106.299537 202.969872 
C 111.922242 202.969872 117.315413 200.735948 121.291266 196.760095 
C 125.267119 192.784242 127.501043 187.391072 127.501043 181.768367 
C 127.501043 176.145662 125.267119 170.752491 121.291266 166.776639 
C 117.315413 162.800786 111.922242 160.566861 106.299537 160.566861 
C 100.676832 160.566861 95.283662 162.800786 91.307809 166.776639 
C 87.331956 170.752491 85.098032 176.145662 85.098032 181.768367 
C 85.098032 187.391072 87.331956 192.784242 91.307809 196.760095 
C 95.283662 200.735948 100.676832 202.969872 106.299537 202.969872 
z
" clip-path="url(#p132ed0c024)" style="fill: #c70039; fill-opacity: 0.99; stroke: #c70039; stroke-opacity: 0.99"/>
    <path d="M 71.169231 282.165042 
C 76.721593 282.165042 82.047293 279.959065 85.973406 276.032952 
C 89.899519 272.106839 92.105496 266.781139 92.105496 261.228777 
C 92.105496 255.676414 89.899519 250.350715 85.973406 246.424601 
C 82.047293 242.498488 76.721593 240.292511 71.169231 240.292511 
C 65.616868 240.292511 60.291169 242.498488 56.365055 246.424601 
C 52.438942 250.350715 50.232965 255.676414 50.232965 261.228777 
C 50.232965 266.781139 52.438942 272.106839 56.365055 276.032952 
C 60.291169 279.959065 65.616868 282.165042 71.169231 282.165042 
z
" clip-path="url(#p132ed0c024)" style="fill: #c70039; fill-opacity: 0.99; stroke: #c70039; stroke-opacity: 0.99"/>
    <path d="M 71.169243 368.92466 
C 76.663097 368.92466 81.932677 366.741929 85.817419 362.857187 
C 89.70216 358.972446 91.884892 353.702866 91.884892 348.209012 
C 91.884892 342.715157 89.70216 337.445578 85.817419 333.560836 
C 81.932677 329.676094 76.663097 327.493363 71.169243 327.493363 
C 65.675389 327.493363 60.405809 329.676094 56.521068 333.560836 
C 52.636326 337.445578 50.453595 342.715157 50.453595 348.209012 
C 50.453595 353.702866 52.636326 358.972446 56.521068 362.857187 
C 60.405809 366.741929 65.675389 368.92466 71.169243 368.92466 
z
" clip-path="url(#p132ed0c024)" style="fill: #c70039; fill-opacity: 0.99; stroke: #c70039; stroke-opacity: 0.99"/>
    <path d="M 106.29955 447.823816 
C 111.644564 447.823816 116.771381 445.700219 120.550877 441.920723 
C 124.330373 438.141227 126.453969 433.014411 126.453969 427.669396 
C 126.453969 422.324382 124.330373 417.197566 120.550877 413.41807 
C 116.771381 409.638574 111.644564 407.514977 106.29955 407.514977 
C 100.954535 407.514977 95.827719 409.638574 92.048223 413.41807 
C 88.268727 417.197566 86.14513 422.324382 86.14513 427.669396 
C 86.14513 433.014411 88.268727 438.141227 92.048223 441.920723 
C 95.827719 445.700219 100.954535 447.823816 106.29955 447.823816 
z
" clip-path="url(#p132ed0c024)" style="fill: #c70039; fill-opacity: 0.99; stroke: #c70039; stroke-opacity: 0.99"/>
    <path d="M 170.485815 505.974005 
C 175.81732 505.974005 180.931177 503.855776 184.701119 500.085834 
C 188.471062 496.315891 190.589291 491.202034 190.589291 485.87053 
C 190.589291 480.539026 188.471062 475.425168 184.701119 471.655226 
C 180.931177 467.885283 175.81732 465.767054 170.485815 465.767054 
C 165.154311 465.767054 160.040454 467.885283 156.270511 471.655226 
C 152.500569 475.425168 150.38234 480.539026 150.38234 485.87053 
C 150.38234 491.202034 152.500569 496.315891 156.270511 500.085834 
C 160.040454 503.855776 165.154311 505.974005 170.485815 505.974005 
z
" clip-path="url(#p132ed0c024)" style="fill: #c70039; fill-opacity: 0.99; stroke: #c70039; stroke-opacity: 0.99"/>
    <path d="M 252.62965 532.451971 
C 257.854967 532.451971 262.866972 530.37593 266.561829 526.681073 
C 270.256686 522.986216 272.332726 517.974211 272.332726 512.748894 
C 272.332726 507.523577 270.256686 502.511572 266.561829 498.816715 
C 262.866972 495.121858 257.854967 493.045818 252.62965 493.045818 
C 247.404333 493.045818 242.392328 495.121858 238.697471 498.816715 
C 235.002613 502.511572 232.926573 507.523577 232.926573 512.748894 
C 232.926573 517.974211 235.002613 522.986216 238.697471 526.681073 
C 242.392328 530.37593 247.404333 532.451971 252.62965 532.451971 
z
" clip-path="url(#p132ed0c024)" style="fill: #c70039; fill-opacity: 0.99; stroke: #c70039; stroke-opacity: 0.99"/>
    <path d="M 338.527628 523.040873 
C 343.668298 523.040873 348.599112 520.998463 352.234115 517.36346 
C 355.869118 513.728457 357.911529 508.797643 357.911529 503.656973 
C 357.911529 498.516302 355.869118 493.585488 352.234115 489.950485 
C 348.599112 486.315482 343.668298 484.273072 338.527628 484.273072 
C 333.386957 484.273072 328.456143 486.315482 324.82114 489.950485 
C 321.186137 493.585488 319.143727 498.516302 319.143727 503.656973 
C 319.143727 508.797643 321.186137 513.728457 324.82114 517.36346 
C 328.456143 520.998463 333.386957 523.040873 338.527628 523.040873 
z
" clip-path="url(#p132ed0c024)" style="fill: #c70039; fill-opacity: 0.99; stroke: #c70039; stroke-opacity: 0.99"/>
    <path d="M 413.327221 479.534291 
C 418.46353 479.534291 423.390161 477.493614 427.02208 473.861695 
C 430.653999 470.229776 432.694676 465.303146 432.694676 460.166836 
C 432.694676 455.030527 430.653999 450.103897 427.02208 446.471978 
C 423.390161 442.840059 418.46353 440.799382 413.327221 440.799382 
C 408.190912 440.799382 403.264282 442.840059 399.632363 446.471978 
C 396.000444 450.103897 393.959767 455.030527 393.959767 460.166836 
C 393.959767 465.303146 396.000444 470.229776 399.632363 473.861695 
C 403.264282 477.493614 408.190912 479.534291 413.327221 479.534291 
z
" clip-path="url(#p132ed0c024)" style="fill: #c70039; fill-opacity: 0.99; stroke: #c70039; stroke-opacity: 0.99"/>
    <path d="M 464.094888 409.163265 
C 469.230524 409.163265 474.156509 407.122855 477.787952 403.491412 
C 481.419395 399.859969 483.459805 394.933984 483.459805 389.798348 
C 483.459805 384.662712 481.419395 379.736727 477.787952 376.105284 
C 474.156509 372.473841 469.230524 370.433432 464.094888 370.433432 
C 458.959252 370.433432 454.033267 372.473841 450.401824 376.105284 
C 446.770381 379.736727 444.729971 384.662712 444.729971 389.798348 
C 444.729971 394.933984 446.770381 399.859969 450.401824 403.491412 
C 454.033267 407.122855 458.959252 409.163265 464.094888 409.163265 
z
" clip-path="url(#p132ed0c024)" style="fill: #c70039; fill-opacity: 0.99; stroke: #c70039; stroke-opacity: 0.99"/>
   </g>
   <g id="text_1">
    <g id="patch_2">
     <path d="M 443.831265 313.034032 
L 520.273608 313.034032 
L 520.273608 296.403719 
L 443.831265 296.403719 
z
" clip-path="url(#p132ed0c024)" style="fill: #ffffff; opacity: 0.7; stroke: #000000; stroke-linejoin: miter"/>
    </g>
    <g clip-path="url(#p132ed0c024)">
     <!-- Joseph Barbera -->
     <g transform="translate(447.791265 307.202313)scale(0.09 -0.09)">
      <defs>
       <path id="DejaVuSans-4a" d="M 628 4666 
L 1259 4666 
L 1259 325 
Q 1259 -519 939 -900 
Q 619 -1281 -91 -1281 
L -331 -1281 
L -331 -750 
L -134 -750 
Q 284 -750 456 -515 
Q 628 -281 628 325 
L 628 4666 
z
" transform="scale(0.015625)"/>
       <path id="DejaVuSans-6f" d="M 1959 3097 
Q 1497 3097 1228 2736 
Q 959 2375 959 1747 
Q 959 1119 1226 758 
Q 1494 397 1959 397 
Q 2419 397 2687 759 
Q 2956 1122 2956 1747 
Q 2956 2369 2687 2733 
Q 2419 3097 1959 3097 
z
M 1959 3584 
Q 2709 3584 3137 3096 
Q 3566 2609 3566 1747 
Q 3566 888 3137 398 
Q 2709 -91 1959 -91 
Q 1206 -91 779 398 
Q 353 888 353 1747 
Q 353 2609 779 3096 
Q 1206 3584 1959 3584 
z
" transform="scale(0.015625)"/>
       <path id="DejaVuSans-73" d="M 2834 3397 
L 2834 2853 
Q 2591 2978 2328 3040 
Q 2066 3103 1784 3103 
Q 1356 3103 1142 2972 
Q 928 2841 928 2578 
Q 928 2378 1081 2264 
Q 1234 2150 1697 2047 
L 1894 2003 
Q 2506 1872 2764 1633 
Q 3022 1394 3022 966 
Q 3022 478 2636 193 
Q 2250 -91 1575 -91 
Q 1294 -91 989 -36 
Q 684 19 347 128 
L 347 722 
Q 666 556 975 473 
Q 1284 391 1588 391 
Q 1994 391 2212 530 
Q 2431 669 2431 922 
Q 2431 1156 2273 1281 
Q 2116 1406 1581 1522 
L 1381 1569 
Q 847 1681 609 1914 
Q 372 2147 372 2553 
Q 372 3047 722 3315 
Q 1072 3584 1716 3584 
Q 2034 3584 2315 3537 
Q 2597 3491 2834 3397 
z
" transform="scale(0.015625)"/>
       <path id="DejaVuSans-65" d="M 3597 1894 
L 3597 1613 
L 953 1613 
Q 991 1019 1311 708 
Q 1631 397 2203 397 
Q 2534 397 2845 478 
Q 3156 559 3463 722 
L 3463 178 
Q 3153 47 2828 -22 
Q 2503 -91 2169 -91 
Q 1331 -91 842 396 
Q 353 884 353 1716 
Q 353 2575 817 3079 
Q 1281 3584 2069 3584 
Q 2775 3584 3186 3129 
Q 3597 2675 3597 1894 
z
M 3022 2063 
Q 3016 2534 2758 2815 
Q 2500 3097 2075 3097 
Q 1594 3097 1305 2825 
Q 1016 2553 972 2059 
L 3022 2063 
z
" transform="scale(0.015625)"/>
       <path id="DejaVuSans-70" d="M 1159 525 
L 1159 -1331 
L 581 -1331 
L 581 3500 
L 1159 3500 
L 1159 2969 
Q 1341 3281 1617 3432 
Q 1894 3584 2278 3584 
Q 2916 3584 3314 3078 
Q 3713 2572 3713 1747 
Q 3713 922 3314 415 
Q 2916 -91 2278 -91 
Q 1894 -91 1617 61 
Q 1341 213 1159 525 
z
M 3116 1747 
Q 3116 2381 2855 2742 
Q 2594 3103 2138 3103 
Q 1681 3103 1420 2742 
Q 1159 2381 1159 1747 
Q 1159 1113 1420 752 
Q 1681 391 2138 391 
Q 2594 391 2855 752 
Q 3116 1113 3116 1747 
z
" transform="scale(0.015625)"/>
       <path id="DejaVuSans-68" d="M 3513 2113 
L 3513 0 
L 2938 0 
L 2938 2094 
Q 2938 2591 2744 2837 
Q 2550 3084 2163 3084 
Q 1697 3084 1428 2787 
Q 1159 2491 1159 1978 
L 1159 0 
L 581 0 
L 581 4863 
L 1159 4863 
L 1159 2956 
Q 1366 3272 1645 3428 
Q 1925 3584 2291 3584 
Q 2894 3584 3203 3211 
Q 3513 2838 3513 2113 
z
" transform="scale(0.015625)"/>
       <path id="DejaVuSans-20" transform="scale(0.015625)"/>
       <path id="DejaVuSans-42" d="M 1259 2228 
L 1259 519 
L 2272 519 
Q 2781 519 3026 730 
Q 3272 941 3272 1375 
Q 3272 1813 3026 2020 
Q 2781 2228 2272 2228 
L 1259 2228 
z
M 1259 4147 
L 1259 2741 
L 2194 2741 
Q 2656 2741 2882 2914 
Q 3109 3088 3109 3444 
Q 3109 3797 2882 3972 
Q 2656 4147 2194 4147 
L 1259 4147 
z
M 628 4666 
L 2241 4666 
Q 2963 4666 3353 4366 
Q 3744 4066 3744 3513 
Q 3744 3084 3544 2831 
Q 3344 2578 2956 2516 
Q 3422 2416 3680 2098 
Q 3938 1781 3938 1306 
Q 3938 681 3513 340 
Q 3088 0 2303 0 
L 628 0 
L 628 4666 
z
" transform="scale(0.015625)"/>
       <path id="DejaVuSans-61" d="M 2194 1759 
Q 1497 1759 1228 1600 
Q 959 1441 959 1056 
Q 959 750 1161 570 
Q 1363 391 1709 391 
Q 2188 391 2477 730 
Q 2766 1069 2766 1631 
L 2766 1759 
L 2194 1759 
z
M 3341 1997 
L 3341 0 
L 2766 0 
L 2766 531 
Q 2569 213 2275 61 
Q 1981 -91 1556 -91 
Q 1019 -91 701 211 
Q 384 513 384 1019 
Q 384 1609 779 1909 
Q 1175 2209 1959 2209 
L 2766 2209 
L 2766 2266 
Q 2766 2663 2505 2880 
Q 2244 3097 1772 3097 
Q 1472 3097 1187 3025 
Q 903 2953 641 2809 
L 641 3341 
Q 956 3463 1253 3523 
Q 1550 3584 1831 3584 
Q 2591 3584 2966 3190 
Q 3341 2797 3341 1997 
z
" transform="scale(0.015625)"/>
       <path id="DejaVuSans-72" d="M 2631 2963 
Q 2534 3019 2420 3045 
Q 2306 3072 2169 3072 
Q 1681 3072 1420 2755 
Q 1159 2438 1159 1844 
L 1159 0 
L 581 0 
L 581 3500 
L 1159 3500 
L 1159 2956 
Q 1341 3275 1631 3429 
Q 1922 3584 2338 3584 
Q 2397 3584 2469 3576 
Q 2541 3569 2628 3553 
L 2631 2963 
z
" transform="scale(0.015625)"/>
       <path id="DejaVuSans-62" d="M 3116 1747 
Q 3116 2381 2855 2742 
Q 2594 3103 2138 3103 
Q 1681 3103 1420 2742 
Q 1159 2381 1159 1747 
Q 1159 1113 1420 752 
Q 1681 391 2138 391 
Q 2594 391 2855 752 
Q 3116 1113 3116 1747 
z
M 1159 2969 
Q 1341 3281 1617 3432 
Q 1894 3584 2278 3584 
Q 2916 3584 3314 3078 
Q 3713 2572 3713 1747 
Q 3713 922 3314 415 
Q 2916 -91 2278 -91 
Q 1894 -91 1617 61 
Q 1341 213 1159 525 
L 1159 0 
L 581 0 
L 581 4863 
L 1159 4863 
L 1159 2969 
z
" transform="scale(0.015625)"/>
      </defs>
      <use xlink:href="#DejaVuSans-4a"/>
      <use xlink:href="#DejaVuSans-6f" x="29.492188"/>
      <use xlink:href="#DejaVuSans-73" x="90.673828"/>
      <use xlink:href="#DejaVuSans-65" x="142.773438"/>
      <use xlink:href="#DejaVuSans-70" x="204.296875"/>
      <use xlink:href="#DejaVuSans-68" x="267.773438"/>
      <use xlink:href="#DejaVuSans-20" x="331.152344"/>
      <use xlink:href="#DejaVuSans-42" x="362.939453"/>
      <use xlink:href="#DejaVuSans-61" x="431.542969"/>
      <use xlink:href="#DejaVuSans-72" x="492.822266"/>
      <use xlink:href="#DejaVuSans-62" x="533.935547"/>
      <use xlink:href="#DejaVuSans-65" x="597.412109"/>
      <use xlink:href="#DejaVuSans-72" x="658.935547"/>
      <use xlink:href="#DejaVuSans-61" x="700.048828"/>
     </g>
    </g>
   </g>
   <g id="text_2">
    <g id="patch_3">
     <path d="M 427.611816 227.954528 
L 500.57791 227.954528 
L 500.57791 211.324215 
L 427.611816 211.324215 
z
" clip-path="url(#p132ed0c024)" style="fill: #ffffff; opacity: 0.7; stroke: #000000; stroke-linejoin: miter"/>
    </g>
    <g clip-path="url(#p132ed0c024)">
     <!-- William Hanna -->
     <g transform="translate(431.571816 222.122809)scale(0.09 -0.09)">
      <defs>
       <path id="DejaVuSans-57" d="M 213 4666 
L 850 4666 
L 1831 722 
L 2809 4666 
L 3519 4666 
L 4500 722 
L 5478 4666 
L 6119 4666 
L 4947 0 
L 4153 0 
L 3169 4050 
L 2175 0 
L 1381 0 
L 213 4666 
z
" transform="scale(0.015625)"/>
       <path id="DejaVuSans-69" d="M 603 3500 
L 1178 3500 
L 1178 0 
L 603 0 
L 603 3500 
z
M 603 4863 
L 1178 4863 
L 1178 4134 
L 603 4134 
L 603 4863 
z
" transform="scale(0.015625)"/>
       <path id="DejaVuSans-6c" d="M 603 4863 
L 1178 4863 
L 1178 0 
L 603 0 
L 603 4863 
z
" transform="scale(0.015625)"/>
       <path id="DejaVuSans-6d" d="M 3328 2828 
Q 3544 3216 3844 3400 
Q 4144 3584 4550 3584 
Q 5097 3584 5394 3201 
Q 5691 2819 5691 2113 
L 5691 0 
L 5113 0 
L 5113 2094 
Q 5113 2597 4934 2840 
Q 4756 3084 4391 3084 
Q 3944 3084 3684 2787 
Q 3425 2491 3425 1978 
L 3425 0 
L 2847 0 
L 2847 2094 
Q 2847 2600 2669 2842 
Q 2491 3084 2119 3084 
Q 1678 3084 1418 2786 
Q 1159 2488 1159 1978 
L 1159 0 
L 581 0 
L 581 3500 
L 1159 3500 
L 1159 2956 
Q 1356 3278 1631 3431 
Q 1906 3584 2284 3584 
Q 2666 3584 2933 3390 
Q 3200 3197 3328 2828 
z
" transform="scale(0.015625)"/>
       <path id="DejaVuSans-48" d="M 628 4666 
L 1259 4666 
L 1259 2753 
L 3553 2753 
L 3553 4666 
L 4184 4666 
L 4184 0 
L 3553 0 
L 3553 2222 
L 1259 2222 
L 1259 0 
L 628 0 
L 628 4666 
z
" transform="scale(0.015625)"/>
       <path id="DejaVuSans-6e" d="M 3513 2113 
L 3513 0 
L 2938 0 
L 2938 2094 
Q 2938 2591 2744 2837 
Q 2550 3084 2163 3084 
Q 1697 3084 1428 2787 
Q 1159 2491 1159 1978 
L 1159 0 
L 581 0 
L 581 3500 
L 1159 3500 
L 1159 2956 
Q 1366 3272 1645 3428 
Q 1925 3584 2291 3584 
Q 2894 3584 3203 3211 
Q 3513 2838 3513 2113 
z
" transform="scale(0.015625)"/>
      </defs>
      <use xlink:href="#DejaVuSans-57"/>
      <use xlink:href="#DejaVuSans-69" x="96.626953"/>
      <use xlink:href="#DejaVuSans-6c" x="124.410156"/>
      <use xlink:href="#DejaVuSans-6c" x="152.193359"/>
      <use xlink:href="#DejaVuSans-69" x="179.976562"/>
      <use xlink:href="#DejaVuSans-61" x="207.759766"/>
      <use xlink:href="#DejaVuSans-6d" x="269.039062"/>
      <use xlink:href="#DejaVuSans-20" x="366.451172"/>
      <use xlink:href="#DejaVuSans-48" x="398.238281"/>
      <use xlink:href="#DejaVuSans-61" x="473.433594"/>
      <use xlink:href="#DejaVuSans-6e" x="534.712891"/>
      <use xlink:href="#DejaVuSans-6e" x="598.091797"/>
      <use xlink:href="#DejaVuSans-61" x="661.470703"/>
     </g>
    </g>
   </g>
   <g id="text_3">
    <g id="patch_4">
     <path d="M 390.642966 157.586033 
L 436.011403 157.586033 
L 436.011403 140.955721 
L 390.642966 140.955721 
z
" clip-path="url(#p132ed0c024)" style="fill: #ffffff; opacity: 0.7; stroke: #000000; stroke-linejoin: miter"/>
    </g>
    <g clip-path="url(#p132ed0c024)">
     <!-- Del Lord -->
     <g transform="translate(394.602966 151.754315)scale(0.09 -0.09)">
      <defs>
       <path id="DejaVuSans-44" d="M 1259 4147 
L 1259 519 
L 2022 519 
Q 2988 519 3436 956 
Q 3884 1394 3884 2338 
Q 3884 3275 3436 3711 
Q 2988 4147 2022 4147 
L 1259 4147 
z
M 628 4666 
L 1925 4666 
Q 3281 4666 3915 4102 
Q 4550 3538 4550 2338 
Q 4550 1131 3912 565 
Q 3275 0 1925 0 
L 628 0 
L 628 4666 
z
" transform="scale(0.015625)"/>
       <path id="DejaVuSans-4c" d="M 628 4666 
L 1259 4666 
L 1259 531 
L 3531 531 
L 3531 0 
L 628 0 
L 628 4666 
z
" transform="scale(0.015625)"/>
       <path id="DejaVuSans-64" d="M 2906 2969 
L 2906 4863 
L 3481 4863 
L 3481 0 
L 2906 0 
L 2906 525 
Q 2725 213 2448 61 
Q 2172 -91 1784 -91 
Q 1150 -91 751 415 
Q 353 922 353 1747 
Q 353 2572 751 3078 
Q 1150 3584 1784 3584 
Q 2172 3584 2448 3432 
Q 2725 3281 2906 2969 
z
M 947 1747 
Q 947 1113 1208 752 
Q 1469 391 1925 391 
Q 2381 391 2643 752 
Q 2906 1113 2906 1747 
Q 2906 2381 2643 2742 
Q 2381 3103 1925 3103 
Q 1469 3103 1208 2742 
Q 947 2381 947 1747 
z
" transform="scale(0.015625)"/>
      </defs>
      <use xlink:href="#DejaVuSans-44"/>
      <use xlink:href="#DejaVuSans-65" x="77.001953"/>
      <use xlink:href="#DejaVuSans-6c" x="138.525391"/>
      <use xlink:href="#DejaVuSans-20" x="166.308594"/>
      <use xlink:href="#DejaVuSans-4c" x="198.095703"/>
      <use xlink:href="#DejaVuSans-6f" x="252.058594"/>
      <use xlink:href="#DejaVuSans-72" x="313.240234"/>
      <use xlink:href="#DejaVuSans-64" x="352.603516"/>
     </g>
    </g>
   </g>
   <g id="text_4">
    <g id="patch_5">
     <path d="M 308.906347 114.095922 
L 368.148847 114.095922 
L 368.148847 97.46561 
L 308.906347 97.46561 
z
" clip-path="url(#p132ed0c024)" style="fill: #ffffff; opacity: 0.7; stroke: #000000; stroke-linejoin: miter"/>
    </g>
    <g clip-path="url(#p132ed0c024)">
     <!-- Friz Freleng -->
     <g transform="translate(312.866347 108.264203)scale(0.09 -0.09)">
      <defs>
       <path id="DejaVuSans-46" d="M 628 4666 
L 3309 4666 
L 3309 4134 
L 1259 4134 
L 1259 2759 
L 3109 2759 
L 3109 2228 
L 1259 2228 
L 1259 0 
L 628 0 
L 628 4666 
z
" transform="scale(0.015625)"/>
       <path id="DejaVuSans-7a" d="M 353 3500 
L 3084 3500 
L 3084 2975 
L 922 459 
L 3084 459 
L 3084 0 
L 275 0 
L 275 525 
L 2438 3041 
L 353 3041 
L 353 3500 
z
" transform="scale(0.015625)"/>
       <path id="DejaVuSans-67" d="M 2906 1791 
Q 2906 2416 2648 2759 
Q 2391 3103 1925 3103 
Q 1463 3103 1205 2759 
Q 947 2416 947 1791 
Q 947 1169 1205 825 
Q 1463 481 1925 481 
Q 2391 481 2648 825 
Q 2906 1169 2906 1791 
z
M 3481 434 
Q 3481 -459 3084 -895 
Q 2688 -1331 1869 -1331 
Q 1566 -1331 1297 -1286 
Q 1028 -1241 775 -1147 
L 775 -588 
Q 1028 -725 1275 -790 
Q 1522 -856 1778 -856 
Q 2344 -856 2625 -561 
Q 2906 -266 2906 331 
L 2906 616 
Q 2728 306 2450 153 
Q 2172 0 1784 0 
Q 1141 0 747 490 
Q 353 981 353 1791 
Q 353 2603 747 3093 
Q 1141 3584 1784 3584 
Q 2172 3584 2450 3431 
Q 2728 3278 2906 2969 
L 2906 3500 
L 3481 3500 
L 3481 434 
z
" transform="scale(0.015625)"/>
      </defs>
      <use xlink:href="#DejaVuSans-46"/>
      <use xlink:href="#DejaVuSans-72" x="50.269531"/>
      <use xlink:href="#DejaVuSans-69" x="91.382812"/>
      <use xlink:href="#DejaVuSans-7a" x="119.166016"/>
      <use xlink:href="#DejaVuSans-20" x="171.65625"/>
      <use xlink:href="#DejaVuSans-46" x="203.443359"/>
      <use xlink:href="#DejaVuSans-72" x="253.712891"/>
      <use xlink:href="#DejaVuSans-65" x="292.576172"/>
      <use xlink:href="#DejaVuSans-6c" x="354.099609"/>
      <use xlink:href="#DejaVuSans-65" x="381.882812"/>
      <use xlink:href="#DejaVuSans-6e" x="443.40625"/>
      <use xlink:href="#DejaVuSans-67" x="506.785156"/>
     </g>
    </g>
   </g>
   <g id="text_5">
    <g id="patch_6">
     <path d="M 221.267425 105.004013 
L 283.9918 105.004013 
L 283.9918 88.3737 
L 221.267425 88.3737 
z
" clip-path="url(#p132ed0c024)" style="fill: #ffffff; opacity: 0.7; stroke: #000000; stroke-linejoin: miter"/>
    </g>
    <g clip-path="url(#p132ed0c024)">
     <!-- Chuck Jones -->
     <g transform="translate(225.227425 99.172294)scale(0.09 -0.09)">
      <defs>
       <path id="DejaVuSans-43" d="M 4122 4306 
L 4122 3641 
Q 3803 3938 3442 4084 
Q 3081 4231 2675 4231 
Q 1875 4231 1450 3742 
Q 1025 3253 1025 2328 
Q 1025 1406 1450 917 
Q 1875 428 2675 428 
Q 3081 428 3442 575 
Q 3803 722 4122 1019 
L 4122 359 
Q 3791 134 3420 21 
Q 3050 -91 2638 -91 
Q 1578 -91 968 557 
Q 359 1206 359 2328 
Q 359 3453 968 4101 
Q 1578 4750 2638 4750 
Q 3056 4750 3426 4639 
Q 3797 4528 4122 4306 
z
" transform="scale(0.015625)"/>
       <path id="DejaVuSans-75" d="M 544 1381 
L 544 3500 
L 1119 3500 
L 1119 1403 
Q 1119 906 1312 657 
Q 1506 409 1894 409 
Q 2359 409 2629 706 
Q 2900 1003 2900 1516 
L 2900 3500 
L 3475 3500 
L 3475 0 
L 2900 0 
L 2900 538 
Q 2691 219 2414 64 
Q 2138 -91 1772 -91 
Q 1169 -91 856 284 
Q 544 659 544 1381 
z
M 1991 3584 
L 1991 3584 
z
" transform="scale(0.015625)"/>
       <path id="DejaVuSans-63" d="M 3122 3366 
L 3122 2828 
Q 2878 2963 2633 3030 
Q 2388 3097 2138 3097 
Q 1578 3097 1268 2742 
Q 959 2388 959 1747 
Q 959 1106 1268 751 
Q 1578 397 2138 397 
Q 2388 397 2633 464 
Q 2878 531 3122 666 
L 3122 134 
Q 2881 22 2623 -34 
Q 2366 -91 2075 -91 
Q 1284 -91 818 406 
Q 353 903 353 1747 
Q 353 2603 823 3093 
Q 1294 3584 2113 3584 
Q 2378 3584 2631 3529 
Q 2884 3475 3122 3366 
z
" transform="scale(0.015625)"/>
       <path id="DejaVuSans-6b" d="M 581 4863 
L 1159 4863 
L 1159 1991 
L 2875 3500 
L 3609 3500 
L 1753 1863 
L 3688 0 
L 2938 0 
L 1159 1709 
L 1159 0 
L 581 0 
L 581 4863 
z
" transform="scale(0.015625)"/>
      </defs>
      <use xlink:href="#DejaVuSans-43"/>
      <use xlink:href="#DejaVuSans-68" x="69.824219"/>
      <use xlink:href="#DejaVuSans-75" x="133.203125"/>
      <use xlink:href="#DejaVuSans-63" x="196.582031"/>
      <use xlink:href="#DejaVuSans-6b" x="251.5625"/>
      <use xlink:href="#DejaVuSans-20" x="309.472656"/>
      <use xlink:href="#DejaVuSans-4a" x="341.259766"/>
      <use xlink:href="#DejaVuSans-6f" x="370.751953"/>
      <use xlink:href="#DejaVuSans-6e" x="431.933594"/>
      <use xlink:href="#DejaVuSans-65" x="495.3125"/>
      <use xlink:href="#DejaVuSans-73" x="556.835938"/>
     </g>
    </g>
   </g>
   <g id="text_6">
    <g id="patch_7">
     <path d="M 127.287191 131.88239 
L 213.684378 131.88239 
L 213.684378 115.252078 
L 127.287191 115.252078 
z
" clip-path="url(#p132ed0c024)" style="fill: #ffffff; opacity: 0.7; stroke: #000000; stroke-linejoin: miter"/>
    </g>
    <g clip-path="url(#p132ed0c024)">
     <!-- Robert McKimson -->
     <g transform="translate(131.247191 126.050671)scale(0.09 -0.09)">
      <defs>
       <path id="DejaVuSans-52" d="M 2841 2188 
Q 3044 2119 3236 1894 
Q 3428 1669 3622 1275 
L 4263 0 
L 3584 0 
L 2988 1197 
Q 2756 1666 2539 1819 
Q 2322 1972 1947 1972 
L 1259 1972 
L 1259 0 
L 628 0 
L 628 4666 
L 2053 4666 
Q 2853 4666 3247 4331 
Q 3641 3997 3641 3322 
Q 3641 2881 3436 2590 
Q 3231 2300 2841 2188 
z
M 1259 4147 
L 1259 2491 
L 2053 2491 
Q 2509 2491 2742 2702 
Q 2975 2913 2975 3322 
Q 2975 3731 2742 3939 
Q 2509 4147 2053 4147 
L 1259 4147 
z
" transform="scale(0.015625)"/>
       <path id="DejaVuSans-74" d="M 1172 4494 
L 1172 3500 
L 2356 3500 
L 2356 3053 
L 1172 3053 
L 1172 1153 
Q 1172 725 1289 603 
Q 1406 481 1766 481 
L 2356 481 
L 2356 0 
L 1766 0 
Q 1100 0 847 248 
Q 594 497 594 1153 
L 594 3053 
L 172 3053 
L 172 3500 
L 594 3500 
L 594 4494 
L 1172 4494 
z
" transform="scale(0.015625)"/>
       <path id="DejaVuSans-4d" d="M 628 4666 
L 1569 4666 
L 2759 1491 
L 3956 4666 
L 4897 4666 
L 4897 0 
L 4281 0 
L 4281 4097 
L 3078 897 
L 2444 897 
L 1241 4097 
L 1241 0 
L 628 0 
L 628 4666 
z
" transform="scale(0.015625)"/>
       <path id="DejaVuSans-4b" d="M 628 4666 
L 1259 4666 
L 1259 2694 
L 3353 4666 
L 4166 4666 
L 1850 2491 
L 4331 0 
L 3500 0 
L 1259 2247 
L 1259 0 
L 628 0 
L 628 4666 
z
" transform="scale(0.015625)"/>
      </defs>
      <use xlink:href="#DejaVuSans-52"/>
      <use xlink:href="#DejaVuSans-6f" x="64.982422"/>
      <use xlink:href="#DejaVuSans-62" x="126.164062"/>
      <use xlink:href="#DejaVuSans-65" x="189.640625"/>
      <use xlink:href="#DejaVuSans-72" x="251.164062"/>
      <use xlink:href="#DejaVuSans-74" x="292.277344"/>
      <use xlink:href="#DejaVuSans-20" x="331.486328"/>
      <use xlink:href="#DejaVuSans-4d" x="363.273438"/>
      <use xlink:href="#DejaVuSans-63" x="449.552734"/>
      <use xlink:href="#DejaVuSans-4b" x="504.533203"/>
      <use xlink:href="#DejaVuSans-69" x="570.109375"/>
      <use xlink:href="#DejaVuSans-6d" x="597.892578"/>
      <use xlink:href="#DejaVuSans-73" x="695.304688"/>
      <use xlink:href="#DejaVuSans-6f" x="747.404297"/>
      <use xlink:href="#DejaVuSans-6e" x="808.585938"/>
     </g>
    </g>
   </g>
   <g id="text_7">
    <g id="patch_8">
     <path d="M 75.3986 190.083523 
L 137.200475 190.083523 
L 137.200475 173.453211 
L 75.3986 173.453211 
z
" clip-path="url(#p132ed0c024)" style="fill: #ffffff; opacity: 0.7; stroke: #000000; stroke-linejoin: miter"/>
    </g>
    <g clip-path="url(#p132ed0c024)">
     <!-- Satyajit Ray -->
     <g transform="translate(79.3586 184.251804)scale(0.09 -0.09)">
      <defs>
       <path id="DejaVuSans-53" d="M 3425 4513 
L 3425 3897 
Q 3066 4069 2747 4153 
Q 2428 4238 2131 4238 
Q 1616 4238 1336 4038 
Q 1056 3838 1056 3469 
Q 1056 3159 1242 3001 
Q 1428 2844 1947 2747 
L 2328 2669 
Q 3034 2534 3370 2195 
Q 3706 1856 3706 1288 
Q 3706 609 3251 259 
Q 2797 -91 1919 -91 
Q 1588 -91 1214 -16 
Q 841 59 441 206 
L 441 856 
Q 825 641 1194 531 
Q 1563 422 1919 422 
Q 2459 422 2753 634 
Q 3047 847 3047 1241 
Q 3047 1584 2836 1778 
Q 2625 1972 2144 2069 
L 1759 2144 
Q 1053 2284 737 2584 
Q 422 2884 422 3419 
Q 422 4038 858 4394 
Q 1294 4750 2059 4750 
Q 2388 4750 2728 4690 
Q 3069 4631 3425 4513 
z
" transform="scale(0.015625)"/>
       <path id="DejaVuSans-79" d="M 2059 -325 
Q 1816 -950 1584 -1140 
Q 1353 -1331 966 -1331 
L 506 -1331 
L 506 -850 
L 844 -850 
Q 1081 -850 1212 -737 
Q 1344 -625 1503 -206 
L 1606 56 
L 191 3500 
L 800 3500 
L 1894 763 
L 2988 3500 
L 3597 3500 
L 2059 -325 
z
" transform="scale(0.015625)"/>
       <path id="DejaVuSans-6a" d="M 603 3500 
L 1178 3500 
L 1178 -63 
Q 1178 -731 923 -1031 
Q 669 -1331 103 -1331 
L -116 -1331 
L -116 -844 
L 38 -844 
Q 366 -844 484 -692 
Q 603 -541 603 -63 
L 603 3500 
z
M 603 4863 
L 1178 4863 
L 1178 4134 
L 603 4134 
L 603 4863 
z
" transform="scale(0.015625)"/>
      </defs>
      <use xlink:href="#DejaVuSans-53"/>
      <use xlink:href="#DejaVuSans-61" x="63.476562"/>
      <use xlink:href="#DejaVuSans-74" x="124.755859"/>
      <use xlink:href="#DejaVuSans-79" x="163.964844"/>
      <use xlink:href="#DejaVuSans-61" x="223.144531"/>
      <use xlink:href="#DejaVuSans-6a" x="284.423828"/>
      <use xlink:href="#DejaVuSans-69" x="312.207031"/>
      <use xlink:href="#DejaVuSans-74" x="339.990234"/>
      <use xlink:href="#DejaVuSans-20" x="379.199219"/>
      <use xlink:href="#DejaVuSans-52" x="410.986328"/>
      <use xlink:href="#DejaVuSans-61" x="478.21875"/>
      <use xlink:href="#DejaVuSans-79" x="539.498047"/>
     </g>
    </g>
   </g>
   <g id="text_8">
    <g id="patch_9">
     <path d="M 24.251809 269.543933 
L 118.086653 269.543933 
L 118.086653 252.913621 
L 24.251809 252.913621 
z
" clip-path="url(#p132ed0c024)" style="fill: #ffffff; opacity: 0.7; stroke: #000000; stroke-linejoin: miter"/>
    </g>
    <g clip-path="url(#p132ed0c024)">
     <!-- Robert F. McGowan -->
     <g transform="translate(28.211809 263.712214)scale(0.09 -0.09)">
      <defs>
       <path id="DejaVuSans-2e" d="M 684 794 
L 1344 794 
L 1344 0 
L 684 0 
L 684 794 
z
" transform="scale(0.015625)"/>
       <path id="DejaVuSans-47" d="M 3809 666 
L 3809 1919 
L 2778 1919 
L 2778 2438 
L 4434 2438 
L 4434 434 
Q 4069 175 3628 42 
Q 3188 -91 2688 -91 
Q 1594 -91 976 548 
Q 359 1188 359 2328 
Q 359 3472 976 4111 
Q 1594 4750 2688 4750 
Q 3144 4750 3555 4637 
Q 3966 4525 4313 4306 
L 4313 3634 
Q 3963 3931 3569 4081 
Q 3175 4231 2741 4231 
Q 1884 4231 1454 3753 
Q 1025 3275 1025 2328 
Q 1025 1384 1454 906 
Q 1884 428 2741 428 
Q 3075 428 3337 486 
Q 3600 544 3809 666 
z
" transform="scale(0.015625)"/>
       <path id="DejaVuSans-77" d="M 269 3500 
L 844 3500 
L 1563 769 
L 2278 3500 
L 2956 3500 
L 3675 769 
L 4391 3500 
L 4966 3500 
L 4050 0 
L 3372 0 
L 2619 2869 
L 1863 0 
L 1184 0 
L 269 3500 
z
" transform="scale(0.015625)"/>
      </defs>
      <use xlink:href="#DejaVuSans-52"/>
      <use xlink:href="#DejaVuSans-6f" x="64.982422"/>
      <use xlink:href="#DejaVuSans-62" x="126.164062"/>
      <use xlink:href="#DejaVuSans-65" x="189.640625"/>
      <use xlink:href="#DejaVuSans-72" x="251.164062"/>
      <use xlink:href="#DejaVuSans-74" x="292.277344"/>
      <use xlink:href="#DejaVuSans-20" x="331.486328"/>
      <use xlink:href="#DejaVuSans-46" x="363.273438"/>
      <use xlink:href="#DejaVuSans-2e" x="404.667969"/>
      <use xlink:href="#DejaVuSans-20" x="436.455078"/>
      <use xlink:href="#DejaVuSans-4d" x="468.242188"/>
      <use xlink:href="#DejaVuSans-63" x="554.521484"/>
      <use xlink:href="#DejaVuSans-47" x="609.501953"/>
      <use xlink:href="#DejaVuSans-6f" x="686.992188"/>
      <use xlink:href="#DejaVuSans-77" x="748.173828"/>
      <use xlink:href="#DejaVuSans-61" x="829.960938"/>
      <use xlink:href="#DejaVuSans-6e" x="891.240234"/>
     </g>
    </g>
   </g>
   <g id="text_9">
    <g id="patch_10">
     <path d="M 31.853306 356.524168 
L 110.485181 356.524168 
L 110.485181 339.893855 
L 31.853306 339.893855 
z
" clip-path="url(#p132ed0c024)" style="fill: #ffffff; opacity: 0.7; stroke: #000000; stroke-linejoin: miter"/>
    </g>
    <g clip-path="url(#p132ed0c024)">
     <!-- Charles Chaplin -->
     <g transform="translate(35.813306 350.692449)scale(0.09 -0.09)">
      <use xlink:href="#DejaVuSans-43"/>
      <use xlink:href="#DejaVuSans-68" x="69.824219"/>
      <use xlink:href="#DejaVuSans-61" x="133.203125"/>
      <use xlink:href="#DejaVuSans-72" x="194.482422"/>
      <use xlink:href="#DejaVuSans-6c" x="235.595703"/>
      <use xlink:href="#DejaVuSans-65" x="263.378906"/>
      <use xlink:href="#DejaVuSans-73" x="324.902344"/>
      <use xlink:href="#DejaVuSans-20" x="377.001953"/>
      <use xlink:href="#DejaVuSans-43" x="408.789062"/>
      <use xlink:href="#DejaVuSans-68" x="478.613281"/>
      <use xlink:href="#DejaVuSans-61" x="541.992188"/>
      <use xlink:href="#DejaVuSans-70" x="603.271484"/>
      <use xlink:href="#DejaVuSans-6c" x="666.748047"/>
      <use xlink:href="#DejaVuSans-69" x="694.53125"/>
      <use xlink:href="#DejaVuSans-6e" x="722.314453"/>
     </g>
    </g>
   </g>
   <g id="text_10">
    <g id="patch_11">
     <path d="M 65.30455 435.984553 
L 147.29455 435.984553 
L 147.29455 419.35424 
L 65.30455 419.35424 
z
" clip-path="url(#p132ed0c024)" style="fill: #ffffff; opacity: 0.7; stroke: #000000; stroke-linejoin: miter"/>
    </g>
    <g clip-path="url(#p132ed0c024)">
     <!-- Robert Clampett -->
     <g transform="translate(69.26455 430.152834)scale(0.09 -0.09)">
      <use xlink:href="#DejaVuSans-52"/>
      <use xlink:href="#DejaVuSans-6f" x="64.982422"/>
      <use xlink:href="#DejaVuSans-62" x="126.164062"/>
      <use xlink:href="#DejaVuSans-65" x="189.640625"/>
      <use xlink:href="#DejaVuSans-72" x="251.164062"/>
      <use xlink:href="#DejaVuSans-74" x="292.277344"/>
      <use xlink:href="#DejaVuSans-20" x="331.486328"/>
      <use xlink:href="#DejaVuSans-43" x="363.273438"/>
      <use xlink:href="#DejaVuSans-6c" x="433.097656"/>
      <use xlink:href="#DejaVuSans-61" x="460.880859"/>
      <use xlink:href="#DejaVuSans-6d" x="522.160156"/>
      <use xlink:href="#DejaVuSans-70" x="619.572266"/>
      <use xlink:href="#DejaVuSans-65" x="683.048828"/>
      <use xlink:href="#DejaVuSans-74" x="744.572266"/>
      <use xlink:href="#DejaVuSans-74" x="783.78125"/>
     </g>
    </g>
   </g>
   <g id="text_11">
    <g id="patch_12">
     <path d="M 133.441675 494.185686 
L 207.529956 494.185686 
L 207.529956 477.555373 
L 133.441675 477.555373 
z
" clip-path="url(#p132ed0c024)" style="fill: #ffffff; opacity: 0.7; stroke: #000000; stroke-linejoin: miter"/>
    </g>
    <g clip-path="url(#p132ed0c024)">
     <!-- George Sidney -->
     <g transform="translate(137.401675 488.353967)scale(0.09 -0.09)">
      <use xlink:href="#DejaVuSans-47"/>
      <use xlink:href="#DejaVuSans-65" x="77.490234"/>
      <use xlink:href="#DejaVuSans-6f" x="139.013672"/>
      <use xlink:href="#DejaVuSans-72" x="200.195312"/>
      <use xlink:href="#DejaVuSans-67" x="239.558594"/>
      <use xlink:href="#DejaVuSans-65" x="303.035156"/>
      <use xlink:href="#DejaVuSans-20" x="364.558594"/>
      <use xlink:href="#DejaVuSans-53" x="396.345703"/>
      <use xlink:href="#DejaVuSans-69" x="459.822266"/>
      <use xlink:href="#DejaVuSans-64" x="487.605469"/>
      <use xlink:href="#DejaVuSans-6e" x="551.082031"/>
      <use xlink:href="#DejaVuSans-65" x="614.460938"/>
      <use xlink:href="#DejaVuSans-79" x="675.984375"/>
     </g>
    </g>
   </g>
   <g id="text_12">
    <g id="patch_13">
     <path d="M 224.417462 521.06405 
L 280.841837 521.06405 
L 280.841837 504.433738 
L 224.417462 504.433738 
z
" clip-path="url(#p132ed0c024)" style="fill: #ffffff; opacity: 0.7; stroke: #000000; stroke-linejoin: miter"/>
    </g>
    <g clip-path="url(#p132ed0c024)">
     <!-- Don Siegel -->
     <g transform="translate(228.377462 515.232332)scale(0.09 -0.09)">
      <use xlink:href="#DejaVuSans-44"/>
      <use xlink:href="#DejaVuSans-6f" x="77.001953"/>
      <use xlink:href="#DejaVuSans-6e" x="138.183594"/>
      <use xlink:href="#DejaVuSans-20" x="201.5625"/>
      <use xlink:href="#DejaVuSans-53" x="233.349609"/>
      <use xlink:href="#DejaVuSans-69" x="296.826172"/>
      <use xlink:href="#DejaVuSans-65" x="324.609375"/>
      <use xlink:href="#DejaVuSans-67" x="386.132812"/>
      <use xlink:href="#DejaVuSans-65" x="449.609375"/>
      <use xlink:href="#DejaVuSans-6c" x="511.132812"/>
     </g>
    </g>
   </g>
   <g id="text_13">
    <g id="patch_14">
     <path d="M 299.733409 511.972129 
L 377.321846 511.972129 
L 377.321846 495.341816 
L 299.733409 495.341816 
z
" clip-path="url(#p132ed0c024)" style="fill: #ffffff; opacity: 0.7; stroke: #000000; stroke-linejoin: miter"/>
    </g>
    <g clip-path="url(#p132ed0c024)">
     <!-- Busby Berkeley -->
     <g transform="translate(303.693409 506.14041)scale(0.09 -0.09)">
      <use xlink:href="#DejaVuSans-42"/>
      <use xlink:href="#DejaVuSans-75" x="68.603516"/>
      <use xlink:href="#DejaVuSans-73" x="131.982422"/>
      <use xlink:href="#DejaVuSans-62" x="184.082031"/>
      <use xlink:href="#DejaVuSans-79" x="247.558594"/>
      <use xlink:href="#DejaVuSans-20" x="306.738281"/>
      <use xlink:href="#DejaVuSans-42" x="338.525391"/>
      <use xlink:href="#DejaVuSans-65" x="407.128906"/>
      <use xlink:href="#DejaVuSans-72" x="468.652344"/>
      <use xlink:href="#DejaVuSans-6b" x="509.765625"/>
      <use xlink:href="#DejaVuSans-65" x="564.050781"/>
      <use xlink:href="#DejaVuSans-6c" x="625.574219"/>
      <use xlink:href="#DejaVuSans-65" x="653.357422"/>
      <use xlink:href="#DejaVuSans-79" x="714.880859"/>
     </g>
    </g>
   </g>
   <g id="text_14">
    <g id="patch_15">
     <path d="M 379.94144 468.481993 
L 446.713003 468.481993 
L 446.713003 451.85168 
L 379.94144 451.85168 
z
" clip-path="url(#p132ed0c024)" style="fill: #ffffff; opacity: 0.7; stroke: #000000; stroke-linejoin: miter"/>
    </g>
    <g clip-path="url(#p132ed0c024)">
     <!-- Priyadarshan -->
     <g transform="translate(383.90144 462.650274)scale(0.09 -0.09)">
      <defs>
       <path id="DejaVuSans-50" d="M 1259 4147 
L 1259 2394 
L 2053 2394 
Q 2494 2394 2734 2622 
Q 2975 2850 2975 3272 
Q 2975 3691 2734 3919 
Q 2494 4147 2053 4147 
L 1259 4147 
z
M 628 4666 
L 2053 4666 
Q 2838 4666 3239 4311 
Q 3641 3956 3641 3272 
Q 3641 2581 3239 2228 
Q 2838 1875 2053 1875 
L 1259 1875 
L 1259 0 
L 628 0 
L 628 4666 
z
" transform="scale(0.015625)"/>
      </defs>
      <use xlink:href="#DejaVuSans-50"/>
      <use xlink:href="#DejaVuSans-72" x="58.552734"/>
      <use xlink:href="#DejaVuSans-69" x="99.666016"/>
      <use xlink:href="#DejaVuSans-79" x="127.449219"/>
      <use xlink:href="#DejaVuSans-61" x="186.628906"/>
      <use xlink:href="#DejaVuSans-64" x="247.908203"/>
      <use xlink:href="#DejaVuSans-61" x="311.384766"/>
      <use xlink:href="#DejaVuSans-72" x="372.664062"/>
      <use xlink:href="#DejaVuSans-73" x="413.777344"/>
      <use xlink:href="#DejaVuSans-68" x="465.876953"/>
      <use xlink:href="#DejaVuSans-61" x="529.255859"/>
      <use xlink:href="#DejaVuSans-6e" x="590.535156"/>
     </g>
    </g>
   </g>
   <g id="text_15">
    <g id="patch_16">
     <path d="M 427.561919 398.113505 
L 500.627857 398.113505 
L 500.627857 381.483192 
L 427.561919 381.483192 
z
" clip-path="url(#p132ed0c024)" style="fill: #ffffff; opacity: 0.7; stroke: #000000; stroke-linejoin: miter"/>
    </g>
    <g clip-path="url(#p132ed0c024)">
     <!-- Michael Moore -->
     <g transform="translate(431.521919 392.281786)scale(0.09 -0.09)">
      <use xlink:href="#DejaVuSans-4d"/>
      <use xlink:href="#DejaVuSans-69" x="86.279297"/>
      <use xlink:href="#DejaVuSans-63" x="114.0625"/>
      <use xlink:href="#DejaVuSans-68" x="169.042969"/>
      <use xlink:href="#DejaVuSans-61" x="232.421875"/>
      <use xlink:href="#DejaVuSans-65" x="293.701172"/>
      <use xlink:href="#DejaVuSans-6c" x="355.224609"/>
      <use xlink:href="#DejaVuSans-20" x="383.007812"/>
      <use xlink:href="#DejaVuSans-4d" x="414.794922"/>
      <use xlink:href="#DejaVuSans-6f" x="501.074219"/>
      <use xlink:href="#DejaVuSans-6f" x="562.255859"/>
      <use xlink:href="#DejaVuSans-72" x="623.4375"/>
      <use xlink:href="#DejaVuSans-65" x="662.300781"/>
     </g>
    </g>
   </g>
   <g id="text_16">
    <!-- Impactful directors for Documentary genre - Importance rank: 7 -->
    <g transform="translate(92.235 16.318125)scale(0.12 -0.12)">
     <defs>
      <path id="DejaVuSans-49" d="M 628 4666 
L 1259 4666 
L 1259 0 
L 628 0 
L 628 4666 
z
" transform="scale(0.015625)"/>
      <path id="DejaVuSans-66" d="M 2375 4863 
L 2375 4384 
L 1825 4384 
Q 1516 4384 1395 4259 
Q 1275 4134 1275 3809 
L 1275 3500 
L 2222 3500 
L 2222 3053 
L 1275 3053 
L 1275 0 
L 697 0 
L 697 3053 
L 147 3053 
L 147 3500 
L 697 3500 
L 697 3744 
Q 697 4328 969 4595 
Q 1241 4863 1831 4863 
L 2375 4863 
z
" transform="scale(0.015625)"/>
      <path id="DejaVuSans-2d" d="M 313 2009 
L 1997 2009 
L 1997 1497 
L 313 1497 
L 313 2009 
z
" transform="scale(0.015625)"/>
      <path id="DejaVuSans-3a" d="M 750 794 
L 1409 794 
L 1409 0 
L 750 0 
L 750 794 
z
M 750 3309 
L 1409 3309 
L 1409 2516 
L 750 2516 
L 750 3309 
z
" transform="scale(0.015625)"/>
      <path id="DejaVuSans-37" d="M 525 4666 
L 3525 4666 
L 3525 4397 
L 1831 0 
L 1172 0 
L 2766 4134 
L 525 4134 
L 525 4666 
z
" transform="scale(0.015625)"/>
     </defs>
     <use xlink:href="#DejaVuSans-49"/>
     <use xlink:href="#DejaVuSans-6d" x="29.492188"/>
     <use xlink:href="#DejaVuSans-70" x="126.904297"/>
     <use xlink:href="#DejaVuSans-61" x="190.380859"/>
     <use xlink:href="#DejaVuSans-63" x="251.660156"/>
     <use xlink:href="#DejaVuSans-74" x="306.640625"/>
     <use xlink:href="#DejaVuSans-66" x="345.849609"/>
     <use xlink:href="#DejaVuSans-75" x="381.054688"/>
     <use xlink:href="#DejaVuSans-6c" x="444.433594"/>
     <use xlink:href="#DejaVuSans-20" x="472.216797"/>
     <use xlink:href="#DejaVuSans-64" x="504.003906"/>
     <use xlink:href="#DejaVuSans-69" x="567.480469"/>
     <use xlink:href="#DejaVuSans-72" x="595.263672"/>
     <use xlink:href="#DejaVuSans-65" x="634.126953"/>
     <use xlink:href="#DejaVuSans-63" x="695.650391"/>
     <use xlink:href="#DejaVuSans-74" x="750.630859"/>
     <use xlink:href="#DejaVuSans-6f" x="789.839844"/>
     <use xlink:href="#DejaVuSans-72" x="851.021484"/>
     <use xlink:href="#DejaVuSans-73" x="892.134766"/>
     <use xlink:href="#DejaVuSans-20" x="944.234375"/>
     <use xlink:href="#DejaVuSans-66" x="976.021484"/>
     <use xlink:href="#DejaVuSans-6f" x="1011.226562"/>
     <use xlink:href="#DejaVuSans-72" x="1072.408203"/>
     <use xlink:href="#DejaVuSans-20" x="1113.521484"/>
     <use xlink:href="#DejaVuSans-44" x="1145.308594"/>
     <use xlink:href="#DejaVuSans-6f" x="1222.310547"/>
     <use xlink:href="#DejaVuSans-63" x="1283.492188"/>
     <use xlink:href="#DejaVuSans-75" x="1338.472656"/>
     <use xlink:href="#DejaVuSans-6d" x="1401.851562"/>
     <use xlink:href="#DejaVuSans-65" x="1499.263672"/>
     <use xlink:href="#DejaVuSans-6e" x="1560.787109"/>
     <use xlink:href="#DejaVuSans-74" x="1624.166016"/>
     <use xlink:href="#DejaVuSans-61" x="1663.375"/>
     <use xlink:href="#DejaVuSans-72" x="1724.654297"/>
     <use xlink:href="#DejaVuSans-79" x="1765.767578"/>
     <use xlink:href="#DejaVuSans-20" x="1824.947266"/>
     <use xlink:href="#DejaVuSans-67" x="1856.734375"/>
     <use xlink:href="#DejaVuSans-65" x="1920.210938"/>
     <use xlink:href="#DejaVuSans-6e" x="1981.734375"/>
     <use xlink:href="#DejaVuSans-72" x="2045.113281"/>
     <use xlink:href="#DejaVuSans-65" x="2083.976562"/>
     <use xlink:href="#DejaVuSans-20" x="2145.5"/>
     <use xlink:href="#DejaVuSans-2d" x="2177.287109"/>
     <use xlink:href="#DejaVuSans-20" x="2213.371094"/>
     <use xlink:href="#DejaVuSans-49" x="2245.158203"/>
     <use xlink:href="#DejaVuSans-6d" x="2274.650391"/>
     <use xlink:href="#DejaVuSans-70" x="2372.0625"/>
     <use xlink:href="#DejaVuSans-6f" x="2435.539062"/>
     <use xlink:href="#DejaVuSans-72" x="2496.720703"/>
     <use xlink:href="#DejaVuSans-74" x="2537.833984"/>
     <use xlink:href="#DejaVuSans-61" x="2577.042969"/>
     <use xlink:href="#DejaVuSans-6e" x="2638.322266"/>
     <use xlink:href="#DejaVuSans-63" x="2701.701172"/>
     <use xlink:href="#DejaVuSans-65" x="2756.681641"/>
     <use xlink:href="#DejaVuSans-20" x="2818.205078"/>
     <use xlink:href="#DejaVuSans-72" x="2849.992188"/>
     <use xlink:href="#DejaVuSans-61" x="2891.105469"/>
     <use xlink:href="#DejaVuSans-6e" x="2952.384766"/>
     <use xlink:href="#DejaVuSans-6b" x="3015.763672"/>
     <use xlink:href="#DejaVuSans-3a" x="3073.673828"/>
     <use xlink:href="#DejaVuSans-20" x="3107.365234"/>
     <use xlink:href="#DejaVuSans-37" x="3139.152344"/>
    </g>
   </g>
  </g>
 </g>
 <defs>
  <clipPath id="p132ed0c024">
   <rect x="7.2" y="22.318125" width="554.4" height="554.4"/>
  </clipPath>
 </defs>
</svg>
