<?xml version="1.0" encoding="utf-8" standalone="no"?>
<!DOCTYPE svg PUBLIC "-//W3C//DTD SVG 1.1//EN"
  "http://www.w3.org/Graphics/SVG/1.1/DTD/svg11.dtd">
<svg xmlns:xlink="http://www.w3.org/1999/xlink" width="568.8pt" height="583.918125pt" viewBox="0 0 568.8 583.918125" xmlns="http://www.w3.org/2000/svg" version="1.1">
 <metadata>
  <rdf:RDF xmlns:dc="http://purl.org/dc/elements/1.1/" xmlns:cc="http://creativecommons.org/ns#" xmlns:rdf="http://www.w3.org/1999/02/22-rdf-syntax-ns#">
   <cc:Work>
    <dc:type rdf:resource="http://purl.org/dc/dcmitype/StillImage"/>
    <dc:date>2022-12-23T19:50:24.172636</dc:date>
    <dc:format>image/svg+xml</dc:format>
    <dc:creator>
     <cc:Agent>
      <dc:title>Matplotlib v3.5.3, https://matplotlib.org/</dc:title>
     </cc:Agent>
    </dc:creator>
   </cc:Work>
  </rdf:RDF>
 </metadata>
 <defs>
  <style type="text/css">*{stroke-linejoin: round; stroke-linecap: butt}</style>
 </defs>
 <g id="figure_1">
  <g id="patch_1">
   <path d="M 0 583.918125 
L 568.8 583.918125 
L 568.8 0 
L 0 0 
z
" style="fill: #ffffff"/>
  </g>
  <g id="axes_1">
   <g id="LineCollection_1">
    <path d="M 481.846154 288 
L 464.902134 200.793508 
" clip-path="url(#p676ab48cff)" style="fill: none; stroke: #000000; stroke-opacity: 0.3; stroke-width: 5"/>
    <path d="M 127.301343 161.975729 
L 94.153846 243.422649 
" clip-path="url(#p676ab48cff)" style="fill: none; stroke: #000000; stroke-opacity: 0.3; stroke-width: 10"/>
   </g>
   <g id="PathCollection_1">
    <path d="M 481.846154 315.386128 
C 489.10904 315.386128 496.075435 312.500553 501.211071 307.364917 
C 506.346707 302.229281 509.232282 295.262886 509.232282 288 
C 509.232282 280.737114 506.346707 273.770719 501.211071 268.635083 
C 496.075435 263.499447 489.10904 260.613872 481.846154 260.613872 
C 474.583268 260.613872 467.616873 263.499447 462.481237 268.635083 
C 457.345601 273.770719 454.460026 280.737114 454.460026 288 
C 454.460026 295.262886 457.345601 302.229281 462.481237 307.364917 
C 467.616873 312.500553 474.583268 315.386128 481.846154 315.386128 
z
" clip-path="url(#p676ab48cff)" style="fill: #c70039; fill-opacity: 0.99; stroke: #c70039; stroke-opacity: 0.99"/>
    <path d="M 464.902134 223.542152 
C 470.935145 223.542152 476.721871 221.145211 480.987854 216.879228 
C 485.253837 212.613245 487.650777 206.826519 487.650777 200.793508 
C 487.650777 194.760498 485.253837 188.973771 480.987854 184.707789 
C 476.721871 180.441806 470.935145 178.044865 464.902134 178.044865 
C 458.869124 178.044865 453.082397 180.441806 448.816415 184.707789 
C 444.550432 188.973771 442.153491 194.760498 442.153491 200.793508 
C 442.153491 206.826519 444.550432 212.613245 448.816415 216.879228 
C 453.082397 221.145211 458.869124 223.542152 464.902134 223.542152 
z
" clip-path="url(#p676ab48cff)" style="fill: #c70039; fill-opacity: 0.99; stroke: #c70039; stroke-opacity: 0.99"/>
    <path d="M 416.999864 151.129243 
C 422.957238 151.129243 428.671415 148.762353 432.883915 144.549853 
C 437.096415 140.337353 439.463305 134.623176 439.463305 128.665802 
C 439.463305 122.708427 437.096415 116.99425 432.883915 112.78175 
C 428.671415 108.56925 422.957238 106.20236 416.999864 106.20236 
C 411.042489 106.20236 405.328312 108.56925 401.115812 112.78175 
C 396.903312 116.99425 394.536422 122.708427 394.536422 128.665802 
C 394.536422 134.623176 396.903312 140.337353 401.115812 144.549853 
C 405.328312 148.762353 411.042489 151.129243 416.999864 151.129243 
z
" clip-path="url(#p676ab48cff)" style="fill: #c70039; fill-opacity: 0.99; stroke: #c70039; stroke-opacity: 0.99"/>
    <path d="M 346.422083 105.660239 
C 352.142991 105.660239 357.630357 103.387298 361.67565 99.342005 
C 365.720943 95.296711 367.993884 89.809346 367.993884 84.088438 
C 367.993884 78.367529 365.720943 72.880164 361.67565 68.834871 
C 357.630357 64.789578 352.142991 62.516637 346.422083 62.516637 
C 340.701174 62.516637 335.213809 64.789578 331.168516 68.834871 
C 327.123223 72.880164 324.850282 78.367529 324.850282 84.088438 
C 324.850282 89.809346 327.123223 95.296711 331.168516 99.342005 
C 335.213809 103.387298 340.701174 105.660239 346.422083 105.660239 
z
" clip-path="url(#p676ab48cff)" style="fill: #c70039; fill-opacity: 0.99; stroke: #c70039; stroke-opacity: 0.99"/>
    <path d="M 265.372317 96.144579 
C 271.041126 96.144579 276.478518 93.892337 280.486971 89.883884 
C 284.495424 85.875431 286.747665 80.438039 286.747665 74.769231 
C 286.747665 69.100422 284.495424 63.66303 280.486971 59.654577 
C 276.478518 55.646124 271.041126 53.393883 265.372317 53.393883 
C 259.703508 53.393883 254.266116 55.646124 250.257663 59.654577 
C 246.24921 63.66303 243.996969 69.100422 243.996969 74.769231 
C 243.996969 80.438039 246.24921 85.875431 250.257663 89.883884 
C 254.266116 93.892337 259.703508 96.144579 265.372317 96.144579 
z
" clip-path="url(#p676ab48cff)" style="fill: #c70039; fill-opacity: 0.99; stroke: #c70039; stroke-opacity: 0.99"/>
    <path d="M 187.864816 123.528306 
C 193.48944 123.528306 198.88445 121.293619 202.861659 117.31641 
C 206.838868 113.339201 209.073555 107.94419 209.073555 102.319567 
C 209.073555 96.694944 206.838868 91.299934 202.861659 87.322725 
C 198.88445 83.345515 193.48944 81.110829 187.864816 81.110829 
C 182.240193 81.110829 176.845183 83.345515 172.867974 87.322725 
C 168.890765 91.299934 166.656078 96.694944 166.656078 102.319567 
C 166.656078 107.94419 168.890765 113.339201 172.867974 117.31641 
C 176.845183 121.293619 182.240193 123.528306 187.864816 123.528306 
z
" clip-path="url(#p676ab48cff)" style="fill: #c70039; fill-opacity: 0.99; stroke: #c70039; stroke-opacity: 0.99"/>
    <path d="M 127.301343 183.159709 
C 132.9194 183.159709 138.308112 180.927631 142.280679 176.955065 
C 146.253245 172.982498 148.485323 167.593786 148.485323 161.975729 
C 148.485323 156.357672 146.253245 150.968959 142.280679 146.996393 
C 138.308112 143.023826 132.9194 140.791749 127.301343 140.791749 
C 121.683286 140.791749 116.294573 143.023826 112.322007 146.996393 
C 108.34944 150.968959 106.117363 156.357672 106.117363 161.975729 
C 106.117363 167.593786 108.34944 172.982498 112.322007 176.955065 
C 116.294573 180.927631 121.683286 183.159709 127.301343 183.159709 
z
" clip-path="url(#p676ab48cff)" style="fill: #c70039; fill-opacity: 0.99; stroke: #c70039; stroke-opacity: 0.99"/>
    <path d="M 94.153846 264.606629 
C 99.771903 264.606629 105.160616 262.374551 109.133182 258.401985 
C 113.105748 254.429419 115.337826 249.040706 115.337826 243.422649 
C 115.337826 237.804592 113.105748 232.415879 109.133182 228.443313 
C 105.160616 224.470747 99.771903 222.238669 94.153846 222.238669 
C 88.535789 222.238669 83.147077 224.470747 79.17451 228.443313 
C 75.201944 232.415879 72.969866 237.804592 72.969866 243.422649 
C 72.969866 249.040706 75.201944 254.429419 79.17451 258.401985 
C 83.147077 262.374551 88.535789 264.606629 94.153846 264.606629 
z
" clip-path="url(#p676ab48cff)" style="fill: #c70039; fill-opacity: 0.99; stroke: #c70039; stroke-opacity: 0.99"/>
    <path d="M 94.153858 353.647212 
C 99.74164 353.647212 105.101313 351.427162 109.052472 347.476004 
C 113.003631 343.524845 115.22368 338.165172 115.22368 332.577389 
C 115.22368 326.989607 113.003631 321.629934 109.052472 317.678775 
C 105.101313 313.727617 99.74164 311.507567 94.153858 311.507567 
C 88.566076 311.507567 83.206402 313.727617 79.255244 317.678775 
C 75.304085 321.629934 73.084036 326.989607 73.084036 332.577389 
C 73.084036 338.165172 75.304085 343.524845 79.255244 347.476004 
C 83.206402 351.427162 88.566076 353.647212 94.153858 353.647212 
z
" clip-path="url(#p676ab48cff)" style="fill: #c70039; fill-opacity: 0.99; stroke: #c70039; stroke-opacity: 0.99"/>
    <path d="M 127.301354 434.251096 
C 132.665568 434.251096 137.810799 432.119872 141.60387 428.3268 
C 145.396942 424.533728 147.528166 419.388497 147.528166 414.024284 
C 147.528166 408.660071 145.396942 403.51484 141.60387 399.721768 
C 137.810799 395.928697 132.665568 393.797472 127.301354 393.797472 
C 121.937141 393.797472 116.79191 395.928697 112.998838 399.721768 
C 109.205767 403.51484 107.074542 408.660071 107.074542 414.024284 
C 107.074542 419.388497 109.205767 424.533728 112.998838 428.3268 
C 116.79191 432.119872 121.937141 434.251096 127.301354 434.251096 
z
" clip-path="url(#p676ab48cff)" style="fill: #c70039; fill-opacity: 0.99; stroke: #c70039; stroke-opacity: 0.99"/>
    <path d="M 187.864846 493.876953 
C 193.221022 493.876953 198.358545 491.748922 202.145933 487.961533 
C 205.933322 484.174144 208.061353 479.036622 208.061353 473.680446 
C 208.061353 468.324269 205.933322 463.186747 202.145933 459.399358 
C 198.358545 455.611969 193.221022 453.483938 187.864846 453.483938 
C 182.508669 453.483938 177.371147 455.611969 173.583758 459.399358 
C 169.796369 463.186747 167.668338 468.324269 167.668338 473.680446 
C 167.668338 479.036622 169.796369 484.174144 173.583758 487.961533 
C 177.371147 491.748922 182.508669 493.876953 187.864846 493.876953 
z
" clip-path="url(#p676ab48cff)" style="fill: #c70039; fill-opacity: 0.99; stroke: #c70039; stroke-opacity: 0.99"/>
    <path d="M 265.372352 521.05172 
C 270.62893 521.05172 275.670919 518.96326 279.387881 515.246298 
C 283.104843 511.529337 285.193303 506.487347 285.193303 501.230769 
C 285.193303 495.974192 283.104843 490.932202 279.387881 487.21524 
C 275.670919 483.498278 270.62893 481.409818 265.372352 481.409818 
C 260.115774 481.409818 255.073785 483.498278 251.356823 487.21524 
C 247.639861 490.932202 245.551401 495.974192 245.551401 501.230769 
C 245.551401 506.487347 247.639861 511.529337 251.356823 515.246298 
C 255.073785 518.96326 260.115774 521.05172 265.372352 521.05172 
z
" clip-path="url(#p676ab48cff)" style="fill: #c70039; fill-opacity: 0.99; stroke: #c70039; stroke-opacity: 0.99"/>
    <path d="M 346.422112 511.723111 
C 351.6762 511.723111 356.7158 509.635639 360.431001 505.920439 
C 364.146202 502.205238 366.233673 497.165637 366.233673 491.91155 
C 366.233673 486.657462 364.146202 481.617861 360.431001 477.90266 
C 356.7158 474.18746 351.6762 472.099989 346.422112 472.099989 
C 341.168025 472.099989 336.128424 474.18746 332.413223 477.90266 
C 328.698022 481.617861 326.610551 486.657462 326.610551 491.91155 
C 326.610551 497.165637 328.698022 502.205238 332.413223 505.920439 
C 336.128424 509.635639 341.168025 511.723111 346.422112 511.723111 
z
" clip-path="url(#p676ab48cff)" style="fill: #c70039; fill-opacity: 0.99; stroke: #c70039; stroke-opacity: 0.99"/>
    <path d="M 416.999899 467.042661 
C 422.226654 467.042661 427.240039 464.966049 430.935913 461.270175 
C 434.631788 457.5743 436.7084 452.560916 436.7084 447.33416 
C 436.7084 442.107404 434.631788 437.09402 430.935913 433.398145 
C 427.240039 429.702271 422.226654 427.625659 416.999899 427.625659 
C 411.773143 427.625659 406.759758 429.702271 403.063884 433.398145 
C 399.368009 437.09402 397.291397 442.107404 397.291397 447.33416 
C 397.291397 452.560916 399.368009 457.5743 403.063884 461.270175 
C 406.759758 464.966049 411.773143 467.042661 416.999899 467.042661 
z
" clip-path="url(#p676ab48cff)" style="fill: #c70039; fill-opacity: 0.99; stroke: #c70039; stroke-opacity: 0.99"/>
    <path d="M 464.902158 394.571376 
C 470.037794 394.571376 474.963779 392.530967 478.595222 388.899524 
C 482.226665 385.268081 484.267074 380.342096 484.267074 375.20646 
C 484.267074 370.070824 482.226665 365.144839 478.595222 361.513396 
C 474.963779 357.881953 470.037794 355.841543 464.902158 355.841543 
C 459.766522 355.841543 454.840537 357.881953 451.209094 361.513396 
C 447.577651 365.144839 445.537241 370.070824 445.537241 375.20646 
C 445.537241 380.342096 447.577651 385.268081 451.209094 388.899524 
C 454.840537 392.530967 459.766522 394.571376 464.902158 394.571376 
z
" clip-path="url(#p676ab48cff)" style="fill: #c70039; fill-opacity: 0.99; stroke: #c70039; stroke-opacity: 0.99"/>
   </g>
   <g id="text_1">
    <g id="patch_2">
     <path d="M 450.483966 296.315156 
L 513.208341 296.315156 
L 513.208341 279.684844 
L 450.483966 279.684844 
z
" clip-path="url(#p676ab48cff)" style="fill: #ffffff; opacity: 0.7; stroke: #000000; stroke-linejoin: miter"/>
    </g>
    <g clip-path="url(#p676ab48cff)">
     <!-- Chuck Jones -->
     <g transform="translate(454.443966 290.483437)scale(0.09 -0.09)">
      <defs>
       <path id="DejaVuSans-43" d="M 4122 4306 
L 4122 3641 
Q 3803 3938 3442 4084 
Q 3081 4231 2675 4231 
Q 1875 4231 1450 3742 
Q 1025 3253 1025 2328 
Q 1025 1406 1450 917 
Q 1875 428 2675 428 
Q 3081 428 3442 575 
Q 3803 722 4122 1019 
L 4122 359 
Q 3791 134 3420 21 
Q 3050 -91 2638 -91 
Q 1578 -91 968 557 
Q 359 1206 359 2328 
Q 359 3453 968 4101 
Q 1578 4750 2638 4750 
Q 3056 4750 3426 4639 
Q 3797 4528 4122 4306 
z
" transform="scale(0.015625)"/>
       <path id="DejaVuSans-68" d="M 3513 2113 
L 3513 0 
L 2938 0 
L 2938 2094 
Q 2938 2591 2744 2837 
Q 2550 3084 2163 3084 
Q 1697 3084 1428 2787 
Q 1159 2491 1159 1978 
L 1159 0 
L 581 0 
L 581 4863 
L 1159 4863 
L 1159 2956 
Q 1366 3272 1645 3428 
Q 1925 3584 2291 3584 
Q 2894 3584 3203 3211 
Q 3513 2838 3513 2113 
z
" transform="scale(0.015625)"/>
       <path id="DejaVuSans-75" d="M 544 1381 
L 544 3500 
L 1119 3500 
L 1119 1403 
Q 1119 906 1312 657 
Q 1506 409 1894 409 
Q 2359 409 2629 706 
Q 2900 1003 2900 1516 
L 2900 3500 
L 3475 3500 
L 3475 0 
L 2900 0 
L 2900 538 
Q 2691 219 2414 64 
Q 2138 -91 1772 -91 
Q 1169 -91 856 284 
Q 544 659 544 1381 
z
M 1991 3584 
L 1991 3584 
z
" transform="scale(0.015625)"/>
       <path id="DejaVuSans-63" d="M 3122 3366 
L 3122 2828 
Q 2878 2963 2633 3030 
Q 2388 3097 2138 3097 
Q 1578 3097 1268 2742 
Q 959 2388 959 1747 
Q 959 1106 1268 751 
Q 1578 397 2138 397 
Q 2388 397 2633 464 
Q 2878 531 3122 666 
L 3122 134 
Q 2881 22 2623 -34 
Q 2366 -91 2075 -91 
Q 1284 -91 818 406 
Q 353 903 353 1747 
Q 353 2603 823 3093 
Q 1294 3584 2113 3584 
Q 2378 3584 2631 3529 
Q 2884 3475 3122 3366 
z
" transform="scale(0.015625)"/>
       <path id="DejaVuSans-6b" d="M 581 4863 
L 1159 4863 
L 1159 1991 
L 2875 3500 
L 3609 3500 
L 1753 1863 
L 3688 0 
L 2938 0 
L 1159 1709 
L 1159 0 
L 581 0 
L 581 4863 
z
" transform="scale(0.015625)"/>
       <path id="DejaVuSans-20" transform="scale(0.015625)"/>
       <path id="DejaVuSans-4a" d="M 628 4666 
L 1259 4666 
L 1259 325 
Q 1259 -519 939 -900 
Q 619 -1281 -91 -1281 
L -331 -1281 
L -331 -750 
L -134 -750 
Q 284 -750 456 -515 
Q 628 -281 628 325 
L 628 4666 
z
" transform="scale(0.015625)"/>
       <path id="DejaVuSans-6f" d="M 1959 3097 
Q 1497 3097 1228 2736 
Q 959 2375 959 1747 
Q 959 1119 1226 758 
Q 1494 397 1959 397 
Q 2419 397 2687 759 
Q 2956 1122 2956 1747 
Q 2956 2369 2687 2733 
Q 2419 3097 1959 3097 
z
M 1959 3584 
Q 2709 3584 3137 3096 
Q 3566 2609 3566 1747 
Q 3566 888 3137 398 
Q 2709 -91 1959 -91 
Q 1206 -91 779 398 
Q 353 888 353 1747 
Q 353 2609 779 3096 
Q 1206 3584 1959 3584 
z
" transform="scale(0.015625)"/>
       <path id="DejaVuSans-6e" d="M 3513 2113 
L 3513 0 
L 2938 0 
L 2938 2094 
Q 2938 2591 2744 2837 
Q 2550 3084 2163 3084 
Q 1697 3084 1428 2787 
Q 1159 2491 1159 1978 
L 1159 0 
L 581 0 
L 581 3500 
L 1159 3500 
L 1159 2956 
Q 1366 3272 1645 3428 
Q 1925 3584 2291 3584 
Q 2894 3584 3203 3211 
Q 3513 2838 3513 2113 
z
" transform="scale(0.015625)"/>
       <path id="DejaVuSans-65" d="M 3597 1894 
L 3597 1613 
L 953 1613 
Q 991 1019 1311 708 
Q 1631 397 2203 397 
Q 2534 397 2845 478 
Q 3156 559 3463 722 
L 3463 178 
Q 3153 47 2828 -22 
Q 2503 -91 2169 -91 
Q 1331 -91 842 396 
Q 353 884 353 1716 
Q 353 2575 817 3079 
Q 1281 3584 2069 3584 
Q 2775 3584 3186 3129 
Q 3597 2675 3597 1894 
z
M 3022 2063 
Q 3016 2534 2758 2815 
Q 2500 3097 2075 3097 
Q 1594 3097 1305 2825 
Q 1016 2553 972 2059 
L 3022 2063 
z
" transform="scale(0.015625)"/>
       <path id="DejaVuSans-73" d="M 2834 3397 
L 2834 2853 
Q 2591 2978 2328 3040 
Q 2066 3103 1784 3103 
Q 1356 3103 1142 2972 
Q 928 2841 928 2578 
Q 928 2378 1081 2264 
Q 1234 2150 1697 2047 
L 1894 2003 
Q 2506 1872 2764 1633 
Q 3022 1394 3022 966 
Q 3022 478 2636 193 
Q 2250 -91 1575 -91 
Q 1294 -91 989 -36 
Q 684 19 347 128 
L 347 722 
Q 666 556 975 473 
Q 1284 391 1588 391 
Q 1994 391 2212 530 
Q 2431 669 2431 922 
Q 2431 1156 2273 1281 
Q 2116 1406 1581 1522 
L 1381 1569 
Q 847 1681 609 1914 
Q 372 2147 372 2553 
Q 372 3047 722 3315 
Q 1072 3584 1716 3584 
Q 2034 3584 2315 3537 
Q 2597 3491 2834 3397 
z
" transform="scale(0.015625)"/>
      </defs>
      <use xlink:href="#DejaVuSans-43"/>
      <use xlink:href="#DejaVuSans-68" x="69.824219"/>
      <use xlink:href="#DejaVuSans-75" x="133.203125"/>
      <use xlink:href="#DejaVuSans-63" x="196.582031"/>
      <use xlink:href="#DejaVuSans-6b" x="251.5625"/>
      <use xlink:href="#DejaVuSans-20" x="309.472656"/>
      <use xlink:href="#DejaVuSans-4a" x="341.259766"/>
      <use xlink:href="#DejaVuSans-6f" x="370.751953"/>
      <use xlink:href="#DejaVuSans-6e" x="431.933594"/>
      <use xlink:href="#DejaVuSans-65" x="495.3125"/>
      <use xlink:href="#DejaVuSans-73" x="556.835938"/>
     </g>
    </g>
   </g>
   <g id="text_2">
    <g id="patch_3">
     <path d="M 435.280884 209.108665 
L 494.523384 209.108665 
L 494.523384 192.478352 
L 435.280884 192.478352 
z
" clip-path="url(#p676ab48cff)" style="fill: #ffffff; opacity: 0.7; stroke: #000000; stroke-linejoin: miter"/>
    </g>
    <g clip-path="url(#p676ab48cff)">
     <!-- Friz Freleng -->
     <g transform="translate(439.240884 203.276946)scale(0.09 -0.09)">
      <defs>
       <path id="DejaVuSans-46" d="M 628 4666 
L 3309 4666 
L 3309 4134 
L 1259 4134 
L 1259 2759 
L 3109 2759 
L 3109 2228 
L 1259 2228 
L 1259 0 
L 628 0 
L 628 4666 
z
" transform="scale(0.015625)"/>
       <path id="DejaVuSans-72" d="M 2631 2963 
Q 2534 3019 2420 3045 
Q 2306 3072 2169 3072 
Q 1681 3072 1420 2755 
Q 1159 2438 1159 1844 
L 1159 0 
L 581 0 
L 581 3500 
L 1159 3500 
L 1159 2956 
Q 1341 3275 1631 3429 
Q 1922 3584 2338 3584 
Q 2397 3584 2469 3576 
Q 2541 3569 2628 3553 
L 2631 2963 
z
" transform="scale(0.015625)"/>
       <path id="DejaVuSans-69" d="M 603 3500 
L 1178 3500 
L 1178 0 
L 603 0 
L 603 3500 
z
M 603 4863 
L 1178 4863 
L 1178 4134 
L 603 4134 
L 603 4863 
z
" transform="scale(0.015625)"/>
       <path id="DejaVuSans-7a" d="M 353 3500 
L 3084 3500 
L 3084 2975 
L 922 459 
L 3084 459 
L 3084 0 
L 275 0 
L 275 525 
L 2438 3041 
L 353 3041 
L 353 3500 
z
" transform="scale(0.015625)"/>
       <path id="DejaVuSans-6c" d="M 603 4863 
L 1178 4863 
L 1178 0 
L 603 0 
L 603 4863 
z
" transform="scale(0.015625)"/>
       <path id="DejaVuSans-67" d="M 2906 1791 
Q 2906 2416 2648 2759 
Q 2391 3103 1925 3103 
Q 1463 3103 1205 2759 
Q 947 2416 947 1791 
Q 947 1169 1205 825 
Q 1463 481 1925 481 
Q 2391 481 2648 825 
Q 2906 1169 2906 1791 
z
M 3481 434 
Q 3481 -459 3084 -895 
Q 2688 -1331 1869 -1331 
Q 1566 -1331 1297 -1286 
Q 1028 -1241 775 -1147 
L 775 -588 
Q 1028 -725 1275 -790 
Q 1522 -856 1778 -856 
Q 2344 -856 2625 -561 
Q 2906 -266 2906 331 
L 2906 616 
Q 2728 306 2450 153 
Q 2172 0 1784 0 
Q 1141 0 747 490 
Q 353 981 353 1791 
Q 353 2603 747 3093 
Q 1141 3584 1784 3584 
Q 2172 3584 2450 3431 
Q 2728 3278 2906 2969 
L 2906 3500 
L 3481 3500 
L 3481 434 
z
" transform="scale(0.015625)"/>
      </defs>
      <use xlink:href="#DejaVuSans-46"/>
      <use xlink:href="#DejaVuSans-72" x="50.269531"/>
      <use xlink:href="#DejaVuSans-69" x="91.382812"/>
      <use xlink:href="#DejaVuSans-7a" x="119.166016"/>
      <use xlink:href="#DejaVuSans-20" x="171.65625"/>
      <use xlink:href="#DejaVuSans-46" x="203.443359"/>
      <use xlink:href="#DejaVuSans-72" x="253.712891"/>
      <use xlink:href="#DejaVuSans-65" x="292.576172"/>
      <use xlink:href="#DejaVuSans-6c" x="354.099609"/>
      <use xlink:href="#DejaVuSans-65" x="381.882812"/>
      <use xlink:href="#DejaVuSans-6e" x="443.40625"/>
      <use xlink:href="#DejaVuSans-67" x="506.785156"/>
     </g>
    </g>
   </g>
   <g id="text_3">
    <g id="patch_4">
     <path d="M 385.198223 136.980958 
L 448.801504 136.980958 
L 448.801504 120.350645 
L 385.198223 120.350645 
z
" clip-path="url(#p676ab48cff)" style="fill: #ffffff; opacity: 0.7; stroke: #000000; stroke-linejoin: miter"/>
    </g>
    <g clip-path="url(#p676ab48cff)">
     <!-- Woody Allen -->
     <g transform="translate(389.158223 131.149239)scale(0.09 -0.09)">
      <defs>
       <path id="DejaVuSans-57" d="M 213 4666 
L 850 4666 
L 1831 722 
L 2809 4666 
L 3519 4666 
L 4500 722 
L 5478 4666 
L 6119 4666 
L 4947 0 
L 4153 0 
L 3169 4050 
L 2175 0 
L 1381 0 
L 213 4666 
z
" transform="scale(0.015625)"/>
       <path id="DejaVuSans-64" d="M 2906 2969 
L 2906 4863 
L 3481 4863 
L 3481 0 
L 2906 0 
L 2906 525 
Q 2725 213 2448 61 
Q 2172 -91 1784 -91 
Q 1150 -91 751 415 
Q 353 922 353 1747 
Q 353 2572 751 3078 
Q 1150 3584 1784 3584 
Q 2172 3584 2448 3432 
Q 2725 3281 2906 2969 
z
M 947 1747 
Q 947 1113 1208 752 
Q 1469 391 1925 391 
Q 2381 391 2643 752 
Q 2906 1113 2906 1747 
Q 2906 2381 2643 2742 
Q 2381 3103 1925 3103 
Q 1469 3103 1208 2742 
Q 947 2381 947 1747 
z
" transform="scale(0.015625)"/>
       <path id="DejaVuSans-79" d="M 2059 -325 
Q 1816 -950 1584 -1140 
Q 1353 -1331 966 -1331 
L 506 -1331 
L 506 -850 
L 844 -850 
Q 1081 -850 1212 -737 
Q 1344 -625 1503 -206 
L 1606 56 
L 191 3500 
L 800 3500 
L 1894 763 
L 2988 3500 
L 3597 3500 
L 2059 -325 
z
" transform="scale(0.015625)"/>
       <path id="DejaVuSans-41" d="M 2188 4044 
L 1331 1722 
L 3047 1722 
L 2188 4044 
z
M 1831 4666 
L 2547 4666 
L 4325 0 
L 3669 0 
L 3244 1197 
L 1141 1197 
L 716 0 
L 50 0 
L 1831 4666 
z
" transform="scale(0.015625)"/>
      </defs>
      <use xlink:href="#DejaVuSans-57"/>
      <use xlink:href="#DejaVuSans-6f" x="93.001953"/>
      <use xlink:href="#DejaVuSans-6f" x="154.183594"/>
      <use xlink:href="#DejaVuSans-64" x="215.365234"/>
      <use xlink:href="#DejaVuSans-79" x="278.841797"/>
      <use xlink:href="#DejaVuSans-20" x="338.021484"/>
      <use xlink:href="#DejaVuSans-41" x="369.808594"/>
      <use xlink:href="#DejaVuSans-6c" x="438.216797"/>
      <use xlink:href="#DejaVuSans-6c" x="466"/>
      <use xlink:href="#DejaVuSans-65" x="493.783203"/>
      <use xlink:href="#DejaVuSans-6e" x="555.306641"/>
     </g>
    </g>
   </g>
   <g id="text_4">
    <g id="patch_5">
     <path d="M 310.043099 92.403594 
L 382.801067 92.403594 
L 382.801067 75.773281 
L 310.043099 75.773281 
z
" clip-path="url(#p676ab48cff)" style="fill: #ffffff; opacity: 0.7; stroke: #000000; stroke-linejoin: miter"/>
    </g>
    <g clip-path="url(#p676ab48cff)">
     <!-- John Singleton -->
     <g transform="translate(314.003099 86.571875)scale(0.09 -0.09)">
      <defs>
       <path id="DejaVuSans-53" d="M 3425 4513 
L 3425 3897 
Q 3066 4069 2747 4153 
Q 2428 4238 2131 4238 
Q 1616 4238 1336 4038 
Q 1056 3838 1056 3469 
Q 1056 3159 1242 3001 
Q 1428 2844 1947 2747 
L 2328 2669 
Q 3034 2534 3370 2195 
Q 3706 1856 3706 1288 
Q 3706 609 3251 259 
Q 2797 -91 1919 -91 
Q 1588 -91 1214 -16 
Q 841 59 441 206 
L 441 856 
Q 825 641 1194 531 
Q 1563 422 1919 422 
Q 2459 422 2753 634 
Q 3047 847 3047 1241 
Q 3047 1584 2836 1778 
Q 2625 1972 2144 2069 
L 1759 2144 
Q 1053 2284 737 2584 
Q 422 2884 422 3419 
Q 422 4038 858 4394 
Q 1294 4750 2059 4750 
Q 2388 4750 2728 4690 
Q 3069 4631 3425 4513 
z
" transform="scale(0.015625)"/>
       <path id="DejaVuSans-74" d="M 1172 4494 
L 1172 3500 
L 2356 3500 
L 2356 3053 
L 1172 3053 
L 1172 1153 
Q 1172 725 1289 603 
Q 1406 481 1766 481 
L 2356 481 
L 2356 0 
L 1766 0 
Q 1100 0 847 248 
Q 594 497 594 1153 
L 594 3053 
L 172 3053 
L 172 3500 
L 594 3500 
L 594 4494 
L 1172 4494 
z
" transform="scale(0.015625)"/>
      </defs>
      <use xlink:href="#DejaVuSans-4a"/>
      <use xlink:href="#DejaVuSans-6f" x="29.492188"/>
      <use xlink:href="#DejaVuSans-68" x="90.673828"/>
      <use xlink:href="#DejaVuSans-6e" x="154.052734"/>
      <use xlink:href="#DejaVuSans-20" x="217.431641"/>
      <use xlink:href="#DejaVuSans-53" x="249.21875"/>
      <use xlink:href="#DejaVuSans-69" x="312.695312"/>
      <use xlink:href="#DejaVuSans-6e" x="340.478516"/>
      <use xlink:href="#DejaVuSans-67" x="403.857422"/>
      <use xlink:href="#DejaVuSans-6c" x="467.333984"/>
      <use xlink:href="#DejaVuSans-65" x="495.117188"/>
      <use xlink:href="#DejaVuSans-74" x="556.640625"/>
      <use xlink:href="#DejaVuSans-6f" x="595.849609"/>
      <use xlink:href="#DejaVuSans-6e" x="657.03125"/>
     </g>
    </g>
   </g>
   <g id="text_5">
    <g id="patch_6">
     <path d="M 224.662786 83.084387 
L 306.081848 83.084387 
L 306.081848 66.454075 
L 224.662786 66.454075 
z
" clip-path="url(#p676ab48cff)" style="fill: #ffffff; opacity: 0.7; stroke: #000000; stroke-linejoin: miter"/>
    </g>
    <g clip-path="url(#p676ab48cff)">
     <!-- Alfred Hitchcock -->
     <g transform="translate(228.622786 77.252668)scale(0.09 -0.09)">
      <defs>
       <path id="DejaVuSans-66" d="M 2375 4863 
L 2375 4384 
L 1825 4384 
Q 1516 4384 1395 4259 
Q 1275 4134 1275 3809 
L 1275 3500 
L 2222 3500 
L 2222 3053 
L 1275 3053 
L 1275 0 
L 697 0 
L 697 3053 
L 147 3053 
L 147 3500 
L 697 3500 
L 697 3744 
Q 697 4328 969 4595 
Q 1241 4863 1831 4863 
L 2375 4863 
z
" transform="scale(0.015625)"/>
       <path id="DejaVuSans-48" d="M 628 4666 
L 1259 4666 
L 1259 2753 
L 3553 2753 
L 3553 4666 
L 4184 4666 
L 4184 0 
L 3553 0 
L 3553 2222 
L 1259 2222 
L 1259 0 
L 628 0 
L 628 4666 
z
" transform="scale(0.015625)"/>
      </defs>
      <use xlink:href="#DejaVuSans-41"/>
      <use xlink:href="#DejaVuSans-6c" x="68.408203"/>
      <use xlink:href="#DejaVuSans-66" x="96.191406"/>
      <use xlink:href="#DejaVuSans-72" x="131.396484"/>
      <use xlink:href="#DejaVuSans-65" x="170.259766"/>
      <use xlink:href="#DejaVuSans-64" x="231.783203"/>
      <use xlink:href="#DejaVuSans-20" x="295.259766"/>
      <use xlink:href="#DejaVuSans-48" x="327.046875"/>
      <use xlink:href="#DejaVuSans-69" x="402.242188"/>
      <use xlink:href="#DejaVuSans-74" x="430.025391"/>
      <use xlink:href="#DejaVuSans-63" x="469.234375"/>
      <use xlink:href="#DejaVuSans-68" x="524.214844"/>
      <use xlink:href="#DejaVuSans-63" x="587.59375"/>
      <use xlink:href="#DejaVuSans-6f" x="642.574219"/>
      <use xlink:href="#DejaVuSans-63" x="703.755859"/>
      <use xlink:href="#DejaVuSans-6b" x="758.736328"/>
     </g>
    </g>
   </g>
   <g id="text_6">
    <g id="patch_7">
     <path d="M 149.299816 110.634724 
L 226.429816 110.634724 
L 226.429816 94.004411 
L 149.299816 94.004411 
z
" clip-path="url(#p676ab48cff)" style="fill: #ffffff; opacity: 0.7; stroke: #000000; stroke-linejoin: miter"/>
    </g>
    <g clip-path="url(#p676ab48cff)">
     <!-- Clyde Geronimi -->
     <g transform="translate(153.259816 104.803005)scale(0.09 -0.09)">
      <defs>
       <path id="DejaVuSans-47" d="M 3809 666 
L 3809 1919 
L 2778 1919 
L 2778 2438 
L 4434 2438 
L 4434 434 
Q 4069 175 3628 42 
Q 3188 -91 2688 -91 
Q 1594 -91 976 548 
Q 359 1188 359 2328 
Q 359 3472 976 4111 
Q 1594 4750 2688 4750 
Q 3144 4750 3555 4637 
Q 3966 4525 4313 4306 
L 4313 3634 
Q 3963 3931 3569 4081 
Q 3175 4231 2741 4231 
Q 1884 4231 1454 3753 
Q 1025 3275 1025 2328 
Q 1025 1384 1454 906 
Q 1884 428 2741 428 
Q 3075 428 3337 486 
Q 3600 544 3809 666 
z
" transform="scale(0.015625)"/>
       <path id="DejaVuSans-6d" d="M 3328 2828 
Q 3544 3216 3844 3400 
Q 4144 3584 4550 3584 
Q 5097 3584 5394 3201 
Q 5691 2819 5691 2113 
L 5691 0 
L 5113 0 
L 5113 2094 
Q 5113 2597 4934 2840 
Q 4756 3084 4391 3084 
Q 3944 3084 3684 2787 
Q 3425 2491 3425 1978 
L 3425 0 
L 2847 0 
L 2847 2094 
Q 2847 2600 2669 2842 
Q 2491 3084 2119 3084 
Q 1678 3084 1418 2786 
Q 1159 2488 1159 1978 
L 1159 0 
L 581 0 
L 581 3500 
L 1159 3500 
L 1159 2956 
Q 1356 3278 1631 3431 
Q 1906 3584 2284 3584 
Q 2666 3584 2933 3390 
Q 3200 3197 3328 2828 
z
" transform="scale(0.015625)"/>
      </defs>
      <use xlink:href="#DejaVuSans-43"/>
      <use xlink:href="#DejaVuSans-6c" x="69.824219"/>
      <use xlink:href="#DejaVuSans-79" x="97.607422"/>
      <use xlink:href="#DejaVuSans-64" x="156.787109"/>
      <use xlink:href="#DejaVuSans-65" x="220.263672"/>
      <use xlink:href="#DejaVuSans-20" x="281.787109"/>
      <use xlink:href="#DejaVuSans-47" x="313.574219"/>
      <use xlink:href="#DejaVuSans-65" x="391.064453"/>
      <use xlink:href="#DejaVuSans-72" x="452.587891"/>
      <use xlink:href="#DejaVuSans-6f" x="491.451172"/>
      <use xlink:href="#DejaVuSans-6e" x="552.632812"/>
      <use xlink:href="#DejaVuSans-69" x="616.011719"/>
      <use xlink:href="#DejaVuSans-6d" x="643.794922"/>
      <use xlink:href="#DejaVuSans-69" x="741.207031"/>
     </g>
    </g>
   </g>
   <g id="text_7">
    <g id="patch_8">
     <path d="M 90.818296 170.290885 
L 163.78439 170.290885 
L 163.78439 153.660572 
L 90.818296 153.660572 
z
" clip-path="url(#p676ab48cff)" style="fill: #ffffff; opacity: 0.7; stroke: #000000; stroke-linejoin: miter"/>
    </g>
    <g clip-path="url(#p676ab48cff)">
     <!-- William Hanna -->
     <g transform="translate(94.778296 164.459166)scale(0.09 -0.09)">
      <defs>
       <path id="DejaVuSans-61" d="M 2194 1759 
Q 1497 1759 1228 1600 
Q 959 1441 959 1056 
Q 959 750 1161 570 
Q 1363 391 1709 391 
Q 2188 391 2477 730 
Q 2766 1069 2766 1631 
L 2766 1759 
L 2194 1759 
z
M 3341 1997 
L 3341 0 
L 2766 0 
L 2766 531 
Q 2569 213 2275 61 
Q 1981 -91 1556 -91 
Q 1019 -91 701 211 
Q 384 513 384 1019 
Q 384 1609 779 1909 
Q 1175 2209 1959 2209 
L 2766 2209 
L 2766 2266 
Q 2766 2663 2505 2880 
Q 2244 3097 1772 3097 
Q 1472 3097 1187 3025 
Q 903 2953 641 2809 
L 641 3341 
Q 956 3463 1253 3523 
Q 1550 3584 1831 3584 
Q 2591 3584 2966 3190 
Q 3341 2797 3341 1997 
z
" transform="scale(0.015625)"/>
      </defs>
      <use xlink:href="#DejaVuSans-57"/>
      <use xlink:href="#DejaVuSans-69" x="96.626953"/>
      <use xlink:href="#DejaVuSans-6c" x="124.410156"/>
      <use xlink:href="#DejaVuSans-6c" x="152.193359"/>
      <use xlink:href="#DejaVuSans-69" x="179.976562"/>
      <use xlink:href="#DejaVuSans-61" x="207.759766"/>
      <use xlink:href="#DejaVuSans-6d" x="269.039062"/>
      <use xlink:href="#DejaVuSans-20" x="366.451172"/>
      <use xlink:href="#DejaVuSans-48" x="398.238281"/>
      <use xlink:href="#DejaVuSans-61" x="473.433594"/>
      <use xlink:href="#DejaVuSans-6e" x="534.712891"/>
      <use xlink:href="#DejaVuSans-6e" x="598.091797"/>
      <use xlink:href="#DejaVuSans-61" x="661.470703"/>
     </g>
    </g>
   </g>
   <g id="text_8">
    <g id="patch_9">
     <path d="M 55.932674 251.737805 
L 132.375018 251.737805 
L 132.375018 235.107493 
L 55.932674 235.107493 
z
" clip-path="url(#p676ab48cff)" style="fill: #ffffff; opacity: 0.7; stroke: #000000; stroke-linejoin: miter"/>
    </g>
    <g clip-path="url(#p676ab48cff)">
     <!-- Joseph Barbera -->
     <g transform="translate(59.892674 245.906086)scale(0.09 -0.09)">
      <defs>
       <path id="DejaVuSans-70" d="M 1159 525 
L 1159 -1331 
L 581 -1331 
L 581 3500 
L 1159 3500 
L 1159 2969 
Q 1341 3281 1617 3432 
Q 1894 3584 2278 3584 
Q 2916 3584 3314 3078 
Q 3713 2572 3713 1747 
Q 3713 922 3314 415 
Q 2916 -91 2278 -91 
Q 1894 -91 1617 61 
Q 1341 213 1159 525 
z
M 3116 1747 
Q 3116 2381 2855 2742 
Q 2594 3103 2138 3103 
Q 1681 3103 1420 2742 
Q 1159 2381 1159 1747 
Q 1159 1113 1420 752 
Q 1681 391 2138 391 
Q 2594 391 2855 752 
Q 3116 1113 3116 1747 
z
" transform="scale(0.015625)"/>
       <path id="DejaVuSans-42" d="M 1259 2228 
L 1259 519 
L 2272 519 
Q 2781 519 3026 730 
Q 3272 941 3272 1375 
Q 3272 1813 3026 2020 
Q 2781 2228 2272 2228 
L 1259 2228 
z
M 1259 4147 
L 1259 2741 
L 2194 2741 
Q 2656 2741 2882 2914 
Q 3109 3088 3109 3444 
Q 3109 3797 2882 3972 
Q 2656 4147 2194 4147 
L 1259 4147 
z
M 628 4666 
L 2241 4666 
Q 2963 4666 3353 4366 
Q 3744 4066 3744 3513 
Q 3744 3084 3544 2831 
Q 3344 2578 2956 2516 
Q 3422 2416 3680 2098 
Q 3938 1781 3938 1306 
Q 3938 681 3513 340 
Q 3088 0 2303 0 
L 628 0 
L 628 4666 
z
" transform="scale(0.015625)"/>
       <path id="DejaVuSans-62" d="M 3116 1747 
Q 3116 2381 2855 2742 
Q 2594 3103 2138 3103 
Q 1681 3103 1420 2742 
Q 1159 2381 1159 1747 
Q 1159 1113 1420 752 
Q 1681 391 2138 391 
Q 2594 391 2855 752 
Q 3116 1113 3116 1747 
z
M 1159 2969 
Q 1341 3281 1617 3432 
Q 1894 3584 2278 3584 
Q 2916 3584 3314 3078 
Q 3713 2572 3713 1747 
Q 3713 922 3314 415 
Q 2916 -91 2278 -91 
Q 1894 -91 1617 61 
Q 1341 213 1159 525 
L 1159 0 
L 581 0 
L 581 4863 
L 1159 4863 
L 1159 2969 
z
" transform="scale(0.015625)"/>
      </defs>
      <use xlink:href="#DejaVuSans-4a"/>
      <use xlink:href="#DejaVuSans-6f" x="29.492188"/>
      <use xlink:href="#DejaVuSans-73" x="90.673828"/>
      <use xlink:href="#DejaVuSans-65" x="142.773438"/>
      <use xlink:href="#DejaVuSans-70" x="204.296875"/>
      <use xlink:href="#DejaVuSans-68" x="267.773438"/>
      <use xlink:href="#DejaVuSans-20" x="331.152344"/>
      <use xlink:href="#DejaVuSans-42" x="362.939453"/>
      <use xlink:href="#DejaVuSans-61" x="431.542969"/>
      <use xlink:href="#DejaVuSans-72" x="492.822266"/>
      <use xlink:href="#DejaVuSans-62" x="533.935547"/>
      <use xlink:href="#DejaVuSans-65" x="597.412109"/>
      <use xlink:href="#DejaVuSans-72" x="658.935547"/>
      <use xlink:href="#DejaVuSans-61" x="700.048828"/>
     </g>
    </g>
   </g>
   <g id="text_9">
    <g id="patch_10">
     <path d="M 62.443623 340.892546 
L 125.864092 340.892546 
L 125.864092 324.262233 
L 62.443623 324.262233 
z
" clip-path="url(#p676ab48cff)" style="fill: #ffffff; opacity: 0.7; stroke: #000000; stroke-linejoin: miter"/>
    </g>
    <g clip-path="url(#p676ab48cff)">
     <!-- Oliver Stone -->
     <g transform="translate(66.403623 335.060827)scale(0.09 -0.09)">
      <defs>
       <path id="DejaVuSans-4f" d="M 2522 4238 
Q 1834 4238 1429 3725 
Q 1025 3213 1025 2328 
Q 1025 1447 1429 934 
Q 1834 422 2522 422 
Q 3209 422 3611 934 
Q 4013 1447 4013 2328 
Q 4013 3213 3611 3725 
Q 3209 4238 2522 4238 
z
M 2522 4750 
Q 3503 4750 4090 4092 
Q 4678 3434 4678 2328 
Q 4678 1225 4090 567 
Q 3503 -91 2522 -91 
Q 1538 -91 948 565 
Q 359 1222 359 2328 
Q 359 3434 948 4092 
Q 1538 4750 2522 4750 
z
" transform="scale(0.015625)"/>
       <path id="DejaVuSans-76" d="M 191 3500 
L 800 3500 
L 1894 563 
L 2988 3500 
L 3597 3500 
L 2284 0 
L 1503 0 
L 191 3500 
z
" transform="scale(0.015625)"/>
      </defs>
      <use xlink:href="#DejaVuSans-4f"/>
      <use xlink:href="#DejaVuSans-6c" x="78.710938"/>
      <use xlink:href="#DejaVuSans-69" x="106.494141"/>
      <use xlink:href="#DejaVuSans-76" x="134.277344"/>
      <use xlink:href="#DejaVuSans-65" x="193.457031"/>
      <use xlink:href="#DejaVuSans-72" x="254.980469"/>
      <use xlink:href="#DejaVuSans-20" x="296.09375"/>
      <use xlink:href="#DejaVuSans-53" x="327.880859"/>
      <use xlink:href="#DejaVuSans-74" x="391.357422"/>
      <use xlink:href="#DejaVuSans-6f" x="430.566406"/>
      <use xlink:href="#DejaVuSans-6e" x="491.748047"/>
      <use xlink:href="#DejaVuSans-65" x="555.126953"/>
     </g>
    </g>
   </g>
   <g id="text_10">
    <g id="patch_11">
     <path d="M 88.910026 422.33944 
L 165.692683 422.33944 
L 165.692683 405.709128 
L 88.910026 405.709128 
z
" clip-path="url(#p676ab48cff)" style="fill: #ffffff; opacity: 0.7; stroke: #000000; stroke-linejoin: miter"/>
    </g>
    <g clip-path="url(#p676ab48cff)">
     <!-- John McTiernan -->
     <g transform="translate(92.870026 416.507722)scale(0.09 -0.09)">
      <defs>
       <path id="DejaVuSans-4d" d="M 628 4666 
L 1569 4666 
L 2759 1491 
L 3956 4666 
L 4897 4666 
L 4897 0 
L 4281 0 
L 4281 4097 
L 3078 897 
L 2444 897 
L 1241 4097 
L 1241 0 
L 628 0 
L 628 4666 
z
" transform="scale(0.015625)"/>
       <path id="DejaVuSans-54" d="M -19 4666 
L 3928 4666 
L 3928 4134 
L 2272 4134 
L 2272 0 
L 1638 0 
L 1638 4134 
L -19 4134 
L -19 4666 
z
" transform="scale(0.015625)"/>
      </defs>
      <use xlink:href="#DejaVuSans-4a"/>
      <use xlink:href="#DejaVuSans-6f" x="29.492188"/>
      <use xlink:href="#DejaVuSans-68" x="90.673828"/>
      <use xlink:href="#DejaVuSans-6e" x="154.052734"/>
      <use xlink:href="#DejaVuSans-20" x="217.431641"/>
      <use xlink:href="#DejaVuSans-4d" x="249.21875"/>
      <use xlink:href="#DejaVuSans-63" x="335.498047"/>
      <use xlink:href="#DejaVuSans-54" x="390.478516"/>
      <use xlink:href="#DejaVuSans-69" x="448.4375"/>
      <use xlink:href="#DejaVuSans-65" x="476.220703"/>
      <use xlink:href="#DejaVuSans-72" x="537.744141"/>
      <use xlink:href="#DejaVuSans-6e" x="577.107422"/>
      <use xlink:href="#DejaVuSans-61" x="640.486328"/>
      <use xlink:href="#DejaVuSans-6e" x="701.765625"/>
     </g>
    </g>
   </g>
   <g id="text_11">
    <g id="patch_12">
     <path d="M 147.543439 481.995602 
L 228.186252 481.995602 
L 228.186252 465.365289 
L 147.543439 465.365289 
z
" clip-path="url(#p676ab48cff)" style="fill: #ffffff; opacity: 0.7; stroke: #000000; stroke-linejoin: miter"/>
    </g>
    <g clip-path="url(#p676ab48cff)">
     <!-- John G. Avildsen -->
     <g transform="translate(151.503439 476.163883)scale(0.09 -0.09)">
      <defs>
       <path id="DejaVuSans-2e" d="M 684 794 
L 1344 794 
L 1344 0 
L 684 0 
L 684 794 
z
" transform="scale(0.015625)"/>
      </defs>
      <use xlink:href="#DejaVuSans-4a"/>
      <use xlink:href="#DejaVuSans-6f" x="29.492188"/>
      <use xlink:href="#DejaVuSans-68" x="90.673828"/>
      <use xlink:href="#DejaVuSans-6e" x="154.052734"/>
      <use xlink:href="#DejaVuSans-20" x="217.431641"/>
      <use xlink:href="#DejaVuSans-47" x="249.21875"/>
      <use xlink:href="#DejaVuSans-2e" x="326.708984"/>
      <use xlink:href="#DejaVuSans-20" x="358.496094"/>
      <use xlink:href="#DejaVuSans-41" x="390.283203"/>
      <use xlink:href="#DejaVuSans-76" x="452.816406"/>
      <use xlink:href="#DejaVuSans-69" x="511.996094"/>
      <use xlink:href="#DejaVuSans-6c" x="539.779297"/>
      <use xlink:href="#DejaVuSans-64" x="567.5625"/>
      <use xlink:href="#DejaVuSans-73" x="631.039062"/>
      <use xlink:href="#DejaVuSans-65" x="683.138672"/>
      <use xlink:href="#DejaVuSans-6e" x="744.662109"/>
     </g>
    </g>
   </g>
   <g id="text_12">
    <g id="patch_13">
     <path d="M 220.718993 509.545925 
L 310.025711 509.545925 
L 310.025711 492.915613 
L 220.718993 492.915613 
z
" clip-path="url(#p676ab48cff)" style="fill: #ffffff; opacity: 0.7; stroke: #000000; stroke-linejoin: miter"/>
    </g>
    <g clip-path="url(#p676ab48cff)">
     <!-- Christopher Nolan -->
     <g transform="translate(224.678993 503.714207)scale(0.09 -0.09)">
      <defs>
       <path id="DejaVuSans-4e" d="M 628 4666 
L 1478 4666 
L 3547 763 
L 3547 4666 
L 4159 4666 
L 4159 0 
L 3309 0 
L 1241 3903 
L 1241 0 
L 628 0 
L 628 4666 
z
" transform="scale(0.015625)"/>
      </defs>
      <use xlink:href="#DejaVuSans-43"/>
      <use xlink:href="#DejaVuSans-68" x="69.824219"/>
      <use xlink:href="#DejaVuSans-72" x="133.203125"/>
      <use xlink:href="#DejaVuSans-69" x="174.316406"/>
      <use xlink:href="#DejaVuSans-73" x="202.099609"/>
      <use xlink:href="#DejaVuSans-74" x="254.199219"/>
      <use xlink:href="#DejaVuSans-6f" x="293.408203"/>
      <use xlink:href="#DejaVuSans-70" x="354.589844"/>
      <use xlink:href="#DejaVuSans-68" x="418.066406"/>
      <use xlink:href="#DejaVuSans-65" x="481.445312"/>
      <use xlink:href="#DejaVuSans-72" x="542.96875"/>
      <use xlink:href="#DejaVuSans-20" x="584.082031"/>
      <use xlink:href="#DejaVuSans-4e" x="615.869141"/>
      <use xlink:href="#DejaVuSans-6f" x="690.673828"/>
      <use xlink:href="#DejaVuSans-6c" x="751.855469"/>
      <use xlink:href="#DejaVuSans-61" x="779.638672"/>
      <use xlink:href="#DejaVuSans-6e" x="840.917969"/>
     </g>
    </g>
   </g>
   <g id="text_13">
    <g id="patch_14">
     <path d="M 316.606096 500.226706 
L 376.238128 500.226706 
L 376.238128 483.596393 
L 316.606096 483.596393 
z
" clip-path="url(#p676ab48cff)" style="fill: #ffffff; opacity: 0.7; stroke: #000000; stroke-linejoin: miter"/>
    </g>
    <g clip-path="url(#p676ab48cff)">
     <!-- John Sayles -->
     <g transform="translate(320.566096 494.394987)scale(0.09 -0.09)">
      <use xlink:href="#DejaVuSans-4a"/>
      <use xlink:href="#DejaVuSans-6f" x="29.492188"/>
      <use xlink:href="#DejaVuSans-68" x="90.673828"/>
      <use xlink:href="#DejaVuSans-6e" x="154.052734"/>
      <use xlink:href="#DejaVuSans-20" x="217.431641"/>
      <use xlink:href="#DejaVuSans-53" x="249.21875"/>
      <use xlink:href="#DejaVuSans-61" x="312.695312"/>
      <use xlink:href="#DejaVuSans-79" x="373.974609"/>
      <use xlink:href="#DejaVuSans-6c" x="433.154297"/>
      <use xlink:href="#DejaVuSans-65" x="460.9375"/>
      <use xlink:href="#DejaVuSans-73" x="522.460938"/>
     </g>
    </g>
   </g>
   <g id="text_14">
    <g id="patch_15">
     <path d="M 385.05482 455.649316 
L 448.944977 455.649316 
L 448.944977 439.019004 
L 385.05482 439.019004 
z
" clip-path="url(#p676ab48cff)" style="fill: #ffffff; opacity: 0.7; stroke: #000000; stroke-linejoin: miter"/>
    </g>
    <g clip-path="url(#p676ab48cff)">
     <!-- Frank Coraci -->
     <g transform="translate(389.01482 449.817598)scale(0.09 -0.09)">
      <use xlink:href="#DejaVuSans-46"/>
      <use xlink:href="#DejaVuSans-72" x="50.269531"/>
      <use xlink:href="#DejaVuSans-61" x="91.382812"/>
      <use xlink:href="#DejaVuSans-6e" x="152.662109"/>
      <use xlink:href="#DejaVuSans-6b" x="216.041016"/>
      <use xlink:href="#DejaVuSans-20" x="273.951172"/>
      <use xlink:href="#DejaVuSans-43" x="305.738281"/>
      <use xlink:href="#DejaVuSans-6f" x="375.5625"/>
      <use xlink:href="#DejaVuSans-72" x="436.744141"/>
      <use xlink:href="#DejaVuSans-61" x="477.857422"/>
      <use xlink:href="#DejaVuSans-63" x="539.136719"/>
      <use xlink:href="#DejaVuSans-69" x="594.117188"/>
     </g>
    </g>
   </g>
   <g id="text_15">
    <g id="patch_16">
     <path d="M 429.223486 383.521616 
L 500.58083 383.521616 
L 500.58083 366.891303 
L 429.223486 366.891303 
z
" clip-path="url(#p676ab48cff)" style="fill: #ffffff; opacity: 0.7; stroke: #000000; stroke-linejoin: miter"/>
    </g>
    <g clip-path="url(#p676ab48cff)">
     <!-- Buster Keaton -->
     <g transform="translate(433.183486 377.689897)scale(0.09 -0.09)">
      <defs>
       <path id="DejaVuSans-4b" d="M 628 4666 
L 1259 4666 
L 1259 2694 
L 3353 4666 
L 4166 4666 
L 1850 2491 
L 4331 0 
L 3500 0 
L 1259 2247 
L 1259 0 
L 628 0 
L 628 4666 
z
" transform="scale(0.015625)"/>
      </defs>
      <use xlink:href="#DejaVuSans-42"/>
      <use xlink:href="#DejaVuSans-75" x="68.603516"/>
      <use xlink:href="#DejaVuSans-73" x="131.982422"/>
      <use xlink:href="#DejaVuSans-74" x="184.082031"/>
      <use xlink:href="#DejaVuSans-65" x="223.291016"/>
      <use xlink:href="#DejaVuSans-72" x="284.814453"/>
      <use xlink:href="#DejaVuSans-20" x="325.927734"/>
      <use xlink:href="#DejaVuSans-4b" x="357.714844"/>
      <use xlink:href="#DejaVuSans-65" x="418.291016"/>
      <use xlink:href="#DejaVuSans-61" x="479.814453"/>
      <use xlink:href="#DejaVuSans-74" x="541.09375"/>
      <use xlink:href="#DejaVuSans-6f" x="580.302734"/>
      <use xlink:href="#DejaVuSans-6e" x="641.484375"/>
     </g>
    </g>
   </g>
   <g id="text_16">
    <!-- Impactful directors for Documentary genre - Importance rank: 2 -->
    <g transform="translate(95.835 4.8)scale(0.12 -0.12)">
     <defs>
      <path id="DejaVuSans-49" d="M 628 4666 
L 1259 4666 
L 1259 0 
L 628 0 
L 628 4666 
z
" transform="scale(0.015625)"/>
      <path id="DejaVuSans-44" d="M 1259 4147 
L 1259 519 
L 2022 519 
Q 2988 519 3436 956 
Q 3884 1394 3884 2338 
Q 3884 3275 3436 3711 
Q 2988 4147 2022 4147 
L 1259 4147 
z
M 628 4666 
L 1925 4666 
Q 3281 4666 3915 4102 
Q 4550 3538 4550 2338 
Q 4550 1131 3912 565 
Q 3275 0 1925 0 
L 628 0 
L 628 4666 
z
" transform="scale(0.015625)"/>
      <path id="DejaVuSans-2d" d="M 313 2009 
L 1997 2009 
L 1997 1497 
L 313 1497 
L 313 2009 
z
" transform="scale(0.015625)"/>
      <path id="DejaVuSans-3a" d="M 750 794 
L 1409 794 
L 1409 0 
L 750 0 
L 750 794 
z
M 750 3309 
L 1409 3309 
L 1409 2516 
L 750 2516 
L 750 3309 
z
" transform="scale(0.015625)"/>
      <path id="DejaVuSans-32" d="M 1228 531 
L 3431 531 
L 3431 0 
L 469 0 
L 469 531 
Q 828 903 1448 1529 
Q 2069 2156 2228 2338 
Q 2531 2678 2651 2914 
Q 2772 3150 2772 3378 
Q 2772 3750 2511 3984 
Q 2250 4219 1831 4219 
Q 1534 4219 1204 4116 
Q 875 4013 500 3803 
L 500 4441 
Q 881 4594 1212 4672 
Q 1544 4750 1819 4750 
Q 2544 4750 2975 4387 
Q 3406 4025 3406 3419 
Q 3406 3131 3298 2873 
Q 3191 2616 2906 2266 
Q 2828 2175 2409 1742 
Q 1991 1309 1228 531 
z
" transform="scale(0.015625)"/>
     </defs>
     <use xlink:href="#DejaVuSans-49"/>
     <use xlink:href="#DejaVuSans-6d" x="29.492188"/>
     <use xlink:href="#DejaVuSans-70" x="126.904297"/>
     <use xlink:href="#DejaVuSans-61" x="190.380859"/>
     <use xlink:href="#DejaVuSans-63" x="251.660156"/>
     <use xlink:href="#DejaVuSans-74" x="306.640625"/>
     <use xlink:href="#DejaVuSans-66" x="345.849609"/>
     <use xlink:href="#DejaVuSans-75" x="381.054688"/>
     <use xlink:href="#DejaVuSans-6c" x="444.433594"/>
     <use xlink:href="#DejaVuSans-20" x="472.216797"/>
     <use xlink:href="#DejaVuSans-64" x="504.003906"/>
     <use xlink:href="#DejaVuSans-69" x="567.480469"/>
     <use xlink:href="#DejaVuSans-72" x="595.263672"/>
     <use xlink:href="#DejaVuSans-65" x="634.126953"/>
     <use xlink:href="#DejaVuSans-63" x="695.650391"/>
     <use xlink:href="#DejaVuSans-74" x="750.630859"/>
     <use xlink:href="#DejaVuSans-6f" x="789.839844"/>
     <use xlink:href="#DejaVuSans-72" x="851.021484"/>
     <use xlink:href="#DejaVuSans-73" x="892.134766"/>
     <use xlink:href="#DejaVuSans-20" x="944.234375"/>
     <use xlink:href="#DejaVuSans-66" x="976.021484"/>
     <use xlink:href="#DejaVuSans-6f" x="1011.226562"/>
     <use xlink:href="#DejaVuSans-72" x="1072.408203"/>
     <use xlink:href="#DejaVuSans-20" x="1113.521484"/>
     <use xlink:href="#DejaVuSans-44" x="1145.308594"/>
     <use xlink:href="#DejaVuSans-6f" x="1222.310547"/>
     <use xlink:href="#DejaVuSans-63" x="1283.492188"/>
     <use xlink:href="#DejaVuSans-75" x="1338.472656"/>
     <use xlink:href="#DejaVuSans-6d" x="1401.851562"/>
     <use xlink:href="#DejaVuSans-65" x="1499.263672"/>
     <use xlink:href="#DejaVuSans-6e" x="1560.787109"/>
     <use xlink:href="#DejaVuSans-74" x="1624.166016"/>
     <use xlink:href="#DejaVuSans-61" x="1663.375"/>
     <use xlink:href="#DejaVuSans-72" x="1724.654297"/>
     <use xlink:href="#DejaVuSans-79" x="1765.767578"/>
     <use xlink:href="#DejaVuSans-20" x="1824.947266"/>
     <use xlink:href="#DejaVuSans-67" x="1856.734375"/>
     <use xlink:href="#DejaVuSans-65" x="1920.210938"/>
     <use xlink:href="#DejaVuSans-6e" x="1981.734375"/>
     <use xlink:href="#DejaVuSans-72" x="2045.113281"/>
     <use xlink:href="#DejaVuSans-65" x="2083.976562"/>
     <use xlink:href="#DejaVuSans-20" x="2145.5"/>
     <use xlink:href="#DejaVuSans-2d" x="2177.287109"/>
     <use xlink:href="#DejaVuSans-20" x="2213.371094"/>
     <use xlink:href="#DejaVuSans-49" x="2245.158203"/>
     <use xlink:href="#DejaVuSans-6d" x="2274.650391"/>
     <use xlink:href="#DejaVuSans-70" x="2372.0625"/>
     <use xlink:href="#DejaVuSans-6f" x="2435.539062"/>
     <use xlink:href="#DejaVuSans-72" x="2496.720703"/>
     <use xlink:href="#DejaVuSans-74" x="2537.833984"/>
     <use xlink:href="#DejaVuSans-61" x="2577.042969"/>
     <use xlink:href="#DejaVuSans-6e" x="2638.322266"/>
     <use xlink:href="#DejaVuSans-63" x="2701.701172"/>
     <use xlink:href="#DejaVuSans-65" x="2756.681641"/>
     <use xlink:href="#DejaVuSans-20" x="2818.205078"/>
     <use xlink:href="#DejaVuSans-72" x="2849.992188"/>
     <use xlink:href="#DejaVuSans-61" x="2891.105469"/>
     <use xlink:href="#DejaVuSans-6e" x="2952.384766"/>
     <use xlink:href="#DejaVuSans-6b" x="3015.763672"/>
     <use xlink:href="#DejaVuSans-3a" x="3073.673828"/>
     <use xlink:href="#DejaVuSans-20" x="3107.365234"/>
     <use xlink:href="#DejaVuSans-32" x="3139.152344"/>
    </g>
   </g>
  </g>
 </g>
 <defs>
  <clipPath id="p676ab48cff">
   <rect x="10.8" y="10.8" width="554.4" height="554.4"/>
  </clipPath>
 </defs>
</svg>
