<?xml version="1.0" encoding="utf-8" standalone="no"?>
<!DOCTYPE svg PUBLIC "-//W3C//DTD SVG 1.1//EN"
  "http://www.w3.org/Graphics/SVG/1.1/DTD/svg11.dtd">
<svg xmlns:xlink="http://www.w3.org/1999/xlink" width="576pt" height="576pt" viewBox="0 0 576 576" xmlns="http://www.w3.org/2000/svg" version="1.1">
 <metadata>
  <rdf:RDF xmlns:dc="http://purl.org/dc/elements/1.1/" xmlns:cc="http://creativecommons.org/ns#" xmlns:rdf="http://www.w3.org/1999/02/22-rdf-syntax-ns#">
   <cc:Work>
    <dc:type rdf:resource="http://purl.org/dc/dcmitype/StillImage"/>
    <dc:date>2022-12-22T19:12:58.058915</dc:date>
    <dc:format>image/svg+xml</dc:format>
    <dc:creator>
     <cc:Agent>
      <dc:title>Matplotlib v3.5.2, https://matplotlib.org/</dc:title>
     </cc:Agent>
    </dc:creator>
   </cc:Work>
  </rdf:RDF>
 </metadata>
 <defs>
  <style type="text/css">*{stroke-linejoin: round; stroke-linecap: butt}</style>
 </defs>
 <g id="figure_1">
  <g id="patch_1">
   <path d="M 0 576 
L 576 576 
L 576 0 
L 0 0 
z
" style="fill: #ffffff"/>
  </g>
  <g id="axes_1">
   <g id="PathCollection_1">
    <path d="M 501.230769 315.386128 
C 508.493655 315.386128 515.46005 312.500553 520.595686 307.364917 
C 525.731322 302.229281 528.616897 295.262886 528.616897 288 
C 528.616897 280.737114 525.731322 273.770719 520.595686 268.635083 
C 515.46005 263.499447 508.493655 260.613872 501.230769 260.613872 
C 493.967883 260.613872 487.001488 263.499447 481.865852 268.635083 
C 476.730217 273.770719 473.844641 280.737114 473.844641 288 
C 473.844641 295.262886 476.730217 302.229281 481.865852 307.364917 
C 487.001488 312.500553 493.967883 315.386128 501.230769 315.386128 
z
" clip-path="url(#p2a1b4ff4b6)" style="fill: #d62728; fill-opacity: 0.99; stroke: #d62728; stroke-opacity: 0.99"/>
    <path d="M 482.592348 223.908683 
C 488.722564 223.908683 494.602527 221.473122 498.937245 217.138405 
C 503.271962 212.803688 505.707522 206.923724 505.707522 200.793508 
C 505.707522 194.663292 503.271962 188.783329 498.937245 184.448612 
C 494.602527 180.113894 488.722564 177.678334 482.592348 177.678334 
C 476.462132 177.678334 470.582168 180.113894 466.247451 184.448612 
C 461.912734 188.783329 459.477173 194.663292 459.477173 200.793508 
C 459.477173 206.923724 461.912734 212.803688 466.247451 217.138405 
C 470.582168 221.473122 476.462132 223.908683 482.592348 223.908683 
z
" clip-path="url(#p2a1b4ff4b6)" style="fill: #d62728; fill-opacity: 0.99; stroke: #d62728; stroke-opacity: 0.99"/>
    <path d="M 429.89985 151.217043 
C 435.880509 151.217043 441.617021 148.840902 445.845985 144.611937 
C 450.07495 140.382973 452.451091 134.646461 452.451091 128.665802 
C 452.451091 122.685143 450.07495 116.948631 445.845985 112.719666 
C 441.617021 108.490701 435.880509 106.11456 429.89985 106.11456 
C 423.919191 106.11456 418.182679 108.490701 413.953714 112.719666 
C 409.72475 116.948631 407.348609 122.685143 407.348609 128.665802 
C 407.348609 134.646461 409.72475 140.382973 413.953714 144.611937 
C 418.182679 148.840902 423.919191 151.217043 429.89985 151.217043 
z
" clip-path="url(#p2a1b4ff4b6)" style="fill: #d62728; fill-opacity: 0.99; stroke: #d62728; stroke-opacity: 0.99"/>
    <path d="M 352.264291 106.187325 
C 358.124985 106.187325 363.746428 103.858847 367.890564 99.714711 
C 372.0347 95.570575 374.363178 89.949131 374.363178 84.088438 
C 374.363178 78.227744 372.0347 72.606301 367.890564 68.462165 
C 363.746428 64.318029 358.124985 61.98955 352.264291 61.98955 
C 346.403598 61.98955 340.782154 64.318029 336.638018 68.462165 
C 332.493882 72.606301 330.165404 78.227744 330.165404 84.088438 
C 330.165404 89.949131 332.493882 95.570575 336.638018 99.714711 
C 340.782154 103.858847 346.403598 106.187325 352.264291 106.187325 
z
" clip-path="url(#p2a1b4ff4b6)" style="fill: #d62728; fill-opacity: 0.99; stroke: #d62728; stroke-opacity: 0.99"/>
    <path d="M 263.109549 96.41362 
C 268.849708 96.41362 274.355537 94.13303 278.414443 90.074125 
C 282.473348 86.01522 284.753937 80.50939 284.753937 74.769231 
C 284.753937 69.029072 282.473348 63.523242 278.414443 59.464337 
C 274.355537 55.405431 268.849708 53.124842 263.109549 53.124842 
C 257.36939 53.124842 251.86356 55.405431 247.804654 59.464337 
C 243.745749 63.523242 241.46516 69.029072 241.46516 74.769231 
C 241.46516 80.50939 243.745749 86.01522 247.804654 90.074125 
C 251.86356 94.13303 257.36939 96.41362 263.109549 96.41362 
z
" clip-path="url(#p2a1b4ff4b6)" style="fill: #d62728; fill-opacity: 0.99; stroke: #d62728; stroke-opacity: 0.99"/>
    <path d="M 177.851298 123.264736 
C 183.406022 123.264736 188.733986 121.05782 192.661769 117.130038 
C 196.589551 113.202255 198.796466 107.874291 198.796466 102.319567 
C 198.796466 96.764844 196.589551 91.436879 192.661769 87.509097 
C 188.733986 83.581314 183.406022 81.374399 177.851298 81.374399 
C 172.296575 81.374399 166.96861 83.581314 163.040828 87.509097 
C 159.113045 91.436879 156.90613 96.764844 156.90613 102.319567 
C 156.90613 107.874291 159.113045 113.202255 163.040828 117.130038 
C 166.96861 121.05782 172.296575 123.264736 177.851298 123.264736 
z
" clip-path="url(#p2a1b4ff4b6)" style="fill: #d62728; fill-opacity: 0.99; stroke: #d62728; stroke-opacity: 0.99"/>
    <path d="M 111.231477 182.753925 
C 116.741919 182.753925 122.02741 180.564603 125.923881 176.668132 
C 129.820352 172.771661 132.009673 167.486171 132.009673 161.975729 
C 132.009673 156.465287 129.820352 151.179796 125.923881 147.283325 
C 122.02741 143.386854 116.741919 141.197532 111.231477 141.197532 
C 105.721035 141.197532 100.435544 143.386854 96.539073 147.283325 
C 92.642602 151.179796 90.453281 156.465287 90.453281 161.975729 
C 90.453281 167.486171 92.642602 172.771661 96.539073 176.668132 
C 100.435544 180.564603 105.721035 182.753925 111.231477 182.753925 
z
" clip-path="url(#p2a1b4ff4b6)" style="fill: #d62728; fill-opacity: 0.99; stroke: #d62728; stroke-opacity: 0.99"/>
    <path d="M 74.769231 264.148429 
C 80.265772 264.148429 85.537929 261.96463 89.424571 258.077989 
C 93.311212 254.191347 95.495011 248.91919 95.495011 243.422649 
C 95.495011 237.926108 93.311212 232.65395 89.424571 228.767309 
C 85.537929 224.880667 80.265772 222.696868 74.769231 222.696868 
C 69.272689 222.696868 64.000532 224.880667 60.113891 228.767309 
C 56.227249 232.65395 54.04345 237.926108 54.04345 243.422649 
C 54.04345 248.91919 56.227249 254.191347 60.113891 258.077989 
C 64.000532 261.96463 69.272689 264.148429 74.769231 264.148429 
z
" clip-path="url(#p2a1b4ff4b6)" style="fill: #d62728; fill-opacity: 0.99; stroke: #d62728; stroke-opacity: 0.99"/>
    <path d="M 74.769244 352.94764 
C 80.171497 352.94764 85.353216 350.801302 89.173186 346.981332 
C 92.993156 343.161362 95.139495 337.979643 95.139495 332.577389 
C 95.139495 327.175136 92.993156 321.993417 89.173186 318.173447 
C 85.353216 314.353477 80.171497 312.207138 74.769244 312.207138 
C 69.36699 312.207138 64.185271 314.353477 60.365301 318.173447 
C 56.545331 321.993417 54.398993 327.175136 54.398993 332.577389 
C 54.398993 337.979643 56.545331 343.161362 60.365301 346.981332 
C 64.185271 350.801302 69.36699 352.94764 74.769244 352.94764 
z
" clip-path="url(#p2a1b4ff4b6)" style="fill: #d62728; fill-opacity: 0.99; stroke: #d62728; stroke-opacity: 0.99"/>
    <path d="M 111.23149 434.37445 
C 116.628417 434.37445 121.805026 432.230228 125.62123 428.414024 
C 129.437434 424.59782 131.581656 419.421211 131.581656 414.024284 
C 131.581656 408.627357 129.437434 403.450748 125.62123 399.634544 
C 121.805026 395.81834 116.628417 393.674118 111.23149 393.674118 
C 105.834563 393.674118 100.657953 395.81834 96.84175 399.634544 
C 93.025546 403.450748 90.881324 408.627357 90.881324 414.024284 
C 90.881324 419.421211 93.025546 424.59782 96.84175 428.414024 
C 100.657953 432.230228 105.834563 434.37445 111.23149 434.37445 
z
" clip-path="url(#p2a1b4ff4b6)" style="fill: #d62728; fill-opacity: 0.99; stroke: #d62728; stroke-opacity: 0.99"/>
    <path d="M 177.85133 493.702048 
C 183.161121 493.702048 188.254152 491.592446 192.008741 487.837857 
C 195.763331 484.083267 197.872933 478.990237 197.872933 473.680446 
C 197.872933 468.370654 195.763331 463.277624 192.008741 459.523034 
C 188.254152 455.768445 183.161121 453.658843 177.85133 453.658843 
C 172.541539 453.658843 167.448508 455.768445 163.693919 459.523034 
C 159.93933 463.277624 157.829727 468.370654 157.829727 473.680446 
C 157.829727 478.990237 159.93933 484.083267 163.693919 487.837857 
C 167.448508 491.592446 172.541539 493.702048 177.85133 493.702048 
z
" clip-path="url(#p2a1b4ff4b6)" style="fill: #d62728; fill-opacity: 0.99; stroke: #d62728; stroke-opacity: 0.99"/>
    <path d="M 263.109587 521.229966 
C 268.413436 521.229966 273.500767 519.122724 277.251154 515.372337 
C 281.001542 511.621949 283.108783 506.534618 283.108783 501.230769 
C 283.108783 495.92692 281.001542 490.839589 277.251154 487.089202 
C 273.500767 483.338814 268.413436 481.231573 263.109587 481.231573 
C 257.805738 481.231573 252.718407 483.338814 248.96802 487.089202 
C 245.217632 490.839589 243.110391 495.92692 243.110391 501.230769 
C 243.110391 506.534618 245.217632 511.621949 248.96802 515.372337 
C 252.718407 519.122724 257.805738 521.229966 263.109587 521.229966 
z
" clip-path="url(#p2a1b4ff4b6)" style="fill: #d62728; fill-opacity: 0.99; stroke: #d62728; stroke-opacity: 0.99"/>
    <path d="M 352.264323 511.770742 
C 357.531043 511.770742 362.58276 509.678252 366.306893 505.954119 
C 370.031026 502.229986 372.123516 497.178269 372.123516 491.91155 
C 372.123516 486.64483 370.031026 481.593113 366.306893 477.86898 
C 362.58276 474.144847 357.531043 472.052357 352.264323 472.052357 
C 346.997604 472.052357 341.945887 474.144847 338.221754 477.86898 
C 334.497621 481.593113 332.405131 486.64483 332.405131 491.91155 
C 332.405131 497.178269 334.497621 502.229986 338.221754 505.954119 
C 341.945887 509.678252 346.997604 511.770742 352.264323 511.770742 
z
" clip-path="url(#p2a1b4ff4b6)" style="fill: #d62728; fill-opacity: 0.99; stroke: #d62728; stroke-opacity: 0.99"/>
    <path d="M 429.899888 466.891837 
C 435.086645 466.891837 440.061664 464.831117 443.729255 461.163526 
C 447.396845 457.495935 449.457566 452.520917 449.457566 447.33416 
C 449.457566 442.147403 447.396845 437.172385 443.729255 433.504794 
C 440.061664 429.837203 435.086645 427.776483 429.899888 427.776483 
C 424.713132 427.776483 419.738113 429.837203 416.070522 433.504794 
C 412.402931 437.172385 410.342211 442.147403 410.342211 447.33416 
C 410.342211 452.520917 412.402931 457.495935 416.070522 461.163526 
C 419.738113 464.831117 424.713132 466.891837 429.899888 466.891837 
z
" clip-path="url(#p2a1b4ff4b6)" style="fill: #d62728; fill-opacity: 0.99; stroke: #d62728; stroke-opacity: 0.99"/>
    <path d="M 482.592374 394.571376 
C 487.728009 394.571376 492.653994 392.530967 496.285437 388.899524 
C 499.91688 385.268081 501.95729 380.342096 501.95729 375.20646 
C 501.95729 370.070824 499.91688 365.144839 496.285437 361.513396 
C 492.653994 357.881953 487.728009 355.841543 482.592374 355.841543 
C 477.456738 355.841543 472.530753 357.881953 468.89931 361.513396 
C 465.267867 365.144839 463.227457 370.070824 463.227457 375.20646 
C 463.227457 380.342096 465.267867 385.268081 468.89931 388.899524 
C 472.530753 392.530967 477.456738 394.571376 482.592374 394.571376 
z
" clip-path="url(#p2a1b4ff4b6)" style="fill: #d62728; fill-opacity: 0.99; stroke: #d62728; stroke-opacity: 0.99"/>
   </g>
   <g id="text_1">
    <g id="patch_2">
     <path d="M 458.930066 296.315156 
L 543.531472 296.315156 
L 543.531472 279.684844 
L 458.930066 279.684844 
z
" clip-path="url(#p2a1b4ff4b6)" style="fill: #ffffff; opacity: 0.7; stroke: #000000; stroke-linejoin: miter"/>
    </g>
    <g clip-path="url(#p2a1b4ff4b6)">
     <!-- Steven Spielberg -->
     <g transform="translate(462.890066 290.483437)scale(0.09 -0.09)">
      <defs>
       <path id="DejaVuSans-53" d="M 3425 4513 
L 3425 3897 
Q 3066 4069 2747 4153 
Q 2428 4238 2131 4238 
Q 1616 4238 1336 4038 
Q 1056 3838 1056 3469 
Q 1056 3159 1242 3001 
Q 1428 2844 1947 2747 
L 2328 2669 
Q 3034 2534 3370 2195 
Q 3706 1856 3706 1288 
Q 3706 609 3251 259 
Q 2797 -91 1919 -91 
Q 1588 -91 1214 -16 
Q 841 59 441 206 
L 441 856 
Q 825 641 1194 531 
Q 1563 422 1919 422 
Q 2459 422 2753 634 
Q 3047 847 3047 1241 
Q 3047 1584 2836 1778 
Q 2625 1972 2144 2069 
L 1759 2144 
Q 1053 2284 737 2584 
Q 422 2884 422 3419 
Q 422 4038 858 4394 
Q 1294 4750 2059 4750 
Q 2388 4750 2728 4690 
Q 3069 4631 3425 4513 
z
" transform="scale(0.015625)"/>
       <path id="DejaVuSans-74" d="M 1172 4494 
L 1172 3500 
L 2356 3500 
L 2356 3053 
L 1172 3053 
L 1172 1153 
Q 1172 725 1289 603 
Q 1406 481 1766 481 
L 2356 481 
L 2356 0 
L 1766 0 
Q 1100 0 847 248 
Q 594 497 594 1153 
L 594 3053 
L 172 3053 
L 172 3500 
L 594 3500 
L 594 4494 
L 1172 4494 
z
" transform="scale(0.015625)"/>
       <path id="DejaVuSans-65" d="M 3597 1894 
L 3597 1613 
L 953 1613 
Q 991 1019 1311 708 
Q 1631 397 2203 397 
Q 2534 397 2845 478 
Q 3156 559 3463 722 
L 3463 178 
Q 3153 47 2828 -22 
Q 2503 -91 2169 -91 
Q 1331 -91 842 396 
Q 353 884 353 1716 
Q 353 2575 817 3079 
Q 1281 3584 2069 3584 
Q 2775 3584 3186 3129 
Q 3597 2675 3597 1894 
z
M 3022 2063 
Q 3016 2534 2758 2815 
Q 2500 3097 2075 3097 
Q 1594 3097 1305 2825 
Q 1016 2553 972 2059 
L 3022 2063 
z
" transform="scale(0.015625)"/>
       <path id="DejaVuSans-76" d="M 191 3500 
L 800 3500 
L 1894 563 
L 2988 3500 
L 3597 3500 
L 2284 0 
L 1503 0 
L 191 3500 
z
" transform="scale(0.015625)"/>
       <path id="DejaVuSans-6e" d="M 3513 2113 
L 3513 0 
L 2938 0 
L 2938 2094 
Q 2938 2591 2744 2837 
Q 2550 3084 2163 3084 
Q 1697 3084 1428 2787 
Q 1159 2491 1159 1978 
L 1159 0 
L 581 0 
L 581 3500 
L 1159 3500 
L 1159 2956 
Q 1366 3272 1645 3428 
Q 1925 3584 2291 3584 
Q 2894 3584 3203 3211 
Q 3513 2838 3513 2113 
z
" transform="scale(0.015625)"/>
       <path id="DejaVuSans-20" transform="scale(0.015625)"/>
       <path id="DejaVuSans-70" d="M 1159 525 
L 1159 -1331 
L 581 -1331 
L 581 3500 
L 1159 3500 
L 1159 2969 
Q 1341 3281 1617 3432 
Q 1894 3584 2278 3584 
Q 2916 3584 3314 3078 
Q 3713 2572 3713 1747 
Q 3713 922 3314 415 
Q 2916 -91 2278 -91 
Q 1894 -91 1617 61 
Q 1341 213 1159 525 
z
M 3116 1747 
Q 3116 2381 2855 2742 
Q 2594 3103 2138 3103 
Q 1681 3103 1420 2742 
Q 1159 2381 1159 1747 
Q 1159 1113 1420 752 
Q 1681 391 2138 391 
Q 2594 391 2855 752 
Q 3116 1113 3116 1747 
z
" transform="scale(0.015625)"/>
       <path id="DejaVuSans-69" d="M 603 3500 
L 1178 3500 
L 1178 0 
L 603 0 
L 603 3500 
z
M 603 4863 
L 1178 4863 
L 1178 4134 
L 603 4134 
L 603 4863 
z
" transform="scale(0.015625)"/>
       <path id="DejaVuSans-6c" d="M 603 4863 
L 1178 4863 
L 1178 0 
L 603 0 
L 603 4863 
z
" transform="scale(0.015625)"/>
       <path id="DejaVuSans-62" d="M 3116 1747 
Q 3116 2381 2855 2742 
Q 2594 3103 2138 3103 
Q 1681 3103 1420 2742 
Q 1159 2381 1159 1747 
Q 1159 1113 1420 752 
Q 1681 391 2138 391 
Q 2594 391 2855 752 
Q 3116 1113 3116 1747 
z
M 1159 2969 
Q 1341 3281 1617 3432 
Q 1894 3584 2278 3584 
Q 2916 3584 3314 3078 
Q 3713 2572 3713 1747 
Q 3713 922 3314 415 
Q 2916 -91 2278 -91 
Q 1894 -91 1617 61 
Q 1341 213 1159 525 
L 1159 0 
L 581 0 
L 581 4863 
L 1159 4863 
L 1159 2969 
z
" transform="scale(0.015625)"/>
       <path id="DejaVuSans-72" d="M 2631 2963 
Q 2534 3019 2420 3045 
Q 2306 3072 2169 3072 
Q 1681 3072 1420 2755 
Q 1159 2438 1159 1844 
L 1159 0 
L 581 0 
L 581 3500 
L 1159 3500 
L 1159 2956 
Q 1341 3275 1631 3429 
Q 1922 3584 2338 3584 
Q 2397 3584 2469 3576 
Q 2541 3569 2628 3553 
L 2631 2963 
z
" transform="scale(0.015625)"/>
       <path id="DejaVuSans-67" d="M 2906 1791 
Q 2906 2416 2648 2759 
Q 2391 3103 1925 3103 
Q 1463 3103 1205 2759 
Q 947 2416 947 1791 
Q 947 1169 1205 825 
Q 1463 481 1925 481 
Q 2391 481 2648 825 
Q 2906 1169 2906 1791 
z
M 3481 434 
Q 3481 -459 3084 -895 
Q 2688 -1331 1869 -1331 
Q 1566 -1331 1297 -1286 
Q 1028 -1241 775 -1147 
L 775 -588 
Q 1028 -725 1275 -790 
Q 1522 -856 1778 -856 
Q 2344 -856 2625 -561 
Q 2906 -266 2906 331 
L 2906 616 
Q 2728 306 2450 153 
Q 2172 0 1784 0 
Q 1141 0 747 490 
Q 353 981 353 1791 
Q 353 2603 747 3093 
Q 1141 3584 1784 3584 
Q 2172 3584 2450 3431 
Q 2728 3278 2906 2969 
L 2906 3500 
L 3481 3500 
L 3481 434 
z
" transform="scale(0.015625)"/>
      </defs>
      <use xlink:href="#DejaVuSans-53"/>
      <use xlink:href="#DejaVuSans-74" x="63.476562"/>
      <use xlink:href="#DejaVuSans-65" x="102.685547"/>
      <use xlink:href="#DejaVuSans-76" x="164.208984"/>
      <use xlink:href="#DejaVuSans-65" x="223.388672"/>
      <use xlink:href="#DejaVuSans-6e" x="284.912109"/>
      <use xlink:href="#DejaVuSans-20" x="348.291016"/>
      <use xlink:href="#DejaVuSans-53" x="380.078125"/>
      <use xlink:href="#DejaVuSans-70" x="443.554688"/>
      <use xlink:href="#DejaVuSans-69" x="507.03125"/>
      <use xlink:href="#DejaVuSans-65" x="534.814453"/>
      <use xlink:href="#DejaVuSans-6c" x="596.337891"/>
      <use xlink:href="#DejaVuSans-62" x="624.121094"/>
      <use xlink:href="#DejaVuSans-65" x="687.597656"/>
      <use xlink:href="#DejaVuSans-72" x="749.121094"/>
      <use xlink:href="#DejaVuSans-67" x="788.484375"/>
     </g>
    </g>
   </g>
   <g id="text_2">
    <g id="patch_3">
     <path d="M 439.677817 209.108665 
L 525.506879 209.108665 
L 525.506879 192.478352 
L 439.677817 192.478352 
z
" clip-path="url(#p2a1b4ff4b6)" style="fill: #ffffff; opacity: 0.7; stroke: #000000; stroke-linejoin: miter"/>
    </g>
    <g clip-path="url(#p2a1b4ff4b6)">
     <!-- Barry Sonnenfeld -->
     <g transform="translate(443.637817 203.276946)scale(0.09 -0.09)">
      <defs>
       <path id="DejaVuSans-42" d="M 1259 2228 
L 1259 519 
L 2272 519 
Q 2781 519 3026 730 
Q 3272 941 3272 1375 
Q 3272 1813 3026 2020 
Q 2781 2228 2272 2228 
L 1259 2228 
z
M 1259 4147 
L 1259 2741 
L 2194 2741 
Q 2656 2741 2882 2914 
Q 3109 3088 3109 3444 
Q 3109 3797 2882 3972 
Q 2656 4147 2194 4147 
L 1259 4147 
z
M 628 4666 
L 2241 4666 
Q 2963 4666 3353 4366 
Q 3744 4066 3744 3513 
Q 3744 3084 3544 2831 
Q 3344 2578 2956 2516 
Q 3422 2416 3680 2098 
Q 3938 1781 3938 1306 
Q 3938 681 3513 340 
Q 3088 0 2303 0 
L 628 0 
L 628 4666 
z
" transform="scale(0.015625)"/>
       <path id="DejaVuSans-61" d="M 2194 1759 
Q 1497 1759 1228 1600 
Q 959 1441 959 1056 
Q 959 750 1161 570 
Q 1363 391 1709 391 
Q 2188 391 2477 730 
Q 2766 1069 2766 1631 
L 2766 1759 
L 2194 1759 
z
M 3341 1997 
L 3341 0 
L 2766 0 
L 2766 531 
Q 2569 213 2275 61 
Q 1981 -91 1556 -91 
Q 1019 -91 701 211 
Q 384 513 384 1019 
Q 384 1609 779 1909 
Q 1175 2209 1959 2209 
L 2766 2209 
L 2766 2266 
Q 2766 2663 2505 2880 
Q 2244 3097 1772 3097 
Q 1472 3097 1187 3025 
Q 903 2953 641 2809 
L 641 3341 
Q 956 3463 1253 3523 
Q 1550 3584 1831 3584 
Q 2591 3584 2966 3190 
Q 3341 2797 3341 1997 
z
" transform="scale(0.015625)"/>
       <path id="DejaVuSans-79" d="M 2059 -325 
Q 1816 -950 1584 -1140 
Q 1353 -1331 966 -1331 
L 506 -1331 
L 506 -850 
L 844 -850 
Q 1081 -850 1212 -737 
Q 1344 -625 1503 -206 
L 1606 56 
L 191 3500 
L 800 3500 
L 1894 763 
L 2988 3500 
L 3597 3500 
L 2059 -325 
z
" transform="scale(0.015625)"/>
       <path id="DejaVuSans-6f" d="M 1959 3097 
Q 1497 3097 1228 2736 
Q 959 2375 959 1747 
Q 959 1119 1226 758 
Q 1494 397 1959 397 
Q 2419 397 2687 759 
Q 2956 1122 2956 1747 
Q 2956 2369 2687 2733 
Q 2419 3097 1959 3097 
z
M 1959 3584 
Q 2709 3584 3137 3096 
Q 3566 2609 3566 1747 
Q 3566 888 3137 398 
Q 2709 -91 1959 -91 
Q 1206 -91 779 398 
Q 353 888 353 1747 
Q 353 2609 779 3096 
Q 1206 3584 1959 3584 
z
" transform="scale(0.015625)"/>
       <path id="DejaVuSans-66" d="M 2375 4863 
L 2375 4384 
L 1825 4384 
Q 1516 4384 1395 4259 
Q 1275 4134 1275 3809 
L 1275 3500 
L 2222 3500 
L 2222 3053 
L 1275 3053 
L 1275 0 
L 697 0 
L 697 3053 
L 147 3053 
L 147 3500 
L 697 3500 
L 697 3744 
Q 697 4328 969 4595 
Q 1241 4863 1831 4863 
L 2375 4863 
z
" transform="scale(0.015625)"/>
       <path id="DejaVuSans-64" d="M 2906 2969 
L 2906 4863 
L 3481 4863 
L 3481 0 
L 2906 0 
L 2906 525 
Q 2725 213 2448 61 
Q 2172 -91 1784 -91 
Q 1150 -91 751 415 
Q 353 922 353 1747 
Q 353 2572 751 3078 
Q 1150 3584 1784 3584 
Q 2172 3584 2448 3432 
Q 2725 3281 2906 2969 
z
M 947 1747 
Q 947 1113 1208 752 
Q 1469 391 1925 391 
Q 2381 391 2643 752 
Q 2906 1113 2906 1747 
Q 2906 2381 2643 2742 
Q 2381 3103 1925 3103 
Q 1469 3103 1208 2742 
Q 947 2381 947 1747 
z
" transform="scale(0.015625)"/>
      </defs>
      <use xlink:href="#DejaVuSans-42"/>
      <use xlink:href="#DejaVuSans-61" x="68.603516"/>
      <use xlink:href="#DejaVuSans-72" x="129.882812"/>
      <use xlink:href="#DejaVuSans-72" x="169.246094"/>
      <use xlink:href="#DejaVuSans-79" x="210.359375"/>
      <use xlink:href="#DejaVuSans-20" x="269.539062"/>
      <use xlink:href="#DejaVuSans-53" x="301.326172"/>
      <use xlink:href="#DejaVuSans-6f" x="364.802734"/>
      <use xlink:href="#DejaVuSans-6e" x="425.984375"/>
      <use xlink:href="#DejaVuSans-6e" x="489.363281"/>
      <use xlink:href="#DejaVuSans-65" x="552.742188"/>
      <use xlink:href="#DejaVuSans-6e" x="614.265625"/>
      <use xlink:href="#DejaVuSans-66" x="677.644531"/>
      <use xlink:href="#DejaVuSans-65" x="712.849609"/>
      <use xlink:href="#DejaVuSans-6c" x="774.373047"/>
      <use xlink:href="#DejaVuSans-64" x="802.15625"/>
     </g>
    </g>
   </g>
   <g id="text_3">
    <g id="patch_4">
     <path d="M 401.109694 136.980958 
L 458.690006 136.980958 
L 458.690006 120.350645 
L 401.109694 120.350645 
z
" clip-path="url(#p2a1b4ff4b6)" style="fill: #ffffff; opacity: 0.7; stroke: #000000; stroke-linejoin: miter"/>
    </g>
    <g clip-path="url(#p2a1b4ff4b6)">
     <!-- Tim Burton -->
     <g transform="translate(405.069694 131.149239)scale(0.09 -0.09)">
      <defs>
       <path id="DejaVuSans-54" d="M -19 4666 
L 3928 4666 
L 3928 4134 
L 2272 4134 
L 2272 0 
L 1638 0 
L 1638 4134 
L -19 4134 
L -19 4666 
z
" transform="scale(0.015625)"/>
       <path id="DejaVuSans-6d" d="M 3328 2828 
Q 3544 3216 3844 3400 
Q 4144 3584 4550 3584 
Q 5097 3584 5394 3201 
Q 5691 2819 5691 2113 
L 5691 0 
L 5113 0 
L 5113 2094 
Q 5113 2597 4934 2840 
Q 4756 3084 4391 3084 
Q 3944 3084 3684 2787 
Q 3425 2491 3425 1978 
L 3425 0 
L 2847 0 
L 2847 2094 
Q 2847 2600 2669 2842 
Q 2491 3084 2119 3084 
Q 1678 3084 1418 2786 
Q 1159 2488 1159 1978 
L 1159 0 
L 581 0 
L 581 3500 
L 1159 3500 
L 1159 2956 
Q 1356 3278 1631 3431 
Q 1906 3584 2284 3584 
Q 2666 3584 2933 3390 
Q 3200 3197 3328 2828 
z
" transform="scale(0.015625)"/>
       <path id="DejaVuSans-75" d="M 544 1381 
L 544 3500 
L 1119 3500 
L 1119 1403 
Q 1119 906 1312 657 
Q 1506 409 1894 409 
Q 2359 409 2629 706 
Q 2900 1003 2900 1516 
L 2900 3500 
L 3475 3500 
L 3475 0 
L 2900 0 
L 2900 538 
Q 2691 219 2414 64 
Q 2138 -91 1772 -91 
Q 1169 -91 856 284 
Q 544 659 544 1381 
z
M 1991 3584 
L 1991 3584 
z
" transform="scale(0.015625)"/>
      </defs>
      <use xlink:href="#DejaVuSans-54"/>
      <use xlink:href="#DejaVuSans-69" x="57.958984"/>
      <use xlink:href="#DejaVuSans-6d" x="85.742188"/>
      <use xlink:href="#DejaVuSans-20" x="183.154297"/>
      <use xlink:href="#DejaVuSans-42" x="214.941406"/>
      <use xlink:href="#DejaVuSans-75" x="283.544922"/>
      <use xlink:href="#DejaVuSans-72" x="346.923828"/>
      <use xlink:href="#DejaVuSans-74" x="388.037109"/>
      <use xlink:href="#DejaVuSans-6f" x="427.246094"/>
      <use xlink:href="#DejaVuSans-6e" x="488.427734"/>
     </g>
    </g>
   </g>
   <g id="text_4">
    <g id="patch_5">
     <path d="M 306.111166 92.403594 
L 398.417416 92.403594 
L 398.417416 75.773281 
L 306.111166 75.773281 
z
" clip-path="url(#p2a1b4ff4b6)" style="fill: #ffffff; opacity: 0.7; stroke: #000000; stroke-linejoin: miter"/>
    </g>
    <g clip-path="url(#p2a1b4ff4b6)">
     <!-- Wolfgang Petersen -->
     <g transform="translate(310.071166 86.571875)scale(0.09 -0.09)">
      <defs>
       <path id="DejaVuSans-57" d="M 213 4666 
L 850 4666 
L 1831 722 
L 2809 4666 
L 3519 4666 
L 4500 722 
L 5478 4666 
L 6119 4666 
L 4947 0 
L 4153 0 
L 3169 4050 
L 2175 0 
L 1381 0 
L 213 4666 
z
" transform="scale(0.015625)"/>
       <path id="DejaVuSans-50" d="M 1259 4147 
L 1259 2394 
L 2053 2394 
Q 2494 2394 2734 2622 
Q 2975 2850 2975 3272 
Q 2975 3691 2734 3919 
Q 2494 4147 2053 4147 
L 1259 4147 
z
M 628 4666 
L 2053 4666 
Q 2838 4666 3239 4311 
Q 3641 3956 3641 3272 
Q 3641 2581 3239 2228 
Q 2838 1875 2053 1875 
L 1259 1875 
L 1259 0 
L 628 0 
L 628 4666 
z
" transform="scale(0.015625)"/>
       <path id="DejaVuSans-73" d="M 2834 3397 
L 2834 2853 
Q 2591 2978 2328 3040 
Q 2066 3103 1784 3103 
Q 1356 3103 1142 2972 
Q 928 2841 928 2578 
Q 928 2378 1081 2264 
Q 1234 2150 1697 2047 
L 1894 2003 
Q 2506 1872 2764 1633 
Q 3022 1394 3022 966 
Q 3022 478 2636 193 
Q 2250 -91 1575 -91 
Q 1294 -91 989 -36 
Q 684 19 347 128 
L 347 722 
Q 666 556 975 473 
Q 1284 391 1588 391 
Q 1994 391 2212 530 
Q 2431 669 2431 922 
Q 2431 1156 2273 1281 
Q 2116 1406 1581 1522 
L 1381 1569 
Q 847 1681 609 1914 
Q 372 2147 372 2553 
Q 372 3047 722 3315 
Q 1072 3584 1716 3584 
Q 2034 3584 2315 3537 
Q 2597 3491 2834 3397 
z
" transform="scale(0.015625)"/>
      </defs>
      <use xlink:href="#DejaVuSans-57"/>
      <use xlink:href="#DejaVuSans-6f" x="93.001953"/>
      <use xlink:href="#DejaVuSans-6c" x="154.183594"/>
      <use xlink:href="#DejaVuSans-66" x="181.966797"/>
      <use xlink:href="#DejaVuSans-67" x="217.171875"/>
      <use xlink:href="#DejaVuSans-61" x="280.648438"/>
      <use xlink:href="#DejaVuSans-6e" x="341.927734"/>
      <use xlink:href="#DejaVuSans-67" x="405.306641"/>
      <use xlink:href="#DejaVuSans-20" x="468.783203"/>
      <use xlink:href="#DejaVuSans-50" x="500.570312"/>
      <use xlink:href="#DejaVuSans-65" x="557.248047"/>
      <use xlink:href="#DejaVuSans-74" x="618.771484"/>
      <use xlink:href="#DejaVuSans-65" x="657.980469"/>
      <use xlink:href="#DejaVuSans-72" x="719.503906"/>
      <use xlink:href="#DejaVuSans-73" x="760.617188"/>
      <use xlink:href="#DejaVuSans-65" x="812.716797"/>
      <use xlink:href="#DejaVuSans-6e" x="874.240234"/>
     </g>
    </g>
   </g>
   <g id="text_5">
    <g id="patch_6">
     <path d="M 224.71822 83.084387 
L 301.500877 83.084387 
L 301.500877 66.454075 
L 224.71822 66.454075 
z
" clip-path="url(#p2a1b4ff4b6)" style="fill: #ffffff; opacity: 0.7; stroke: #000000; stroke-linejoin: miter"/>
    </g>
    <g clip-path="url(#p2a1b4ff4b6)">
     <!-- John McTiernan -->
     <g transform="translate(228.67822 77.252668)scale(0.09 -0.09)">
      <defs>
       <path id="DejaVuSans-4a" d="M 628 4666 
L 1259 4666 
L 1259 325 
Q 1259 -519 939 -900 
Q 619 -1281 -91 -1281 
L -331 -1281 
L -331 -750 
L -134 -750 
Q 284 -750 456 -515 
Q 628 -281 628 325 
L 628 4666 
z
" transform="scale(0.015625)"/>
       <path id="DejaVuSans-68" d="M 3513 2113 
L 3513 0 
L 2938 0 
L 2938 2094 
Q 2938 2591 2744 2837 
Q 2550 3084 2163 3084 
Q 1697 3084 1428 2787 
Q 1159 2491 1159 1978 
L 1159 0 
L 581 0 
L 581 4863 
L 1159 4863 
L 1159 2956 
Q 1366 3272 1645 3428 
Q 1925 3584 2291 3584 
Q 2894 3584 3203 3211 
Q 3513 2838 3513 2113 
z
" transform="scale(0.015625)"/>
       <path id="DejaVuSans-4d" d="M 628 4666 
L 1569 4666 
L 2759 1491 
L 3956 4666 
L 4897 4666 
L 4897 0 
L 4281 0 
L 4281 4097 
L 3078 897 
L 2444 897 
L 1241 4097 
L 1241 0 
L 628 0 
L 628 4666 
z
" transform="scale(0.015625)"/>
       <path id="DejaVuSans-63" d="M 3122 3366 
L 3122 2828 
Q 2878 2963 2633 3030 
Q 2388 3097 2138 3097 
Q 1578 3097 1268 2742 
Q 959 2388 959 1747 
Q 959 1106 1268 751 
Q 1578 397 2138 397 
Q 2388 397 2633 464 
Q 2878 531 3122 666 
L 3122 134 
Q 2881 22 2623 -34 
Q 2366 -91 2075 -91 
Q 1284 -91 818 406 
Q 353 903 353 1747 
Q 353 2603 823 3093 
Q 1294 3584 2113 3584 
Q 2378 3584 2631 3529 
Q 2884 3475 3122 3366 
z
" transform="scale(0.015625)"/>
      </defs>
      <use xlink:href="#DejaVuSans-4a"/>
      <use xlink:href="#DejaVuSans-6f" x="29.492188"/>
      <use xlink:href="#DejaVuSans-68" x="90.673828"/>
      <use xlink:href="#DejaVuSans-6e" x="154.052734"/>
      <use xlink:href="#DejaVuSans-20" x="217.431641"/>
      <use xlink:href="#DejaVuSans-4d" x="249.21875"/>
      <use xlink:href="#DejaVuSans-63" x="335.498047"/>
      <use xlink:href="#DejaVuSans-54" x="390.478516"/>
      <use xlink:href="#DejaVuSans-69" x="448.4375"/>
      <use xlink:href="#DejaVuSans-65" x="476.220703"/>
      <use xlink:href="#DejaVuSans-72" x="537.744141"/>
      <use xlink:href="#DejaVuSans-6e" x="577.107422"/>
      <use xlink:href="#DejaVuSans-61" x="640.486328"/>
      <use xlink:href="#DejaVuSans-6e" x="701.765625"/>
     </g>
    </g>
   </g>
   <g id="text_6">
    <g id="patch_7">
     <path d="M 135.069657 110.634724 
L 220.632939 110.634724 
L 220.632939 94.004411 
L 135.069657 94.004411 
z
" clip-path="url(#p2a1b4ff4b6)" style="fill: #ffffff; opacity: 0.7; stroke: #000000; stroke-linejoin: miter"/>
    </g>
    <g clip-path="url(#p2a1b4ff4b6)">
     <!-- Robert Rodriguez -->
     <g transform="translate(139.029657 104.803005)scale(0.09 -0.09)">
      <defs>
       <path id="DejaVuSans-52" d="M 2841 2188 
Q 3044 2119 3236 1894 
Q 3428 1669 3622 1275 
L 4263 0 
L 3584 0 
L 2988 1197 
Q 2756 1666 2539 1819 
Q 2322 1972 1947 1972 
L 1259 1972 
L 1259 0 
L 628 0 
L 628 4666 
L 2053 4666 
Q 2853 4666 3247 4331 
Q 3641 3997 3641 3322 
Q 3641 2881 3436 2590 
Q 3231 2300 2841 2188 
z
M 1259 4147 
L 1259 2491 
L 2053 2491 
Q 2509 2491 2742 2702 
Q 2975 2913 2975 3322 
Q 2975 3731 2742 3939 
Q 2509 4147 2053 4147 
L 1259 4147 
z
" transform="scale(0.015625)"/>
       <path id="DejaVuSans-7a" d="M 353 3500 
L 3084 3500 
L 3084 2975 
L 922 459 
L 3084 459 
L 3084 0 
L 275 0 
L 275 525 
L 2438 3041 
L 353 3041 
L 353 3500 
z
" transform="scale(0.015625)"/>
      </defs>
      <use xlink:href="#DejaVuSans-52"/>
      <use xlink:href="#DejaVuSans-6f" x="64.982422"/>
      <use xlink:href="#DejaVuSans-62" x="126.164062"/>
      <use xlink:href="#DejaVuSans-65" x="189.640625"/>
      <use xlink:href="#DejaVuSans-72" x="251.164062"/>
      <use xlink:href="#DejaVuSans-74" x="292.277344"/>
      <use xlink:href="#DejaVuSans-20" x="331.486328"/>
      <use xlink:href="#DejaVuSans-52" x="363.273438"/>
      <use xlink:href="#DejaVuSans-6f" x="428.255859"/>
      <use xlink:href="#DejaVuSans-64" x="489.4375"/>
      <use xlink:href="#DejaVuSans-72" x="552.914062"/>
      <use xlink:href="#DejaVuSans-69" x="594.027344"/>
      <use xlink:href="#DejaVuSans-67" x="621.810547"/>
      <use xlink:href="#DejaVuSans-75" x="685.287109"/>
      <use xlink:href="#DejaVuSans-65" x="748.666016"/>
      <use xlink:href="#DejaVuSans-7a" x="810.189453"/>
     </g>
    </g>
   </g>
   <g id="text_7">
    <g id="patch_8">
     <path d="M 75.287727 170.290885 
L 147.175227 170.290885 
L 147.175227 153.660572 
L 75.287727 153.660572 
z
" clip-path="url(#p2a1b4ff4b6)" style="fill: #ffffff; opacity: 0.7; stroke: #000000; stroke-linejoin: miter"/>
    </g>
    <g clip-path="url(#p2a1b4ff4b6)">
     <!-- Andrew Niccol -->
     <g transform="translate(79.247727 164.459166)scale(0.09 -0.09)">
      <defs>
       <path id="DejaVuSans-41" d="M 2188 4044 
L 1331 1722 
L 3047 1722 
L 2188 4044 
z
M 1831 4666 
L 2547 4666 
L 4325 0 
L 3669 0 
L 3244 1197 
L 1141 1197 
L 716 0 
L 50 0 
L 1831 4666 
z
" transform="scale(0.015625)"/>
       <path id="DejaVuSans-77" d="M 269 3500 
L 844 3500 
L 1563 769 
L 2278 3500 
L 2956 3500 
L 3675 769 
L 4391 3500 
L 4966 3500 
L 4050 0 
L 3372 0 
L 2619 2869 
L 1863 0 
L 1184 0 
L 269 3500 
z
" transform="scale(0.015625)"/>
       <path id="DejaVuSans-4e" d="M 628 4666 
L 1478 4666 
L 3547 763 
L 3547 4666 
L 4159 4666 
L 4159 0 
L 3309 0 
L 1241 3903 
L 1241 0 
L 628 0 
L 628 4666 
z
" transform="scale(0.015625)"/>
      </defs>
      <use xlink:href="#DejaVuSans-41"/>
      <use xlink:href="#DejaVuSans-6e" x="68.408203"/>
      <use xlink:href="#DejaVuSans-64" x="131.787109"/>
      <use xlink:href="#DejaVuSans-72" x="195.263672"/>
      <use xlink:href="#DejaVuSans-65" x="234.126953"/>
      <use xlink:href="#DejaVuSans-77" x="295.650391"/>
      <use xlink:href="#DejaVuSans-20" x="377.4375"/>
      <use xlink:href="#DejaVuSans-4e" x="409.224609"/>
      <use xlink:href="#DejaVuSans-69" x="484.029297"/>
      <use xlink:href="#DejaVuSans-63" x="511.8125"/>
      <use xlink:href="#DejaVuSans-63" x="566.792969"/>
      <use xlink:href="#DejaVuSans-6f" x="621.773438"/>
      <use xlink:href="#DejaVuSans-6c" x="682.955078"/>
     </g>
    </g>
   </g>
   <g id="text_8">
    <g id="patch_9">
     <path d="M 35.020871 251.737805 
L 114.51759 251.737805 
L 114.51759 235.107493 
L 35.020871 235.107493 
z
" clip-path="url(#p2a1b4ff4b6)" style="fill: #ffffff; opacity: 0.7; stroke: #000000; stroke-linejoin: miter"/>
    </g>
    <g clip-path="url(#p2a1b4ff4b6)">
     <!-- Lasse Hallström -->
     <g transform="translate(38.980871 245.906086)scale(0.09 -0.09)">
      <defs>
       <path id="DejaVuSans-4c" d="M 628 4666 
L 1259 4666 
L 1259 531 
L 3531 531 
L 3531 0 
L 628 0 
L 628 4666 
z
" transform="scale(0.015625)"/>
       <path id="DejaVuSans-48" d="M 628 4666 
L 1259 4666 
L 1259 2753 
L 3553 2753 
L 3553 4666 
L 4184 4666 
L 4184 0 
L 3553 0 
L 3553 2222 
L 1259 2222 
L 1259 0 
L 628 0 
L 628 4666 
z
" transform="scale(0.015625)"/>
       <path id="DejaVuSans-f6" d="M 1959 3097 
Q 1497 3097 1228 2736 
Q 959 2375 959 1747 
Q 959 1119 1226 758 
Q 1494 397 1959 397 
Q 2419 397 2687 759 
Q 2956 1122 2956 1747 
Q 2956 2369 2687 2733 
Q 2419 3097 1959 3097 
z
M 1959 3584 
Q 2709 3584 3137 3096 
Q 3566 2609 3566 1747 
Q 3566 888 3137 398 
Q 2709 -91 1959 -91 
Q 1206 -91 779 398 
Q 353 888 353 1747 
Q 353 2609 779 3096 
Q 1206 3584 1959 3584 
z
M 2253 4850 
L 2888 4850 
L 2888 4219 
L 2253 4219 
L 2253 4850 
z
M 1031 4850 
L 1666 4850 
L 1666 4219 
L 1031 4219 
L 1031 4850 
z
" transform="scale(0.015625)"/>
      </defs>
      <use xlink:href="#DejaVuSans-4c"/>
      <use xlink:href="#DejaVuSans-61" x="55.712891"/>
      <use xlink:href="#DejaVuSans-73" x="116.992188"/>
      <use xlink:href="#DejaVuSans-73" x="169.091797"/>
      <use xlink:href="#DejaVuSans-65" x="221.191406"/>
      <use xlink:href="#DejaVuSans-20" x="282.714844"/>
      <use xlink:href="#DejaVuSans-48" x="314.501953"/>
      <use xlink:href="#DejaVuSans-61" x="389.697266"/>
      <use xlink:href="#DejaVuSans-6c" x="450.976562"/>
      <use xlink:href="#DejaVuSans-6c" x="478.759766"/>
      <use xlink:href="#DejaVuSans-73" x="506.542969"/>
      <use xlink:href="#DejaVuSans-74" x="558.642578"/>
      <use xlink:href="#DejaVuSans-72" x="597.851562"/>
      <use xlink:href="#DejaVuSans-f6" x="636.714844"/>
      <use xlink:href="#DejaVuSans-6d" x="697.896484"/>
     </g>
    </g>
   </g>
   <g id="text_9">
    <g id="patch_10">
     <path d="M 43.161665 340.892546 
L 106.376822 340.892546 
L 106.376822 324.262233 
L 43.161665 324.262233 
z
" clip-path="url(#p2a1b4ff4b6)" style="fill: #ffffff; opacity: 0.7; stroke: #000000; stroke-linejoin: miter"/>
    </g>
    <g clip-path="url(#p2a1b4ff4b6)">
     <!-- Todd Phillips -->
     <g transform="translate(47.121665 335.060827)scale(0.09 -0.09)">
      <use xlink:href="#DejaVuSans-54"/>
      <use xlink:href="#DejaVuSans-6f" x="44.083984"/>
      <use xlink:href="#DejaVuSans-64" x="105.265625"/>
      <use xlink:href="#DejaVuSans-64" x="168.742188"/>
      <use xlink:href="#DejaVuSans-20" x="232.21875"/>
      <use xlink:href="#DejaVuSans-50" x="264.005859"/>
      <use xlink:href="#DejaVuSans-68" x="324.308594"/>
      <use xlink:href="#DejaVuSans-69" x="387.6875"/>
      <use xlink:href="#DejaVuSans-6c" x="415.470703"/>
      <use xlink:href="#DejaVuSans-6c" x="443.253906"/>
      <use xlink:href="#DejaVuSans-69" x="471.037109"/>
      <use xlink:href="#DejaVuSans-70" x="498.820312"/>
      <use xlink:href="#DejaVuSans-73" x="562.296875"/>
     </g>
    </g>
   </g>
   <g id="text_10">
    <g id="patch_11">
     <path d="M 80.108365 422.33944 
L 142.354615 422.33944 
L 142.354615 405.709128 
L 80.108365 405.709128 
z
" clip-path="url(#p2a1b4ff4b6)" style="fill: #ffffff; opacity: 0.7; stroke: #000000; stroke-linejoin: miter"/>
    </g>
    <g clip-path="url(#p2a1b4ff4b6)">
     <!-- Ron Howard -->
     <g transform="translate(84.068365 416.507722)scale(0.09 -0.09)">
      <use xlink:href="#DejaVuSans-52"/>
      <use xlink:href="#DejaVuSans-6f" x="64.982422"/>
      <use xlink:href="#DejaVuSans-6e" x="126.164062"/>
      <use xlink:href="#DejaVuSans-20" x="189.542969"/>
      <use xlink:href="#DejaVuSans-48" x="221.330078"/>
      <use xlink:href="#DejaVuSans-6f" x="296.525391"/>
      <use xlink:href="#DejaVuSans-77" x="357.707031"/>
      <use xlink:href="#DejaVuSans-61" x="439.494141"/>
      <use xlink:href="#DejaVuSans-72" x="500.773438"/>
      <use xlink:href="#DejaVuSans-64" x="540.136719"/>
     </g>
    </g>
   </g>
   <g id="text_11">
    <g id="patch_12">
     <path d="M 136.240393 481.995602 
L 219.462268 481.995602 
L 219.462268 465.365289 
L 136.240393 465.365289 
z
" clip-path="url(#p2a1b4ff4b6)" style="fill: #ffffff; opacity: 0.7; stroke: #000000; stroke-linejoin: miter"/>
    </g>
    <g clip-path="url(#p2a1b4ff4b6)">
     <!-- Joel Schumacher -->
     <g transform="translate(140.200393 476.163883)scale(0.09 -0.09)">
      <use xlink:href="#DejaVuSans-4a"/>
      <use xlink:href="#DejaVuSans-6f" x="29.492188"/>
      <use xlink:href="#DejaVuSans-65" x="90.673828"/>
      <use xlink:href="#DejaVuSans-6c" x="152.197266"/>
      <use xlink:href="#DejaVuSans-20" x="179.980469"/>
      <use xlink:href="#DejaVuSans-53" x="211.767578"/>
      <use xlink:href="#DejaVuSans-63" x="275.244141"/>
      <use xlink:href="#DejaVuSans-68" x="330.224609"/>
      <use xlink:href="#DejaVuSans-75" x="393.603516"/>
      <use xlink:href="#DejaVuSans-6d" x="456.982422"/>
      <use xlink:href="#DejaVuSans-61" x="554.394531"/>
      <use xlink:href="#DejaVuSans-63" x="615.673828"/>
      <use xlink:href="#DejaVuSans-68" x="670.654297"/>
      <use xlink:href="#DejaVuSans-65" x="734.033203"/>
      <use xlink:href="#DejaVuSans-72" x="795.556641"/>
     </g>
    </g>
   </g>
   <g id="text_12">
    <g id="patch_13">
     <path d="M 228.902556 509.545925 
L 297.316618 509.545925 
L 297.316618 492.915613 
L 228.902556 492.915613 
z
" clip-path="url(#p2a1b4ff4b6)" style="fill: #ffffff; opacity: 0.7; stroke: #000000; stroke-linejoin: miter"/>
    </g>
    <g clip-path="url(#p2a1b4ff4b6)">
     <!-- Peter Jackson -->
     <g transform="translate(232.862556 503.714207)scale(0.09 -0.09)">
      <defs>
       <path id="DejaVuSans-6b" d="M 581 4863 
L 1159 4863 
L 1159 1991 
L 2875 3500 
L 3609 3500 
L 1753 1863 
L 3688 0 
L 2938 0 
L 1159 1709 
L 1159 0 
L 581 0 
L 581 4863 
z
" transform="scale(0.015625)"/>
      </defs>
      <use xlink:href="#DejaVuSans-50"/>
      <use xlink:href="#DejaVuSans-65" x="56.677734"/>
      <use xlink:href="#DejaVuSans-74" x="118.201172"/>
      <use xlink:href="#DejaVuSans-65" x="157.410156"/>
      <use xlink:href="#DejaVuSans-72" x="218.933594"/>
      <use xlink:href="#DejaVuSans-20" x="260.046875"/>
      <use xlink:href="#DejaVuSans-4a" x="291.833984"/>
      <use xlink:href="#DejaVuSans-61" x="321.326172"/>
      <use xlink:href="#DejaVuSans-63" x="382.605469"/>
      <use xlink:href="#DejaVuSans-6b" x="437.585938"/>
      <use xlink:href="#DejaVuSans-73" x="495.496094"/>
      <use xlink:href="#DejaVuSans-6f" x="547.595703"/>
      <use xlink:href="#DejaVuSans-6e" x="608.777344"/>
     </g>
    </g>
   </g>
   <g id="text_13">
    <g id="patch_14">
     <path d="M 317.572136 500.226706 
L 386.956511 500.226706 
L 386.956511 483.596393 
L 317.572136 483.596393 
z
" clip-path="url(#p2a1b4ff4b6)" style="fill: #ffffff; opacity: 0.7; stroke: #000000; stroke-linejoin: miter"/>
    </g>
    <g clip-path="url(#p2a1b4ff4b6)">
     <!-- David Fincher -->
     <g transform="translate(321.532136 494.394987)scale(0.09 -0.09)">
      <defs>
       <path id="DejaVuSans-44" d="M 1259 4147 
L 1259 519 
L 2022 519 
Q 2988 519 3436 956 
Q 3884 1394 3884 2338 
Q 3884 3275 3436 3711 
Q 2988 4147 2022 4147 
L 1259 4147 
z
M 628 4666 
L 1925 4666 
Q 3281 4666 3915 4102 
Q 4550 3538 4550 2338 
Q 4550 1131 3912 565 
Q 3275 0 1925 0 
L 628 0 
L 628 4666 
z
" transform="scale(0.015625)"/>
       <path id="DejaVuSans-46" d="M 628 4666 
L 3309 4666 
L 3309 4134 
L 1259 4134 
L 1259 2759 
L 3109 2759 
L 3109 2228 
L 1259 2228 
L 1259 0 
L 628 0 
L 628 4666 
z
" transform="scale(0.015625)"/>
      </defs>
      <use xlink:href="#DejaVuSans-44"/>
      <use xlink:href="#DejaVuSans-61" x="77.001953"/>
      <use xlink:href="#DejaVuSans-76" x="138.28125"/>
      <use xlink:href="#DejaVuSans-69" x="197.460938"/>
      <use xlink:href="#DejaVuSans-64" x="225.244141"/>
      <use xlink:href="#DejaVuSans-20" x="288.720703"/>
      <use xlink:href="#DejaVuSans-46" x="320.507812"/>
      <use xlink:href="#DejaVuSans-69" x="370.777344"/>
      <use xlink:href="#DejaVuSans-6e" x="398.560547"/>
      <use xlink:href="#DejaVuSans-63" x="461.939453"/>
      <use xlink:href="#DejaVuSans-68" x="516.919922"/>
      <use xlink:href="#DejaVuSans-65" x="580.298828"/>
      <use xlink:href="#DejaVuSans-72" x="641.822266"/>
     </g>
    </g>
   </g>
   <g id="text_14">
    <g id="patch_15">
     <path d="M 384.450592 455.649316 
L 475.349185 455.649316 
L 475.349185 439.019004 
L 384.450592 439.019004 
z
" clip-path="url(#p2a1b4ff4b6)" style="fill: #ffffff; opacity: 0.7; stroke: #000000; stroke-linejoin: miter"/>
    </g>
    <g clip-path="url(#p2a1b4ff4b6)">
     <!-- Stephen Sommers -->
     <g transform="translate(388.410592 449.817598)scale(0.09 -0.09)">
      <use xlink:href="#DejaVuSans-53"/>
      <use xlink:href="#DejaVuSans-74" x="63.476562"/>
      <use xlink:href="#DejaVuSans-65" x="102.685547"/>
      <use xlink:href="#DejaVuSans-70" x="164.208984"/>
      <use xlink:href="#DejaVuSans-68" x="227.685547"/>
      <use xlink:href="#DejaVuSans-65" x="291.064453"/>
      <use xlink:href="#DejaVuSans-6e" x="352.587891"/>
      <use xlink:href="#DejaVuSans-20" x="415.966797"/>
      <use xlink:href="#DejaVuSans-53" x="447.753906"/>
      <use xlink:href="#DejaVuSans-6f" x="511.230469"/>
      <use xlink:href="#DejaVuSans-6d" x="572.412109"/>
      <use xlink:href="#DejaVuSans-6d" x="669.824219"/>
      <use xlink:href="#DejaVuSans-65" x="767.236328"/>
      <use xlink:href="#DejaVuSans-72" x="828.759766"/>
      <use xlink:href="#DejaVuSans-73" x="869.873047"/>
     </g>
    </g>
   </g>
   <g id="text_15">
    <g id="patch_16">
     <path d="M 440.60667 383.521616 
L 524.578077 383.521616 
L 524.578077 366.891303 
L 440.60667 366.891303 
z
" clip-path="url(#p2a1b4ff4b6)" style="fill: #ffffff; opacity: 0.7; stroke: #000000; stroke-linejoin: miter"/>
    </g>
    <g clip-path="url(#p2a1b4ff4b6)">
     <!-- Robert Zemeckis -->
     <g transform="translate(444.56667 377.689897)scale(0.09 -0.09)">
      <defs>
       <path id="DejaVuSans-5a" d="M 359 4666 
L 4025 4666 
L 4025 4184 
L 1075 531 
L 4097 531 
L 4097 0 
L 288 0 
L 288 481 
L 3238 4134 
L 359 4134 
L 359 4666 
z
" transform="scale(0.015625)"/>
      </defs>
      <use xlink:href="#DejaVuSans-52"/>
      <use xlink:href="#DejaVuSans-6f" x="64.982422"/>
      <use xlink:href="#DejaVuSans-62" x="126.164062"/>
      <use xlink:href="#DejaVuSans-65" x="189.640625"/>
      <use xlink:href="#DejaVuSans-72" x="251.164062"/>
      <use xlink:href="#DejaVuSans-74" x="292.277344"/>
      <use xlink:href="#DejaVuSans-20" x="331.486328"/>
      <use xlink:href="#DejaVuSans-5a" x="363.273438"/>
      <use xlink:href="#DejaVuSans-65" x="431.779297"/>
      <use xlink:href="#DejaVuSans-6d" x="493.302734"/>
      <use xlink:href="#DejaVuSans-65" x="590.714844"/>
      <use xlink:href="#DejaVuSans-63" x="652.238281"/>
      <use xlink:href="#DejaVuSans-6b" x="707.21875"/>
      <use xlink:href="#DejaVuSans-69" x="765.128906"/>
      <use xlink:href="#DejaVuSans-73" x="792.912109"/>
     </g>
    </g>
   </g>
   <g id="text_16">
    <!-- Impactful directors for Family Film genre -->
    <g transform="translate(166.637812 4.8)scale(0.12 -0.12)">
     <defs>
      <path id="DejaVuSans-49" d="M 628 4666 
L 1259 4666 
L 1259 0 
L 628 0 
L 628 4666 
z
" transform="scale(0.015625)"/>
     </defs>
     <use xlink:href="#DejaVuSans-49"/>
     <use xlink:href="#DejaVuSans-6d" x="29.492188"/>
     <use xlink:href="#DejaVuSans-70" x="126.904297"/>
     <use xlink:href="#DejaVuSans-61" x="190.380859"/>
     <use xlink:href="#DejaVuSans-63" x="251.660156"/>
     <use xlink:href="#DejaVuSans-74" x="306.640625"/>
     <use xlink:href="#DejaVuSans-66" x="345.849609"/>
     <use xlink:href="#DejaVuSans-75" x="381.054688"/>
     <use xlink:href="#DejaVuSans-6c" x="444.433594"/>
     <use xlink:href="#DejaVuSans-20" x="472.216797"/>
     <use xlink:href="#DejaVuSans-64" x="504.003906"/>
     <use xlink:href="#DejaVuSans-69" x="567.480469"/>
     <use xlink:href="#DejaVuSans-72" x="595.263672"/>
     <use xlink:href="#DejaVuSans-65" x="634.126953"/>
     <use xlink:href="#DejaVuSans-63" x="695.650391"/>
     <use xlink:href="#DejaVuSans-74" x="750.630859"/>
     <use xlink:href="#DejaVuSans-6f" x="789.839844"/>
     <use xlink:href="#DejaVuSans-72" x="851.021484"/>
     <use xlink:href="#DejaVuSans-73" x="892.134766"/>
     <use xlink:href="#DejaVuSans-20" x="944.234375"/>
     <use xlink:href="#DejaVuSans-66" x="976.021484"/>
     <use xlink:href="#DejaVuSans-6f" x="1011.226562"/>
     <use xlink:href="#DejaVuSans-72" x="1072.408203"/>
     <use xlink:href="#DejaVuSans-20" x="1113.521484"/>
     <use xlink:href="#DejaVuSans-46" x="1145.308594"/>
     <use xlink:href="#DejaVuSans-61" x="1193.703125"/>
     <use xlink:href="#DejaVuSans-6d" x="1254.982422"/>
     <use xlink:href="#DejaVuSans-69" x="1352.394531"/>
     <use xlink:href="#DejaVuSans-6c" x="1380.177734"/>
     <use xlink:href="#DejaVuSans-79" x="1407.960938"/>
     <use xlink:href="#DejaVuSans-20" x="1467.140625"/>
     <use xlink:href="#DejaVuSans-46" x="1498.927734"/>
     <use xlink:href="#DejaVuSans-69" x="1549.197266"/>
     <use xlink:href="#DejaVuSans-6c" x="1576.980469"/>
     <use xlink:href="#DejaVuSans-6d" x="1604.763672"/>
     <use xlink:href="#DejaVuSans-20" x="1702.175781"/>
     <use xlink:href="#DejaVuSans-67" x="1733.962891"/>
     <use xlink:href="#DejaVuSans-65" x="1797.439453"/>
     <use xlink:href="#DejaVuSans-6e" x="1858.962891"/>
     <use xlink:href="#DejaVuSans-72" x="1922.341797"/>
     <use xlink:href="#DejaVuSans-65" x="1961.205078"/>
    </g>
   </g>
  </g>
 </g>
 <defs>
  <clipPath id="p2a1b4ff4b6">
   <rect x="10.8" y="10.8" width="554.4" height="554.4"/>
  </clipPath>
 </defs>
</svg>
