<?xml version="1.0" encoding="utf-8" standalone="no"?>
<!DOCTYPE svg PUBLIC "-//W3C//DTD SVG 1.1//EN"
  "http://www.w3.org/Graphics/SVG/1.1/DTD/svg11.dtd">
<svg xmlns:xlink="http://www.w3.org/1999/xlink" width="576pt" height="576pt" viewBox="0 0 576 576" xmlns="http://www.w3.org/2000/svg" version="1.1">
 <metadata>
  <rdf:RDF xmlns:dc="http://purl.org/dc/elements/1.1/" xmlns:cc="http://creativecommons.org/ns#" xmlns:rdf="http://www.w3.org/1999/02/22-rdf-syntax-ns#">
   <cc:Work>
    <dc:type rdf:resource="http://purl.org/dc/dcmitype/StillImage"/>
    <dc:date>2022-12-23T19:50:34.275448</dc:date>
    <dc:format>image/svg+xml</dc:format>
    <dc:creator>
     <cc:Agent>
      <dc:title>Matplotlib v3.5.3, https://matplotlib.org/</dc:title>
     </cc:Agent>
    </dc:creator>
   </cc:Work>
  </rdf:RDF>
 </metadata>
 <defs>
  <style type="text/css">*{stroke-linejoin: round; stroke-linecap: butt}</style>
 </defs>
 <g id="figure_1">
  <g id="patch_1">
   <path d="M 0 576 
L 576 576 
L 576 0 
L 0 0 
z
" style="fill: #ffffff"/>
  </g>
  <g id="axes_1">
   <g id="LineCollection_1">
    <path d="M 429.89985 128.665802 
L 352.264291 84.088438 
" clip-path="url(#p0925d4e484)" style="fill: none; stroke: #000000; stroke-opacity: 0.3; stroke-width: 5"/>
   </g>
   <g id="PathCollection_1">
    <path d="M 501.230769 315.386128 
C 508.493655 315.386128 515.46005 312.500553 520.595686 307.364917 
C 525.731322 302.229281 528.616897 295.262886 528.616897 288 
C 528.616897 280.737114 525.731322 273.770719 520.595686 268.635083 
C 515.46005 263.499447 508.493655 260.613872 501.230769 260.613872 
C 493.967883 260.613872 487.001488 263.499447 481.865852 268.635083 
C 476.730217 273.770719 473.844641 280.737114 473.844641 288 
C 473.844641 295.262886 476.730217 302.229281 481.865852 307.364917 
C 487.001488 312.500553 493.967883 315.386128 501.230769 315.386128 
z
" clip-path="url(#p0925d4e484)" style="fill: #c70039; fill-opacity: 0.99; stroke: #c70039; stroke-opacity: 0.99"/>
    <path d="M 482.592348 227.090734 
C 489.566454 227.090734 496.255857 224.319893 501.187295 219.388455 
C 506.118732 214.457018 508.889574 207.767614 508.889574 200.793508 
C 508.889574 193.819403 506.118732 187.129999 501.187295 182.198562 
C 496.255857 177.267124 489.566454 174.496282 482.592348 174.496282 
C 475.618242 174.496282 468.928839 177.267124 463.997401 182.198562 
C 459.065963 187.129999 456.295122 193.819403 456.295122 200.793508 
C 456.295122 207.767614 459.065963 214.457018 463.997401 219.388455 
C 468.928839 224.319893 475.618242 227.090734 482.592348 227.090734 
z
" clip-path="url(#p0925d4e484)" style="fill: #c70039; fill-opacity: 0.99; stroke: #c70039; stroke-opacity: 0.99"/>
    <path d="M 429.89985 152.630391 
C 436.255333 152.630391 442.351368 150.10533 446.845373 145.611325 
C 451.339379 141.11732 453.864439 135.021285 453.864439 128.665802 
C 453.864439 122.310318 451.339379 116.214284 446.845373 111.720278 
C 442.351368 107.226273 436.255333 104.701213 429.89985 104.701213 
C 423.544367 104.701213 417.448332 107.226273 412.954326 111.720278 
C 408.460321 116.214284 405.935261 122.310318 405.935261 128.665802 
C 405.935261 135.021285 408.460321 141.11732 412.954326 145.611325 
C 417.448332 150.10533 423.544367 152.630391 429.89985 152.630391 
z
" clip-path="url(#p0925d4e484)" style="fill: #c70039; fill-opacity: 0.99; stroke: #c70039; stroke-opacity: 0.99"/>
    <path d="M 352.264291 106.924113 
C 358.320383 106.924113 364.129248 104.518002 368.411552 100.235698 
C 372.693855 95.953395 375.099966 90.14453 375.099966 84.088438 
C 375.099966 78.032346 372.693855 72.223481 368.411552 67.941177 
C 364.129248 63.658873 358.320383 61.252763 352.264291 61.252763 
C 346.208199 61.252763 340.399334 63.658873 336.117031 67.941177 
C 331.834727 72.223481 329.428616 78.032346 329.428616 84.088438 
C 329.428616 90.14453 331.834727 95.953395 336.117031 100.235698 
C 340.399334 104.518002 346.208199 106.924113 352.264291 106.924113 
z
" clip-path="url(#p0925d4e484)" style="fill: #c70039; fill-opacity: 0.99; stroke: #c70039; stroke-opacity: 0.99"/>
    <path d="M 263.109549 96.938514 
C 268.988911 96.938514 274.628262 94.602619 278.785599 90.445281 
C 282.942936 86.287944 285.278832 80.648593 285.278832 74.769231 
C 285.278832 68.889868 282.942936 63.250517 278.785599 59.09318 
C 274.628262 54.935843 268.988911 52.599947 263.109549 52.599947 
C 257.230186 52.599947 251.590835 54.935843 247.433498 59.09318 
C 243.276161 63.250517 240.940265 68.889868 240.940265 74.769231 
C 240.940265 80.648593 243.276161 86.287944 247.433498 90.445281 
C 251.590835 94.602619 257.230186 96.938514 263.109549 96.938514 
z
" clip-path="url(#p0925d4e484)" style="fill: #c70039; fill-opacity: 0.99; stroke: #c70039; stroke-opacity: 0.99"/>
    <path d="M 177.851298 124.231697 
C 183.662463 124.231697 189.236399 121.922896 193.345513 117.813783 
C 197.454627 113.704669 199.763428 108.130732 199.763428 102.319567 
C 199.763428 96.508403 197.454627 90.934466 193.345513 86.825352 
C 189.236399 82.716238 183.662463 80.407438 177.851298 80.407438 
C 172.040133 80.407438 166.466197 82.716238 162.357083 86.825352 
C 158.247969 90.934466 155.939169 96.508403 155.939169 102.319567 
C 155.939169 108.130732 158.247969 113.704669 162.357083 117.813783 
C 166.466197 121.922896 172.040133 124.231697 177.851298 124.231697 
z
" clip-path="url(#p0925d4e484)" style="fill: #c70039; fill-opacity: 0.99; stroke: #c70039; stroke-opacity: 0.99"/>
    <path d="M 111.231477 183.686548 
C 116.989254 183.686548 122.511982 181.398959 126.583345 177.327596 
C 130.654707 173.256233 132.942296 167.733505 132.942296 161.975729 
C 132.942296 156.217952 130.654707 150.695224 126.583345 146.623861 
C 122.511982 142.552498 116.989254 140.264909 111.231477 140.264909 
C 105.4737 140.264909 99.950972 142.552498 95.879609 146.623861 
C 91.808247 150.695224 89.520658 156.217952 89.520658 161.975729 
C 89.520658 167.733505 91.808247 173.256233 95.879609 177.327596 
C 99.950972 181.398959 105.4737 183.686548 111.231477 183.686548 
z
" clip-path="url(#p0925d4e484)" style="fill: #c70039; fill-opacity: 0.99; stroke: #c70039; stroke-opacity: 0.99"/>
    <path d="M 74.769231 264.375997 
C 80.326124 264.375997 85.656169 262.16822 89.585485 258.238903 
C 93.514802 254.309587 95.722579 248.979542 95.722579 243.422649 
C 95.722579 237.865756 93.514802 232.535711 89.585485 228.606394 
C 85.656169 224.677078 80.326124 222.469301 74.769231 222.469301 
C 69.212338 222.469301 63.882293 224.677078 59.952976 228.606394 
C 56.023659 232.535711 53.815883 237.865756 53.815883 243.422649 
C 53.815883 248.979542 56.023659 254.309587 59.952976 258.238903 
C 63.882293 262.16822 69.212338 264.375997 74.769231 264.375997 
z
" clip-path="url(#p0925d4e484)" style="fill: #c70039; fill-opacity: 0.99; stroke: #c70039; stroke-opacity: 0.99"/>
    <path d="M 74.769244 352.891752 
C 80.156676 352.891752 85.324177 350.751303 89.133667 346.941813 
C 92.943157 343.132323 95.083606 337.964821 95.083606 332.577389 
C 95.083606 327.189958 92.943157 322.022456 89.133667 318.212966 
C 85.324177 314.403476 80.156676 312.263027 74.769244 312.263027 
C 69.381812 312.263027 64.21431 314.403476 60.40482 318.212966 
C 56.595331 322.022456 54.454881 327.189958 54.454881 332.577389 
C 54.454881 337.964821 56.595331 343.132323 60.40482 346.941813 
C 64.21431 350.751303 69.381812 352.891752 74.769244 352.891752 
z
" clip-path="url(#p0925d4e484)" style="fill: #c70039; fill-opacity: 0.99; stroke: #c70039; stroke-opacity: 0.99"/>
    <path d="M 111.23149 433.759902 
C 116.465437 433.759902 121.485719 431.680432 125.186679 427.979473 
C 128.887638 424.278514 130.967107 419.258231 130.967107 414.024284 
C 130.967107 408.790337 128.887638 403.770054 125.186679 400.069095 
C 121.485719 396.368136 116.465437 394.288667 111.23149 394.288667 
C 105.997543 394.288667 100.97726 396.368136 97.276301 400.069095 
C 93.575342 403.770054 91.495872 408.790337 91.495872 414.024284 
C 91.495872 419.258231 93.575342 424.278514 97.276301 427.979473 
C 100.97726 431.680432 105.997543 433.759902 111.23149 433.759902 
z
" clip-path="url(#p0925d4e484)" style="fill: #c70039; fill-opacity: 0.99; stroke: #c70039; stroke-opacity: 0.99"/>
    <path d="M 177.85133 493.315175 
C 183.058521 493.315175 188.05314 491.246336 191.73518 487.564296 
C 195.417221 483.882256 197.486059 478.887637 197.486059 473.680446 
C 197.486059 468.473254 195.417221 463.478635 191.73518 459.796595 
C 188.05314 456.114555 183.058521 454.045716 177.85133 454.045716 
C 172.644139 454.045716 167.64952 456.114555 163.96748 459.796595 
C 160.28544 463.478635 158.216601 468.473254 158.216601 473.680446 
C 158.216601 478.887637 160.28544 483.882256 163.96748 487.564296 
C 167.64952 491.246336 172.644139 493.315175 177.85133 493.315175 
z
" clip-path="url(#p0925d4e484)" style="fill: #c70039; fill-opacity: 0.99; stroke: #c70039; stroke-opacity: 0.99"/>
    <path d="M 263.109587 520.747817 
C 268.285569 520.747817 273.250252 518.691378 276.910224 515.031406 
C 280.570196 511.371435 282.626635 506.406751 282.626635 501.230769 
C 282.626635 496.054788 280.570196 491.090104 276.910224 487.430132 
C 273.250252 483.77016 268.285569 481.713721 263.109587 481.713721 
C 257.933606 481.713721 252.968922 483.77016 249.30895 487.430132 
C 245.648978 491.090104 243.592539 496.054788 243.592539 501.230769 
C 243.592539 506.406751 245.648978 511.371435 249.30895 515.031406 
C 252.968922 518.691378 257.933606 520.747817 263.109587 520.747817 
z
" clip-path="url(#p0925d4e484)" style="fill: #c70039; fill-opacity: 0.99; stroke: #c70039; stroke-opacity: 0.99"/>
    <path d="M 352.264323 511.332535 
C 357.414829 511.332535 362.355076 509.286217 365.997034 505.64426 
C 369.638991 502.002302 371.685308 497.062055 371.685308 491.91155 
C 371.685308 486.761044 369.638991 481.820797 365.997034 478.178839 
C 362.355076 474.536882 357.414829 472.490564 352.264323 472.490564 
C 347.113818 472.490564 342.17357 474.536882 338.531613 478.178839 
C 334.889656 481.820797 332.843338 486.761044 332.843338 491.91155 
C 332.843338 497.062055 334.889656 502.002302 338.531613 505.64426 
C 342.17357 509.286217 347.113818 511.332535 352.264323 511.332535 
z
" clip-path="url(#p0925d4e484)" style="fill: #c70039; fill-opacity: 0.99; stroke: #c70039; stroke-opacity: 0.99"/>
    <path d="M 429.899888 466.746003 
C 435.047969 466.746003 439.985891 464.700648 443.626134 461.060406 
C 447.266377 457.420163 449.311731 452.482241 449.311731 447.33416 
C 449.311731 442.186079 447.266377 437.248157 443.626134 433.607914 
C 439.985891 429.967672 435.047969 427.922317 429.899888 427.922317 
C 424.751808 427.922317 419.813886 429.967672 416.173643 433.607914 
C 412.5334 437.248157 410.488046 442.186079 410.488046 447.33416 
C 410.488046 452.482241 412.5334 457.420163 416.173643 461.060406 
C 419.813886 464.700648 424.751808 466.746003 429.899888 466.746003 
z
" clip-path="url(#p0925d4e484)" style="fill: #c70039; fill-opacity: 0.99; stroke: #c70039; stroke-opacity: 0.99"/>
    <path d="M 482.592374 394.571376 
C 487.728009 394.571376 492.653994 392.530967 496.285437 388.899524 
C 499.91688 385.268081 501.95729 380.342096 501.95729 375.20646 
C 501.95729 370.070824 499.91688 365.144839 496.285437 361.513396 
C 492.653994 357.881953 487.728009 355.841543 482.592374 355.841543 
C 477.456738 355.841543 472.530753 357.881953 468.89931 361.513396 
C 465.267867 365.144839 463.227457 370.070824 463.227457 375.20646 
C 463.227457 380.342096 465.267867 385.268081 468.89931 388.899524 
C 472.530753 392.530967 477.456738 394.571376 482.592374 394.571376 
z
" clip-path="url(#p0925d4e484)" style="fill: #c70039; fill-opacity: 0.99; stroke: #c70039; stroke-opacity: 0.99"/>
   </g>
   <g id="text_1">
    <g id="patch_2">
     <path d="M 465.384754 296.315156 
L 537.076785 296.315156 
L 537.076785 279.684844 
L 465.384754 279.684844 
z
" clip-path="url(#p0925d4e484)" style="fill: #ffffff; opacity: 0.7; stroke: #000000; stroke-linejoin: miter"/>
    </g>
    <g clip-path="url(#p0925d4e484)">
     <!-- Michael Curtiz -->
     <g transform="translate(469.344754 290.483437)scale(0.09 -0.09)">
      <defs>
       <path id="DejaVuSans-4d" d="M 628 4666 
L 1569 4666 
L 2759 1491 
L 3956 4666 
L 4897 4666 
L 4897 0 
L 4281 0 
L 4281 4097 
L 3078 897 
L 2444 897 
L 1241 4097 
L 1241 0 
L 628 0 
L 628 4666 
z
" transform="scale(0.015625)"/>
       <path id="DejaVuSans-69" d="M 603 3500 
L 1178 3500 
L 1178 0 
L 603 0 
L 603 3500 
z
M 603 4863 
L 1178 4863 
L 1178 4134 
L 603 4134 
L 603 4863 
z
" transform="scale(0.015625)"/>
       <path id="DejaVuSans-63" d="M 3122 3366 
L 3122 2828 
Q 2878 2963 2633 3030 
Q 2388 3097 2138 3097 
Q 1578 3097 1268 2742 
Q 959 2388 959 1747 
Q 959 1106 1268 751 
Q 1578 397 2138 397 
Q 2388 397 2633 464 
Q 2878 531 3122 666 
L 3122 134 
Q 2881 22 2623 -34 
Q 2366 -91 2075 -91 
Q 1284 -91 818 406 
Q 353 903 353 1747 
Q 353 2603 823 3093 
Q 1294 3584 2113 3584 
Q 2378 3584 2631 3529 
Q 2884 3475 3122 3366 
z
" transform="scale(0.015625)"/>
       <path id="DejaVuSans-68" d="M 3513 2113 
L 3513 0 
L 2938 0 
L 2938 2094 
Q 2938 2591 2744 2837 
Q 2550 3084 2163 3084 
Q 1697 3084 1428 2787 
Q 1159 2491 1159 1978 
L 1159 0 
L 581 0 
L 581 4863 
L 1159 4863 
L 1159 2956 
Q 1366 3272 1645 3428 
Q 1925 3584 2291 3584 
Q 2894 3584 3203 3211 
Q 3513 2838 3513 2113 
z
" transform="scale(0.015625)"/>
       <path id="DejaVuSans-61" d="M 2194 1759 
Q 1497 1759 1228 1600 
Q 959 1441 959 1056 
Q 959 750 1161 570 
Q 1363 391 1709 391 
Q 2188 391 2477 730 
Q 2766 1069 2766 1631 
L 2766 1759 
L 2194 1759 
z
M 3341 1997 
L 3341 0 
L 2766 0 
L 2766 531 
Q 2569 213 2275 61 
Q 1981 -91 1556 -91 
Q 1019 -91 701 211 
Q 384 513 384 1019 
Q 384 1609 779 1909 
Q 1175 2209 1959 2209 
L 2766 2209 
L 2766 2266 
Q 2766 2663 2505 2880 
Q 2244 3097 1772 3097 
Q 1472 3097 1187 3025 
Q 903 2953 641 2809 
L 641 3341 
Q 956 3463 1253 3523 
Q 1550 3584 1831 3584 
Q 2591 3584 2966 3190 
Q 3341 2797 3341 1997 
z
" transform="scale(0.015625)"/>
       <path id="DejaVuSans-65" d="M 3597 1894 
L 3597 1613 
L 953 1613 
Q 991 1019 1311 708 
Q 1631 397 2203 397 
Q 2534 397 2845 478 
Q 3156 559 3463 722 
L 3463 178 
Q 3153 47 2828 -22 
Q 2503 -91 2169 -91 
Q 1331 -91 842 396 
Q 353 884 353 1716 
Q 353 2575 817 3079 
Q 1281 3584 2069 3584 
Q 2775 3584 3186 3129 
Q 3597 2675 3597 1894 
z
M 3022 2063 
Q 3016 2534 2758 2815 
Q 2500 3097 2075 3097 
Q 1594 3097 1305 2825 
Q 1016 2553 972 2059 
L 3022 2063 
z
" transform="scale(0.015625)"/>
       <path id="DejaVuSans-6c" d="M 603 4863 
L 1178 4863 
L 1178 0 
L 603 0 
L 603 4863 
z
" transform="scale(0.015625)"/>
       <path id="DejaVuSans-20" transform="scale(0.015625)"/>
       <path id="DejaVuSans-43" d="M 4122 4306 
L 4122 3641 
Q 3803 3938 3442 4084 
Q 3081 4231 2675 4231 
Q 1875 4231 1450 3742 
Q 1025 3253 1025 2328 
Q 1025 1406 1450 917 
Q 1875 428 2675 428 
Q 3081 428 3442 575 
Q 3803 722 4122 1019 
L 4122 359 
Q 3791 134 3420 21 
Q 3050 -91 2638 -91 
Q 1578 -91 968 557 
Q 359 1206 359 2328 
Q 359 3453 968 4101 
Q 1578 4750 2638 4750 
Q 3056 4750 3426 4639 
Q 3797 4528 4122 4306 
z
" transform="scale(0.015625)"/>
       <path id="DejaVuSans-75" d="M 544 1381 
L 544 3500 
L 1119 3500 
L 1119 1403 
Q 1119 906 1312 657 
Q 1506 409 1894 409 
Q 2359 409 2629 706 
Q 2900 1003 2900 1516 
L 2900 3500 
L 3475 3500 
L 3475 0 
L 2900 0 
L 2900 538 
Q 2691 219 2414 64 
Q 2138 -91 1772 -91 
Q 1169 -91 856 284 
Q 544 659 544 1381 
z
M 1991 3584 
L 1991 3584 
z
" transform="scale(0.015625)"/>
       <path id="DejaVuSans-72" d="M 2631 2963 
Q 2534 3019 2420 3045 
Q 2306 3072 2169 3072 
Q 1681 3072 1420 2755 
Q 1159 2438 1159 1844 
L 1159 0 
L 581 0 
L 581 3500 
L 1159 3500 
L 1159 2956 
Q 1341 3275 1631 3429 
Q 1922 3584 2338 3584 
Q 2397 3584 2469 3576 
Q 2541 3569 2628 3553 
L 2631 2963 
z
" transform="scale(0.015625)"/>
       <path id="DejaVuSans-74" d="M 1172 4494 
L 1172 3500 
L 2356 3500 
L 2356 3053 
L 1172 3053 
L 1172 1153 
Q 1172 725 1289 603 
Q 1406 481 1766 481 
L 2356 481 
L 2356 0 
L 1766 0 
Q 1100 0 847 248 
Q 594 497 594 1153 
L 594 3053 
L 172 3053 
L 172 3500 
L 594 3500 
L 594 4494 
L 1172 4494 
z
" transform="scale(0.015625)"/>
       <path id="DejaVuSans-7a" d="M 353 3500 
L 3084 3500 
L 3084 2975 
L 922 459 
L 3084 459 
L 3084 0 
L 275 0 
L 275 525 
L 2438 3041 
L 353 3041 
L 353 3500 
z
" transform="scale(0.015625)"/>
      </defs>
      <use xlink:href="#DejaVuSans-4d"/>
      <use xlink:href="#DejaVuSans-69" x="86.279297"/>
      <use xlink:href="#DejaVuSans-63" x="114.0625"/>
      <use xlink:href="#DejaVuSans-68" x="169.042969"/>
      <use xlink:href="#DejaVuSans-61" x="232.421875"/>
      <use xlink:href="#DejaVuSans-65" x="293.701172"/>
      <use xlink:href="#DejaVuSans-6c" x="355.224609"/>
      <use xlink:href="#DejaVuSans-20" x="383.007812"/>
      <use xlink:href="#DejaVuSans-43" x="414.794922"/>
      <use xlink:href="#DejaVuSans-75" x="484.619141"/>
      <use xlink:href="#DejaVuSans-72" x="547.998047"/>
      <use xlink:href="#DejaVuSans-74" x="589.111328"/>
      <use xlink:href="#DejaVuSans-69" x="628.320312"/>
      <use xlink:href="#DejaVuSans-7a" x="656.103516"/>
     </g>
    </g>
   </g>
   <g id="text_2">
    <g id="patch_3">
     <path d="M 451.23016 209.108665 
L 513.954535 209.108665 
L 513.954535 192.478352 
L 451.23016 192.478352 
z
" clip-path="url(#p0925d4e484)" style="fill: #ffffff; opacity: 0.7; stroke: #000000; stroke-linejoin: miter"/>
    </g>
    <g clip-path="url(#p0925d4e484)">
     <!-- Chuck Jones -->
     <g transform="translate(455.19016 203.276946)scale(0.09 -0.09)">
      <defs>
       <path id="DejaVuSans-6b" d="M 581 4863 
L 1159 4863 
L 1159 1991 
L 2875 3500 
L 3609 3500 
L 1753 1863 
L 3688 0 
L 2938 0 
L 1159 1709 
L 1159 0 
L 581 0 
L 581 4863 
z
" transform="scale(0.015625)"/>
       <path id="DejaVuSans-4a" d="M 628 4666 
L 1259 4666 
L 1259 325 
Q 1259 -519 939 -900 
Q 619 -1281 -91 -1281 
L -331 -1281 
L -331 -750 
L -134 -750 
Q 284 -750 456 -515 
Q 628 -281 628 325 
L 628 4666 
z
" transform="scale(0.015625)"/>
       <path id="DejaVuSans-6f" d="M 1959 3097 
Q 1497 3097 1228 2736 
Q 959 2375 959 1747 
Q 959 1119 1226 758 
Q 1494 397 1959 397 
Q 2419 397 2687 759 
Q 2956 1122 2956 1747 
Q 2956 2369 2687 2733 
Q 2419 3097 1959 3097 
z
M 1959 3584 
Q 2709 3584 3137 3096 
Q 3566 2609 3566 1747 
Q 3566 888 3137 398 
Q 2709 -91 1959 -91 
Q 1206 -91 779 398 
Q 353 888 353 1747 
Q 353 2609 779 3096 
Q 1206 3584 1959 3584 
z
" transform="scale(0.015625)"/>
       <path id="DejaVuSans-6e" d="M 3513 2113 
L 3513 0 
L 2938 0 
L 2938 2094 
Q 2938 2591 2744 2837 
Q 2550 3084 2163 3084 
Q 1697 3084 1428 2787 
Q 1159 2491 1159 1978 
L 1159 0 
L 581 0 
L 581 3500 
L 1159 3500 
L 1159 2956 
Q 1366 3272 1645 3428 
Q 1925 3584 2291 3584 
Q 2894 3584 3203 3211 
Q 3513 2838 3513 2113 
z
" transform="scale(0.015625)"/>
       <path id="DejaVuSans-73" d="M 2834 3397 
L 2834 2853 
Q 2591 2978 2328 3040 
Q 2066 3103 1784 3103 
Q 1356 3103 1142 2972 
Q 928 2841 928 2578 
Q 928 2378 1081 2264 
Q 1234 2150 1697 2047 
L 1894 2003 
Q 2506 1872 2764 1633 
Q 3022 1394 3022 966 
Q 3022 478 2636 193 
Q 2250 -91 1575 -91 
Q 1294 -91 989 -36 
Q 684 19 347 128 
L 347 722 
Q 666 556 975 473 
Q 1284 391 1588 391 
Q 1994 391 2212 530 
Q 2431 669 2431 922 
Q 2431 1156 2273 1281 
Q 2116 1406 1581 1522 
L 1381 1569 
Q 847 1681 609 1914 
Q 372 2147 372 2553 
Q 372 3047 722 3315 
Q 1072 3584 1716 3584 
Q 2034 3584 2315 3537 
Q 2597 3491 2834 3397 
z
" transform="scale(0.015625)"/>
      </defs>
      <use xlink:href="#DejaVuSans-43"/>
      <use xlink:href="#DejaVuSans-68" x="69.824219"/>
      <use xlink:href="#DejaVuSans-75" x="133.203125"/>
      <use xlink:href="#DejaVuSans-63" x="196.582031"/>
      <use xlink:href="#DejaVuSans-6b" x="251.5625"/>
      <use xlink:href="#DejaVuSans-20" x="309.472656"/>
      <use xlink:href="#DejaVuSans-4a" x="341.259766"/>
      <use xlink:href="#DejaVuSans-6f" x="370.751953"/>
      <use xlink:href="#DejaVuSans-6e" x="431.933594"/>
      <use xlink:href="#DejaVuSans-65" x="495.3125"/>
      <use xlink:href="#DejaVuSans-73" x="556.835938"/>
     </g>
    </g>
   </g>
   <g id="text_3">
    <g id="patch_4">
     <path d="M 393.416803 136.980958 
L 466.382897 136.980958 
L 466.382897 120.350645 
L 393.416803 120.350645 
z
" clip-path="url(#p0925d4e484)" style="fill: #ffffff; opacity: 0.7; stroke: #000000; stroke-linejoin: miter"/>
    </g>
    <g clip-path="url(#p0925d4e484)">
     <!-- William Hanna -->
     <g transform="translate(397.376803 131.149239)scale(0.09 -0.09)">
      <defs>
       <path id="DejaVuSans-57" d="M 213 4666 
L 850 4666 
L 1831 722 
L 2809 4666 
L 3519 4666 
L 4500 722 
L 5478 4666 
L 6119 4666 
L 4947 0 
L 4153 0 
L 3169 4050 
L 2175 0 
L 1381 0 
L 213 4666 
z
" transform="scale(0.015625)"/>
       <path id="DejaVuSans-6d" d="M 3328 2828 
Q 3544 3216 3844 3400 
Q 4144 3584 4550 3584 
Q 5097 3584 5394 3201 
Q 5691 2819 5691 2113 
L 5691 0 
L 5113 0 
L 5113 2094 
Q 5113 2597 4934 2840 
Q 4756 3084 4391 3084 
Q 3944 3084 3684 2787 
Q 3425 2491 3425 1978 
L 3425 0 
L 2847 0 
L 2847 2094 
Q 2847 2600 2669 2842 
Q 2491 3084 2119 3084 
Q 1678 3084 1418 2786 
Q 1159 2488 1159 1978 
L 1159 0 
L 581 0 
L 581 3500 
L 1159 3500 
L 1159 2956 
Q 1356 3278 1631 3431 
Q 1906 3584 2284 3584 
Q 2666 3584 2933 3390 
Q 3200 3197 3328 2828 
z
" transform="scale(0.015625)"/>
       <path id="DejaVuSans-48" d="M 628 4666 
L 1259 4666 
L 1259 2753 
L 3553 2753 
L 3553 4666 
L 4184 4666 
L 4184 0 
L 3553 0 
L 3553 2222 
L 1259 2222 
L 1259 0 
L 628 0 
L 628 4666 
z
" transform="scale(0.015625)"/>
      </defs>
      <use xlink:href="#DejaVuSans-57"/>
      <use xlink:href="#DejaVuSans-69" x="96.626953"/>
      <use xlink:href="#DejaVuSans-6c" x="124.410156"/>
      <use xlink:href="#DejaVuSans-6c" x="152.193359"/>
      <use xlink:href="#DejaVuSans-69" x="179.976562"/>
      <use xlink:href="#DejaVuSans-61" x="207.759766"/>
      <use xlink:href="#DejaVuSans-6d" x="269.039062"/>
      <use xlink:href="#DejaVuSans-20" x="366.451172"/>
      <use xlink:href="#DejaVuSans-48" x="398.238281"/>
      <use xlink:href="#DejaVuSans-61" x="473.433594"/>
      <use xlink:href="#DejaVuSans-6e" x="534.712891"/>
      <use xlink:href="#DejaVuSans-6e" x="598.091797"/>
      <use xlink:href="#DejaVuSans-61" x="661.470703"/>
     </g>
    </g>
   </g>
   <g id="text_4">
    <g id="patch_5">
     <path d="M 314.043119 92.403594 
L 390.485463 92.403594 
L 390.485463 75.773281 
L 314.043119 75.773281 
z
" clip-path="url(#p0925d4e484)" style="fill: #ffffff; opacity: 0.7; stroke: #000000; stroke-linejoin: miter"/>
    </g>
    <g clip-path="url(#p0925d4e484)">
     <!-- Joseph Barbera -->
     <g transform="translate(318.003119 86.571875)scale(0.09 -0.09)">
      <defs>
       <path id="DejaVuSans-70" d="M 1159 525 
L 1159 -1331 
L 581 -1331 
L 581 3500 
L 1159 3500 
L 1159 2969 
Q 1341 3281 1617 3432 
Q 1894 3584 2278 3584 
Q 2916 3584 3314 3078 
Q 3713 2572 3713 1747 
Q 3713 922 3314 415 
Q 2916 -91 2278 -91 
Q 1894 -91 1617 61 
Q 1341 213 1159 525 
z
M 3116 1747 
Q 3116 2381 2855 2742 
Q 2594 3103 2138 3103 
Q 1681 3103 1420 2742 
Q 1159 2381 1159 1747 
Q 1159 1113 1420 752 
Q 1681 391 2138 391 
Q 2594 391 2855 752 
Q 3116 1113 3116 1747 
z
" transform="scale(0.015625)"/>
       <path id="DejaVuSans-42" d="M 1259 2228 
L 1259 519 
L 2272 519 
Q 2781 519 3026 730 
Q 3272 941 3272 1375 
Q 3272 1813 3026 2020 
Q 2781 2228 2272 2228 
L 1259 2228 
z
M 1259 4147 
L 1259 2741 
L 2194 2741 
Q 2656 2741 2882 2914 
Q 3109 3088 3109 3444 
Q 3109 3797 2882 3972 
Q 2656 4147 2194 4147 
L 1259 4147 
z
M 628 4666 
L 2241 4666 
Q 2963 4666 3353 4366 
Q 3744 4066 3744 3513 
Q 3744 3084 3544 2831 
Q 3344 2578 2956 2516 
Q 3422 2416 3680 2098 
Q 3938 1781 3938 1306 
Q 3938 681 3513 340 
Q 3088 0 2303 0 
L 628 0 
L 628 4666 
z
" transform="scale(0.015625)"/>
       <path id="DejaVuSans-62" d="M 3116 1747 
Q 3116 2381 2855 2742 
Q 2594 3103 2138 3103 
Q 1681 3103 1420 2742 
Q 1159 2381 1159 1747 
Q 1159 1113 1420 752 
Q 1681 391 2138 391 
Q 2594 391 2855 752 
Q 3116 1113 3116 1747 
z
M 1159 2969 
Q 1341 3281 1617 3432 
Q 1894 3584 2278 3584 
Q 2916 3584 3314 3078 
Q 3713 2572 3713 1747 
Q 3713 922 3314 415 
Q 2916 -91 2278 -91 
Q 1894 -91 1617 61 
Q 1341 213 1159 525 
L 1159 0 
L 581 0 
L 581 4863 
L 1159 4863 
L 1159 2969 
z
" transform="scale(0.015625)"/>
      </defs>
      <use xlink:href="#DejaVuSans-4a"/>
      <use xlink:href="#DejaVuSans-6f" x="29.492188"/>
      <use xlink:href="#DejaVuSans-73" x="90.673828"/>
      <use xlink:href="#DejaVuSans-65" x="142.773438"/>
      <use xlink:href="#DejaVuSans-70" x="204.296875"/>
      <use xlink:href="#DejaVuSans-68" x="267.773438"/>
      <use xlink:href="#DejaVuSans-20" x="331.152344"/>
      <use xlink:href="#DejaVuSans-42" x="362.939453"/>
      <use xlink:href="#DejaVuSans-61" x="431.542969"/>
      <use xlink:href="#DejaVuSans-72" x="492.822266"/>
      <use xlink:href="#DejaVuSans-62" x="533.935547"/>
      <use xlink:href="#DejaVuSans-65" x="597.412109"/>
      <use xlink:href="#DejaVuSans-72" x="658.935547"/>
      <use xlink:href="#DejaVuSans-61" x="700.048828"/>
     </g>
    </g>
   </g>
   <g id="text_5">
    <g id="patch_6">
     <path d="M 224.339939 83.084387 
L 301.879158 83.084387 
L 301.879158 66.454075 
L 224.339939 66.454075 
z
" clip-path="url(#p0925d4e484)" style="fill: #ffffff; opacity: 0.7; stroke: #000000; stroke-linejoin: miter"/>
    </g>
    <g clip-path="url(#p0925d4e484)">
     <!-- Howard Deutch -->
     <g transform="translate(228.299939 77.252668)scale(0.09 -0.09)">
      <defs>
       <path id="DejaVuSans-77" d="M 269 3500 
L 844 3500 
L 1563 769 
L 2278 3500 
L 2956 3500 
L 3675 769 
L 4391 3500 
L 4966 3500 
L 4050 0 
L 3372 0 
L 2619 2869 
L 1863 0 
L 1184 0 
L 269 3500 
z
" transform="scale(0.015625)"/>
       <path id="DejaVuSans-64" d="M 2906 2969 
L 2906 4863 
L 3481 4863 
L 3481 0 
L 2906 0 
L 2906 525 
Q 2725 213 2448 61 
Q 2172 -91 1784 -91 
Q 1150 -91 751 415 
Q 353 922 353 1747 
Q 353 2572 751 3078 
Q 1150 3584 1784 3584 
Q 2172 3584 2448 3432 
Q 2725 3281 2906 2969 
z
M 947 1747 
Q 947 1113 1208 752 
Q 1469 391 1925 391 
Q 2381 391 2643 752 
Q 2906 1113 2906 1747 
Q 2906 2381 2643 2742 
Q 2381 3103 1925 3103 
Q 1469 3103 1208 2742 
Q 947 2381 947 1747 
z
" transform="scale(0.015625)"/>
       <path id="DejaVuSans-44" d="M 1259 4147 
L 1259 519 
L 2022 519 
Q 2988 519 3436 956 
Q 3884 1394 3884 2338 
Q 3884 3275 3436 3711 
Q 2988 4147 2022 4147 
L 1259 4147 
z
M 628 4666 
L 1925 4666 
Q 3281 4666 3915 4102 
Q 4550 3538 4550 2338 
Q 4550 1131 3912 565 
Q 3275 0 1925 0 
L 628 0 
L 628 4666 
z
" transform="scale(0.015625)"/>
      </defs>
      <use xlink:href="#DejaVuSans-48"/>
      <use xlink:href="#DejaVuSans-6f" x="75.195312"/>
      <use xlink:href="#DejaVuSans-77" x="136.376953"/>
      <use xlink:href="#DejaVuSans-61" x="218.164062"/>
      <use xlink:href="#DejaVuSans-72" x="279.443359"/>
      <use xlink:href="#DejaVuSans-64" x="318.806641"/>
      <use xlink:href="#DejaVuSans-20" x="382.283203"/>
      <use xlink:href="#DejaVuSans-44" x="414.070312"/>
      <use xlink:href="#DejaVuSans-65" x="491.072266"/>
      <use xlink:href="#DejaVuSans-75" x="552.595703"/>
      <use xlink:href="#DejaVuSans-74" x="615.974609"/>
      <use xlink:href="#DejaVuSans-63" x="655.183594"/>
      <use xlink:href="#DejaVuSans-68" x="710.164062"/>
     </g>
    </g>
   </g>
   <g id="text_6">
    <g id="patch_7">
     <path d="M 133.920048 110.634724 
L 221.782548 110.634724 
L 221.782548 94.004411 
L 133.920048 94.004411 
z
" clip-path="url(#p0925d4e484)" style="fill: #ffffff; opacity: 0.7; stroke: #000000; stroke-linejoin: miter"/>
    </g>
    <g clip-path="url(#p0925d4e484)">
     <!-- Robert Stevenson -->
     <g transform="translate(137.880048 104.803005)scale(0.09 -0.09)">
      <defs>
       <path id="DejaVuSans-52" d="M 2841 2188 
Q 3044 2119 3236 1894 
Q 3428 1669 3622 1275 
L 4263 0 
L 3584 0 
L 2988 1197 
Q 2756 1666 2539 1819 
Q 2322 1972 1947 1972 
L 1259 1972 
L 1259 0 
L 628 0 
L 628 4666 
L 2053 4666 
Q 2853 4666 3247 4331 
Q 3641 3997 3641 3322 
Q 3641 2881 3436 2590 
Q 3231 2300 2841 2188 
z
M 1259 4147 
L 1259 2491 
L 2053 2491 
Q 2509 2491 2742 2702 
Q 2975 2913 2975 3322 
Q 2975 3731 2742 3939 
Q 2509 4147 2053 4147 
L 1259 4147 
z
" transform="scale(0.015625)"/>
       <path id="DejaVuSans-53" d="M 3425 4513 
L 3425 3897 
Q 3066 4069 2747 4153 
Q 2428 4238 2131 4238 
Q 1616 4238 1336 4038 
Q 1056 3838 1056 3469 
Q 1056 3159 1242 3001 
Q 1428 2844 1947 2747 
L 2328 2669 
Q 3034 2534 3370 2195 
Q 3706 1856 3706 1288 
Q 3706 609 3251 259 
Q 2797 -91 1919 -91 
Q 1588 -91 1214 -16 
Q 841 59 441 206 
L 441 856 
Q 825 641 1194 531 
Q 1563 422 1919 422 
Q 2459 422 2753 634 
Q 3047 847 3047 1241 
Q 3047 1584 2836 1778 
Q 2625 1972 2144 2069 
L 1759 2144 
Q 1053 2284 737 2584 
Q 422 2884 422 3419 
Q 422 4038 858 4394 
Q 1294 4750 2059 4750 
Q 2388 4750 2728 4690 
Q 3069 4631 3425 4513 
z
" transform="scale(0.015625)"/>
       <path id="DejaVuSans-76" d="M 191 3500 
L 800 3500 
L 1894 563 
L 2988 3500 
L 3597 3500 
L 2284 0 
L 1503 0 
L 191 3500 
z
" transform="scale(0.015625)"/>
      </defs>
      <use xlink:href="#DejaVuSans-52"/>
      <use xlink:href="#DejaVuSans-6f" x="64.982422"/>
      <use xlink:href="#DejaVuSans-62" x="126.164062"/>
      <use xlink:href="#DejaVuSans-65" x="189.640625"/>
      <use xlink:href="#DejaVuSans-72" x="251.164062"/>
      <use xlink:href="#DejaVuSans-74" x="292.277344"/>
      <use xlink:href="#DejaVuSans-20" x="331.486328"/>
      <use xlink:href="#DejaVuSans-53" x="363.273438"/>
      <use xlink:href="#DejaVuSans-74" x="426.75"/>
      <use xlink:href="#DejaVuSans-65" x="465.958984"/>
      <use xlink:href="#DejaVuSans-76" x="527.482422"/>
      <use xlink:href="#DejaVuSans-65" x="586.662109"/>
      <use xlink:href="#DejaVuSans-6e" x="648.185547"/>
      <use xlink:href="#DejaVuSans-73" x="711.564453"/>
      <use xlink:href="#DejaVuSans-6f" x="763.664062"/>
      <use xlink:href="#DejaVuSans-6e" x="824.845703"/>
     </g>
    </g>
   </g>
   <g id="text_7">
    <g id="patch_8">
     <path d="M 75.280696 170.290885 
L 147.182258 170.290885 
L 147.182258 153.660572 
L 75.280696 153.660572 
z
" clip-path="url(#p0925d4e484)" style="fill: #ffffff; opacity: 0.7; stroke: #000000; stroke-linejoin: miter"/>
    </g>
    <g clip-path="url(#p0925d4e484)">
     <!-- Michael Apted -->
     <g transform="translate(79.240696 164.459166)scale(0.09 -0.09)">
      <defs>
       <path id="DejaVuSans-41" d="M 2188 4044 
L 1331 1722 
L 3047 1722 
L 2188 4044 
z
M 1831 4666 
L 2547 4666 
L 4325 0 
L 3669 0 
L 3244 1197 
L 1141 1197 
L 716 0 
L 50 0 
L 1831 4666 
z
" transform="scale(0.015625)"/>
      </defs>
      <use xlink:href="#DejaVuSans-4d"/>
      <use xlink:href="#DejaVuSans-69" x="86.279297"/>
      <use xlink:href="#DejaVuSans-63" x="114.0625"/>
      <use xlink:href="#DejaVuSans-68" x="169.042969"/>
      <use xlink:href="#DejaVuSans-61" x="232.421875"/>
      <use xlink:href="#DejaVuSans-65" x="293.701172"/>
      <use xlink:href="#DejaVuSans-6c" x="355.224609"/>
      <use xlink:href="#DejaVuSans-20" x="383.007812"/>
      <use xlink:href="#DejaVuSans-41" x="414.794922"/>
      <use xlink:href="#DejaVuSans-70" x="483.203125"/>
      <use xlink:href="#DejaVuSans-74" x="546.679688"/>
      <use xlink:href="#DejaVuSans-65" x="585.888672"/>
      <use xlink:href="#DejaVuSans-64" x="647.412109"/>
     </g>
    </g>
   </g>
   <g id="text_8">
    <g id="patch_9">
     <path d="M 35.417434 251.737805 
L 114.121028 251.737805 
L 114.121028 235.107493 
L 35.417434 235.107493 
z
" clip-path="url(#p0925d4e484)" style="fill: #ffffff; opacity: 0.7; stroke: #000000; stroke-linejoin: miter"/>
    </g>
    <g clip-path="url(#p0925d4e484)">
     <!-- Reginald Hudlin -->
     <g transform="translate(39.377434 245.906086)scale(0.09 -0.09)">
      <defs>
       <path id="DejaVuSans-67" d="M 2906 1791 
Q 2906 2416 2648 2759 
Q 2391 3103 1925 3103 
Q 1463 3103 1205 2759 
Q 947 2416 947 1791 
Q 947 1169 1205 825 
Q 1463 481 1925 481 
Q 2391 481 2648 825 
Q 2906 1169 2906 1791 
z
M 3481 434 
Q 3481 -459 3084 -895 
Q 2688 -1331 1869 -1331 
Q 1566 -1331 1297 -1286 
Q 1028 -1241 775 -1147 
L 775 -588 
Q 1028 -725 1275 -790 
Q 1522 -856 1778 -856 
Q 2344 -856 2625 -561 
Q 2906 -266 2906 331 
L 2906 616 
Q 2728 306 2450 153 
Q 2172 0 1784 0 
Q 1141 0 747 490 
Q 353 981 353 1791 
Q 353 2603 747 3093 
Q 1141 3584 1784 3584 
Q 2172 3584 2450 3431 
Q 2728 3278 2906 2969 
L 2906 3500 
L 3481 3500 
L 3481 434 
z
" transform="scale(0.015625)"/>
      </defs>
      <use xlink:href="#DejaVuSans-52"/>
      <use xlink:href="#DejaVuSans-65" x="64.982422"/>
      <use xlink:href="#DejaVuSans-67" x="126.505859"/>
      <use xlink:href="#DejaVuSans-69" x="189.982422"/>
      <use xlink:href="#DejaVuSans-6e" x="217.765625"/>
      <use xlink:href="#DejaVuSans-61" x="281.144531"/>
      <use xlink:href="#DejaVuSans-6c" x="342.423828"/>
      <use xlink:href="#DejaVuSans-64" x="370.207031"/>
      <use xlink:href="#DejaVuSans-20" x="433.683594"/>
      <use xlink:href="#DejaVuSans-48" x="465.470703"/>
      <use xlink:href="#DejaVuSans-75" x="540.666016"/>
      <use xlink:href="#DejaVuSans-64" x="604.044922"/>
      <use xlink:href="#DejaVuSans-6c" x="667.521484"/>
      <use xlink:href="#DejaVuSans-69" x="695.304688"/>
      <use xlink:href="#DejaVuSans-6e" x="723.087891"/>
     </g>
    </g>
   </g>
   <g id="text_9">
    <g id="patch_10">
     <path d="M 37.403775 340.892546 
L 112.134712 340.892546 
L 112.134712 324.262233 
L 37.403775 324.262233 
z
" clip-path="url(#p0925d4e484)" style="fill: #ffffff; opacity: 0.7; stroke: #000000; stroke-linejoin: miter"/>
    </g>
    <g clip-path="url(#p0925d4e484)">
     <!-- Howard Hawks -->
     <g transform="translate(41.363775 335.060827)scale(0.09 -0.09)">
      <use xlink:href="#DejaVuSans-48"/>
      <use xlink:href="#DejaVuSans-6f" x="75.195312"/>
      <use xlink:href="#DejaVuSans-77" x="136.376953"/>
      <use xlink:href="#DejaVuSans-61" x="218.164062"/>
      <use xlink:href="#DejaVuSans-72" x="279.443359"/>
      <use xlink:href="#DejaVuSans-64" x="318.806641"/>
      <use xlink:href="#DejaVuSans-20" x="382.283203"/>
      <use xlink:href="#DejaVuSans-48" x="414.070312"/>
      <use xlink:href="#DejaVuSans-61" x="489.265625"/>
      <use xlink:href="#DejaVuSans-77" x="550.544922"/>
      <use xlink:href="#DejaVuSans-6b" x="632.332031"/>
      <use xlink:href="#DejaVuSans-73" x="690.242188"/>
     </g>
    </g>
   </g>
   <g id="text_10">
    <g id="patch_11">
     <path d="M 79.21188 422.33944 
L 143.251099 422.33944 
L 143.251099 405.709128 
L 79.21188 405.709128 
z
" clip-path="url(#p0925d4e484)" style="fill: #ffffff; opacity: 0.7; stroke: #000000; stroke-linejoin: miter"/>
    </g>
    <g clip-path="url(#p0925d4e484)">
     <!-- Larry Peerce -->
     <g transform="translate(83.17188 416.507722)scale(0.09 -0.09)">
      <defs>
       <path id="DejaVuSans-4c" d="M 628 4666 
L 1259 4666 
L 1259 531 
L 3531 531 
L 3531 0 
L 628 0 
L 628 4666 
z
" transform="scale(0.015625)"/>
       <path id="DejaVuSans-79" d="M 2059 -325 
Q 1816 -950 1584 -1140 
Q 1353 -1331 966 -1331 
L 506 -1331 
L 506 -850 
L 844 -850 
Q 1081 -850 1212 -737 
Q 1344 -625 1503 -206 
L 1606 56 
L 191 3500 
L 800 3500 
L 1894 763 
L 2988 3500 
L 3597 3500 
L 2059 -325 
z
" transform="scale(0.015625)"/>
       <path id="DejaVuSans-50" d="M 1259 4147 
L 1259 2394 
L 2053 2394 
Q 2494 2394 2734 2622 
Q 2975 2850 2975 3272 
Q 2975 3691 2734 3919 
Q 2494 4147 2053 4147 
L 1259 4147 
z
M 628 4666 
L 2053 4666 
Q 2838 4666 3239 4311 
Q 3641 3956 3641 3272 
Q 3641 2581 3239 2228 
Q 2838 1875 2053 1875 
L 1259 1875 
L 1259 0 
L 628 0 
L 628 4666 
z
" transform="scale(0.015625)"/>
      </defs>
      <use xlink:href="#DejaVuSans-4c"/>
      <use xlink:href="#DejaVuSans-61" x="55.712891"/>
      <use xlink:href="#DejaVuSans-72" x="116.992188"/>
      <use xlink:href="#DejaVuSans-72" x="156.355469"/>
      <use xlink:href="#DejaVuSans-79" x="197.46875"/>
      <use xlink:href="#DejaVuSans-20" x="256.648438"/>
      <use xlink:href="#DejaVuSans-50" x="288.435547"/>
      <use xlink:href="#DejaVuSans-65" x="345.113281"/>
      <use xlink:href="#DejaVuSans-65" x="406.636719"/>
      <use xlink:href="#DejaVuSans-72" x="468.160156"/>
      <use xlink:href="#DejaVuSans-63" x="507.023438"/>
      <use xlink:href="#DejaVuSans-65" x="562.003906"/>
     </g>
    </g>
   </g>
   <g id="text_11">
    <g id="patch_12">
     <path d="M 152.870002 481.995602 
L 202.832658 481.995602 
L 202.832658 465.365289 
L 152.870002 465.365289 
z
" clip-path="url(#p0925d4e484)" style="fill: #ffffff; opacity: 0.7; stroke: #000000; stroke-linejoin: miter"/>
    </g>
    <g clip-path="url(#p0925d4e484)">
     <!-- John Ford -->
     <g transform="translate(156.830002 476.163883)scale(0.09 -0.09)">
      <defs>
       <path id="DejaVuSans-46" d="M 628 4666 
L 3309 4666 
L 3309 4134 
L 1259 4134 
L 1259 2759 
L 3109 2759 
L 3109 2228 
L 1259 2228 
L 1259 0 
L 628 0 
L 628 4666 
z
" transform="scale(0.015625)"/>
      </defs>
      <use xlink:href="#DejaVuSans-4a"/>
      <use xlink:href="#DejaVuSans-6f" x="29.492188"/>
      <use xlink:href="#DejaVuSans-68" x="90.673828"/>
      <use xlink:href="#DejaVuSans-6e" x="154.052734"/>
      <use xlink:href="#DejaVuSans-20" x="217.431641"/>
      <use xlink:href="#DejaVuSans-46" x="249.21875"/>
      <use xlink:href="#DejaVuSans-6f" x="303.113281"/>
      <use xlink:href="#DejaVuSans-72" x="364.294922"/>
      <use xlink:href="#DejaVuSans-64" x="403.658203"/>
     </g>
    </g>
   </g>
   <g id="text_12">
    <g id="patch_13">
     <path d="M 226.125915 509.545925 
L 300.093259 509.545925 
L 300.093259 492.915613 
L 226.125915 492.915613 
z
" clip-path="url(#p0925d4e484)" style="fill: #ffffff; opacity: 0.7; stroke: #000000; stroke-linejoin: miter"/>
    </g>
    <g clip-path="url(#p0925d4e484)">
     <!-- Brad Silberling -->
     <g transform="translate(230.085915 503.714207)scale(0.09 -0.09)">
      <use xlink:href="#DejaVuSans-42"/>
      <use xlink:href="#DejaVuSans-72" x="68.603516"/>
      <use xlink:href="#DejaVuSans-61" x="109.716797"/>
      <use xlink:href="#DejaVuSans-64" x="170.996094"/>
      <use xlink:href="#DejaVuSans-20" x="234.472656"/>
      <use xlink:href="#DejaVuSans-53" x="266.259766"/>
      <use xlink:href="#DejaVuSans-69" x="329.736328"/>
      <use xlink:href="#DejaVuSans-6c" x="357.519531"/>
      <use xlink:href="#DejaVuSans-62" x="385.302734"/>
      <use xlink:href="#DejaVuSans-65" x="448.779297"/>
      <use xlink:href="#DejaVuSans-72" x="510.302734"/>
      <use xlink:href="#DejaVuSans-6c" x="551.416016"/>
      <use xlink:href="#DejaVuSans-69" x="579.199219"/>
      <use xlink:href="#DejaVuSans-6e" x="606.982422"/>
      <use xlink:href="#DejaVuSans-67" x="670.361328"/>
     </g>
    </g>
   </g>
   <g id="text_13">
    <g id="patch_14">
     <path d="M 321.927292 500.226706 
L 382.601355 500.226706 
L 382.601355 483.596393 
L 321.927292 483.596393 
z
" clip-path="url(#p0925d4e484)" style="fill: #ffffff; opacity: 0.7; stroke: #000000; stroke-linejoin: miter"/>
    </g>
    <g clip-path="url(#p0925d4e484)">
     <!-- Adrian Lyne -->
     <g transform="translate(325.887292 494.394987)scale(0.09 -0.09)">
      <use xlink:href="#DejaVuSans-41"/>
      <use xlink:href="#DejaVuSans-64" x="66.658203"/>
      <use xlink:href="#DejaVuSans-72" x="130.134766"/>
      <use xlink:href="#DejaVuSans-69" x="171.248047"/>
      <use xlink:href="#DejaVuSans-61" x="199.03125"/>
      <use xlink:href="#DejaVuSans-6e" x="260.310547"/>
      <use xlink:href="#DejaVuSans-20" x="323.689453"/>
      <use xlink:href="#DejaVuSans-4c" x="355.476562"/>
      <use xlink:href="#DejaVuSans-79" x="402.064453"/>
      <use xlink:href="#DejaVuSans-6e" x="461.244141"/>
      <use xlink:href="#DejaVuSans-65" x="524.623047"/>
     </g>
    </g>
   </g>
   <g id="text_14">
    <g id="patch_15">
     <path d="M 416.096138 455.649316 
L 443.703638 455.649316 
L 443.703638 439.019004 
L 416.096138 439.019004 
z
" clip-path="url(#p0925d4e484)" style="fill: #ffffff; opacity: 0.7; stroke: #000000; stroke-linejoin: miter"/>
    </g>
    <g clip-path="url(#p0925d4e484)">
     <!-- McG -->
     <g transform="translate(420.056138 449.817598)scale(0.09 -0.09)">
      <defs>
       <path id="DejaVuSans-47" d="M 3809 666 
L 3809 1919 
L 2778 1919 
L 2778 2438 
L 4434 2438 
L 4434 434 
Q 4069 175 3628 42 
Q 3188 -91 2688 -91 
Q 1594 -91 976 548 
Q 359 1188 359 2328 
Q 359 3472 976 4111 
Q 1594 4750 2688 4750 
Q 3144 4750 3555 4637 
Q 3966 4525 4313 4306 
L 4313 3634 
Q 3963 3931 3569 4081 
Q 3175 4231 2741 4231 
Q 1884 4231 1454 3753 
Q 1025 3275 1025 2328 
Q 1025 1384 1454 906 
Q 1884 428 2741 428 
Q 3075 428 3337 486 
Q 3600 544 3809 666 
z
" transform="scale(0.015625)"/>
      </defs>
      <use xlink:href="#DejaVuSans-4d"/>
      <use xlink:href="#DejaVuSans-63" x="86.279297"/>
      <use xlink:href="#DejaVuSans-47" x="141.259766"/>
     </g>
    </g>
   </g>
   <g id="text_15">
    <g id="patch_16">
     <path d="M 449.41542 383.521616 
L 515.769327 383.521616 
L 515.769327 366.891303 
L 449.41542 366.891303 
z
" clip-path="url(#p0925d4e484)" style="fill: #ffffff; opacity: 0.7; stroke: #000000; stroke-linejoin: miter"/>
    </g>
    <g clip-path="url(#p0925d4e484)">
     <!-- Greg Mottola -->
     <g transform="translate(453.37542 377.689897)scale(0.09 -0.09)">
      <use xlink:href="#DejaVuSans-47"/>
      <use xlink:href="#DejaVuSans-72" x="77.490234"/>
      <use xlink:href="#DejaVuSans-65" x="116.353516"/>
      <use xlink:href="#DejaVuSans-67" x="177.876953"/>
      <use xlink:href="#DejaVuSans-20" x="241.353516"/>
      <use xlink:href="#DejaVuSans-4d" x="273.140625"/>
      <use xlink:href="#DejaVuSans-6f" x="359.419922"/>
      <use xlink:href="#DejaVuSans-74" x="420.601562"/>
      <use xlink:href="#DejaVuSans-74" x="459.810547"/>
      <use xlink:href="#DejaVuSans-6f" x="499.019531"/>
      <use xlink:href="#DejaVuSans-6c" x="560.201172"/>
      <use xlink:href="#DejaVuSans-61" x="587.984375"/>
     </g>
    </g>
   </g>
   <g id="text_16">
    <!-- Impactful directors for Family Film genre - Importance rank: 3 -->
    <g transform="translate(103.202812 4.8)scale(0.12 -0.12)">
     <defs>
      <path id="DejaVuSans-49" d="M 628 4666 
L 1259 4666 
L 1259 0 
L 628 0 
L 628 4666 
z
" transform="scale(0.015625)"/>
      <path id="DejaVuSans-66" d="M 2375 4863 
L 2375 4384 
L 1825 4384 
Q 1516 4384 1395 4259 
Q 1275 4134 1275 3809 
L 1275 3500 
L 2222 3500 
L 2222 3053 
L 1275 3053 
L 1275 0 
L 697 0 
L 697 3053 
L 147 3053 
L 147 3500 
L 697 3500 
L 697 3744 
Q 697 4328 969 4595 
Q 1241 4863 1831 4863 
L 2375 4863 
z
" transform="scale(0.015625)"/>
      <path id="DejaVuSans-2d" d="M 313 2009 
L 1997 2009 
L 1997 1497 
L 313 1497 
L 313 2009 
z
" transform="scale(0.015625)"/>
      <path id="DejaVuSans-3a" d="M 750 794 
L 1409 794 
L 1409 0 
L 750 0 
L 750 794 
z
M 750 3309 
L 1409 3309 
L 1409 2516 
L 750 2516 
L 750 3309 
z
" transform="scale(0.015625)"/>
      <path id="DejaVuSans-33" d="M 2597 2516 
Q 3050 2419 3304 2112 
Q 3559 1806 3559 1356 
Q 3559 666 3084 287 
Q 2609 -91 1734 -91 
Q 1441 -91 1130 -33 
Q 819 25 488 141 
L 488 750 
Q 750 597 1062 519 
Q 1375 441 1716 441 
Q 2309 441 2620 675 
Q 2931 909 2931 1356 
Q 2931 1769 2642 2001 
Q 2353 2234 1838 2234 
L 1294 2234 
L 1294 2753 
L 1863 2753 
Q 2328 2753 2575 2939 
Q 2822 3125 2822 3475 
Q 2822 3834 2567 4026 
Q 2313 4219 1838 4219 
Q 1578 4219 1281 4162 
Q 984 4106 628 3988 
L 628 4550 
Q 988 4650 1302 4700 
Q 1616 4750 1894 4750 
Q 2613 4750 3031 4423 
Q 3450 4097 3450 3541 
Q 3450 3153 3228 2886 
Q 3006 2619 2597 2516 
z
" transform="scale(0.015625)"/>
     </defs>
     <use xlink:href="#DejaVuSans-49"/>
     <use xlink:href="#DejaVuSans-6d" x="29.492188"/>
     <use xlink:href="#DejaVuSans-70" x="126.904297"/>
     <use xlink:href="#DejaVuSans-61" x="190.380859"/>
     <use xlink:href="#DejaVuSans-63" x="251.660156"/>
     <use xlink:href="#DejaVuSans-74" x="306.640625"/>
     <use xlink:href="#DejaVuSans-66" x="345.849609"/>
     <use xlink:href="#DejaVuSans-75" x="381.054688"/>
     <use xlink:href="#DejaVuSans-6c" x="444.433594"/>
     <use xlink:href="#DejaVuSans-20" x="472.216797"/>
     <use xlink:href="#DejaVuSans-64" x="504.003906"/>
     <use xlink:href="#DejaVuSans-69" x="567.480469"/>
     <use xlink:href="#DejaVuSans-72" x="595.263672"/>
     <use xlink:href="#DejaVuSans-65" x="634.126953"/>
     <use xlink:href="#DejaVuSans-63" x="695.650391"/>
     <use xlink:href="#DejaVuSans-74" x="750.630859"/>
     <use xlink:href="#DejaVuSans-6f" x="789.839844"/>
     <use xlink:href="#DejaVuSans-72" x="851.021484"/>
     <use xlink:href="#DejaVuSans-73" x="892.134766"/>
     <use xlink:href="#DejaVuSans-20" x="944.234375"/>
     <use xlink:href="#DejaVuSans-66" x="976.021484"/>
     <use xlink:href="#DejaVuSans-6f" x="1011.226562"/>
     <use xlink:href="#DejaVuSans-72" x="1072.408203"/>
     <use xlink:href="#DejaVuSans-20" x="1113.521484"/>
     <use xlink:href="#DejaVuSans-46" x="1145.308594"/>
     <use xlink:href="#DejaVuSans-61" x="1193.703125"/>
     <use xlink:href="#DejaVuSans-6d" x="1254.982422"/>
     <use xlink:href="#DejaVuSans-69" x="1352.394531"/>
     <use xlink:href="#DejaVuSans-6c" x="1380.177734"/>
     <use xlink:href="#DejaVuSans-79" x="1407.960938"/>
     <use xlink:href="#DejaVuSans-20" x="1467.140625"/>
     <use xlink:href="#DejaVuSans-46" x="1498.927734"/>
     <use xlink:href="#DejaVuSans-69" x="1549.197266"/>
     <use xlink:href="#DejaVuSans-6c" x="1576.980469"/>
     <use xlink:href="#DejaVuSans-6d" x="1604.763672"/>
     <use xlink:href="#DejaVuSans-20" x="1702.175781"/>
     <use xlink:href="#DejaVuSans-67" x="1733.962891"/>
     <use xlink:href="#DejaVuSans-65" x="1797.439453"/>
     <use xlink:href="#DejaVuSans-6e" x="1858.962891"/>
     <use xlink:href="#DejaVuSans-72" x="1922.341797"/>
     <use xlink:href="#DejaVuSans-65" x="1961.205078"/>
     <use xlink:href="#DejaVuSans-20" x="2022.728516"/>
     <use xlink:href="#DejaVuSans-2d" x="2054.515625"/>
     <use xlink:href="#DejaVuSans-20" x="2090.599609"/>
     <use xlink:href="#DejaVuSans-49" x="2122.386719"/>
     <use xlink:href="#DejaVuSans-6d" x="2151.878906"/>
     <use xlink:href="#DejaVuSans-70" x="2249.291016"/>
     <use xlink:href="#DejaVuSans-6f" x="2312.767578"/>
     <use xlink:href="#DejaVuSans-72" x="2373.949219"/>
     <use xlink:href="#DejaVuSans-74" x="2415.0625"/>
     <use xlink:href="#DejaVuSans-61" x="2454.271484"/>
     <use xlink:href="#DejaVuSans-6e" x="2515.550781"/>
     <use xlink:href="#DejaVuSans-63" x="2578.929688"/>
     <use xlink:href="#DejaVuSans-65" x="2633.910156"/>
     <use xlink:href="#DejaVuSans-20" x="2695.433594"/>
     <use xlink:href="#DejaVuSans-72" x="2727.220703"/>
     <use xlink:href="#DejaVuSans-61" x="2768.333984"/>
     <use xlink:href="#DejaVuSans-6e" x="2829.613281"/>
     <use xlink:href="#DejaVuSans-6b" x="2892.992188"/>
     <use xlink:href="#DejaVuSans-3a" x="2950.902344"/>
     <use xlink:href="#DejaVuSans-20" x="2984.59375"/>
     <use xlink:href="#DejaVuSans-33" x="3016.380859"/>
    </g>
   </g>
  </g>
 </g>
 <defs>
  <clipPath id="p0925d4e484">
   <rect x="10.8" y="10.8" width="554.4" height="554.4"/>
  </clipPath>
 </defs>
</svg>
