<?xml version="1.0" encoding="utf-8" standalone="no"?>
<!DOCTYPE svg PUBLIC "-//W3C//DTD SVG 1.1//EN"
  "http://www.w3.org/Graphics/SVG/1.1/DTD/svg11.dtd">
<svg xmlns:xlink="http://www.w3.org/1999/xlink" width="568.8pt" height="583.918125pt" viewBox="0 0 568.8 583.918125" xmlns="http://www.w3.org/2000/svg" version="1.1">
 <metadata>
  <rdf:RDF xmlns:dc="http://purl.org/dc/elements/1.1/" xmlns:cc="http://creativecommons.org/ns#" xmlns:rdf="http://www.w3.org/1999/02/22-rdf-syntax-ns#">
   <cc:Work>
    <dc:type rdf:resource="http://purl.org/dc/dcmitype/StillImage"/>
    <dc:date>2022-12-23T19:06:55.079613</dc:date>
    <dc:format>image/svg+xml</dc:format>
    <dc:creator>
     <cc:Agent>
      <dc:title>Matplotlib v3.5.2, https://matplotlib.org/</dc:title>
     </cc:Agent>
    </dc:creator>
   </cc:Work>
  </rdf:RDF>
 </metadata>
 <defs>
  <style type="text/css">*{stroke-linejoin: round; stroke-linecap: butt}</style>
 </defs>
 <g id="figure_1">
  <g id="patch_1">
   <path d="M 0 583.918125 
L 568.8 583.918125 
L 568.8 0 
L 0 0 
z
" style="fill: #ffffff"/>
  </g>
  <g id="axes_1">
   <g id="LineCollection_1">
    <path d="M 478.992348 216.686131 
L 259.509549 92.496821 
" clip-path="url(#p301f0813a7)" style="fill: none; stroke: #000000; stroke-opacity: 0.3; stroke-width: 5"/>
   </g>
   <g id="PathCollection_1">
    <path d="M 497.630769 330.008986 
C 504.893655 330.008986 511.86005 327.12341 516.995686 321.987774 
C 522.131322 316.852139 525.016897 309.885744 525.016897 302.622858 
C 525.016897 295.359972 522.131322 288.393577 516.995686 283.257941 
C 511.86005 278.122305 504.893655 275.23673 497.630769 275.23673 
C 490.367883 275.23673 483.401488 278.122305 478.265852 283.257941 
C 473.130217 288.393577 470.244641 295.359972 470.244641 302.622858 
C 470.244641 309.885744 473.130217 316.852139 478.265852 321.987774 
C 483.401488 327.12341 490.367883 330.008986 497.630769 330.008986 
z
" clip-path="url(#p301f0813a7)" style="fill: #c70039; fill-opacity: 0.99; stroke: #c70039; stroke-opacity: 0.99"/>
    <path d="M 478.992348 243.019654 
C 485.97608 243.019654 492.674716 240.244988 497.612961 235.306743 
C 502.551205 230.368499 505.325871 223.669863 505.325871 216.686131 
C 505.325871 209.702399 502.551205 203.003762 497.612961 198.065518 
C 492.674716 193.127274 485.97608 190.352608 478.992348 190.352608 
C 472.008616 190.352608 465.309979 193.127274 460.371735 198.065518 
C 455.433491 203.003762 452.658825 209.702399 452.658825 216.686131 
C 452.658825 223.669863 455.433491 230.368499 460.371735 235.306743 
C 465.309979 240.244988 472.008616 243.019654 478.992348 243.019654 
z
" clip-path="url(#p301f0813a7)" style="fill: #c70039; fill-opacity: 0.99; stroke: #c70039; stroke-opacity: 0.99"/>
    <path d="M 426.29985 169.356019 
C 432.59773 169.356019 438.638513 166.853845 443.091786 162.400571 
C 447.54506 157.947297 450.047234 151.906514 450.047234 145.608635 
C 450.047234 139.310755 447.54506 133.269972 443.091786 128.816698 
C 438.638513 124.363425 432.59773 121.86125 426.29985 121.86125 
C 420.00197 121.86125 413.961187 124.363425 409.507913 128.816698 
C 405.05464 133.269972 402.552466 139.310755 402.552466 145.608635 
C 402.552466 151.906514 405.05464 157.947297 409.507913 162.400571 
C 413.961187 166.853845 420.00197 169.356019 426.29985 169.356019 
z
" clip-path="url(#p301f0813a7)" style="fill: #c70039; fill-opacity: 0.99; stroke: #c70039; stroke-opacity: 0.99"/>
    <path d="M 348.664291 125.157919 
C 354.890619 125.157919 360.862771 122.684173 365.265449 118.281494 
C 369.668128 113.878816 372.141874 107.906664 372.141874 101.680336 
C 372.141874 95.454009 369.668128 89.481857 365.265449 85.079179 
C 360.862771 80.6765 354.890619 78.202754 348.664291 78.202754 
C 342.437963 78.202754 336.465812 80.6765 332.063133 85.079179 
C 327.660455 89.481857 325.186708 95.454009 325.186708 101.680336 
C 325.186708 107.906664 327.660455 113.878816 332.063133 118.281494 
C 336.465812 122.684173 342.437963 125.157919 348.664291 125.157919 
z
" clip-path="url(#p301f0813a7)" style="fill: #c70039; fill-opacity: 0.99; stroke: #c70039; stroke-opacity: 0.99"/>
    <path d="M 259.509549 115.576335 
C 265.630307 115.576335 271.501199 113.144532 275.829229 108.816502 
C 280.157259 104.488472 282.589062 98.61758 282.589062 92.496821 
C 282.589062 86.376063 280.157259 80.505171 275.829229 76.177141 
C 271.501199 71.849111 265.630307 69.417308 259.509549 69.417308 
C 253.38879 69.417308 247.517898 71.849111 243.189868 76.177141 
C 238.861838 80.505171 236.430035 86.376063 236.430035 92.496821 
C 236.430035 98.61758 238.861838 104.488472 243.189868 108.816502 
C 247.517898 113.144532 253.38879 115.576335 259.509549 115.576335 
z
" clip-path="url(#p301f0813a7)" style="fill: #c70039; fill-opacity: 0.99; stroke: #c70039; stroke-opacity: 0.99"/>
    <path d="M 174.251298 142.242169 
C 180.243869 142.242169 185.991806 139.861295 190.229193 135.623908 
C 194.46658 131.386521 196.847454 125.638583 196.847454 119.646013 
C 196.847454 113.653442 194.46658 107.905505 190.229193 103.668118 
C 185.991806 99.430731 180.243869 97.049857 174.251298 97.049857 
C 168.258728 97.049857 162.51079 99.430731 158.273403 103.668118 
C 154.036016 107.905505 151.655142 113.653442 151.655142 119.646013 
C 151.655142 125.638583 154.036016 131.386521 158.273403 135.623908 
C 162.51079 139.861295 168.258728 142.242169 174.251298 142.242169 
z
" clip-path="url(#p301f0813a7)" style="fill: #c70039; fill-opacity: 0.99; stroke: #c70039; stroke-opacity: 0.99"/>
    <path d="M 107.631477 200.098701 
C 113.377141 200.098701 118.888251 197.815925 122.951049 193.753127 
C 127.013847 189.690329 129.296623 184.179219 129.296623 178.433555 
C 129.296623 172.687891 127.013847 167.176781 122.951049 163.113983 
C 118.888251 159.051185 113.377141 156.768408 107.631477 156.768408 
C 101.885813 156.768408 96.374703 159.051185 92.311905 163.113983 
C 88.249107 167.176781 85.966331 172.687891 85.966331 178.433555 
C 85.966331 184.179219 88.249107 189.690329 92.311905 193.753127 
C 96.374703 197.815925 101.885813 200.098701 107.631477 200.098701 
z
" clip-path="url(#p301f0813a7)" style="fill: #c70039; fill-opacity: 0.99; stroke: #c70039; stroke-opacity: 0.99"/>
    <path d="M 71.169231 279.801747 
C 76.766919 279.801747 82.136094 277.577762 86.094257 273.619599 
C 90.052421 269.661436 92.276406 264.292261 92.276406 258.694572 
C 92.276406 253.096884 90.052421 247.727709 86.094257 243.769546 
C 82.136094 239.811382 76.766919 237.587397 71.169231 237.587397 
C 65.571542 237.587397 60.202367 239.811382 56.244204 243.769546 
C 52.286041 247.727709 50.062056 253.096884 50.062056 258.694572 
C 50.062056 264.292261 52.286041 269.661436 56.244204 273.619599 
C 60.202367 277.577762 65.571542 279.801747 71.169231 279.801747 
z
" clip-path="url(#p301f0813a7)" style="fill: #c70039; fill-opacity: 0.99; stroke: #c70039; stroke-opacity: 0.99"/>
    <path d="M 71.169244 367.351705 
C 76.685607 367.351705 81.976777 365.16003 85.877435 361.259372 
C 89.778093 357.358714 91.969767 352.067544 91.969767 346.551181 
C 91.969767 341.034818 89.778093 335.743648 85.877435 331.84299 
C 81.976777 327.942332 76.685607 325.750657 71.169244 325.750657 
C 65.65288 325.750657 60.36171 327.942332 56.461052 331.84299 
C 52.560394 335.743648 50.36872 341.034818 50.36872 346.551181 
C 50.36872 352.067544 52.560394 357.358714 56.461052 361.259372 
C 60.36171 365.16003 65.65288 367.351705 71.169244 367.351705 
z
" clip-path="url(#p301f0813a7)" style="fill: #c70039; fill-opacity: 0.99; stroke: #c70039; stroke-opacity: 0.99"/>
    <path d="M 107.63149 447.572896 
C 113.137298 447.572896 118.418343 445.385415 122.311538 441.492221 
C 126.204732 437.599027 128.392212 432.317981 128.392212 426.812173 
C 128.392212 421.306365 126.204732 416.02532 122.311538 412.132126 
C 118.418343 408.238932 113.137298 406.051451 107.63149 406.051451 
C 102.125682 406.051451 96.844636 408.238932 92.951442 412.132126 
C 89.058248 416.02532 86.870767 421.306365 86.870767 426.812173 
C 86.870767 432.317981 89.058248 437.599027 92.951442 441.492221 
C 96.844636 445.385415 102.125682 447.572896 107.63149 447.572896 
z
" clip-path="url(#p301f0813a7)" style="fill: #c70039; fill-opacity: 0.99; stroke: #c70039; stroke-opacity: 0.99"/>
    <path d="M 174.25133 506.113099 
C 179.691543 506.113099 184.909672 503.95168 188.756483 500.104868 
C 192.603295 496.258057 194.764714 491.039928 194.764714 485.599715 
C 194.764714 480.159502 192.603295 474.941374 188.756483 471.094562 
C 184.909672 467.247751 179.691543 465.086331 174.25133 465.086331 
C 168.811117 465.086331 163.592989 467.247751 159.746177 471.094562 
C 155.899366 474.941374 153.737946 480.159502 153.737946 485.599715 
C 153.737946 491.039928 155.899366 496.258057 159.746177 500.104868 
C 163.592989 503.95168 168.811117 506.113099 174.25133 506.113099 
z
" clip-path="url(#p301f0813a7)" style="fill: #c70039; fill-opacity: 0.99; stroke: #c70039; stroke-opacity: 0.99"/>
    <path d="M 259.509587 533.196119 
C 264.932255 533.196119 270.133554 531.041671 273.967959 527.207266 
C 277.802363 523.372861 279.956812 518.171562 279.956812 512.748894 
C 279.956812 507.326227 277.802363 502.124928 273.967959 498.290523 
C 270.133554 494.456118 264.932255 492.301669 259.509587 492.301669 
C 254.08692 492.301669 248.885621 494.456118 245.051216 498.290523 
C 241.216811 502.124928 239.062362 507.326227 239.062362 512.748894 
C 239.062362 518.171562 241.216811 523.372861 245.051216 527.207266 
C 248.885621 531.041671 254.08692 533.196119 259.509587 533.196119 
z
" clip-path="url(#p301f0813a7)" style="fill: #c70039; fill-opacity: 0.99; stroke: #c70039; stroke-opacity: 0.99"/>
    <path d="M 348.664323 523.886345 
C 354.05351 523.886345 359.222695 521.745198 363.033425 517.934468 
C 366.844155 514.123738 368.985301 508.954553 368.985301 503.565366 
C 368.985301 498.17618 366.844155 493.006995 363.033425 489.196265 
C 359.222695 485.385535 354.05351 483.244388 348.664323 483.244388 
C 343.275137 483.244388 338.105952 485.385535 334.295222 489.196265 
C 330.484492 493.006995 328.343345 498.17618 328.343345 503.565366 
C 328.343345 508.954553 330.484492 514.123738 334.295222 517.934468 
C 338.105952 521.745198 343.275137 523.886345 348.664323 523.886345 
z
" clip-path="url(#p301f0813a7)" style="fill: #c70039; fill-opacity: 0.99; stroke: #c70039; stroke-opacity: 0.99"/>
    <path d="M 426.299888 479.939485 
C 431.684159 479.939485 436.848629 477.800292 440.655883 473.993037 
C 444.463137 470.185783 446.60233 465.021314 446.60233 459.637043 
C 446.60233 454.252773 444.463137 449.088303 440.655883 445.281049 
C 436.848629 441.473795 431.684159 439.334601 426.299888 439.334601 
C 420.915618 439.334601 415.751148 441.473795 411.943894 445.281049 
C 408.13664 449.088303 405.997446 454.252773 405.997446 459.637043 
C 405.997446 465.021314 408.13664 470.185783 411.943894 473.993037 
C 415.751148 477.800292 420.915618 479.939485 426.299888 479.939485 
z
" clip-path="url(#p301f0813a7)" style="fill: #c70039; fill-opacity: 0.99; stroke: #c70039; stroke-opacity: 0.99"/>
    <path d="M 478.992374 407.92447 
C 484.128009 407.92447 489.053994 405.88406 492.685437 402.252617 
C 496.31688 398.621174 498.35729 393.695189 498.35729 388.559553 
C 498.35729 383.423917 496.31688 378.497932 492.685437 374.866489 
C 489.053994 371.235046 484.128009 369.194637 478.992374 369.194637 
C 473.856738 369.194637 468.930753 371.235046 465.29931 374.866489 
C 461.667867 378.497932 459.627457 383.423917 459.627457 388.559553 
C 459.627457 393.695189 461.667867 398.621174 465.29931 402.252617 
C 468.930753 405.88406 473.856738 407.92447 478.992374 407.92447 
z
" clip-path="url(#p301f0813a7)" style="fill: #c70039; fill-opacity: 0.99; stroke: #c70039; stroke-opacity: 0.99"/>
   </g>
   <g id="text_1">
    <g id="patch_2">
     <path d="M 465.829129 310.938014 
L 529.43241 310.938014 
L 529.43241 294.307701 
L 465.829129 294.307701 
z
" clip-path="url(#p301f0813a7)" style="fill: #ffffff; opacity: 0.7; stroke: #000000; stroke-linejoin: miter"/>
    </g>
    <g clip-path="url(#p301f0813a7)">
     <!-- Woody Allen -->
     <g transform="translate(469.789129 305.106295)scale(0.09 -0.09)">
      <defs>
       <path id="DejaVuSans-57" d="M 213 4666 
L 850 4666 
L 1831 722 
L 2809 4666 
L 3519 4666 
L 4500 722 
L 5478 4666 
L 6119 4666 
L 4947 0 
L 4153 0 
L 3169 4050 
L 2175 0 
L 1381 0 
L 213 4666 
z
" transform="scale(0.015625)"/>
       <path id="DejaVuSans-6f" d="M 1959 3097 
Q 1497 3097 1228 2736 
Q 959 2375 959 1747 
Q 959 1119 1226 758 
Q 1494 397 1959 397 
Q 2419 397 2687 759 
Q 2956 1122 2956 1747 
Q 2956 2369 2687 2733 
Q 2419 3097 1959 3097 
z
M 1959 3584 
Q 2709 3584 3137 3096 
Q 3566 2609 3566 1747 
Q 3566 888 3137 398 
Q 2709 -91 1959 -91 
Q 1206 -91 779 398 
Q 353 888 353 1747 
Q 353 2609 779 3096 
Q 1206 3584 1959 3584 
z
" transform="scale(0.015625)"/>
       <path id="DejaVuSans-64" d="M 2906 2969 
L 2906 4863 
L 3481 4863 
L 3481 0 
L 2906 0 
L 2906 525 
Q 2725 213 2448 61 
Q 2172 -91 1784 -91 
Q 1150 -91 751 415 
Q 353 922 353 1747 
Q 353 2572 751 3078 
Q 1150 3584 1784 3584 
Q 2172 3584 2448 3432 
Q 2725 3281 2906 2969 
z
M 947 1747 
Q 947 1113 1208 752 
Q 1469 391 1925 391 
Q 2381 391 2643 752 
Q 2906 1113 2906 1747 
Q 2906 2381 2643 2742 
Q 2381 3103 1925 3103 
Q 1469 3103 1208 2742 
Q 947 2381 947 1747 
z
" transform="scale(0.015625)"/>
       <path id="DejaVuSans-79" d="M 2059 -325 
Q 1816 -950 1584 -1140 
Q 1353 -1331 966 -1331 
L 506 -1331 
L 506 -850 
L 844 -850 
Q 1081 -850 1212 -737 
Q 1344 -625 1503 -206 
L 1606 56 
L 191 3500 
L 800 3500 
L 1894 763 
L 2988 3500 
L 3597 3500 
L 2059 -325 
z
" transform="scale(0.015625)"/>
       <path id="DejaVuSans-20" transform="scale(0.015625)"/>
       <path id="DejaVuSans-41" d="M 2188 4044 
L 1331 1722 
L 3047 1722 
L 2188 4044 
z
M 1831 4666 
L 2547 4666 
L 4325 0 
L 3669 0 
L 3244 1197 
L 1141 1197 
L 716 0 
L 50 0 
L 1831 4666 
z
" transform="scale(0.015625)"/>
       <path id="DejaVuSans-6c" d="M 603 4863 
L 1178 4863 
L 1178 0 
L 603 0 
L 603 4863 
z
" transform="scale(0.015625)"/>
       <path id="DejaVuSans-65" d="M 3597 1894 
L 3597 1613 
L 953 1613 
Q 991 1019 1311 708 
Q 1631 397 2203 397 
Q 2534 397 2845 478 
Q 3156 559 3463 722 
L 3463 178 
Q 3153 47 2828 -22 
Q 2503 -91 2169 -91 
Q 1331 -91 842 396 
Q 353 884 353 1716 
Q 353 2575 817 3079 
Q 1281 3584 2069 3584 
Q 2775 3584 3186 3129 
Q 3597 2675 3597 1894 
z
M 3022 2063 
Q 3016 2534 2758 2815 
Q 2500 3097 2075 3097 
Q 1594 3097 1305 2825 
Q 1016 2553 972 2059 
L 3022 2063 
z
" transform="scale(0.015625)"/>
       <path id="DejaVuSans-6e" d="M 3513 2113 
L 3513 0 
L 2938 0 
L 2938 2094 
Q 2938 2591 2744 2837 
Q 2550 3084 2163 3084 
Q 1697 3084 1428 2787 
Q 1159 2491 1159 1978 
L 1159 0 
L 581 0 
L 581 3500 
L 1159 3500 
L 1159 2956 
Q 1366 3272 1645 3428 
Q 1925 3584 2291 3584 
Q 2894 3584 3203 3211 
Q 3513 2838 3513 2113 
z
" transform="scale(0.015625)"/>
      </defs>
      <use xlink:href="#DejaVuSans-57"/>
      <use xlink:href="#DejaVuSans-6f" x="93.001953"/>
      <use xlink:href="#DejaVuSans-6f" x="154.183594"/>
      <use xlink:href="#DejaVuSans-64" x="215.365234"/>
      <use xlink:href="#DejaVuSans-79" x="278.841797"/>
      <use xlink:href="#DejaVuSans-20" x="338.021484"/>
      <use xlink:href="#DejaVuSans-41" x="369.808594"/>
      <use xlink:href="#DejaVuSans-6c" x="438.216797"/>
      <use xlink:href="#DejaVuSans-6c" x="466"/>
      <use xlink:href="#DejaVuSans-65" x="493.783203"/>
      <use xlink:href="#DejaVuSans-6e" x="555.306641"/>
     </g>
    </g>
   </g>
   <g id="text_2">
    <g id="patch_3">
     <path d="M 447.63016 225.001287 
L 510.354535 225.001287 
L 510.354535 208.370974 
L 447.63016 208.370974 
z
" clip-path="url(#p301f0813a7)" style="fill: #ffffff; opacity: 0.7; stroke: #000000; stroke-linejoin: miter"/>
    </g>
    <g clip-path="url(#p301f0813a7)">
     <!-- Chuck Jones -->
     <g transform="translate(451.59016 219.169568)scale(0.09 -0.09)">
      <defs>
       <path id="DejaVuSans-43" d="M 4122 4306 
L 4122 3641 
Q 3803 3938 3442 4084 
Q 3081 4231 2675 4231 
Q 1875 4231 1450 3742 
Q 1025 3253 1025 2328 
Q 1025 1406 1450 917 
Q 1875 428 2675 428 
Q 3081 428 3442 575 
Q 3803 722 4122 1019 
L 4122 359 
Q 3791 134 3420 21 
Q 3050 -91 2638 -91 
Q 1578 -91 968 557 
Q 359 1206 359 2328 
Q 359 3453 968 4101 
Q 1578 4750 2638 4750 
Q 3056 4750 3426 4639 
Q 3797 4528 4122 4306 
z
" transform="scale(0.015625)"/>
       <path id="DejaVuSans-68" d="M 3513 2113 
L 3513 0 
L 2938 0 
L 2938 2094 
Q 2938 2591 2744 2837 
Q 2550 3084 2163 3084 
Q 1697 3084 1428 2787 
Q 1159 2491 1159 1978 
L 1159 0 
L 581 0 
L 581 4863 
L 1159 4863 
L 1159 2956 
Q 1366 3272 1645 3428 
Q 1925 3584 2291 3584 
Q 2894 3584 3203 3211 
Q 3513 2838 3513 2113 
z
" transform="scale(0.015625)"/>
       <path id="DejaVuSans-75" d="M 544 1381 
L 544 3500 
L 1119 3500 
L 1119 1403 
Q 1119 906 1312 657 
Q 1506 409 1894 409 
Q 2359 409 2629 706 
Q 2900 1003 2900 1516 
L 2900 3500 
L 3475 3500 
L 3475 0 
L 2900 0 
L 2900 538 
Q 2691 219 2414 64 
Q 2138 -91 1772 -91 
Q 1169 -91 856 284 
Q 544 659 544 1381 
z
M 1991 3584 
L 1991 3584 
z
" transform="scale(0.015625)"/>
       <path id="DejaVuSans-63" d="M 3122 3366 
L 3122 2828 
Q 2878 2963 2633 3030 
Q 2388 3097 2138 3097 
Q 1578 3097 1268 2742 
Q 959 2388 959 1747 
Q 959 1106 1268 751 
Q 1578 397 2138 397 
Q 2388 397 2633 464 
Q 2878 531 3122 666 
L 3122 134 
Q 2881 22 2623 -34 
Q 2366 -91 2075 -91 
Q 1284 -91 818 406 
Q 353 903 353 1747 
Q 353 2603 823 3093 
Q 1294 3584 2113 3584 
Q 2378 3584 2631 3529 
Q 2884 3475 3122 3366 
z
" transform="scale(0.015625)"/>
       <path id="DejaVuSans-6b" d="M 581 4863 
L 1159 4863 
L 1159 1991 
L 2875 3500 
L 3609 3500 
L 1753 1863 
L 3688 0 
L 2938 0 
L 1159 1709 
L 1159 0 
L 581 0 
L 581 4863 
z
" transform="scale(0.015625)"/>
       <path id="DejaVuSans-4a" d="M 628 4666 
L 1259 4666 
L 1259 325 
Q 1259 -519 939 -900 
Q 619 -1281 -91 -1281 
L -331 -1281 
L -331 -750 
L -134 -750 
Q 284 -750 456 -515 
Q 628 -281 628 325 
L 628 4666 
z
" transform="scale(0.015625)"/>
       <path id="DejaVuSans-73" d="M 2834 3397 
L 2834 2853 
Q 2591 2978 2328 3040 
Q 2066 3103 1784 3103 
Q 1356 3103 1142 2972 
Q 928 2841 928 2578 
Q 928 2378 1081 2264 
Q 1234 2150 1697 2047 
L 1894 2003 
Q 2506 1872 2764 1633 
Q 3022 1394 3022 966 
Q 3022 478 2636 193 
Q 2250 -91 1575 -91 
Q 1294 -91 989 -36 
Q 684 19 347 128 
L 347 722 
Q 666 556 975 473 
Q 1284 391 1588 391 
Q 1994 391 2212 530 
Q 2431 669 2431 922 
Q 2431 1156 2273 1281 
Q 2116 1406 1581 1522 
L 1381 1569 
Q 847 1681 609 1914 
Q 372 2147 372 2553 
Q 372 3047 722 3315 
Q 1072 3584 1716 3584 
Q 2034 3584 2315 3537 
Q 2597 3491 2834 3397 
z
" transform="scale(0.015625)"/>
      </defs>
      <use xlink:href="#DejaVuSans-43"/>
      <use xlink:href="#DejaVuSans-68" x="69.824219"/>
      <use xlink:href="#DejaVuSans-75" x="133.203125"/>
      <use xlink:href="#DejaVuSans-63" x="196.582031"/>
      <use xlink:href="#DejaVuSans-6b" x="251.5625"/>
      <use xlink:href="#DejaVuSans-20" x="309.472656"/>
      <use xlink:href="#DejaVuSans-4a" x="341.259766"/>
      <use xlink:href="#DejaVuSans-6f" x="370.751953"/>
      <use xlink:href="#DejaVuSans-6e" x="431.933594"/>
      <use xlink:href="#DejaVuSans-65" x="495.3125"/>
      <use xlink:href="#DejaVuSans-73" x="556.835938"/>
     </g>
    </g>
   </g>
   <g id="text_3">
    <g id="patch_4">
     <path d="M 385.871569 153.923791 
L 466.728131 153.923791 
L 466.728131 137.293478 
L 385.871569 137.293478 
z
" clip-path="url(#p301f0813a7)" style="fill: #ffffff; opacity: 0.7; stroke: #000000; stroke-linejoin: miter"/>
    </g>
    <g clip-path="url(#p301f0813a7)">
     <!-- Carlos Saldanha -->
     <g transform="translate(389.831569 148.092072)scale(0.09 -0.09)">
      <defs>
       <path id="DejaVuSans-61" d="M 2194 1759 
Q 1497 1759 1228 1600 
Q 959 1441 959 1056 
Q 959 750 1161 570 
Q 1363 391 1709 391 
Q 2188 391 2477 730 
Q 2766 1069 2766 1631 
L 2766 1759 
L 2194 1759 
z
M 3341 1997 
L 3341 0 
L 2766 0 
L 2766 531 
Q 2569 213 2275 61 
Q 1981 -91 1556 -91 
Q 1019 -91 701 211 
Q 384 513 384 1019 
Q 384 1609 779 1909 
Q 1175 2209 1959 2209 
L 2766 2209 
L 2766 2266 
Q 2766 2663 2505 2880 
Q 2244 3097 1772 3097 
Q 1472 3097 1187 3025 
Q 903 2953 641 2809 
L 641 3341 
Q 956 3463 1253 3523 
Q 1550 3584 1831 3584 
Q 2591 3584 2966 3190 
Q 3341 2797 3341 1997 
z
" transform="scale(0.015625)"/>
       <path id="DejaVuSans-72" d="M 2631 2963 
Q 2534 3019 2420 3045 
Q 2306 3072 2169 3072 
Q 1681 3072 1420 2755 
Q 1159 2438 1159 1844 
L 1159 0 
L 581 0 
L 581 3500 
L 1159 3500 
L 1159 2956 
Q 1341 3275 1631 3429 
Q 1922 3584 2338 3584 
Q 2397 3584 2469 3576 
Q 2541 3569 2628 3553 
L 2631 2963 
z
" transform="scale(0.015625)"/>
       <path id="DejaVuSans-53" d="M 3425 4513 
L 3425 3897 
Q 3066 4069 2747 4153 
Q 2428 4238 2131 4238 
Q 1616 4238 1336 4038 
Q 1056 3838 1056 3469 
Q 1056 3159 1242 3001 
Q 1428 2844 1947 2747 
L 2328 2669 
Q 3034 2534 3370 2195 
Q 3706 1856 3706 1288 
Q 3706 609 3251 259 
Q 2797 -91 1919 -91 
Q 1588 -91 1214 -16 
Q 841 59 441 206 
L 441 856 
Q 825 641 1194 531 
Q 1563 422 1919 422 
Q 2459 422 2753 634 
Q 3047 847 3047 1241 
Q 3047 1584 2836 1778 
Q 2625 1972 2144 2069 
L 1759 2144 
Q 1053 2284 737 2584 
Q 422 2884 422 3419 
Q 422 4038 858 4394 
Q 1294 4750 2059 4750 
Q 2388 4750 2728 4690 
Q 3069 4631 3425 4513 
z
" transform="scale(0.015625)"/>
      </defs>
      <use xlink:href="#DejaVuSans-43"/>
      <use xlink:href="#DejaVuSans-61" x="69.824219"/>
      <use xlink:href="#DejaVuSans-72" x="131.103516"/>
      <use xlink:href="#DejaVuSans-6c" x="172.216797"/>
      <use xlink:href="#DejaVuSans-6f" x="200"/>
      <use xlink:href="#DejaVuSans-73" x="261.181641"/>
      <use xlink:href="#DejaVuSans-20" x="313.28125"/>
      <use xlink:href="#DejaVuSans-53" x="345.068359"/>
      <use xlink:href="#DejaVuSans-61" x="408.544922"/>
      <use xlink:href="#DejaVuSans-6c" x="469.824219"/>
      <use xlink:href="#DejaVuSans-64" x="497.607422"/>
      <use xlink:href="#DejaVuSans-61" x="561.083984"/>
      <use xlink:href="#DejaVuSans-6e" x="622.363281"/>
      <use xlink:href="#DejaVuSans-68" x="685.742188"/>
      <use xlink:href="#DejaVuSans-61" x="749.121094"/>
     </g>
    </g>
   </g>
   <g id="text_4">
    <g id="patch_5">
     <path d="M 307.95476 109.995493 
L 389.373822 109.995493 
L 389.373822 93.36518 
L 307.95476 93.36518 
z
" clip-path="url(#p301f0813a7)" style="fill: #ffffff; opacity: 0.7; stroke: #000000; stroke-linejoin: miter"/>
    </g>
    <g clip-path="url(#p301f0813a7)">
     <!-- Alfred Hitchcock -->
     <g transform="translate(311.91476 104.163774)scale(0.09 -0.09)">
      <defs>
       <path id="DejaVuSans-66" d="M 2375 4863 
L 2375 4384 
L 1825 4384 
Q 1516 4384 1395 4259 
Q 1275 4134 1275 3809 
L 1275 3500 
L 2222 3500 
L 2222 3053 
L 1275 3053 
L 1275 0 
L 697 0 
L 697 3053 
L 147 3053 
L 147 3500 
L 697 3500 
L 697 3744 
Q 697 4328 969 4595 
Q 1241 4863 1831 4863 
L 2375 4863 
z
" transform="scale(0.015625)"/>
       <path id="DejaVuSans-48" d="M 628 4666 
L 1259 4666 
L 1259 2753 
L 3553 2753 
L 3553 4666 
L 4184 4666 
L 4184 0 
L 3553 0 
L 3553 2222 
L 1259 2222 
L 1259 0 
L 628 0 
L 628 4666 
z
" transform="scale(0.015625)"/>
       <path id="DejaVuSans-69" d="M 603 3500 
L 1178 3500 
L 1178 0 
L 603 0 
L 603 3500 
z
M 603 4863 
L 1178 4863 
L 1178 4134 
L 603 4134 
L 603 4863 
z
" transform="scale(0.015625)"/>
       <path id="DejaVuSans-74" d="M 1172 4494 
L 1172 3500 
L 2356 3500 
L 2356 3053 
L 1172 3053 
L 1172 1153 
Q 1172 725 1289 603 
Q 1406 481 1766 481 
L 2356 481 
L 2356 0 
L 1766 0 
Q 1100 0 847 248 
Q 594 497 594 1153 
L 594 3053 
L 172 3053 
L 172 3500 
L 594 3500 
L 594 4494 
L 1172 4494 
z
" transform="scale(0.015625)"/>
      </defs>
      <use xlink:href="#DejaVuSans-41"/>
      <use xlink:href="#DejaVuSans-6c" x="68.408203"/>
      <use xlink:href="#DejaVuSans-66" x="96.191406"/>
      <use xlink:href="#DejaVuSans-72" x="131.396484"/>
      <use xlink:href="#DejaVuSans-65" x="170.259766"/>
      <use xlink:href="#DejaVuSans-64" x="231.783203"/>
      <use xlink:href="#DejaVuSans-20" x="295.259766"/>
      <use xlink:href="#DejaVuSans-48" x="327.046875"/>
      <use xlink:href="#DejaVuSans-69" x="402.242188"/>
      <use xlink:href="#DejaVuSans-74" x="430.025391"/>
      <use xlink:href="#DejaVuSans-63" x="469.234375"/>
      <use xlink:href="#DejaVuSans-68" x="524.214844"/>
      <use xlink:href="#DejaVuSans-63" x="587.59375"/>
      <use xlink:href="#DejaVuSans-6f" x="642.574219"/>
      <use xlink:href="#DejaVuSans-63" x="703.755859"/>
      <use xlink:href="#DejaVuSans-6b" x="758.736328"/>
     </g>
    </g>
   </g>
   <g id="text_5">
    <g id="patch_6">
     <path d="M 229.888299 100.811977 
L 289.130799 100.811977 
L 289.130799 84.181665 
L 229.888299 84.181665 
z
" clip-path="url(#p301f0813a7)" style="fill: #ffffff; opacity: 0.7; stroke: #000000; stroke-linejoin: miter"/>
    </g>
    <g clip-path="url(#p301f0813a7)">
     <!-- Friz Freleng -->
     <g transform="translate(233.848299 94.980259)scale(0.09 -0.09)">
      <defs>
       <path id="DejaVuSans-46" d="M 628 4666 
L 3309 4666 
L 3309 4134 
L 1259 4134 
L 1259 2759 
L 3109 2759 
L 3109 2228 
L 1259 2228 
L 1259 0 
L 628 0 
L 628 4666 
z
" transform="scale(0.015625)"/>
       <path id="DejaVuSans-7a" d="M 353 3500 
L 3084 3500 
L 3084 2975 
L 922 459 
L 3084 459 
L 3084 0 
L 275 0 
L 275 525 
L 2438 3041 
L 353 3041 
L 353 3500 
z
" transform="scale(0.015625)"/>
       <path id="DejaVuSans-67" d="M 2906 1791 
Q 2906 2416 2648 2759 
Q 2391 3103 1925 3103 
Q 1463 3103 1205 2759 
Q 947 2416 947 1791 
Q 947 1169 1205 825 
Q 1463 481 1925 481 
Q 2391 481 2648 825 
Q 2906 1169 2906 1791 
z
M 3481 434 
Q 3481 -459 3084 -895 
Q 2688 -1331 1869 -1331 
Q 1566 -1331 1297 -1286 
Q 1028 -1241 775 -1147 
L 775 -588 
Q 1028 -725 1275 -790 
Q 1522 -856 1778 -856 
Q 2344 -856 2625 -561 
Q 2906 -266 2906 331 
L 2906 616 
Q 2728 306 2450 153 
Q 2172 0 1784 0 
Q 1141 0 747 490 
Q 353 981 353 1791 
Q 353 2603 747 3093 
Q 1141 3584 1784 3584 
Q 2172 3584 2450 3431 
Q 2728 3278 2906 2969 
L 2906 3500 
L 3481 3500 
L 3481 434 
z
" transform="scale(0.015625)"/>
      </defs>
      <use xlink:href="#DejaVuSans-46"/>
      <use xlink:href="#DejaVuSans-72" x="50.269531"/>
      <use xlink:href="#DejaVuSans-69" x="91.382812"/>
      <use xlink:href="#DejaVuSans-7a" x="119.166016"/>
      <use xlink:href="#DejaVuSans-20" x="171.65625"/>
      <use xlink:href="#DejaVuSans-46" x="203.443359"/>
      <use xlink:href="#DejaVuSans-72" x="253.712891"/>
      <use xlink:href="#DejaVuSans-65" x="292.576172"/>
      <use xlink:href="#DejaVuSans-6c" x="354.099609"/>
      <use xlink:href="#DejaVuSans-65" x="381.882812"/>
      <use xlink:href="#DejaVuSans-6e" x="443.40625"/>
      <use xlink:href="#DejaVuSans-67" x="506.785156"/>
     </g>
    </g>
   </g>
   <g id="text_6">
    <g id="patch_7">
     <path d="M 136.849267 127.961169 
L 211.653329 127.961169 
L 211.653329 111.330857 
L 136.849267 111.330857 
z
" clip-path="url(#p301f0813a7)" style="fill: #ffffff; opacity: 0.7; stroke: #000000; stroke-linejoin: miter"/>
    </g>
    <g clip-path="url(#p301f0813a7)">
     <!-- Clint Eastwood -->
     <g transform="translate(140.809267 122.12945)scale(0.09 -0.09)">
      <defs>
       <path id="DejaVuSans-45" d="M 628 4666 
L 3578 4666 
L 3578 4134 
L 1259 4134 
L 1259 2753 
L 3481 2753 
L 3481 2222 
L 1259 2222 
L 1259 531 
L 3634 531 
L 3634 0 
L 628 0 
L 628 4666 
z
" transform="scale(0.015625)"/>
       <path id="DejaVuSans-77" d="M 269 3500 
L 844 3500 
L 1563 769 
L 2278 3500 
L 2956 3500 
L 3675 769 
L 4391 3500 
L 4966 3500 
L 4050 0 
L 3372 0 
L 2619 2869 
L 1863 0 
L 1184 0 
L 269 3500 
z
" transform="scale(0.015625)"/>
      </defs>
      <use xlink:href="#DejaVuSans-43"/>
      <use xlink:href="#DejaVuSans-6c" x="69.824219"/>
      <use xlink:href="#DejaVuSans-69" x="97.607422"/>
      <use xlink:href="#DejaVuSans-6e" x="125.390625"/>
      <use xlink:href="#DejaVuSans-74" x="188.769531"/>
      <use xlink:href="#DejaVuSans-20" x="227.978516"/>
      <use xlink:href="#DejaVuSans-45" x="259.765625"/>
      <use xlink:href="#DejaVuSans-61" x="322.949219"/>
      <use xlink:href="#DejaVuSans-73" x="384.228516"/>
      <use xlink:href="#DejaVuSans-74" x="436.328125"/>
      <use xlink:href="#DejaVuSans-77" x="475.537109"/>
      <use xlink:href="#DejaVuSans-6f" x="557.324219"/>
      <use xlink:href="#DejaVuSans-6f" x="618.505859"/>
      <use xlink:href="#DejaVuSans-64" x="679.6875"/>
     </g>
    </g>
   </g>
   <g id="text_7">
    <g id="patch_8">
     <path d="M 69.323118 186.748711 
L 145.939836 186.748711 
L 145.939836 170.118398 
L 69.323118 170.118398 
z
" clip-path="url(#p301f0813a7)" style="fill: #ffffff; opacity: 0.7; stroke: #000000; stroke-linejoin: miter"/>
    </g>
    <g clip-path="url(#p301f0813a7)">
     <!-- Richard Thorpe -->
     <g transform="translate(73.283118 180.916992)scale(0.09 -0.09)">
      <defs>
       <path id="DejaVuSans-52" d="M 2841 2188 
Q 3044 2119 3236 1894 
Q 3428 1669 3622 1275 
L 4263 0 
L 3584 0 
L 2988 1197 
Q 2756 1666 2539 1819 
Q 2322 1972 1947 1972 
L 1259 1972 
L 1259 0 
L 628 0 
L 628 4666 
L 2053 4666 
Q 2853 4666 3247 4331 
Q 3641 3997 3641 3322 
Q 3641 2881 3436 2590 
Q 3231 2300 2841 2188 
z
M 1259 4147 
L 1259 2491 
L 2053 2491 
Q 2509 2491 2742 2702 
Q 2975 2913 2975 3322 
Q 2975 3731 2742 3939 
Q 2509 4147 2053 4147 
L 1259 4147 
z
" transform="scale(0.015625)"/>
       <path id="DejaVuSans-54" d="M -19 4666 
L 3928 4666 
L 3928 4134 
L 2272 4134 
L 2272 0 
L 1638 0 
L 1638 4134 
L -19 4134 
L -19 4666 
z
" transform="scale(0.015625)"/>
       <path id="DejaVuSans-70" d="M 1159 525 
L 1159 -1331 
L 581 -1331 
L 581 3500 
L 1159 3500 
L 1159 2969 
Q 1341 3281 1617 3432 
Q 1894 3584 2278 3584 
Q 2916 3584 3314 3078 
Q 3713 2572 3713 1747 
Q 3713 922 3314 415 
Q 2916 -91 2278 -91 
Q 1894 -91 1617 61 
Q 1341 213 1159 525 
z
M 3116 1747 
Q 3116 2381 2855 2742 
Q 2594 3103 2138 3103 
Q 1681 3103 1420 2742 
Q 1159 2381 1159 1747 
Q 1159 1113 1420 752 
Q 1681 391 2138 391 
Q 2594 391 2855 752 
Q 3116 1113 3116 1747 
z
" transform="scale(0.015625)"/>
      </defs>
      <use xlink:href="#DejaVuSans-52"/>
      <use xlink:href="#DejaVuSans-69" x="69.482422"/>
      <use xlink:href="#DejaVuSans-63" x="97.265625"/>
      <use xlink:href="#DejaVuSans-68" x="152.246094"/>
      <use xlink:href="#DejaVuSans-61" x="215.625"/>
      <use xlink:href="#DejaVuSans-72" x="276.904297"/>
      <use xlink:href="#DejaVuSans-64" x="316.267578"/>
      <use xlink:href="#DejaVuSans-20" x="379.744141"/>
      <use xlink:href="#DejaVuSans-54" x="411.53125"/>
      <use xlink:href="#DejaVuSans-68" x="472.615234"/>
      <use xlink:href="#DejaVuSans-6f" x="535.994141"/>
      <use xlink:href="#DejaVuSans-72" x="597.175781"/>
      <use xlink:href="#DejaVuSans-70" x="638.289062"/>
      <use xlink:href="#DejaVuSans-65" x="701.765625"/>
     </g>
    </g>
   </g>
   <g id="text_8">
    <g id="patch_9">
     <path d="M 29.183528 267.009728 
L 113.154934 267.009728 
L 113.154934 250.379416 
L 29.183528 250.379416 
z
" clip-path="url(#p301f0813a7)" style="fill: #ffffff; opacity: 0.7; stroke: #000000; stroke-linejoin: miter"/>
    </g>
    <g clip-path="url(#p301f0813a7)">
     <!-- Robert Zemeckis -->
     <g transform="translate(33.143528 261.17801)scale(0.09 -0.09)">
      <defs>
       <path id="DejaVuSans-62" d="M 3116 1747 
Q 3116 2381 2855 2742 
Q 2594 3103 2138 3103 
Q 1681 3103 1420 2742 
Q 1159 2381 1159 1747 
Q 1159 1113 1420 752 
Q 1681 391 2138 391 
Q 2594 391 2855 752 
Q 3116 1113 3116 1747 
z
M 1159 2969 
Q 1341 3281 1617 3432 
Q 1894 3584 2278 3584 
Q 2916 3584 3314 3078 
Q 3713 2572 3713 1747 
Q 3713 922 3314 415 
Q 2916 -91 2278 -91 
Q 1894 -91 1617 61 
Q 1341 213 1159 525 
L 1159 0 
L 581 0 
L 581 4863 
L 1159 4863 
L 1159 2969 
z
" transform="scale(0.015625)"/>
       <path id="DejaVuSans-5a" d="M 359 4666 
L 4025 4666 
L 4025 4184 
L 1075 531 
L 4097 531 
L 4097 0 
L 288 0 
L 288 481 
L 3238 4134 
L 359 4134 
L 359 4666 
z
" transform="scale(0.015625)"/>
       <path id="DejaVuSans-6d" d="M 3328 2828 
Q 3544 3216 3844 3400 
Q 4144 3584 4550 3584 
Q 5097 3584 5394 3201 
Q 5691 2819 5691 2113 
L 5691 0 
L 5113 0 
L 5113 2094 
Q 5113 2597 4934 2840 
Q 4756 3084 4391 3084 
Q 3944 3084 3684 2787 
Q 3425 2491 3425 1978 
L 3425 0 
L 2847 0 
L 2847 2094 
Q 2847 2600 2669 2842 
Q 2491 3084 2119 3084 
Q 1678 3084 1418 2786 
Q 1159 2488 1159 1978 
L 1159 0 
L 581 0 
L 581 3500 
L 1159 3500 
L 1159 2956 
Q 1356 3278 1631 3431 
Q 1906 3584 2284 3584 
Q 2666 3584 2933 3390 
Q 3200 3197 3328 2828 
z
" transform="scale(0.015625)"/>
      </defs>
      <use xlink:href="#DejaVuSans-52"/>
      <use xlink:href="#DejaVuSans-6f" x="64.982422"/>
      <use xlink:href="#DejaVuSans-62" x="126.164062"/>
      <use xlink:href="#DejaVuSans-65" x="189.640625"/>
      <use xlink:href="#DejaVuSans-72" x="251.164062"/>
      <use xlink:href="#DejaVuSans-74" x="292.277344"/>
      <use xlink:href="#DejaVuSans-20" x="331.486328"/>
      <use xlink:href="#DejaVuSans-5a" x="363.273438"/>
      <use xlink:href="#DejaVuSans-65" x="431.779297"/>
      <use xlink:href="#DejaVuSans-6d" x="493.302734"/>
      <use xlink:href="#DejaVuSans-65" x="590.714844"/>
      <use xlink:href="#DejaVuSans-63" x="652.238281"/>
      <use xlink:href="#DejaVuSans-6b" x="707.21875"/>
      <use xlink:href="#DejaVuSans-69" x="765.128906"/>
      <use xlink:href="#DejaVuSans-73" x="792.912109"/>
     </g>
    </g>
   </g>
   <g id="text_9">
    <g id="patch_10">
     <path d="M 40.046119 354.866337 
L 102.292369 354.866337 
L 102.292369 338.236025 
L 40.046119 338.236025 
z
" clip-path="url(#p301f0813a7)" style="fill: #ffffff; opacity: 0.7; stroke: #000000; stroke-linejoin: miter"/>
    </g>
    <g clip-path="url(#p301f0813a7)">
     <!-- Ron Howard -->
     <g transform="translate(44.006119 349.034619)scale(0.09 -0.09)">
      <use xlink:href="#DejaVuSans-52"/>
      <use xlink:href="#DejaVuSans-6f" x="64.982422"/>
      <use xlink:href="#DejaVuSans-6e" x="126.164062"/>
      <use xlink:href="#DejaVuSans-20" x="189.542969"/>
      <use xlink:href="#DejaVuSans-48" x="221.330078"/>
      <use xlink:href="#DejaVuSans-6f" x="296.525391"/>
      <use xlink:href="#DejaVuSans-77" x="357.707031"/>
      <use xlink:href="#DejaVuSans-61" x="439.494141"/>
      <use xlink:href="#DejaVuSans-72" x="500.773438"/>
      <use xlink:href="#DejaVuSans-64" x="540.136719"/>
     </g>
    </g>
   </g>
   <g id="text_10">
    <g id="patch_11">
     <path d="M 65.330787 435.12733 
L 149.932193 435.12733 
L 149.932193 418.497017 
L 65.330787 418.497017 
z
" clip-path="url(#p301f0813a7)" style="fill: #ffffff; opacity: 0.7; stroke: #000000; stroke-linejoin: miter"/>
    </g>
    <g clip-path="url(#p301f0813a7)">
     <!-- Steven Spielberg -->
     <g transform="translate(69.290787 429.295611)scale(0.09 -0.09)">
      <defs>
       <path id="DejaVuSans-76" d="M 191 3500 
L 800 3500 
L 1894 563 
L 2988 3500 
L 3597 3500 
L 2284 0 
L 1503 0 
L 191 3500 
z
" transform="scale(0.015625)"/>
      </defs>
      <use xlink:href="#DejaVuSans-53"/>
      <use xlink:href="#DejaVuSans-74" x="63.476562"/>
      <use xlink:href="#DejaVuSans-65" x="102.685547"/>
      <use xlink:href="#DejaVuSans-76" x="164.208984"/>
      <use xlink:href="#DejaVuSans-65" x="223.388672"/>
      <use xlink:href="#DejaVuSans-6e" x="284.912109"/>
      <use xlink:href="#DejaVuSans-20" x="348.291016"/>
      <use xlink:href="#DejaVuSans-53" x="380.078125"/>
      <use xlink:href="#DejaVuSans-70" x="443.554688"/>
      <use xlink:href="#DejaVuSans-69" x="507.03125"/>
      <use xlink:href="#DejaVuSans-65" x="534.814453"/>
      <use xlink:href="#DejaVuSans-6c" x="596.337891"/>
      <use xlink:href="#DejaVuSans-62" x="624.121094"/>
      <use xlink:href="#DejaVuSans-65" x="687.597656"/>
      <use xlink:href="#DejaVuSans-72" x="749.121094"/>
      <use xlink:href="#DejaVuSans-67" x="788.484375"/>
     </g>
    </g>
   </g>
   <g id="text_11">
    <g id="patch_12">
     <path d="M 135.939455 493.914871 
L 212.563205 493.914871 
L 212.563205 477.284559 
L 135.939455 477.284559 
z
" clip-path="url(#p301f0813a7)" style="fill: #ffffff; opacity: 0.7; stroke: #000000; stroke-linejoin: miter"/>
    </g>
    <g clip-path="url(#p301f0813a7)">
     <!-- Wilfred Jackson -->
     <g transform="translate(139.899455 488.083153)scale(0.09 -0.09)">
      <use xlink:href="#DejaVuSans-57"/>
      <use xlink:href="#DejaVuSans-69" x="96.626953"/>
      <use xlink:href="#DejaVuSans-6c" x="124.410156"/>
      <use xlink:href="#DejaVuSans-66" x="152.193359"/>
      <use xlink:href="#DejaVuSans-72" x="187.398438"/>
      <use xlink:href="#DejaVuSans-65" x="226.261719"/>
      <use xlink:href="#DejaVuSans-64" x="287.785156"/>
      <use xlink:href="#DejaVuSans-20" x="351.261719"/>
      <use xlink:href="#DejaVuSans-4a" x="383.048828"/>
      <use xlink:href="#DejaVuSans-61" x="412.541016"/>
      <use xlink:href="#DejaVuSans-63" x="473.820312"/>
      <use xlink:href="#DejaVuSans-6b" x="528.800781"/>
      <use xlink:href="#DejaVuSans-73" x="586.710938"/>
      <use xlink:href="#DejaVuSans-6f" x="638.810547"/>
      <use xlink:href="#DejaVuSans-6e" x="699.992188"/>
     </g>
    </g>
   </g>
   <g id="text_12">
    <g id="patch_13">
     <path d="M 226.648337 521.06405 
L 292.370837 521.06405 
L 292.370837 504.433738 
L 226.648337 504.433738 
z
" clip-path="url(#p301f0813a7)" style="fill: #ffffff; opacity: 0.7; stroke: #000000; stroke-linejoin: miter"/>
    </g>
    <g clip-path="url(#p301f0813a7)">
     <!-- Sam Mendes -->
     <g transform="translate(230.608337 515.232332)scale(0.09 -0.09)">
      <defs>
       <path id="DejaVuSans-4d" d="M 628 4666 
L 1569 4666 
L 2759 1491 
L 3956 4666 
L 4897 4666 
L 4897 0 
L 4281 0 
L 4281 4097 
L 3078 897 
L 2444 897 
L 1241 4097 
L 1241 0 
L 628 0 
L 628 4666 
z
" transform="scale(0.015625)"/>
      </defs>
      <use xlink:href="#DejaVuSans-53"/>
      <use xlink:href="#DejaVuSans-61" x="63.476562"/>
      <use xlink:href="#DejaVuSans-6d" x="124.755859"/>
      <use xlink:href="#DejaVuSans-20" x="222.167969"/>
      <use xlink:href="#DejaVuSans-4d" x="253.955078"/>
      <use xlink:href="#DejaVuSans-65" x="340.234375"/>
      <use xlink:href="#DejaVuSans-6e" x="401.757812"/>
      <use xlink:href="#DejaVuSans-64" x="465.136719"/>
      <use xlink:href="#DejaVuSans-65" x="528.613281"/>
      <use xlink:href="#DejaVuSans-73" x="590.136719"/>
     </g>
    </g>
   </g>
   <g id="text_13">
    <g id="patch_14">
     <path d="M 308.757058 511.880523 
L 388.571589 511.880523 
L 388.571589 495.25021 
L 308.757058 495.25021 
z
" clip-path="url(#p301f0813a7)" style="fill: #ffffff; opacity: 0.7; stroke: #000000; stroke-linejoin: miter"/>
    </g>
    <g clip-path="url(#p301f0813a7)">
     <!-- Martin Scorsese -->
     <g transform="translate(312.717058 506.048804)scale(0.09 -0.09)">
      <use xlink:href="#DejaVuSans-4d"/>
      <use xlink:href="#DejaVuSans-61" x="86.279297"/>
      <use xlink:href="#DejaVuSans-72" x="147.558594"/>
      <use xlink:href="#DejaVuSans-74" x="188.671875"/>
      <use xlink:href="#DejaVuSans-69" x="227.880859"/>
      <use xlink:href="#DejaVuSans-6e" x="255.664062"/>
      <use xlink:href="#DejaVuSans-20" x="319.042969"/>
      <use xlink:href="#DejaVuSans-53" x="350.830078"/>
      <use xlink:href="#DejaVuSans-63" x="414.306641"/>
      <use xlink:href="#DejaVuSans-6f" x="469.287109"/>
      <use xlink:href="#DejaVuSans-72" x="530.46875"/>
      <use xlink:href="#DejaVuSans-73" x="571.582031"/>
      <use xlink:href="#DejaVuSans-65" x="623.681641"/>
      <use xlink:href="#DejaVuSans-73" x="685.205078"/>
      <use xlink:href="#DejaVuSans-65" x="737.304688"/>
     </g>
    </g>
   </g>
   <g id="text_14">
    <g id="patch_15">
     <path d="M 383.385357 467.952199 
L 469.21442 467.952199 
L 469.21442 451.321887 
L 383.385357 451.321887 
z
" clip-path="url(#p301f0813a7)" style="fill: #ffffff; opacity: 0.7; stroke: #000000; stroke-linejoin: miter"/>
    </g>
    <g clip-path="url(#p301f0813a7)">
     <!-- Barry Sonnenfeld -->
     <g transform="translate(387.345357 462.120481)scale(0.09 -0.09)">
      <defs>
       <path id="DejaVuSans-42" d="M 1259 2228 
L 1259 519 
L 2272 519 
Q 2781 519 3026 730 
Q 3272 941 3272 1375 
Q 3272 1813 3026 2020 
Q 2781 2228 2272 2228 
L 1259 2228 
z
M 1259 4147 
L 1259 2741 
L 2194 2741 
Q 2656 2741 2882 2914 
Q 3109 3088 3109 3444 
Q 3109 3797 2882 3972 
Q 2656 4147 2194 4147 
L 1259 4147 
z
M 628 4666 
L 2241 4666 
Q 2963 4666 3353 4366 
Q 3744 4066 3744 3513 
Q 3744 3084 3544 2831 
Q 3344 2578 2956 2516 
Q 3422 2416 3680 2098 
Q 3938 1781 3938 1306 
Q 3938 681 3513 340 
Q 3088 0 2303 0 
L 628 0 
L 628 4666 
z
" transform="scale(0.015625)"/>
      </defs>
      <use xlink:href="#DejaVuSans-42"/>
      <use xlink:href="#DejaVuSans-61" x="68.603516"/>
      <use xlink:href="#DejaVuSans-72" x="129.882812"/>
      <use xlink:href="#DejaVuSans-72" x="169.246094"/>
      <use xlink:href="#DejaVuSans-79" x="210.359375"/>
      <use xlink:href="#DejaVuSans-20" x="269.539062"/>
      <use xlink:href="#DejaVuSans-53" x="301.326172"/>
      <use xlink:href="#DejaVuSans-6f" x="364.802734"/>
      <use xlink:href="#DejaVuSans-6e" x="425.984375"/>
      <use xlink:href="#DejaVuSans-6e" x="489.363281"/>
      <use xlink:href="#DejaVuSans-65" x="552.742188"/>
      <use xlink:href="#DejaVuSans-6e" x="614.265625"/>
      <use xlink:href="#DejaVuSans-66" x="677.644531"/>
      <use xlink:href="#DejaVuSans-65" x="712.849609"/>
      <use xlink:href="#DejaVuSans-6c" x="774.373047"/>
      <use xlink:href="#DejaVuSans-64" x="802.15625"/>
     </g>
    </g>
   </g>
   <g id="text_15">
    <g id="patch_16">
     <path d="M 443.383311 396.87471 
L 514.601436 396.87471 
L 514.601436 380.244397 
L 443.383311 380.244397 
z
" clip-path="url(#p301f0813a7)" style="fill: #ffffff; opacity: 0.7; stroke: #000000; stroke-linejoin: miter"/>
    </g>
    <g clip-path="url(#p301f0813a7)">
     <!-- Mervyn LeRoy -->
     <g transform="translate(447.343311 391.042991)scale(0.09 -0.09)">
      <defs>
       <path id="DejaVuSans-4c" d="M 628 4666 
L 1259 4666 
L 1259 531 
L 3531 531 
L 3531 0 
L 628 0 
L 628 4666 
z
" transform="scale(0.015625)"/>
      </defs>
      <use xlink:href="#DejaVuSans-4d"/>
      <use xlink:href="#DejaVuSans-65" x="86.279297"/>
      <use xlink:href="#DejaVuSans-72" x="147.802734"/>
      <use xlink:href="#DejaVuSans-76" x="188.916016"/>
      <use xlink:href="#DejaVuSans-79" x="248.095703"/>
      <use xlink:href="#DejaVuSans-6e" x="307.275391"/>
      <use xlink:href="#DejaVuSans-20" x="370.654297"/>
      <use xlink:href="#DejaVuSans-4c" x="402.441406"/>
      <use xlink:href="#DejaVuSans-65" x="456.404297"/>
      <use xlink:href="#DejaVuSans-52" x="517.927734"/>
      <use xlink:href="#DejaVuSans-6f" x="582.910156"/>
      <use xlink:href="#DejaVuSans-79" x="644.091797"/>
     </g>
    </g>
   </g>
   <g id="text_16">
    <!-- Impactful directors for Family Film genre - Importance rank: 6 -->
    <g transform="translate(99.602812 16.318125)scale(0.12 -0.12)">
     <defs>
      <path id="DejaVuSans-49" d="M 628 4666 
L 1259 4666 
L 1259 0 
L 628 0 
L 628 4666 
z
" transform="scale(0.015625)"/>
      <path id="DejaVuSans-2d" d="M 313 2009 
L 1997 2009 
L 1997 1497 
L 313 1497 
L 313 2009 
z
" transform="scale(0.015625)"/>
      <path id="DejaVuSans-3a" d="M 750 794 
L 1409 794 
L 1409 0 
L 750 0 
L 750 794 
z
M 750 3309 
L 1409 3309 
L 1409 2516 
L 750 2516 
L 750 3309 
z
" transform="scale(0.015625)"/>
      <path id="DejaVuSans-36" d="M 2113 2584 
Q 1688 2584 1439 2293 
Q 1191 2003 1191 1497 
Q 1191 994 1439 701 
Q 1688 409 2113 409 
Q 2538 409 2786 701 
Q 3034 994 3034 1497 
Q 3034 2003 2786 2293 
Q 2538 2584 2113 2584 
z
M 3366 4563 
L 3366 3988 
Q 3128 4100 2886 4159 
Q 2644 4219 2406 4219 
Q 1781 4219 1451 3797 
Q 1122 3375 1075 2522 
Q 1259 2794 1537 2939 
Q 1816 3084 2150 3084 
Q 2853 3084 3261 2657 
Q 3669 2231 3669 1497 
Q 3669 778 3244 343 
Q 2819 -91 2113 -91 
Q 1303 -91 875 529 
Q 447 1150 447 2328 
Q 447 3434 972 4092 
Q 1497 4750 2381 4750 
Q 2619 4750 2861 4703 
Q 3103 4656 3366 4563 
z
" transform="scale(0.015625)"/>
     </defs>
     <use xlink:href="#DejaVuSans-49"/>
     <use xlink:href="#DejaVuSans-6d" x="29.492188"/>
     <use xlink:href="#DejaVuSans-70" x="126.904297"/>
     <use xlink:href="#DejaVuSans-61" x="190.380859"/>
     <use xlink:href="#DejaVuSans-63" x="251.660156"/>
     <use xlink:href="#DejaVuSans-74" x="306.640625"/>
     <use xlink:href="#DejaVuSans-66" x="345.849609"/>
     <use xlink:href="#DejaVuSans-75" x="381.054688"/>
     <use xlink:href="#DejaVuSans-6c" x="444.433594"/>
     <use xlink:href="#DejaVuSans-20" x="472.216797"/>
     <use xlink:href="#DejaVuSans-64" x="504.003906"/>
     <use xlink:href="#DejaVuSans-69" x="567.480469"/>
     <use xlink:href="#DejaVuSans-72" x="595.263672"/>
     <use xlink:href="#DejaVuSans-65" x="634.126953"/>
     <use xlink:href="#DejaVuSans-63" x="695.650391"/>
     <use xlink:href="#DejaVuSans-74" x="750.630859"/>
     <use xlink:href="#DejaVuSans-6f" x="789.839844"/>
     <use xlink:href="#DejaVuSans-72" x="851.021484"/>
     <use xlink:href="#DejaVuSans-73" x="892.134766"/>
     <use xlink:href="#DejaVuSans-20" x="944.234375"/>
     <use xlink:href="#DejaVuSans-66" x="976.021484"/>
     <use xlink:href="#DejaVuSans-6f" x="1011.226562"/>
     <use xlink:href="#DejaVuSans-72" x="1072.408203"/>
     <use xlink:href="#DejaVuSans-20" x="1113.521484"/>
     <use xlink:href="#DejaVuSans-46" x="1145.308594"/>
     <use xlink:href="#DejaVuSans-61" x="1193.703125"/>
     <use xlink:href="#DejaVuSans-6d" x="1254.982422"/>
     <use xlink:href="#DejaVuSans-69" x="1352.394531"/>
     <use xlink:href="#DejaVuSans-6c" x="1380.177734"/>
     <use xlink:href="#DejaVuSans-79" x="1407.960938"/>
     <use xlink:href="#DejaVuSans-20" x="1467.140625"/>
     <use xlink:href="#DejaVuSans-46" x="1498.927734"/>
     <use xlink:href="#DejaVuSans-69" x="1549.197266"/>
     <use xlink:href="#DejaVuSans-6c" x="1576.980469"/>
     <use xlink:href="#DejaVuSans-6d" x="1604.763672"/>
     <use xlink:href="#DejaVuSans-20" x="1702.175781"/>
     <use xlink:href="#DejaVuSans-67" x="1733.962891"/>
     <use xlink:href="#DejaVuSans-65" x="1797.439453"/>
     <use xlink:href="#DejaVuSans-6e" x="1858.962891"/>
     <use xlink:href="#DejaVuSans-72" x="1922.341797"/>
     <use xlink:href="#DejaVuSans-65" x="1961.205078"/>
     <use xlink:href="#DejaVuSans-20" x="2022.728516"/>
     <use xlink:href="#DejaVuSans-2d" x="2054.515625"/>
     <use xlink:href="#DejaVuSans-20" x="2090.599609"/>
     <use xlink:href="#DejaVuSans-49" x="2122.386719"/>
     <use xlink:href="#DejaVuSans-6d" x="2151.878906"/>
     <use xlink:href="#DejaVuSans-70" x="2249.291016"/>
     <use xlink:href="#DejaVuSans-6f" x="2312.767578"/>
     <use xlink:href="#DejaVuSans-72" x="2373.949219"/>
     <use xlink:href="#DejaVuSans-74" x="2415.0625"/>
     <use xlink:href="#DejaVuSans-61" x="2454.271484"/>
     <use xlink:href="#DejaVuSans-6e" x="2515.550781"/>
     <use xlink:href="#DejaVuSans-63" x="2578.929688"/>
     <use xlink:href="#DejaVuSans-65" x="2633.910156"/>
     <use xlink:href="#DejaVuSans-20" x="2695.433594"/>
     <use xlink:href="#DejaVuSans-72" x="2727.220703"/>
     <use xlink:href="#DejaVuSans-61" x="2768.333984"/>
     <use xlink:href="#DejaVuSans-6e" x="2829.613281"/>
     <use xlink:href="#DejaVuSans-6b" x="2892.992188"/>
     <use xlink:href="#DejaVuSans-3a" x="2950.902344"/>
     <use xlink:href="#DejaVuSans-20" x="2984.59375"/>
     <use xlink:href="#DejaVuSans-36" x="3016.380859"/>
    </g>
   </g>
  </g>
 </g>
 <defs>
  <clipPath id="p301f0813a7">
   <rect x="7.2" y="22.318125" width="554.4" height="554.4"/>
  </clipPath>
 </defs>
</svg>
