<?xml version="1.0" encoding="utf-8" standalone="no"?>
<!DOCTYPE svg PUBLIC "-//W3C//DTD SVG 1.1//EN"
  "http://www.w3.org/Graphics/SVG/1.1/DTD/svg11.dtd">
<svg xmlns:xlink="http://www.w3.org/1999/xlink" width="568.8pt" height="583.918125pt" viewBox="0 0 568.8 583.918125" xmlns="http://www.w3.org/2000/svg" version="1.1">
 <metadata>
  <rdf:RDF xmlns:dc="http://purl.org/dc/elements/1.1/" xmlns:cc="http://creativecommons.org/ns#" xmlns:rdf="http://www.w3.org/1999/02/22-rdf-syntax-ns#">
   <cc:Work>
    <dc:type rdf:resource="http://purl.org/dc/dcmitype/StillImage"/>
    <dc:date>2022-12-23T19:06:41.110643</dc:date>
    <dc:format>image/svg+xml</dc:format>
    <dc:creator>
     <cc:Agent>
      <dc:title>Matplotlib v3.5.2, https://matplotlib.org/</dc:title>
     </cc:Agent>
    </dc:creator>
   </cc:Work>
  </rdf:RDF>
 </metadata>
 <defs>
  <style type="text/css">*{stroke-linejoin: round; stroke-linecap: butt}</style>
 </defs>
 <g id="figure_1">
  <g id="patch_1">
   <path d="M 0 583.918125 
L 568.8 583.918125 
L 568.8 0 
L 0 0 
z
" style="fill: #ffffff"/>
  </g>
  <g id="axes_1">
   <g id="LineCollection_1">
    <path d="M 478.246154 221.126341 
L 428.154641 151.114832 
" clip-path="url(#p787bce83df)" style="fill: none; stroke: #000000; stroke-opacity: 0.3; stroke-width: 10"/>
    <path d="M 269.597374 98.799564 
L 90.553846 349.043736 
" clip-path="url(#p787bce83df)" style="fill: none; stroke: #000000; stroke-opacity: 0.3; stroke-width: 5"/>
   </g>
   <g id="PathCollection_1">
    <path d="M 495.964553 333.160357 
C 503.227439 333.160357 510.193834 330.274782 515.32947 325.139146 
C 520.465106 320.00351 523.350681 313.037115 523.350681 305.774229 
C 523.350681 298.511343 520.465106 291.544949 515.32947 286.409313 
C 510.193834 281.273677 503.227439 278.388101 495.964553 278.388101 
C 488.701667 278.388101 481.735272 281.273677 476.599636 286.409313 
C 471.464 291.544949 468.578425 298.511343 468.578425 305.774229 
C 468.578425 313.037115 471.464 320.00351 476.599636 325.139146 
C 481.735272 330.274782 488.701667 333.160357 495.964553 333.160357 
z
" clip-path="url(#p787bce83df)" style="fill: #c70039; fill-opacity: 0.99; stroke: #c70039; stroke-opacity: 0.99"/>
    <path d="M 478.246154 247.704012 
C 485.294635 247.704012 492.055377 244.903621 497.039405 239.919592 
C 502.023434 234.935564 504.823825 228.174822 504.823825 221.126341 
C 504.823825 214.07786 502.023434 207.317118 497.039405 202.33309 
C 492.055377 197.349061 485.294635 194.54867 478.246154 194.54867 
C 471.197673 194.54867 464.436931 197.349061 459.452903 202.33309 
C 454.468874 207.317118 451.668483 214.07786 451.668483 221.126341 
C 451.668483 228.174822 454.468874 234.935564 459.452903 239.919592 
C 464.436931 244.903621 471.197673 247.704012 478.246154 247.704012 
z
" clip-path="url(#p787bce83df)" style="fill: #c70039; fill-opacity: 0.99; stroke: #c70039; stroke-opacity: 0.99"/>
    <path d="M 428.154641 177.692503 
C 435.203122 177.692503 441.963864 174.892111 446.947893 169.908083 
C 451.931921 164.924054 454.732312 158.163312 454.732312 151.114832 
C 454.732312 144.066351 451.931921 137.305609 446.947893 132.32158 
C 441.963864 127.337552 435.203122 124.537161 428.154641 124.537161 
C 421.106161 124.537161 414.345419 127.337552 409.36139 132.32158 
C 404.377362 137.305609 401.57697 144.066351 401.57697 151.114832 
C 401.57697 158.163312 404.377362 164.924054 409.36139 169.908083 
C 414.345419 174.892111 421.106161 177.692503 428.154641 177.692503 
z
" clip-path="url(#p787bce83df)" style="fill: #c70039; fill-opacity: 0.99; stroke: #c70039; stroke-opacity: 0.99"/>
    <path d="M 354.351297 134.144864 
C 361.32601 134.144864 368.015996 131.373782 372.947862 126.441915 
C 377.879729 121.510048 380.650812 114.820062 380.650812 107.84535 
C 380.650812 100.870637 377.879729 94.180651 372.947862 89.248784 
C 368.015996 84.316918 361.32601 81.545835 354.351297 81.545835 
C 347.376584 81.545835 340.686599 84.316918 335.754732 89.248784 
C 330.822865 94.180651 328.051782 100.870637 328.051782 107.84535 
C 328.051782 114.820062 330.822865 121.510048 335.754732 126.441915 
C 340.686599 131.373782 347.376584 134.144864 354.351297 134.144864 
z
" clip-path="url(#p787bce83df)" style="fill: #c70039; fill-opacity: 0.99; stroke: #c70039; stroke-opacity: 0.99"/>
    <path d="M 269.597374 124.655257 
C 276.454384 124.655257 283.031472 121.930938 287.88011 117.0823 
C 292.728748 112.233662 295.453067 105.656574 295.453067 98.799564 
C 295.453067 91.942554 292.728748 85.365467 287.88011 80.516829 
C 283.031472 75.66819 276.454384 72.943871 269.597374 72.943871 
C 262.740364 72.943871 256.163277 75.66819 251.314639 80.516829 
C 246.466 85.365467 243.741682 91.942554 243.741682 98.799564 
C 243.741682 105.656574 246.466 112.233662 251.314639 117.0823 
C 256.163277 121.930938 262.740364 124.655257 269.597374 124.655257 
z
" clip-path="url(#p787bce83df)" style="fill: #c70039; fill-opacity: 0.99; stroke: #c70039; stroke-opacity: 0.99"/>
    <path d="M 188.547607 149.051333 
C 194.782465 149.051333 200.762798 146.574198 205.171509 142.165487 
C 209.580219 137.756777 212.057354 131.776443 212.057354 125.541585 
C 212.057354 119.306727 209.580219 113.326393 205.171509 108.917683 
C 200.762798 104.508973 194.782465 102.031837 188.547607 102.031837 
C 182.312749 102.031837 176.332415 104.508973 171.923704 108.917683 
C 167.514994 113.326393 165.037859 119.306727 165.037859 125.541585 
C 165.037859 131.776443 167.514994 137.756777 171.923704 142.165487 
C 176.332415 146.574198 182.312749 149.051333 188.547607 149.051333 
z
" clip-path="url(#p787bce83df)" style="fill: #c70039; fill-opacity: 0.99; stroke: #c70039; stroke-opacity: 0.99"/>
    <path d="M 125.216246 206.953115 
C 131.450019 206.953115 137.429312 204.476411 141.837255 200.068468 
C 146.245198 195.660525 148.721902 189.681232 148.721902 183.447459 
C 148.721902 177.213686 146.245198 171.234393 141.837255 166.82645 
C 137.429312 162.418507 131.450019 159.941803 125.216246 159.941803 
C 118.982473 159.941803 113.00318 162.418507 108.595237 166.82645 
C 104.187294 171.234393 101.710589 177.213686 101.710589 183.447459 
C 101.710589 189.681232 104.187294 195.660525 108.595237 200.068468 
C 113.00318 204.476411 118.982473 206.953115 125.216246 206.953115 
z
" clip-path="url(#p787bce83df)" style="fill: #c70039; fill-opacity: 0.99; stroke: #c70039; stroke-opacity: 0.99"/>
    <path d="M 90.553834 285.658673 
C 96.694324 285.658673 102.584141 283.219031 106.926123 278.877049 
C 111.268105 274.535067 113.707748 268.645249 113.707748 262.50476 
C 113.707748 256.36427 111.268105 250.474452 106.926123 246.13247 
C 102.584141 241.790488 96.694324 239.350846 90.553834 239.350846 
C 84.413344 239.350846 78.523526 241.790488 74.181544 246.13247 
C 69.839563 250.474452 67.39992 256.36427 67.39992 262.50476 
C 67.39992 268.645249 69.839563 274.535067 74.181544 278.877049 
C 78.523526 283.219031 84.413344 285.658673 90.553834 285.658673 
z
" clip-path="url(#p787bce83df)" style="fill: #c70039; fill-opacity: 0.99; stroke: #c70039; stroke-opacity: 0.99"/>
    <path d="M 90.553846 371.807515 
C 96.590871 371.807515 102.381448 369.40898 106.650269 365.140159 
C 110.91909 360.871338 113.317625 355.080761 113.317625 349.043736 
C 113.317625 343.006711 110.91909 337.216135 106.650269 332.947314 
C 102.381448 328.678493 96.590871 326.279957 90.553846 326.279957 
C 84.516821 326.279957 78.726245 328.678493 74.457424 332.947314 
C 70.188602 337.216135 67.790067 343.006711 67.790067 349.043736 
C 67.790067 355.080761 70.188602 360.871338 74.457424 365.140159 
C 78.726245 369.40898 84.516821 371.807515 90.553846 371.807515 
z
" clip-path="url(#p787bce83df)" style="fill: #c70039; fill-opacity: 0.99; stroke: #c70039; stroke-opacity: 0.99"/>
    <path d="M 125.216258 450.847002 
C 131.248565 450.847002 137.034616 448.450341 141.300102 444.184856 
C 145.565587 439.91937 147.962248 434.133319 147.962248 428.101012 
C 147.962248 422.068705 145.565587 416.282653 141.300102 412.017168 
C 137.034616 407.751683 131.248565 405.355022 125.216258 405.355022 
C 119.183951 405.355022 113.3979 407.751683 109.132414 412.017168 
C 104.866929 416.282653 102.470268 422.068705 102.470268 428.101012 
C 102.470268 434.133319 104.866929 439.91937 109.132414 444.184856 
C 113.3979 448.450341 119.183951 450.847002 125.216258 450.847002 
z
" clip-path="url(#p787bce83df)" style="fill: #c70039; fill-opacity: 0.99; stroke: #c70039; stroke-opacity: 0.99"/>
    <path d="M 188.547637 508.479284 
C 194.507387 508.479284 200.223843 506.11145 204.438022 501.897271 
C 208.652202 497.683092 211.020035 491.966636 211.020035 486.006886 
C 211.020035 480.047136 208.652202 474.33068 204.438022 470.116501 
C 200.223843 465.902321 194.507387 463.534488 188.547637 463.534488 
C 182.587887 463.534488 176.871431 465.902321 172.657252 470.116501 
C 168.443073 474.33068 166.075239 480.047136 166.075239 486.006886 
C 166.075239 491.966636 168.443073 497.683092 172.657252 501.897271 
C 176.871431 506.11145 182.587887 508.479284 188.547637 508.479284 
z
" clip-path="url(#p787bce83df)" style="fill: #c70039; fill-opacity: 0.99; stroke: #c70039; stroke-opacity: 0.99"/>
    <path d="M 269.597411 532.98277 
C 274.963498 532.98277 280.110526 530.850801 283.904922 527.056405 
C 287.699318 523.262009 289.831287 518.114981 289.831287 512.748894 
C 289.831287 507.382808 287.699318 502.23578 283.904922 498.441383 
C 280.110526 494.646987 274.963498 492.515018 269.597411 492.515018 
C 264.231324 492.515018 259.084296 494.646987 255.2899 498.441383 
C 251.495504 502.23578 249.363535 507.382808 249.363535 512.748894 
C 249.363535 518.114981 251.495504 523.262009 255.2899 527.056405 
C 259.084296 530.850801 264.231324 532.98277 269.597411 532.98277 
z
" clip-path="url(#p787bce83df)" style="fill: #c70039; fill-opacity: 0.99; stroke: #c70039; stroke-opacity: 0.99"/>
    <path d="M 354.351328 523.880811 
C 359.70252 523.880811 364.835262 521.75476 368.619127 517.970896 
C 372.402991 514.187031 374.529043 509.054289 374.529043 503.703097 
C 374.529043 498.351904 372.402991 493.219162 368.619127 489.435298 
C 364.835262 485.651433 359.70252 483.525382 354.351328 483.525382 
C 349.000135 483.525382 343.867393 485.651433 340.083529 489.435298 
C 336.299664 493.219162 334.173613 498.351904 334.173613 503.703097 
C 334.173613 509.054289 336.299664 514.187031 340.083529 517.970896 
C 343.867393 521.75476 349.000135 523.880811 354.351328 523.880811 
z
" clip-path="url(#p787bce83df)" style="fill: #c70039; fill-opacity: 0.99; stroke: #c70039; stroke-opacity: 0.99"/>
    <path d="M 428.154678 480.064537 
C 433.360866 480.064537 438.354523 477.996096 442.035854 474.314765 
C 445.717184 470.633435 447.785625 465.639778 447.785625 460.43359 
C 447.785625 455.227402 445.717184 450.233745 442.035854 446.552414 
C 438.354523 442.871083 433.360866 440.802643 428.154678 440.802643 
C 422.94849 440.802643 417.954833 442.871083 414.273502 446.552414 
C 410.592171 450.233745 408.523731 455.227402 408.523731 460.43359 
C 408.523731 465.639778 410.592171 470.633435 414.273502 474.314765 
C 417.954833 477.996096 422.94849 480.064537 428.154678 480.064537 
z
" clip-path="url(#p787bce83df)" style="fill: #c70039; fill-opacity: 0.99; stroke: #c70039; stroke-opacity: 0.99"/>
    <path d="M 478.246178 409.787003 
C 483.381814 409.787003 488.307799 407.746594 491.939242 404.115151 
C 495.570685 400.483708 497.611095 395.557723 497.611095 390.422087 
C 497.611095 385.286451 495.570685 380.360466 491.939242 376.729023 
C 488.307799 373.09758 483.381814 371.05717 478.246178 371.05717 
C 473.110542 371.05717 468.184557 373.09758 464.553114 376.729023 
C 460.921671 380.360466 458.881262 385.286451 458.881262 390.422087 
C 458.881262 395.557723 460.921671 400.483708 464.553114 404.115151 
C 468.184557 407.746594 473.110542 409.787003 478.246178 409.787003 
z
" clip-path="url(#p787bce83df)" style="fill: #c70039; fill-opacity: 0.99; stroke: #c70039; stroke-opacity: 0.99"/>
   </g>
   <g id="text_1">
    <g id="patch_2">
     <path d="M 457.453694 314.089386 
L 534.475413 314.089386 
L 534.475413 297.459073 
L 457.453694 297.459073 
z
" clip-path="url(#p787bce83df)" style="fill: #ffffff; opacity: 0.7; stroke: #000000; stroke-linejoin: miter"/>
    </g>
    <g clip-path="url(#p787bce83df)">
     <!-- Brian De Palma -->
     <g transform="translate(461.413694 308.257667)scale(0.09 -0.09)">
      <defs>
       <path id="DejaVuSans-42" d="M 1259 2228 
L 1259 519 
L 2272 519 
Q 2781 519 3026 730 
Q 3272 941 3272 1375 
Q 3272 1813 3026 2020 
Q 2781 2228 2272 2228 
L 1259 2228 
z
M 1259 4147 
L 1259 2741 
L 2194 2741 
Q 2656 2741 2882 2914 
Q 3109 3088 3109 3444 
Q 3109 3797 2882 3972 
Q 2656 4147 2194 4147 
L 1259 4147 
z
M 628 4666 
L 2241 4666 
Q 2963 4666 3353 4366 
Q 3744 4066 3744 3513 
Q 3744 3084 3544 2831 
Q 3344 2578 2956 2516 
Q 3422 2416 3680 2098 
Q 3938 1781 3938 1306 
Q 3938 681 3513 340 
Q 3088 0 2303 0 
L 628 0 
L 628 4666 
z
" transform="scale(0.015625)"/>
       <path id="DejaVuSans-72" d="M 2631 2963 
Q 2534 3019 2420 3045 
Q 2306 3072 2169 3072 
Q 1681 3072 1420 2755 
Q 1159 2438 1159 1844 
L 1159 0 
L 581 0 
L 581 3500 
L 1159 3500 
L 1159 2956 
Q 1341 3275 1631 3429 
Q 1922 3584 2338 3584 
Q 2397 3584 2469 3576 
Q 2541 3569 2628 3553 
L 2631 2963 
z
" transform="scale(0.015625)"/>
       <path id="DejaVuSans-69" d="M 603 3500 
L 1178 3500 
L 1178 0 
L 603 0 
L 603 3500 
z
M 603 4863 
L 1178 4863 
L 1178 4134 
L 603 4134 
L 603 4863 
z
" transform="scale(0.015625)"/>
       <path id="DejaVuSans-61" d="M 2194 1759 
Q 1497 1759 1228 1600 
Q 959 1441 959 1056 
Q 959 750 1161 570 
Q 1363 391 1709 391 
Q 2188 391 2477 730 
Q 2766 1069 2766 1631 
L 2766 1759 
L 2194 1759 
z
M 3341 1997 
L 3341 0 
L 2766 0 
L 2766 531 
Q 2569 213 2275 61 
Q 1981 -91 1556 -91 
Q 1019 -91 701 211 
Q 384 513 384 1019 
Q 384 1609 779 1909 
Q 1175 2209 1959 2209 
L 2766 2209 
L 2766 2266 
Q 2766 2663 2505 2880 
Q 2244 3097 1772 3097 
Q 1472 3097 1187 3025 
Q 903 2953 641 2809 
L 641 3341 
Q 956 3463 1253 3523 
Q 1550 3584 1831 3584 
Q 2591 3584 2966 3190 
Q 3341 2797 3341 1997 
z
" transform="scale(0.015625)"/>
       <path id="DejaVuSans-6e" d="M 3513 2113 
L 3513 0 
L 2938 0 
L 2938 2094 
Q 2938 2591 2744 2837 
Q 2550 3084 2163 3084 
Q 1697 3084 1428 2787 
Q 1159 2491 1159 1978 
L 1159 0 
L 581 0 
L 581 3500 
L 1159 3500 
L 1159 2956 
Q 1366 3272 1645 3428 
Q 1925 3584 2291 3584 
Q 2894 3584 3203 3211 
Q 3513 2838 3513 2113 
z
" transform="scale(0.015625)"/>
       <path id="DejaVuSans-20" transform="scale(0.015625)"/>
       <path id="DejaVuSans-44" d="M 1259 4147 
L 1259 519 
L 2022 519 
Q 2988 519 3436 956 
Q 3884 1394 3884 2338 
Q 3884 3275 3436 3711 
Q 2988 4147 2022 4147 
L 1259 4147 
z
M 628 4666 
L 1925 4666 
Q 3281 4666 3915 4102 
Q 4550 3538 4550 2338 
Q 4550 1131 3912 565 
Q 3275 0 1925 0 
L 628 0 
L 628 4666 
z
" transform="scale(0.015625)"/>
       <path id="DejaVuSans-65" d="M 3597 1894 
L 3597 1613 
L 953 1613 
Q 991 1019 1311 708 
Q 1631 397 2203 397 
Q 2534 397 2845 478 
Q 3156 559 3463 722 
L 3463 178 
Q 3153 47 2828 -22 
Q 2503 -91 2169 -91 
Q 1331 -91 842 396 
Q 353 884 353 1716 
Q 353 2575 817 3079 
Q 1281 3584 2069 3584 
Q 2775 3584 3186 3129 
Q 3597 2675 3597 1894 
z
M 3022 2063 
Q 3016 2534 2758 2815 
Q 2500 3097 2075 3097 
Q 1594 3097 1305 2825 
Q 1016 2553 972 2059 
L 3022 2063 
z
" transform="scale(0.015625)"/>
       <path id="DejaVuSans-50" d="M 1259 4147 
L 1259 2394 
L 2053 2394 
Q 2494 2394 2734 2622 
Q 2975 2850 2975 3272 
Q 2975 3691 2734 3919 
Q 2494 4147 2053 4147 
L 1259 4147 
z
M 628 4666 
L 2053 4666 
Q 2838 4666 3239 4311 
Q 3641 3956 3641 3272 
Q 3641 2581 3239 2228 
Q 2838 1875 2053 1875 
L 1259 1875 
L 1259 0 
L 628 0 
L 628 4666 
z
" transform="scale(0.015625)"/>
       <path id="DejaVuSans-6c" d="M 603 4863 
L 1178 4863 
L 1178 0 
L 603 0 
L 603 4863 
z
" transform="scale(0.015625)"/>
       <path id="DejaVuSans-6d" d="M 3328 2828 
Q 3544 3216 3844 3400 
Q 4144 3584 4550 3584 
Q 5097 3584 5394 3201 
Q 5691 2819 5691 2113 
L 5691 0 
L 5113 0 
L 5113 2094 
Q 5113 2597 4934 2840 
Q 4756 3084 4391 3084 
Q 3944 3084 3684 2787 
Q 3425 2491 3425 1978 
L 3425 0 
L 2847 0 
L 2847 2094 
Q 2847 2600 2669 2842 
Q 2491 3084 2119 3084 
Q 1678 3084 1418 2786 
Q 1159 2488 1159 1978 
L 1159 0 
L 581 0 
L 581 3500 
L 1159 3500 
L 1159 2956 
Q 1356 3278 1631 3431 
Q 1906 3584 2284 3584 
Q 2666 3584 2933 3390 
Q 3200 3197 3328 2828 
z
" transform="scale(0.015625)"/>
      </defs>
      <use xlink:href="#DejaVuSans-42"/>
      <use xlink:href="#DejaVuSans-72" x="68.603516"/>
      <use xlink:href="#DejaVuSans-69" x="109.716797"/>
      <use xlink:href="#DejaVuSans-61" x="137.5"/>
      <use xlink:href="#DejaVuSans-6e" x="198.779297"/>
      <use xlink:href="#DejaVuSans-20" x="262.158203"/>
      <use xlink:href="#DejaVuSans-44" x="293.945312"/>
      <use xlink:href="#DejaVuSans-65" x="370.947266"/>
      <use xlink:href="#DejaVuSans-20" x="432.470703"/>
      <use xlink:href="#DejaVuSans-50" x="464.257812"/>
      <use xlink:href="#DejaVuSans-61" x="520.060547"/>
      <use xlink:href="#DejaVuSans-6c" x="581.339844"/>
      <use xlink:href="#DejaVuSans-6d" x="609.123047"/>
      <use xlink:href="#DejaVuSans-61" x="706.535156"/>
     </g>
    </g>
   </g>
   <g id="text_2">
    <g id="patch_3">
     <path d="M 441.763107 229.441497 
L 514.729201 229.441497 
L 514.729201 212.811185 
L 441.763107 212.811185 
z
" clip-path="url(#p787bce83df)" style="fill: #ffffff; opacity: 0.7; stroke: #000000; stroke-linejoin: miter"/>
    </g>
    <g clip-path="url(#p787bce83df)">
     <!-- William Hanna -->
     <g transform="translate(445.723107 223.609778)scale(0.09 -0.09)">
      <defs>
       <path id="DejaVuSans-57" d="M 213 4666 
L 850 4666 
L 1831 722 
L 2809 4666 
L 3519 4666 
L 4500 722 
L 5478 4666 
L 6119 4666 
L 4947 0 
L 4153 0 
L 3169 4050 
L 2175 0 
L 1381 0 
L 213 4666 
z
" transform="scale(0.015625)"/>
       <path id="DejaVuSans-48" d="M 628 4666 
L 1259 4666 
L 1259 2753 
L 3553 2753 
L 3553 4666 
L 4184 4666 
L 4184 0 
L 3553 0 
L 3553 2222 
L 1259 2222 
L 1259 0 
L 628 0 
L 628 4666 
z
" transform="scale(0.015625)"/>
      </defs>
      <use xlink:href="#DejaVuSans-57"/>
      <use xlink:href="#DejaVuSans-69" x="96.626953"/>
      <use xlink:href="#DejaVuSans-6c" x="124.410156"/>
      <use xlink:href="#DejaVuSans-6c" x="152.193359"/>
      <use xlink:href="#DejaVuSans-69" x="179.976562"/>
      <use xlink:href="#DejaVuSans-61" x="207.759766"/>
      <use xlink:href="#DejaVuSans-6d" x="269.039062"/>
      <use xlink:href="#DejaVuSans-20" x="366.451172"/>
      <use xlink:href="#DejaVuSans-48" x="398.238281"/>
      <use xlink:href="#DejaVuSans-61" x="473.433594"/>
      <use xlink:href="#DejaVuSans-6e" x="534.712891"/>
      <use xlink:href="#DejaVuSans-6e" x="598.091797"/>
      <use xlink:href="#DejaVuSans-61" x="661.470703"/>
     </g>
    </g>
   </g>
   <g id="text_3">
    <g id="patch_4">
     <path d="M 389.933469 159.429988 
L 466.375813 159.429988 
L 466.375813 142.799675 
L 389.933469 142.799675 
z
" clip-path="url(#p787bce83df)" style="fill: #ffffff; opacity: 0.7; stroke: #000000; stroke-linejoin: miter"/>
    </g>
    <g clip-path="url(#p787bce83df)">
     <!-- Joseph Barbera -->
     <g transform="translate(393.893469 153.598269)scale(0.09 -0.09)">
      <defs>
       <path id="DejaVuSans-4a" d="M 628 4666 
L 1259 4666 
L 1259 325 
Q 1259 -519 939 -900 
Q 619 -1281 -91 -1281 
L -331 -1281 
L -331 -750 
L -134 -750 
Q 284 -750 456 -515 
Q 628 -281 628 325 
L 628 4666 
z
" transform="scale(0.015625)"/>
       <path id="DejaVuSans-6f" d="M 1959 3097 
Q 1497 3097 1228 2736 
Q 959 2375 959 1747 
Q 959 1119 1226 758 
Q 1494 397 1959 397 
Q 2419 397 2687 759 
Q 2956 1122 2956 1747 
Q 2956 2369 2687 2733 
Q 2419 3097 1959 3097 
z
M 1959 3584 
Q 2709 3584 3137 3096 
Q 3566 2609 3566 1747 
Q 3566 888 3137 398 
Q 2709 -91 1959 -91 
Q 1206 -91 779 398 
Q 353 888 353 1747 
Q 353 2609 779 3096 
Q 1206 3584 1959 3584 
z
" transform="scale(0.015625)"/>
       <path id="DejaVuSans-73" d="M 2834 3397 
L 2834 2853 
Q 2591 2978 2328 3040 
Q 2066 3103 1784 3103 
Q 1356 3103 1142 2972 
Q 928 2841 928 2578 
Q 928 2378 1081 2264 
Q 1234 2150 1697 2047 
L 1894 2003 
Q 2506 1872 2764 1633 
Q 3022 1394 3022 966 
Q 3022 478 2636 193 
Q 2250 -91 1575 -91 
Q 1294 -91 989 -36 
Q 684 19 347 128 
L 347 722 
Q 666 556 975 473 
Q 1284 391 1588 391 
Q 1994 391 2212 530 
Q 2431 669 2431 922 
Q 2431 1156 2273 1281 
Q 2116 1406 1581 1522 
L 1381 1569 
Q 847 1681 609 1914 
Q 372 2147 372 2553 
Q 372 3047 722 3315 
Q 1072 3584 1716 3584 
Q 2034 3584 2315 3537 
Q 2597 3491 2834 3397 
z
" transform="scale(0.015625)"/>
       <path id="DejaVuSans-70" d="M 1159 525 
L 1159 -1331 
L 581 -1331 
L 581 3500 
L 1159 3500 
L 1159 2969 
Q 1341 3281 1617 3432 
Q 1894 3584 2278 3584 
Q 2916 3584 3314 3078 
Q 3713 2572 3713 1747 
Q 3713 922 3314 415 
Q 2916 -91 2278 -91 
Q 1894 -91 1617 61 
Q 1341 213 1159 525 
z
M 3116 1747 
Q 3116 2381 2855 2742 
Q 2594 3103 2138 3103 
Q 1681 3103 1420 2742 
Q 1159 2381 1159 1747 
Q 1159 1113 1420 752 
Q 1681 391 2138 391 
Q 2594 391 2855 752 
Q 3116 1113 3116 1747 
z
" transform="scale(0.015625)"/>
       <path id="DejaVuSans-68" d="M 3513 2113 
L 3513 0 
L 2938 0 
L 2938 2094 
Q 2938 2591 2744 2837 
Q 2550 3084 2163 3084 
Q 1697 3084 1428 2787 
Q 1159 2491 1159 1978 
L 1159 0 
L 581 0 
L 581 4863 
L 1159 4863 
L 1159 2956 
Q 1366 3272 1645 3428 
Q 1925 3584 2291 3584 
Q 2894 3584 3203 3211 
Q 3513 2838 3513 2113 
z
" transform="scale(0.015625)"/>
       <path id="DejaVuSans-62" d="M 3116 1747 
Q 3116 2381 2855 2742 
Q 2594 3103 2138 3103 
Q 1681 3103 1420 2742 
Q 1159 2381 1159 1747 
Q 1159 1113 1420 752 
Q 1681 391 2138 391 
Q 2594 391 2855 752 
Q 3116 1113 3116 1747 
z
M 1159 2969 
Q 1341 3281 1617 3432 
Q 1894 3584 2278 3584 
Q 2916 3584 3314 3078 
Q 3713 2572 3713 1747 
Q 3713 922 3314 415 
Q 2916 -91 2278 -91 
Q 1894 -91 1617 61 
Q 1341 213 1159 525 
L 1159 0 
L 581 0 
L 581 4863 
L 1159 4863 
L 1159 2969 
z
" transform="scale(0.015625)"/>
      </defs>
      <use xlink:href="#DejaVuSans-4a"/>
      <use xlink:href="#DejaVuSans-6f" x="29.492188"/>
      <use xlink:href="#DejaVuSans-73" x="90.673828"/>
      <use xlink:href="#DejaVuSans-65" x="142.773438"/>
      <use xlink:href="#DejaVuSans-70" x="204.296875"/>
      <use xlink:href="#DejaVuSans-68" x="267.773438"/>
      <use xlink:href="#DejaVuSans-20" x="331.152344"/>
      <use xlink:href="#DejaVuSans-42" x="362.939453"/>
      <use xlink:href="#DejaVuSans-61" x="431.542969"/>
      <use xlink:href="#DejaVuSans-72" x="492.822266"/>
      <use xlink:href="#DejaVuSans-62" x="533.935547"/>
      <use xlink:href="#DejaVuSans-65" x="597.412109"/>
      <use xlink:href="#DejaVuSans-72" x="658.935547"/>
      <use xlink:href="#DejaVuSans-61" x="700.048828"/>
     </g>
    </g>
   </g>
   <g id="text_4">
    <g id="patch_5">
     <path d="M 312.050594 116.160506 
L 396.652 116.160506 
L 396.652 99.530193 
L 312.050594 99.530193 
z
" clip-path="url(#p787bce83df)" style="fill: #ffffff; opacity: 0.7; stroke: #000000; stroke-linejoin: miter"/>
    </g>
    <g clip-path="url(#p787bce83df)">
     <!-- Steven Spielberg -->
     <g transform="translate(316.010594 110.328787)scale(0.09 -0.09)">
      <defs>
       <path id="DejaVuSans-53" d="M 3425 4513 
L 3425 3897 
Q 3066 4069 2747 4153 
Q 2428 4238 2131 4238 
Q 1616 4238 1336 4038 
Q 1056 3838 1056 3469 
Q 1056 3159 1242 3001 
Q 1428 2844 1947 2747 
L 2328 2669 
Q 3034 2534 3370 2195 
Q 3706 1856 3706 1288 
Q 3706 609 3251 259 
Q 2797 -91 1919 -91 
Q 1588 -91 1214 -16 
Q 841 59 441 206 
L 441 856 
Q 825 641 1194 531 
Q 1563 422 1919 422 
Q 2459 422 2753 634 
Q 3047 847 3047 1241 
Q 3047 1584 2836 1778 
Q 2625 1972 2144 2069 
L 1759 2144 
Q 1053 2284 737 2584 
Q 422 2884 422 3419 
Q 422 4038 858 4394 
Q 1294 4750 2059 4750 
Q 2388 4750 2728 4690 
Q 3069 4631 3425 4513 
z
" transform="scale(0.015625)"/>
       <path id="DejaVuSans-74" d="M 1172 4494 
L 1172 3500 
L 2356 3500 
L 2356 3053 
L 1172 3053 
L 1172 1153 
Q 1172 725 1289 603 
Q 1406 481 1766 481 
L 2356 481 
L 2356 0 
L 1766 0 
Q 1100 0 847 248 
Q 594 497 594 1153 
L 594 3053 
L 172 3053 
L 172 3500 
L 594 3500 
L 594 4494 
L 1172 4494 
z
" transform="scale(0.015625)"/>
       <path id="DejaVuSans-76" d="M 191 3500 
L 800 3500 
L 1894 563 
L 2988 3500 
L 3597 3500 
L 2284 0 
L 1503 0 
L 191 3500 
z
" transform="scale(0.015625)"/>
       <path id="DejaVuSans-67" d="M 2906 1791 
Q 2906 2416 2648 2759 
Q 2391 3103 1925 3103 
Q 1463 3103 1205 2759 
Q 947 2416 947 1791 
Q 947 1169 1205 825 
Q 1463 481 1925 481 
Q 2391 481 2648 825 
Q 2906 1169 2906 1791 
z
M 3481 434 
Q 3481 -459 3084 -895 
Q 2688 -1331 1869 -1331 
Q 1566 -1331 1297 -1286 
Q 1028 -1241 775 -1147 
L 775 -588 
Q 1028 -725 1275 -790 
Q 1522 -856 1778 -856 
Q 2344 -856 2625 -561 
Q 2906 -266 2906 331 
L 2906 616 
Q 2728 306 2450 153 
Q 2172 0 1784 0 
Q 1141 0 747 490 
Q 353 981 353 1791 
Q 353 2603 747 3093 
Q 1141 3584 1784 3584 
Q 2172 3584 2450 3431 
Q 2728 3278 2906 2969 
L 2906 3500 
L 3481 3500 
L 3481 434 
z
" transform="scale(0.015625)"/>
      </defs>
      <use xlink:href="#DejaVuSans-53"/>
      <use xlink:href="#DejaVuSans-74" x="63.476562"/>
      <use xlink:href="#DejaVuSans-65" x="102.685547"/>
      <use xlink:href="#DejaVuSans-76" x="164.208984"/>
      <use xlink:href="#DejaVuSans-65" x="223.388672"/>
      <use xlink:href="#DejaVuSans-6e" x="284.912109"/>
      <use xlink:href="#DejaVuSans-20" x="348.291016"/>
      <use xlink:href="#DejaVuSans-53" x="380.078125"/>
      <use xlink:href="#DejaVuSans-70" x="443.554688"/>
      <use xlink:href="#DejaVuSans-69" x="507.03125"/>
      <use xlink:href="#DejaVuSans-65" x="534.814453"/>
      <use xlink:href="#DejaVuSans-6c" x="596.337891"/>
      <use xlink:href="#DejaVuSans-62" x="624.121094"/>
      <use xlink:href="#DejaVuSans-65" x="687.597656"/>
      <use xlink:href="#DejaVuSans-72" x="749.121094"/>
      <use xlink:href="#DejaVuSans-67" x="788.484375"/>
     </g>
    </g>
   </g>
   <g id="text_5">
    <g id="patch_6">
     <path d="M 238.235187 107.114721 
L 300.959562 107.114721 
L 300.959562 90.484408 
L 238.235187 90.484408 
z
" clip-path="url(#p787bce83df)" style="fill: #ffffff; opacity: 0.7; stroke: #000000; stroke-linejoin: miter"/>
    </g>
    <g clip-path="url(#p787bce83df)">
     <!-- Chuck Jones -->
     <g transform="translate(242.195187 101.283002)scale(0.09 -0.09)">
      <defs>
       <path id="DejaVuSans-43" d="M 4122 4306 
L 4122 3641 
Q 3803 3938 3442 4084 
Q 3081 4231 2675 4231 
Q 1875 4231 1450 3742 
Q 1025 3253 1025 2328 
Q 1025 1406 1450 917 
Q 1875 428 2675 428 
Q 3081 428 3442 575 
Q 3803 722 4122 1019 
L 4122 359 
Q 3791 134 3420 21 
Q 3050 -91 2638 -91 
Q 1578 -91 968 557 
Q 359 1206 359 2328 
Q 359 3453 968 4101 
Q 1578 4750 2638 4750 
Q 3056 4750 3426 4639 
Q 3797 4528 4122 4306 
z
" transform="scale(0.015625)"/>
       <path id="DejaVuSans-75" d="M 544 1381 
L 544 3500 
L 1119 3500 
L 1119 1403 
Q 1119 906 1312 657 
Q 1506 409 1894 409 
Q 2359 409 2629 706 
Q 2900 1003 2900 1516 
L 2900 3500 
L 3475 3500 
L 3475 0 
L 2900 0 
L 2900 538 
Q 2691 219 2414 64 
Q 2138 -91 1772 -91 
Q 1169 -91 856 284 
Q 544 659 544 1381 
z
M 1991 3584 
L 1991 3584 
z
" transform="scale(0.015625)"/>
       <path id="DejaVuSans-63" d="M 3122 3366 
L 3122 2828 
Q 2878 2963 2633 3030 
Q 2388 3097 2138 3097 
Q 1578 3097 1268 2742 
Q 959 2388 959 1747 
Q 959 1106 1268 751 
Q 1578 397 2138 397 
Q 2388 397 2633 464 
Q 2878 531 3122 666 
L 3122 134 
Q 2881 22 2623 -34 
Q 2366 -91 2075 -91 
Q 1284 -91 818 406 
Q 353 903 353 1747 
Q 353 2603 823 3093 
Q 1294 3584 2113 3584 
Q 2378 3584 2631 3529 
Q 2884 3475 3122 3366 
z
" transform="scale(0.015625)"/>
       <path id="DejaVuSans-6b" d="M 581 4863 
L 1159 4863 
L 1159 1991 
L 2875 3500 
L 3609 3500 
L 1753 1863 
L 3688 0 
L 2938 0 
L 1159 1709 
L 1159 0 
L 581 0 
L 581 4863 
z
" transform="scale(0.015625)"/>
      </defs>
      <use xlink:href="#DejaVuSans-43"/>
      <use xlink:href="#DejaVuSans-68" x="69.824219"/>
      <use xlink:href="#DejaVuSans-75" x="133.203125"/>
      <use xlink:href="#DejaVuSans-63" x="196.582031"/>
      <use xlink:href="#DejaVuSans-6b" x="251.5625"/>
      <use xlink:href="#DejaVuSans-20" x="309.472656"/>
      <use xlink:href="#DejaVuSans-4a" x="341.259766"/>
      <use xlink:href="#DejaVuSans-6f" x="370.751953"/>
      <use xlink:href="#DejaVuSans-6e" x="431.933594"/>
      <use xlink:href="#DejaVuSans-65" x="495.3125"/>
      <use xlink:href="#DejaVuSans-73" x="556.835938"/>
     </g>
    </g>
   </g>
   <g id="text_6">
    <g id="patch_7">
     <path d="M 157.825263 133.856741 
L 219.26995 133.856741 
L 219.26995 117.226429 
L 157.825263 117.226429 
z
" clip-path="url(#p787bce83df)" style="fill: #ffffff; opacity: 0.7; stroke: #000000; stroke-linejoin: miter"/>
    </g>
    <g clip-path="url(#p787bce83df)">
     <!-- Wes Craven -->
     <g transform="translate(161.785263 128.025023)scale(0.09 -0.09)">
      <use xlink:href="#DejaVuSans-57"/>
      <use xlink:href="#DejaVuSans-65" x="93.001953"/>
      <use xlink:href="#DejaVuSans-73" x="154.525391"/>
      <use xlink:href="#DejaVuSans-20" x="206.625"/>
      <use xlink:href="#DejaVuSans-43" x="238.412109"/>
      <use xlink:href="#DejaVuSans-72" x="308.236328"/>
      <use xlink:href="#DejaVuSans-61" x="349.349609"/>
      <use xlink:href="#DejaVuSans-76" x="410.628906"/>
      <use xlink:href="#DejaVuSans-65" x="469.808594"/>
      <use xlink:href="#DejaVuSans-6e" x="531.332031"/>
     </g>
    </g>
   </g>
   <g id="text_7">
    <g id="patch_8">
     <path d="M 93.477886 191.762615 
L 156.954605 191.762615 
L 156.954605 175.132303 
L 93.477886 175.132303 
z
" clip-path="url(#p787bce83df)" style="fill: #ffffff; opacity: 0.7; stroke: #000000; stroke-linejoin: miter"/>
    </g>
    <g clip-path="url(#p787bce83df)">
     <!-- Joe Johnston -->
     <g transform="translate(97.437886 185.930897)scale(0.09 -0.09)">
      <use xlink:href="#DejaVuSans-4a"/>
      <use xlink:href="#DejaVuSans-6f" x="29.492188"/>
      <use xlink:href="#DejaVuSans-65" x="90.673828"/>
      <use xlink:href="#DejaVuSans-20" x="152.197266"/>
      <use xlink:href="#DejaVuSans-4a" x="183.984375"/>
      <use xlink:href="#DejaVuSans-6f" x="213.476562"/>
      <use xlink:href="#DejaVuSans-68" x="274.658203"/>
      <use xlink:href="#DejaVuSans-6e" x="338.037109"/>
      <use xlink:href="#DejaVuSans-73" x="401.416016"/>
      <use xlink:href="#DejaVuSans-74" x="453.515625"/>
      <use xlink:href="#DejaVuSans-6f" x="492.724609"/>
      <use xlink:href="#DejaVuSans-6e" x="553.90625"/>
     </g>
    </g>
   </g>
   <g id="text_8">
    <g id="patch_9">
     <path d="M 43.298209 270.819916 
L 137.809459 270.819916 
L 137.809459 254.189603 
L 43.298209 254.189603 
z
" clip-path="url(#p787bce83df)" style="fill: #ffffff; opacity: 0.7; stroke: #000000; stroke-linejoin: miter"/>
    </g>
    <g clip-path="url(#p787bce83df)">
     <!-- Steven Soderbergh -->
     <g transform="translate(47.258209 264.988197)scale(0.09 -0.09)">
      <defs>
       <path id="DejaVuSans-64" d="M 2906 2969 
L 2906 4863 
L 3481 4863 
L 3481 0 
L 2906 0 
L 2906 525 
Q 2725 213 2448 61 
Q 2172 -91 1784 -91 
Q 1150 -91 751 415 
Q 353 922 353 1747 
Q 353 2572 751 3078 
Q 1150 3584 1784 3584 
Q 2172 3584 2448 3432 
Q 2725 3281 2906 2969 
z
M 947 1747 
Q 947 1113 1208 752 
Q 1469 391 1925 391 
Q 2381 391 2643 752 
Q 2906 1113 2906 1747 
Q 2906 2381 2643 2742 
Q 2381 3103 1925 3103 
Q 1469 3103 1208 2742 
Q 947 2381 947 1747 
z
" transform="scale(0.015625)"/>
      </defs>
      <use xlink:href="#DejaVuSans-53"/>
      <use xlink:href="#DejaVuSans-74" x="63.476562"/>
      <use xlink:href="#DejaVuSans-65" x="102.685547"/>
      <use xlink:href="#DejaVuSans-76" x="164.208984"/>
      <use xlink:href="#DejaVuSans-65" x="223.388672"/>
      <use xlink:href="#DejaVuSans-6e" x="284.912109"/>
      <use xlink:href="#DejaVuSans-20" x="348.291016"/>
      <use xlink:href="#DejaVuSans-53" x="380.078125"/>
      <use xlink:href="#DejaVuSans-6f" x="443.554688"/>
      <use xlink:href="#DejaVuSans-64" x="504.736328"/>
      <use xlink:href="#DejaVuSans-65" x="568.212891"/>
      <use xlink:href="#DejaVuSans-72" x="629.736328"/>
      <use xlink:href="#DejaVuSans-62" x="670.849609"/>
      <use xlink:href="#DejaVuSans-65" x="734.326172"/>
      <use xlink:href="#DejaVuSans-72" x="795.849609"/>
      <use xlink:href="#DejaVuSans-67" x="835.212891"/>
      <use xlink:href="#DejaVuSans-68" x="898.689453"/>
     </g>
    </g>
   </g>
   <g id="text_9">
    <g id="patch_10">
     <path d="M 60.932596 357.358892 
L 120.175096 357.358892 
L 120.175096 340.72858 
L 60.932596 340.72858 
z
" clip-path="url(#p787bce83df)" style="fill: #ffffff; opacity: 0.7; stroke: #000000; stroke-linejoin: miter"/>
    </g>
    <g clip-path="url(#p787bce83df)">
     <!-- Friz Freleng -->
     <g transform="translate(64.892596 351.527174)scale(0.09 -0.09)">
      <defs>
       <path id="DejaVuSans-46" d="M 628 4666 
L 3309 4666 
L 3309 4134 
L 1259 4134 
L 1259 2759 
L 3109 2759 
L 3109 2228 
L 1259 2228 
L 1259 0 
L 628 0 
L 628 4666 
z
" transform="scale(0.015625)"/>
       <path id="DejaVuSans-7a" d="M 353 3500 
L 3084 3500 
L 3084 2975 
L 922 459 
L 3084 459 
L 3084 0 
L 275 0 
L 275 525 
L 2438 3041 
L 353 3041 
L 353 3500 
z
" transform="scale(0.015625)"/>
      </defs>
      <use xlink:href="#DejaVuSans-46"/>
      <use xlink:href="#DejaVuSans-72" x="50.269531"/>
      <use xlink:href="#DejaVuSans-69" x="91.382812"/>
      <use xlink:href="#DejaVuSans-7a" x="119.166016"/>
      <use xlink:href="#DejaVuSans-20" x="171.65625"/>
      <use xlink:href="#DejaVuSans-46" x="203.443359"/>
      <use xlink:href="#DejaVuSans-72" x="253.712891"/>
      <use xlink:href="#DejaVuSans-65" x="292.576172"/>
      <use xlink:href="#DejaVuSans-6c" x="354.099609"/>
      <use xlink:href="#DejaVuSans-65" x="381.882812"/>
      <use xlink:href="#DejaVuSans-6e" x="443.40625"/>
      <use xlink:href="#DejaVuSans-67" x="506.785156"/>
     </g>
    </g>
   </g>
   <g id="text_10">
    <g id="patch_11">
     <path d="M 85.308992 436.416168 
L 165.123524 436.416168 
L 165.123524 419.785856 
L 85.308992 419.785856 
z
" clip-path="url(#p787bce83df)" style="fill: #ffffff; opacity: 0.7; stroke: #000000; stroke-linejoin: miter"/>
    </g>
    <g clip-path="url(#p787bce83df)">
     <!-- Martin Scorsese -->
     <g transform="translate(89.268992 430.584449)scale(0.09 -0.09)">
      <defs>
       <path id="DejaVuSans-4d" d="M 628 4666 
L 1569 4666 
L 2759 1491 
L 3956 4666 
L 4897 4666 
L 4897 0 
L 4281 0 
L 4281 4097 
L 3078 897 
L 2444 897 
L 1241 4097 
L 1241 0 
L 628 0 
L 628 4666 
z
" transform="scale(0.015625)"/>
      </defs>
      <use xlink:href="#DejaVuSans-4d"/>
      <use xlink:href="#DejaVuSans-61" x="86.279297"/>
      <use xlink:href="#DejaVuSans-72" x="147.558594"/>
      <use xlink:href="#DejaVuSans-74" x="188.671875"/>
      <use xlink:href="#DejaVuSans-69" x="227.880859"/>
      <use xlink:href="#DejaVuSans-6e" x="255.664062"/>
      <use xlink:href="#DejaVuSans-20" x="319.042969"/>
      <use xlink:href="#DejaVuSans-53" x="350.830078"/>
      <use xlink:href="#DejaVuSans-63" x="414.306641"/>
      <use xlink:href="#DejaVuSans-6f" x="469.287109"/>
      <use xlink:href="#DejaVuSans-72" x="530.46875"/>
      <use xlink:href="#DejaVuSans-73" x="571.582031"/>
      <use xlink:href="#DejaVuSans-65" x="623.681641"/>
      <use xlink:href="#DejaVuSans-73" x="685.205078"/>
      <use xlink:href="#DejaVuSans-65" x="737.304688"/>
     </g>
    </g>
   </g>
   <g id="text_11">
    <g id="patch_12">
     <path d="M 156.745997 494.322042 
L 220.349278 494.322042 
L 220.349278 477.69173 
L 156.745997 477.69173 
z
" clip-path="url(#p787bce83df)" style="fill: #ffffff; opacity: 0.7; stroke: #000000; stroke-linejoin: miter"/>
    </g>
    <g clip-path="url(#p787bce83df)">
     <!-- Woody Allen -->
     <g transform="translate(160.705997 488.490323)scale(0.09 -0.09)">
      <defs>
       <path id="DejaVuSans-79" d="M 2059 -325 
Q 1816 -950 1584 -1140 
Q 1353 -1331 966 -1331 
L 506 -1331 
L 506 -850 
L 844 -850 
Q 1081 -850 1212 -737 
Q 1344 -625 1503 -206 
L 1606 56 
L 191 3500 
L 800 3500 
L 1894 763 
L 2988 3500 
L 3597 3500 
L 2059 -325 
z
" transform="scale(0.015625)"/>
       <path id="DejaVuSans-41" d="M 2188 4044 
L 1331 1722 
L 3047 1722 
L 2188 4044 
z
M 1831 4666 
L 2547 4666 
L 4325 0 
L 3669 0 
L 3244 1197 
L 1141 1197 
L 716 0 
L 50 0 
L 1831 4666 
z
" transform="scale(0.015625)"/>
      </defs>
      <use xlink:href="#DejaVuSans-57"/>
      <use xlink:href="#DejaVuSans-6f" x="93.001953"/>
      <use xlink:href="#DejaVuSans-6f" x="154.183594"/>
      <use xlink:href="#DejaVuSans-64" x="215.365234"/>
      <use xlink:href="#DejaVuSans-79" x="278.841797"/>
      <use xlink:href="#DejaVuSans-20" x="338.021484"/>
      <use xlink:href="#DejaVuSans-41" x="369.808594"/>
      <use xlink:href="#DejaVuSans-6c" x="438.216797"/>
      <use xlink:href="#DejaVuSans-6c" x="466"/>
      <use xlink:href="#DejaVuSans-65" x="493.783203"/>
      <use xlink:href="#DejaVuSans-6e" x="555.306641"/>
     </g>
    </g>
   </g>
   <g id="text_12">
    <g id="patch_13">
     <path d="M 238.678192 521.06405 
L 300.51663 521.06405 
L 300.51663 504.433738 
L 238.678192 504.433738 
z
" clip-path="url(#p787bce83df)" style="fill: #ffffff; opacity: 0.7; stroke: #000000; stroke-linejoin: miter"/>
    </g>
    <g clip-path="url(#p787bce83df)">
     <!-- Ridley Scott -->
     <g transform="translate(242.638192 515.232332)scale(0.09 -0.09)">
      <defs>
       <path id="DejaVuSans-52" d="M 2841 2188 
Q 3044 2119 3236 1894 
Q 3428 1669 3622 1275 
L 4263 0 
L 3584 0 
L 2988 1197 
Q 2756 1666 2539 1819 
Q 2322 1972 1947 1972 
L 1259 1972 
L 1259 0 
L 628 0 
L 628 4666 
L 2053 4666 
Q 2853 4666 3247 4331 
Q 3641 3997 3641 3322 
Q 3641 2881 3436 2590 
Q 3231 2300 2841 2188 
z
M 1259 4147 
L 1259 2491 
L 2053 2491 
Q 2509 2491 2742 2702 
Q 2975 2913 2975 3322 
Q 2975 3731 2742 3939 
Q 2509 4147 2053 4147 
L 1259 4147 
z
" transform="scale(0.015625)"/>
      </defs>
      <use xlink:href="#DejaVuSans-52"/>
      <use xlink:href="#DejaVuSans-69" x="69.482422"/>
      <use xlink:href="#DejaVuSans-64" x="97.265625"/>
      <use xlink:href="#DejaVuSans-6c" x="160.742188"/>
      <use xlink:href="#DejaVuSans-65" x="188.525391"/>
      <use xlink:href="#DejaVuSans-79" x="250.048828"/>
      <use xlink:href="#DejaVuSans-20" x="309.228516"/>
      <use xlink:href="#DejaVuSans-53" x="341.015625"/>
      <use xlink:href="#DejaVuSans-63" x="404.492188"/>
      <use xlink:href="#DejaVuSans-6f" x="459.472656"/>
      <use xlink:href="#DejaVuSans-74" x="520.654297"/>
      <use xlink:href="#DejaVuSans-74" x="559.863281"/>
     </g>
    </g>
   </g>
   <g id="text_13">
    <g id="patch_14">
     <path d="M 325.561172 512.018253 
L 383.141484 512.018253 
L 383.141484 495.38794 
L 325.561172 495.38794 
z
" clip-path="url(#p787bce83df)" style="fill: #ffffff; opacity: 0.7; stroke: #000000; stroke-linejoin: miter"/>
    </g>
    <g clip-path="url(#p787bce83df)">
     <!-- Tim Burton -->
     <g transform="translate(329.521172 506.186534)scale(0.09 -0.09)">
      <defs>
       <path id="DejaVuSans-54" d="M -19 4666 
L 3928 4666 
L 3928 4134 
L 2272 4134 
L 2272 0 
L 1638 0 
L 1638 4134 
L -19 4134 
L -19 4666 
z
" transform="scale(0.015625)"/>
      </defs>
      <use xlink:href="#DejaVuSans-54"/>
      <use xlink:href="#DejaVuSans-69" x="57.958984"/>
      <use xlink:href="#DejaVuSans-6d" x="85.742188"/>
      <use xlink:href="#DejaVuSans-20" x="183.154297"/>
      <use xlink:href="#DejaVuSans-42" x="214.941406"/>
      <use xlink:href="#DejaVuSans-75" x="283.544922"/>
      <use xlink:href="#DejaVuSans-72" x="346.923828"/>
      <use xlink:href="#DejaVuSans-74" x="388.037109"/>
      <use xlink:href="#DejaVuSans-6f" x="427.246094"/>
      <use xlink:href="#DejaVuSans-6e" x="488.427734"/>
     </g>
    </g>
   </g>
   <g id="text_14">
    <g id="patch_15">
     <path d="M 400.09999 468.748746 
L 456.209365 468.748746 
L 456.209365 452.118433 
L 400.09999 452.118433 
z
" clip-path="url(#p787bce83df)" style="fill: #ffffff; opacity: 0.7; stroke: #000000; stroke-linejoin: miter"/>
    </g>
    <g clip-path="url(#p787bce83df)">
     <!-- Sam Raimi -->
     <g transform="translate(404.05999 462.917027)scale(0.09 -0.09)">
      <use xlink:href="#DejaVuSans-53"/>
      <use xlink:href="#DejaVuSans-61" x="63.476562"/>
      <use xlink:href="#DejaVuSans-6d" x="124.755859"/>
      <use xlink:href="#DejaVuSans-20" x="222.167969"/>
      <use xlink:href="#DejaVuSans-52" x="253.955078"/>
      <use xlink:href="#DejaVuSans-61" x="321.1875"/>
      <use xlink:href="#DejaVuSans-69" x="382.466797"/>
      <use xlink:href="#DejaVuSans-6d" x="410.25"/>
      <use xlink:href="#DejaVuSans-69" x="507.662109"/>
     </g>
    </g>
   </g>
   <g id="text_15">
    <g id="patch_16">
     <path d="M 440.460944 398.737243 
L 516.031413 398.737243 
L 516.031413 382.106931 
L 440.460944 382.106931 
z
" clip-path="url(#p787bce83df)" style="fill: #ffffff; opacity: 0.7; stroke: #000000; stroke-linejoin: miter"/>
    </g>
    <g clip-path="url(#p787bce83df)">
     <!-- John Carpenter -->
     <g transform="translate(444.420944 392.905524)scale(0.09 -0.09)">
      <use xlink:href="#DejaVuSans-4a"/>
      <use xlink:href="#DejaVuSans-6f" x="29.492188"/>
      <use xlink:href="#DejaVuSans-68" x="90.673828"/>
      <use xlink:href="#DejaVuSans-6e" x="154.052734"/>
      <use xlink:href="#DejaVuSans-20" x="217.431641"/>
      <use xlink:href="#DejaVuSans-43" x="249.21875"/>
      <use xlink:href="#DejaVuSans-61" x="319.042969"/>
      <use xlink:href="#DejaVuSans-72" x="380.322266"/>
      <use xlink:href="#DejaVuSans-70" x="421.435547"/>
      <use xlink:href="#DejaVuSans-65" x="484.912109"/>
      <use xlink:href="#DejaVuSans-6e" x="546.435547"/>
      <use xlink:href="#DejaVuSans-74" x="609.814453"/>
      <use xlink:href="#DejaVuSans-65" x="649.023438"/>
      <use xlink:href="#DejaVuSans-72" x="710.546875"/>
     </g>
    </g>
   </g>
   <g id="text_16">
    <!-- Impactful directors for Horror genre - Importance rank: 7 -->
    <g transform="translate(113.999062 16.318125)scale(0.12 -0.12)">
     <defs>
      <path id="DejaVuSans-49" d="M 628 4666 
L 1259 4666 
L 1259 0 
L 628 0 
L 628 4666 
z
" transform="scale(0.015625)"/>
      <path id="DejaVuSans-66" d="M 2375 4863 
L 2375 4384 
L 1825 4384 
Q 1516 4384 1395 4259 
Q 1275 4134 1275 3809 
L 1275 3500 
L 2222 3500 
L 2222 3053 
L 1275 3053 
L 1275 0 
L 697 0 
L 697 3053 
L 147 3053 
L 147 3500 
L 697 3500 
L 697 3744 
Q 697 4328 969 4595 
Q 1241 4863 1831 4863 
L 2375 4863 
z
" transform="scale(0.015625)"/>
      <path id="DejaVuSans-2d" d="M 313 2009 
L 1997 2009 
L 1997 1497 
L 313 1497 
L 313 2009 
z
" transform="scale(0.015625)"/>
      <path id="DejaVuSans-3a" d="M 750 794 
L 1409 794 
L 1409 0 
L 750 0 
L 750 794 
z
M 750 3309 
L 1409 3309 
L 1409 2516 
L 750 2516 
L 750 3309 
z
" transform="scale(0.015625)"/>
      <path id="DejaVuSans-37" d="M 525 4666 
L 3525 4666 
L 3525 4397 
L 1831 0 
L 1172 0 
L 2766 4134 
L 525 4134 
L 525 4666 
z
" transform="scale(0.015625)"/>
     </defs>
     <use xlink:href="#DejaVuSans-49"/>
     <use xlink:href="#DejaVuSans-6d" x="29.492188"/>
     <use xlink:href="#DejaVuSans-70" x="126.904297"/>
     <use xlink:href="#DejaVuSans-61" x="190.380859"/>
     <use xlink:href="#DejaVuSans-63" x="251.660156"/>
     <use xlink:href="#DejaVuSans-74" x="306.640625"/>
     <use xlink:href="#DejaVuSans-66" x="345.849609"/>
     <use xlink:href="#DejaVuSans-75" x="381.054688"/>
     <use xlink:href="#DejaVuSans-6c" x="444.433594"/>
     <use xlink:href="#DejaVuSans-20" x="472.216797"/>
     <use xlink:href="#DejaVuSans-64" x="504.003906"/>
     <use xlink:href="#DejaVuSans-69" x="567.480469"/>
     <use xlink:href="#DejaVuSans-72" x="595.263672"/>
     <use xlink:href="#DejaVuSans-65" x="634.126953"/>
     <use xlink:href="#DejaVuSans-63" x="695.650391"/>
     <use xlink:href="#DejaVuSans-74" x="750.630859"/>
     <use xlink:href="#DejaVuSans-6f" x="789.839844"/>
     <use xlink:href="#DejaVuSans-72" x="851.021484"/>
     <use xlink:href="#DejaVuSans-73" x="892.134766"/>
     <use xlink:href="#DejaVuSans-20" x="944.234375"/>
     <use xlink:href="#DejaVuSans-66" x="976.021484"/>
     <use xlink:href="#DejaVuSans-6f" x="1011.226562"/>
     <use xlink:href="#DejaVuSans-72" x="1072.408203"/>
     <use xlink:href="#DejaVuSans-20" x="1113.521484"/>
     <use xlink:href="#DejaVuSans-48" x="1145.308594"/>
     <use xlink:href="#DejaVuSans-6f" x="1220.503906"/>
     <use xlink:href="#DejaVuSans-72" x="1281.685547"/>
     <use xlink:href="#DejaVuSans-72" x="1321.048828"/>
     <use xlink:href="#DejaVuSans-6f" x="1359.912109"/>
     <use xlink:href="#DejaVuSans-72" x="1421.09375"/>
     <use xlink:href="#DejaVuSans-20" x="1462.207031"/>
     <use xlink:href="#DejaVuSans-67" x="1493.994141"/>
     <use xlink:href="#DejaVuSans-65" x="1557.470703"/>
     <use xlink:href="#DejaVuSans-6e" x="1618.994141"/>
     <use xlink:href="#DejaVuSans-72" x="1682.373047"/>
     <use xlink:href="#DejaVuSans-65" x="1721.236328"/>
     <use xlink:href="#DejaVuSans-20" x="1782.759766"/>
     <use xlink:href="#DejaVuSans-2d" x="1814.546875"/>
     <use xlink:href="#DejaVuSans-20" x="1850.630859"/>
     <use xlink:href="#DejaVuSans-49" x="1882.417969"/>
     <use xlink:href="#DejaVuSans-6d" x="1911.910156"/>
     <use xlink:href="#DejaVuSans-70" x="2009.322266"/>
     <use xlink:href="#DejaVuSans-6f" x="2072.798828"/>
     <use xlink:href="#DejaVuSans-72" x="2133.980469"/>
     <use xlink:href="#DejaVuSans-74" x="2175.09375"/>
     <use xlink:href="#DejaVuSans-61" x="2214.302734"/>
     <use xlink:href="#DejaVuSans-6e" x="2275.582031"/>
     <use xlink:href="#DejaVuSans-63" x="2338.960938"/>
     <use xlink:href="#DejaVuSans-65" x="2393.941406"/>
     <use xlink:href="#DejaVuSans-20" x="2455.464844"/>
     <use xlink:href="#DejaVuSans-72" x="2487.251953"/>
     <use xlink:href="#DejaVuSans-61" x="2528.365234"/>
     <use xlink:href="#DejaVuSans-6e" x="2589.644531"/>
     <use xlink:href="#DejaVuSans-6b" x="2653.023438"/>
     <use xlink:href="#DejaVuSans-3a" x="2710.933594"/>
     <use xlink:href="#DejaVuSans-20" x="2744.625"/>
     <use xlink:href="#DejaVuSans-37" x="2776.412109"/>
    </g>
   </g>
  </g>
 </g>
 <defs>
  <clipPath id="p787bce83df">
   <rect x="7.2" y="22.318125" width="554.4" height="554.4"/>
  </clipPath>
 </defs>
</svg>
