<?xml version="1.0" encoding="utf-8" standalone="no"?>
<!DOCTYPE svg PUBLIC "-//W3C//DTD SVG 1.1//EN"
  "http://www.w3.org/Graphics/SVG/1.1/DTD/svg11.dtd">
<svg xmlns:xlink="http://www.w3.org/1999/xlink" width="568.8pt" height="583.918125pt" viewBox="0 0 568.8 583.918125" xmlns="http://www.w3.org/2000/svg" version="1.1">
 <metadata>
  <rdf:RDF xmlns:dc="http://purl.org/dc/elements/1.1/" xmlns:cc="http://creativecommons.org/ns#" xmlns:rdf="http://www.w3.org/1999/02/22-rdf-syntax-ns#">
   <cc:Work>
    <dc:type rdf:resource="http://purl.org/dc/dcmitype/StillImage"/>
    <dc:date>2022-12-23T19:50:26.764470</dc:date>
    <dc:format>image/svg+xml</dc:format>
    <dc:creator>
     <cc:Agent>
      <dc:title>Matplotlib v3.5.3, https://matplotlib.org/</dc:title>
     </cc:Agent>
    </dc:creator>
   </cc:Work>
  </rdf:RDF>
 </metadata>
 <defs>
  <style type="text/css">*{stroke-linejoin: round; stroke-linecap: butt}</style>
 </defs>
 <g id="figure_1">
  <g id="patch_1">
   <path d="M 0 583.918125 
L 568.8 583.918125 
L 568.8 0 
L 0 0 
z
" style="fill: #ffffff"/>
  </g>
  <g id="axes_1">
   <g id="LineCollection_1">
    <path d="M 352.264291 84.543718 
L 263.109549 75.234683 
" clip-path="url(#pd4b64795f2)" style="fill: none; stroke: #000000; stroke-opacity: 0.3; stroke-width: 5"/>
   </g>
   <g id="PathCollection_1">
    <path d="M 501.230769 315.618854 
C 508.493655 315.618854 515.46005 312.733279 520.595686 307.597643 
C 525.731322 302.462007 528.616897 295.495612 528.616897 288.232726 
C 528.616897 280.96984 525.731322 274.003445 520.595686 268.867809 
C 515.46005 263.732173 508.493655 260.846598 501.230769 260.846598 
C 493.967883 260.846598 487.001488 263.732173 481.865852 268.867809 
C 476.730217 274.003445 473.844641 280.96984 473.844641 288.232726 
C 473.844641 295.495612 476.730217 302.462007 481.865852 307.597643 
C 487.001488 312.733279 493.967883 315.618854 501.230769 315.618854 
z
" clip-path="url(#pd4b64795f2)" style="fill: #c70039; fill-opacity: 0.99; stroke: #c70039; stroke-opacity: 0.99"/>
    <path d="M 482.592348 223.878231 
C 488.627526 223.878231 494.416332 221.480429 498.683848 217.212914 
C 502.951363 212.945398 505.349165 207.156592 505.349165 201.121414 
C 505.349165 195.086235 502.951363 189.29743 498.683848 185.029914 
C 494.416332 180.762398 488.627526 178.364596 482.592348 178.364596 
C 476.557169 178.364596 470.768364 180.762398 466.500848 185.029914 
C 462.233332 189.29743 459.83553 195.086235 459.83553 201.121414 
C 459.83553 207.156592 462.233332 212.945398 466.500848 217.212914 
C 470.768364 221.480429 476.557169 223.878231 482.592348 223.878231 
z
" clip-path="url(#pd4b64795f2)" style="fill: #c70039; fill-opacity: 0.99; stroke: #c70039; stroke-opacity: 0.99"/>
    <path d="M 429.89985 151.624715 
C 435.880786 151.624715 441.617564 149.248464 445.846724 145.019304 
C 450.075885 140.790143 452.452136 135.053365 452.452136 129.072429 
C 452.452136 123.091493 450.075885 117.354715 445.846724 113.125555 
C 441.617564 108.896394 435.880786 106.520143 429.89985 106.520143 
C 423.918914 106.520143 418.182136 108.896394 413.952976 113.125555 
C 409.723815 117.354715 407.347564 123.091493 407.347564 129.072429 
C 407.347564 135.053365 409.723815 140.790143 413.952976 145.019304 
C 418.182136 149.248464 423.918914 151.624715 429.89985 151.624715 
z
" clip-path="url(#pd4b64795f2)" style="fill: #c70039; fill-opacity: 0.99; stroke: #c70039; stroke-opacity: 0.99"/>
    <path d="M 352.264291 105.75599 
C 357.889852 105.75599 363.285761 103.520932 367.263633 99.54306 
C 371.241505 95.565188 373.476563 90.169279 373.476563 84.543718 
C 373.476563 78.918158 371.241505 73.522249 367.263633 69.544377 
C 363.285761 65.566505 357.889852 63.331446 352.264291 63.331446 
C 346.638731 63.331446 341.242822 65.566505 337.26495 69.544377 
C 333.287078 73.522249 331.052019 78.918158 331.052019 84.543718 
C 331.052019 90.169279 333.287078 95.565188 337.26495 99.54306 
C 341.242822 103.520932 346.638731 105.75599 352.264291 105.75599 
z
" clip-path="url(#pd4b64795f2)" style="fill: #c70039; fill-opacity: 0.99; stroke: #c70039; stroke-opacity: 0.99"/>
    <path d="M 263.109549 96.446955 
C 268.735109 96.446955 274.131018 94.211896 278.10889 90.234024 
C 282.086762 86.256152 284.321821 80.860243 284.321821 75.234683 
C 284.321821 69.609122 282.086762 64.213213 278.10889 60.235341 
C 274.131018 56.257469 268.735109 54.02241 263.109549 54.02241 
C 257.483988 54.02241 252.088079 56.257469 248.110207 60.235341 
C 244.132335 64.213213 241.897276 69.609122 241.897276 75.234683 
C 241.897276 80.860243 244.132335 86.256152 248.110207 90.234024 
C 252.088079 94.211896 257.483988 96.446955 263.109549 96.446955 
z
" clip-path="url(#pd4b64795f2)" style="fill: #c70039; fill-opacity: 0.99; stroke: #c70039; stroke-opacity: 0.99"/>
    <path d="M 177.851298 123.766217 
C 183.423551 123.766217 188.768329 121.552337 192.708507 117.612159 
C 196.648685 113.671981 198.862565 108.327203 198.862565 102.75495 
C 198.862565 97.182697 196.648685 91.837919 192.708507 87.897741 
C 188.768329 83.957563 183.423551 81.743683 177.851298 81.743683 
C 172.279045 81.743683 166.934267 83.957563 162.994089 87.897741 
C 159.053911 91.837919 156.840031 97.182697 156.840031 102.75495 
C 156.840031 108.327203 159.053911 113.671981 162.994089 117.612159 
C 166.934267 121.552337 172.279045 123.766217 177.851298 123.766217 
z
" clip-path="url(#pd4b64795f2)" style="fill: #c70039; fill-opacity: 0.99; stroke: #c70039; stroke-opacity: 0.99"/>
    <path d="M 111.231477 183.240807 
C 116.772844 183.240807 122.087998 181.039199 126.006336 177.12086 
C 129.924675 173.202522 132.126283 167.887368 132.126283 162.346001 
C 132.126283 156.804634 129.924675 151.48948 126.006336 147.571142 
C 122.087998 143.652803 116.772844 141.451195 111.231477 141.451195 
C 105.69011 141.451195 100.374956 143.652803 96.456618 147.571142 
C 92.538279 151.48948 90.336671 156.804634 90.336671 162.346001 
C 90.336671 167.887368 92.538279 173.202522 96.456618 177.12086 
C 100.374956 181.039199 105.69011 183.240807 111.231477 183.240807 
z
" clip-path="url(#pd4b64795f2)" style="fill: #c70039; fill-opacity: 0.99; stroke: #c70039; stroke-opacity: 0.99"/>
    <path d="M 74.769231 264.451554 
C 80.271539 264.451554 85.549228 262.265464 89.439947 258.374744 
C 93.330667 254.484025 95.516757 249.206336 95.516757 243.704028 
C 95.516757 238.201719 93.330667 232.924031 89.439947 229.033311 
C 85.549228 225.142592 80.271539 222.956502 74.769231 222.956502 
C 69.266923 222.956502 63.989234 225.142592 60.098514 229.033311 
C 56.207795 232.924031 54.021705 238.201719 54.021705 243.704028 
C 54.021705 249.206336 56.207795 254.484025 60.098514 258.374744 
C 63.989234 262.265464 69.266923 264.451554 74.769231 264.451554 
z
" clip-path="url(#pd4b64795f2)" style="fill: #c70039; fill-opacity: 0.99; stroke: #c70039; stroke-opacity: 0.99"/>
    <path d="M 74.769244 353.472057 
C 80.261757 353.472057 85.530051 351.289858 89.413845 347.406064 
C 93.297639 343.52227 95.479838 338.253976 95.479838 332.761462 
C 95.479838 327.268949 93.297639 322.000655 89.413845 318.116861 
C 85.530051 314.233067 80.261757 312.050868 74.769244 312.050868 
C 69.27673 312.050868 64.008436 314.233067 60.124642 318.116861 
C 56.240848 322.000655 54.058649 327.268949 54.058649 332.761462 
C 54.058649 338.253976 56.240848 343.52227 60.124642 347.406064 
C 64.008436 351.289858 69.27673 353.472057 74.769244 353.472057 
z
" clip-path="url(#pd4b64795f2)" style="fill: #c70039; fill-opacity: 0.99; stroke: #c70039; stroke-opacity: 0.99"/>
    <path d="M 111.23149 434.742486 
C 116.700779 434.742486 121.946797 432.569514 125.814169 428.702143 
C 129.681541 424.834771 131.854512 419.588753 131.854512 414.119464 
C 131.854512 408.650174 129.681541 403.404156 125.814169 399.536784 
C 121.946797 395.669413 116.700779 393.496441 111.23149 393.496441 
C 105.7622 393.496441 100.516182 395.669413 96.648811 399.536784 
C 92.781439 403.404156 90.608467 408.650174 90.608467 414.119464 
C 90.608467 419.588753 92.781439 424.834771 96.648811 428.702143 
C 100.516182 432.569514 105.7622 434.742486 111.23149 434.742486 
z
" clip-path="url(#pd4b64795f2)" style="fill: #c70039; fill-opacity: 0.99; stroke: #c70039; stroke-opacity: 0.99"/>
    <path d="M 177.85133 493.987992 
C 183.22898 493.987992 188.387099 491.851429 192.189672 488.048856 
C 195.992244 484.246284 198.128807 479.088164 198.128807 473.710515 
C 198.128807 468.332865 195.992244 463.174746 192.189672 459.372173 
C 188.387099 455.569601 183.22898 453.433038 177.85133 453.433038 
C 172.47368 453.433038 167.315561 455.569601 163.512989 459.372173 
C 159.710416 463.174746 157.573853 468.332865 157.573853 473.710515 
C 157.573853 479.088164 159.710416 484.246284 163.512989 488.048856 
C 167.315561 491.851429 172.47368 493.987992 177.85133 493.987992 
z
" clip-path="url(#pd4b64795f2)" style="fill: #c70039; fill-opacity: 0.99; stroke: #c70039; stroke-opacity: 0.99"/>
    <path d="M 263.109587 521.448613 
C 268.471422 521.448613 273.614372 519.318334 277.405762 515.526944 
C 281.197152 511.735554 283.327431 506.592604 283.327431 501.230769 
C 283.327431 495.868934 281.197152 490.725984 277.405762 486.934595 
C 273.614372 483.143205 268.471422 481.012925 263.109587 481.012925 
C 257.747752 481.012925 252.604802 483.143205 248.813412 486.934595 
C 245.022023 490.725984 242.891743 495.868934 242.891743 501.230769 
C 242.891743 506.592604 245.022023 511.735554 248.813412 515.526944 
C 252.604802 519.318334 257.747752 521.448613 263.109587 521.448613 
z
" clip-path="url(#pd4b64795f2)" style="fill: #c70039; fill-opacity: 0.99; stroke: #c70039; stroke-opacity: 0.99"/>
    <path d="M 352.264323 511.959197 
C 357.578324 511.959197 362.675393 509.847922 366.432959 506.090356 
C 370.190525 502.33279 372.3018 497.235722 372.3018 491.921721 
C 372.3018 486.60772 370.190525 481.510651 366.432959 477.753085 
C 362.675393 473.995519 357.578324 471.884244 352.264323 471.884244 
C 346.950322 471.884244 341.853254 473.995519 338.095688 477.753085 
C 334.338122 481.510651 332.226847 486.60772 332.226847 491.921721 
C 332.226847 497.235722 334.338122 502.33279 338.095688 506.090356 
C 341.853254 509.847922 346.950322 511.959197 352.264323 511.959197 
z
" clip-path="url(#pd4b64795f2)" style="fill: #c70039; fill-opacity: 0.99; stroke: #c70039; stroke-opacity: 0.99"/>
    <path d="M 429.899888 467.152838 
C 435.140263 467.152838 440.166711 465.070815 443.872215 461.365311 
C 447.577719 457.659807 449.659742 452.633359 449.659742 447.392984 
C 449.659742 442.15261 447.577719 437.126162 443.872215 433.420658 
C 440.166711 429.715153 435.140263 427.63313 429.899888 427.63313 
C 424.659514 427.63313 419.633066 429.715153 415.927562 433.420658 
C 412.222057 437.126162 410.140035 442.15261 410.140035 447.392984 
C 410.140035 452.633359 412.222057 457.659807 415.927562 461.365311 
C 419.633066 465.070815 424.659514 467.152838 429.899888 467.152838 
z
" clip-path="url(#pd4b64795f2)" style="fill: #c70039; fill-opacity: 0.99; stroke: #c70039; stroke-opacity: 0.99"/>
    <path d="M 482.592374 394.708923 
C 487.728009 394.708923 492.653994 392.668513 496.285437 389.03707 
C 499.91688 385.405627 501.95729 380.479642 501.95729 375.344006 
C 501.95729 370.20837 499.91688 365.282385 496.285437 361.650942 
C 492.653994 358.019499 487.728009 355.979089 482.592374 355.979089 
C 477.456738 355.979089 472.530753 358.019499 468.89931 361.650942 
C 465.267867 365.282385 463.227457 370.20837 463.227457 375.344006 
C 463.227457 380.479642 465.267867 385.405627 468.89931 389.03707 
C 472.530753 392.668513 477.456738 394.708923 482.592374 394.708923 
z
" clip-path="url(#pd4b64795f2)" style="fill: #c70039; fill-opacity: 0.99; stroke: #c70039; stroke-opacity: 0.99"/>
   </g>
   <g id="text_1">
    <g id="patch_2">
     <path d="M 469.868582 296.547882 
L 532.592957 296.547882 
L 532.592957 279.91757 
L 469.868582 279.91757 
z
" clip-path="url(#pd4b64795f2)" style="fill: #ffffff; opacity: 0.7; stroke: #000000; stroke-linejoin: miter"/>
    </g>
    <g clip-path="url(#pd4b64795f2)">
     <!-- Chuck Jones -->
     <g transform="translate(473.828582 290.716163)scale(0.09 -0.09)">
      <defs>
       <path id="DejaVuSans-43" d="M 4122 4306 
L 4122 3641 
Q 3803 3938 3442 4084 
Q 3081 4231 2675 4231 
Q 1875 4231 1450 3742 
Q 1025 3253 1025 2328 
Q 1025 1406 1450 917 
Q 1875 428 2675 428 
Q 3081 428 3442 575 
Q 3803 722 4122 1019 
L 4122 359 
Q 3791 134 3420 21 
Q 3050 -91 2638 -91 
Q 1578 -91 968 557 
Q 359 1206 359 2328 
Q 359 3453 968 4101 
Q 1578 4750 2638 4750 
Q 3056 4750 3426 4639 
Q 3797 4528 4122 4306 
z
" transform="scale(0.015625)"/>
       <path id="DejaVuSans-68" d="M 3513 2113 
L 3513 0 
L 2938 0 
L 2938 2094 
Q 2938 2591 2744 2837 
Q 2550 3084 2163 3084 
Q 1697 3084 1428 2787 
Q 1159 2491 1159 1978 
L 1159 0 
L 581 0 
L 581 4863 
L 1159 4863 
L 1159 2956 
Q 1366 3272 1645 3428 
Q 1925 3584 2291 3584 
Q 2894 3584 3203 3211 
Q 3513 2838 3513 2113 
z
" transform="scale(0.015625)"/>
       <path id="DejaVuSans-75" d="M 544 1381 
L 544 3500 
L 1119 3500 
L 1119 1403 
Q 1119 906 1312 657 
Q 1506 409 1894 409 
Q 2359 409 2629 706 
Q 2900 1003 2900 1516 
L 2900 3500 
L 3475 3500 
L 3475 0 
L 2900 0 
L 2900 538 
Q 2691 219 2414 64 
Q 2138 -91 1772 -91 
Q 1169 -91 856 284 
Q 544 659 544 1381 
z
M 1991 3584 
L 1991 3584 
z
" transform="scale(0.015625)"/>
       <path id="DejaVuSans-63" d="M 3122 3366 
L 3122 2828 
Q 2878 2963 2633 3030 
Q 2388 3097 2138 3097 
Q 1578 3097 1268 2742 
Q 959 2388 959 1747 
Q 959 1106 1268 751 
Q 1578 397 2138 397 
Q 2388 397 2633 464 
Q 2878 531 3122 666 
L 3122 134 
Q 2881 22 2623 -34 
Q 2366 -91 2075 -91 
Q 1284 -91 818 406 
Q 353 903 353 1747 
Q 353 2603 823 3093 
Q 1294 3584 2113 3584 
Q 2378 3584 2631 3529 
Q 2884 3475 3122 3366 
z
" transform="scale(0.015625)"/>
       <path id="DejaVuSans-6b" d="M 581 4863 
L 1159 4863 
L 1159 1991 
L 2875 3500 
L 3609 3500 
L 1753 1863 
L 3688 0 
L 2938 0 
L 1159 1709 
L 1159 0 
L 581 0 
L 581 4863 
z
" transform="scale(0.015625)"/>
       <path id="DejaVuSans-20" transform="scale(0.015625)"/>
       <path id="DejaVuSans-4a" d="M 628 4666 
L 1259 4666 
L 1259 325 
Q 1259 -519 939 -900 
Q 619 -1281 -91 -1281 
L -331 -1281 
L -331 -750 
L -134 -750 
Q 284 -750 456 -515 
Q 628 -281 628 325 
L 628 4666 
z
" transform="scale(0.015625)"/>
       <path id="DejaVuSans-6f" d="M 1959 3097 
Q 1497 3097 1228 2736 
Q 959 2375 959 1747 
Q 959 1119 1226 758 
Q 1494 397 1959 397 
Q 2419 397 2687 759 
Q 2956 1122 2956 1747 
Q 2956 2369 2687 2733 
Q 2419 3097 1959 3097 
z
M 1959 3584 
Q 2709 3584 3137 3096 
Q 3566 2609 3566 1747 
Q 3566 888 3137 398 
Q 2709 -91 1959 -91 
Q 1206 -91 779 398 
Q 353 888 353 1747 
Q 353 2609 779 3096 
Q 1206 3584 1959 3584 
z
" transform="scale(0.015625)"/>
       <path id="DejaVuSans-6e" d="M 3513 2113 
L 3513 0 
L 2938 0 
L 2938 2094 
Q 2938 2591 2744 2837 
Q 2550 3084 2163 3084 
Q 1697 3084 1428 2787 
Q 1159 2491 1159 1978 
L 1159 0 
L 581 0 
L 581 3500 
L 1159 3500 
L 1159 2956 
Q 1366 3272 1645 3428 
Q 1925 3584 2291 3584 
Q 2894 3584 3203 3211 
Q 3513 2838 3513 2113 
z
" transform="scale(0.015625)"/>
       <path id="DejaVuSans-65" d="M 3597 1894 
L 3597 1613 
L 953 1613 
Q 991 1019 1311 708 
Q 1631 397 2203 397 
Q 2534 397 2845 478 
Q 3156 559 3463 722 
L 3463 178 
Q 3153 47 2828 -22 
Q 2503 -91 2169 -91 
Q 1331 -91 842 396 
Q 353 884 353 1716 
Q 353 2575 817 3079 
Q 1281 3584 2069 3584 
Q 2775 3584 3186 3129 
Q 3597 2675 3597 1894 
z
M 3022 2063 
Q 3016 2534 2758 2815 
Q 2500 3097 2075 3097 
Q 1594 3097 1305 2825 
Q 1016 2553 972 2059 
L 3022 2063 
z
" transform="scale(0.015625)"/>
       <path id="DejaVuSans-73" d="M 2834 3397 
L 2834 2853 
Q 2591 2978 2328 3040 
Q 2066 3103 1784 3103 
Q 1356 3103 1142 2972 
Q 928 2841 928 2578 
Q 928 2378 1081 2264 
Q 1234 2150 1697 2047 
L 1894 2003 
Q 2506 1872 2764 1633 
Q 3022 1394 3022 966 
Q 3022 478 2636 193 
Q 2250 -91 1575 -91 
Q 1294 -91 989 -36 
Q 684 19 347 128 
L 347 722 
Q 666 556 975 473 
Q 1284 391 1588 391 
Q 1994 391 2212 530 
Q 2431 669 2431 922 
Q 2431 1156 2273 1281 
Q 2116 1406 1581 1522 
L 1381 1569 
Q 847 1681 609 1914 
Q 372 2147 372 2553 
Q 372 3047 722 3315 
Q 1072 3584 1716 3584 
Q 2034 3584 2315 3537 
Q 2597 3491 2834 3397 
z
" transform="scale(0.015625)"/>
      </defs>
      <use xlink:href="#DejaVuSans-43"/>
      <use xlink:href="#DejaVuSans-68" x="69.824219"/>
      <use xlink:href="#DejaVuSans-75" x="133.203125"/>
      <use xlink:href="#DejaVuSans-63" x="196.582031"/>
      <use xlink:href="#DejaVuSans-6b" x="251.5625"/>
      <use xlink:href="#DejaVuSans-20" x="309.472656"/>
      <use xlink:href="#DejaVuSans-4a" x="341.259766"/>
      <use xlink:href="#DejaVuSans-6f" x="370.751953"/>
      <use xlink:href="#DejaVuSans-6e" x="431.933594"/>
      <use xlink:href="#DejaVuSans-65" x="495.3125"/>
      <use xlink:href="#DejaVuSans-73" x="556.835938"/>
     </g>
    </g>
   </g>
   <g id="text_2">
    <g id="patch_3">
     <path d="M 445.190317 209.43657 
L 519.994379 209.43657 
L 519.994379 192.806258 
L 445.190317 192.806258 
z
" clip-path="url(#pd4b64795f2)" style="fill: #ffffff; opacity: 0.7; stroke: #000000; stroke-linejoin: miter"/>
    </g>
    <g clip-path="url(#pd4b64795f2)">
     <!-- Clint Eastwood -->
     <g transform="translate(449.150317 203.604851)scale(0.09 -0.09)">
      <defs>
       <path id="DejaVuSans-6c" d="M 603 4863 
L 1178 4863 
L 1178 0 
L 603 0 
L 603 4863 
z
" transform="scale(0.015625)"/>
       <path id="DejaVuSans-69" d="M 603 3500 
L 1178 3500 
L 1178 0 
L 603 0 
L 603 3500 
z
M 603 4863 
L 1178 4863 
L 1178 4134 
L 603 4134 
L 603 4863 
z
" transform="scale(0.015625)"/>
       <path id="DejaVuSans-74" d="M 1172 4494 
L 1172 3500 
L 2356 3500 
L 2356 3053 
L 1172 3053 
L 1172 1153 
Q 1172 725 1289 603 
Q 1406 481 1766 481 
L 2356 481 
L 2356 0 
L 1766 0 
Q 1100 0 847 248 
Q 594 497 594 1153 
L 594 3053 
L 172 3053 
L 172 3500 
L 594 3500 
L 594 4494 
L 1172 4494 
z
" transform="scale(0.015625)"/>
       <path id="DejaVuSans-45" d="M 628 4666 
L 3578 4666 
L 3578 4134 
L 1259 4134 
L 1259 2753 
L 3481 2753 
L 3481 2222 
L 1259 2222 
L 1259 531 
L 3634 531 
L 3634 0 
L 628 0 
L 628 4666 
z
" transform="scale(0.015625)"/>
       <path id="DejaVuSans-61" d="M 2194 1759 
Q 1497 1759 1228 1600 
Q 959 1441 959 1056 
Q 959 750 1161 570 
Q 1363 391 1709 391 
Q 2188 391 2477 730 
Q 2766 1069 2766 1631 
L 2766 1759 
L 2194 1759 
z
M 3341 1997 
L 3341 0 
L 2766 0 
L 2766 531 
Q 2569 213 2275 61 
Q 1981 -91 1556 -91 
Q 1019 -91 701 211 
Q 384 513 384 1019 
Q 384 1609 779 1909 
Q 1175 2209 1959 2209 
L 2766 2209 
L 2766 2266 
Q 2766 2663 2505 2880 
Q 2244 3097 1772 3097 
Q 1472 3097 1187 3025 
Q 903 2953 641 2809 
L 641 3341 
Q 956 3463 1253 3523 
Q 1550 3584 1831 3584 
Q 2591 3584 2966 3190 
Q 3341 2797 3341 1997 
z
" transform="scale(0.015625)"/>
       <path id="DejaVuSans-77" d="M 269 3500 
L 844 3500 
L 1563 769 
L 2278 3500 
L 2956 3500 
L 3675 769 
L 4391 3500 
L 4966 3500 
L 4050 0 
L 3372 0 
L 2619 2869 
L 1863 0 
L 1184 0 
L 269 3500 
z
" transform="scale(0.015625)"/>
       <path id="DejaVuSans-64" d="M 2906 2969 
L 2906 4863 
L 3481 4863 
L 3481 0 
L 2906 0 
L 2906 525 
Q 2725 213 2448 61 
Q 2172 -91 1784 -91 
Q 1150 -91 751 415 
Q 353 922 353 1747 
Q 353 2572 751 3078 
Q 1150 3584 1784 3584 
Q 2172 3584 2448 3432 
Q 2725 3281 2906 2969 
z
M 947 1747 
Q 947 1113 1208 752 
Q 1469 391 1925 391 
Q 2381 391 2643 752 
Q 2906 1113 2906 1747 
Q 2906 2381 2643 2742 
Q 2381 3103 1925 3103 
Q 1469 3103 1208 2742 
Q 947 2381 947 1747 
z
" transform="scale(0.015625)"/>
      </defs>
      <use xlink:href="#DejaVuSans-43"/>
      <use xlink:href="#DejaVuSans-6c" x="69.824219"/>
      <use xlink:href="#DejaVuSans-69" x="97.607422"/>
      <use xlink:href="#DejaVuSans-6e" x="125.390625"/>
      <use xlink:href="#DejaVuSans-74" x="188.769531"/>
      <use xlink:href="#DejaVuSans-20" x="227.978516"/>
      <use xlink:href="#DejaVuSans-45" x="259.765625"/>
      <use xlink:href="#DejaVuSans-61" x="322.949219"/>
      <use xlink:href="#DejaVuSans-73" x="384.228516"/>
      <use xlink:href="#DejaVuSans-74" x="436.328125"/>
      <use xlink:href="#DejaVuSans-77" x="475.537109"/>
      <use xlink:href="#DejaVuSans-6f" x="557.324219"/>
      <use xlink:href="#DejaVuSans-6f" x="618.505859"/>
      <use xlink:href="#DejaVuSans-64" x="679.6875"/>
     </g>
    </g>
   </g>
   <g id="text_3">
    <g id="patch_4">
     <path d="M 393.092662 137.387585 
L 466.707037 137.387585 
L 466.707037 120.757273 
L 393.092662 120.757273 
z
" clip-path="url(#pd4b64795f2)" style="fill: #ffffff; opacity: 0.7; stroke: #000000; stroke-linejoin: miter"/>
    </g>
    <g clip-path="url(#pd4b64795f2)">
     <!-- Blake Edwards -->
     <g transform="translate(397.052662 131.555867)scale(0.09 -0.09)">
      <defs>
       <path id="DejaVuSans-42" d="M 1259 2228 
L 1259 519 
L 2272 519 
Q 2781 519 3026 730 
Q 3272 941 3272 1375 
Q 3272 1813 3026 2020 
Q 2781 2228 2272 2228 
L 1259 2228 
z
M 1259 4147 
L 1259 2741 
L 2194 2741 
Q 2656 2741 2882 2914 
Q 3109 3088 3109 3444 
Q 3109 3797 2882 3972 
Q 2656 4147 2194 4147 
L 1259 4147 
z
M 628 4666 
L 2241 4666 
Q 2963 4666 3353 4366 
Q 3744 4066 3744 3513 
Q 3744 3084 3544 2831 
Q 3344 2578 2956 2516 
Q 3422 2416 3680 2098 
Q 3938 1781 3938 1306 
Q 3938 681 3513 340 
Q 3088 0 2303 0 
L 628 0 
L 628 4666 
z
" transform="scale(0.015625)"/>
       <path id="DejaVuSans-72" d="M 2631 2963 
Q 2534 3019 2420 3045 
Q 2306 3072 2169 3072 
Q 1681 3072 1420 2755 
Q 1159 2438 1159 1844 
L 1159 0 
L 581 0 
L 581 3500 
L 1159 3500 
L 1159 2956 
Q 1341 3275 1631 3429 
Q 1922 3584 2338 3584 
Q 2397 3584 2469 3576 
Q 2541 3569 2628 3553 
L 2631 2963 
z
" transform="scale(0.015625)"/>
      </defs>
      <use xlink:href="#DejaVuSans-42"/>
      <use xlink:href="#DejaVuSans-6c" x="68.603516"/>
      <use xlink:href="#DejaVuSans-61" x="96.386719"/>
      <use xlink:href="#DejaVuSans-6b" x="157.666016"/>
      <use xlink:href="#DejaVuSans-65" x="211.951172"/>
      <use xlink:href="#DejaVuSans-20" x="273.474609"/>
      <use xlink:href="#DejaVuSans-45" x="305.261719"/>
      <use xlink:href="#DejaVuSans-64" x="368.445312"/>
      <use xlink:href="#DejaVuSans-77" x="431.921875"/>
      <use xlink:href="#DejaVuSans-61" x="513.708984"/>
      <use xlink:href="#DejaVuSans-72" x="574.988281"/>
      <use xlink:href="#DejaVuSans-64" x="614.351562"/>
      <use xlink:href="#DejaVuSans-73" x="677.828125"/>
     </g>
    </g>
   </g>
   <g id="text_4">
    <g id="patch_5">
     <path d="M 327.257651 92.858875 
L 377.270932 92.858875 
L 377.270932 76.228562 
L 327.257651 76.228562 
z
" clip-path="url(#pd4b64795f2)" style="fill: #ffffff; opacity: 0.7; stroke: #000000; stroke-linejoin: miter"/>
    </g>
    <g clip-path="url(#pd4b64795f2)">
     <!-- Joel Coen -->
     <g transform="translate(331.217651 87.027156)scale(0.09 -0.09)">
      <use xlink:href="#DejaVuSans-4a"/>
      <use xlink:href="#DejaVuSans-6f" x="29.492188"/>
      <use xlink:href="#DejaVuSans-65" x="90.673828"/>
      <use xlink:href="#DejaVuSans-6c" x="152.197266"/>
      <use xlink:href="#DejaVuSans-20" x="179.980469"/>
      <use xlink:href="#DejaVuSans-43" x="211.767578"/>
      <use xlink:href="#DejaVuSans-6f" x="281.591797"/>
      <use xlink:href="#DejaVuSans-65" x="342.773438"/>
      <use xlink:href="#DejaVuSans-6e" x="404.296875"/>
     </g>
    </g>
   </g>
   <g id="text_5">
    <g id="patch_6">
     <path d="M 233.133924 83.549839 
L 293.085174 83.549839 
L 293.085174 66.919526 
L 233.133924 66.919526 
z
" clip-path="url(#pd4b64795f2)" style="fill: #ffffff; opacity: 0.7; stroke: #000000; stroke-linejoin: miter"/>
    </g>
    <g clip-path="url(#pd4b64795f2)">
     <!-- Ethan Coen -->
     <g transform="translate(237.093924 77.71812)scale(0.09 -0.09)">
      <use xlink:href="#DejaVuSans-45"/>
      <use xlink:href="#DejaVuSans-74" x="63.183594"/>
      <use xlink:href="#DejaVuSans-68" x="102.392578"/>
      <use xlink:href="#DejaVuSans-61" x="165.771484"/>
      <use xlink:href="#DejaVuSans-6e" x="227.050781"/>
      <use xlink:href="#DejaVuSans-20" x="290.429688"/>
      <use xlink:href="#DejaVuSans-43" x="322.216797"/>
      <use xlink:href="#DejaVuSans-6f" x="392.041016"/>
      <use xlink:href="#DejaVuSans-65" x="453.222656"/>
      <use xlink:href="#DejaVuSans-6e" x="514.746094"/>
     </g>
    </g>
   </g>
   <g id="text_6">
    <g id="patch_7">
     <path d="M 148.108407 111.070106 
L 207.594189 111.070106 
L 207.594189 94.439794 
L 148.108407 94.439794 
z
" clip-path="url(#pd4b64795f2)" style="fill: #ffffff; opacity: 0.7; stroke: #000000; stroke-linejoin: miter"/>
    </g>
    <g clip-path="url(#pd4b64795f2)">
     <!-- John Landis -->
     <g transform="translate(152.068407 105.238387)scale(0.09 -0.09)">
      <defs>
       <path id="DejaVuSans-4c" d="M 628 4666 
L 1259 4666 
L 1259 531 
L 3531 531 
L 3531 0 
L 628 0 
L 628 4666 
z
" transform="scale(0.015625)"/>
      </defs>
      <use xlink:href="#DejaVuSans-4a"/>
      <use xlink:href="#DejaVuSans-6f" x="29.492188"/>
      <use xlink:href="#DejaVuSans-68" x="90.673828"/>
      <use xlink:href="#DejaVuSans-6e" x="154.052734"/>
      <use xlink:href="#DejaVuSans-20" x="217.431641"/>
      <use xlink:href="#DejaVuSans-4c" x="249.21875"/>
      <use xlink:href="#DejaVuSans-61" x="304.931641"/>
      <use xlink:href="#DejaVuSans-6e" x="366.210938"/>
      <use xlink:href="#DejaVuSans-64" x="429.589844"/>
      <use xlink:href="#DejaVuSans-69" x="493.066406"/>
      <use xlink:href="#DejaVuSans-73" x="520.849609"/>
     </g>
    </g>
   </g>
   <g id="text_7">
    <g id="patch_8">
     <path d="M 83.294915 170.661157 
L 139.16804 170.661157 
L 139.16804 154.030845 
L 83.294915 154.030845 
z
" clip-path="url(#pd4b64795f2)" style="fill: #ffffff; opacity: 0.7; stroke: #000000; stroke-linejoin: miter"/>
    </g>
    <g clip-path="url(#pd4b64795f2)">
     <!-- Sam Wood -->
     <g transform="translate(87.254915 164.829438)scale(0.09 -0.09)">
      <defs>
       <path id="DejaVuSans-53" d="M 3425 4513 
L 3425 3897 
Q 3066 4069 2747 4153 
Q 2428 4238 2131 4238 
Q 1616 4238 1336 4038 
Q 1056 3838 1056 3469 
Q 1056 3159 1242 3001 
Q 1428 2844 1947 2747 
L 2328 2669 
Q 3034 2534 3370 2195 
Q 3706 1856 3706 1288 
Q 3706 609 3251 259 
Q 2797 -91 1919 -91 
Q 1588 -91 1214 -16 
Q 841 59 441 206 
L 441 856 
Q 825 641 1194 531 
Q 1563 422 1919 422 
Q 2459 422 2753 634 
Q 3047 847 3047 1241 
Q 3047 1584 2836 1778 
Q 2625 1972 2144 2069 
L 1759 2144 
Q 1053 2284 737 2584 
Q 422 2884 422 3419 
Q 422 4038 858 4394 
Q 1294 4750 2059 4750 
Q 2388 4750 2728 4690 
Q 3069 4631 3425 4513 
z
" transform="scale(0.015625)"/>
       <path id="DejaVuSans-6d" d="M 3328 2828 
Q 3544 3216 3844 3400 
Q 4144 3584 4550 3584 
Q 5097 3584 5394 3201 
Q 5691 2819 5691 2113 
L 5691 0 
L 5113 0 
L 5113 2094 
Q 5113 2597 4934 2840 
Q 4756 3084 4391 3084 
Q 3944 3084 3684 2787 
Q 3425 2491 3425 1978 
L 3425 0 
L 2847 0 
L 2847 2094 
Q 2847 2600 2669 2842 
Q 2491 3084 2119 3084 
Q 1678 3084 1418 2786 
Q 1159 2488 1159 1978 
L 1159 0 
L 581 0 
L 581 3500 
L 1159 3500 
L 1159 2956 
Q 1356 3278 1631 3431 
Q 1906 3584 2284 3584 
Q 2666 3584 2933 3390 
Q 3200 3197 3328 2828 
z
" transform="scale(0.015625)"/>
       <path id="DejaVuSans-57" d="M 213 4666 
L 850 4666 
L 1831 722 
L 2809 4666 
L 3519 4666 
L 4500 722 
L 5478 4666 
L 6119 4666 
L 4947 0 
L 4153 0 
L 3169 4050 
L 2175 0 
L 1381 0 
L 213 4666 
z
" transform="scale(0.015625)"/>
      </defs>
      <use xlink:href="#DejaVuSans-53"/>
      <use xlink:href="#DejaVuSans-61" x="63.476562"/>
      <use xlink:href="#DejaVuSans-6d" x="124.755859"/>
      <use xlink:href="#DejaVuSans-20" x="222.167969"/>
      <use xlink:href="#DejaVuSans-57" x="253.955078"/>
      <use xlink:href="#DejaVuSans-6f" x="346.957031"/>
      <use xlink:href="#DejaVuSans-6f" x="408.138672"/>
      <use xlink:href="#DejaVuSans-64" x="469.320312"/>
     </g>
    </g>
   </g>
   <g id="text_8">
    <g id="patch_9">
     <path d="M 32.199231 252.019184 
L 117.339231 252.019184 
L 117.339231 235.388871 
L 32.199231 235.388871 
z
" clip-path="url(#pd4b64795f2)" style="fill: #ffffff; opacity: 0.7; stroke: #000000; stroke-linejoin: miter"/>
    </g>
    <g clip-path="url(#pd4b64795f2)">
     <!-- Vincent Sherman -->
     <g transform="translate(36.159231 246.187465)scale(0.09 -0.09)">
      <defs>
       <path id="DejaVuSans-56" d="M 1831 0 
L 50 4666 
L 709 4666 
L 2188 738 
L 3669 4666 
L 4325 4666 
L 2547 0 
L 1831 0 
z
" transform="scale(0.015625)"/>
      </defs>
      <use xlink:href="#DejaVuSans-56"/>
      <use xlink:href="#DejaVuSans-69" x="66.158203"/>
      <use xlink:href="#DejaVuSans-6e" x="93.941406"/>
      <use xlink:href="#DejaVuSans-63" x="157.320312"/>
      <use xlink:href="#DejaVuSans-65" x="212.300781"/>
      <use xlink:href="#DejaVuSans-6e" x="273.824219"/>
      <use xlink:href="#DejaVuSans-74" x="337.203125"/>
      <use xlink:href="#DejaVuSans-20" x="376.412109"/>
      <use xlink:href="#DejaVuSans-53" x="408.199219"/>
      <use xlink:href="#DejaVuSans-68" x="471.675781"/>
      <use xlink:href="#DejaVuSans-65" x="535.054688"/>
      <use xlink:href="#DejaVuSans-72" x="596.578125"/>
      <use xlink:href="#DejaVuSans-6d" x="635.941406"/>
      <use xlink:href="#DejaVuSans-61" x="733.353516"/>
      <use xlink:href="#DejaVuSans-6e" x="794.632812"/>
     </g>
    </g>
   </g>
   <g id="text_9">
    <g id="patch_10">
     <path d="M 43.644712 341.076619 
L 105.893775 341.076619 
L 105.893775 324.446306 
L 43.644712 324.446306 
z
" clip-path="url(#pd4b64795f2)" style="fill: #ffffff; opacity: 0.7; stroke: #000000; stroke-linejoin: miter"/>
    </g>
    <g clip-path="url(#pd4b64795f2)">
     <!-- John Huston -->
     <g transform="translate(47.604712 335.2449)scale(0.09 -0.09)">
      <defs>
       <path id="DejaVuSans-48" d="M 628 4666 
L 1259 4666 
L 1259 2753 
L 3553 2753 
L 3553 4666 
L 4184 4666 
L 4184 0 
L 3553 0 
L 3553 2222 
L 1259 2222 
L 1259 0 
L 628 0 
L 628 4666 
z
" transform="scale(0.015625)"/>
      </defs>
      <use xlink:href="#DejaVuSans-4a"/>
      <use xlink:href="#DejaVuSans-6f" x="29.492188"/>
      <use xlink:href="#DejaVuSans-68" x="90.673828"/>
      <use xlink:href="#DejaVuSans-6e" x="154.052734"/>
      <use xlink:href="#DejaVuSans-20" x="217.431641"/>
      <use xlink:href="#DejaVuSans-48" x="249.21875"/>
      <use xlink:href="#DejaVuSans-75" x="324.414062"/>
      <use xlink:href="#DejaVuSans-73" x="387.792969"/>
      <use xlink:href="#DejaVuSans-74" x="439.892578"/>
      <use xlink:href="#DejaVuSans-6f" x="479.101562"/>
      <use xlink:href="#DejaVuSans-6e" x="540.283203"/>
     </g>
    </g>
   </g>
   <g id="text_10">
    <g id="patch_11">
     <path d="M 70.521959 422.43462 
L 151.941021 422.43462 
L 151.941021 405.804307 
L 70.521959 405.804307 
z
" clip-path="url(#pd4b64795f2)" style="fill: #ffffff; opacity: 0.7; stroke: #000000; stroke-linejoin: miter"/>
    </g>
    <g clip-path="url(#pd4b64795f2)">
     <!-- Alfred Hitchcock -->
     <g transform="translate(74.481959 416.602901)scale(0.09 -0.09)">
      <defs>
       <path id="DejaVuSans-41" d="M 2188 4044 
L 1331 1722 
L 3047 1722 
L 2188 4044 
z
M 1831 4666 
L 2547 4666 
L 4325 0 
L 3669 0 
L 3244 1197 
L 1141 1197 
L 716 0 
L 50 0 
L 1831 4666 
z
" transform="scale(0.015625)"/>
       <path id="DejaVuSans-66" d="M 2375 4863 
L 2375 4384 
L 1825 4384 
Q 1516 4384 1395 4259 
Q 1275 4134 1275 3809 
L 1275 3500 
L 2222 3500 
L 2222 3053 
L 1275 3053 
L 1275 0 
L 697 0 
L 697 3053 
L 147 3053 
L 147 3500 
L 697 3500 
L 697 3744 
Q 697 4328 969 4595 
Q 1241 4863 1831 4863 
L 2375 4863 
z
" transform="scale(0.015625)"/>
      </defs>
      <use xlink:href="#DejaVuSans-41"/>
      <use xlink:href="#DejaVuSans-6c" x="68.408203"/>
      <use xlink:href="#DejaVuSans-66" x="96.191406"/>
      <use xlink:href="#DejaVuSans-72" x="131.396484"/>
      <use xlink:href="#DejaVuSans-65" x="170.259766"/>
      <use xlink:href="#DejaVuSans-64" x="231.783203"/>
      <use xlink:href="#DejaVuSans-20" x="295.259766"/>
      <use xlink:href="#DejaVuSans-48" x="327.046875"/>
      <use xlink:href="#DejaVuSans-69" x="402.242188"/>
      <use xlink:href="#DejaVuSans-74" x="430.025391"/>
      <use xlink:href="#DejaVuSans-63" x="469.234375"/>
      <use xlink:href="#DejaVuSans-68" x="524.214844"/>
      <use xlink:href="#DejaVuSans-63" x="587.59375"/>
      <use xlink:href="#DejaVuSans-6f" x="642.574219"/>
      <use xlink:href="#DejaVuSans-63" x="703.755859"/>
      <use xlink:href="#DejaVuSans-6b" x="758.736328"/>
     </g>
    </g>
   </g>
   <g id="text_11">
    <g id="patch_12">
     <path d="M 139.931096 482.025671 
L 215.771565 482.025671 
L 215.771565 465.395358 
L 139.931096 465.395358 
z
" clip-path="url(#pd4b64795f2)" style="fill: #ffffff; opacity: 0.7; stroke: #000000; stroke-linejoin: miter"/>
    </g>
    <g clip-path="url(#pd4b64795f2)">
     <!-- Joseph Sargent -->
     <g transform="translate(143.891096 476.193952)scale(0.09 -0.09)">
      <defs>
       <path id="DejaVuSans-70" d="M 1159 525 
L 1159 -1331 
L 581 -1331 
L 581 3500 
L 1159 3500 
L 1159 2969 
Q 1341 3281 1617 3432 
Q 1894 3584 2278 3584 
Q 2916 3584 3314 3078 
Q 3713 2572 3713 1747 
Q 3713 922 3314 415 
Q 2916 -91 2278 -91 
Q 1894 -91 1617 61 
Q 1341 213 1159 525 
z
M 3116 1747 
Q 3116 2381 2855 2742 
Q 2594 3103 2138 3103 
Q 1681 3103 1420 2742 
Q 1159 2381 1159 1747 
Q 1159 1113 1420 752 
Q 1681 391 2138 391 
Q 2594 391 2855 752 
Q 3116 1113 3116 1747 
z
" transform="scale(0.015625)"/>
       <path id="DejaVuSans-67" d="M 2906 1791 
Q 2906 2416 2648 2759 
Q 2391 3103 1925 3103 
Q 1463 3103 1205 2759 
Q 947 2416 947 1791 
Q 947 1169 1205 825 
Q 1463 481 1925 481 
Q 2391 481 2648 825 
Q 2906 1169 2906 1791 
z
M 3481 434 
Q 3481 -459 3084 -895 
Q 2688 -1331 1869 -1331 
Q 1566 -1331 1297 -1286 
Q 1028 -1241 775 -1147 
L 775 -588 
Q 1028 -725 1275 -790 
Q 1522 -856 1778 -856 
Q 2344 -856 2625 -561 
Q 2906 -266 2906 331 
L 2906 616 
Q 2728 306 2450 153 
Q 2172 0 1784 0 
Q 1141 0 747 490 
Q 353 981 353 1791 
Q 353 2603 747 3093 
Q 1141 3584 1784 3584 
Q 2172 3584 2450 3431 
Q 2728 3278 2906 2969 
L 2906 3500 
L 3481 3500 
L 3481 434 
z
" transform="scale(0.015625)"/>
      </defs>
      <use xlink:href="#DejaVuSans-4a"/>
      <use xlink:href="#DejaVuSans-6f" x="29.492188"/>
      <use xlink:href="#DejaVuSans-73" x="90.673828"/>
      <use xlink:href="#DejaVuSans-65" x="142.773438"/>
      <use xlink:href="#DejaVuSans-70" x="204.296875"/>
      <use xlink:href="#DejaVuSans-68" x="267.773438"/>
      <use xlink:href="#DejaVuSans-20" x="331.152344"/>
      <use xlink:href="#DejaVuSans-53" x="362.939453"/>
      <use xlink:href="#DejaVuSans-61" x="426.416016"/>
      <use xlink:href="#DejaVuSans-72" x="487.695312"/>
      <use xlink:href="#DejaVuSans-67" x="527.058594"/>
      <use xlink:href="#DejaVuSans-65" x="590.535156"/>
      <use xlink:href="#DejaVuSans-6e" x="652.058594"/>
      <use xlink:href="#DejaVuSans-74" x="715.4375"/>
     </g>
    </g>
   </g>
   <g id="text_12">
    <g id="patch_13">
     <path d="M 230.315134 509.545925 
L 295.90404 509.545925 
L 295.90404 492.915613 
L 230.315134 492.915613 
z
" clip-path="url(#pd4b64795f2)" style="fill: #ffffff; opacity: 0.7; stroke: #000000; stroke-linejoin: miter"/>
    </g>
    <g clip-path="url(#pd4b64795f2)">
     <!-- Renny Harlin -->
     <g transform="translate(234.275134 503.714207)scale(0.09 -0.09)">
      <defs>
       <path id="DejaVuSans-52" d="M 2841 2188 
Q 3044 2119 3236 1894 
Q 3428 1669 3622 1275 
L 4263 0 
L 3584 0 
L 2988 1197 
Q 2756 1666 2539 1819 
Q 2322 1972 1947 1972 
L 1259 1972 
L 1259 0 
L 628 0 
L 628 4666 
L 2053 4666 
Q 2853 4666 3247 4331 
Q 3641 3997 3641 3322 
Q 3641 2881 3436 2590 
Q 3231 2300 2841 2188 
z
M 1259 4147 
L 1259 2491 
L 2053 2491 
Q 2509 2491 2742 2702 
Q 2975 2913 2975 3322 
Q 2975 3731 2742 3939 
Q 2509 4147 2053 4147 
L 1259 4147 
z
" transform="scale(0.015625)"/>
       <path id="DejaVuSans-79" d="M 2059 -325 
Q 1816 -950 1584 -1140 
Q 1353 -1331 966 -1331 
L 506 -1331 
L 506 -850 
L 844 -850 
Q 1081 -850 1212 -737 
Q 1344 -625 1503 -206 
L 1606 56 
L 191 3500 
L 800 3500 
L 1894 763 
L 2988 3500 
L 3597 3500 
L 2059 -325 
z
" transform="scale(0.015625)"/>
      </defs>
      <use xlink:href="#DejaVuSans-52"/>
      <use xlink:href="#DejaVuSans-65" x="64.982422"/>
      <use xlink:href="#DejaVuSans-6e" x="126.505859"/>
      <use xlink:href="#DejaVuSans-6e" x="189.884766"/>
      <use xlink:href="#DejaVuSans-79" x="253.263672"/>
      <use xlink:href="#DejaVuSans-20" x="312.443359"/>
      <use xlink:href="#DejaVuSans-48" x="344.230469"/>
      <use xlink:href="#DejaVuSans-61" x="419.425781"/>
      <use xlink:href="#DejaVuSans-72" x="480.705078"/>
      <use xlink:href="#DejaVuSans-6c" x="521.818359"/>
      <use xlink:href="#DejaVuSans-69" x="549.601562"/>
      <use xlink:href="#DejaVuSans-6e" x="577.384766"/>
     </g>
    </g>
   </g>
   <g id="text_13">
    <g id="patch_14">
     <path d="M 308.875886 500.236877 
L 395.652761 500.236877 
L 395.652761 483.606565 
L 308.875886 483.606565 
z
" clip-path="url(#pd4b64795f2)" style="fill: #ffffff; opacity: 0.7; stroke: #000000; stroke-linejoin: miter"/>
    </g>
    <g clip-path="url(#pd4b64795f2)">
     <!-- Lawrence Kasdan -->
     <g transform="translate(312.835886 494.405158)scale(0.09 -0.09)">
      <defs>
       <path id="DejaVuSans-4b" d="M 628 4666 
L 1259 4666 
L 1259 2694 
L 3353 4666 
L 4166 4666 
L 1850 2491 
L 4331 0 
L 3500 0 
L 1259 2247 
L 1259 0 
L 628 0 
L 628 4666 
z
" transform="scale(0.015625)"/>
      </defs>
      <use xlink:href="#DejaVuSans-4c"/>
      <use xlink:href="#DejaVuSans-61" x="55.712891"/>
      <use xlink:href="#DejaVuSans-77" x="116.992188"/>
      <use xlink:href="#DejaVuSans-72" x="198.779297"/>
      <use xlink:href="#DejaVuSans-65" x="237.642578"/>
      <use xlink:href="#DejaVuSans-6e" x="299.166016"/>
      <use xlink:href="#DejaVuSans-63" x="362.544922"/>
      <use xlink:href="#DejaVuSans-65" x="417.525391"/>
      <use xlink:href="#DejaVuSans-20" x="479.048828"/>
      <use xlink:href="#DejaVuSans-4b" x="510.835938"/>
      <use xlink:href="#DejaVuSans-61" x="574.662109"/>
      <use xlink:href="#DejaVuSans-73" x="635.941406"/>
      <use xlink:href="#DejaVuSans-64" x="688.041016"/>
      <use xlink:href="#DejaVuSans-61" x="751.517578"/>
      <use xlink:href="#DejaVuSans-6e" x="812.796875"/>
     </g>
    </g>
   </g>
   <g id="text_14">
    <g id="patch_15">
     <path d="M 393.856295 455.708141 
L 465.943482 455.708141 
L 465.943482 439.077828 
L 393.856295 439.077828 
z
" clip-path="url(#pd4b64795f2)" style="fill: #ffffff; opacity: 0.7; stroke: #000000; stroke-linejoin: miter"/>
    </g>
    <g clip-path="url(#pd4b64795f2)">
     <!-- Wes Anderson -->
     <g transform="translate(397.816295 449.876422)scale(0.09 -0.09)">
      <use xlink:href="#DejaVuSans-57"/>
      <use xlink:href="#DejaVuSans-65" x="93.001953"/>
      <use xlink:href="#DejaVuSans-73" x="154.525391"/>
      <use xlink:href="#DejaVuSans-20" x="206.625"/>
      <use xlink:href="#DejaVuSans-41" x="238.412109"/>
      <use xlink:href="#DejaVuSans-6e" x="306.820312"/>
      <use xlink:href="#DejaVuSans-64" x="370.199219"/>
      <use xlink:href="#DejaVuSans-65" x="433.675781"/>
      <use xlink:href="#DejaVuSans-72" x="495.199219"/>
      <use xlink:href="#DejaVuSans-73" x="536.3125"/>
      <use xlink:href="#DejaVuSans-6f" x="588.412109"/>
      <use xlink:href="#DejaVuSans-6e" x="649.59375"/>
     </g>
    </g>
   </g>
   <g id="text_15">
    <g id="patch_16">
     <path d="M 452.699717 383.659162 
L 512.48503 383.659162 
L 512.48503 367.02885 
L 452.699717 367.02885 
z
" clip-path="url(#pd4b64795f2)" style="fill: #ffffff; opacity: 0.7; stroke: #000000; stroke-linejoin: miter"/>
    </g>
    <g clip-path="url(#pd4b64795f2)">
     <!-- Jack Kinney -->
     <g transform="translate(456.659717 377.827443)scale(0.09 -0.09)">
      <use xlink:href="#DejaVuSans-4a"/>
      <use xlink:href="#DejaVuSans-61" x="29.492188"/>
      <use xlink:href="#DejaVuSans-63" x="90.771484"/>
      <use xlink:href="#DejaVuSans-6b" x="145.751953"/>
      <use xlink:href="#DejaVuSans-20" x="203.662109"/>
      <use xlink:href="#DejaVuSans-4b" x="235.449219"/>
      <use xlink:href="#DejaVuSans-69" x="301.025391"/>
      <use xlink:href="#DejaVuSans-6e" x="328.808594"/>
      <use xlink:href="#DejaVuSans-6e" x="392.1875"/>
      <use xlink:href="#DejaVuSans-65" x="455.566406"/>
      <use xlink:href="#DejaVuSans-79" x="517.089844"/>
     </g>
    </g>
   </g>
   <g id="text_16">
    <!-- Impactful directors for Horror genre - Importance rank: 2 -->
    <g transform="translate(117.599063 4.8)scale(0.12 -0.12)">
     <defs>
      <path id="DejaVuSans-49" d="M 628 4666 
L 1259 4666 
L 1259 0 
L 628 0 
L 628 4666 
z
" transform="scale(0.015625)"/>
      <path id="DejaVuSans-2d" d="M 313 2009 
L 1997 2009 
L 1997 1497 
L 313 1497 
L 313 2009 
z
" transform="scale(0.015625)"/>
      <path id="DejaVuSans-3a" d="M 750 794 
L 1409 794 
L 1409 0 
L 750 0 
L 750 794 
z
M 750 3309 
L 1409 3309 
L 1409 2516 
L 750 2516 
L 750 3309 
z
" transform="scale(0.015625)"/>
      <path id="DejaVuSans-32" d="M 1228 531 
L 3431 531 
L 3431 0 
L 469 0 
L 469 531 
Q 828 903 1448 1529 
Q 2069 2156 2228 2338 
Q 2531 2678 2651 2914 
Q 2772 3150 2772 3378 
Q 2772 3750 2511 3984 
Q 2250 4219 1831 4219 
Q 1534 4219 1204 4116 
Q 875 4013 500 3803 
L 500 4441 
Q 881 4594 1212 4672 
Q 1544 4750 1819 4750 
Q 2544 4750 2975 4387 
Q 3406 4025 3406 3419 
Q 3406 3131 3298 2873 
Q 3191 2616 2906 2266 
Q 2828 2175 2409 1742 
Q 1991 1309 1228 531 
z
" transform="scale(0.015625)"/>
     </defs>
     <use xlink:href="#DejaVuSans-49"/>
     <use xlink:href="#DejaVuSans-6d" x="29.492188"/>
     <use xlink:href="#DejaVuSans-70" x="126.904297"/>
     <use xlink:href="#DejaVuSans-61" x="190.380859"/>
     <use xlink:href="#DejaVuSans-63" x="251.660156"/>
     <use xlink:href="#DejaVuSans-74" x="306.640625"/>
     <use xlink:href="#DejaVuSans-66" x="345.849609"/>
     <use xlink:href="#DejaVuSans-75" x="381.054688"/>
     <use xlink:href="#DejaVuSans-6c" x="444.433594"/>
     <use xlink:href="#DejaVuSans-20" x="472.216797"/>
     <use xlink:href="#DejaVuSans-64" x="504.003906"/>
     <use xlink:href="#DejaVuSans-69" x="567.480469"/>
     <use xlink:href="#DejaVuSans-72" x="595.263672"/>
     <use xlink:href="#DejaVuSans-65" x="634.126953"/>
     <use xlink:href="#DejaVuSans-63" x="695.650391"/>
     <use xlink:href="#DejaVuSans-74" x="750.630859"/>
     <use xlink:href="#DejaVuSans-6f" x="789.839844"/>
     <use xlink:href="#DejaVuSans-72" x="851.021484"/>
     <use xlink:href="#DejaVuSans-73" x="892.134766"/>
     <use xlink:href="#DejaVuSans-20" x="944.234375"/>
     <use xlink:href="#DejaVuSans-66" x="976.021484"/>
     <use xlink:href="#DejaVuSans-6f" x="1011.226562"/>
     <use xlink:href="#DejaVuSans-72" x="1072.408203"/>
     <use xlink:href="#DejaVuSans-20" x="1113.521484"/>
     <use xlink:href="#DejaVuSans-48" x="1145.308594"/>
     <use xlink:href="#DejaVuSans-6f" x="1220.503906"/>
     <use xlink:href="#DejaVuSans-72" x="1281.685547"/>
     <use xlink:href="#DejaVuSans-72" x="1321.048828"/>
     <use xlink:href="#DejaVuSans-6f" x="1359.912109"/>
     <use xlink:href="#DejaVuSans-72" x="1421.09375"/>
     <use xlink:href="#DejaVuSans-20" x="1462.207031"/>
     <use xlink:href="#DejaVuSans-67" x="1493.994141"/>
     <use xlink:href="#DejaVuSans-65" x="1557.470703"/>
     <use xlink:href="#DejaVuSans-6e" x="1618.994141"/>
     <use xlink:href="#DejaVuSans-72" x="1682.373047"/>
     <use xlink:href="#DejaVuSans-65" x="1721.236328"/>
     <use xlink:href="#DejaVuSans-20" x="1782.759766"/>
     <use xlink:href="#DejaVuSans-2d" x="1814.546875"/>
     <use xlink:href="#DejaVuSans-20" x="1850.630859"/>
     <use xlink:href="#DejaVuSans-49" x="1882.417969"/>
     <use xlink:href="#DejaVuSans-6d" x="1911.910156"/>
     <use xlink:href="#DejaVuSans-70" x="2009.322266"/>
     <use xlink:href="#DejaVuSans-6f" x="2072.798828"/>
     <use xlink:href="#DejaVuSans-72" x="2133.980469"/>
     <use xlink:href="#DejaVuSans-74" x="2175.09375"/>
     <use xlink:href="#DejaVuSans-61" x="2214.302734"/>
     <use xlink:href="#DejaVuSans-6e" x="2275.582031"/>
     <use xlink:href="#DejaVuSans-63" x="2338.960938"/>
     <use xlink:href="#DejaVuSans-65" x="2393.941406"/>
     <use xlink:href="#DejaVuSans-20" x="2455.464844"/>
     <use xlink:href="#DejaVuSans-72" x="2487.251953"/>
     <use xlink:href="#DejaVuSans-61" x="2528.365234"/>
     <use xlink:href="#DejaVuSans-6e" x="2589.644531"/>
     <use xlink:href="#DejaVuSans-6b" x="2653.023438"/>
     <use xlink:href="#DejaVuSans-3a" x="2710.933594"/>
     <use xlink:href="#DejaVuSans-20" x="2744.625"/>
     <use xlink:href="#DejaVuSans-32" x="2776.412109"/>
    </g>
   </g>
  </g>
 </g>
 <defs>
  <clipPath id="pd4b64795f2">
   <rect x="10.8" y="10.8" width="554.4" height="554.4"/>
  </clipPath>
 </defs>
</svg>
