<?xml version="1.0" encoding="utf-8" standalone="no"?>
<!DOCTYPE svg PUBLIC "-//W3C//DTD SVG 1.1//EN"
  "http://www.w3.org/Graphics/SVG/1.1/DTD/svg11.dtd">
<svg xmlns:xlink="http://www.w3.org/1999/xlink" width="576pt" height="576pt" viewBox="0 0 576 576" xmlns="http://www.w3.org/2000/svg" version="1.1">
 <metadata>
  <rdf:RDF xmlns:dc="http://purl.org/dc/elements/1.1/" xmlns:cc="http://creativecommons.org/ns#" xmlns:rdf="http://www.w3.org/1999/02/22-rdf-syntax-ns#">
   <cc:Work>
    <dc:type rdf:resource="http://purl.org/dc/dcmitype/StillImage"/>
    <dc:date>2022-12-22T19:12:42.347385</dc:date>
    <dc:format>image/svg+xml</dc:format>
    <dc:creator>
     <cc:Agent>
      <dc:title>Matplotlib v3.5.2, https://matplotlib.org/</dc:title>
     </cc:Agent>
    </dc:creator>
   </cc:Work>
  </rdf:RDF>
 </metadata>
 <defs>
  <style type="text/css">*{stroke-linejoin: round; stroke-linecap: butt}</style>
 </defs>
 <g id="figure_1">
  <g id="patch_1">
   <path d="M 0 576 
L 576 576 
L 576 0 
L 0 0 
z
" style="fill: #ffffff"/>
  </g>
  <g id="axes_1">
   <g id="LineCollection_1">
    <path d="M 500.30088 288 
L 481.703099 200.793508 
" clip-path="url(#pfd471e0437)" style="fill: none; stroke: #000000; stroke-opacity: 0.3; stroke-width: 5"/>
   </g>
   <g id="PathCollection_1">
    <path d="M 500.30088 315.386128 
C 507.563766 315.386128 514.530161 312.500553 519.665797 307.364917 
C 524.801433 302.229281 527.687008 295.262886 527.687008 288 
C 527.687008 280.737114 524.801433 273.770719 519.665797 268.635083 
C 514.530161 263.499447 507.563766 260.613872 500.30088 260.613872 
C 493.037994 260.613872 486.071599 263.499447 480.935963 268.635083 
C 475.800328 273.770719 472.914752 280.737114 472.914752 288 
C 472.914752 295.262886 475.800328 302.229281 480.935963 307.364917 
C 486.071599 312.500553 493.037994 315.386128 500.30088 315.386128 
z
" clip-path="url(#pfd471e0437)" style="fill: #d62728; fill-opacity: 0.99; stroke: #d62728; stroke-opacity: 0.99"/>
    <path d="M 481.703099 228.179636 
C 488.965985 228.179636 495.93238 225.294061 501.068016 220.158425 
C 506.203652 215.022789 509.089227 208.056394 509.089227 200.793508 
C 509.089227 193.530622 506.203652 186.564228 501.068016 181.428592 
C 495.93238 176.292956 488.965985 173.407381 481.703099 173.407381 
C 474.440213 173.407381 467.473819 176.292956 462.338183 181.428592 
C 457.202547 186.564228 454.316972 193.530622 454.316972 200.793508 
C 454.316972 208.056394 457.202547 215.022789 462.338183 220.158425 
C 467.473819 225.294061 474.440213 228.179636 481.703099 228.179636 
z
" clip-path="url(#pfd471e0437)" style="fill: #d62728; fill-opacity: 0.99; stroke: #d62728; stroke-opacity: 0.99"/>
    <path d="M 429.125496 155.901421 
C 436.348467 155.901421 443.276576 153.031704 448.383987 147.924293 
C 453.491399 142.816881 456.361116 135.888772 456.361116 128.665802 
C 456.361116 121.442831 453.491399 114.514722 448.383987 109.40731 
C 443.276576 104.299899 436.348467 101.430182 429.125496 101.430182 
C 421.902525 101.430182 414.974417 104.299899 409.867005 109.40731 
C 404.759593 114.514722 401.889877 121.442831 401.889877 128.665802 
C 401.889877 135.888772 404.759593 142.816881 409.867005 147.924293 
C 414.974417 153.031704 421.902525 155.901421 429.125496 155.901421 
z
" clip-path="url(#pfd471e0437)" style="fill: #d62728; fill-opacity: 0.99; stroke: #d62728; stroke-opacity: 0.99"/>
    <path d="M 351.65922 108.165944 
C 358.044649 108.165944 364.169407 105.628986 368.684588 101.113805 
C 373.199768 96.598625 375.736726 90.473867 375.736726 84.088438 
C 375.736726 77.703008 373.199768 71.57825 368.684588 67.06307 
C 364.169407 62.54789 358.044649 60.010932 351.65922 60.010932 
C 345.273791 60.010932 339.149033 62.54789 334.633852 67.06307 
C 330.118672 71.57825 327.581714 77.703008 327.581714 84.088438 
C 327.581714 90.473867 330.118672 96.598625 334.633852 101.113805 
C 339.149033 105.628986 345.273791 108.165944 351.65922 108.165944 
z
" clip-path="url(#pfd471e0437)" style="fill: #d62728; fill-opacity: 0.99; stroke: #d62728; stroke-opacity: 0.99"/>
    <path d="M 262.698877 98.213412 
C 268.916347 98.213412 274.880002 95.743185 279.276417 91.34677 
C 283.672831 86.950355 286.143058 80.9867 286.143058 74.769231 
C 286.143058 68.551761 283.672831 62.588106 279.276417 58.191691 
C 274.880002 53.795277 268.916347 51.32505 262.698877 51.32505 
C 256.481408 51.32505 250.517753 53.795277 246.121338 58.191691 
C 241.724923 62.588106 239.254696 68.551761 239.254696 74.769231 
C 239.254696 80.9867 241.724923 86.950355 246.121338 91.34677 
C 250.517753 95.743185 256.481408 98.213412 262.698877 98.213412 
z
" clip-path="url(#pfd471e0437)" style="fill: #d62728; fill-opacity: 0.99; stroke: #d62728; stroke-opacity: 0.99"/>
    <path d="M 177.62653 124.823834 
C 183.594731 124.823834 189.319294 122.452642 193.53945 118.232487 
C 197.759605 114.012331 200.130797 108.287769 200.130797 102.319567 
C 200.130797 96.351366 197.759605 90.626803 193.53945 86.406648 
C 189.319294 82.186492 183.594731 79.815301 177.62653 79.815301 
C 171.658329 79.815301 165.933766 82.186492 161.713611 86.406648 
C 157.493455 90.626803 155.122264 96.351366 155.122264 102.319567 
C 155.122264 108.287769 157.493455 114.012331 161.713611 118.232487 
C 165.933766 122.452642 171.658329 124.823834 177.62653 124.823834 
z
" clip-path="url(#pfd471e0437)" style="fill: #d62728; fill-opacity: 0.99; stroke: #d62728; stroke-opacity: 0.99"/>
    <path d="M 111.151972 184.415182 
C 117.102984 184.415182 122.81106 182.050819 127.019061 177.842818 
C 131.227063 173.634817 133.591425 167.926741 133.591425 161.975729 
C 133.591425 156.024716 131.227063 150.316641 127.019061 146.108639 
C 122.81106 141.900638 117.102984 139.536276 111.151972 139.536276 
C 105.200959 139.536276 99.492884 141.900638 95.284883 146.108639 
C 91.076881 150.316641 88.712519 156.024716 88.712519 161.975729 
C 88.712519 167.926741 91.076881 173.634817 95.284883 177.842818 
C 99.492884 182.050819 105.200959 184.415182 111.151972 184.415182 
z
" clip-path="url(#pfd471e0437)" style="fill: #d62728; fill-opacity: 0.99; stroke: #d62728; stroke-opacity: 0.99"/>
    <path d="M 74.769231 264.579289 
C 80.380037 264.579289 85.761795 262.350092 89.729235 258.382653 
C 93.696674 254.415213 95.925871 249.033455 95.925871 243.422649 
C 95.925871 237.811842 93.696674 232.430084 89.729235 228.462645 
C 85.761795 224.495206 80.380037 222.266008 74.769231 222.266008 
C 69.158424 222.266008 63.776666 224.495206 59.809227 228.462645 
C 55.841787 232.430084 53.61259 237.811842 53.61259 243.422649 
C 53.61259 249.033455 55.841787 254.415213 59.809227 258.382653 
C 63.776666 262.350092 69.158424 264.579289 74.769231 264.579289 
z
" clip-path="url(#pfd471e0437)" style="fill: #d62728; fill-opacity: 0.99; stroke: #d62728; stroke-opacity: 0.99"/>
    <path d="M 74.769244 353.688136 
C 80.367879 353.688136 85.737963 351.463775 89.696796 347.504942 
C 93.655629 343.546109 95.87999 338.176025 95.87999 332.577389 
C 95.87999 326.978754 93.655629 321.60867 89.696796 317.649837 
C 85.737963 313.691004 80.367879 311.466643 74.769244 311.466643 
C 69.170608 311.466643 63.800525 313.691004 59.841691 317.649837 
C 55.882858 321.60867 53.658497 326.978754 53.658497 332.577389 
C 53.658497 338.176025 55.882858 343.546109 59.841691 347.504942 
C 63.800525 351.463775 69.170608 353.688136 74.769244 353.688136 
z
" clip-path="url(#pfd471e0437)" style="fill: #d62728; fill-opacity: 0.99; stroke: #d62728; stroke-opacity: 0.99"/>
    <path d="M 111.151985 435.041091 
C 116.725707 435.041091 122.071895 432.826628 126.013112 428.885411 
C 129.954329 424.944194 132.168792 419.598007 132.168792 414.024284 
C 132.168792 408.450562 129.954329 403.104374 126.013112 399.163157 
C 122.071895 395.22194 116.725707 393.007477 111.151985 393.007477 
C 105.578262 393.007477 100.232075 395.22194 96.290858 399.163157 
C 92.349641 403.104374 90.135177 408.450562 90.135177 414.024284 
C 90.135177 419.598007 92.349641 424.944194 96.290858 428.885411 
C 100.232075 432.826628 105.578262 435.041091 111.151985 435.041091 
z
" clip-path="url(#pfd471e0437)" style="fill: #d62728; fill-opacity: 0.99; stroke: #d62728; stroke-opacity: 0.99"/>
    <path d="M 177.626562 494.096688 
C 183.041013 494.096688 188.234431 491.945504 192.063026 488.116909 
C 195.891621 484.288314 198.042805 479.094896 198.042805 473.680446 
C 198.042805 468.265995 195.891621 463.072577 192.063026 459.243982 
C 188.234431 455.415387 183.041013 453.264203 177.626562 453.264203 
C 172.212111 453.264203 167.018693 455.415387 163.190098 459.243982 
C 159.361503 463.072577 157.210319 468.265995 157.210319 473.680446 
C 157.210319 479.094896 159.361503 484.288314 163.190098 488.116909 
C 167.018693 491.945504 172.212111 494.096688 177.626562 494.096688 
z
" clip-path="url(#pfd471e0437)" style="fill: #d62728; fill-opacity: 0.99; stroke: #d62728; stroke-opacity: 0.99"/>
    <path d="M 262.698916 521.599749 
C 268.100832 521.599749 273.282227 519.453545 277.101959 515.633813 
C 280.921691 511.814081 283.067895 506.632686 283.067895 501.230769 
C 283.067895 495.828853 280.921691 490.647458 277.101959 486.827726 
C 273.282227 483.007994 268.100832 480.86179 262.698916 480.86179 
C 257.296999 480.86179 252.115604 483.007994 248.295872 486.827726 
C 244.47614 490.647458 242.329936 495.828853 242.329936 501.230769 
C 242.329936 506.632686 244.47614 511.814081 248.295872 515.633813 
C 252.115604 519.453545 257.296999 521.599749 262.698916 521.599749 
z
" clip-path="url(#pfd471e0437)" style="fill: #d62728; fill-opacity: 0.99; stroke: #d62728; stroke-opacity: 0.99"/>
    <path d="M 351.659252 511.91197 
C 356.963426 511.91197 362.051068 509.8046 365.801685 506.053982 
C 369.552302 502.303365 371.659673 497.215723 371.659673 491.91155 
C 371.659673 486.607376 369.552302 481.519734 365.801685 477.769117 
C 362.051068 474.018499 356.963426 471.911129 351.659252 471.911129 
C 346.355078 471.911129 341.267436 474.018499 337.516819 477.769117 
C 333.766202 481.519734 331.658832 486.607376 331.658832 491.91155 
C 331.658832 497.215723 333.766202 502.303365 337.516819 506.053982 
C 341.267436 509.8046 346.355078 511.91197 351.659252 511.91197 
z
" clip-path="url(#pfd471e0437)" style="fill: #d62728; fill-opacity: 0.99; stroke: #d62728; stroke-opacity: 0.99"/>
    <path d="M 429.125535 466.794255 
C 434.286412 466.794255 439.236608 464.743817 442.8859 461.094525 
C 446.535191 457.445234 448.58563 452.495038 448.58563 447.33416 
C 448.58563 442.173283 446.535191 437.223086 442.8859 433.573795 
C 439.236608 429.924503 434.286412 427.874065 429.125535 427.874065 
C 423.964657 427.874065 419.014461 429.924503 415.36517 433.573795 
C 411.715878 437.223086 409.66544 442.173283 409.66544 447.33416 
C 409.66544 452.495038 411.715878 457.445234 415.36517 461.094525 
C 419.014461 464.743817 423.964657 466.794255 429.125535 466.794255 
z
" clip-path="url(#pfd471e0437)" style="fill: #d62728; fill-opacity: 0.99; stroke: #d62728; stroke-opacity: 0.99"/>
    <path d="M 481.703125 394.571376 
C 486.838761 394.571376 491.764746 392.530967 495.396189 388.899524 
C 499.027632 385.268081 501.068042 380.342096 501.068042 375.20646 
C 501.068042 370.070824 499.027632 365.144839 495.396189 361.513396 
C 491.764746 357.881953 486.838761 355.841543 481.703125 355.841543 
C 476.567489 355.841543 471.641504 357.881953 468.010061 361.513396 
C 464.378618 365.144839 462.338208 370.070824 462.338208 375.20646 
C 462.338208 380.342096 464.378618 385.268081 468.010061 388.899524 
C 471.641504 392.530967 476.567489 394.571376 481.703125 394.571376 
z
" clip-path="url(#pfd471e0437)" style="fill: #d62728; fill-opacity: 0.99; stroke: #d62728; stroke-opacity: 0.99"/>
   </g>
   <g id="text_1">
    <g id="patch_2">
     <path d="M 463.817833 296.315156 
L 536.783927 296.315156 
L 536.783927 279.684844 
L 463.817833 279.684844 
z
" clip-path="url(#pfd471e0437)" style="fill: #ffffff; opacity: 0.7; stroke: #000000; stroke-linejoin: miter"/>
    </g>
    <g clip-path="url(#pfd471e0437)">
     <!-- William Hanna -->
     <g transform="translate(467.777833 290.483437)scale(0.09 -0.09)">
      <defs>
       <path id="DejaVuSans-57" d="M 213 4666 
L 850 4666 
L 1831 722 
L 2809 4666 
L 3519 4666 
L 4500 722 
L 5478 4666 
L 6119 4666 
L 4947 0 
L 4153 0 
L 3169 4050 
L 2175 0 
L 1381 0 
L 213 4666 
z
" transform="scale(0.015625)"/>
       <path id="DejaVuSans-69" d="M 603 3500 
L 1178 3500 
L 1178 0 
L 603 0 
L 603 3500 
z
M 603 4863 
L 1178 4863 
L 1178 4134 
L 603 4134 
L 603 4863 
z
" transform="scale(0.015625)"/>
       <path id="DejaVuSans-6c" d="M 603 4863 
L 1178 4863 
L 1178 0 
L 603 0 
L 603 4863 
z
" transform="scale(0.015625)"/>
       <path id="DejaVuSans-61" d="M 2194 1759 
Q 1497 1759 1228 1600 
Q 959 1441 959 1056 
Q 959 750 1161 570 
Q 1363 391 1709 391 
Q 2188 391 2477 730 
Q 2766 1069 2766 1631 
L 2766 1759 
L 2194 1759 
z
M 3341 1997 
L 3341 0 
L 2766 0 
L 2766 531 
Q 2569 213 2275 61 
Q 1981 -91 1556 -91 
Q 1019 -91 701 211 
Q 384 513 384 1019 
Q 384 1609 779 1909 
Q 1175 2209 1959 2209 
L 2766 2209 
L 2766 2266 
Q 2766 2663 2505 2880 
Q 2244 3097 1772 3097 
Q 1472 3097 1187 3025 
Q 903 2953 641 2809 
L 641 3341 
Q 956 3463 1253 3523 
Q 1550 3584 1831 3584 
Q 2591 3584 2966 3190 
Q 3341 2797 3341 1997 
z
" transform="scale(0.015625)"/>
       <path id="DejaVuSans-6d" d="M 3328 2828 
Q 3544 3216 3844 3400 
Q 4144 3584 4550 3584 
Q 5097 3584 5394 3201 
Q 5691 2819 5691 2113 
L 5691 0 
L 5113 0 
L 5113 2094 
Q 5113 2597 4934 2840 
Q 4756 3084 4391 3084 
Q 3944 3084 3684 2787 
Q 3425 2491 3425 1978 
L 3425 0 
L 2847 0 
L 2847 2094 
Q 2847 2600 2669 2842 
Q 2491 3084 2119 3084 
Q 1678 3084 1418 2786 
Q 1159 2488 1159 1978 
L 1159 0 
L 581 0 
L 581 3500 
L 1159 3500 
L 1159 2956 
Q 1356 3278 1631 3431 
Q 1906 3584 2284 3584 
Q 2666 3584 2933 3390 
Q 3200 3197 3328 2828 
z
" transform="scale(0.015625)"/>
       <path id="DejaVuSans-20" transform="scale(0.015625)"/>
       <path id="DejaVuSans-48" d="M 628 4666 
L 1259 4666 
L 1259 2753 
L 3553 2753 
L 3553 4666 
L 4184 4666 
L 4184 0 
L 3553 0 
L 3553 2222 
L 1259 2222 
L 1259 0 
L 628 0 
L 628 4666 
z
" transform="scale(0.015625)"/>
       <path id="DejaVuSans-6e" d="M 3513 2113 
L 3513 0 
L 2938 0 
L 2938 2094 
Q 2938 2591 2744 2837 
Q 2550 3084 2163 3084 
Q 1697 3084 1428 2787 
Q 1159 2491 1159 1978 
L 1159 0 
L 581 0 
L 581 3500 
L 1159 3500 
L 1159 2956 
Q 1366 3272 1645 3428 
Q 1925 3584 2291 3584 
Q 2894 3584 3203 3211 
Q 3513 2838 3513 2113 
z
" transform="scale(0.015625)"/>
      </defs>
      <use xlink:href="#DejaVuSans-57"/>
      <use xlink:href="#DejaVuSans-69" x="96.626953"/>
      <use xlink:href="#DejaVuSans-6c" x="124.410156"/>
      <use xlink:href="#DejaVuSans-6c" x="152.193359"/>
      <use xlink:href="#DejaVuSans-69" x="179.976562"/>
      <use xlink:href="#DejaVuSans-61" x="207.759766"/>
      <use xlink:href="#DejaVuSans-6d" x="269.039062"/>
      <use xlink:href="#DejaVuSans-20" x="366.451172"/>
      <use xlink:href="#DejaVuSans-48" x="398.238281"/>
      <use xlink:href="#DejaVuSans-61" x="473.433594"/>
      <use xlink:href="#DejaVuSans-6e" x="534.712891"/>
      <use xlink:href="#DejaVuSans-6e" x="598.091797"/>
      <use xlink:href="#DejaVuSans-61" x="661.470703"/>
     </g>
    </g>
   </g>
   <g id="text_2">
    <g id="patch_3">
     <path d="M 443.481928 209.108665 
L 519.924271 209.108665 
L 519.924271 192.478352 
L 443.481928 192.478352 
z
" clip-path="url(#pfd471e0437)" style="fill: #ffffff; opacity: 0.7; stroke: #000000; stroke-linejoin: miter"/>
    </g>
    <g clip-path="url(#pfd471e0437)">
     <!-- Joseph Barbera -->
     <g transform="translate(447.441928 203.276946)scale(0.09 -0.09)">
      <defs>
       <path id="DejaVuSans-4a" d="M 628 4666 
L 1259 4666 
L 1259 325 
Q 1259 -519 939 -900 
Q 619 -1281 -91 -1281 
L -331 -1281 
L -331 -750 
L -134 -750 
Q 284 -750 456 -515 
Q 628 -281 628 325 
L 628 4666 
z
" transform="scale(0.015625)"/>
       <path id="DejaVuSans-6f" d="M 1959 3097 
Q 1497 3097 1228 2736 
Q 959 2375 959 1747 
Q 959 1119 1226 758 
Q 1494 397 1959 397 
Q 2419 397 2687 759 
Q 2956 1122 2956 1747 
Q 2956 2369 2687 2733 
Q 2419 3097 1959 3097 
z
M 1959 3584 
Q 2709 3584 3137 3096 
Q 3566 2609 3566 1747 
Q 3566 888 3137 398 
Q 2709 -91 1959 -91 
Q 1206 -91 779 398 
Q 353 888 353 1747 
Q 353 2609 779 3096 
Q 1206 3584 1959 3584 
z
" transform="scale(0.015625)"/>
       <path id="DejaVuSans-73" d="M 2834 3397 
L 2834 2853 
Q 2591 2978 2328 3040 
Q 2066 3103 1784 3103 
Q 1356 3103 1142 2972 
Q 928 2841 928 2578 
Q 928 2378 1081 2264 
Q 1234 2150 1697 2047 
L 1894 2003 
Q 2506 1872 2764 1633 
Q 3022 1394 3022 966 
Q 3022 478 2636 193 
Q 2250 -91 1575 -91 
Q 1294 -91 989 -36 
Q 684 19 347 128 
L 347 722 
Q 666 556 975 473 
Q 1284 391 1588 391 
Q 1994 391 2212 530 
Q 2431 669 2431 922 
Q 2431 1156 2273 1281 
Q 2116 1406 1581 1522 
L 1381 1569 
Q 847 1681 609 1914 
Q 372 2147 372 2553 
Q 372 3047 722 3315 
Q 1072 3584 1716 3584 
Q 2034 3584 2315 3537 
Q 2597 3491 2834 3397 
z
" transform="scale(0.015625)"/>
       <path id="DejaVuSans-65" d="M 3597 1894 
L 3597 1613 
L 953 1613 
Q 991 1019 1311 708 
Q 1631 397 2203 397 
Q 2534 397 2845 478 
Q 3156 559 3463 722 
L 3463 178 
Q 3153 47 2828 -22 
Q 2503 -91 2169 -91 
Q 1331 -91 842 396 
Q 353 884 353 1716 
Q 353 2575 817 3079 
Q 1281 3584 2069 3584 
Q 2775 3584 3186 3129 
Q 3597 2675 3597 1894 
z
M 3022 2063 
Q 3016 2534 2758 2815 
Q 2500 3097 2075 3097 
Q 1594 3097 1305 2825 
Q 1016 2553 972 2059 
L 3022 2063 
z
" transform="scale(0.015625)"/>
       <path id="DejaVuSans-70" d="M 1159 525 
L 1159 -1331 
L 581 -1331 
L 581 3500 
L 1159 3500 
L 1159 2969 
Q 1341 3281 1617 3432 
Q 1894 3584 2278 3584 
Q 2916 3584 3314 3078 
Q 3713 2572 3713 1747 
Q 3713 922 3314 415 
Q 2916 -91 2278 -91 
Q 1894 -91 1617 61 
Q 1341 213 1159 525 
z
M 3116 1747 
Q 3116 2381 2855 2742 
Q 2594 3103 2138 3103 
Q 1681 3103 1420 2742 
Q 1159 2381 1159 1747 
Q 1159 1113 1420 752 
Q 1681 391 2138 391 
Q 2594 391 2855 752 
Q 3116 1113 3116 1747 
z
" transform="scale(0.015625)"/>
       <path id="DejaVuSans-68" d="M 3513 2113 
L 3513 0 
L 2938 0 
L 2938 2094 
Q 2938 2591 2744 2837 
Q 2550 3084 2163 3084 
Q 1697 3084 1428 2787 
Q 1159 2491 1159 1978 
L 1159 0 
L 581 0 
L 581 4863 
L 1159 4863 
L 1159 2956 
Q 1366 3272 1645 3428 
Q 1925 3584 2291 3584 
Q 2894 3584 3203 3211 
Q 3513 2838 3513 2113 
z
" transform="scale(0.015625)"/>
       <path id="DejaVuSans-42" d="M 1259 2228 
L 1259 519 
L 2272 519 
Q 2781 519 3026 730 
Q 3272 941 3272 1375 
Q 3272 1813 3026 2020 
Q 2781 2228 2272 2228 
L 1259 2228 
z
M 1259 4147 
L 1259 2741 
L 2194 2741 
Q 2656 2741 2882 2914 
Q 3109 3088 3109 3444 
Q 3109 3797 2882 3972 
Q 2656 4147 2194 4147 
L 1259 4147 
z
M 628 4666 
L 2241 4666 
Q 2963 4666 3353 4366 
Q 3744 4066 3744 3513 
Q 3744 3084 3544 2831 
Q 3344 2578 2956 2516 
Q 3422 2416 3680 2098 
Q 3938 1781 3938 1306 
Q 3938 681 3513 340 
Q 3088 0 2303 0 
L 628 0 
L 628 4666 
z
" transform="scale(0.015625)"/>
       <path id="DejaVuSans-72" d="M 2631 2963 
Q 2534 3019 2420 3045 
Q 2306 3072 2169 3072 
Q 1681 3072 1420 2755 
Q 1159 2438 1159 1844 
L 1159 0 
L 581 0 
L 581 3500 
L 1159 3500 
L 1159 2956 
Q 1341 3275 1631 3429 
Q 1922 3584 2338 3584 
Q 2397 3584 2469 3576 
Q 2541 3569 2628 3553 
L 2631 2963 
z
" transform="scale(0.015625)"/>
       <path id="DejaVuSans-62" d="M 3116 1747 
Q 3116 2381 2855 2742 
Q 2594 3103 2138 3103 
Q 1681 3103 1420 2742 
Q 1159 2381 1159 1747 
Q 1159 1113 1420 752 
Q 1681 391 2138 391 
Q 2594 391 2855 752 
Q 3116 1113 3116 1747 
z
M 1159 2969 
Q 1341 3281 1617 3432 
Q 1894 3584 2278 3584 
Q 2916 3584 3314 3078 
Q 3713 2572 3713 1747 
Q 3713 922 3314 415 
Q 2916 -91 2278 -91 
Q 1894 -91 1617 61 
Q 1341 213 1159 525 
L 1159 0 
L 581 0 
L 581 4863 
L 1159 4863 
L 1159 2969 
z
" transform="scale(0.015625)"/>
      </defs>
      <use xlink:href="#DejaVuSans-4a"/>
      <use xlink:href="#DejaVuSans-6f" x="29.492188"/>
      <use xlink:href="#DejaVuSans-73" x="90.673828"/>
      <use xlink:href="#DejaVuSans-65" x="142.773438"/>
      <use xlink:href="#DejaVuSans-70" x="204.296875"/>
      <use xlink:href="#DejaVuSans-68" x="267.773438"/>
      <use xlink:href="#DejaVuSans-20" x="331.152344"/>
      <use xlink:href="#DejaVuSans-42" x="362.939453"/>
      <use xlink:href="#DejaVuSans-61" x="431.542969"/>
      <use xlink:href="#DejaVuSans-72" x="492.822266"/>
      <use xlink:href="#DejaVuSans-62" x="533.935547"/>
      <use xlink:href="#DejaVuSans-65" x="597.412109"/>
      <use xlink:href="#DejaVuSans-72" x="658.935547"/>
      <use xlink:href="#DejaVuSans-61" x="700.048828"/>
     </g>
    </g>
   </g>
   <g id="text_3">
    <g id="patch_4">
     <path d="M 385.011434 136.980958 
L 473.239559 136.980958 
L 473.239559 120.350645 
L 385.011434 120.350645 
z
" clip-path="url(#pfd471e0437)" style="fill: #ffffff; opacity: 0.7; stroke: #000000; stroke-linejoin: miter"/>
    </g>
    <g clip-path="url(#pfd471e0437)">
     <!-- Quentin Tarantino -->
     <g transform="translate(388.971434 131.149239)scale(0.09 -0.09)">
      <defs>
       <path id="DejaVuSans-51" d="M 2522 4238 
Q 1834 4238 1429 3725 
Q 1025 3213 1025 2328 
Q 1025 1447 1429 934 
Q 1834 422 2522 422 
Q 3209 422 3611 934 
Q 4013 1447 4013 2328 
Q 4013 3213 3611 3725 
Q 3209 4238 2522 4238 
z
M 3406 84 
L 4238 -825 
L 3475 -825 
L 2784 -78 
Q 2681 -84 2626 -87 
Q 2572 -91 2522 -91 
Q 1538 -91 948 567 
Q 359 1225 359 2328 
Q 359 3434 948 4092 
Q 1538 4750 2522 4750 
Q 3503 4750 4090 4092 
Q 4678 3434 4678 2328 
Q 4678 1516 4351 937 
Q 4025 359 3406 84 
z
" transform="scale(0.015625)"/>
       <path id="DejaVuSans-75" d="M 544 1381 
L 544 3500 
L 1119 3500 
L 1119 1403 
Q 1119 906 1312 657 
Q 1506 409 1894 409 
Q 2359 409 2629 706 
Q 2900 1003 2900 1516 
L 2900 3500 
L 3475 3500 
L 3475 0 
L 2900 0 
L 2900 538 
Q 2691 219 2414 64 
Q 2138 -91 1772 -91 
Q 1169 -91 856 284 
Q 544 659 544 1381 
z
M 1991 3584 
L 1991 3584 
z
" transform="scale(0.015625)"/>
       <path id="DejaVuSans-74" d="M 1172 4494 
L 1172 3500 
L 2356 3500 
L 2356 3053 
L 1172 3053 
L 1172 1153 
Q 1172 725 1289 603 
Q 1406 481 1766 481 
L 2356 481 
L 2356 0 
L 1766 0 
Q 1100 0 847 248 
Q 594 497 594 1153 
L 594 3053 
L 172 3053 
L 172 3500 
L 594 3500 
L 594 4494 
L 1172 4494 
z
" transform="scale(0.015625)"/>
       <path id="DejaVuSans-54" d="M -19 4666 
L 3928 4666 
L 3928 4134 
L 2272 4134 
L 2272 0 
L 1638 0 
L 1638 4134 
L -19 4134 
L -19 4666 
z
" transform="scale(0.015625)"/>
      </defs>
      <use xlink:href="#DejaVuSans-51"/>
      <use xlink:href="#DejaVuSans-75" x="78.710938"/>
      <use xlink:href="#DejaVuSans-65" x="142.089844"/>
      <use xlink:href="#DejaVuSans-6e" x="203.613281"/>
      <use xlink:href="#DejaVuSans-74" x="266.992188"/>
      <use xlink:href="#DejaVuSans-69" x="306.201172"/>
      <use xlink:href="#DejaVuSans-6e" x="333.984375"/>
      <use xlink:href="#DejaVuSans-20" x="397.363281"/>
      <use xlink:href="#DejaVuSans-54" x="429.150391"/>
      <use xlink:href="#DejaVuSans-61" x="473.734375"/>
      <use xlink:href="#DejaVuSans-72" x="535.013672"/>
      <use xlink:href="#DejaVuSans-61" x="576.126953"/>
      <use xlink:href="#DejaVuSans-6e" x="637.40625"/>
      <use xlink:href="#DejaVuSans-74" x="700.785156"/>
      <use xlink:href="#DejaVuSans-69" x="739.994141"/>
      <use xlink:href="#DejaVuSans-6e" x="767.777344"/>
      <use xlink:href="#DejaVuSans-6f" x="831.15625"/>
     </g>
    </g>
   </g>
   <g id="text_4">
    <g id="patch_5">
     <path d="M 305.409767 92.403594 
L 397.908673 92.403594 
L 397.908673 75.773281 
L 305.409767 75.773281 
z
" clip-path="url(#pfd471e0437)" style="fill: #ffffff; opacity: 0.7; stroke: #000000; stroke-linejoin: miter"/>
    </g>
    <g clip-path="url(#pfd471e0437)">
     <!-- Peter Bogdanovich -->
     <g transform="translate(309.369767 86.571875)scale(0.09 -0.09)">
      <defs>
       <path id="DejaVuSans-50" d="M 1259 4147 
L 1259 2394 
L 2053 2394 
Q 2494 2394 2734 2622 
Q 2975 2850 2975 3272 
Q 2975 3691 2734 3919 
Q 2494 4147 2053 4147 
L 1259 4147 
z
M 628 4666 
L 2053 4666 
Q 2838 4666 3239 4311 
Q 3641 3956 3641 3272 
Q 3641 2581 3239 2228 
Q 2838 1875 2053 1875 
L 1259 1875 
L 1259 0 
L 628 0 
L 628 4666 
z
" transform="scale(0.015625)"/>
       <path id="DejaVuSans-67" d="M 2906 1791 
Q 2906 2416 2648 2759 
Q 2391 3103 1925 3103 
Q 1463 3103 1205 2759 
Q 947 2416 947 1791 
Q 947 1169 1205 825 
Q 1463 481 1925 481 
Q 2391 481 2648 825 
Q 2906 1169 2906 1791 
z
M 3481 434 
Q 3481 -459 3084 -895 
Q 2688 -1331 1869 -1331 
Q 1566 -1331 1297 -1286 
Q 1028 -1241 775 -1147 
L 775 -588 
Q 1028 -725 1275 -790 
Q 1522 -856 1778 -856 
Q 2344 -856 2625 -561 
Q 2906 -266 2906 331 
L 2906 616 
Q 2728 306 2450 153 
Q 2172 0 1784 0 
Q 1141 0 747 490 
Q 353 981 353 1791 
Q 353 2603 747 3093 
Q 1141 3584 1784 3584 
Q 2172 3584 2450 3431 
Q 2728 3278 2906 2969 
L 2906 3500 
L 3481 3500 
L 3481 434 
z
" transform="scale(0.015625)"/>
       <path id="DejaVuSans-64" d="M 2906 2969 
L 2906 4863 
L 3481 4863 
L 3481 0 
L 2906 0 
L 2906 525 
Q 2725 213 2448 61 
Q 2172 -91 1784 -91 
Q 1150 -91 751 415 
Q 353 922 353 1747 
Q 353 2572 751 3078 
Q 1150 3584 1784 3584 
Q 2172 3584 2448 3432 
Q 2725 3281 2906 2969 
z
M 947 1747 
Q 947 1113 1208 752 
Q 1469 391 1925 391 
Q 2381 391 2643 752 
Q 2906 1113 2906 1747 
Q 2906 2381 2643 2742 
Q 2381 3103 1925 3103 
Q 1469 3103 1208 2742 
Q 947 2381 947 1747 
z
" transform="scale(0.015625)"/>
       <path id="DejaVuSans-76" d="M 191 3500 
L 800 3500 
L 1894 563 
L 2988 3500 
L 3597 3500 
L 2284 0 
L 1503 0 
L 191 3500 
z
" transform="scale(0.015625)"/>
       <path id="DejaVuSans-63" d="M 3122 3366 
L 3122 2828 
Q 2878 2963 2633 3030 
Q 2388 3097 2138 3097 
Q 1578 3097 1268 2742 
Q 959 2388 959 1747 
Q 959 1106 1268 751 
Q 1578 397 2138 397 
Q 2388 397 2633 464 
Q 2878 531 3122 666 
L 3122 134 
Q 2881 22 2623 -34 
Q 2366 -91 2075 -91 
Q 1284 -91 818 406 
Q 353 903 353 1747 
Q 353 2603 823 3093 
Q 1294 3584 2113 3584 
Q 2378 3584 2631 3529 
Q 2884 3475 3122 3366 
z
" transform="scale(0.015625)"/>
      </defs>
      <use xlink:href="#DejaVuSans-50"/>
      <use xlink:href="#DejaVuSans-65" x="56.677734"/>
      <use xlink:href="#DejaVuSans-74" x="118.201172"/>
      <use xlink:href="#DejaVuSans-65" x="157.410156"/>
      <use xlink:href="#DejaVuSans-72" x="218.933594"/>
      <use xlink:href="#DejaVuSans-20" x="260.046875"/>
      <use xlink:href="#DejaVuSans-42" x="291.833984"/>
      <use xlink:href="#DejaVuSans-6f" x="360.4375"/>
      <use xlink:href="#DejaVuSans-67" x="421.619141"/>
      <use xlink:href="#DejaVuSans-64" x="485.095703"/>
      <use xlink:href="#DejaVuSans-61" x="548.572266"/>
      <use xlink:href="#DejaVuSans-6e" x="609.851562"/>
      <use xlink:href="#DejaVuSans-6f" x="673.230469"/>
      <use xlink:href="#DejaVuSans-76" x="734.412109"/>
      <use xlink:href="#DejaVuSans-69" x="793.591797"/>
      <use xlink:href="#DejaVuSans-63" x="821.375"/>
      <use xlink:href="#DejaVuSans-68" x="876.355469"/>
     </g>
    </g>
   </g>
   <g id="text_5">
    <g id="patch_6">
     <path d="M 228.421533 83.084387 
L 296.976221 83.084387 
L 296.976221 66.454075 
L 228.421533 66.454075 
z
" clip-path="url(#pfd471e0437)" style="fill: #ffffff; opacity: 0.7; stroke: #000000; stroke-linejoin: miter"/>
    </g>
    <g clip-path="url(#pfd471e0437)">
     <!-- Donald Petrie -->
     <g transform="translate(232.381533 77.252668)scale(0.09 -0.09)">
      <defs>
       <path id="DejaVuSans-44" d="M 1259 4147 
L 1259 519 
L 2022 519 
Q 2988 519 3436 956 
Q 3884 1394 3884 2338 
Q 3884 3275 3436 3711 
Q 2988 4147 2022 4147 
L 1259 4147 
z
M 628 4666 
L 1925 4666 
Q 3281 4666 3915 4102 
Q 4550 3538 4550 2338 
Q 4550 1131 3912 565 
Q 3275 0 1925 0 
L 628 0 
L 628 4666 
z
" transform="scale(0.015625)"/>
      </defs>
      <use xlink:href="#DejaVuSans-44"/>
      <use xlink:href="#DejaVuSans-6f" x="77.001953"/>
      <use xlink:href="#DejaVuSans-6e" x="138.183594"/>
      <use xlink:href="#DejaVuSans-61" x="201.5625"/>
      <use xlink:href="#DejaVuSans-6c" x="262.841797"/>
      <use xlink:href="#DejaVuSans-64" x="290.625"/>
      <use xlink:href="#DejaVuSans-20" x="354.101562"/>
      <use xlink:href="#DejaVuSans-50" x="385.888672"/>
      <use xlink:href="#DejaVuSans-65" x="442.566406"/>
      <use xlink:href="#DejaVuSans-74" x="504.089844"/>
      <use xlink:href="#DejaVuSans-72" x="543.298828"/>
      <use xlink:href="#DejaVuSans-69" x="584.412109"/>
      <use xlink:href="#DejaVuSans-65" x="612.195312"/>
     </g>
    </g>
   </g>
   <g id="text_6">
    <g id="patch_7">
     <path d="M 152.094655 110.634724 
L 203.158405 110.634724 
L 203.158405 94.004411 
L 152.094655 94.004411 
z
" clip-path="url(#pfd471e0437)" style="fill: #ffffff; opacity: 0.7; stroke: #000000; stroke-linejoin: miter"/>
    </g>
    <g clip-path="url(#pfd471e0437)">
     <!-- Spike Lee -->
     <g transform="translate(156.054655 104.803005)scale(0.09 -0.09)">
      <defs>
       <path id="DejaVuSans-53" d="M 3425 4513 
L 3425 3897 
Q 3066 4069 2747 4153 
Q 2428 4238 2131 4238 
Q 1616 4238 1336 4038 
Q 1056 3838 1056 3469 
Q 1056 3159 1242 3001 
Q 1428 2844 1947 2747 
L 2328 2669 
Q 3034 2534 3370 2195 
Q 3706 1856 3706 1288 
Q 3706 609 3251 259 
Q 2797 -91 1919 -91 
Q 1588 -91 1214 -16 
Q 841 59 441 206 
L 441 856 
Q 825 641 1194 531 
Q 1563 422 1919 422 
Q 2459 422 2753 634 
Q 3047 847 3047 1241 
Q 3047 1584 2836 1778 
Q 2625 1972 2144 2069 
L 1759 2144 
Q 1053 2284 737 2584 
Q 422 2884 422 3419 
Q 422 4038 858 4394 
Q 1294 4750 2059 4750 
Q 2388 4750 2728 4690 
Q 3069 4631 3425 4513 
z
" transform="scale(0.015625)"/>
       <path id="DejaVuSans-6b" d="M 581 4863 
L 1159 4863 
L 1159 1991 
L 2875 3500 
L 3609 3500 
L 1753 1863 
L 3688 0 
L 2938 0 
L 1159 1709 
L 1159 0 
L 581 0 
L 581 4863 
z
" transform="scale(0.015625)"/>
       <path id="DejaVuSans-4c" d="M 628 4666 
L 1259 4666 
L 1259 531 
L 3531 531 
L 3531 0 
L 628 0 
L 628 4666 
z
" transform="scale(0.015625)"/>
      </defs>
      <use xlink:href="#DejaVuSans-53"/>
      <use xlink:href="#DejaVuSans-70" x="63.476562"/>
      <use xlink:href="#DejaVuSans-69" x="126.953125"/>
      <use xlink:href="#DejaVuSans-6b" x="154.736328"/>
      <use xlink:href="#DejaVuSans-65" x="209.021484"/>
      <use xlink:href="#DejaVuSans-20" x="270.544922"/>
      <use xlink:href="#DejaVuSans-4c" x="302.332031"/>
      <use xlink:href="#DejaVuSans-65" x="356.294922"/>
      <use xlink:href="#DejaVuSans-65" x="417.818359"/>
     </g>
    </g>
   </g>
   <g id="text_7">
    <g id="patch_8">
     <path d="M 82.567128 170.290885 
L 139.736816 170.290885 
L 139.736816 153.660572 
L 82.567128 153.660572 
z
" clip-path="url(#pfd471e0437)" style="fill: #ffffff; opacity: 0.7; stroke: #000000; stroke-linejoin: miter"/>
    </g>
    <g clip-path="url(#pfd471e0437)">
     <!-- Mel Brooks -->
     <g transform="translate(86.527128 164.459166)scale(0.09 -0.09)">
      <defs>
       <path id="DejaVuSans-4d" d="M 628 4666 
L 1569 4666 
L 2759 1491 
L 3956 4666 
L 4897 4666 
L 4897 0 
L 4281 0 
L 4281 4097 
L 3078 897 
L 2444 897 
L 1241 4097 
L 1241 0 
L 628 0 
L 628 4666 
z
" transform="scale(0.015625)"/>
      </defs>
      <use xlink:href="#DejaVuSans-4d"/>
      <use xlink:href="#DejaVuSans-65" x="86.279297"/>
      <use xlink:href="#DejaVuSans-6c" x="147.802734"/>
      <use xlink:href="#DejaVuSans-20" x="175.585938"/>
      <use xlink:href="#DejaVuSans-42" x="207.373047"/>
      <use xlink:href="#DejaVuSans-72" x="275.976562"/>
      <use xlink:href="#DejaVuSans-6f" x="314.839844"/>
      <use xlink:href="#DejaVuSans-6f" x="376.021484"/>
      <use xlink:href="#DejaVuSans-6b" x="437.203125"/>
      <use xlink:href="#DejaVuSans-73" x="495.113281"/>
     </g>
    </g>
   </g>
   <g id="text_8">
    <g id="patch_9">
     <path d="M 43.81134 251.737805 
L 105.727121 251.737805 
L 105.727121 235.107493 
L 43.81134 235.107493 
z
" clip-path="url(#pfd471e0437)" style="fill: #ffffff; opacity: 0.7; stroke: #000000; stroke-linejoin: miter"/>
    </g>
    <g clip-path="url(#pfd471e0437)">
     <!-- Stuart Baird -->
     <g transform="translate(47.77134 245.906086)scale(0.09 -0.09)">
      <use xlink:href="#DejaVuSans-53"/>
      <use xlink:href="#DejaVuSans-74" x="63.476562"/>
      <use xlink:href="#DejaVuSans-75" x="102.685547"/>
      <use xlink:href="#DejaVuSans-61" x="166.064453"/>
      <use xlink:href="#DejaVuSans-72" x="227.34375"/>
      <use xlink:href="#DejaVuSans-74" x="268.457031"/>
      <use xlink:href="#DejaVuSans-20" x="307.666016"/>
      <use xlink:href="#DejaVuSans-42" x="339.453125"/>
      <use xlink:href="#DejaVuSans-61" x="408.056641"/>
      <use xlink:href="#DejaVuSans-69" x="469.335938"/>
      <use xlink:href="#DejaVuSans-72" x="497.119141"/>
      <use xlink:href="#DejaVuSans-64" x="536.482422"/>
     </g>
    </g>
   </g>
   <g id="text_9">
    <g id="patch_10">
     <path d="M 42.635728 340.892546 
L 106.902759 340.892546 
L 106.902759 324.262233 
L 42.635728 324.262233 
z
" clip-path="url(#pfd471e0437)" style="fill: #ffffff; opacity: 0.7; stroke: #000000; stroke-linejoin: miter"/>
    </g>
    <g clip-path="url(#pfd471e0437)">
     <!-- Mark Waters -->
     <g transform="translate(46.595728 335.060827)scale(0.09 -0.09)">
      <use xlink:href="#DejaVuSans-4d"/>
      <use xlink:href="#DejaVuSans-61" x="86.279297"/>
      <use xlink:href="#DejaVuSans-72" x="147.558594"/>
      <use xlink:href="#DejaVuSans-6b" x="188.671875"/>
      <use xlink:href="#DejaVuSans-20" x="246.582031"/>
      <use xlink:href="#DejaVuSans-57" x="278.369141"/>
      <use xlink:href="#DejaVuSans-61" x="370.871094"/>
      <use xlink:href="#DejaVuSans-74" x="432.150391"/>
      <use xlink:href="#DejaVuSans-65" x="471.359375"/>
      <use xlink:href="#DejaVuSans-72" x="532.882812"/>
      <use xlink:href="#DejaVuSans-73" x="573.996094"/>
     </g>
    </g>
   </g>
   <g id="text_10">
    <g id="patch_11">
     <path d="M 80.232766 422.33944 
L 142.071204 422.33944 
L 142.071204 405.709128 
L 80.232766 405.709128 
z
" clip-path="url(#pfd471e0437)" style="fill: #ffffff; opacity: 0.7; stroke: #000000; stroke-linejoin: miter"/>
    </g>
    <g clip-path="url(#pfd471e0437)">
     <!-- Ridley Scott -->
     <g transform="translate(84.192766 416.507722)scale(0.09 -0.09)">
      <defs>
       <path id="DejaVuSans-52" d="M 2841 2188 
Q 3044 2119 3236 1894 
Q 3428 1669 3622 1275 
L 4263 0 
L 3584 0 
L 2988 1197 
Q 2756 1666 2539 1819 
Q 2322 1972 1947 1972 
L 1259 1972 
L 1259 0 
L 628 0 
L 628 4666 
L 2053 4666 
Q 2853 4666 3247 4331 
Q 3641 3997 3641 3322 
Q 3641 2881 3436 2590 
Q 3231 2300 2841 2188 
z
M 1259 4147 
L 1259 2491 
L 2053 2491 
Q 2509 2491 2742 2702 
Q 2975 2913 2975 3322 
Q 2975 3731 2742 3939 
Q 2509 4147 2053 4147 
L 1259 4147 
z
" transform="scale(0.015625)"/>
       <path id="DejaVuSans-79" d="M 2059 -325 
Q 1816 -950 1584 -1140 
Q 1353 -1331 966 -1331 
L 506 -1331 
L 506 -850 
L 844 -850 
Q 1081 -850 1212 -737 
Q 1344 -625 1503 -206 
L 1606 56 
L 191 3500 
L 800 3500 
L 1894 763 
L 2988 3500 
L 3597 3500 
L 2059 -325 
z
" transform="scale(0.015625)"/>
      </defs>
      <use xlink:href="#DejaVuSans-52"/>
      <use xlink:href="#DejaVuSans-69" x="69.482422"/>
      <use xlink:href="#DejaVuSans-64" x="97.265625"/>
      <use xlink:href="#DejaVuSans-6c" x="160.742188"/>
      <use xlink:href="#DejaVuSans-65" x="188.525391"/>
      <use xlink:href="#DejaVuSans-79" x="250.048828"/>
      <use xlink:href="#DejaVuSans-20" x="309.228516"/>
      <use xlink:href="#DejaVuSans-53" x="341.015625"/>
      <use xlink:href="#DejaVuSans-63" x="404.492188"/>
      <use xlink:href="#DejaVuSans-6f" x="459.472656"/>
      <use xlink:href="#DejaVuSans-74" x="520.654297"/>
      <use xlink:href="#DejaVuSans-74" x="559.863281"/>
     </g>
    </g>
   </g>
   <g id="text_11">
    <g id="patch_12">
     <path d="M 131.590156 481.995602 
L 223.662968 481.995602 
L 223.662968 465.365289 
L 131.590156 465.365289 
z
" clip-path="url(#pfd471e0437)" style="fill: #ffffff; opacity: 0.7; stroke: #000000; stroke-linejoin: miter"/>
    </g>
    <g clip-path="url(#pfd471e0437)">
     <!-- Jaume Collet-Serra -->
     <g transform="translate(135.550156 476.163883)scale(0.09 -0.09)">
      <defs>
       <path id="DejaVuSans-43" d="M 4122 4306 
L 4122 3641 
Q 3803 3938 3442 4084 
Q 3081 4231 2675 4231 
Q 1875 4231 1450 3742 
Q 1025 3253 1025 2328 
Q 1025 1406 1450 917 
Q 1875 428 2675 428 
Q 3081 428 3442 575 
Q 3803 722 4122 1019 
L 4122 359 
Q 3791 134 3420 21 
Q 3050 -91 2638 -91 
Q 1578 -91 968 557 
Q 359 1206 359 2328 
Q 359 3453 968 4101 
Q 1578 4750 2638 4750 
Q 3056 4750 3426 4639 
Q 3797 4528 4122 4306 
z
" transform="scale(0.015625)"/>
       <path id="DejaVuSans-2d" d="M 313 2009 
L 1997 2009 
L 1997 1497 
L 313 1497 
L 313 2009 
z
" transform="scale(0.015625)"/>
      </defs>
      <use xlink:href="#DejaVuSans-4a"/>
      <use xlink:href="#DejaVuSans-61" x="29.492188"/>
      <use xlink:href="#DejaVuSans-75" x="90.771484"/>
      <use xlink:href="#DejaVuSans-6d" x="154.150391"/>
      <use xlink:href="#DejaVuSans-65" x="251.5625"/>
      <use xlink:href="#DejaVuSans-20" x="313.085938"/>
      <use xlink:href="#DejaVuSans-43" x="344.873047"/>
      <use xlink:href="#DejaVuSans-6f" x="414.697266"/>
      <use xlink:href="#DejaVuSans-6c" x="475.878906"/>
      <use xlink:href="#DejaVuSans-6c" x="503.662109"/>
      <use xlink:href="#DejaVuSans-65" x="531.445312"/>
      <use xlink:href="#DejaVuSans-74" x="592.96875"/>
      <use xlink:href="#DejaVuSans-2d" x="632.177734"/>
      <use xlink:href="#DejaVuSans-53" x="668.261719"/>
      <use xlink:href="#DejaVuSans-65" x="731.738281"/>
      <use xlink:href="#DejaVuSans-72" x="793.261719"/>
      <use xlink:href="#DejaVuSans-72" x="832.625"/>
      <use xlink:href="#DejaVuSans-61" x="873.738281"/>
     </g>
    </g>
   </g>
   <g id="text_12">
    <g id="patch_13">
     <path d="M 230.897275 509.545925 
L 294.500556 509.545925 
L 294.500556 492.915613 
L 230.897275 492.915613 
z
" clip-path="url(#pfd471e0437)" style="fill: #ffffff; opacity: 0.7; stroke: #000000; stroke-linejoin: miter"/>
    </g>
    <g clip-path="url(#pfd471e0437)">
     <!-- Woody Allen -->
     <g transform="translate(234.857275 503.714207)scale(0.09 -0.09)">
      <defs>
       <path id="DejaVuSans-41" d="M 2188 4044 
L 1331 1722 
L 3047 1722 
L 2188 4044 
z
M 1831 4666 
L 2547 4666 
L 4325 0 
L 3669 0 
L 3244 1197 
L 1141 1197 
L 716 0 
L 50 0 
L 1831 4666 
z
" transform="scale(0.015625)"/>
      </defs>
      <use xlink:href="#DejaVuSans-57"/>
      <use xlink:href="#DejaVuSans-6f" x="93.001953"/>
      <use xlink:href="#DejaVuSans-6f" x="154.183594"/>
      <use xlink:href="#DejaVuSans-64" x="215.365234"/>
      <use xlink:href="#DejaVuSans-79" x="278.841797"/>
      <use xlink:href="#DejaVuSans-20" x="338.021484"/>
      <use xlink:href="#DejaVuSans-41" x="369.808594"/>
      <use xlink:href="#DejaVuSans-6c" x="438.216797"/>
      <use xlink:href="#DejaVuSans-6c" x="466"/>
      <use xlink:href="#DejaVuSans-65" x="493.783203"/>
      <use xlink:href="#DejaVuSans-6e" x="555.306641"/>
     </g>
    </g>
   </g>
   <g id="text_13">
    <g id="patch_14">
     <path d="M 320.746361 500.226706 
L 382.572143 500.226706 
L 382.572143 483.596393 
L 320.746361 483.596393 
z
" clip-path="url(#pfd471e0437)" style="fill: #ffffff; opacity: 0.7; stroke: #000000; stroke-linejoin: miter"/>
    </g>
    <g clip-path="url(#pfd471e0437)">
     <!-- Shawn Levy -->
     <g transform="translate(324.706361 494.394987)scale(0.09 -0.09)">
      <defs>
       <path id="DejaVuSans-77" d="M 269 3500 
L 844 3500 
L 1563 769 
L 2278 3500 
L 2956 3500 
L 3675 769 
L 4391 3500 
L 4966 3500 
L 4050 0 
L 3372 0 
L 2619 2869 
L 1863 0 
L 1184 0 
L 269 3500 
z
" transform="scale(0.015625)"/>
      </defs>
      <use xlink:href="#DejaVuSans-53"/>
      <use xlink:href="#DejaVuSans-68" x="63.476562"/>
      <use xlink:href="#DejaVuSans-61" x="126.855469"/>
      <use xlink:href="#DejaVuSans-77" x="188.134766"/>
      <use xlink:href="#DejaVuSans-6e" x="269.921875"/>
      <use xlink:href="#DejaVuSans-20" x="333.300781"/>
      <use xlink:href="#DejaVuSans-4c" x="365.087891"/>
      <use xlink:href="#DejaVuSans-65" x="419.050781"/>
      <use xlink:href="#DejaVuSans-76" x="480.574219"/>
      <use xlink:href="#DejaVuSans-79" x="539.753906"/>
     </g>
    </g>
   </g>
   <g id="text_14">
    <g id="patch_15">
     <path d="M 406.441316 455.649316 
L 451.809753 455.649316 
L 451.809753 439.019004 
L 406.441316 439.019004 
z
" clip-path="url(#pfd471e0437)" style="fill: #ffffff; opacity: 0.7; stroke: #000000; stroke-linejoin: miter"/>
    </g>
    <g clip-path="url(#pfd471e0437)">
     <!-- Del Lord -->
     <g transform="translate(410.401316 449.817598)scale(0.09 -0.09)">
      <use xlink:href="#DejaVuSans-44"/>
      <use xlink:href="#DejaVuSans-65" x="77.001953"/>
      <use xlink:href="#DejaVuSans-6c" x="138.525391"/>
      <use xlink:href="#DejaVuSans-20" x="166.308594"/>
      <use xlink:href="#DejaVuSans-4c" x="198.095703"/>
      <use xlink:href="#DejaVuSans-6f" x="252.058594"/>
      <use xlink:href="#DejaVuSans-72" x="313.240234"/>
      <use xlink:href="#DejaVuSans-64" x="352.603516"/>
     </g>
    </g>
   </g>
   <g id="text_15">
    <g id="patch_16">
     <path d="M 453.573203 383.521616 
L 509.833047 383.521616 
L 509.833047 366.891303 
L 453.573203 366.891303 
z
" clip-path="url(#pfd471e0437)" style="fill: #ffffff; opacity: 0.7; stroke: #000000; stroke-linejoin: miter"/>
    </g>
    <g clip-path="url(#pfd471e0437)">
     <!-- S. Shankar -->
     <g transform="translate(457.533203 377.689897)scale(0.09 -0.09)">
      <defs>
       <path id="DejaVuSans-2e" d="M 684 794 
L 1344 794 
L 1344 0 
L 684 0 
L 684 794 
z
" transform="scale(0.015625)"/>
      </defs>
      <use xlink:href="#DejaVuSans-53"/>
      <use xlink:href="#DejaVuSans-2e" x="63.476562"/>
      <use xlink:href="#DejaVuSans-20" x="95.263672"/>
      <use xlink:href="#DejaVuSans-53" x="127.050781"/>
      <use xlink:href="#DejaVuSans-68" x="190.527344"/>
      <use xlink:href="#DejaVuSans-61" x="253.90625"/>
      <use xlink:href="#DejaVuSans-6e" x="315.185547"/>
      <use xlink:href="#DejaVuSans-6b" x="378.564453"/>
      <use xlink:href="#DejaVuSans-61" x="434.724609"/>
      <use xlink:href="#DejaVuSans-72" x="496.003906"/>
     </g>
    </g>
   </g>
   <g id="text_16">
    <!-- Impactful directors for Indie genre -->
    <g transform="translate(185.308125 4.8)scale(0.12 -0.12)">
     <defs>
      <path id="DejaVuSans-49" d="M 628 4666 
L 1259 4666 
L 1259 0 
L 628 0 
L 628 4666 
z
" transform="scale(0.015625)"/>
      <path id="DejaVuSans-66" d="M 2375 4863 
L 2375 4384 
L 1825 4384 
Q 1516 4384 1395 4259 
Q 1275 4134 1275 3809 
L 1275 3500 
L 2222 3500 
L 2222 3053 
L 1275 3053 
L 1275 0 
L 697 0 
L 697 3053 
L 147 3053 
L 147 3500 
L 697 3500 
L 697 3744 
Q 697 4328 969 4595 
Q 1241 4863 1831 4863 
L 2375 4863 
z
" transform="scale(0.015625)"/>
     </defs>
     <use xlink:href="#DejaVuSans-49"/>
     <use xlink:href="#DejaVuSans-6d" x="29.492188"/>
     <use xlink:href="#DejaVuSans-70" x="126.904297"/>
     <use xlink:href="#DejaVuSans-61" x="190.380859"/>
     <use xlink:href="#DejaVuSans-63" x="251.660156"/>
     <use xlink:href="#DejaVuSans-74" x="306.640625"/>
     <use xlink:href="#DejaVuSans-66" x="345.849609"/>
     <use xlink:href="#DejaVuSans-75" x="381.054688"/>
     <use xlink:href="#DejaVuSans-6c" x="444.433594"/>
     <use xlink:href="#DejaVuSans-20" x="472.216797"/>
     <use xlink:href="#DejaVuSans-64" x="504.003906"/>
     <use xlink:href="#DejaVuSans-69" x="567.480469"/>
     <use xlink:href="#DejaVuSans-72" x="595.263672"/>
     <use xlink:href="#DejaVuSans-65" x="634.126953"/>
     <use xlink:href="#DejaVuSans-63" x="695.650391"/>
     <use xlink:href="#DejaVuSans-74" x="750.630859"/>
     <use xlink:href="#DejaVuSans-6f" x="789.839844"/>
     <use xlink:href="#DejaVuSans-72" x="851.021484"/>
     <use xlink:href="#DejaVuSans-73" x="892.134766"/>
     <use xlink:href="#DejaVuSans-20" x="944.234375"/>
     <use xlink:href="#DejaVuSans-66" x="976.021484"/>
     <use xlink:href="#DejaVuSans-6f" x="1011.226562"/>
     <use xlink:href="#DejaVuSans-72" x="1072.408203"/>
     <use xlink:href="#DejaVuSans-20" x="1113.521484"/>
     <use xlink:href="#DejaVuSans-49" x="1145.308594"/>
     <use xlink:href="#DejaVuSans-6e" x="1174.800781"/>
     <use xlink:href="#DejaVuSans-64" x="1238.179688"/>
     <use xlink:href="#DejaVuSans-69" x="1301.65625"/>
     <use xlink:href="#DejaVuSans-65" x="1329.439453"/>
     <use xlink:href="#DejaVuSans-20" x="1390.962891"/>
     <use xlink:href="#DejaVuSans-67" x="1422.75"/>
     <use xlink:href="#DejaVuSans-65" x="1486.226562"/>
     <use xlink:href="#DejaVuSans-6e" x="1547.75"/>
     <use xlink:href="#DejaVuSans-72" x="1611.128906"/>
     <use xlink:href="#DejaVuSans-65" x="1649.992188"/>
    </g>
   </g>
  </g>
 </g>
 <defs>
  <clipPath id="pfd471e0437">
   <rect x="10.8" y="10.8" width="554.4" height="554.4"/>
  </clipPath>
 </defs>
</svg>
