<?xml version="1.0" encoding="utf-8" standalone="no"?>
<!DOCTYPE svg PUBLIC "-//W3C//DTD SVG 1.1//EN"
  "http://www.w3.org/Graphics/SVG/1.1/DTD/svg11.dtd">
<svg xmlns:xlink="http://www.w3.org/1999/xlink" width="576pt" height="576pt" viewBox="0 0 576 576" xmlns="http://www.w3.org/2000/svg" version="1.1">
 <metadata>
  <rdf:RDF xmlns:dc="http://purl.org/dc/elements/1.1/" xmlns:cc="http://creativecommons.org/ns#" xmlns:rdf="http://www.w3.org/1999/02/22-rdf-syntax-ns#">
   <cc:Work>
    <dc:type rdf:resource="http://purl.org/dc/dcmitype/StillImage"/>
    <dc:date>2022-12-23T19:50:21.072846</dc:date>
    <dc:format>image/svg+xml</dc:format>
    <dc:creator>
     <cc:Agent>
      <dc:title>Matplotlib v3.5.3, https://matplotlib.org/</dc:title>
     </cc:Agent>
    </dc:creator>
   </cc:Work>
  </rdf:RDF>
 </metadata>
 <defs>
  <style type="text/css">*{stroke-linejoin: round; stroke-linecap: butt}</style>
 </defs>
 <g id="figure_1">
  <g id="patch_1">
   <path d="M 0 576 
L 576 576 
L 576 0 
L 0 0 
z
" style="fill: #ffffff"/>
  </g>
  <g id="axes_1">
   <g id="LineCollection_1">
    <path d="M 482.592348 202.619602 
L 429.89985 135.584072 
" clip-path="url(#pb9770c9f2b)" style="fill: none; stroke: #000000; stroke-opacity: 0.3; stroke-width: 5.1622"/>
    <path d="M 482.592348 202.619602 
L 352.264291 94.153846 
" clip-path="url(#pb9770c9f2b)" style="fill: none; stroke: #000000; stroke-opacity: 0.3; stroke-width: 5.228316"/>
    <path d="M 429.89985 135.584072 
L 352.264291 94.153846 
" clip-path="url(#pb9770c9f2b)" style="fill: none; stroke: #000000; stroke-opacity: 0.3; stroke-width: 5"/>
    <path d="M 111.23149 400.7964 
L 177.85133 456.240868 
" clip-path="url(#pb9770c9f2b)" style="fill: none; stroke: #000000; stroke-opacity: 0.3; stroke-width: 10"/>
    <path d="M 263.109587 481.846154 
L 352.264323 473.184866 
" clip-path="url(#pb9770c9f2b)" style="fill: none; stroke: #000000; stroke-opacity: 0.3; stroke-width: 7.766519"/>
   </g>
   <g id="PathCollection_1">
    <path d="M 501.230769 311.05549 
C 508.493655 311.05549 515.46005 308.169915 520.595686 303.034279 
C 525.731322 297.898643 528.616897 290.932248 528.616897 283.669362 
C 528.616897 276.406476 525.731322 269.440081 520.595686 264.304445 
C 515.46005 259.168809 508.493655 256.283234 501.230769 256.283234 
C 493.967883 256.283234 487.001488 259.168809 481.865852 264.304445 
C 476.730217 269.440081 473.844641 276.406476 473.844641 283.669362 
C 473.844641 290.932248 476.730217 297.898643 481.865852 303.034279 
C 487.001488 308.169915 493.967883 311.05549 501.230769 311.05549 
z
" clip-path="url(#pb9770c9f2b)" style="fill: #c70039; fill-opacity: 0.99; stroke: #c70039; stroke-opacity: 0.99"/>
    <path d="M 482.592348 228.320173 
C 489.408219 228.320173 495.945847 225.612198 500.765396 220.79265 
C 505.584944 215.973101 508.292919 209.435473 508.292919 202.619602 
C 508.292919 195.803731 505.584944 189.266102 500.765396 184.446554 
C 495.945847 179.627005 489.408219 176.919031 482.592348 176.919031 
C 475.776477 176.919031 469.238849 179.627005 464.4193 184.446554 
C 459.599751 189.266102 456.891777 195.803731 456.891777 202.619602 
C 456.891777 209.435473 459.599751 215.973101 464.4193 220.79265 
C 469.238849 225.612198 475.776477 228.320173 482.592348 228.320173 
z
" clip-path="url(#pb9770c9f2b)" style="fill: #c70039; fill-opacity: 0.99; stroke: #c70039; stroke-opacity: 0.99"/>
    <path d="M 429.89985 159.862581 
C 436.338586 159.862581 442.514474 157.304444 447.067348 152.75157 
C 451.620222 148.198697 454.178359 142.022808 454.178359 135.584072 
C 454.178359 129.145336 451.620222 122.969448 447.067348 118.416574 
C 442.514474 113.8637 436.338586 111.305563 429.89985 111.305563 
C 423.461114 111.305563 417.285225 113.8637 412.732352 118.416574 
C 408.179478 122.969448 405.621341 129.145336 405.621341 135.584072 
C 405.621341 142.022808 408.179478 148.198697 412.732352 152.75157 
C 417.285225 157.304444 423.461114 159.862581 429.89985 159.862581 
z
" clip-path="url(#pb9770c9f2b)" style="fill: #c70039; fill-opacity: 0.99; stroke: #c70039; stroke-opacity: 0.99"/>
    <path d="M 352.264291 117.334842 
C 358.411963 117.334842 364.30867 114.892346 368.655731 110.545286 
C 373.002791 106.198225 375.445287 100.301518 375.445287 94.153846 
C 375.445287 88.006174 373.002791 82.109467 368.655731 77.762407 
C 364.30867 73.415346 358.411963 70.97285 352.264291 70.97285 
C 346.116619 70.97285 340.219912 73.415346 335.872852 77.762407 
C 331.525791 82.109467 329.083295 88.006174 329.083295 94.153846 
C 329.083295 100.301518 331.525791 106.198225 335.872852 110.545286 
C 340.219912 114.892346 346.116619 117.334842 352.264291 117.334842 
z
" clip-path="url(#pb9770c9f2b)" style="fill: #c70039; fill-opacity: 0.99; stroke: #c70039; stroke-opacity: 0.99"/>
    <path d="M 263.109549 108.668214 
C 269.255801 108.668214 275.151147 106.226282 279.497204 101.880225 
C 283.84326 97.534168 286.285192 91.638823 286.285192 85.49257 
C 286.285192 79.346318 283.84326 73.450972 279.497204 69.104915 
C 275.151147 64.758858 269.255801 62.316926 263.109549 62.316926 
C 256.963296 62.316926 251.067951 64.758858 246.721894 69.104915 
C 242.375837 73.450972 239.933905 79.346318 239.933905 85.49257 
C 239.933905 91.638823 242.375837 97.534168 246.721894 101.880225 
C 251.067951 106.226282 256.963296 108.668214 263.109549 108.668214 
z
" clip-path="url(#pb9770c9f2b)" style="fill: #c70039; fill-opacity: 0.99; stroke: #c70039; stroke-opacity: 0.99"/>
    <path d="M 177.851298 133.376943 
C 183.759778 133.376943 189.427057 131.029479 193.604983 126.851553 
C 197.782909 122.673627 200.130373 117.006348 200.130373 111.097868 
C 200.130373 105.189388 197.782909 99.522109 193.604983 95.344183 
C 189.427057 91.166256 183.759778 88.818793 177.851298 88.818793 
C 171.942818 88.818793 166.275539 91.166256 162.097613 95.344183 
C 157.919687 99.522109 155.572223 105.189388 155.572223 111.097868 
C 155.572223 117.006348 157.919687 122.673627 162.097613 126.851553 
C 166.275539 131.029479 171.942818 133.376943 177.851298 133.376943 
z
" clip-path="url(#pb9770c9f2b)" style="fill: #c70039; fill-opacity: 0.99; stroke: #c70039; stroke-opacity: 0.99"/>
    <path d="M 111.231477 187.358017 
C 116.75186 187.358017 122.046885 185.164745 125.950386 181.261245 
C 129.853886 177.357745 132.047157 172.062719 132.047157 166.542336 
C 132.047157 161.021953 129.853886 155.726928 125.950386 151.823428 
C 122.046885 147.919928 116.75186 145.726656 111.231477 145.726656 
C 105.711094 145.726656 100.416069 147.919928 96.512568 151.823428 
C 92.609068 155.726928 90.415797 161.021953 90.415797 166.542336 
C 90.415797 172.062719 92.609068 177.357745 96.512568 181.261245 
C 100.416069 185.164745 105.711094 187.358017 111.231477 187.358017 
z
" clip-path="url(#pb9770c9f2b)" style="fill: #c70039; fill-opacity: 0.99; stroke: #c70039; stroke-opacity: 0.99"/>
    <path d="M 74.769231 263.024612 
C 80.2816 263.024612 85.56894 260.834524 89.466773 256.936691 
C 93.364607 253.038857 95.554695 247.751517 95.554695 242.239148 
C 95.554695 236.726778 93.364607 231.439439 89.466773 227.541605 
C 85.56894 223.643771 80.2816 221.453684 74.769231 221.453684 
C 69.256861 221.453684 63.969522 223.643771 60.071688 227.541605 
C 56.173854 231.439439 53.983767 236.726778 53.983767 242.239148 
C 53.983767 247.751517 56.173854 253.038857 60.071688 256.936691 
C 63.969522 260.834524 69.256861 263.024612 74.769231 263.024612 
z
" clip-path="url(#pb9770c9f2b)" style="fill: #c70039; fill-opacity: 0.99; stroke: #c70039; stroke-opacity: 0.99"/>
    <path d="M 74.769244 345.291611 
C 80.124224 345.291611 85.2606 343.164055 89.047143 339.377512 
C 92.833687 335.590968 94.961243 330.454593 94.961243 325.099612 
C 94.961243 319.744631 92.833687 314.608255 89.047143 310.821712 
C 85.2606 307.035169 80.124224 304.907612 74.769244 304.907612 
C 69.414263 304.907612 64.277887 307.035169 60.491344 310.821712 
C 56.704801 314.608255 54.577244 319.744631 54.577244 325.099612 
C 54.577244 330.454593 56.704801 335.590968 60.491344 339.377512 
C 64.277887 343.164055 69.414263 345.291611 74.769244 345.291611 
z
" clip-path="url(#pb9770c9f2b)" style="fill: #c70039; fill-opacity: 0.99; stroke: #c70039; stroke-opacity: 0.99"/>
    <path d="M 111.23149 420.988399 
C 116.586471 420.988399 121.722846 418.860843 125.50939 415.074299 
C 129.295933 411.287756 131.423489 406.15138 131.423489 400.7964 
C 131.423489 395.441419 129.295933 390.305043 125.50939 386.5185 
C 121.722846 382.731956 116.586471 380.6044 111.23149 380.6044 
C 105.876509 380.6044 100.740133 382.731956 96.95359 386.5185 
C 93.167047 390.305043 91.03949 395.441419 91.03949 400.7964 
C 91.03949 406.15138 93.167047 411.287756 96.95359 415.074299 
C 100.740133 418.860843 105.876509 420.988399 111.23149 420.988399 
z
" clip-path="url(#pb9770c9f2b)" style="fill: #c70039; fill-opacity: 0.99; stroke: #c70039; stroke-opacity: 0.99"/>
    <path d="M 177.85133 476.331114 
C 183.179326 476.331114 188.289818 474.214279 192.057279 470.446817 
C 195.824741 466.679355 197.941576 461.568864 197.941576 456.240868 
C 197.941576 450.912873 195.824741 445.802381 192.057279 442.034919 
C 188.289818 438.267457 183.179326 436.150622 177.85133 436.150622 
C 172.523335 436.150622 167.412843 438.267457 163.645381 442.034919 
C 159.877919 445.802381 157.761084 450.912873 157.761084 456.240868 
C 157.761084 461.568864 159.877919 466.679355 163.645381 470.446817 
C 167.412843 474.214279 172.523335 476.331114 177.85133 476.331114 
z
" clip-path="url(#pb9770c9f2b)" style="fill: #c70039; fill-opacity: 0.99; stroke: #c70039; stroke-opacity: 0.99"/>
    <path d="M 263.109587 501.9364 
C 268.437583 501.9364 273.548074 499.819565 277.315536 496.052103 
C 281.082998 492.284641 283.199833 487.174149 283.199833 481.846154 
C 283.199833 476.518158 281.082998 471.407667 277.315536 467.640205 
C 273.548074 463.872743 268.437583 461.755908 263.109587 461.755908 
C 257.781592 461.755908 252.6711 463.872743 248.903638 467.640205 
C 245.136176 471.407667 243.019341 476.518158 243.019341 481.846154 
C 243.019341 487.174149 245.136176 492.284641 248.903638 496.052103 
C 252.6711 499.819565 257.781592 501.9364 263.109587 501.9364 
z
" clip-path="url(#pb9770c9f2b)" style="fill: #c70039; fill-opacity: 0.99; stroke: #c70039; stroke-opacity: 0.99"/>
    <path d="M 352.264323 493.261389 
C 357.588679 493.261389 362.695681 491.146 366.460569 487.381112 
C 370.225457 483.616223 372.340846 478.509222 372.340846 473.184866 
C 372.340846 467.86051 370.225457 462.753509 366.460569 458.98862 
C 362.695681 455.223732 357.588679 453.108343 352.264323 453.108343 
C 346.939967 453.108343 341.832966 455.223732 338.068078 458.98862 
C 334.303189 462.753509 332.1878 467.86051 332.1878 473.184866 
C 332.1878 478.509222 334.303189 483.616223 338.068078 487.381112 
C 341.832966 491.146 346.939967 493.261389 352.264323 493.261389 
z
" clip-path="url(#pb9770c9f2b)" style="fill: #c70039; fill-opacity: 0.99; stroke: #c70039; stroke-opacity: 0.99"/>
    <path d="M 429.899888 451.180745 
C 435.051758 451.180745 439.993314 449.133886 443.636236 445.490964 
C 447.279158 441.848042 449.326017 436.906486 449.326017 431.754616 
C 449.326017 426.602747 447.279158 421.661191 443.636236 418.018269 
C 439.993314 414.375347 435.051758 412.328487 429.899888 412.328487 
C 424.748019 412.328487 419.806463 414.375347 416.163541 418.018269 
C 412.520619 421.661191 410.473759 426.602747 410.473759 431.754616 
C 410.473759 436.906486 412.520619 441.848042 416.163541 445.490964 
C 419.806463 449.133886 424.748019 451.180745 429.899888 451.180745 
z
" clip-path="url(#pb9770c9f2b)" style="fill: #c70039; fill-opacity: 0.99; stroke: #c70039; stroke-opacity: 0.99"/>
    <path d="M 482.592374 384.084009 
C 487.728009 384.084009 492.653994 382.0436 496.285437 378.412157 
C 499.91688 374.780714 501.95729 369.854729 501.95729 364.719093 
C 501.95729 359.583457 499.91688 354.657472 496.285437 351.026029 
C 492.653994 347.394586 487.728009 345.354176 482.592374 345.354176 
C 477.456738 345.354176 472.530753 347.394586 468.89931 351.026029 
C 465.267867 354.657472 463.227457 359.583457 463.227457 364.719093 
C 463.227457 369.854729 465.267867 374.780714 468.89931 378.412157 
C 472.530753 382.0436 477.456738 384.084009 482.592374 384.084009 
z
" clip-path="url(#pb9770c9f2b)" style="fill: #c70039; fill-opacity: 0.99; stroke: #c70039; stroke-opacity: 0.99"/>
   </g>
   <g id="text_1">
    <g id="patch_2">
     <path d="M 470.211707 291.984518 
L 532.249832 291.984518 
L 532.249832 275.354206 
L 470.211707 275.354206 
z
" clip-path="url(#pb9770c9f2b)" style="fill: #ffffff; opacity: 0.7; stroke: #000000; stroke-linejoin: miter"/>
    </g>
    <g clip-path="url(#pb9770c9f2b)">
     <!-- Robert Wise -->
     <g transform="translate(474.171707 286.1528)scale(0.09 -0.09)">
      <defs>
       <path id="DejaVuSans-52" d="M 2841 2188 
Q 3044 2119 3236 1894 
Q 3428 1669 3622 1275 
L 4263 0 
L 3584 0 
L 2988 1197 
Q 2756 1666 2539 1819 
Q 2322 1972 1947 1972 
L 1259 1972 
L 1259 0 
L 628 0 
L 628 4666 
L 2053 4666 
Q 2853 4666 3247 4331 
Q 3641 3997 3641 3322 
Q 3641 2881 3436 2590 
Q 3231 2300 2841 2188 
z
M 1259 4147 
L 1259 2491 
L 2053 2491 
Q 2509 2491 2742 2702 
Q 2975 2913 2975 3322 
Q 2975 3731 2742 3939 
Q 2509 4147 2053 4147 
L 1259 4147 
z
" transform="scale(0.015625)"/>
       <path id="DejaVuSans-6f" d="M 1959 3097 
Q 1497 3097 1228 2736 
Q 959 2375 959 1747 
Q 959 1119 1226 758 
Q 1494 397 1959 397 
Q 2419 397 2687 759 
Q 2956 1122 2956 1747 
Q 2956 2369 2687 2733 
Q 2419 3097 1959 3097 
z
M 1959 3584 
Q 2709 3584 3137 3096 
Q 3566 2609 3566 1747 
Q 3566 888 3137 398 
Q 2709 -91 1959 -91 
Q 1206 -91 779 398 
Q 353 888 353 1747 
Q 353 2609 779 3096 
Q 1206 3584 1959 3584 
z
" transform="scale(0.015625)"/>
       <path id="DejaVuSans-62" d="M 3116 1747 
Q 3116 2381 2855 2742 
Q 2594 3103 2138 3103 
Q 1681 3103 1420 2742 
Q 1159 2381 1159 1747 
Q 1159 1113 1420 752 
Q 1681 391 2138 391 
Q 2594 391 2855 752 
Q 3116 1113 3116 1747 
z
M 1159 2969 
Q 1341 3281 1617 3432 
Q 1894 3584 2278 3584 
Q 2916 3584 3314 3078 
Q 3713 2572 3713 1747 
Q 3713 922 3314 415 
Q 2916 -91 2278 -91 
Q 1894 -91 1617 61 
Q 1341 213 1159 525 
L 1159 0 
L 581 0 
L 581 4863 
L 1159 4863 
L 1159 2969 
z
" transform="scale(0.015625)"/>
       <path id="DejaVuSans-65" d="M 3597 1894 
L 3597 1613 
L 953 1613 
Q 991 1019 1311 708 
Q 1631 397 2203 397 
Q 2534 397 2845 478 
Q 3156 559 3463 722 
L 3463 178 
Q 3153 47 2828 -22 
Q 2503 -91 2169 -91 
Q 1331 -91 842 396 
Q 353 884 353 1716 
Q 353 2575 817 3079 
Q 1281 3584 2069 3584 
Q 2775 3584 3186 3129 
Q 3597 2675 3597 1894 
z
M 3022 2063 
Q 3016 2534 2758 2815 
Q 2500 3097 2075 3097 
Q 1594 3097 1305 2825 
Q 1016 2553 972 2059 
L 3022 2063 
z
" transform="scale(0.015625)"/>
       <path id="DejaVuSans-72" d="M 2631 2963 
Q 2534 3019 2420 3045 
Q 2306 3072 2169 3072 
Q 1681 3072 1420 2755 
Q 1159 2438 1159 1844 
L 1159 0 
L 581 0 
L 581 3500 
L 1159 3500 
L 1159 2956 
Q 1341 3275 1631 3429 
Q 1922 3584 2338 3584 
Q 2397 3584 2469 3576 
Q 2541 3569 2628 3553 
L 2631 2963 
z
" transform="scale(0.015625)"/>
       <path id="DejaVuSans-74" d="M 1172 4494 
L 1172 3500 
L 2356 3500 
L 2356 3053 
L 1172 3053 
L 1172 1153 
Q 1172 725 1289 603 
Q 1406 481 1766 481 
L 2356 481 
L 2356 0 
L 1766 0 
Q 1100 0 847 248 
Q 594 497 594 1153 
L 594 3053 
L 172 3053 
L 172 3500 
L 594 3500 
L 594 4494 
L 1172 4494 
z
" transform="scale(0.015625)"/>
       <path id="DejaVuSans-20" transform="scale(0.015625)"/>
       <path id="DejaVuSans-57" d="M 213 4666 
L 850 4666 
L 1831 722 
L 2809 4666 
L 3519 4666 
L 4500 722 
L 5478 4666 
L 6119 4666 
L 4947 0 
L 4153 0 
L 3169 4050 
L 2175 0 
L 1381 0 
L 213 4666 
z
" transform="scale(0.015625)"/>
       <path id="DejaVuSans-69" d="M 603 3500 
L 1178 3500 
L 1178 0 
L 603 0 
L 603 3500 
z
M 603 4863 
L 1178 4863 
L 1178 4134 
L 603 4134 
L 603 4863 
z
" transform="scale(0.015625)"/>
       <path id="DejaVuSans-73" d="M 2834 3397 
L 2834 2853 
Q 2591 2978 2328 3040 
Q 2066 3103 1784 3103 
Q 1356 3103 1142 2972 
Q 928 2841 928 2578 
Q 928 2378 1081 2264 
Q 1234 2150 1697 2047 
L 1894 2003 
Q 2506 1872 2764 1633 
Q 3022 1394 3022 966 
Q 3022 478 2636 193 
Q 2250 -91 1575 -91 
Q 1294 -91 989 -36 
Q 684 19 347 128 
L 347 722 
Q 666 556 975 473 
Q 1284 391 1588 391 
Q 1994 391 2212 530 
Q 2431 669 2431 922 
Q 2431 1156 2273 1281 
Q 2116 1406 1581 1522 
L 1381 1569 
Q 847 1681 609 1914 
Q 372 2147 372 2553 
Q 372 3047 722 3315 
Q 1072 3584 1716 3584 
Q 2034 3584 2315 3537 
Q 2597 3491 2834 3397 
z
" transform="scale(0.015625)"/>
      </defs>
      <use xlink:href="#DejaVuSans-52"/>
      <use xlink:href="#DejaVuSans-6f" x="64.982422"/>
      <use xlink:href="#DejaVuSans-62" x="126.164062"/>
      <use xlink:href="#DejaVuSans-65" x="189.640625"/>
      <use xlink:href="#DejaVuSans-72" x="251.164062"/>
      <use xlink:href="#DejaVuSans-74" x="292.277344"/>
      <use xlink:href="#DejaVuSans-20" x="331.486328"/>
      <use xlink:href="#DejaVuSans-57" x="363.273438"/>
      <use xlink:href="#DejaVuSans-69" x="459.900391"/>
      <use xlink:href="#DejaVuSans-73" x="487.683594"/>
      <use xlink:href="#DejaVuSans-65" x="539.783203"/>
     </g>
    </g>
   </g>
   <g id="text_2">
    <g id="patch_3">
     <path d="M 451.23016 210.934758 
L 513.954535 210.934758 
L 513.954535 194.304446 
L 451.23016 194.304446 
z
" clip-path="url(#pb9770c9f2b)" style="fill: #ffffff; opacity: 0.7; stroke: #000000; stroke-linejoin: miter"/>
    </g>
    <g clip-path="url(#pb9770c9f2b)">
     <!-- Chuck Jones -->
     <g transform="translate(455.19016 205.103039)scale(0.09 -0.09)">
      <defs>
       <path id="DejaVuSans-43" d="M 4122 4306 
L 4122 3641 
Q 3803 3938 3442 4084 
Q 3081 4231 2675 4231 
Q 1875 4231 1450 3742 
Q 1025 3253 1025 2328 
Q 1025 1406 1450 917 
Q 1875 428 2675 428 
Q 3081 428 3442 575 
Q 3803 722 4122 1019 
L 4122 359 
Q 3791 134 3420 21 
Q 3050 -91 2638 -91 
Q 1578 -91 968 557 
Q 359 1206 359 2328 
Q 359 3453 968 4101 
Q 1578 4750 2638 4750 
Q 3056 4750 3426 4639 
Q 3797 4528 4122 4306 
z
" transform="scale(0.015625)"/>
       <path id="DejaVuSans-68" d="M 3513 2113 
L 3513 0 
L 2938 0 
L 2938 2094 
Q 2938 2591 2744 2837 
Q 2550 3084 2163 3084 
Q 1697 3084 1428 2787 
Q 1159 2491 1159 1978 
L 1159 0 
L 581 0 
L 581 4863 
L 1159 4863 
L 1159 2956 
Q 1366 3272 1645 3428 
Q 1925 3584 2291 3584 
Q 2894 3584 3203 3211 
Q 3513 2838 3513 2113 
z
" transform="scale(0.015625)"/>
       <path id="DejaVuSans-75" d="M 544 1381 
L 544 3500 
L 1119 3500 
L 1119 1403 
Q 1119 906 1312 657 
Q 1506 409 1894 409 
Q 2359 409 2629 706 
Q 2900 1003 2900 1516 
L 2900 3500 
L 3475 3500 
L 3475 0 
L 2900 0 
L 2900 538 
Q 2691 219 2414 64 
Q 2138 -91 1772 -91 
Q 1169 -91 856 284 
Q 544 659 544 1381 
z
M 1991 3584 
L 1991 3584 
z
" transform="scale(0.015625)"/>
       <path id="DejaVuSans-63" d="M 3122 3366 
L 3122 2828 
Q 2878 2963 2633 3030 
Q 2388 3097 2138 3097 
Q 1578 3097 1268 2742 
Q 959 2388 959 1747 
Q 959 1106 1268 751 
Q 1578 397 2138 397 
Q 2388 397 2633 464 
Q 2878 531 3122 666 
L 3122 134 
Q 2881 22 2623 -34 
Q 2366 -91 2075 -91 
Q 1284 -91 818 406 
Q 353 903 353 1747 
Q 353 2603 823 3093 
Q 1294 3584 2113 3584 
Q 2378 3584 2631 3529 
Q 2884 3475 3122 3366 
z
" transform="scale(0.015625)"/>
       <path id="DejaVuSans-6b" d="M 581 4863 
L 1159 4863 
L 1159 1991 
L 2875 3500 
L 3609 3500 
L 1753 1863 
L 3688 0 
L 2938 0 
L 1159 1709 
L 1159 0 
L 581 0 
L 581 4863 
z
" transform="scale(0.015625)"/>
       <path id="DejaVuSans-4a" d="M 628 4666 
L 1259 4666 
L 1259 325 
Q 1259 -519 939 -900 
Q 619 -1281 -91 -1281 
L -331 -1281 
L -331 -750 
L -134 -750 
Q 284 -750 456 -515 
Q 628 -281 628 325 
L 628 4666 
z
" transform="scale(0.015625)"/>
       <path id="DejaVuSans-6e" d="M 3513 2113 
L 3513 0 
L 2938 0 
L 2938 2094 
Q 2938 2591 2744 2837 
Q 2550 3084 2163 3084 
Q 1697 3084 1428 2787 
Q 1159 2491 1159 1978 
L 1159 0 
L 581 0 
L 581 3500 
L 1159 3500 
L 1159 2956 
Q 1366 3272 1645 3428 
Q 1925 3584 2291 3584 
Q 2894 3584 3203 3211 
Q 3513 2838 3513 2113 
z
" transform="scale(0.015625)"/>
      </defs>
      <use xlink:href="#DejaVuSans-43"/>
      <use xlink:href="#DejaVuSans-68" x="69.824219"/>
      <use xlink:href="#DejaVuSans-75" x="133.203125"/>
      <use xlink:href="#DejaVuSans-63" x="196.582031"/>
      <use xlink:href="#DejaVuSans-6b" x="251.5625"/>
      <use xlink:href="#DejaVuSans-20" x="309.472656"/>
      <use xlink:href="#DejaVuSans-4a" x="341.259766"/>
      <use xlink:href="#DejaVuSans-6f" x="370.751953"/>
      <use xlink:href="#DejaVuSans-6e" x="431.933594"/>
      <use xlink:href="#DejaVuSans-65" x="495.3125"/>
      <use xlink:href="#DejaVuSans-73" x="556.835938"/>
     </g>
    </g>
   </g>
   <g id="text_3">
    <g id="patch_4">
     <path d="M 400.2786 143.899228 
L 459.5211 143.899228 
L 459.5211 127.268916 
L 400.2786 127.268916 
z
" clip-path="url(#pb9770c9f2b)" style="fill: #ffffff; opacity: 0.7; stroke: #000000; stroke-linejoin: miter"/>
    </g>
    <g clip-path="url(#pb9770c9f2b)">
     <!-- Friz Freleng -->
     <g transform="translate(404.2386 138.06751)scale(0.09 -0.09)">
      <defs>
       <path id="DejaVuSans-46" d="M 628 4666 
L 3309 4666 
L 3309 4134 
L 1259 4134 
L 1259 2759 
L 3109 2759 
L 3109 2228 
L 1259 2228 
L 1259 0 
L 628 0 
L 628 4666 
z
" transform="scale(0.015625)"/>
       <path id="DejaVuSans-7a" d="M 353 3500 
L 3084 3500 
L 3084 2975 
L 922 459 
L 3084 459 
L 3084 0 
L 275 0 
L 275 525 
L 2438 3041 
L 353 3041 
L 353 3500 
z
" transform="scale(0.015625)"/>
       <path id="DejaVuSans-6c" d="M 603 4863 
L 1178 4863 
L 1178 0 
L 603 0 
L 603 4863 
z
" transform="scale(0.015625)"/>
       <path id="DejaVuSans-67" d="M 2906 1791 
Q 2906 2416 2648 2759 
Q 2391 3103 1925 3103 
Q 1463 3103 1205 2759 
Q 947 2416 947 1791 
Q 947 1169 1205 825 
Q 1463 481 1925 481 
Q 2391 481 2648 825 
Q 2906 1169 2906 1791 
z
M 3481 434 
Q 3481 -459 3084 -895 
Q 2688 -1331 1869 -1331 
Q 1566 -1331 1297 -1286 
Q 1028 -1241 775 -1147 
L 775 -588 
Q 1028 -725 1275 -790 
Q 1522 -856 1778 -856 
Q 2344 -856 2625 -561 
Q 2906 -266 2906 331 
L 2906 616 
Q 2728 306 2450 153 
Q 2172 0 1784 0 
Q 1141 0 747 490 
Q 353 981 353 1791 
Q 353 2603 747 3093 
Q 1141 3584 1784 3584 
Q 2172 3584 2450 3431 
Q 2728 3278 2906 2969 
L 2906 3500 
L 3481 3500 
L 3481 434 
z
" transform="scale(0.015625)"/>
      </defs>
      <use xlink:href="#DejaVuSans-46"/>
      <use xlink:href="#DejaVuSans-72" x="50.269531"/>
      <use xlink:href="#DejaVuSans-69" x="91.382812"/>
      <use xlink:href="#DejaVuSans-7a" x="119.166016"/>
      <use xlink:href="#DejaVuSans-20" x="171.65625"/>
      <use xlink:href="#DejaVuSans-46" x="203.443359"/>
      <use xlink:href="#DejaVuSans-72" x="253.712891"/>
      <use xlink:href="#DejaVuSans-65" x="292.576172"/>
      <use xlink:href="#DejaVuSans-6c" x="354.099609"/>
      <use xlink:href="#DejaVuSans-65" x="381.882812"/>
      <use xlink:href="#DejaVuSans-6e" x="443.40625"/>
      <use xlink:href="#DejaVuSans-67" x="506.785156"/>
     </g>
    </g>
   </g>
   <g id="text_4">
    <g id="patch_5">
     <path d="M 309.065697 102.469002 
L 395.462885 102.469002 
L 395.462885 85.83869 
L 309.065697 85.83869 
z
" clip-path="url(#pb9770c9f2b)" style="fill: #ffffff; opacity: 0.7; stroke: #000000; stroke-linejoin: miter"/>
    </g>
    <g clip-path="url(#pb9770c9f2b)">
     <!-- Robert McKimson -->
     <g transform="translate(313.025697 96.637284)scale(0.09 -0.09)">
      <defs>
       <path id="DejaVuSans-4d" d="M 628 4666 
L 1569 4666 
L 2759 1491 
L 3956 4666 
L 4897 4666 
L 4897 0 
L 4281 0 
L 4281 4097 
L 3078 897 
L 2444 897 
L 1241 4097 
L 1241 0 
L 628 0 
L 628 4666 
z
" transform="scale(0.015625)"/>
       <path id="DejaVuSans-4b" d="M 628 4666 
L 1259 4666 
L 1259 2694 
L 3353 4666 
L 4166 4666 
L 1850 2491 
L 4331 0 
L 3500 0 
L 1259 2247 
L 1259 0 
L 628 0 
L 628 4666 
z
" transform="scale(0.015625)"/>
       <path id="DejaVuSans-6d" d="M 3328 2828 
Q 3544 3216 3844 3400 
Q 4144 3584 4550 3584 
Q 5097 3584 5394 3201 
Q 5691 2819 5691 2113 
L 5691 0 
L 5113 0 
L 5113 2094 
Q 5113 2597 4934 2840 
Q 4756 3084 4391 3084 
Q 3944 3084 3684 2787 
Q 3425 2491 3425 1978 
L 3425 0 
L 2847 0 
L 2847 2094 
Q 2847 2600 2669 2842 
Q 2491 3084 2119 3084 
Q 1678 3084 1418 2786 
Q 1159 2488 1159 1978 
L 1159 0 
L 581 0 
L 581 3500 
L 1159 3500 
L 1159 2956 
Q 1356 3278 1631 3431 
Q 1906 3584 2284 3584 
Q 2666 3584 2933 3390 
Q 3200 3197 3328 2828 
z
" transform="scale(0.015625)"/>
      </defs>
      <use xlink:href="#DejaVuSans-52"/>
      <use xlink:href="#DejaVuSans-6f" x="64.982422"/>
      <use xlink:href="#DejaVuSans-62" x="126.164062"/>
      <use xlink:href="#DejaVuSans-65" x="189.640625"/>
      <use xlink:href="#DejaVuSans-72" x="251.164062"/>
      <use xlink:href="#DejaVuSans-74" x="292.277344"/>
      <use xlink:href="#DejaVuSans-20" x="331.486328"/>
      <use xlink:href="#DejaVuSans-4d" x="363.273438"/>
      <use xlink:href="#DejaVuSans-63" x="449.552734"/>
      <use xlink:href="#DejaVuSans-4b" x="504.533203"/>
      <use xlink:href="#DejaVuSans-69" x="570.109375"/>
      <use xlink:href="#DejaVuSans-6d" x="597.892578"/>
      <use xlink:href="#DejaVuSans-73" x="695.304688"/>
      <use xlink:href="#DejaVuSans-6f" x="747.404297"/>
      <use xlink:href="#DejaVuSans-6e" x="808.585938"/>
     </g>
    </g>
   </g>
   <g id="text_5">
    <g id="patch_6">
     <path d="M 222.400017 93.807726 
L 303.81908 93.807726 
L 303.81908 77.177414 
L 222.400017 77.177414 
z
" clip-path="url(#pb9770c9f2b)" style="fill: #ffffff; opacity: 0.7; stroke: #000000; stroke-linejoin: miter"/>
    </g>
    <g clip-path="url(#pb9770c9f2b)">
     <!-- Alfred Hitchcock -->
     <g transform="translate(226.360017 87.976008)scale(0.09 -0.09)">
      <defs>
       <path id="DejaVuSans-41" d="M 2188 4044 
L 1331 1722 
L 3047 1722 
L 2188 4044 
z
M 1831 4666 
L 2547 4666 
L 4325 0 
L 3669 0 
L 3244 1197 
L 1141 1197 
L 716 0 
L 50 0 
L 1831 4666 
z
" transform="scale(0.015625)"/>
       <path id="DejaVuSans-66" d="M 2375 4863 
L 2375 4384 
L 1825 4384 
Q 1516 4384 1395 4259 
Q 1275 4134 1275 3809 
L 1275 3500 
L 2222 3500 
L 2222 3053 
L 1275 3053 
L 1275 0 
L 697 0 
L 697 3053 
L 147 3053 
L 147 3500 
L 697 3500 
L 697 3744 
Q 697 4328 969 4595 
Q 1241 4863 1831 4863 
L 2375 4863 
z
" transform="scale(0.015625)"/>
       <path id="DejaVuSans-64" d="M 2906 2969 
L 2906 4863 
L 3481 4863 
L 3481 0 
L 2906 0 
L 2906 525 
Q 2725 213 2448 61 
Q 2172 -91 1784 -91 
Q 1150 -91 751 415 
Q 353 922 353 1747 
Q 353 2572 751 3078 
Q 1150 3584 1784 3584 
Q 2172 3584 2448 3432 
Q 2725 3281 2906 2969 
z
M 947 1747 
Q 947 1113 1208 752 
Q 1469 391 1925 391 
Q 2381 391 2643 752 
Q 2906 1113 2906 1747 
Q 2906 2381 2643 2742 
Q 2381 3103 1925 3103 
Q 1469 3103 1208 2742 
Q 947 2381 947 1747 
z
" transform="scale(0.015625)"/>
       <path id="DejaVuSans-48" d="M 628 4666 
L 1259 4666 
L 1259 2753 
L 3553 2753 
L 3553 4666 
L 4184 4666 
L 4184 0 
L 3553 0 
L 3553 2222 
L 1259 2222 
L 1259 0 
L 628 0 
L 628 4666 
z
" transform="scale(0.015625)"/>
      </defs>
      <use xlink:href="#DejaVuSans-41"/>
      <use xlink:href="#DejaVuSans-6c" x="68.408203"/>
      <use xlink:href="#DejaVuSans-66" x="96.191406"/>
      <use xlink:href="#DejaVuSans-72" x="131.396484"/>
      <use xlink:href="#DejaVuSans-65" x="170.259766"/>
      <use xlink:href="#DejaVuSans-64" x="231.783203"/>
      <use xlink:href="#DejaVuSans-20" x="295.259766"/>
      <use xlink:href="#DejaVuSans-48" x="327.046875"/>
      <use xlink:href="#DejaVuSans-69" x="402.242188"/>
      <use xlink:href="#DejaVuSans-74" x="430.025391"/>
      <use xlink:href="#DejaVuSans-63" x="469.234375"/>
      <use xlink:href="#DejaVuSans-68" x="524.214844"/>
      <use xlink:href="#DejaVuSans-63" x="587.59375"/>
      <use xlink:href="#DejaVuSans-6f" x="642.574219"/>
      <use xlink:href="#DejaVuSans-63" x="703.755859"/>
      <use xlink:href="#DejaVuSans-6b" x="758.736328"/>
     </g>
    </g>
   </g>
   <g id="text_6">
    <g id="patch_7">
     <path d="M 146.049657 119.413024 
L 209.652939 119.413024 
L 209.652939 102.782712 
L 146.049657 102.782712 
z
" clip-path="url(#pb9770c9f2b)" style="fill: #ffffff; opacity: 0.7; stroke: #000000; stroke-linejoin: miter"/>
    </g>
    <g clip-path="url(#pb9770c9f2b)">
     <!-- Woody Allen -->
     <g transform="translate(150.009657 113.581305)scale(0.09 -0.09)">
      <defs>
       <path id="DejaVuSans-79" d="M 2059 -325 
Q 1816 -950 1584 -1140 
Q 1353 -1331 966 -1331 
L 506 -1331 
L 506 -850 
L 844 -850 
Q 1081 -850 1212 -737 
Q 1344 -625 1503 -206 
L 1606 56 
L 191 3500 
L 800 3500 
L 1894 763 
L 2988 3500 
L 3597 3500 
L 2059 -325 
z
" transform="scale(0.015625)"/>
      </defs>
      <use xlink:href="#DejaVuSans-57"/>
      <use xlink:href="#DejaVuSans-6f" x="93.001953"/>
      <use xlink:href="#DejaVuSans-6f" x="154.183594"/>
      <use xlink:href="#DejaVuSans-64" x="215.365234"/>
      <use xlink:href="#DejaVuSans-79" x="278.841797"/>
      <use xlink:href="#DejaVuSans-20" x="338.021484"/>
      <use xlink:href="#DejaVuSans-41" x="369.808594"/>
      <use xlink:href="#DejaVuSans-6c" x="438.216797"/>
      <use xlink:href="#DejaVuSans-6c" x="466"/>
      <use xlink:href="#DejaVuSans-65" x="493.783203"/>
      <use xlink:href="#DejaVuSans-6e" x="555.306641"/>
     </g>
    </g>
   </g>
   <g id="text_7">
    <g id="patch_8">
     <path d="M 68.15593 174.857493 
L 154.307024 174.857493 
L 154.307024 158.22718 
L 68.15593 158.22718 
z
" clip-path="url(#pb9770c9f2b)" style="fill: #ffffff; opacity: 0.7; stroke: #000000; stroke-linejoin: miter"/>
    </g>
    <g clip-path="url(#pb9770c9f2b)">
     <!-- Jonathan Demme -->
     <g transform="translate(72.11593 169.025774)scale(0.09 -0.09)">
      <defs>
       <path id="DejaVuSans-61" d="M 2194 1759 
Q 1497 1759 1228 1600 
Q 959 1441 959 1056 
Q 959 750 1161 570 
Q 1363 391 1709 391 
Q 2188 391 2477 730 
Q 2766 1069 2766 1631 
L 2766 1759 
L 2194 1759 
z
M 3341 1997 
L 3341 0 
L 2766 0 
L 2766 531 
Q 2569 213 2275 61 
Q 1981 -91 1556 -91 
Q 1019 -91 701 211 
Q 384 513 384 1019 
Q 384 1609 779 1909 
Q 1175 2209 1959 2209 
L 2766 2209 
L 2766 2266 
Q 2766 2663 2505 2880 
Q 2244 3097 1772 3097 
Q 1472 3097 1187 3025 
Q 903 2953 641 2809 
L 641 3341 
Q 956 3463 1253 3523 
Q 1550 3584 1831 3584 
Q 2591 3584 2966 3190 
Q 3341 2797 3341 1997 
z
" transform="scale(0.015625)"/>
       <path id="DejaVuSans-44" d="M 1259 4147 
L 1259 519 
L 2022 519 
Q 2988 519 3436 956 
Q 3884 1394 3884 2338 
Q 3884 3275 3436 3711 
Q 2988 4147 2022 4147 
L 1259 4147 
z
M 628 4666 
L 1925 4666 
Q 3281 4666 3915 4102 
Q 4550 3538 4550 2338 
Q 4550 1131 3912 565 
Q 3275 0 1925 0 
L 628 0 
L 628 4666 
z
" transform="scale(0.015625)"/>
      </defs>
      <use xlink:href="#DejaVuSans-4a"/>
      <use xlink:href="#DejaVuSans-6f" x="29.492188"/>
      <use xlink:href="#DejaVuSans-6e" x="90.673828"/>
      <use xlink:href="#DejaVuSans-61" x="154.052734"/>
      <use xlink:href="#DejaVuSans-74" x="215.332031"/>
      <use xlink:href="#DejaVuSans-68" x="254.541016"/>
      <use xlink:href="#DejaVuSans-61" x="317.919922"/>
      <use xlink:href="#DejaVuSans-6e" x="379.199219"/>
      <use xlink:href="#DejaVuSans-20" x="442.578125"/>
      <use xlink:href="#DejaVuSans-44" x="474.365234"/>
      <use xlink:href="#DejaVuSans-65" x="551.367188"/>
      <use xlink:href="#DejaVuSans-6d" x="612.890625"/>
      <use xlink:href="#DejaVuSans-6d" x="710.302734"/>
      <use xlink:href="#DejaVuSans-65" x="807.714844"/>
     </g>
    </g>
   </g>
   <g id="text_8">
    <g id="patch_9">
     <path d="M 43.634856 250.554304 
L 105.903606 250.554304 
L 105.903606 233.923992 
L 43.634856 233.923992 
z
" clip-path="url(#pb9770c9f2b)" style="fill: #ffffff; opacity: 0.7; stroke: #000000; stroke-linejoin: miter"/>
    </g>
    <g clip-path="url(#pb9770c9f2b)">
     <!-- Michael Bay -->
     <g transform="translate(47.594856 244.722585)scale(0.09 -0.09)">
      <defs>
       <path id="DejaVuSans-42" d="M 1259 2228 
L 1259 519 
L 2272 519 
Q 2781 519 3026 730 
Q 3272 941 3272 1375 
Q 3272 1813 3026 2020 
Q 2781 2228 2272 2228 
L 1259 2228 
z
M 1259 4147 
L 1259 2741 
L 2194 2741 
Q 2656 2741 2882 2914 
Q 3109 3088 3109 3444 
Q 3109 3797 2882 3972 
Q 2656 4147 2194 4147 
L 1259 4147 
z
M 628 4666 
L 2241 4666 
Q 2963 4666 3353 4366 
Q 3744 4066 3744 3513 
Q 3744 3084 3544 2831 
Q 3344 2578 2956 2516 
Q 3422 2416 3680 2098 
Q 3938 1781 3938 1306 
Q 3938 681 3513 340 
Q 3088 0 2303 0 
L 628 0 
L 628 4666 
z
" transform="scale(0.015625)"/>
      </defs>
      <use xlink:href="#DejaVuSans-4d"/>
      <use xlink:href="#DejaVuSans-69" x="86.279297"/>
      <use xlink:href="#DejaVuSans-63" x="114.0625"/>
      <use xlink:href="#DejaVuSans-68" x="169.042969"/>
      <use xlink:href="#DejaVuSans-61" x="232.421875"/>
      <use xlink:href="#DejaVuSans-65" x="293.701172"/>
      <use xlink:href="#DejaVuSans-6c" x="355.224609"/>
      <use xlink:href="#DejaVuSans-20" x="383.007812"/>
      <use xlink:href="#DejaVuSans-42" x="414.794922"/>
      <use xlink:href="#DejaVuSans-61" x="483.398438"/>
      <use xlink:href="#DejaVuSans-79" x="544.677734"/>
     </g>
    </g>
   </g>
   <g id="text_9">
    <g id="patch_10">
     <path d="M 32.78354 333.414768 
L 116.754947 333.414768 
L 116.754947 316.784456 
L 32.78354 316.784456 
z
" clip-path="url(#pb9770c9f2b)" style="fill: #ffffff; opacity: 0.7; stroke: #000000; stroke-linejoin: miter"/>
    </g>
    <g clip-path="url(#pb9770c9f2b)">
     <!-- Robert Zemeckis -->
     <g transform="translate(36.74354 327.583049)scale(0.09 -0.09)">
      <defs>
       <path id="DejaVuSans-5a" d="M 359 4666 
L 4025 4666 
L 4025 4184 
L 1075 531 
L 4097 531 
L 4097 0 
L 288 0 
L 288 481 
L 3238 4134 
L 359 4134 
L 359 4666 
z
" transform="scale(0.015625)"/>
      </defs>
      <use xlink:href="#DejaVuSans-52"/>
      <use xlink:href="#DejaVuSans-6f" x="64.982422"/>
      <use xlink:href="#DejaVuSans-62" x="126.164062"/>
      <use xlink:href="#DejaVuSans-65" x="189.640625"/>
      <use xlink:href="#DejaVuSans-72" x="251.164062"/>
      <use xlink:href="#DejaVuSans-74" x="292.277344"/>
      <use xlink:href="#DejaVuSans-20" x="331.486328"/>
      <use xlink:href="#DejaVuSans-5a" x="363.273438"/>
      <use xlink:href="#DejaVuSans-65" x="431.779297"/>
      <use xlink:href="#DejaVuSans-6d" x="493.302734"/>
      <use xlink:href="#DejaVuSans-65" x="590.714844"/>
      <use xlink:href="#DejaVuSans-63" x="652.238281"/>
      <use xlink:href="#DejaVuSans-6b" x="707.21875"/>
      <use xlink:href="#DejaVuSans-69" x="765.128906"/>
      <use xlink:href="#DejaVuSans-73" x="792.912109"/>
     </g>
    </g>
   </g>
   <g id="text_10">
    <g id="patch_11">
     <path d="M 74.748443 409.111556 
L 147.714537 409.111556 
L 147.714537 392.481243 
L 74.748443 392.481243 
z
" clip-path="url(#pb9770c9f2b)" style="fill: #ffffff; opacity: 0.7; stroke: #000000; stroke-linejoin: miter"/>
    </g>
    <g clip-path="url(#pb9770c9f2b)">
     <!-- William Hanna -->
     <g transform="translate(78.708443 403.279837)scale(0.09 -0.09)">
      <use xlink:href="#DejaVuSans-57"/>
      <use xlink:href="#DejaVuSans-69" x="96.626953"/>
      <use xlink:href="#DejaVuSans-6c" x="124.410156"/>
      <use xlink:href="#DejaVuSans-6c" x="152.193359"/>
      <use xlink:href="#DejaVuSans-69" x="179.976562"/>
      <use xlink:href="#DejaVuSans-61" x="207.759766"/>
      <use xlink:href="#DejaVuSans-6d" x="269.039062"/>
      <use xlink:href="#DejaVuSans-20" x="366.451172"/>
      <use xlink:href="#DejaVuSans-48" x="398.238281"/>
      <use xlink:href="#DejaVuSans-61" x="473.433594"/>
      <use xlink:href="#DejaVuSans-6e" x="534.712891"/>
      <use xlink:href="#DejaVuSans-6e" x="598.091797"/>
      <use xlink:href="#DejaVuSans-61" x="661.470703"/>
     </g>
    </g>
   </g>
   <g id="text_11">
    <g id="patch_12">
     <path d="M 139.630158 464.556024 
L 216.072502 464.556024 
L 216.072502 447.925712 
L 139.630158 447.925712 
z
" clip-path="url(#pb9770c9f2b)" style="fill: #ffffff; opacity: 0.7; stroke: #000000; stroke-linejoin: miter"/>
    </g>
    <g clip-path="url(#pb9770c9f2b)">
     <!-- Joseph Barbera -->
     <g transform="translate(143.590158 458.724306)scale(0.09 -0.09)">
      <defs>
       <path id="DejaVuSans-70" d="M 1159 525 
L 1159 -1331 
L 581 -1331 
L 581 3500 
L 1159 3500 
L 1159 2969 
Q 1341 3281 1617 3432 
Q 1894 3584 2278 3584 
Q 2916 3584 3314 3078 
Q 3713 2572 3713 1747 
Q 3713 922 3314 415 
Q 2916 -91 2278 -91 
Q 1894 -91 1617 61 
Q 1341 213 1159 525 
z
M 3116 1747 
Q 3116 2381 2855 2742 
Q 2594 3103 2138 3103 
Q 1681 3103 1420 2742 
Q 1159 2381 1159 1747 
Q 1159 1113 1420 752 
Q 1681 391 2138 391 
Q 2594 391 2855 752 
Q 3116 1113 3116 1747 
z
" transform="scale(0.015625)"/>
      </defs>
      <use xlink:href="#DejaVuSans-4a"/>
      <use xlink:href="#DejaVuSans-6f" x="29.492188"/>
      <use xlink:href="#DejaVuSans-73" x="90.673828"/>
      <use xlink:href="#DejaVuSans-65" x="142.773438"/>
      <use xlink:href="#DejaVuSans-70" x="204.296875"/>
      <use xlink:href="#DejaVuSans-68" x="267.773438"/>
      <use xlink:href="#DejaVuSans-20" x="331.152344"/>
      <use xlink:href="#DejaVuSans-42" x="362.939453"/>
      <use xlink:href="#DejaVuSans-61" x="431.542969"/>
      <use xlink:href="#DejaVuSans-72" x="492.822266"/>
      <use xlink:href="#DejaVuSans-62" x="533.935547"/>
      <use xlink:href="#DejaVuSans-65" x="597.412109"/>
      <use xlink:href="#DejaVuSans-72" x="658.935547"/>
      <use xlink:href="#DejaVuSans-61" x="700.048828"/>
     </g>
    </g>
   </g>
   <g id="text_12">
    <g id="patch_13">
     <path d="M 233.133962 490.16131 
L 293.085212 490.16131 
L 293.085212 473.530998 
L 233.133962 473.530998 
z
" clip-path="url(#pb9770c9f2b)" style="fill: #ffffff; opacity: 0.7; stroke: #000000; stroke-linejoin: miter"/>
    </g>
    <g clip-path="url(#pb9770c9f2b)">
     <!-- Ethan Coen -->
     <g transform="translate(237.093962 484.329591)scale(0.09 -0.09)">
      <defs>
       <path id="DejaVuSans-45" d="M 628 4666 
L 3578 4666 
L 3578 4134 
L 1259 4134 
L 1259 2753 
L 3481 2753 
L 3481 2222 
L 1259 2222 
L 1259 531 
L 3634 531 
L 3634 0 
L 628 0 
L 628 4666 
z
" transform="scale(0.015625)"/>
      </defs>
      <use xlink:href="#DejaVuSans-45"/>
      <use xlink:href="#DejaVuSans-74" x="63.183594"/>
      <use xlink:href="#DejaVuSans-68" x="102.392578"/>
      <use xlink:href="#DejaVuSans-61" x="165.771484"/>
      <use xlink:href="#DejaVuSans-6e" x="227.050781"/>
      <use xlink:href="#DejaVuSans-20" x="290.429688"/>
      <use xlink:href="#DejaVuSans-43" x="322.216797"/>
      <use xlink:href="#DejaVuSans-6f" x="392.041016"/>
      <use xlink:href="#DejaVuSans-65" x="453.222656"/>
      <use xlink:href="#DejaVuSans-6e" x="514.746094"/>
     </g>
    </g>
   </g>
   <g id="text_13">
    <g id="patch_14">
     <path d="M 327.257683 481.500022 
L 377.270964 481.500022 
L 377.270964 464.86971 
L 327.257683 464.86971 
z
" clip-path="url(#pb9770c9f2b)" style="fill: #ffffff; opacity: 0.7; stroke: #000000; stroke-linejoin: miter"/>
    </g>
    <g clip-path="url(#pb9770c9f2b)">
     <!-- Joel Coen -->
     <g transform="translate(331.217683 475.668304)scale(0.09 -0.09)">
      <use xlink:href="#DejaVuSans-4a"/>
      <use xlink:href="#DejaVuSans-6f" x="29.492188"/>
      <use xlink:href="#DejaVuSans-65" x="90.673828"/>
      <use xlink:href="#DejaVuSans-6c" x="152.197266"/>
      <use xlink:href="#DejaVuSans-20" x="179.980469"/>
      <use xlink:href="#DejaVuSans-43" x="211.767578"/>
      <use xlink:href="#DejaVuSans-6f" x="281.591797"/>
      <use xlink:href="#DejaVuSans-65" x="342.773438"/>
      <use xlink:href="#DejaVuSans-6e" x="404.296875"/>
     </g>
    </g>
   </g>
   <g id="text_14">
    <g id="patch_15">
     <path d="M 395.62817 440.069772 
L 464.171607 440.069772 
L 464.171607 423.43946 
L 395.62817 423.43946 
z
" clip-path="url(#pb9770c9f2b)" style="fill: #ffffff; opacity: 0.7; stroke: #000000; stroke-linejoin: miter"/>
    </g>
    <g clip-path="url(#pb9770c9f2b)">
     <!-- Roger Michell -->
     <g transform="translate(399.58817 434.238054)scale(0.09 -0.09)">
      <use xlink:href="#DejaVuSans-52"/>
      <use xlink:href="#DejaVuSans-6f" x="64.982422"/>
      <use xlink:href="#DejaVuSans-67" x="126.164062"/>
      <use xlink:href="#DejaVuSans-65" x="189.640625"/>
      <use xlink:href="#DejaVuSans-72" x="251.164062"/>
      <use xlink:href="#DejaVuSans-20" x="292.277344"/>
      <use xlink:href="#DejaVuSans-4d" x="324.064453"/>
      <use xlink:href="#DejaVuSans-69" x="410.34375"/>
      <use xlink:href="#DejaVuSans-63" x="438.126953"/>
      <use xlink:href="#DejaVuSans-68" x="493.107422"/>
      <use xlink:href="#DejaVuSans-65" x="556.486328"/>
      <use xlink:href="#DejaVuSans-6c" x="618.009766"/>
      <use xlink:href="#DejaVuSans-6c" x="645.792969"/>
     </g>
    </g>
   </g>
   <g id="text_15">
    <g id="patch_16">
     <path d="M 432.774561 373.034249 
L 532.410186 373.034249 
L 532.410186 356.403936 
L 432.774561 356.403936 
z
" clip-path="url(#pb9770c9f2b)" style="fill: #ffffff; opacity: 0.7; stroke: #000000; stroke-linejoin: miter"/>
    </g>
    <g clip-path="url(#pb9770c9f2b)">
     <!-- Michael Caton-Jones -->
     <g transform="translate(436.734561 367.20253)scale(0.09 -0.09)">
      <defs>
       <path id="DejaVuSans-2d" d="M 313 2009 
L 1997 2009 
L 1997 1497 
L 313 1497 
L 313 2009 
z
" transform="scale(0.015625)"/>
      </defs>
      <use xlink:href="#DejaVuSans-4d"/>
      <use xlink:href="#DejaVuSans-69" x="86.279297"/>
      <use xlink:href="#DejaVuSans-63" x="114.0625"/>
      <use xlink:href="#DejaVuSans-68" x="169.042969"/>
      <use xlink:href="#DejaVuSans-61" x="232.421875"/>
      <use xlink:href="#DejaVuSans-65" x="293.701172"/>
      <use xlink:href="#DejaVuSans-6c" x="355.224609"/>
      <use xlink:href="#DejaVuSans-20" x="383.007812"/>
      <use xlink:href="#DejaVuSans-43" x="414.794922"/>
      <use xlink:href="#DejaVuSans-61" x="484.619141"/>
      <use xlink:href="#DejaVuSans-74" x="545.898438"/>
      <use xlink:href="#DejaVuSans-6f" x="585.107422"/>
      <use xlink:href="#DejaVuSans-6e" x="646.289062"/>
      <use xlink:href="#DejaVuSans-2d" x="709.667969"/>
      <use xlink:href="#DejaVuSans-4a" x="751.376953"/>
      <use xlink:href="#DejaVuSans-6f" x="780.869141"/>
      <use xlink:href="#DejaVuSans-6e" x="842.050781"/>
      <use xlink:href="#DejaVuSans-65" x="905.429688"/>
      <use xlink:href="#DejaVuSans-73" x="966.953125"/>
     </g>
    </g>
   </g>
   <g id="text_16">
    <!-- Impactful directors for Indie genre - Importance rank: 2 -->
    <g transform="translate(121.873125 4.8)scale(0.12 -0.12)">
     <defs>
      <path id="DejaVuSans-49" d="M 628 4666 
L 1259 4666 
L 1259 0 
L 628 0 
L 628 4666 
z
" transform="scale(0.015625)"/>
      <path id="DejaVuSans-3a" d="M 750 794 
L 1409 794 
L 1409 0 
L 750 0 
L 750 794 
z
M 750 3309 
L 1409 3309 
L 1409 2516 
L 750 2516 
L 750 3309 
z
" transform="scale(0.015625)"/>
      <path id="DejaVuSans-32" d="M 1228 531 
L 3431 531 
L 3431 0 
L 469 0 
L 469 531 
Q 828 903 1448 1529 
Q 2069 2156 2228 2338 
Q 2531 2678 2651 2914 
Q 2772 3150 2772 3378 
Q 2772 3750 2511 3984 
Q 2250 4219 1831 4219 
Q 1534 4219 1204 4116 
Q 875 4013 500 3803 
L 500 4441 
Q 881 4594 1212 4672 
Q 1544 4750 1819 4750 
Q 2544 4750 2975 4387 
Q 3406 4025 3406 3419 
Q 3406 3131 3298 2873 
Q 3191 2616 2906 2266 
Q 2828 2175 2409 1742 
Q 1991 1309 1228 531 
z
" transform="scale(0.015625)"/>
     </defs>
     <use xlink:href="#DejaVuSans-49"/>
     <use xlink:href="#DejaVuSans-6d" x="29.492188"/>
     <use xlink:href="#DejaVuSans-70" x="126.904297"/>
     <use xlink:href="#DejaVuSans-61" x="190.380859"/>
     <use xlink:href="#DejaVuSans-63" x="251.660156"/>
     <use xlink:href="#DejaVuSans-74" x="306.640625"/>
     <use xlink:href="#DejaVuSans-66" x="345.849609"/>
     <use xlink:href="#DejaVuSans-75" x="381.054688"/>
     <use xlink:href="#DejaVuSans-6c" x="444.433594"/>
     <use xlink:href="#DejaVuSans-20" x="472.216797"/>
     <use xlink:href="#DejaVuSans-64" x="504.003906"/>
     <use xlink:href="#DejaVuSans-69" x="567.480469"/>
     <use xlink:href="#DejaVuSans-72" x="595.263672"/>
     <use xlink:href="#DejaVuSans-65" x="634.126953"/>
     <use xlink:href="#DejaVuSans-63" x="695.650391"/>
     <use xlink:href="#DejaVuSans-74" x="750.630859"/>
     <use xlink:href="#DejaVuSans-6f" x="789.839844"/>
     <use xlink:href="#DejaVuSans-72" x="851.021484"/>
     <use xlink:href="#DejaVuSans-73" x="892.134766"/>
     <use xlink:href="#DejaVuSans-20" x="944.234375"/>
     <use xlink:href="#DejaVuSans-66" x="976.021484"/>
     <use xlink:href="#DejaVuSans-6f" x="1011.226562"/>
     <use xlink:href="#DejaVuSans-72" x="1072.408203"/>
     <use xlink:href="#DejaVuSans-20" x="1113.521484"/>
     <use xlink:href="#DejaVuSans-49" x="1145.308594"/>
     <use xlink:href="#DejaVuSans-6e" x="1174.800781"/>
     <use xlink:href="#DejaVuSans-64" x="1238.179688"/>
     <use xlink:href="#DejaVuSans-69" x="1301.65625"/>
     <use xlink:href="#DejaVuSans-65" x="1329.439453"/>
     <use xlink:href="#DejaVuSans-20" x="1390.962891"/>
     <use xlink:href="#DejaVuSans-67" x="1422.75"/>
     <use xlink:href="#DejaVuSans-65" x="1486.226562"/>
     <use xlink:href="#DejaVuSans-6e" x="1547.75"/>
     <use xlink:href="#DejaVuSans-72" x="1611.128906"/>
     <use xlink:href="#DejaVuSans-65" x="1649.992188"/>
     <use xlink:href="#DejaVuSans-20" x="1711.515625"/>
     <use xlink:href="#DejaVuSans-2d" x="1743.302734"/>
     <use xlink:href="#DejaVuSans-20" x="1779.386719"/>
     <use xlink:href="#DejaVuSans-49" x="1811.173828"/>
     <use xlink:href="#DejaVuSans-6d" x="1840.666016"/>
     <use xlink:href="#DejaVuSans-70" x="1938.078125"/>
     <use xlink:href="#DejaVuSans-6f" x="2001.554688"/>
     <use xlink:href="#DejaVuSans-72" x="2062.736328"/>
     <use xlink:href="#DejaVuSans-74" x="2103.849609"/>
     <use xlink:href="#DejaVuSans-61" x="2143.058594"/>
     <use xlink:href="#DejaVuSans-6e" x="2204.337891"/>
     <use xlink:href="#DejaVuSans-63" x="2267.716797"/>
     <use xlink:href="#DejaVuSans-65" x="2322.697266"/>
     <use xlink:href="#DejaVuSans-20" x="2384.220703"/>
     <use xlink:href="#DejaVuSans-72" x="2416.007812"/>
     <use xlink:href="#DejaVuSans-61" x="2457.121094"/>
     <use xlink:href="#DejaVuSans-6e" x="2518.400391"/>
     <use xlink:href="#DejaVuSans-6b" x="2581.779297"/>
     <use xlink:href="#DejaVuSans-3a" x="2639.689453"/>
     <use xlink:href="#DejaVuSans-20" x="2673.380859"/>
     <use xlink:href="#DejaVuSans-32" x="2705.167969"/>
    </g>
   </g>
  </g>
 </g>
 <defs>
  <clipPath id="pb9770c9f2b">
   <rect x="10.8" y="10.8" width="554.4" height="554.4"/>
  </clipPath>
 </defs>
</svg>
