<?xml version="1.0" encoding="utf-8" standalone="no"?>
<!DOCTYPE svg PUBLIC "-//W3C//DTD SVG 1.1//EN"
  "http://www.w3.org/Graphics/SVG/1.1/DTD/svg11.dtd">
<svg xmlns:xlink="http://www.w3.org/1999/xlink" width="568.8pt" height="583.918125pt" viewBox="0 0 568.8 583.918125" xmlns="http://www.w3.org/2000/svg" version="1.1">
 <metadata>
  <rdf:RDF xmlns:dc="http://purl.org/dc/elements/1.1/" xmlns:cc="http://creativecommons.org/ns#" xmlns:rdf="http://www.w3.org/1999/02/22-rdf-syntax-ns#">
   <cc:Work>
    <dc:type rdf:resource="http://purl.org/dc/dcmitype/StillImage"/>
    <dc:date>2022-12-23T19:49:59.217177</dc:date>
    <dc:format>image/svg+xml</dc:format>
    <dc:creator>
     <cc:Agent>
      <dc:title>Matplotlib v3.5.3, https://matplotlib.org/</dc:title>
     </cc:Agent>
    </dc:creator>
   </cc:Work>
  </rdf:RDF>
 </metadata>
 <defs>
  <style type="text/css">*{stroke-linejoin: round; stroke-linecap: butt}</style>
 </defs>
 <g id="figure_1">
  <g id="patch_1">
   <path d="M 0 583.918125 
L 568.8 583.918125 
L 568.8 0 
L 0 0 
z
" style="fill: #ffffff"/>
  </g>
  <g id="axes_1">
   <g id="LineCollection_1">
    <path d="M 497.693803 288 
L 479.209964 200.793508 
" clip-path="url(#pe8c0703005)" style="fill: none; stroke: #000000; stroke-opacity: 0.3; stroke-width: 7.3926"/>
    <path d="M 497.693803 288 
L 426.954485 128.665802 
" clip-path="url(#pe8c0703005)" style="fill: none; stroke: #000000; stroke-opacity: 0.3; stroke-width: 8.367871"/>
    <path d="M 479.209964 200.793508 
L 426.954485 128.665802 
" clip-path="url(#pe8c0703005)" style="fill: none; stroke: #000000; stroke-opacity: 0.3; stroke-width: 5"/>
   </g>
   <g id="PathCollection_1">
    <path d="M 497.693803 315.386128 
C 504.956689 315.386128 511.923084 312.500553 517.05872 307.364917 
C 522.194356 302.229281 525.079931 295.262886 525.079931 288 
C 525.079931 280.737114 522.194356 273.770719 517.05872 268.635083 
C 511.923084 263.499447 504.956689 260.613872 497.693803 260.613872 
C 490.430917 260.613872 483.464523 263.499447 478.328887 268.635083 
C 473.193251 273.770719 470.307675 280.737114 470.307675 288 
C 470.307675 295.262886 473.193251 302.229281 478.328887 307.364917 
C 483.464523 312.500553 490.430917 315.386128 497.693803 315.386128 
z
" clip-path="url(#pe8c0703005)" style="fill: #c70039; fill-opacity: 0.99; stroke: #c70039; stroke-opacity: 0.99"/>
    <path d="M 479.209964 226.513237 
C 486.030916 226.513237 492.573418 223.803244 497.396559 218.980103 
C 502.2197 214.156962 504.929693 207.61446 504.929693 200.793508 
C 504.929693 193.972557 502.2197 187.430055 497.396559 182.606914 
C 492.573418 177.783773 486.030916 175.07378 479.209964 175.07378 
C 472.389013 175.07378 465.846511 177.783773 461.02337 182.606914 
C 456.200229 187.430055 453.490236 193.972557 453.490236 200.793508 
C 453.490236 207.61446 456.200229 214.156962 461.02337 218.980103 
C 465.846511 223.803244 472.389013 226.513237 479.209964 226.513237 
z
" clip-path="url(#pe8c0703005)" style="fill: #c70039; fill-opacity: 0.99; stroke: #c70039; stroke-opacity: 0.99"/>
    <path d="M 426.954485 154.127508 
C 433.707008 154.127508 440.183875 151.444702 444.95863 146.669947 
C 449.733385 141.895192 452.416191 135.418325 452.416191 128.665802 
C 452.416191 121.913278 449.733385 115.436412 444.95863 110.661656 
C 440.183875 105.886901 433.707008 103.204095 426.954485 103.204095 
C 420.201961 103.204095 413.725095 105.886901 408.95034 110.661656 
C 404.175585 115.436412 401.492779 121.913278 401.492779 128.665802 
C 401.492779 135.418325 404.175585 141.895192 408.95034 146.669947 
C 413.725095 151.444702 420.201961 154.127508 426.954485 154.127508 
z
" clip-path="url(#pe8c0703005)" style="fill: #c70039; fill-opacity: 0.99; stroke: #c70039; stroke-opacity: 0.99"/>
    <path d="M 349.962816 107.790718 
C 356.248734 107.790718 362.278044 105.293296 366.722859 100.84848 
C 371.167674 96.403665 373.665096 90.374356 373.665096 84.088438 
C 373.665096 77.80252 371.167674 71.77321 366.722859 67.328395 
C 362.278044 62.88358 356.248734 60.386158 349.962816 60.386158 
C 343.676898 60.386158 337.647589 62.88358 333.202773 67.328395 
C 328.757958 71.77321 326.260536 77.80252 326.260536 84.088438 
C 326.260536 90.374356 328.757958 96.403665 333.202773 100.84848 
C 337.647589 105.293296 343.676898 107.790718 349.962816 107.790718 
z
" clip-path="url(#pe8c0703005)" style="fill: #c70039; fill-opacity: 0.99; stroke: #c70039; stroke-opacity: 0.99"/>
    <path d="M 261.547501 97.463118 
C 267.56599 97.463118 273.338788 95.071947 277.594502 90.816232 
C 281.850217 86.560518 284.241388 80.78772 284.241388 74.769231 
C 284.241388 68.750742 281.850217 62.977944 277.594502 58.722229 
C 273.338788 54.466515 267.56599 52.075344 261.547501 52.075344 
C 255.529012 52.075344 249.756214 54.466515 245.5005 58.722229 
C 241.244785 62.977944 238.853614 68.750742 238.853614 74.769231 
C 238.853614 80.78772 241.244785 86.560518 245.5005 90.816232 
C 249.756214 95.071947 255.529012 97.463118 261.547501 97.463118 
z
" clip-path="url(#pe8c0703005)" style="fill: #c70039; fill-opacity: 0.99; stroke: #c70039; stroke-opacity: 0.99"/>
    <path d="M 176.996361 123.995094 
C 182.744778 123.995094 188.258528 121.711223 192.323273 117.646479 
C 196.388017 113.581734 198.671887 108.067984 198.671887 102.319567 
C 198.671887 96.57115 196.388017 91.0574 192.323273 86.992656 
C 188.258528 82.927911 182.744778 80.644041 176.996361 80.644041 
C 171.247944 80.644041 165.734194 82.927911 161.669449 86.992656 
C 157.604705 91.0574 155.320835 96.57115 155.320835 102.319567 
C 155.320835 108.067984 157.604705 113.581734 161.669449 117.646479 
C 165.734194 121.711223 171.247944 123.995094 176.996361 123.995094 
z
" clip-path="url(#pe8c0703005)" style="fill: #c70039; fill-opacity: 0.99; stroke: #c70039; stroke-opacity: 0.99"/>
    <path d="M 110.929068 183.407219 
C 116.612766 183.407219 122.064439 181.149062 126.08342 177.130081 
C 130.102401 173.1111 132.360558 167.659426 132.360558 161.975729 
C 132.360558 156.292031 130.102401 150.840358 126.08342 146.821377 
C 122.064439 142.802396 116.612766 140.544239 110.929068 140.544239 
C 105.245371 140.544239 99.793697 142.802396 95.774716 146.821377 
C 91.755735 150.840358 89.497578 156.292031 89.497578 161.975729 
C 89.497578 167.659426 91.755735 173.1111 95.774716 177.130081 
C 99.793697 181.149062 105.245371 183.407219 110.929068 183.407219 
z
" clip-path="url(#pe8c0703005)" style="fill: #c70039; fill-opacity: 0.99; stroke: #c70039; stroke-opacity: 0.99"/>
    <path d="M 74.769231 264.703058 
C 80.412861 264.703058 85.826103 262.46082 89.816752 258.47017 
C 93.807401 254.479521 96.04964 249.066279 96.04964 243.422649 
C 96.04964 237.779018 93.807401 232.365777 89.816752 228.375128 
C 85.826103 224.384478 80.412861 222.14224 74.769231 222.14224 
C 69.1256 222.14224 63.712359 224.384478 59.721709 228.375128 
C 55.73106 232.365777 53.488822 237.779018 53.488822 243.422649 
C 53.488822 249.066279 55.73106 254.479521 59.721709 258.47017 
C 63.712359 262.46082 69.1256 264.703058 74.769231 264.703058 
z
" clip-path="url(#pe8c0703005)" style="fill: #c70039; fill-opacity: 0.99; stroke: #c70039; stroke-opacity: 0.99"/>
    <path d="M 74.769244 353.698188 
C 80.370545 353.698188 85.743185 351.472767 89.703903 347.512049 
C 93.664621 343.551331 95.890042 338.178691 95.890042 332.577389 
C 95.890042 326.976088 93.664621 321.603448 89.703903 317.64273 
C 85.743185 313.682012 80.370545 311.456591 74.769244 311.456591 
C 69.167942 311.456591 63.795302 313.682012 59.834584 317.64273 
C 55.873866 321.603448 53.648445 326.976088 53.648445 332.577389 
C 53.648445 338.178691 55.873866 343.551331 59.834584 347.512049 
C 63.795302 351.472767 69.167942 353.698188 74.769244 353.698188 
z
" clip-path="url(#pe8c0703005)" style="fill: #c70039; fill-opacity: 0.99; stroke: #c70039; stroke-opacity: 0.99"/>
    <path d="M 110.929081 434.681668 
C 116.407483 434.681668 121.662242 432.505076 125.536058 428.631261 
C 129.409873 424.757445 131.586465 419.502686 131.586465 414.024284 
C 131.586465 408.545882 129.409873 403.291123 125.536058 399.417307 
C 121.662242 395.543492 116.407483 393.3669 110.929081 393.3669 
C 105.450679 393.3669 100.19592 395.543492 96.322104 399.417307 
C 92.448289 403.291123 90.271697 408.545882 90.271697 414.024284 
C 90.271697 419.502686 92.448289 424.757445 96.322104 428.631261 
C 100.19592 432.505076 105.450679 434.681668 110.929081 434.681668 
z
" clip-path="url(#pe8c0703005)" style="fill: #c70039; fill-opacity: 0.99; stroke: #c70039; stroke-opacity: 0.99"/>
    <path d="M 176.996393 494.279828 
C 182.459413 494.279828 187.699417 492.109347 191.562356 488.246408 
C 195.425294 484.38347 197.595775 479.143466 197.595775 473.680446 
C 197.595775 468.217425 195.425294 462.977421 191.562356 459.114483 
C 187.699417 455.251544 182.459413 453.081063 176.996393 453.081063 
C 171.533373 453.081063 166.293369 455.251544 162.43043 459.114483 
C 158.567492 462.977421 156.397011 468.217425 156.397011 473.680446 
C 156.397011 479.143466 158.567492 484.38347 162.43043 488.246408 
C 166.293369 492.109347 171.533373 494.279828 176.996393 494.279828 
z
" clip-path="url(#pe8c0703005)" style="fill: #c70039; fill-opacity: 0.99; stroke: #c70039; stroke-opacity: 0.99"/>
    <path d="M 261.547539 521.261682 
C 266.859799 521.261682 271.955198 519.151098 275.711533 515.394763 
C 279.467868 511.638428 281.578452 506.543029 281.578452 501.230769 
C 281.578452 495.918509 279.467868 490.82311 275.711533 487.066775 
C 271.955198 483.31044 266.859799 481.199857 261.547539 481.199857 
C 256.235279 481.199857 251.13988 483.31044 247.383545 487.066775 
C 243.62721 490.82311 241.516627 495.918509 241.516627 501.230769 
C 241.516627 506.543029 243.62721 511.638428 247.383545 515.394763 
C 251.13988 519.151098 256.235279 521.261682 261.547539 521.261682 
z
" clip-path="url(#pe8c0703005)" style="fill: #c70039; fill-opacity: 0.99; stroke: #c70039; stroke-opacity: 0.99"/>
    <path d="M 349.962848 511.589006 
C 355.18137 511.589006 360.186858 509.515665 363.876911 505.825612 
C 367.566963 502.13556 369.640304 497.130072 369.640304 491.91155 
C 369.640304 486.693027 367.566963 481.687539 363.876911 477.997487 
C 360.186858 474.307434 355.18137 472.234093 349.962848 472.234093 
C 344.744326 472.234093 339.738838 474.307434 336.048785 477.997487 
C 332.358733 481.687539 330.285392 486.693027 330.285392 491.91155 
C 330.285392 497.130072 332.358733 502.13556 336.048785 505.825612 
C 339.738838 509.515665 344.744326 511.589006 349.962848 511.589006 
z
" clip-path="url(#pe8c0703005)" style="fill: #c70039; fill-opacity: 0.99; stroke: #c70039; stroke-opacity: 0.99"/>
    <path d="M 426.954523 466.859686 
C 432.132753 466.859686 437.099593 464.802353 440.761155 461.140792 
C 444.422716 457.47923 446.480049 452.51239 446.480049 447.33416 
C 446.480049 442.15593 444.422716 437.18909 440.761155 433.527528 
C 437.099593 429.865967 432.132753 427.808634 426.954523 427.808634 
C 421.776293 427.808634 416.809453 429.865967 413.147891 433.527528 
C 409.48633 437.18909 407.428997 442.15593 407.428997 447.33416 
C 407.428997 452.51239 409.48633 457.47923 413.147891 461.140792 
C 416.809453 464.802353 421.776293 466.859686 426.954523 466.859686 
z
" clip-path="url(#pe8c0703005)" style="fill: #c70039; fill-opacity: 0.99; stroke: #c70039; stroke-opacity: 0.99"/>
    <path d="M 479.20999 394.571376 
C 484.345626 394.571376 489.271611 392.530967 492.903054 388.899524 
C 496.534497 385.268081 498.574907 380.342096 498.574907 375.20646 
C 498.574907 370.070824 496.534497 365.144839 492.903054 361.513396 
C 489.271611 357.881953 484.345626 355.841543 479.20999 355.841543 
C 474.074354 355.841543 469.148369 357.881953 465.516926 361.513396 
C 461.885483 365.144839 459.845073 370.070824 459.845073 375.20646 
C 459.845073 380.342096 461.885483 385.268081 465.516926 388.899524 
C 469.148369 392.530967 474.074354 394.571376 479.20999 394.571376 
z
" clip-path="url(#pe8c0703005)" style="fill: #c70039; fill-opacity: 0.99; stroke: #c70039; stroke-opacity: 0.99"/>
   </g>
   <g id="text_1">
    <g id="patch_2">
     <path d="M 466.331616 296.315156 
L 529.055991 296.315156 
L 529.055991 279.684844 
L 466.331616 279.684844 
z
" clip-path="url(#pe8c0703005)" style="fill: #ffffff; opacity: 0.7; stroke: #000000; stroke-linejoin: miter"/>
    </g>
    <g clip-path="url(#pe8c0703005)">
     <!-- Chuck Jones -->
     <g transform="translate(470.291616 290.483437)scale(0.09 -0.09)">
      <defs>
       <path id="DejaVuSans-43" d="M 4122 4306 
L 4122 3641 
Q 3803 3938 3442 4084 
Q 3081 4231 2675 4231 
Q 1875 4231 1450 3742 
Q 1025 3253 1025 2328 
Q 1025 1406 1450 917 
Q 1875 428 2675 428 
Q 3081 428 3442 575 
Q 3803 722 4122 1019 
L 4122 359 
Q 3791 134 3420 21 
Q 3050 -91 2638 -91 
Q 1578 -91 968 557 
Q 359 1206 359 2328 
Q 359 3453 968 4101 
Q 1578 4750 2638 4750 
Q 3056 4750 3426 4639 
Q 3797 4528 4122 4306 
z
" transform="scale(0.015625)"/>
       <path id="DejaVuSans-68" d="M 3513 2113 
L 3513 0 
L 2938 0 
L 2938 2094 
Q 2938 2591 2744 2837 
Q 2550 3084 2163 3084 
Q 1697 3084 1428 2787 
Q 1159 2491 1159 1978 
L 1159 0 
L 581 0 
L 581 4863 
L 1159 4863 
L 1159 2956 
Q 1366 3272 1645 3428 
Q 1925 3584 2291 3584 
Q 2894 3584 3203 3211 
Q 3513 2838 3513 2113 
z
" transform="scale(0.015625)"/>
       <path id="DejaVuSans-75" d="M 544 1381 
L 544 3500 
L 1119 3500 
L 1119 1403 
Q 1119 906 1312 657 
Q 1506 409 1894 409 
Q 2359 409 2629 706 
Q 2900 1003 2900 1516 
L 2900 3500 
L 3475 3500 
L 3475 0 
L 2900 0 
L 2900 538 
Q 2691 219 2414 64 
Q 2138 -91 1772 -91 
Q 1169 -91 856 284 
Q 544 659 544 1381 
z
M 1991 3584 
L 1991 3584 
z
" transform="scale(0.015625)"/>
       <path id="DejaVuSans-63" d="M 3122 3366 
L 3122 2828 
Q 2878 2963 2633 3030 
Q 2388 3097 2138 3097 
Q 1578 3097 1268 2742 
Q 959 2388 959 1747 
Q 959 1106 1268 751 
Q 1578 397 2138 397 
Q 2388 397 2633 464 
Q 2878 531 3122 666 
L 3122 134 
Q 2881 22 2623 -34 
Q 2366 -91 2075 -91 
Q 1284 -91 818 406 
Q 353 903 353 1747 
Q 353 2603 823 3093 
Q 1294 3584 2113 3584 
Q 2378 3584 2631 3529 
Q 2884 3475 3122 3366 
z
" transform="scale(0.015625)"/>
       <path id="DejaVuSans-6b" d="M 581 4863 
L 1159 4863 
L 1159 1991 
L 2875 3500 
L 3609 3500 
L 1753 1863 
L 3688 0 
L 2938 0 
L 1159 1709 
L 1159 0 
L 581 0 
L 581 4863 
z
" transform="scale(0.015625)"/>
       <path id="DejaVuSans-20" transform="scale(0.015625)"/>
       <path id="DejaVuSans-4a" d="M 628 4666 
L 1259 4666 
L 1259 325 
Q 1259 -519 939 -900 
Q 619 -1281 -91 -1281 
L -331 -1281 
L -331 -750 
L -134 -750 
Q 284 -750 456 -515 
Q 628 -281 628 325 
L 628 4666 
z
" transform="scale(0.015625)"/>
       <path id="DejaVuSans-6f" d="M 1959 3097 
Q 1497 3097 1228 2736 
Q 959 2375 959 1747 
Q 959 1119 1226 758 
Q 1494 397 1959 397 
Q 2419 397 2687 759 
Q 2956 1122 2956 1747 
Q 2956 2369 2687 2733 
Q 2419 3097 1959 3097 
z
M 1959 3584 
Q 2709 3584 3137 3096 
Q 3566 2609 3566 1747 
Q 3566 888 3137 398 
Q 2709 -91 1959 -91 
Q 1206 -91 779 398 
Q 353 888 353 1747 
Q 353 2609 779 3096 
Q 1206 3584 1959 3584 
z
" transform="scale(0.015625)"/>
       <path id="DejaVuSans-6e" d="M 3513 2113 
L 3513 0 
L 2938 0 
L 2938 2094 
Q 2938 2591 2744 2837 
Q 2550 3084 2163 3084 
Q 1697 3084 1428 2787 
Q 1159 2491 1159 1978 
L 1159 0 
L 581 0 
L 581 3500 
L 1159 3500 
L 1159 2956 
Q 1366 3272 1645 3428 
Q 1925 3584 2291 3584 
Q 2894 3584 3203 3211 
Q 3513 2838 3513 2113 
z
" transform="scale(0.015625)"/>
       <path id="DejaVuSans-65" d="M 3597 1894 
L 3597 1613 
L 953 1613 
Q 991 1019 1311 708 
Q 1631 397 2203 397 
Q 2534 397 2845 478 
Q 3156 559 3463 722 
L 3463 178 
Q 3153 47 2828 -22 
Q 2503 -91 2169 -91 
Q 1331 -91 842 396 
Q 353 884 353 1716 
Q 353 2575 817 3079 
Q 1281 3584 2069 3584 
Q 2775 3584 3186 3129 
Q 3597 2675 3597 1894 
z
M 3022 2063 
Q 3016 2534 2758 2815 
Q 2500 3097 2075 3097 
Q 1594 3097 1305 2825 
Q 1016 2553 972 2059 
L 3022 2063 
z
" transform="scale(0.015625)"/>
       <path id="DejaVuSans-73" d="M 2834 3397 
L 2834 2853 
Q 2591 2978 2328 3040 
Q 2066 3103 1784 3103 
Q 1356 3103 1142 2972 
Q 928 2841 928 2578 
Q 928 2378 1081 2264 
Q 1234 2150 1697 2047 
L 1894 2003 
Q 2506 1872 2764 1633 
Q 3022 1394 3022 966 
Q 3022 478 2636 193 
Q 2250 -91 1575 -91 
Q 1294 -91 989 -36 
Q 684 19 347 128 
L 347 722 
Q 666 556 975 473 
Q 1284 391 1588 391 
Q 1994 391 2212 530 
Q 2431 669 2431 922 
Q 2431 1156 2273 1281 
Q 2116 1406 1581 1522 
L 1381 1569 
Q 847 1681 609 1914 
Q 372 2147 372 2553 
Q 372 3047 722 3315 
Q 1072 3584 1716 3584 
Q 2034 3584 2315 3537 
Q 2597 3491 2834 3397 
z
" transform="scale(0.015625)"/>
      </defs>
      <use xlink:href="#DejaVuSans-43"/>
      <use xlink:href="#DejaVuSans-68" x="69.824219"/>
      <use xlink:href="#DejaVuSans-75" x="133.203125"/>
      <use xlink:href="#DejaVuSans-63" x="196.582031"/>
      <use xlink:href="#DejaVuSans-6b" x="251.5625"/>
      <use xlink:href="#DejaVuSans-20" x="309.472656"/>
      <use xlink:href="#DejaVuSans-4a" x="341.259766"/>
      <use xlink:href="#DejaVuSans-6f" x="370.751953"/>
      <use xlink:href="#DejaVuSans-6e" x="431.933594"/>
      <use xlink:href="#DejaVuSans-65" x="495.3125"/>
      <use xlink:href="#DejaVuSans-73" x="556.835938"/>
     </g>
    </g>
   </g>
   <g id="text_2">
    <g id="patch_3">
     <path d="M 449.588714 209.108665 
L 508.831214 209.108665 
L 508.831214 192.478352 
L 449.588714 192.478352 
z
" clip-path="url(#pe8c0703005)" style="fill: #ffffff; opacity: 0.7; stroke: #000000; stroke-linejoin: miter"/>
    </g>
    <g clip-path="url(#pe8c0703005)">
     <!-- Friz Freleng -->
     <g transform="translate(453.548714 203.276946)scale(0.09 -0.09)">
      <defs>
       <path id="DejaVuSans-46" d="M 628 4666 
L 3309 4666 
L 3309 4134 
L 1259 4134 
L 1259 2759 
L 3109 2759 
L 3109 2228 
L 1259 2228 
L 1259 0 
L 628 0 
L 628 4666 
z
" transform="scale(0.015625)"/>
       <path id="DejaVuSans-72" d="M 2631 2963 
Q 2534 3019 2420 3045 
Q 2306 3072 2169 3072 
Q 1681 3072 1420 2755 
Q 1159 2438 1159 1844 
L 1159 0 
L 581 0 
L 581 3500 
L 1159 3500 
L 1159 2956 
Q 1341 3275 1631 3429 
Q 1922 3584 2338 3584 
Q 2397 3584 2469 3576 
Q 2541 3569 2628 3553 
L 2631 2963 
z
" transform="scale(0.015625)"/>
       <path id="DejaVuSans-69" d="M 603 3500 
L 1178 3500 
L 1178 0 
L 603 0 
L 603 3500 
z
M 603 4863 
L 1178 4863 
L 1178 4134 
L 603 4134 
L 603 4863 
z
" transform="scale(0.015625)"/>
       <path id="DejaVuSans-7a" d="M 353 3500 
L 3084 3500 
L 3084 2975 
L 922 459 
L 3084 459 
L 3084 0 
L 275 0 
L 275 525 
L 2438 3041 
L 353 3041 
L 353 3500 
z
" transform="scale(0.015625)"/>
       <path id="DejaVuSans-6c" d="M 603 4863 
L 1178 4863 
L 1178 0 
L 603 0 
L 603 4863 
z
" transform="scale(0.015625)"/>
       <path id="DejaVuSans-67" d="M 2906 1791 
Q 2906 2416 2648 2759 
Q 2391 3103 1925 3103 
Q 1463 3103 1205 2759 
Q 947 2416 947 1791 
Q 947 1169 1205 825 
Q 1463 481 1925 481 
Q 2391 481 2648 825 
Q 2906 1169 2906 1791 
z
M 3481 434 
Q 3481 -459 3084 -895 
Q 2688 -1331 1869 -1331 
Q 1566 -1331 1297 -1286 
Q 1028 -1241 775 -1147 
L 775 -588 
Q 1028 -725 1275 -790 
Q 1522 -856 1778 -856 
Q 2344 -856 2625 -561 
Q 2906 -266 2906 331 
L 2906 616 
Q 2728 306 2450 153 
Q 2172 0 1784 0 
Q 1141 0 747 490 
Q 353 981 353 1791 
Q 353 2603 747 3093 
Q 1141 3584 1784 3584 
Q 2172 3584 2450 3431 
Q 2728 3278 2906 2969 
L 2906 3500 
L 3481 3500 
L 3481 434 
z
" transform="scale(0.015625)"/>
      </defs>
      <use xlink:href="#DejaVuSans-46"/>
      <use xlink:href="#DejaVuSans-72" x="50.269531"/>
      <use xlink:href="#DejaVuSans-69" x="91.382812"/>
      <use xlink:href="#DejaVuSans-7a" x="119.166016"/>
      <use xlink:href="#DejaVuSans-20" x="171.65625"/>
      <use xlink:href="#DejaVuSans-46" x="203.443359"/>
      <use xlink:href="#DejaVuSans-72" x="253.712891"/>
      <use xlink:href="#DejaVuSans-65" x="292.576172"/>
      <use xlink:href="#DejaVuSans-6c" x="354.099609"/>
      <use xlink:href="#DejaVuSans-65" x="381.882812"/>
      <use xlink:href="#DejaVuSans-6e" x="443.40625"/>
      <use xlink:href="#DejaVuSans-67" x="506.785156"/>
     </g>
    </g>
   </g>
   <g id="text_3">
    <g id="patch_4">
     <path d="M 383.755891 136.980958 
L 470.153079 136.980958 
L 470.153079 120.350645 
L 383.755891 120.350645 
z
" clip-path="url(#pe8c0703005)" style="fill: #ffffff; opacity: 0.7; stroke: #000000; stroke-linejoin: miter"/>
    </g>
    <g clip-path="url(#pe8c0703005)">
     <!-- Robert McKimson -->
     <g transform="translate(387.715891 131.149239)scale(0.09 -0.09)">
      <defs>
       <path id="DejaVuSans-52" d="M 2841 2188 
Q 3044 2119 3236 1894 
Q 3428 1669 3622 1275 
L 4263 0 
L 3584 0 
L 2988 1197 
Q 2756 1666 2539 1819 
Q 2322 1972 1947 1972 
L 1259 1972 
L 1259 0 
L 628 0 
L 628 4666 
L 2053 4666 
Q 2853 4666 3247 4331 
Q 3641 3997 3641 3322 
Q 3641 2881 3436 2590 
Q 3231 2300 2841 2188 
z
M 1259 4147 
L 1259 2491 
L 2053 2491 
Q 2509 2491 2742 2702 
Q 2975 2913 2975 3322 
Q 2975 3731 2742 3939 
Q 2509 4147 2053 4147 
L 1259 4147 
z
" transform="scale(0.015625)"/>
       <path id="DejaVuSans-62" d="M 3116 1747 
Q 3116 2381 2855 2742 
Q 2594 3103 2138 3103 
Q 1681 3103 1420 2742 
Q 1159 2381 1159 1747 
Q 1159 1113 1420 752 
Q 1681 391 2138 391 
Q 2594 391 2855 752 
Q 3116 1113 3116 1747 
z
M 1159 2969 
Q 1341 3281 1617 3432 
Q 1894 3584 2278 3584 
Q 2916 3584 3314 3078 
Q 3713 2572 3713 1747 
Q 3713 922 3314 415 
Q 2916 -91 2278 -91 
Q 1894 -91 1617 61 
Q 1341 213 1159 525 
L 1159 0 
L 581 0 
L 581 4863 
L 1159 4863 
L 1159 2969 
z
" transform="scale(0.015625)"/>
       <path id="DejaVuSans-69" d="M 603 3500 
L 1178 3500 
L 1178 0 
L 603 0 
L 603 3500 
z
M 603 4863 
L 1178 4863 
L 1178 4134 
L 603 4134 
L 603 4863 
z
" transform="scale(0.015625)"/>
       <path id="DejaVuSans-74" d="M 1172 4494 
L 1172 3500 
L 2356 3500 
L 2356 3053 
L 1172 3053 
L 1172 1153 
Q 1172 725 1289 603 
Q 1406 481 1766 481 
L 2356 481 
L 2356 0 
L 1766 0 
Q 1100 0 847 248 
Q 594 497 594 1153 
L 594 3053 
L 172 3053 
L 172 3500 
L 594 3500 
L 594 4494 
L 1172 4494 
z
" transform="scale(0.015625)"/>
       <path id="DejaVuSans-4d" d="M 628 4666 
L 1569 4666 
L 2759 1491 
L 3956 4666 
L 4897 4666 
L 4897 0 
L 4281 0 
L 4281 4097 
L 3078 897 
L 2444 897 
L 1241 4097 
L 1241 0 
L 628 0 
L 628 4666 
z
" transform="scale(0.015625)"/>
       <path id="DejaVuSans-4b" d="M 628 4666 
L 1259 4666 
L 1259 2694 
L 3353 4666 
L 4166 4666 
L 1850 2491 
L 4331 0 
L 3500 0 
L 1259 2247 
L 1259 0 
L 628 0 
L 628 4666 
z
" transform="scale(0.015625)"/>
       <path id="DejaVuSans-6d" d="M 3328 2828 
Q 3544 3216 3844 3400 
Q 4144 3584 4550 3584 
Q 5097 3584 5394 3201 
Q 5691 2819 5691 2113 
L 5691 0 
L 5113 0 
L 5113 2094 
Q 5113 2597 4934 2840 
Q 4756 3084 4391 3084 
Q 3944 3084 3684 2787 
Q 3425 2491 3425 1978 
L 3425 0 
L 2847 0 
L 2847 2094 
Q 2847 2600 2669 2842 
Q 2491 3084 2119 3084 
Q 1678 3084 1418 2786 
Q 1159 2488 1159 1978 
L 1159 0 
L 581 0 
L 581 3500 
L 1159 3500 
L 1159 2956 
Q 1356 3278 1631 3431 
Q 1906 3584 2284 3584 
Q 2666 3584 2933 3390 
Q 3200 3197 3328 2828 
z
" transform="scale(0.015625)"/>
      </defs>
      <use xlink:href="#DejaVuSans-52"/>
      <use xlink:href="#DejaVuSans-6f" x="64.982422"/>
      <use xlink:href="#DejaVuSans-62" x="126.164062"/>
      <use xlink:href="#DejaVuSans-65" x="189.640625"/>
      <use xlink:href="#DejaVuSans-72" x="251.164062"/>
      <use xlink:href="#DejaVuSans-74" x="292.277344"/>
      <use xlink:href="#DejaVuSans-20" x="331.486328"/>
      <use xlink:href="#DejaVuSans-4d" x="363.273438"/>
      <use xlink:href="#DejaVuSans-63" x="449.552734"/>
      <use xlink:href="#DejaVuSans-4b" x="504.533203"/>
      <use xlink:href="#DejaVuSans-69" x="570.109375"/>
      <use xlink:href="#DejaVuSans-6d" x="597.892578"/>
      <use xlink:href="#DejaVuSans-73" x="695.304688"/>
      <use xlink:href="#DejaVuSans-6f" x="747.404297"/>
      <use xlink:href="#DejaVuSans-6e" x="808.585938"/>
     </g>
    </g>
   </g>
   <g id="text_4">
    <g id="patch_5">
     <path d="M 309.253285 92.403594 
L 390.672347 92.403594 
L 390.672347 75.773281 
L 309.253285 75.773281 
z
" clip-path="url(#pe8c0703005)" style="fill: #ffffff; opacity: 0.7; stroke: #000000; stroke-linejoin: miter"/>
    </g>
    <g clip-path="url(#pe8c0703005)">
     <!-- Alfred Hitchcock -->
     <g transform="translate(313.213285 86.571875)scale(0.09 -0.09)">
      <defs>
       <path id="DejaVuSans-41" d="M 2188 4044 
L 1331 1722 
L 3047 1722 
L 2188 4044 
z
M 1831 4666 
L 2547 4666 
L 4325 0 
L 3669 0 
L 3244 1197 
L 1141 1197 
L 716 0 
L 50 0 
L 1831 4666 
z
" transform="scale(0.015625)"/>
       <path id="DejaVuSans-66" d="M 2375 4863 
L 2375 4384 
L 1825 4384 
Q 1516 4384 1395 4259 
Q 1275 4134 1275 3809 
L 1275 3500 
L 2222 3500 
L 2222 3053 
L 1275 3053 
L 1275 0 
L 697 0 
L 697 3053 
L 147 3053 
L 147 3500 
L 697 3500 
L 697 3744 
Q 697 4328 969 4595 
Q 1241 4863 1831 4863 
L 2375 4863 
z
" transform="scale(0.015625)"/>
       <path id="DejaVuSans-64" d="M 2906 2969 
L 2906 4863 
L 3481 4863 
L 3481 0 
L 2906 0 
L 2906 525 
Q 2725 213 2448 61 
Q 2172 -91 1784 -91 
Q 1150 -91 751 415 
Q 353 922 353 1747 
Q 353 2572 751 3078 
Q 1150 3584 1784 3584 
Q 2172 3584 2448 3432 
Q 2725 3281 2906 2969 
z
M 947 1747 
Q 947 1113 1208 752 
Q 1469 391 1925 391 
Q 2381 391 2643 752 
Q 2906 1113 2906 1747 
Q 2906 2381 2643 2742 
Q 2381 3103 1925 3103 
Q 1469 3103 1208 2742 
Q 947 2381 947 1747 
z
" transform="scale(0.015625)"/>
       <path id="DejaVuSans-48" d="M 628 4666 
L 1259 4666 
L 1259 2753 
L 3553 2753 
L 3553 4666 
L 4184 4666 
L 4184 0 
L 3553 0 
L 3553 2222 
L 1259 2222 
L 1259 0 
L 628 0 
L 628 4666 
z
" transform="scale(0.015625)"/>
      </defs>
      <use xlink:href="#DejaVuSans-41"/>
      <use xlink:href="#DejaVuSans-6c" x="68.408203"/>
      <use xlink:href="#DejaVuSans-66" x="96.191406"/>
      <use xlink:href="#DejaVuSans-72" x="131.396484"/>
      <use xlink:href="#DejaVuSans-65" x="170.259766"/>
      <use xlink:href="#DejaVuSans-64" x="231.783203"/>
      <use xlink:href="#DejaVuSans-20" x="295.259766"/>
      <use xlink:href="#DejaVuSans-48" x="327.046875"/>
      <use xlink:href="#DejaVuSans-69" x="402.242188"/>
      <use xlink:href="#DejaVuSans-74" x="430.025391"/>
      <use xlink:href="#DejaVuSans-63" x="469.234375"/>
      <use xlink:href="#DejaVuSans-68" x="524.214844"/>
      <use xlink:href="#DejaVuSans-63" x="587.59375"/>
      <use xlink:href="#DejaVuSans-6f" x="642.574219"/>
      <use xlink:href="#DejaVuSans-63" x="703.755859"/>
      <use xlink:href="#DejaVuSans-6b" x="758.736328"/>
     </g>
    </g>
   </g>
   <g id="text_5">
    <g id="patch_6">
     <path d="M 224.14547 83.084387 
L 298.949532 83.084387 
L 298.949532 66.454075 
L 224.14547 66.454075 
z
" clip-path="url(#pe8c0703005)" style="fill: #ffffff; opacity: 0.7; stroke: #000000; stroke-linejoin: miter"/>
    </g>
    <g clip-path="url(#pe8c0703005)">
     <!-- Clint Eastwood -->
     <g transform="translate(228.10547 77.252668)scale(0.09 -0.09)">
      <defs>
       <path id="DejaVuSans-45" d="M 628 4666 
L 3578 4666 
L 3578 4134 
L 1259 4134 
L 1259 2753 
L 3481 2753 
L 3481 2222 
L 1259 2222 
L 1259 531 
L 3634 531 
L 3634 0 
L 628 0 
L 628 4666 
z
" transform="scale(0.015625)"/>
       <path id="DejaVuSans-61" d="M 2194 1759 
Q 1497 1759 1228 1600 
Q 959 1441 959 1056 
Q 959 750 1161 570 
Q 1363 391 1709 391 
Q 2188 391 2477 730 
Q 2766 1069 2766 1631 
L 2766 1759 
L 2194 1759 
z
M 3341 1997 
L 3341 0 
L 2766 0 
L 2766 531 
Q 2569 213 2275 61 
Q 1981 -91 1556 -91 
Q 1019 -91 701 211 
Q 384 513 384 1019 
Q 384 1609 779 1909 
Q 1175 2209 1959 2209 
L 2766 2209 
L 2766 2266 
Q 2766 2663 2505 2880 
Q 2244 3097 1772 3097 
Q 1472 3097 1187 3025 
Q 903 2953 641 2809 
L 641 3341 
Q 956 3463 1253 3523 
Q 1550 3584 1831 3584 
Q 2591 3584 2966 3190 
Q 3341 2797 3341 1997 
z
" transform="scale(0.015625)"/>
       <path id="DejaVuSans-77" d="M 269 3500 
L 844 3500 
L 1563 769 
L 2278 3500 
L 2956 3500 
L 3675 769 
L 4391 3500 
L 4966 3500 
L 4050 0 
L 3372 0 
L 2619 2869 
L 1863 0 
L 1184 0 
L 269 3500 
z
" transform="scale(0.015625)"/>
      </defs>
      <use xlink:href="#DejaVuSans-43"/>
      <use xlink:href="#DejaVuSans-6c" x="69.824219"/>
      <use xlink:href="#DejaVuSans-69" x="97.607422"/>
      <use xlink:href="#DejaVuSans-6e" x="125.390625"/>
      <use xlink:href="#DejaVuSans-74" x="188.769531"/>
      <use xlink:href="#DejaVuSans-20" x="227.978516"/>
      <use xlink:href="#DejaVuSans-45" x="259.765625"/>
      <use xlink:href="#DejaVuSans-61" x="322.949219"/>
      <use xlink:href="#DejaVuSans-73" x="384.228516"/>
      <use xlink:href="#DejaVuSans-74" x="436.328125"/>
      <use xlink:href="#DejaVuSans-77" x="475.537109"/>
      <use xlink:href="#DejaVuSans-6f" x="557.324219"/>
      <use xlink:href="#DejaVuSans-6f" x="618.505859"/>
      <use xlink:href="#DejaVuSans-64" x="679.6875"/>
     </g>
    </g>
   </g>
   <g id="text_6">
    <g id="patch_7">
     <path d="M 138.431361 110.634724 
L 215.561361 110.634724 
L 215.561361 94.004411 
L 138.431361 94.004411 
z
" clip-path="url(#pe8c0703005)" style="fill: #ffffff; opacity: 0.7; stroke: #000000; stroke-linejoin: miter"/>
    </g>
    <g clip-path="url(#pe8c0703005)">
     <!-- Clyde Geronimi -->
     <g transform="translate(142.391361 104.803005)scale(0.09 -0.09)">
      <defs>
       <path id="DejaVuSans-79" d="M 2059 -325 
Q 1816 -950 1584 -1140 
Q 1353 -1331 966 -1331 
L 506 -1331 
L 506 -850 
L 844 -850 
Q 1081 -850 1212 -737 
Q 1344 -625 1503 -206 
L 1606 56 
L 191 3500 
L 800 3500 
L 1894 763 
L 2988 3500 
L 3597 3500 
L 2059 -325 
z
" transform="scale(0.015625)"/>
       <path id="DejaVuSans-47" d="M 3809 666 
L 3809 1919 
L 2778 1919 
L 2778 2438 
L 4434 2438 
L 4434 434 
Q 4069 175 3628 42 
Q 3188 -91 2688 -91 
Q 1594 -91 976 548 
Q 359 1188 359 2328 
Q 359 3472 976 4111 
Q 1594 4750 2688 4750 
Q 3144 4750 3555 4637 
Q 3966 4525 4313 4306 
L 4313 3634 
Q 3963 3931 3569 4081 
Q 3175 4231 2741 4231 
Q 1884 4231 1454 3753 
Q 1025 3275 1025 2328 
Q 1025 1384 1454 906 
Q 1884 428 2741 428 
Q 3075 428 3337 486 
Q 3600 544 3809 666 
z
" transform="scale(0.015625)"/>
      </defs>
      <use xlink:href="#DejaVuSans-43"/>
      <use xlink:href="#DejaVuSans-6c" x="69.824219"/>
      <use xlink:href="#DejaVuSans-79" x="97.607422"/>
      <use xlink:href="#DejaVuSans-64" x="156.787109"/>
      <use xlink:href="#DejaVuSans-65" x="220.263672"/>
      <use xlink:href="#DejaVuSans-20" x="281.787109"/>
      <use xlink:href="#DejaVuSans-47" x="313.574219"/>
      <use xlink:href="#DejaVuSans-65" x="391.064453"/>
      <use xlink:href="#DejaVuSans-72" x="452.587891"/>
      <use xlink:href="#DejaVuSans-6f" x="491.451172"/>
      <use xlink:href="#DejaVuSans-6e" x="552.632812"/>
      <use xlink:href="#DejaVuSans-69" x="616.011719"/>
      <use xlink:href="#DejaVuSans-6d" x="643.794922"/>
      <use xlink:href="#DejaVuSans-69" x="741.207031"/>
     </g>
    </g>
   </g>
   <g id="text_7">
    <g id="patch_8">
     <path d="M 71.613131 170.290885 
L 150.245006 170.290885 
L 150.245006 153.660572 
L 71.613131 153.660572 
z
" clip-path="url(#pe8c0703005)" style="fill: #ffffff; opacity: 0.7; stroke: #000000; stroke-linejoin: miter"/>
    </g>
    <g clip-path="url(#pe8c0703005)">
     <!-- Charles Chaplin -->
     <g transform="translate(75.573131 164.459166)scale(0.09 -0.09)">
      <defs>
       <path id="DejaVuSans-70" d="M 1159 525 
L 1159 -1331 
L 581 -1331 
L 581 3500 
L 1159 3500 
L 1159 2969 
Q 1341 3281 1617 3432 
Q 1894 3584 2278 3584 
Q 2916 3584 3314 3078 
Q 3713 2572 3713 1747 
Q 3713 922 3314 415 
Q 2916 -91 2278 -91 
Q 1894 -91 1617 61 
Q 1341 213 1159 525 
z
M 3116 1747 
Q 3116 2381 2855 2742 
Q 2594 3103 2138 3103 
Q 1681 3103 1420 2742 
Q 1159 2381 1159 1747 
Q 1159 1113 1420 752 
Q 1681 391 2138 391 
Q 2594 391 2855 752 
Q 3116 1113 3116 1747 
z
" transform="scale(0.015625)"/>
      </defs>
      <use xlink:href="#DejaVuSans-43"/>
      <use xlink:href="#DejaVuSans-68" x="69.824219"/>
      <use xlink:href="#DejaVuSans-61" x="133.203125"/>
      <use xlink:href="#DejaVuSans-72" x="194.482422"/>
      <use xlink:href="#DejaVuSans-6c" x="235.595703"/>
      <use xlink:href="#DejaVuSans-65" x="263.378906"/>
      <use xlink:href="#DejaVuSans-73" x="324.902344"/>
      <use xlink:href="#DejaVuSans-20" x="377.001953"/>
      <use xlink:href="#DejaVuSans-43" x="408.789062"/>
      <use xlink:href="#DejaVuSans-68" x="478.613281"/>
      <use xlink:href="#DejaVuSans-61" x="541.992188"/>
      <use xlink:href="#DejaVuSans-70" x="603.271484"/>
      <use xlink:href="#DejaVuSans-6c" x="666.748047"/>
      <use xlink:href="#DejaVuSans-69" x="694.53125"/>
      <use xlink:href="#DejaVuSans-6e" x="722.314453"/>
     </g>
    </g>
   </g>
   <g id="text_8">
    <g id="patch_9">
     <path d="M 43.6447 251.737805 
L 105.893762 251.737805 
L 105.893762 235.107493 
L 43.6447 235.107493 
z
" clip-path="url(#pe8c0703005)" style="fill: #ffffff; opacity: 0.7; stroke: #000000; stroke-linejoin: miter"/>
    </g>
    <g clip-path="url(#pe8c0703005)">
     <!-- John Huston -->
     <g transform="translate(47.6047 245.906086)scale(0.09 -0.09)">
      <use xlink:href="#DejaVuSans-4a"/>
      <use xlink:href="#DejaVuSans-6f" x="29.492188"/>
      <use xlink:href="#DejaVuSans-68" x="90.673828"/>
      <use xlink:href="#DejaVuSans-6e" x="154.052734"/>
      <use xlink:href="#DejaVuSans-20" x="217.431641"/>
      <use xlink:href="#DejaVuSans-48" x="249.21875"/>
      <use xlink:href="#DejaVuSans-75" x="324.414062"/>
      <use xlink:href="#DejaVuSans-73" x="387.792969"/>
      <use xlink:href="#DejaVuSans-74" x="439.892578"/>
      <use xlink:href="#DejaVuSans-6f" x="479.101562"/>
      <use xlink:href="#DejaVuSans-6e" x="540.283203"/>
     </g>
    </g>
   </g>
   <g id="text_9">
    <g id="patch_10">
     <path d="M 39.932915 340.892546 
L 109.605572 340.892546 
L 109.605572 324.262233 
L 39.932915 324.262233 
z
" clip-path="url(#pe8c0703005)" style="fill: #ffffff; opacity: 0.7; stroke: #000000; stroke-linejoin: miter"/>
    </g>
    <g clip-path="url(#pe8c0703005)">
     <!-- George Cukor -->
     <g transform="translate(43.892915 335.060827)scale(0.09 -0.09)">
      <use xlink:href="#DejaVuSans-47"/>
      <use xlink:href="#DejaVuSans-65" x="77.490234"/>
      <use xlink:href="#DejaVuSans-6f" x="139.013672"/>
      <use xlink:href="#DejaVuSans-72" x="200.195312"/>
      <use xlink:href="#DejaVuSans-67" x="239.558594"/>
      <use xlink:href="#DejaVuSans-65" x="303.035156"/>
      <use xlink:href="#DejaVuSans-20" x="364.558594"/>
      <use xlink:href="#DejaVuSans-43" x="396.345703"/>
      <use xlink:href="#DejaVuSans-75" x="466.169922"/>
      <use xlink:href="#DejaVuSans-6b" x="529.548828"/>
      <use xlink:href="#DejaVuSans-6f" x="583.833984"/>
      <use xlink:href="#DejaVuSans-72" x="645.015625"/>
     </g>
    </g>
   </g>
   <g id="text_10">
    <g id="patch_11">
     <path d="M 71.021815 422.33944 
L 150.836347 422.33944 
L 150.836347 405.709128 
L 71.021815 405.709128 
z
" clip-path="url(#pe8c0703005)" style="fill: #ffffff; opacity: 0.7; stroke: #000000; stroke-linejoin: miter"/>
    </g>
    <g clip-path="url(#pe8c0703005)">
     <!-- Martin Scorsese -->
     <g transform="translate(74.981815 416.507722)scale(0.09 -0.09)">
      <defs>
       <path id="DejaVuSans-53" d="M 3425 4513 
L 3425 3897 
Q 3066 4069 2747 4153 
Q 2428 4238 2131 4238 
Q 1616 4238 1336 4038 
Q 1056 3838 1056 3469 
Q 1056 3159 1242 3001 
Q 1428 2844 1947 2747 
L 2328 2669 
Q 3034 2534 3370 2195 
Q 3706 1856 3706 1288 
Q 3706 609 3251 259 
Q 2797 -91 1919 -91 
Q 1588 -91 1214 -16 
Q 841 59 441 206 
L 441 856 
Q 825 641 1194 531 
Q 1563 422 1919 422 
Q 2459 422 2753 634 
Q 3047 847 3047 1241 
Q 3047 1584 2836 1778 
Q 2625 1972 2144 2069 
L 1759 2144 
Q 1053 2284 737 2584 
Q 422 2884 422 3419 
Q 422 4038 858 4394 
Q 1294 4750 2059 4750 
Q 2388 4750 2728 4690 
Q 3069 4631 3425 4513 
z
" transform="scale(0.015625)"/>
      </defs>
      <use xlink:href="#DejaVuSans-4d"/>
      <use xlink:href="#DejaVuSans-61" x="86.279297"/>
      <use xlink:href="#DejaVuSans-72" x="147.558594"/>
      <use xlink:href="#DejaVuSans-74" x="188.671875"/>
      <use xlink:href="#DejaVuSans-69" x="227.880859"/>
      <use xlink:href="#DejaVuSans-6e" x="255.664062"/>
      <use xlink:href="#DejaVuSans-20" x="319.042969"/>
      <use xlink:href="#DejaVuSans-53" x="350.830078"/>
      <use xlink:href="#DejaVuSans-63" x="414.306641"/>
      <use xlink:href="#DejaVuSans-6f" x="469.287109"/>
      <use xlink:href="#DejaVuSans-72" x="530.46875"/>
      <use xlink:href="#DejaVuSans-73" x="571.582031"/>
      <use xlink:href="#DejaVuSans-65" x="623.681641"/>
      <use xlink:href="#DejaVuSans-73" x="685.205078"/>
      <use xlink:href="#DejaVuSans-65" x="737.304688"/>
     </g>
    </g>
   </g>
   <g id="text_11">
    <g id="patch_12">
     <path d="M 141.38733 481.995602 
L 212.605455 481.995602 
L 212.605455 465.365289 
L 141.38733 465.365289 
z
" clip-path="url(#pe8c0703005)" style="fill: #ffffff; opacity: 0.7; stroke: #000000; stroke-linejoin: miter"/>
    </g>
    <g clip-path="url(#pe8c0703005)">
     <!-- Mervyn LeRoy -->
     <g transform="translate(145.34733 476.163883)scale(0.09 -0.09)">
      <defs>
       <path id="DejaVuSans-76" d="M 191 3500 
L 800 3500 
L 1894 563 
L 2988 3500 
L 3597 3500 
L 2284 0 
L 1503 0 
L 191 3500 
z
" transform="scale(0.015625)"/>
       <path id="DejaVuSans-4c" d="M 628 4666 
L 1259 4666 
L 1259 531 
L 3531 531 
L 3531 0 
L 628 0 
L 628 4666 
z
" transform="scale(0.015625)"/>
      </defs>
      <use xlink:href="#DejaVuSans-4d"/>
      <use xlink:href="#DejaVuSans-65" x="86.279297"/>
      <use xlink:href="#DejaVuSans-72" x="147.802734"/>
      <use xlink:href="#DejaVuSans-76" x="188.916016"/>
      <use xlink:href="#DejaVuSans-79" x="248.095703"/>
      <use xlink:href="#DejaVuSans-6e" x="307.275391"/>
      <use xlink:href="#DejaVuSans-20" x="370.654297"/>
      <use xlink:href="#DejaVuSans-4c" x="402.441406"/>
      <use xlink:href="#DejaVuSans-65" x="456.404297"/>
      <use xlink:href="#DejaVuSans-52" x="517.927734"/>
      <use xlink:href="#DejaVuSans-6f" x="582.910156"/>
      <use xlink:href="#DejaVuSans-79" x="644.091797"/>
     </g>
    </g>
   </g>
   <g id="text_12">
    <g id="patch_13">
     <path d="M 235.695742 509.545925 
L 287.399336 509.545925 
L 287.399336 492.915613 
L 235.695742 492.915613 
z
" clip-path="url(#pe8c0703005)" style="fill: #ffffff; opacity: 0.7; stroke: #000000; stroke-linejoin: miter"/>
    </g>
    <g clip-path="url(#pe8c0703005)">
     <!-- Fritz Lang -->
     <g transform="translate(239.655742 503.714207)scale(0.09 -0.09)">
      <use xlink:href="#DejaVuSans-46"/>
      <use xlink:href="#DejaVuSans-72" x="50.269531"/>
      <use xlink:href="#DejaVuSans-69" x="91.382812"/>
      <use xlink:href="#DejaVuSans-74" x="119.166016"/>
      <use xlink:href="#DejaVuSans-7a" x="158.375"/>
      <use xlink:href="#DejaVuSans-20" x="210.865234"/>
      <use xlink:href="#DejaVuSans-4c" x="242.652344"/>
      <use xlink:href="#DejaVuSans-61" x="298.365234"/>
      <use xlink:href="#DejaVuSans-6e" x="359.644531"/>
      <use xlink:href="#DejaVuSans-67" x="423.023438"/>
     </g>
    </g>
   </g>
   <g id="text_13">
    <g id="patch_14">
     <path d="M 301.016911 500.226706 
L 398.908786 500.226706 
L 398.908786 483.596393 
L 301.016911 483.596393 
z
" clip-path="url(#pe8c0703005)" style="fill: #ffffff; opacity: 0.7; stroke: #000000; stroke-linejoin: miter"/>
    </g>
    <g clip-path="url(#pe8c0703005)">
     <!-- Roger Spottiswoode -->
     <g transform="translate(304.976911 494.394987)scale(0.09 -0.09)">
      <use xlink:href="#DejaVuSans-52"/>
      <use xlink:href="#DejaVuSans-6f" x="64.982422"/>
      <use xlink:href="#DejaVuSans-67" x="126.164062"/>
      <use xlink:href="#DejaVuSans-65" x="189.640625"/>
      <use xlink:href="#DejaVuSans-72" x="251.164062"/>
      <use xlink:href="#DejaVuSans-20" x="292.277344"/>
      <use xlink:href="#DejaVuSans-53" x="324.064453"/>
      <use xlink:href="#DejaVuSans-70" x="387.541016"/>
      <use xlink:href="#DejaVuSans-6f" x="451.017578"/>
      <use xlink:href="#DejaVuSans-74" x="512.199219"/>
      <use xlink:href="#DejaVuSans-74" x="551.408203"/>
      <use xlink:href="#DejaVuSans-69" x="590.617188"/>
      <use xlink:href="#DejaVuSans-73" x="618.400391"/>
      <use xlink:href="#DejaVuSans-77" x="670.5"/>
      <use xlink:href="#DejaVuSans-6f" x="752.287109"/>
      <use xlink:href="#DejaVuSans-6f" x="813.46875"/>
      <use xlink:href="#DejaVuSans-64" x="874.650391"/>
      <use xlink:href="#DejaVuSans-65" x="938.126953"/>
     </g>
    </g>
   </g>
   <g id="text_14">
    <g id="patch_15">
     <path d="M 395.564914 455.649316 
L 458.344132 455.649316 
L 458.344132 439.019004 
L 395.564914 439.019004 
z
" clip-path="url(#pe8c0703005)" style="fill: #ffffff; opacity: 0.7; stroke: #000000; stroke-linejoin: miter"/>
    </g>
    <g clip-path="url(#pe8c0703005)">
     <!-- Arthur Hiller -->
     <g transform="translate(399.524914 449.817598)scale(0.09 -0.09)">
      <use xlink:href="#DejaVuSans-41"/>
      <use xlink:href="#DejaVuSans-72" x="68.408203"/>
      <use xlink:href="#DejaVuSans-74" x="109.521484"/>
      <use xlink:href="#DejaVuSans-68" x="148.730469"/>
      <use xlink:href="#DejaVuSans-75" x="212.109375"/>
      <use xlink:href="#DejaVuSans-72" x="275.488281"/>
      <use xlink:href="#DejaVuSans-20" x="316.601562"/>
      <use xlink:href="#DejaVuSans-48" x="348.388672"/>
      <use xlink:href="#DejaVuSans-69" x="423.583984"/>
      <use xlink:href="#DejaVuSans-6c" x="451.367188"/>
      <use xlink:href="#DejaVuSans-6c" x="479.150391"/>
      <use xlink:href="#DejaVuSans-65" x="506.933594"/>
      <use xlink:href="#DejaVuSans-72" x="568.457031"/>
     </g>
    </g>
   </g>
   <g id="text_15">
    <g id="patch_16">
     <path d="M 440.69913 383.521616 
L 517.720849 383.521616 
L 517.720849 366.891303 
L 440.69913 366.891303 
z
" clip-path="url(#pe8c0703005)" style="fill: #ffffff; opacity: 0.7; stroke: #000000; stroke-linejoin: miter"/>
    </g>
    <g clip-path="url(#pe8c0703005)">
     <!-- Brian De Palma -->
     <g transform="translate(444.65913 377.689897)scale(0.09 -0.09)">
      <defs>
       <path id="DejaVuSans-42" d="M 1259 2228 
L 1259 519 
L 2272 519 
Q 2781 519 3026 730 
Q 3272 941 3272 1375 
Q 3272 1813 3026 2020 
Q 2781 2228 2272 2228 
L 1259 2228 
z
M 1259 4147 
L 1259 2741 
L 2194 2741 
Q 2656 2741 2882 2914 
Q 3109 3088 3109 3444 
Q 3109 3797 2882 3972 
Q 2656 4147 2194 4147 
L 1259 4147 
z
M 628 4666 
L 2241 4666 
Q 2963 4666 3353 4366 
Q 3744 4066 3744 3513 
Q 3744 3084 3544 2831 
Q 3344 2578 2956 2516 
Q 3422 2416 3680 2098 
Q 3938 1781 3938 1306 
Q 3938 681 3513 340 
Q 3088 0 2303 0 
L 628 0 
L 628 4666 
z
" transform="scale(0.015625)"/>
       <path id="DejaVuSans-44" d="M 1259 4147 
L 1259 519 
L 2022 519 
Q 2988 519 3436 956 
Q 3884 1394 3884 2338 
Q 3884 3275 3436 3711 
Q 2988 4147 2022 4147 
L 1259 4147 
z
M 628 4666 
L 1925 4666 
Q 3281 4666 3915 4102 
Q 4550 3538 4550 2338 
Q 4550 1131 3912 565 
Q 3275 0 1925 0 
L 628 0 
L 628 4666 
z
" transform="scale(0.015625)"/>
       <path id="DejaVuSans-50" d="M 1259 4147 
L 1259 2394 
L 2053 2394 
Q 2494 2394 2734 2622 
Q 2975 2850 2975 3272 
Q 2975 3691 2734 3919 
Q 2494 4147 2053 4147 
L 1259 4147 
z
M 628 4666 
L 2053 4666 
Q 2838 4666 3239 4311 
Q 3641 3956 3641 3272 
Q 3641 2581 3239 2228 
Q 2838 1875 2053 1875 
L 1259 1875 
L 1259 0 
L 628 0 
L 628 4666 
z
" transform="scale(0.015625)"/>
      </defs>
      <use xlink:href="#DejaVuSans-42"/>
      <use xlink:href="#DejaVuSans-72" x="68.603516"/>
      <use xlink:href="#DejaVuSans-69" x="109.716797"/>
      <use xlink:href="#DejaVuSans-61" x="137.5"/>
      <use xlink:href="#DejaVuSans-6e" x="198.779297"/>
      <use xlink:href="#DejaVuSans-20" x="262.158203"/>
      <use xlink:href="#DejaVuSans-44" x="293.945312"/>
      <use xlink:href="#DejaVuSans-65" x="370.947266"/>
      <use xlink:href="#DejaVuSans-20" x="432.470703"/>
      <use xlink:href="#DejaVuSans-50" x="464.257812"/>
      <use xlink:href="#DejaVuSans-61" x="520.060547"/>
      <use xlink:href="#DejaVuSans-6c" x="581.339844"/>
      <use xlink:href="#DejaVuSans-6d" x="609.123047"/>
      <use xlink:href="#DejaVuSans-61" x="706.535156"/>
     </g>
    </g>
   </g>
   <g id="text_16">
    <!-- Impactful directors for Romance Film genre - Importance rank: 1 -->
    <g transform="translate(94.6275 4.8)scale(0.12 -0.12)">
     <defs>
      <path id="DejaVuSans-49" d="M 628 4666 
L 1259 4666 
L 1259 0 
L 628 0 
L 628 4666 
z
" transform="scale(0.015625)"/>
      <path id="DejaVuSans-2d" d="M 313 2009 
L 1997 2009 
L 1997 1497 
L 313 1497 
L 313 2009 
z
" transform="scale(0.015625)"/>
      <path id="DejaVuSans-3a" d="M 750 794 
L 1409 794 
L 1409 0 
L 750 0 
L 750 794 
z
M 750 3309 
L 1409 3309 
L 1409 2516 
L 750 2516 
L 750 3309 
z
" transform="scale(0.015625)"/>
      <path id="DejaVuSans-31" d="M 794 531 
L 1825 531 
L 1825 4091 
L 703 3866 
L 703 4441 
L 1819 4666 
L 2450 4666 
L 2450 531 
L 3481 531 
L 3481 0 
L 794 0 
L 794 531 
z
" transform="scale(0.015625)"/>
     </defs>
     <use xlink:href="#DejaVuSans-49"/>
     <use xlink:href="#DejaVuSans-6d" x="29.492188"/>
     <use xlink:href="#DejaVuSans-70" x="126.904297"/>
     <use xlink:href="#DejaVuSans-61" x="190.380859"/>
     <use xlink:href="#DejaVuSans-63" x="251.660156"/>
     <use xlink:href="#DejaVuSans-74" x="306.640625"/>
     <use xlink:href="#DejaVuSans-66" x="345.849609"/>
     <use xlink:href="#DejaVuSans-75" x="381.054688"/>
     <use xlink:href="#DejaVuSans-6c" x="444.433594"/>
     <use xlink:href="#DejaVuSans-20" x="472.216797"/>
     <use xlink:href="#DejaVuSans-64" x="504.003906"/>
     <use xlink:href="#DejaVuSans-69" x="567.480469"/>
     <use xlink:href="#DejaVuSans-72" x="595.263672"/>
     <use xlink:href="#DejaVuSans-65" x="634.126953"/>
     <use xlink:href="#DejaVuSans-63" x="695.650391"/>
     <use xlink:href="#DejaVuSans-74" x="750.630859"/>
     <use xlink:href="#DejaVuSans-6f" x="789.839844"/>
     <use xlink:href="#DejaVuSans-72" x="851.021484"/>
     <use xlink:href="#DejaVuSans-73" x="892.134766"/>
     <use xlink:href="#DejaVuSans-20" x="944.234375"/>
     <use xlink:href="#DejaVuSans-66" x="976.021484"/>
     <use xlink:href="#DejaVuSans-6f" x="1011.226562"/>
     <use xlink:href="#DejaVuSans-72" x="1072.408203"/>
     <use xlink:href="#DejaVuSans-20" x="1113.521484"/>
     <use xlink:href="#DejaVuSans-52" x="1145.308594"/>
     <use xlink:href="#DejaVuSans-6f" x="1210.291016"/>
     <use xlink:href="#DejaVuSans-6d" x="1271.472656"/>
     <use xlink:href="#DejaVuSans-61" x="1368.884766"/>
     <use xlink:href="#DejaVuSans-6e" x="1430.164062"/>
     <use xlink:href="#DejaVuSans-63" x="1493.542969"/>
     <use xlink:href="#DejaVuSans-65" x="1548.523438"/>
     <use xlink:href="#DejaVuSans-20" x="1610.046875"/>
     <use xlink:href="#DejaVuSans-46" x="1641.833984"/>
     <use xlink:href="#DejaVuSans-69" x="1692.103516"/>
     <use xlink:href="#DejaVuSans-6c" x="1719.886719"/>
     <use xlink:href="#DejaVuSans-6d" x="1747.669922"/>
     <use xlink:href="#DejaVuSans-20" x="1845.082031"/>
     <use xlink:href="#DejaVuSans-67" x="1876.869141"/>
     <use xlink:href="#DejaVuSans-65" x="1940.345703"/>
     <use xlink:href="#DejaVuSans-6e" x="2001.869141"/>
     <use xlink:href="#DejaVuSans-72" x="2065.248047"/>
     <use xlink:href="#DejaVuSans-65" x="2104.111328"/>
     <use xlink:href="#DejaVuSans-20" x="2165.634766"/>
     <use xlink:href="#DejaVuSans-2d" x="2197.421875"/>
     <use xlink:href="#DejaVuSans-20" x="2233.505859"/>
     <use xlink:href="#DejaVuSans-49" x="2265.292969"/>
     <use xlink:href="#DejaVuSans-6d" x="2294.785156"/>
     <use xlink:href="#DejaVuSans-70" x="2392.197266"/>
     <use xlink:href="#DejaVuSans-6f" x="2455.673828"/>
     <use xlink:href="#DejaVuSans-72" x="2516.855469"/>
     <use xlink:href="#DejaVuSans-74" x="2557.96875"/>
     <use xlink:href="#DejaVuSans-61" x="2597.177734"/>
     <use xlink:href="#DejaVuSans-6e" x="2658.457031"/>
     <use xlink:href="#DejaVuSans-63" x="2721.835938"/>
     <use xlink:href="#DejaVuSans-65" x="2776.816406"/>
     <use xlink:href="#DejaVuSans-20" x="2838.339844"/>
     <use xlink:href="#DejaVuSans-72" x="2870.126953"/>
     <use xlink:href="#DejaVuSans-61" x="2911.240234"/>
     <use xlink:href="#DejaVuSans-6e" x="2972.519531"/>
     <use xlink:href="#DejaVuSans-6b" x="3035.898438"/>
     <use xlink:href="#DejaVuSans-3a" x="3093.808594"/>
     <use xlink:href="#DejaVuSans-20" x="3127.5"/>
     <use xlink:href="#DejaVuSans-31" x="3159.287109"/>
    </g>
   </g>
  </g>
 </g>
 <defs>
  <clipPath id="pe8c0703005">
   <rect x="10.8" y="10.8" width="554.4" height="554.4"/>
  </clipPath>
 </defs>
</svg>
