<?xml version="1.0" encoding="utf-8" standalone="no"?>
<!DOCTYPE svg PUBLIC "-//W3C//DTD SVG 1.1//EN"
  "http://www.w3.org/Graphics/SVG/1.1/DTD/svg11.dtd">
<svg xmlns:xlink="http://www.w3.org/1999/xlink" width="576pt" height="576pt" viewBox="0 0 576 576" xmlns="http://www.w3.org/2000/svg" version="1.1">
 <metadata>
  <rdf:RDF xmlns:dc="http://purl.org/dc/elements/1.1/" xmlns:cc="http://creativecommons.org/ns#" xmlns:rdf="http://www.w3.org/1999/02/22-rdf-syntax-ns#">
   <cc:Work>
    <dc:type rdf:resource="http://purl.org/dc/dcmitype/StillImage"/>
    <dc:date>2022-12-22T19:12:15.211082</dc:date>
    <dc:format>image/svg+xml</dc:format>
    <dc:creator>
     <cc:Agent>
      <dc:title>Matplotlib v3.5.2, https://matplotlib.org/</dc:title>
     </cc:Agent>
    </dc:creator>
   </cc:Work>
  </rdf:RDF>
 </metadata>
 <defs>
  <style type="text/css">*{stroke-linejoin: round; stroke-linecap: butt}</style>
 </defs>
 <g id="figure_1">
  <g id="patch_1">
   <path d="M 0 576 
L 576 576 
L 576 0 
L 0 0 
z
" style="fill: #ffffff"/>
  </g>
  <g id="axes_1">
   <g id="LineCollection_1">
    <path d="M 263.109549 76.142312 
L 177.851298 103.603945 
" clip-path="url(#pfe5d4162ca)" style="fill: none; stroke: #000000; stroke-opacity: 0.3; stroke-width: 5"/>
   </g>
   <g id="PathCollection_1">
    <path d="M 501.230769 316.072669 
C 508.493655 316.072669 515.46005 313.187093 520.595686 308.051458 
C 525.731322 302.915822 528.616897 295.949427 528.616897 288.686541 
C 528.616897 281.423655 525.731322 274.45726 520.595686 269.321624 
C 515.46005 264.185988 508.493655 261.300413 501.230769 261.300413 
C 493.967883 261.300413 487.001488 264.185988 481.865852 269.321624 
C 476.730217 274.45726 473.844641 281.423655 473.844641 288.686541 
C 473.844641 295.949427 476.730217 302.915822 481.865852 308.051458 
C 487.001488 313.187093 493.967883 316.072669 501.230769 316.072669 
z
" clip-path="url(#pfe5d4162ca)" style="fill: #d62728; fill-opacity: 0.99; stroke: #d62728; stroke-opacity: 0.99"/>
    <path d="M 482.592348 227.389556 
C 489.389166 227.389556 495.908519 224.689152 500.714595 219.883076 
C 505.520671 215.077 508.221076 208.557647 508.221076 201.760829 
C 508.221076 194.964011 505.520671 188.444658 500.714595 183.638581 
C 495.908519 178.832505 489.389166 176.132101 482.592348 176.132101 
C 475.79553 176.132101 469.276177 178.832505 464.470101 183.638581 
C 459.664024 188.444658 456.96362 194.964011 456.96362 201.760829 
C 456.96362 208.557647 459.664024 215.077 464.470101 219.883076 
C 469.276177 224.689152 475.79553 227.389556 482.592348 227.389556 
z
" clip-path="url(#pfe5d4162ca)" style="fill: #d62728; fill-opacity: 0.99; stroke: #d62728; stroke-opacity: 0.99"/>
    <path d="M 429.89985 154.15712 
C 436.342102 154.15712 442.521363 151.597586 447.076724 147.042226 
C 451.632084 142.486866 454.191618 136.307604 454.191618 129.865352 
C 454.191618 123.4231 451.632084 117.243838 447.076724 112.688478 
C 442.521363 108.133118 436.342102 105.573584 429.89985 105.573584 
C 423.457598 105.573584 417.278336 108.133118 412.722976 112.688478 
C 408.167616 117.243838 405.608082 123.4231 405.608082 129.865352 
C 405.608082 136.307604 408.167616 142.486866 412.722976 147.042226 
C 417.278336 151.597586 423.457598 154.15712 429.89985 154.15712 
z
" clip-path="url(#pfe5d4162ca)" style="fill: #d62728; fill-opacity: 0.99; stroke: #d62728; stroke-opacity: 0.99"/>
    <path d="M 352.264291 109.662639 
C 358.690461 109.662639 364.854296 107.109495 369.398284 102.565507 
C 373.942272 98.021519 376.495416 91.857684 376.495416 85.431514 
C 376.495416 79.005345 373.942272 72.841509 369.398284 68.297521 
C 364.854296 63.753533 358.690461 61.200389 352.264291 61.200389 
C 345.838122 61.200389 339.674286 63.753533 335.130298 68.297521 
C 330.58631 72.841509 328.033166 79.005345 328.033166 85.431514 
C 328.033166 91.857684 330.58631 98.021519 335.130298 102.565507 
C 339.674286 107.109495 345.838122 109.662639 352.264291 109.662639 
z
" clip-path="url(#pfe5d4162ca)" style="fill: #d62728; fill-opacity: 0.99; stroke: #d62728; stroke-opacity: 0.99"/>
    <path d="M 263.109549 100.295227 
C 269.514976 100.295227 275.658917 97.750323 280.188238 93.221002 
C 284.71756 88.691681 287.262463 82.54774 287.262463 76.142312 
C 287.262463 69.736885 284.71756 63.592944 280.188238 59.063623 
C 275.658917 54.534301 269.514976 51.989398 263.109549 51.989398 
C 256.704121 51.989398 250.56018 54.534301 246.030859 59.063623 
C 241.501538 63.592944 238.956634 69.736885 238.956634 76.142312 
C 238.956634 82.54774 241.501538 88.691681 246.030859 93.221002 
C 250.56018 97.750323 256.704121 100.295227 263.109549 100.295227 
z
" clip-path="url(#pfe5d4162ca)" style="fill: #d62728; fill-opacity: 0.99; stroke: #d62728; stroke-opacity: 0.99"/>
    <path d="M 177.851298 127.756859 
C 184.256726 127.756859 190.400666 125.211956 194.929988 120.682634 
C 199.459309 116.153313 202.004212 110.009373 202.004212 103.603945 
C 202.004212 97.198517 199.459309 91.054577 194.929988 86.525255 
C 190.400666 81.995934 184.256726 79.451031 177.851298 79.451031 
C 171.44587 79.451031 165.30193 81.995934 160.772609 86.525255 
C 156.243287 91.054577 153.698384 97.198517 153.698384 103.603945 
C 153.698384 110.009373 156.243287 116.153313 160.772609 120.682634 
C 165.30193 125.211956 171.44587 127.756859 177.851298 127.756859 
z
" clip-path="url(#pfe5d4162ca)" style="fill: #d62728; fill-opacity: 0.99; stroke: #d62728; stroke-opacity: 0.99"/>
    <path d="M 111.231477 185.410862 
C 117.156865 185.410862 122.840362 183.05668 127.030244 178.866798 
C 131.220126 174.676916 133.574308 168.993419 133.574308 163.068031 
C 133.574308 157.142643 131.220126 151.459146 127.030244 147.269264 
C 122.840362 143.079382 117.156865 140.7252 111.231477 140.7252 
C 105.306089 140.7252 99.622592 143.079382 95.43271 147.269264 
C 91.242828 151.459146 88.888646 157.142643 88.888646 163.068031 
C 88.888646 168.993419 91.242828 174.676916 95.43271 178.866798 
C 99.622592 183.05668 105.306089 185.410862 111.231477 185.410862 
z
" clip-path="url(#pfe5d4162ca)" style="fill: #d62728; fill-opacity: 0.99; stroke: #d62728; stroke-opacity: 0.99"/>
    <path d="M 74.769231 266.131604 
C 80.57158 266.131604 86.13706 263.826306 90.239941 259.723426 
C 94.342821 255.620545 96.648119 250.055065 96.648119 244.252716 
C 96.648119 238.450367 94.342821 232.884886 90.239941 228.782006 
C 86.13706 224.679126 80.57158 222.373828 74.769231 222.373828 
C 68.966882 222.373828 63.401401 224.679126 59.298521 228.782006 
C 55.195641 232.884886 52.890343 238.450367 52.890343 244.252716 
C 52.890343 250.055065 55.195641 255.620545 59.298521 259.723426 
C 63.401401 263.826306 68.966882 266.131604 74.769231 266.131604 
z
" clip-path="url(#pfe5d4162ca)" style="fill: #d62728; fill-opacity: 0.99; stroke: #d62728; stroke-opacity: 0.99"/>
    <path d="M 74.769244 353.723843 
C 80.23334 353.723843 85.474376 351.552935 89.338075 347.689236 
C 93.201774 343.825536 95.372683 338.5845 95.372683 333.120404 
C 95.372683 327.656308 93.201774 322.415272 89.338075 318.551573 
C 85.474376 314.687873 80.23334 312.516965 74.769244 312.516965 
C 69.305148 312.516965 64.064111 314.687873 60.200412 318.551573 
C 56.336713 322.415272 54.165804 327.656308 54.165804 333.120404 
C 54.165804 338.5845 56.336713 343.825536 60.200412 347.689236 
C 64.064111 351.552935 69.305148 353.723843 74.769244 353.723843 
z
" clip-path="url(#pfe5d4162ca)" style="fill: #d62728; fill-opacity: 0.99; stroke: #d62728; stroke-opacity: 0.99"/>
    <path d="M 111.23149 434.313081 
C 116.537678 434.313081 121.627253 432.20491 125.379295 428.452868 
C 129.131336 424.700827 131.239507 419.611252 131.239507 414.305063 
C 131.239507 408.998875 129.131336 403.9093 125.379295 400.157259 
C 121.627253 396.405217 116.537678 394.297046 111.23149 394.297046 
C 105.925302 394.297046 100.835727 396.405217 97.083685 400.157259 
C 93.331643 403.9093 91.223472 408.998875 91.223472 414.305063 
C 91.223472 419.611252 93.331643 424.700827 97.083685 428.452868 
C 100.835727 432.20491 105.925302 434.313081 111.23149 434.313081 
z
" clip-path="url(#pfe5d4162ca)" style="fill: #d62728; fill-opacity: 0.99; stroke: #d62728; stroke-opacity: 0.99"/>
    <path d="M 177.85133 493.626456 
C 183.11755 493.626456 188.168787 491.534165 191.892566 487.810386 
C 195.616346 484.086606 197.708637 479.035369 197.708637 473.76915 
C 197.708637 468.50293 195.616346 463.451693 191.892566 459.727913 
C 188.168787 456.004134 183.11755 453.911843 177.85133 453.911843 
C 172.585111 453.911843 167.533873 456.004134 163.810094 459.727913 
C 160.086315 463.451693 157.994023 468.50293 157.994023 473.76915 
C 157.994023 479.035369 160.086315 484.086606 163.810094 487.810386 
C 167.533873 491.534165 172.585111 493.626456 177.85133 493.626456 
z
" clip-path="url(#pfe5d4162ca)" style="fill: #d62728; fill-opacity: 0.99; stroke: #d62728; stroke-opacity: 0.99"/>
    <path d="M 263.109587 520.921454 
C 268.331618 520.921454 273.340471 518.846719 277.033004 515.154186 
C 280.725537 511.461653 282.800272 506.4528 282.800272 501.230769 
C 282.800272 496.008739 280.725537 490.999886 277.033004 487.307352 
C 273.340471 483.614819 268.331618 481.540084 263.109587 481.540084 
C 257.887556 481.540084 252.878704 483.614819 249.18617 487.307352 
C 245.493637 490.999886 243.418902 496.008739 243.418902 501.230769 
C 243.418902 506.4528 245.493637 511.461653 249.18617 515.154186 
C 252.878704 518.846719 257.887556 520.921454 263.109587 520.921454 
z
" clip-path="url(#pfe5d4162ca)" style="fill: #d62728; fill-opacity: 0.99; stroke: #d62728; stroke-opacity: 0.99"/>
    <path d="M 352.264323 511.573138 
C 357.47068 511.573138 362.464499 509.504631 366.145949 505.823181 
C 369.8274 502.14173 371.895907 497.147912 371.895907 491.941555 
C 371.895907 486.735198 369.8274 481.741379 366.145949 478.059929 
C 362.464499 474.378478 357.47068 472.309971 352.264323 472.309971 
C 347.057966 472.309971 342.064148 474.378478 338.382697 478.059929 
C 334.701247 481.741379 332.63274 486.735198 332.63274 491.941555 
C 332.63274 497.147912 334.701247 502.14173 338.382697 505.823181 
C 342.064148 509.504631 347.057966 511.573138 352.264323 511.573138 
z
" clip-path="url(#pfe5d4162ca)" style="fill: #d62728; fill-opacity: 0.99; stroke: #d62728; stroke-opacity: 0.99"/>
    <path d="M 429.899888 467.02616 
C 435.076247 467.02616 440.041292 464.969571 443.70153 461.309333 
C 447.361768 457.649095 449.418357 452.68405 449.418357 447.507691 
C 449.418357 442.331333 447.361768 437.366288 443.70153 433.70605 
C 440.041292 430.045812 435.076247 427.989223 429.899888 427.989223 
C 424.72353 427.989223 419.758485 430.045812 416.098247 433.70605 
C 412.438009 437.366288 410.38142 442.331333 410.38142 447.507691 
C 410.38142 452.68405 412.438009 457.649095 416.098247 461.309333 
C 419.758485 464.969571 424.72353 467.02616 429.899888 467.02616 
z
" clip-path="url(#pfe5d4162ca)" style="fill: #d62728; fill-opacity: 0.99; stroke: #d62728; stroke-opacity: 0.99"/>
    <path d="M 482.592374 394.977138 
C 487.728009 394.977138 492.653994 392.936728 496.285437 389.305285 
C 499.91688 385.673842 501.95729 380.747857 501.95729 375.612221 
C 501.95729 370.476585 499.91688 365.5506 496.285437 361.919157 
C 492.653994 358.287714 487.728009 356.247304 482.592374 356.247304 
C 477.456738 356.247304 472.530753 358.287714 468.89931 361.919157 
C 465.267867 365.5506 463.227457 370.476585 463.227457 375.612221 
C 463.227457 380.747857 465.267867 385.673842 468.89931 389.305285 
C 472.530753 392.936728 477.456738 394.977138 482.592374 394.977138 
z
" clip-path="url(#pfe5d4162ca)" style="fill: #d62728; fill-opacity: 0.99; stroke: #d62728; stroke-opacity: 0.99"/>
   </g>
   <g id="text_1">
    <g id="patch_2">
     <path d="M 463.828738 297.001697 
L 538.6328 297.001697 
L 538.6328 280.371385 
L 463.828738 280.371385 
z
" clip-path="url(#pfe5d4162ca)" style="fill: #ffffff; opacity: 0.7; stroke: #000000; stroke-linejoin: miter"/>
    </g>
    <g clip-path="url(#pfe5d4162ca)">
     <!-- Clint Eastwood -->
     <g transform="translate(467.788738 291.169978)scale(0.09 -0.09)">
      <defs>
       <path id="DejaVuSans-43" d="M 4122 4306 
L 4122 3641 
Q 3803 3938 3442 4084 
Q 3081 4231 2675 4231 
Q 1875 4231 1450 3742 
Q 1025 3253 1025 2328 
Q 1025 1406 1450 917 
Q 1875 428 2675 428 
Q 3081 428 3442 575 
Q 3803 722 4122 1019 
L 4122 359 
Q 3791 134 3420 21 
Q 3050 -91 2638 -91 
Q 1578 -91 968 557 
Q 359 1206 359 2328 
Q 359 3453 968 4101 
Q 1578 4750 2638 4750 
Q 3056 4750 3426 4639 
Q 3797 4528 4122 4306 
z
" transform="scale(0.015625)"/>
       <path id="DejaVuSans-6c" d="M 603 4863 
L 1178 4863 
L 1178 0 
L 603 0 
L 603 4863 
z
" transform="scale(0.015625)"/>
       <path id="DejaVuSans-69" d="M 603 3500 
L 1178 3500 
L 1178 0 
L 603 0 
L 603 3500 
z
M 603 4863 
L 1178 4863 
L 1178 4134 
L 603 4134 
L 603 4863 
z
" transform="scale(0.015625)"/>
       <path id="DejaVuSans-6e" d="M 3513 2113 
L 3513 0 
L 2938 0 
L 2938 2094 
Q 2938 2591 2744 2837 
Q 2550 3084 2163 3084 
Q 1697 3084 1428 2787 
Q 1159 2491 1159 1978 
L 1159 0 
L 581 0 
L 581 3500 
L 1159 3500 
L 1159 2956 
Q 1366 3272 1645 3428 
Q 1925 3584 2291 3584 
Q 2894 3584 3203 3211 
Q 3513 2838 3513 2113 
z
" transform="scale(0.015625)"/>
       <path id="DejaVuSans-74" d="M 1172 4494 
L 1172 3500 
L 2356 3500 
L 2356 3053 
L 1172 3053 
L 1172 1153 
Q 1172 725 1289 603 
Q 1406 481 1766 481 
L 2356 481 
L 2356 0 
L 1766 0 
Q 1100 0 847 248 
Q 594 497 594 1153 
L 594 3053 
L 172 3053 
L 172 3500 
L 594 3500 
L 594 4494 
L 1172 4494 
z
" transform="scale(0.015625)"/>
       <path id="DejaVuSans-20" transform="scale(0.015625)"/>
       <path id="DejaVuSans-45" d="M 628 4666 
L 3578 4666 
L 3578 4134 
L 1259 4134 
L 1259 2753 
L 3481 2753 
L 3481 2222 
L 1259 2222 
L 1259 531 
L 3634 531 
L 3634 0 
L 628 0 
L 628 4666 
z
" transform="scale(0.015625)"/>
       <path id="DejaVuSans-61" d="M 2194 1759 
Q 1497 1759 1228 1600 
Q 959 1441 959 1056 
Q 959 750 1161 570 
Q 1363 391 1709 391 
Q 2188 391 2477 730 
Q 2766 1069 2766 1631 
L 2766 1759 
L 2194 1759 
z
M 3341 1997 
L 3341 0 
L 2766 0 
L 2766 531 
Q 2569 213 2275 61 
Q 1981 -91 1556 -91 
Q 1019 -91 701 211 
Q 384 513 384 1019 
Q 384 1609 779 1909 
Q 1175 2209 1959 2209 
L 2766 2209 
L 2766 2266 
Q 2766 2663 2505 2880 
Q 2244 3097 1772 3097 
Q 1472 3097 1187 3025 
Q 903 2953 641 2809 
L 641 3341 
Q 956 3463 1253 3523 
Q 1550 3584 1831 3584 
Q 2591 3584 2966 3190 
Q 3341 2797 3341 1997 
z
" transform="scale(0.015625)"/>
       <path id="DejaVuSans-73" d="M 2834 3397 
L 2834 2853 
Q 2591 2978 2328 3040 
Q 2066 3103 1784 3103 
Q 1356 3103 1142 2972 
Q 928 2841 928 2578 
Q 928 2378 1081 2264 
Q 1234 2150 1697 2047 
L 1894 2003 
Q 2506 1872 2764 1633 
Q 3022 1394 3022 966 
Q 3022 478 2636 193 
Q 2250 -91 1575 -91 
Q 1294 -91 989 -36 
Q 684 19 347 128 
L 347 722 
Q 666 556 975 473 
Q 1284 391 1588 391 
Q 1994 391 2212 530 
Q 2431 669 2431 922 
Q 2431 1156 2273 1281 
Q 2116 1406 1581 1522 
L 1381 1569 
Q 847 1681 609 1914 
Q 372 2147 372 2553 
Q 372 3047 722 3315 
Q 1072 3584 1716 3584 
Q 2034 3584 2315 3537 
Q 2597 3491 2834 3397 
z
" transform="scale(0.015625)"/>
       <path id="DejaVuSans-77" d="M 269 3500 
L 844 3500 
L 1563 769 
L 2278 3500 
L 2956 3500 
L 3675 769 
L 4391 3500 
L 4966 3500 
L 4050 0 
L 3372 0 
L 2619 2869 
L 1863 0 
L 1184 0 
L 269 3500 
z
" transform="scale(0.015625)"/>
       <path id="DejaVuSans-6f" d="M 1959 3097 
Q 1497 3097 1228 2736 
Q 959 2375 959 1747 
Q 959 1119 1226 758 
Q 1494 397 1959 397 
Q 2419 397 2687 759 
Q 2956 1122 2956 1747 
Q 2956 2369 2687 2733 
Q 2419 3097 1959 3097 
z
M 1959 3584 
Q 2709 3584 3137 3096 
Q 3566 2609 3566 1747 
Q 3566 888 3137 398 
Q 2709 -91 1959 -91 
Q 1206 -91 779 398 
Q 353 888 353 1747 
Q 353 2609 779 3096 
Q 1206 3584 1959 3584 
z
" transform="scale(0.015625)"/>
       <path id="DejaVuSans-64" d="M 2906 2969 
L 2906 4863 
L 3481 4863 
L 3481 0 
L 2906 0 
L 2906 525 
Q 2725 213 2448 61 
Q 2172 -91 1784 -91 
Q 1150 -91 751 415 
Q 353 922 353 1747 
Q 353 2572 751 3078 
Q 1150 3584 1784 3584 
Q 2172 3584 2448 3432 
Q 2725 3281 2906 2969 
z
M 947 1747 
Q 947 1113 1208 752 
Q 1469 391 1925 391 
Q 2381 391 2643 752 
Q 2906 1113 2906 1747 
Q 2906 2381 2643 2742 
Q 2381 3103 1925 3103 
Q 1469 3103 1208 2742 
Q 947 2381 947 1747 
z
" transform="scale(0.015625)"/>
      </defs>
      <use xlink:href="#DejaVuSans-43"/>
      <use xlink:href="#DejaVuSans-6c" x="69.824219"/>
      <use xlink:href="#DejaVuSans-69" x="97.607422"/>
      <use xlink:href="#DejaVuSans-6e" x="125.390625"/>
      <use xlink:href="#DejaVuSans-74" x="188.769531"/>
      <use xlink:href="#DejaVuSans-20" x="227.978516"/>
      <use xlink:href="#DejaVuSans-45" x="259.765625"/>
      <use xlink:href="#DejaVuSans-61" x="322.949219"/>
      <use xlink:href="#DejaVuSans-73" x="384.228516"/>
      <use xlink:href="#DejaVuSans-74" x="436.328125"/>
      <use xlink:href="#DejaVuSans-77" x="475.537109"/>
      <use xlink:href="#DejaVuSans-6f" x="557.324219"/>
      <use xlink:href="#DejaVuSans-6f" x="618.505859"/>
      <use xlink:href="#DejaVuSans-64" x="679.6875"/>
     </g>
    </g>
   </g>
   <g id="text_2">
    <g id="patch_3">
     <path d="M 440.291645 210.075985 
L 524.893051 210.075985 
L 524.893051 193.445672 
L 440.291645 193.445672 
z
" clip-path="url(#pfe5d4162ca)" style="fill: #ffffff; opacity: 0.7; stroke: #000000; stroke-linejoin: miter"/>
    </g>
    <g clip-path="url(#pfe5d4162ca)">
     <!-- Steven Spielberg -->
     <g transform="translate(444.251645 204.244266)scale(0.09 -0.09)">
      <defs>
       <path id="DejaVuSans-53" d="M 3425 4513 
L 3425 3897 
Q 3066 4069 2747 4153 
Q 2428 4238 2131 4238 
Q 1616 4238 1336 4038 
Q 1056 3838 1056 3469 
Q 1056 3159 1242 3001 
Q 1428 2844 1947 2747 
L 2328 2669 
Q 3034 2534 3370 2195 
Q 3706 1856 3706 1288 
Q 3706 609 3251 259 
Q 2797 -91 1919 -91 
Q 1588 -91 1214 -16 
Q 841 59 441 206 
L 441 856 
Q 825 641 1194 531 
Q 1563 422 1919 422 
Q 2459 422 2753 634 
Q 3047 847 3047 1241 
Q 3047 1584 2836 1778 
Q 2625 1972 2144 2069 
L 1759 2144 
Q 1053 2284 737 2584 
Q 422 2884 422 3419 
Q 422 4038 858 4394 
Q 1294 4750 2059 4750 
Q 2388 4750 2728 4690 
Q 3069 4631 3425 4513 
z
" transform="scale(0.015625)"/>
       <path id="DejaVuSans-65" d="M 3597 1894 
L 3597 1613 
L 953 1613 
Q 991 1019 1311 708 
Q 1631 397 2203 397 
Q 2534 397 2845 478 
Q 3156 559 3463 722 
L 3463 178 
Q 3153 47 2828 -22 
Q 2503 -91 2169 -91 
Q 1331 -91 842 396 
Q 353 884 353 1716 
Q 353 2575 817 3079 
Q 1281 3584 2069 3584 
Q 2775 3584 3186 3129 
Q 3597 2675 3597 1894 
z
M 3022 2063 
Q 3016 2534 2758 2815 
Q 2500 3097 2075 3097 
Q 1594 3097 1305 2825 
Q 1016 2553 972 2059 
L 3022 2063 
z
" transform="scale(0.015625)"/>
       <path id="DejaVuSans-76" d="M 191 3500 
L 800 3500 
L 1894 563 
L 2988 3500 
L 3597 3500 
L 2284 0 
L 1503 0 
L 191 3500 
z
" transform="scale(0.015625)"/>
       <path id="DejaVuSans-70" d="M 1159 525 
L 1159 -1331 
L 581 -1331 
L 581 3500 
L 1159 3500 
L 1159 2969 
Q 1341 3281 1617 3432 
Q 1894 3584 2278 3584 
Q 2916 3584 3314 3078 
Q 3713 2572 3713 1747 
Q 3713 922 3314 415 
Q 2916 -91 2278 -91 
Q 1894 -91 1617 61 
Q 1341 213 1159 525 
z
M 3116 1747 
Q 3116 2381 2855 2742 
Q 2594 3103 2138 3103 
Q 1681 3103 1420 2742 
Q 1159 2381 1159 1747 
Q 1159 1113 1420 752 
Q 1681 391 2138 391 
Q 2594 391 2855 752 
Q 3116 1113 3116 1747 
z
" transform="scale(0.015625)"/>
       <path id="DejaVuSans-62" d="M 3116 1747 
Q 3116 2381 2855 2742 
Q 2594 3103 2138 3103 
Q 1681 3103 1420 2742 
Q 1159 2381 1159 1747 
Q 1159 1113 1420 752 
Q 1681 391 2138 391 
Q 2594 391 2855 752 
Q 3116 1113 3116 1747 
z
M 1159 2969 
Q 1341 3281 1617 3432 
Q 1894 3584 2278 3584 
Q 2916 3584 3314 3078 
Q 3713 2572 3713 1747 
Q 3713 922 3314 415 
Q 2916 -91 2278 -91 
Q 1894 -91 1617 61 
Q 1341 213 1159 525 
L 1159 0 
L 581 0 
L 581 4863 
L 1159 4863 
L 1159 2969 
z
" transform="scale(0.015625)"/>
       <path id="DejaVuSans-72" d="M 2631 2963 
Q 2534 3019 2420 3045 
Q 2306 3072 2169 3072 
Q 1681 3072 1420 2755 
Q 1159 2438 1159 1844 
L 1159 0 
L 581 0 
L 581 3500 
L 1159 3500 
L 1159 2956 
Q 1341 3275 1631 3429 
Q 1922 3584 2338 3584 
Q 2397 3584 2469 3576 
Q 2541 3569 2628 3553 
L 2631 2963 
z
" transform="scale(0.015625)"/>
       <path id="DejaVuSans-67" d="M 2906 1791 
Q 2906 2416 2648 2759 
Q 2391 3103 1925 3103 
Q 1463 3103 1205 2759 
Q 947 2416 947 1791 
Q 947 1169 1205 825 
Q 1463 481 1925 481 
Q 2391 481 2648 825 
Q 2906 1169 2906 1791 
z
M 3481 434 
Q 3481 -459 3084 -895 
Q 2688 -1331 1869 -1331 
Q 1566 -1331 1297 -1286 
Q 1028 -1241 775 -1147 
L 775 -588 
Q 1028 -725 1275 -790 
Q 1522 -856 1778 -856 
Q 2344 -856 2625 -561 
Q 2906 -266 2906 331 
L 2906 616 
Q 2728 306 2450 153 
Q 2172 0 1784 0 
Q 1141 0 747 490 
Q 353 981 353 1791 
Q 353 2603 747 3093 
Q 1141 3584 1784 3584 
Q 2172 3584 2450 3431 
Q 2728 3278 2906 2969 
L 2906 3500 
L 3481 3500 
L 3481 434 
z
" transform="scale(0.015625)"/>
      </defs>
      <use xlink:href="#DejaVuSans-53"/>
      <use xlink:href="#DejaVuSans-74" x="63.476562"/>
      <use xlink:href="#DejaVuSans-65" x="102.685547"/>
      <use xlink:href="#DejaVuSans-76" x="164.208984"/>
      <use xlink:href="#DejaVuSans-65" x="223.388672"/>
      <use xlink:href="#DejaVuSans-6e" x="284.912109"/>
      <use xlink:href="#DejaVuSans-20" x="348.291016"/>
      <use xlink:href="#DejaVuSans-53" x="380.078125"/>
      <use xlink:href="#DejaVuSans-70" x="443.554688"/>
      <use xlink:href="#DejaVuSans-69" x="507.03125"/>
      <use xlink:href="#DejaVuSans-65" x="534.814453"/>
      <use xlink:href="#DejaVuSans-6c" x="596.337891"/>
      <use xlink:href="#DejaVuSans-62" x="624.121094"/>
      <use xlink:href="#DejaVuSans-65" x="687.597656"/>
      <use xlink:href="#DejaVuSans-72" x="749.121094"/>
      <use xlink:href="#DejaVuSans-67" x="788.484375"/>
     </g>
    </g>
   </g>
   <g id="text_3">
    <g id="patch_4">
     <path d="M 388.887272 138.180508 
L 470.912428 138.180508 
L 470.912428 121.550196 
L 388.887272 121.550196 
z
" clip-path="url(#pfe5d4162ca)" style="fill: #ffffff; opacity: 0.7; stroke: #000000; stroke-linejoin: miter"/>
    </g>
    <g clip-path="url(#pfe5d4162ca)">
     <!-- Martin Campbell -->
     <g transform="translate(392.847272 132.34879)scale(0.09 -0.09)">
      <defs>
       <path id="DejaVuSans-4d" d="M 628 4666 
L 1569 4666 
L 2759 1491 
L 3956 4666 
L 4897 4666 
L 4897 0 
L 4281 0 
L 4281 4097 
L 3078 897 
L 2444 897 
L 1241 4097 
L 1241 0 
L 628 0 
L 628 4666 
z
" transform="scale(0.015625)"/>
       <path id="DejaVuSans-6d" d="M 3328 2828 
Q 3544 3216 3844 3400 
Q 4144 3584 4550 3584 
Q 5097 3584 5394 3201 
Q 5691 2819 5691 2113 
L 5691 0 
L 5113 0 
L 5113 2094 
Q 5113 2597 4934 2840 
Q 4756 3084 4391 3084 
Q 3944 3084 3684 2787 
Q 3425 2491 3425 1978 
L 3425 0 
L 2847 0 
L 2847 2094 
Q 2847 2600 2669 2842 
Q 2491 3084 2119 3084 
Q 1678 3084 1418 2786 
Q 1159 2488 1159 1978 
L 1159 0 
L 581 0 
L 581 3500 
L 1159 3500 
L 1159 2956 
Q 1356 3278 1631 3431 
Q 1906 3584 2284 3584 
Q 2666 3584 2933 3390 
Q 3200 3197 3328 2828 
z
" transform="scale(0.015625)"/>
      </defs>
      <use xlink:href="#DejaVuSans-4d"/>
      <use xlink:href="#DejaVuSans-61" x="86.279297"/>
      <use xlink:href="#DejaVuSans-72" x="147.558594"/>
      <use xlink:href="#DejaVuSans-74" x="188.671875"/>
      <use xlink:href="#DejaVuSans-69" x="227.880859"/>
      <use xlink:href="#DejaVuSans-6e" x="255.664062"/>
      <use xlink:href="#DejaVuSans-20" x="319.042969"/>
      <use xlink:href="#DejaVuSans-43" x="350.830078"/>
      <use xlink:href="#DejaVuSans-61" x="420.654297"/>
      <use xlink:href="#DejaVuSans-6d" x="481.933594"/>
      <use xlink:href="#DejaVuSans-70" x="579.345703"/>
      <use xlink:href="#DejaVuSans-62" x="642.822266"/>
      <use xlink:href="#DejaVuSans-65" x="706.298828"/>
      <use xlink:href="#DejaVuSans-6c" x="767.822266"/>
      <use xlink:href="#DejaVuSans-6c" x="795.605469"/>
     </g>
    </g>
   </g>
   <g id="text_4">
    <g id="patch_5">
     <path d="M 313.575541 93.74667 
L 390.953041 93.74667 
L 390.953041 77.116358 
L 313.575541 77.116358 
z
" clip-path="url(#pfe5d4162ca)" style="fill: #ffffff; opacity: 0.7; stroke: #000000; stroke-linejoin: miter"/>
    </g>
    <g clip-path="url(#pfe5d4162ca)">
     <!-- Paul Verhoeven -->
     <g transform="translate(317.535541 87.914952)scale(0.09 -0.09)">
      <defs>
       <path id="DejaVuSans-50" d="M 1259 4147 
L 1259 2394 
L 2053 2394 
Q 2494 2394 2734 2622 
Q 2975 2850 2975 3272 
Q 2975 3691 2734 3919 
Q 2494 4147 2053 4147 
L 1259 4147 
z
M 628 4666 
L 2053 4666 
Q 2838 4666 3239 4311 
Q 3641 3956 3641 3272 
Q 3641 2581 3239 2228 
Q 2838 1875 2053 1875 
L 1259 1875 
L 1259 0 
L 628 0 
L 628 4666 
z
" transform="scale(0.015625)"/>
       <path id="DejaVuSans-75" d="M 544 1381 
L 544 3500 
L 1119 3500 
L 1119 1403 
Q 1119 906 1312 657 
Q 1506 409 1894 409 
Q 2359 409 2629 706 
Q 2900 1003 2900 1516 
L 2900 3500 
L 3475 3500 
L 3475 0 
L 2900 0 
L 2900 538 
Q 2691 219 2414 64 
Q 2138 -91 1772 -91 
Q 1169 -91 856 284 
Q 544 659 544 1381 
z
M 1991 3584 
L 1991 3584 
z
" transform="scale(0.015625)"/>
       <path id="DejaVuSans-56" d="M 1831 0 
L 50 4666 
L 709 4666 
L 2188 738 
L 3669 4666 
L 4325 4666 
L 2547 0 
L 1831 0 
z
" transform="scale(0.015625)"/>
       <path id="DejaVuSans-68" d="M 3513 2113 
L 3513 0 
L 2938 0 
L 2938 2094 
Q 2938 2591 2744 2837 
Q 2550 3084 2163 3084 
Q 1697 3084 1428 2787 
Q 1159 2491 1159 1978 
L 1159 0 
L 581 0 
L 581 4863 
L 1159 4863 
L 1159 2956 
Q 1366 3272 1645 3428 
Q 1925 3584 2291 3584 
Q 2894 3584 3203 3211 
Q 3513 2838 3513 2113 
z
" transform="scale(0.015625)"/>
      </defs>
      <use xlink:href="#DejaVuSans-50"/>
      <use xlink:href="#DejaVuSans-61" x="55.802734"/>
      <use xlink:href="#DejaVuSans-75" x="117.082031"/>
      <use xlink:href="#DejaVuSans-6c" x="180.460938"/>
      <use xlink:href="#DejaVuSans-20" x="208.244141"/>
      <use xlink:href="#DejaVuSans-56" x="240.03125"/>
      <use xlink:href="#DejaVuSans-65" x="300.689453"/>
      <use xlink:href="#DejaVuSans-72" x="362.212891"/>
      <use xlink:href="#DejaVuSans-68" x="401.576172"/>
      <use xlink:href="#DejaVuSans-6f" x="464.955078"/>
      <use xlink:href="#DejaVuSans-65" x="526.136719"/>
      <use xlink:href="#DejaVuSans-76" x="587.660156"/>
      <use xlink:href="#DejaVuSans-65" x="646.839844"/>
      <use xlink:href="#DejaVuSans-6e" x="708.363281"/>
     </g>
    </g>
   </g>
   <g id="text_5">
    <g id="patch_6">
     <path d="M 224.888377 84.457469 
L 301.33072 84.457469 
L 301.33072 67.827156 
L 224.888377 67.827156 
z
" clip-path="url(#pfe5d4162ca)" style="fill: #ffffff; opacity: 0.7; stroke: #000000; stroke-linejoin: miter"/>
    </g>
    <g clip-path="url(#pfe5d4162ca)">
     <!-- Joseph Barbera -->
     <g transform="translate(228.848377 78.62575)scale(0.09 -0.09)">
      <defs>
       <path id="DejaVuSans-4a" d="M 628 4666 
L 1259 4666 
L 1259 325 
Q 1259 -519 939 -900 
Q 619 -1281 -91 -1281 
L -331 -1281 
L -331 -750 
L -134 -750 
Q 284 -750 456 -515 
Q 628 -281 628 325 
L 628 4666 
z
" transform="scale(0.015625)"/>
       <path id="DejaVuSans-42" d="M 1259 2228 
L 1259 519 
L 2272 519 
Q 2781 519 3026 730 
Q 3272 941 3272 1375 
Q 3272 1813 3026 2020 
Q 2781 2228 2272 2228 
L 1259 2228 
z
M 1259 4147 
L 1259 2741 
L 2194 2741 
Q 2656 2741 2882 2914 
Q 3109 3088 3109 3444 
Q 3109 3797 2882 3972 
Q 2656 4147 2194 4147 
L 1259 4147 
z
M 628 4666 
L 2241 4666 
Q 2963 4666 3353 4366 
Q 3744 4066 3744 3513 
Q 3744 3084 3544 2831 
Q 3344 2578 2956 2516 
Q 3422 2416 3680 2098 
Q 3938 1781 3938 1306 
Q 3938 681 3513 340 
Q 3088 0 2303 0 
L 628 0 
L 628 4666 
z
" transform="scale(0.015625)"/>
      </defs>
      <use xlink:href="#DejaVuSans-4a"/>
      <use xlink:href="#DejaVuSans-6f" x="29.492188"/>
      <use xlink:href="#DejaVuSans-73" x="90.673828"/>
      <use xlink:href="#DejaVuSans-65" x="142.773438"/>
      <use xlink:href="#DejaVuSans-70" x="204.296875"/>
      <use xlink:href="#DejaVuSans-68" x="267.773438"/>
      <use xlink:href="#DejaVuSans-20" x="331.152344"/>
      <use xlink:href="#DejaVuSans-42" x="362.939453"/>
      <use xlink:href="#DejaVuSans-61" x="431.542969"/>
      <use xlink:href="#DejaVuSans-72" x="492.822266"/>
      <use xlink:href="#DejaVuSans-62" x="533.935547"/>
      <use xlink:href="#DejaVuSans-65" x="597.412109"/>
      <use xlink:href="#DejaVuSans-72" x="658.935547"/>
      <use xlink:href="#DejaVuSans-61" x="700.048828"/>
     </g>
    </g>
   </g>
   <g id="text_6">
    <g id="patch_7">
     <path d="M 141.368251 111.919101 
L 214.334345 111.919101 
L 214.334345 95.288789 
L 141.368251 95.288789 
z
" clip-path="url(#pfe5d4162ca)" style="fill: #ffffff; opacity: 0.7; stroke: #000000; stroke-linejoin: miter"/>
    </g>
    <g clip-path="url(#pfe5d4162ca)">
     <!-- William Hanna -->
     <g transform="translate(145.328251 106.087382)scale(0.09 -0.09)">
      <defs>
       <path id="DejaVuSans-57" d="M 213 4666 
L 850 4666 
L 1831 722 
L 2809 4666 
L 3519 4666 
L 4500 722 
L 5478 4666 
L 6119 4666 
L 4947 0 
L 4153 0 
L 3169 4050 
L 2175 0 
L 1381 0 
L 213 4666 
z
" transform="scale(0.015625)"/>
       <path id="DejaVuSans-48" d="M 628 4666 
L 1259 4666 
L 1259 2753 
L 3553 2753 
L 3553 4666 
L 4184 4666 
L 4184 0 
L 3553 0 
L 3553 2222 
L 1259 2222 
L 1259 0 
L 628 0 
L 628 4666 
z
" transform="scale(0.015625)"/>
      </defs>
      <use xlink:href="#DejaVuSans-57"/>
      <use xlink:href="#DejaVuSans-69" x="96.626953"/>
      <use xlink:href="#DejaVuSans-6c" x="124.410156"/>
      <use xlink:href="#DejaVuSans-6c" x="152.193359"/>
      <use xlink:href="#DejaVuSans-69" x="179.976562"/>
      <use xlink:href="#DejaVuSans-61" x="207.759766"/>
      <use xlink:href="#DejaVuSans-6d" x="269.039062"/>
      <use xlink:href="#DejaVuSans-20" x="366.451172"/>
      <use xlink:href="#DejaVuSans-48" x="398.238281"/>
      <use xlink:href="#DejaVuSans-61" x="473.433594"/>
      <use xlink:href="#DejaVuSans-6e" x="534.712891"/>
      <use xlink:href="#DejaVuSans-6e" x="598.091797"/>
      <use xlink:href="#DejaVuSans-61" x="661.470703"/>
     </g>
    </g>
   </g>
   <g id="text_7">
    <g id="patch_8">
     <path d="M 71.324211 171.383187 
L 151.138743 171.383187 
L 151.138743 154.752875 
L 71.324211 154.752875 
z
" clip-path="url(#pfe5d4162ca)" style="fill: #ffffff; opacity: 0.7; stroke: #000000; stroke-linejoin: miter"/>
    </g>
    <g clip-path="url(#pfe5d4162ca)">
     <!-- Martin Scorsese -->
     <g transform="translate(75.284211 165.551468)scale(0.09 -0.09)">
      <defs>
       <path id="DejaVuSans-63" d="M 3122 3366 
L 3122 2828 
Q 2878 2963 2633 3030 
Q 2388 3097 2138 3097 
Q 1578 3097 1268 2742 
Q 959 2388 959 1747 
Q 959 1106 1268 751 
Q 1578 397 2138 397 
Q 2388 397 2633 464 
Q 2878 531 3122 666 
L 3122 134 
Q 2881 22 2623 -34 
Q 2366 -91 2075 -91 
Q 1284 -91 818 406 
Q 353 903 353 1747 
Q 353 2603 823 3093 
Q 1294 3584 2113 3584 
Q 2378 3584 2631 3529 
Q 2884 3475 3122 3366 
z
" transform="scale(0.015625)"/>
      </defs>
      <use xlink:href="#DejaVuSans-4d"/>
      <use xlink:href="#DejaVuSans-61" x="86.279297"/>
      <use xlink:href="#DejaVuSans-72" x="147.558594"/>
      <use xlink:href="#DejaVuSans-74" x="188.671875"/>
      <use xlink:href="#DejaVuSans-69" x="227.880859"/>
      <use xlink:href="#DejaVuSans-6e" x="255.664062"/>
      <use xlink:href="#DejaVuSans-20" x="319.042969"/>
      <use xlink:href="#DejaVuSans-53" x="350.830078"/>
      <use xlink:href="#DejaVuSans-63" x="414.306641"/>
      <use xlink:href="#DejaVuSans-6f" x="469.287109"/>
      <use xlink:href="#DejaVuSans-72" x="530.46875"/>
      <use xlink:href="#DejaVuSans-73" x="571.582031"/>
      <use xlink:href="#DejaVuSans-65" x="623.681641"/>
      <use xlink:href="#DejaVuSans-73" x="685.205078"/>
      <use xlink:href="#DejaVuSans-65" x="737.304688"/>
     </g>
    </g>
   </g>
   <g id="text_8">
    <g id="patch_9">
     <path d="M 43.850012 252.567872 
L 105.68845 252.567872 
L 105.68845 235.937559 
L 43.850012 235.937559 
z
" clip-path="url(#pfe5d4162ca)" style="fill: #ffffff; opacity: 0.7; stroke: #000000; stroke-linejoin: miter"/>
    </g>
    <g clip-path="url(#pfe5d4162ca)">
     <!-- Ridley Scott -->
     <g transform="translate(47.810012 246.736153)scale(0.09 -0.09)">
      <defs>
       <path id="DejaVuSans-52" d="M 2841 2188 
Q 3044 2119 3236 1894 
Q 3428 1669 3622 1275 
L 4263 0 
L 3584 0 
L 2988 1197 
Q 2756 1666 2539 1819 
Q 2322 1972 1947 1972 
L 1259 1972 
L 1259 0 
L 628 0 
L 628 4666 
L 2053 4666 
Q 2853 4666 3247 4331 
Q 3641 3997 3641 3322 
Q 3641 2881 3436 2590 
Q 3231 2300 2841 2188 
z
M 1259 4147 
L 1259 2491 
L 2053 2491 
Q 2509 2491 2742 2702 
Q 2975 2913 2975 3322 
Q 2975 3731 2742 3939 
Q 2509 4147 2053 4147 
L 1259 4147 
z
" transform="scale(0.015625)"/>
       <path id="DejaVuSans-79" d="M 2059 -325 
Q 1816 -950 1584 -1140 
Q 1353 -1331 966 -1331 
L 506 -1331 
L 506 -850 
L 844 -850 
Q 1081 -850 1212 -737 
Q 1344 -625 1503 -206 
L 1606 56 
L 191 3500 
L 800 3500 
L 1894 763 
L 2988 3500 
L 3597 3500 
L 2059 -325 
z
" transform="scale(0.015625)"/>
      </defs>
      <use xlink:href="#DejaVuSans-52"/>
      <use xlink:href="#DejaVuSans-69" x="69.482422"/>
      <use xlink:href="#DejaVuSans-64" x="97.265625"/>
      <use xlink:href="#DejaVuSans-6c" x="160.742188"/>
      <use xlink:href="#DejaVuSans-65" x="188.525391"/>
      <use xlink:href="#DejaVuSans-79" x="250.048828"/>
      <use xlink:href="#DejaVuSans-20" x="309.228516"/>
      <use xlink:href="#DejaVuSans-53" x="341.015625"/>
      <use xlink:href="#DejaVuSans-63" x="404.492188"/>
      <use xlink:href="#DejaVuSans-6f" x="459.472656"/>
      <use xlink:href="#DejaVuSans-74" x="520.654297"/>
      <use xlink:href="#DejaVuSans-74" x="559.863281"/>
     </g>
    </g>
   </g>
   <g id="text_9">
    <g id="patch_10">
     <path d="M 44.720494 341.43556 
L 104.817994 341.43556 
L 104.817994 324.805248 
L 44.720494 324.805248 
z
" clip-path="url(#pfe5d4162ca)" style="fill: #ffffff; opacity: 0.7; stroke: #000000; stroke-linejoin: miter"/>
    </g>
    <g clip-path="url(#pfe5d4162ca)">
     <!-- Jon Favreau -->
     <g transform="translate(48.680494 335.603842)scale(0.09 -0.09)">
      <defs>
       <path id="DejaVuSans-46" d="M 628 4666 
L 3309 4666 
L 3309 4134 
L 1259 4134 
L 1259 2759 
L 3109 2759 
L 3109 2228 
L 1259 2228 
L 1259 0 
L 628 0 
L 628 4666 
z
" transform="scale(0.015625)"/>
      </defs>
      <use xlink:href="#DejaVuSans-4a"/>
      <use xlink:href="#DejaVuSans-6f" x="29.492188"/>
      <use xlink:href="#DejaVuSans-6e" x="90.673828"/>
      <use xlink:href="#DejaVuSans-20" x="154.052734"/>
      <use xlink:href="#DejaVuSans-46" x="185.839844"/>
      <use xlink:href="#DejaVuSans-61" x="234.234375"/>
      <use xlink:href="#DejaVuSans-76" x="295.513672"/>
      <use xlink:href="#DejaVuSans-72" x="354.693359"/>
      <use xlink:href="#DejaVuSans-65" x="393.556641"/>
      <use xlink:href="#DejaVuSans-61" x="455.080078"/>
      <use xlink:href="#DejaVuSans-75" x="516.359375"/>
     </g>
    </g>
   </g>
   <g id="text_10">
    <g id="patch_11">
     <path d="M 65.078365 422.62022 
L 157.384615 422.62022 
L 157.384615 405.989907 
L 65.078365 405.989907 
z
" clip-path="url(#pfe5d4162ca)" style="fill: #ffffff; opacity: 0.7; stroke: #000000; stroke-linejoin: miter"/>
    </g>
    <g clip-path="url(#pfe5d4162ca)">
     <!-- Wolfgang Petersen -->
     <g transform="translate(69.038365 416.788501)scale(0.09 -0.09)">
      <defs>
       <path id="DejaVuSans-66" d="M 2375 4863 
L 2375 4384 
L 1825 4384 
Q 1516 4384 1395 4259 
Q 1275 4134 1275 3809 
L 1275 3500 
L 2222 3500 
L 2222 3053 
L 1275 3053 
L 1275 0 
L 697 0 
L 697 3053 
L 147 3053 
L 147 3500 
L 697 3500 
L 697 3744 
Q 697 4328 969 4595 
Q 1241 4863 1831 4863 
L 2375 4863 
z
" transform="scale(0.015625)"/>
      </defs>
      <use xlink:href="#DejaVuSans-57"/>
      <use xlink:href="#DejaVuSans-6f" x="93.001953"/>
      <use xlink:href="#DejaVuSans-6c" x="154.183594"/>
      <use xlink:href="#DejaVuSans-66" x="181.966797"/>
      <use xlink:href="#DejaVuSans-67" x="217.171875"/>
      <use xlink:href="#DejaVuSans-61" x="280.648438"/>
      <use xlink:href="#DejaVuSans-6e" x="341.927734"/>
      <use xlink:href="#DejaVuSans-67" x="405.306641"/>
      <use xlink:href="#DejaVuSans-20" x="468.783203"/>
      <use xlink:href="#DejaVuSans-50" x="500.570312"/>
      <use xlink:href="#DejaVuSans-65" x="557.248047"/>
      <use xlink:href="#DejaVuSans-74" x="618.771484"/>
      <use xlink:href="#DejaVuSans-65" x="657.980469"/>
      <use xlink:href="#DejaVuSans-72" x="719.503906"/>
      <use xlink:href="#DejaVuSans-73" x="760.617188"/>
      <use xlink:href="#DejaVuSans-65" x="812.716797"/>
      <use xlink:href="#DejaVuSans-6e" x="874.240234"/>
     </g>
    </g>
   </g>
   <g id="text_11">
    <g id="patch_12">
     <path d="M 148.268752 482.084306 
L 207.433908 482.084306 
L 207.433908 465.453993 
L 148.268752 465.453993 
z
" clip-path="url(#pfe5d4162ca)" style="fill: #ffffff; opacity: 0.7; stroke: #000000; stroke-linejoin: miter"/>
    </g>
    <g clip-path="url(#pfe5d4162ca)">
     <!-- Peter Segal -->
     <g transform="translate(152.228752 476.252587)scale(0.09 -0.09)">
      <use xlink:href="#DejaVuSans-50"/>
      <use xlink:href="#DejaVuSans-65" x="56.677734"/>
      <use xlink:href="#DejaVuSans-74" x="118.201172"/>
      <use xlink:href="#DejaVuSans-65" x="157.410156"/>
      <use xlink:href="#DejaVuSans-72" x="218.933594"/>
      <use xlink:href="#DejaVuSans-20" x="260.046875"/>
      <use xlink:href="#DejaVuSans-53" x="291.833984"/>
      <use xlink:href="#DejaVuSans-65" x="355.310547"/>
      <use xlink:href="#DejaVuSans-67" x="416.833984"/>
      <use xlink:href="#DejaVuSans-61" x="480.310547"/>
      <use xlink:href="#DejaVuSans-6c" x="541.589844"/>
     </g>
    </g>
   </g>
   <g id="text_12">
    <g id="patch_13">
     <path d="M 249.305837 509.545925 
L 276.913337 509.545925 
L 276.913337 492.915613 
L 249.305837 492.915613 
z
" clip-path="url(#pfe5d4162ca)" style="fill: #ffffff; opacity: 0.7; stroke: #000000; stroke-linejoin: miter"/>
    </g>
    <g clip-path="url(#pfe5d4162ca)">
     <!-- McG -->
     <g transform="translate(253.265837 503.714207)scale(0.09 -0.09)">
      <defs>
       <path id="DejaVuSans-47" d="M 3809 666 
L 3809 1919 
L 2778 1919 
L 2778 2438 
L 4434 2438 
L 4434 434 
Q 4069 175 3628 42 
Q 3188 -91 2688 -91 
Q 1594 -91 976 548 
Q 359 1188 359 2328 
Q 359 3472 976 4111 
Q 1594 4750 2688 4750 
Q 3144 4750 3555 4637 
Q 3966 4525 4313 4306 
L 4313 3634 
Q 3963 3931 3569 4081 
Q 3175 4231 2741 4231 
Q 1884 4231 1454 3753 
Q 1025 3275 1025 2328 
Q 1025 1384 1454 906 
Q 1884 428 2741 428 
Q 3075 428 3337 486 
Q 3600 544 3809 666 
z
" transform="scale(0.015625)"/>
      </defs>
      <use xlink:href="#DejaVuSans-4d"/>
      <use xlink:href="#DejaVuSans-63" x="86.279297"/>
      <use xlink:href="#DejaVuSans-47" x="141.259766"/>
     </g>
    </g>
   </g>
   <g id="text_13">
    <g id="patch_14">
     <path d="M 320.462683 500.256711 
L 384.065964 500.256711 
L 384.065964 483.626398 
L 320.462683 483.626398 
z
" clip-path="url(#pfe5d4162ca)" style="fill: #ffffff; opacity: 0.7; stroke: #000000; stroke-linejoin: miter"/>
    </g>
    <g clip-path="url(#pfe5d4162ca)">
     <!-- Woody Allen -->
     <g transform="translate(324.422683 494.424992)scale(0.09 -0.09)">
      <defs>
       <path id="DejaVuSans-41" d="M 2188 4044 
L 1331 1722 
L 3047 1722 
L 2188 4044 
z
M 1831 4666 
L 2547 4666 
L 4325 0 
L 3669 0 
L 3244 1197 
L 1141 1197 
L 716 0 
L 50 0 
L 1831 4666 
z
" transform="scale(0.015625)"/>
      </defs>
      <use xlink:href="#DejaVuSans-57"/>
      <use xlink:href="#DejaVuSans-6f" x="93.001953"/>
      <use xlink:href="#DejaVuSans-6f" x="154.183594"/>
      <use xlink:href="#DejaVuSans-64" x="215.365234"/>
      <use xlink:href="#DejaVuSans-79" x="278.841797"/>
      <use xlink:href="#DejaVuSans-20" x="338.021484"/>
      <use xlink:href="#DejaVuSans-41" x="369.808594"/>
      <use xlink:href="#DejaVuSans-6c" x="438.216797"/>
      <use xlink:href="#DejaVuSans-6c" x="466"/>
      <use xlink:href="#DejaVuSans-65" x="493.783203"/>
      <use xlink:href="#DejaVuSans-6e" x="555.306641"/>
     </g>
    </g>
   </g>
   <g id="text_14">
    <g id="patch_15">
     <path d="M 398.998951 455.822848 
L 460.800826 455.822848 
L 460.800826 439.192535 
L 398.998951 439.192535 
z
" clip-path="url(#pfe5d4162ca)" style="fill: #ffffff; opacity: 0.7; stroke: #000000; stroke-linejoin: miter"/>
    </g>
    <g clip-path="url(#pfe5d4162ca)">
     <!-- Satyajit Ray -->
     <g transform="translate(402.958951 449.991129)scale(0.09 -0.09)">
      <defs>
       <path id="DejaVuSans-6a" d="M 603 3500 
L 1178 3500 
L 1178 -63 
Q 1178 -731 923 -1031 
Q 669 -1331 103 -1331 
L -116 -1331 
L -116 -844 
L 38 -844 
Q 366 -844 484 -692 
Q 603 -541 603 -63 
L 603 3500 
z
M 603 4863 
L 1178 4863 
L 1178 4134 
L 603 4134 
L 603 4863 
z
" transform="scale(0.015625)"/>
      </defs>
      <use xlink:href="#DejaVuSans-53"/>
      <use xlink:href="#DejaVuSans-61" x="63.476562"/>
      <use xlink:href="#DejaVuSans-74" x="124.755859"/>
      <use xlink:href="#DejaVuSans-79" x="163.964844"/>
      <use xlink:href="#DejaVuSans-61" x="223.144531"/>
      <use xlink:href="#DejaVuSans-6a" x="284.423828"/>
      <use xlink:href="#DejaVuSans-69" x="312.207031"/>
      <use xlink:href="#DejaVuSans-74" x="339.990234"/>
      <use xlink:href="#DejaVuSans-20" x="379.199219"/>
      <use xlink:href="#DejaVuSans-52" x="410.986328"/>
      <use xlink:href="#DejaVuSans-61" x="478.21875"/>
      <use xlink:href="#DejaVuSans-79" x="539.498047"/>
     </g>
    </g>
   </g>
   <g id="text_15">
    <g id="patch_16">
     <path d="M 454.859014 383.927377 
L 510.325733 383.927377 
L 510.325733 367.297065 
L 454.859014 367.297065 
z
" clip-path="url(#pfe5d4162ca)" style="fill: #ffffff; opacity: 0.7; stroke: #000000; stroke-linejoin: miter"/>
    </g>
    <g clip-path="url(#pfe5d4162ca)">
     <!-- Steve Carr -->
     <g transform="translate(458.819014 378.095659)scale(0.09 -0.09)">
      <use xlink:href="#DejaVuSans-53"/>
      <use xlink:href="#DejaVuSans-74" x="63.476562"/>
      <use xlink:href="#DejaVuSans-65" x="102.685547"/>
      <use xlink:href="#DejaVuSans-76" x="164.208984"/>
      <use xlink:href="#DejaVuSans-65" x="223.388672"/>
      <use xlink:href="#DejaVuSans-20" x="284.912109"/>
      <use xlink:href="#DejaVuSans-43" x="316.699219"/>
      <use xlink:href="#DejaVuSans-61" x="386.523438"/>
      <use xlink:href="#DejaVuSans-72" x="447.802734"/>
      <use xlink:href="#DejaVuSans-72" x="487.166016"/>
     </g>
    </g>
   </g>
   <g id="text_16">
    <!-- Impactful directors for Romance Film genre -->
    <g transform="translate(158.0625 4.8)scale(0.12 -0.12)">
     <defs>
      <path id="DejaVuSans-49" d="M 628 4666 
L 1259 4666 
L 1259 0 
L 628 0 
L 628 4666 
z
" transform="scale(0.015625)"/>
     </defs>
     <use xlink:href="#DejaVuSans-49"/>
     <use xlink:href="#DejaVuSans-6d" x="29.492188"/>
     <use xlink:href="#DejaVuSans-70" x="126.904297"/>
     <use xlink:href="#DejaVuSans-61" x="190.380859"/>
     <use xlink:href="#DejaVuSans-63" x="251.660156"/>
     <use xlink:href="#DejaVuSans-74" x="306.640625"/>
     <use xlink:href="#DejaVuSans-66" x="345.849609"/>
     <use xlink:href="#DejaVuSans-75" x="381.054688"/>
     <use xlink:href="#DejaVuSans-6c" x="444.433594"/>
     <use xlink:href="#DejaVuSans-20" x="472.216797"/>
     <use xlink:href="#DejaVuSans-64" x="504.003906"/>
     <use xlink:href="#DejaVuSans-69" x="567.480469"/>
     <use xlink:href="#DejaVuSans-72" x="595.263672"/>
     <use xlink:href="#DejaVuSans-65" x="634.126953"/>
     <use xlink:href="#DejaVuSans-63" x="695.650391"/>
     <use xlink:href="#DejaVuSans-74" x="750.630859"/>
     <use xlink:href="#DejaVuSans-6f" x="789.839844"/>
     <use xlink:href="#DejaVuSans-72" x="851.021484"/>
     <use xlink:href="#DejaVuSans-73" x="892.134766"/>
     <use xlink:href="#DejaVuSans-20" x="944.234375"/>
     <use xlink:href="#DejaVuSans-66" x="976.021484"/>
     <use xlink:href="#DejaVuSans-6f" x="1011.226562"/>
     <use xlink:href="#DejaVuSans-72" x="1072.408203"/>
     <use xlink:href="#DejaVuSans-20" x="1113.521484"/>
     <use xlink:href="#DejaVuSans-52" x="1145.308594"/>
     <use xlink:href="#DejaVuSans-6f" x="1210.291016"/>
     <use xlink:href="#DejaVuSans-6d" x="1271.472656"/>
     <use xlink:href="#DejaVuSans-61" x="1368.884766"/>
     <use xlink:href="#DejaVuSans-6e" x="1430.164062"/>
     <use xlink:href="#DejaVuSans-63" x="1493.542969"/>
     <use xlink:href="#DejaVuSans-65" x="1548.523438"/>
     <use xlink:href="#DejaVuSans-20" x="1610.046875"/>
     <use xlink:href="#DejaVuSans-46" x="1641.833984"/>
     <use xlink:href="#DejaVuSans-69" x="1692.103516"/>
     <use xlink:href="#DejaVuSans-6c" x="1719.886719"/>
     <use xlink:href="#DejaVuSans-6d" x="1747.669922"/>
     <use xlink:href="#DejaVuSans-20" x="1845.082031"/>
     <use xlink:href="#DejaVuSans-67" x="1876.869141"/>
     <use xlink:href="#DejaVuSans-65" x="1940.345703"/>
     <use xlink:href="#DejaVuSans-6e" x="2001.869141"/>
     <use xlink:href="#DejaVuSans-72" x="2065.248047"/>
     <use xlink:href="#DejaVuSans-65" x="2104.111328"/>
    </g>
   </g>
  </g>
 </g>
 <defs>
  <clipPath id="pfe5d4162ca">
   <rect x="10.8" y="10.8" width="554.4" height="554.4"/>
  </clipPath>
 </defs>
</svg>
