<?xml version="1.0" encoding="utf-8" standalone="no"?>
<!DOCTYPE svg PUBLIC "-//W3C//DTD SVG 1.1//EN"
  "http://www.w3.org/Graphics/SVG/1.1/DTD/svg11.dtd">
<svg xmlns:xlink="http://www.w3.org/1999/xlink" width="576pt" height="576pt" viewBox="0 0 576 576" xmlns="http://www.w3.org/2000/svg" version="1.1">
 <metadata>
  <rdf:RDF xmlns:dc="http://purl.org/dc/elements/1.1/" xmlns:cc="http://creativecommons.org/ns#" xmlns:rdf="http://www.w3.org/1999/02/22-rdf-syntax-ns#">
   <cc:Work>
    <dc:type rdf:resource="http://purl.org/dc/dcmitype/StillImage"/>
    <dc:date>2022-12-22T19:12:30.521567</dc:date>
    <dc:format>image/svg+xml</dc:format>
    <dc:creator>
     <cc:Agent>
      <dc:title>Matplotlib v3.5.2, https://matplotlib.org/</dc:title>
     </cc:Agent>
    </dc:creator>
   </cc:Work>
  </rdf:RDF>
 </metadata>
 <defs>
  <style type="text/css">*{stroke-linejoin: round; stroke-linecap: butt}</style>
 </defs>
 <g id="figure_1">
  <g id="patch_1">
   <path d="M 0 576 
L 576 576 
L 576 0 
L 0 0 
z
" style="fill: #ffffff"/>
  </g>
  <g id="axes_1">
   <g id="LineCollection_1">
    <path d="M 352.264291 84.543718 
L 263.109549 75.234683 
" clip-path="url(#p1c89e6df1b)" style="fill: none; stroke: #000000; stroke-opacity: 0.3; stroke-width: 5"/>
   </g>
   <g id="PathCollection_1">
    <path d="M 501.230769 315.618854 
C 508.493655 315.618854 515.46005 312.733279 520.595686 307.597643 
C 525.731322 302.462007 528.616897 295.495612 528.616897 288.232726 
C 528.616897 280.96984 525.731322 274.003445 520.595686 268.867809 
C 515.46005 263.732173 508.493655 260.846598 501.230769 260.846598 
C 493.967883 260.846598 487.001488 263.732173 481.865852 268.867809 
C 476.730217 274.003445 473.844641 280.96984 473.844641 288.232726 
C 473.844641 295.495612 476.730217 302.462007 481.865852 307.597643 
C 487.001488 312.733279 493.967883 315.618854 501.230769 315.618854 
z
" clip-path="url(#p1c89e6df1b)" style="fill: #d62728; fill-opacity: 0.99; stroke: #d62728; stroke-opacity: 0.99"/>
    <path d="M 482.592348 226.453586 
C 489.310518 226.453586 495.754435 223.784429 500.504899 219.033965 
C 505.255363 214.283501 507.92452 207.839584 507.92452 201.121414 
C 507.92452 194.403243 505.255363 187.959327 500.504899 183.208863 
C 495.754435 178.458399 489.310518 175.789242 482.592348 175.789242 
C 475.874177 175.789242 469.430261 178.458399 464.679797 183.208863 
C 459.929333 187.959327 457.260176 194.403243 457.260176 201.121414 
C 457.260176 207.839584 459.929333 214.283501 464.679797 219.033965 
C 469.430261 223.784429 475.874177 226.453586 482.592348 226.453586 
z
" clip-path="url(#p1c89e6df1b)" style="fill: #d62728; fill-opacity: 0.99; stroke: #d62728; stroke-opacity: 0.99"/>
    <path d="M 429.89985 153.138513 
C 436.28225 153.138513 442.404102 150.602758 446.917141 146.08972 
C 451.430179 141.576682 453.965933 135.454829 453.965933 129.072429 
C 453.965933 122.690029 451.430179 116.568177 446.917141 112.055138 
C 442.404102 107.5421 436.28225 105.006346 429.89985 105.006346 
C 423.51745 105.006346 417.395597 107.5421 412.882559 112.055138 
C 408.369521 116.568177 405.833766 122.690029 405.833766 129.072429 
C 405.833766 135.454829 408.369521 141.576682 412.882559 146.08972 
C 417.395597 150.602758 423.51745 153.138513 429.89985 153.138513 
z
" clip-path="url(#p1c89e6df1b)" style="fill: #d62728; fill-opacity: 0.99; stroke: #d62728; stroke-opacity: 0.99"/>
    <path d="M 352.264291 107.877549 
C 358.452495 107.877549 364.38808 105.418949 368.763801 101.043228 
C 373.139522 96.667507 375.598122 90.731922 375.598122 84.543718 
C 375.598122 78.355514 373.139522 72.41993 368.763801 68.044208 
C 364.38808 63.668487 358.452495 61.209888 352.264291 61.209888 
C 346.076087 61.209888 340.140503 63.668487 335.764781 68.044208 
C 331.38906 72.41993 328.930461 78.355514 328.930461 84.543718 
C 328.930461 90.731922 331.38906 96.667507 335.764781 101.043228 
C 340.140503 105.418949 346.076087 107.877549 352.264291 107.877549 
z
" clip-path="url(#p1c89e6df1b)" style="fill: #d62728; fill-opacity: 0.99; stroke: #d62728; stroke-opacity: 0.99"/>
    <path d="M 263.109549 98.433355 
C 269.261908 98.433355 275.163112 95.988996 279.513487 91.638621 
C 283.863863 87.288246 286.308221 81.387042 286.308221 75.234683 
C 286.308221 69.082323 283.863863 63.181119 279.513487 58.830744 
C 275.163112 54.480369 269.261908 52.03601 263.109549 52.03601 
C 256.957189 52.03601 251.055985 54.480369 246.70561 58.830744 
C 242.355235 63.181119 239.910876 69.082323 239.910876 75.234683 
C 239.910876 81.387042 242.355235 87.288246 246.70561 91.638621 
C 251.055985 95.988996 256.957189 98.433355 263.109549 98.433355 
z
" clip-path="url(#p1c89e6df1b)" style="fill: #d62728; fill-opacity: 0.99; stroke: #d62728; stroke-opacity: 0.99"/>
    <path d="M 177.851298 124.981254 
C 183.745783 124.981254 189.399638 122.63935 193.567669 118.47132 
C 197.735699 114.30329 200.077602 108.649435 200.077602 102.75495 
C 200.077602 96.860465 197.735699 91.20661 193.567669 87.038579 
C 189.399638 82.870549 183.745783 80.528646 177.851298 80.528646 
C 171.956813 80.528646 166.302958 82.870549 162.134928 87.038579 
C 157.966897 91.20661 155.624994 96.860465 155.624994 102.75495 
C 155.624994 108.649435 157.966897 114.30329 162.134928 118.47132 
C 166.302958 122.63935 171.956813 124.981254 177.851298 124.981254 
z
" clip-path="url(#p1c89e6df1b)" style="fill: #d62728; fill-opacity: 0.99; stroke: #d62728; stroke-opacity: 0.99"/>
    <path d="M 111.231477 184.539408 
C 117.117237 184.539408 122.762725 182.200971 126.924586 178.03911 
C 131.086447 173.877249 133.424885 168.231761 133.424885 162.346001 
C 133.424885 156.46024 131.086447 150.814753 126.924586 146.652892 
C 122.762725 142.491031 117.117237 140.152593 111.231477 140.152593 
C 105.345717 140.152593 99.700229 142.491031 95.538368 146.652892 
C 91.376507 150.814753 89.03807 156.46024 89.03807 162.346001 
C 89.03807 168.231761 91.376507 173.877249 95.538368 178.03911 
C 99.700229 182.200971 105.345717 184.539408 111.231477 184.539408 
z
" clip-path="url(#p1c89e6df1b)" style="fill: #d62728; fill-opacity: 0.99; stroke: #d62728; stroke-opacity: 0.99"/>
    <path d="M 74.769231 265.851057 
C 80.642692 265.851057 86.276381 263.517506 90.429545 259.364342 
C 94.582709 255.211178 96.91626 249.577489 96.91626 243.704028 
C 96.91626 237.830567 94.582709 232.196877 90.429545 228.043713 
C 86.276381 223.890549 80.642692 221.556998 74.769231 221.556998 
C 68.89577 221.556998 63.26208 223.890549 59.108916 228.043713 
C 54.955752 232.196877 52.622201 237.830567 52.622201 243.704028 
C 52.622201 249.577489 54.955752 255.211178 59.108916 259.364342 
C 63.26208 263.517506 68.89577 265.851057 74.769231 265.851057 
z
" clip-path="url(#p1c89e6df1b)" style="fill: #d62728; fill-opacity: 0.99; stroke: #d62728; stroke-opacity: 0.99"/>
    <path d="M 74.769244 354.733255 
C 80.596231 354.733255 86.185345 352.418168 90.305647 348.297866 
C 94.42595 344.177564 96.741036 338.58845 96.741036 332.761462 
C 96.741036 326.934475 94.42595 321.345361 90.305647 317.225059 
C 86.185345 313.104756 80.596231 310.78967 74.769244 310.78967 
C 68.942256 310.78967 63.353142 313.104756 59.23284 317.225059 
C 55.112538 321.345361 52.797451 326.934475 52.797451 332.761462 
C 52.797451 338.58845 55.112538 344.177564 59.23284 348.297866 
C 63.353142 352.418168 68.942256 354.733255 74.769244 354.733255 
z
" clip-path="url(#p1c89e6df1b)" style="fill: #d62728; fill-opacity: 0.99; stroke: #d62728; stroke-opacity: 0.99"/>
    <path d="M 111.23149 435.736654 
C 116.964436 435.736654 122.463347 433.45893 126.517152 429.405125 
C 130.570957 425.351321 132.84868 419.852409 132.84868 414.119464 
C 132.84868 408.386518 130.570957 402.887607 126.517152 398.833802 
C 122.463347 394.779997 116.964436 392.502273 111.23149 392.502273 
C 105.498544 392.502273 99.999633 394.779997 95.945828 398.833802 
C 91.892023 402.887607 89.614299 408.386518 89.614299 414.119464 
C 89.614299 419.852409 91.892023 425.351321 95.945828 429.405125 
C 99.999633 433.45893 105.498544 435.736654 111.23149 435.736654 
z
" clip-path="url(#p1c89e6df1b)" style="fill: #d62728; fill-opacity: 0.99; stroke: #d62728; stroke-opacity: 0.99"/>
    <path d="M 177.85133 494.731262 
C 183.426097 494.731262 188.773287 492.516383 192.715243 488.574427 
C 196.657199 484.632472 198.872077 479.285282 198.872077 473.710515 
C 198.872077 468.135747 196.657199 462.788558 192.715243 458.846602 
C 188.773287 454.904646 183.426097 452.689768 177.85133 452.689768 
C 172.276563 452.689768 166.929373 454.904646 162.987418 458.846602 
C 159.045462 462.788558 156.830583 468.135747 156.830583 473.710515 
C 156.830583 479.285282 159.045462 484.632472 162.987418 488.574427 
C 166.929373 492.516383 172.276563 494.731262 177.85133 494.731262 
z
" clip-path="url(#p1c89e6df1b)" style="fill: #d62728; fill-opacity: 0.99; stroke: #d62728; stroke-opacity: 0.99"/>
    <path d="M 263.109587 520.714567 
C 268.276751 520.714567 273.232976 518.661631 276.886713 515.007895 
C 280.540449 511.354159 282.593385 506.397933 282.593385 501.230769 
C 282.593385 496.063606 280.540449 491.10738 276.886713 487.453644 
C 273.232976 483.799907 268.276751 481.746971 263.109587 481.746971 
C 257.942424 481.746971 252.986198 483.799907 249.332461 487.453644 
C 245.678725 491.10738 243.625789 496.063606 243.625789 501.230769 
C 243.625789 506.397933 245.678725 511.354159 249.332461 515.007895 
C 252.986198 518.661631 257.942424 520.714567 263.109587 520.714567 
z
" clip-path="url(#p1c89e6df1b)" style="fill: #d62728; fill-opacity: 0.99; stroke: #d62728; stroke-opacity: 0.99"/>
    <path d="M 352.264323 511.364108 
C 357.420505 511.364108 362.366196 509.315535 366.012167 505.669564 
C 369.658138 502.023594 371.70671 497.077902 371.70671 491.921721 
C 371.70671 486.765539 369.658138 481.819848 366.012167 478.173877 
C 362.366196 474.527906 357.420505 472.479334 352.264323 472.479334 
C 347.108142 472.479334 342.16245 474.527906 338.51648 478.173877 
C 334.870509 481.819848 332.821936 486.765539 332.821936 491.921721 
C 332.821936 497.077902 334.870509 502.023594 338.51648 505.669564 
C 342.16245 509.315535 347.108142 511.364108 352.264323 511.364108 
z
" clip-path="url(#p1c89e6df1b)" style="fill: #d62728; fill-opacity: 0.99; stroke: #d62728; stroke-opacity: 0.99"/>
    <path d="M 429.899888 466.757901 
C 435.035524 466.757901 439.961509 464.717491 443.592952 461.086048 
C 447.224395 457.454605 449.264805 452.52862 449.264805 447.392984 
C 449.264805 442.257348 447.224395 437.331363 443.592952 433.69992 
C 439.961509 430.068477 435.035524 428.028068 429.899888 428.028068 
C 424.764252 428.028068 419.838267 430.068477 416.206824 433.69992 
C 412.575381 437.331363 410.534972 442.257348 410.534972 447.392984 
C 410.534972 452.52862 412.575381 457.454605 416.206824 461.086048 
C 419.838267 464.717491 424.764252 466.757901 429.899888 466.757901 
z
" clip-path="url(#p1c89e6df1b)" style="fill: #d62728; fill-opacity: 0.99; stroke: #d62728; stroke-opacity: 0.99"/>
    <path d="M 482.592374 394.708923 
C 487.728009 394.708923 492.653994 392.668513 496.285437 389.03707 
C 499.91688 385.405627 501.95729 380.479642 501.95729 375.344006 
C 501.95729 370.20837 499.91688 365.282385 496.285437 361.650942 
C 492.653994 358.019499 487.728009 355.979089 482.592374 355.979089 
C 477.456738 355.979089 472.530753 358.019499 468.89931 361.650942 
C 465.267867 365.282385 463.227457 370.20837 463.227457 375.344006 
C 463.227457 380.479642 465.267867 385.405627 468.89931 389.03707 
C 472.530753 392.668513 477.456738 394.708923 482.592374 394.708923 
z
" clip-path="url(#p1c89e6df1b)" style="fill: #d62728; fill-opacity: 0.99; stroke: #d62728; stroke-opacity: 0.99"/>
   </g>
   <g id="text_1">
    <g id="patch_2">
     <path d="M 472.015222 296.547882 
L 530.446316 296.547882 
L 530.446316 279.91757 
L 472.015222 279.91757 
z
" clip-path="url(#p1c89e6df1b)" style="fill: #ffffff; opacity: 0.7; stroke: #000000; stroke-linejoin: miter"/>
    </g>
    <g clip-path="url(#p1c89e6df1b)">
     <!-- Billy Wilder -->
     <g transform="translate(475.975222 290.716163)scale(0.09 -0.09)">
      <defs>
       <path id="DejaVuSans-42" d="M 1259 2228 
L 1259 519 
L 2272 519 
Q 2781 519 3026 730 
Q 3272 941 3272 1375 
Q 3272 1813 3026 2020 
Q 2781 2228 2272 2228 
L 1259 2228 
z
M 1259 4147 
L 1259 2741 
L 2194 2741 
Q 2656 2741 2882 2914 
Q 3109 3088 3109 3444 
Q 3109 3797 2882 3972 
Q 2656 4147 2194 4147 
L 1259 4147 
z
M 628 4666 
L 2241 4666 
Q 2963 4666 3353 4366 
Q 3744 4066 3744 3513 
Q 3744 3084 3544 2831 
Q 3344 2578 2956 2516 
Q 3422 2416 3680 2098 
Q 3938 1781 3938 1306 
Q 3938 681 3513 340 
Q 3088 0 2303 0 
L 628 0 
L 628 4666 
z
" transform="scale(0.015625)"/>
       <path id="DejaVuSans-69" d="M 603 3500 
L 1178 3500 
L 1178 0 
L 603 0 
L 603 3500 
z
M 603 4863 
L 1178 4863 
L 1178 4134 
L 603 4134 
L 603 4863 
z
" transform="scale(0.015625)"/>
       <path id="DejaVuSans-6c" d="M 603 4863 
L 1178 4863 
L 1178 0 
L 603 0 
L 603 4863 
z
" transform="scale(0.015625)"/>
       <path id="DejaVuSans-79" d="M 2059 -325 
Q 1816 -950 1584 -1140 
Q 1353 -1331 966 -1331 
L 506 -1331 
L 506 -850 
L 844 -850 
Q 1081 -850 1212 -737 
Q 1344 -625 1503 -206 
L 1606 56 
L 191 3500 
L 800 3500 
L 1894 763 
L 2988 3500 
L 3597 3500 
L 2059 -325 
z
" transform="scale(0.015625)"/>
       <path id="DejaVuSans-20" transform="scale(0.015625)"/>
       <path id="DejaVuSans-57" d="M 213 4666 
L 850 4666 
L 1831 722 
L 2809 4666 
L 3519 4666 
L 4500 722 
L 5478 4666 
L 6119 4666 
L 4947 0 
L 4153 0 
L 3169 4050 
L 2175 0 
L 1381 0 
L 213 4666 
z
" transform="scale(0.015625)"/>
       <path id="DejaVuSans-64" d="M 2906 2969 
L 2906 4863 
L 3481 4863 
L 3481 0 
L 2906 0 
L 2906 525 
Q 2725 213 2448 61 
Q 2172 -91 1784 -91 
Q 1150 -91 751 415 
Q 353 922 353 1747 
Q 353 2572 751 3078 
Q 1150 3584 1784 3584 
Q 2172 3584 2448 3432 
Q 2725 3281 2906 2969 
z
M 947 1747 
Q 947 1113 1208 752 
Q 1469 391 1925 391 
Q 2381 391 2643 752 
Q 2906 1113 2906 1747 
Q 2906 2381 2643 2742 
Q 2381 3103 1925 3103 
Q 1469 3103 1208 2742 
Q 947 2381 947 1747 
z
" transform="scale(0.015625)"/>
       <path id="DejaVuSans-65" d="M 3597 1894 
L 3597 1613 
L 953 1613 
Q 991 1019 1311 708 
Q 1631 397 2203 397 
Q 2534 397 2845 478 
Q 3156 559 3463 722 
L 3463 178 
Q 3153 47 2828 -22 
Q 2503 -91 2169 -91 
Q 1331 -91 842 396 
Q 353 884 353 1716 
Q 353 2575 817 3079 
Q 1281 3584 2069 3584 
Q 2775 3584 3186 3129 
Q 3597 2675 3597 1894 
z
M 3022 2063 
Q 3016 2534 2758 2815 
Q 2500 3097 2075 3097 
Q 1594 3097 1305 2825 
Q 1016 2553 972 2059 
L 3022 2063 
z
" transform="scale(0.015625)"/>
       <path id="DejaVuSans-72" d="M 2631 2963 
Q 2534 3019 2420 3045 
Q 2306 3072 2169 3072 
Q 1681 3072 1420 2755 
Q 1159 2438 1159 1844 
L 1159 0 
L 581 0 
L 581 3500 
L 1159 3500 
L 1159 2956 
Q 1341 3275 1631 3429 
Q 1922 3584 2338 3584 
Q 2397 3584 2469 3576 
Q 2541 3569 2628 3553 
L 2631 2963 
z
" transform="scale(0.015625)"/>
      </defs>
      <use xlink:href="#DejaVuSans-42"/>
      <use xlink:href="#DejaVuSans-69" x="68.603516"/>
      <use xlink:href="#DejaVuSans-6c" x="96.386719"/>
      <use xlink:href="#DejaVuSans-6c" x="124.169922"/>
      <use xlink:href="#DejaVuSans-79" x="151.953125"/>
      <use xlink:href="#DejaVuSans-20" x="211.132812"/>
      <use xlink:href="#DejaVuSans-57" x="242.919922"/>
      <use xlink:href="#DejaVuSans-69" x="339.546875"/>
      <use xlink:href="#DejaVuSans-6c" x="367.330078"/>
      <use xlink:href="#DejaVuSans-64" x="395.113281"/>
      <use xlink:href="#DejaVuSans-65" x="458.589844"/>
      <use xlink:href="#DejaVuSans-72" x="520.113281"/>
     </g>
    </g>
   </g>
   <g id="text_2">
    <g id="patch_3">
     <path d="M 435.336723 209.43657 
L 529.847973 209.43657 
L 529.847973 192.806258 
L 435.336723 192.806258 
z
" clip-path="url(#p1c89e6df1b)" style="fill: #ffffff; opacity: 0.7; stroke: #000000; stroke-linejoin: miter"/>
    </g>
    <g clip-path="url(#p1c89e6df1b)">
     <!-- Steven Soderbergh -->
     <g transform="translate(439.296723 203.604851)scale(0.09 -0.09)">
      <defs>
       <path id="DejaVuSans-53" d="M 3425 4513 
L 3425 3897 
Q 3066 4069 2747 4153 
Q 2428 4238 2131 4238 
Q 1616 4238 1336 4038 
Q 1056 3838 1056 3469 
Q 1056 3159 1242 3001 
Q 1428 2844 1947 2747 
L 2328 2669 
Q 3034 2534 3370 2195 
Q 3706 1856 3706 1288 
Q 3706 609 3251 259 
Q 2797 -91 1919 -91 
Q 1588 -91 1214 -16 
Q 841 59 441 206 
L 441 856 
Q 825 641 1194 531 
Q 1563 422 1919 422 
Q 2459 422 2753 634 
Q 3047 847 3047 1241 
Q 3047 1584 2836 1778 
Q 2625 1972 2144 2069 
L 1759 2144 
Q 1053 2284 737 2584 
Q 422 2884 422 3419 
Q 422 4038 858 4394 
Q 1294 4750 2059 4750 
Q 2388 4750 2728 4690 
Q 3069 4631 3425 4513 
z
" transform="scale(0.015625)"/>
       <path id="DejaVuSans-74" d="M 1172 4494 
L 1172 3500 
L 2356 3500 
L 2356 3053 
L 1172 3053 
L 1172 1153 
Q 1172 725 1289 603 
Q 1406 481 1766 481 
L 2356 481 
L 2356 0 
L 1766 0 
Q 1100 0 847 248 
Q 594 497 594 1153 
L 594 3053 
L 172 3053 
L 172 3500 
L 594 3500 
L 594 4494 
L 1172 4494 
z
" transform="scale(0.015625)"/>
       <path id="DejaVuSans-76" d="M 191 3500 
L 800 3500 
L 1894 563 
L 2988 3500 
L 3597 3500 
L 2284 0 
L 1503 0 
L 191 3500 
z
" transform="scale(0.015625)"/>
       <path id="DejaVuSans-6e" d="M 3513 2113 
L 3513 0 
L 2938 0 
L 2938 2094 
Q 2938 2591 2744 2837 
Q 2550 3084 2163 3084 
Q 1697 3084 1428 2787 
Q 1159 2491 1159 1978 
L 1159 0 
L 581 0 
L 581 3500 
L 1159 3500 
L 1159 2956 
Q 1366 3272 1645 3428 
Q 1925 3584 2291 3584 
Q 2894 3584 3203 3211 
Q 3513 2838 3513 2113 
z
" transform="scale(0.015625)"/>
       <path id="DejaVuSans-6f" d="M 1959 3097 
Q 1497 3097 1228 2736 
Q 959 2375 959 1747 
Q 959 1119 1226 758 
Q 1494 397 1959 397 
Q 2419 397 2687 759 
Q 2956 1122 2956 1747 
Q 2956 2369 2687 2733 
Q 2419 3097 1959 3097 
z
M 1959 3584 
Q 2709 3584 3137 3096 
Q 3566 2609 3566 1747 
Q 3566 888 3137 398 
Q 2709 -91 1959 -91 
Q 1206 -91 779 398 
Q 353 888 353 1747 
Q 353 2609 779 3096 
Q 1206 3584 1959 3584 
z
" transform="scale(0.015625)"/>
       <path id="DejaVuSans-62" d="M 3116 1747 
Q 3116 2381 2855 2742 
Q 2594 3103 2138 3103 
Q 1681 3103 1420 2742 
Q 1159 2381 1159 1747 
Q 1159 1113 1420 752 
Q 1681 391 2138 391 
Q 2594 391 2855 752 
Q 3116 1113 3116 1747 
z
M 1159 2969 
Q 1341 3281 1617 3432 
Q 1894 3584 2278 3584 
Q 2916 3584 3314 3078 
Q 3713 2572 3713 1747 
Q 3713 922 3314 415 
Q 2916 -91 2278 -91 
Q 1894 -91 1617 61 
Q 1341 213 1159 525 
L 1159 0 
L 581 0 
L 581 4863 
L 1159 4863 
L 1159 2969 
z
" transform="scale(0.015625)"/>
       <path id="DejaVuSans-67" d="M 2906 1791 
Q 2906 2416 2648 2759 
Q 2391 3103 1925 3103 
Q 1463 3103 1205 2759 
Q 947 2416 947 1791 
Q 947 1169 1205 825 
Q 1463 481 1925 481 
Q 2391 481 2648 825 
Q 2906 1169 2906 1791 
z
M 3481 434 
Q 3481 -459 3084 -895 
Q 2688 -1331 1869 -1331 
Q 1566 -1331 1297 -1286 
Q 1028 -1241 775 -1147 
L 775 -588 
Q 1028 -725 1275 -790 
Q 1522 -856 1778 -856 
Q 2344 -856 2625 -561 
Q 2906 -266 2906 331 
L 2906 616 
Q 2728 306 2450 153 
Q 2172 0 1784 0 
Q 1141 0 747 490 
Q 353 981 353 1791 
Q 353 2603 747 3093 
Q 1141 3584 1784 3584 
Q 2172 3584 2450 3431 
Q 2728 3278 2906 2969 
L 2906 3500 
L 3481 3500 
L 3481 434 
z
" transform="scale(0.015625)"/>
       <path id="DejaVuSans-68" d="M 3513 2113 
L 3513 0 
L 2938 0 
L 2938 2094 
Q 2938 2591 2744 2837 
Q 2550 3084 2163 3084 
Q 1697 3084 1428 2787 
Q 1159 2491 1159 1978 
L 1159 0 
L 581 0 
L 581 4863 
L 1159 4863 
L 1159 2956 
Q 1366 3272 1645 3428 
Q 1925 3584 2291 3584 
Q 2894 3584 3203 3211 
Q 3513 2838 3513 2113 
z
" transform="scale(0.015625)"/>
      </defs>
      <use xlink:href="#DejaVuSans-53"/>
      <use xlink:href="#DejaVuSans-74" x="63.476562"/>
      <use xlink:href="#DejaVuSans-65" x="102.685547"/>
      <use xlink:href="#DejaVuSans-76" x="164.208984"/>
      <use xlink:href="#DejaVuSans-65" x="223.388672"/>
      <use xlink:href="#DejaVuSans-6e" x="284.912109"/>
      <use xlink:href="#DejaVuSans-20" x="348.291016"/>
      <use xlink:href="#DejaVuSans-53" x="380.078125"/>
      <use xlink:href="#DejaVuSans-6f" x="443.554688"/>
      <use xlink:href="#DejaVuSans-64" x="504.736328"/>
      <use xlink:href="#DejaVuSans-65" x="568.212891"/>
      <use xlink:href="#DejaVuSans-72" x="629.736328"/>
      <use xlink:href="#DejaVuSans-62" x="670.849609"/>
      <use xlink:href="#DejaVuSans-65" x="734.326172"/>
      <use xlink:href="#DejaVuSans-72" x="795.849609"/>
      <use xlink:href="#DejaVuSans-67" x="835.212891"/>
      <use xlink:href="#DejaVuSans-68" x="898.689453"/>
     </g>
    </g>
   </g>
   <g id="text_3">
    <g id="patch_4">
     <path d="M 396.030319 137.387585 
L 463.769381 137.387585 
L 463.769381 120.757273 
L 396.030319 120.757273 
z
" clip-path="url(#p1c89e6df1b)" style="fill: #ffffff; opacity: 0.7; stroke: #000000; stroke-linejoin: miter"/>
    </g>
    <g clip-path="url(#p1c89e6df1b)">
     <!-- John Badham -->
     <g transform="translate(399.990319 131.555867)scale(0.09 -0.09)">
      <defs>
       <path id="DejaVuSans-4a" d="M 628 4666 
L 1259 4666 
L 1259 325 
Q 1259 -519 939 -900 
Q 619 -1281 -91 -1281 
L -331 -1281 
L -331 -750 
L -134 -750 
Q 284 -750 456 -515 
Q 628 -281 628 325 
L 628 4666 
z
" transform="scale(0.015625)"/>
       <path id="DejaVuSans-61" d="M 2194 1759 
Q 1497 1759 1228 1600 
Q 959 1441 959 1056 
Q 959 750 1161 570 
Q 1363 391 1709 391 
Q 2188 391 2477 730 
Q 2766 1069 2766 1631 
L 2766 1759 
L 2194 1759 
z
M 3341 1997 
L 3341 0 
L 2766 0 
L 2766 531 
Q 2569 213 2275 61 
Q 1981 -91 1556 -91 
Q 1019 -91 701 211 
Q 384 513 384 1019 
Q 384 1609 779 1909 
Q 1175 2209 1959 2209 
L 2766 2209 
L 2766 2266 
Q 2766 2663 2505 2880 
Q 2244 3097 1772 3097 
Q 1472 3097 1187 3025 
Q 903 2953 641 2809 
L 641 3341 
Q 956 3463 1253 3523 
Q 1550 3584 1831 3584 
Q 2591 3584 2966 3190 
Q 3341 2797 3341 1997 
z
" transform="scale(0.015625)"/>
       <path id="DejaVuSans-6d" d="M 3328 2828 
Q 3544 3216 3844 3400 
Q 4144 3584 4550 3584 
Q 5097 3584 5394 3201 
Q 5691 2819 5691 2113 
L 5691 0 
L 5113 0 
L 5113 2094 
Q 5113 2597 4934 2840 
Q 4756 3084 4391 3084 
Q 3944 3084 3684 2787 
Q 3425 2491 3425 1978 
L 3425 0 
L 2847 0 
L 2847 2094 
Q 2847 2600 2669 2842 
Q 2491 3084 2119 3084 
Q 1678 3084 1418 2786 
Q 1159 2488 1159 1978 
L 1159 0 
L 581 0 
L 581 3500 
L 1159 3500 
L 1159 2956 
Q 1356 3278 1631 3431 
Q 1906 3584 2284 3584 
Q 2666 3584 2933 3390 
Q 3200 3197 3328 2828 
z
" transform="scale(0.015625)"/>
      </defs>
      <use xlink:href="#DejaVuSans-4a"/>
      <use xlink:href="#DejaVuSans-6f" x="29.492188"/>
      <use xlink:href="#DejaVuSans-68" x="90.673828"/>
      <use xlink:href="#DejaVuSans-6e" x="154.052734"/>
      <use xlink:href="#DejaVuSans-20" x="217.431641"/>
      <use xlink:href="#DejaVuSans-42" x="249.21875"/>
      <use xlink:href="#DejaVuSans-61" x="317.822266"/>
      <use xlink:href="#DejaVuSans-64" x="379.101562"/>
      <use xlink:href="#DejaVuSans-68" x="442.578125"/>
      <use xlink:href="#DejaVuSans-61" x="505.957031"/>
      <use xlink:href="#DejaVuSans-6d" x="567.236328"/>
     </g>
    </g>
   </g>
   <g id="text_4">
    <g id="patch_5">
     <path d="M 314.043119 92.858875 
L 390.485463 92.858875 
L 390.485463 76.228562 
L 314.043119 76.228562 
z
" clip-path="url(#p1c89e6df1b)" style="fill: #ffffff; opacity: 0.7; stroke: #000000; stroke-linejoin: miter"/>
    </g>
    <g clip-path="url(#p1c89e6df1b)">
     <!-- Joseph Barbera -->
     <g transform="translate(318.003119 87.027156)scale(0.09 -0.09)">
      <defs>
       <path id="DejaVuSans-73" d="M 2834 3397 
L 2834 2853 
Q 2591 2978 2328 3040 
Q 2066 3103 1784 3103 
Q 1356 3103 1142 2972 
Q 928 2841 928 2578 
Q 928 2378 1081 2264 
Q 1234 2150 1697 2047 
L 1894 2003 
Q 2506 1872 2764 1633 
Q 3022 1394 3022 966 
Q 3022 478 2636 193 
Q 2250 -91 1575 -91 
Q 1294 -91 989 -36 
Q 684 19 347 128 
L 347 722 
Q 666 556 975 473 
Q 1284 391 1588 391 
Q 1994 391 2212 530 
Q 2431 669 2431 922 
Q 2431 1156 2273 1281 
Q 2116 1406 1581 1522 
L 1381 1569 
Q 847 1681 609 1914 
Q 372 2147 372 2553 
Q 372 3047 722 3315 
Q 1072 3584 1716 3584 
Q 2034 3584 2315 3537 
Q 2597 3491 2834 3397 
z
" transform="scale(0.015625)"/>
       <path id="DejaVuSans-70" d="M 1159 525 
L 1159 -1331 
L 581 -1331 
L 581 3500 
L 1159 3500 
L 1159 2969 
Q 1341 3281 1617 3432 
Q 1894 3584 2278 3584 
Q 2916 3584 3314 3078 
Q 3713 2572 3713 1747 
Q 3713 922 3314 415 
Q 2916 -91 2278 -91 
Q 1894 -91 1617 61 
Q 1341 213 1159 525 
z
M 3116 1747 
Q 3116 2381 2855 2742 
Q 2594 3103 2138 3103 
Q 1681 3103 1420 2742 
Q 1159 2381 1159 1747 
Q 1159 1113 1420 752 
Q 1681 391 2138 391 
Q 2594 391 2855 752 
Q 3116 1113 3116 1747 
z
" transform="scale(0.015625)"/>
      </defs>
      <use xlink:href="#DejaVuSans-4a"/>
      <use xlink:href="#DejaVuSans-6f" x="29.492188"/>
      <use xlink:href="#DejaVuSans-73" x="90.673828"/>
      <use xlink:href="#DejaVuSans-65" x="142.773438"/>
      <use xlink:href="#DejaVuSans-70" x="204.296875"/>
      <use xlink:href="#DejaVuSans-68" x="267.773438"/>
      <use xlink:href="#DejaVuSans-20" x="331.152344"/>
      <use xlink:href="#DejaVuSans-42" x="362.939453"/>
      <use xlink:href="#DejaVuSans-61" x="431.542969"/>
      <use xlink:href="#DejaVuSans-72" x="492.822266"/>
      <use xlink:href="#DejaVuSans-62" x="533.935547"/>
      <use xlink:href="#DejaVuSans-65" x="597.412109"/>
      <use xlink:href="#DejaVuSans-72" x="658.935547"/>
      <use xlink:href="#DejaVuSans-61" x="700.048828"/>
     </g>
    </g>
   </g>
   <g id="text_5">
    <g id="patch_6">
     <path d="M 226.626502 83.549839 
L 299.592595 83.549839 
L 299.592595 66.919526 
L 226.626502 66.919526 
z
" clip-path="url(#p1c89e6df1b)" style="fill: #ffffff; opacity: 0.7; stroke: #000000; stroke-linejoin: miter"/>
    </g>
    <g clip-path="url(#p1c89e6df1b)">
     <!-- William Hanna -->
     <g transform="translate(230.586502 77.71812)scale(0.09 -0.09)">
      <defs>
       <path id="DejaVuSans-48" d="M 628 4666 
L 1259 4666 
L 1259 2753 
L 3553 2753 
L 3553 4666 
L 4184 4666 
L 4184 0 
L 3553 0 
L 3553 2222 
L 1259 2222 
L 1259 0 
L 628 0 
L 628 4666 
z
" transform="scale(0.015625)"/>
      </defs>
      <use xlink:href="#DejaVuSans-57"/>
      <use xlink:href="#DejaVuSans-69" x="96.626953"/>
      <use xlink:href="#DejaVuSans-6c" x="124.410156"/>
      <use xlink:href="#DejaVuSans-6c" x="152.193359"/>
      <use xlink:href="#DejaVuSans-69" x="179.976562"/>
      <use xlink:href="#DejaVuSans-61" x="207.759766"/>
      <use xlink:href="#DejaVuSans-6d" x="269.039062"/>
      <use xlink:href="#DejaVuSans-20" x="366.451172"/>
      <use xlink:href="#DejaVuSans-48" x="398.238281"/>
      <use xlink:href="#DejaVuSans-61" x="473.433594"/>
      <use xlink:href="#DejaVuSans-6e" x="534.712891"/>
      <use xlink:href="#DejaVuSans-6e" x="598.091797"/>
      <use xlink:href="#DejaVuSans-61" x="661.470703"/>
     </g>
    </g>
   </g>
   <g id="text_6">
    <g id="patch_7">
     <path d="M 150.791532 111.070106 
L 204.911064 111.070106 
L 204.911064 94.439794 
L 150.791532 94.439794 
z
" clip-path="url(#p1c89e6df1b)" style="fill: #ffffff; opacity: 0.7; stroke: #000000; stroke-linejoin: miter"/>
    </g>
    <g clip-path="url(#p1c89e6df1b)">
     <!-- Joe Wright -->
     <g transform="translate(154.751532 105.238387)scale(0.09 -0.09)">
      <use xlink:href="#DejaVuSans-4a"/>
      <use xlink:href="#DejaVuSans-6f" x="29.492188"/>
      <use xlink:href="#DejaVuSans-65" x="90.673828"/>
      <use xlink:href="#DejaVuSans-20" x="152.197266"/>
      <use xlink:href="#DejaVuSans-57" x="183.984375"/>
      <use xlink:href="#DejaVuSans-72" x="278.361328"/>
      <use xlink:href="#DejaVuSans-69" x="319.474609"/>
      <use xlink:href="#DejaVuSans-67" x="347.257812"/>
      <use xlink:href="#DejaVuSans-68" x="410.734375"/>
      <use xlink:href="#DejaVuSans-74" x="474.113281"/>
     </g>
    </g>
   </g>
   <g id="text_7">
    <g id="patch_8">
     <path d="M 68.257883 170.661157 
L 154.205071 170.661157 
L 154.205071 154.030845 
L 68.257883 154.030845 
z
" clip-path="url(#p1c89e6df1b)" style="fill: #ffffff; opacity: 0.7; stroke: #000000; stroke-linejoin: miter"/>
    </g>
    <g clip-path="url(#p1c89e6df1b)">
     <!-- Darren Aronofsky -->
     <g transform="translate(72.217883 164.829438)scale(0.09 -0.09)">
      <defs>
       <path id="DejaVuSans-44" d="M 1259 4147 
L 1259 519 
L 2022 519 
Q 2988 519 3436 956 
Q 3884 1394 3884 2338 
Q 3884 3275 3436 3711 
Q 2988 4147 2022 4147 
L 1259 4147 
z
M 628 4666 
L 1925 4666 
Q 3281 4666 3915 4102 
Q 4550 3538 4550 2338 
Q 4550 1131 3912 565 
Q 3275 0 1925 0 
L 628 0 
L 628 4666 
z
" transform="scale(0.015625)"/>
       <path id="DejaVuSans-41" d="M 2188 4044 
L 1331 1722 
L 3047 1722 
L 2188 4044 
z
M 1831 4666 
L 2547 4666 
L 4325 0 
L 3669 0 
L 3244 1197 
L 1141 1197 
L 716 0 
L 50 0 
L 1831 4666 
z
" transform="scale(0.015625)"/>
       <path id="DejaVuSans-66" d="M 2375 4863 
L 2375 4384 
L 1825 4384 
Q 1516 4384 1395 4259 
Q 1275 4134 1275 3809 
L 1275 3500 
L 2222 3500 
L 2222 3053 
L 1275 3053 
L 1275 0 
L 697 0 
L 697 3053 
L 147 3053 
L 147 3500 
L 697 3500 
L 697 3744 
Q 697 4328 969 4595 
Q 1241 4863 1831 4863 
L 2375 4863 
z
" transform="scale(0.015625)"/>
       <path id="DejaVuSans-6b" d="M 581 4863 
L 1159 4863 
L 1159 1991 
L 2875 3500 
L 3609 3500 
L 1753 1863 
L 3688 0 
L 2938 0 
L 1159 1709 
L 1159 0 
L 581 0 
L 581 4863 
z
" transform="scale(0.015625)"/>
      </defs>
      <use xlink:href="#DejaVuSans-44"/>
      <use xlink:href="#DejaVuSans-61" x="77.001953"/>
      <use xlink:href="#DejaVuSans-72" x="138.28125"/>
      <use xlink:href="#DejaVuSans-72" x="177.644531"/>
      <use xlink:href="#DejaVuSans-65" x="216.507812"/>
      <use xlink:href="#DejaVuSans-6e" x="278.03125"/>
      <use xlink:href="#DejaVuSans-20" x="341.410156"/>
      <use xlink:href="#DejaVuSans-41" x="373.197266"/>
      <use xlink:href="#DejaVuSans-72" x="441.605469"/>
      <use xlink:href="#DejaVuSans-6f" x="480.46875"/>
      <use xlink:href="#DejaVuSans-6e" x="541.650391"/>
      <use xlink:href="#DejaVuSans-6f" x="605.029297"/>
      <use xlink:href="#DejaVuSans-66" x="666.210938"/>
      <use xlink:href="#DejaVuSans-73" x="701.416016"/>
      <use xlink:href="#DejaVuSans-6b" x="753.515625"/>
      <use xlink:href="#DejaVuSans-79" x="807.800781"/>
     </g>
    </g>
   </g>
   <g id="text_8">
    <g id="patch_9">
     <path d="M 35.851262 252.019184 
L 113.6872 252.019184 
L 113.6872 235.388871 
L 35.851262 235.388871 
z
" clip-path="url(#p1c89e6df1b)" style="fill: #ffffff; opacity: 0.7; stroke: #000000; stroke-linejoin: miter"/>
    </g>
    <g clip-path="url(#p1c89e6df1b)">
     <!-- Stanley Kubrick -->
     <g transform="translate(39.811262 246.187465)scale(0.09 -0.09)">
      <defs>
       <path id="DejaVuSans-4b" d="M 628 4666 
L 1259 4666 
L 1259 2694 
L 3353 4666 
L 4166 4666 
L 1850 2491 
L 4331 0 
L 3500 0 
L 1259 2247 
L 1259 0 
L 628 0 
L 628 4666 
z
" transform="scale(0.015625)"/>
       <path id="DejaVuSans-75" d="M 544 1381 
L 544 3500 
L 1119 3500 
L 1119 1403 
Q 1119 906 1312 657 
Q 1506 409 1894 409 
Q 2359 409 2629 706 
Q 2900 1003 2900 1516 
L 2900 3500 
L 3475 3500 
L 3475 0 
L 2900 0 
L 2900 538 
Q 2691 219 2414 64 
Q 2138 -91 1772 -91 
Q 1169 -91 856 284 
Q 544 659 544 1381 
z
M 1991 3584 
L 1991 3584 
z
" transform="scale(0.015625)"/>
       <path id="DejaVuSans-63" d="M 3122 3366 
L 3122 2828 
Q 2878 2963 2633 3030 
Q 2388 3097 2138 3097 
Q 1578 3097 1268 2742 
Q 959 2388 959 1747 
Q 959 1106 1268 751 
Q 1578 397 2138 397 
Q 2388 397 2633 464 
Q 2878 531 3122 666 
L 3122 134 
Q 2881 22 2623 -34 
Q 2366 -91 2075 -91 
Q 1284 -91 818 406 
Q 353 903 353 1747 
Q 353 2603 823 3093 
Q 1294 3584 2113 3584 
Q 2378 3584 2631 3529 
Q 2884 3475 3122 3366 
z
" transform="scale(0.015625)"/>
      </defs>
      <use xlink:href="#DejaVuSans-53"/>
      <use xlink:href="#DejaVuSans-74" x="63.476562"/>
      <use xlink:href="#DejaVuSans-61" x="102.685547"/>
      <use xlink:href="#DejaVuSans-6e" x="163.964844"/>
      <use xlink:href="#DejaVuSans-6c" x="227.34375"/>
      <use xlink:href="#DejaVuSans-65" x="255.126953"/>
      <use xlink:href="#DejaVuSans-79" x="316.650391"/>
      <use xlink:href="#DejaVuSans-20" x="375.830078"/>
      <use xlink:href="#DejaVuSans-4b" x="407.617188"/>
      <use xlink:href="#DejaVuSans-75" x="468.193359"/>
      <use xlink:href="#DejaVuSans-62" x="531.572266"/>
      <use xlink:href="#DejaVuSans-72" x="595.048828"/>
      <use xlink:href="#DejaVuSans-69" x="636.162109"/>
      <use xlink:href="#DejaVuSans-63" x="663.945312"/>
      <use xlink:href="#DejaVuSans-6b" x="718.925781"/>
     </g>
    </g>
   </g>
   <g id="text_9">
    <g id="patch_10">
     <path d="M 19.647759 341.076619 
L 129.890728 341.076619 
L 129.890728 324.446306 
L 19.647759 324.446306 
z
" clip-path="url(#p1c89e6df1b)" style="fill: #ffffff; opacity: 0.7; stroke: #000000; stroke-linejoin: miter"/>
    </g>
    <g clip-path="url(#p1c89e6df1b)">
     <!-- A. Kodandarami Reddy -->
     <g transform="translate(23.607759 335.2449)scale(0.09 -0.09)">
      <defs>
       <path id="DejaVuSans-2e" d="M 684 794 
L 1344 794 
L 1344 0 
L 684 0 
L 684 794 
z
" transform="scale(0.015625)"/>
       <path id="DejaVuSans-52" d="M 2841 2188 
Q 3044 2119 3236 1894 
Q 3428 1669 3622 1275 
L 4263 0 
L 3584 0 
L 2988 1197 
Q 2756 1666 2539 1819 
Q 2322 1972 1947 1972 
L 1259 1972 
L 1259 0 
L 628 0 
L 628 4666 
L 2053 4666 
Q 2853 4666 3247 4331 
Q 3641 3997 3641 3322 
Q 3641 2881 3436 2590 
Q 3231 2300 2841 2188 
z
M 1259 4147 
L 1259 2491 
L 2053 2491 
Q 2509 2491 2742 2702 
Q 2975 2913 2975 3322 
Q 2975 3731 2742 3939 
Q 2509 4147 2053 4147 
L 1259 4147 
z
" transform="scale(0.015625)"/>
      </defs>
      <use xlink:href="#DejaVuSans-41"/>
      <use xlink:href="#DejaVuSans-2e" x="66.658203"/>
      <use xlink:href="#DejaVuSans-20" x="98.445312"/>
      <use xlink:href="#DejaVuSans-4b" x="130.232422"/>
      <use xlink:href="#DejaVuSans-6f" x="190.808594"/>
      <use xlink:href="#DejaVuSans-64" x="251.990234"/>
      <use xlink:href="#DejaVuSans-61" x="315.466797"/>
      <use xlink:href="#DejaVuSans-6e" x="376.746094"/>
      <use xlink:href="#DejaVuSans-64" x="440.125"/>
      <use xlink:href="#DejaVuSans-61" x="503.601562"/>
      <use xlink:href="#DejaVuSans-72" x="564.880859"/>
      <use xlink:href="#DejaVuSans-61" x="605.994141"/>
      <use xlink:href="#DejaVuSans-6d" x="667.273438"/>
      <use xlink:href="#DejaVuSans-69" x="764.685547"/>
      <use xlink:href="#DejaVuSans-20" x="792.46875"/>
      <use xlink:href="#DejaVuSans-52" x="824.255859"/>
      <use xlink:href="#DejaVuSans-65" x="889.238281"/>
      <use xlink:href="#DejaVuSans-64" x="950.761719"/>
      <use xlink:href="#DejaVuSans-64" x="1014.238281"/>
      <use xlink:href="#DejaVuSans-79" x="1077.714844"/>
     </g>
    </g>
   </g>
   <g id="text_10">
    <g id="patch_11">
     <path d="M 79.24774 422.43462 
L 143.21524 422.43462 
L 143.21524 405.804307 
L 79.24774 405.804307 
z
" clip-path="url(#p1c89e6df1b)" style="fill: #ffffff; opacity: 0.7; stroke: #000000; stroke-linejoin: miter"/>
    </g>
    <g clip-path="url(#p1c89e6df1b)">
     <!-- Breck Eisner -->
     <g transform="translate(83.20774 416.602901)scale(0.09 -0.09)">
      <defs>
       <path id="DejaVuSans-45" d="M 628 4666 
L 3578 4666 
L 3578 4134 
L 1259 4134 
L 1259 2753 
L 3481 2753 
L 3481 2222 
L 1259 2222 
L 1259 531 
L 3634 531 
L 3634 0 
L 628 0 
L 628 4666 
z
" transform="scale(0.015625)"/>
      </defs>
      <use xlink:href="#DejaVuSans-42"/>
      <use xlink:href="#DejaVuSans-72" x="68.603516"/>
      <use xlink:href="#DejaVuSans-65" x="107.466797"/>
      <use xlink:href="#DejaVuSans-63" x="168.990234"/>
      <use xlink:href="#DejaVuSans-6b" x="223.970703"/>
      <use xlink:href="#DejaVuSans-20" x="281.880859"/>
      <use xlink:href="#DejaVuSans-45" x="313.667969"/>
      <use xlink:href="#DejaVuSans-69" x="376.851562"/>
      <use xlink:href="#DejaVuSans-73" x="404.634766"/>
      <use xlink:href="#DejaVuSans-6e" x="456.734375"/>
      <use xlink:href="#DejaVuSans-65" x="520.113281"/>
      <use xlink:href="#DejaVuSans-72" x="581.636719"/>
     </g>
    </g>
   </g>
   <g id="text_11">
    <g id="patch_12">
     <path d="M 153.040158 482.025671 
L 202.662502 482.025671 
L 202.662502 465.395358 
L 153.040158 465.395358 
z
" clip-path="url(#p1c89e6df1b)" style="fill: #ffffff; opacity: 0.7; stroke: #000000; stroke-linejoin: miter"/>
    </g>
    <g clip-path="url(#p1c89e6df1b)">
     <!-- Nick Park -->
     <g transform="translate(157.000158 476.193952)scale(0.09 -0.09)">
      <defs>
       <path id="DejaVuSans-4e" d="M 628 4666 
L 1478 4666 
L 3547 763 
L 3547 4666 
L 4159 4666 
L 4159 0 
L 3309 0 
L 1241 3903 
L 1241 0 
L 628 0 
L 628 4666 
z
" transform="scale(0.015625)"/>
       <path id="DejaVuSans-50" d="M 1259 4147 
L 1259 2394 
L 2053 2394 
Q 2494 2394 2734 2622 
Q 2975 2850 2975 3272 
Q 2975 3691 2734 3919 
Q 2494 4147 2053 4147 
L 1259 4147 
z
M 628 4666 
L 2053 4666 
Q 2838 4666 3239 4311 
Q 3641 3956 3641 3272 
Q 3641 2581 3239 2228 
Q 2838 1875 2053 1875 
L 1259 1875 
L 1259 0 
L 628 0 
L 628 4666 
z
" transform="scale(0.015625)"/>
      </defs>
      <use xlink:href="#DejaVuSans-4e"/>
      <use xlink:href="#DejaVuSans-69" x="74.804688"/>
      <use xlink:href="#DejaVuSans-63" x="102.587891"/>
      <use xlink:href="#DejaVuSans-6b" x="157.568359"/>
      <use xlink:href="#DejaVuSans-20" x="215.478516"/>
      <use xlink:href="#DejaVuSans-50" x="247.265625"/>
      <use xlink:href="#DejaVuSans-61" x="303.068359"/>
      <use xlink:href="#DejaVuSans-72" x="364.347656"/>
      <use xlink:href="#DejaVuSans-6b" x="405.460938"/>
     </g>
    </g>
   </g>
   <g id="text_12">
    <g id="patch_13">
     <path d="M 242.634587 509.545925 
L 283.584587 509.545925 
L 283.584587 492.915613 
L 242.634587 492.915613 
z
" clip-path="url(#p1c89e6df1b)" style="fill: #ffffff; opacity: 0.7; stroke: #000000; stroke-linejoin: miter"/>
    </g>
    <g clip-path="url(#p1c89e6df1b)">
     <!-- Priya V. -->
     <g transform="translate(246.594587 503.714207)scale(0.09 -0.09)">
      <defs>
       <path id="DejaVuSans-56" d="M 1831 0 
L 50 4666 
L 709 4666 
L 2188 738 
L 3669 4666 
L 4325 4666 
L 2547 0 
L 1831 0 
z
" transform="scale(0.015625)"/>
      </defs>
      <use xlink:href="#DejaVuSans-50"/>
      <use xlink:href="#DejaVuSans-72" x="58.552734"/>
      <use xlink:href="#DejaVuSans-69" x="99.666016"/>
      <use xlink:href="#DejaVuSans-79" x="127.449219"/>
      <use xlink:href="#DejaVuSans-61" x="186.628906"/>
      <use xlink:href="#DejaVuSans-20" x="247.908203"/>
      <use xlink:href="#DejaVuSans-56" x="279.695312"/>
      <use xlink:href="#DejaVuSans-2e" x="335.228516"/>
     </g>
    </g>
   </g>
   <g id="text_13">
    <g id="patch_14">
     <path d="M 322.116433 500.236877 
L 382.412214 500.236877 
L 382.412214 483.606565 
L 322.116433 483.606565 
z
" clip-path="url(#p1c89e6df1b)" style="fill: #ffffff; opacity: 0.7; stroke: #000000; stroke-linejoin: miter"/>
    </g>
    <g clip-path="url(#p1c89e6df1b)">
     <!-- David Yates -->
     <g transform="translate(326.076433 494.405158)scale(0.09 -0.09)">
      <defs>
       <path id="DejaVuSans-59" d="M -13 4666 
L 666 4666 
L 1959 2747 
L 3244 4666 
L 3922 4666 
L 2272 2222 
L 2272 0 
L 1638 0 
L 1638 2222 
L -13 4666 
z
" transform="scale(0.015625)"/>
      </defs>
      <use xlink:href="#DejaVuSans-44"/>
      <use xlink:href="#DejaVuSans-61" x="77.001953"/>
      <use xlink:href="#DejaVuSans-76" x="138.28125"/>
      <use xlink:href="#DejaVuSans-69" x="197.460938"/>
      <use xlink:href="#DejaVuSans-64" x="225.244141"/>
      <use xlink:href="#DejaVuSans-20" x="288.720703"/>
      <use xlink:href="#DejaVuSans-59" x="320.507812"/>
      <use xlink:href="#DejaVuSans-61" x="367.841797"/>
      <use xlink:href="#DejaVuSans-74" x="429.121094"/>
      <use xlink:href="#DejaVuSans-65" x="468.330078"/>
      <use xlink:href="#DejaVuSans-73" x="529.853516"/>
     </g>
    </g>
   </g>
   <g id="text_14">
    <g id="patch_15">
     <path d="M 389.925123 455.708141 
L 469.874654 455.708141 
L 469.874654 439.077828 
L 389.925123 439.077828 
z
" clip-path="url(#p1c89e6df1b)" style="fill: #ffffff; opacity: 0.7; stroke: #000000; stroke-linejoin: miter"/>
    </g>
    <g clip-path="url(#p1c89e6df1b)">
     <!-- Andrew Stanton -->
     <g transform="translate(393.885123 449.876422)scale(0.09 -0.09)">
      <defs>
       <path id="DejaVuSans-77" d="M 269 3500 
L 844 3500 
L 1563 769 
L 2278 3500 
L 2956 3500 
L 3675 769 
L 4391 3500 
L 4966 3500 
L 4050 0 
L 3372 0 
L 2619 2869 
L 1863 0 
L 1184 0 
L 269 3500 
z
" transform="scale(0.015625)"/>
      </defs>
      <use xlink:href="#DejaVuSans-41"/>
      <use xlink:href="#DejaVuSans-6e" x="68.408203"/>
      <use xlink:href="#DejaVuSans-64" x="131.787109"/>
      <use xlink:href="#DejaVuSans-72" x="195.263672"/>
      <use xlink:href="#DejaVuSans-65" x="234.126953"/>
      <use xlink:href="#DejaVuSans-77" x="295.650391"/>
      <use xlink:href="#DejaVuSans-20" x="377.4375"/>
      <use xlink:href="#DejaVuSans-53" x="409.224609"/>
      <use xlink:href="#DejaVuSans-74" x="472.701172"/>
      <use xlink:href="#DejaVuSans-61" x="511.910156"/>
      <use xlink:href="#DejaVuSans-6e" x="573.189453"/>
      <use xlink:href="#DejaVuSans-74" x="636.568359"/>
      <use xlink:href="#DejaVuSans-6f" x="675.777344"/>
      <use xlink:href="#DejaVuSans-6e" x="736.958984"/>
     </g>
    </g>
   </g>
   <g id="text_15">
    <g id="patch_16">
     <path d="M 452.058467 383.659162 
L 513.12628 383.659162 
L 513.12628 367.02885 
L 452.058467 367.02885 
z
" clip-path="url(#p1c89e6df1b)" style="fill: #ffffff; opacity: 0.7; stroke: #000000; stroke-linejoin: miter"/>
    </g>
    <g clip-path="url(#p1c89e6df1b)">
     <!-- Lee Unkrich -->
     <g transform="translate(456.018467 377.827443)scale(0.09 -0.09)">
      <defs>
       <path id="DejaVuSans-4c" d="M 628 4666 
L 1259 4666 
L 1259 531 
L 3531 531 
L 3531 0 
L 628 0 
L 628 4666 
z
" transform="scale(0.015625)"/>
       <path id="DejaVuSans-55" d="M 556 4666 
L 1191 4666 
L 1191 1831 
Q 1191 1081 1462 751 
Q 1734 422 2344 422 
Q 2950 422 3222 751 
Q 3494 1081 3494 1831 
L 3494 4666 
L 4128 4666 
L 4128 1753 
Q 4128 841 3676 375 
Q 3225 -91 2344 -91 
Q 1459 -91 1007 375 
Q 556 841 556 1753 
L 556 4666 
z
" transform="scale(0.015625)"/>
      </defs>
      <use xlink:href="#DejaVuSans-4c"/>
      <use xlink:href="#DejaVuSans-65" x="53.962891"/>
      <use xlink:href="#DejaVuSans-65" x="115.486328"/>
      <use xlink:href="#DejaVuSans-20" x="177.009766"/>
      <use xlink:href="#DejaVuSans-55" x="208.796875"/>
      <use xlink:href="#DejaVuSans-6e" x="281.990234"/>
      <use xlink:href="#DejaVuSans-6b" x="345.369141"/>
      <use xlink:href="#DejaVuSans-72" x="403.279297"/>
      <use xlink:href="#DejaVuSans-69" x="444.392578"/>
      <use xlink:href="#DejaVuSans-63" x="472.175781"/>
      <use xlink:href="#DejaVuSans-68" x="527.15625"/>
     </g>
    </g>
   </g>
   <g id="text_16">
    <!-- Impactful directors for Short Film genre -->
    <g transform="translate(169.845937 4.8)scale(0.12 -0.12)">
     <defs>
      <path id="DejaVuSans-49" d="M 628 4666 
L 1259 4666 
L 1259 0 
L 628 0 
L 628 4666 
z
" transform="scale(0.015625)"/>
      <path id="DejaVuSans-46" d="M 628 4666 
L 3309 4666 
L 3309 4134 
L 1259 4134 
L 1259 2759 
L 3109 2759 
L 3109 2228 
L 1259 2228 
L 1259 0 
L 628 0 
L 628 4666 
z
" transform="scale(0.015625)"/>
     </defs>
     <use xlink:href="#DejaVuSans-49"/>
     <use xlink:href="#DejaVuSans-6d" x="29.492188"/>
     <use xlink:href="#DejaVuSans-70" x="126.904297"/>
     <use xlink:href="#DejaVuSans-61" x="190.380859"/>
     <use xlink:href="#DejaVuSans-63" x="251.660156"/>
     <use xlink:href="#DejaVuSans-74" x="306.640625"/>
     <use xlink:href="#DejaVuSans-66" x="345.849609"/>
     <use xlink:href="#DejaVuSans-75" x="381.054688"/>
     <use xlink:href="#DejaVuSans-6c" x="444.433594"/>
     <use xlink:href="#DejaVuSans-20" x="472.216797"/>
     <use xlink:href="#DejaVuSans-64" x="504.003906"/>
     <use xlink:href="#DejaVuSans-69" x="567.480469"/>
     <use xlink:href="#DejaVuSans-72" x="595.263672"/>
     <use xlink:href="#DejaVuSans-65" x="634.126953"/>
     <use xlink:href="#DejaVuSans-63" x="695.650391"/>
     <use xlink:href="#DejaVuSans-74" x="750.630859"/>
     <use xlink:href="#DejaVuSans-6f" x="789.839844"/>
     <use xlink:href="#DejaVuSans-72" x="851.021484"/>
     <use xlink:href="#DejaVuSans-73" x="892.134766"/>
     <use xlink:href="#DejaVuSans-20" x="944.234375"/>
     <use xlink:href="#DejaVuSans-66" x="976.021484"/>
     <use xlink:href="#DejaVuSans-6f" x="1011.226562"/>
     <use xlink:href="#DejaVuSans-72" x="1072.408203"/>
     <use xlink:href="#DejaVuSans-20" x="1113.521484"/>
     <use xlink:href="#DejaVuSans-53" x="1145.308594"/>
     <use xlink:href="#DejaVuSans-68" x="1208.785156"/>
     <use xlink:href="#DejaVuSans-6f" x="1272.164062"/>
     <use xlink:href="#DejaVuSans-72" x="1333.345703"/>
     <use xlink:href="#DejaVuSans-74" x="1374.458984"/>
     <use xlink:href="#DejaVuSans-20" x="1413.667969"/>
     <use xlink:href="#DejaVuSans-46" x="1445.455078"/>
     <use xlink:href="#DejaVuSans-69" x="1495.724609"/>
     <use xlink:href="#DejaVuSans-6c" x="1523.507812"/>
     <use xlink:href="#DejaVuSans-6d" x="1551.291016"/>
     <use xlink:href="#DejaVuSans-20" x="1648.703125"/>
     <use xlink:href="#DejaVuSans-67" x="1680.490234"/>
     <use xlink:href="#DejaVuSans-65" x="1743.966797"/>
     <use xlink:href="#DejaVuSans-6e" x="1805.490234"/>
     <use xlink:href="#DejaVuSans-72" x="1868.869141"/>
     <use xlink:href="#DejaVuSans-65" x="1907.732422"/>
    </g>
   </g>
  </g>
 </g>
 <defs>
  <clipPath id="p1c89e6df1b">
   <rect x="10.8" y="10.8" width="554.4" height="554.4"/>
  </clipPath>
 </defs>
</svg>
