<?xml version="1.0" encoding="utf-8" standalone="no"?>
<!DOCTYPE svg PUBLIC "-//W3C//DTD SVG 1.1//EN"
  "http://www.w3.org/Graphics/SVG/1.1/DTD/svg11.dtd">
<svg xmlns:xlink="http://www.w3.org/1999/xlink" width="568.8pt" height="583.918125pt" viewBox="0 0 568.8 583.918125" xmlns="http://www.w3.org/2000/svg" version="1.1">
 <metadata>
  <rdf:RDF xmlns:dc="http://purl.org/dc/elements/1.1/" xmlns:cc="http://creativecommons.org/ns#" xmlns:rdf="http://www.w3.org/1999/02/22-rdf-syntax-ns#">
   <cc:Work>
    <dc:type rdf:resource="http://purl.org/dc/dcmitype/StillImage"/>
    <dc:date>2022-12-23T19:06:19.390682</dc:date>
    <dc:format>image/svg+xml</dc:format>
    <dc:creator>
     <cc:Agent>
      <dc:title>Matplotlib v3.5.2, https://matplotlib.org/</dc:title>
     </cc:Agent>
    </dc:creator>
   </cc:Work>
  </rdf:RDF>
 </metadata>
 <defs>
  <style type="text/css">*{stroke-linejoin: round; stroke-linecap: butt}</style>
 </defs>
 <g id="figure_1">
  <g id="patch_1">
   <path d="M 0 583.918125 
L 568.8 583.918125 
L 568.8 0 
L 0 0 
z
" style="fill: #ffffff"/>
  </g>
  <g id="axes_1">
   <g id="LineCollection_1">
    <path d="M 486.048077 304.718875 
L 341.127527 105.780766 
" clip-path="url(#paff64d4505)" style="fill: none; stroke: #000000; stroke-opacity: 0.3; stroke-width: 5.948413"/>
    <path d="M 467.915875 219.639372 
L 416.654505 149.270877 
" clip-path="url(#paff64d4505)" style="fill: none; stroke: #000000; stroke-opacity: 0.3; stroke-width: 10"/>
    <path d="M 341.127527 105.780766 
L 254.394227 96.688857 
" clip-path="url(#paff64d4505)" style="fill: none; stroke: #000000; stroke-opacity: 0.3; stroke-width: 5"/>
   </g>
   <g id="PathCollection_1">
    <path d="M 486.048077 332.105003 
C 493.310963 332.105003 500.277358 329.219428 505.412993 324.083792 
C 510.548629 318.948156 513.434205 311.981761 513.434205 304.718875 
C 513.434205 297.455989 510.548629 290.489595 505.412993 285.353959 
C 500.277358 280.218323 493.310963 277.332748 486.048077 277.332748 
C 478.785191 277.332748 471.818796 280.218323 466.68316 285.353959 
C 461.547524 290.489595 458.661949 297.455989 458.661949 304.718875 
C 458.661949 311.981761 461.547524 318.948156 466.68316 324.083792 
C 471.818796 329.219428 478.785191 332.105003 486.048077 332.105003 
z
" clip-path="url(#paff64d4505)" style="fill: #c70039; fill-opacity: 0.99; stroke: #c70039; stroke-opacity: 0.99"/>
    <path d="M 467.915875 245.992748 
C 474.904872 245.992748 481.608559 243.21599 486.550526 238.274023 
C 491.492494 233.332056 494.269252 226.628369 494.269252 219.639372 
C 494.269252 212.650374 491.492494 205.946687 486.550526 201.00472 
C 481.608559 196.062753 474.904872 193.285995 467.915875 193.285995 
C 460.926878 193.285995 454.223191 196.062753 449.281223 201.00472 
C 444.339256 205.946687 441.562498 212.650374 441.562498 219.639372 
C 441.562498 226.628369 444.339256 233.332056 449.281223 238.274023 
C 454.223191 243.21599 460.926878 245.992748 467.915875 245.992748 
z
" clip-path="url(#paff64d4505)" style="fill: #c70039; fill-opacity: 0.99; stroke: #c70039; stroke-opacity: 0.99"/>
    <path d="M 416.654505 175.624254 
C 423.643502 175.624254 430.347189 172.847496 435.289156 167.905529 
C 440.231123 162.963561 443.007881 156.259874 443.007881 149.270877 
C 443.007881 142.28188 440.231123 135.578193 435.289156 130.636226 
C 430.347189 125.694258 423.643502 122.9175 416.654505 122.9175 
C 409.665507 122.9175 402.961821 125.694258 398.019853 130.636226 
C 393.077886 135.578193 390.301128 142.28188 390.301128 149.270877 
C 390.301128 156.259874 393.077886 162.963561 398.019853 167.905529 
C 402.961821 172.847496 409.665507 175.624254 416.654505 175.624254 
z
" clip-path="url(#paff64d4505)" style="fill: #c70039; fill-opacity: 0.99; stroke: #c70039; stroke-opacity: 0.99"/>
    <path d="M 341.127527 129.525439 
C 347.424688 129.525439 353.464781 127.02355 357.917546 122.570785 
C 362.370311 118.11802 364.8722 112.077927 364.8722 105.780766 
C 364.8722 99.483605 362.370311 93.443512 357.917546 88.990747 
C 353.464781 84.537982 347.424688 82.036093 341.127527 82.036093 
C 334.830366 82.036093 328.790273 84.537982 324.337508 88.990747 
C 319.884743 93.443512 317.382855 99.483605 317.382855 105.780766 
C 317.382855 112.077927 319.884743 118.11802 324.337508 122.570785 
C 328.790273 127.02355 334.830366 129.525439 341.127527 129.525439 
z
" clip-path="url(#paff64d4505)" style="fill: #c70039; fill-opacity: 0.99; stroke: #c70039; stroke-opacity: 0.99"/>
    <path d="M 254.394227 118.157448 
C 260.087764 118.157448 265.548875 115.895381 269.574813 111.869443 
C 273.600752 107.843504 275.862818 102.382394 275.862818 96.688857 
C 275.862818 90.99532 273.600752 85.534209 269.574813 81.508271 
C 265.548875 77.482332 260.087764 75.220266 254.394227 75.220266 
C 248.70069 75.220266 243.239579 77.482332 239.213641 81.508271 
C 235.187702 85.534209 232.925636 90.99532 232.925636 96.688857 
C 232.925636 102.382394 235.187702 107.843504 239.213641 111.869443 
C 243.239579 115.895381 248.70069 118.157448 254.394227 118.157448 
z
" clip-path="url(#paff64d4505)" style="fill: #c70039; fill-opacity: 0.99; stroke: #c70039; stroke-opacity: 0.99"/>
    <path d="M 171.45159 144.961058 
C 177.125298 144.961058 182.56739 142.706869 186.579308 138.694952 
C 190.591226 134.683034 192.845414 129.240942 192.845414 123.567234 
C 192.845414 117.893525 190.591226 112.451434 186.579308 108.439516 
C 182.56739 104.427598 177.125298 102.17341 171.45159 102.17341 
C 165.777881 102.17341 160.33579 104.427598 156.323872 108.439516 
C 152.311954 112.451434 150.057766 117.893525 150.057766 123.567234 
C 150.057766 129.240942 152.311954 134.683034 156.323872 138.694952 
C 160.33579 142.706869 165.777881 144.961058 171.45159 144.961058 
z
" clip-path="url(#paff64d4505)" style="fill: #c70039; fill-opacity: 0.99; stroke: #c70039; stroke-opacity: 0.99"/>
    <path d="M 106.641163 203.026314 
C 112.278836 203.026314 117.686364 200.786443 121.672801 196.800005 
C 125.659238 192.813568 127.89911 187.40604 127.89911 181.768367 
C 127.89911 176.130693 125.659238 170.723165 121.672801 166.736728 
C 117.686364 162.750291 112.278836 160.51042 106.641163 160.51042 
C 101.003489 160.51042 95.595961 162.750291 91.609524 166.736728 
C 87.623087 170.723165 85.383215 176.130693 85.383215 181.768367 
C 85.383215 187.40604 87.623087 192.813568 91.609524 196.800005 
C 95.595961 200.786443 101.003489 203.026314 106.641163 203.026314 
z
" clip-path="url(#paff64d4505)" style="fill: #c70039; fill-opacity: 0.99; stroke: #c70039; stroke-opacity: 0.99"/>
    <path d="M 71.169231 281.979847 
C 76.672479 281.979847 81.951069 279.793383 85.842453 275.901999 
C 89.733837 272.010615 91.920301 266.732025 91.920301 261.228777 
C 91.920301 255.725529 89.733837 250.446938 85.842453 246.555554 
C 81.951069 242.66417 76.672479 240.477706 71.169231 240.477706 
C 65.665983 240.477706 60.387392 242.66417 56.496008 246.555554 
C 52.604624 250.446938 50.41816 255.725529 50.41816 261.228777 
C 50.41816 266.732025 52.604624 272.010615 56.496008 275.901999 
C 60.387392 279.793383 65.665983 281.979847 71.169231 281.979847 
z
" clip-path="url(#paff64d4505)" style="fill: #c70039; fill-opacity: 0.99; stroke: #c70039; stroke-opacity: 0.99"/>
    <path d="M 71.169243 368.716159 
C 76.607802 368.716159 81.824344 366.555396 85.669986 362.709754 
C 89.515628 358.864112 91.676391 353.647571 91.676391 348.209012 
C 91.676391 342.770453 89.515628 337.553911 85.669986 333.708269 
C 81.824344 329.862627 76.607802 327.701864 71.169243 327.701864 
C 65.730684 327.701864 60.514142 329.862627 56.6685 333.708269 
C 52.822858 337.553911 50.662096 342.770453 50.662096 348.209012 
C 50.662096 353.647571 52.822858 358.864112 56.6685 362.709754 
C 60.514142 366.555396 65.730684 368.716159 71.169243 368.716159 
z
" clip-path="url(#paff64d4505)" style="fill: #c70039; fill-opacity: 0.99; stroke: #c70039; stroke-opacity: 0.99"/>
    <path d="M 106.641175 448.147987 
C 112.072161 448.147987 117.281439 445.990234 121.121725 442.149947 
C 124.962012 438.30966 127.119766 433.100382 127.119766 427.669396 
C 127.119766 422.238411 124.962012 417.029133 121.121725 413.188846 
C 117.281439 409.348559 112.072161 407.190806 106.641175 407.190806 
C 101.210189 407.190806 96.000912 409.348559 92.160625 413.188846 
C 88.320338 417.029133 86.162584 422.238411 86.162584 427.669396 
C 86.162584 433.100382 88.320338 438.30966 92.160625 442.149947 
C 96.000912 445.990234 101.210189 448.147987 106.641175 448.147987 
z
" clip-path="url(#paff64d4505)" style="fill: #c70039; fill-opacity: 0.99; stroke: #c70039; stroke-opacity: 0.99"/>
    <path d="M 171.451621 505.95116 
C 176.777067 505.95116 181.885113 503.835338 185.650771 500.06968 
C 189.41643 496.304021 191.532252 491.195975 191.532252 485.87053 
C 191.532252 480.545084 189.41643 475.437038 185.650771 471.67138 
C 181.885113 467.905721 176.777067 465.789899 171.451621 465.789899 
C 166.126176 465.789899 161.01813 467.905721 157.252471 471.67138 
C 153.486812 475.437038 151.370991 480.545084 151.370991 485.87053 
C 151.370991 491.195975 153.486812 496.304021 157.252471 500.06968 
C 161.01813 503.835338 166.126176 505.95116 171.451621 505.95116 
z
" clip-path="url(#paff64d4505)" style="fill: #c70039; fill-opacity: 0.99; stroke: #c70039; stroke-opacity: 0.99"/>
    <path d="M 254.394264 532.382598 
C 259.601183 532.382598 264.595542 530.313867 268.277389 526.632019 
C 271.959237 522.950171 274.027968 517.955813 274.027968 512.748894 
C 274.027968 507.541975 271.959237 502.547617 268.277389 498.865769 
C 264.595542 495.183922 259.601183 493.115191 254.394264 493.115191 
C 249.187345 493.115191 244.192987 495.183922 240.511139 498.865769 
C 236.829292 502.547617 234.760561 507.541975 234.760561 512.748894 
C 234.760561 517.955813 236.829292 522.950171 240.511139 526.632019 
C 244.192987 530.313867 249.187345 532.382598 254.394264 532.382598 
z
" clip-path="url(#paff64d4505)" style="fill: #c70039; fill-opacity: 0.99; stroke: #c70039; stroke-opacity: 0.99"/>
    <path d="M 341.127559 523.229451 
C 346.318241 523.229451 351.297025 521.167172 354.967391 517.496805 
C 358.637758 513.826439 360.700037 508.847655 360.700037 503.656973 
C 360.700037 498.46629 358.637758 493.487507 354.967391 489.81714 
C 351.297025 486.146774 346.318241 484.084494 341.127559 484.084494 
C 335.936876 484.084494 330.958092 486.146774 327.287726 489.81714 
C 323.617359 493.487507 321.55508 498.46629 321.55508 503.656973 
C 321.55508 508.847655 323.617359 513.826439 327.287726 517.496805 
C 330.958092 521.167172 335.936876 523.229451 341.127559 523.229451 
z
" clip-path="url(#paff64d4505)" style="fill: #c70039; fill-opacity: 0.99; stroke: #c70039; stroke-opacity: 0.99"/>
    <path d="M 416.654542 479.703317 
C 421.835677 479.703317 426.805304 477.64483 430.46892 473.981214 
C 434.132536 470.317598 436.191022 465.347972 436.191022 460.166836 
C 436.191022 454.985701 434.132536 450.016075 430.46892 446.352459 
C 426.805304 442.688843 421.835677 440.630356 416.654542 440.630356 
C 411.473407 440.630356 406.50378 442.688843 402.840165 446.352459 
C 399.176549 450.016075 397.118062 454.985701 397.118062 460.166836 
C 397.118062 465.347972 399.176549 470.317598 402.840165 473.981214 
C 406.50378 477.64483 411.473407 479.703317 416.654542 479.703317 
z
" clip-path="url(#paff64d4505)" style="fill: #c70039; fill-opacity: 0.99; stroke: #c70039; stroke-opacity: 0.99"/>
    <path d="M 467.9159 409.163265 
C 473.051536 409.163265 477.977521 407.122855 481.608964 403.491412 
C 485.240407 399.859969 487.280816 394.933984 487.280816 389.798348 
C 487.280816 384.662712 485.240407 379.736727 481.608964 376.105284 
C 477.977521 372.473841 473.051536 370.433432 467.9159 370.433432 
C 462.780264 370.433432 457.854279 372.473841 454.222836 376.105284 
C 450.591393 379.736727 448.550983 384.662712 448.550983 389.798348 
C 448.550983 394.933984 450.591393 399.859969 454.222836 403.491412 
C 457.854279 407.122855 462.780264 409.163265 467.9159 409.163265 
z
" clip-path="url(#paff64d4505)" style="fill: #c70039; fill-opacity: 0.99; stroke: #c70039; stroke-opacity: 0.99"/>
   </g>
   <g id="text_1">
    <g id="patch_2">
     <path d="M 454.685889 313.034032 
L 517.410264 313.034032 
L 517.410264 296.403719 
L 454.685889 296.403719 
z
" clip-path="url(#paff64d4505)" style="fill: #ffffff; opacity: 0.7; stroke: #000000; stroke-linejoin: miter"/>
    </g>
    <g clip-path="url(#paff64d4505)">
     <!-- Chuck Jones -->
     <g transform="translate(458.645889 307.202313)scale(0.09 -0.09)">
      <defs>
       <path id="DejaVuSans-43" d="M 4122 4306 
L 4122 3641 
Q 3803 3938 3442 4084 
Q 3081 4231 2675 4231 
Q 1875 4231 1450 3742 
Q 1025 3253 1025 2328 
Q 1025 1406 1450 917 
Q 1875 428 2675 428 
Q 3081 428 3442 575 
Q 3803 722 4122 1019 
L 4122 359 
Q 3791 134 3420 21 
Q 3050 -91 2638 -91 
Q 1578 -91 968 557 
Q 359 1206 359 2328 
Q 359 3453 968 4101 
Q 1578 4750 2638 4750 
Q 3056 4750 3426 4639 
Q 3797 4528 4122 4306 
z
" transform="scale(0.015625)"/>
       <path id="DejaVuSans-68" d="M 3513 2113 
L 3513 0 
L 2938 0 
L 2938 2094 
Q 2938 2591 2744 2837 
Q 2550 3084 2163 3084 
Q 1697 3084 1428 2787 
Q 1159 2491 1159 1978 
L 1159 0 
L 581 0 
L 581 4863 
L 1159 4863 
L 1159 2956 
Q 1366 3272 1645 3428 
Q 1925 3584 2291 3584 
Q 2894 3584 3203 3211 
Q 3513 2838 3513 2113 
z
" transform="scale(0.015625)"/>
       <path id="DejaVuSans-75" d="M 544 1381 
L 544 3500 
L 1119 3500 
L 1119 1403 
Q 1119 906 1312 657 
Q 1506 409 1894 409 
Q 2359 409 2629 706 
Q 2900 1003 2900 1516 
L 2900 3500 
L 3475 3500 
L 3475 0 
L 2900 0 
L 2900 538 
Q 2691 219 2414 64 
Q 2138 -91 1772 -91 
Q 1169 -91 856 284 
Q 544 659 544 1381 
z
M 1991 3584 
L 1991 3584 
z
" transform="scale(0.015625)"/>
       <path id="DejaVuSans-63" d="M 3122 3366 
L 3122 2828 
Q 2878 2963 2633 3030 
Q 2388 3097 2138 3097 
Q 1578 3097 1268 2742 
Q 959 2388 959 1747 
Q 959 1106 1268 751 
Q 1578 397 2138 397 
Q 2388 397 2633 464 
Q 2878 531 3122 666 
L 3122 134 
Q 2881 22 2623 -34 
Q 2366 -91 2075 -91 
Q 1284 -91 818 406 
Q 353 903 353 1747 
Q 353 2603 823 3093 
Q 1294 3584 2113 3584 
Q 2378 3584 2631 3529 
Q 2884 3475 3122 3366 
z
" transform="scale(0.015625)"/>
       <path id="DejaVuSans-6b" d="M 581 4863 
L 1159 4863 
L 1159 1991 
L 2875 3500 
L 3609 3500 
L 1753 1863 
L 3688 0 
L 2938 0 
L 1159 1709 
L 1159 0 
L 581 0 
L 581 4863 
z
" transform="scale(0.015625)"/>
       <path id="DejaVuSans-20" transform="scale(0.015625)"/>
       <path id="DejaVuSans-4a" d="M 628 4666 
L 1259 4666 
L 1259 325 
Q 1259 -519 939 -900 
Q 619 -1281 -91 -1281 
L -331 -1281 
L -331 -750 
L -134 -750 
Q 284 -750 456 -515 
Q 628 -281 628 325 
L 628 4666 
z
" transform="scale(0.015625)"/>
       <path id="DejaVuSans-6f" d="M 1959 3097 
Q 1497 3097 1228 2736 
Q 959 2375 959 1747 
Q 959 1119 1226 758 
Q 1494 397 1959 397 
Q 2419 397 2687 759 
Q 2956 1122 2956 1747 
Q 2956 2369 2687 2733 
Q 2419 3097 1959 3097 
z
M 1959 3584 
Q 2709 3584 3137 3096 
Q 3566 2609 3566 1747 
Q 3566 888 3137 398 
Q 2709 -91 1959 -91 
Q 1206 -91 779 398 
Q 353 888 353 1747 
Q 353 2609 779 3096 
Q 1206 3584 1959 3584 
z
" transform="scale(0.015625)"/>
       <path id="DejaVuSans-6e" d="M 3513 2113 
L 3513 0 
L 2938 0 
L 2938 2094 
Q 2938 2591 2744 2837 
Q 2550 3084 2163 3084 
Q 1697 3084 1428 2787 
Q 1159 2491 1159 1978 
L 1159 0 
L 581 0 
L 581 3500 
L 1159 3500 
L 1159 2956 
Q 1366 3272 1645 3428 
Q 1925 3584 2291 3584 
Q 2894 3584 3203 3211 
Q 3513 2838 3513 2113 
z
" transform="scale(0.015625)"/>
       <path id="DejaVuSans-65" d="M 3597 1894 
L 3597 1613 
L 953 1613 
Q 991 1019 1311 708 
Q 1631 397 2203 397 
Q 2534 397 2845 478 
Q 3156 559 3463 722 
L 3463 178 
Q 3153 47 2828 -22 
Q 2503 -91 2169 -91 
Q 1331 -91 842 396 
Q 353 884 353 1716 
Q 353 2575 817 3079 
Q 1281 3584 2069 3584 
Q 2775 3584 3186 3129 
Q 3597 2675 3597 1894 
z
M 3022 2063 
Q 3016 2534 2758 2815 
Q 2500 3097 2075 3097 
Q 1594 3097 1305 2825 
Q 1016 2553 972 2059 
L 3022 2063 
z
" transform="scale(0.015625)"/>
       <path id="DejaVuSans-73" d="M 2834 3397 
L 2834 2853 
Q 2591 2978 2328 3040 
Q 2066 3103 1784 3103 
Q 1356 3103 1142 2972 
Q 928 2841 928 2578 
Q 928 2378 1081 2264 
Q 1234 2150 1697 2047 
L 1894 2003 
Q 2506 1872 2764 1633 
Q 3022 1394 3022 966 
Q 3022 478 2636 193 
Q 2250 -91 1575 -91 
Q 1294 -91 989 -36 
Q 684 19 347 128 
L 347 722 
Q 666 556 975 473 
Q 1284 391 1588 391 
Q 1994 391 2212 530 
Q 2431 669 2431 922 
Q 2431 1156 2273 1281 
Q 2116 1406 1581 1522 
L 1381 1569 
Q 847 1681 609 1914 
Q 372 2147 372 2553 
Q 372 3047 722 3315 
Q 1072 3584 1716 3584 
Q 2034 3584 2315 3537 
Q 2597 3491 2834 3397 
z
" transform="scale(0.015625)"/>
      </defs>
      <use xlink:href="#DejaVuSans-43"/>
      <use xlink:href="#DejaVuSans-68" x="69.824219"/>
      <use xlink:href="#DejaVuSans-75" x="133.203125"/>
      <use xlink:href="#DejaVuSans-63" x="196.582031"/>
      <use xlink:href="#DejaVuSans-6b" x="251.5625"/>
      <use xlink:href="#DejaVuSans-20" x="309.472656"/>
      <use xlink:href="#DejaVuSans-4a" x="341.259766"/>
      <use xlink:href="#DejaVuSans-6f" x="370.751953"/>
      <use xlink:href="#DejaVuSans-6e" x="431.933594"/>
      <use xlink:href="#DejaVuSans-65" x="495.3125"/>
      <use xlink:href="#DejaVuSans-73" x="556.835938"/>
     </g>
    </g>
   </g>
   <g id="text_2">
    <g id="patch_3">
     <path d="M 431.432828 227.954528 
L 504.398922 227.954528 
L 504.398922 211.324215 
L 431.432828 211.324215 
z
" clip-path="url(#paff64d4505)" style="fill: #ffffff; opacity: 0.7; stroke: #000000; stroke-linejoin: miter"/>
    </g>
    <g clip-path="url(#paff64d4505)">
     <!-- William Hanna -->
     <g transform="translate(435.392828 222.122809)scale(0.09 -0.09)">
      <defs>
       <path id="DejaVuSans-57" d="M 213 4666 
L 850 4666 
L 1831 722 
L 2809 4666 
L 3519 4666 
L 4500 722 
L 5478 4666 
L 6119 4666 
L 4947 0 
L 4153 0 
L 3169 4050 
L 2175 0 
L 1381 0 
L 213 4666 
z
" transform="scale(0.015625)"/>
       <path id="DejaVuSans-69" d="M 603 3500 
L 1178 3500 
L 1178 0 
L 603 0 
L 603 3500 
z
M 603 4863 
L 1178 4863 
L 1178 4134 
L 603 4134 
L 603 4863 
z
" transform="scale(0.015625)"/>
       <path id="DejaVuSans-6c" d="M 603 4863 
L 1178 4863 
L 1178 0 
L 603 0 
L 603 4863 
z
" transform="scale(0.015625)"/>
       <path id="DejaVuSans-61" d="M 2194 1759 
Q 1497 1759 1228 1600 
Q 959 1441 959 1056 
Q 959 750 1161 570 
Q 1363 391 1709 391 
Q 2188 391 2477 730 
Q 2766 1069 2766 1631 
L 2766 1759 
L 2194 1759 
z
M 3341 1997 
L 3341 0 
L 2766 0 
L 2766 531 
Q 2569 213 2275 61 
Q 1981 -91 1556 -91 
Q 1019 -91 701 211 
Q 384 513 384 1019 
Q 384 1609 779 1909 
Q 1175 2209 1959 2209 
L 2766 2209 
L 2766 2266 
Q 2766 2663 2505 2880 
Q 2244 3097 1772 3097 
Q 1472 3097 1187 3025 
Q 903 2953 641 2809 
L 641 3341 
Q 956 3463 1253 3523 
Q 1550 3584 1831 3584 
Q 2591 3584 2966 3190 
Q 3341 2797 3341 1997 
z
" transform="scale(0.015625)"/>
       <path id="DejaVuSans-6d" d="M 3328 2828 
Q 3544 3216 3844 3400 
Q 4144 3584 4550 3584 
Q 5097 3584 5394 3201 
Q 5691 2819 5691 2113 
L 5691 0 
L 5113 0 
L 5113 2094 
Q 5113 2597 4934 2840 
Q 4756 3084 4391 3084 
Q 3944 3084 3684 2787 
Q 3425 2491 3425 1978 
L 3425 0 
L 2847 0 
L 2847 2094 
Q 2847 2600 2669 2842 
Q 2491 3084 2119 3084 
Q 1678 3084 1418 2786 
Q 1159 2488 1159 1978 
L 1159 0 
L 581 0 
L 581 3500 
L 1159 3500 
L 1159 2956 
Q 1356 3278 1631 3431 
Q 1906 3584 2284 3584 
Q 2666 3584 2933 3390 
Q 3200 3197 3328 2828 
z
" transform="scale(0.015625)"/>
       <path id="DejaVuSans-48" d="M 628 4666 
L 1259 4666 
L 1259 2753 
L 3553 2753 
L 3553 4666 
L 4184 4666 
L 4184 0 
L 3553 0 
L 3553 2222 
L 1259 2222 
L 1259 0 
L 628 0 
L 628 4666 
z
" transform="scale(0.015625)"/>
      </defs>
      <use xlink:href="#DejaVuSans-57"/>
      <use xlink:href="#DejaVuSans-69" x="96.626953"/>
      <use xlink:href="#DejaVuSans-6c" x="124.410156"/>
      <use xlink:href="#DejaVuSans-6c" x="152.193359"/>
      <use xlink:href="#DejaVuSans-69" x="179.976562"/>
      <use xlink:href="#DejaVuSans-61" x="207.759766"/>
      <use xlink:href="#DejaVuSans-6d" x="269.039062"/>
      <use xlink:href="#DejaVuSans-20" x="366.451172"/>
      <use xlink:href="#DejaVuSans-48" x="398.238281"/>
      <use xlink:href="#DejaVuSans-61" x="473.433594"/>
      <use xlink:href="#DejaVuSans-6e" x="534.712891"/>
      <use xlink:href="#DejaVuSans-6e" x="598.091797"/>
      <use xlink:href="#DejaVuSans-61" x="661.470703"/>
     </g>
    </g>
   </g>
   <g id="text_3">
    <g id="patch_4">
     <path d="M 378.433333 157.586033 
L 454.875677 157.586033 
L 454.875677 140.955721 
L 378.433333 140.955721 
z
" clip-path="url(#paff64d4505)" style="fill: #ffffff; opacity: 0.7; stroke: #000000; stroke-linejoin: miter"/>
    </g>
    <g clip-path="url(#paff64d4505)">
     <!-- Joseph Barbera -->
     <g transform="translate(382.393333 151.754315)scale(0.09 -0.09)">
      <defs>
       <path id="DejaVuSans-70" d="M 1159 525 
L 1159 -1331 
L 581 -1331 
L 581 3500 
L 1159 3500 
L 1159 2969 
Q 1341 3281 1617 3432 
Q 1894 3584 2278 3584 
Q 2916 3584 3314 3078 
Q 3713 2572 3713 1747 
Q 3713 922 3314 415 
Q 2916 -91 2278 -91 
Q 1894 -91 1617 61 
Q 1341 213 1159 525 
z
M 3116 1747 
Q 3116 2381 2855 2742 
Q 2594 3103 2138 3103 
Q 1681 3103 1420 2742 
Q 1159 2381 1159 1747 
Q 1159 1113 1420 752 
Q 1681 391 2138 391 
Q 2594 391 2855 752 
Q 3116 1113 3116 1747 
z
" transform="scale(0.015625)"/>
       <path id="DejaVuSans-42" d="M 1259 2228 
L 1259 519 
L 2272 519 
Q 2781 519 3026 730 
Q 3272 941 3272 1375 
Q 3272 1813 3026 2020 
Q 2781 2228 2272 2228 
L 1259 2228 
z
M 1259 4147 
L 1259 2741 
L 2194 2741 
Q 2656 2741 2882 2914 
Q 3109 3088 3109 3444 
Q 3109 3797 2882 3972 
Q 2656 4147 2194 4147 
L 1259 4147 
z
M 628 4666 
L 2241 4666 
Q 2963 4666 3353 4366 
Q 3744 4066 3744 3513 
Q 3744 3084 3544 2831 
Q 3344 2578 2956 2516 
Q 3422 2416 3680 2098 
Q 3938 1781 3938 1306 
Q 3938 681 3513 340 
Q 3088 0 2303 0 
L 628 0 
L 628 4666 
z
" transform="scale(0.015625)"/>
       <path id="DejaVuSans-72" d="M 2631 2963 
Q 2534 3019 2420 3045 
Q 2306 3072 2169 3072 
Q 1681 3072 1420 2755 
Q 1159 2438 1159 1844 
L 1159 0 
L 581 0 
L 581 3500 
L 1159 3500 
L 1159 2956 
Q 1341 3275 1631 3429 
Q 1922 3584 2338 3584 
Q 2397 3584 2469 3576 
Q 2541 3569 2628 3553 
L 2631 2963 
z
" transform="scale(0.015625)"/>
       <path id="DejaVuSans-62" d="M 3116 1747 
Q 3116 2381 2855 2742 
Q 2594 3103 2138 3103 
Q 1681 3103 1420 2742 
Q 1159 2381 1159 1747 
Q 1159 1113 1420 752 
Q 1681 391 2138 391 
Q 2594 391 2855 752 
Q 3116 1113 3116 1747 
z
M 1159 2969 
Q 1341 3281 1617 3432 
Q 1894 3584 2278 3584 
Q 2916 3584 3314 3078 
Q 3713 2572 3713 1747 
Q 3713 922 3314 415 
Q 2916 -91 2278 -91 
Q 1894 -91 1617 61 
Q 1341 213 1159 525 
L 1159 0 
L 581 0 
L 581 4863 
L 1159 4863 
L 1159 2969 
z
" transform="scale(0.015625)"/>
      </defs>
      <use xlink:href="#DejaVuSans-4a"/>
      <use xlink:href="#DejaVuSans-6f" x="29.492188"/>
      <use xlink:href="#DejaVuSans-73" x="90.673828"/>
      <use xlink:href="#DejaVuSans-65" x="142.773438"/>
      <use xlink:href="#DejaVuSans-70" x="204.296875"/>
      <use xlink:href="#DejaVuSans-68" x="267.773438"/>
      <use xlink:href="#DejaVuSans-20" x="331.152344"/>
      <use xlink:href="#DejaVuSans-42" x="362.939453"/>
      <use xlink:href="#DejaVuSans-61" x="431.542969"/>
      <use xlink:href="#DejaVuSans-72" x="492.822266"/>
      <use xlink:href="#DejaVuSans-62" x="533.935547"/>
      <use xlink:href="#DejaVuSans-65" x="597.412109"/>
      <use xlink:href="#DejaVuSans-72" x="658.935547"/>
      <use xlink:href="#DejaVuSans-61" x="700.048828"/>
     </g>
    </g>
   </g>
   <g id="text_4">
    <g id="patch_5">
     <path d="M 311.506277 114.095922 
L 370.748777 114.095922 
L 370.748777 97.46561 
L 311.506277 97.46561 
z
" clip-path="url(#paff64d4505)" style="fill: #ffffff; opacity: 0.7; stroke: #000000; stroke-linejoin: miter"/>
    </g>
    <g clip-path="url(#paff64d4505)">
     <!-- Friz Freleng -->
     <g transform="translate(315.466277 108.264203)scale(0.09 -0.09)">
      <defs>
       <path id="DejaVuSans-46" d="M 628 4666 
L 3309 4666 
L 3309 4134 
L 1259 4134 
L 1259 2759 
L 3109 2759 
L 3109 2228 
L 1259 2228 
L 1259 0 
L 628 0 
L 628 4666 
z
" transform="scale(0.015625)"/>
       <path id="DejaVuSans-7a" d="M 353 3500 
L 3084 3500 
L 3084 2975 
L 922 459 
L 3084 459 
L 3084 0 
L 275 0 
L 275 525 
L 2438 3041 
L 353 3041 
L 353 3500 
z
" transform="scale(0.015625)"/>
       <path id="DejaVuSans-67" d="M 2906 1791 
Q 2906 2416 2648 2759 
Q 2391 3103 1925 3103 
Q 1463 3103 1205 2759 
Q 947 2416 947 1791 
Q 947 1169 1205 825 
Q 1463 481 1925 481 
Q 2391 481 2648 825 
Q 2906 1169 2906 1791 
z
M 3481 434 
Q 3481 -459 3084 -895 
Q 2688 -1331 1869 -1331 
Q 1566 -1331 1297 -1286 
Q 1028 -1241 775 -1147 
L 775 -588 
Q 1028 -725 1275 -790 
Q 1522 -856 1778 -856 
Q 2344 -856 2625 -561 
Q 2906 -266 2906 331 
L 2906 616 
Q 2728 306 2450 153 
Q 2172 0 1784 0 
Q 1141 0 747 490 
Q 353 981 353 1791 
Q 353 2603 747 3093 
Q 1141 3584 1784 3584 
Q 2172 3584 2450 3431 
Q 2728 3278 2906 2969 
L 2906 3500 
L 3481 3500 
L 3481 434 
z
" transform="scale(0.015625)"/>
      </defs>
      <use xlink:href="#DejaVuSans-46"/>
      <use xlink:href="#DejaVuSans-72" x="50.269531"/>
      <use xlink:href="#DejaVuSans-69" x="91.382812"/>
      <use xlink:href="#DejaVuSans-7a" x="119.166016"/>
      <use xlink:href="#DejaVuSans-20" x="171.65625"/>
      <use xlink:href="#DejaVuSans-46" x="203.443359"/>
      <use xlink:href="#DejaVuSans-72" x="253.712891"/>
      <use xlink:href="#DejaVuSans-65" x="292.576172"/>
      <use xlink:href="#DejaVuSans-6c" x="354.099609"/>
      <use xlink:href="#DejaVuSans-65" x="381.882812"/>
      <use xlink:href="#DejaVuSans-6e" x="443.40625"/>
      <use xlink:href="#DejaVuSans-67" x="506.785156"/>
     </g>
    </g>
   </g>
   <g id="text_5">
    <g id="patch_6">
     <path d="M 221.36493 105.004013 
L 287.423524 105.004013 
L 287.423524 88.3737 
L 221.36493 88.3737 
z
" clip-path="url(#paff64d4505)" style="fill: #ffffff; opacity: 0.7; stroke: #000000; stroke-linejoin: miter"/>
    </g>
    <g clip-path="url(#paff64d4505)">
     <!-- Frank Tashlin -->
     <g transform="translate(225.32493 99.172294)scale(0.09 -0.09)">
      <defs>
       <path id="DejaVuSans-54" d="M -19 4666 
L 3928 4666 
L 3928 4134 
L 2272 4134 
L 2272 0 
L 1638 0 
L 1638 4134 
L -19 4134 
L -19 4666 
z
" transform="scale(0.015625)"/>
      </defs>
      <use xlink:href="#DejaVuSans-46"/>
      <use xlink:href="#DejaVuSans-72" x="50.269531"/>
      <use xlink:href="#DejaVuSans-61" x="91.382812"/>
      <use xlink:href="#DejaVuSans-6e" x="152.662109"/>
      <use xlink:href="#DejaVuSans-6b" x="216.041016"/>
      <use xlink:href="#DejaVuSans-20" x="273.951172"/>
      <use xlink:href="#DejaVuSans-54" x="305.738281"/>
      <use xlink:href="#DejaVuSans-61" x="350.322266"/>
      <use xlink:href="#DejaVuSans-73" x="411.601562"/>
      <use xlink:href="#DejaVuSans-68" x="463.701172"/>
      <use xlink:href="#DejaVuSans-6c" x="527.080078"/>
      <use xlink:href="#DejaVuSans-69" x="554.863281"/>
      <use xlink:href="#DejaVuSans-6e" x="582.646484"/>
     </g>
    </g>
   </g>
   <g id="text_6">
    <g id="patch_7">
     <path d="M 136.615262 131.88239 
L 206.287918 131.88239 
L 206.287918 115.252078 
L 136.615262 115.252078 
z
" clip-path="url(#paff64d4505)" style="fill: #ffffff; opacity: 0.7; stroke: #000000; stroke-linejoin: miter"/>
    </g>
    <g clip-path="url(#paff64d4505)">
     <!-- George Cukor -->
     <g transform="translate(140.575262 126.050671)scale(0.09 -0.09)">
      <defs>
       <path id="DejaVuSans-47" d="M 3809 666 
L 3809 1919 
L 2778 1919 
L 2778 2438 
L 4434 2438 
L 4434 434 
Q 4069 175 3628 42 
Q 3188 -91 2688 -91 
Q 1594 -91 976 548 
Q 359 1188 359 2328 
Q 359 3472 976 4111 
Q 1594 4750 2688 4750 
Q 3144 4750 3555 4637 
Q 3966 4525 4313 4306 
L 4313 3634 
Q 3963 3931 3569 4081 
Q 3175 4231 2741 4231 
Q 1884 4231 1454 3753 
Q 1025 3275 1025 2328 
Q 1025 1384 1454 906 
Q 1884 428 2741 428 
Q 3075 428 3337 486 
Q 3600 544 3809 666 
z
" transform="scale(0.015625)"/>
      </defs>
      <use xlink:href="#DejaVuSans-47"/>
      <use xlink:href="#DejaVuSans-65" x="77.490234"/>
      <use xlink:href="#DejaVuSans-6f" x="139.013672"/>
      <use xlink:href="#DejaVuSans-72" x="200.195312"/>
      <use xlink:href="#DejaVuSans-67" x="239.558594"/>
      <use xlink:href="#DejaVuSans-65" x="303.035156"/>
      <use xlink:href="#DejaVuSans-20" x="364.558594"/>
      <use xlink:href="#DejaVuSans-43" x="396.345703"/>
      <use xlink:href="#DejaVuSans-75" x="466.169922"/>
      <use xlink:href="#DejaVuSans-6b" x="529.548828"/>
      <use xlink:href="#DejaVuSans-6f" x="583.833984"/>
      <use xlink:href="#DejaVuSans-72" x="645.015625"/>
     </g>
    </g>
   </g>
   <g id="text_7">
    <g id="patch_8">
     <path d="M 68.332803 190.083523 
L 144.949522 190.083523 
L 144.949522 173.453211 
L 68.332803 173.453211 
z
" clip-path="url(#paff64d4505)" style="fill: #ffffff; opacity: 0.7; stroke: #000000; stroke-linejoin: miter"/>
    </g>
    <g clip-path="url(#paff64d4505)">
     <!-- Richard Thorpe -->
     <g transform="translate(72.292803 184.251804)scale(0.09 -0.09)">
      <defs>
       <path id="DejaVuSans-52" d="M 2841 2188 
Q 3044 2119 3236 1894 
Q 3428 1669 3622 1275 
L 4263 0 
L 3584 0 
L 2988 1197 
Q 2756 1666 2539 1819 
Q 2322 1972 1947 1972 
L 1259 1972 
L 1259 0 
L 628 0 
L 628 4666 
L 2053 4666 
Q 2853 4666 3247 4331 
Q 3641 3997 3641 3322 
Q 3641 2881 3436 2590 
Q 3231 2300 2841 2188 
z
M 1259 4147 
L 1259 2491 
L 2053 2491 
Q 2509 2491 2742 2702 
Q 2975 2913 2975 3322 
Q 2975 3731 2742 3939 
Q 2509 4147 2053 4147 
L 1259 4147 
z
" transform="scale(0.015625)"/>
       <path id="DejaVuSans-64" d="M 2906 2969 
L 2906 4863 
L 3481 4863 
L 3481 0 
L 2906 0 
L 2906 525 
Q 2725 213 2448 61 
Q 2172 -91 1784 -91 
Q 1150 -91 751 415 
Q 353 922 353 1747 
Q 353 2572 751 3078 
Q 1150 3584 1784 3584 
Q 2172 3584 2448 3432 
Q 2725 3281 2906 2969 
z
M 947 1747 
Q 947 1113 1208 752 
Q 1469 391 1925 391 
Q 2381 391 2643 752 
Q 2906 1113 2906 1747 
Q 2906 2381 2643 2742 
Q 2381 3103 1925 3103 
Q 1469 3103 1208 2742 
Q 947 2381 947 1747 
z
" transform="scale(0.015625)"/>
      </defs>
      <use xlink:href="#DejaVuSans-52"/>
      <use xlink:href="#DejaVuSans-69" x="69.482422"/>
      <use xlink:href="#DejaVuSans-63" x="97.265625"/>
      <use xlink:href="#DejaVuSans-68" x="152.246094"/>
      <use xlink:href="#DejaVuSans-61" x="215.625"/>
      <use xlink:href="#DejaVuSans-72" x="276.904297"/>
      <use xlink:href="#DejaVuSans-64" x="316.267578"/>
      <use xlink:href="#DejaVuSans-20" x="379.744141"/>
      <use xlink:href="#DejaVuSans-54" x="411.53125"/>
      <use xlink:href="#DejaVuSans-68" x="472.615234"/>
      <use xlink:href="#DejaVuSans-6f" x="535.994141"/>
      <use xlink:href="#DejaVuSans-72" x="597.175781"/>
      <use xlink:href="#DejaVuSans-70" x="638.289062"/>
      <use xlink:href="#DejaVuSans-65" x="701.765625"/>
     </g>
    </g>
   </g>
   <g id="text_8">
    <g id="patch_9">
     <path d="M 35.560168 269.543933 
L 106.778293 269.543933 
L 106.778293 252.913621 
L 35.560168 252.913621 
z
" clip-path="url(#paff64d4505)" style="fill: #ffffff; opacity: 0.7; stroke: #000000; stroke-linejoin: miter"/>
    </g>
    <g clip-path="url(#paff64d4505)">
     <!-- Mervyn LeRoy -->
     <g transform="translate(39.520168 263.712214)scale(0.09 -0.09)">
      <defs>
       <path id="DejaVuSans-4d" d="M 628 4666 
L 1569 4666 
L 2759 1491 
L 3956 4666 
L 4897 4666 
L 4897 0 
L 4281 0 
L 4281 4097 
L 3078 897 
L 2444 897 
L 1241 4097 
L 1241 0 
L 628 0 
L 628 4666 
z
" transform="scale(0.015625)"/>
       <path id="DejaVuSans-76" d="M 191 3500 
L 800 3500 
L 1894 563 
L 2988 3500 
L 3597 3500 
L 2284 0 
L 1503 0 
L 191 3500 
z
" transform="scale(0.015625)"/>
       <path id="DejaVuSans-79" d="M 2059 -325 
Q 1816 -950 1584 -1140 
Q 1353 -1331 966 -1331 
L 506 -1331 
L 506 -850 
L 844 -850 
Q 1081 -850 1212 -737 
Q 1344 -625 1503 -206 
L 1606 56 
L 191 3500 
L 800 3500 
L 1894 763 
L 2988 3500 
L 3597 3500 
L 2059 -325 
z
" transform="scale(0.015625)"/>
       <path id="DejaVuSans-4c" d="M 628 4666 
L 1259 4666 
L 1259 531 
L 3531 531 
L 3531 0 
L 628 0 
L 628 4666 
z
" transform="scale(0.015625)"/>
      </defs>
      <use xlink:href="#DejaVuSans-4d"/>
      <use xlink:href="#DejaVuSans-65" x="86.279297"/>
      <use xlink:href="#DejaVuSans-72" x="147.802734"/>
      <use xlink:href="#DejaVuSans-76" x="188.916016"/>
      <use xlink:href="#DejaVuSans-79" x="248.095703"/>
      <use xlink:href="#DejaVuSans-6e" x="307.275391"/>
      <use xlink:href="#DejaVuSans-20" x="370.654297"/>
      <use xlink:href="#DejaVuSans-4c" x="402.441406"/>
      <use xlink:href="#DejaVuSans-65" x="456.404297"/>
      <use xlink:href="#DejaVuSans-52" x="517.927734"/>
      <use xlink:href="#DejaVuSans-6f" x="582.910156"/>
      <use xlink:href="#DejaVuSans-79" x="644.091797"/>
     </g>
    </g>
   </g>
   <g id="text_9">
    <g id="patch_10">
     <path d="M 31.89479 356.524168 
L 110.443696 356.524168 
L 110.443696 339.893855 
L 31.89479 339.893855 
z
" clip-path="url(#paff64d4505)" style="fill: #ffffff; opacity: 0.7; stroke: #000000; stroke-linejoin: miter"/>
    </g>
    <g clip-path="url(#paff64d4505)">
     <!-- Clarence Brown -->
     <g transform="translate(35.85479 350.692449)scale(0.09 -0.09)">
      <defs>
       <path id="DejaVuSans-77" d="M 269 3500 
L 844 3500 
L 1563 769 
L 2278 3500 
L 2956 3500 
L 3675 769 
L 4391 3500 
L 4966 3500 
L 4050 0 
L 3372 0 
L 2619 2869 
L 1863 0 
L 1184 0 
L 269 3500 
z
" transform="scale(0.015625)"/>
      </defs>
      <use xlink:href="#DejaVuSans-43"/>
      <use xlink:href="#DejaVuSans-6c" x="69.824219"/>
      <use xlink:href="#DejaVuSans-61" x="97.607422"/>
      <use xlink:href="#DejaVuSans-72" x="158.886719"/>
      <use xlink:href="#DejaVuSans-65" x="197.75"/>
      <use xlink:href="#DejaVuSans-6e" x="259.273438"/>
      <use xlink:href="#DejaVuSans-63" x="322.652344"/>
      <use xlink:href="#DejaVuSans-65" x="377.632812"/>
      <use xlink:href="#DejaVuSans-20" x="439.15625"/>
      <use xlink:href="#DejaVuSans-42" x="470.943359"/>
      <use xlink:href="#DejaVuSans-72" x="539.546875"/>
      <use xlink:href="#DejaVuSans-6f" x="578.410156"/>
      <use xlink:href="#DejaVuSans-77" x="639.591797"/>
      <use xlink:href="#DejaVuSans-6e" x="721.378906"/>
     </g>
    </g>
   </g>
   <g id="text_10">
    <g id="patch_11">
     <path d="M 75.724066 435.984553 
L 137.558285 435.984553 
L 137.558285 419.35424 
L 75.724066 419.35424 
z
" clip-path="url(#paff64d4505)" style="fill: #ffffff; opacity: 0.7; stroke: #000000; stroke-linejoin: miter"/>
    </g>
    <g clip-path="url(#paff64d4505)">
     <!-- Walter Lang -->
     <g transform="translate(79.684066 430.152834)scale(0.09 -0.09)">
      <defs>
       <path id="DejaVuSans-74" d="M 1172 4494 
L 1172 3500 
L 2356 3500 
L 2356 3053 
L 1172 3053 
L 1172 1153 
Q 1172 725 1289 603 
Q 1406 481 1766 481 
L 2356 481 
L 2356 0 
L 1766 0 
Q 1100 0 847 248 
Q 594 497 594 1153 
L 594 3053 
L 172 3053 
L 172 3500 
L 594 3500 
L 594 4494 
L 1172 4494 
z
" transform="scale(0.015625)"/>
      </defs>
      <use xlink:href="#DejaVuSans-57"/>
      <use xlink:href="#DejaVuSans-61" x="92.501953"/>
      <use xlink:href="#DejaVuSans-6c" x="153.78125"/>
      <use xlink:href="#DejaVuSans-74" x="181.564453"/>
      <use xlink:href="#DejaVuSans-65" x="220.773438"/>
      <use xlink:href="#DejaVuSans-72" x="282.296875"/>
      <use xlink:href="#DejaVuSans-20" x="323.410156"/>
      <use xlink:href="#DejaVuSans-4c" x="355.197266"/>
      <use xlink:href="#DejaVuSans-61" x="410.910156"/>
      <use xlink:href="#DejaVuSans-6e" x="472.189453"/>
      <use xlink:href="#DejaVuSans-67" x="535.568359"/>
     </g>
    </g>
   </g>
   <g id="text_11">
    <g id="patch_12">
     <path d="M 142.434355 494.185686 
L 200.468887 494.185686 
L 200.468887 477.555373 
L 142.434355 477.555373 
z
" clip-path="url(#paff64d4505)" style="fill: #ffffff; opacity: 0.7; stroke: #000000; stroke-linejoin: miter"/>
    </g>
    <g clip-path="url(#paff64d4505)">
     <!-- Jules White -->
     <g transform="translate(146.394355 488.353967)scale(0.09 -0.09)">
      <use xlink:href="#DejaVuSans-4a"/>
      <use xlink:href="#DejaVuSans-75" x="29.492188"/>
      <use xlink:href="#DejaVuSans-6c" x="92.871094"/>
      <use xlink:href="#DejaVuSans-65" x="120.654297"/>
      <use xlink:href="#DejaVuSans-73" x="182.177734"/>
      <use xlink:href="#DejaVuSans-20" x="234.277344"/>
      <use xlink:href="#DejaVuSans-57" x="266.064453"/>
      <use xlink:href="#DejaVuSans-68" x="364.941406"/>
      <use xlink:href="#DejaVuSans-69" x="428.320312"/>
      <use xlink:href="#DejaVuSans-74" x="456.103516"/>
      <use xlink:href="#DejaVuSans-65" x="495.3125"/>
     </g>
    </g>
   </g>
   <g id="text_12">
    <g id="patch_13">
     <path d="M 214.897624 521.06405 
L 293.890905 521.06405 
L 293.890905 504.433738 
L 214.897624 504.433738 
z
" clip-path="url(#paff64d4505)" style="fill: #ffffff; opacity: 0.7; stroke: #000000; stroke-linejoin: miter"/>
    </g>
    <g clip-path="url(#paff64d4505)">
     <!-- Lewis Milestone -->
     <g transform="translate(218.857624 515.232332)scale(0.09 -0.09)">
      <use xlink:href="#DejaVuSans-4c"/>
      <use xlink:href="#DejaVuSans-65" x="53.962891"/>
      <use xlink:href="#DejaVuSans-77" x="115.486328"/>
      <use xlink:href="#DejaVuSans-69" x="197.273438"/>
      <use xlink:href="#DejaVuSans-73" x="225.056641"/>
      <use xlink:href="#DejaVuSans-20" x="277.15625"/>
      <use xlink:href="#DejaVuSans-4d" x="308.943359"/>
      <use xlink:href="#DejaVuSans-69" x="395.222656"/>
      <use xlink:href="#DejaVuSans-6c" x="423.005859"/>
      <use xlink:href="#DejaVuSans-65" x="450.789062"/>
      <use xlink:href="#DejaVuSans-73" x="512.3125"/>
      <use xlink:href="#DejaVuSans-74" x="564.412109"/>
      <use xlink:href="#DejaVuSans-6f" x="603.621094"/>
      <use xlink:href="#DejaVuSans-6e" x="664.802734"/>
      <use xlink:href="#DejaVuSans-65" x="728.181641"/>
     </g>
    </g>
   </g>
   <g id="text_13">
    <g id="patch_14">
     <path d="M 300.132559 511.972129 
L 382.122559 511.972129 
L 382.122559 495.341816 
L 300.132559 495.341816 
z
" clip-path="url(#paff64d4505)" style="fill: #ffffff; opacity: 0.7; stroke: #000000; stroke-linejoin: miter"/>
    </g>
    <g clip-path="url(#paff64d4505)">
     <!-- Robert Clampett -->
     <g transform="translate(304.092559 506.14041)scale(0.09 -0.09)">
      <use xlink:href="#DejaVuSans-52"/>
      <use xlink:href="#DejaVuSans-6f" x="64.982422"/>
      <use xlink:href="#DejaVuSans-62" x="126.164062"/>
      <use xlink:href="#DejaVuSans-65" x="189.640625"/>
      <use xlink:href="#DejaVuSans-72" x="251.164062"/>
      <use xlink:href="#DejaVuSans-74" x="292.277344"/>
      <use xlink:href="#DejaVuSans-20" x="331.486328"/>
      <use xlink:href="#DejaVuSans-43" x="363.273438"/>
      <use xlink:href="#DejaVuSans-6c" x="433.097656"/>
      <use xlink:href="#DejaVuSans-61" x="460.880859"/>
      <use xlink:href="#DejaVuSans-6d" x="522.160156"/>
      <use xlink:href="#DejaVuSans-70" x="619.572266"/>
      <use xlink:href="#DejaVuSans-65" x="683.048828"/>
      <use xlink:href="#DejaVuSans-74" x="744.572266"/>
      <use xlink:href="#DejaVuSans-74" x="783.78125"/>
     </g>
    </g>
   </g>
   <g id="text_14">
    <g id="patch_15">
     <path d="M 387.836261 468.481993 
L 445.472823 468.481993 
L 445.472823 451.85168 
L 387.836261 451.85168 
z
" clip-path="url(#paff64d4505)" style="fill: #ffffff; opacity: 0.7; stroke: #000000; stroke-linejoin: miter"/>
    </g>
    <g clip-path="url(#paff64d4505)">
     <!-- Henry King -->
     <g transform="translate(391.796261 462.650274)scale(0.09 -0.09)">
      <defs>
       <path id="DejaVuSans-4b" d="M 628 4666 
L 1259 4666 
L 1259 2694 
L 3353 4666 
L 4166 4666 
L 1850 2491 
L 4331 0 
L 3500 0 
L 1259 2247 
L 1259 0 
L 628 0 
L 628 4666 
z
" transform="scale(0.015625)"/>
      </defs>
      <use xlink:href="#DejaVuSans-48"/>
      <use xlink:href="#DejaVuSans-65" x="75.195312"/>
      <use xlink:href="#DejaVuSans-6e" x="136.71875"/>
      <use xlink:href="#DejaVuSans-72" x="200.097656"/>
      <use xlink:href="#DejaVuSans-79" x="241.210938"/>
      <use xlink:href="#DejaVuSans-20" x="300.390625"/>
      <use xlink:href="#DejaVuSans-4b" x="332.177734"/>
      <use xlink:href="#DejaVuSans-69" x="397.753906"/>
      <use xlink:href="#DejaVuSans-6e" x="425.537109"/>
      <use xlink:href="#DejaVuSans-67" x="488.916016"/>
     </g>
    </g>
   </g>
   <g id="text_15">
    <g id="patch_16">
     <path d="M 425.462618 398.113505 
L 510.369181 398.113505 
L 510.369181 381.483192 
L 425.462618 381.483192 
z
" clip-path="url(#paff64d4505)" style="fill: #ffffff; opacity: 0.7; stroke: #000000; stroke-linejoin: miter"/>
    </g>
    <g clip-path="url(#paff64d4505)">
     <!-- Vincente Minnelli -->
     <g transform="translate(429.422618 392.281786)scale(0.09 -0.09)">
      <defs>
       <path id="DejaVuSans-56" d="M 1831 0 
L 50 4666 
L 709 4666 
L 2188 738 
L 3669 4666 
L 4325 4666 
L 2547 0 
L 1831 0 
z
" transform="scale(0.015625)"/>
      </defs>
      <use xlink:href="#DejaVuSans-56"/>
      <use xlink:href="#DejaVuSans-69" x="66.158203"/>
      <use xlink:href="#DejaVuSans-6e" x="93.941406"/>
      <use xlink:href="#DejaVuSans-63" x="157.320312"/>
      <use xlink:href="#DejaVuSans-65" x="212.300781"/>
      <use xlink:href="#DejaVuSans-6e" x="273.824219"/>
      <use xlink:href="#DejaVuSans-74" x="337.203125"/>
      <use xlink:href="#DejaVuSans-65" x="376.412109"/>
      <use xlink:href="#DejaVuSans-20" x="437.935547"/>
      <use xlink:href="#DejaVuSans-4d" x="469.722656"/>
      <use xlink:href="#DejaVuSans-69" x="556.001953"/>
      <use xlink:href="#DejaVuSans-6e" x="583.785156"/>
      <use xlink:href="#DejaVuSans-6e" x="647.164062"/>
      <use xlink:href="#DejaVuSans-65" x="710.542969"/>
      <use xlink:href="#DejaVuSans-6c" x="772.066406"/>
      <use xlink:href="#DejaVuSans-6c" x="799.849609"/>
      <use xlink:href="#DejaVuSans-69" x="827.632812"/>
     </g>
    </g>
   </g>
   <g id="text_16">
    <!-- Impactful directors for Short Film genre - Importance rank: 5 -->
    <g transform="translate(102.810937 16.318125)scale(0.12 -0.12)">
     <defs>
      <path id="DejaVuSans-49" d="M 628 4666 
L 1259 4666 
L 1259 0 
L 628 0 
L 628 4666 
z
" transform="scale(0.015625)"/>
      <path id="DejaVuSans-66" d="M 2375 4863 
L 2375 4384 
L 1825 4384 
Q 1516 4384 1395 4259 
Q 1275 4134 1275 3809 
L 1275 3500 
L 2222 3500 
L 2222 3053 
L 1275 3053 
L 1275 0 
L 697 0 
L 697 3053 
L 147 3053 
L 147 3500 
L 697 3500 
L 697 3744 
Q 697 4328 969 4595 
Q 1241 4863 1831 4863 
L 2375 4863 
z
" transform="scale(0.015625)"/>
      <path id="DejaVuSans-53" d="M 3425 4513 
L 3425 3897 
Q 3066 4069 2747 4153 
Q 2428 4238 2131 4238 
Q 1616 4238 1336 4038 
Q 1056 3838 1056 3469 
Q 1056 3159 1242 3001 
Q 1428 2844 1947 2747 
L 2328 2669 
Q 3034 2534 3370 2195 
Q 3706 1856 3706 1288 
Q 3706 609 3251 259 
Q 2797 -91 1919 -91 
Q 1588 -91 1214 -16 
Q 841 59 441 206 
L 441 856 
Q 825 641 1194 531 
Q 1563 422 1919 422 
Q 2459 422 2753 634 
Q 3047 847 3047 1241 
Q 3047 1584 2836 1778 
Q 2625 1972 2144 2069 
L 1759 2144 
Q 1053 2284 737 2584 
Q 422 2884 422 3419 
Q 422 4038 858 4394 
Q 1294 4750 2059 4750 
Q 2388 4750 2728 4690 
Q 3069 4631 3425 4513 
z
" transform="scale(0.015625)"/>
      <path id="DejaVuSans-2d" d="M 313 2009 
L 1997 2009 
L 1997 1497 
L 313 1497 
L 313 2009 
z
" transform="scale(0.015625)"/>
      <path id="DejaVuSans-3a" d="M 750 794 
L 1409 794 
L 1409 0 
L 750 0 
L 750 794 
z
M 750 3309 
L 1409 3309 
L 1409 2516 
L 750 2516 
L 750 3309 
z
" transform="scale(0.015625)"/>
      <path id="DejaVuSans-35" d="M 691 4666 
L 3169 4666 
L 3169 4134 
L 1269 4134 
L 1269 2991 
Q 1406 3038 1543 3061 
Q 1681 3084 1819 3084 
Q 2600 3084 3056 2656 
Q 3513 2228 3513 1497 
Q 3513 744 3044 326 
Q 2575 -91 1722 -91 
Q 1428 -91 1123 -41 
Q 819 9 494 109 
L 494 744 
Q 775 591 1075 516 
Q 1375 441 1709 441 
Q 2250 441 2565 725 
Q 2881 1009 2881 1497 
Q 2881 1984 2565 2268 
Q 2250 2553 1709 2553 
Q 1456 2553 1204 2497 
Q 953 2441 691 2322 
L 691 4666 
z
" transform="scale(0.015625)"/>
     </defs>
     <use xlink:href="#DejaVuSans-49"/>
     <use xlink:href="#DejaVuSans-6d" x="29.492188"/>
     <use xlink:href="#DejaVuSans-70" x="126.904297"/>
     <use xlink:href="#DejaVuSans-61" x="190.380859"/>
     <use xlink:href="#DejaVuSans-63" x="251.660156"/>
     <use xlink:href="#DejaVuSans-74" x="306.640625"/>
     <use xlink:href="#DejaVuSans-66" x="345.849609"/>
     <use xlink:href="#DejaVuSans-75" x="381.054688"/>
     <use xlink:href="#DejaVuSans-6c" x="444.433594"/>
     <use xlink:href="#DejaVuSans-20" x="472.216797"/>
     <use xlink:href="#DejaVuSans-64" x="504.003906"/>
     <use xlink:href="#DejaVuSans-69" x="567.480469"/>
     <use xlink:href="#DejaVuSans-72" x="595.263672"/>
     <use xlink:href="#DejaVuSans-65" x="634.126953"/>
     <use xlink:href="#DejaVuSans-63" x="695.650391"/>
     <use xlink:href="#DejaVuSans-74" x="750.630859"/>
     <use xlink:href="#DejaVuSans-6f" x="789.839844"/>
     <use xlink:href="#DejaVuSans-72" x="851.021484"/>
     <use xlink:href="#DejaVuSans-73" x="892.134766"/>
     <use xlink:href="#DejaVuSans-20" x="944.234375"/>
     <use xlink:href="#DejaVuSans-66" x="976.021484"/>
     <use xlink:href="#DejaVuSans-6f" x="1011.226562"/>
     <use xlink:href="#DejaVuSans-72" x="1072.408203"/>
     <use xlink:href="#DejaVuSans-20" x="1113.521484"/>
     <use xlink:href="#DejaVuSans-53" x="1145.308594"/>
     <use xlink:href="#DejaVuSans-68" x="1208.785156"/>
     <use xlink:href="#DejaVuSans-6f" x="1272.164062"/>
     <use xlink:href="#DejaVuSans-72" x="1333.345703"/>
     <use xlink:href="#DejaVuSans-74" x="1374.458984"/>
     <use xlink:href="#DejaVuSans-20" x="1413.667969"/>
     <use xlink:href="#DejaVuSans-46" x="1445.455078"/>
     <use xlink:href="#DejaVuSans-69" x="1495.724609"/>
     <use xlink:href="#DejaVuSans-6c" x="1523.507812"/>
     <use xlink:href="#DejaVuSans-6d" x="1551.291016"/>
     <use xlink:href="#DejaVuSans-20" x="1648.703125"/>
     <use xlink:href="#DejaVuSans-67" x="1680.490234"/>
     <use xlink:href="#DejaVuSans-65" x="1743.966797"/>
     <use xlink:href="#DejaVuSans-6e" x="1805.490234"/>
     <use xlink:href="#DejaVuSans-72" x="1868.869141"/>
     <use xlink:href="#DejaVuSans-65" x="1907.732422"/>
     <use xlink:href="#DejaVuSans-20" x="1969.255859"/>
     <use xlink:href="#DejaVuSans-2d" x="2001.042969"/>
     <use xlink:href="#DejaVuSans-20" x="2037.126953"/>
     <use xlink:href="#DejaVuSans-49" x="2068.914062"/>
     <use xlink:href="#DejaVuSans-6d" x="2098.40625"/>
     <use xlink:href="#DejaVuSans-70" x="2195.818359"/>
     <use xlink:href="#DejaVuSans-6f" x="2259.294922"/>
     <use xlink:href="#DejaVuSans-72" x="2320.476562"/>
     <use xlink:href="#DejaVuSans-74" x="2361.589844"/>
     <use xlink:href="#DejaVuSans-61" x="2400.798828"/>
     <use xlink:href="#DejaVuSans-6e" x="2462.078125"/>
     <use xlink:href="#DejaVuSans-63" x="2525.457031"/>
     <use xlink:href="#DejaVuSans-65" x="2580.4375"/>
     <use xlink:href="#DejaVuSans-20" x="2641.960938"/>
     <use xlink:href="#DejaVuSans-72" x="2673.748047"/>
     <use xlink:href="#DejaVuSans-61" x="2714.861328"/>
     <use xlink:href="#DejaVuSans-6e" x="2776.140625"/>
     <use xlink:href="#DejaVuSans-6b" x="2839.519531"/>
     <use xlink:href="#DejaVuSans-3a" x="2897.429688"/>
     <use xlink:href="#DejaVuSans-20" x="2931.121094"/>
     <use xlink:href="#DejaVuSans-35" x="2962.908203"/>
    </g>
   </g>
  </g>
 </g>
 <defs>
  <clipPath id="paff64d4505">
   <rect x="7.2" y="22.318125" width="554.4" height="554.4"/>
  </clipPath>
 </defs>
</svg>
