<?xml version="1.0" encoding="utf-8" standalone="no"?>
<!DOCTYPE svg PUBLIC "-//W3C//DTD SVG 1.1//EN"
  "http://www.w3.org/Graphics/SVG/1.1/DTD/svg11.dtd">
<svg xmlns:xlink="http://www.w3.org/1999/xlink" width="576pt" height="576pt" viewBox="0 0 576 576" xmlns="http://www.w3.org/2000/svg" version="1.1">
 <metadata>
  <rdf:RDF xmlns:dc="http://purl.org/dc/elements/1.1/" xmlns:cc="http://creativecommons.org/ns#" xmlns:rdf="http://www.w3.org/1999/02/22-rdf-syntax-ns#">
   <cc:Work>
    <dc:type rdf:resource="http://purl.org/dc/dcmitype/StillImage"/>
    <dc:date>2022-12-23T19:50:29.234260</dc:date>
    <dc:format>image/svg+xml</dc:format>
    <dc:creator>
     <cc:Agent>
      <dc:title>Matplotlib v3.5.3, https://matplotlib.org/</dc:title>
     </cc:Agent>
    </dc:creator>
   </cc:Work>
  </rdf:RDF>
 </metadata>
 <defs>
  <style type="text/css">*{stroke-linejoin: round; stroke-linecap: butt}</style>
 </defs>
 <g id="figure_1">
  <g id="patch_1">
   <path d="M 0 576 
L 576 576 
L 576 0 
L 0 0 
z
" style="fill: #ffffff"/>
  </g>
  <g id="axes_1">
   <g id="LineCollection_1">
    <path d="M 500.30088 288 
L 481.703099 200.793508 
" clip-path="url(#p9343eadf2b)" style="fill: none; stroke: #000000; stroke-opacity: 0.3; stroke-width: 5"/>
    <path d="M 500.30088 288 
L 481.703125 375.20646 
" clip-path="url(#p9343eadf2b)" style="fill: none; stroke: #000000; stroke-opacity: 0.3; stroke-width: 10"/>
   </g>
   <g id="PathCollection_1">
    <path d="M 500.30088 315.386128 
C 507.563766 315.386128 514.530161 312.500553 519.665797 307.364917 
C 524.801433 302.229281 527.687008 295.262886 527.687008 288 
C 527.687008 280.737114 524.801433 273.770719 519.665797 268.635083 
C 514.530161 263.499447 507.563766 260.613872 500.30088 260.613872 
C 493.037994 260.613872 486.071599 263.499447 480.935963 268.635083 
C 475.800328 273.770719 472.914752 280.737114 472.914752 288 
C 472.914752 295.262886 475.800328 302.229281 480.935963 307.364917 
C 486.071599 312.500553 493.037994 315.386128 500.30088 315.386128 
z
" clip-path="url(#p9343eadf2b)" style="fill: #c70039; fill-opacity: 0.99; stroke: #c70039; stroke-opacity: 0.99"/>
    <path d="M 481.703099 225.663098 
C 488.298592 225.663098 494.624838 223.042681 499.288555 218.378964 
C 503.952272 213.715247 506.572689 207.389001 506.572689 200.793508 
C 506.572689 194.198016 503.952272 187.87177 499.288555 183.208053 
C 494.624838 178.544335 488.298592 175.923919 481.703099 175.923919 
C 475.107607 175.923919 468.781361 178.544335 464.117644 183.208053 
C 459.453926 187.87177 456.83351 194.198016 456.83351 200.793508 
C 456.83351 207.389001 459.453926 213.715247 464.117644 218.378964 
C 468.781361 223.042681 475.107607 225.663098 481.703099 225.663098 
z
" clip-path="url(#p9343eadf2b)" style="fill: #c70039; fill-opacity: 0.99; stroke: #c70039; stroke-opacity: 0.99"/>
    <path d="M 429.125496 153.320929 
C 435.664112 153.320929 441.935804 150.723109 446.559304 146.099609 
C 451.182804 141.47611 453.780624 135.204418 453.780624 128.665802 
C 453.780624 122.127185 451.182804 115.855494 446.559304 111.231994 
C 441.935804 106.608494 435.664112 104.010674 429.125496 104.010674 
C 422.58688 104.010674 416.315188 106.608494 411.691688 111.231994 
C 407.068188 115.855494 404.470369 122.127185 404.470369 128.665802 
C 404.470369 135.204418 407.068188 141.47611 411.691688 146.099609 
C 416.315188 150.723109 422.58688 153.320929 429.125496 153.320929 
z
" clip-path="url(#p9343eadf2b)" style="fill: #c70039; fill-opacity: 0.99; stroke: #c70039; stroke-opacity: 0.99"/>
    <path d="M 351.65922 108.548377 
C 358.146072 108.548377 364.368112 105.971124 368.955009 101.384227 
C 373.541906 96.79733 376.11916 90.57529 376.11916 84.088438 
C 376.11916 77.601586 373.541906 71.379545 368.955009 66.792648 
C 364.368112 62.205752 358.146072 59.628498 351.65922 59.628498 
C 345.172368 59.628498 338.950328 62.205752 334.363431 66.792648 
C 329.776534 71.379545 327.19928 77.601586 327.19928 84.088438 
C 327.19928 90.57529 329.776534 96.79733 334.363431 101.384227 
C 338.950328 105.971124 345.172368 108.548377 351.65922 108.548377 
z
" clip-path="url(#p9343eadf2b)" style="fill: #c70039; fill-opacity: 0.99; stroke: #c70039; stroke-opacity: 0.99"/>
    <path d="M 262.698877 99.194457 
C 269.176523 99.194457 275.389733 96.620861 279.97012 92.040474 
C 284.550508 87.460087 287.124104 81.246877 287.124104 74.769231 
C 287.124104 68.291585 284.550508 62.078375 279.97012 57.497987 
C 275.389733 52.9176 269.176523 50.344004 262.698877 50.344004 
C 256.221231 50.344004 250.008021 52.9176 245.427634 57.497987 
C 240.847247 62.078375 238.273651 68.291585 238.273651 74.769231 
C 238.273651 81.246877 240.847247 87.460087 245.427634 92.040474 
C 250.008021 96.620861 256.221231 99.194457 262.698877 99.194457 
z
" clip-path="url(#p9343eadf2b)" style="fill: #c70039; fill-opacity: 0.99; stroke: #c70039; stroke-opacity: 0.99"/>
    <path d="M 177.62653 124.781695 
C 183.583556 124.781695 189.297399 122.414943 193.509653 118.20269 
C 197.721906 113.990437 200.088658 108.276593 200.088658 102.319567 
C 200.088658 96.362541 197.721906 90.648698 193.509653 86.436445 
C 189.297399 82.224191 183.583556 79.85744 177.62653 79.85744 
C 171.669504 79.85744 165.955661 82.224191 161.743407 86.436445 
C 157.531154 90.648698 155.164403 96.362541 155.164403 102.319567 
C 155.164403 108.276593 157.531154 113.990437 161.743407 118.20269 
C 165.955661 122.414943 171.669504 124.781695 177.62653 124.781695 
z
" clip-path="url(#p9343eadf2b)" style="fill: #c70039; fill-opacity: 0.99; stroke: #c70039; stroke-opacity: 0.99"/>
    <path d="M 111.151972 183.641786 
C 116.897877 183.641786 122.409219 181.358913 126.472188 177.295945 
C 130.535157 173.232976 132.818029 167.721634 132.818029 161.975729 
C 132.818029 156.229823 130.535157 150.718482 126.472188 146.655513 
C 122.409219 142.592544 116.897877 140.309672 111.151972 140.309672 
C 105.406066 140.309672 99.894725 142.592544 95.831756 146.655513 
C 91.768787 150.718482 89.485915 156.229823 89.485915 161.975729 
C 89.485915 167.721634 91.768787 173.232976 95.831756 177.295945 
C 99.894725 181.358913 105.406066 183.641786 111.151972 183.641786 
z
" clip-path="url(#p9343eadf2b)" style="fill: #c70039; fill-opacity: 0.99; stroke: #c70039; stroke-opacity: 0.99"/>
    <path d="M 74.769231 264.911555 
C 80.468155 264.911555 85.934434 262.647349 89.964182 258.6176 
C 93.99393 254.587852 96.258137 249.121573 96.258137 243.422649 
C 96.258137 237.723724 93.99393 232.257446 89.964182 228.227697 
C 85.934434 224.197949 80.468155 221.933742 74.769231 221.933742 
C 69.070306 221.933742 63.604028 224.197949 59.574279 228.227697 
C 55.544531 232.257446 53.280324 237.723724 53.280324 243.422649 
C 53.280324 249.121573 55.544531 254.587852 59.574279 258.6176 
C 63.604028 262.647349 69.070306 264.911555 74.769231 264.911555 
z
" clip-path="url(#p9343eadf2b)" style="fill: #c70039; fill-opacity: 0.99; stroke: #c70039; stroke-opacity: 0.99"/>
    <path d="M 74.769244 353.792583 
C 80.395579 353.792583 85.792231 351.557216 89.770651 347.578797 
C 93.74907 343.600377 95.984437 338.203725 95.984437 332.577389 
C 95.984437 326.951054 93.74907 321.554402 89.770651 317.575982 
C 85.792231 313.597563 80.395579 311.362196 74.769244 311.362196 
C 69.142909 311.362196 63.746256 313.597563 59.767836 317.575982 
C 55.789417 321.554402 53.55405 326.951054 53.55405 332.577389 
C 53.55405 338.203725 55.789417 343.600377 59.767836 347.578797 
C 63.746256 351.557216 69.142909 353.792583 74.769244 353.792583 
z
" clip-path="url(#p9343eadf2b)" style="fill: #c70039; fill-opacity: 0.99; stroke: #c70039; stroke-opacity: 0.99"/>
    <path d="M 111.151985 435.21446 
C 116.771685 435.21446 122.161974 432.98173 126.135702 429.008001 
C 130.10943 425.034273 132.342161 419.643985 132.342161 414.024284 
C 132.342161 408.404584 130.10943 403.014295 126.135702 399.040567 
C 122.161974 395.066838 116.771685 392.834108 111.151985 392.834108 
C 105.532284 392.834108 100.141996 395.066838 96.168267 399.040567 
C 92.194539 403.014295 89.961808 408.404584 89.961808 414.024284 
C 89.961808 419.643985 92.194539 425.034273 96.168267 429.008001 
C 100.141996 432.98173 105.532284 435.21446 111.151985 435.21446 
z
" clip-path="url(#p9343eadf2b)" style="fill: #c70039; fill-opacity: 0.99; stroke: #c70039; stroke-opacity: 0.99"/>
    <path d="M 177.626562 494.759186 
C 183.21671 494.759186 188.578651 492.538197 192.531483 488.585366 
C 196.484314 484.632535 198.705303 479.270593 198.705303 473.680446 
C 198.705303 468.090298 196.484314 462.728356 192.531483 458.775525 
C 188.578651 454.822694 183.21671 452.601705 177.626562 452.601705 
C 172.036415 452.601705 166.674473 454.822694 162.721642 458.775525 
C 158.768811 462.728356 156.547822 468.090298 156.547822 473.680446 
C 156.547822 479.270593 158.768811 484.632535 162.721642 488.585366 
C 166.674473 492.538197 172.036415 494.759186 177.626562 494.759186 
z
" clip-path="url(#p9343eadf2b)" style="fill: #c70039; fill-opacity: 0.99; stroke: #c70039; stroke-opacity: 0.99"/>
    <path d="M 262.698916 521.237063 
C 268.004647 521.237063 273.093783 519.129073 276.845501 515.377355 
C 280.59722 511.625637 282.705209 506.5365 282.705209 501.230769 
C 282.705209 495.925038 280.59722 490.835902 276.845501 487.084184 
C 273.093783 483.332465 268.004647 481.224476 262.698916 481.224476 
C 257.393185 481.224476 252.304048 483.332465 248.55233 487.084184 
C 244.800612 490.835902 242.692622 495.925038 242.692622 501.230769 
C 242.692622 506.5365 244.800612 511.625637 248.55233 515.377355 
C 252.304048 519.129073 257.393185 521.237063 262.698916 521.237063 
z
" clip-path="url(#p9343eadf2b)" style="fill: #c70039; fill-opacity: 0.99; stroke: #c70039; stroke-opacity: 0.99"/>
    <path d="M 351.659252 511.771117 
C 356.926071 511.771117 361.977884 509.678588 365.702087 505.954384 
C 369.42629 502.230181 371.51882 497.178368 371.51882 491.91155 
C 371.51882 486.644731 369.42629 481.592918 365.702087 477.868715 
C 361.977884 474.144511 356.926071 472.051982 351.659252 472.051982 
C 346.392433 472.051982 341.340621 474.144511 337.616417 477.868715 
C 333.892214 481.592918 331.799685 486.644731 331.799685 491.91155 
C 331.799685 497.178368 333.892214 502.230181 337.616417 505.954384 
C 341.340621 509.678588 346.392433 511.771117 351.659252 511.771117 
z
" clip-path="url(#p9343eadf2b)" style="fill: #c70039; fill-opacity: 0.99; stroke: #c70039; stroke-opacity: 0.99"/>
    <path d="M 429.125535 466.950769 
C 434.32792 466.950769 439.31793 464.883839 442.996572 461.205197 
C 446.675214 457.526555 448.742143 452.536545 448.742143 447.33416 
C 448.742143 442.131775 446.675214 437.141765 442.996572 433.463123 
C 439.31793 429.784481 434.32792 427.717551 429.125535 427.717551 
C 423.923149 427.717551 418.93314 429.784481 415.254498 433.463123 
C 411.575856 437.141765 409.508926 442.131775 409.508926 447.33416 
C 409.508926 452.536545 411.575856 457.526555 415.254498 461.205197 
C 418.93314 464.883839 423.923149 466.950769 429.125535 466.950769 
z
" clip-path="url(#p9343eadf2b)" style="fill: #c70039; fill-opacity: 0.99; stroke: #c70039; stroke-opacity: 0.99"/>
    <path d="M 481.703125 394.571376 
C 486.838761 394.571376 491.764746 392.530967 495.396189 388.899524 
C 499.027632 385.268081 501.068042 380.342096 501.068042 375.20646 
C 501.068042 370.070824 499.027632 365.144839 495.396189 361.513396 
C 491.764746 357.881953 486.838761 355.841543 481.703125 355.841543 
C 476.567489 355.841543 471.641504 357.881953 468.010061 361.513396 
C 464.378618 365.144839 462.338208 370.070824 462.338208 375.20646 
C 462.338208 380.342096 464.378618 385.268081 468.010061 388.899524 
C 471.641504 392.530967 476.567489 394.571376 481.703125 394.571376 
z
" clip-path="url(#p9343eadf2b)" style="fill: #c70039; fill-opacity: 0.99; stroke: #c70039; stroke-opacity: 0.99"/>
   </g>
   <g id="text_1">
    <g id="patch_2">
     <path d="M 468.938693 296.315156 
L 531.663068 296.315156 
L 531.663068 279.684844 
L 468.938693 279.684844 
z
" clip-path="url(#p9343eadf2b)" style="fill: #ffffff; opacity: 0.7; stroke: #000000; stroke-linejoin: miter"/>
    </g>
    <g clip-path="url(#p9343eadf2b)">
     <!-- Chuck Jones -->
     <g transform="translate(472.898693 290.483437)scale(0.09 -0.09)">
      <defs>
       <path id="DejaVuSans-43" d="M 4122 4306 
L 4122 3641 
Q 3803 3938 3442 4084 
Q 3081 4231 2675 4231 
Q 1875 4231 1450 3742 
Q 1025 3253 1025 2328 
Q 1025 1406 1450 917 
Q 1875 428 2675 428 
Q 3081 428 3442 575 
Q 3803 722 4122 1019 
L 4122 359 
Q 3791 134 3420 21 
Q 3050 -91 2638 -91 
Q 1578 -91 968 557 
Q 359 1206 359 2328 
Q 359 3453 968 4101 
Q 1578 4750 2638 4750 
Q 3056 4750 3426 4639 
Q 3797 4528 4122 4306 
z
" transform="scale(0.015625)"/>
       <path id="DejaVuSans-68" d="M 3513 2113 
L 3513 0 
L 2938 0 
L 2938 2094 
Q 2938 2591 2744 2837 
Q 2550 3084 2163 3084 
Q 1697 3084 1428 2787 
Q 1159 2491 1159 1978 
L 1159 0 
L 581 0 
L 581 4863 
L 1159 4863 
L 1159 2956 
Q 1366 3272 1645 3428 
Q 1925 3584 2291 3584 
Q 2894 3584 3203 3211 
Q 3513 2838 3513 2113 
z
" transform="scale(0.015625)"/>
       <path id="DejaVuSans-75" d="M 544 1381 
L 544 3500 
L 1119 3500 
L 1119 1403 
Q 1119 906 1312 657 
Q 1506 409 1894 409 
Q 2359 409 2629 706 
Q 2900 1003 2900 1516 
L 2900 3500 
L 3475 3500 
L 3475 0 
L 2900 0 
L 2900 538 
Q 2691 219 2414 64 
Q 2138 -91 1772 -91 
Q 1169 -91 856 284 
Q 544 659 544 1381 
z
M 1991 3584 
L 1991 3584 
z
" transform="scale(0.015625)"/>
       <path id="DejaVuSans-63" d="M 3122 3366 
L 3122 2828 
Q 2878 2963 2633 3030 
Q 2388 3097 2138 3097 
Q 1578 3097 1268 2742 
Q 959 2388 959 1747 
Q 959 1106 1268 751 
Q 1578 397 2138 397 
Q 2388 397 2633 464 
Q 2878 531 3122 666 
L 3122 134 
Q 2881 22 2623 -34 
Q 2366 -91 2075 -91 
Q 1284 -91 818 406 
Q 353 903 353 1747 
Q 353 2603 823 3093 
Q 1294 3584 2113 3584 
Q 2378 3584 2631 3529 
Q 2884 3475 3122 3366 
z
" transform="scale(0.015625)"/>
       <path id="DejaVuSans-6b" d="M 581 4863 
L 1159 4863 
L 1159 1991 
L 2875 3500 
L 3609 3500 
L 1753 1863 
L 3688 0 
L 2938 0 
L 1159 1709 
L 1159 0 
L 581 0 
L 581 4863 
z
" transform="scale(0.015625)"/>
       <path id="DejaVuSans-20" transform="scale(0.015625)"/>
       <path id="DejaVuSans-4a" d="M 628 4666 
L 1259 4666 
L 1259 325 
Q 1259 -519 939 -900 
Q 619 -1281 -91 -1281 
L -331 -1281 
L -331 -750 
L -134 -750 
Q 284 -750 456 -515 
Q 628 -281 628 325 
L 628 4666 
z
" transform="scale(0.015625)"/>
       <path id="DejaVuSans-6f" d="M 1959 3097 
Q 1497 3097 1228 2736 
Q 959 2375 959 1747 
Q 959 1119 1226 758 
Q 1494 397 1959 397 
Q 2419 397 2687 759 
Q 2956 1122 2956 1747 
Q 2956 2369 2687 2733 
Q 2419 3097 1959 3097 
z
M 1959 3584 
Q 2709 3584 3137 3096 
Q 3566 2609 3566 1747 
Q 3566 888 3137 398 
Q 2709 -91 1959 -91 
Q 1206 -91 779 398 
Q 353 888 353 1747 
Q 353 2609 779 3096 
Q 1206 3584 1959 3584 
z
" transform="scale(0.015625)"/>
       <path id="DejaVuSans-6e" d="M 3513 2113 
L 3513 0 
L 2938 0 
L 2938 2094 
Q 2938 2591 2744 2837 
Q 2550 3084 2163 3084 
Q 1697 3084 1428 2787 
Q 1159 2491 1159 1978 
L 1159 0 
L 581 0 
L 581 3500 
L 1159 3500 
L 1159 2956 
Q 1366 3272 1645 3428 
Q 1925 3584 2291 3584 
Q 2894 3584 3203 3211 
Q 3513 2838 3513 2113 
z
" transform="scale(0.015625)"/>
       <path id="DejaVuSans-65" d="M 3597 1894 
L 3597 1613 
L 953 1613 
Q 991 1019 1311 708 
Q 1631 397 2203 397 
Q 2534 397 2845 478 
Q 3156 559 3463 722 
L 3463 178 
Q 3153 47 2828 -22 
Q 2503 -91 2169 -91 
Q 1331 -91 842 396 
Q 353 884 353 1716 
Q 353 2575 817 3079 
Q 1281 3584 2069 3584 
Q 2775 3584 3186 3129 
Q 3597 2675 3597 1894 
z
M 3022 2063 
Q 3016 2534 2758 2815 
Q 2500 3097 2075 3097 
Q 1594 3097 1305 2825 
Q 1016 2553 972 2059 
L 3022 2063 
z
" transform="scale(0.015625)"/>
       <path id="DejaVuSans-73" d="M 2834 3397 
L 2834 2853 
Q 2591 2978 2328 3040 
Q 2066 3103 1784 3103 
Q 1356 3103 1142 2972 
Q 928 2841 928 2578 
Q 928 2378 1081 2264 
Q 1234 2150 1697 2047 
L 1894 2003 
Q 2506 1872 2764 1633 
Q 3022 1394 3022 966 
Q 3022 478 2636 193 
Q 2250 -91 1575 -91 
Q 1294 -91 989 -36 
Q 684 19 347 128 
L 347 722 
Q 666 556 975 473 
Q 1284 391 1588 391 
Q 1994 391 2212 530 
Q 2431 669 2431 922 
Q 2431 1156 2273 1281 
Q 2116 1406 1581 1522 
L 1381 1569 
Q 847 1681 609 1914 
Q 372 2147 372 2553 
Q 372 3047 722 3315 
Q 1072 3584 1716 3584 
Q 2034 3584 2315 3537 
Q 2597 3491 2834 3397 
z
" transform="scale(0.015625)"/>
      </defs>
      <use xlink:href="#DejaVuSans-43"/>
      <use xlink:href="#DejaVuSans-68" x="69.824219"/>
      <use xlink:href="#DejaVuSans-75" x="133.203125"/>
      <use xlink:href="#DejaVuSans-63" x="196.582031"/>
      <use xlink:href="#DejaVuSans-6b" x="251.5625"/>
      <use xlink:href="#DejaVuSans-20" x="309.472656"/>
      <use xlink:href="#DejaVuSans-4a" x="341.259766"/>
      <use xlink:href="#DejaVuSans-6f" x="370.751953"/>
      <use xlink:href="#DejaVuSans-6e" x="431.933594"/>
      <use xlink:href="#DejaVuSans-65" x="495.3125"/>
      <use xlink:href="#DejaVuSans-73" x="556.835938"/>
     </g>
    </g>
   </g>
   <g id="text_2">
    <g id="patch_3">
     <path d="M 452.081849 209.108665 
L 511.324349 209.108665 
L 511.324349 192.478352 
L 452.081849 192.478352 
z
" clip-path="url(#p9343eadf2b)" style="fill: #ffffff; opacity: 0.7; stroke: #000000; stroke-linejoin: miter"/>
    </g>
    <g clip-path="url(#p9343eadf2b)">
     <!-- Friz Freleng -->
     <g transform="translate(456.041849 203.276946)scale(0.09 -0.09)">
      <defs>
       <path id="DejaVuSans-46" d="M 628 4666 
L 3309 4666 
L 3309 4134 
L 1259 4134 
L 1259 2759 
L 3109 2759 
L 3109 2228 
L 1259 2228 
L 1259 0 
L 628 0 
L 628 4666 
z
" transform="scale(0.015625)"/>
       <path id="DejaVuSans-72" d="M 2631 2963 
Q 2534 3019 2420 3045 
Q 2306 3072 2169 3072 
Q 1681 3072 1420 2755 
Q 1159 2438 1159 1844 
L 1159 0 
L 581 0 
L 581 3500 
L 1159 3500 
L 1159 2956 
Q 1341 3275 1631 3429 
Q 1922 3584 2338 3584 
Q 2397 3584 2469 3576 
Q 2541 3569 2628 3553 
L 2631 2963 
z
" transform="scale(0.015625)"/>
       <path id="DejaVuSans-69" d="M 603 3500 
L 1178 3500 
L 1178 0 
L 603 0 
L 603 3500 
z
M 603 4863 
L 1178 4863 
L 1178 4134 
L 603 4134 
L 603 4863 
z
" transform="scale(0.015625)"/>
       <path id="DejaVuSans-7a" d="M 353 3500 
L 3084 3500 
L 3084 2975 
L 922 459 
L 3084 459 
L 3084 0 
L 275 0 
L 275 525 
L 2438 3041 
L 353 3041 
L 353 3500 
z
" transform="scale(0.015625)"/>
       <path id="DejaVuSans-6c" d="M 603 4863 
L 1178 4863 
L 1178 0 
L 603 0 
L 603 4863 
z
" transform="scale(0.015625)"/>
       <path id="DejaVuSans-67" d="M 2906 1791 
Q 2906 2416 2648 2759 
Q 2391 3103 1925 3103 
Q 1463 3103 1205 2759 
Q 947 2416 947 1791 
Q 947 1169 1205 825 
Q 1463 481 1925 481 
Q 2391 481 2648 825 
Q 2906 1169 2906 1791 
z
M 3481 434 
Q 3481 -459 3084 -895 
Q 2688 -1331 1869 -1331 
Q 1566 -1331 1297 -1286 
Q 1028 -1241 775 -1147 
L 775 -588 
Q 1028 -725 1275 -790 
Q 1522 -856 1778 -856 
Q 2344 -856 2625 -561 
Q 2906 -266 2906 331 
L 2906 616 
Q 2728 306 2450 153 
Q 2172 0 1784 0 
Q 1141 0 747 490 
Q 353 981 353 1791 
Q 353 2603 747 3093 
Q 1141 3584 1784 3584 
Q 2172 3584 2450 3431 
Q 2728 3278 2906 2969 
L 2906 3500 
L 3481 3500 
L 3481 434 
z
" transform="scale(0.015625)"/>
      </defs>
      <use xlink:href="#DejaVuSans-46"/>
      <use xlink:href="#DejaVuSans-72" x="50.269531"/>
      <use xlink:href="#DejaVuSans-69" x="91.382812"/>
      <use xlink:href="#DejaVuSans-7a" x="119.166016"/>
      <use xlink:href="#DejaVuSans-20" x="171.65625"/>
      <use xlink:href="#DejaVuSans-46" x="203.443359"/>
      <use xlink:href="#DejaVuSans-72" x="253.712891"/>
      <use xlink:href="#DejaVuSans-65" x="292.576172"/>
      <use xlink:href="#DejaVuSans-6c" x="354.099609"/>
      <use xlink:href="#DejaVuSans-65" x="381.882812"/>
      <use xlink:href="#DejaVuSans-6e" x="443.40625"/>
      <use xlink:href="#DejaVuSans-67" x="506.785156"/>
     </g>
    </g>
   </g>
   <g id="text_3">
    <g id="patch_4">
     <path d="M 388.415965 136.980958 
L 469.835027 136.980958 
L 469.835027 120.350645 
L 388.415965 120.350645 
z
" clip-path="url(#p9343eadf2b)" style="fill: #ffffff; opacity: 0.7; stroke: #000000; stroke-linejoin: miter"/>
    </g>
    <g clip-path="url(#p9343eadf2b)">
     <!-- Alfred Hitchcock -->
     <g transform="translate(392.375965 131.149239)scale(0.09 -0.09)">
      <defs>
       <path id="DejaVuSans-41" d="M 2188 4044 
L 1331 1722 
L 3047 1722 
L 2188 4044 
z
M 1831 4666 
L 2547 4666 
L 4325 0 
L 3669 0 
L 3244 1197 
L 1141 1197 
L 716 0 
L 50 0 
L 1831 4666 
z
" transform="scale(0.015625)"/>
       <path id="DejaVuSans-66" d="M 2375 4863 
L 2375 4384 
L 1825 4384 
Q 1516 4384 1395 4259 
Q 1275 4134 1275 3809 
L 1275 3500 
L 2222 3500 
L 2222 3053 
L 1275 3053 
L 1275 0 
L 697 0 
L 697 3053 
L 147 3053 
L 147 3500 
L 697 3500 
L 697 3744 
Q 697 4328 969 4595 
Q 1241 4863 1831 4863 
L 2375 4863 
z
" transform="scale(0.015625)"/>
       <path id="DejaVuSans-64" d="M 2906 2969 
L 2906 4863 
L 3481 4863 
L 3481 0 
L 2906 0 
L 2906 525 
Q 2725 213 2448 61 
Q 2172 -91 1784 -91 
Q 1150 -91 751 415 
Q 353 922 353 1747 
Q 353 2572 751 3078 
Q 1150 3584 1784 3584 
Q 2172 3584 2448 3432 
Q 2725 3281 2906 2969 
z
M 947 1747 
Q 947 1113 1208 752 
Q 1469 391 1925 391 
Q 2381 391 2643 752 
Q 2906 1113 2906 1747 
Q 2906 2381 2643 2742 
Q 2381 3103 1925 3103 
Q 1469 3103 1208 2742 
Q 947 2381 947 1747 
z
" transform="scale(0.015625)"/>
       <path id="DejaVuSans-48" d="M 628 4666 
L 1259 4666 
L 1259 2753 
L 3553 2753 
L 3553 4666 
L 4184 4666 
L 4184 0 
L 3553 0 
L 3553 2222 
L 1259 2222 
L 1259 0 
L 628 0 
L 628 4666 
z
" transform="scale(0.015625)"/>
       <path id="DejaVuSans-74" d="M 1172 4494 
L 1172 3500 
L 2356 3500 
L 2356 3053 
L 1172 3053 
L 1172 1153 
Q 1172 725 1289 603 
Q 1406 481 1766 481 
L 2356 481 
L 2356 0 
L 1766 0 
Q 1100 0 847 248 
Q 594 497 594 1153 
L 594 3053 
L 172 3053 
L 172 3500 
L 594 3500 
L 594 4494 
L 1172 4494 
z
" transform="scale(0.015625)"/>
      </defs>
      <use xlink:href="#DejaVuSans-41"/>
      <use xlink:href="#DejaVuSans-6c" x="68.408203"/>
      <use xlink:href="#DejaVuSans-66" x="96.191406"/>
      <use xlink:href="#DejaVuSans-72" x="131.396484"/>
      <use xlink:href="#DejaVuSans-65" x="170.259766"/>
      <use xlink:href="#DejaVuSans-64" x="231.783203"/>
      <use xlink:href="#DejaVuSans-20" x="295.259766"/>
      <use xlink:href="#DejaVuSans-48" x="327.046875"/>
      <use xlink:href="#DejaVuSans-69" x="402.242188"/>
      <use xlink:href="#DejaVuSans-74" x="430.025391"/>
      <use xlink:href="#DejaVuSans-63" x="469.234375"/>
      <use xlink:href="#DejaVuSans-68" x="524.214844"/>
      <use xlink:href="#DejaVuSans-63" x="587.59375"/>
      <use xlink:href="#DejaVuSans-6f" x="642.574219"/>
      <use xlink:href="#DejaVuSans-63" x="703.755859"/>
      <use xlink:href="#DejaVuSans-6b" x="758.736328"/>
     </g>
    </g>
   </g>
   <g id="text_4">
    <g id="patch_5">
     <path d="M 316.876329 92.403594 
L 386.442111 92.403594 
L 386.442111 75.773281 
L 316.876329 75.773281 
z
" clip-path="url(#p9343eadf2b)" style="fill: #ffffff; opacity: 0.7; stroke: #000000; stroke-linejoin: miter"/>
    </g>
    <g clip-path="url(#p9343eadf2b)">
     <!-- William Wyler -->
     <g transform="translate(320.836329 86.571875)scale(0.09 -0.09)">
      <defs>
       <path id="DejaVuSans-57" d="M 213 4666 
L 850 4666 
L 1831 722 
L 2809 4666 
L 3519 4666 
L 4500 722 
L 5478 4666 
L 6119 4666 
L 4947 0 
L 4153 0 
L 3169 4050 
L 2175 0 
L 1381 0 
L 213 4666 
z
" transform="scale(0.015625)"/>
       <path id="DejaVuSans-61" d="M 2194 1759 
Q 1497 1759 1228 1600 
Q 959 1441 959 1056 
Q 959 750 1161 570 
Q 1363 391 1709 391 
Q 2188 391 2477 730 
Q 2766 1069 2766 1631 
L 2766 1759 
L 2194 1759 
z
M 3341 1997 
L 3341 0 
L 2766 0 
L 2766 531 
Q 2569 213 2275 61 
Q 1981 -91 1556 -91 
Q 1019 -91 701 211 
Q 384 513 384 1019 
Q 384 1609 779 1909 
Q 1175 2209 1959 2209 
L 2766 2209 
L 2766 2266 
Q 2766 2663 2505 2880 
Q 2244 3097 1772 3097 
Q 1472 3097 1187 3025 
Q 903 2953 641 2809 
L 641 3341 
Q 956 3463 1253 3523 
Q 1550 3584 1831 3584 
Q 2591 3584 2966 3190 
Q 3341 2797 3341 1997 
z
" transform="scale(0.015625)"/>
       <path id="DejaVuSans-6d" d="M 3328 2828 
Q 3544 3216 3844 3400 
Q 4144 3584 4550 3584 
Q 5097 3584 5394 3201 
Q 5691 2819 5691 2113 
L 5691 0 
L 5113 0 
L 5113 2094 
Q 5113 2597 4934 2840 
Q 4756 3084 4391 3084 
Q 3944 3084 3684 2787 
Q 3425 2491 3425 1978 
L 3425 0 
L 2847 0 
L 2847 2094 
Q 2847 2600 2669 2842 
Q 2491 3084 2119 3084 
Q 1678 3084 1418 2786 
Q 1159 2488 1159 1978 
L 1159 0 
L 581 0 
L 581 3500 
L 1159 3500 
L 1159 2956 
Q 1356 3278 1631 3431 
Q 1906 3584 2284 3584 
Q 2666 3584 2933 3390 
Q 3200 3197 3328 2828 
z
" transform="scale(0.015625)"/>
       <path id="DejaVuSans-79" d="M 2059 -325 
Q 1816 -950 1584 -1140 
Q 1353 -1331 966 -1331 
L 506 -1331 
L 506 -850 
L 844 -850 
Q 1081 -850 1212 -737 
Q 1344 -625 1503 -206 
L 1606 56 
L 191 3500 
L 800 3500 
L 1894 763 
L 2988 3500 
L 3597 3500 
L 2059 -325 
z
" transform="scale(0.015625)"/>
      </defs>
      <use xlink:href="#DejaVuSans-57"/>
      <use xlink:href="#DejaVuSans-69" x="96.626953"/>
      <use xlink:href="#DejaVuSans-6c" x="124.410156"/>
      <use xlink:href="#DejaVuSans-6c" x="152.193359"/>
      <use xlink:href="#DejaVuSans-69" x="179.976562"/>
      <use xlink:href="#DejaVuSans-61" x="207.759766"/>
      <use xlink:href="#DejaVuSans-6d" x="269.039062"/>
      <use xlink:href="#DejaVuSans-20" x="366.451172"/>
      <use xlink:href="#DejaVuSans-57" x="398.238281"/>
      <use xlink:href="#DejaVuSans-79" x="495.365234"/>
      <use xlink:href="#DejaVuSans-6c" x="554.544922"/>
      <use xlink:href="#DejaVuSans-65" x="582.328125"/>
      <use xlink:href="#DejaVuSans-72" x="643.851562"/>
     </g>
    </g>
   </g>
   <g id="text_5">
    <g id="patch_6">
     <path d="M 229.313096 83.084387 
L 296.084658 83.084387 
L 296.084658 66.454075 
L 229.313096 66.454075 
z
" clip-path="url(#p9343eadf2b)" style="fill: #ffffff; opacity: 0.7; stroke: #000000; stroke-linejoin: miter"/>
    </g>
    <g clip-path="url(#p9343eadf2b)">
     <!-- Priyadarshan -->
     <g transform="translate(233.273096 77.252668)scale(0.09 -0.09)">
      <defs>
       <path id="DejaVuSans-50" d="M 1259 4147 
L 1259 2394 
L 2053 2394 
Q 2494 2394 2734 2622 
Q 2975 2850 2975 3272 
Q 2975 3691 2734 3919 
Q 2494 4147 2053 4147 
L 1259 4147 
z
M 628 4666 
L 2053 4666 
Q 2838 4666 3239 4311 
Q 3641 3956 3641 3272 
Q 3641 2581 3239 2228 
Q 2838 1875 2053 1875 
L 1259 1875 
L 1259 0 
L 628 0 
L 628 4666 
z
" transform="scale(0.015625)"/>
      </defs>
      <use xlink:href="#DejaVuSans-50"/>
      <use xlink:href="#DejaVuSans-72" x="58.552734"/>
      <use xlink:href="#DejaVuSans-69" x="99.666016"/>
      <use xlink:href="#DejaVuSans-79" x="127.449219"/>
      <use xlink:href="#DejaVuSans-61" x="186.628906"/>
      <use xlink:href="#DejaVuSans-64" x="247.908203"/>
      <use xlink:href="#DejaVuSans-61" x="311.384766"/>
      <use xlink:href="#DejaVuSans-72" x="372.664062"/>
      <use xlink:href="#DejaVuSans-73" x="413.777344"/>
      <use xlink:href="#DejaVuSans-68" x="465.876953"/>
      <use xlink:href="#DejaVuSans-61" x="529.255859"/>
      <use xlink:href="#DejaVuSans-6e" x="590.535156"/>
     </g>
    </g>
   </g>
   <g id="text_6">
    <g id="patch_7">
     <path d="M 141.233483 110.634724 
L 214.019577 110.634724 
L 214.019577 94.004411 
L 141.233483 94.004411 
z
" clip-path="url(#p9343eadf2b)" style="fill: #ffffff; opacity: 0.7; stroke: #000000; stroke-linejoin: miter"/>
    </g>
    <g clip-path="url(#p9343eadf2b)">
     <!-- Robert Altman -->
     <g transform="translate(145.193483 104.803005)scale(0.09 -0.09)">
      <defs>
       <path id="DejaVuSans-52" d="M 2841 2188 
Q 3044 2119 3236 1894 
Q 3428 1669 3622 1275 
L 4263 0 
L 3584 0 
L 2988 1197 
Q 2756 1666 2539 1819 
Q 2322 1972 1947 1972 
L 1259 1972 
L 1259 0 
L 628 0 
L 628 4666 
L 2053 4666 
Q 2853 4666 3247 4331 
Q 3641 3997 3641 3322 
Q 3641 2881 3436 2590 
Q 3231 2300 2841 2188 
z
M 1259 4147 
L 1259 2491 
L 2053 2491 
Q 2509 2491 2742 2702 
Q 2975 2913 2975 3322 
Q 2975 3731 2742 3939 
Q 2509 4147 2053 4147 
L 1259 4147 
z
" transform="scale(0.015625)"/>
       <path id="DejaVuSans-62" d="M 3116 1747 
Q 3116 2381 2855 2742 
Q 2594 3103 2138 3103 
Q 1681 3103 1420 2742 
Q 1159 2381 1159 1747 
Q 1159 1113 1420 752 
Q 1681 391 2138 391 
Q 2594 391 2855 752 
Q 3116 1113 3116 1747 
z
M 1159 2969 
Q 1341 3281 1617 3432 
Q 1894 3584 2278 3584 
Q 2916 3584 3314 3078 
Q 3713 2572 3713 1747 
Q 3713 922 3314 415 
Q 2916 -91 2278 -91 
Q 1894 -91 1617 61 
Q 1341 213 1159 525 
L 1159 0 
L 581 0 
L 581 4863 
L 1159 4863 
L 1159 2969 
z
" transform="scale(0.015625)"/>
      </defs>
      <use xlink:href="#DejaVuSans-52"/>
      <use xlink:href="#DejaVuSans-6f" x="64.982422"/>
      <use xlink:href="#DejaVuSans-62" x="126.164062"/>
      <use xlink:href="#DejaVuSans-65" x="189.640625"/>
      <use xlink:href="#DejaVuSans-72" x="251.164062"/>
      <use xlink:href="#DejaVuSans-74" x="292.277344"/>
      <use xlink:href="#DejaVuSans-20" x="331.486328"/>
      <use xlink:href="#DejaVuSans-41" x="363.273438"/>
      <use xlink:href="#DejaVuSans-6c" x="431.681641"/>
      <use xlink:href="#DejaVuSans-74" x="459.464844"/>
      <use xlink:href="#DejaVuSans-6d" x="498.673828"/>
      <use xlink:href="#DejaVuSans-61" x="596.085938"/>
      <use xlink:href="#DejaVuSans-6e" x="657.365234"/>
     </g>
    </g>
   </g>
   <g id="text_7">
    <g id="patch_8">
     <path d="M 73.719706 170.290885 
L 148.584238 170.290885 
L 148.584238 153.660572 
L 73.719706 153.660572 
z
" clip-path="url(#p9343eadf2b)" style="fill: #ffffff; opacity: 0.7; stroke: #000000; stroke-linejoin: miter"/>
    </g>
    <g clip-path="url(#p9343eadf2b)">
     <!-- Barry Levinson -->
     <g transform="translate(77.679706 164.459166)scale(0.09 -0.09)">
      <defs>
       <path id="DejaVuSans-42" d="M 1259 2228 
L 1259 519 
L 2272 519 
Q 2781 519 3026 730 
Q 3272 941 3272 1375 
Q 3272 1813 3026 2020 
Q 2781 2228 2272 2228 
L 1259 2228 
z
M 1259 4147 
L 1259 2741 
L 2194 2741 
Q 2656 2741 2882 2914 
Q 3109 3088 3109 3444 
Q 3109 3797 2882 3972 
Q 2656 4147 2194 4147 
L 1259 4147 
z
M 628 4666 
L 2241 4666 
Q 2963 4666 3353 4366 
Q 3744 4066 3744 3513 
Q 3744 3084 3544 2831 
Q 3344 2578 2956 2516 
Q 3422 2416 3680 2098 
Q 3938 1781 3938 1306 
Q 3938 681 3513 340 
Q 3088 0 2303 0 
L 628 0 
L 628 4666 
z
" transform="scale(0.015625)"/>
       <path id="DejaVuSans-4c" d="M 628 4666 
L 1259 4666 
L 1259 531 
L 3531 531 
L 3531 0 
L 628 0 
L 628 4666 
z
" transform="scale(0.015625)"/>
       <path id="DejaVuSans-76" d="M 191 3500 
L 800 3500 
L 1894 563 
L 2988 3500 
L 3597 3500 
L 2284 0 
L 1503 0 
L 191 3500 
z
" transform="scale(0.015625)"/>
      </defs>
      <use xlink:href="#DejaVuSans-42"/>
      <use xlink:href="#DejaVuSans-61" x="68.603516"/>
      <use xlink:href="#DejaVuSans-72" x="129.882812"/>
      <use xlink:href="#DejaVuSans-72" x="169.246094"/>
      <use xlink:href="#DejaVuSans-79" x="210.359375"/>
      <use xlink:href="#DejaVuSans-20" x="269.539062"/>
      <use xlink:href="#DejaVuSans-4c" x="301.326172"/>
      <use xlink:href="#DejaVuSans-65" x="355.289062"/>
      <use xlink:href="#DejaVuSans-76" x="416.8125"/>
      <use xlink:href="#DejaVuSans-69" x="475.992188"/>
      <use xlink:href="#DejaVuSans-6e" x="503.775391"/>
      <use xlink:href="#DejaVuSans-73" x="567.154297"/>
      <use xlink:href="#DejaVuSans-6f" x="619.253906"/>
      <use xlink:href="#DejaVuSans-6e" x="680.435547"/>
     </g>
    </g>
   </g>
   <g id="text_8">
    <g id="patch_9">
     <path d="M 51.147746 251.737805 
L 98.390715 251.737805 
L 98.390715 235.107493 
L 51.147746 235.107493 
z
" clip-path="url(#p9343eadf2b)" style="fill: #ffffff; opacity: 0.7; stroke: #000000; stroke-linejoin: miter"/>
    </g>
    <g clip-path="url(#p9343eadf2b)">
     <!-- Frank Oz -->
     <g transform="translate(55.107746 245.906086)scale(0.09 -0.09)">
      <defs>
       <path id="DejaVuSans-4f" d="M 2522 4238 
Q 1834 4238 1429 3725 
Q 1025 3213 1025 2328 
Q 1025 1447 1429 934 
Q 1834 422 2522 422 
Q 3209 422 3611 934 
Q 4013 1447 4013 2328 
Q 4013 3213 3611 3725 
Q 3209 4238 2522 4238 
z
M 2522 4750 
Q 3503 4750 4090 4092 
Q 4678 3434 4678 2328 
Q 4678 1225 4090 567 
Q 3503 -91 2522 -91 
Q 1538 -91 948 565 
Q 359 1222 359 2328 
Q 359 3434 948 4092 
Q 1538 4750 2522 4750 
z
" transform="scale(0.015625)"/>
      </defs>
      <use xlink:href="#DejaVuSans-46"/>
      <use xlink:href="#DejaVuSans-72" x="50.269531"/>
      <use xlink:href="#DejaVuSans-61" x="91.382812"/>
      <use xlink:href="#DejaVuSans-6e" x="152.662109"/>
      <use xlink:href="#DejaVuSans-6b" x="216.041016"/>
      <use xlink:href="#DejaVuSans-20" x="273.951172"/>
      <use xlink:href="#DejaVuSans-4f" x="305.738281"/>
      <use xlink:href="#DejaVuSans-7a" x="384.449219"/>
     </g>
    </g>
   </g>
   <g id="text_9">
    <g id="patch_10">
     <path d="M 43.750181 340.892546 
L 105.788306 340.892546 
L 105.788306 324.262233 
L 43.750181 324.262233 
z
" clip-path="url(#p9343eadf2b)" style="fill: #ffffff; opacity: 0.7; stroke: #000000; stroke-linejoin: miter"/>
    </g>
    <g clip-path="url(#p9343eadf2b)">
     <!-- Robert Wise -->
     <g transform="translate(47.710181 335.060827)scale(0.09 -0.09)">
      <use xlink:href="#DejaVuSans-52"/>
      <use xlink:href="#DejaVuSans-6f" x="64.982422"/>
      <use xlink:href="#DejaVuSans-62" x="126.164062"/>
      <use xlink:href="#DejaVuSans-65" x="189.640625"/>
      <use xlink:href="#DejaVuSans-72" x="251.164062"/>
      <use xlink:href="#DejaVuSans-74" x="292.277344"/>
      <use xlink:href="#DejaVuSans-20" x="331.486328"/>
      <use xlink:href="#DejaVuSans-57" x="363.273438"/>
      <use xlink:href="#DejaVuSans-69" x="459.900391"/>
      <use xlink:href="#DejaVuSans-73" x="487.683594"/>
      <use xlink:href="#DejaVuSans-65" x="539.783203"/>
     </g>
    </g>
   </g>
   <g id="text_10">
    <g id="patch_11">
     <path d="M 68.526438 422.33944 
L 153.777532 422.33944 
L 153.777532 405.709128 
L 68.526438 405.709128 
z
" clip-path="url(#p9343eadf2b)" style="fill: #ffffff; opacity: 0.7; stroke: #000000; stroke-linejoin: miter"/>
    </g>
    <g clip-path="url(#p9343eadf2b)">
     <!-- Richard Fleischer -->
     <g transform="translate(72.486438 416.507722)scale(0.09 -0.09)">
      <use xlink:href="#DejaVuSans-52"/>
      <use xlink:href="#DejaVuSans-69" x="69.482422"/>
      <use xlink:href="#DejaVuSans-63" x="97.265625"/>
      <use xlink:href="#DejaVuSans-68" x="152.246094"/>
      <use xlink:href="#DejaVuSans-61" x="215.625"/>
      <use xlink:href="#DejaVuSans-72" x="276.904297"/>
      <use xlink:href="#DejaVuSans-64" x="316.267578"/>
      <use xlink:href="#DejaVuSans-20" x="379.744141"/>
      <use xlink:href="#DejaVuSans-46" x="411.53125"/>
      <use xlink:href="#DejaVuSans-6c" x="469.050781"/>
      <use xlink:href="#DejaVuSans-65" x="496.833984"/>
      <use xlink:href="#DejaVuSans-69" x="558.357422"/>
      <use xlink:href="#DejaVuSans-73" x="586.140625"/>
      <use xlink:href="#DejaVuSans-63" x="638.240234"/>
      <use xlink:href="#DejaVuSans-68" x="693.220703"/>
      <use xlink:href="#DejaVuSans-65" x="756.599609"/>
      <use xlink:href="#DejaVuSans-72" x="818.123047"/>
     </g>
    </g>
   </g>
   <g id="text_11">
    <g id="patch_12">
     <path d="M 145.824922 481.995602 
L 209.428203 481.995602 
L 209.428203 465.365289 
L 145.824922 465.365289 
z
" clip-path="url(#p9343eadf2b)" style="fill: #ffffff; opacity: 0.7; stroke: #000000; stroke-linejoin: miter"/>
    </g>
    <g clip-path="url(#p9343eadf2b)">
     <!-- Woody Allen -->
     <g transform="translate(149.784922 476.163883)scale(0.09 -0.09)">
      <use xlink:href="#DejaVuSans-57"/>
      <use xlink:href="#DejaVuSans-6f" x="93.001953"/>
      <use xlink:href="#DejaVuSans-6f" x="154.183594"/>
      <use xlink:href="#DejaVuSans-64" x="215.365234"/>
      <use xlink:href="#DejaVuSans-79" x="278.841797"/>
      <use xlink:href="#DejaVuSans-20" x="338.021484"/>
      <use xlink:href="#DejaVuSans-41" x="369.808594"/>
      <use xlink:href="#DejaVuSans-6c" x="438.216797"/>
      <use xlink:href="#DejaVuSans-6c" x="466"/>
      <use xlink:href="#DejaVuSans-65" x="493.783203"/>
      <use xlink:href="#DejaVuSans-6e" x="555.306641"/>
     </g>
    </g>
   </g>
   <g id="text_12">
    <g id="patch_13">
     <path d="M 215.512197 509.545925 
L 309.885634 509.545925 
L 309.885634 492.915613 
L 215.512197 492.915613 
z
" clip-path="url(#p9343eadf2b)" style="fill: #ffffff; opacity: 0.7; stroke: #000000; stroke-linejoin: miter"/>
    </g>
    <g clip-path="url(#p9343eadf2b)">
     <!-- William A. Wellman -->
     <g transform="translate(219.472197 503.714207)scale(0.09 -0.09)">
      <defs>
       <path id="DejaVuSans-2e" d="M 684 794 
L 1344 794 
L 1344 0 
L 684 0 
L 684 794 
z
" transform="scale(0.015625)"/>
      </defs>
      <use xlink:href="#DejaVuSans-57"/>
      <use xlink:href="#DejaVuSans-69" x="96.626953"/>
      <use xlink:href="#DejaVuSans-6c" x="124.410156"/>
      <use xlink:href="#DejaVuSans-6c" x="152.193359"/>
      <use xlink:href="#DejaVuSans-69" x="179.976562"/>
      <use xlink:href="#DejaVuSans-61" x="207.759766"/>
      <use xlink:href="#DejaVuSans-6d" x="269.039062"/>
      <use xlink:href="#DejaVuSans-20" x="366.451172"/>
      <use xlink:href="#DejaVuSans-41" x="398.238281"/>
      <use xlink:href="#DejaVuSans-2e" x="464.896484"/>
      <use xlink:href="#DejaVuSans-20" x="496.683594"/>
      <use xlink:href="#DejaVuSans-57" x="528.470703"/>
      <use xlink:href="#DejaVuSans-65" x="621.472656"/>
      <use xlink:href="#DejaVuSans-6c" x="682.996094"/>
      <use xlink:href="#DejaVuSans-6c" x="710.779297"/>
      <use xlink:href="#DejaVuSans-6d" x="738.5625"/>
      <use xlink:href="#DejaVuSans-61" x="835.974609"/>
      <use xlink:href="#DejaVuSans-6e" x="897.253906"/>
     </g>
    </g>
   </g>
   <g id="text_13">
    <g id="patch_14">
     <path d="M 313.547065 500.226706 
L 389.77144 500.226706 
L 389.77144 483.596393 
L 313.547065 483.596393 
z
" clip-path="url(#p9343eadf2b)" style="fill: #ffffff; opacity: 0.7; stroke: #000000; stroke-linejoin: miter"/>
    </g>
    <g clip-path="url(#p9343eadf2b)">
     <!-- Michael Ritchie -->
     <g transform="translate(317.507065 494.394987)scale(0.09 -0.09)">
      <defs>
       <path id="DejaVuSans-4d" d="M 628 4666 
L 1569 4666 
L 2759 1491 
L 3956 4666 
L 4897 4666 
L 4897 0 
L 4281 0 
L 4281 4097 
L 3078 897 
L 2444 897 
L 1241 4097 
L 1241 0 
L 628 0 
L 628 4666 
z
" transform="scale(0.015625)"/>
      </defs>
      <use xlink:href="#DejaVuSans-4d"/>
      <use xlink:href="#DejaVuSans-69" x="86.279297"/>
      <use xlink:href="#DejaVuSans-63" x="114.0625"/>
      <use xlink:href="#DejaVuSans-68" x="169.042969"/>
      <use xlink:href="#DejaVuSans-61" x="232.421875"/>
      <use xlink:href="#DejaVuSans-65" x="293.701172"/>
      <use xlink:href="#DejaVuSans-6c" x="355.224609"/>
      <use xlink:href="#DejaVuSans-20" x="383.007812"/>
      <use xlink:href="#DejaVuSans-52" x="414.794922"/>
      <use xlink:href="#DejaVuSans-69" x="484.277344"/>
      <use xlink:href="#DejaVuSans-74" x="512.060547"/>
      <use xlink:href="#DejaVuSans-63" x="551.269531"/>
      <use xlink:href="#DejaVuSans-68" x="606.25"/>
      <use xlink:href="#DejaVuSans-69" x="669.628906"/>
      <use xlink:href="#DejaVuSans-65" x="697.412109"/>
     </g>
    </g>
   </g>
   <g id="text_14">
    <g id="patch_15">
     <path d="M 387.600378 455.649316 
L 470.650691 455.649316 
L 470.650691 439.019004 
L 387.600378 439.019004 
z
" clip-path="url(#p9343eadf2b)" style="fill: #ffffff; opacity: 0.7; stroke: #000000; stroke-linejoin: miter"/>
    </g>
    <g clip-path="url(#p9343eadf2b)">
     <!-- Henry Hathaway -->
     <g transform="translate(391.560378 449.817598)scale(0.09 -0.09)">
      <defs>
       <path id="DejaVuSans-77" d="M 269 3500 
L 844 3500 
L 1563 769 
L 2278 3500 
L 2956 3500 
L 3675 769 
L 4391 3500 
L 4966 3500 
L 4050 0 
L 3372 0 
L 2619 2869 
L 1863 0 
L 1184 0 
L 269 3500 
z
" transform="scale(0.015625)"/>
      </defs>
      <use xlink:href="#DejaVuSans-48"/>
      <use xlink:href="#DejaVuSans-65" x="75.195312"/>
      <use xlink:href="#DejaVuSans-6e" x="136.71875"/>
      <use xlink:href="#DejaVuSans-72" x="200.097656"/>
      <use xlink:href="#DejaVuSans-79" x="241.210938"/>
      <use xlink:href="#DejaVuSans-20" x="300.390625"/>
      <use xlink:href="#DejaVuSans-48" x="332.177734"/>
      <use xlink:href="#DejaVuSans-61" x="407.373047"/>
      <use xlink:href="#DejaVuSans-74" x="468.652344"/>
      <use xlink:href="#DejaVuSans-68" x="507.861328"/>
      <use xlink:href="#DejaVuSans-61" x="571.240234"/>
      <use xlink:href="#DejaVuSans-77" x="632.519531"/>
      <use xlink:href="#DejaVuSans-61" x="714.306641"/>
      <use xlink:href="#DejaVuSans-79" x="775.585938"/>
     </g>
    </g>
   </g>
   <g id="text_15">
    <g id="patch_16">
     <path d="M 445.481641 383.521616 
L 517.924609 383.521616 
L 517.924609 366.891303 
L 445.481641 366.891303 
z
" clip-path="url(#p9343eadf2b)" style="fill: #ffffff; opacity: 0.7; stroke: #000000; stroke-linejoin: miter"/>
    </g>
    <g clip-path="url(#p9343eadf2b)">
     <!-- Maurice Noble -->
     <g transform="translate(449.441641 377.689897)scale(0.09 -0.09)">
      <defs>
       <path id="DejaVuSans-4e" d="M 628 4666 
L 1478 4666 
L 3547 763 
L 3547 4666 
L 4159 4666 
L 4159 0 
L 3309 0 
L 1241 3903 
L 1241 0 
L 628 0 
L 628 4666 
z
" transform="scale(0.015625)"/>
      </defs>
      <use xlink:href="#DejaVuSans-4d"/>
      <use xlink:href="#DejaVuSans-61" x="86.279297"/>
      <use xlink:href="#DejaVuSans-75" x="147.558594"/>
      <use xlink:href="#DejaVuSans-72" x="210.9375"/>
      <use xlink:href="#DejaVuSans-69" x="252.050781"/>
      <use xlink:href="#DejaVuSans-63" x="279.833984"/>
      <use xlink:href="#DejaVuSans-65" x="334.814453"/>
      <use xlink:href="#DejaVuSans-20" x="396.337891"/>
      <use xlink:href="#DejaVuSans-4e" x="428.125"/>
      <use xlink:href="#DejaVuSans-6f" x="502.929688"/>
      <use xlink:href="#DejaVuSans-62" x="564.111328"/>
      <use xlink:href="#DejaVuSans-6c" x="627.587891"/>
      <use xlink:href="#DejaVuSans-65" x="655.371094"/>
     </g>
    </g>
   </g>
   <g id="text_16">
    <!-- Impactful directors for Silent film genre - Importance rank: 1 -->
    <g transform="translate(106.426875 4.8)scale(0.12 -0.12)">
     <defs>
      <path id="DejaVuSans-49" d="M 628 4666 
L 1259 4666 
L 1259 0 
L 628 0 
L 628 4666 
z
" transform="scale(0.015625)"/>
      <path id="DejaVuSans-70" d="M 1159 525 
L 1159 -1331 
L 581 -1331 
L 581 3500 
L 1159 3500 
L 1159 2969 
Q 1341 3281 1617 3432 
Q 1894 3584 2278 3584 
Q 2916 3584 3314 3078 
Q 3713 2572 3713 1747 
Q 3713 922 3314 415 
Q 2916 -91 2278 -91 
Q 1894 -91 1617 61 
Q 1341 213 1159 525 
z
M 3116 1747 
Q 3116 2381 2855 2742 
Q 2594 3103 2138 3103 
Q 1681 3103 1420 2742 
Q 1159 2381 1159 1747 
Q 1159 1113 1420 752 
Q 1681 391 2138 391 
Q 2594 391 2855 752 
Q 3116 1113 3116 1747 
z
" transform="scale(0.015625)"/>
      <path id="DejaVuSans-53" d="M 3425 4513 
L 3425 3897 
Q 3066 4069 2747 4153 
Q 2428 4238 2131 4238 
Q 1616 4238 1336 4038 
Q 1056 3838 1056 3469 
Q 1056 3159 1242 3001 
Q 1428 2844 1947 2747 
L 2328 2669 
Q 3034 2534 3370 2195 
Q 3706 1856 3706 1288 
Q 3706 609 3251 259 
Q 2797 -91 1919 -91 
Q 1588 -91 1214 -16 
Q 841 59 441 206 
L 441 856 
Q 825 641 1194 531 
Q 1563 422 1919 422 
Q 2459 422 2753 634 
Q 3047 847 3047 1241 
Q 3047 1584 2836 1778 
Q 2625 1972 2144 2069 
L 1759 2144 
Q 1053 2284 737 2584 
Q 422 2884 422 3419 
Q 422 4038 858 4394 
Q 1294 4750 2059 4750 
Q 2388 4750 2728 4690 
Q 3069 4631 3425 4513 
z
" transform="scale(0.015625)"/>
      <path id="DejaVuSans-2d" d="M 313 2009 
L 1997 2009 
L 1997 1497 
L 313 1497 
L 313 2009 
z
" transform="scale(0.015625)"/>
      <path id="DejaVuSans-3a" d="M 750 794 
L 1409 794 
L 1409 0 
L 750 0 
L 750 794 
z
M 750 3309 
L 1409 3309 
L 1409 2516 
L 750 2516 
L 750 3309 
z
" transform="scale(0.015625)"/>
      <path id="DejaVuSans-31" d="M 794 531 
L 1825 531 
L 1825 4091 
L 703 3866 
L 703 4441 
L 1819 4666 
L 2450 4666 
L 2450 531 
L 3481 531 
L 3481 0 
L 794 0 
L 794 531 
z
" transform="scale(0.015625)"/>
     </defs>
     <use xlink:href="#DejaVuSans-49"/>
     <use xlink:href="#DejaVuSans-6d" x="29.492188"/>
     <use xlink:href="#DejaVuSans-70" x="126.904297"/>
     <use xlink:href="#DejaVuSans-61" x="190.380859"/>
     <use xlink:href="#DejaVuSans-63" x="251.660156"/>
     <use xlink:href="#DejaVuSans-74" x="306.640625"/>
     <use xlink:href="#DejaVuSans-66" x="345.849609"/>
     <use xlink:href="#DejaVuSans-75" x="381.054688"/>
     <use xlink:href="#DejaVuSans-6c" x="444.433594"/>
     <use xlink:href="#DejaVuSans-20" x="472.216797"/>
     <use xlink:href="#DejaVuSans-64" x="504.003906"/>
     <use xlink:href="#DejaVuSans-69" x="567.480469"/>
     <use xlink:href="#DejaVuSans-72" x="595.263672"/>
     <use xlink:href="#DejaVuSans-65" x="634.126953"/>
     <use xlink:href="#DejaVuSans-63" x="695.650391"/>
     <use xlink:href="#DejaVuSans-74" x="750.630859"/>
     <use xlink:href="#DejaVuSans-6f" x="789.839844"/>
     <use xlink:href="#DejaVuSans-72" x="851.021484"/>
     <use xlink:href="#DejaVuSans-73" x="892.134766"/>
     <use xlink:href="#DejaVuSans-20" x="944.234375"/>
     <use xlink:href="#DejaVuSans-66" x="976.021484"/>
     <use xlink:href="#DejaVuSans-6f" x="1011.226562"/>
     <use xlink:href="#DejaVuSans-72" x="1072.408203"/>
     <use xlink:href="#DejaVuSans-20" x="1113.521484"/>
     <use xlink:href="#DejaVuSans-53" x="1145.308594"/>
     <use xlink:href="#DejaVuSans-69" x="1208.785156"/>
     <use xlink:href="#DejaVuSans-6c" x="1236.568359"/>
     <use xlink:href="#DejaVuSans-65" x="1264.351562"/>
     <use xlink:href="#DejaVuSans-6e" x="1325.875"/>
     <use xlink:href="#DejaVuSans-74" x="1389.253906"/>
     <use xlink:href="#DejaVuSans-20" x="1428.462891"/>
     <use xlink:href="#DejaVuSans-66" x="1460.25"/>
     <use xlink:href="#DejaVuSans-69" x="1495.455078"/>
     <use xlink:href="#DejaVuSans-6c" x="1523.238281"/>
     <use xlink:href="#DejaVuSans-6d" x="1551.021484"/>
     <use xlink:href="#DejaVuSans-20" x="1648.433594"/>
     <use xlink:href="#DejaVuSans-67" x="1680.220703"/>
     <use xlink:href="#DejaVuSans-65" x="1743.697266"/>
     <use xlink:href="#DejaVuSans-6e" x="1805.220703"/>
     <use xlink:href="#DejaVuSans-72" x="1868.599609"/>
     <use xlink:href="#DejaVuSans-65" x="1907.462891"/>
     <use xlink:href="#DejaVuSans-20" x="1968.986328"/>
     <use xlink:href="#DejaVuSans-2d" x="2000.773438"/>
     <use xlink:href="#DejaVuSans-20" x="2036.857422"/>
     <use xlink:href="#DejaVuSans-49" x="2068.644531"/>
     <use xlink:href="#DejaVuSans-6d" x="2098.136719"/>
     <use xlink:href="#DejaVuSans-70" x="2195.548828"/>
     <use xlink:href="#DejaVuSans-6f" x="2259.025391"/>
     <use xlink:href="#DejaVuSans-72" x="2320.207031"/>
     <use xlink:href="#DejaVuSans-74" x="2361.320312"/>
     <use xlink:href="#DejaVuSans-61" x="2400.529297"/>
     <use xlink:href="#DejaVuSans-6e" x="2461.808594"/>
     <use xlink:href="#DejaVuSans-63" x="2525.1875"/>
     <use xlink:href="#DejaVuSans-65" x="2580.167969"/>
     <use xlink:href="#DejaVuSans-20" x="2641.691406"/>
     <use xlink:href="#DejaVuSans-72" x="2673.478516"/>
     <use xlink:href="#DejaVuSans-61" x="2714.591797"/>
     <use xlink:href="#DejaVuSans-6e" x="2775.871094"/>
     <use xlink:href="#DejaVuSans-6b" x="2839.25"/>
     <use xlink:href="#DejaVuSans-3a" x="2897.160156"/>
     <use xlink:href="#DejaVuSans-20" x="2930.851562"/>
     <use xlink:href="#DejaVuSans-31" x="2962.638672"/>
    </g>
   </g>
  </g>
 </g>
 <defs>
  <clipPath id="p9343eadf2b">
   <rect x="10.8" y="10.8" width="554.4" height="554.4"/>
  </clipPath>
 </defs>
</svg>
