<?xml version="1.0" encoding="utf-8" standalone="no"?>
<!DOCTYPE svg PUBLIC "-//W3C//DTD SVG 1.1//EN"
  "http://www.w3.org/Graphics/SVG/1.1/DTD/svg11.dtd">
<svg xmlns:xlink="http://www.w3.org/1999/xlink" width="576pt" height="576pt" viewBox="0 0 576 576" xmlns="http://www.w3.org/2000/svg" version="1.1">
 <metadata>
  <rdf:RDF xmlns:dc="http://purl.org/dc/elements/1.1/" xmlns:cc="http://creativecommons.org/ns#" xmlns:rdf="http://www.w3.org/1999/02/22-rdf-syntax-ns#">
   <cc:Work>
    <dc:type rdf:resource="http://purl.org/dc/dcmitype/StillImage"/>
    <dc:date>2022-12-22T19:12:51.704607</dc:date>
    <dc:format>image/svg+xml</dc:format>
    <dc:creator>
     <cc:Agent>
      <dc:title>Matplotlib v3.5.2, https://matplotlib.org/</dc:title>
     </cc:Agent>
    </dc:creator>
   </cc:Work>
  </rdf:RDF>
 </metadata>
 <defs>
  <style type="text/css">*{stroke-linejoin: round; stroke-linecap: butt}</style>
 </defs>
 <g id="figure_1">
  <g id="patch_1">
   <path d="M 0 576 
L 576 576 
L 576 0 
L 0 0 
z
" style="fill: #ffffff"/>
  </g>
  <g id="axes_1">
   <g id="PathCollection_1">
    <path d="M 501.230769 315.386128 
C 508.493655 315.386128 515.46005 312.500553 520.595686 307.364917 
C 525.731322 302.229281 528.616897 295.262886 528.616897 288 
C 528.616897 280.737114 525.731322 273.770719 520.595686 268.635083 
C 515.46005 263.499447 508.493655 260.613872 501.230769 260.613872 
C 493.967883 260.613872 487.001488 263.499447 481.865852 268.635083 
C 476.730217 273.770719 473.844641 280.737114 473.844641 288 
C 473.844641 295.262886 476.730217 302.229281 481.865852 307.364917 
C 487.001488 312.500553 493.967883 315.386128 501.230769 315.386128 
z
" clip-path="url(#p4f1b1eefd3)" style="fill: #d62728; fill-opacity: 0.99; stroke: #d62728; stroke-opacity: 0.99"/>
    <path d="M 482.592348 222.050091 
C 488.22966 222.050091 493.63684 219.810364 497.623022 215.824182 
C 501.609203 211.838001 503.848931 206.43082 503.848931 200.793508 
C 503.848931 195.156197 501.609203 189.749016 497.623022 185.762834 
C 493.63684 181.776653 488.22966 179.536925 482.592348 179.536925 
C 476.955036 179.536925 471.547855 181.776653 467.561674 185.762834 
C 463.575493 189.749016 461.335765 195.156197 461.335765 200.793508 
C 461.335765 206.43082 463.575493 211.838001 467.561674 215.824182 
C 471.547855 219.810364 476.955036 222.050091 482.592348 222.050091 
z
" clip-path="url(#p4f1b1eefd3)" style="fill: #d62728; fill-opacity: 0.99; stroke: #d62728; stroke-opacity: 0.99"/>
    <path d="M 429.89985 149.657245 
C 435.466846 149.657245 440.806581 147.445454 444.743042 143.508994 
C 448.679502 139.572533 450.891293 134.232797 450.891293 128.665802 
C 450.891293 123.098806 448.679502 117.75907 444.743042 113.82261 
C 440.806581 109.886149 435.466846 107.674358 429.89985 107.674358 
C 424.332854 107.674358 418.993118 109.886149 415.056658 113.82261 
C 411.120197 117.75907 408.908407 123.098806 408.908407 128.665802 
C 408.908407 134.232797 411.120197 139.572533 415.056658 143.508994 
C 418.993118 147.445454 424.332854 149.657245 429.89985 149.657245 
z
" clip-path="url(#p4f1b1eefd3)" style="fill: #d62728; fill-opacity: 0.99; stroke: #d62728; stroke-opacity: 0.99"/>
    <path d="M 352.264291 104.652317 
C 357.717896 104.652317 362.948869 102.485577 366.80515 98.629296 
C 370.66143 94.773015 372.82817 89.542042 372.82817 84.088438 
C 372.82817 78.634833 370.66143 73.40386 366.80515 69.547579 
C 362.948869 65.691299 357.717896 63.524559 352.264291 63.524559 
C 346.810687 63.524559 341.579714 65.691299 337.723433 69.547579 
C 333.867152 73.40386 331.700412 78.634833 331.700412 84.088438 
C 331.700412 89.542042 333.867152 94.773015 337.723433 98.629296 
C 341.579714 102.485577 346.810687 104.652317 352.264291 104.652317 
z
" clip-path="url(#p4f1b1eefd3)" style="fill: #d62728; fill-opacity: 0.99; stroke: #d62728; stroke-opacity: 0.99"/>
    <path d="M 263.109549 94.901639 
C 268.448726 94.901639 273.569942 92.780361 277.345311 89.004993 
C 281.120679 85.229625 283.241956 80.108408 283.241956 74.769231 
C 283.241956 69.430054 281.120679 64.308837 277.345311 60.533469 
C 273.569942 56.7581 268.448726 54.636823 263.109549 54.636823 
C 257.770372 54.636823 252.649155 56.7581 248.873786 60.533469 
C 245.098418 64.308837 242.977141 69.430054 242.977141 74.769231 
C 242.977141 80.108408 245.098418 85.229625 248.873786 89.004993 
C 252.649155 92.780361 257.770372 94.901639 263.109549 94.901639 
z
" clip-path="url(#p4f1b1eefd3)" style="fill: #d62728; fill-opacity: 0.99; stroke: #d62728; stroke-opacity: 0.99"/>
    <path d="M 177.851298 122.336456 
C 183.159839 122.336456 188.251671 120.227351 192.005376 116.473645 
C 195.759081 112.71994 197.868187 107.628108 197.868187 102.319567 
C 197.868187 97.011026 195.759081 91.919195 192.005376 88.165489 
C 188.251671 84.411784 183.159839 82.302678 177.851298 82.302678 
C 172.542757 82.302678 167.450925 84.411784 163.69722 88.165489 
C 159.943515 91.919195 157.834409 97.011026 157.834409 102.319567 
C 157.834409 107.628108 159.943515 112.71994 163.69722 116.473645 
C 167.450925 120.227351 172.542757 122.336456 177.851298 122.336456 
z
" clip-path="url(#p4f1b1eefd3)" style="fill: #d62728; fill-opacity: 0.99; stroke: #d62728; stroke-opacity: 0.99"/>
    <path d="M 111.231477 181.99033 
C 116.539411 181.99033 121.630661 179.881466 125.383937 176.128189 
C 129.137214 172.374913 131.246079 167.283663 131.246079 161.975729 
C 131.246079 156.667794 129.137214 151.576545 125.383937 147.823268 
C 121.630661 144.069992 116.539411 141.961127 111.231477 141.961127 
C 105.923543 141.961127 100.832293 144.069992 97.079017 147.823268 
C 93.32574 151.576545 91.216875 156.667794 91.216875 161.975729 
C 91.216875 167.283663 93.32574 172.374913 97.079017 176.128189 
C 100.832293 179.881466 105.923543 181.99033 111.231477 181.99033 
z
" clip-path="url(#p4f1b1eefd3)" style="fill: #d62728; fill-opacity: 0.99; stroke: #d62728; stroke-opacity: 0.99"/>
    <path d="M 74.769231 263.299001 
C 80.040501 263.299001 85.096583 261.204704 88.823934 257.477353 
C 92.551285 253.750002 94.645583 248.693919 94.645583 243.422649 
C 94.645583 238.151379 92.551285 233.095296 88.823934 229.367945 
C 85.096583 225.640594 80.040501 223.546296 74.769231 223.546296 
C 69.49796 223.546296 64.441878 225.640594 60.714527 229.367945 
C 56.987176 233.095296 54.892878 238.151379 54.892878 243.422649 
C 54.892878 248.693919 56.987176 253.750002 60.714527 257.477353 
C 64.441878 261.204704 69.49796 263.299001 74.769231 263.299001 
z
" clip-path="url(#p4f1b1eefd3)" style="fill: #d62728; fill-opacity: 0.99; stroke: #d62728; stroke-opacity: 0.99"/>
    <path d="M 74.769244 352.435314 
C 80.035627 352.435314 85.087022 350.342958 88.810917 346.619063 
C 92.534812 342.895168 94.627169 337.843773 94.627169 332.577389 
C 94.627169 327.311006 92.534812 322.259611 88.810917 318.535716 
C 85.087022 314.811821 80.035627 312.719465 74.769244 312.719465 
C 69.50286 312.719465 64.451466 314.811821 60.72757 318.535716 
C 57.003675 322.259611 54.911319 327.311006 54.911319 332.577389 
C 54.911319 337.843773 57.003675 342.895168 60.72757 346.619063 
C 64.451466 350.342958 69.50286 352.435314 74.769244 352.435314 
z
" clip-path="url(#p4f1b1eefd3)" style="fill: #d62728; fill-opacity: 0.99; stroke: #d62728; stroke-opacity: 0.99"/>
    <path d="M 111.23149 433.694385 
C 116.448062 433.694385 121.451678 431.621819 125.140352 427.933146 
C 128.829025 424.244473 130.901591 419.240856 130.901591 414.024284 
C 130.901591 408.807712 128.829025 403.804096 125.140352 400.115422 
C 121.451678 396.426749 116.448062 394.354183 111.23149 394.354183 
C 106.014918 394.354183 101.011301 396.426749 97.322628 400.115422 
C 93.633955 403.804096 91.561389 408.807712 91.561389 414.024284 
C 91.561389 419.240856 93.633955 424.244473 97.322628 427.933146 
C 101.011301 431.621819 106.014918 433.694385 111.23149 433.694385 
z
" clip-path="url(#p4f1b1eefd3)" style="fill: #d62728; fill-opacity: 0.99; stroke: #d62728; stroke-opacity: 0.99"/>
    <path d="M 177.85133 493.228211 
C 183.035458 493.228211 188.007956 491.168535 191.673688 487.502803 
C 195.33942 483.837071 197.399096 478.864574 197.399096 473.680446 
C 197.399096 468.496318 195.33942 463.52382 191.673688 459.858088 
C 188.007956 456.192356 183.035458 454.13268 177.85133 454.13268 
C 172.667202 454.13268 167.694705 456.192356 164.028973 459.858088 
C 160.363241 463.52382 158.303565 468.496318 158.303565 473.680446 
C 158.303565 478.864574 160.363241 483.837071 164.028973 487.502803 
C 167.694705 491.168535 172.667202 493.228211 177.85133 493.228211 
z
" clip-path="url(#p4f1b1eefd3)" style="fill: #d62728; fill-opacity: 0.99; stroke: #d62728; stroke-opacity: 0.99"/>
    <path d="M 263.109587 520.749701 
C 268.286068 520.749701 273.251231 518.693063 276.911556 515.032738 
C 280.571881 511.372413 282.628519 506.40725 282.628519 501.230769 
C 282.628519 496.054288 280.571881 491.089125 276.911556 487.4288 
C 273.251231 483.768475 268.286068 481.711838 263.109587 481.711838 
C 257.933106 481.711838 252.967943 483.768475 249.307618 487.4288 
C 245.647293 491.089125 243.590656 496.054288 243.590656 501.230769 
C 243.590656 506.40725 245.647293 511.372413 249.307618 515.032738 
C 252.967943 518.693063 257.933106 520.749701 263.109587 520.749701 
z
" clip-path="url(#p4f1b1eefd3)" style="fill: #d62728; fill-opacity: 0.99; stroke: #d62728; stroke-opacity: 0.99"/>
    <path d="M 352.264323 511.365347 
C 357.423531 511.365347 362.372125 509.315573 366.020236 505.667462 
C 369.668346 502.019351 371.718121 497.070757 371.718121 491.91155 
C 371.718121 486.752342 369.668346 481.803748 366.020236 478.155637 
C 362.372125 474.507526 357.423531 472.457752 352.264323 472.457752 
C 347.105116 472.457752 342.156522 474.507526 338.508411 478.155637 
C 334.8603 481.803748 332.810525 486.752342 332.810525 491.91155 
C 332.810525 497.070757 334.8603 502.019351 338.508411 505.667462 
C 342.156522 509.315573 347.105116 511.365347 352.264323 511.365347 
z
" clip-path="url(#p4f1b1eefd3)" style="fill: #d62728; fill-opacity: 0.99; stroke: #d62728; stroke-opacity: 0.99"/>
    <path d="M 429.899888 466.699077 
C 435.035524 466.699077 439.961509 464.658667 443.592952 461.027224 
C 447.224395 457.395781 449.264805 452.469796 449.264805 447.33416 
C 449.264805 442.198524 447.224395 437.272539 443.592952 433.641096 
C 439.961509 430.009653 435.035524 427.969243 429.899888 427.969243 
C 424.764252 427.969243 419.838267 430.009653 416.206824 433.641096 
C 412.575381 437.272539 410.534972 442.198524 410.534972 447.33416 
C 410.534972 452.469796 412.575381 457.395781 416.206824 461.027224 
C 419.838267 464.658667 424.764252 466.699077 429.899888 466.699077 
z
" clip-path="url(#p4f1b1eefd3)" style="fill: #d62728; fill-opacity: 0.99; stroke: #d62728; stroke-opacity: 0.99"/>
    <path d="M 482.592374 394.571376 
C 487.728009 394.571376 492.653994 392.530967 496.285437 388.899524 
C 499.91688 385.268081 501.95729 380.342096 501.95729 375.20646 
C 501.95729 370.070824 499.91688 365.144839 496.285437 361.513396 
C 492.653994 357.881953 487.728009 355.841543 482.592374 355.841543 
C 477.456738 355.841543 472.530753 357.881953 468.89931 361.513396 
C 465.267867 365.144839 463.227457 370.070824 463.227457 375.20646 
C 463.227457 380.342096 465.267867 385.268081 468.89931 388.899524 
C 472.530753 392.530967 477.456738 394.571376 482.592374 394.571376 
z
" clip-path="url(#p4f1b1eefd3)" style="fill: #d62728; fill-opacity: 0.99; stroke: #d62728; stroke-opacity: 0.99"/>
   </g>
   <g id="text_1">
    <g id="patch_2">
     <path d="M 469.34405 296.315156 
L 533.117488 296.315156 
L 533.117488 279.684844 
L 469.34405 279.684844 
z
" clip-path="url(#p4f1b1eefd3)" style="fill: #ffffff; opacity: 0.7; stroke: #000000; stroke-linejoin: miter"/>
    </g>
    <g clip-path="url(#p4f1b1eefd3)">
     <!-- Raja Gosnell -->
     <g transform="translate(473.30405 290.483437)scale(0.09 -0.09)">
      <defs>
       <path id="DejaVuSans-52" d="M 2841 2188 
Q 3044 2119 3236 1894 
Q 3428 1669 3622 1275 
L 4263 0 
L 3584 0 
L 2988 1197 
Q 2756 1666 2539 1819 
Q 2322 1972 1947 1972 
L 1259 1972 
L 1259 0 
L 628 0 
L 628 4666 
L 2053 4666 
Q 2853 4666 3247 4331 
Q 3641 3997 3641 3322 
Q 3641 2881 3436 2590 
Q 3231 2300 2841 2188 
z
M 1259 4147 
L 1259 2491 
L 2053 2491 
Q 2509 2491 2742 2702 
Q 2975 2913 2975 3322 
Q 2975 3731 2742 3939 
Q 2509 4147 2053 4147 
L 1259 4147 
z
" transform="scale(0.015625)"/>
       <path id="DejaVuSans-61" d="M 2194 1759 
Q 1497 1759 1228 1600 
Q 959 1441 959 1056 
Q 959 750 1161 570 
Q 1363 391 1709 391 
Q 2188 391 2477 730 
Q 2766 1069 2766 1631 
L 2766 1759 
L 2194 1759 
z
M 3341 1997 
L 3341 0 
L 2766 0 
L 2766 531 
Q 2569 213 2275 61 
Q 1981 -91 1556 -91 
Q 1019 -91 701 211 
Q 384 513 384 1019 
Q 384 1609 779 1909 
Q 1175 2209 1959 2209 
L 2766 2209 
L 2766 2266 
Q 2766 2663 2505 2880 
Q 2244 3097 1772 3097 
Q 1472 3097 1187 3025 
Q 903 2953 641 2809 
L 641 3341 
Q 956 3463 1253 3523 
Q 1550 3584 1831 3584 
Q 2591 3584 2966 3190 
Q 3341 2797 3341 1997 
z
" transform="scale(0.015625)"/>
       <path id="DejaVuSans-6a" d="M 603 3500 
L 1178 3500 
L 1178 -63 
Q 1178 -731 923 -1031 
Q 669 -1331 103 -1331 
L -116 -1331 
L -116 -844 
L 38 -844 
Q 366 -844 484 -692 
Q 603 -541 603 -63 
L 603 3500 
z
M 603 4863 
L 1178 4863 
L 1178 4134 
L 603 4134 
L 603 4863 
z
" transform="scale(0.015625)"/>
       <path id="DejaVuSans-20" transform="scale(0.015625)"/>
       <path id="DejaVuSans-47" d="M 3809 666 
L 3809 1919 
L 2778 1919 
L 2778 2438 
L 4434 2438 
L 4434 434 
Q 4069 175 3628 42 
Q 3188 -91 2688 -91 
Q 1594 -91 976 548 
Q 359 1188 359 2328 
Q 359 3472 976 4111 
Q 1594 4750 2688 4750 
Q 3144 4750 3555 4637 
Q 3966 4525 4313 4306 
L 4313 3634 
Q 3963 3931 3569 4081 
Q 3175 4231 2741 4231 
Q 1884 4231 1454 3753 
Q 1025 3275 1025 2328 
Q 1025 1384 1454 906 
Q 1884 428 2741 428 
Q 3075 428 3337 486 
Q 3600 544 3809 666 
z
" transform="scale(0.015625)"/>
       <path id="DejaVuSans-6f" d="M 1959 3097 
Q 1497 3097 1228 2736 
Q 959 2375 959 1747 
Q 959 1119 1226 758 
Q 1494 397 1959 397 
Q 2419 397 2687 759 
Q 2956 1122 2956 1747 
Q 2956 2369 2687 2733 
Q 2419 3097 1959 3097 
z
M 1959 3584 
Q 2709 3584 3137 3096 
Q 3566 2609 3566 1747 
Q 3566 888 3137 398 
Q 2709 -91 1959 -91 
Q 1206 -91 779 398 
Q 353 888 353 1747 
Q 353 2609 779 3096 
Q 1206 3584 1959 3584 
z
" transform="scale(0.015625)"/>
       <path id="DejaVuSans-73" d="M 2834 3397 
L 2834 2853 
Q 2591 2978 2328 3040 
Q 2066 3103 1784 3103 
Q 1356 3103 1142 2972 
Q 928 2841 928 2578 
Q 928 2378 1081 2264 
Q 1234 2150 1697 2047 
L 1894 2003 
Q 2506 1872 2764 1633 
Q 3022 1394 3022 966 
Q 3022 478 2636 193 
Q 2250 -91 1575 -91 
Q 1294 -91 989 -36 
Q 684 19 347 128 
L 347 722 
Q 666 556 975 473 
Q 1284 391 1588 391 
Q 1994 391 2212 530 
Q 2431 669 2431 922 
Q 2431 1156 2273 1281 
Q 2116 1406 1581 1522 
L 1381 1569 
Q 847 1681 609 1914 
Q 372 2147 372 2553 
Q 372 3047 722 3315 
Q 1072 3584 1716 3584 
Q 2034 3584 2315 3537 
Q 2597 3491 2834 3397 
z
" transform="scale(0.015625)"/>
       <path id="DejaVuSans-6e" d="M 3513 2113 
L 3513 0 
L 2938 0 
L 2938 2094 
Q 2938 2591 2744 2837 
Q 2550 3084 2163 3084 
Q 1697 3084 1428 2787 
Q 1159 2491 1159 1978 
L 1159 0 
L 581 0 
L 581 3500 
L 1159 3500 
L 1159 2956 
Q 1366 3272 1645 3428 
Q 1925 3584 2291 3584 
Q 2894 3584 3203 3211 
Q 3513 2838 3513 2113 
z
" transform="scale(0.015625)"/>
       <path id="DejaVuSans-65" d="M 3597 1894 
L 3597 1613 
L 953 1613 
Q 991 1019 1311 708 
Q 1631 397 2203 397 
Q 2534 397 2845 478 
Q 3156 559 3463 722 
L 3463 178 
Q 3153 47 2828 -22 
Q 2503 -91 2169 -91 
Q 1331 -91 842 396 
Q 353 884 353 1716 
Q 353 2575 817 3079 
Q 1281 3584 2069 3584 
Q 2775 3584 3186 3129 
Q 3597 2675 3597 1894 
z
M 3022 2063 
Q 3016 2534 2758 2815 
Q 2500 3097 2075 3097 
Q 1594 3097 1305 2825 
Q 1016 2553 972 2059 
L 3022 2063 
z
" transform="scale(0.015625)"/>
       <path id="DejaVuSans-6c" d="M 603 4863 
L 1178 4863 
L 1178 0 
L 603 0 
L 603 4863 
z
" transform="scale(0.015625)"/>
      </defs>
      <use xlink:href="#DejaVuSans-52"/>
      <use xlink:href="#DejaVuSans-61" x="67.232422"/>
      <use xlink:href="#DejaVuSans-6a" x="128.511719"/>
      <use xlink:href="#DejaVuSans-61" x="156.294922"/>
      <use xlink:href="#DejaVuSans-20" x="217.574219"/>
      <use xlink:href="#DejaVuSans-47" x="249.361328"/>
      <use xlink:href="#DejaVuSans-6f" x="326.851562"/>
      <use xlink:href="#DejaVuSans-73" x="388.033203"/>
      <use xlink:href="#DejaVuSans-6e" x="440.132812"/>
      <use xlink:href="#DejaVuSans-65" x="503.511719"/>
      <use xlink:href="#DejaVuSans-6c" x="565.035156"/>
      <use xlink:href="#DejaVuSans-6c" x="592.818359"/>
     </g>
    </g>
   </g>
   <g id="text_2">
    <g id="patch_3">
     <path d="M 452.444457 209.108665 
L 512.740238 209.108665 
L 512.740238 192.478352 
L 452.444457 192.478352 
z
" clip-path="url(#p4f1b1eefd3)" style="fill: #ffffff; opacity: 0.7; stroke: #000000; stroke-linejoin: miter"/>
    </g>
    <g clip-path="url(#p4f1b1eefd3)">
     <!-- David Yates -->
     <g transform="translate(456.404457 203.276946)scale(0.09 -0.09)">
      <defs>
       <path id="DejaVuSans-44" d="M 1259 4147 
L 1259 519 
L 2022 519 
Q 2988 519 3436 956 
Q 3884 1394 3884 2338 
Q 3884 3275 3436 3711 
Q 2988 4147 2022 4147 
L 1259 4147 
z
M 628 4666 
L 1925 4666 
Q 3281 4666 3915 4102 
Q 4550 3538 4550 2338 
Q 4550 1131 3912 565 
Q 3275 0 1925 0 
L 628 0 
L 628 4666 
z
" transform="scale(0.015625)"/>
       <path id="DejaVuSans-76" d="M 191 3500 
L 800 3500 
L 1894 563 
L 2988 3500 
L 3597 3500 
L 2284 0 
L 1503 0 
L 191 3500 
z
" transform="scale(0.015625)"/>
       <path id="DejaVuSans-69" d="M 603 3500 
L 1178 3500 
L 1178 0 
L 603 0 
L 603 3500 
z
M 603 4863 
L 1178 4863 
L 1178 4134 
L 603 4134 
L 603 4863 
z
" transform="scale(0.015625)"/>
       <path id="DejaVuSans-64" d="M 2906 2969 
L 2906 4863 
L 3481 4863 
L 3481 0 
L 2906 0 
L 2906 525 
Q 2725 213 2448 61 
Q 2172 -91 1784 -91 
Q 1150 -91 751 415 
Q 353 922 353 1747 
Q 353 2572 751 3078 
Q 1150 3584 1784 3584 
Q 2172 3584 2448 3432 
Q 2725 3281 2906 2969 
z
M 947 1747 
Q 947 1113 1208 752 
Q 1469 391 1925 391 
Q 2381 391 2643 752 
Q 2906 1113 2906 1747 
Q 2906 2381 2643 2742 
Q 2381 3103 1925 3103 
Q 1469 3103 1208 2742 
Q 947 2381 947 1747 
z
" transform="scale(0.015625)"/>
       <path id="DejaVuSans-59" d="M -13 4666 
L 666 4666 
L 1959 2747 
L 3244 4666 
L 3922 4666 
L 2272 2222 
L 2272 0 
L 1638 0 
L 1638 2222 
L -13 4666 
z
" transform="scale(0.015625)"/>
       <path id="DejaVuSans-74" d="M 1172 4494 
L 1172 3500 
L 2356 3500 
L 2356 3053 
L 1172 3053 
L 1172 1153 
Q 1172 725 1289 603 
Q 1406 481 1766 481 
L 2356 481 
L 2356 0 
L 1766 0 
Q 1100 0 847 248 
Q 594 497 594 1153 
L 594 3053 
L 172 3053 
L 172 3500 
L 594 3500 
L 594 4494 
L 1172 4494 
z
" transform="scale(0.015625)"/>
      </defs>
      <use xlink:href="#DejaVuSans-44"/>
      <use xlink:href="#DejaVuSans-61" x="77.001953"/>
      <use xlink:href="#DejaVuSans-76" x="138.28125"/>
      <use xlink:href="#DejaVuSans-69" x="197.460938"/>
      <use xlink:href="#DejaVuSans-64" x="225.244141"/>
      <use xlink:href="#DejaVuSans-20" x="288.720703"/>
      <use xlink:href="#DejaVuSans-59" x="320.507812"/>
      <use xlink:href="#DejaVuSans-61" x="367.841797"/>
      <use xlink:href="#DejaVuSans-74" x="429.121094"/>
      <use xlink:href="#DejaVuSans-65" x="468.330078"/>
      <use xlink:href="#DejaVuSans-73" x="529.853516"/>
     </g>
    </g>
   </g>
   <g id="text_3">
    <g id="patch_4">
     <path d="M 387.800944 136.980958 
L 471.998756 136.980958 
L 471.998756 120.350645 
L 387.800944 120.350645 
z
" clip-path="url(#p4f1b1eefd3)" style="fill: #ffffff; opacity: 0.7; stroke: #000000; stroke-linejoin: miter"/>
    </g>
    <g clip-path="url(#p4f1b1eefd3)">
     <!-- Shavkat Karimov -->
     <g transform="translate(391.760944 131.149239)scale(0.09 -0.09)">
      <defs>
       <path id="DejaVuSans-53" d="M 3425 4513 
L 3425 3897 
Q 3066 4069 2747 4153 
Q 2428 4238 2131 4238 
Q 1616 4238 1336 4038 
Q 1056 3838 1056 3469 
Q 1056 3159 1242 3001 
Q 1428 2844 1947 2747 
L 2328 2669 
Q 3034 2534 3370 2195 
Q 3706 1856 3706 1288 
Q 3706 609 3251 259 
Q 2797 -91 1919 -91 
Q 1588 -91 1214 -16 
Q 841 59 441 206 
L 441 856 
Q 825 641 1194 531 
Q 1563 422 1919 422 
Q 2459 422 2753 634 
Q 3047 847 3047 1241 
Q 3047 1584 2836 1778 
Q 2625 1972 2144 2069 
L 1759 2144 
Q 1053 2284 737 2584 
Q 422 2884 422 3419 
Q 422 4038 858 4394 
Q 1294 4750 2059 4750 
Q 2388 4750 2728 4690 
Q 3069 4631 3425 4513 
z
" transform="scale(0.015625)"/>
       <path id="DejaVuSans-68" d="M 3513 2113 
L 3513 0 
L 2938 0 
L 2938 2094 
Q 2938 2591 2744 2837 
Q 2550 3084 2163 3084 
Q 1697 3084 1428 2787 
Q 1159 2491 1159 1978 
L 1159 0 
L 581 0 
L 581 4863 
L 1159 4863 
L 1159 2956 
Q 1366 3272 1645 3428 
Q 1925 3584 2291 3584 
Q 2894 3584 3203 3211 
Q 3513 2838 3513 2113 
z
" transform="scale(0.015625)"/>
       <path id="DejaVuSans-6b" d="M 581 4863 
L 1159 4863 
L 1159 1991 
L 2875 3500 
L 3609 3500 
L 1753 1863 
L 3688 0 
L 2938 0 
L 1159 1709 
L 1159 0 
L 581 0 
L 581 4863 
z
" transform="scale(0.015625)"/>
       <path id="DejaVuSans-4b" d="M 628 4666 
L 1259 4666 
L 1259 2694 
L 3353 4666 
L 4166 4666 
L 1850 2491 
L 4331 0 
L 3500 0 
L 1259 2247 
L 1259 0 
L 628 0 
L 628 4666 
z
" transform="scale(0.015625)"/>
       <path id="DejaVuSans-72" d="M 2631 2963 
Q 2534 3019 2420 3045 
Q 2306 3072 2169 3072 
Q 1681 3072 1420 2755 
Q 1159 2438 1159 1844 
L 1159 0 
L 581 0 
L 581 3500 
L 1159 3500 
L 1159 2956 
Q 1341 3275 1631 3429 
Q 1922 3584 2338 3584 
Q 2397 3584 2469 3576 
Q 2541 3569 2628 3553 
L 2631 2963 
z
" transform="scale(0.015625)"/>
       <path id="DejaVuSans-6d" d="M 3328 2828 
Q 3544 3216 3844 3400 
Q 4144 3584 4550 3584 
Q 5097 3584 5394 3201 
Q 5691 2819 5691 2113 
L 5691 0 
L 5113 0 
L 5113 2094 
Q 5113 2597 4934 2840 
Q 4756 3084 4391 3084 
Q 3944 3084 3684 2787 
Q 3425 2491 3425 1978 
L 3425 0 
L 2847 0 
L 2847 2094 
Q 2847 2600 2669 2842 
Q 2491 3084 2119 3084 
Q 1678 3084 1418 2786 
Q 1159 2488 1159 1978 
L 1159 0 
L 581 0 
L 581 3500 
L 1159 3500 
L 1159 2956 
Q 1356 3278 1631 3431 
Q 1906 3584 2284 3584 
Q 2666 3584 2933 3390 
Q 3200 3197 3328 2828 
z
" transform="scale(0.015625)"/>
      </defs>
      <use xlink:href="#DejaVuSans-53"/>
      <use xlink:href="#DejaVuSans-68" x="63.476562"/>
      <use xlink:href="#DejaVuSans-61" x="126.855469"/>
      <use xlink:href="#DejaVuSans-76" x="188.134766"/>
      <use xlink:href="#DejaVuSans-6b" x="247.314453"/>
      <use xlink:href="#DejaVuSans-61" x="303.474609"/>
      <use xlink:href="#DejaVuSans-74" x="364.753906"/>
      <use xlink:href="#DejaVuSans-20" x="403.962891"/>
      <use xlink:href="#DejaVuSans-4b" x="435.75"/>
      <use xlink:href="#DejaVuSans-61" x="499.576172"/>
      <use xlink:href="#DejaVuSans-72" x="560.855469"/>
      <use xlink:href="#DejaVuSans-69" x="601.96875"/>
      <use xlink:href="#DejaVuSans-6d" x="629.751953"/>
      <use xlink:href="#DejaVuSans-6f" x="727.164062"/>
      <use xlink:href="#DejaVuSans-76" x="788.345703"/>
     </g>
    </g>
   </g>
   <g id="text_4">
    <g id="patch_5">
     <path d="M 319.842494 92.403594 
L 384.686088 92.403594 
L 384.686088 75.773281 
L 319.842494 75.773281 
z
" clip-path="url(#p4f1b1eefd3)" style="fill: #ffffff; opacity: 0.7; stroke: #000000; stroke-linejoin: miter"/>
    </g>
    <g clip-path="url(#p4f1b1eefd3)">
     <!-- Brian Levant -->
     <g transform="translate(323.802494 86.571875)scale(0.09 -0.09)">
      <defs>
       <path id="DejaVuSans-42" d="M 1259 2228 
L 1259 519 
L 2272 519 
Q 2781 519 3026 730 
Q 3272 941 3272 1375 
Q 3272 1813 3026 2020 
Q 2781 2228 2272 2228 
L 1259 2228 
z
M 1259 4147 
L 1259 2741 
L 2194 2741 
Q 2656 2741 2882 2914 
Q 3109 3088 3109 3444 
Q 3109 3797 2882 3972 
Q 2656 4147 2194 4147 
L 1259 4147 
z
M 628 4666 
L 2241 4666 
Q 2963 4666 3353 4366 
Q 3744 4066 3744 3513 
Q 3744 3084 3544 2831 
Q 3344 2578 2956 2516 
Q 3422 2416 3680 2098 
Q 3938 1781 3938 1306 
Q 3938 681 3513 340 
Q 3088 0 2303 0 
L 628 0 
L 628 4666 
z
" transform="scale(0.015625)"/>
       <path id="DejaVuSans-4c" d="M 628 4666 
L 1259 4666 
L 1259 531 
L 3531 531 
L 3531 0 
L 628 0 
L 628 4666 
z
" transform="scale(0.015625)"/>
      </defs>
      <use xlink:href="#DejaVuSans-42"/>
      <use xlink:href="#DejaVuSans-72" x="68.603516"/>
      <use xlink:href="#DejaVuSans-69" x="109.716797"/>
      <use xlink:href="#DejaVuSans-61" x="137.5"/>
      <use xlink:href="#DejaVuSans-6e" x="198.779297"/>
      <use xlink:href="#DejaVuSans-20" x="262.158203"/>
      <use xlink:href="#DejaVuSans-4c" x="293.945312"/>
      <use xlink:href="#DejaVuSans-65" x="347.908203"/>
      <use xlink:href="#DejaVuSans-76" x="409.431641"/>
      <use xlink:href="#DejaVuSans-61" x="468.611328"/>
      <use xlink:href="#DejaVuSans-6e" x="529.890625"/>
      <use xlink:href="#DejaVuSans-74" x="593.269531"/>
     </g>
    </g>
   </g>
   <g id="text_5">
    <g id="patch_6">
     <path d="M 233.406736 83.084387 
L 292.812361 83.084387 
L 292.812361 66.454075 
L 233.406736 66.454075 
z
" clip-path="url(#p4f1b1eefd3)" style="fill: #ffffff; opacity: 0.7; stroke: #000000; stroke-linejoin: miter"/>
    </g>
    <g clip-path="url(#p4f1b1eefd3)">
     <!-- Emre Sahin -->
     <g transform="translate(237.366736 77.252668)scale(0.09 -0.09)">
      <defs>
       <path id="DejaVuSans-45" d="M 628 4666 
L 3578 4666 
L 3578 4134 
L 1259 4134 
L 1259 2753 
L 3481 2753 
L 3481 2222 
L 1259 2222 
L 1259 531 
L 3634 531 
L 3634 0 
L 628 0 
L 628 4666 
z
" transform="scale(0.015625)"/>
      </defs>
      <use xlink:href="#DejaVuSans-45"/>
      <use xlink:href="#DejaVuSans-6d" x="63.183594"/>
      <use xlink:href="#DejaVuSans-72" x="160.595703"/>
      <use xlink:href="#DejaVuSans-65" x="199.458984"/>
      <use xlink:href="#DejaVuSans-20" x="260.982422"/>
      <use xlink:href="#DejaVuSans-53" x="292.769531"/>
      <use xlink:href="#DejaVuSans-61" x="356.246094"/>
      <use xlink:href="#DejaVuSans-68" x="417.525391"/>
      <use xlink:href="#DejaVuSans-69" x="480.904297"/>
      <use xlink:href="#DejaVuSans-6e" x="508.6875"/>
     </g>
    </g>
   </g>
   <g id="text_6">
    <g id="patch_7">
     <path d="M 148.796064 110.634724 
L 206.906532 110.634724 
L 206.906532 94.004411 
L 148.796064 94.004411 
z
" clip-path="url(#p4f1b1eefd3)" style="fill: #ffffff; opacity: 0.7; stroke: #000000; stroke-linejoin: miter"/>
    </g>
    <g clip-path="url(#p4f1b1eefd3)">
     <!-- John Gorrie -->
     <g transform="translate(152.756064 104.803005)scale(0.09 -0.09)">
      <defs>
       <path id="DejaVuSans-4a" d="M 628 4666 
L 1259 4666 
L 1259 325 
Q 1259 -519 939 -900 
Q 619 -1281 -91 -1281 
L -331 -1281 
L -331 -750 
L -134 -750 
Q 284 -750 456 -515 
Q 628 -281 628 325 
L 628 4666 
z
" transform="scale(0.015625)"/>
      </defs>
      <use xlink:href="#DejaVuSans-4a"/>
      <use xlink:href="#DejaVuSans-6f" x="29.492188"/>
      <use xlink:href="#DejaVuSans-68" x="90.673828"/>
      <use xlink:href="#DejaVuSans-6e" x="154.052734"/>
      <use xlink:href="#DejaVuSans-20" x="217.431641"/>
      <use xlink:href="#DejaVuSans-47" x="249.21875"/>
      <use xlink:href="#DejaVuSans-6f" x="326.708984"/>
      <use xlink:href="#DejaVuSans-72" x="387.890625"/>
      <use xlink:href="#DejaVuSans-72" x="427.253906"/>
      <use xlink:href="#DejaVuSans-69" x="468.367188"/>
      <use xlink:href="#DejaVuSans-65" x="496.150391"/>
     </g>
    </g>
   </g>
   <g id="text_7">
    <g id="patch_8">
     <path d="M 79.126086 170.290885 
L 143.336868 170.290885 
L 143.336868 153.660572 
L 79.126086 153.660572 
z
" clip-path="url(#p4f1b1eefd3)" style="fill: #ffffff; opacity: 0.7; stroke: #000000; stroke-linejoin: miter"/>
    </g>
    <g clip-path="url(#p4f1b1eefd3)">
     <!-- Seth Gordon -->
     <g transform="translate(83.086086 164.459166)scale(0.09 -0.09)">
      <use xlink:href="#DejaVuSans-53"/>
      <use xlink:href="#DejaVuSans-65" x="63.476562"/>
      <use xlink:href="#DejaVuSans-74" x="125"/>
      <use xlink:href="#DejaVuSans-68" x="164.208984"/>
      <use xlink:href="#DejaVuSans-20" x="227.587891"/>
      <use xlink:href="#DejaVuSans-47" x="259.375"/>
      <use xlink:href="#DejaVuSans-6f" x="336.865234"/>
      <use xlink:href="#DejaVuSans-72" x="398.046875"/>
      <use xlink:href="#DejaVuSans-64" x="437.410156"/>
      <use xlink:href="#DejaVuSans-6f" x="500.886719"/>
      <use xlink:href="#DejaVuSans-6e" x="562.068359"/>
     </g>
    </g>
   </g>
   <g id="text_8">
    <g id="patch_9">
     <path d="M 35.494075 251.737805 
L 114.044387 251.737805 
L 114.044387 235.107493 
L 35.494075 235.107493 
z
" clip-path="url(#p4f1b1eefd3)" style="fill: #ffffff; opacity: 0.7; stroke: #000000; stroke-linejoin: miter"/>
    </g>
    <g clip-path="url(#p4f1b1eefd3)">
     <!-- Neill Blomkamp -->
     <g transform="translate(39.454075 245.906086)scale(0.09 -0.09)">
      <defs>
       <path id="DejaVuSans-4e" d="M 628 4666 
L 1478 4666 
L 3547 763 
L 3547 4666 
L 4159 4666 
L 4159 0 
L 3309 0 
L 1241 3903 
L 1241 0 
L 628 0 
L 628 4666 
z
" transform="scale(0.015625)"/>
       <path id="DejaVuSans-70" d="M 1159 525 
L 1159 -1331 
L 581 -1331 
L 581 3500 
L 1159 3500 
L 1159 2969 
Q 1341 3281 1617 3432 
Q 1894 3584 2278 3584 
Q 2916 3584 3314 3078 
Q 3713 2572 3713 1747 
Q 3713 922 3314 415 
Q 2916 -91 2278 -91 
Q 1894 -91 1617 61 
Q 1341 213 1159 525 
z
M 3116 1747 
Q 3116 2381 2855 2742 
Q 2594 3103 2138 3103 
Q 1681 3103 1420 2742 
Q 1159 2381 1159 1747 
Q 1159 1113 1420 752 
Q 1681 391 2138 391 
Q 2594 391 2855 752 
Q 3116 1113 3116 1747 
z
" transform="scale(0.015625)"/>
      </defs>
      <use xlink:href="#DejaVuSans-4e"/>
      <use xlink:href="#DejaVuSans-65" x="74.804688"/>
      <use xlink:href="#DejaVuSans-69" x="136.328125"/>
      <use xlink:href="#DejaVuSans-6c" x="164.111328"/>
      <use xlink:href="#DejaVuSans-6c" x="191.894531"/>
      <use xlink:href="#DejaVuSans-20" x="219.677734"/>
      <use xlink:href="#DejaVuSans-42" x="251.464844"/>
      <use xlink:href="#DejaVuSans-6c" x="320.068359"/>
      <use xlink:href="#DejaVuSans-6f" x="347.851562"/>
      <use xlink:href="#DejaVuSans-6d" x="409.033203"/>
      <use xlink:href="#DejaVuSans-6b" x="506.445312"/>
      <use xlink:href="#DejaVuSans-61" x="562.605469"/>
      <use xlink:href="#DejaVuSans-6d" x="623.884766"/>
      <use xlink:href="#DejaVuSans-70" x="721.296875"/>
     </g>
    </g>
   </g>
   <g id="text_9">
    <g id="patch_10">
     <path d="M 46.82354 340.892546 
L 102.714947 340.892546 
L 102.714947 324.262233 
L 46.82354 324.262233 
z
" clip-path="url(#p4f1b1eefd3)" style="fill: #ffffff; opacity: 0.7; stroke: #000000; stroke-linejoin: miter"/>
    </g>
    <g clip-path="url(#p4f1b1eefd3)">
     <!-- Boaz Yakin -->
     <g transform="translate(50.78354 335.060827)scale(0.09 -0.09)">
      <defs>
       <path id="DejaVuSans-7a" d="M 353 3500 
L 3084 3500 
L 3084 2975 
L 922 459 
L 3084 459 
L 3084 0 
L 275 0 
L 275 525 
L 2438 3041 
L 353 3041 
L 353 3500 
z
" transform="scale(0.015625)"/>
      </defs>
      <use xlink:href="#DejaVuSans-42"/>
      <use xlink:href="#DejaVuSans-6f" x="68.603516"/>
      <use xlink:href="#DejaVuSans-61" x="129.785156"/>
      <use xlink:href="#DejaVuSans-7a" x="191.064453"/>
      <use xlink:href="#DejaVuSans-20" x="243.554688"/>
      <use xlink:href="#DejaVuSans-59" x="275.341797"/>
      <use xlink:href="#DejaVuSans-61" x="322.675781"/>
      <use xlink:href="#DejaVuSans-6b" x="383.955078"/>
      <use xlink:href="#DejaVuSans-69" x="441.865234"/>
      <use xlink:href="#DejaVuSans-6e" x="469.648438"/>
     </g>
    </g>
   </g>
   <g id="text_10">
    <g id="patch_11">
     <path d="M 78.392037 422.33944 
L 144.070943 422.33944 
L 144.070943 405.709128 
L 78.392037 405.709128 
z
" clip-path="url(#p4f1b1eefd3)" style="fill: #ffffff; opacity: 0.7; stroke: #000000; stroke-linejoin: miter"/>
    </g>
    <g clip-path="url(#p4f1b1eefd3)">
     <!-- Phillip Noyce -->
     <g transform="translate(82.352037 416.507722)scale(0.09 -0.09)">
      <defs>
       <path id="DejaVuSans-50" d="M 1259 4147 
L 1259 2394 
L 2053 2394 
Q 2494 2394 2734 2622 
Q 2975 2850 2975 3272 
Q 2975 3691 2734 3919 
Q 2494 4147 2053 4147 
L 1259 4147 
z
M 628 4666 
L 2053 4666 
Q 2838 4666 3239 4311 
Q 3641 3956 3641 3272 
Q 3641 2581 3239 2228 
Q 2838 1875 2053 1875 
L 1259 1875 
L 1259 0 
L 628 0 
L 628 4666 
z
" transform="scale(0.015625)"/>
       <path id="DejaVuSans-79" d="M 2059 -325 
Q 1816 -950 1584 -1140 
Q 1353 -1331 966 -1331 
L 506 -1331 
L 506 -850 
L 844 -850 
Q 1081 -850 1212 -737 
Q 1344 -625 1503 -206 
L 1606 56 
L 191 3500 
L 800 3500 
L 1894 763 
L 2988 3500 
L 3597 3500 
L 2059 -325 
z
" transform="scale(0.015625)"/>
       <path id="DejaVuSans-63" d="M 3122 3366 
L 3122 2828 
Q 2878 2963 2633 3030 
Q 2388 3097 2138 3097 
Q 1578 3097 1268 2742 
Q 959 2388 959 1747 
Q 959 1106 1268 751 
Q 1578 397 2138 397 
Q 2388 397 2633 464 
Q 2878 531 3122 666 
L 3122 134 
Q 2881 22 2623 -34 
Q 2366 -91 2075 -91 
Q 1284 -91 818 406 
Q 353 903 353 1747 
Q 353 2603 823 3093 
Q 1294 3584 2113 3584 
Q 2378 3584 2631 3529 
Q 2884 3475 3122 3366 
z
" transform="scale(0.015625)"/>
      </defs>
      <use xlink:href="#DejaVuSans-50"/>
      <use xlink:href="#DejaVuSans-68" x="60.302734"/>
      <use xlink:href="#DejaVuSans-69" x="123.681641"/>
      <use xlink:href="#DejaVuSans-6c" x="151.464844"/>
      <use xlink:href="#DejaVuSans-6c" x="179.248047"/>
      <use xlink:href="#DejaVuSans-69" x="207.03125"/>
      <use xlink:href="#DejaVuSans-70" x="234.814453"/>
      <use xlink:href="#DejaVuSans-20" x="298.291016"/>
      <use xlink:href="#DejaVuSans-4e" x="330.078125"/>
      <use xlink:href="#DejaVuSans-6f" x="404.882812"/>
      <use xlink:href="#DejaVuSans-79" x="466.064453"/>
      <use xlink:href="#DejaVuSans-63" x="525.244141"/>
      <use xlink:href="#DejaVuSans-65" x="580.224609"/>
     </g>
    </g>
   </g>
   <g id="text_11">
    <g id="patch_12">
     <path d="M 142.034846 481.995602 
L 213.667815 481.995602 
L 213.667815 465.365289 
L 142.034846 465.365289 
z
" clip-path="url(#p4f1b1eefd3)" style="fill: #ffffff; opacity: 0.7; stroke: #000000; stroke-linejoin: miter"/>
    </g>
    <g clip-path="url(#p4f1b1eefd3)">
     <!-- Michael Sucsy -->
     <g transform="translate(145.994846 476.163883)scale(0.09 -0.09)">
      <defs>
       <path id="DejaVuSans-4d" d="M 628 4666 
L 1569 4666 
L 2759 1491 
L 3956 4666 
L 4897 4666 
L 4897 0 
L 4281 0 
L 4281 4097 
L 3078 897 
L 2444 897 
L 1241 4097 
L 1241 0 
L 628 0 
L 628 4666 
z
" transform="scale(0.015625)"/>
       <path id="DejaVuSans-75" d="M 544 1381 
L 544 3500 
L 1119 3500 
L 1119 1403 
Q 1119 906 1312 657 
Q 1506 409 1894 409 
Q 2359 409 2629 706 
Q 2900 1003 2900 1516 
L 2900 3500 
L 3475 3500 
L 3475 0 
L 2900 0 
L 2900 538 
Q 2691 219 2414 64 
Q 2138 -91 1772 -91 
Q 1169 -91 856 284 
Q 544 659 544 1381 
z
M 1991 3584 
L 1991 3584 
z
" transform="scale(0.015625)"/>
      </defs>
      <use xlink:href="#DejaVuSans-4d"/>
      <use xlink:href="#DejaVuSans-69" x="86.279297"/>
      <use xlink:href="#DejaVuSans-63" x="114.0625"/>
      <use xlink:href="#DejaVuSans-68" x="169.042969"/>
      <use xlink:href="#DejaVuSans-61" x="232.421875"/>
      <use xlink:href="#DejaVuSans-65" x="293.701172"/>
      <use xlink:href="#DejaVuSans-6c" x="355.224609"/>
      <use xlink:href="#DejaVuSans-20" x="383.007812"/>
      <use xlink:href="#DejaVuSans-53" x="414.794922"/>
      <use xlink:href="#DejaVuSans-75" x="478.271484"/>
      <use xlink:href="#DejaVuSans-63" x="541.650391"/>
      <use xlink:href="#DejaVuSans-73" x="596.630859"/>
      <use xlink:href="#DejaVuSans-79" x="648.730469"/>
     </g>
    </g>
   </g>
   <g id="text_12">
    <g id="patch_13">
     <path d="M 221.436072 509.545925 
L 304.783103 509.545925 
L 304.783103 492.915613 
L 221.436072 492.915613 
z
" clip-path="url(#p4f1b1eefd3)" style="fill: #ffffff; opacity: 0.7; stroke: #000000; stroke-linejoin: miter"/>
    </g>
    <g clip-path="url(#p4f1b1eefd3)">
     <!-- Jeffrey F. Jackson -->
     <g transform="translate(225.396072 503.714207)scale(0.09 -0.09)">
      <defs>
       <path id="DejaVuSans-66" d="M 2375 4863 
L 2375 4384 
L 1825 4384 
Q 1516 4384 1395 4259 
Q 1275 4134 1275 3809 
L 1275 3500 
L 2222 3500 
L 2222 3053 
L 1275 3053 
L 1275 0 
L 697 0 
L 697 3053 
L 147 3053 
L 147 3500 
L 697 3500 
L 697 3744 
Q 697 4328 969 4595 
Q 1241 4863 1831 4863 
L 2375 4863 
z
" transform="scale(0.015625)"/>
       <path id="DejaVuSans-46" d="M 628 4666 
L 3309 4666 
L 3309 4134 
L 1259 4134 
L 1259 2759 
L 3109 2759 
L 3109 2228 
L 1259 2228 
L 1259 0 
L 628 0 
L 628 4666 
z
" transform="scale(0.015625)"/>
       <path id="DejaVuSans-2e" d="M 684 794 
L 1344 794 
L 1344 0 
L 684 0 
L 684 794 
z
" transform="scale(0.015625)"/>
      </defs>
      <use xlink:href="#DejaVuSans-4a"/>
      <use xlink:href="#DejaVuSans-65" x="29.492188"/>
      <use xlink:href="#DejaVuSans-66" x="91.015625"/>
      <use xlink:href="#DejaVuSans-66" x="126.220703"/>
      <use xlink:href="#DejaVuSans-72" x="161.425781"/>
      <use xlink:href="#DejaVuSans-65" x="200.289062"/>
      <use xlink:href="#DejaVuSans-79" x="261.8125"/>
      <use xlink:href="#DejaVuSans-20" x="320.992188"/>
      <use xlink:href="#DejaVuSans-46" x="352.779297"/>
      <use xlink:href="#DejaVuSans-2e" x="394.173828"/>
      <use xlink:href="#DejaVuSans-20" x="425.960938"/>
      <use xlink:href="#DejaVuSans-4a" x="457.748047"/>
      <use xlink:href="#DejaVuSans-61" x="487.240234"/>
      <use xlink:href="#DejaVuSans-63" x="548.519531"/>
      <use xlink:href="#DejaVuSans-6b" x="603.5"/>
      <use xlink:href="#DejaVuSans-73" x="661.410156"/>
      <use xlink:href="#DejaVuSans-6f" x="713.509766"/>
      <use xlink:href="#DejaVuSans-6e" x="774.691406"/>
     </g>
    </g>
   </g>
   <g id="text_13">
    <g id="patch_14">
     <path d="M 318.029167 500.226706 
L 386.49948 500.226706 
L 386.49948 483.596393 
L 318.029167 483.596393 
z
" clip-path="url(#p4f1b1eefd3)" style="fill: #ffffff; opacity: 0.7; stroke: #000000; stroke-linejoin: miter"/>
    </g>
    <g clip-path="url(#p4f1b1eefd3)">
     <!-- Steven Quale -->
     <g transform="translate(321.989167 494.394987)scale(0.09 -0.09)">
      <defs>
       <path id="DejaVuSans-51" d="M 2522 4238 
Q 1834 4238 1429 3725 
Q 1025 3213 1025 2328 
Q 1025 1447 1429 934 
Q 1834 422 2522 422 
Q 3209 422 3611 934 
Q 4013 1447 4013 2328 
Q 4013 3213 3611 3725 
Q 3209 4238 2522 4238 
z
M 3406 84 
L 4238 -825 
L 3475 -825 
L 2784 -78 
Q 2681 -84 2626 -87 
Q 2572 -91 2522 -91 
Q 1538 -91 948 567 
Q 359 1225 359 2328 
Q 359 3434 948 4092 
Q 1538 4750 2522 4750 
Q 3503 4750 4090 4092 
Q 4678 3434 4678 2328 
Q 4678 1516 4351 937 
Q 4025 359 3406 84 
z
" transform="scale(0.015625)"/>
      </defs>
      <use xlink:href="#DejaVuSans-53"/>
      <use xlink:href="#DejaVuSans-74" x="63.476562"/>
      <use xlink:href="#DejaVuSans-65" x="102.685547"/>
      <use xlink:href="#DejaVuSans-76" x="164.208984"/>
      <use xlink:href="#DejaVuSans-65" x="223.388672"/>
      <use xlink:href="#DejaVuSans-6e" x="284.912109"/>
      <use xlink:href="#DejaVuSans-20" x="348.291016"/>
      <use xlink:href="#DejaVuSans-51" x="380.078125"/>
      <use xlink:href="#DejaVuSans-75" x="458.789062"/>
      <use xlink:href="#DejaVuSans-61" x="522.167969"/>
      <use xlink:href="#DejaVuSans-6c" x="583.447266"/>
      <use xlink:href="#DejaVuSans-65" x="611.230469"/>
     </g>
    </g>
   </g>
   <g id="text_14">
    <g id="patch_15">
     <path d="M 396.116138 455.649316 
L 463.683638 455.649316 
L 463.683638 439.019004 
L 396.116138 439.019004 
z
" clip-path="url(#p4f1b1eefd3)" style="fill: #ffffff; opacity: 0.7; stroke: #000000; stroke-linejoin: miter"/>
    </g>
    <g clip-path="url(#p4f1b1eefd3)">
     <!-- Éric Toledano -->
     <g transform="translate(400.076138 449.817598)scale(0.09 -0.09)">
      <defs>
       <path id="DejaVuSans-c9" d="M 628 4666 
L 3578 4666 
L 3578 4134 
L 1259 4134 
L 1259 2753 
L 3481 2753 
L 3481 2222 
L 1259 2222 
L 1259 531 
L 3634 531 
L 3634 0 
L 628 0 
L 628 4666 
z
M 2266 5935 
L 2844 5935 
L 2131 5110 
L 1653 5110 
L 2266 5935 
z
" transform="scale(0.015625)"/>
       <path id="DejaVuSans-54" d="M -19 4666 
L 3928 4666 
L 3928 4134 
L 2272 4134 
L 2272 0 
L 1638 0 
L 1638 4134 
L -19 4134 
L -19 4666 
z
" transform="scale(0.015625)"/>
      </defs>
      <use xlink:href="#DejaVuSans-c9"/>
      <use xlink:href="#DejaVuSans-72" x="63.183594"/>
      <use xlink:href="#DejaVuSans-69" x="104.296875"/>
      <use xlink:href="#DejaVuSans-63" x="132.080078"/>
      <use xlink:href="#DejaVuSans-20" x="187.060547"/>
      <use xlink:href="#DejaVuSans-54" x="218.847656"/>
      <use xlink:href="#DejaVuSans-6f" x="262.931641"/>
      <use xlink:href="#DejaVuSans-6c" x="324.113281"/>
      <use xlink:href="#DejaVuSans-65" x="351.896484"/>
      <use xlink:href="#DejaVuSans-64" x="413.419922"/>
      <use xlink:href="#DejaVuSans-61" x="476.896484"/>
      <use xlink:href="#DejaVuSans-6e" x="538.175781"/>
      <use xlink:href="#DejaVuSans-6f" x="601.554688"/>
     </g>
    </g>
   </g>
   <g id="text_15">
    <g id="patch_16">
     <path d="M 443.123155 383.521616 
L 522.061592 383.521616 
L 522.061592 366.891303 
L 443.123155 366.891303 
z
" clip-path="url(#p4f1b1eefd3)" style="fill: #ffffff; opacity: 0.7; stroke: #000000; stroke-linejoin: miter"/>
    </g>
    <g clip-path="url(#p4f1b1eefd3)">
     <!-- Olivier Nakache -->
     <g transform="translate(447.083155 377.689897)scale(0.09 -0.09)">
      <defs>
       <path id="DejaVuSans-4f" d="M 2522 4238 
Q 1834 4238 1429 3725 
Q 1025 3213 1025 2328 
Q 1025 1447 1429 934 
Q 1834 422 2522 422 
Q 3209 422 3611 934 
Q 4013 1447 4013 2328 
Q 4013 3213 3611 3725 
Q 3209 4238 2522 4238 
z
M 2522 4750 
Q 3503 4750 4090 4092 
Q 4678 3434 4678 2328 
Q 4678 1225 4090 567 
Q 3503 -91 2522 -91 
Q 1538 -91 948 565 
Q 359 1222 359 2328 
Q 359 3434 948 4092 
Q 1538 4750 2522 4750 
z
" transform="scale(0.015625)"/>
      </defs>
      <use xlink:href="#DejaVuSans-4f"/>
      <use xlink:href="#DejaVuSans-6c" x="78.710938"/>
      <use xlink:href="#DejaVuSans-69" x="106.494141"/>
      <use xlink:href="#DejaVuSans-76" x="134.277344"/>
      <use xlink:href="#DejaVuSans-69" x="193.457031"/>
      <use xlink:href="#DejaVuSans-65" x="221.240234"/>
      <use xlink:href="#DejaVuSans-72" x="282.763672"/>
      <use xlink:href="#DejaVuSans-20" x="323.876953"/>
      <use xlink:href="#DejaVuSans-4e" x="355.664062"/>
      <use xlink:href="#DejaVuSans-61" x="430.46875"/>
      <use xlink:href="#DejaVuSans-6b" x="491.748047"/>
      <use xlink:href="#DejaVuSans-61" x="547.908203"/>
      <use xlink:href="#DejaVuSans-63" x="609.1875"/>
      <use xlink:href="#DejaVuSans-68" x="664.167969"/>
      <use xlink:href="#DejaVuSans-65" x="727.546875"/>
     </g>
    </g>
   </g>
   <g id="text_16">
    <!-- Impactful directors for Silent film genre -->
    <g transform="translate(169.861875 4.8)scale(0.12 -0.12)">
     <defs>
      <path id="DejaVuSans-49" d="M 628 4666 
L 1259 4666 
L 1259 0 
L 628 0 
L 628 4666 
z
" transform="scale(0.015625)"/>
      <path id="DejaVuSans-67" d="M 2906 1791 
Q 2906 2416 2648 2759 
Q 2391 3103 1925 3103 
Q 1463 3103 1205 2759 
Q 947 2416 947 1791 
Q 947 1169 1205 825 
Q 1463 481 1925 481 
Q 2391 481 2648 825 
Q 2906 1169 2906 1791 
z
M 3481 434 
Q 3481 -459 3084 -895 
Q 2688 -1331 1869 -1331 
Q 1566 -1331 1297 -1286 
Q 1028 -1241 775 -1147 
L 775 -588 
Q 1028 -725 1275 -790 
Q 1522 -856 1778 -856 
Q 2344 -856 2625 -561 
Q 2906 -266 2906 331 
L 2906 616 
Q 2728 306 2450 153 
Q 2172 0 1784 0 
Q 1141 0 747 490 
Q 353 981 353 1791 
Q 353 2603 747 3093 
Q 1141 3584 1784 3584 
Q 2172 3584 2450 3431 
Q 2728 3278 2906 2969 
L 2906 3500 
L 3481 3500 
L 3481 434 
z
" transform="scale(0.015625)"/>
     </defs>
     <use xlink:href="#DejaVuSans-49"/>
     <use xlink:href="#DejaVuSans-6d" x="29.492188"/>
     <use xlink:href="#DejaVuSans-70" x="126.904297"/>
     <use xlink:href="#DejaVuSans-61" x="190.380859"/>
     <use xlink:href="#DejaVuSans-63" x="251.660156"/>
     <use xlink:href="#DejaVuSans-74" x="306.640625"/>
     <use xlink:href="#DejaVuSans-66" x="345.849609"/>
     <use xlink:href="#DejaVuSans-75" x="381.054688"/>
     <use xlink:href="#DejaVuSans-6c" x="444.433594"/>
     <use xlink:href="#DejaVuSans-20" x="472.216797"/>
     <use xlink:href="#DejaVuSans-64" x="504.003906"/>
     <use xlink:href="#DejaVuSans-69" x="567.480469"/>
     <use xlink:href="#DejaVuSans-72" x="595.263672"/>
     <use xlink:href="#DejaVuSans-65" x="634.126953"/>
     <use xlink:href="#DejaVuSans-63" x="695.650391"/>
     <use xlink:href="#DejaVuSans-74" x="750.630859"/>
     <use xlink:href="#DejaVuSans-6f" x="789.839844"/>
     <use xlink:href="#DejaVuSans-72" x="851.021484"/>
     <use xlink:href="#DejaVuSans-73" x="892.134766"/>
     <use xlink:href="#DejaVuSans-20" x="944.234375"/>
     <use xlink:href="#DejaVuSans-66" x="976.021484"/>
     <use xlink:href="#DejaVuSans-6f" x="1011.226562"/>
     <use xlink:href="#DejaVuSans-72" x="1072.408203"/>
     <use xlink:href="#DejaVuSans-20" x="1113.521484"/>
     <use xlink:href="#DejaVuSans-53" x="1145.308594"/>
     <use xlink:href="#DejaVuSans-69" x="1208.785156"/>
     <use xlink:href="#DejaVuSans-6c" x="1236.568359"/>
     <use xlink:href="#DejaVuSans-65" x="1264.351562"/>
     <use xlink:href="#DejaVuSans-6e" x="1325.875"/>
     <use xlink:href="#DejaVuSans-74" x="1389.253906"/>
     <use xlink:href="#DejaVuSans-20" x="1428.462891"/>
     <use xlink:href="#DejaVuSans-66" x="1460.25"/>
     <use xlink:href="#DejaVuSans-69" x="1495.455078"/>
     <use xlink:href="#DejaVuSans-6c" x="1523.238281"/>
     <use xlink:href="#DejaVuSans-6d" x="1551.021484"/>
     <use xlink:href="#DejaVuSans-20" x="1648.433594"/>
     <use xlink:href="#DejaVuSans-67" x="1680.220703"/>
     <use xlink:href="#DejaVuSans-65" x="1743.697266"/>
     <use xlink:href="#DejaVuSans-6e" x="1805.220703"/>
     <use xlink:href="#DejaVuSans-72" x="1868.599609"/>
     <use xlink:href="#DejaVuSans-65" x="1907.462891"/>
    </g>
   </g>
  </g>
 </g>
 <defs>
  <clipPath id="p4f1b1eefd3">
   <rect x="10.8" y="10.8" width="554.4" height="554.4"/>
  </clipPath>
 </defs>
</svg>
