<?xml version="1.0" encoding="utf-8" standalone="no"?>
<!DOCTYPE svg PUBLIC "-//W3C//DTD SVG 1.1//EN"
  "http://www.w3.org/Graphics/SVG/1.1/DTD/svg11.dtd">
<svg xmlns:xlink="http://www.w3.org/1999/xlink" width="568.8pt" height="583.918125pt" viewBox="0 0 568.8 583.918125" xmlns="http://www.w3.org/2000/svg" version="1.1">
 <metadata>
  <rdf:RDF xmlns:dc="http://purl.org/dc/elements/1.1/" xmlns:cc="http://creativecommons.org/ns#" xmlns:rdf="http://www.w3.org/1999/02/22-rdf-syntax-ns#">
   <cc:Work>
    <dc:type rdf:resource="http://purl.org/dc/dcmitype/StillImage"/>
    <dc:date>2022-12-23T19:06:44.632196</dc:date>
    <dc:format>image/svg+xml</dc:format>
    <dc:creator>
     <cc:Agent>
      <dc:title>Matplotlib v3.5.2, https://matplotlib.org/</dc:title>
     </cc:Agent>
    </dc:creator>
   </cc:Work>
  </rdf:RDF>
 </metadata>
 <defs>
  <style type="text/css">*{stroke-linejoin: round; stroke-linecap: butt}</style>
 </defs>
 <g id="figure_1">
  <g id="patch_1">
   <path d="M 0 583.918125 
L 568.8 583.918125 
L 568.8 0 
L 0 0 
z
" style="fill: #ffffff"/>
  </g>
  <g id="axes_1">
   <g id="LineCollection_1">
    <path d="M 174.251298 113.837692 
L 107.631477 173.493854 
" clip-path="url(#pc2d50448e5)" style="fill: none; stroke: #000000; stroke-opacity: 0.3; stroke-width: 5"/>
   </g>
   <g id="PathCollection_1">
    <path d="M 497.630769 326.904253 
C 504.893655 326.904253 511.86005 324.018678 516.995686 318.883042 
C 522.131322 313.747406 525.016897 306.781011 525.016897 299.518125 
C 525.016897 292.255239 522.131322 285.288844 516.995686 280.153208 
C 511.86005 275.017572 504.893655 272.131997 497.630769 272.131997 
C 490.367883 272.131997 483.401488 275.017572 478.265852 280.153208 
C 473.130217 285.288844 470.244641 292.255239 470.244641 299.518125 
C 470.244641 306.781011 473.130217 313.747406 478.265852 318.883042 
C 483.401488 324.018678 490.367883 326.904253 497.630769 326.904253 
z
" clip-path="url(#pc2d50448e5)" style="fill: #c70039; fill-opacity: 0.99; stroke: #c70039; stroke-opacity: 0.99"/>
    <path d="M 478.992348 238.832936 
C 486.025879 238.832936 492.772283 236.038484 497.745741 231.065026 
C 502.719198 226.091568 505.51365 219.345165 505.51365 212.311633 
C 505.51365 205.278102 502.719198 198.531699 497.745741 193.558241 
C 492.772283 188.584783 486.025879 185.790331 478.992348 185.790331 
C 471.958816 185.790331 465.212413 188.584783 460.238955 193.558241 
C 455.265497 198.531699 452.471046 205.278102 452.471046 212.311633 
C 452.471046 219.345165 455.265497 226.091568 460.238955 231.065026 
C 465.212413 236.038484 471.958816 238.832936 478.992348 238.832936 
z
" clip-path="url(#pc2d50448e5)" style="fill: #c70039; fill-opacity: 0.99; stroke: #c70039; stroke-opacity: 0.99"/>
    <path d="M 426.29985 166.505078 
C 433.280301 166.505078 439.97579 163.731715 444.911714 158.795791 
C 449.847639 153.859867 452.621001 147.164378 452.621001 140.183927 
C 452.621001 133.203476 449.847639 126.507986 444.911714 121.572062 
C 439.97579 116.636138 433.280301 113.862775 426.29985 113.862775 
C 419.319399 113.862775 412.623909 116.636138 407.687985 121.572062 
C 402.752061 126.507986 399.978698 133.203476 399.978698 140.183927 
C 399.978698 147.164378 402.752061 153.859867 407.687985 158.795791 
C 412.623909 163.731715 419.319399 166.505078 426.29985 166.505078 
z
" clip-path="url(#pc2d50448e5)" style="fill: #c70039; fill-opacity: 0.99; stroke: #c70039; stroke-opacity: 0.99"/>
    <path d="M 348.664291 120.676825 
C 355.313003 120.676825 361.690295 118.035264 366.391644 113.333915 
C 371.092993 108.632566 373.734554 102.255274 373.734554 95.606563 
C 373.734554 88.957851 371.092993 82.580559 366.391644 77.87921 
C 361.690295 73.177861 355.313003 70.5363 348.664291 70.5363 
C 342.01558 70.5363 335.638288 73.177861 330.936939 77.87921 
C 326.23559 82.580559 323.594029 88.957851 323.594029 95.606563 
C 323.594029 102.255274 326.23559 108.632566 330.936939 113.333915 
C 335.638288 118.035264 342.01558 120.676825 348.664291 120.676825 
z
" clip-path="url(#pc2d50448e5)" style="fill: #c70039; fill-opacity: 0.99; stroke: #c70039; stroke-opacity: 0.99"/>
    <path d="M 259.509549 110.447925 
C 265.917007 110.447925 272.062894 107.902215 276.593651 103.371458 
C 281.124408 98.840701 283.670118 92.694814 283.670118 86.287356 
C 283.670118 79.879898 281.124408 73.73401 276.593651 69.203253 
C 272.062894 64.672496 265.917007 62.126786 259.509549 62.126786 
C 253.102091 62.126786 246.956203 64.672496 242.425446 69.203253 
C 237.894689 73.73401 235.348979 79.879898 235.348979 86.287356 
C 235.348979 92.694814 237.894689 98.840701 242.425446 103.371458 
C 246.956203 107.902215 253.102091 110.447925 259.509549 110.447925 
z
" clip-path="url(#pc2d50448e5)" style="fill: #c70039; fill-opacity: 0.99; stroke: #c70039; stroke-opacity: 0.99"/>
    <path d="M 174.251298 137.955889 
C 180.647519 137.955889 186.782628 135.414644 191.305439 130.891833 
C 195.82825 126.369022 198.369495 120.233913 198.369495 113.837692 
C 198.369495 107.441472 195.82825 101.306363 191.305439 96.783552 
C 186.782628 92.260741 180.647519 89.719495 174.251298 89.719495 
C 167.855077 89.719495 161.719968 92.260741 157.197157 96.783552 
C 152.674346 101.306363 150.133101 107.441472 150.133101 113.837692 
C 150.133101 120.233913 152.674346 126.369022 157.197157 130.891833 
C 161.719968 135.414644 167.855077 137.955889 174.251298 137.955889 
z
" clip-path="url(#pc2d50448e5)" style="fill: #c70039; fill-opacity: 0.99; stroke: #c70039; stroke-opacity: 0.99"/>
    <path d="M 107.631477 197.612051 
C 114.027698 197.612051 120.162807 195.070805 124.685618 190.547994 
C 129.208429 186.025183 131.749674 179.890074 131.749674 173.493854 
C 131.749674 167.097633 129.208429 160.962524 124.685618 156.439713 
C 120.162807 151.916902 114.027698 149.375657 107.631477 149.375657 
C 101.235256 149.375657 95.100147 151.916902 90.577336 156.439713 
C 86.054525 160.962524 83.51328 167.097633 83.51328 173.493854 
C 83.51328 179.890074 86.054525 186.025183 90.577336 190.547994 
C 95.100147 195.070805 101.235256 197.612051 107.631477 197.612051 
z
" clip-path="url(#pc2d50448e5)" style="fill: #c70039; fill-opacity: 0.99; stroke: #c70039; stroke-opacity: 0.99"/>
    <path d="M 71.169231 277.869084 
C 77.24989 277.869084 83.082319 275.453212 87.381994 271.153537 
C 91.681669 266.853862 94.097541 261.021433 94.097541 254.940774 
C 94.097541 248.860115 91.681669 243.027686 87.381994 238.72801 
C 83.082319 234.428335 77.24989 232.012464 71.169231 232.012464 
C 65.088572 232.012464 59.256142 234.428335 54.956467 238.72801 
C 50.656792 243.027686 48.240921 248.860115 48.240921 254.940774 
C 48.240921 261.021433 50.656792 266.853862 54.956467 271.153537 
C 59.256142 275.453212 65.088572 277.869084 71.169231 277.869084 
z
" clip-path="url(#pc2d50448e5)" style="fill: #c70039; fill-opacity: 0.99; stroke: #c70039; stroke-opacity: 0.99"/>
    <path d="M 71.169244 366.934817 
C 77.226297 366.934817 83.036085 364.528324 87.319069 360.24534 
C 91.602053 355.962356 94.008546 350.152568 94.008546 344.095514 
C 94.008546 338.038461 91.602053 332.228673 87.319069 327.945689 
C 83.036085 323.662705 77.226297 321.256212 71.169244 321.256212 
C 65.11219 321.256212 59.302402 323.662705 55.019418 327.945689 
C 50.736434 332.228673 48.329941 338.038461 48.329941 344.095514 
C 48.329941 350.152568 50.736434 355.962356 55.019418 360.24534 
C 59.302402 364.528324 65.11219 366.934817 71.169244 366.934817 
z
" clip-path="url(#pc2d50448e5)" style="fill: #c70039; fill-opacity: 0.99; stroke: #c70039; stroke-opacity: 0.99"/>
    <path d="M 107.63149 446.689339 
C 113.239721 446.689339 118.619009 444.461165 122.584627 440.495547 
C 126.550246 436.529928 128.77842 431.15064 128.77842 425.542409 
C 128.77842 419.934178 126.550246 414.55489 122.584627 410.589271 
C 118.619009 406.623653 113.239721 404.395479 107.63149 404.395479 
C 102.023258 404.395479 96.643971 406.623653 92.678352 410.589271 
C 88.712734 414.55489 86.48456 419.934178 86.48456 425.542409 
C 86.48456 431.15064 88.712734 436.529928 92.678352 440.495547 
C 96.643971 444.461165 102.023258 446.689339 107.63149 446.689339 
z
" clip-path="url(#pc2d50448e5)" style="fill: #c70039; fill-opacity: 0.99; stroke: #c70039; stroke-opacity: 0.99"/>
    <path d="M 174.25133 505.531055 
C 179.643568 505.531055 184.81568 503.388696 188.628568 499.575808 
C 192.441455 495.76292 194.583814 490.590808 194.583814 485.198571 
C 194.583814 479.806333 192.441455 474.634221 188.628568 470.821333 
C 184.81568 467.008445 179.643568 464.866086 174.25133 464.866086 
C 168.859092 464.866086 163.686981 467.008445 159.874093 470.821333 
C 156.061205 474.634221 153.918846 479.806333 153.918846 485.198571 
C 153.918846 490.590808 156.061205 495.76292 159.874093 499.575808 
C 163.686981 503.388696 168.859092 505.531055 174.25133 505.531055 
z
" clip-path="url(#pc2d50448e5)" style="fill: #c70039; fill-opacity: 0.99; stroke: #c70039; stroke-opacity: 0.99"/>
    <path d="M 259.509587 532.946736 
C 264.866117 532.946736 270.003979 530.818564 273.791618 527.030925 
C 277.579257 523.243286 279.707429 518.105425 279.707429 512.748894 
C 279.707429 507.392364 277.579257 502.254502 273.791618 498.466863 
C 270.003979 494.679224 264.866117 492.551052 259.509587 492.551052 
C 254.153057 492.551052 249.015195 494.679224 245.227556 498.466863 
C 241.439917 502.254502 239.311745 507.392364 239.311745 512.748894 
C 239.311745 518.105425 241.439917 523.243286 245.227556 527.030925 
C 249.015195 530.818564 254.153057 532.946736 259.509587 532.946736 
z
" clip-path="url(#pc2d50448e5)" style="fill: #c70039; fill-opacity: 0.99; stroke: #c70039; stroke-opacity: 0.99"/>
    <path d="M 348.664323 523.208408 
C 353.909705 523.208408 358.940955 521.124396 362.65 517.415351 
C 366.359045 513.706306 368.443057 508.675056 368.443057 503.429675 
C 368.443057 498.184293 366.359045 493.153043 362.65 489.443998 
C 358.940955 485.734953 353.909705 483.650941 348.664323 483.650941 
C 343.418942 483.650941 338.387692 485.734953 334.678647 489.443998 
C 330.969602 493.153043 328.88559 498.184293 328.88559 503.429675 
C 328.88559 508.675056 330.969602 513.706306 334.678647 517.415351 
C 338.387692 521.124396 343.418942 523.208408 348.664323 523.208408 
z
" clip-path="url(#pc2d50448e5)" style="fill: #c70039; fill-opacity: 0.99; stroke: #c70039; stroke-opacity: 0.99"/>
    <path d="M 426.299888 478.250487 
C 431.444352 478.250487 436.378804 476.20657 440.016488 472.568885 
C 443.654173 468.9312 445.69809 463.996748 445.69809 458.852285 
C 445.69809 453.707822 443.654173 448.77337 440.016488 445.135685 
C 436.378804 441.498 431.444352 439.454083 426.299888 439.454083 
C 421.155425 439.454083 416.220973 441.498 412.583288 445.135685 
C 408.945604 448.77337 406.901687 453.707822 406.901687 458.852285 
C 406.901687 463.996748 408.945604 468.9312 412.583288 472.568885 
C 416.220973 476.20657 421.155425 478.250487 426.299888 478.250487 
z
" clip-path="url(#pc2d50448e5)" style="fill: #c70039; fill-opacity: 0.99; stroke: #c70039; stroke-opacity: 0.99"/>
    <path d="M 478.992374 406.089501 
C 484.128009 406.089501 489.053994 404.049092 492.685437 400.417649 
C 496.31688 396.786206 498.35729 391.860221 498.35729 386.724585 
C 498.35729 381.588949 496.31688 376.662964 492.685437 373.031521 
C 489.053994 369.400078 484.128009 367.359668 478.992374 367.359668 
C 473.856738 367.359668 468.930753 369.400078 465.29931 373.031521 
C 461.667867 376.662964 459.627457 381.588949 459.627457 386.724585 
C 459.627457 391.860221 461.667867 396.786206 465.29931 400.417649 
C 468.930753 404.049092 473.856738 406.089501 478.992374 406.089501 
z
" clip-path="url(#pc2d50448e5)" style="fill: #c70039; fill-opacity: 0.99; stroke: #c70039; stroke-opacity: 0.99"/>
   </g>
   <g id="text_1">
    <g id="patch_2">
     <path d="M 448.277722 307.833281 
L 546.983816 307.833281 
L 546.983816 291.202969 
L 448.277722 291.202969 
z
" clip-path="url(#pc2d50448e5)" style="fill: #ffffff; opacity: 0.7; stroke: #000000; stroke-linejoin: miter"/>
    </g>
    <g clip-path="url(#pc2d50448e5)">
     <!-- M. Night Shyamalan -->
     <g transform="translate(452.237722 302.001562)scale(0.09 -0.09)">
      <defs>
       <path id="DejaVuSans-4d" d="M 628 4666 
L 1569 4666 
L 2759 1491 
L 3956 4666 
L 4897 4666 
L 4897 0 
L 4281 0 
L 4281 4097 
L 3078 897 
L 2444 897 
L 1241 4097 
L 1241 0 
L 628 0 
L 628 4666 
z
" transform="scale(0.015625)"/>
       <path id="DejaVuSans-2e" d="M 684 794 
L 1344 794 
L 1344 0 
L 684 0 
L 684 794 
z
" transform="scale(0.015625)"/>
       <path id="DejaVuSans-20" transform="scale(0.015625)"/>
       <path id="DejaVuSans-4e" d="M 628 4666 
L 1478 4666 
L 3547 763 
L 3547 4666 
L 4159 4666 
L 4159 0 
L 3309 0 
L 1241 3903 
L 1241 0 
L 628 0 
L 628 4666 
z
" transform="scale(0.015625)"/>
       <path id="DejaVuSans-69" d="M 603 3500 
L 1178 3500 
L 1178 0 
L 603 0 
L 603 3500 
z
M 603 4863 
L 1178 4863 
L 1178 4134 
L 603 4134 
L 603 4863 
z
" transform="scale(0.015625)"/>
       <path id="DejaVuSans-67" d="M 2906 1791 
Q 2906 2416 2648 2759 
Q 2391 3103 1925 3103 
Q 1463 3103 1205 2759 
Q 947 2416 947 1791 
Q 947 1169 1205 825 
Q 1463 481 1925 481 
Q 2391 481 2648 825 
Q 2906 1169 2906 1791 
z
M 3481 434 
Q 3481 -459 3084 -895 
Q 2688 -1331 1869 -1331 
Q 1566 -1331 1297 -1286 
Q 1028 -1241 775 -1147 
L 775 -588 
Q 1028 -725 1275 -790 
Q 1522 -856 1778 -856 
Q 2344 -856 2625 -561 
Q 2906 -266 2906 331 
L 2906 616 
Q 2728 306 2450 153 
Q 2172 0 1784 0 
Q 1141 0 747 490 
Q 353 981 353 1791 
Q 353 2603 747 3093 
Q 1141 3584 1784 3584 
Q 2172 3584 2450 3431 
Q 2728 3278 2906 2969 
L 2906 3500 
L 3481 3500 
L 3481 434 
z
" transform="scale(0.015625)"/>
       <path id="DejaVuSans-68" d="M 3513 2113 
L 3513 0 
L 2938 0 
L 2938 2094 
Q 2938 2591 2744 2837 
Q 2550 3084 2163 3084 
Q 1697 3084 1428 2787 
Q 1159 2491 1159 1978 
L 1159 0 
L 581 0 
L 581 4863 
L 1159 4863 
L 1159 2956 
Q 1366 3272 1645 3428 
Q 1925 3584 2291 3584 
Q 2894 3584 3203 3211 
Q 3513 2838 3513 2113 
z
" transform="scale(0.015625)"/>
       <path id="DejaVuSans-74" d="M 1172 4494 
L 1172 3500 
L 2356 3500 
L 2356 3053 
L 1172 3053 
L 1172 1153 
Q 1172 725 1289 603 
Q 1406 481 1766 481 
L 2356 481 
L 2356 0 
L 1766 0 
Q 1100 0 847 248 
Q 594 497 594 1153 
L 594 3053 
L 172 3053 
L 172 3500 
L 594 3500 
L 594 4494 
L 1172 4494 
z
" transform="scale(0.015625)"/>
       <path id="DejaVuSans-53" d="M 3425 4513 
L 3425 3897 
Q 3066 4069 2747 4153 
Q 2428 4238 2131 4238 
Q 1616 4238 1336 4038 
Q 1056 3838 1056 3469 
Q 1056 3159 1242 3001 
Q 1428 2844 1947 2747 
L 2328 2669 
Q 3034 2534 3370 2195 
Q 3706 1856 3706 1288 
Q 3706 609 3251 259 
Q 2797 -91 1919 -91 
Q 1588 -91 1214 -16 
Q 841 59 441 206 
L 441 856 
Q 825 641 1194 531 
Q 1563 422 1919 422 
Q 2459 422 2753 634 
Q 3047 847 3047 1241 
Q 3047 1584 2836 1778 
Q 2625 1972 2144 2069 
L 1759 2144 
Q 1053 2284 737 2584 
Q 422 2884 422 3419 
Q 422 4038 858 4394 
Q 1294 4750 2059 4750 
Q 2388 4750 2728 4690 
Q 3069 4631 3425 4513 
z
" transform="scale(0.015625)"/>
       <path id="DejaVuSans-79" d="M 2059 -325 
Q 1816 -950 1584 -1140 
Q 1353 -1331 966 -1331 
L 506 -1331 
L 506 -850 
L 844 -850 
Q 1081 -850 1212 -737 
Q 1344 -625 1503 -206 
L 1606 56 
L 191 3500 
L 800 3500 
L 1894 763 
L 2988 3500 
L 3597 3500 
L 2059 -325 
z
" transform="scale(0.015625)"/>
       <path id="DejaVuSans-61" d="M 2194 1759 
Q 1497 1759 1228 1600 
Q 959 1441 959 1056 
Q 959 750 1161 570 
Q 1363 391 1709 391 
Q 2188 391 2477 730 
Q 2766 1069 2766 1631 
L 2766 1759 
L 2194 1759 
z
M 3341 1997 
L 3341 0 
L 2766 0 
L 2766 531 
Q 2569 213 2275 61 
Q 1981 -91 1556 -91 
Q 1019 -91 701 211 
Q 384 513 384 1019 
Q 384 1609 779 1909 
Q 1175 2209 1959 2209 
L 2766 2209 
L 2766 2266 
Q 2766 2663 2505 2880 
Q 2244 3097 1772 3097 
Q 1472 3097 1187 3025 
Q 903 2953 641 2809 
L 641 3341 
Q 956 3463 1253 3523 
Q 1550 3584 1831 3584 
Q 2591 3584 2966 3190 
Q 3341 2797 3341 1997 
z
" transform="scale(0.015625)"/>
       <path id="DejaVuSans-6d" d="M 3328 2828 
Q 3544 3216 3844 3400 
Q 4144 3584 4550 3584 
Q 5097 3584 5394 3201 
Q 5691 2819 5691 2113 
L 5691 0 
L 5113 0 
L 5113 2094 
Q 5113 2597 4934 2840 
Q 4756 3084 4391 3084 
Q 3944 3084 3684 2787 
Q 3425 2491 3425 1978 
L 3425 0 
L 2847 0 
L 2847 2094 
Q 2847 2600 2669 2842 
Q 2491 3084 2119 3084 
Q 1678 3084 1418 2786 
Q 1159 2488 1159 1978 
L 1159 0 
L 581 0 
L 581 3500 
L 1159 3500 
L 1159 2956 
Q 1356 3278 1631 3431 
Q 1906 3584 2284 3584 
Q 2666 3584 2933 3390 
Q 3200 3197 3328 2828 
z
" transform="scale(0.015625)"/>
       <path id="DejaVuSans-6c" d="M 603 4863 
L 1178 4863 
L 1178 0 
L 603 0 
L 603 4863 
z
" transform="scale(0.015625)"/>
       <path id="DejaVuSans-6e" d="M 3513 2113 
L 3513 0 
L 2938 0 
L 2938 2094 
Q 2938 2591 2744 2837 
Q 2550 3084 2163 3084 
Q 1697 3084 1428 2787 
Q 1159 2491 1159 1978 
L 1159 0 
L 581 0 
L 581 3500 
L 1159 3500 
L 1159 2956 
Q 1366 3272 1645 3428 
Q 1925 3584 2291 3584 
Q 2894 3584 3203 3211 
Q 3513 2838 3513 2113 
z
" transform="scale(0.015625)"/>
      </defs>
      <use xlink:href="#DejaVuSans-4d"/>
      <use xlink:href="#DejaVuSans-2e" x="86.279297"/>
      <use xlink:href="#DejaVuSans-20" x="118.066406"/>
      <use xlink:href="#DejaVuSans-4e" x="149.853516"/>
      <use xlink:href="#DejaVuSans-69" x="224.658203"/>
      <use xlink:href="#DejaVuSans-67" x="252.441406"/>
      <use xlink:href="#DejaVuSans-68" x="315.917969"/>
      <use xlink:href="#DejaVuSans-74" x="379.296875"/>
      <use xlink:href="#DejaVuSans-20" x="418.505859"/>
      <use xlink:href="#DejaVuSans-53" x="450.292969"/>
      <use xlink:href="#DejaVuSans-68" x="513.769531"/>
      <use xlink:href="#DejaVuSans-79" x="577.148438"/>
      <use xlink:href="#DejaVuSans-61" x="636.328125"/>
      <use xlink:href="#DejaVuSans-6d" x="697.607422"/>
      <use xlink:href="#DejaVuSans-61" x="795.019531"/>
      <use xlink:href="#DejaVuSans-6c" x="856.298828"/>
      <use xlink:href="#DejaVuSans-61" x="884.082031"/>
      <use xlink:href="#DejaVuSans-6e" x="945.361328"/>
     </g>
    </g>
   </g>
   <g id="text_2">
    <g id="patch_3">
     <path d="M 448.235551 220.62679 
L 509.749145 220.62679 
L 509.749145 203.996477 
L 448.235551 203.996477 
z
" clip-path="url(#pc2d50448e5)" style="fill: #ffffff; opacity: 0.7; stroke: #000000; stroke-linejoin: miter"/>
    </g>
    <g clip-path="url(#pc2d50448e5)">
     <!-- Kevin Smith -->
     <g transform="translate(452.195551 214.795071)scale(0.09 -0.09)">
      <defs>
       <path id="DejaVuSans-4b" d="M 628 4666 
L 1259 4666 
L 1259 2694 
L 3353 4666 
L 4166 4666 
L 1850 2491 
L 4331 0 
L 3500 0 
L 1259 2247 
L 1259 0 
L 628 0 
L 628 4666 
z
" transform="scale(0.015625)"/>
       <path id="DejaVuSans-65" d="M 3597 1894 
L 3597 1613 
L 953 1613 
Q 991 1019 1311 708 
Q 1631 397 2203 397 
Q 2534 397 2845 478 
Q 3156 559 3463 722 
L 3463 178 
Q 3153 47 2828 -22 
Q 2503 -91 2169 -91 
Q 1331 -91 842 396 
Q 353 884 353 1716 
Q 353 2575 817 3079 
Q 1281 3584 2069 3584 
Q 2775 3584 3186 3129 
Q 3597 2675 3597 1894 
z
M 3022 2063 
Q 3016 2534 2758 2815 
Q 2500 3097 2075 3097 
Q 1594 3097 1305 2825 
Q 1016 2553 972 2059 
L 3022 2063 
z
" transform="scale(0.015625)"/>
       <path id="DejaVuSans-76" d="M 191 3500 
L 800 3500 
L 1894 563 
L 2988 3500 
L 3597 3500 
L 2284 0 
L 1503 0 
L 191 3500 
z
" transform="scale(0.015625)"/>
      </defs>
      <use xlink:href="#DejaVuSans-4b"/>
      <use xlink:href="#DejaVuSans-65" x="60.576172"/>
      <use xlink:href="#DejaVuSans-76" x="122.099609"/>
      <use xlink:href="#DejaVuSans-69" x="181.279297"/>
      <use xlink:href="#DejaVuSans-6e" x="209.0625"/>
      <use xlink:href="#DejaVuSans-20" x="272.441406"/>
      <use xlink:href="#DejaVuSans-53" x="304.228516"/>
      <use xlink:href="#DejaVuSans-6d" x="367.705078"/>
      <use xlink:href="#DejaVuSans-69" x="465.117188"/>
      <use xlink:href="#DejaVuSans-74" x="492.900391"/>
      <use xlink:href="#DejaVuSans-68" x="532.109375"/>
     </g>
    </g>
   </g>
   <g id="text_3">
    <g id="patch_4">
     <path d="M 386.983912 148.499083 
L 465.615787 148.499083 
L 465.615787 131.86877 
L 386.983912 131.86877 
z
" clip-path="url(#pc2d50448e5)" style="fill: #ffffff; opacity: 0.7; stroke: #000000; stroke-linejoin: miter"/>
    </g>
    <g clip-path="url(#pc2d50448e5)">
     <!-- Charles Chaplin -->
     <g transform="translate(390.943912 142.667364)scale(0.09 -0.09)">
      <defs>
       <path id="DejaVuSans-43" d="M 4122 4306 
L 4122 3641 
Q 3803 3938 3442 4084 
Q 3081 4231 2675 4231 
Q 1875 4231 1450 3742 
Q 1025 3253 1025 2328 
Q 1025 1406 1450 917 
Q 1875 428 2675 428 
Q 3081 428 3442 575 
Q 3803 722 4122 1019 
L 4122 359 
Q 3791 134 3420 21 
Q 3050 -91 2638 -91 
Q 1578 -91 968 557 
Q 359 1206 359 2328 
Q 359 3453 968 4101 
Q 1578 4750 2638 4750 
Q 3056 4750 3426 4639 
Q 3797 4528 4122 4306 
z
" transform="scale(0.015625)"/>
       <path id="DejaVuSans-72" d="M 2631 2963 
Q 2534 3019 2420 3045 
Q 2306 3072 2169 3072 
Q 1681 3072 1420 2755 
Q 1159 2438 1159 1844 
L 1159 0 
L 581 0 
L 581 3500 
L 1159 3500 
L 1159 2956 
Q 1341 3275 1631 3429 
Q 1922 3584 2338 3584 
Q 2397 3584 2469 3576 
Q 2541 3569 2628 3553 
L 2631 2963 
z
" transform="scale(0.015625)"/>
       <path id="DejaVuSans-73" d="M 2834 3397 
L 2834 2853 
Q 2591 2978 2328 3040 
Q 2066 3103 1784 3103 
Q 1356 3103 1142 2972 
Q 928 2841 928 2578 
Q 928 2378 1081 2264 
Q 1234 2150 1697 2047 
L 1894 2003 
Q 2506 1872 2764 1633 
Q 3022 1394 3022 966 
Q 3022 478 2636 193 
Q 2250 -91 1575 -91 
Q 1294 -91 989 -36 
Q 684 19 347 128 
L 347 722 
Q 666 556 975 473 
Q 1284 391 1588 391 
Q 1994 391 2212 530 
Q 2431 669 2431 922 
Q 2431 1156 2273 1281 
Q 2116 1406 1581 1522 
L 1381 1569 
Q 847 1681 609 1914 
Q 372 2147 372 2553 
Q 372 3047 722 3315 
Q 1072 3584 1716 3584 
Q 2034 3584 2315 3537 
Q 2597 3491 2834 3397 
z
" transform="scale(0.015625)"/>
       <path id="DejaVuSans-70" d="M 1159 525 
L 1159 -1331 
L 581 -1331 
L 581 3500 
L 1159 3500 
L 1159 2969 
Q 1341 3281 1617 3432 
Q 1894 3584 2278 3584 
Q 2916 3584 3314 3078 
Q 3713 2572 3713 1747 
Q 3713 922 3314 415 
Q 2916 -91 2278 -91 
Q 1894 -91 1617 61 
Q 1341 213 1159 525 
z
M 3116 1747 
Q 3116 2381 2855 2742 
Q 2594 3103 2138 3103 
Q 1681 3103 1420 2742 
Q 1159 2381 1159 1747 
Q 1159 1113 1420 752 
Q 1681 391 2138 391 
Q 2594 391 2855 752 
Q 3116 1113 3116 1747 
z
" transform="scale(0.015625)"/>
      </defs>
      <use xlink:href="#DejaVuSans-43"/>
      <use xlink:href="#DejaVuSans-68" x="69.824219"/>
      <use xlink:href="#DejaVuSans-61" x="133.203125"/>
      <use xlink:href="#DejaVuSans-72" x="194.482422"/>
      <use xlink:href="#DejaVuSans-6c" x="235.595703"/>
      <use xlink:href="#DejaVuSans-65" x="263.378906"/>
      <use xlink:href="#DejaVuSans-73" x="324.902344"/>
      <use xlink:href="#DejaVuSans-20" x="377.001953"/>
      <use xlink:href="#DejaVuSans-43" x="408.789062"/>
      <use xlink:href="#DejaVuSans-68" x="478.613281"/>
      <use xlink:href="#DejaVuSans-61" x="541.992188"/>
      <use xlink:href="#DejaVuSans-70" x="603.271484"/>
      <use xlink:href="#DejaVuSans-6c" x="666.748047"/>
      <use xlink:href="#DejaVuSans-69" x="694.53125"/>
      <use xlink:href="#DejaVuSans-6e" x="722.314453"/>
     </g>
    </g>
   </g>
   <g id="text_4">
    <g id="patch_5">
     <path d="M 315.665229 103.921719 
L 381.663354 103.921719 
L 381.663354 87.291406 
L 315.665229 87.291406 
z
" clip-path="url(#pc2d50448e5)" style="fill: #ffffff; opacity: 0.7; stroke: #000000; stroke-linejoin: miter"/>
    </g>
    <g clip-path="url(#pc2d50448e5)">
     <!-- Herbert Ross -->
     <g transform="translate(319.625229 98.09)scale(0.09 -0.09)">
      <defs>
       <path id="DejaVuSans-48" d="M 628 4666 
L 1259 4666 
L 1259 2753 
L 3553 2753 
L 3553 4666 
L 4184 4666 
L 4184 0 
L 3553 0 
L 3553 2222 
L 1259 2222 
L 1259 0 
L 628 0 
L 628 4666 
z
" transform="scale(0.015625)"/>
       <path id="DejaVuSans-62" d="M 3116 1747 
Q 3116 2381 2855 2742 
Q 2594 3103 2138 3103 
Q 1681 3103 1420 2742 
Q 1159 2381 1159 1747 
Q 1159 1113 1420 752 
Q 1681 391 2138 391 
Q 2594 391 2855 752 
Q 3116 1113 3116 1747 
z
M 1159 2969 
Q 1341 3281 1617 3432 
Q 1894 3584 2278 3584 
Q 2916 3584 3314 3078 
Q 3713 2572 3713 1747 
Q 3713 922 3314 415 
Q 2916 -91 2278 -91 
Q 1894 -91 1617 61 
Q 1341 213 1159 525 
L 1159 0 
L 581 0 
L 581 4863 
L 1159 4863 
L 1159 2969 
z
" transform="scale(0.015625)"/>
       <path id="DejaVuSans-52" d="M 2841 2188 
Q 3044 2119 3236 1894 
Q 3428 1669 3622 1275 
L 4263 0 
L 3584 0 
L 2988 1197 
Q 2756 1666 2539 1819 
Q 2322 1972 1947 1972 
L 1259 1972 
L 1259 0 
L 628 0 
L 628 4666 
L 2053 4666 
Q 2853 4666 3247 4331 
Q 3641 3997 3641 3322 
Q 3641 2881 3436 2590 
Q 3231 2300 2841 2188 
z
M 1259 4147 
L 1259 2491 
L 2053 2491 
Q 2509 2491 2742 2702 
Q 2975 2913 2975 3322 
Q 2975 3731 2742 3939 
Q 2509 4147 2053 4147 
L 1259 4147 
z
" transform="scale(0.015625)"/>
       <path id="DejaVuSans-6f" d="M 1959 3097 
Q 1497 3097 1228 2736 
Q 959 2375 959 1747 
Q 959 1119 1226 758 
Q 1494 397 1959 397 
Q 2419 397 2687 759 
Q 2956 1122 2956 1747 
Q 2956 2369 2687 2733 
Q 2419 3097 1959 3097 
z
M 1959 3584 
Q 2709 3584 3137 3096 
Q 3566 2609 3566 1747 
Q 3566 888 3137 398 
Q 2709 -91 1959 -91 
Q 1206 -91 779 398 
Q 353 888 353 1747 
Q 353 2609 779 3096 
Q 1206 3584 1959 3584 
z
" transform="scale(0.015625)"/>
      </defs>
      <use xlink:href="#DejaVuSans-48"/>
      <use xlink:href="#DejaVuSans-65" x="75.195312"/>
      <use xlink:href="#DejaVuSans-72" x="136.71875"/>
      <use xlink:href="#DejaVuSans-62" x="177.832031"/>
      <use xlink:href="#DejaVuSans-65" x="241.308594"/>
      <use xlink:href="#DejaVuSans-72" x="302.832031"/>
      <use xlink:href="#DejaVuSans-74" x="343.945312"/>
      <use xlink:href="#DejaVuSans-20" x="383.154297"/>
      <use xlink:href="#DejaVuSans-52" x="414.941406"/>
      <use xlink:href="#DejaVuSans-6f" x="479.923828"/>
      <use xlink:href="#DejaVuSans-73" x="541.105469"/>
      <use xlink:href="#DejaVuSans-73" x="593.205078"/>
     </g>
    </g>
   </g>
   <g id="text_5">
    <g id="patch_6">
     <path d="M 227.884392 94.602512 
L 291.134705 94.602512 
L 291.134705 77.9722 
L 227.884392 77.9722 
z
" clip-path="url(#pc2d50448e5)" style="fill: #ffffff; opacity: 0.7; stroke: #000000; stroke-linejoin: miter"/>
    </g>
    <g clip-path="url(#pc2d50448e5)">
     <!-- Tamra Davis -->
     <g transform="translate(231.844392 88.770793)scale(0.09 -0.09)">
      <defs>
       <path id="DejaVuSans-54" d="M -19 4666 
L 3928 4666 
L 3928 4134 
L 2272 4134 
L 2272 0 
L 1638 0 
L 1638 4134 
L -19 4134 
L -19 4666 
z
" transform="scale(0.015625)"/>
       <path id="DejaVuSans-44" d="M 1259 4147 
L 1259 519 
L 2022 519 
Q 2988 519 3436 956 
Q 3884 1394 3884 2338 
Q 3884 3275 3436 3711 
Q 2988 4147 2022 4147 
L 1259 4147 
z
M 628 4666 
L 1925 4666 
Q 3281 4666 3915 4102 
Q 4550 3538 4550 2338 
Q 4550 1131 3912 565 
Q 3275 0 1925 0 
L 628 0 
L 628 4666 
z
" transform="scale(0.015625)"/>
      </defs>
      <use xlink:href="#DejaVuSans-54"/>
      <use xlink:href="#DejaVuSans-61" x="44.583984"/>
      <use xlink:href="#DejaVuSans-6d" x="105.863281"/>
      <use xlink:href="#DejaVuSans-72" x="203.275391"/>
      <use xlink:href="#DejaVuSans-61" x="244.388672"/>
      <use xlink:href="#DejaVuSans-20" x="305.667969"/>
      <use xlink:href="#DejaVuSans-44" x="337.455078"/>
      <use xlink:href="#DejaVuSans-61" x="414.457031"/>
      <use xlink:href="#DejaVuSans-76" x="475.736328"/>
      <use xlink:href="#DejaVuSans-69" x="534.916016"/>
      <use xlink:href="#DejaVuSans-73" x="562.699219"/>
     </g>
    </g>
   </g>
   <g id="text_6">
    <g id="patch_7">
     <path d="M 137.768251 122.152849 
L 210.734345 122.152849 
L 210.734345 105.522536 
L 137.768251 105.522536 
z
" clip-path="url(#pc2d50448e5)" style="fill: #ffffff; opacity: 0.7; stroke: #000000; stroke-linejoin: miter"/>
    </g>
    <g clip-path="url(#pc2d50448e5)">
     <!-- William Hanna -->
     <g transform="translate(141.728251 116.32113)scale(0.09 -0.09)">
      <defs>
       <path id="DejaVuSans-57" d="M 213 4666 
L 850 4666 
L 1831 722 
L 2809 4666 
L 3519 4666 
L 4500 722 
L 5478 4666 
L 6119 4666 
L 4947 0 
L 4153 0 
L 3169 4050 
L 2175 0 
L 1381 0 
L 213 4666 
z
" transform="scale(0.015625)"/>
      </defs>
      <use xlink:href="#DejaVuSans-57"/>
      <use xlink:href="#DejaVuSans-69" x="96.626953"/>
      <use xlink:href="#DejaVuSans-6c" x="124.410156"/>
      <use xlink:href="#DejaVuSans-6c" x="152.193359"/>
      <use xlink:href="#DejaVuSans-69" x="179.976562"/>
      <use xlink:href="#DejaVuSans-61" x="207.759766"/>
      <use xlink:href="#DejaVuSans-6d" x="269.039062"/>
      <use xlink:href="#DejaVuSans-20" x="366.451172"/>
      <use xlink:href="#DejaVuSans-48" x="398.238281"/>
      <use xlink:href="#DejaVuSans-61" x="473.433594"/>
      <use xlink:href="#DejaVuSans-6e" x="534.712891"/>
      <use xlink:href="#DejaVuSans-6e" x="598.091797"/>
      <use xlink:href="#DejaVuSans-61" x="661.470703"/>
     </g>
    </g>
   </g>
   <g id="text_7">
    <g id="patch_8">
     <path d="M 69.410305 181.80901 
L 145.852649 181.80901 
L 145.852649 165.178697 
L 69.410305 165.178697 
z
" clip-path="url(#pc2d50448e5)" style="fill: #ffffff; opacity: 0.7; stroke: #000000; stroke-linejoin: miter"/>
    </g>
    <g clip-path="url(#pc2d50448e5)">
     <!-- Joseph Barbera -->
     <g transform="translate(73.370305 175.977291)scale(0.09 -0.09)">
      <defs>
       <path id="DejaVuSans-4a" d="M 628 4666 
L 1259 4666 
L 1259 325 
Q 1259 -519 939 -900 
Q 619 -1281 -91 -1281 
L -331 -1281 
L -331 -750 
L -134 -750 
Q 284 -750 456 -515 
Q 628 -281 628 325 
L 628 4666 
z
" transform="scale(0.015625)"/>
       <path id="DejaVuSans-42" d="M 1259 2228 
L 1259 519 
L 2272 519 
Q 2781 519 3026 730 
Q 3272 941 3272 1375 
Q 3272 1813 3026 2020 
Q 2781 2228 2272 2228 
L 1259 2228 
z
M 1259 4147 
L 1259 2741 
L 2194 2741 
Q 2656 2741 2882 2914 
Q 3109 3088 3109 3444 
Q 3109 3797 2882 3972 
Q 2656 4147 2194 4147 
L 1259 4147 
z
M 628 4666 
L 2241 4666 
Q 2963 4666 3353 4366 
Q 3744 4066 3744 3513 
Q 3744 3084 3544 2831 
Q 3344 2578 2956 2516 
Q 3422 2416 3680 2098 
Q 3938 1781 3938 1306 
Q 3938 681 3513 340 
Q 3088 0 2303 0 
L 628 0 
L 628 4666 
z
" transform="scale(0.015625)"/>
      </defs>
      <use xlink:href="#DejaVuSans-4a"/>
      <use xlink:href="#DejaVuSans-6f" x="29.492188"/>
      <use xlink:href="#DejaVuSans-73" x="90.673828"/>
      <use xlink:href="#DejaVuSans-65" x="142.773438"/>
      <use xlink:href="#DejaVuSans-70" x="204.296875"/>
      <use xlink:href="#DejaVuSans-68" x="267.773438"/>
      <use xlink:href="#DejaVuSans-20" x="331.152344"/>
      <use xlink:href="#DejaVuSans-42" x="362.939453"/>
      <use xlink:href="#DejaVuSans-61" x="431.542969"/>
      <use xlink:href="#DejaVuSans-72" x="492.822266"/>
      <use xlink:href="#DejaVuSans-62" x="533.935547"/>
      <use xlink:href="#DejaVuSans-65" x="597.412109"/>
      <use xlink:href="#DejaVuSans-72" x="658.935547"/>
      <use xlink:href="#DejaVuSans-61" x="700.048828"/>
     </g>
    </g>
   </g>
   <g id="text_8">
    <g id="patch_9">
     <path d="M 31.026418 263.25593 
L 111.312043 263.25593 
L 111.312043 246.625618 
L 31.026418 246.625618 
z
" clip-path="url(#pc2d50448e5)" style="fill: #ffffff; opacity: 0.7; stroke: #000000; stroke-linejoin: miter"/>
    </g>
    <g clip-path="url(#pc2d50448e5)">
     <!-- Gordon Douglas -->
     <g transform="translate(34.986418 257.424211)scale(0.09 -0.09)">
      <defs>
       <path id="DejaVuSans-47" d="M 3809 666 
L 3809 1919 
L 2778 1919 
L 2778 2438 
L 4434 2438 
L 4434 434 
Q 4069 175 3628 42 
Q 3188 -91 2688 -91 
Q 1594 -91 976 548 
Q 359 1188 359 2328 
Q 359 3472 976 4111 
Q 1594 4750 2688 4750 
Q 3144 4750 3555 4637 
Q 3966 4525 4313 4306 
L 4313 3634 
Q 3963 3931 3569 4081 
Q 3175 4231 2741 4231 
Q 1884 4231 1454 3753 
Q 1025 3275 1025 2328 
Q 1025 1384 1454 906 
Q 1884 428 2741 428 
Q 3075 428 3337 486 
Q 3600 544 3809 666 
z
" transform="scale(0.015625)"/>
       <path id="DejaVuSans-64" d="M 2906 2969 
L 2906 4863 
L 3481 4863 
L 3481 0 
L 2906 0 
L 2906 525 
Q 2725 213 2448 61 
Q 2172 -91 1784 -91 
Q 1150 -91 751 415 
Q 353 922 353 1747 
Q 353 2572 751 3078 
Q 1150 3584 1784 3584 
Q 2172 3584 2448 3432 
Q 2725 3281 2906 2969 
z
M 947 1747 
Q 947 1113 1208 752 
Q 1469 391 1925 391 
Q 2381 391 2643 752 
Q 2906 1113 2906 1747 
Q 2906 2381 2643 2742 
Q 2381 3103 1925 3103 
Q 1469 3103 1208 2742 
Q 947 2381 947 1747 
z
" transform="scale(0.015625)"/>
       <path id="DejaVuSans-75" d="M 544 1381 
L 544 3500 
L 1119 3500 
L 1119 1403 
Q 1119 906 1312 657 
Q 1506 409 1894 409 
Q 2359 409 2629 706 
Q 2900 1003 2900 1516 
L 2900 3500 
L 3475 3500 
L 3475 0 
L 2900 0 
L 2900 538 
Q 2691 219 2414 64 
Q 2138 -91 1772 -91 
Q 1169 -91 856 284 
Q 544 659 544 1381 
z
M 1991 3584 
L 1991 3584 
z
" transform="scale(0.015625)"/>
      </defs>
      <use xlink:href="#DejaVuSans-47"/>
      <use xlink:href="#DejaVuSans-6f" x="77.490234"/>
      <use xlink:href="#DejaVuSans-72" x="138.671875"/>
      <use xlink:href="#DejaVuSans-64" x="178.035156"/>
      <use xlink:href="#DejaVuSans-6f" x="241.511719"/>
      <use xlink:href="#DejaVuSans-6e" x="302.693359"/>
      <use xlink:href="#DejaVuSans-20" x="366.072266"/>
      <use xlink:href="#DejaVuSans-44" x="397.859375"/>
      <use xlink:href="#DejaVuSans-6f" x="474.861328"/>
      <use xlink:href="#DejaVuSans-75" x="536.042969"/>
      <use xlink:href="#DejaVuSans-67" x="599.421875"/>
      <use xlink:href="#DejaVuSans-6c" x="662.898438"/>
      <use xlink:href="#DejaVuSans-61" x="690.681641"/>
      <use xlink:href="#DejaVuSans-73" x="751.960938"/>
     </g>
    </g>
   </g>
   <g id="text_9">
    <g id="patch_10">
     <path d="M 33.977447 352.410671 
L 108.36104 352.410671 
L 108.36104 335.780358 
L 33.977447 335.780358 
z
" clip-path="url(#pc2d50448e5)" style="fill: #ffffff; opacity: 0.7; stroke: #000000; stroke-linejoin: miter"/>
    </g>
    <g clip-path="url(#pc2d50448e5)">
     <!-- Dave Fleischer -->
     <g transform="translate(37.937447 346.578952)scale(0.09 -0.09)">
      <defs>
       <path id="DejaVuSans-46" d="M 628 4666 
L 3309 4666 
L 3309 4134 
L 1259 4134 
L 1259 2759 
L 3109 2759 
L 3109 2228 
L 1259 2228 
L 1259 0 
L 628 0 
L 628 4666 
z
" transform="scale(0.015625)"/>
       <path id="DejaVuSans-63" d="M 3122 3366 
L 3122 2828 
Q 2878 2963 2633 3030 
Q 2388 3097 2138 3097 
Q 1578 3097 1268 2742 
Q 959 2388 959 1747 
Q 959 1106 1268 751 
Q 1578 397 2138 397 
Q 2388 397 2633 464 
Q 2878 531 3122 666 
L 3122 134 
Q 2881 22 2623 -34 
Q 2366 -91 2075 -91 
Q 1284 -91 818 406 
Q 353 903 353 1747 
Q 353 2603 823 3093 
Q 1294 3584 2113 3584 
Q 2378 3584 2631 3529 
Q 2884 3475 3122 3366 
z
" transform="scale(0.015625)"/>
      </defs>
      <use xlink:href="#DejaVuSans-44"/>
      <use xlink:href="#DejaVuSans-61" x="77.001953"/>
      <use xlink:href="#DejaVuSans-76" x="138.28125"/>
      <use xlink:href="#DejaVuSans-65" x="197.460938"/>
      <use xlink:href="#DejaVuSans-20" x="258.984375"/>
      <use xlink:href="#DejaVuSans-46" x="290.771484"/>
      <use xlink:href="#DejaVuSans-6c" x="348.291016"/>
      <use xlink:href="#DejaVuSans-65" x="376.074219"/>
      <use xlink:href="#DejaVuSans-69" x="437.597656"/>
      <use xlink:href="#DejaVuSans-73" x="465.380859"/>
      <use xlink:href="#DejaVuSans-63" x="517.480469"/>
      <use xlink:href="#DejaVuSans-68" x="572.460938"/>
      <use xlink:href="#DejaVuSans-65" x="635.839844"/>
      <use xlink:href="#DejaVuSans-72" x="697.363281"/>
     </g>
    </g>
   </g>
   <g id="text_10">
    <g id="patch_11">
     <path d="M 64.641724 433.857565 
L 150.621255 433.857565 
L 150.621255 417.227253 
L 64.641724 417.227253 
z
" clip-path="url(#pc2d50448e5)" style="fill: #ffffff; opacity: 0.7; stroke: #000000; stroke-linejoin: miter"/>
    </g>
    <g clip-path="url(#pc2d50448e5)">
     <!-- Robert J. Flaherty -->
     <g transform="translate(68.601724 428.025847)scale(0.09 -0.09)">
      <use xlink:href="#DejaVuSans-52"/>
      <use xlink:href="#DejaVuSans-6f" x="64.982422"/>
      <use xlink:href="#DejaVuSans-62" x="126.164062"/>
      <use xlink:href="#DejaVuSans-65" x="189.640625"/>
      <use xlink:href="#DejaVuSans-72" x="251.164062"/>
      <use xlink:href="#DejaVuSans-74" x="292.277344"/>
      <use xlink:href="#DejaVuSans-20" x="331.486328"/>
      <use xlink:href="#DejaVuSans-4a" x="363.273438"/>
      <use xlink:href="#DejaVuSans-2e" x="392.765625"/>
      <use xlink:href="#DejaVuSans-20" x="424.552734"/>
      <use xlink:href="#DejaVuSans-46" x="456.339844"/>
      <use xlink:href="#DejaVuSans-6c" x="513.859375"/>
      <use xlink:href="#DejaVuSans-61" x="541.642578"/>
      <use xlink:href="#DejaVuSans-68" x="602.921875"/>
      <use xlink:href="#DejaVuSans-65" x="666.300781"/>
      <use xlink:href="#DejaVuSans-72" x="727.824219"/>
      <use xlink:href="#DejaVuSans-74" x="768.9375"/>
      <use xlink:href="#DejaVuSans-79" x="808.146484"/>
     </g>
    </g>
   </g>
   <g id="text_11">
    <g id="patch_12">
     <path d="M 145.773361 493.513727 
L 202.729299 493.513727 
L 202.729299 476.883414 
L 145.773361 476.883414 
z
" clip-path="url(#pc2d50448e5)" style="fill: #ffffff; opacity: 0.7; stroke: #000000; stroke-linejoin: miter"/>
    </g>
    <g clip-path="url(#pc2d50448e5)">
     <!-- Burt Gillett -->
     <g transform="translate(149.733361 487.682008)scale(0.09 -0.09)">
      <use xlink:href="#DejaVuSans-42"/>
      <use xlink:href="#DejaVuSans-75" x="68.603516"/>
      <use xlink:href="#DejaVuSans-72" x="131.982422"/>
      <use xlink:href="#DejaVuSans-74" x="173.095703"/>
      <use xlink:href="#DejaVuSans-20" x="212.304688"/>
      <use xlink:href="#DejaVuSans-47" x="244.091797"/>
      <use xlink:href="#DejaVuSans-69" x="321.582031"/>
      <use xlink:href="#DejaVuSans-6c" x="349.365234"/>
      <use xlink:href="#DejaVuSans-6c" x="377.148438"/>
      <use xlink:href="#DejaVuSans-65" x="404.931641"/>
      <use xlink:href="#DejaVuSans-74" x="466.455078"/>
      <use xlink:href="#DejaVuSans-74" x="505.664062"/>
     </g>
    </g>
   </g>
   <g id="text_12">
    <g id="patch_13">
     <path d="M 223.361228 521.06405 
L 295.657947 521.06405 
L 295.657947 504.433738 
L 223.361228 504.433738 
z
" clip-path="url(#pc2d50448e5)" style="fill: #ffffff; opacity: 0.7; stroke: #000000; stroke-linejoin: miter"/>
    </g>
    <g clip-path="url(#pc2d50448e5)">
     <!-- W.S. Van Dyke -->
     <g transform="translate(227.321228 515.232332)scale(0.09 -0.09)">
      <defs>
       <path id="DejaVuSans-56" d="M 1831 0 
L 50 4666 
L 709 4666 
L 2188 738 
L 3669 4666 
L 4325 4666 
L 2547 0 
L 1831 0 
z
" transform="scale(0.015625)"/>
       <path id="DejaVuSans-6b" d="M 581 4863 
L 1159 4863 
L 1159 1991 
L 2875 3500 
L 3609 3500 
L 1753 1863 
L 3688 0 
L 2938 0 
L 1159 1709 
L 1159 0 
L 581 0 
L 581 4863 
z
" transform="scale(0.015625)"/>
      </defs>
      <use xlink:href="#DejaVuSans-57"/>
      <use xlink:href="#DejaVuSans-2e" x="87.376953"/>
      <use xlink:href="#DejaVuSans-53" x="119.164062"/>
      <use xlink:href="#DejaVuSans-2e" x="182.640625"/>
      <use xlink:href="#DejaVuSans-20" x="214.427734"/>
      <use xlink:href="#DejaVuSans-56" x="246.214844"/>
      <use xlink:href="#DejaVuSans-61" x="306.873047"/>
      <use xlink:href="#DejaVuSans-6e" x="368.152344"/>
      <use xlink:href="#DejaVuSans-20" x="431.53125"/>
      <use xlink:href="#DejaVuSans-44" x="463.318359"/>
      <use xlink:href="#DejaVuSans-79" x="540.320312"/>
      <use xlink:href="#DejaVuSans-6b" x="599.5"/>
      <use xlink:href="#DejaVuSans-65" x="653.785156"/>
     </g>
    </g>
   </g>
   <g id="text_13">
    <g id="patch_14">
     <path d="M 305.46573 511.744831 
L 391.862917 511.744831 
L 391.862917 495.114518 
L 305.46573 495.114518 
z
" clip-path="url(#pc2d50448e5)" style="fill: #ffffff; opacity: 0.7; stroke: #000000; stroke-linejoin: miter"/>
    </g>
    <g clip-path="url(#pc2d50448e5)">
     <!-- Robert McKimson -->
     <g transform="translate(309.42573 505.913112)scale(0.09 -0.09)">
      <use xlink:href="#DejaVuSans-52"/>
      <use xlink:href="#DejaVuSans-6f" x="64.982422"/>
      <use xlink:href="#DejaVuSans-62" x="126.164062"/>
      <use xlink:href="#DejaVuSans-65" x="189.640625"/>
      <use xlink:href="#DejaVuSans-72" x="251.164062"/>
      <use xlink:href="#DejaVuSans-74" x="292.277344"/>
      <use xlink:href="#DejaVuSans-20" x="331.486328"/>
      <use xlink:href="#DejaVuSans-4d" x="363.273438"/>
      <use xlink:href="#DejaVuSans-63" x="449.552734"/>
      <use xlink:href="#DejaVuSans-4b" x="504.533203"/>
      <use xlink:href="#DejaVuSans-69" x="570.109375"/>
      <use xlink:href="#DejaVuSans-6d" x="597.892578"/>
      <use xlink:href="#DejaVuSans-73" x="695.304688"/>
      <use xlink:href="#DejaVuSans-6f" x="747.404297"/>
      <use xlink:href="#DejaVuSans-6e" x="808.585938"/>
     </g>
    </g>
   </g>
   <g id="text_14">
    <g id="patch_15">
     <path d="M 387.279967 467.167441 
L 465.31981 467.167441 
L 465.31981 450.537129 
L 387.279967 450.537129 
z
" clip-path="url(#pc2d50448e5)" style="fill: #ffffff; opacity: 0.7; stroke: #000000; stroke-linejoin: miter"/>
    </g>
    <g clip-path="url(#pc2d50448e5)">
     <!-- Richard Donner -->
     <g transform="translate(391.239967 461.335723)scale(0.09 -0.09)">
      <use xlink:href="#DejaVuSans-52"/>
      <use xlink:href="#DejaVuSans-69" x="69.482422"/>
      <use xlink:href="#DejaVuSans-63" x="97.265625"/>
      <use xlink:href="#DejaVuSans-68" x="152.246094"/>
      <use xlink:href="#DejaVuSans-61" x="215.625"/>
      <use xlink:href="#DejaVuSans-72" x="276.904297"/>
      <use xlink:href="#DejaVuSans-64" x="316.267578"/>
      <use xlink:href="#DejaVuSans-20" x="379.744141"/>
      <use xlink:href="#DejaVuSans-44" x="411.53125"/>
      <use xlink:href="#DejaVuSans-6f" x="488.533203"/>
      <use xlink:href="#DejaVuSans-6e" x="549.714844"/>
      <use xlink:href="#DejaVuSans-6e" x="613.09375"/>
      <use xlink:href="#DejaVuSans-65" x="676.472656"/>
      <use xlink:href="#DejaVuSans-72" x="737.996094"/>
     </g>
    </g>
   </g>
   <g id="text_15">
    <g id="patch_16">
     <path d="M 445.809795 395.039741 
L 512.174952 395.039741 
L 512.174952 378.409428 
L 445.809795 378.409428 
z
" clip-path="url(#pc2d50448e5)" style="fill: #ffffff; opacity: 0.7; stroke: #000000; stroke-linejoin: miter"/>
    </g>
    <g clip-path="url(#pc2d50448e5)">
     <!-- Steve Barron -->
     <g transform="translate(449.769795 389.208022)scale(0.09 -0.09)">
      <use xlink:href="#DejaVuSans-53"/>
      <use xlink:href="#DejaVuSans-74" x="63.476562"/>
      <use xlink:href="#DejaVuSans-65" x="102.685547"/>
      <use xlink:href="#DejaVuSans-76" x="164.208984"/>
      <use xlink:href="#DejaVuSans-65" x="223.388672"/>
      <use xlink:href="#DejaVuSans-20" x="284.912109"/>
      <use xlink:href="#DejaVuSans-42" x="316.699219"/>
      <use xlink:href="#DejaVuSans-61" x="385.302734"/>
      <use xlink:href="#DejaVuSans-72" x="446.582031"/>
      <use xlink:href="#DejaVuSans-72" x="485.945312"/>
      <use xlink:href="#DejaVuSans-6f" x="524.808594"/>
      <use xlink:href="#DejaVuSans-6e" x="585.990234"/>
     </g>
    </g>
   </g>
   <g id="text_16">
    <!-- Impactful directors for Silent film genre - Importance rank: 8 -->
    <g transform="translate(102.826875 16.318125)scale(0.12 -0.12)">
     <defs>
      <path id="DejaVuSans-49" d="M 628 4666 
L 1259 4666 
L 1259 0 
L 628 0 
L 628 4666 
z
" transform="scale(0.015625)"/>
      <path id="DejaVuSans-66" d="M 2375 4863 
L 2375 4384 
L 1825 4384 
Q 1516 4384 1395 4259 
Q 1275 4134 1275 3809 
L 1275 3500 
L 2222 3500 
L 2222 3053 
L 1275 3053 
L 1275 0 
L 697 0 
L 697 3053 
L 147 3053 
L 147 3500 
L 697 3500 
L 697 3744 
Q 697 4328 969 4595 
Q 1241 4863 1831 4863 
L 2375 4863 
z
" transform="scale(0.015625)"/>
      <path id="DejaVuSans-2d" d="M 313 2009 
L 1997 2009 
L 1997 1497 
L 313 1497 
L 313 2009 
z
" transform="scale(0.015625)"/>
      <path id="DejaVuSans-3a" d="M 750 794 
L 1409 794 
L 1409 0 
L 750 0 
L 750 794 
z
M 750 3309 
L 1409 3309 
L 1409 2516 
L 750 2516 
L 750 3309 
z
" transform="scale(0.015625)"/>
      <path id="DejaVuSans-38" d="M 2034 2216 
Q 1584 2216 1326 1975 
Q 1069 1734 1069 1313 
Q 1069 891 1326 650 
Q 1584 409 2034 409 
Q 2484 409 2743 651 
Q 3003 894 3003 1313 
Q 3003 1734 2745 1975 
Q 2488 2216 2034 2216 
z
M 1403 2484 
Q 997 2584 770 2862 
Q 544 3141 544 3541 
Q 544 4100 942 4425 
Q 1341 4750 2034 4750 
Q 2731 4750 3128 4425 
Q 3525 4100 3525 3541 
Q 3525 3141 3298 2862 
Q 3072 2584 2669 2484 
Q 3125 2378 3379 2068 
Q 3634 1759 3634 1313 
Q 3634 634 3220 271 
Q 2806 -91 2034 -91 
Q 1263 -91 848 271 
Q 434 634 434 1313 
Q 434 1759 690 2068 
Q 947 2378 1403 2484 
z
M 1172 3481 
Q 1172 3119 1398 2916 
Q 1625 2713 2034 2713 
Q 2441 2713 2670 2916 
Q 2900 3119 2900 3481 
Q 2900 3844 2670 4047 
Q 2441 4250 2034 4250 
Q 1625 4250 1398 4047 
Q 1172 3844 1172 3481 
z
" transform="scale(0.015625)"/>
     </defs>
     <use xlink:href="#DejaVuSans-49"/>
     <use xlink:href="#DejaVuSans-6d" x="29.492188"/>
     <use xlink:href="#DejaVuSans-70" x="126.904297"/>
     <use xlink:href="#DejaVuSans-61" x="190.380859"/>
     <use xlink:href="#DejaVuSans-63" x="251.660156"/>
     <use xlink:href="#DejaVuSans-74" x="306.640625"/>
     <use xlink:href="#DejaVuSans-66" x="345.849609"/>
     <use xlink:href="#DejaVuSans-75" x="381.054688"/>
     <use xlink:href="#DejaVuSans-6c" x="444.433594"/>
     <use xlink:href="#DejaVuSans-20" x="472.216797"/>
     <use xlink:href="#DejaVuSans-64" x="504.003906"/>
     <use xlink:href="#DejaVuSans-69" x="567.480469"/>
     <use xlink:href="#DejaVuSans-72" x="595.263672"/>
     <use xlink:href="#DejaVuSans-65" x="634.126953"/>
     <use xlink:href="#DejaVuSans-63" x="695.650391"/>
     <use xlink:href="#DejaVuSans-74" x="750.630859"/>
     <use xlink:href="#DejaVuSans-6f" x="789.839844"/>
     <use xlink:href="#DejaVuSans-72" x="851.021484"/>
     <use xlink:href="#DejaVuSans-73" x="892.134766"/>
     <use xlink:href="#DejaVuSans-20" x="944.234375"/>
     <use xlink:href="#DejaVuSans-66" x="976.021484"/>
     <use xlink:href="#DejaVuSans-6f" x="1011.226562"/>
     <use xlink:href="#DejaVuSans-72" x="1072.408203"/>
     <use xlink:href="#DejaVuSans-20" x="1113.521484"/>
     <use xlink:href="#DejaVuSans-53" x="1145.308594"/>
     <use xlink:href="#DejaVuSans-69" x="1208.785156"/>
     <use xlink:href="#DejaVuSans-6c" x="1236.568359"/>
     <use xlink:href="#DejaVuSans-65" x="1264.351562"/>
     <use xlink:href="#DejaVuSans-6e" x="1325.875"/>
     <use xlink:href="#DejaVuSans-74" x="1389.253906"/>
     <use xlink:href="#DejaVuSans-20" x="1428.462891"/>
     <use xlink:href="#DejaVuSans-66" x="1460.25"/>
     <use xlink:href="#DejaVuSans-69" x="1495.455078"/>
     <use xlink:href="#DejaVuSans-6c" x="1523.238281"/>
     <use xlink:href="#DejaVuSans-6d" x="1551.021484"/>
     <use xlink:href="#DejaVuSans-20" x="1648.433594"/>
     <use xlink:href="#DejaVuSans-67" x="1680.220703"/>
     <use xlink:href="#DejaVuSans-65" x="1743.697266"/>
     <use xlink:href="#DejaVuSans-6e" x="1805.220703"/>
     <use xlink:href="#DejaVuSans-72" x="1868.599609"/>
     <use xlink:href="#DejaVuSans-65" x="1907.462891"/>
     <use xlink:href="#DejaVuSans-20" x="1968.986328"/>
     <use xlink:href="#DejaVuSans-2d" x="2000.773438"/>
     <use xlink:href="#DejaVuSans-20" x="2036.857422"/>
     <use xlink:href="#DejaVuSans-49" x="2068.644531"/>
     <use xlink:href="#DejaVuSans-6d" x="2098.136719"/>
     <use xlink:href="#DejaVuSans-70" x="2195.548828"/>
     <use xlink:href="#DejaVuSans-6f" x="2259.025391"/>
     <use xlink:href="#DejaVuSans-72" x="2320.207031"/>
     <use xlink:href="#DejaVuSans-74" x="2361.320312"/>
     <use xlink:href="#DejaVuSans-61" x="2400.529297"/>
     <use xlink:href="#DejaVuSans-6e" x="2461.808594"/>
     <use xlink:href="#DejaVuSans-63" x="2525.1875"/>
     <use xlink:href="#DejaVuSans-65" x="2580.167969"/>
     <use xlink:href="#DejaVuSans-20" x="2641.691406"/>
     <use xlink:href="#DejaVuSans-72" x="2673.478516"/>
     <use xlink:href="#DejaVuSans-61" x="2714.591797"/>
     <use xlink:href="#DejaVuSans-6e" x="2775.871094"/>
     <use xlink:href="#DejaVuSans-6b" x="2839.25"/>
     <use xlink:href="#DejaVuSans-3a" x="2897.160156"/>
     <use xlink:href="#DejaVuSans-20" x="2930.851562"/>
     <use xlink:href="#DejaVuSans-38" x="2962.638672"/>
    </g>
   </g>
  </g>
 </g>
 <defs>
  <clipPath id="pc2d50448e5">
   <rect x="7.2" y="22.318125" width="554.4" height="554.4"/>
  </clipPath>
 </defs>
</svg>
