<?xml version="1.0" encoding="utf-8" standalone="no"?>
<!DOCTYPE svg PUBLIC "-//W3C//DTD SVG 1.1//EN"
  "http://www.w3.org/Graphics/SVG/1.1/DTD/svg11.dtd">
<svg xmlns:xlink="http://www.w3.org/1999/xlink" width="568.8pt" height="583.918125pt" viewBox="0 0 568.8 583.918125" xmlns="http://www.w3.org/2000/svg" version="1.1">
 <metadata>
  <rdf:RDF xmlns:dc="http://purl.org/dc/elements/1.1/" xmlns:cc="http://creativecommons.org/ns#" xmlns:rdf="http://www.w3.org/1999/02/22-rdf-syntax-ns#">
   <cc:Work>
    <dc:type rdf:resource="http://purl.org/dc/dcmitype/StillImage"/>
    <dc:date>2022-12-23T19:06:23.407313</dc:date>
    <dc:format>image/svg+xml</dc:format>
    <dc:creator>
     <cc:Agent>
      <dc:title>Matplotlib v3.5.2, https://matplotlib.org/</dc:title>
     </cc:Agent>
    </dc:creator>
   </cc:Work>
  </rdf:RDF>
 </metadata>
 <defs>
  <style type="text/css">*{stroke-linejoin: round; stroke-linecap: butt}</style>
 </defs>
 <g id="figure_1">
  <g id="patch_1">
   <path d="M 0 583.918125 
L 568.8 583.918125 
L 568.8 0 
L 0 0 
z
" style="fill: #ffffff"/>
  </g>
  <g id="axes_1">
   <g id="LineCollection_1">
    <path d="M 482.052438 290.593823 
L 464.094865 207.037166 
" clip-path="url(#pcfbeb7c203)" style="fill: none; stroke: #000000; stroke-opacity: 0.3; stroke-width: 5.760789"/>
    <path d="M 482.052438 290.593823 
L 413.327186 137.928205 
" clip-path="url(#pcfbeb7c203)" style="fill: none; stroke: #000000; stroke-opacity: 0.3; stroke-width: 5.228316"/>
    <path d="M 464.094865 207.037166 
L 413.327186 137.928205 
" clip-path="url(#pcfbeb7c203)" style="fill: none; stroke: #000000; stroke-opacity: 0.3; stroke-width: 5"/>
    <path d="M 170.485816 468.503024 
L 252.62965 494.90029 
" clip-path="url(#pcfbeb7c203)" style="fill: none; stroke: #000000; stroke-opacity: 0.3; stroke-width: 10"/>
   </g>
   <g id="PathCollection_1">
    <path d="M 482.052438 317.979951 
C 489.315324 317.979951 496.281719 315.094376 501.417355 309.95874 
C 506.552991 304.823104 509.438566 297.856709 509.438566 290.593823 
C 509.438566 283.330937 506.552991 276.364542 501.417355 271.228906 
C 496.281719 266.09327 489.315324 263.207695 482.052438 263.207695 
C 474.789552 263.207695 467.823157 266.09327 462.687521 271.228906 
C 457.551885 276.364542 454.66631 283.330937 454.66631 290.593823 
C 454.66631 297.856709 457.551885 304.823104 462.687521 309.95874 
C 467.823157 315.094376 474.789552 317.979951 482.052438 317.979951 
z
" clip-path="url(#pcfbeb7c203)" style="fill: #c70039; fill-opacity: 0.99; stroke: #c70039; stroke-opacity: 0.99"/>
    <path d="M 464.094865 230.213695 
C 470.241352 230.213695 476.136923 227.77167 480.483146 223.425447 
C 484.829369 219.079224 487.271394 213.183653 487.271394 207.037166 
C 487.271394 200.890679 484.829369 194.995108 480.483146 190.648885 
C 476.136923 186.302662 470.241352 183.860637 464.094865 183.860637 
C 457.948377 183.860637 452.052807 186.302662 447.706584 190.648885 
C 443.360361 194.995108 440.918336 200.890679 440.918336 207.037166 
C 440.918336 213.183653 443.360361 219.079224 447.706584 223.425447 
C 452.052807 227.77167 457.948377 230.213695 464.094865 230.213695 
z
" clip-path="url(#pcfbeb7c203)" style="fill: #c70039; fill-opacity: 0.99; stroke: #c70039; stroke-opacity: 0.99"/>
    <path d="M 413.327186 160.430713 
C 419.29492 160.430713 425.019036 158.059707 429.238862 153.839881 
C 433.458687 149.620055 435.829694 143.89594 435.829694 137.928205 
C 435.829694 131.96047 433.458687 126.236355 429.238862 122.016529 
C 425.019036 117.796703 419.29492 115.425697 413.327186 115.425697 
C 407.359451 115.425697 401.635335 117.796703 397.41551 122.016529 
C 393.195684 126.236355 390.824678 131.96047 390.824678 137.928205 
C 390.824678 143.89594 393.195684 149.620055 397.41551 153.839881 
C 401.635335 158.059707 407.359451 160.430713 413.327186 160.430713 
z
" clip-path="url(#pcfbeb7c203)" style="fill: #c70039; fill-opacity: 0.99; stroke: #c70039; stroke-opacity: 0.99"/>
    <path d="M 338.527598 117.32673 
C 344.391292 117.32673 350.015613 114.997059 354.161871 110.850801 
C 358.308129 106.704544 360.637799 101.080222 360.637799 95.216528 
C 360.637799 89.352834 358.308129 83.728512 354.161871 79.582254 
C 350.015613 75.435997 344.391292 73.106326 338.527598 73.106326 
C 332.663904 73.106326 327.039582 75.435997 322.893324 79.582254 
C 318.747066 83.728512 316.417396 89.352834 316.417396 95.216528 
C 316.417396 101.080222 318.747066 106.704544 322.893324 110.850801 
C 327.039582 114.997059 332.663904 117.32673 338.527598 117.32673 
z
" clip-path="url(#pcfbeb7c203)" style="fill: #c70039; fill-opacity: 0.99; stroke: #c70039; stroke-opacity: 0.99"/>
    <path d="M 252.629613 108.381065 
C 258.488933 108.381065 264.10906 106.053132 268.252225 101.909967 
C 272.39539 97.766802 274.723322 92.146676 274.723322 86.287356 
C 274.723322 80.428036 272.39539 74.807909 268.252225 70.664744 
C 264.10906 66.521579 258.488933 64.193647 252.629613 64.193647 
C 246.770293 64.193647 241.150167 66.521579 237.007002 70.664744 
C 232.863837 74.807909 230.535904 80.428036 230.535904 86.287356 
C 230.535904 92.146676 232.863837 97.766802 237.007002 101.909967 
C 241.150167 106.053132 246.770293 108.381065 252.629613 108.381065 
z
" clip-path="url(#pcfbeb7c203)" style="fill: #c70039; fill-opacity: 0.99; stroke: #c70039; stroke-opacity: 0.99"/>
    <path d="M 170.485785 133.75098 
C 176.072645 133.75098 181.431434 131.531297 185.381941 127.58079 
C 189.332448 123.630283 191.552131 118.271494 191.552131 112.684634 
C 191.552131 107.097774 189.332448 101.738985 185.381941 97.788478 
C 181.431434 93.837971 176.072645 91.618288 170.485785 91.618288 
C 164.898925 91.618288 159.540135 93.837971 155.589629 97.788478 
C 151.639122 101.738985 149.419439 107.097774 149.419439 112.684634 
C 149.419439 118.271494 151.639122 123.630283 155.589629 127.58079 
C 159.540135 131.531297 164.898925 133.75098 170.485785 133.75098 
z
" clip-path="url(#pcfbeb7c203)" style="fill: #c70039; fill-opacity: 0.99; stroke: #c70039; stroke-opacity: 0.99"/>
    <path d="M 106.299538 190.233572 
C 111.70691 190.233572 116.893539 188.0852 120.717129 184.26161 
C 124.540719 180.43802 126.68909 175.251391 126.68909 169.844019 
C 126.68909 164.436646 124.540719 159.250017 120.717129 155.426428 
C 116.893539 151.602838 111.70691 149.454466 106.299538 149.454466 
C 100.892165 149.454466 95.705536 151.602838 91.881946 155.426428 
C 88.058357 159.250017 85.909985 164.436646 85.909985 169.844019 
C 85.909985 175.251391 88.058357 180.43802 91.881946 184.26161 
C 95.705536 188.0852 100.892165 190.233572 106.299538 190.233572 
z
" clip-path="url(#pcfbeb7c203)" style="fill: #c70039; fill-opacity: 0.99; stroke: #c70039; stroke-opacity: 0.99"/>
    <path d="M 71.169231 268.172998 
C 76.550424 268.172998 81.711943 266.035027 85.517021 262.229948 
C 89.322099 258.42487 91.46007 253.263352 91.46007 247.882158 
C 91.46007 242.500965 89.322099 237.339446 85.517021 233.534368 
C 81.711943 229.729289 76.550424 227.591319 71.169231 227.591319 
C 65.788037 227.591319 60.626519 229.729289 56.821441 233.534368 
C 53.016362 237.339446 50.878391 242.500965 50.878391 247.882158 
C 50.878391 253.263352 53.016362 258.42487 56.821441 262.229948 
C 60.626519 266.035027 65.788037 268.172998 71.169231 268.172998 
z
" clip-path="url(#pcfbeb7c203)" style="fill: #c70039; fill-opacity: 0.99; stroke: #c70039; stroke-opacity: 0.99"/>
    <path d="M 71.169243 353.202955 
C 76.446103 353.202955 81.507548 351.106436 85.238851 347.375132 
C 88.970155 343.643829 91.066674 338.582385 91.066674 333.305524 
C 91.066674 328.028664 88.970155 322.96722 85.238851 319.235916 
C 81.507548 315.504613 76.446103 313.408094 71.169243 313.408094 
C 65.892383 313.408094 60.830939 315.504613 57.099635 319.235916 
C 53.368331 322.96722 51.271813 328.028664 51.271813 333.305524 
C 51.271813 338.582385 53.368331 343.643829 57.099635 347.375132 
C 60.830939 351.106436 65.892383 353.202955 71.169243 353.202955 
z
" clip-path="url(#pcfbeb7c203)" style="fill: #c70039; fill-opacity: 0.99; stroke: #c70039; stroke-opacity: 0.99"/>
    <path d="M 106.29955 431.067714 
C 111.530436 431.067714 116.547782 428.989461 120.246577 425.290666 
C 123.945372 421.591872 126.023625 416.574525 126.023625 411.343639 
C 126.023625 406.112753 123.945372 401.095407 120.246577 397.396612 
C 116.547782 393.697817 111.530436 391.619564 106.29955 391.619564 
C 101.068664 391.619564 96.051318 393.697817 92.352523 397.396612 
C 88.653728 401.095407 86.575475 406.112753 86.575475 411.343639 
C 86.575475 416.574525 88.653728 421.591872 92.352523 425.290666 
C 96.051318 428.989461 101.068664 431.067714 106.29955 431.067714 
z
" clip-path="url(#pcfbeb7c203)" style="fill: #c70039; fill-opacity: 0.99; stroke: #c70039; stroke-opacity: 0.99"/>
    <path d="M 170.485816 488.227099 
C 175.716702 488.227099 180.734048 486.148846 184.432843 482.450051 
C 188.131638 478.751256 190.209891 473.73391 190.209891 468.503024 
C 190.209891 463.272138 188.131638 458.254792 184.432843 454.555997 
C 180.734048 450.857202 175.716702 448.778949 170.485816 448.778949 
C 165.25493 448.778949 160.237583 450.857202 156.538789 454.555997 
C 152.839994 458.254792 150.761741 463.272138 150.761741 468.503024 
C 150.761741 473.73391 152.839994 478.751256 156.538789 482.450051 
C 160.237583 486.148846 165.25493 488.227099 170.485816 488.227099 
z
" clip-path="url(#pcfbeb7c203)" style="fill: #c70039; fill-opacity: 0.99; stroke: #c70039; stroke-opacity: 0.99"/>
    <path d="M 252.62965 514.54699 
C 257.840016 514.54699 262.83768 512.47689 266.521965 508.792605 
C 270.20625 505.10832 272.27635 500.110656 272.27635 494.90029 
C 272.27635 489.689924 270.20625 484.69226 266.521965 481.007975 
C 262.83768 477.32369 257.840016 475.25359 252.62965 475.25359 
C 247.419285 475.25359 242.421621 477.32369 238.737336 481.007975 
C 235.053051 484.69226 232.982951 489.689924 232.982951 494.90029 
C 232.982951 500.110656 235.053051 505.10832 238.737336 508.792605 
C 242.421621 512.47689 247.419285 514.54699 252.62965 514.54699 
z
" clip-path="url(#pcfbeb7c203)" style="fill: #c70039; fill-opacity: 0.99; stroke: #c70039; stroke-opacity: 0.99"/>
    <path d="M 338.527629 505.499772 
C 343.706691 505.499772 348.67433 503.442108 352.336481 499.779958 
C 355.998631 496.117807 358.056295 491.150168 358.056295 485.971106 
C 358.056295 480.792043 355.998631 475.824404 352.336481 472.162253 
C 348.67433 468.500103 343.706691 466.442439 338.527629 466.442439 
C 333.348566 466.442439 328.380927 468.500103 324.718776 472.162253 
C 321.056626 475.824404 318.998962 480.792043 318.998962 485.971106 
C 318.998962 491.150168 321.056626 496.117807 324.718776 499.779958 
C 328.380927 503.442108 333.348566 505.499772 338.527629 505.499772 
z
" clip-path="url(#pcfbeb7c203)" style="fill: #c70039; fill-opacity: 0.99; stroke: #c70039; stroke-opacity: 0.99"/>
    <path d="M 413.327223 462.689541 
C 418.480155 462.689541 423.422731 460.64226 427.066405 456.998586 
C 430.710078 453.354912 432.75736 448.412337 432.75736 443.259404 
C 432.75736 438.106471 430.710078 433.163896 427.066405 429.520222 
C 423.422731 425.876549 418.480155 423.829267 413.327223 423.829267 
C 408.17429 423.829267 403.231715 425.876549 399.588041 429.520222 
C 395.944367 433.163896 393.897085 438.106471 393.897085 443.259404 
C 393.897085 448.412337 395.944367 453.354912 399.588041 456.998586 
C 403.231715 460.64226 408.17429 462.689541 413.327223 462.689541 
z
" clip-path="url(#pcfbeb7c203)" style="fill: #c70039; fill-opacity: 0.99; stroke: #c70039; stroke-opacity: 0.99"/>
    <path d="M 464.09489 393.515366 
C 469.230525 393.515366 474.15651 391.474956 477.787953 387.843513 
C 481.419396 384.21207 483.459806 379.286085 483.459806 374.150449 
C 483.459806 369.014813 481.419396 364.088828 477.787953 360.457385 
C 474.15651 356.825942 469.230525 354.785532 464.09489 354.785532 
C 458.959254 354.785532 454.033269 356.825942 450.401826 360.457385 
C 446.770383 364.088828 444.729973 369.014813 444.729973 374.150449 
C 444.729973 379.286085 446.770383 384.21207 450.401826 387.843513 
C 454.033269 391.474956 458.959254 393.515366 464.09489 393.515366 
z
" clip-path="url(#pcfbeb7c203)" style="fill: #c70039; fill-opacity: 0.99; stroke: #c70039; stroke-opacity: 0.99"/>
   </g>
   <g id="text_1">
    <g id="patch_2">
     <path d="M 450.690251 298.908979 
L 513.414626 298.908979 
L 513.414626 282.278667 
L 450.690251 282.278667 
z
" clip-path="url(#pcfbeb7c203)" style="fill: #ffffff; opacity: 0.7; stroke: #000000; stroke-linejoin: miter"/>
    </g>
    <g clip-path="url(#pcfbeb7c203)">
     <!-- Chuck Jones -->
     <g transform="translate(454.650251 293.07726)scale(0.09 -0.09)">
      <defs>
       <path id="DejaVuSans-43" d="M 4122 4306 
L 4122 3641 
Q 3803 3938 3442 4084 
Q 3081 4231 2675 4231 
Q 1875 4231 1450 3742 
Q 1025 3253 1025 2328 
Q 1025 1406 1450 917 
Q 1875 428 2675 428 
Q 3081 428 3442 575 
Q 3803 722 4122 1019 
L 4122 359 
Q 3791 134 3420 21 
Q 3050 -91 2638 -91 
Q 1578 -91 968 557 
Q 359 1206 359 2328 
Q 359 3453 968 4101 
Q 1578 4750 2638 4750 
Q 3056 4750 3426 4639 
Q 3797 4528 4122 4306 
z
" transform="scale(0.015625)"/>
       <path id="DejaVuSans-68" d="M 3513 2113 
L 3513 0 
L 2938 0 
L 2938 2094 
Q 2938 2591 2744 2837 
Q 2550 3084 2163 3084 
Q 1697 3084 1428 2787 
Q 1159 2491 1159 1978 
L 1159 0 
L 581 0 
L 581 4863 
L 1159 4863 
L 1159 2956 
Q 1366 3272 1645 3428 
Q 1925 3584 2291 3584 
Q 2894 3584 3203 3211 
Q 3513 2838 3513 2113 
z
" transform="scale(0.015625)"/>
       <path id="DejaVuSans-75" d="M 544 1381 
L 544 3500 
L 1119 3500 
L 1119 1403 
Q 1119 906 1312 657 
Q 1506 409 1894 409 
Q 2359 409 2629 706 
Q 2900 1003 2900 1516 
L 2900 3500 
L 3475 3500 
L 3475 0 
L 2900 0 
L 2900 538 
Q 2691 219 2414 64 
Q 2138 -91 1772 -91 
Q 1169 -91 856 284 
Q 544 659 544 1381 
z
M 1991 3584 
L 1991 3584 
z
" transform="scale(0.015625)"/>
       <path id="DejaVuSans-63" d="M 3122 3366 
L 3122 2828 
Q 2878 2963 2633 3030 
Q 2388 3097 2138 3097 
Q 1578 3097 1268 2742 
Q 959 2388 959 1747 
Q 959 1106 1268 751 
Q 1578 397 2138 397 
Q 2388 397 2633 464 
Q 2878 531 3122 666 
L 3122 134 
Q 2881 22 2623 -34 
Q 2366 -91 2075 -91 
Q 1284 -91 818 406 
Q 353 903 353 1747 
Q 353 2603 823 3093 
Q 1294 3584 2113 3584 
Q 2378 3584 2631 3529 
Q 2884 3475 3122 3366 
z
" transform="scale(0.015625)"/>
       <path id="DejaVuSans-6b" d="M 581 4863 
L 1159 4863 
L 1159 1991 
L 2875 3500 
L 3609 3500 
L 1753 1863 
L 3688 0 
L 2938 0 
L 1159 1709 
L 1159 0 
L 581 0 
L 581 4863 
z
" transform="scale(0.015625)"/>
       <path id="DejaVuSans-20" transform="scale(0.015625)"/>
       <path id="DejaVuSans-4a" d="M 628 4666 
L 1259 4666 
L 1259 325 
Q 1259 -519 939 -900 
Q 619 -1281 -91 -1281 
L -331 -1281 
L -331 -750 
L -134 -750 
Q 284 -750 456 -515 
Q 628 -281 628 325 
L 628 4666 
z
" transform="scale(0.015625)"/>
       <path id="DejaVuSans-6f" d="M 1959 3097 
Q 1497 3097 1228 2736 
Q 959 2375 959 1747 
Q 959 1119 1226 758 
Q 1494 397 1959 397 
Q 2419 397 2687 759 
Q 2956 1122 2956 1747 
Q 2956 2369 2687 2733 
Q 2419 3097 1959 3097 
z
M 1959 3584 
Q 2709 3584 3137 3096 
Q 3566 2609 3566 1747 
Q 3566 888 3137 398 
Q 2709 -91 1959 -91 
Q 1206 -91 779 398 
Q 353 888 353 1747 
Q 353 2609 779 3096 
Q 1206 3584 1959 3584 
z
" transform="scale(0.015625)"/>
       <path id="DejaVuSans-6e" d="M 3513 2113 
L 3513 0 
L 2938 0 
L 2938 2094 
Q 2938 2591 2744 2837 
Q 2550 3084 2163 3084 
Q 1697 3084 1428 2787 
Q 1159 2491 1159 1978 
L 1159 0 
L 581 0 
L 581 3500 
L 1159 3500 
L 1159 2956 
Q 1366 3272 1645 3428 
Q 1925 3584 2291 3584 
Q 2894 3584 3203 3211 
Q 3513 2838 3513 2113 
z
" transform="scale(0.015625)"/>
       <path id="DejaVuSans-65" d="M 3597 1894 
L 3597 1613 
L 953 1613 
Q 991 1019 1311 708 
Q 1631 397 2203 397 
Q 2534 397 2845 478 
Q 3156 559 3463 722 
L 3463 178 
Q 3153 47 2828 -22 
Q 2503 -91 2169 -91 
Q 1331 -91 842 396 
Q 353 884 353 1716 
Q 353 2575 817 3079 
Q 1281 3584 2069 3584 
Q 2775 3584 3186 3129 
Q 3597 2675 3597 1894 
z
M 3022 2063 
Q 3016 2534 2758 2815 
Q 2500 3097 2075 3097 
Q 1594 3097 1305 2825 
Q 1016 2553 972 2059 
L 3022 2063 
z
" transform="scale(0.015625)"/>
       <path id="DejaVuSans-73" d="M 2834 3397 
L 2834 2853 
Q 2591 2978 2328 3040 
Q 2066 3103 1784 3103 
Q 1356 3103 1142 2972 
Q 928 2841 928 2578 
Q 928 2378 1081 2264 
Q 1234 2150 1697 2047 
L 1894 2003 
Q 2506 1872 2764 1633 
Q 3022 1394 3022 966 
Q 3022 478 2636 193 
Q 2250 -91 1575 -91 
Q 1294 -91 989 -36 
Q 684 19 347 128 
L 347 722 
Q 666 556 975 473 
Q 1284 391 1588 391 
Q 1994 391 2212 530 
Q 2431 669 2431 922 
Q 2431 1156 2273 1281 
Q 2116 1406 1581 1522 
L 1381 1569 
Q 847 1681 609 1914 
Q 372 2147 372 2553 
Q 372 3047 722 3315 
Q 1072 3584 1716 3584 
Q 2034 3584 2315 3537 
Q 2597 3491 2834 3397 
z
" transform="scale(0.015625)"/>
      </defs>
      <use xlink:href="#DejaVuSans-43"/>
      <use xlink:href="#DejaVuSans-68" x="69.824219"/>
      <use xlink:href="#DejaVuSans-75" x="133.203125"/>
      <use xlink:href="#DejaVuSans-63" x="196.582031"/>
      <use xlink:href="#DejaVuSans-6b" x="251.5625"/>
      <use xlink:href="#DejaVuSans-20" x="309.472656"/>
      <use xlink:href="#DejaVuSans-4a" x="341.259766"/>
      <use xlink:href="#DejaVuSans-6f" x="370.751953"/>
      <use xlink:href="#DejaVuSans-6e" x="431.933594"/>
      <use xlink:href="#DejaVuSans-65" x="495.3125"/>
      <use xlink:href="#DejaVuSans-73" x="556.835938"/>
     </g>
    </g>
   </g>
   <g id="text_2">
    <g id="patch_3">
     <path d="M 434.473615 215.352322 
L 493.716115 215.352322 
L 493.716115 198.72201 
L 434.473615 198.72201 
z
" clip-path="url(#pcfbeb7c203)" style="fill: #ffffff; opacity: 0.7; stroke: #000000; stroke-linejoin: miter"/>
    </g>
    <g clip-path="url(#pcfbeb7c203)">
     <!-- Friz Freleng -->
     <g transform="translate(438.433615 209.520604)scale(0.09 -0.09)">
      <defs>
       <path id="DejaVuSans-46" d="M 628 4666 
L 3309 4666 
L 3309 4134 
L 1259 4134 
L 1259 2759 
L 3109 2759 
L 3109 2228 
L 1259 2228 
L 1259 0 
L 628 0 
L 628 4666 
z
" transform="scale(0.015625)"/>
       <path id="DejaVuSans-72" d="M 2631 2963 
Q 2534 3019 2420 3045 
Q 2306 3072 2169 3072 
Q 1681 3072 1420 2755 
Q 1159 2438 1159 1844 
L 1159 0 
L 581 0 
L 581 3500 
L 1159 3500 
L 1159 2956 
Q 1341 3275 1631 3429 
Q 1922 3584 2338 3584 
Q 2397 3584 2469 3576 
Q 2541 3569 2628 3553 
L 2631 2963 
z
" transform="scale(0.015625)"/>
       <path id="DejaVuSans-69" d="M 603 3500 
L 1178 3500 
L 1178 0 
L 603 0 
L 603 3500 
z
M 603 4863 
L 1178 4863 
L 1178 4134 
L 603 4134 
L 603 4863 
z
" transform="scale(0.015625)"/>
       <path id="DejaVuSans-7a" d="M 353 3500 
L 3084 3500 
L 3084 2975 
L 922 459 
L 3084 459 
L 3084 0 
L 275 0 
L 275 525 
L 2438 3041 
L 353 3041 
L 353 3500 
z
" transform="scale(0.015625)"/>
       <path id="DejaVuSans-6c" d="M 603 4863 
L 1178 4863 
L 1178 0 
L 603 0 
L 603 4863 
z
" transform="scale(0.015625)"/>
       <path id="DejaVuSans-67" d="M 2906 1791 
Q 2906 2416 2648 2759 
Q 2391 3103 1925 3103 
Q 1463 3103 1205 2759 
Q 947 2416 947 1791 
Q 947 1169 1205 825 
Q 1463 481 1925 481 
Q 2391 481 2648 825 
Q 2906 1169 2906 1791 
z
M 3481 434 
Q 3481 -459 3084 -895 
Q 2688 -1331 1869 -1331 
Q 1566 -1331 1297 -1286 
Q 1028 -1241 775 -1147 
L 775 -588 
Q 1028 -725 1275 -790 
Q 1522 -856 1778 -856 
Q 2344 -856 2625 -561 
Q 2906 -266 2906 331 
L 2906 616 
Q 2728 306 2450 153 
Q 2172 0 1784 0 
Q 1141 0 747 490 
Q 353 981 353 1791 
Q 353 2603 747 3093 
Q 1141 3584 1784 3584 
Q 2172 3584 2450 3431 
Q 2728 3278 2906 2969 
L 2906 3500 
L 3481 3500 
L 3481 434 
z
" transform="scale(0.015625)"/>
      </defs>
      <use xlink:href="#DejaVuSans-46"/>
      <use xlink:href="#DejaVuSans-72" x="50.269531"/>
      <use xlink:href="#DejaVuSans-69" x="91.382812"/>
      <use xlink:href="#DejaVuSans-7a" x="119.166016"/>
      <use xlink:href="#DejaVuSans-20" x="171.65625"/>
      <use xlink:href="#DejaVuSans-46" x="203.443359"/>
      <use xlink:href="#DejaVuSans-72" x="253.712891"/>
      <use xlink:href="#DejaVuSans-65" x="292.576172"/>
      <use xlink:href="#DejaVuSans-6c" x="354.099609"/>
      <use xlink:href="#DejaVuSans-65" x="381.882812"/>
      <use xlink:href="#DejaVuSans-6e" x="443.40625"/>
      <use xlink:href="#DejaVuSans-67" x="506.785156"/>
     </g>
    </g>
   </g>
   <g id="text_3">
    <g id="patch_4">
     <path d="M 370.128592 146.243361 
L 456.525779 146.243361 
L 456.525779 129.613049 
L 370.128592 129.613049 
z
" clip-path="url(#pcfbeb7c203)" style="fill: #ffffff; opacity: 0.7; stroke: #000000; stroke-linejoin: miter"/>
    </g>
    <g clip-path="url(#pcfbeb7c203)">
     <!-- Robert McKimson -->
     <g transform="translate(374.088592 140.411642)scale(0.09 -0.09)">
      <defs>
       <path id="DejaVuSans-52" d="M 2841 2188 
Q 3044 2119 3236 1894 
Q 3428 1669 3622 1275 
L 4263 0 
L 3584 0 
L 2988 1197 
Q 2756 1666 2539 1819 
Q 2322 1972 1947 1972 
L 1259 1972 
L 1259 0 
L 628 0 
L 628 4666 
L 2053 4666 
Q 2853 4666 3247 4331 
Q 3641 3997 3641 3322 
Q 3641 2881 3436 2590 
Q 3231 2300 2841 2188 
z
M 1259 4147 
L 1259 2491 
L 2053 2491 
Q 2509 2491 2742 2702 
Q 2975 2913 2975 3322 
Q 2975 3731 2742 3939 
Q 2509 4147 2053 4147 
L 1259 4147 
z
" transform="scale(0.015625)"/>
       <path id="DejaVuSans-62" d="M 3116 1747 
Q 3116 2381 2855 2742 
Q 2594 3103 2138 3103 
Q 1681 3103 1420 2742 
Q 1159 2381 1159 1747 
Q 1159 1113 1420 752 
Q 1681 391 2138 391 
Q 2594 391 2855 752 
Q 3116 1113 3116 1747 
z
M 1159 2969 
Q 1341 3281 1617 3432 
Q 1894 3584 2278 3584 
Q 2916 3584 3314 3078 
Q 3713 2572 3713 1747 
Q 3713 922 3314 415 
Q 2916 -91 2278 -91 
Q 1894 -91 1617 61 
Q 1341 213 1159 525 
L 1159 0 
L 581 0 
L 581 4863 
L 1159 4863 
L 1159 2969 
z
" transform="scale(0.015625)"/>
       <path id="DejaVuSans-74" d="M 1172 4494 
L 1172 3500 
L 2356 3500 
L 2356 3053 
L 1172 3053 
L 1172 1153 
Q 1172 725 1289 603 
Q 1406 481 1766 481 
L 2356 481 
L 2356 0 
L 1766 0 
Q 1100 0 847 248 
Q 594 497 594 1153 
L 594 3053 
L 172 3053 
L 172 3500 
L 594 3500 
L 594 4494 
L 1172 4494 
z
" transform="scale(0.015625)"/>
       <path id="DejaVuSans-4d" d="M 628 4666 
L 1569 4666 
L 2759 1491 
L 3956 4666 
L 4897 4666 
L 4897 0 
L 4281 0 
L 4281 4097 
L 3078 897 
L 2444 897 
L 1241 4097 
L 1241 0 
L 628 0 
L 628 4666 
z
" transform="scale(0.015625)"/>
       <path id="DejaVuSans-4b" d="M 628 4666 
L 1259 4666 
L 1259 2694 
L 3353 4666 
L 4166 4666 
L 1850 2491 
L 4331 0 
L 3500 0 
L 1259 2247 
L 1259 0 
L 628 0 
L 628 4666 
z
" transform="scale(0.015625)"/>
       <path id="DejaVuSans-6d" d="M 3328 2828 
Q 3544 3216 3844 3400 
Q 4144 3584 4550 3584 
Q 5097 3584 5394 3201 
Q 5691 2819 5691 2113 
L 5691 0 
L 5113 0 
L 5113 2094 
Q 5113 2597 4934 2840 
Q 4756 3084 4391 3084 
Q 3944 3084 3684 2787 
Q 3425 2491 3425 1978 
L 3425 0 
L 2847 0 
L 2847 2094 
Q 2847 2600 2669 2842 
Q 2491 3084 2119 3084 
Q 1678 3084 1418 2786 
Q 1159 2488 1159 1978 
L 1159 0 
L 581 0 
L 581 3500 
L 1159 3500 
L 1159 2956 
Q 1356 3278 1631 3431 
Q 1906 3584 2284 3584 
Q 2666 3584 2933 3390 
Q 3200 3197 3328 2828 
z
" transform="scale(0.015625)"/>
      </defs>
      <use xlink:href="#DejaVuSans-52"/>
      <use xlink:href="#DejaVuSans-6f" x="64.982422"/>
      <use xlink:href="#DejaVuSans-62" x="126.164062"/>
      <use xlink:href="#DejaVuSans-65" x="189.640625"/>
      <use xlink:href="#DejaVuSans-72" x="251.164062"/>
      <use xlink:href="#DejaVuSans-74" x="292.277344"/>
      <use xlink:href="#DejaVuSans-20" x="331.486328"/>
      <use xlink:href="#DejaVuSans-4d" x="363.273438"/>
      <use xlink:href="#DejaVuSans-63" x="449.552734"/>
      <use xlink:href="#DejaVuSans-4b" x="504.533203"/>
      <use xlink:href="#DejaVuSans-69" x="570.109375"/>
      <use xlink:href="#DejaVuSans-6d" x="597.892578"/>
      <use xlink:href="#DejaVuSans-73" x="695.304688"/>
      <use xlink:href="#DejaVuSans-6f" x="747.404297"/>
      <use xlink:href="#DejaVuSans-6e" x="808.585938"/>
     </g>
    </g>
   </g>
   <g id="text_4">
    <g id="patch_5">
     <path d="M 302.681582 103.531684 
L 374.373613 103.531684 
L 374.373613 86.901372 
L 302.681582 86.901372 
z
" clip-path="url(#pcfbeb7c203)" style="fill: #ffffff; opacity: 0.7; stroke: #000000; stroke-linejoin: miter"/>
    </g>
    <g clip-path="url(#pcfbeb7c203)">
     <!-- Michael Curtiz -->
     <g transform="translate(306.641582 97.699965)scale(0.09 -0.09)">
      <defs>
       <path id="DejaVuSans-61" d="M 2194 1759 
Q 1497 1759 1228 1600 
Q 959 1441 959 1056 
Q 959 750 1161 570 
Q 1363 391 1709 391 
Q 2188 391 2477 730 
Q 2766 1069 2766 1631 
L 2766 1759 
L 2194 1759 
z
M 3341 1997 
L 3341 0 
L 2766 0 
L 2766 531 
Q 2569 213 2275 61 
Q 1981 -91 1556 -91 
Q 1019 -91 701 211 
Q 384 513 384 1019 
Q 384 1609 779 1909 
Q 1175 2209 1959 2209 
L 2766 2209 
L 2766 2266 
Q 2766 2663 2505 2880 
Q 2244 3097 1772 3097 
Q 1472 3097 1187 3025 
Q 903 2953 641 2809 
L 641 3341 
Q 956 3463 1253 3523 
Q 1550 3584 1831 3584 
Q 2591 3584 2966 3190 
Q 3341 2797 3341 1997 
z
" transform="scale(0.015625)"/>
      </defs>
      <use xlink:href="#DejaVuSans-4d"/>
      <use xlink:href="#DejaVuSans-69" x="86.279297"/>
      <use xlink:href="#DejaVuSans-63" x="114.0625"/>
      <use xlink:href="#DejaVuSans-68" x="169.042969"/>
      <use xlink:href="#DejaVuSans-61" x="232.421875"/>
      <use xlink:href="#DejaVuSans-65" x="293.701172"/>
      <use xlink:href="#DejaVuSans-6c" x="355.224609"/>
      <use xlink:href="#DejaVuSans-20" x="383.007812"/>
      <use xlink:href="#DejaVuSans-43" x="414.794922"/>
      <use xlink:href="#DejaVuSans-75" x="484.619141"/>
      <use xlink:href="#DejaVuSans-72" x="547.998047"/>
      <use xlink:href="#DejaVuSans-74" x="589.111328"/>
      <use xlink:href="#DejaVuSans-69" x="628.320312"/>
      <use xlink:href="#DejaVuSans-7a" x="656.103516"/>
     </g>
    </g>
   </g>
   <g id="text_5">
    <g id="patch_6">
     <path d="M 220.827973 94.602512 
L 284.431254 94.602512 
L 284.431254 77.9722 
L 220.827973 77.9722 
z
" clip-path="url(#pcfbeb7c203)" style="fill: #ffffff; opacity: 0.7; stroke: #000000; stroke-linejoin: miter"/>
    </g>
    <g clip-path="url(#pcfbeb7c203)">
     <!-- Woody Allen -->
     <g transform="translate(224.787973 88.770793)scale(0.09 -0.09)">
      <defs>
       <path id="DejaVuSans-57" d="M 213 4666 
L 850 4666 
L 1831 722 
L 2809 4666 
L 3519 4666 
L 4500 722 
L 5478 4666 
L 6119 4666 
L 4947 0 
L 4153 0 
L 3169 4050 
L 2175 0 
L 1381 0 
L 213 4666 
z
" transform="scale(0.015625)"/>
       <path id="DejaVuSans-64" d="M 2906 2969 
L 2906 4863 
L 3481 4863 
L 3481 0 
L 2906 0 
L 2906 525 
Q 2725 213 2448 61 
Q 2172 -91 1784 -91 
Q 1150 -91 751 415 
Q 353 922 353 1747 
Q 353 2572 751 3078 
Q 1150 3584 1784 3584 
Q 2172 3584 2448 3432 
Q 2725 3281 2906 2969 
z
M 947 1747 
Q 947 1113 1208 752 
Q 1469 391 1925 391 
Q 2381 391 2643 752 
Q 2906 1113 2906 1747 
Q 2906 2381 2643 2742 
Q 2381 3103 1925 3103 
Q 1469 3103 1208 2742 
Q 947 2381 947 1747 
z
" transform="scale(0.015625)"/>
       <path id="DejaVuSans-79" d="M 2059 -325 
Q 1816 -950 1584 -1140 
Q 1353 -1331 966 -1331 
L 506 -1331 
L 506 -850 
L 844 -850 
Q 1081 -850 1212 -737 
Q 1344 -625 1503 -206 
L 1606 56 
L 191 3500 
L 800 3500 
L 1894 763 
L 2988 3500 
L 3597 3500 
L 2059 -325 
z
" transform="scale(0.015625)"/>
       <path id="DejaVuSans-41" d="M 2188 4044 
L 1331 1722 
L 3047 1722 
L 2188 4044 
z
M 1831 4666 
L 2547 4666 
L 4325 0 
L 3669 0 
L 3244 1197 
L 1141 1197 
L 716 0 
L 50 0 
L 1831 4666 
z
" transform="scale(0.015625)"/>
      </defs>
      <use xlink:href="#DejaVuSans-57"/>
      <use xlink:href="#DejaVuSans-6f" x="93.001953"/>
      <use xlink:href="#DejaVuSans-6f" x="154.183594"/>
      <use xlink:href="#DejaVuSans-64" x="215.365234"/>
      <use xlink:href="#DejaVuSans-79" x="278.841797"/>
      <use xlink:href="#DejaVuSans-20" x="338.021484"/>
      <use xlink:href="#DejaVuSans-41" x="369.808594"/>
      <use xlink:href="#DejaVuSans-6c" x="438.216797"/>
      <use xlink:href="#DejaVuSans-6c" x="466"/>
      <use xlink:href="#DejaVuSans-65" x="493.783203"/>
      <use xlink:href="#DejaVuSans-6e" x="555.306641"/>
     </g>
    </g>
   </g>
   <g id="text_6">
    <g id="patch_7">
     <path d="M 131.169847 120.99979 
L 209.801722 120.99979 
L 209.801722 104.369478 
L 131.169847 104.369478 
z
" clip-path="url(#pcfbeb7c203)" style="fill: #ffffff; opacity: 0.7; stroke: #000000; stroke-linejoin: miter"/>
    </g>
    <g clip-path="url(#pcfbeb7c203)">
     <!-- Charles Chaplin -->
     <g transform="translate(135.129847 115.168071)scale(0.09 -0.09)">
      <defs>
       <path id="DejaVuSans-70" d="M 1159 525 
L 1159 -1331 
L 581 -1331 
L 581 3500 
L 1159 3500 
L 1159 2969 
Q 1341 3281 1617 3432 
Q 1894 3584 2278 3584 
Q 2916 3584 3314 3078 
Q 3713 2572 3713 1747 
Q 3713 922 3314 415 
Q 2916 -91 2278 -91 
Q 1894 -91 1617 61 
Q 1341 213 1159 525 
z
M 3116 1747 
Q 3116 2381 2855 2742 
Q 2594 3103 2138 3103 
Q 1681 3103 1420 2742 
Q 1159 2381 1159 1747 
Q 1159 1113 1420 752 
Q 1681 391 2138 391 
Q 2594 391 2855 752 
Q 3116 1113 3116 1747 
z
" transform="scale(0.015625)"/>
      </defs>
      <use xlink:href="#DejaVuSans-43"/>
      <use xlink:href="#DejaVuSans-68" x="69.824219"/>
      <use xlink:href="#DejaVuSans-61" x="133.203125"/>
      <use xlink:href="#DejaVuSans-72" x="194.482422"/>
      <use xlink:href="#DejaVuSans-6c" x="235.595703"/>
      <use xlink:href="#DejaVuSans-65" x="263.378906"/>
      <use xlink:href="#DejaVuSans-73" x="324.902344"/>
      <use xlink:href="#DejaVuSans-20" x="377.001953"/>
      <use xlink:href="#DejaVuSans-43" x="408.789062"/>
      <use xlink:href="#DejaVuSans-68" x="478.613281"/>
      <use xlink:href="#DejaVuSans-61" x="541.992188"/>
      <use xlink:href="#DejaVuSans-70" x="603.271484"/>
      <use xlink:href="#DejaVuSans-6c" x="666.748047"/>
      <use xlink:href="#DejaVuSans-69" x="694.53125"/>
      <use xlink:href="#DejaVuSans-6e" x="722.314453"/>
     </g>
    </g>
   </g>
   <g id="text_7">
    <g id="patch_8">
     <path d="M 64.774381 178.159175 
L 147.824694 178.159175 
L 147.824694 161.528862 
L 64.774381 161.528862 
z
" clip-path="url(#pcfbeb7c203)" style="fill: #ffffff; opacity: 0.7; stroke: #000000; stroke-linejoin: miter"/>
    </g>
    <g clip-path="url(#pcfbeb7c203)">
     <!-- Henry Hathaway -->
     <g transform="translate(68.734381 172.327456)scale(0.09 -0.09)">
      <defs>
       <path id="DejaVuSans-48" d="M 628 4666 
L 1259 4666 
L 1259 2753 
L 3553 2753 
L 3553 4666 
L 4184 4666 
L 4184 0 
L 3553 0 
L 3553 2222 
L 1259 2222 
L 1259 0 
L 628 0 
L 628 4666 
z
" transform="scale(0.015625)"/>
       <path id="DejaVuSans-77" d="M 269 3500 
L 844 3500 
L 1563 769 
L 2278 3500 
L 2956 3500 
L 3675 769 
L 4391 3500 
L 4966 3500 
L 4050 0 
L 3372 0 
L 2619 2869 
L 1863 0 
L 1184 0 
L 269 3500 
z
" transform="scale(0.015625)"/>
      </defs>
      <use xlink:href="#DejaVuSans-48"/>
      <use xlink:href="#DejaVuSans-65" x="75.195312"/>
      <use xlink:href="#DejaVuSans-6e" x="136.71875"/>
      <use xlink:href="#DejaVuSans-72" x="200.097656"/>
      <use xlink:href="#DejaVuSans-79" x="241.210938"/>
      <use xlink:href="#DejaVuSans-20" x="300.390625"/>
      <use xlink:href="#DejaVuSans-48" x="332.177734"/>
      <use xlink:href="#DejaVuSans-61" x="407.373047"/>
      <use xlink:href="#DejaVuSans-74" x="468.652344"/>
      <use xlink:href="#DejaVuSans-68" x="507.861328"/>
      <use xlink:href="#DejaVuSans-61" x="571.240234"/>
      <use xlink:href="#DejaVuSans-77" x="632.519531"/>
      <use xlink:href="#DejaVuSans-61" x="714.306641"/>
      <use xlink:href="#DejaVuSans-79" x="775.585938"/>
     </g>
    </g>
   </g>
   <g id="text_8">
    <g id="patch_9">
     <path d="M 40.08759 256.197314 
L 102.250871 256.197314 
L 102.250871 239.567002 
L 40.08759 239.567002 
z
" clip-path="url(#pcfbeb7c203)" style="fill: #ffffff; opacity: 0.7; stroke: #000000; stroke-linejoin: miter"/>
    </g>
    <g clip-path="url(#pcfbeb7c203)">
     <!-- Frank Capra -->
     <g transform="translate(44.04759 250.365596)scale(0.09 -0.09)">
      <use xlink:href="#DejaVuSans-46"/>
      <use xlink:href="#DejaVuSans-72" x="50.269531"/>
      <use xlink:href="#DejaVuSans-61" x="91.382812"/>
      <use xlink:href="#DejaVuSans-6e" x="152.662109"/>
      <use xlink:href="#DejaVuSans-6b" x="216.041016"/>
      <use xlink:href="#DejaVuSans-20" x="273.951172"/>
      <use xlink:href="#DejaVuSans-43" x="305.738281"/>
      <use xlink:href="#DejaVuSans-61" x="375.5625"/>
      <use xlink:href="#DejaVuSans-70" x="436.841797"/>
      <use xlink:href="#DejaVuSans-72" x="500.318359"/>
      <use xlink:href="#DejaVuSans-61" x="541.431641"/>
     </g>
    </g>
   </g>
   <g id="text_9">
    <g id="patch_10">
     <path d="M 28.599243 341.620681 
L 113.739243 341.620681 
L 113.739243 324.990368 
L 28.599243 324.990368 
z
" clip-path="url(#pcfbeb7c203)" style="fill: #ffffff; opacity: 0.7; stroke: #000000; stroke-linejoin: miter"/>
    </g>
    <g clip-path="url(#pcfbeb7c203)">
     <!-- Vincent Sherman -->
     <g transform="translate(32.559243 335.788962)scale(0.09 -0.09)">
      <defs>
       <path id="DejaVuSans-56" d="M 1831 0 
L 50 4666 
L 709 4666 
L 2188 738 
L 3669 4666 
L 4325 4666 
L 2547 0 
L 1831 0 
z
" transform="scale(0.015625)"/>
       <path id="DejaVuSans-53" d="M 3425 4513 
L 3425 3897 
Q 3066 4069 2747 4153 
Q 2428 4238 2131 4238 
Q 1616 4238 1336 4038 
Q 1056 3838 1056 3469 
Q 1056 3159 1242 3001 
Q 1428 2844 1947 2747 
L 2328 2669 
Q 3034 2534 3370 2195 
Q 3706 1856 3706 1288 
Q 3706 609 3251 259 
Q 2797 -91 1919 -91 
Q 1588 -91 1214 -16 
Q 841 59 441 206 
L 441 856 
Q 825 641 1194 531 
Q 1563 422 1919 422 
Q 2459 422 2753 634 
Q 3047 847 3047 1241 
Q 3047 1584 2836 1778 
Q 2625 1972 2144 2069 
L 1759 2144 
Q 1053 2284 737 2584 
Q 422 2884 422 3419 
Q 422 4038 858 4394 
Q 1294 4750 2059 4750 
Q 2388 4750 2728 4690 
Q 3069 4631 3425 4513 
z
" transform="scale(0.015625)"/>
      </defs>
      <use xlink:href="#DejaVuSans-56"/>
      <use xlink:href="#DejaVuSans-69" x="66.158203"/>
      <use xlink:href="#DejaVuSans-6e" x="93.941406"/>
      <use xlink:href="#DejaVuSans-63" x="157.320312"/>
      <use xlink:href="#DejaVuSans-65" x="212.300781"/>
      <use xlink:href="#DejaVuSans-6e" x="273.824219"/>
      <use xlink:href="#DejaVuSans-74" x="337.203125"/>
      <use xlink:href="#DejaVuSans-20" x="376.412109"/>
      <use xlink:href="#DejaVuSans-53" x="408.199219"/>
      <use xlink:href="#DejaVuSans-68" x="471.675781"/>
      <use xlink:href="#DejaVuSans-65" x="535.054688"/>
      <use xlink:href="#DejaVuSans-72" x="596.578125"/>
      <use xlink:href="#DejaVuSans-6d" x="635.941406"/>
      <use xlink:href="#DejaVuSans-61" x="733.353516"/>
      <use xlink:href="#DejaVuSans-6e" x="794.632812"/>
     </g>
    </g>
   </g>
   <g id="text_10">
    <g id="patch_11">
     <path d="M 71.463222 419.658796 
L 141.135878 419.658796 
L 141.135878 403.028483 
L 71.463222 403.028483 
z
" clip-path="url(#pcfbeb7c203)" style="fill: #ffffff; opacity: 0.7; stroke: #000000; stroke-linejoin: miter"/>
    </g>
    <g clip-path="url(#pcfbeb7c203)">
     <!-- George Cukor -->
     <g transform="translate(75.423222 413.827077)scale(0.09 -0.09)">
      <defs>
       <path id="DejaVuSans-47" d="M 3809 666 
L 3809 1919 
L 2778 1919 
L 2778 2438 
L 4434 2438 
L 4434 434 
Q 4069 175 3628 42 
Q 3188 -91 2688 -91 
Q 1594 -91 976 548 
Q 359 1188 359 2328 
Q 359 3472 976 4111 
Q 1594 4750 2688 4750 
Q 3144 4750 3555 4637 
Q 3966 4525 4313 4306 
L 4313 3634 
Q 3963 3931 3569 4081 
Q 3175 4231 2741 4231 
Q 1884 4231 1454 3753 
Q 1025 3275 1025 2328 
Q 1025 1384 1454 906 
Q 1884 428 2741 428 
Q 3075 428 3337 486 
Q 3600 544 3809 666 
z
" transform="scale(0.015625)"/>
      </defs>
      <use xlink:href="#DejaVuSans-47"/>
      <use xlink:href="#DejaVuSans-65" x="77.490234"/>
      <use xlink:href="#DejaVuSans-6f" x="139.013672"/>
      <use xlink:href="#DejaVuSans-72" x="200.195312"/>
      <use xlink:href="#DejaVuSans-67" x="239.558594"/>
      <use xlink:href="#DejaVuSans-65" x="303.035156"/>
      <use xlink:href="#DejaVuSans-20" x="364.558594"/>
      <use xlink:href="#DejaVuSans-43" x="396.345703"/>
      <use xlink:href="#DejaVuSans-75" x="466.169922"/>
      <use xlink:href="#DejaVuSans-6b" x="529.548828"/>
      <use xlink:href="#DejaVuSans-6f" x="583.833984"/>
      <use xlink:href="#DejaVuSans-72" x="645.015625"/>
     </g>
    </g>
   </g>
   <g id="text_11">
    <g id="patch_12">
     <path d="M 132.264644 476.81818 
L 208.706988 476.81818 
L 208.706988 460.187868 
L 132.264644 460.187868 
z
" clip-path="url(#pcfbeb7c203)" style="fill: #ffffff; opacity: 0.7; stroke: #000000; stroke-linejoin: miter"/>
    </g>
    <g clip-path="url(#pcfbeb7c203)">
     <!-- Joseph Barbera -->
     <g transform="translate(136.224644 470.986462)scale(0.09 -0.09)">
      <defs>
       <path id="DejaVuSans-42" d="M 1259 2228 
L 1259 519 
L 2272 519 
Q 2781 519 3026 730 
Q 3272 941 3272 1375 
Q 3272 1813 3026 2020 
Q 2781 2228 2272 2228 
L 1259 2228 
z
M 1259 4147 
L 1259 2741 
L 2194 2741 
Q 2656 2741 2882 2914 
Q 3109 3088 3109 3444 
Q 3109 3797 2882 3972 
Q 2656 4147 2194 4147 
L 1259 4147 
z
M 628 4666 
L 2241 4666 
Q 2963 4666 3353 4366 
Q 3744 4066 3744 3513 
Q 3744 3084 3544 2831 
Q 3344 2578 2956 2516 
Q 3422 2416 3680 2098 
Q 3938 1781 3938 1306 
Q 3938 681 3513 340 
Q 3088 0 2303 0 
L 628 0 
L 628 4666 
z
" transform="scale(0.015625)"/>
      </defs>
      <use xlink:href="#DejaVuSans-4a"/>
      <use xlink:href="#DejaVuSans-6f" x="29.492188"/>
      <use xlink:href="#DejaVuSans-73" x="90.673828"/>
      <use xlink:href="#DejaVuSans-65" x="142.773438"/>
      <use xlink:href="#DejaVuSans-70" x="204.296875"/>
      <use xlink:href="#DejaVuSans-68" x="267.773438"/>
      <use xlink:href="#DejaVuSans-20" x="331.152344"/>
      <use xlink:href="#DejaVuSans-42" x="362.939453"/>
      <use xlink:href="#DejaVuSans-61" x="431.542969"/>
      <use xlink:href="#DejaVuSans-72" x="492.822266"/>
      <use xlink:href="#DejaVuSans-62" x="533.935547"/>
      <use xlink:href="#DejaVuSans-65" x="597.412109"/>
      <use xlink:href="#DejaVuSans-72" x="658.935547"/>
      <use xlink:href="#DejaVuSans-61" x="700.048828"/>
     </g>
    </g>
   </g>
   <g id="text_12">
    <g id="patch_13">
     <path d="M 216.146603 503.215446 
L 289.112697 503.215446 
L 289.112697 486.585134 
L 216.146603 486.585134 
z
" clip-path="url(#pcfbeb7c203)" style="fill: #ffffff; opacity: 0.7; stroke: #000000; stroke-linejoin: miter"/>
    </g>
    <g clip-path="url(#pcfbeb7c203)">
     <!-- William Hanna -->
     <g transform="translate(220.106603 497.383727)scale(0.09 -0.09)">
      <use xlink:href="#DejaVuSans-57"/>
      <use xlink:href="#DejaVuSans-69" x="96.626953"/>
      <use xlink:href="#DejaVuSans-6c" x="124.410156"/>
      <use xlink:href="#DejaVuSans-6c" x="152.193359"/>
      <use xlink:href="#DejaVuSans-69" x="179.976562"/>
      <use xlink:href="#DejaVuSans-61" x="207.759766"/>
      <use xlink:href="#DejaVuSans-6d" x="269.039062"/>
      <use xlink:href="#DejaVuSans-20" x="366.451172"/>
      <use xlink:href="#DejaVuSans-48" x="398.238281"/>
      <use xlink:href="#DejaVuSans-61" x="473.433594"/>
      <use xlink:href="#DejaVuSans-6e" x="534.712891"/>
      <use xlink:href="#DejaVuSans-6e" x="598.091797"/>
      <use xlink:href="#DejaVuSans-61" x="661.470703"/>
     </g>
    </g>
   </g>
   <g id="text_13">
    <g id="patch_14">
     <path d="M 300.686847 494.286262 
L 376.36841 494.286262 
L 376.36841 477.655949 
L 300.686847 477.655949 
z
" clip-path="url(#pcfbeb7c203)" style="fill: #ffffff; opacity: 0.7; stroke: #000000; stroke-linejoin: miter"/>
    </g>
    <g clip-path="url(#pcfbeb7c203)">
     <!-- Stephen Frears -->
     <g transform="translate(304.646847 488.454543)scale(0.09 -0.09)">
      <use xlink:href="#DejaVuSans-53"/>
      <use xlink:href="#DejaVuSans-74" x="63.476562"/>
      <use xlink:href="#DejaVuSans-65" x="102.685547"/>
      <use xlink:href="#DejaVuSans-70" x="164.208984"/>
      <use xlink:href="#DejaVuSans-68" x="227.685547"/>
      <use xlink:href="#DejaVuSans-65" x="291.064453"/>
      <use xlink:href="#DejaVuSans-6e" x="352.587891"/>
      <use xlink:href="#DejaVuSans-20" x="415.966797"/>
      <use xlink:href="#DejaVuSans-46" x="447.753906"/>
      <use xlink:href="#DejaVuSans-72" x="498.023438"/>
      <use xlink:href="#DejaVuSans-65" x="536.886719"/>
      <use xlink:href="#DejaVuSans-61" x="598.410156"/>
      <use xlink:href="#DejaVuSans-72" x="659.689453"/>
      <use xlink:href="#DejaVuSans-73" x="700.802734"/>
     </g>
    </g>
   </g>
   <g id="text_14">
    <g id="patch_15">
     <path d="M 371.776051 451.57456 
L 454.878395 451.57456 
L 454.878395 434.944248 
L 371.776051 434.944248 
z
" clip-path="url(#pcfbeb7c203)" style="fill: #ffffff; opacity: 0.7; stroke: #000000; stroke-linejoin: miter"/>
    </g>
    <g clip-path="url(#pcfbeb7c203)">
     <!-- Edward Dmytryk -->
     <g transform="translate(375.736051 445.742842)scale(0.09 -0.09)">
      <defs>
       <path id="DejaVuSans-45" d="M 628 4666 
L 3578 4666 
L 3578 4134 
L 1259 4134 
L 1259 2753 
L 3481 2753 
L 3481 2222 
L 1259 2222 
L 1259 531 
L 3634 531 
L 3634 0 
L 628 0 
L 628 4666 
z
" transform="scale(0.015625)"/>
       <path id="DejaVuSans-44" d="M 1259 4147 
L 1259 519 
L 2022 519 
Q 2988 519 3436 956 
Q 3884 1394 3884 2338 
Q 3884 3275 3436 3711 
Q 2988 4147 2022 4147 
L 1259 4147 
z
M 628 4666 
L 1925 4666 
Q 3281 4666 3915 4102 
Q 4550 3538 4550 2338 
Q 4550 1131 3912 565 
Q 3275 0 1925 0 
L 628 0 
L 628 4666 
z
" transform="scale(0.015625)"/>
      </defs>
      <use xlink:href="#DejaVuSans-45"/>
      <use xlink:href="#DejaVuSans-64" x="63.183594"/>
      <use xlink:href="#DejaVuSans-77" x="126.660156"/>
      <use xlink:href="#DejaVuSans-61" x="208.447266"/>
      <use xlink:href="#DejaVuSans-72" x="269.726562"/>
      <use xlink:href="#DejaVuSans-64" x="309.089844"/>
      <use xlink:href="#DejaVuSans-20" x="372.566406"/>
      <use xlink:href="#DejaVuSans-44" x="404.353516"/>
      <use xlink:href="#DejaVuSans-6d" x="481.355469"/>
      <use xlink:href="#DejaVuSans-79" x="578.767578"/>
      <use xlink:href="#DejaVuSans-74" x="637.947266"/>
      <use xlink:href="#DejaVuSans-72" x="677.15625"/>
      <use xlink:href="#DejaVuSans-79" x="718.269531"/>
      <use xlink:href="#DejaVuSans-6b" x="777.449219"/>
     </g>
    </g>
   </g>
   <g id="text_15">
    <g id="patch_16">
     <path d="M 439.113561 382.465605 
L 489.076218 382.465605 
L 489.076218 365.835293 
L 439.113561 365.835293 
z
" clip-path="url(#pcfbeb7c203)" style="fill: #ffffff; opacity: 0.7; stroke: #000000; stroke-linejoin: miter"/>
    </g>
    <g clip-path="url(#pcfbeb7c203)">
     <!-- John Ford -->
     <g transform="translate(443.073561 376.633887)scale(0.09 -0.09)">
      <use xlink:href="#DejaVuSans-4a"/>
      <use xlink:href="#DejaVuSans-6f" x="29.492188"/>
      <use xlink:href="#DejaVuSans-68" x="90.673828"/>
      <use xlink:href="#DejaVuSans-6e" x="154.052734"/>
      <use xlink:href="#DejaVuSans-20" x="217.431641"/>
      <use xlink:href="#DejaVuSans-46" x="249.21875"/>
      <use xlink:href="#DejaVuSans-6f" x="303.113281"/>
      <use xlink:href="#DejaVuSans-72" x="364.294922"/>
      <use xlink:href="#DejaVuSans-64" x="403.658203"/>
     </g>
    </g>
   </g>
   <g id="text_16">
    <!-- Impactful directors for World cinema genre - Importance rank: 7 -->
    <g transform="translate(91.93125 16.318125)scale(0.12 -0.12)">
     <defs>
      <path id="DejaVuSans-49" d="M 628 4666 
L 1259 4666 
L 1259 0 
L 628 0 
L 628 4666 
z
" transform="scale(0.015625)"/>
      <path id="DejaVuSans-66" d="M 2375 4863 
L 2375 4384 
L 1825 4384 
Q 1516 4384 1395 4259 
Q 1275 4134 1275 3809 
L 1275 3500 
L 2222 3500 
L 2222 3053 
L 1275 3053 
L 1275 0 
L 697 0 
L 697 3053 
L 147 3053 
L 147 3500 
L 697 3500 
L 697 3744 
Q 697 4328 969 4595 
Q 1241 4863 1831 4863 
L 2375 4863 
z
" transform="scale(0.015625)"/>
      <path id="DejaVuSans-2d" d="M 313 2009 
L 1997 2009 
L 1997 1497 
L 313 1497 
L 313 2009 
z
" transform="scale(0.015625)"/>
      <path id="DejaVuSans-3a" d="M 750 794 
L 1409 794 
L 1409 0 
L 750 0 
L 750 794 
z
M 750 3309 
L 1409 3309 
L 1409 2516 
L 750 2516 
L 750 3309 
z
" transform="scale(0.015625)"/>
      <path id="DejaVuSans-37" d="M 525 4666 
L 3525 4666 
L 3525 4397 
L 1831 0 
L 1172 0 
L 2766 4134 
L 525 4134 
L 525 4666 
z
" transform="scale(0.015625)"/>
     </defs>
     <use xlink:href="#DejaVuSans-49"/>
     <use xlink:href="#DejaVuSans-6d" x="29.492188"/>
     <use xlink:href="#DejaVuSans-70" x="126.904297"/>
     <use xlink:href="#DejaVuSans-61" x="190.380859"/>
     <use xlink:href="#DejaVuSans-63" x="251.660156"/>
     <use xlink:href="#DejaVuSans-74" x="306.640625"/>
     <use xlink:href="#DejaVuSans-66" x="345.849609"/>
     <use xlink:href="#DejaVuSans-75" x="381.054688"/>
     <use xlink:href="#DejaVuSans-6c" x="444.433594"/>
     <use xlink:href="#DejaVuSans-20" x="472.216797"/>
     <use xlink:href="#DejaVuSans-64" x="504.003906"/>
     <use xlink:href="#DejaVuSans-69" x="567.480469"/>
     <use xlink:href="#DejaVuSans-72" x="595.263672"/>
     <use xlink:href="#DejaVuSans-65" x="634.126953"/>
     <use xlink:href="#DejaVuSans-63" x="695.650391"/>
     <use xlink:href="#DejaVuSans-74" x="750.630859"/>
     <use xlink:href="#DejaVuSans-6f" x="789.839844"/>
     <use xlink:href="#DejaVuSans-72" x="851.021484"/>
     <use xlink:href="#DejaVuSans-73" x="892.134766"/>
     <use xlink:href="#DejaVuSans-20" x="944.234375"/>
     <use xlink:href="#DejaVuSans-66" x="976.021484"/>
     <use xlink:href="#DejaVuSans-6f" x="1011.226562"/>
     <use xlink:href="#DejaVuSans-72" x="1072.408203"/>
     <use xlink:href="#DejaVuSans-20" x="1113.521484"/>
     <use xlink:href="#DejaVuSans-57" x="1145.308594"/>
     <use xlink:href="#DejaVuSans-6f" x="1238.310547"/>
     <use xlink:href="#DejaVuSans-72" x="1299.492188"/>
     <use xlink:href="#DejaVuSans-6c" x="1340.605469"/>
     <use xlink:href="#DejaVuSans-64" x="1368.388672"/>
     <use xlink:href="#DejaVuSans-20" x="1431.865234"/>
     <use xlink:href="#DejaVuSans-63" x="1463.652344"/>
     <use xlink:href="#DejaVuSans-69" x="1518.632812"/>
     <use xlink:href="#DejaVuSans-6e" x="1546.416016"/>
     <use xlink:href="#DejaVuSans-65" x="1609.794922"/>
     <use xlink:href="#DejaVuSans-6d" x="1671.318359"/>
     <use xlink:href="#DejaVuSans-61" x="1768.730469"/>
     <use xlink:href="#DejaVuSans-20" x="1830.009766"/>
     <use xlink:href="#DejaVuSans-67" x="1861.796875"/>
     <use xlink:href="#DejaVuSans-65" x="1925.273438"/>
     <use xlink:href="#DejaVuSans-6e" x="1986.796875"/>
     <use xlink:href="#DejaVuSans-72" x="2050.175781"/>
     <use xlink:href="#DejaVuSans-65" x="2089.039062"/>
     <use xlink:href="#DejaVuSans-20" x="2150.5625"/>
     <use xlink:href="#DejaVuSans-2d" x="2182.349609"/>
     <use xlink:href="#DejaVuSans-20" x="2218.433594"/>
     <use xlink:href="#DejaVuSans-49" x="2250.220703"/>
     <use xlink:href="#DejaVuSans-6d" x="2279.712891"/>
     <use xlink:href="#DejaVuSans-70" x="2377.125"/>
     <use xlink:href="#DejaVuSans-6f" x="2440.601562"/>
     <use xlink:href="#DejaVuSans-72" x="2501.783203"/>
     <use xlink:href="#DejaVuSans-74" x="2542.896484"/>
     <use xlink:href="#DejaVuSans-61" x="2582.105469"/>
     <use xlink:href="#DejaVuSans-6e" x="2643.384766"/>
     <use xlink:href="#DejaVuSans-63" x="2706.763672"/>
     <use xlink:href="#DejaVuSans-65" x="2761.744141"/>
     <use xlink:href="#DejaVuSans-20" x="2823.267578"/>
     <use xlink:href="#DejaVuSans-72" x="2855.054688"/>
     <use xlink:href="#DejaVuSans-61" x="2896.167969"/>
     <use xlink:href="#DejaVuSans-6e" x="2957.447266"/>
     <use xlink:href="#DejaVuSans-6b" x="3020.826172"/>
     <use xlink:href="#DejaVuSans-3a" x="3078.736328"/>
     <use xlink:href="#DejaVuSans-20" x="3112.427734"/>
     <use xlink:href="#DejaVuSans-37" x="3144.214844"/>
    </g>
   </g>
  </g>
 </g>
 <defs>
  <clipPath id="pcfbeb7c203">
   <rect x="7.2" y="22.318125" width="554.4" height="554.4"/>
  </clipPath>
 </defs>
</svg>
