<?xml version="1.0" encoding="utf-8" standalone="no"?>
<!DOCTYPE svg PUBLIC "-//W3C//DTD SVG 1.1//EN"
  "http://www.w3.org/Graphics/SVG/1.1/DTD/svg11.dtd">
<svg xmlns:xlink="http://www.w3.org/1999/xlink" width="576pt" height="576pt" viewBox="0 0 576 576" xmlns="http://www.w3.org/2000/svg" version="1.1">
 <metadata>
  <rdf:RDF xmlns:dc="http://purl.org/dc/elements/1.1/" xmlns:cc="http://creativecommons.org/ns#" xmlns:rdf="http://www.w3.org/1999/02/22-rdf-syntax-ns#">
   <cc:Work>
    <dc:type rdf:resource="http://purl.org/dc/dcmitype/StillImage"/>
    <dc:date>2022-12-22T19:12:35.426169</dc:date>
    <dc:format>image/svg+xml</dc:format>
    <dc:creator>
     <cc:Agent>
      <dc:title>Matplotlib v3.5.2, https://matplotlib.org/</dc:title>
     </cc:Agent>
    </dc:creator>
   </cc:Work>
  </rdf:RDF>
 </metadata>
 <defs>
  <style type="text/css">*{stroke-linejoin: round; stroke-linecap: butt}</style>
 </defs>
 <g id="figure_1">
  <g id="patch_1">
   <path d="M 0 576 
L 576 576 
L 576 0 
L 0 0 
z
" style="fill: #ffffff"/>
  </g>
  <g id="axes_1">
   <g id="PathCollection_1">
    <path d="M 501.230769 315.386128 
C 508.493655 315.386128 515.46005 312.500553 520.595686 307.364917 
C 525.731322 302.229281 528.616897 295.262886 528.616897 288 
C 528.616897 280.737114 525.731322 273.770719 520.595686 268.635083 
C 515.46005 263.499447 508.493655 260.613872 501.230769 260.613872 
C 493.967883 260.613872 487.001488 263.499447 481.865852 268.635083 
C 476.730217 273.770719 473.844641 280.737114 473.844641 288 
C 473.844641 295.262886 476.730217 302.229281 481.865852 307.364917 
C 487.001488 312.500553 493.967883 315.386128 501.230769 315.386128 
z
" clip-path="url(#p82582a6e2c)" style="fill: #d62728; fill-opacity: 0.99; stroke: #d62728; stroke-opacity: 0.99"/>
    <path d="M 482.592348 225.760296 
C 489.213617 225.760296 495.564588 223.129638 500.246533 218.447693 
C 504.928477 213.765749 507.559136 207.414778 507.559136 200.793508 
C 507.559136 194.172239 504.928477 187.821268 500.246533 183.139323 
C 495.564588 178.457379 489.213617 175.826721 482.592348 175.826721 
C 475.971078 175.826721 469.620107 178.457379 464.938163 183.139323 
C 460.256218 187.821268 457.62556 194.172239 457.62556 200.793508 
C 457.62556 207.414778 460.256218 213.765749 464.938163 218.447693 
C 469.620107 223.129638 475.971078 225.760296 482.592348 225.760296 
z
" clip-path="url(#p82582a6e2c)" style="fill: #d62728; fill-opacity: 0.99; stroke: #d62728; stroke-opacity: 0.99"/>
    <path d="M 429.89985 151.185832 
C 435.872232 151.185832 441.600804 148.812979 445.823916 144.589868 
C 450.047027 140.366756 452.41988 134.638183 452.41988 128.665802 
C 452.41988 122.69342 450.047027 116.964847 445.823916 112.741736 
C 441.600804 108.518624 435.872232 106.145772 429.89985 106.145772 
C 423.927468 106.145772 418.198896 108.518624 413.975784 112.741736 
C 409.752672 116.964847 407.37982 122.69342 407.37982 128.665802 
C 407.37982 134.638183 409.752672 140.366756 413.975784 144.589868 
C 418.198896 148.812979 423.927468 151.185832 429.89985 151.185832 
z
" clip-path="url(#p82582a6e2c)" style="fill: #d62728; fill-opacity: 0.99; stroke: #d62728; stroke-opacity: 0.99"/>
    <path d="M 352.264291 106.042686 
C 358.086626 106.042686 363.671277 103.729448 367.788289 99.612435 
C 371.905301 95.495423 374.218539 89.910772 374.218539 84.088438 
C 374.218539 78.266103 371.905301 72.681452 367.788289 68.56444 
C 363.671277 64.447428 358.086626 62.13419 352.264291 62.13419 
C 346.441957 62.13419 340.857306 64.447428 336.740294 68.56444 
C 332.623281 72.681452 330.310043 78.266103 330.310043 84.088438 
C 330.310043 89.910772 332.623281 95.495423 336.740294 99.612435 
C 340.857306 103.729448 346.441957 106.042686 352.264291 106.042686 
z
" clip-path="url(#p82582a6e2c)" style="fill: #d62728; fill-opacity: 0.99; stroke: #d62728; stroke-opacity: 0.99"/>
    <path d="M 263.109549 96.591304 
C 268.89683 96.591304 274.447859 94.291993 278.540085 90.199767 
C 282.632311 86.107541 284.931622 80.556512 284.931622 74.769231 
C 284.931622 68.981949 282.632311 63.430921 278.540085 59.338695 
C 274.447859 55.246469 268.89683 52.947157 263.109549 52.947157 
C 257.322267 52.947157 251.771239 55.246469 247.679013 59.338695 
C 243.586787 63.430921 241.287475 68.981949 241.287475 74.769231 
C 241.287475 80.556512 243.586787 86.107541 247.679013 90.199767 
C 251.771239 94.291993 257.322267 96.591304 263.109549 96.591304 
z
" clip-path="url(#p82582a6e2c)" style="fill: #d62728; fill-opacity: 0.99; stroke: #d62728; stroke-opacity: 0.99"/>
    <path d="M 177.851298 124.104462 
C 183.62872 124.104462 189.170291 121.809068 193.255545 117.723814 
C 197.340799 113.63856 199.636193 108.096989 199.636193 102.319567 
C 199.636193 96.542146 197.340799 91.000574 193.255545 86.91532 
C 189.170291 82.830066 183.62872 80.534672 177.851298 80.534672 
C 172.073876 80.534672 166.532305 82.830066 162.447051 86.91532 
C 158.361797 91.000574 156.066403 96.542146 156.066403 102.319567 
C 156.066403 108.096989 158.361797 113.63856 162.447051 117.723814 
C 166.532305 121.809068 172.073876 124.104462 177.851298 124.104462 
z
" clip-path="url(#p82582a6e2c)" style="fill: #d62728; fill-opacity: 0.99; stroke: #d62728; stroke-opacity: 0.99"/>
    <path d="M 111.231477 183.435623 
C 116.922707 183.435623 122.381606 181.174473 126.405914 177.150165 
C 130.430221 173.125858 132.691371 167.666959 132.691371 161.975729 
C 132.691371 156.284498 130.430221 150.8256 126.405914 146.801292 
C 122.381606 142.776985 116.922707 140.515835 111.231477 140.515835 
C 105.540247 140.515835 100.081348 142.776985 96.057041 146.801292 
C 92.032733 150.8256 89.771583 156.284498 89.771583 161.975729 
C 89.771583 167.666959 92.032733 173.125858 96.057041 177.150165 
C 100.081348 181.174473 105.540247 183.435623 111.231477 183.435623 
z
" clip-path="url(#p82582a6e2c)" style="fill: #d62728; fill-opacity: 0.99; stroke: #d62728; stroke-opacity: 0.99"/>
    <path d="M 74.769231 264.549283 
C 80.37208 264.549283 85.746205 262.323248 89.708017 258.361435 
C 93.66983 254.399623 95.895865 249.025498 95.895865 243.422649 
C 95.895865 237.8198 93.66983 232.445675 89.708017 228.483862 
C 85.746205 224.52205 80.37208 222.296014 74.769231 222.296014 
C 69.166382 222.296014 63.792257 224.52205 59.830444 228.483862 
C 55.868632 232.445675 53.642596 237.8198 53.642596 243.422649 
C 53.642596 249.025498 55.868632 254.399623 59.830444 258.361435 
C 63.792257 262.323248 69.166382 264.549283 74.769231 264.549283 
z
" clip-path="url(#p82582a6e2c)" style="fill: #d62728; fill-opacity: 0.99; stroke: #d62728; stroke-opacity: 0.99"/>
    <path d="M 74.769244 352.858542 
C 80.147868 352.858542 85.306922 350.721592 89.110184 346.91833 
C 92.913446 343.115068 95.050396 337.956014 95.050396 332.577389 
C 95.050396 327.198765 92.913446 322.039711 89.110184 318.236449 
C 85.306922 314.433187 80.147868 312.296237 74.769244 312.296237 
C 69.390619 312.296237 64.231565 314.433187 60.428303 318.236449 
C 56.625041 322.039711 54.488091 327.198765 54.488091 332.577389 
C 54.488091 337.956014 56.625041 343.115068 60.428303 346.91833 
C 64.231565 350.721592 69.390619 352.858542 74.769244 352.858542 
z
" clip-path="url(#p82582a6e2c)" style="fill: #d62728; fill-opacity: 0.99; stroke: #d62728; stroke-opacity: 0.99"/>
    <path d="M 111.23149 434.295616 
C 116.60751 434.295616 121.764066 432.159701 125.565486 428.358281 
C 129.366907 424.55686 131.502822 419.400304 131.502822 414.024284 
C 131.502822 408.648264 129.366907 403.491708 125.565486 399.690288 
C 121.764066 395.888867 116.60751 393.752952 111.23149 393.752952 
C 105.85547 393.752952 100.698914 395.888867 96.897493 399.690288 
C 93.096073 403.491708 90.960158 408.648264 90.960158 414.024284 
C 90.960158 419.400304 93.096073 424.55686 96.897493 428.358281 
C 100.698914 432.159701 105.85547 434.295616 111.23149 434.295616 
z
" clip-path="url(#p82582a6e2c)" style="fill: #d62728; fill-opacity: 0.99; stroke: #d62728; stroke-opacity: 0.99"/>
    <path d="M 177.85133 493.866838 
C 183.204824 493.866838 188.339773 491.739872 192.125265 487.95438 
C 195.910757 484.168889 198.037722 479.033939 198.037722 473.680446 
C 198.037722 468.326952 195.910757 463.192002 192.125265 459.406511 
C 188.339773 455.621019 183.204824 453.494053 177.85133 453.494053 
C 172.497836 453.494053 167.362887 455.621019 163.577395 459.406511 
C 159.791904 463.192002 157.664938 468.326952 157.664938 473.680446 
C 157.664938 479.033939 159.791904 484.168889 163.577395 487.95438 
C 167.362887 491.739872 172.497836 493.866838 177.85133 493.866838 
z
" clip-path="url(#p82582a6e2c)" style="fill: #d62728; fill-opacity: 0.99; stroke: #d62728; stroke-opacity: 0.99"/>
    <path d="M 263.109587 521.142654 
C 268.390281 521.142654 273.455402 519.044612 277.189416 515.310598 
C 280.92343 511.576584 283.021472 506.511463 283.021472 501.230769 
C 283.021472 495.950076 280.92343 490.884955 277.189416 487.150941 
C 273.455402 483.416927 268.390281 481.318885 263.109587 481.318885 
C 257.828894 481.318885 252.763773 483.416927 249.029759 487.150941 
C 245.295744 490.884955 243.197703 495.950076 243.197703 501.230769 
C 243.197703 506.511463 245.295744 511.576584 249.029759 515.310598 
C 252.763773 519.044612 257.828894 521.142654 263.109587 521.142654 
z
" clip-path="url(#p82582a6e2c)" style="fill: #d62728; fill-opacity: 0.99; stroke: #d62728; stroke-opacity: 0.99"/>
    <path d="M 352.264323 511.633044 
C 357.494525 511.633044 362.511215 509.555063 366.209526 505.856752 
C 369.907836 502.158441 371.985817 497.141751 371.985817 491.91155 
C 371.985817 486.681348 369.907836 481.664658 366.209526 477.966347 
C 362.511215 474.268036 357.494525 472.190055 352.264323 472.190055 
C 347.034122 472.190055 342.017432 474.268036 338.319121 477.966347 
C 334.62081 481.664658 332.542829 486.681348 332.542829 491.91155 
C 332.542829 497.141751 334.62081 502.158441 338.319121 505.856752 
C 342.017432 509.555063 347.034122 511.633044 352.264323 511.633044 
z
" clip-path="url(#p82582a6e2c)" style="fill: #d62728; fill-opacity: 0.99; stroke: #d62728; stroke-opacity: 0.99"/>
    <path d="M 429.899888 467.053603 
C 435.129546 467.053603 440.145714 464.975838 443.84364 461.277912 
C 447.541566 457.579986 449.619331 452.563817 449.619331 447.33416 
C 449.619331 442.104503 447.541566 437.088334 443.84364 433.390408 
C 440.145714 429.692482 435.129546 427.614717 429.899888 427.614717 
C 424.670231 427.614717 419.654063 429.692482 415.956137 433.390408 
C 412.25821 437.088334 410.180446 442.104503 410.180446 447.33416 
C 410.180446 452.563817 412.25821 457.579986 415.956137 461.277912 
C 419.654063 464.975838 424.670231 467.053603 429.899888 467.053603 
z
" clip-path="url(#p82582a6e2c)" style="fill: #d62728; fill-opacity: 0.99; stroke: #d62728; stroke-opacity: 0.99"/>
    <path d="M 482.592374 394.571376 
C 487.728009 394.571376 492.653994 392.530967 496.285437 388.899524 
C 499.91688 385.268081 501.95729 380.342096 501.95729 375.20646 
C 501.95729 370.070824 499.91688 365.144839 496.285437 361.513396 
C 492.653994 357.881953 487.728009 355.841543 482.592374 355.841543 
C 477.456738 355.841543 472.530753 357.881953 468.89931 361.513396 
C 465.267867 365.144839 463.227457 370.070824 463.227457 375.20646 
C 463.227457 380.342096 465.267867 385.268081 468.89931 388.899524 
C 472.530753 392.530967 477.456738 394.571376 482.592374 394.571376 
z
" clip-path="url(#p82582a6e2c)" style="fill: #d62728; fill-opacity: 0.99; stroke: #d62728; stroke-opacity: 0.99"/>
   </g>
   <g id="text_1">
    <g id="patch_2">
     <path d="M 463.798504 296.315156 
L 538.663035 296.315156 
L 538.663035 279.684844 
L 463.798504 279.684844 
z
" clip-path="url(#p82582a6e2c)" style="fill: #ffffff; opacity: 0.7; stroke: #000000; stroke-linejoin: miter"/>
    </g>
    <g clip-path="url(#p82582a6e2c)">
     <!-- Barry Levinson -->
     <g transform="translate(467.758504 290.483437)scale(0.09 -0.09)">
      <defs>
       <path id="DejaVuSans-42" d="M 1259 2228 
L 1259 519 
L 2272 519 
Q 2781 519 3026 730 
Q 3272 941 3272 1375 
Q 3272 1813 3026 2020 
Q 2781 2228 2272 2228 
L 1259 2228 
z
M 1259 4147 
L 1259 2741 
L 2194 2741 
Q 2656 2741 2882 2914 
Q 3109 3088 3109 3444 
Q 3109 3797 2882 3972 
Q 2656 4147 2194 4147 
L 1259 4147 
z
M 628 4666 
L 2241 4666 
Q 2963 4666 3353 4366 
Q 3744 4066 3744 3513 
Q 3744 3084 3544 2831 
Q 3344 2578 2956 2516 
Q 3422 2416 3680 2098 
Q 3938 1781 3938 1306 
Q 3938 681 3513 340 
Q 3088 0 2303 0 
L 628 0 
L 628 4666 
z
" transform="scale(0.015625)"/>
       <path id="DejaVuSans-61" d="M 2194 1759 
Q 1497 1759 1228 1600 
Q 959 1441 959 1056 
Q 959 750 1161 570 
Q 1363 391 1709 391 
Q 2188 391 2477 730 
Q 2766 1069 2766 1631 
L 2766 1759 
L 2194 1759 
z
M 3341 1997 
L 3341 0 
L 2766 0 
L 2766 531 
Q 2569 213 2275 61 
Q 1981 -91 1556 -91 
Q 1019 -91 701 211 
Q 384 513 384 1019 
Q 384 1609 779 1909 
Q 1175 2209 1959 2209 
L 2766 2209 
L 2766 2266 
Q 2766 2663 2505 2880 
Q 2244 3097 1772 3097 
Q 1472 3097 1187 3025 
Q 903 2953 641 2809 
L 641 3341 
Q 956 3463 1253 3523 
Q 1550 3584 1831 3584 
Q 2591 3584 2966 3190 
Q 3341 2797 3341 1997 
z
" transform="scale(0.015625)"/>
       <path id="DejaVuSans-72" d="M 2631 2963 
Q 2534 3019 2420 3045 
Q 2306 3072 2169 3072 
Q 1681 3072 1420 2755 
Q 1159 2438 1159 1844 
L 1159 0 
L 581 0 
L 581 3500 
L 1159 3500 
L 1159 2956 
Q 1341 3275 1631 3429 
Q 1922 3584 2338 3584 
Q 2397 3584 2469 3576 
Q 2541 3569 2628 3553 
L 2631 2963 
z
" transform="scale(0.015625)"/>
       <path id="DejaVuSans-79" d="M 2059 -325 
Q 1816 -950 1584 -1140 
Q 1353 -1331 966 -1331 
L 506 -1331 
L 506 -850 
L 844 -850 
Q 1081 -850 1212 -737 
Q 1344 -625 1503 -206 
L 1606 56 
L 191 3500 
L 800 3500 
L 1894 763 
L 2988 3500 
L 3597 3500 
L 2059 -325 
z
" transform="scale(0.015625)"/>
       <path id="DejaVuSans-20" transform="scale(0.015625)"/>
       <path id="DejaVuSans-4c" d="M 628 4666 
L 1259 4666 
L 1259 531 
L 3531 531 
L 3531 0 
L 628 0 
L 628 4666 
z
" transform="scale(0.015625)"/>
       <path id="DejaVuSans-65" d="M 3597 1894 
L 3597 1613 
L 953 1613 
Q 991 1019 1311 708 
Q 1631 397 2203 397 
Q 2534 397 2845 478 
Q 3156 559 3463 722 
L 3463 178 
Q 3153 47 2828 -22 
Q 2503 -91 2169 -91 
Q 1331 -91 842 396 
Q 353 884 353 1716 
Q 353 2575 817 3079 
Q 1281 3584 2069 3584 
Q 2775 3584 3186 3129 
Q 3597 2675 3597 1894 
z
M 3022 2063 
Q 3016 2534 2758 2815 
Q 2500 3097 2075 3097 
Q 1594 3097 1305 2825 
Q 1016 2553 972 2059 
L 3022 2063 
z
" transform="scale(0.015625)"/>
       <path id="DejaVuSans-76" d="M 191 3500 
L 800 3500 
L 1894 563 
L 2988 3500 
L 3597 3500 
L 2284 0 
L 1503 0 
L 191 3500 
z
" transform="scale(0.015625)"/>
       <path id="DejaVuSans-69" d="M 603 3500 
L 1178 3500 
L 1178 0 
L 603 0 
L 603 3500 
z
M 603 4863 
L 1178 4863 
L 1178 4134 
L 603 4134 
L 603 4863 
z
" transform="scale(0.015625)"/>
       <path id="DejaVuSans-6e" d="M 3513 2113 
L 3513 0 
L 2938 0 
L 2938 2094 
Q 2938 2591 2744 2837 
Q 2550 3084 2163 3084 
Q 1697 3084 1428 2787 
Q 1159 2491 1159 1978 
L 1159 0 
L 581 0 
L 581 3500 
L 1159 3500 
L 1159 2956 
Q 1366 3272 1645 3428 
Q 1925 3584 2291 3584 
Q 2894 3584 3203 3211 
Q 3513 2838 3513 2113 
z
" transform="scale(0.015625)"/>
       <path id="DejaVuSans-73" d="M 2834 3397 
L 2834 2853 
Q 2591 2978 2328 3040 
Q 2066 3103 1784 3103 
Q 1356 3103 1142 2972 
Q 928 2841 928 2578 
Q 928 2378 1081 2264 
Q 1234 2150 1697 2047 
L 1894 2003 
Q 2506 1872 2764 1633 
Q 3022 1394 3022 966 
Q 3022 478 2636 193 
Q 2250 -91 1575 -91 
Q 1294 -91 989 -36 
Q 684 19 347 128 
L 347 722 
Q 666 556 975 473 
Q 1284 391 1588 391 
Q 1994 391 2212 530 
Q 2431 669 2431 922 
Q 2431 1156 2273 1281 
Q 2116 1406 1581 1522 
L 1381 1569 
Q 847 1681 609 1914 
Q 372 2147 372 2553 
Q 372 3047 722 3315 
Q 1072 3584 1716 3584 
Q 2034 3584 2315 3537 
Q 2597 3491 2834 3397 
z
" transform="scale(0.015625)"/>
       <path id="DejaVuSans-6f" d="M 1959 3097 
Q 1497 3097 1228 2736 
Q 959 2375 959 1747 
Q 959 1119 1226 758 
Q 1494 397 1959 397 
Q 2419 397 2687 759 
Q 2956 1122 2956 1747 
Q 2956 2369 2687 2733 
Q 2419 3097 1959 3097 
z
M 1959 3584 
Q 2709 3584 3137 3096 
Q 3566 2609 3566 1747 
Q 3566 888 3137 398 
Q 2709 -91 1959 -91 
Q 1206 -91 779 398 
Q 353 888 353 1747 
Q 353 2609 779 3096 
Q 1206 3584 1959 3584 
z
" transform="scale(0.015625)"/>
      </defs>
      <use xlink:href="#DejaVuSans-42"/>
      <use xlink:href="#DejaVuSans-61" x="68.603516"/>
      <use xlink:href="#DejaVuSans-72" x="129.882812"/>
      <use xlink:href="#DejaVuSans-72" x="169.246094"/>
      <use xlink:href="#DejaVuSans-79" x="210.359375"/>
      <use xlink:href="#DejaVuSans-20" x="269.539062"/>
      <use xlink:href="#DejaVuSans-4c" x="301.326172"/>
      <use xlink:href="#DejaVuSans-65" x="355.289062"/>
      <use xlink:href="#DejaVuSans-76" x="416.8125"/>
      <use xlink:href="#DejaVuSans-69" x="475.992188"/>
      <use xlink:href="#DejaVuSans-6e" x="503.775391"/>
      <use xlink:href="#DejaVuSans-73" x="567.154297"/>
      <use xlink:href="#DejaVuSans-6f" x="619.253906"/>
      <use xlink:href="#DejaVuSans-6e" x="680.435547"/>
     </g>
    </g>
   </g>
   <g id="text_2">
    <g id="patch_3">
     <path d="M 445.190317 209.108665 
L 519.994379 209.108665 
L 519.994379 192.478352 
L 445.190317 192.478352 
z
" clip-path="url(#p82582a6e2c)" style="fill: #ffffff; opacity: 0.7; stroke: #000000; stroke-linejoin: miter"/>
    </g>
    <g clip-path="url(#p82582a6e2c)">
     <!-- Clint Eastwood -->
     <g transform="translate(449.150317 203.276946)scale(0.09 -0.09)">
      <defs>
       <path id="DejaVuSans-43" d="M 4122 4306 
L 4122 3641 
Q 3803 3938 3442 4084 
Q 3081 4231 2675 4231 
Q 1875 4231 1450 3742 
Q 1025 3253 1025 2328 
Q 1025 1406 1450 917 
Q 1875 428 2675 428 
Q 3081 428 3442 575 
Q 3803 722 4122 1019 
L 4122 359 
Q 3791 134 3420 21 
Q 3050 -91 2638 -91 
Q 1578 -91 968 557 
Q 359 1206 359 2328 
Q 359 3453 968 4101 
Q 1578 4750 2638 4750 
Q 3056 4750 3426 4639 
Q 3797 4528 4122 4306 
z
" transform="scale(0.015625)"/>
       <path id="DejaVuSans-6c" d="M 603 4863 
L 1178 4863 
L 1178 0 
L 603 0 
L 603 4863 
z
" transform="scale(0.015625)"/>
       <path id="DejaVuSans-74" d="M 1172 4494 
L 1172 3500 
L 2356 3500 
L 2356 3053 
L 1172 3053 
L 1172 1153 
Q 1172 725 1289 603 
Q 1406 481 1766 481 
L 2356 481 
L 2356 0 
L 1766 0 
Q 1100 0 847 248 
Q 594 497 594 1153 
L 594 3053 
L 172 3053 
L 172 3500 
L 594 3500 
L 594 4494 
L 1172 4494 
z
" transform="scale(0.015625)"/>
       <path id="DejaVuSans-45" d="M 628 4666 
L 3578 4666 
L 3578 4134 
L 1259 4134 
L 1259 2753 
L 3481 2753 
L 3481 2222 
L 1259 2222 
L 1259 531 
L 3634 531 
L 3634 0 
L 628 0 
L 628 4666 
z
" transform="scale(0.015625)"/>
       <path id="DejaVuSans-77" d="M 269 3500 
L 844 3500 
L 1563 769 
L 2278 3500 
L 2956 3500 
L 3675 769 
L 4391 3500 
L 4966 3500 
L 4050 0 
L 3372 0 
L 2619 2869 
L 1863 0 
L 1184 0 
L 269 3500 
z
" transform="scale(0.015625)"/>
       <path id="DejaVuSans-64" d="M 2906 2969 
L 2906 4863 
L 3481 4863 
L 3481 0 
L 2906 0 
L 2906 525 
Q 2725 213 2448 61 
Q 2172 -91 1784 -91 
Q 1150 -91 751 415 
Q 353 922 353 1747 
Q 353 2572 751 3078 
Q 1150 3584 1784 3584 
Q 2172 3584 2448 3432 
Q 2725 3281 2906 2969 
z
M 947 1747 
Q 947 1113 1208 752 
Q 1469 391 1925 391 
Q 2381 391 2643 752 
Q 2906 1113 2906 1747 
Q 2906 2381 2643 2742 
Q 2381 3103 1925 3103 
Q 1469 3103 1208 2742 
Q 947 2381 947 1747 
z
" transform="scale(0.015625)"/>
      </defs>
      <use xlink:href="#DejaVuSans-43"/>
      <use xlink:href="#DejaVuSans-6c" x="69.824219"/>
      <use xlink:href="#DejaVuSans-69" x="97.607422"/>
      <use xlink:href="#DejaVuSans-6e" x="125.390625"/>
      <use xlink:href="#DejaVuSans-74" x="188.769531"/>
      <use xlink:href="#DejaVuSans-20" x="227.978516"/>
      <use xlink:href="#DejaVuSans-45" x="259.765625"/>
      <use xlink:href="#DejaVuSans-61" x="322.949219"/>
      <use xlink:href="#DejaVuSans-73" x="384.228516"/>
      <use xlink:href="#DejaVuSans-74" x="436.328125"/>
      <use xlink:href="#DejaVuSans-77" x="475.537109"/>
      <use xlink:href="#DejaVuSans-6f" x="557.324219"/>
      <use xlink:href="#DejaVuSans-6f" x="618.505859"/>
      <use xlink:href="#DejaVuSans-64" x="679.6875"/>
     </g>
    </g>
   </g>
   <g id="text_3">
    <g id="patch_4">
     <path d="M 389.992584 136.980958 
L 469.807115 136.980958 
L 469.807115 120.350645 
L 389.992584 120.350645 
z
" clip-path="url(#p82582a6e2c)" style="fill: #ffffff; opacity: 0.7; stroke: #000000; stroke-linejoin: miter"/>
    </g>
    <g clip-path="url(#p82582a6e2c)">
     <!-- Martin Scorsese -->
     <g transform="translate(393.952584 131.149239)scale(0.09 -0.09)">
      <defs>
       <path id="DejaVuSans-4d" d="M 628 4666 
L 1569 4666 
L 2759 1491 
L 3956 4666 
L 4897 4666 
L 4897 0 
L 4281 0 
L 4281 4097 
L 3078 897 
L 2444 897 
L 1241 4097 
L 1241 0 
L 628 0 
L 628 4666 
z
" transform="scale(0.015625)"/>
       <path id="DejaVuSans-53" d="M 3425 4513 
L 3425 3897 
Q 3066 4069 2747 4153 
Q 2428 4238 2131 4238 
Q 1616 4238 1336 4038 
Q 1056 3838 1056 3469 
Q 1056 3159 1242 3001 
Q 1428 2844 1947 2747 
L 2328 2669 
Q 3034 2534 3370 2195 
Q 3706 1856 3706 1288 
Q 3706 609 3251 259 
Q 2797 -91 1919 -91 
Q 1588 -91 1214 -16 
Q 841 59 441 206 
L 441 856 
Q 825 641 1194 531 
Q 1563 422 1919 422 
Q 2459 422 2753 634 
Q 3047 847 3047 1241 
Q 3047 1584 2836 1778 
Q 2625 1972 2144 2069 
L 1759 2144 
Q 1053 2284 737 2584 
Q 422 2884 422 3419 
Q 422 4038 858 4394 
Q 1294 4750 2059 4750 
Q 2388 4750 2728 4690 
Q 3069 4631 3425 4513 
z
" transform="scale(0.015625)"/>
       <path id="DejaVuSans-63" d="M 3122 3366 
L 3122 2828 
Q 2878 2963 2633 3030 
Q 2388 3097 2138 3097 
Q 1578 3097 1268 2742 
Q 959 2388 959 1747 
Q 959 1106 1268 751 
Q 1578 397 2138 397 
Q 2388 397 2633 464 
Q 2878 531 3122 666 
L 3122 134 
Q 2881 22 2623 -34 
Q 2366 -91 2075 -91 
Q 1284 -91 818 406 
Q 353 903 353 1747 
Q 353 2603 823 3093 
Q 1294 3584 2113 3584 
Q 2378 3584 2631 3529 
Q 2884 3475 3122 3366 
z
" transform="scale(0.015625)"/>
      </defs>
      <use xlink:href="#DejaVuSans-4d"/>
      <use xlink:href="#DejaVuSans-61" x="86.279297"/>
      <use xlink:href="#DejaVuSans-72" x="147.558594"/>
      <use xlink:href="#DejaVuSans-74" x="188.671875"/>
      <use xlink:href="#DejaVuSans-69" x="227.880859"/>
      <use xlink:href="#DejaVuSans-6e" x="255.664062"/>
      <use xlink:href="#DejaVuSans-20" x="319.042969"/>
      <use xlink:href="#DejaVuSans-53" x="350.830078"/>
      <use xlink:href="#DejaVuSans-63" x="414.306641"/>
      <use xlink:href="#DejaVuSans-6f" x="469.287109"/>
      <use xlink:href="#DejaVuSans-72" x="530.46875"/>
      <use xlink:href="#DejaVuSans-73" x="571.582031"/>
      <use xlink:href="#DejaVuSans-65" x="623.681641"/>
      <use xlink:href="#DejaVuSans-73" x="685.205078"/>
      <use xlink:href="#DejaVuSans-65" x="737.304688"/>
     </g>
    </g>
   </g>
   <g id="text_4">
    <g id="patch_5">
     <path d="M 310.278588 92.403594 
L 394.249994 92.403594 
L 394.249994 75.773281 
L 310.278588 75.773281 
z
" clip-path="url(#p82582a6e2c)" style="fill: #ffffff; opacity: 0.7; stroke: #000000; stroke-linejoin: miter"/>
    </g>
    <g clip-path="url(#p82582a6e2c)">
     <!-- Robert Zemeckis -->
     <g transform="translate(314.238588 86.571875)scale(0.09 -0.09)">
      <defs>
       <path id="DejaVuSans-52" d="M 2841 2188 
Q 3044 2119 3236 1894 
Q 3428 1669 3622 1275 
L 4263 0 
L 3584 0 
L 2988 1197 
Q 2756 1666 2539 1819 
Q 2322 1972 1947 1972 
L 1259 1972 
L 1259 0 
L 628 0 
L 628 4666 
L 2053 4666 
Q 2853 4666 3247 4331 
Q 3641 3997 3641 3322 
Q 3641 2881 3436 2590 
Q 3231 2300 2841 2188 
z
M 1259 4147 
L 1259 2491 
L 2053 2491 
Q 2509 2491 2742 2702 
Q 2975 2913 2975 3322 
Q 2975 3731 2742 3939 
Q 2509 4147 2053 4147 
L 1259 4147 
z
" transform="scale(0.015625)"/>
       <path id="DejaVuSans-62" d="M 3116 1747 
Q 3116 2381 2855 2742 
Q 2594 3103 2138 3103 
Q 1681 3103 1420 2742 
Q 1159 2381 1159 1747 
Q 1159 1113 1420 752 
Q 1681 391 2138 391 
Q 2594 391 2855 752 
Q 3116 1113 3116 1747 
z
M 1159 2969 
Q 1341 3281 1617 3432 
Q 1894 3584 2278 3584 
Q 2916 3584 3314 3078 
Q 3713 2572 3713 1747 
Q 3713 922 3314 415 
Q 2916 -91 2278 -91 
Q 1894 -91 1617 61 
Q 1341 213 1159 525 
L 1159 0 
L 581 0 
L 581 4863 
L 1159 4863 
L 1159 2969 
z
" transform="scale(0.015625)"/>
       <path id="DejaVuSans-5a" d="M 359 4666 
L 4025 4666 
L 4025 4184 
L 1075 531 
L 4097 531 
L 4097 0 
L 288 0 
L 288 481 
L 3238 4134 
L 359 4134 
L 359 4666 
z
" transform="scale(0.015625)"/>
       <path id="DejaVuSans-6d" d="M 3328 2828 
Q 3544 3216 3844 3400 
Q 4144 3584 4550 3584 
Q 5097 3584 5394 3201 
Q 5691 2819 5691 2113 
L 5691 0 
L 5113 0 
L 5113 2094 
Q 5113 2597 4934 2840 
Q 4756 3084 4391 3084 
Q 3944 3084 3684 2787 
Q 3425 2491 3425 1978 
L 3425 0 
L 2847 0 
L 2847 2094 
Q 2847 2600 2669 2842 
Q 2491 3084 2119 3084 
Q 1678 3084 1418 2786 
Q 1159 2488 1159 1978 
L 1159 0 
L 581 0 
L 581 3500 
L 1159 3500 
L 1159 2956 
Q 1356 3278 1631 3431 
Q 1906 3584 2284 3584 
Q 2666 3584 2933 3390 
Q 3200 3197 3328 2828 
z
" transform="scale(0.015625)"/>
       <path id="DejaVuSans-6b" d="M 581 4863 
L 1159 4863 
L 1159 1991 
L 2875 3500 
L 3609 3500 
L 1753 1863 
L 3688 0 
L 2938 0 
L 1159 1709 
L 1159 0 
L 581 0 
L 581 4863 
z
" transform="scale(0.015625)"/>
      </defs>
      <use xlink:href="#DejaVuSans-52"/>
      <use xlink:href="#DejaVuSans-6f" x="64.982422"/>
      <use xlink:href="#DejaVuSans-62" x="126.164062"/>
      <use xlink:href="#DejaVuSans-65" x="189.640625"/>
      <use xlink:href="#DejaVuSans-72" x="251.164062"/>
      <use xlink:href="#DejaVuSans-74" x="292.277344"/>
      <use xlink:href="#DejaVuSans-20" x="331.486328"/>
      <use xlink:href="#DejaVuSans-5a" x="363.273438"/>
      <use xlink:href="#DejaVuSans-65" x="431.779297"/>
      <use xlink:href="#DejaVuSans-6d" x="493.302734"/>
      <use xlink:href="#DejaVuSans-65" x="590.714844"/>
      <use xlink:href="#DejaVuSans-63" x="652.238281"/>
      <use xlink:href="#DejaVuSans-6b" x="707.21875"/>
      <use xlink:href="#DejaVuSans-69" x="765.128906"/>
      <use xlink:href="#DejaVuSans-73" x="792.912109"/>
     </g>
    </g>
   </g>
   <g id="text_5">
    <g id="patch_6">
     <path d="M 221.498611 83.084387 
L 304.720486 83.084387 
L 304.720486 66.454075 
L 221.498611 66.454075 
z
" clip-path="url(#p82582a6e2c)" style="fill: #ffffff; opacity: 0.7; stroke: #000000; stroke-linejoin: miter"/>
    </g>
    <g clip-path="url(#p82582a6e2c)">
     <!-- Joel Schumacher -->
     <g transform="translate(225.458611 77.252668)scale(0.09 -0.09)">
      <defs>
       <path id="DejaVuSans-4a" d="M 628 4666 
L 1259 4666 
L 1259 325 
Q 1259 -519 939 -900 
Q 619 -1281 -91 -1281 
L -331 -1281 
L -331 -750 
L -134 -750 
Q 284 -750 456 -515 
Q 628 -281 628 325 
L 628 4666 
z
" transform="scale(0.015625)"/>
       <path id="DejaVuSans-68" d="M 3513 2113 
L 3513 0 
L 2938 0 
L 2938 2094 
Q 2938 2591 2744 2837 
Q 2550 3084 2163 3084 
Q 1697 3084 1428 2787 
Q 1159 2491 1159 1978 
L 1159 0 
L 581 0 
L 581 4863 
L 1159 4863 
L 1159 2956 
Q 1366 3272 1645 3428 
Q 1925 3584 2291 3584 
Q 2894 3584 3203 3211 
Q 3513 2838 3513 2113 
z
" transform="scale(0.015625)"/>
       <path id="DejaVuSans-75" d="M 544 1381 
L 544 3500 
L 1119 3500 
L 1119 1403 
Q 1119 906 1312 657 
Q 1506 409 1894 409 
Q 2359 409 2629 706 
Q 2900 1003 2900 1516 
L 2900 3500 
L 3475 3500 
L 3475 0 
L 2900 0 
L 2900 538 
Q 2691 219 2414 64 
Q 2138 -91 1772 -91 
Q 1169 -91 856 284 
Q 544 659 544 1381 
z
M 1991 3584 
L 1991 3584 
z
" transform="scale(0.015625)"/>
      </defs>
      <use xlink:href="#DejaVuSans-4a"/>
      <use xlink:href="#DejaVuSans-6f" x="29.492188"/>
      <use xlink:href="#DejaVuSans-65" x="90.673828"/>
      <use xlink:href="#DejaVuSans-6c" x="152.197266"/>
      <use xlink:href="#DejaVuSans-20" x="179.980469"/>
      <use xlink:href="#DejaVuSans-53" x="211.767578"/>
      <use xlink:href="#DejaVuSans-63" x="275.244141"/>
      <use xlink:href="#DejaVuSans-68" x="330.224609"/>
      <use xlink:href="#DejaVuSans-75" x="393.603516"/>
      <use xlink:href="#DejaVuSans-6d" x="456.982422"/>
      <use xlink:href="#DejaVuSans-61" x="554.394531"/>
      <use xlink:href="#DejaVuSans-63" x="615.673828"/>
      <use xlink:href="#DejaVuSans-68" x="670.654297"/>
      <use xlink:href="#DejaVuSans-65" x="734.033203"/>
      <use xlink:href="#DejaVuSans-72" x="795.556641"/>
     </g>
    </g>
   </g>
   <g id="text_6">
    <g id="patch_7">
     <path d="M 148.108407 110.634724 
L 207.594189 110.634724 
L 207.594189 94.004411 
L 148.108407 94.004411 
z
" clip-path="url(#p82582a6e2c)" style="fill: #ffffff; opacity: 0.7; stroke: #000000; stroke-linejoin: miter"/>
    </g>
    <g clip-path="url(#p82582a6e2c)">
     <!-- John Landis -->
     <g transform="translate(152.068407 104.803005)scale(0.09 -0.09)">
      <use xlink:href="#DejaVuSans-4a"/>
      <use xlink:href="#DejaVuSans-6f" x="29.492188"/>
      <use xlink:href="#DejaVuSans-68" x="90.673828"/>
      <use xlink:href="#DejaVuSans-6e" x="154.052734"/>
      <use xlink:href="#DejaVuSans-20" x="217.431641"/>
      <use xlink:href="#DejaVuSans-4c" x="249.21875"/>
      <use xlink:href="#DejaVuSans-61" x="304.931641"/>
      <use xlink:href="#DejaVuSans-6e" x="366.210938"/>
      <use xlink:href="#DejaVuSans-64" x="429.589844"/>
      <use xlink:href="#DejaVuSans-69" x="493.066406"/>
      <use xlink:href="#DejaVuSans-73" x="520.849609"/>
     </g>
    </g>
   </g>
   <g id="text_7">
    <g id="patch_8">
     <path d="M 78.33718 170.290885 
L 144.125774 170.290885 
L 144.125774 153.660572 
L 78.33718 153.660572 
z
" clip-path="url(#p82582a6e2c)" style="fill: #ffffff; opacity: 0.7; stroke: #000000; stroke-linejoin: miter"/>
    </g>
    <g clip-path="url(#p82582a6e2c)">
     <!-- Tulsi Ghimire -->
     <g transform="translate(82.29718 164.459166)scale(0.09 -0.09)">
      <defs>
       <path id="DejaVuSans-54" d="M -19 4666 
L 3928 4666 
L 3928 4134 
L 2272 4134 
L 2272 0 
L 1638 0 
L 1638 4134 
L -19 4134 
L -19 4666 
z
" transform="scale(0.015625)"/>
       <path id="DejaVuSans-47" d="M 3809 666 
L 3809 1919 
L 2778 1919 
L 2778 2438 
L 4434 2438 
L 4434 434 
Q 4069 175 3628 42 
Q 3188 -91 2688 -91 
Q 1594 -91 976 548 
Q 359 1188 359 2328 
Q 359 3472 976 4111 
Q 1594 4750 2688 4750 
Q 3144 4750 3555 4637 
Q 3966 4525 4313 4306 
L 4313 3634 
Q 3963 3931 3569 4081 
Q 3175 4231 2741 4231 
Q 1884 4231 1454 3753 
Q 1025 3275 1025 2328 
Q 1025 1384 1454 906 
Q 1884 428 2741 428 
Q 3075 428 3337 486 
Q 3600 544 3809 666 
z
" transform="scale(0.015625)"/>
      </defs>
      <use xlink:href="#DejaVuSans-54"/>
      <use xlink:href="#DejaVuSans-75" x="45.958984"/>
      <use xlink:href="#DejaVuSans-6c" x="109.337891"/>
      <use xlink:href="#DejaVuSans-73" x="137.121094"/>
      <use xlink:href="#DejaVuSans-69" x="189.220703"/>
      <use xlink:href="#DejaVuSans-20" x="217.003906"/>
      <use xlink:href="#DejaVuSans-47" x="248.791016"/>
      <use xlink:href="#DejaVuSans-68" x="326.28125"/>
      <use xlink:href="#DejaVuSans-69" x="389.660156"/>
      <use xlink:href="#DejaVuSans-6d" x="417.443359"/>
      <use xlink:href="#DejaVuSans-69" x="514.855469"/>
      <use xlink:href="#DejaVuSans-72" x="542.638672"/>
      <use xlink:href="#DejaVuSans-65" x="581.501953"/>
     </g>
    </g>
   </g>
   <g id="text_8">
    <g id="patch_9">
     <path d="M 43.868293 251.737805 
L 105.670168 251.737805 
L 105.670168 235.107493 
L 43.868293 235.107493 
z
" clip-path="url(#p82582a6e2c)" style="fill: #ffffff; opacity: 0.7; stroke: #000000; stroke-linejoin: miter"/>
    </g>
    <g clip-path="url(#p82582a6e2c)">
     <!-- Satyajit Ray -->
     <g transform="translate(47.828293 245.906086)scale(0.09 -0.09)">
      <defs>
       <path id="DejaVuSans-6a" d="M 603 3500 
L 1178 3500 
L 1178 -63 
Q 1178 -731 923 -1031 
Q 669 -1331 103 -1331 
L -116 -1331 
L -116 -844 
L 38 -844 
Q 366 -844 484 -692 
Q 603 -541 603 -63 
L 603 3500 
z
M 603 4863 
L 1178 4863 
L 1178 4134 
L 603 4134 
L 603 4863 
z
" transform="scale(0.015625)"/>
      </defs>
      <use xlink:href="#DejaVuSans-53"/>
      <use xlink:href="#DejaVuSans-61" x="63.476562"/>
      <use xlink:href="#DejaVuSans-74" x="124.755859"/>
      <use xlink:href="#DejaVuSans-79" x="163.964844"/>
      <use xlink:href="#DejaVuSans-61" x="223.144531"/>
      <use xlink:href="#DejaVuSans-6a" x="284.423828"/>
      <use xlink:href="#DejaVuSans-69" x="312.207031"/>
      <use xlink:href="#DejaVuSans-74" x="339.990234"/>
      <use xlink:href="#DejaVuSans-20" x="379.199219"/>
      <use xlink:href="#DejaVuSans-52" x="410.986328"/>
      <use xlink:href="#DejaVuSans-61" x="478.21875"/>
      <use xlink:href="#DejaVuSans-79" x="539.498047"/>
     </g>
    </g>
   </g>
   <g id="text_9">
    <g id="patch_10">
     <path d="M 40.942603 340.892546 
L 108.595884 340.892546 
L 108.595884 324.262233 
L 40.942603 324.262233 
z
" clip-path="url(#p82582a6e2c)" style="fill: #ffffff; opacity: 0.7; stroke: #000000; stroke-linejoin: miter"/>
    </g>
    <g clip-path="url(#p82582a6e2c)">
     <!-- Vincent Gallo -->
     <g transform="translate(44.902603 335.060827)scale(0.09 -0.09)">
      <defs>
       <path id="DejaVuSans-56" d="M 1831 0 
L 50 4666 
L 709 4666 
L 2188 738 
L 3669 4666 
L 4325 4666 
L 2547 0 
L 1831 0 
z
" transform="scale(0.015625)"/>
      </defs>
      <use xlink:href="#DejaVuSans-56"/>
      <use xlink:href="#DejaVuSans-69" x="66.158203"/>
      <use xlink:href="#DejaVuSans-6e" x="93.941406"/>
      <use xlink:href="#DejaVuSans-63" x="157.320312"/>
      <use xlink:href="#DejaVuSans-65" x="212.300781"/>
      <use xlink:href="#DejaVuSans-6e" x="273.824219"/>
      <use xlink:href="#DejaVuSans-74" x="337.203125"/>
      <use xlink:href="#DejaVuSans-20" x="376.412109"/>
      <use xlink:href="#DejaVuSans-47" x="408.199219"/>
      <use xlink:href="#DejaVuSans-61" x="485.689453"/>
      <use xlink:href="#DejaVuSans-6c" x="546.96875"/>
      <use xlink:href="#DejaVuSans-6c" x="574.751953"/>
      <use xlink:href="#DejaVuSans-6f" x="602.535156"/>
     </g>
    </g>
   </g>
   <g id="text_10">
    <g id="patch_11">
     <path d="M 74.645084 422.33944 
L 147.817896 422.33944 
L 147.817896 405.709128 
L 74.645084 405.709128 
z
" clip-path="url(#p82582a6e2c)" style="fill: #ffffff; opacity: 0.7; stroke: #000000; stroke-linejoin: miter"/>
    </g>
    <g clip-path="url(#p82582a6e2c)">
     <!-- Peter Chelsom -->
     <g transform="translate(78.605084 416.507722)scale(0.09 -0.09)">
      <defs>
       <path id="DejaVuSans-50" d="M 1259 4147 
L 1259 2394 
L 2053 2394 
Q 2494 2394 2734 2622 
Q 2975 2850 2975 3272 
Q 2975 3691 2734 3919 
Q 2494 4147 2053 4147 
L 1259 4147 
z
M 628 4666 
L 2053 4666 
Q 2838 4666 3239 4311 
Q 3641 3956 3641 3272 
Q 3641 2581 3239 2228 
Q 2838 1875 2053 1875 
L 1259 1875 
L 1259 0 
L 628 0 
L 628 4666 
z
" transform="scale(0.015625)"/>
      </defs>
      <use xlink:href="#DejaVuSans-50"/>
      <use xlink:href="#DejaVuSans-65" x="56.677734"/>
      <use xlink:href="#DejaVuSans-74" x="118.201172"/>
      <use xlink:href="#DejaVuSans-65" x="157.410156"/>
      <use xlink:href="#DejaVuSans-72" x="218.933594"/>
      <use xlink:href="#DejaVuSans-20" x="260.046875"/>
      <use xlink:href="#DejaVuSans-43" x="291.833984"/>
      <use xlink:href="#DejaVuSans-68" x="361.658203"/>
      <use xlink:href="#DejaVuSans-65" x="425.037109"/>
      <use xlink:href="#DejaVuSans-6c" x="486.560547"/>
      <use xlink:href="#DejaVuSans-73" x="514.34375"/>
      <use xlink:href="#DejaVuSans-6f" x="566.443359"/>
      <use xlink:href="#DejaVuSans-6d" x="627.625"/>
     </g>
    </g>
   </g>
   <g id="text_11">
    <g id="patch_12">
     <path d="M 145.718518 481.995602 
L 209.984143 481.995602 
L 209.984143 465.365289 
L 145.718518 465.365289 
z
" clip-path="url(#p82582a6e2c)" style="fill: #ffffff; opacity: 0.7; stroke: #000000; stroke-linejoin: miter"/>
    </g>
    <g clip-path="url(#p82582a6e2c)">
     <!-- Hugh Wilson -->
     <g transform="translate(149.678518 476.163883)scale(0.09 -0.09)">
      <defs>
       <path id="DejaVuSans-48" d="M 628 4666 
L 1259 4666 
L 1259 2753 
L 3553 2753 
L 3553 4666 
L 4184 4666 
L 4184 0 
L 3553 0 
L 3553 2222 
L 1259 2222 
L 1259 0 
L 628 0 
L 628 4666 
z
" transform="scale(0.015625)"/>
       <path id="DejaVuSans-67" d="M 2906 1791 
Q 2906 2416 2648 2759 
Q 2391 3103 1925 3103 
Q 1463 3103 1205 2759 
Q 947 2416 947 1791 
Q 947 1169 1205 825 
Q 1463 481 1925 481 
Q 2391 481 2648 825 
Q 2906 1169 2906 1791 
z
M 3481 434 
Q 3481 -459 3084 -895 
Q 2688 -1331 1869 -1331 
Q 1566 -1331 1297 -1286 
Q 1028 -1241 775 -1147 
L 775 -588 
Q 1028 -725 1275 -790 
Q 1522 -856 1778 -856 
Q 2344 -856 2625 -561 
Q 2906 -266 2906 331 
L 2906 616 
Q 2728 306 2450 153 
Q 2172 0 1784 0 
Q 1141 0 747 490 
Q 353 981 353 1791 
Q 353 2603 747 3093 
Q 1141 3584 1784 3584 
Q 2172 3584 2450 3431 
Q 2728 3278 2906 2969 
L 2906 3500 
L 3481 3500 
L 3481 434 
z
" transform="scale(0.015625)"/>
       <path id="DejaVuSans-57" d="M 213 4666 
L 850 4666 
L 1831 722 
L 2809 4666 
L 3519 4666 
L 4500 722 
L 5478 4666 
L 6119 4666 
L 4947 0 
L 4153 0 
L 3169 4050 
L 2175 0 
L 1381 0 
L 213 4666 
z
" transform="scale(0.015625)"/>
      </defs>
      <use xlink:href="#DejaVuSans-48"/>
      <use xlink:href="#DejaVuSans-75" x="75.195312"/>
      <use xlink:href="#DejaVuSans-67" x="138.574219"/>
      <use xlink:href="#DejaVuSans-68" x="202.050781"/>
      <use xlink:href="#DejaVuSans-20" x="265.429688"/>
      <use xlink:href="#DejaVuSans-57" x="297.216797"/>
      <use xlink:href="#DejaVuSans-69" x="393.84375"/>
      <use xlink:href="#DejaVuSans-6c" x="421.626953"/>
      <use xlink:href="#DejaVuSans-73" x="449.410156"/>
      <use xlink:href="#DejaVuSans-6f" x="501.509766"/>
      <use xlink:href="#DejaVuSans-6e" x="562.691406"/>
     </g>
    </g>
   </g>
   <g id="text_12">
    <g id="patch_13">
     <path d="M 217.282712 509.545925 
L 308.936462 509.545925 
L 308.936462 492.915613 
L 217.282712 492.915613 
z
" clip-path="url(#p82582a6e2c)" style="fill: #ffffff; opacity: 0.7; stroke: #000000; stroke-linejoin: miter"/>
    </g>
    <g clip-path="url(#p82582a6e2c)">
     <!-- William A. Graham -->
     <g transform="translate(221.242712 503.714207)scale(0.09 -0.09)">
      <defs>
       <path id="DejaVuSans-41" d="M 2188 4044 
L 1331 1722 
L 3047 1722 
L 2188 4044 
z
M 1831 4666 
L 2547 4666 
L 4325 0 
L 3669 0 
L 3244 1197 
L 1141 1197 
L 716 0 
L 50 0 
L 1831 4666 
z
" transform="scale(0.015625)"/>
       <path id="DejaVuSans-2e" d="M 684 794 
L 1344 794 
L 1344 0 
L 684 0 
L 684 794 
z
" transform="scale(0.015625)"/>
      </defs>
      <use xlink:href="#DejaVuSans-57"/>
      <use xlink:href="#DejaVuSans-69" x="96.626953"/>
      <use xlink:href="#DejaVuSans-6c" x="124.410156"/>
      <use xlink:href="#DejaVuSans-6c" x="152.193359"/>
      <use xlink:href="#DejaVuSans-69" x="179.976562"/>
      <use xlink:href="#DejaVuSans-61" x="207.759766"/>
      <use xlink:href="#DejaVuSans-6d" x="269.039062"/>
      <use xlink:href="#DejaVuSans-20" x="366.451172"/>
      <use xlink:href="#DejaVuSans-41" x="398.238281"/>
      <use xlink:href="#DejaVuSans-2e" x="464.896484"/>
      <use xlink:href="#DejaVuSans-20" x="496.683594"/>
      <use xlink:href="#DejaVuSans-47" x="528.470703"/>
      <use xlink:href="#DejaVuSans-72" x="605.960938"/>
      <use xlink:href="#DejaVuSans-61" x="647.074219"/>
      <use xlink:href="#DejaVuSans-68" x="708.353516"/>
      <use xlink:href="#DejaVuSans-61" x="771.732422"/>
      <use xlink:href="#DejaVuSans-6d" x="833.011719"/>
     </g>
    </g>
   </g>
   <g id="text_13">
    <g id="patch_14">
     <path d="M 322.215573 500.226706 
L 382.313073 500.226706 
L 382.313073 483.596393 
L 322.215573 483.596393 
z
" clip-path="url(#p82582a6e2c)" style="fill: #ffffff; opacity: 0.7; stroke: #000000; stroke-linejoin: miter"/>
    </g>
    <g clip-path="url(#p82582a6e2c)">
     <!-- Jon Favreau -->
     <g transform="translate(326.175573 494.394987)scale(0.09 -0.09)">
      <defs>
       <path id="DejaVuSans-46" d="M 628 4666 
L 3309 4666 
L 3309 4134 
L 1259 4134 
L 1259 2759 
L 3109 2759 
L 3109 2228 
L 1259 2228 
L 1259 0 
L 628 0 
L 628 4666 
z
" transform="scale(0.015625)"/>
      </defs>
      <use xlink:href="#DejaVuSans-4a"/>
      <use xlink:href="#DejaVuSans-6f" x="29.492188"/>
      <use xlink:href="#DejaVuSans-6e" x="90.673828"/>
      <use xlink:href="#DejaVuSans-20" x="154.052734"/>
      <use xlink:href="#DejaVuSans-46" x="185.839844"/>
      <use xlink:href="#DejaVuSans-61" x="234.234375"/>
      <use xlink:href="#DejaVuSans-76" x="295.513672"/>
      <use xlink:href="#DejaVuSans-72" x="354.693359"/>
      <use xlink:href="#DejaVuSans-65" x="393.556641"/>
      <use xlink:href="#DejaVuSans-61" x="455.080078"/>
      <use xlink:href="#DejaVuSans-75" x="516.359375"/>
     </g>
    </g>
   </g>
   <g id="text_14">
    <g id="patch_15">
     <path d="M 389.04481 455.649316 
L 470.754967 455.649316 
L 470.754967 439.019004 
L 389.04481 439.019004 
z
" clip-path="url(#p82582a6e2c)" style="fill: #ffffff; opacity: 0.7; stroke: #000000; stroke-linejoin: miter"/>
    </g>
    <g clip-path="url(#p82582a6e2c)">
     <!-- Sean McNamara -->
     <g transform="translate(393.00481 449.817598)scale(0.09 -0.09)">
      <defs>
       <path id="DejaVuSans-4e" d="M 628 4666 
L 1478 4666 
L 3547 763 
L 3547 4666 
L 4159 4666 
L 4159 0 
L 3309 0 
L 1241 3903 
L 1241 0 
L 628 0 
L 628 4666 
z
" transform="scale(0.015625)"/>
      </defs>
      <use xlink:href="#DejaVuSans-53"/>
      <use xlink:href="#DejaVuSans-65" x="63.476562"/>
      <use xlink:href="#DejaVuSans-61" x="125"/>
      <use xlink:href="#DejaVuSans-6e" x="186.279297"/>
      <use xlink:href="#DejaVuSans-20" x="249.658203"/>
      <use xlink:href="#DejaVuSans-4d" x="281.445312"/>
      <use xlink:href="#DejaVuSans-63" x="367.724609"/>
      <use xlink:href="#DejaVuSans-4e" x="422.705078"/>
      <use xlink:href="#DejaVuSans-61" x="497.509766"/>
      <use xlink:href="#DejaVuSans-6d" x="558.789062"/>
      <use xlink:href="#DejaVuSans-61" x="656.201172"/>
      <use xlink:href="#DejaVuSans-72" x="717.480469"/>
      <use xlink:href="#DejaVuSans-61" x="758.59375"/>
     </g>
    </g>
   </g>
   <g id="text_15">
    <g id="patch_16">
     <path d="M 454.299327 383.521616 
L 510.88542 383.521616 
L 510.88542 366.891303 
L 454.299327 366.891303 
z
" clip-path="url(#p82582a6e2c)" style="fill: #ffffff; opacity: 0.7; stroke: #000000; stroke-linejoin: miter"/>
    </g>
    <g clip-path="url(#p82582a6e2c)">
     <!-- Rob Cohen -->
     <g transform="translate(458.259327 377.689897)scale(0.09 -0.09)">
      <use xlink:href="#DejaVuSans-52"/>
      <use xlink:href="#DejaVuSans-6f" x="64.982422"/>
      <use xlink:href="#DejaVuSans-62" x="126.164062"/>
      <use xlink:href="#DejaVuSans-20" x="189.640625"/>
      <use xlink:href="#DejaVuSans-43" x="221.427734"/>
      <use xlink:href="#DejaVuSans-6f" x="291.251953"/>
      <use xlink:href="#DejaVuSans-68" x="352.433594"/>
      <use xlink:href="#DejaVuSans-65" x="415.8125"/>
      <use xlink:href="#DejaVuSans-6e" x="477.335938"/>
     </g>
    </g>
   </g>
   <g id="text_16">
    <!-- Impactful directors for World cinema genre -->
    <g transform="translate(158.96625 4.8)scale(0.12 -0.12)">
     <defs>
      <path id="DejaVuSans-49" d="M 628 4666 
L 1259 4666 
L 1259 0 
L 628 0 
L 628 4666 
z
" transform="scale(0.015625)"/>
      <path id="DejaVuSans-70" d="M 1159 525 
L 1159 -1331 
L 581 -1331 
L 581 3500 
L 1159 3500 
L 1159 2969 
Q 1341 3281 1617 3432 
Q 1894 3584 2278 3584 
Q 2916 3584 3314 3078 
Q 3713 2572 3713 1747 
Q 3713 922 3314 415 
Q 2916 -91 2278 -91 
Q 1894 -91 1617 61 
Q 1341 213 1159 525 
z
M 3116 1747 
Q 3116 2381 2855 2742 
Q 2594 3103 2138 3103 
Q 1681 3103 1420 2742 
Q 1159 2381 1159 1747 
Q 1159 1113 1420 752 
Q 1681 391 2138 391 
Q 2594 391 2855 752 
Q 3116 1113 3116 1747 
z
" transform="scale(0.015625)"/>
      <path id="DejaVuSans-66" d="M 2375 4863 
L 2375 4384 
L 1825 4384 
Q 1516 4384 1395 4259 
Q 1275 4134 1275 3809 
L 1275 3500 
L 2222 3500 
L 2222 3053 
L 1275 3053 
L 1275 0 
L 697 0 
L 697 3053 
L 147 3053 
L 147 3500 
L 697 3500 
L 697 3744 
Q 697 4328 969 4595 
Q 1241 4863 1831 4863 
L 2375 4863 
z
" transform="scale(0.015625)"/>
     </defs>
     <use xlink:href="#DejaVuSans-49"/>
     <use xlink:href="#DejaVuSans-6d" x="29.492188"/>
     <use xlink:href="#DejaVuSans-70" x="126.904297"/>
     <use xlink:href="#DejaVuSans-61" x="190.380859"/>
     <use xlink:href="#DejaVuSans-63" x="251.660156"/>
     <use xlink:href="#DejaVuSans-74" x="306.640625"/>
     <use xlink:href="#DejaVuSans-66" x="345.849609"/>
     <use xlink:href="#DejaVuSans-75" x="381.054688"/>
     <use xlink:href="#DejaVuSans-6c" x="444.433594"/>
     <use xlink:href="#DejaVuSans-20" x="472.216797"/>
     <use xlink:href="#DejaVuSans-64" x="504.003906"/>
     <use xlink:href="#DejaVuSans-69" x="567.480469"/>
     <use xlink:href="#DejaVuSans-72" x="595.263672"/>
     <use xlink:href="#DejaVuSans-65" x="634.126953"/>
     <use xlink:href="#DejaVuSans-63" x="695.650391"/>
     <use xlink:href="#DejaVuSans-74" x="750.630859"/>
     <use xlink:href="#DejaVuSans-6f" x="789.839844"/>
     <use xlink:href="#DejaVuSans-72" x="851.021484"/>
     <use xlink:href="#DejaVuSans-73" x="892.134766"/>
     <use xlink:href="#DejaVuSans-20" x="944.234375"/>
     <use xlink:href="#DejaVuSans-66" x="976.021484"/>
     <use xlink:href="#DejaVuSans-6f" x="1011.226562"/>
     <use xlink:href="#DejaVuSans-72" x="1072.408203"/>
     <use xlink:href="#DejaVuSans-20" x="1113.521484"/>
     <use xlink:href="#DejaVuSans-57" x="1145.308594"/>
     <use xlink:href="#DejaVuSans-6f" x="1238.310547"/>
     <use xlink:href="#DejaVuSans-72" x="1299.492188"/>
     <use xlink:href="#DejaVuSans-6c" x="1340.605469"/>
     <use xlink:href="#DejaVuSans-64" x="1368.388672"/>
     <use xlink:href="#DejaVuSans-20" x="1431.865234"/>
     <use xlink:href="#DejaVuSans-63" x="1463.652344"/>
     <use xlink:href="#DejaVuSans-69" x="1518.632812"/>
     <use xlink:href="#DejaVuSans-6e" x="1546.416016"/>
     <use xlink:href="#DejaVuSans-65" x="1609.794922"/>
     <use xlink:href="#DejaVuSans-6d" x="1671.318359"/>
     <use xlink:href="#DejaVuSans-61" x="1768.730469"/>
     <use xlink:href="#DejaVuSans-20" x="1830.009766"/>
     <use xlink:href="#DejaVuSans-67" x="1861.796875"/>
     <use xlink:href="#DejaVuSans-65" x="1925.273438"/>
     <use xlink:href="#DejaVuSans-6e" x="1986.796875"/>
     <use xlink:href="#DejaVuSans-72" x="2050.175781"/>
     <use xlink:href="#DejaVuSans-65" x="2089.039062"/>
    </g>
   </g>
  </g>
 </g>
 <defs>
  <clipPath id="p82582a6e2c">
   <rect x="10.8" y="10.8" width="554.4" height="554.4"/>
  </clipPath>
 </defs>
</svg>
